<svg id="Layer_1" data-name="Layer 1" xmlns="http://www.w3.org/2000/svg" viewBox="0 0 424.74 424.74"><defs><style>.cls-1{fill:#d9d9d8;}.cls-2{font-size:17.56px;}.cls-18,.cls-2,.cls-21,.cls-24,.cls-25,.cls-26,.cls-27,.cls-8{fill:#f8f7f8;}.cls-17,.cls-18,.cls-19,.cls-2,.cls-20,.cls-21,.cls-22,.cls-23,.cls-24,.cls-25,.cls-26,.cls-27,.cls-28,.cls-3,.cls-4{font-family:Arial-BoldMT, Arial;font-weight:700;}.cls-3{font-size:16.31px;}.cls-3,.cls-4{fill:#fff;}.cls-4{font-size:16.31px;}.cls-5{fill:#697d8d;}.cls-17,.cls-20,.cls-6{fill:#fdfefe;}.cls-7{fill:#667a92;}.cls-9{fill:#667d95;}.cls-10{fill:#6697c2;}.cls-11{fill:#e55725;}.cls-12{fill:#7f7f7f;}.cls-13{fill:#69778f;}.cls-13,.cls-14{stroke:#fdfefe;stroke-miterlimit:10;}.cls-14{fill:#c6e2c5;opacity:0.8;}.cls-15{fill:#582d90;}.cls-16{fill:#46a347;}.cls-17{font-size:12.7px;}.cls-18{font-size:14.18px;}.cls-19{font-size:17.52px;}.cls-19,.cls-28{fill:#231f20;}.cls-20{font-size:12.44px;}.cls-21{font-size:13.21px;}.cls-22{font-size:13.39px;fill:#fcfafc;}.cls-23{font-size:12.55px;fill:#f9f9fa;}.cls-24{font-size:12.7px;}.cls-25{font-size:10.5px;}.cls-26{font-size:10.5px;}.cls-27{font-size:10.5px;}.cls-28{font-size:18.2px;}</style></defs><path class="cls-1" d="M407.27,29.73c-117.3,0-212.38,95.08-212.38,212.37S290,454.46,407.27,454.46,619.63,359.39,619.63,242.1,524.55,29.73,407.27,29.73Z" transform="translate(-194.89 -29.73)"/><text class="cls-2" transform="translate(71.46 151.76) rotate(-68.25)">O</text><text class="cls-2" transform="translate(76.46 139.39) rotate(-61.98)">b</text><text class="cls-2" transform="matrix(0.55, -0.84, 0.84, 0.55, 81.39, 130.16)">s</text><text class="cls-2" transform="translate(86.59 122.19) rotate(-51.96)">e</text><text class="cls-2" transform="translate(92.51 114.7) rotate(-47.91)">r</text><text class="cls-2" transform="matrix(0.72, -0.69, 0.69, 0.72, 96.92, 109.73)">v</text><text class="cls-2" transform="translate(103.77 103.12) rotate(-39.4)">e</text><text class="cls-3" transform="translate(335.51 122.32) rotate(52.01)">E</text><text class="cls-3" transform="matrix(0.56, 0.83, -0.83, 0.56, 342.08, 130.75)">n</text><text class="cls-3" transform="matrix(0.5, 0.86, -0.86, 0.5, 347.56, 138.85)">g</text><text class="cls-3" transform="translate(352.48 147.31) rotate(63.39)">a</text><text class="cls-3" transform="translate(356.47 155.25) rotate(66.96)">g</text><text class="cls-3" transform="translate(360.3 164.26) rotate(70.48)">e</text><text class="cls-4" transform="translate(320.4 135.97) rotate(52.3)">(</text><text class="cls-4" transform="matrix(0.58, 0.81, -0.81, 0.58, 323.66, 140.19)">I</text><text class="cls-4" transform="matrix(0.54, 0.84, -0.84, 0.54, 326.3, 143.73)">T</text><text class="cls-4" transform="matrix(0.49, 0.87, -0.87, 0.49, 331.64, 151.91)">S</text><text class="cls-4" transform="matrix(0.41, 0.91, -0.91, 0.41, 336.87, 161.2)">M</text><text class="cls-4" transform="translate(342.3 173.44) rotate(69.14)">)</text><path class="cls-5" d="M303.34,192.79s16.48-47.45,78.14-64.07c0,0,78.82-22.26,126.27,47.71l5.63-3.21,1.07,36.46L487.37,188l3.76-2.68s-25.6-41.82-82.24-41c0,0-57.61-2.81-88.35,54.89" transform="translate(-194.89 -29.73)"/><path class="cls-6" d="M515.12,211l-28.79-23.08,3.94-2.81c-3.08-4.62-28.55-40.24-79.79-40.24H408.9c-.61,0-57.62-2.11-87.81,54.56l-1.11-.59c30.58-57.4,88.37-55.25,88.94-55.22h1.6c55.2,0,80.89,40.91,81.14,41.32l.31.5L488.41,188l25.37,20.35-1-34.06-5.23,3-.32-.48C482.86,140.85,450,129.86,426.79,127a126.81,126.81,0,0,0-45.14,2.36C321,145.66,304.09,192.52,303.93,193l-1.19-.41c.17-.48,17.31-48,78.58-64.47a128.33,128.33,0,0,1,45.58-2.4c23.41,2.91,56.43,13.93,81,49.89l6-3.45Z" transform="translate(-194.89 -29.73)"/><path class="cls-7" d="M407.49,343.05s-40.22,2.81-71.45-31.5c0,0-37.79-39.69-21.58-97.92l5,3.22V181.46l-28.15,21.92,6.63,3.21s-11.52,29.22-2.21,67.36c0,0,18.17,80.49,108,88.26" transform="translate(-194.89 -29.73)"/><path class="cls-8" d="M403.68,362.84c-46.62-4-73.65-27.95-88.11-47.3-15.67-21-20.37-41.25-20.42-41.45-8.56-35,.54-63,2-67.18l-7-3.41,30-23.32V218l-5.28-3.37c-15.35,56.79,21.28,96.1,21.66,96.49,30.66,33.69,70.55,31.34,70.94,31.31l.09,1.25c-.41,0-40.87,2.45-71.95-31.7-.37-.39-37.84-40.6-21.72-98.51l.22-.82,4.78,3.06v-33l-26.34,20.51,6.25,3-.21.54c-.12.29-11.34,29.49-2.19,67,.05.21,4.71,20.28,20.23,41,14.31,19.13,41,42.77,87.19,46.76Z" transform="translate(-194.89 -29.73)"/><path class="cls-9" d="M514.45,189s34,56.84-5.24,118.5c0,0-23.38,48.79-90.3,53.88l.51,7.84-15.69-7.64-15-8.14,29.86-14.68-.4,5.13s63.53-5.3,82.84-60c0,0,20-39.07-2.6-87.09" transform="translate(-194.89 -29.73)"/><path class="cls-6" d="M420.11,370.29l-16.65-8.12-16.07-8.73,31.93-15.7-.43,5.47c7.14-.83,63.74-9,81.56-59.48.24-.47,19.63-39.45-2.57-86.62l1.13-.54c22.48,47.75,2.8,87.26,2.6,87.65-19.19,54.36-82.71,60.27-83.35,60.32l-.73.06.37-4.76L390.12,353.5,404,361.06l14.69,7.15-.47-7.38.61-.05c65.77-5,89.55-53,89.79-53.53,38.63-60.67,5.6-117.33,5.26-117.89l1.08-.65c.34.57,33.77,57.88-5.25,119.15-.2.43-24.12,48.81-90.16,54.13Z" transform="translate(-194.89 -29.73)"/><path class="cls-10" d="M303.34,294.15l-56.43,31.47c-70.78-130.69,30.15-216.34,30.15-216.34C327.73,56.6,400.72,59,400.72,59v66.75s-65.23-.27-98.56,68.28l-10.49,9.68,5.38,2.42S280.32,259.58,303.34,294.15Z" transform="translate(-194.89 -29.73)"/><path class="cls-11" d="M518.25,293.58l56.63,32c47.76-99.55,0-173.7,0-173.7-48.17-98-156.4-94-156.4-94v67.41s50.07-4.16,89.73,49.87l6.24-3.42v15.92S541.46,234.92,518.25,293.58Z" transform="translate(-194.89 -29.73)"/><path class="cls-12" d="M310.27,306.71,254,338.59s40.8,73.19,125.52,86.9c0,0,120.22,21.49,183.76-86.59L510.3,308.07S485.22,357,420.17,362.59v6.72l-15.33-6.72S341.24,361,310.27,306.71Z" transform="translate(-194.89 -29.73)"/><polyline class="cls-13" points="312.85 146.71 318.48 143.49 319.56 179.95 291.44 158.2 296.23 155.55"/><path class="cls-14" d="M318.86,203.74s19.87-56.19,90-59c0,0,51.38-2.83,82.64,42.44l-4.58,2.16,10.51,9.43s21.56,40.51,5.93,81.84c0,0-19.14,55.33-85.55,65.35l-.43-6.09-9.86,5.07c-.83-.34-47.86,2.33-79.88-43.22,0,0-27.48-39.08-12.39-85.7l3.77,1.88Z" transform="translate(-194.89 -29.73)"/><rect class="cls-15" x="128.97" y="171.1" width="171.98" height="36.09"/><rect class="cls-16" x="128.97" y="213.04" width="171.98" height="36.38"/><text class="cls-17" transform="translate(161.7 194.06)">Machine Learning</text><text class="cls-18" transform="translate(187.43 236.44)">Big Data</text><text class="cls-19" transform="translate(188.47 158.26)">AIOps</text><text class="cls-20" transform="translate(127.51 73.35)">Monitoring<tspan x="0" y="14.92">(Observe)</tspan></text><text class="cls-21" transform="translate(234.03 73.35)">Service Desk</text><text class="cls-22" transform="translate(247.79 87.84)">(Engage)</text><text class="cls-23" transform="matrix(0.98, 0.18, -0.18, 0.98, 184.56, 362.77)">A</text><text class="cls-23" transform="translate(193.82 364.44) rotate(7)">u</text><text class="cls-23" transform="translate(201.65 365.36) rotate(4.76)">t</text><text class="cls-23" transform="translate(206.02 365.75) rotate(2.67)">o</text><text class="cls-23" transform="translate(213.98 366.16) rotate(-0.4)">m</text><text class="cls-23" transform="translate(225.39 366.02) rotate(-3.12)">a</text><text class="cls-23" transform="matrix(1, -0.08, 0.08, 1, 232.51, 365.61)">t</text><text class="cls-23" transform="translate(236.76 365.26) rotate(-5.74)">i</text><text class="cls-23" transform="translate(240.21 364.94) rotate(-7.17)">o</text><text class="cls-23" transform="matrix(0.99, -0.16, 0.16, 0.99, 247.76, 363.99)">n</text><text class="cls-24" transform="translate(200.26 379.48)">(Act)</text><text class="cls-25" transform="translate(170.33 117.25) rotate(-20.84)">C</text><text class="cls-25" transform="matrix(0.95, -0.3, 0.3, 0.95, 177.3, 114.61)">o</text><text class="cls-25" transform="translate(183.32 112.72) rotate(-14.21)">n</text><text class="cls-25" transform="matrix(0.98, -0.2, 0.2, 0.98, 189.49, 111.19)">t</text><text class="cls-25" transform="translate(192.84 110.5) rotate(-10.13)">i</text><text class="cls-25" transform="translate(195.66 109.96) rotate(-7.76)">n</text><text class="cls-25" transform="translate(201.9 109.1) rotate(-4.51)">u</text><text class="cls-25" transform="translate(208.21 108.6) rotate(-1.21)">o</text><text class="cls-25" transform="translate(214.5 108.47) rotate(2.08)">u</text><text class="cls-25" transform="translate(220.81 108.7) rotate(5.23)">s</text><text class="cls-25" transform="translate(226.56 109.25) rotate(7.47)"> </text><text class="cls-25" transform="translate(229.39 109.63) rotate(8.95)">I</text><text class="cls-25" transform="matrix(0.98, 0.2, -0.2, 0.98, 232.21, 110.03)">n</text><text class="cls-25" transform="translate(238.42 111.28) rotate(14.34)">s</text><text class="cls-25" transform="translate(244 112.73) rotate(16.46)">i</text><text class="cls-25" transform="matrix(0.95, 0.32, -0.32, 0.95, 246.73, 113.5)">g</text><text class="cls-25" transform="translate(252.72 115.52) rotate(21.64)">h</text><text class="cls-25" transform="translate(258.61 117.89) rotate(23.85)">t</text><text class="cls-25" transform="translate(261.76 119.26) rotate(25.86)">s</text><text class="cls-26" transform="matrix(-0.74, -0.67, 0.67, -0.74, 152.88, 301.93)">C</text><text class="cls-26" transform="matrix(-0.7, -0.71, 0.71, -0.7, 147.35, 296.87)">o</text><text class="cls-26" transform="translate(142.89 292.36) rotate(-131.94)">n</text><text class="cls-26" transform="matrix(-0.64, -0.77, 0.77, -0.64, 138.66, 287.62)">t</text><text class="cls-26" transform="matrix(-0.62, -0.78, 0.78, -0.62, 136.46, 284.97)">i</text><text class="cls-26" transform="matrix(-0.59, -0.8, 0.8, -0.59, 134.66, 282.76)">n</text><text class="cls-26" transform="matrix(-0.55, -0.83, 0.83, -0.55, 130.9, 277.67)">u</text><text class="cls-26" transform="matrix(-0.51, -0.86, 0.86, -0.51, 127.39, 272.4)">o</text><text class="cls-26" transform="translate(124.14 266.98) rotate(-118.06)">u</text><text class="cls-26" transform="translate(121.16 261.38) rotate(-115.35)">s</text><text class="cls-26" transform="translate(118.71 256.15) rotate(-113.43)"> </text><text class="cls-26" transform="translate(117.57 253.52) rotate(-112.14)">I</text><text class="cls-26" transform="translate(116.46 250.88) rotate(-110.09)">n</text><text class="cls-26" transform="translate(114.29 244.94) rotate(-107.42)">s</text><text class="cls-26" transform="translate(112.58 239.42) rotate(-105.53)">i</text><text class="cls-26" transform="translate(111.78 236.67) rotate(-103.54)">g</text><text class="cls-26" transform="matrix(-0.19, -0.98, 0.98, -0.19, 110.3, 230.51)">h</text><text class="cls-26" transform="matrix(-0.15, -0.99, 0.99, -0.15, 109.14, 224.3)">t</text><text class="cls-26" transform="translate(108.59 220.89) rotate(-96.94)">s</text><text class="cls-27" transform="matrix(-0.07, 1, -1, -0.07, 321.75, 208.86)">C</text><text class="cls-27" transform="translate(321.21 216.33) rotate(96.98)">o</text><text class="cls-27" transform="translate(320.45 222.63) rotate(99.7)">n</text><text class="cls-27" transform="translate(319.35 228.89) rotate(101.81)">t</text><text class="cls-27" transform="translate(318.64 232.25) rotate(103.18)">i</text><text class="cls-27" transform="translate(318.03 235.03) rotate(105.18)">n</text><text class="cls-27" transform="translate(316.37 241.15) rotate(107.96)">u</text><text class="cls-27" transform="matrix(-0.35, 0.94, -0.94, -0.35, 314.42, 247.17)">o</text><text class="cls-27" transform="translate(312.18 253.09) rotate(113.58)">u</text><text class="cls-27" transform="translate(309.64 258.9) rotate(116.28)">s</text><text class="cls-27" transform="translate(307.06 264.06) rotate(118.21)"> </text><text class="cls-27" transform="matrix(-0.49, 0.87, -0.87, -0.49, 305.71, 266.59)">I</text><text class="cls-27" transform="matrix(-0.52, 0.85, -0.85, -0.52, 304.33, 269.09)">n</text><text class="cls-27" transform="translate(301.02 274.48) rotate(124.21)">s</text><text class="cls-27" transform="translate(297.74 279.25) rotate(126.1)">i</text><text class="cls-27" transform="translate(296.08 281.58) rotate(128.1)">g</text><text class="cls-27" transform="matrix(-0.65, 0.76, -0.76, -0.65, 292.18, 286.56)">h</text><text class="cls-27" transform="translate(288.03 291.34) rotate(132.82)">t</text><text class="cls-27" transform="matrix(-0.7, 0.71, -0.71, -0.7, 285.7, 293.88)">s</text><text class="cls-28" transform="translate(188.47 276.98)">Platform</text></svg>