<svg id="Layer_1" data-name="Layer 1" xmlns="http://www.w3.org/2000/svg" viewBox="0 0 728.44 370.76"><defs><style>.cls-1{fill:#383838;}.cls-2{fill:#d7d4cf;}.cls-3{fill:#878787;}.cls-4{fill:#101010;}.cls-5{fill:#959997;}.cls-6{font-size:11.81px;}.cls-10,.cls-11,.cls-12,.cls-6,.cls-7{fill:#231f20;}.cls-10,.cls-11,.cls-13,.cls-14,.cls-15,.cls-16,.cls-6{font-family:Arial-BoldMT, Arial;font-weight:700;}.cls-7,.cls-8,.cls-9{font-size:15.48px;}.cls-12,.cls-7,.cls-8,.cls-9{font-family:MyriadPro-Regular, Myriad Pro;}.cls-8{fill:#f8f7f8;}.cls-9{fill:#f7f5f6;}.cls-10{font-size:17.13px;}.cls-11{font-size:17.2px;}.cls-12{font-size:12.41px;}.cls-13{font-size:16.14px;}.cls-13,.cls-14,.cls-15,.cls-16{fill:#fff;}.cls-14{font-size:16.14px;}.cls-15{font-size:16.14px;}.cls-16{font-size:16.14px;}.cls-17{fill:none;stroke:#383838;stroke-miterlimit:10;stroke-width:3px;}</style></defs><polygon class="cls-1" points="193.27 141.36 25.23 141.36 25.23 135.57 13.83 142.15 25.23 148.73 25.23 142.94 193.27 142.94 193.27 141.36"/><polygon class="cls-1" points="546.73 140.88 717.05 140.88 717.05 146.66 728.45 140.09 717.05 133.51 717.05 139.29 546.73 139.29 546.73 140.88"/><polygon class="cls-1" points="479.43 294.1 647.47 294.1 647.47 299.89 658.86 293.31 647.47 286.73 647.47 292.52 479.43 292.52 479.43 294.1"/><polygon class="cls-1" points="479.43 320.67 647.47 320.67 647.47 326.45 658.86 319.88 647.47 313.3 647.47 319.08 479.43 319.08 479.43 320.67"/><polygon class="cls-1" points="461.15 345.85 645.78 346.36 645.77 352.15 657.18 345.6 645.8 338.99 645.79 344.78 461.16 344.27 461.15 345.85"/><polygon class="cls-1" points="545.66 235.52 714.52 235.52 714.52 241.31 725.91 234.73 714.52 228.15 714.52 233.94 545.66 233.94 545.66 235.52"/><polygon class="cls-1" points="549.01 204.95 717.05 204.95 717.05 210.73 728.45 204.16 717.05 197.58 717.05 203.36 549.01 203.36 549.01 204.95"/><polygon class="cls-1" points="549.01 168.89 717.05 168.89 717.05 174.68 728.45 168.1 717.05 161.53 717.05 167.31 549.01 167.31 549.01 168.89"/><polygon class="cls-1" points="193.27 167.17 25.23 167.17 25.23 161.38 13.83 167.96 25.23 174.54 25.23 168.75 193.27 168.75 193.27 167.17"/><polygon class="cls-1" points="193.27 195.1 25.23 195.1 25.23 189.32 13.83 195.9 25.23 202.47 25.23 196.69 193.27 196.69 193.27 195.1"/><polygon class="cls-1" points="193.27 237.55 25.23 237.55 25.23 231.77 13.83 238.34 25.23 244.92 25.23 239.14 193.27 239.14 193.27 237.55"/><path class="cls-2" d="M402.7,79.36c-102.39,0-185.38,83-185.38,185.39s83,185.38,185.38,185.38,185.38-83,185.38-185.38S505.08,79.36,402.7,79.36Zm-.49,282.13c-53.38,0-96.65-43-96.65-96s43.27-96,96.65-96,96.65,43,96.65,96S455.59,361.49,402.21,361.49Z" transform="translate(-35.78 -79.36)"/><path class="cls-3" d="M235.21,266.32a165.87,165.87,0,0,0,19.1,77.51L314.61,309a99.37,99.37,0,0,1-9.83-43.29c0-53,41.13-96.22,92.6-98.14V99.2C307.28,102.28,235.21,175.91,235.21,266.32Z" transform="translate(-35.78 -79.36)"/><path d="M407.26,99.15v68.6c50.14,3.3,89.82,45.9,89.82,98a99.62,99.62,0,0,1-9.88,43.41l.34.51h0l63.35,36.57a165.88,165.88,0,0,0,20.4-79.91C571.29,175.28,498.22,101.26,407.26,99.15Z" transform="translate(-35.78 -79.36)"/><path class="cls-1" d="M482.37,318.07l-.16.11c-17,27.5-45.8,45.33-80,45.33-34.41,0-65.88-18-82.87-45.8l-60.15,34.71a168.53,168.53,0,0,0,286.71,2.32Z" transform="translate(-35.78 -79.36)"/><polyline class="cls-4" points="207.83 90.16 71.2 89.42 104.31 55.68 71.2 20.68 207.83 20.68 237.49 52.66"/><polyline class="cls-5" points="492.69 49.19 518.84 21.52 654.84 21.52 622.15 55.26 654.63 89.42 525.56 89.42"/><text class="cls-6" transform="translate(44.85 133.02)">H<tspan x="8.53" y="0">i</tspan><tspan x="11.83" y="0">s</tspan><tspan x="18.39" y="0">t</tspan><tspan x="22.32" y="0">o</tspan><tspan x="29.52" y="0">r</tspan><tspan x="34.13" y="0">i</tspan><tspan x="37.41" y="0">c</tspan><tspan x="43.97" y="0">a</tspan><tspan x="50.54" y="0">l</tspan><tspan x="53.82" y="0"> </tspan><tspan x="56.66" y="0">A</tspan><tspan x="65.21" y="0">n</tspan><tspan x="72.42" y="0">a</tspan><tspan x="78.99" y="0">l</tspan><tspan x="82.27" y="0">y</tspan><tspan x="88.83" y="0">s</tspan><tspan x="95.41" y="0">i</tspan><tspan x="98.69" y="0">s</tspan></text><text class="cls-6" transform="translate(45.26 157.56)">A<tspan x="8.52" y="0">n</tspan><tspan x="15.74" y="0">o</tspan><tspan x="22.95" y="0">m</tspan><tspan x="33.45" y="0">a</tspan><tspan x="40.01" y="0">l</tspan><tspan x="43.31" y="0">y</tspan><tspan x="49.87" y="0"> </tspan><tspan x="53.16" y="0">D</tspan><tspan x="61.68" y="0">e</tspan><tspan x="68.26" y="0">t</tspan><tspan x="72.17" y="0">e</tspan><tspan x="78.75" y="0">c</tspan><tspan x="85.32" y="0">t</tspan><tspan x="89.27" y="0">i</tspan><tspan x="92.54" y="0">o</tspan><tspan x="99.74" y="0">n</tspan></text><text class="cls-6" transform="translate(44.95 214.91)">C<tspan x="8.54" y="0">o</tspan><tspan x="15.75" y="0">r</tspan><tspan x="20.34" y="0">r</tspan><tspan x="24.93" y="0">e</tspan><tspan x="31.51" y="0">l</tspan><tspan x="34.8" y="0">a</tspan><tspan x="41.35" y="0">t</tspan><tspan x="45.29" y="0">i</tspan><tspan x="48.59" y="0">o</tspan><tspan x="55.8" y="0">n</tspan><tspan x="63" y="0"> </tspan><tspan x="66.28" y="0">a</tspan><tspan x="72.85" y="0">n</tspan><tspan x="80.06" y="0">d</tspan><tspan x="87.28" y="0"> </tspan></text><text class="cls-6" transform="translate(44.58 186.14)">P<tspan x="7.89" y="0">e</tspan><tspan x="14.46" y="0">r</tspan><tspan x="19.04" y="0">f</tspan><tspan x="22.99" y="0">o</tspan><tspan x="30.19" y="0">r</tspan><tspan x="34.8" y="0">m</tspan><tspan x="45.31" y="0">a</tspan><tspan x="51.87" y="0">n</tspan><tspan x="59.09" y="0">c</tspan><tspan x="65.65" y="0"> </tspan><tspan x="68.5" y="0">A</tspan><tspan x="77.02" y="0">n</tspan><tspan x="84.23" y="0">a</tspan><tspan x="90.82" y="0">l</tspan><tspan x="94.09" y="0">y</tspan><tspan x="100.65" y="0">s</tspan><tspan x="107.23" y="0">i</tspan><tspan x="110.5" y="0">s</tspan></text><text class="cls-6" transform="translate(44.2 228.97)">C<tspan x="8.54" y="0">o</tspan><tspan x="15.76" y="0">n</tspan><tspan x="22.95" y="0">t</tspan><tspan x="26.89" y="0">e</tspan><tspan x="33.47" y="0">x</tspan><tspan x="40.04" y="0">t</tspan><tspan x="43.97" y="0">u</tspan><tspan x="51.19" y="0">a</tspan><tspan x="57.75" y="0">l</tspan><tspan x="61.02" y="0">i</tspan><tspan x="64.32" y="0">z</tspan><tspan x="70.23" y="0">a</tspan><tspan x="76.81" y="0">t</tspan><tspan x="80.73" y="0">i</tspan><tspan x="84.01" y="0">o</tspan><tspan x="91.23" y="0">n</tspan></text><text class="cls-6" transform="translate(602.65 130)">T<tspan x="6.36" y="0">a</tspan><tspan x="12.92" y="0">s</tspan><tspan x="19.48" y="0">k</tspan><tspan x="26.04" y="0"> </tspan><tspan x="28.91" y="0">A</tspan><tspan x="37.42" y="0">u</tspan><tspan x="44.64" y="0">t</tspan><tspan x="48.56" y="0">o</tspan><tspan x="55.8" y="0">m</tspan><tspan x="66.3" y="0">a</tspan><tspan x="72.86" y="0">t</tspan><tspan x="76.79" y="0">i</tspan><tspan x="80.07" y="0">o</tspan><tspan x="87.29" y="0">n</tspan></text><text class="cls-6" transform="translate(573.44 158.34)">C<tspan x="8.52" y="0">h</tspan><tspan x="15.73" y="0">a</tspan><tspan x="22.31" y="0">n</tspan><tspan x="29.54" y="0">g</tspan><tspan x="36.74" y="0">e</tspan><tspan x="43.31" y="0"> </tspan><tspan x="46.6" y="0">R</tspan><tspan x="55.12" y="0">i</tspan><tspan x="58.42" y="0">s</tspan><tspan x="64.98" y="0">h</tspan><tspan x="72.21" y="0"> </tspan><tspan x="75.04" y="0">A</tspan><tspan x="83.57" y="0">n</tspan><tspan x="90.78" y="0">a</tspan><tspan x="97.35" y="0">l</tspan><tspan x="100.64" y="0">y</tspan><tspan x="107.2" y="0">s</tspan><tspan x="113.77" y="0">i</tspan><tspan x="117.05" y="0">s</tspan></text><text class="cls-6" transform="translate(643.74 182.81)">S<tspan x="7.87" y="0">D</tspan><tspan x="16.4" y="0"> </tspan><tspan x="19.25" y="0">A</tspan><tspan x="27.78" y="0">g</tspan><tspan x="35" y="0">e</tspan><tspan x="41.55" y="0">n</tspan><tspan x="48.79" y="0">t</tspan></text><text class="cls-6" transform="translate(573.86 196.88)">P<tspan x="7.87" y="0">e</tspan><tspan x="14.45" y="0">r</tspan><tspan x="19.05" y="0">f</tspan><tspan x="22.99" y="0">o</tspan><tspan x="30.2" y="0">r</tspan><tspan x="34.79" y="0">m</tspan><tspan x="45.31" y="0">a</tspan><tspan x="51.86" y="0">n</tspan><tspan x="59.08" y="0">c</tspan><tspan x="65.64" y="0">e</tspan><tspan x="72.21" y="0"> </tspan><tspan x="75.07" y="0">A</tspan><tspan x="83.59" y="0">n</tspan><tspan x="90.81" y="0">a</tspan><tspan x="97.37" y="0">l</tspan><tspan x="100.67" y="0">y</tspan><tspan x="107.23" y="0">s</tspan><tspan x="113.8" y="0">i</tspan><tspan x="117.08" y="0">s</tspan></text><text class="cls-6" transform="translate(560.18 225.66)">K<tspan x="8.53" y="0">n</tspan><tspan x="15.75" y="0">o</tspan><tspan x="22.98" y="0">w</tspan><tspan x="32.14" y="0">l</tspan><tspan x="35.43" y="0">e</tspan><tspan x="42" y="0">d</tspan><tspan x="49.23" y="0">g</tspan><tspan x="56.43" y="0">e</tspan><tspan x="63.02" y="0"> </tspan><tspan x="66.29" y="0">M</tspan><tspan x="76.14" y="0">a</tspan><tspan x="82.69" y="0">n</tspan><tspan x="89.91" y="0">a</tspan><tspan x="96.49" y="0">g</tspan><tspan x="103.71" y="0">e</tspan><tspan x="110.26" y="0">m</tspan><tspan x="120.78" y="0">e</tspan><tspan x="127.34" y="0">n</tspan><tspan x="134.54" y="0">t</tspan></text><text class="cls-6" transform="translate(591.79 284.49)">S<tspan x="7.89" y="0">c</tspan><tspan x="14.46" y="0">r</tspan><tspan x="19.04" y="0">i</tspan><tspan x="22.33" y="0">p</tspan><tspan x="29.55" y="0">t</tspan><tspan x="33.48" y="0">s</tspan></text><text class="cls-6" transform="translate(567.74 312.96)">R<tspan x="8.54" y="0">u</tspan><tspan x="15.75" y="0">n</tspan><tspan x="22.96" y="0"> </tspan><tspan x="26.24" y="0">B</tspan><tspan x="34.77" y="0">o</tspan><tspan x="41.97" y="0">o</tspan><tspan x="49.19" y="0">k</tspan><tspan x="55.77" y="0">s</tspan></text><text class="cls-6" transform="translate(603.55 340.19)">A<tspan x="8.53" y="0">R</tspan><tspan x="17.05" y="0">A</tspan></text><text class="cls-7" transform="translate(544.41 41.1)">I<tspan x="3.86" y="0">n</tspan><tspan x="12.44" y="0">c</tspan><tspan x="19.36" y="0">i</tspan><tspan x="23" y="0">d</tspan><tspan x="31.74" y="0">e</tspan><tspan x="39.49" y="0">n</tspan><tspan x="48.03" y="0">t</tspan><tspan x="53.14" y="0">s</tspan><tspan x="59.12" y="0">,</tspan></text><text class="cls-7" transform="translate(523.78 58.79)">D<tspan x="10.38" y="0">e</tspan><tspan x="18.14" y="0">p</tspan><tspan x="26.97" y="0">e</tspan><tspan x="34.73" y="0">n</tspan><tspan x="43.29" y="0">d</tspan><tspan x="52.04" y="0">e</tspan><tspan x="59.81" y="0">n</tspan><tspan x="68.4" y="0">c</tspan><tspan x="75.34" y="0">i</tspan><tspan x="78.95" y="0">e</tspan><tspan x="86.72" y="0">s</tspan></text><text class="cls-7" transform="translate(526.31 76.02)">a<tspan x="7.46" y="0">n</tspan><tspan x="16.07" y="0">d</tspan><tspan x="24.8" y="0"> </tspan><tspan x="28.08" y="0">c</tspan><tspan x="35.03" y="0">h</tspan><tspan x="43.61" y="0">a</tspan><tspan x="51.06" y="0">n</tspan><tspan x="59.65" y="0">g</tspan><tspan x="68.31" y="0">e</tspan><tspan x="76.08" y="0">s</tspan></text><text class="cls-8" transform="translate(132.47 41.1)">E<tspan x="7.49" y="0">v</tspan><tspan x="14.78" y="0">e</tspan><tspan x="22.56" y="0">n</tspan><tspan x="31.08" y="0">t</tspan><tspan x="36.21" y="0">s</tspan></text><text class="cls-9" transform="translate(113.82 58.79)">M<tspan x="12.55" y="0">e</tspan><tspan x="20.33" y="0">t</tspan><tspan x="25.43" y="0">r</tspan><tspan x="30.57" y="0">i</tspan><tspan x="34.2" y="0">c</tspan><tspan x="41.12" y="0">s</tspan><tspan x="47.25" y="0"> </tspan><tspan x="49.91" y="0">T</tspan><tspan x="56.9" y="0">r</tspan><tspan x="61.88" y="0">a</tspan><tspan x="69.35" y="0">c</tspan><tspan x="76.2" y="0">e</tspan><tspan x="83.95" y="0">s</tspan><tspan x="89.91" y="0">,</tspan></text><text class="cls-8" transform="translate(121.85 76.02)">T<tspan x="6.59" y="0">o</tspan><tspan x="15.11" y="0">p</tspan><tspan x="23.9" y="0">o</tspan><tspan x="32.39" y="0">l</tspan><tspan x="36.07" y="0">o</tspan><tspan x="44.57" y="0">g</tspan><tspan x="53.2" y="0">y</tspan></text><text class="cls-10" transform="translate(339.84 140.09)">A<tspan x="12.36" y="0">l</tspan><tspan x="17.11" y="0">O</tspan><tspan x="30.44" y="0">p</tspan><tspan x="40.9" y="0">s</tspan></text><text class="cls-7" transform="translate(340.53 195.93) rotate(-0.07)">B</text><text class="cls-7" transform="translate(348.93 195.92) rotate(-0.07)">i</text><text class="cls-7" transform="translate(352.56 195.91) rotate(-0.07)">g</text><text class="cls-7" transform="translate(361.21 195.9) rotate(-0.07)"> </text><text class="cls-7" transform="translate(364.51 195.9) rotate(-0.07)">D</text><text class="cls-7" transform="matrix(1, 0, 0, 1, 374.8, 195.89)">a</text><text class="cls-7" transform="translate(382.21 195.88) rotate(-0.07)">t</text><text class="cls-7" transform="translate(387.33 195.87) rotate(-0.07)">a</text><text class="cls-11" transform="translate(330.26 238.34)">P<tspan x="11.48" y="0">l</tspan><tspan x="16.25" y="0">a</tspan><tspan x="25.81" y="0">t</tspan><tspan x="31.55" y="0">f</tspan><tspan x="37.28" y="0">o</tspan><tspan x="47.77" y="0">r</tspan><tspan x="54.47" y="0">m</tspan></text><text class="cls-7" transform="translate(308.73 178.12) rotate(-0.05)">M</text><text class="cls-7" transform="matrix(1, 0, 0, 1, 321.29, 178.11)">a</text><text class="cls-7" transform="translate(328.74 178.1) rotate(-0.05)">c</text><text class="cls-7" transform="translate(335.68 178.09) rotate(-0.05)">h</text><text class="cls-7" transform="translate(344.26 178.09) rotate(-0.05)">i</text><text class="cls-7" transform="translate(347.88 178.08) rotate(-0.05)">n</text><text class="cls-7" transform="translate(356.5 178.07) rotate(-0.05)">e</text><text class="cls-7" transform="translate(364.24 178.07) rotate(-0.05)"> </text><text class="cls-7" transform="translate(367.54 178.06) rotate(-0.05)">L</text><text class="cls-7" transform="matrix(1, 0, 0, 1, 374.63, 178.06)">e</text><text class="cls-7" transform="translate(382.37 178.05) rotate(-0.05)">a</text><text class="cls-7" transform="matrix(1, 0, 0, 1, 389.83, 178.04)">r</text><text class="cls-7" transform="matrix(1, 0, 0, 1, 394.95, 178.04)">n</text><text class="cls-7" transform="translate(403.55 178.03) rotate(-0.05)">i</text><text class="cls-7" transform="matrix(1, 0, 0, 1, 407.18, 178.03)">n</text><text class="cls-7" transform="translate(415.77 178.02) rotate(-0.05)">g</text><text class="cls-12" transform="translate(15.29 29.12)">R<tspan x="6.72" y="0">e</tspan><tspan x="12.94" y="0">a</tspan><tspan x="18.91" y="0">l</tspan><tspan x="21.85" y="0">-</tspan><tspan x="25.05" y="0">T</tspan><tspan x="31.07" y="0">i</tspan><tspan x="33.98" y="0">m</tspan><tspan x="44.32" y="0">e</tspan></text><text class="cls-12" transform="translate(14.76 43.25)">a<tspan x="5.99" y="0">n</tspan><tspan x="12.88" y="0">d</tspan></text><text class="cls-12" transform="matrix(1, -0.03, 0.03, 1, 15.42, 59.89)">H</text><text class="cls-12" transform="translate(23.64 59.67) rotate(-1.51)">i</text><text class="cls-12" transform="matrix(1, -0.03, 0.03, 1, 26.54, 59.6)">s</text><text class="cls-12" transform="translate(31.46 59.47) rotate(-1.51)">t</text><text class="cls-12" transform="matrix(1, -0.03, 0.03, 1, 35.51, 59.36)">o</text><text class="cls-12" transform="translate(42.32 59.18) rotate(-1.51)">r</text><text class="cls-12" transform="translate(46.41 59.07) rotate(-1.51)">i</text><text class="cls-12" transform="translate(49.33 59) rotate(-1.51)">c</text><text class="cls-12" transform="translate(54.87 58.85) rotate(-1.51)">a</text><text class="cls-12" transform="matrix(1, -0.03, 0.03, 1, 60.88, 58.69)">l</text><text class="cls-12" transform="translate(14.73 77.12)">D<tspan x="8.27" y="0">a</tspan><tspan x="14.2" y="0">t</tspan><tspan x="18.31" y="0">a</tspan></text><text class="cls-13" transform="matrix(1, 0.05, -0.05, 1, 354.51, 311.55)">A</text><text class="cls-13" transform="matrix(1, -0.03, 0.03, 1, 366.74, 312.08)">c</text><text class="cls-13" transform="translate(376.14 311.71) rotate(-5.33)">t</text><text class="cls-13" transform="matrix(0.93, 0.37, -0.37, 0.93, 315.25, 321.09)">(</text><text class="cls-13" transform="matrix(0.95, 0.3, -0.3, 0.95, 320.71, 323.36)">A</text><text class="cls-13" transform="translate(332.42 326.98) rotate(12.52)">u</text><text class="cls-13" transform="translate(342.5 329.13) rotate(9.05)">t</text><text class="cls-13" transform="matrix(1, 0.1, -0.1, 1, 348.22, 330.1)">o</text><text class="cls-13" transform="translate(358.72 331.21) rotate(0.06)">m</text><text class="cls-13" transform="matrix(1, -0.09, 0.09, 1, 373.72, 331.07)">a</text><text class="cls-13" transform="translate(383.07 330.14) rotate(-8.58)">t</text><text class="cls-13" transform="translate(388.65 329.28) rotate(-10.82)">i</text><text class="cls-13" transform="translate(393.45 328.43) rotate(-14.04)">o</text><text class="cls-13" transform="translate(403.53 325.88) rotate(-18.36)">n</text><text class="cls-13" transform="translate(413.26 322.58) rotate(-21.6)">)</text><text class="cls-13" transform="matrix(0.62, 0.79, -0.79, 0.62, 464.81, 94.03)">E</text><text class="cls-13" transform="matrix(0.56, 0.83, -0.83, 0.56, 471.31, 102.37)">n</text><text class="cls-13" transform="matrix(0.5, 0.86, -0.86, 0.5, 476.73, 110.39)">g</text><text class="cls-13" transform="translate(481.59 118.76) rotate(63.39)">a</text><text class="cls-13" transform="matrix(0.39, 0.92, -0.92, 0.39, 485.55, 126.62)">g</text><text class="cls-13" transform="matrix(0.33, 0.94, -0.94, 0.33, 489.33, 135.54)">e</text><text class="cls-14" transform="matrix(0.61, 0.79, -0.79, 0.61, 449.87, 107.55)">(</text><text class="cls-14" transform="matrix(0.58, 0.81, -0.81, 0.58, 453.08, 111.72)">I</text><text class="cls-14" transform="matrix(0.54, 0.84, -0.84, 0.54, 455.69, 115.22)">T</text><text class="cls-14" transform="translate(460.98 123.31) rotate(60.95)">S</text><text class="cls-14" transform="translate(466.16 132.51) rotate(65.58)">M</text><text class="cls-14" transform="translate(471.52 144.62) rotate(69.14)">)</text><text class="cls-15" transform="translate(242.01 131.3) rotate(-61.91)">O</text><text class="cls-15" transform="matrix(0.54, -0.84, 0.84, 0.54, 247.86, 120.42)">b</text><text class="cls-15" transform="translate(253.07 112.24) rotate(-53.96)">s</text><text class="cls-15" transform="matrix(0.64, -0.77, 0.77, 0.64, 258.24, 105.12)">e</text><text class="cls-15" transform="matrix(0.67, -0.74, 0.74, 0.67, 263.88, 98.33)">r</text><text class="cls-15" transform="translate(268 93.76) rotate(-44.77)">v</text><text class="cls-15" transform="matrix(0.75, -0.66, 0.66, 0.75, 274.25, 87.55)">e</text><text class="cls-16" transform="translate(253.44 155.67) rotate(-69.06)">(</text><text class="cls-16" transform="translate(255.17 150.78) rotate(-65.35)">M</text><text class="cls-16" transform="translate(260.74 138.8) rotate(-60.83)">o</text><text class="cls-16" transform="matrix(0.54, -0.84, 0.84, 0.54, 265.46, 130.33)">n</text><text class="cls-16" transform="matrix(0.58, -0.81, 0.81, 0.58, 270.8, 122.22)">i</text><text class="cls-16" transform="matrix(0.61, -0.79, 0.79, 0.61, 273.36, 118.64)">t</text><text class="cls-16" transform="matrix(0.65, -0.76, 0.76, 0.65, 276.52, 114.44)">o</text><text class="cls-16" transform="translate(282.85 107.11) rotate(-46.39)">r</text><text class="cls-16" transform="translate(287.13 102.64) rotate(-44.36)">i</text><text class="cls-16" transform="translate(290.19 99.55) rotate(-41.7)">n</text><text class="cls-16" transform="matrix(0.79, -0.62, 0.62, 0.79, 297.43, 93.11)">g</text><text class="cls-16" transform="translate(305.11 87.15) rotate(-35.4)">)</text><path class="cls-17" d="M373.08,346a85,85,0,0,1-43.86-125" transform="translate(-35.78 -79.36)"/><path class="cls-17" d="M483.75,245.5A85,85,0,0,1,401.3,350.77" transform="translate(-35.78 -79.36)"/><path class="cls-17" d="M342.39,204.7a84.92,84.92,0,0,1,131.72,17.47" transform="translate(-35.78 -79.36)"/><polygon class="cls-1" points="365.52 263.68 365.52 278.19 353.42 270.93 365.52 263.68"/><polygon class="cls-1" points="430.33 143.48 443.61 137.63 441.85 151.63 430.33 143.48"/><polygon class="cls-1" points="297.93 148.34 285.31 141.2 297.58 134.24 297.93 148.34"/></svg>