<svg xmlns="http://www.w3.org/2000/svg" width="50" height="50" viewBox="0 0 80 80">
  <path id="Icon_metro-help" data-name="Icon metro-help" d="M44.285,3.213a40,40,0,1,0,40,40,40,40,0,0,0-40-40Zm-15,40a15,15,0,1,1,15,15A15,15,0,0,1,29.285,43.213Zm47.342,13.4L62.766,50.869a20.052,20.052,0,0,0,0-15.31l13.861-5.741a35.091,35.091,0,0,1,0,26.793ZM57.681,10.871,51.94,24.732a20.052,20.052,0,0,0-15.31,0L30.888,10.871a35.093,35.093,0,0,1,26.793,0ZM11.942,29.817,25.8,35.558a20.051,20.051,0,0,0,0,15.31L11.942,56.61a35.091,35.091,0,0,1,0-26.793ZM30.888,75.556l5.741-13.861a20.052,20.052,0,0,0,15.31,0l5.741,13.861a35.091,35.091,0,0,1-26.793,0Z" transform="translate(-4.285 -3.213)" fill="#fff"/>
</svg>
