<?xml version="1.0" encoding="UTF-8"?>
<svg xmlns="http://www.w3.org/2000/svg" xmlns:xlink="http://www.w3.org/1999/xlink" width="600" height="200" viewBox="0 0 437.43 437.43" version="1.1">
<defs>
<clipPath id="clip1">
  <path d="M 0 0 L 437.429688 0 L 437.429688 437.429688 L 0 437.429688 Z M 0 0 "/>
</clipPath>
</defs>
<g id="surface1">
<g clip-path="url(#clip1)" clip-rule="nonzero">
<path style=" stroke:none;fill-rule:nonzero;fill:rgb(95.698547%,79.199219%,12.199402%);fill-opacity:1;" d="M 218.714844 426.027344 C 104.199219 426.027344 11.371094 333.199219 11.371094 218.683594 C 11.371094 104.167969 104.199219 11.335938 218.714844 11.335938 C 333.230469 11.335938 426.0625 104.167969 426.0625 218.683594 C 426.0625 333.199219 333.230469 426.027344 218.714844 426.027344 M 218.714844 -0.00390625 C 97.921875 -0.00390625 0 97.917969 0 218.714844 C 0 339.507813 97.921875 437.429688 218.714844 437.429688 C 339.507813 437.429688 437.433594 339.507813 437.433594 218.714844 C 437.433594 97.917969 339.507813 -0.00390625 218.714844 -0.00390625 "/>
</g>
<path style=" stroke:none;fill-rule:nonzero;fill:rgb(6.698608%,16.499329%,12.5%);fill-opacity:1;" d="M 201.472656 174.507813 L 201.554688 174.472656 L 201.46875 174.476563 Z M 203.238281 184.132813 L 202.824219 183.296875 L 324.394531 182.097656 L 201.519531 175.363281 L 200.765625 175.933594 L 198.832031 177.898438 L 199.148438 174.882813 L 200.351563 174.035156 L 200.617188 174.5625 L 201.730469 174.398438 L 201.554688 174.472656 L 321.425781 167.011719 L 216.96875 166.648438 L 219.054688 163.828125 L 311.761719 153.859375 L 223.757813 158.191406 L 225.898438 154.222656 L 300.695313 143.523438 L 227.304688 150.566406 L 228.296875 147.070313 L 286.808594 137.101563 L 229.285156 144.984375 L 228.710938 144.5625 L 228.503906 143.3125 L 270.367188 135.691406 L 229.601563 142.320313 L 226.726563 142.007813 L 225.507813 141.140625 L 228.199219 128.6875 L 225.816406 108.527344 L 220.421875 95.507813 L 216.449219 92.96875 L 213.910156 95.191406 C 213.910156 95.191406 217.878906 152.816406 197.085938 150.910156 L 194.703125 149.800781 L 192.90625 148.308594 L 192.222656 147.179688 L 191.867188 145.304688 L 192.433594 127.535156 L 191.507813 108.128906 L 189.960938 96.90625 L 187.730469 90.390625 L 184.542969 86.699219 L 180.167969 84.527344 C 180.167969 84.527344 175.136719 84.078125 175.078125 84.167969 C 175.019531 84.257813 172.578125 87.589844 172.578125 87.589844 L 180.894531 152.417969 L 169.464844 155.433594 C 169.464844 155.433594 167.398438 156.070313 165.574219 155.199219 C 163.746094 154.324219 162.875 151.703125 162.875 151.703125 L 160.652344 143.292969 L 158.90625 133.367188 L 158.113281 129.003906 L 157.160156 125.671875 L 155.574219 123.050781 L 152.714844 120.988281 L 150.414063 121.148438 L 145.730469 134.957031 L 144.300781 146.386719 L 145.175781 153.132813 L 145.175781 155.046875 L 99.894531 151.765625 L 140.007813 158.027344 L 135.371094 158.667969 L 147.074219 160.695313 L 147.550781 161.957031 L 88.761719 163.132813 L 130.457031 167.402344 L 129.742188 171.195313 L 129.65625 171.351563 L 82.570313 177.480469 L 118.527344 177.480469 C 117.214844 178.597656 115.742188 180.652344 114.96875 184.382813 L 81.976563 192.480469 L 114.433594 189.207031 C 114.300781 192.453125 114.335938 195.023438 114.464844 197.019531 L 84.714844 207.601563 L 114.996094 201.394531 C 115.289063 202.824219 115.570313 203.375 115.570313 203.375 C 115.570313 203.375 116.320313 205.0625 117.976563 206.933594 L 118.644531 208.675781 L 92.453125 220.816406 L 123.308594 210.910156 C 127.09375 213.023438 127.476563 214.25 127.476563 214.25 L 125.253906 221.710938 L 124.671875 237.21875 L 40.167969 272.984375 L 124.140625 248.617188 L 44.453125 292.113281 L 127.953125 259.570313 L 55.5625 308.542969 L 129.871094 271.15625 C 133.289063 254.460938 148.425781 241.875 166.597656 241.875 C 177.945313 241.875 188.09375 246.800781 194.960938 254.558594 L 200.417969 241.875 L 203.683594 216.648438 L 205.109375 216.757813 L 275.683594 233.410156 L 205.109375 215.503906 L 205.371094 213.523438 L 292.019531 230.589844 L 205.371094 209.710938 L 205.789063 207.78125 L 305.175781 222.8125 L 205.789063 201.878906 L 205.316406 200.679688 L 315.667969 211.433594 L 204.953125 193.214844 L 204.640625 192.117188 L 321.152344 197.234375 Z M 91.597656 328.867188 L 133.902344 296.058594 C 132.773438 294.09375 131.835938 292.011719 131.089844 289.847656 Z M 71.359375 321.566406 L 129.734375 284.574219 C 129.367188 282.53125 129.140625 280.445313 129.140625 278.304688 C 129.140625 276.78125 129.265625 275.289063 129.453125 273.816406 "/>
<path style=" stroke:none;fill-rule:nonzero;fill:rgb(0.39978%,0.799561%,1.199341%);fill-opacity:1;" d="M 123.347656 178.058594 C 123.347656 178.058594 123.347656 195.519531 124.300781 199.25 C 125.253906 202.980469 129.0625 198.695313 129.0625 198.695313 C 129.0625 198.695313 128.90625 183.769531 128.664063 179.484375 C 126.445313 175.597656 123.347656 178.058594 123.347656 178.058594 M 222.804688 99.242188 C 222.882813 101.464844 223.597656 103.765625 223.597656 103.765625 L 225.5 116.863281 L 225.898438 127.339844 L 225.34375 137.976563 L 223.117188 148.292969 L 219.308594 156.628906 L 213.832031 163.691406 L 207.722656 167.660156 L 198.433594 171.390625 L 196.210938 174.566406 L 197.402344 178.613281 L 198.832031 182.820313 L 200.179688 188.375 L 201.132813 197.898438 L 201.371094 205.363281 L 200.417969 215.203125 L 199.46875 225.441406 L 197.5625 237.191406 L 196.371094 245.046875 L 194.199219 253.742188 C 195.558594 255.1875 196.816406 256.726563 197.925781 258.371094 C 199.953125 253.867188 205.40625 238.636719 206.371094 203.613281 C 206.371094 203.613281 205.738281 184.804688 202.324219 179.011719 C 200.578125 175.199219 202.878906 172.816406 213.832031 168.691406 C 223.808594 164.929688 230.578125 146.703125 230.578125 132.894531 C 230.578125 132.894531 231.375 105.75 222.804688 99.242188 M 155.175781 179.804688 C 155.175781 179.804688 155.335938 185.835938 155.175781 187.976563 C 155.019531 190.121094 152.714844 205.597656 149.777344 207.425781 C 146.84375 209.25 138.269531 210.917969 138.347656 214.171875 C 138.429688 217.425781 140.492188 245.523438 141.523438 248.699219 C 141.804688 249.566406 142.179688 250.078125 142.570313 250.371094 C 144.121094 249.105469 145.796875 247.984375 147.550781 246.976563 C 147.183594 238.953125 144.035156 218.71875 145.890625 215.363281 C 150.574219 214.171875 151.921875 214.488281 155.175781 211.789063 C 155.175781 211.789063 161.128906 209.40625 161.683594 191.074219 C 161.683594 191.074219 162.980469 173.5625 155.175781 179.804688 M 201.847656 142.339844 C 201.847656 142.339844 196.449219 153.371094 196.925781 143.90625 C 196.925781 143.90625 197.878906 125.691406 197.820313 118.070313 C 197.761719 110.449219 197.753906 92.363281 190.496094 87.769531 C 184.007813 83.660156 181.6875 84.257813 179.722656 84.734375 L 183.890625 86.222656 L 186.984375 88.722656 L 190.320313 96.820313 L 191.925781 109.261719 L 192.164063 129.320313 L 191.746094 143.074219 C 191.746094 143.074219 190.496094 149.621094 197.820313 150.691406 Z M 142.078125 202.503906 C 146.527344 204.011719 146.765625 196.152344 146.765625 196.152344 C 146.765625 196.152344 148.035156 186.867188 148.269531 184.566406 C 148.511719 182.261719 150.652344 178.769531 150.652344 178.769531 C 148.90625 181.546875 151.605469 173.136719 149.777344 168.453125 C 147.171875 161.761719 140.175781 164.007813 140.175781 164.007813 C 140.175781 164.007813 137.636719 200.996094 142.078125 202.503906 M 160.136719 123.25 C 158.460938 119.082031 153.113281 118.367188 153.113281 118.367188 C 149.777344 118.367188 147.039063 121.34375 147.039063 121.34375 L 151.445313 120.75 L 154.660156 122.179688 L 157.039063 125.394531 L 158.589844 131.226563 L 160.136719 142.535156 L 161.683594 148.488281 C 161.683594 148.488281 162.519531 152.894531 164.78125 154.5625 C 167.042969 156.230469 169.660156 155.15625 169.660156 155.15625 L 169.660156 153.253906 C 163.113281 154.917969 163.589844 131.820313 160.136719 123.25 "/>
<path style=" stroke:none;fill-rule:nonzero;fill:rgb(47.499084%,73.298645%,30.198669%);fill-opacity:1;" d="M 169.246094 163.191406 C 169.246094 163.191406 165.671875 161.558594 162.546875 160.117188 C 161.515625 159.640625 157.707031 158.449219 154.292969 144.640625 C 154.292969 144.640625 149.472656 123.496094 151.117188 121.9375 C 153.132813 120.035156 157.171875 124.449219 158.261719 132.496094 C 159.351563 140.542969 159.53125 147.476563 162.328125 152.058594 C 165.128906 156.644531 165.59375 156.175781 169.246094 155.933594 Z M 222.316406 96.859375 C 220.691406 93.648438 218.558594 92.324219 216.011719 92.324219 C 212.894531 92.324219 210.8125 93.554688 209.671875 94.632813 C 209.089844 95.1875 208.898438 95.835938 208.640625 95.976563 C 203.925781 98.488281 202.894531 105.742188 203.59375 114.542969 C 204.492188 125.851563 203.515625 135.722656 202.75 138.726563 C 200.804688 146.351563 198.070313 148.363281 196.210938 148.511719 C 193.96875 148.691406 192.449219 146.285156 192.449219 146.285156 C 191.617188 143.546875 194.058594 126.34375 193.699219 118.128906 C 193.464844 112.65625 194.640625 98.410156 188.9375 89.914063 C 185.851563 85.308594 181.453125 83.21875 177.039063 83.324219 C 172.433594 83.4375 167.8125 85.945313 164.652344 90.507813 C 158.460938 99.4375 163.9375 133.132813 163.9375 133.132813 C 166.078125 141.703125 168.222656 155.15625 167.390625 155.15625 C 164.890625 155.15625 163.101563 150.988281 162.03125 148.132813 C 160.960938 145.273438 159.652344 136.703125 158.101563 128.011719 C 156.554688 119.320313 149.648438 119.796875 149.648438 119.796875 C 143.101563 120.273438 141.671875 125.988281 141.671875 128.488281 C 141.671875 132.34375 142.984375 148.132813 145.960938 159.085938 C 149.59375 172.464844 170.246094 174.800781 170.246094 174.800781 C 170.605469 174.921875 171.199219 180.039063 171.082031 182.898438 C 170.589844 194.683594 165.84375 228.644531 165.367188 235.671875 C 165.117188 239.332031 164.109375 240.75 163.871094 242.007813 C 164.773438 241.945313 165.675781 241.875 166.597656 241.875 C 172.976563 241.875 178.976563 243.433594 184.234375 246.167969 C 184.253906 243.285156 184.503906 238.640625 185.488281 231.710938 C 187.390625 218.257813 186.835938 210.835938 186.835938 210.835938 C 186.082031 168.371094 182.789063 149.957031 181.875 139.363281 C 180.964844 128.765625 180.1875 105.6875 180.1875 105.6875 C 179.386719 91.542969 176.019531 85.445313 176.082031 85.445313 C 185.90625 85.445313 187.628906 90.984375 189.773438 101.9375 C 192.050781 113.597656 190.964844 122.355469 190.902344 138.964844 C 190.84375 155.574219 200.457031 153.964844 200.457031 153.964844 C 200.484375 153.964844 210.214844 153.875 215.546875 142.238281 C 216.464844 140.242188 216.945313 137.589844 217.554688 134.878906 C 218.332031 131.410156 217.628906 122.328125 217.332031 112.175781 C 217.066406 102.882813 216.441406 94.464844 216.441406 94.464844 C 224.65625 94.375 225.371094 130.839844 225.371094 130.839844 C 225.28125 144.402344 221.101563 153.613281 216.441406 159.292969 C 211.835938 164.90625 206.855469 166.972656 206.855469 166.972656 C 204.082031 168.480469 191.996094 169.878906 196.199219 177.101563 C 200.410156 184.324219 200.488281 200.4375 200.488281 200.4375 C 201.480469 214.535156 195.128906 246.535156 193.75 253.261719 C 194.035156 253.554688 194.308594 253.855469 194.585938 254.15625 L 194.59375 254.125 C 194.59375 254.125 202.136719 226.902344 201.871094 204.097656 C 201.871094 204.097656 201.710938 184.835938 197.320313 177.113281 C 196.753906 174.707031 196.492188 172.152344 208.722656 168.191406 C 212.394531 167.003906 218.117188 161.453125 221.292969 154.648438 C 225.085938 146.519531 226.496094 136.324219 226.496094 127.1875 C 226.496094 127.1875 226.125 104.398438 222.316406 96.859375 M 154.84375 178.609375 C 153.386719 179.230469 152.417969 182.339844 151.9375 185.269531 C 151.265625 189.359375 151.0625 194.570313 150.109375 198.976563 C 149.566406 201.492188 149.117188 202.59375 148.179688 203.933594 C 147.085938 205.488281 145.109375 205.488281 142.882813 206.328125 C 142.804688 206.359375 142.84375 203.261719 142.84375 203.261719 L 142.96875 203.34375 C 146.496094 202.589844 146.957031 200.40625 147.507813 193.304688 C 148.109375 185.488281 149.183594 178.179688 152.84375 178.097656 C 154.660156 178.054688 155.089844 178.507813 154.84375 178.609375 M 134.933594 174.832031 C 134.855469 181.058594 134.816406 190.941406 133.625 205.191406 C 132.433594 219.4375 132.035156 225.152344 131.878906 230.710938 C 131.71875 236.265625 131.957031 238.964844 133.1875 250.117188 C 134.417969 261.265625 132.789063 262.414063 131.203125 262.023438 C 128.304688 261.308594 126.203125 244.402344 126.203125 231.148438 C 126.203125 217.890625 128.742188 215.351563 128.425781 213.449219 C 128.105469 211.542969 122.074219 209.792969 122.074219 209.792969 C 118.1875 207.335938 114.773438 202.929688 114.773438 192.53125 C 114.773438 175.625 122.59375 176.8125 122.59375 176.8125 C 120.808594 176.8125 119.8125 183.242188 119.8125 184.949219 C 119.8125 186.660156 119.773438 192.015625 119.773438 195.226563 C 119.773438 198.441406 122.632813 202.730469 126.164063 202.730469 C 129.695313 202.730469 129.617188 198.523438 129.617188 198.523438 C 129.460938 192.136719 129.140625 188.203125 129.734375 176.339844 C 130.386719 163.390625 134.933594 163.042969 138.308594 163.164063 C 134.8125 167.488281 134.933594 174.832031 134.933594 174.832031 M 153.230469 177.09375 C 152.199219 177.09375 147.675781 179.316406 147.675781 185.984375 C 147.199219 203.761719 142.851563 202.042969 142.851563 202.042969 C 141.730469 201.523438 143.75 195.925781 145.214844 188.664063 C 146.277344 183.394531 145.539063 175.441406 145.539063 171.597656 C 145.539063 162.464844 137.6875 162.222656 137.6875 162.222656 C 134.683594 162.222656 132.636719 163.585938 130.316406 166.832031 C 127.519531 170.734375 128.753906 189.0625 128.871094 191.824219 C 128.992188 194.589844 129.59375 198.960938 127.191406 198.960938 C 124.785156 198.960938 125.148438 196.234375 125.148438 196.234375 C 125.148438 196.234375 125.226563 185.898438 125.226563 180.929688 C 125.226563 175.960938 121.140625 176.042969 121.140625 176.042969 C 116.136719 176.324219 115.28125 181.753906 114.691406 186.984375 C 114.191406 191.421875 114.253906 195.871094 114.253906 195.871094 C 114.253906 206.167969 118.78125 209.179688 119.742188 209.734375 C 120.703125 210.292969 122.480469 210.777344 123.398438 211.363281 C 125.9375 212.976563 126.550781 214.019531 126.589844 215.300781 C 126.621094 216.324219 125.5625 217.632813 124.996094 219.941406 C 124.515625 221.890625 124.121094 223.90625 123.945313 225.234375 C 123.597656 227.859375 123.945313 235.261719 123.945313 235.289063 C 123.9375 239.742188 125.070313 249.039063 126.871094 255.800781 C 128.082031 260.335938 129.421875 263.6875 132.300781 263.6875 C 134.925781 257.867188 139.074219 252.871094 144.246094 249.117188 C 144.246094 249.058594 144.265625 248.984375 144.261719 248.925781 C 143.785156 244.285156 141.410156 227.675781 141.410156 227.675781 C 139.894531 217.882813 141.203125 213.644531 141.203125 213.644531 C 144.785156 212.976563 147.316406 212.257813 149.140625 211.621094 C 156.957031 208.902344 157.355469 194.078125 157.355469 185.425781 C 157.355469 176.777344 153.230469 177.09375 153.230469 177.09375 "/>
<path style=" stroke:none;fill-rule:nonzero;fill:rgb(16.099548%,18.798828%,18.798828%);fill-opacity:1;" d="M 175.8125 270.148438 C 175.46875 268.066406 173.726563 261.75 165.820313 261.75 C 156.863281 261.75 153.996094 269.746094 153.996094 277.429688 C 153.996094 285.113281 156.863281 293.113281 165.820313 293.113281 C 172.25 293.113281 174.773438 288.953125 175.902344 283.585938 L 194.679688 283.585938 C 194.679688 295.109375 184.507813 307.355469 166.339844 307.355469 C 146.257813 307.355469 134.871094 294.3125 134.871094 277.429688 C 134.871094 259.425781 147.214844 247.503906 166.339844 247.503906 C 183.378906 247.589844 192.765625 255.824219 194.417969 270.148438 "/>
<path style=" stroke:none;fill-rule:nonzero;fill:rgb(16.099548%,18.798828%,18.798828%);fill-opacity:1;" d="M 229.71875 287.515625 C 227.640625 288.480469 225.296875 289.046875 222.953125 289.53125 C 219.140625 290.34375 217.148438 291.230469 217.148438 294.054688 C 217.148438 295.992188 219.402344 297.933594 222.519531 297.933594 C 226.425781 297.933594 229.457031 295.75 229.71875 291.390625 Z M 246.199219 296.96875 C 246.199219 300.113281 246.367188 303.664063 248.273438 306.332031 L 230.761719 306.332031 C 230.328125 305.203125 230.066406 303.507813 230.148438 302.378906 L 229.980469 302.378906 C 226.339844 306.253906 221.046875 307.386719 215.5 307.386719 C 206.828125 307.386719 199.628906 303.507813 199.628906 294.707031 C 199.628906 281.453125 216.277344 281.941406 225.039063 280.40625 C 227.382813 280 229.71875 279.359375 229.71875 276.691406 C 229.71875 273.859375 226.863281 272.8125 224.082031 272.8125 C 218.796875 272.8125 217.761719 275.316406 217.667969 277.09375 L 201.710938 277.09375 C 201.972656 271.199219 205.097656 267.722656 209.515625 265.785156 C 213.847656 263.84375 219.578125 263.363281 224.867188 263.363281 C 246.367188 263.363281 246.199219 271.679688 246.199219 279.757813 "/>
<path style=" stroke:none;fill-rule:nonzero;fill:rgb(16.099548%,18.798828%,18.798828%);fill-opacity:1;" d="M 284.886719 280.257813 C 284.714844 278.5625 284.105469 277.1875 282.96875 276.300781 C 281.925781 275.414063 280.441406 274.929688 278.609375 274.929688 C 271.976563 274.929688 271.019531 280.257813 271.019531 285.347656 C 271.019531 290.441406 271.976563 295.6875 278.609375 295.6875 C 282.359375 295.6875 284.980469 292.859375 285.328125 289.546875 L 301.8125 289.546875 C 301.03125 295.203125 298.152344 299.640625 293.960938 302.710938 C 289.863281 305.703125 284.363281 307.320313 278.253906 307.320313 C 264.648438 307.320313 253.742188 298.597656 253.742188 285.347656 C 253.742188 272.101563 264.648438 263.300781 278.253906 263.300781 C 290.125 263.300781 300.242188 268.710938 301.296875 280.257813 "/>
<path style=" stroke:none;fill-rule:nonzero;fill:rgb(16.099548%,18.798828%,18.798828%);fill-opacity:1;" d="M 329.484375 264.257813 L 338.644531 264.257813 L 338.644531 274.132813 L 329.484375 274.132813 L 329.484375 288.777344 C 329.484375 292.660156 330.4375 294.359375 334.757813 294.359375 C 336.050781 294.359375 337.34375 294.273438 338.644531 294.117188 L 338.644531 306.25 C 335.1875 306.25 331.296875 306.734375 327.671875 306.734375 C 320.417969 306.734375 312.382813 305.683594 312.382813 294.195313 L 312.382813 274.132813 L 304.785156 274.132813 L 304.785156 264.257813 L 312.382813 264.257813 L 312.382813 251.476563 L 329.484375 251.476563 "/>
<path style=" stroke:none;fill-rule:nonzero;fill:rgb(16.099548%,18.798828%,18.798828%);fill-opacity:1;" d="M 344.496094 306.121094 L 362.035156 306.121094 L 362.035156 264.3125 L 344.496094 264.3125 Z M 344.496094 306.121094 "/>
<path style=" stroke:none;fill-rule:nonzero;fill:rgb(16.099548%,18.798828%,18.798828%);fill-opacity:1;" d="M 361.941406 254.691406 C 361.941406 259.492188 358.050781 263.382813 353.25 263.382813 C 348.449219 263.382813 344.558594 259.492188 344.558594 254.691406 C 344.558594 249.890625 348.449219 246 353.25 246 C 358.050781 246 361.941406 249.890625 361.941406 254.691406 "/>
<path style=" stroke:none;fill-rule:nonzero;fill:rgb(16.099548%,18.798828%,18.798828%);fill-opacity:1;" d="M 144.808594 317.476563 C 144.808594 315.585938 144.328125 314.769531 142.847656 314.769531 C 141.179688 314.769531 140.789063 316.097656 140.789063 319.769531 C 140.789063 323.695313 141.476563 324.40625 142.890625 324.40625 C 144.078125 324.40625 144.945313 323.914063 144.945313 321.113281 L 148.230469 321.113281 C 148.230469 323.914063 147.363281 326.332031 143.050781 326.332031 C 138.121094 326.332031 137.503906 323.53125 137.503906 319.585938 C 137.503906 315.640625 138.121094 312.839844 143.050781 312.839844 C 147.753906 312.839844 148.09375 315.585938 148.09375 317.476563 "/>
<path style=" stroke:none;fill-rule:nonzero;fill:rgb(16.099548%,18.798828%,18.798828%);fill-opacity:1;" d="M 152.179688 316.296875 L 155.191406 316.296875 L 155.191406 317.605469 L 155.238281 317.605469 C 155.878906 316.660156 156.765625 316.039063 158.066406 316.039063 C 158.25 316.039063 158.457031 316.058594 158.636719 316.078125 L 158.636719 318.476563 C 158.316406 318.460938 157.976563 318.441406 157.65625 318.441406 C 156.5625 318.441406 155.328125 318.898438 155.328125 320.203125 L 155.328125 326.078125 L 152.179688 326.078125 "/>
<path style=" stroke:none;fill-rule:nonzero;fill:rgb(16.099548%,18.798828%,18.798828%);fill-opacity:1;" d="M 167.859375 320.078125 C 167.789063 318.589844 167.5625 317.75 166.261719 317.75 C 165.007813 317.75 164.640625 318.785156 164.640625 319.695313 L 164.640625 320.078125 Z M 164.640625 321.566406 L 164.640625 322.351563 C 164.640625 323.492188 165.027344 324.621094 166.191406 324.621094 C 167.242188 324.621094 167.675781 323.984375 167.859375 322.785156 L 170.691406 322.785156 C 170.574219 325.058594 169.207031 326.332031 166.238281 326.332031 C 161.671875 326.332031 161.492188 323.53125 161.492188 321.09375 C 161.492188 318.476563 162.128906 316.039063 166.375 316.039063 C 170.050781 316.039063 170.871094 318.003906 170.871094 321.003906 L 170.871094 321.566406 "/>
<path style=" stroke:none;fill-rule:nonzero;fill:rgb(16.099548%,18.798828%,18.798828%);fill-opacity:1;" d="M 180.414063 321.1875 C 179.976563 321.441406 179.453125 321.605469 179.066406 321.679688 C 177.789063 321.894531 177.285156 322.386719 177.285156 323.257813 C 177.285156 324.003906 177.628906 324.621094 178.472656 324.621094 C 179.316406 324.621094 180.414063 324.1875 180.414063 323.113281 Z M 174.660156 319.296875 L 174.660156 319.058594 C 174.660156 316.804688 176.601563 316.039063 178.976563 316.039063 C 182.71875 316.039063 183.425781 317.277344 183.425781 319.039063 L 183.425781 324.1875 C 183.425781 325.09375 183.492188 325.511719 183.8125 326.078125 L 180.800781 326.078125 C 180.59375 325.769531 180.503906 325.386719 180.414063 325.058594 L 180.367188 325.058594 C 179.636719 326.078125 178.746094 326.332031 177.238281 326.332031 C 175.050781 326.332031 174.273438 324.839844 174.273438 323.53125 C 174.273438 321.695313 175.210938 320.949219 177.375 320.476563 L 179.15625 320.09375 C 180.09375 319.894531 180.414063 319.605469 180.414063 318.949219 C 180.414063 318.203125 180 317.75 178.949219 317.75 C 177.992188 317.75 177.492188 318.261719 177.492188 319.023438 L 177.492188 319.296875 "/>
<path style=" stroke:none;fill-rule:nonzero;fill:rgb(16.099548%,18.798828%,18.798828%);fill-opacity:1;" d="M 188.515625 313.496094 L 191.664063 313.496094 L 191.664063 316.296875 L 193.492188 316.296875 L 193.492188 318.003906 L 191.664063 318.003906 L 191.664063 323.296875 C 191.664063 324.058594 191.867188 324.367188 192.78125 324.367188 C 193.035156 324.367188 193.285156 324.351563 193.492188 324.332031 L 193.492188 326.078125 C 192.804688 326.128906 192.164063 326.1875 191.4375 326.1875 C 188.972656 326.1875 188.515625 325.585938 188.515625 323.601563 L 188.515625 318.003906 L 186.917969 318.003906 L 186.917969 316.296875 L 188.515625 316.296875 "/>
<path style=" stroke:none;fill-rule:nonzero;fill:rgb(16.099548%,18.798828%,18.798828%);fill-opacity:1;" d="M 196.867188 326.078125 L 200.015625 326.078125 L 200.015625 316.296875 L 196.867188 316.296875 Z M 196.867188 315.097656 L 200.015625 315.097656 L 200.015625 312.949219 L 196.867188 312.949219 Z M 196.867188 315.097656 "/>
<path style=" stroke:none;fill-rule:nonzero;fill:rgb(16.099548%,18.798828%,18.798828%);fill-opacity:1;" d="M 210.21875 316.296875 L 213.367188 316.296875 L 210.285156 326.078125 L 206.636719 326.078125 L 203.460938 316.296875 L 206.75 316.296875 L 208.507813 323.296875 L 208.550781 323.296875 "/>
<path style=" stroke:none;fill-rule:nonzero;fill:rgb(16.099548%,18.798828%,18.798828%);fill-opacity:1;" d="M 222.609375 320.078125 C 222.542969 318.589844 222.3125 317.75 221.011719 317.75 C 219.757813 317.75 219.390625 318.785156 219.390625 319.695313 L 219.390625 320.078125 Z M 219.390625 321.566406 L 219.390625 322.351563 C 219.390625 323.492188 219.78125 324.621094 220.945313 324.621094 C 221.996094 324.621094 222.429688 323.984375 222.609375 322.785156 L 225.441406 322.785156 C 225.328125 325.058594 223.957031 326.332031 220.992188 326.332031 C 216.425781 326.332031 216.242188 323.53125 216.242188 321.09375 C 216.242188 318.476563 216.882813 316.039063 221.128906 316.039063 C 224.800781 316.039063 225.621094 318.003906 225.621094 321.003906 L 225.621094 321.566406 "/>
<path style=" stroke:none;fill-rule:nonzero;fill:rgb(16.099548%,18.798828%,18.798828%);fill-opacity:1;" d="M 237.171875 326.078125 L 237.171875 313.097656 L 240.460938 313.097656 L 240.460938 323.933594 L 246.28125 323.933594 L 246.28125 326.078125 "/>
<path style=" stroke:none;fill-rule:nonzero;fill:rgb(16.099548%,18.798828%,18.798828%);fill-opacity:1;" d="M 255.546875 321.1875 C 255.113281 321.441406 254.589844 321.605469 254.199219 321.679688 C 252.921875 321.894531 252.417969 322.386719 252.417969 323.257813 C 252.417969 324.003906 252.761719 324.621094 253.605469 324.621094 C 254.449219 324.621094 255.546875 324.1875 255.546875 323.113281 Z M 249.792969 319.296875 L 249.792969 319.058594 C 249.792969 316.804688 251.734375 316.039063 254.109375 316.039063 C 257.851563 316.039063 258.558594 317.277344 258.558594 319.039063 L 258.558594 324.1875 C 258.558594 325.09375 258.628906 325.511719 258.945313 326.078125 L 255.933594 326.078125 C 255.730469 325.769531 255.636719 325.386719 255.546875 325.058594 L 255.5 325.058594 C 254.769531 326.078125 253.878906 326.332031 252.371094 326.332031 C 250.183594 326.332031 249.40625 324.839844 249.40625 323.53125 C 249.40625 321.695313 250.34375 320.949219 252.511719 320.476563 L 254.289063 320.09375 C 255.226563 319.894531 255.546875 319.605469 255.546875 318.949219 C 255.546875 318.203125 255.136719 317.75 254.085938 317.75 C 253.125 317.75 252.621094 318.261719 252.621094 319.023438 L 252.621094 319.296875 "/>
<path style=" stroke:none;fill-rule:nonzero;fill:rgb(16.099548%,18.798828%,18.798828%);fill-opacity:1;" d="M 262.960938 316.296875 L 265.976563 316.296875 L 265.976563 317.441406 L 266.019531 317.441406 C 266.683594 316.476563 267.824219 316.039063 269.148438 316.039063 C 271.109375 316.039063 272.273438 316.894531 272.273438 318.824219 L 272.273438 326.078125 L 269.125 326.078125 L 269.125 319.332031 C 269.125 318.351563 268.714844 317.96875 267.777344 317.96875 C 266.703125 317.96875 266.109375 318.496094 266.109375 319.585938 L 266.109375 326.078125 L 262.960938 326.078125 "/>
<path style=" stroke:none;fill-rule:nonzero;fill:rgb(16.099548%,18.798828%,18.798828%);fill-opacity:1;" d="M 281.035156 324.40625 C 282.429688 324.40625 282.703125 323.3125 282.703125 321.183594 C 282.703125 319.058594 282.429688 317.96875 281.035156 317.96875 C 279.667969 317.96875 279.394531 319.058594 279.394531 321.183594 C 279.394531 323.3125 279.667969 324.40625 281.035156 324.40625 M 282.84375 325.039063 L 282.796875 325.039063 C 282.109375 325.949219 281.242188 326.332031 280.011719 326.332031 C 277.433594 326.332031 276.246094 324.824219 276.246094 321.183594 C 276.246094 317.550781 277.433594 316.042969 280.011719 316.042969 C 281.195313 316.042969 281.996094 316.425781 282.65625 317.203125 L 282.703125 317.203125 L 282.703125 313.097656 L 285.855469 313.097656 L 285.855469 326.078125 L 282.84375 326.078125 "/>
<path style=" stroke:none;fill-rule:nonzero;fill:rgb(16.099548%,18.798828%,18.798828%);fill-opacity:1;" d="M 292.425781 322.878906 L 292.425781 323.203125 C 292.425781 324.058594 292.996094 324.621094 294.070313 324.621094 C 295.03125 324.621094 295.667969 324.238281 295.667969 323.460938 C 295.667969 322.824219 295.144531 322.53125 294.527344 322.351563 L 292.3125 321.714844 C 290.578125 321.222656 289.6875 320.367188 289.6875 318.984375 C 289.6875 317.367188 290.964844 316.039063 294.207031 316.039063 C 297.0625 316.039063 298.40625 317.058594 298.40625 318.824219 L 298.40625 319.222656 L 295.578125 319.222656 C 295.578125 318.238281 295.210938 317.75 294.183594 317.75 C 293.386719 317.75 292.699219 318.113281 292.699219 318.804688 C 292.699219 319.277344 293.023438 319.675781 294.070313 319.949219 L 295.964844 320.457031 C 297.949219 320.984375 298.683594 321.785156 298.683594 323.257813 C 298.683594 325.3125 296.765625 326.332031 294.117188 326.332031 C 290.578125 326.332031 289.597656 325.09375 289.597656 323.222656 L 289.597656 322.878906 "/>
<path style=" stroke:none;fill-rule:nonzero;fill:rgb(16.099548%,18.798828%,18.798828%);fill-opacity:1;" d="M 308.335938 319.824219 C 308.335938 318.878906 308.105469 317.859375 306.921875 317.859375 C 305.367188 317.859375 305.117188 318.949219 305.117188 321.203125 C 305.117188 323.621094 305.390625 324.621094 306.808594 324.621094 C 307.855469 324.621094 308.335938 323.910156 308.335938 322.332031 L 311.347656 322.332031 C 311.347656 324.894531 310.003906 326.332031 306.667969 326.332031 C 303.519531 326.332031 301.96875 325.113281 301.96875 321.183594 C 301.96875 317.167969 304.042969 316.039063 306.941406 316.039063 C 309.84375 316.039063 311.347656 317.515625 311.347656 319.824219 "/>
<path style=" stroke:none;fill-rule:nonzero;fill:rgb(16.099548%,18.798828%,18.798828%);fill-opacity:1;" d="M 320.890625 321.1875 C 320.453125 321.441406 319.929688 321.605469 319.542969 321.679688 C 318.265625 321.894531 317.761719 322.386719 317.761719 323.257813 C 317.761719 324.003906 318.105469 324.621094 318.949219 324.621094 C 319.792969 324.621094 320.890625 324.1875 320.890625 323.113281 Z M 315.136719 319.296875 L 315.136719 319.058594 C 315.136719 316.804688 317.078125 316.039063 319.449219 316.039063 C 323.195313 316.039063 323.902344 317.277344 323.902344 319.039063 L 323.902344 324.1875 C 323.902344 325.09375 323.96875 325.511719 324.289063 326.078125 L 321.277344 326.078125 C 321.070313 325.769531 320.980469 325.386719 320.890625 325.058594 L 320.84375 325.058594 C 320.113281 326.078125 319.222656 326.332031 317.714844 326.332031 C 315.527344 326.332031 314.75 324.839844 314.75 323.53125 C 314.75 321.695313 315.6875 320.949219 317.851563 320.476563 L 319.632813 320.09375 C 320.570313 319.894531 320.890625 319.605469 320.890625 318.949219 C 320.890625 318.203125 320.476563 317.75 319.429688 317.75 C 318.46875 317.75 317.96875 318.261719 317.96875 319.023438 L 317.96875 319.296875 "/>
<path style=" stroke:none;fill-rule:nonzero;fill:rgb(16.099548%,18.798828%,18.798828%);fill-opacity:1;" d="M 333.121094 324.40625 C 334.488281 324.40625 334.761719 323.3125 334.761719 321.183594 C 334.761719 319.058594 334.488281 317.96875 333.121094 317.96875 C 331.726563 317.96875 331.453125 319.058594 331.453125 321.183594 C 331.453125 323.3125 331.726563 324.40625 333.121094 324.40625 M 328.304688 316.296875 L 331.316406 316.296875 L 331.316406 317.332031 L 331.363281 317.332031 C 332.046875 316.425781 332.914063 316.042969 334.148438 316.042969 C 336.726563 316.042969 337.914063 317.550781 337.914063 321.183594 C 337.914063 324.824219 336.726563 326.332031 334.148438 326.332031 C 332.960938 326.332031 332.160156 325.949219 331.5 325.167969 L 331.453125 325.167969 L 331.453125 329.277344 L 328.304688 329.277344 "/>
<path style=" stroke:none;fill-rule:nonzero;fill:rgb(16.099548%,18.798828%,18.798828%);fill-opacity:1;" d="M 347.796875 320.078125 C 347.726563 318.589844 347.496094 317.75 346.199219 317.75 C 344.941406 317.75 344.578125 318.785156 344.578125 319.695313 L 344.578125 320.078125 Z M 344.578125 321.566406 L 344.578125 322.351563 C 344.578125 323.492188 344.96875 324.621094 346.128906 324.621094 C 347.179688 324.621094 347.613281 323.984375 347.796875 322.785156 L 350.625 322.785156 C 350.511719 325.058594 349.144531 326.332031 346.175781 326.332031 C 341.609375 326.332031 341.429688 323.53125 341.429688 321.09375 C 341.429688 318.476563 342.066406 316.039063 346.3125 316.039063 C 349.988281 316.039063 350.808594 318.003906 350.808594 321.003906 L 350.808594 321.566406 "/>
<path style=" stroke:none;fill-rule:nonzero;fill:rgb(16.099548%,18.798828%,18.798828%);fill-opacity:1;" d="M 356.925781 322.878906 L 356.925781 323.203125 C 356.925781 324.058594 357.496094 324.621094 358.570313 324.621094 C 359.527344 324.621094 360.167969 324.238281 360.167969 323.460938 C 360.167969 322.824219 359.644531 322.53125 359.027344 322.351563 L 356.8125 321.714844 C 355.078125 321.222656 354.1875 320.367188 354.1875 318.984375 C 354.1875 317.367188 355.464844 316.039063 358.703125 316.039063 C 361.558594 316.039063 362.90625 317.058594 362.90625 318.824219 L 362.90625 319.222656 L 360.074219 319.222656 C 360.074219 318.238281 359.710938 317.75 358.683594 317.75 C 357.886719 317.75 357.199219 318.113281 357.199219 318.804688 C 357.199219 319.277344 357.519531 319.675781 358.570313 319.949219 L 360.464844 320.457031 C 362.449219 320.984375 363.179688 321.785156 363.179688 323.257813 C 363.179688 325.3125 361.265625 326.332031 358.613281 326.332031 C 355.078125 326.332031 354.09375 325.09375 354.09375 323.222656 L 354.09375 322.878906 "/>
</g>
</svg>
