<svg xmlns="http://www.w3.org/2000/svg" width="45" height="45" viewBox="0 0 60 60">
  <path id="Icon_material-call" data-name="Icon material-call" d="M22.067,35.967A50.5,50.5,0,0,0,44.033,57.933L51.367,50.6a3.314,3.314,0,0,1,3.4-.8,38.023,38.023,0,0,0,11.9,1.9A3.343,3.343,0,0,1,70,55.033V66.667A3.343,3.343,0,0,1,66.667,70,56.662,56.662,0,0,1,10,13.333,3.343,3.343,0,0,1,13.333,10H25a3.343,3.343,0,0,1,3.333,3.333,37.868,37.868,0,0,0,1.9,11.9,3.345,3.345,0,0,1-.833,3.4l-7.333,7.333Z" transform="translate(-10 -10)" fill="#fff"/>
</svg>
