<svg xmlns="http://www.w3.org/2000/svg" width="55" height="55" viewBox="0 0 100 50">
  <path id="Icon_awesome-digital-tachograph" data-name="Icon awesome-digital-tachograph" d="M95,15H5a5,5,0,0,0-5,5V60a5,5,0,0,0,5,5H95a5,5,0,0,0,5-5V20A5,5,0,0,0,95,15ZM47.5,55a1.25,1.25,0,0,1-1.25,1.25h-35A1.25,1.25,0,0,1,10,55V53.75a1.25,1.25,0,0,1,1.25-1.25h35a1.25,1.25,0,0,1,1.25,1.25ZM11.25,45V42.5a1.25,1.25,0,0,1,1.25-1.25H15a1.25,1.25,0,0,1,1.25,1.25V45A1.25,1.25,0,0,1,15,46.25H12.5A1.25,1.25,0,0,1,11.25,45Zm10,0V42.5a1.25,1.25,0,0,1,1.25-1.25H25a1.25,1.25,0,0,1,1.25,1.25V45A1.25,1.25,0,0,1,25,46.25H22.5A1.25,1.25,0,0,1,21.25,45Zm10,0V42.5a1.25,1.25,0,0,1,1.25-1.25H35a1.25,1.25,0,0,1,1.25,1.25V45A1.25,1.25,0,0,1,35,46.25H32.5A1.25,1.25,0,0,1,31.25,45Zm10,0V42.5a1.25,1.25,0,0,1,1.25-1.25H45a1.25,1.25,0,0,1,1.25,1.25V45A1.25,1.25,0,0,1,45,46.25H42.5A1.25,1.25,0,0,1,41.25,45ZM47.5,35A2.5,2.5,0,0,1,45,37.5H12.5A2.5,2.5,0,0,1,10,35V27.5A2.5,2.5,0,0,1,12.5,25H45a2.5,2.5,0,0,1,2.5,2.5ZM90,55a1.25,1.25,0,0,1-1.25,1.25h-35A1.25,1.25,0,0,1,52.5,55V53.75a1.25,1.25,0,0,1,1.25-1.25h35A1.25,1.25,0,0,1,90,53.75Z" transform="translate(0 -15)" fill="#fafafa"/>
</svg>

