<?xml version="1.0" encoding="UTF-8"?>
<svg xmlns="http://www.w3.org/2000/svg" xmlns:xlink="http://www.w3.org/1999/xlink" width="1200" height="800" viewBox="0 0 698.46 176.96" version="1.1">
<defs>
<clipPath id="clip1">
  <path d="M 0 0 L 166 0 L 166 176.960938 L 0 176.960938 Z M 0 0 "/>
</clipPath>
<clipPath id="clip2">
  <path d="M 635 50 L 698.460938 50 L 698.460938 127 L 635 127 Z M 635 50 "/>
</clipPath>
</defs>
<g id="surface1">
<path style=" stroke:none;fill-rule:nonzero;fill:rgb(100%,100%,100%);fill-opacity:1;" d="M 70.703125 54.960938 C 76.238281 51.1875 83.375 52.671875 82.179688 53.808594 C 79.902344 55.972656 82.933594 55.335938 83.257813 59.332031 C 83.5 62.277344 82.535156 63.902344 81.710938 64.824219 C 79.984375 65.050781 77.882813 65.472656 75.355469 66.296875 C 73.859375 66.78125 72.554688 67.320313 71.417969 67.863281 C 71.117188 67.664063 70.792969 67.429688 70.402344 67.09375 C 66.492188 63.710938 66.625 57.742188 70.703125 54.960938 Z M 103.769531 78.28125 C 104.773438 77.5 109.339844 76.035156 113.566406 75.53125 C 115.785156 75.269531 118.945313 75.121094 119.621094 75.496094 C 120.960938 76.234375 120.960938 78.523438 120.046875 80.640625 C 118.710938 83.714844 116.820313 87.101563 114.683594 87.382813 C 111.195313 87.84375 107.890625 85.957031 104.125 83.140625 C 102.777344 82.136719 101.953125 79.6875 103.769531 78.28125 Z M 110.136719 48.371094 C 115.289063 50.769531 114.613281 55.328125 114.753906 58.007813 C 114.792969 58.777344 114.78125 59.296875 114.71875 59.652344 C 114 59.265625 112.875 58.984375 111.089844 59.0625 C 110.5625 59.085938 110.054688 59.144531 109.5625 59.226563 C 107.664063 58.210938 106.527344 56.210938 105.488281 54.097656 C 105.394531 53.902344 105.320313 53.726563 105.25 53.554688 C 105.222656 53.476563 105.183594 53.390625 105.160156 53.320313 C 105.144531 53.285156 105.136719 53.25 105.121094 53.214844 C 104.550781 51.40625 104.933594 51.042969 105.179688 50.484375 C 105.425781 49.917969 106.355469 49.445313 104.984375 48.96875 C 104.867188 48.929688 104.714844 48.898438 104.550781 48.871094 C 105.457031 47.742188 108.191406 47.46875 110.136719 48.371094 Z M 82.050781 102.90625 C 76.496094 99.339844 70.753906 94.226563 68.246094 91.398438 C 67.824219 91.082031 67.890625 89.671875 67.890625 89.671875 C 70.15625 91.4375 79.5625 98.15625 89.503906 101.222656 C 93.007813 102.308594 98.390625 102.71875 103.058594 100.066406 C 106.628906 98.042969 110.921875 94.519531 113.480469 90.886719 L 113.953125 91.699219 C 113.933594 92.242188 112.753906 94.871094 112.15625 95.929688 C 113.238281 96.550781 114.050781 96.71875 115.257813 97.054688 L 123.492188 95.769531 C 126.441406 90.996094 128.5625 83.296875 126.308594 75.972656 C 125.015625 71.769531 118.300781 63.402344 117.816406 62.9375 C 116.125 61.316406 118.097656 55.046875 114.753906 48.214844 C 111.210938 40.984375 102 33.441406 97.992188 30.160156 C 99.175781 31.019531 106.441406 33.945313 109.820313 38.03125 C 110.140625 37.609375 110.269531 35.417969 110.5625 34.863281 C 107.65625 31.058594 107.429688 24.28125 107.429688 22.472656 C 107.429688 19.152344 105.738281 15.386719 105.738281 15.386719 C 105.738281 15.386719 108.648438 17.6875 109.398438 21.652344 C 110.285156 26.347656 112.179688 30.042969 114.683594 33.171875 C 119.417969 39.070313 123.695313 42.101563 125.859375 39.921875 C 128.445313 37.300781 123.238281 25.582031 116.578125 19.039063 C 108.816406 11.414063 106.777344 12.398438 102.222656 14.027344 C 98.585938 15.320313 96.621094 25.652344 87.140625 25.445313 C 85.53125 25.261719 81.394531 25.15625 79.351563 25.175781 C 80.417969 23.6875 81.328125 22.539063 81.328125 22.539063 C 81.328125 22.539063 78.148438 23.816406 75.441406 25.441406 L 75.230469 25.121094 C 76.144531 23.195313 77.128906 21.980469 77.128906 21.980469 C 77.128906 21.980469 74.589844 23.507813 72.269531 25.335938 C 72.691406 23.035156 74.289063 21.574219 74.289063 21.574219 C 74.289063 21.574219 71.078125 22.15625 66.984375 26.65625 C 62.335938 27.921875 61.21875 28.761719 57.515625 30.398438 C 51.496094 29.085938 48.652344 26.964844 45.945313 23.0625 C 43.882813 20.082031 40.21875 19.632813 36.460938 21.167969 C 31 23.433594 24.085938 26.53125 24.085938 26.53125 C 24.085938 26.53125 26.332031 26.445313 28.683594 26.546875 C 25.472656 27.765625 22.378906 29.4375 22.378906 29.4375 C 22.378906 29.4375 23.882813 29.386719 25.742188 29.417969 C 24.457031 30.484375 23.746094 30.996094 22.527344 31.804688 C 19.585938 33.9375 17.203125 36.402344 17.203125 36.402344 C 17.203125 36.402344 19.199219 35.492188 20.988281 34.984375 C 19.738281 37.859375 17.253906 39.972656 17.710938 43.488281 C 18.148438 46.699219 22.089844 53.3125 27.179688 57.371094 C 27.617188 57.726563 34.570313 64.152344 39.808594 61.511719 C 45.050781 58.878906 47.117188 56.527344 47.976563 52.921875 C 48.992188 48.78125 48.414063 45.65625 46.253906 36.675781 C 45.539063 33.710938 43.683594 27.605469 42.78125 24.6875 L 42.984375 24.539063 C 44.699219 28.15625 49.085938 37.691406 50.851563 44.09375 C 53.613281 54.078125 52.746094 59.144531 51.488281 61 C 47.683594 66.601563 37.925781 67.34375 33.484375 64.238281 C 32.808594 74.988281 35.210938 79.722656 36.023438 82.109375 C 35.617188 84.847656 37.394531 89.9375 37.394531 89.9375 C 37.394531 89.9375 37.59375 87.621094 38.40625 86.402344 C 38.625 89.125 39.996094 92.355469 39.996094 92.355469 C 39.996094 92.355469 39.914063 90.359375 40.535156 88.636719 C 41.414063 90.121094 42.0625 90.480469 42.890625 91.59375 C 43.71875 94.5 45.390625 96.628906 45.390625 96.628906 C 45.390625 96.628906 45.117188 95.070313 45.269531 93.445313 C 49.339844 97.355469 50.039063 103.058594 50.445313 107.4375 C 51.585938 119.488281 31.445313 129.066406 27.539063 136.605469 C 24.585938 141.066406 22.816406 148.132813 27.824219 152.292969 C 39.933594 162.347656 35.28125 165.117188 41.34375 169.535156 C 49.65625 175.59375 60.0625 172.882813 63.605469 167.949219 C 68.535156 161.078125 67.269531 154.597656 65.4375 148.539063 C 64.003906 143.800781 60.117188 135.929688 55.300781 132.878906 C 50.382813 129.765625 45.605469 129.183594 41.550781 129.601563 L 41.925781 129.171875 C 47.753906 128.015625 53.839844 128.652344 58.25 131.488281 C 63.257813 134.707031 67.832031 140.226563 70.226563 148.679688 C 72.941406 148.292969 73.328125 148.117188 75.808594 147.765625 L 70.214844 104.207031 Z M 85.28125 157.503906 L 84.636719 151.464844 L 97.214844 132.269531 L 111.5 136.441406 L 123.785156 115.929688 L 138.507813 125.640625 L 149.699219 102.179688 L 153.675781 144.90625 Z M 153.828125 93.421875 L 108.867188 101.570313 C 107.753906 103.007813 105 105.527344 103.675781 106.1875 C 97.992188 109.046875 94.15625 108.21875 90.839844 107.355469 C 88.710938 106.8125 87.476563 106.507813 85.703125 105.714844 L 74.726563 107.21875 L 81.390625 162.796875 L 158.410156 148.917969 L 153.828125 93.421875 "/>
<g clip-path="url(#clip1)" clip-rule="nonzero">
<path style=" stroke:none;fill-rule:nonzero;fill:rgb(46.699524%,29.399109%,61.999512%);fill-opacity:1;" d="M 105.125 53.21875 C 105.136719 53.25 105.148438 53.285156 105.160156 53.324219 C 105.183594 53.394531 105.222656 53.480469 105.25 53.554688 C 105.320313 53.726563 105.394531 53.902344 105.488281 54.097656 C 106.527344 56.214844 107.664063 58.210938 109.5625 59.226563 C 110.058594 59.148438 110.566406 59.085938 111.089844 59.0625 C 112.875 58.988281 114.003906 59.269531 114.71875 59.65625 C 114.78125 59.300781 114.796875 58.777344 114.757813 58.007813 C 114.613281 55.332031 115.289063 50.769531 110.136719 48.375 C 108.191406 47.46875 105.460938 47.746094 104.554688 48.875 C 104.714844 48.898438 104.867188 48.929688 104.984375 48.972656 C 106.359375 49.445313 105.425781 49.917969 105.179688 50.488281 C 104.933594 51.046875 104.554688 51.40625 105.125 53.21875 Z M 104.125 83.144531 C 107.894531 85.960938 111.195313 87.847656 114.683594 87.386719 C 116.820313 87.105469 118.714844 83.714844 120.046875 80.640625 C 120.964844 78.527344 120.960938 76.238281 119.625 75.496094 C 118.945313 75.125 115.785156 75.269531 113.566406 75.535156 C 109.339844 76.035156 104.773438 77.503906 103.769531 78.28125 C 101.953125 79.6875 102.78125 82.140625 104.125 83.144531 Z M 70.703125 54.960938 C 66.621094 57.742188 66.492188 63.714844 70.402344 67.097656 C 70.789063 67.433594 71.113281 67.667969 71.417969 67.867188 C 72.554688 67.324219 73.855469 66.78125 75.355469 66.296875 C 77.882813 65.476563 79.984375 65.054688 81.710938 64.828125 C 82.535156 63.902344 83.5 62.277344 83.257813 59.332031 C 82.933594 55.335938 79.902344 55.972656 82.179688 53.808594 C 83.375 52.675781 76.238281 51.1875 70.703125 54.960938 Z M 138.511719 125.644531 L 123.785156 115.933594 L 111.5 136.449219 L 97.21875 132.273438 L 84.636719 151.46875 L 85.28125 157.511719 L 153.679688 144.914063 L 149.703125 102.183594 Z M 74.726563 107.222656 L 85.703125 105.71875 C 87.476563 106.515625 88.710938 106.816406 90.839844 107.359375 C 94.15625 108.222656 97.996094 109.050781 103.675781 106.1875 C 105 105.53125 107.753906 103.011719 108.867188 101.574219 L 153.832031 93.425781 L 158.414063 148.921875 L 81.390625 162.804688 Z M 158.246094 87.226563 L 153.808594 88.070313 L 145.28125 -0.00390625 L 0 16.839844 L 17.898438 162.050781 L 34.90625 159.585938 C 33.546875 157.644531 31.433594 155.300781 27.820313 152.296875 C 22.8125 148.140625 24.582031 141.070313 27.539063 136.609375 C 31.441406 129.074219 51.582031 119.492188 50.445313 107.441406 C 50.035156 103.0625 49.335938 97.359375 45.269531 93.449219 C 45.117188 95.074219 45.390625 96.632813 45.390625 96.632813 C 45.390625 96.632813 43.71875 94.503906 42.890625 91.597656 C 42.0625 90.484375 41.414063 90.125 40.535156 88.640625 C 39.910156 90.363281 39.992188 92.359375 39.992188 92.359375 C 39.992188 92.359375 38.621094 89.128906 38.40625 86.40625 C 37.59375 87.625 37.390625 89.941406 37.390625 89.941406 C 37.390625 89.941406 35.613281 84.851563 36.019531 82.109375 C 35.207031 79.726563 32.808594 74.992188 33.484375 64.238281 C 37.921875 67.34375 47.679688 66.605469 51.484375 61.003906 C 52.746094 59.148438 53.609375 54.082031 50.851563 44.09375 C 49.082031 37.691406 44.695313 28.15625 42.984375 24.542969 L 42.78125 24.6875 C 43.679688 27.605469 45.539063 33.710938 46.253906 36.675781 C 48.410156 45.660156 48.988281 48.78125 47.976563 52.925781 C 47.113281 56.527344 45.050781 58.878906 39.808594 61.515625 C 34.566406 64.152344 27.613281 57.726563 27.175781 57.375 C 22.085938 53.3125 18.148438 46.703125 17.707031 43.488281 C 17.25 39.972656 19.734375 37.859375 20.988281 34.984375 C 19.195313 35.492188 17.199219 36.40625 17.199219 36.40625 C 17.199219 36.40625 19.582031 33.9375 22.527344 31.804688 C 23.746094 30.996094 24.453125 30.488281 25.738281 29.417969 C 23.878906 29.386719 22.375 29.4375 22.375 29.4375 C 22.375 29.4375 25.46875 27.765625 28.683594 26.546875 C 26.332031 26.445313 24.082031 26.53125 24.082031 26.53125 C 24.082031 26.53125 30.996094 23.4375 36.460938 21.167969 C 40.214844 19.632813 43.882813 20.082031 45.945313 23.0625 C 48.648438 26.964844 51.492188 29.085938 57.515625 30.398438 C 61.214844 28.761719 62.335938 27.925781 66.984375 26.65625 C 71.078125 22.15625 74.289063 21.574219 74.289063 21.574219 C 74.289063 21.574219 72.691406 23.035156 72.269531 25.335938 C 74.589844 23.507813 77.128906 21.980469 77.128906 21.980469 C 77.128906 21.980469 76.144531 23.195313 75.230469 25.121094 L 75.441406 25.441406 C 78.148438 23.816406 81.328125 22.539063 81.328125 22.539063 C 81.328125 22.539063 80.417969 23.6875 79.351563 25.175781 C 81.394531 25.15625 85.53125 25.261719 87.140625 25.445313 C 96.621094 25.652344 98.585938 15.320313 102.222656 14.027344 C 106.78125 12.398438 108.816406 11.414063 116.578125 19.039063 C 123.238281 25.582031 128.449219 37.300781 125.863281 39.921875 C 123.695313 42.101563 119.421875 39.074219 114.683594 33.171875 C 112.179688 30.042969 110.285156 26.347656 109.398438 21.652344 C 108.652344 17.6875 105.738281 15.386719 105.738281 15.386719 C 105.738281 15.386719 107.429688 19.152344 107.429688 22.472656 C 107.429688 24.28125 107.65625 31.058594 110.5625 34.863281 C 110.273438 35.417969 110.140625 37.609375 109.824219 38.03125 C 106.441406 33.949219 99.175781 31.019531 97.996094 30.160156 C 102 33.441406 111.214844 40.984375 114.753906 48.214844 C 118.101563 55.050781 116.128906 61.320313 117.820313 62.941406 C 118.300781 63.402344 125.015625 71.769531 126.308594 75.972656 C 128.566406 83.300781 126.445313 91 123.492188 95.773438 L 115.257813 97.058594 C 114.050781 96.726563 113.238281 96.554688 112.15625 95.933594 C 112.753906 94.875 113.9375 92.246094 113.953125 91.703125 L 113.484375 90.886719 C 110.925781 94.519531 106.628906 98.046875 103.058594 100.070313 C 98.390625 102.722656 93.007813 102.3125 89.503906 101.226563 C 79.5625 98.160156 70.15625 91.441406 67.890625 89.675781 C 67.890625 89.675781 67.820313 91.085938 68.246094 91.402344 C 70.753906 94.230469 76.496094 99.34375 82.050781 102.910156 L 70.214844 104.210938 L 75.808594 147.769531 C 73.328125 148.125 72.941406 148.300781 70.226563 148.6875 C 67.832031 140.230469 63.253906 134.710938 58.25 131.496094 C 53.839844 128.660156 47.75 128.019531 41.921875 129.179688 L 41.550781 129.609375 C 45.601563 129.1875 50.382813 129.773438 55.296875 132.886719 C 60.117188 135.933594 64.003906 143.808594 65.4375 148.546875 C 67.269531 154.605469 68.535156 161.085938 63.605469 167.957031 C 60.097656 172.839844 49.859375 175.535156 41.585938 169.699219 C 43.796875 173.25 46.78125 176.160156 50.796875 176.703125 C 56.773438 177.515625 62.4375 176.480469 66.335938 172.476563 C 69.667969 169.054688 71.429688 161.894531 70.964844 154.359375 L 76.234375 153.597656 L 78.136719 167.125 L 165.359375 156.625 L 158.246094 87.226563 "/>
</g>
<path style=" stroke:none;fill-rule:evenodd;fill:rgb(46.699524%,29.399109%,61.999512%);fill-opacity:1;" d="M 208.867188 113.964844 L 225.453125 113.964844 C 241.078125 113.964844 248.890625 104.785156 248.890625 86.417969 C 248.890625 70.78125 241.078125 62.957031 225.453125 62.957031 L 208.867188 62.957031 Z M 227.5625 126.0625 L 194.910156 126.0625 L 194.910156 50.894531 L 227.5625 50.894531 C 251.082031 50.894531 262.855469 62.742188 262.855469 86.429688 C 262.855469 112.847656 251.082031 126.0625 227.5625 126.0625 "/>
<path style=" stroke:none;fill-rule:evenodd;fill:rgb(46.699524%,29.399109%,61.999512%);fill-opacity:1;" d="M 277.476563 126.0625 L 263.144531 126.0625 L 295.117188 50.894531 L 310.128906 50.894531 L 342.789063 126.0625 L 327.78125 126.0625 L 318.300781 105.5625 L 294.179688 105.5625 L 298.96875 93.476563 L 314.617188 93.476563 L 302.289063 65.238281 L 277.476563 126.0625 "/>
<path style=" stroke:none;fill-rule:evenodd;fill:rgb(46.699524%,29.399109%,61.999512%);fill-opacity:1;" d="M 334.902344 50.894531 L 392.054688 50.894531 L 392.054688 62.980469 L 370.460938 62.980469 L 370.460938 126.0625 L 356.507813 126.0625 L 356.507813 62.980469 L 334.902344 62.980469 L 334.902344 50.894531 "/>
<path style=" stroke:none;fill-rule:evenodd;fill:rgb(46.699524%,29.399109%,61.999512%);fill-opacity:1;" d="M 399.226563 126.0625 L 384.894531 126.0625 L 416.871094 50.894531 L 431.875 50.894531 L 464.539063 126.0625 L 449.519531 126.0625 L 440.039063 105.5625 L 415.914063 105.5625 L 420.703125 93.476563 L 436.351563 93.476563 L 424.027344 65.238281 L 399.226563 126.0625 "/>
<path style=" stroke:none;fill-rule:evenodd;fill:rgb(46.699524%,29.399109%,61.999512%);fill-opacity:1;" d="M 487.761719 113.964844 L 504.351563 113.964844 C 519.972656 113.964844 527.796875 104.785156 527.796875 86.417969 C 527.796875 70.78125 519.972656 62.957031 504.351563 62.957031 L 487.761719 62.957031 Z M 506.457031 126.0625 L 473.804688 126.0625 L 473.804688 50.894531 L 506.457031 50.894531 C 529.992188 50.894531 541.753906 62.742188 541.753906 86.429688 C 541.753906 112.847656 529.992188 126.0625 506.457031 126.0625 "/>
<path style=" stroke:none;fill-rule:evenodd;fill:rgb(46.699524%,29.399109%,61.999512%);fill-opacity:1;" d="M 589.035156 114.488281 C 604.195313 114.488281 611.78125 105.75 611.78125 88.257813 C 611.78125 71.042969 604.195313 62.429688 589.035156 62.429688 C 573.472656 62.429688 565.703125 71.042969 565.703125 88.257813 C 565.703125 105.75 573.472656 114.488281 589.035156 114.488281 Z M 551.207031 88.585938 C 551.207031 63.09375 563.820313 50.355469 589.035156 50.355469 C 613.863281 50.355469 626.261719 63.09375 626.261719 88.585938 C 626.261719 113.929688 613.863281 126.601563 589.035156 126.601563 C 564.9375 126.601563 552.335938 113.929688 551.207031 88.585938 "/>
<g clip-path="url(#clip2)" clip-rule="nonzero">
<path style=" stroke:none;fill-rule:evenodd;fill:rgb(46.699524%,29.399109%,61.999512%);fill-opacity:1;" d="M 684.503906 95.644531 L 684.503906 113.25 C 681.28125 114.089844 678.398438 114.503906 675.863281 114.503906 C 658.800781 114.503906 650.273438 105.476563 650.273438 87.433594 C 650.273438 70.765625 659.3125 62.441406 677.394531 62.441406 C 684.941406 62.441406 691.964844 63.847656 698.460938 66.65625 L 698.460938 54.027344 C 691.964844 51.585938 684.59375 50.355469 676.339844 50.355469 C 649.308594 50.355469 635.78125 62.703125 635.78125 87.433594 C 635.78125 113.539063 649.070313 126.601563 675.652344 126.601563 C 684.792969 126.601563 692.390625 125.273438 698.460938 122.605469 L 698.460938 83.28125 L 675.914063 83.28125 L 671.203125 95.644531 L 684.503906 95.644531 "/>
</g>
</g>
</svg>
