<svg xmlns="http://www.w3.org/2000/svg" width="50" height="50" viewBox="0 0 56.2 70">
  <path id="Icon_awesome-angle-double-up" data-name="Icon awesome-angle-double-up" d="M31.077,43.9,54.954,20.027a4.2,4.2,0,0,0,0-5.952l-3.968-3.968a4.2,4.2,0,0,0-5.952,0L28.092,27.014,11.167,10.089a4.2,4.2,0,0,0-5.952,0L1.23,14.057a4.2,4.2,0,0,0,0,5.952L25.107,43.887A4.2,4.2,0,0,0,31.077,43.9ZM25.107,77.614,1.23,53.736a4.2,4.2,0,0,1,0-5.952L5.2,43.816a4.2,4.2,0,0,1,5.952,0L28.075,60.741,45,43.816a4.2,4.2,0,0,1,5.952,0l3.968,3.968a4.2,4.2,0,0,1,0,5.952L31.042,77.614A4.175,4.175,0,0,1,25.107,77.614Z" transform="translate(0.008 -8.852)" fill="#fff"/>
</svg>
