<?xml version="1.0" encoding="UTF-8"?>
<svg width="80" height="80" viewBox="0 0 485 148" version="1.1" xmlns="http://www.w3.org/2000/svg" xmlns:xlink="http://www.w3.org/1999/xlink">
    <defs>
        <polygon id="path-1" points="0.473 54 251.7486 54 251.7486 0.575 0.473 0.575"></polygon>
    </defs>
    <g id="Symbols" stroke="none" stroke-width="1" fill="none" fill-rule="evenodd">
        <g id="Logo">
            <g id="Page-1" transform="translate(0.000000, -1.000000)">
                <g id="Group-13" transform="translate(0.000000, 0.331000)">
                    <path d="M45.2763,124.1959 L61.4443,124.1959 C61.5223,118.6049 58.6483,115.7359 53.7363,115.7359 C49.2033,115.7359 46.1073,118.0759 45.2763,124.1959 L45.2763,124.1959 Z M67.9433,145.3539 C63.9393,147.0929 59.7833,147.9989 54.8713,147.9989 C43.6893,147.9989 36.3603,143.9169 36.3603,128.6569 C36.3603,115.5849 42.7043,108.7069 53.8873,108.7069 C64.9973,108.7069 70.2113,114.8279 70.2113,125.2539 C70.2113,125.8569 70.1373,128.5789 69.7543,130.2399 L45.1243,130.2399 C45.4263,139.6849 49.8093,140.9709 55.8533,140.9709 C59.1053,140.9709 63.7123,140.1399 66.5063,139.0819 L67.9433,145.3539 Z" id="Fill-1" fill="#E74B23"></path>
                    <path d="M268.8215,115.9198 L237.5795,22.9288 C242.8535,51.6888 236.1465,76.4068 230.3225,90.9848 C231.7475,95.3648 233.4325,99.7478 235.3975,104.1008 C257.4875,104.3378 268.8215,115.9198 268.8215,115.9198" id="Fill-3" fill="#E74B23"></path>
                    <path d="M281.0114,24.9535 C281.0114,11.5395 255.8984,0.6695 224.9104,0.6695 C207.4944,0.6695 191.9394,4.1095 181.6514,9.4975 C190.9624,6.5105 202.4644,4.7195 214.9614,4.7195 C245.9434,4.7195 271.0654,15.5985 271.0654,29.0035 C271.0654,34.8835 266.2434,40.2665 258.2264,44.4505 C272.0214,40.0355 281.0114,32.9545 281.0114,24.9535" id="Fill-5" fill="#570A00"></path>
                    <path d="M176.156,33.3526 C176.156,23.3096 198.104,15.1686 225.162,15.1686 C231.759,15.1686 238.043,15.6666 243.784,16.5446 C235.543,14.2046 225.273,12.8006 214.098,12.8006 C187.035,12.8006 165.087,20.9366 165.087,30.9796 C165.087,38.5736 177.649,45.0686 195.479,47.7916 C183.753,44.4746 176.156,39.2456 176.156,33.3526" id="Fill-7" fill="#E74B23"></path>
                    <path d="M256.4751,141.7784 C243.4431,130.9044 234.4271,117.7184 228.2681,104.1014 C226.3111,99.7484 224.6221,95.3644 223.1901,90.9844 C211.8401,56.2434 216.1781,22.9304 216.1781,22.9304 L176.1611,143.6824 C186.9781,139.5044 202.1821,136.8904 219.0871,136.8904 C233.2631,136.8904 246.2561,138.7294 256.4751,141.7784" id="Fill-9" fill="#570A00"></path>
                    <path d="M8.7665,117.7002 L8.7665,147.2422 L0.0005,147.2422 L0.0005,94.3492 L8.7665,93.5922 L8.7665,112.2592 L9.1455,112.2592 C12.8485,109.8382 16.5475,108.7062 20.7805,108.7062 C27.8865,108.7062 32.7205,112.5602 32.7205,120.5692 L32.7205,147.2422 L23.9545,147.2422 L23.9545,123.0602 C23.9545,118.2292 22.3675,115.7342 17.6825,115.7342 C13.9065,115.7342 11.1095,116.7892 8.7665,117.7002" id="Fill-11" fill="#E74B23"></path>
                </g>
                <polygon id="Fill-14" fill="#E74B23" points="74.4939 94.6811 74.4939 147.5721 83.3329 147.5721 83.3329 93.9241"></polygon>
                <g id="Group-21" transform="translate(88.000000, 94.331000)">
                    <mask id="mask-2" fill="white">
                        <use xlink:href="#path-1"></use>
                    </mask>
                    <g id="Clip-16"></g>
                    <path d="M1.231,53.244 L10.07,53.244 L10.07,15.466 L1.231,15.466 L1.231,53.244 Z M5.687,0.575 C8.484,0.575 10.827,2.918 10.827,5.789 C10.827,8.583 8.484,10.928 5.687,10.928 C2.813,10.928 0.473,8.583 0.473,5.789 C0.473,2.918 2.813,0.575 5.687,0.575 L5.687,0.575 Z" id="Fill-15" fill="#E74B23" mask="url(#mask-2)"></path>
                    <path d="M30.9224,47.3492 C37.4954,47.3492 40.3644,42.9682 40.3644,33.5982 C40.3644,25.4352 38.2514,21.3562 31.6804,21.3562 C25.1044,21.3562 22.1574,25.8142 22.1574,35.1042 C22.1574,43.3452 24.3454,47.3492 30.9224,47.3492 M32.0544,14.7072 C42.6354,14.7072 49.1304,20.3732 49.1304,33.5982 C49.1304,46.8202 43.3884,54.0002 30.5454,54.0002 C19.9674,54.0002 13.3914,48.3312 13.3914,35.1042 C13.3914,21.8822 19.2114,14.7072 32.0544,14.7072" id="Fill-17" fill="#E74B23" mask="url(#mask-2)"></path>
                    <path d="M52.2005,44.8544 C55.0695,45.9124 60.1315,46.9704 63.6855,46.9704 C67.9945,46.9704 71.1655,45.8344 71.1655,42.8164 C71.1655,39.2634 67.4665,38.3554 63.0055,37.2234 C56.8075,35.7144 51.3695,32.6124 51.3695,25.5844 C51.3695,17.6544 57.0355,14.7064 66.2565,14.7064 C69.8835,14.7064 74.8675,15.8374 78.0435,16.8954 L76.6065,23.9234 C72.7515,22.4924 68.9755,21.7354 66.4025,21.7354 C62.1745,21.7354 60.1315,23.1674 60.1315,25.4384 C60.1315,28.6084 63.6855,29.2154 67.8435,30.4224 C74.0375,32.0834 79.9315,34.3514 79.9315,42.2134 C79.9315,50.5194 72.9015,53.9984 63.6085,53.9984 C60.2085,53.9984 54.1665,53.1694 50.8415,51.8824 L52.2005,44.8544 Z" id="Fill-18" fill="#E74B23" mask="url(#mask-2)"></path>
                    <path d="M203.8933,3.3711 L203.8933,15.4611 L214.4703,15.4611 L213.7173,22.0341 L203.8933,22.0341 L203.8933,43.0421 C203.8933,46.0661 206.3103,46.9731 208.1253,46.9731 C209.1843,46.9731 210.3923,47.0471 214.3963,46.3661 L215.3013,52.7151 C212.2843,53.4721 209.3343,53.9971 206.3103,53.9971 C199.8153,53.9971 195.1273,50.8231 195.0543,44.0231 L195.0543,22.0341 L189.3123,22.0341 L189.3123,15.4611 L195.0543,15.4611 L195.0543,4.1241 L203.8933,3.3711 Z" id="Fill-19" fill="#E74B23" mask="url(#mask-2)"></path>
                    <path d="M233.5366,47.3492 C240.1096,47.3492 242.9786,42.9682 242.9786,33.5982 C242.9786,25.4352 240.8656,21.3562 234.2946,21.3562 C227.7186,21.3562 224.7716,25.8142 224.7716,35.1042 C224.7716,43.3452 226.9596,47.3492 233.5366,47.3492 M234.6686,14.7072 C245.2496,14.7072 251.7486,20.3732 251.7486,33.5982 C251.7486,46.8202 246.0026,54.0002 233.1596,54.0002 C222.5816,54.0002 216.0086,48.3312 216.0086,35.1042 C216.0086,21.8822 221.8256,14.7072 234.6686,14.7072" id="Fill-20" fill="#E74B23" mask="url(#mask-2)"></path>
                </g>
                <polygon id="Fill-22" fill="#E74B23" points="387.342 109.7939 379.788 137.8269 372.157 109.7939 362.936 109.7939 355.306 137.8269 347.829 109.7939 338.306 109.7939 350.393 147.9509 360.522 147.9509 367.544 123.7749 374.497 147.9509 384.623 147.9509 396.865 109.7939"></polygon>
                <g id="Group-29" transform="translate(395.000000, 108.331000)" fill="#E74B23">
                    <path d="M9.335,16.1959 L25.509,16.1959 C25.586,10.6049 22.712,7.7359 17.8,7.7359 C13.263,7.7359 10.165,10.0759 9.335,16.1959 L9.335,16.1959 Z M32.008,37.3539 C27.998,39.0929 23.844,39.9989 18.935,39.9989 C7.748,39.9989 0.424,35.9169 0.424,20.6569 C0.424,7.5849 6.768,0.7069 17.952,0.7069 C29.058,0.7069 34.27,6.8279 34.27,17.2539 C34.27,17.8569 34.197,20.5789 33.818,22.2399 L9.189,22.2399 C9.487,31.6849 13.87,32.9709 19.912,32.9709 C23.164,32.9709 27.776,32.1399 30.576,31.0819 L32.008,37.3539 Z" id="Fill-23"></path>
                    <path d="M59.291,8.2619 C52.942,8.0349 49.089,9.0179 46.822,9.9259 L46.822,39.2439 L37.983,39.2439 L37.983,1.4609 L46.822,1.4609 L46.822,4.2579 L47.123,4.2579 C50.294,2.1419 54.229,0.3259 59.291,0.8549 L59.291,8.2619 Z" id="Fill-25"></path>
                    <path d="M61.7807,30.8544 C64.6547,31.9124 69.7167,32.9704 73.2697,32.9704 C77.5747,32.9704 80.7487,31.8344 80.7487,28.8164 C80.7487,25.2634 77.0467,24.3554 72.5887,23.2234 C66.3917,21.7144 60.9507,18.6124 60.9507,11.5844 C60.9507,3.6544 66.6187,0.7064 75.8327,0.7064 C79.4637,0.7064 84.4537,1.8374 87.6237,2.8954 L86.1897,9.9234 C82.3357,8.4924 78.5557,7.7354 75.9887,7.7354 C71.7547,7.7354 69.7167,9.1674 69.7167,11.4384 C69.7167,14.6084 73.2697,15.2154 77.4237,16.4224 C83.6177,18.0834 89.5117,20.3514 89.5117,28.2134 C89.5117,36.5194 82.4877,39.9984 73.1917,39.9984 C69.7887,39.9984 63.7467,39.1694 60.4217,37.8824 L61.7807,30.8544 Z" id="Fill-27"></path>
                </g>
            </g>
        </g>
    </g>
</svg>