<svg xmlns="http://www.w3.org/2000/svg" width="60" height="60" viewBox="0 0 139.337 72.455">
  <path id="Icon_map-finance" data-name="Icon map-finance" d="M119.83,120H0v72.455H139.337V120Zm13.934,53.7a18.671,18.671,0,0,0-13.179,13.178H18.752A18.679,18.679,0,0,0,5.573,173.7V138.752a18.68,18.68,0,0,0,13.178-13.178h101.9a19.527,19.527,0,0,0,13.114,13.114Zm-58.2-11.749c-.641-.39-.323-.75-3.11-1.081v8.073l1.527-.284a4.059,4.059,0,0,0,3.1-4.044,2.982,2.982,0,0,0-1.522-2.664ZM63.022,148.781a2.992,2.992,0,0,0,1.692,2.787,11.272,11.272,0,0,0,2.165.805v-7.638a6.672,6.672,0,0,0-2.143.878,3.6,3.6,0,0,0-1.714,3.169Zm6.646-20.421c-13.853,0-25.081,12.479-25.081,27.867S55.816,184.1,69.668,184.1s25.081-12.482,25.081-27.867S83.521,128.36,69.668,128.36Zm10.74,43.624c-1.892,1.616-5.167,2.606-7.953,2.979v3.559H66.882V174.9c-2.909-.4-5.32-.836-7.212-2.327a10.367,10.367,0,0,1-3.935-7.984h6.933c.226,0,.666,2.232,1.324,3.021.683.811,1.653.906,2.89,1.248v-9.489c-3.391-.783-5.755-1.627-7.067-2.536q-3.515-2.4-3.514-7.524a9.985,9.985,0,0,1,3.439-7.758,12.741,12.741,0,0,1,7.142-2.915v-4.7h5.573v4.849a13.68,13.68,0,0,1,6.41,3c2.617,1.942,4.459,3.3,4.584,8.873H76.465a5.206,5.206,0,0,0-3.266-4.871,5.677,5.677,0,0,1-.744-.577v8.759l2.514.485a18.241,18.241,0,0,1,6.476,2.522c2.073,1.639,2.876,4,2.876,7.1a10.2,10.2,0,0,1-3.913,7.914Z" transform="translate(0 -120)" fill="#f7f7f8"/>
</svg>
