<svg xmlns="http://www.w3.org/2000/svg" width="50" height="50" viewBox="0 0 64 83.2">
  <g id="Icon_ionic-ios-business" data-name="Icon ionic-ios-business" transform="translate(-18.75 -8.594)">
    <path id="Path_1312" data-name="Path 1312" d="M28.6,15.794h44a3.611,3.611,0,0,0,3.6-3.6h0a3.611,3.611,0,0,0-3.6-3.6h-44a3.611,3.611,0,0,0-3.6,3.6h0A3.611,3.611,0,0,0,28.6,15.794Z" transform="translate(0.15)" fill="#f7f7f8"/>
    <path id="Path_1313" data-name="Path 1313" d="M79.15,19.531H22.35a3.612,3.612,0,0,0-.4,7.2v60a4.814,4.814,0,0,0,4.8,4.8h17.6a1.6,1.6,0,0,0,1.6-1.6v-8a1.6,1.6,0,0,1,1.6-1.6h6.4a1.6,1.6,0,0,1,1.6,1.6v8a1.6,1.6,0,0,0,1.6,1.6h17.6a4.814,4.814,0,0,0,4.8-4.8v-60a3.612,3.612,0,0,0-.4-7.2Zm-41.2,52.8a1.6,1.6,0,0,1-1.6,1.6h-3.2a1.6,1.6,0,0,1-1.6-1.6v-3.2a1.6,1.6,0,0,1,1.6-1.6h3.2a1.6,1.6,0,0,1,1.6,1.6Zm0-12.8a1.6,1.6,0,0,1-1.6,1.6h-3.2a1.6,1.6,0,0,1-1.6-1.6v-3.2a1.6,1.6,0,0,1,1.6-1.6h3.2a1.6,1.6,0,0,1,1.6,1.6Zm0-12.8a1.6,1.6,0,0,1-1.6,1.6h-3.2a1.6,1.6,0,0,1-1.6-1.6v-3.2a1.6,1.6,0,0,1,1.6-1.6h3.2a1.6,1.6,0,0,1,1.6,1.6Zm0-12.8a1.6,1.6,0,0,1-1.6,1.6h-3.2a1.6,1.6,0,0,1-1.6-1.6v-3.2a1.6,1.6,0,0,1,1.6-1.6h3.2a1.6,1.6,0,0,1,1.6,1.6Zm16,38.4a1.6,1.6,0,0,1-1.6,1.6h-3.2a1.6,1.6,0,0,1-1.6-1.6v-3.2a1.6,1.6,0,0,1,1.6-1.6h3.2a1.6,1.6,0,0,1,1.6,1.6Zm0-12.8a1.6,1.6,0,0,1-1.6,1.6h-3.2a1.6,1.6,0,0,1-1.6-1.6v-3.2a1.6,1.6,0,0,1,1.6-1.6h3.2a1.6,1.6,0,0,1,1.6,1.6Zm0-12.8a1.6,1.6,0,0,1-1.6,1.6h-3.2a1.6,1.6,0,0,1-1.6-1.6v-3.2a1.6,1.6,0,0,1,1.6-1.6h3.2a1.6,1.6,0,0,1,1.6,1.6Zm0-12.8a1.6,1.6,0,0,1-1.6,1.6h-3.2a1.6,1.6,0,0,1-1.6-1.6v-3.2a1.6,1.6,0,0,1,1.6-1.6h3.2a1.6,1.6,0,0,1,1.6,1.6Zm16,38.4a1.6,1.6,0,0,1-1.6,1.6h-3.2a1.6,1.6,0,0,1-1.6-1.6v-3.2a1.6,1.6,0,0,1,1.6-1.6h3.2a1.6,1.6,0,0,1,1.6,1.6Zm0-12.8a1.6,1.6,0,0,1-1.6,1.6h-3.2a1.6,1.6,0,0,1-1.6-1.6v-3.2a1.6,1.6,0,0,1,1.6-1.6h3.2a1.6,1.6,0,0,1,1.6,1.6Zm0-12.8a1.6,1.6,0,0,1-1.6,1.6h-3.2a1.6,1.6,0,0,1-1.6-1.6v-3.2a1.6,1.6,0,0,1,1.6-1.6h3.2a1.6,1.6,0,0,1,1.6,1.6Zm0-12.8a1.6,1.6,0,0,1-1.6,1.6h-3.2a1.6,1.6,0,0,1-1.6-1.6v-3.2a1.6,1.6,0,0,1,1.6-1.6h3.2a1.6,1.6,0,0,1,1.6,1.6Z" transform="translate(0 0.262)" fill="#f7f7f8"/>
  </g>
</svg>
