<svg xmlns="http://www.w3.org/2000/svg" width="50" height="50" viewBox="0 0 83.2 83.2">
  <path id="Icon_map-health" data-name="Icon map-health" d="M85.2,29.733A1.738,1.738,0,0,0,83.467,28H60.933A1.738,1.738,0,0,1,59.2,26.267V3.733A1.738,1.738,0,0,0,57.467,2H29.733A1.738,1.738,0,0,0,28,3.733V26.267A1.738,1.738,0,0,1,26.267,28H3.733A1.738,1.738,0,0,0,2,29.733V57.467A1.738,1.738,0,0,0,3.733,59.2H26.267A1.738,1.738,0,0,1,28,60.933V83.467A1.738,1.738,0,0,0,29.733,85.2H57.467A1.738,1.738,0,0,0,59.2,83.467V60.933A1.738,1.738,0,0,1,60.933,59.2H83.467A1.738,1.738,0,0,0,85.2,57.467Z" transform="translate(-2 -2)" fill="#f7f7f8"/>
</svg>
