<svg xmlns="http://www.w3.org/2000/svg" width="50" height="50" viewBox="0 0 85.69 85.69">
  <path id="Icon_metro-headphones" data-name="Icon metro-headphones" d="M31.241,53.556H25.886v37.49h5.356a2.686,2.686,0,0,0,2.678-2.678V56.234A2.686,2.686,0,0,0,31.241,53.556Zm37.49,0a2.686,2.686,0,0,0-2.678,2.678V88.368a2.686,2.686,0,0,0,2.678,2.678h5.356V53.556Zm24.1-5.356A42.845,42.845,0,1,0,9.706,62.832a18.749,18.749,0,0,0,13.5,28.022V53.749a18.63,18.63,0,0,0-7.343,2.709,34.81,34.81,0,1,1,68.246,0,18.636,18.636,0,0,0-7.346-2.713V90.855a18.749,18.749,0,0,0,13.5-28.021A42.762,42.762,0,0,0,92.831,48.2Z" transform="translate(-7.141 -5.355)" fill="#fff"/>
</svg>
