<svg id="Layer_1" data-name="Layer 1" xmlns="http://www.w3.org/2000/svg" viewBox="0 0 578.08 557.08"><defs><style>.cls-1{fill:#444344;}.cls-2{fill:#0eb2df;}</style></defs><path class="cls-1" d="M439.91,715.5h59.56a20.9,20.9,0,0,0,20.9-20.9h0a8.69,8.69,0,0,0-8.69-8.7H406a55.44,55.44,0,0,0-39.2,16.24l-38,38a12.13,12.13,0,0,0,0,17.14l45.44,45.44a12.13,12.13,0,0,0,17.14,0l6.84-6.84a18.28,18.28,0,0,1,12.94-5.37h124.2a31,31,0,0,0,21.91-9.07l83.22-83.22a11.22,11.22,0,0,0-.89-16.68l-2.84-2.29a28.57,28.57,0,0,0-37.9,1.79l-42.26,41.22a18.15,18.15,0,0,1-12.68,5.16h-104a6,6,0,0,1-6-6.49h0A6,6,0,0,1,439.91,715.5Z" transform="translate(-184.93 -249.21)"/><path class="cls-1" d="M508,340H448.48a20.9,20.9,0,0,0-20.9,20.9h0a8.69,8.69,0,0,0,8.69,8.7H542a55.45,55.45,0,0,0,39.2-16.23l38-38a12.13,12.13,0,0,0,0-17.14l-45.44-45.44a12.11,12.11,0,0,0-17.13,0l-6.85,6.85A18.29,18.29,0,0,1,536.83,265H412.63A31,31,0,0,0,390.72,274L307.5,357.25a11.23,11.23,0,0,0,.89,16.68l2.84,2.29a28.57,28.57,0,0,0,37.9-1.79l42.26-41.22a18.15,18.15,0,0,1,12.68-5.16H508a6,6,0,0,1,5.95,6.49h0A6,6,0,0,1,508,340Z" transform="translate(-184.93 -249.21)"/><path class="cls-1" d="M672.23,572.31V512.75a20.9,20.9,0,0,0-20.9-20.9h0a8.7,8.7,0,0,0-8.7,8.7V606.24a55.4,55.4,0,0,0,16.24,39.19l38,38a12.13,12.13,0,0,0,17.14,0L759.47,638a12.11,12.11,0,0,0,0-17.13l-6.84-6.84a18.3,18.3,0,0,1-5.37-12.95V476.9A31,31,0,0,0,738.19,455L655,371.77a11.23,11.23,0,0,0-16.68.89L636,375.5a28.58,28.58,0,0,0,1.79,37.91L679,455.66a18.15,18.15,0,0,1,5.16,12.68v104a6,6,0,0,1-6.49,6h0A6,6,0,0,1,672.23,572.31Z" transform="translate(-184.93 -249.21)"/><path class="cls-1" d="M275.72,483.18v59.56a20.9,20.9,0,0,0,20.9,20.9h0a8.69,8.69,0,0,0,8.7-8.69V449.26a55.47,55.47,0,0,0-16.23-39.2l-38-38a12.13,12.13,0,0,0-17.14,0l-45.44,45.44a12.11,12.11,0,0,0,0,17.13l6.85,6.85a18.29,18.29,0,0,1,5.36,12.94v124.2a31,31,0,0,0,9.07,21.91L293,683.72a11.23,11.23,0,0,0,16.68-.89L312,680a28.57,28.57,0,0,0-1.79-37.9l-41.22-42.26a18.15,18.15,0,0,1-5.16-12.68v-104a6,6,0,0,1,6.49-5.95h0A6,6,0,0,1,275.72,483.18Z" transform="translate(-184.93 -249.21)"/><path class="cls-2" d="M615.74,516a8,8,0,0,0-6.1-4.81l-29-4.64c-13.69-4.86-12.07-15.47-10.28-20.72l19.87-18.94a7.18,7.18,0,0,0,2.46-6.91c-2.25-11-11.2-18.89-15.61-21.5a6,6,0,0,0-5.57-.33L543,450.92c-7,2-11-1.22-13.18-4.89a16,16,0,0,1-1.63-12L534,409.82a7.86,7.86,0,0,0-1.88-7.25c-7.57-7.93-17.85-8.92-23.73-8.71a8,8,0,0,0-6.66,4l-14.58,25.54c-4.22,5-8.42,6.66-12.17,6.67s-8-1.69-12.16-6.67l-14.59-25.54a8,8,0,0,0-6.66-4c-5.88-.21-16.15.78-23.73,8.71a7.83,7.83,0,0,0-1.87,7.25L421.82,434a16.09,16.09,0,0,1-1.64,12C418,449.7,414,452.88,407,450.92l-28.5-12.81a6,6,0,0,0-5.57.33c-4.41,2.61-13.36,10.51-15.61,21.5a7.2,7.2,0,0,0,2.46,6.91l21,20c1.59,5.53,2.15,15.09-10.63,19.63l-29,4.64A8,8,0,0,0,335,516c-2.26,5.43-5,15.4-.21,25.3a7.84,7.84,0,0,0,6.12,4.3l24.69,3.05a16,16,0,0,1,10.68,5.79c2.65,3.36,4.23,8.17-.07,14.05L354.19,590.6a6,6,0,0,0-1.65,5.32c.89,5.05,5.12,16.22,14.62,22.19a7.17,7.17,0,0,0,7.32.15l28.61-13.8c19.61-4.57,17.76,16.19,17.76,16.19L417,644.3a7.18,7.18,0,0,0,2.22,7c8.45,7.38,20.35,8.25,25.44,7.67a6,6,0,0,0,4.64-3.1l14.93-27.46c4.41-5.79,9.48-5.66,13.45-4.07a16.06,16.06,0,0,1,8.6,8.58l10,22.79a7.85,7.85,0,0,0,5.87,4.64c10.86,1.73,19.63-3.7,24.18-7.42a8,8,0,0,0,2.86-7.22l-3.45-26.37c.06-4.07.87-8.38,3.34-11.58,6.36-8.17,18.61-3.28,18.61-3.28l28.61,13.8a7.17,7.17,0,0,0,7.32-.15c9.5-6,13.73-17.14,14.62-22.19a6,6,0,0,0-1.65-5.32l-22.05-22.15c-4.3-5.88-2.71-10.69-.06-14.05a16,16,0,0,1,10.67-5.79l24.69-3.05a7.81,7.81,0,0,0,6.12-4.3C620.7,531.36,618,521.39,615.74,516ZM475.52,583.88A54.53,54.53,0,1,1,530,529.36,54.52,54.52,0,0,1,475.52,583.88Z" transform="translate(-184.93 -249.21)"/></svg>