<svg id="Layer_1" data-name="Layer 1" xmlns="http://www.w3.org/2000/svg" xmlns:xlink="http://www.w3.org/1999/xlink" viewBox="0 0 800 500"><defs><style>.cls-1{fill:none;}.cls-2{clip-path:url(#clip-path);}.cls-3{fill:url(#radial-gradient);}.cls-4{fill:#8abe00;}.cls-5{fill:#ccd9e0;}.cls-6{fill:#71af49;}.cls-7{fill:#01708c;}.cls-8{fill:#97afc9;}.cls-9{fill:#fff;}.cls-10{fill:#63a544;}.cls-11{fill:#6fb14d;}.cls-12{fill:#99c941;}.cls-13{fill:#809fbc;}.cls-14{fill:#7fb75c;}.cls-15{fill:#89c100;}.cls-16{fill:#01758e;}.cls-17{fill:#81bc00;}.cls-18{fill:#29799e;}.cls-19{fill:#a7d04c;}.cls-20{fill:#a7d149;}</style><clipPath id="clip-path"><circle class="cls-1" cx="400" cy="242.8" r="150.14"/></clipPath><radialGradient id="radial-gradient" cx="400" cy="242.8" r="150.14" gradientUnits="userSpaceOnUse"><stop offset="0" stop-color="#f5f9fc"/><stop offset="1" stop-color="#e5f4fb"/></radialGradient></defs><g class="cls-2"><circle class="cls-3" cx="400" cy="242.8" r="150.14"/><rect class="cls-4" x="374.35" y="252.47" width="1" height="144.27"/><path class="cls-5" d="M412.85,397.16h-1v-23a13.87,13.87,0,0,1,7.36-12.26l40.69-21.72.47.88-40.69,21.72a12.89,12.89,0,0,0-6.83,11.38Z"/><path class="cls-5" d="M411.85,375.09c-.37-9.61,1.39-13.89,1.46-14.07s2.89-5.48,16.79-13.81c13.38-8,9.65-18.17,9.48-18.6l.94-.36c0,.11,4.22,11.34-9.91,19.82-13.58,8.14-16.37,13.32-16.39,13.38s-1.73,4.25-1.37,13.6Z"/><path class="cls-6" d="M421.39,397.81h-2c0-.7,0-69.47-.43-76-.47-7.38,10.66-10.44,11.14-10.57l.51,1.94c-.1,0-10,2.76-9.65,8.5C421.38,328.27,421.39,395,421.39,397.81Z"/><path class="cls-7" d="M406.17,397.81h-2V308.23A10.94,10.94,0,0,1,411,298.05l16.59-6.75.75,1.85-16.59,6.75a9,9,0,0,0-5.61,8.33Z"/><rect class="cls-7" x="387.06" y="304.73" width="2" height="92.44"/><path class="cls-4" d="M381.67,395.66h-1V356.13c0-.16,1.2-8.59-6.08-13l-19.67-12.7.54-.84,19.66,12.7c7.85,4.71,6.56,13.79,6.55,13.88Z"/><path class="cls-4" d="M396.27,332.54c0-.06-1.39-6.71-10.95-12A127.19,127.19,0,0,1,369,309.8h0s-8.61-4.76-8-13.44c.58-8.26,0-11.34,0-11.37V247.27h1v37.57c.08.45.58,3.65,0,11.59s7.48,12.5,7.56,12.54a127.67,127.67,0,0,0,16.29,10.67c10,5.57,11.39,12.43,11.44,12.72Z"/><path class="cls-4" d="M361.14,287c0-.18-.19-4.43-7.05-7.21-7.71-3.12-11.75-5.54-12.41-10.14-.64-4.42-.86-8.57-.86-8.62l1-.05s.22,4.16.85,8.53c.59,4.12,4.44,6.38,11.8,9.36s7.67,7.91,7.67,8.11l-1,0h0Z"/><rect class="cls-5" x="440.11" y="245.22" width="1" height="20.85"/><path class="cls-5" d="M516.11,310.69l-.13-1c10.46-1.3,11.79-14.55,11.8-14.68V258.09h1v37C528.77,295.24,527.37,309.29,516.11,310.69Z"/><rect class="cls-6" x="487.83" y="220.51" width="2" height="36.64"/><rect class="cls-5" x="439.28" y="157.69" width="1" height="32.31"/><rect class="cls-4" x="313.92" y="170.45" width="1" height="109.93"/><path class="cls-4" d="M348.79,219c-7.19-.33-8.76-11.06-8.83-11.52l-.32-46h1l.32,45.93s1.52,10.3,7.88,10.59Z"/><path class="cls-4" d="M398.5,356.13h-4c0-7.32,8.76-11.78,9.14-12l35.95-19.26,1.89,3.53-36,19.28C403.5,348.71,398.5,352.11,398.5,356.13Z"/><path class="cls-4" d="M398.45,375.28l-4-.41c.41-4-4.22-7.9-6-9.06l-38.18-27.15,2.31-3.26,38.07,27.06C391.4,363,399.18,368.21,398.45,375.28Z"/><rect class="cls-4" x="394.5" y="265.59" width="4" height="131.14"/><circle class="cls-8" cx="441.16" cy="142.65" r="17.59"/><path class="cls-9" d="M433.26,137.83a2.32,2.32,0,0,1,.37-.87,1.78,1.78,0,0,1,1.45-.73h12.17a1.86,1.86,0,0,1,1.82,1.83v1.4a.28.28,0,0,1-.12.25l-5.47,4.06-1.17.87a1.84,1.84,0,0,1-2.31,0l-6.63-4.93a.41.41,0,0,0-.11-.07Zm7.91-.37h-6a.62.62,0,0,0-.7.7c0,.24,0,.47,0,.7a.22.22,0,0,0,.1.2l6.15,4.57a.62.62,0,0,0,.84,0l6.17-4.59a.25.25,0,0,0,.08-.17c0-.24,0-.48,0-.71a.62.62,0,0,0-.7-.7Z"/><path class="cls-9" d="M433.26,141.16c.3.22.59.46.91.65a.67.67,0,0,1,.33.66c0,1.55,0,3.11,0,4.66a.63.63,0,0,0,.7.71h11.94a.63.63,0,0,0,.7-.71c0-1.64,0-3.27,0-4.91A.27.27,0,0,1,448,142l1.1-.81c0,.05,0,.08,0,.12v5.95a1.85,1.85,0,0,1-1.84,1.84H435.09a1.85,1.85,0,0,1-1.8-1.51l0-.1Z"/><circle class="cls-10" cx="489.21" cy="185.14" r="37.21"/><path class="cls-9" d="M458.46,193.35a4,4,0,0,0,2.17.65c1.42,0,2.28-.76,2.28-1.84s-.51-1.57-2-2c-1.76-.56-2.46-1.27-2.46-2.42s1.11-2.25,2.72-2.25a3.7,3.7,0,0,1,1.95.45l-.25.53a3.19,3.19,0,0,0-1.73-.46c-1.57,0-2.06.95-2.06,1.64,0,.94.56,1.47,2,1.93,1.6.52,2.46,1.14,2.46,2.56,0,1.21-.88,2.43-3,2.43a4.41,4.41,0,0,1-2.34-.65Z"/><path class="cls-9" d="M469.86,190H466v3.82h4.34v.53h-5v-8.76h4.76v.53H466v3.34h3.9Z"/><path class="cls-9" d="M472,185.73a11.94,11.94,0,0,1,2.13-.2,3.44,3.44,0,0,1,2.56.78,2.14,2.14,0,0,1,.62,1.54,2.33,2.33,0,0,1-1.8,2.27v0a2.31,2.31,0,0,1,1.39,1.78,11.17,11.17,0,0,0,.71,2.44h-.67a11.14,11.14,0,0,1-.59-2.1c-.28-1.27-.86-1.85-2.05-1.92H472.6v4H472Zm.63,4.1h1.69c1.45,0,2.36-.75,2.36-1.88,0-1.4-1.16-1.9-2.57-1.9a6.8,6.8,0,0,0-1.48.14Z"/><path class="cls-9" d="M481.57,194.37l-3.2-8.76h.68l1.73,4.82c.48,1.36.86,2.38,1.13,3.29h0c.3-.92.74-2,1.26-3.27l1.95-4.84h.69l-3.64,8.76Z"/><path class="cls-9" d="M487.34,185.61v8.76h-.63v-8.76Z"/><path class="cls-9" d="M496.35,194a6.53,6.53,0,0,1-2.74.51A4.33,4.33,0,0,1,489,190a4.61,4.61,0,0,1,5-4.58,5.26,5.26,0,0,1,2.37.45l-.21.53A5,5,0,0,0,494,186c-2.85,0-4.35,1.73-4.35,4.09,0,2.16,1.44,3.9,4.19,3.9a5.45,5.45,0,0,0,2.32-.47Z"/><path class="cls-9" d="M502.49,190h-3.9v3.82h4.34v.53h-5v-8.76h4.76v.53h-4.12v3.34h3.9Z"/><path class="cls-9" d="M504.3,193.35a3.92,3.92,0,0,0,2.17.65c1.41,0,2.27-.76,2.27-1.84s-.5-1.57-2-2c-1.76-.56-2.46-1.27-2.46-2.42s1.1-2.25,2.72-2.25a3.7,3.7,0,0,1,2,.45l-.25.53A3.22,3.22,0,0,0,507,186c-1.57,0-2.07.95-2.07,1.64,0,.94.56,1.47,2,1.93,1.6.52,2.46,1.14,2.46,2.56,0,1.21-.89,2.43-3,2.43a4.38,4.38,0,0,1-2.34-.65Z"/><path class="cls-9" d="M520.1,194.37c-.32-.3-.61-.61-1.05-1a4.06,4.06,0,0,1-2.91,1.16,2.49,2.49,0,0,1-2.61-2.46,2.89,2.89,0,0,1,1.87-2.59v0a3.1,3.1,0,0,1-.81-1.88,2.06,2.06,0,0,1,2.12-2.11,1.72,1.72,0,0,1,1.79,1.76c0,.95-.57,1.66-2.22,2.4v0c1.09,1.23,2.2,2.37,2.77,2.95a5.8,5.8,0,0,0,1-2.82h.6a6.26,6.26,0,0,1-1.23,3.16c.57.56,1,1,1.5,1.43ZM518.69,193c-.37-.35-1.68-1.69-3-3.15a2.45,2.45,0,0,0-1.55,2.12,2,2,0,0,0,2.14,2A3.33,3.33,0,0,0,518.69,193Zm-3.5-5.52a2.84,2.84,0,0,0,.77,1.77c1.14-.54,1.95-1.06,1.95-2a1.25,1.25,0,0,0-1.29-1.32A1.42,1.42,0,0,0,515.19,187.49Z"/><path class="cls-9" d="M463.63,197.26a20.26,20.26,0,0,1,2.63-.19,5.42,5.42,0,0,1,4.09,1.4,4,4,0,0,1,1.06,2.86,4.67,4.67,0,0,1-1.21,3.2,5.8,5.8,0,0,1-4.29,1.46c-.79,0-1.52,0-2.28-.08Zm.64,8.12a14,14,0,0,0,1.74.07c3.33,0,4.75-1.83,4.75-4.1s-1.35-3.75-4.55-3.75a10,10,0,0,0-1.94.17Z"/><path class="cls-9" d="M477.58,201.55h-3.9v3.83H478v.53h-5v-8.76h4.75v.53h-4.12V201h3.9Z"/><path class="cls-9" d="M479.39,204.88a3.84,3.84,0,0,0,2.17.65c1.42,0,2.27-.75,2.27-1.83s-.5-1.57-2-2c-1.76-.56-2.46-1.28-2.46-2.42,0-1.29,1.11-2.25,2.72-2.25a3.81,3.81,0,0,1,1.95.44l-.25.54a3.19,3.19,0,0,0-1.73-.46c-1.57,0-2.06,1-2.06,1.64,0,.94.55,1.47,2,1.92,1.6.52,2.46,1.15,2.46,2.56,0,1.21-.88,2.44-3,2.44a4.38,4.38,0,0,1-2.34-.65Z"/><path class="cls-9" d="M486.25,197.15h.64v4.48h.05a10.15,10.15,0,0,1,.8-.88l3.49-3.6H492l-3.69,3.73,4.08,5h-.79l-3.74-4.63-1,1v3.61h-.64Z"/><path class="cls-9" d="M495.65,197.68h-3.26v-.53h7.16v.53h-3.26v8.23h-.64Z"/><path class="cls-9" d="M508.31,201.41a4.37,4.37,0,0,1-4.44,4.66,4.26,4.26,0,0,1-4.36-4.42A4.42,4.42,0,0,1,504,197,4.24,4.24,0,0,1,508.31,201.41Zm-8.13.21a3.73,3.73,0,0,0,3.71,3.93c2.32,0,3.76-1.76,3.76-4.09a3.74,3.74,0,0,0-3.72-4C501.44,197.51,500.18,199.46,500.18,201.62Z"/><path class="cls-9" d="M510,197.24a13.22,13.22,0,0,1,2.08-.17,3.63,3.63,0,0,1,2.54.78,2.27,2.27,0,0,1,.7,1.7,2.41,2.41,0,0,1-.68,1.81,3.79,3.79,0,0,1-2.75.95,4.07,4.07,0,0,1-1.25-.13v3.73H510Zm.64,4.38a4.41,4.41,0,0,0,1.33.16c1.74,0,2.71-.8,2.71-2.15,0-1.51-1.19-2-2.61-2a7.91,7.91,0,0,0-1.43.12Z"/><path class="cls-9" d="M502.06,162.3v2.31c-.13.15-.27.3-.5.21s-.25-.29-.25-.5v-1.56c0-.47-.07-.54-.53-.54H483.09c-.45,0-.53.08-.53.52v12.15c0,.44.08.52.5.52H500.8c.43,0,.51-.08.51-.52v-8.53c0-.22,0-.41.26-.49a.41.41,0,0,1,.49.24v9.19a1.24,1.24,0,0,1-1.35.87c-2.19,0-4.38,0-6.57,0h-.3v1.14h2.54a.73.73,0,0,1,.82.82c0,.41,0,.82,0,1.23a.84.84,0,0,1-.57.92h-13.9c-.16-.13-.31-.26-.22-.5s.28-.25.49-.25h3.65c0-.43,0-.83,0-1.23s.1-.83.57-1v-1.15H483a1.5,1.5,0,0,1-.37,0,1.1,1.1,0,0,1-.83-1.17V167.1c0-.1,0-.21,0-.31h-4.66a1.28,1.28,0,0,0,0,.19q0,6.11,0,12.22c0,.24.09.32.33.32,1.18,0,2.36,0,3.54,0,.21,0,.41,0,.49.25s-.06.38-.24.5h-4.16a1.12,1.12,0,0,1-.71-1.21q0-11.72,0-23.41a1,1,0,0,1,1.08-1.08h9.48a1,1,0,0,1,1.08,1.07v5.83h12.81a1.14,1.14,0,0,1,1.22.81Zm-14.82-4.61H477.13v3.75h10.11Zm-10.12-.79h10.13v-1.2c0-.37,0-.38-.38-.38h-9.5c-.17,0-.25.06-.25.23Zm10.3,22.6h9v-1.42h-9ZM477.13,166h4.66v-.74h-.29c-1,0-1.95,0-2.93,0a.63.63,0,0,1-.7-.7v-.78c0-.59.21-.81.82-.81h3.1l0-.73h-4.7Zm13.69,10.17v1.11h2.23v-1.11ZM478.63,164.5h3.15v-.76h-3.15ZM490,177.29v-1.12h-2v1.12Z"/><path class="cls-9" d="M479.55,169.85c-.29,0-.58,0-.88,0a.62.62,0,0,1-.68-.66q0-.47,0-.93a.61.61,0,0,1,.66-.66c.62,0,1.23,0,1.85,0a.6.6,0,0,1,.64.67q0,.47,0,.93a.61.61,0,0,1-.64.65c-.32,0-.63,0-.95,0Zm.83-1.49h-1.63v.72h1.63Z"/><path class="cls-9" d="M491.93,174.75H484.1c-.62,0-.89-.26-.89-.87V163.76c0-.62.27-.89.89-.89h15.68c.62,0,.88.28.88.9v10.09c0,.63-.26.89-.9.89Zm8-11.1H484V174h15.91Z"/><path class="cls-9" d="M482.21,158.43c1.17,0,2.34,0,3.51,0,.55,0,.78.22.78.77v.73c0,.55-.23.78-.77.78h-7.08c-.56,0-.78-.22-.78-.79v-.68c0-.61.21-.81.83-.81Zm3.53.77h-7.1v.74h7.1Z"/><circle class="cls-11" cx="342.17" cy="251.54" r="11.32"/><path class="cls-9" d="M336.16,256.7c.16-.49.33-1,.49-1.46a.23.23,0,0,0,0-.14,3.68,3.68,0,0,1,1-4.36.32.32,0,0,0,.13-.26,5.07,5.07,0,0,1,5.28-4.85,5.07,5.07,0,0,1,4.8,4.21,5,5,0,0,1-.39,3,.27.27,0,0,0,0,.23c.22.62.44,1.25.65,1.87a.79.79,0,0,1-.57,1.07.84.84,0,0,1-.47,0l-1.85-.64a.34.34,0,0,0-.26,0,5,5,0,0,1-1.86.45.2.2,0,0,0-.18.1,3.64,3.64,0,0,1-3.37,1.4,2.91,2.91,0,0,1-1-.27.34.34,0,0,0-.28,0c-.37.13-.76.24-1.12.39a.7.7,0,0,1-1-.46Zm6.64-10.36-.45,0a4.1,4.1,0,0,0-1.88.7,4.28,4.28,0,0,0-1.9,3,4.12,4.12,0,0,0,.06,1.64,4.41,4.41,0,0,0,3.8,3.35,4.29,4.29,0,0,0,2.44-.45.49.49,0,0,1,.41,0l1.15.4.91.31a.17.17,0,0,0,.12,0s0-.07,0-.11a.41.41,0,0,0,0-.08c-.22-.66-.45-1.32-.68-2a.47.47,0,0,1,0-.4,4.31,4.31,0,0,0,.47-1.68,4.25,4.25,0,0,0-.54-2.42,4.34,4.34,0,0,0-2-1.87A4.4,4.4,0,0,0,342.8,246.34Zm-5.89,10.38c.45-.15.87-.29,1.29-.45a.66.66,0,0,1,.55,0,2.94,2.94,0,0,0,3.35-.55,5.18,5.18,0,0,1-4.25-4.19,2.76,2.76,0,0,0-.5.71,3,3,0,0,0,0,2.64.56.56,0,0,1,0,.49C337.21,255.83,337.07,256.26,336.91,256.72Z"/><path class="cls-9" d="M342.9,250.28H345a.36.36,0,0,1,.4.36.37.37,0,0,1-.29.35h-4.25a.47.47,0,0,1-.17,0,.35.35,0,0,1-.28-.33.36.36,0,0,1,.25-.35.62.62,0,0,1,.19,0Z"/><path class="cls-9" d="M342.89,249.52h-2.12a.35.35,0,0,1-.35-.48.33.33,0,0,1,.27-.22H345a.36.36,0,1,1,0,.71h-2.11Z"/><path class="cls-9" d="M342.06,252.47h-1.3a.36.36,0,1,1,0-.71h2.6a.35.35,0,0,1,.32.52.36.36,0,0,1-.34.19Z"/><circle class="cls-12" cx="465.19" cy="238.64" r="12.8"/><path class="cls-9" d="M461.62,247.66a4.68,4.68,0,0,1-.64-.3,1.31,1.31,0,0,1-.55-1.07c0-.17,0-.34,0-.51V231.14a1.39,1.39,0,0,1,1-1.41,1.37,1.37,0,0,1,.45-.07h6.68A1.4,1.4,0,0,1,470,231.1q0,7.56,0,15.12a1.39,1.39,0,0,1-1.13,1.41l-.06,0Zm7.8-3.66V232.77H461V244Zm-8.43.58v1.58a.85.85,0,0,0,.93.94h6.65a.81.81,0,0,0,.85-.76c0-.58,0-1.16,0-1.74l0,0Zm0-12.4h8.44v-1a.85.85,0,0,0-.94-.95h-6.66a.82.82,0,0,0-.83.76C461,231.37,461,231.77,461,232.18Z"/><path class="cls-9" d="M466.19,243.44h-.09c-.2,0-.33-.11-.32-.28s.12-.28.33-.28h.21a.29.29,0,0,1,.3.29.29.29,0,0,1-.3.27Z"/><path class="cls-9" d="M467.31,243.44h-.16a.28.28,0,0,1,0-.56h.28a.28.28,0,0,1,.3.27.28.28,0,0,1-.31.29Z"/><path class="cls-9" d="M468.44,243.44h-.08c-.21,0-.34-.11-.33-.28s.12-.28.33-.28h.21a.29.29,0,0,1,.3.29.28.28,0,0,1-.3.27Z"/><path class="cls-9" d="M465.21,246.54a.85.85,0,1,1,.84-.83A.84.84,0,0,1,465.21,246.54Zm0-1.13a.29.29,0,0,0-.28.29.28.28,0,0,0,.56,0A.29.29,0,0,0,465.21,245.41Z"/><path class="cls-9" d="M465.21,231.63h-1c-.23,0-.35-.11-.35-.28s.12-.28.35-.29h2.11c.22,0,.35.11.35.29s-.13.28-.35.28Z"/><path class="cls-9" d="M465.21,245.41a.29.29,0,0,1,.28.28.28.28,0,0,1-.56,0A.29.29,0,0,1,465.21,245.41Z"/><circle class="cls-13" cx="528.28" cy="246.02" r="14.39"/><path class="cls-9" d="M520.4,255.76h-.46l-.14,0a1.69,1.69,0,0,1-1.22-2,2.53,2.53,0,0,1,.77-1.28l3.79-3.8c.3-.3.31-.35.1-.72a7.93,7.93,0,0,1-1-3.18,7.55,7.55,0,0,1,1.44-5.2,7.74,7.74,0,0,1,5.24-3.2,7.49,7.49,0,0,1,4.31.55,7.72,7.72,0,0,1,4.7,6.25c0,.2,0,.4.08.6v.8a1.13,1.13,0,0,0,0,.18,7.63,7.63,0,0,1-.6,2.5,7.83,7.83,0,0,1-4.41,4.3,7.48,7.48,0,0,1-3.77.46,7.68,7.68,0,0,1-2.9-1c-.33-.18-.4-.17-.66.09l-3.81,3.8a3,3,0,0,1-.62.5A5.85,5.85,0,0,1,520.4,255.76ZM536,244.18a5.84,5.84,0,1,0-5.83,5.84A5.87,5.87,0,0,0,536,244.18Z"/><path class="cls-9" d="M533,240.61a.8.8,0,0,1-1.09.75,3.86,3.86,0,0,0-1.57-.28,3.44,3.44,0,0,0-3,2c-.16.3-.32.57-.67.64a.81.81,0,0,1-.9-1.14,5.15,5.15,0,0,1,6.66-2.72A.81.81,0,0,1,533,240.61Z"/><circle class="cls-14" cx="362.02" cy="138.23" r="33.35"/><path class="cls-9" d="M353.83,112.16h17l.07,0a1.07,1.07,0,0,1,.79,1.08V117a1.06,1.06,0,0,1-1.13,1.11q-8.22,0-16.45,0A1.06,1.06,0,0,1,353,117c0-1.23,0-2.45,0-3.68a1.56,1.56,0,0,1,.17-.63A1.11,1.11,0,0,1,353.83,112.16Zm15.09,2.12a.84.84,0,0,0-.84.84.84.84,0,1,0,1.68,0A.83.83,0,0,0,368.92,114.28Z"/><path class="cls-9" d="M362.33,132.21h-8.15A1.09,1.09,0,0,1,353,131V127.5a1.08,1.08,0,0,1,1.21-1.2h16.28a1.09,1.09,0,0,1,1.22,1.22V131a1.08,1.08,0,0,1-1.21,1.2Zm7.43-2.94a.84.84,0,1,0-.86.82A.83.83,0,0,0,369.76,129.27Z"/><path class="cls-9" d="M362.32,119.23h8.16a1.06,1.06,0,0,1,1.07.58,1.26,1.26,0,0,1,.12.55c0,1.22,0,2.44,0,3.66a1.07,1.07,0,0,1-1.1,1.12h-16.4a1.18,1.18,0,0,1-.89-.31A1.08,1.08,0,0,1,353,124v-3.7a1.06,1.06,0,0,1,1.06-1.1h8.29Zm7.44,3a.84.84,0,1,0-1.68,0,.84.84,0,0,0,1.68,0Z"/><path class="cls-9" d="M337.93,144.9a3.36,3.36,0,0,0,1.92.58c1.26,0,2-.67,2-1.63s-.45-1.4-1.75-1.81c-1.56-.5-2.18-1.13-2.18-2.15a2.14,2.14,0,0,1,2.41-2,3.32,3.32,0,0,1,1.73.39l-.22.47a2.86,2.86,0,0,0-1.53-.4c-1.4,0-1.84.84-1.84,1.45,0,.83.5,1.31,1.75,1.71,1.42.46,2.18,1,2.18,2.27,0,1.08-.78,2.16-2.64,2.16a3.82,3.82,0,0,1-2.07-.58Z"/><path class="cls-9" d="M345.67,138.51h-2.9V138h6.36v.47h-2.9v7.3h-.56Z"/><path class="cls-9" d="M356.9,141.82A3.88,3.88,0,0,1,353,146a3.78,3.78,0,0,1-3.87-3.92,3.92,3.92,0,0,1,4-4.13A3.76,3.76,0,0,1,356.9,141.82Zm-7.22.18a3.33,3.33,0,1,0,3.34-3.64A3.31,3.31,0,0,0,349.68,142Z"/><path class="cls-9" d="M358.36,138.14a11.35,11.35,0,0,1,1.89-.17,3.05,3.05,0,0,1,2.27.69,1.88,1.88,0,0,1,.56,1.36,2.07,2.07,0,0,1-1.61,2v0a2.06,2.06,0,0,1,1.24,1.58,10.71,10.71,0,0,0,.63,2.17h-.6a11,11,0,0,1-.52-1.87c-.25-1.12-.76-1.64-1.82-1.69h-1.48v3.56h-.56Zm.56,3.65h1.5c1.28,0,2.09-.67,2.09-1.68,0-1.24-1-1.68-2.27-1.68a5.52,5.52,0,0,0-1.32.13Z"/><path class="cls-9" d="M365.68,143.08l-1.07,2.73H364l3.14-7.77h.55l3.12,7.77h-.59l-1.09-2.73Zm3.28-.48-1.1-2.73c-.2-.52-.31-.85-.42-1.23h0c-.11.39-.24.73-.42,1.2l-1.11,2.76Z"/><path class="cls-9" d="M378.28,145.42a7.21,7.21,0,0,1-2.6.47,4.34,4.34,0,0,1-3.11-1.11,3.92,3.92,0,0,1-1.13-2.87c0-1.82,1.39-3.95,4.51-3.95a5.38,5.38,0,0,1,2.08.39l-.19.46a4.38,4.38,0,0,0-1.91-.38c-2.55,0-3.9,1.58-3.9,3.51s1.37,3.48,3.75,3.48a4.52,4.52,0,0,0,1.94-.32v-2.67h-2V142h2.57Z"/><path class="cls-9" d="M384.05,142h-3.46v3.39h3.85v.47H380V138h4.22v.47h-3.66v3h3.46Z"/><path class="cls-9" d="M385.16,147.26a15.84,15.84,0,0,0,.6-2.44l.74-.12a15.23,15.23,0,0,1-.89,2.51Z"/><path class="cls-9" d="M342.26,149.68a8,8,0,0,1,1.74-.18,2.86,2.86,0,0,1,2.19.69,1.71,1.71,0,0,1,.49,1.28,1.93,1.93,0,0,1-1.38,1.73v0a2,2,0,0,1,1.7,2,2,2,0,0,1-.59,1.47,3.7,3.7,0,0,1-2.69.77c-.6,0-1.12,0-1.46-.07Zm.56,3.33h1.36c1.23,0,1.92-.68,1.92-1.52,0-1.19-1-1.51-2.13-1.51a5,5,0,0,0-1.15.09Zm0,3.87a6.61,6.61,0,0,0,1.1.06c1.22,0,2.49-.35,2.49-1.74,0-1.22-1.11-1.73-2.42-1.73h-1.17Z"/><path class="cls-9" d="M349.57,154.61l-1.07,2.74h-.59l3.14-7.78h.55l3.12,7.78h-.59l-1.1-2.74Zm3.28-.47-1.1-2.73a11.38,11.38,0,0,1-.42-1.24h0a11.63,11.63,0,0,1-.42,1.2l-1.11,2.77Z"/><path class="cls-9" d="M361.87,157a5.84,5.84,0,0,1-2.43.45,3.84,3.84,0,0,1-4.11-4,4.09,4.09,0,0,1,4.42-4.06,4.79,4.79,0,0,1,2.1.39l-.19.47a4.41,4.41,0,0,0-1.88-.39c-2.52,0-3.86,1.53-3.86,3.63a3.37,3.37,0,0,0,3.72,3.46,4.91,4.91,0,0,0,2.06-.41Z"/><path class="cls-9" d="M363.29,149.57h.57v4h0a9.33,9.33,0,0,1,.71-.78l3.1-3.2h.71l-3.27,3.31,3.62,4.47h-.7l-3.31-4.11-.9.9v3.21h-.57Z"/><path class="cls-9" d="M370.09,149.57v4.49c0,2.11,1.05,2.95,2.34,2.95s2.47-.9,2.47-2.95v-4.49h.56V154c0,2.51-1.42,3.48-3.07,3.48s-2.87-.88-2.87-3.42v-4.5Z"/><path class="cls-9" d="M377.49,149.65a11.71,11.71,0,0,1,1.85-.15,3.18,3.18,0,0,1,2.25.7,2,2,0,0,1,.62,1.51,2.17,2.17,0,0,1-.6,1.6,3.37,3.37,0,0,1-2.44.84,3.84,3.84,0,0,1-1.11-.11v3.31h-.57Zm.57,3.89a3.79,3.79,0,0,0,1.17.14c1.55,0,2.42-.7,2.42-1.9s-1.07-1.8-2.32-1.8a7.61,7.61,0,0,0-1.27.1Z"/><circle class="cls-7" cx="387.78" cy="292.23" r="18.28"/><path class="cls-9" d="M387.73,299.57h-9a1.26,1.26,0,0,1-1-.59,1.38,1.38,0,0,1-.24-.73V286.44a1.69,1.69,0,0,1,.11-.7,1.18,1.18,0,0,1,.28-.44,1.33,1.33,0,0,1,1-.41h17.9a1.3,1.3,0,0,1,1.17.71,1.45,1.45,0,0,1,.21.74c0,.55,0,1.11,0,1.66v10.08a1.49,1.49,0,0,1-.31,1,1.28,1.28,0,0,1-1,.53h-9Zm.32-1.08h8.71a.26.26,0,0,0,.24-.24,2.08,2.08,0,0,0,0-.25q0-5.75,0-11.5a2.18,2.18,0,0,0,0-.25.26.26,0,0,0-.25-.26,1.62,1.62,0,0,0-.31,0h-17a.3.3,0,0,0-.33.33V298a1.61,1.61,0,0,0,0,.22.29.29,0,0,0,.27.29h8.67Zm-9.77-6.79a.55.55,0,0,0-.51.54.52.52,0,0,0,.51.52.52.52,0,0,0,.52-.54A.55.55,0,0,0,378.28,291.7Z"/><circle class="cls-15" cx="398.5" cy="216.96" r="52.96"/><path class="cls-9" d="M362.81,220.75c-.11-1.6-.26-3.68-.26-4.83h0c-.43,1.15-.93,2.4-1.62,4l-2.49,5.89h-.6L355.48,220c-.67-1.68-1.17-3-1.52-4.11h0c-.05,1.25-.13,3.22-.28,5l-.38,4.93h-.77l.87-10.79h.89l2.59,6.44c.55,1.34,1,2.46,1.28,3.44h0c.29-.91.72-2,1.33-3.43l2.72-6.45h.93l.76,10.79h-.76Z"/><path class="cls-9" d="M376.39,220.3a5.38,5.38,0,0,1-5.47,5.73,5.23,5.23,0,0,1-5.36-5.44,5.44,5.44,0,0,1,5.47-5.73A5.22,5.22,0,0,1,376.39,220.3Zm-10,.26a4.6,4.6,0,0,0,4.58,4.83c2.85,0,4.63-2.16,4.63-5A4.6,4.6,0,0,0,371,215.5C367.92,215.5,366.37,217.9,366.37,220.56Z"/><path class="cls-9" d="M378.4,225.84V215.05h.74L384,221.7a36.06,36.06,0,0,1,2.2,3.15l0,0c-.11-1.25-.13-2.53-.13-4.2v-5.57h.77v10.79h-.72l-4.72-6.42c-.92-1.25-1.75-2.38-2.33-3.34l0,0c.08,1.22.09,2.37.09,4v5.76Z"/><path class="cls-9" d="M390.48,215.05v10.79h-.78V215.05Z"/><path class="cls-9" d="M395.59,215.71h-4v-.66h8.82v.66h-4v10.13h-.78Z"/><path class="cls-9" d="M411.18,220.3A5.39,5.39,0,0,1,405.7,226a5.24,5.24,0,0,1-5.36-5.44,5.44,5.44,0,0,1,5.47-5.73A5.22,5.22,0,0,1,411.18,220.3Zm-10,.26a4.59,4.59,0,0,0,4.57,4.83c2.85,0,4.63-2.16,4.63-5a4.6,4.6,0,0,0-4.58-4.87C402.71,215.5,401.16,217.9,401.16,220.56Z"/><path class="cls-9" d="M413.19,215.2a14.58,14.58,0,0,1,2.62-.24,4.26,4.26,0,0,1,3.16,1,2.65,2.65,0,0,1,.76,1.89,2.87,2.87,0,0,1-2.22,2.8v0a2.83,2.83,0,0,1,1.71,2.19,14.72,14.72,0,0,0,.88,3h-.83a13.59,13.59,0,0,1-.72-2.59c-.35-1.55-1.06-2.27-2.53-2.35h-2v4.94h-.78Zm.78,5.06h2.08c1.78,0,2.9-.93,2.9-2.33,0-1.72-1.42-2.33-3.15-2.33a8.09,8.09,0,0,0-1.83.17Z"/><path class="cls-9" d="M422.76,215.05v10.79H422V215.05Z"/><path class="cls-9" d="M425.57,225.84V215.05h.74l4.88,6.65a35.64,35.64,0,0,1,2.19,3.15l0,0c-.12-1.25-.13-2.53-.13-4.2v-5.57h.77v10.79h-.73l-4.72-6.42c-.91-1.25-1.74-2.38-2.32-3.34l-.05,0c.08,1.22.1,2.37.1,4v5.76Z"/><path class="cls-9" d="M445.56,225.3a10.14,10.14,0,0,1-3.62.65,6,6,0,0,1-4.3-1.53,5.48,5.48,0,0,1-1.57-4c0-2.53,1.92-5.49,6.26-5.49a7.4,7.4,0,0,1,2.88.55l-.26.64a6.06,6.06,0,0,0-2.66-.53c-3.53,0-5.41,2.19-5.41,4.86s1.91,4.84,5.21,4.84a6,6,0,0,0,2.68-.45v-3.7H442v-.64h3.57Z"/><path class="cls-9" d="M367.79,239.58a4.74,4.74,0,0,0,2.67.8c1.75,0,2.8-.93,2.8-2.26s-.62-1.94-2.43-2.51c-2.16-.69-3-1.57-3-3,0-1.58,1.37-2.77,3.35-2.77a4.57,4.57,0,0,1,2.4.55l-.3.65a4,4,0,0,0-2.13-.56c-1.94,0-2.55,1.17-2.55,2,0,1.15.69,1.81,2.44,2.37,2,.64,3,1.41,3,3.15,0,1.49-1.09,3-3.66,3a5.43,5.43,0,0,1-2.89-.8Z"/><path class="cls-9" d="M381.82,235.48H377v4.71h5.35v.65h-6.13V230.05h5.85v.66H377v4.11h4.8Z"/><path class="cls-9" d="M384.41,230.2A14.69,14.69,0,0,1,387,230a4.25,4.25,0,0,1,3.15,1,2.65,2.65,0,0,1,.77,1.89,2.87,2.87,0,0,1-2.23,2.8v0a2.86,2.86,0,0,1,1.72,2.19,14.07,14.07,0,0,0,.88,3h-.84a15.39,15.39,0,0,1-.72-2.59c-.35-1.55-1-2.27-2.52-2.35H385.2v4.94h-.79Zm.79,5.06h2.08c1.77,0,2.89-.93,2.89-2.33,0-1.72-1.42-2.33-3.15-2.33a7.91,7.91,0,0,0-1.82.17Z"/><path class="cls-9" d="M396.24,240.84l-3.94-10.79h.83l2.13,5.94c.59,1.67,1.06,2.93,1.39,4h0c.36-1.14.91-2.46,1.55-4l2.4-6h.85L397,240.84Z"/><path class="cls-9" d="M403.34,230.05v10.79h-.78V230.05Z"/><path class="cls-9" d="M414.43,240.41a8.22,8.22,0,0,1-3.38.62c-2.91,0-5.69-1.77-5.69-5.53,0-2.82,2.08-5.64,6.13-5.64a6.55,6.55,0,0,1,2.91.55l-.26.65a6.13,6.13,0,0,0-2.61-.54c-3.5,0-5.36,2.13-5.36,5,0,2.66,1.78,4.8,5.17,4.8a6.79,6.79,0,0,0,2.85-.57Z"/><path class="cls-9" d="M422,235.48h-4.8v4.71h5.35v.65H416.4V230.05h5.85v.66h-5.07v4.11H422Z"/><path class="cls-9" d="M424.2,239.58a4.8,4.8,0,0,0,2.68.8c1.74,0,2.8-.93,2.8-2.26s-.63-1.94-2.44-2.51c-2.16-.69-3-1.57-3-3,0-1.58,1.36-2.77,3.34-2.77a4.61,4.61,0,0,1,2.41.55l-.31.65a3.94,3.94,0,0,0-2.13-.56c-1.93,0-2.54,1.17-2.54,2,0,1.15.69,1.81,2.43,2.37,2,.64,3,1.41,3,3.15,0,1.49-1.09,3-3.67,3a5.42,5.42,0,0,1-2.88-.8Z"/><rect class="cls-9" x="379.99" y="188.85" width="2" height="14.34"/><rect class="cls-9" x="384.49" y="183.84" width="2" height="19.35"/><rect class="cls-9" x="388.83" y="185.58" width="2" height="17.61"/><rect class="cls-9" x="393.21" y="180.11" width="2" height="23.08"/><rect class="cls-9" x="397.5" y="183.23" width="2" height="19.97"/><rect class="cls-9" x="401.44" y="183.23" width="2" height="19.97"/><rect class="cls-9" x="405.5" y="176.8" width="2" height="26.4"/><rect class="cls-9" x="409.56" y="180.01" width="2" height="23.18"/><rect class="cls-9" x="413.62" y="194.03" width="2" height="9.16"/><circle class="cls-16" cx="299.89" cy="215.63" r="37.46"/><path class="cls-9" d="M267.46,220.23l-.93,2.37H266l2.72-6.74h.47l2.7,6.74h-.51l-.95-2.37Zm2.83-.41-1-2.37c-.17-.45-.26-.74-.36-1.07h0c-.11.34-.21.64-.37,1l-1,2.4Z"/><path class="cls-9" d="M273,215.93a10,10,0,0,1,1.6-.13,2.76,2.76,0,0,1,1.94.6,1.74,1.74,0,0,1,.54,1.31,1.88,1.88,0,0,1-.52,1.39,2.91,2.91,0,0,1-2.11.73,3.22,3.22,0,0,1-1-.1v2.87H273Zm.49,3.37a3.48,3.48,0,0,0,1,.12c1.33,0,2.08-.61,2.08-1.65s-.92-1.56-2-1.56a6,6,0,0,0-1.1.09Z"/><path class="cls-9" d="M278.48,215.93a10,10,0,0,1,1.6-.13,2.76,2.76,0,0,1,1.94.6,1.74,1.74,0,0,1,.54,1.31,1.88,1.88,0,0,1-.52,1.39,2.91,2.91,0,0,1-2.11.73,3.22,3.22,0,0,1-1-.1v2.87h-.49Zm.49,3.37a3.48,3.48,0,0,0,1,.12c1.33,0,2.08-.61,2.08-1.65s-.92-1.56-2-1.56a6,6,0,0,0-1.1.09Z"/><path class="cls-9" d="M284,215.86h.49v6.33h3.33v.41H284Z"/><path class="cls-9" d="M289.35,215.86v6.74h-.49v-6.74Z"/><path class="cls-9" d="M296.27,222.33a5.09,5.09,0,0,1-2.11.39,3.33,3.33,0,0,1-3.55-3.46,3.54,3.54,0,0,1,3.82-3.52,4.15,4.15,0,0,1,1.82.34l-.16.41a3.83,3.83,0,0,0-1.63-.34,3,3,0,0,0-3.34,3.15,2.92,2.92,0,0,0,3.22,3,4.18,4.18,0,0,0,1.78-.36Z"/><path class="cls-9" d="M298.37,220.23l-.93,2.37h-.51l2.72-6.74h.47l2.7,6.74h-.51l-.95-2.37Zm2.83-.41-.95-2.37c-.18-.45-.27-.74-.37-1.07h0c-.1.34-.21.64-.36,1l-1,2.4Z"/><path class="cls-9" d="M304.58,216.27h-2.5v-.41h5.5v.41h-2.51v6.33h-.49Z"/><path class="cls-9" d="M308.75,215.86v6.74h-.49v-6.74Z"/><path class="cls-9" d="M316.77,219.14a3.37,3.37,0,0,1-3.42,3.58,3.27,3.27,0,0,1-3.34-3.4,3.4,3.4,0,0,1,3.41-3.58A3.26,3.26,0,0,1,316.77,219.14Zm-6.25.16a2.88,2.88,0,1,0,2.88-3.16A2.87,2.87,0,0,0,310.52,219.3Z"/><path class="cls-9" d="M318,222.6v-6.74h.46l3,4.15a22.42,22.42,0,0,1,1.37,2l0,0c-.07-.78-.08-1.58-.08-2.62v-3.48h.48v6.74h-.45l-2.95-4c-.56-.78-1.08-1.49-1.44-2.09l0,0c.05.76.06,1.48.06,2.48v3.6Z"/><path class="cls-9" d="M332,222.6c-.25-.23-.47-.47-.81-.77a3.14,3.14,0,0,1-2.24.89,1.91,1.91,0,0,1-2-1.89,2.21,2.21,0,0,1,1.44-2v0a2.42,2.42,0,0,1-.62-1.45,1.58,1.58,0,0,1,1.62-1.62,1.32,1.32,0,0,1,1.38,1.35c0,.73-.44,1.28-1.71,1.85v0c.84.94,1.69,1.82,2.13,2.27a4.5,4.5,0,0,0,.77-2.17h.46a4.77,4.77,0,0,1-.95,2.43c.44.43.8.78,1.16,1.1Zm-1.09-1c-.28-.27-1.29-1.3-2.3-2.42a1.9,1.9,0,0,0-1.18,1.63,1.56,1.56,0,0,0,1.64,1.57A2.55,2.55,0,0,0,330.88,221.55Zm-2.68-4.24a2.19,2.19,0,0,0,.59,1.36c.87-.42,1.49-.82,1.49-1.53a1,1,0,0,0-1-1A1.1,1.1,0,0,0,328.2,217.31Z"/><path class="cls-9" d="M274.73,227a15,15,0,0,1,2-.15,4.17,4.17,0,0,1,3.15,1.08,3.09,3.09,0,0,1,.81,2.2,3.59,3.59,0,0,1-.93,2.46,4.46,4.46,0,0,1-3.3,1.12c-.61,0-1.17,0-1.75-.06Zm.49,6.24a9.89,9.89,0,0,0,1.34.06c2.56,0,3.65-1.41,3.65-3.16s-1-2.88-3.5-2.88a7.63,7.63,0,0,0-1.49.13Z"/><path class="cls-9" d="M282.73,231.23l-.93,2.37h-.51l2.72-6.74h.48l2.7,6.74h-.51l-.95-2.37Zm2.84-.41-.95-2.37c-.18-.45-.27-.74-.37-1.07h0c-.1.34-.21.64-.37,1l-1,2.4Z"/><path class="cls-9" d="M289,227.27h-2.51v-.41H292v.41h-2.51v6.33H289Z"/><path class="cls-9" d="M292.63,231.23l-.93,2.37h-.51l2.72-6.74h.48l2.7,6.74h-.51l-.95-2.37Zm2.84-.41-1-2.37c-.18-.45-.27-.74-.37-1.07h0c-.1.34-.21.64-.37,1l-1,2.4Z"/><path class="cls-9" d="M298.17,227a7.34,7.34,0,0,1,1.51-.15,2.52,2.52,0,0,1,1.9.59,1.49,1.49,0,0,1,.42,1.11,1.67,1.67,0,0,1-1.19,1.5v0a1.76,1.76,0,0,1,1.47,1.69,1.72,1.72,0,0,1-.51,1.27,3.2,3.2,0,0,1-2.33.67c-.52,0-1,0-1.27-.06Zm.49,2.89h1.18c1.06,0,1.66-.59,1.66-1.32,0-1-.85-1.31-1.85-1.31a4.45,4.45,0,0,0-1,.08Zm0,3.35a4.91,4.91,0,0,0,.95.06c1.06,0,2.16-.31,2.16-1.51s-1-1.5-2.1-1.5h-1Z"/><path class="cls-9" d="M304.51,231.23l-.93,2.37h-.51l2.72-6.74h.48l2.7,6.74h-.51l-.95-2.37Zm2.84-.41-1-2.37c-.18-.45-.27-.74-.37-1.07h0c-.1.34-.21.64-.37,1l-1,2.4Z"/><path class="cls-9" d="M309.82,232.81a3,3,0,0,0,1.67.5c1.09,0,1.75-.58,1.75-1.41s-.39-1.21-1.52-1.57c-1.35-.43-1.89-1-1.89-1.86a1.86,1.86,0,0,1,2.09-1.73,2.91,2.91,0,0,1,1.5.34l-.19.41a2.49,2.49,0,0,0-1.33-.35c-1.21,0-1.59.73-1.59,1.26,0,.72.43,1.13,1.52,1.48s1.89.88,1.89,2c0,.93-.68,1.87-2.29,1.87a3.37,3.37,0,0,1-1.8-.5Z"/><path class="cls-9" d="M318.59,230.25h-3v2.94h3.34v.41H315.1v-6.74h3.66v.41h-3.17v2.57h3Z"/><path class="cls-9" d="M320,232.81a3,3,0,0,0,1.67.5c1.09,0,1.75-.58,1.75-1.41s-.39-1.21-1.52-1.57c-1.35-.43-1.89-1-1.89-1.86a1.86,1.86,0,0,1,2.09-1.73,2.91,2.91,0,0,1,1.5.34l-.19.41a2.49,2.49,0,0,0-1.33-.35c-1.21,0-1.59.73-1.59,1.26,0,.72.43,1.13,1.52,1.48s1.89.88,1.89,2c0,.93-.68,1.87-2.29,1.87a3.37,3.37,0,0,1-1.8-.5Z"/><path class="cls-9" d="M285.45,189.14v18a1.33,1.33,0,0,0,1.33,1.33H308a1.34,1.34,0,0,0,1.34-1.33v-18a1.34,1.34,0,0,0-1.34-1.33H286.78A1.33,1.33,0,0,0,285.45,189.14Zm19,.5h1.94v1.57h-1.94Zm-3,0h1.94v1.57h-1.94Zm-3,0h1.95v1.57h-1.95Zm8.76,16.69H288.81a1.33,1.33,0,0,1-1.33-1.33V194.44a1.33,1.33,0,0,1,1.33-1.33H306a1.34,1.34,0,0,1,1.34,1.33Z"/><polygon class="cls-9" points="299.86 199.87 299.15 199.16 301.24 197.07 299.15 194.99 299.86 194.28 302.65 197.07 299.86 199.87"/><rect class="cls-9" x="292.63" y="196.57" width="9.31" height="1"/><polygon class="cls-9" points="294.72 205.42 291.93 202.63 294.72 199.84 295.43 200.54 293.34 202.63 295.43 204.71 294.72 205.42"/><rect class="cls-9" x="292.63" y="202.13" width="9.31" height="1"/><circle class="cls-17" cx="325.04" cy="311.31" r="37.36"/><path class="cls-9" d="M303.17,315.05v-6.74h.46l3.05,4.15a22.42,22.42,0,0,1,1.37,2l0,0c-.07-.78-.08-1.58-.08-2.62v-3.48h.48v6.74H308l-2.95-4c-.57-.78-1.09-1.49-1.45-2.09l0,0c.05.76.06,1.48.06,2.48v3.6Z"/><path class="cls-9" d="M313.72,311.7h-3v2.94h3.34v.41h-3.83v-6.74h3.66v.41h-3.17v2.57h3Z"/><path class="cls-9" d="M317.07,308.72h-2.51v-.41h5.51v.41h-2.51v6.33h-.49Z"/><path class="cls-9" d="M322.48,315.05l-1.91-6.74h.5l1.07,3.87c.24.86.47,1.69.61,2.26h0c.12-.55.39-1.38.68-2.26l1.24-3.87h.48l1.09,3.86c.23.82.47,1.68.58,2.27h0c.16-.63.4-1.36.68-2.25l1.24-3.88h.51l-2.23,6.74h-.48l-1.09-3.86a21.35,21.35,0,0,1-.57-2.31h0a20.72,20.72,0,0,1-.68,2.29L323,315.05Z"/><path class="cls-9" d="M336.52,311.59a3.37,3.37,0,0,1-3.42,3.58,3.28,3.28,0,0,1-3.35-3.4,3.4,3.4,0,0,1,3.42-3.58A3.26,3.26,0,0,1,336.52,311.59Zm-6.26.16a2.88,2.88,0,1,0,2.89-3.16A2.87,2.87,0,0,0,330.26,311.75Z"/><path class="cls-9" d="M337.78,308.4a9.52,9.52,0,0,1,1.64-.15,2.65,2.65,0,0,1,2,.6,1.65,1.65,0,0,1,.48,1.18,1.8,1.8,0,0,1-1.39,1.75v0a1.78,1.78,0,0,1,1.07,1.37,9,9,0,0,0,.55,1.88h-.52a8.94,8.94,0,0,1-.45-1.62c-.22-1-.66-1.42-1.58-1.47h-1.28v3.09h-.49Zm.49,3.16h1.3c1.11,0,1.81-.58,1.81-1.45,0-1.08-.89-1.46-2-1.46a4.92,4.92,0,0,0-1.14.11Z"/><path class="cls-9" d="M343.27,308.31h.49v3.45h0a8.52,8.52,0,0,1,.61-.68l2.69-2.77h.62l-2.84,2.87,3.14,3.87h-.61l-2.87-3.56-.78.78v2.78h-.49Z"/><path class="cls-9" d="M299.21,322.87c-.07-1-.16-2.3-.16-3h0c-.27.72-.58,1.5-1,2.52l-1.56,3.68h-.37l-1.46-3.63c-.42-1.05-.73-1.85-.95-2.57h0c0,.78-.08,2-.17,3.12l-.24,3.08h-.48l.54-6.74h.56l1.62,4c.34.84.6,1.54.8,2.15h0c.18-.57.45-1.25.83-2.14l1.7-4h.58l.48,6.74h-.48Z"/><path class="cls-9" d="M302.14,323.68l-.93,2.37h-.51l2.72-6.74h.48l2.7,6.74h-.51l-.95-2.37Zm2.84-.41-1-2.37c-.18-.45-.27-.74-.37-1.07h0c-.1.34-.21.64-.37,1l-1,2.4Z"/><path class="cls-9" d="M307.68,326.05v-6.74h.46l3.05,4.15a22.42,22.42,0,0,1,1.37,2l0,0c-.07-.78-.08-1.58-.08-2.62v-3.48H313v6.74h-.45l-2.95-4c-.57-.78-1.09-1.49-1.45-2.09l0,0c0,.76.06,1.48.06,2.48v3.6Z"/><path class="cls-9" d="M315.6,323.68l-.93,2.37h-.51l2.72-6.74h.48l2.7,6.74h-.51l-.95-2.37Zm2.84-.41-.95-2.37c-.18-.45-.27-.74-.37-1.07h0c-.1.34-.21.64-.37,1l-1,2.4Z"/><path class="cls-9" d="M326.52,325.71a6.23,6.23,0,0,1-2.26.41,3.75,3.75,0,0,1-2.69-1,3.41,3.41,0,0,1-1-2.49c0-1.58,1.2-3.43,3.91-3.43a4.65,4.65,0,0,1,1.8.34l-.16.4a3.83,3.83,0,0,0-1.66-.33c-2.21,0-3.38,1.37-3.38,3a2.94,2.94,0,0,0,3.25,3,3.84,3.84,0,0,0,1.68-.28v-2.31h-1.74v-.4h2.23Z"/><path class="cls-9" d="M331.52,322.7h-3v2.94h3.34v.41H328v-6.74h3.66v.41h-3.17v2.57h3Z"/><path class="cls-9" d="M339.37,322.87c-.07-1-.16-2.3-.16-3h0c-.27.72-.58,1.5-1,2.52l-1.56,3.68h-.37l-1.46-3.63c-.42-1.05-.73-1.85-1-2.57h0c0,.78-.08,2-.17,3.12l-.24,3.08h-.48l.54-6.74H334l1.62,4c.34.84.6,1.54.8,2.15h0c.18-.57.45-1.25.83-2.14l1.7-4h.58l.48,6.74h-.48Z"/><path class="cls-9" d="M345.08,322.7h-3v2.94h3.34v.41h-3.83v-6.74h3.66v.41h-3.17v2.57h3Z"/><path class="cls-9" d="M346.7,326.05v-6.74h.46l3,4.15a22.42,22.42,0,0,1,1.37,2l0,0c-.07-.78-.08-1.58-.08-2.62v-3.48H352v6.74h-.45l-2.95-4c-.57-.78-1.09-1.49-1.45-2.09l0,0c.05.76.06,1.48.06,2.48v3.6Z"/><path class="cls-9" d="M355.19,319.72h-2.51v-.41h5.51v.41h-2.51v6.33h-.49Z"/><rect class="cls-9" x="320.97" y="283.06" width="8.04" height="5.25"/><polygon class="cls-9" points="337.42 293 337.42 291 325.55 291 325.55 288.31 324.55 288.31 324.55 291 312.67 291 312.67 293 317.5 293 317.5 296.16 313.42 296.16 313.42 301.41 321.45 301.41 321.45 296.16 318.5 296.16 318.5 293 331.35 293 331.35 296.16 328.33 296.16 328.33 301.41 336.36 301.41 336.36 296.16 332.35 296.16 332.35 293 337.42 293"/><circle class="cls-18" cx="472.28" cy="297.62" r="46.54"/><path class="cls-9" d="M429.61,293.9v7.61h-.55V293.9Z"/><path class="cls-9" d="M431.6,301.51V293.9h.52l3.44,4.68a26.36,26.36,0,0,1,1.55,2.23l0,0c-.08-.88-.09-1.79-.09-3V293.9h.54v7.61h-.5L433.74,297c-.64-.88-1.23-1.68-1.63-2.36l0,0c.06.86.07,1.67.07,2.8v4.07Z"/><path class="cls-9" d="M439.57,293.9h4.13v.46h-3.58v3h3.27v.47h-3.27v3.69h-.55Z"/><path class="cls-9" d="M445.32,294a11,11,0,0,1,1.85-.17,3,3,0,0,1,2.23.68,1.84,1.84,0,0,1,.54,1.33,2,2,0,0,1-1.57,2v0a2,2,0,0,1,1.21,1.55,10.28,10.28,0,0,0,.62,2.12h-.59a11.09,11.09,0,0,1-.51-1.83c-.24-1.1-.74-1.6-1.78-1.66h-1.44v3.49h-.56Zm.56,3.57h1.46c1.26,0,2.05-.66,2.05-1.64,0-1.22-1-1.65-2.23-1.65a5.18,5.18,0,0,0-1.28.13Z"/><path class="cls-9" d="M452.49,298.83l-1.05,2.68h-.58l3.07-7.61h.55l3,7.61H457l-1.07-2.68Zm3.21-.46-1.08-2.68a12.33,12.33,0,0,1-.41-1.2h0a10,10,0,0,1-.42,1.17l-1.08,2.71Z"/><path class="cls-9" d="M458.48,300.62a3.35,3.35,0,0,0,1.89.56c1.23,0,2-.65,2-1.59s-.44-1.37-1.71-1.77c-1.53-.49-2.14-1.11-2.14-2.1a2.11,2.11,0,0,1,2.36-2,3.35,3.35,0,0,1,1.7.39l-.22.46a2.73,2.73,0,0,0-1.5-.4c-1.37,0-1.8.83-1.8,1.43,0,.81.49,1.27,1.72,1.67,1.39.45,2.13,1,2.13,2.22,0,1.05-.76,2.11-2.58,2.11a3.79,3.79,0,0,1-2-.56Z"/><path class="cls-9" d="M466.05,294.36h-2.83v-.46h6.22v.46h-2.83v7.15h-.56Z"/><path class="cls-9" d="M470.19,294a11,11,0,0,1,1.86-.17,3,3,0,0,1,2.22.68,1.84,1.84,0,0,1,.54,1.33,2,2,0,0,1-1.57,2v0a2,2,0,0,1,1.21,1.55,10.28,10.28,0,0,0,.62,2.12h-.58a9.31,9.31,0,0,1-.51-1.83c-.25-1.1-.75-1.6-1.79-1.66h-1.44v3.49h-.56Zm.56,3.57h1.47c1.25,0,2-.66,2-1.64,0-1.22-1-1.65-2.22-1.65a5.21,5.21,0,0,0-1.29.13Z"/><path class="cls-9" d="M476.94,293.9v4.39c0,2.07,1,2.89,2.3,2.89s2.41-.88,2.41-2.89V293.9h.56v4.35c0,2.45-1.39,3.39-3,3.39s-2.81-.85-2.81-3.34v-4.4Z"/><path class="cls-9" d="M490,301.2a5.69,5.69,0,0,1-2.39.44,3.76,3.76,0,0,1-4-3.9,4,4,0,0,1,4.33-4,4.54,4.54,0,0,1,2.05.39l-.18.46a4.26,4.26,0,0,0-1.84-.38c-2.47,0-3.78,1.5-3.78,3.55a3.3,3.3,0,0,0,3.65,3.39,4.74,4.74,0,0,0,2-.41Z"/><path class="cls-9" d="M493.59,294.36h-2.83v-.46H497v.46h-2.84v7.15h-.55Z"/><path class="cls-9" d="M498.28,293.9v4.39c0,2.07,1,2.89,2.3,2.89s2.41-.88,2.41-2.89V293.9h.56v4.35c0,2.45-1.39,3.39-3,3.39s-2.81-.85-2.81-3.34v-4.4Z"/><path class="cls-9" d="M505.53,294a10.87,10.87,0,0,1,1.85-.17,3,3,0,0,1,2.23.68,1.88,1.88,0,0,1,.54,1.33,2,2,0,0,1-1.57,2v0a2,2,0,0,1,1.21,1.55,10.28,10.28,0,0,0,.62,2.12h-.59a11.09,11.09,0,0,1-.51-1.83c-.25-1.1-.74-1.6-1.78-1.66h-1.45v3.49h-.55Zm.55,3.57h1.47c1.25,0,2-.66,2-1.64,0-1.22-1-1.65-2.22-1.65a5.35,5.35,0,0,0-1.29.13Z"/><path class="cls-9" d="M515.67,297.73h-3.39v3.32h3.77v.46h-4.32V293.9h4.13v.46h-3.58v2.9h3.39Z"/><path class="cls-9" d="M441.28,309.7c-.08-1.2-.19-2.76-.19-3.63h0c-.33.87-.7,1.8-1.22,3L438,313.51h-.44l-1.75-4.35c-.5-1.26-.88-2.22-1.14-3.09h0c0,.94-.1,2.41-.21,3.74l-.29,3.7h-.57l.65-8.09h.67l1.94,4.83c.41,1,.72,1.84,1,2.58h0c.22-.69.54-1.5,1-2.57l2-4.84h.69l.58,8.09h-.58Z"/><path class="cls-9" d="M444.8,310.67l-1.11,2.84h-.62l3.27-8.09h.57l3.24,8.09h-.61l-1.14-2.84Zm3.41-.5-1.14-2.84c-.22-.54-.32-.89-.45-1.28h0c-.12.41-.25.77-.44,1.25L445,310.17Z"/><path class="cls-9" d="M451.45,313.51v-8.09H452l3.66,5a27.9,27.9,0,0,1,1.64,2.37l0,0c-.09-.93-.1-1.89-.1-3.14v-4.18h.58v8.09h-.54l-3.54-4.81c-.69-.94-1.31-1.79-1.74-2.51l0,0c.06.91.08,1.77.08,3v4.32Z"/><path class="cls-9" d="M461,310.67l-1.11,2.84h-.61l3.26-8.09h.57l3.24,8.09h-.61l-1.14-2.84Zm3.41-.5-1.14-2.84a13.22,13.22,0,0,1-.44-1.28h0c-.12.41-.25.77-.44,1.25l-1.15,2.87Z"/><path class="cls-9" d="M474.05,313.1a7.42,7.42,0,0,1-2.71.49,4.49,4.49,0,0,1-3.22-1.15,4.08,4.08,0,0,1-1.18-3c0-1.9,1.44-4.12,4.69-4.12a5.51,5.51,0,0,1,2.16.41l-.19.48a4.56,4.56,0,0,0-2-.4c-2.65,0-4.06,1.65-4.06,3.65s1.43,3.62,3.9,3.62a4.7,4.7,0,0,0,2-.33V310h-2.09v-.49h2.67Z"/><path class="cls-9" d="M480.06,309.49h-3.6V313h4v.49h-4.59v-8.09h4.39v.5h-3.8V309h3.6Z"/><path class="cls-9" d="M489.47,309.7c-.08-1.2-.19-2.76-.19-3.63h0c-.33.87-.7,1.8-1.21,3l-1.87,4.42h-.45L484,309.16c-.5-1.26-.87-2.22-1.14-3.09h0c0,.94-.1,2.41-.21,3.74l-.28,3.7h-.58l.65-8.09h.67l1.94,4.83c.41,1,.72,1.84,1,2.58h0c.21-.69.54-1.5,1-2.57l2-4.84h.7l.57,8.09h-.57Z"/><path class="cls-9" d="M496.33,309.49h-3.6V313h4v.49h-4.59v-8.09h4.39v.5h-3.8V309h3.6Z"/><path class="cls-9" d="M498.27,313.51v-8.09h.56l3.65,5a26.14,26.14,0,0,1,1.65,2.37l0,0c-.08-.93-.1-1.89-.1-3.14v-4.18h.58v8.09h-.54l-3.54-4.81c-.68-.94-1.3-1.79-1.74-2.51l0,0c.06.91.07,1.77.07,3v4.32Z"/><path class="cls-9" d="M508.46,305.92h-3v-.5h6.61v.5h-3v7.59h-.59Z"/><path class="cls-9" d="M448.88,324.56a3.53,3.53,0,0,0,2,.6c1.31,0,2.1-.69,2.1-1.69s-.47-1.45-1.82-1.88c-1.62-.52-2.27-1.18-2.27-2.23a2.23,2.23,0,0,1,2.5-2.08,3.5,3.5,0,0,1,1.8.41l-.22.49a3,3,0,0,0-1.6-.42c-1.45,0-1.91.88-1.91,1.51,0,.87.52,1.36,1.83,1.78,1.47.48,2.26,1.05,2.26,2.36,0,1.12-.81,2.24-2.74,2.24a4,4,0,0,1-2.16-.6Z"/><path class="cls-9" d="M459.4,321.49h-3.6V325h4v.49h-4.59v-8.09h4.39v.5h-3.8V321h3.6Z"/><path class="cls-9" d="M461.34,317.53a11.36,11.36,0,0,1,2-.18,3.17,3.17,0,0,1,2.36.72,2,2,0,0,1,.58,1.42,2.15,2.15,0,0,1-1.67,2.1v0a2.16,2.16,0,0,1,1.29,1.64,11.16,11.16,0,0,0,.65,2.26h-.62a11.29,11.29,0,0,1-.54-1.94c-.26-1.17-.79-1.71-1.89-1.77h-1.54v3.71h-.59Zm.59,3.79h1.56c1.33,0,2.17-.69,2.17-1.74,0-1.29-1.07-1.75-2.36-1.75a6.63,6.63,0,0,0-1.37.13Z"/><path class="cls-9" d="M470.21,325.51l-2.95-8.09h.62l1.6,4.46c.44,1.24.79,2.19,1,3h0c.27-.85.68-1.85,1.16-3l1.8-4.47h.63l-3.35,8.09Z"/><path class="cls-9" d="M475.54,317.42v8.09H475v-8.09Z"/><path class="cls-9" d="M483.85,325.18a6,6,0,0,1-2.53.47,4,4,0,0,1-4.27-4.15,4.25,4.25,0,0,1,4.59-4.22,5,5,0,0,1,2.19.41l-.19.49a4.6,4.6,0,0,0-2-.41c-2.63,0-4,1.6-4,3.78,0,2,1.33,3.6,3.88,3.6a5.08,5.08,0,0,0,2.13-.43Z"/><path class="cls-9" d="M489.52,321.49h-3.6V325h4v.49h-4.59v-8.09h4.39v.5h-3.8V321h3.6Z"/><path class="cls-9" d="M491.19,324.56a3.56,3.56,0,0,0,2,.6c1.31,0,2.1-.69,2.1-1.69s-.47-1.45-1.82-1.88c-1.62-.52-2.27-1.18-2.27-2.23a2.24,2.24,0,0,1,2.51-2.08,3.56,3.56,0,0,1,1.8.41l-.23.49a3,3,0,0,0-1.6-.42c-1.45,0-1.9.88-1.9,1.51,0,.87.51,1.36,1.82,1.78,1.47.48,2.27,1.05,2.27,2.36,0,1.12-.82,2.24-2.75,2.24a4,4,0,0,1-2.16-.6Z"/><path class="cls-9" d="M467.27,277c1.32-.23,1.28-.23,1.33-1.67,0-.71-.15-1-.91-.94-1.16.06-2.33,0-3.49,0a3.77,3.77,0,0,1-3.81-2.74,3.84,3.84,0,0,1,1.67-4.41.72.72,0,0,0,.42-.91,4.45,4.45,0,0,1,5.26-5.4c.5.09.71,0,.93-.47a6.31,6.31,0,0,1,6.28-3.89,6.19,6.19,0,0,1,5.5,4.71c.19.66.6.69,1.11.73a6.21,6.21,0,0,1-.33,12.39c-.55,0-1.11,0-1.66,0a.7.7,0,0,1-1,.14,3.92,3.92,0,0,0-1.67-.08.91.91,0,0,1-.89,0c-1.47-.09-1.47-.09-1.47,1.39,0,3.51,0,7,0,10.52,0,.81.06,1.38,1.07,1.19a.11.11,0,0,1,.13.15c-1,.57-1.65.25-1.67-.94,0-3.37,0-6.75,0-10.13a8.07,8.07,0,0,0,0-1.19,2.13,2.13,0,0,0-.07.93c0,3.16,0,6.31,0,9.47,0,.3,0,.61,0,.91-.05,1.2-.61,1.52-1.66.95,1.17-.39,1.17-.39,1.17-1.82v-10c0-1.35,0-1.35-1.31-1.38a.8.8,0,0,1-.92,0,3,3,0,0,0-1.61.1c-.4.11-.44.44-.48.78s0,.6,0,.91-.11.85-.56,1A1,1,0,0,1,467.27,277Z"/><path class="cls-9" d="M471.21,274.4a2,2,0,0,1,.92,0c0,2.38,0,4.76,0,7.15,0,.62-.19.79-.81.79-2.46,0-4.93,0-7.4,0-.58,0-.91.11-.81.77,0,.15,0,.37-.13.45s-.31-.14-.46-.25a12.46,12.46,0,0,0-1.18-.88c-.56-.33-.41-.63,0-1s.64-.52,1-.78.88-.7.85.3c0,.38.27.36.52.36h7c.59,0,.55-.37.54-.79C471.12,278.49,471,276.44,471.21,274.4Z"/><path class="cls-9" d="M476,274.39h.89a49.73,49.73,0,0,1,0,5.18c0,1.74,0,1.75,1.75,1.76,1.31,0,2.61,0,3.91,0,.49,0,.88,0,.94-.65.05-.45.34-.46.65-.22s.32.31.5.43c.38.27.81.5.9,1a5.75,5.75,0,0,1-1.84,1.47c-.27,0-.35-.16-.31-.38.1-.69-.33-.68-.81-.68-2,0-3.94,0-5.91,0-.53,0-.77-.19-.75-.72.1-2.28.09-4.55,0-6.82A2.73,2.73,0,0,1,476,274.39Z"/><path class="cls-9" d="M472.27,287.64a2.68,2.68,0,0,1,.49,0c.67.09.85-.2.84-.85,0-3.76,0-7.53,0-11.29,0-.38-.35-1.11.4-1.1s.38.73.38,1.11c0,3.6,0,7.2,0,10.8,0,1.4-.23,1.33,1.33,1.32a13.07,13.07,0,0,1-1.44,2c-.15.23-.31.2-.45,0A15,15,0,0,1,472.27,287.64Z"/><path class="cls-9" d="M478.59,274.47a2.71,2.71,0,0,1,1-.14c0,.62,0,1.23,0,1.84,0,.28-.18.72.17.81a2.46,2.46,0,0,0,1.63,0c.38-.19,0-.79.29-1.21l1.84,1.42c.21.16.28.31,0,.52-.63.52-1.24,1.06-1.91,1.63-.23-1.32-.23-1.32-1.58-1.32s-1.44,0-1.44-1.44C478.6,275.86,478.59,275.16,478.59,274.47Z"/><path class="cls-9" d="M467.27,277c1.47.15,1.47.15,1.47-1.27,0-.19,0-.38,0-.57-.05-.68.2-.94.86-.61,0,.94,0,1.88,0,2.82,0,.48-.16.65-.62.61s-.67,0-1,0c-1.21,0-1.21,0-1.35,1.25a12.42,12.42,0,0,1-2.05-1.5c-.27-.21,0-.35.12-.45.61-.53,1.22-1,1.82-1.54C467.06,276,466.18,277,467.27,277Z"/><circle class="cls-19" cx="419.37" cy="110.73" r="11.84"/><path class="cls-9" d="M424.08,111.7v1.54h-1.54l.09,1.75h-6.52l.09-1.75h-1.53v-1.17A2.21,2.21,0,0,1,416,110l.22-.1v0l-.11-.12a1.91,1.91,0,1,1,3-2.32.38.38,0,0,0,.56,0,1.85,1.85,0,0,1,1.83-.9,1.81,1.81,0,0,1,1.6,1.27,1.85,1.85,0,0,1-.47,2l-.09.11a2.28,2.28,0,0,1,1.2.95A6.77,6.77,0,0,1,424.08,111.7ZM422,114.41a2.13,2.13,0,0,0-1.66-2.4,6,6,0,0,0-1.41-.08,2.16,2.16,0,0,0-1.7.8,2.09,2.09,0,0,0-.49,1.68Zm-1-4.69a1.62,1.62,0,1,0-1.64,1.61A1.62,1.62,0,0,0,421,109.72ZM418,111.48a2.46,2.46,0,0,1-.78-1.11.16.16,0,0,0-.14-.06,2,2,0,0,0-1.21.4,1.93,1.93,0,0,0-.64,1.94h1.14a.23.23,0,0,0,.22-.12,2.77,2.77,0,0,1,1.18-1Zm5.43,1.17a6.61,6.61,0,0,0,0-.89,1.79,1.79,0,0,0-1.87-1.45c-.05,0-.12.07-.14.12a2.29,2.29,0,0,1-.58.88l-.15.15a7.32,7.32,0,0,1,.78.47c.24.2.43.45.65.67a.19.19,0,0,0,.13.05Zm-6.31-3a2.26,2.26,0,0,1,1.38-2,1.28,1.28,0,0,0-1.42-.55,1.32,1.32,0,0,0,0,2.56Zm4.42,0a1.28,1.28,0,0,0,1-1.19,1.32,1.32,0,0,0-1-1.36,1.29,1.29,0,0,0-1.42.55A2.25,2.25,0,0,1,421.58,109.66Z"/><circle class="cls-20" cx="315.6" cy="159.24" r="14.39"/><path class="cls-9" d="M315.6,153.05c2,0,4,0,5.95,0a.9.9,0,0,1,.94,1c0,2.78,0,5.56,0,8.33a.85.85,0,0,1-.66.89,1,1,0,0,1-.24,0h-12a.85.85,0,0,1-.89-.89v-8.41a.83.83,0,0,1,.62-.85,1.12,1.12,0,0,1,.32,0Zm0,.2h-6a.65.65,0,0,0-.71.72v8.33a.64.64,0,0,0,.7.72h11.9a.67.67,0,0,0,.76-.76V154c0-.54-.24-.78-.78-.78Z"/><path class="cls-9" d="M307.69,163.43h15.8a1.53,1.53,0,0,1-1.36,2c-.81,0-1.63,0-2.44,0H309.26a1.53,1.53,0,0,1-1.26-.55A1.52,1.52,0,0,1,307.69,163.43Zm7.92.2H308c-.14,0-.19,0-.18.18s0,.22,0,.33a1.33,1.33,0,0,0,1.36,1.08H322a1.35,1.35,0,0,0,1.39-1.38c0-.17-.05-.21-.22-.21Z"/><path class="cls-9" d="M322,153.93v8.4H309.23v-8.4Zm-12.52.22v8h12.3v-8Z"/><path class="cls-9" d="M316.56,164.52h-1.92v-.19h1.92Z"/><path class="cls-9" d="M319,157.63v1c-.18,0-.36,0-.54,0s-.28,0-.33.23a4.5,4.5,0,0,1-.3.73l.53.52-.72.72-.49-.52-.92.35a.22.22,0,0,0-.08.14v.68h-1c0-.22,0-.43,0-.64s0-.17-.16-.21-.53-.2-.82-.32l-.51.54-.72-.74.53-.48c-.13-.34-.24-.63-.36-.92,0,0-.09-.08-.14-.08h-.67v-1h.66c.1,0,.14,0,.17-.13.1-.27.21-.54.33-.85l-.54-.5.74-.73.49.53.93-.35a.2.2,0,0,0,.06-.13c0-.22,0-.45,0-.68h1v.68a.22.22,0,0,0,.08.13l.89.34.51-.54.72.72-.52.5c.13.35.24.65.36.95,0,0,.08.06.13.06Zm-5.27-1-.52,1.22h-.71v.45c0,.12,0,.15.15.14h.56l.52,1.23-.5.46.44.45.47-.51,1.21.51c0,.16,0,.38,0,.59a.16.16,0,0,0,.07.12h.51v-.77a2.7,2.7,0,0,0,1.2-.5l.52.55.43-.44-.52-.46.51-1.23h.59s.12-.05.12-.07c0-.17,0-.34,0-.52H318l-.51-1.23.49-.47-.44-.45-.46.52-1.22-.51V155h-.59v.7l-1.24.53-.45-.5-.43.41Z"/><path class="cls-9" d="M315.6,156.45a1.69,1.69,0,1,1-1.69,1.68A1.69,1.69,0,0,1,315.6,156.45Zm-1.48,1.68a1.48,1.48,0,1,0,1.47-1.47A1.47,1.47,0,0,0,314.12,158.13Z"/></g></svg>