<?xml version="1.0" encoding="UTF-8"?>
<svg xmlns="http://www.w3.org/2000/svg" xmlns:xlink="http://www.w3.org/1999/xlink" width="1200" height="800" viewBox="0 0 365 112.48" version="1.1">
<defs>
<clipPath id="clip1">
  <path d="M 8 0 L 81 0 L 81 112.480469 L 8 112.480469 Z M 8 0 "/>
</clipPath>
</defs>
<g id="surface1">
<path style=" stroke:none;fill-rule:nonzero;fill:rgb(83.099365%,22.399902%,19.999695%);fill-opacity:1;" d="M 80.121094 54.203125 C 80.121094 76.488281 62.460938 94.550781 40.671875 94.550781 C 18.886719 94.550781 1.226563 76.488281 1.226563 54.203125 C 1.226563 31.917969 18.886719 13.851563 40.671875 13.851563 C 62.460938 13.851563 80.121094 31.917969 80.121094 54.203125 "/>
<path style=" stroke:none;fill-rule:nonzero;fill:rgb(93.699646%,24.299622%,23.098755%);fill-opacity:1;" d="M 2.832031 64.195313 C 2.832031 64.195313 -0.0234375 22.117188 38.75 20.914063 L 36.042969 16.40625 L 15.007813 23.46875 L 8.996094 30.382813 L 3.734375 40.453125 L 0.730469 52.175781 L 1.632813 59.988281 "/>
<path style=" stroke:none;fill-rule:nonzero;fill:rgb(13.299561%,12.199402%,12.5%);fill-opacity:1;" d="M 11.902344 83.742188 C 4.546875 76.21875 0 65.820313 0 54.351563 C 0 42.882813 4.546875 32.488281 11.902344 24.964844 C 19.257813 17.441406 29.4375 12.777344 40.671875 12.777344 C 51.910156 12.777344 62.089844 17.441406 69.441406 24.964844 C 76.800781 32.488281 81.347656 42.882813 81.347656 54.351563 C 81.347656 65.820313 76.800781 76.21875 69.441406 83.742188 C 62.089844 91.265625 51.910156 95.925781 40.671875 95.925781 C 29.4375 95.925781 19.257813 91.265625 11.902344 83.742188 M 13.65625 26.675781 C 6.734375 33.757813 2.449219 43.535156 2.449219 54.351563 C 2.449219 65.167969 6.734375 74.945313 13.65625 82.027344 C 20.578125 89.109375 30.121094 93.476563 40.671875 93.476563 C 51.222656 93.476563 60.769531 89.109375 67.691406 82.027344 C 74.613281 74.945313 78.894531 65.167969 78.894531 54.351563 C 78.894531 43.535156 74.613281 33.757813 67.691406 26.675781 C 60.769531 19.597656 51.222656 15.230469 40.671875 15.226563 C 30.121094 15.230469 20.578125 19.597656 13.65625 26.675781 "/>
<path style=" stroke:none;fill-rule:nonzero;fill:rgb(94.099426%,83.898926%,72.198486%);fill-opacity:1;" d="M 57.28125 54.425781 L 51.269531 55.328125 L 43.152344 56.230469 L 37.894531 56.378906 L 32.785156 56.230469 L 28.875 55.027344 L 25.417969 51.269531 L 22.714844 43.605469 L 22.113281 41.953125 L 18.507813 40.75 L 16.402344 37.292969 L 14.898438 32.335938 L 16.554688 27.976563 L 20.460938 26.625 L 23.617188 28.128906 L 25.117188 31.433594 L 26.921875 31.132813 L 27.523438 30.382813 L 26.921875 26.925781 L 26.773438 22.566406 L 27.671875 16.554688 L 27.640625 13.121094 L 30.378906 8.742188 L 35.1875 5.285156 L 43.601563 1.679688 L 52.921875 3.03125 L 61.035156 8.890625 L 64.792969 14.902344 L 67.199219 19.261719 L 67.796875 30.082031 L 65.996094 39.398438 L 62.6875 47.664063 L 59.53125 52.023438 "/>
<path style=" stroke:none;fill-rule:nonzero;fill:rgb(19.999695%,31.799316%,37.998962%);fill-opacity:1;" d="M 52.167969 80.425781 L 30.679688 81.324219 L 30.679688 84.933594 L 32.484375 97.554688 L 31.582031 98.609375 L 16.554688 93.5 L 15.5 91.695313 L 14 74.714844 L 10.542969 64.496094 L 9.789063 62.089844 L 21.8125 53.824219 L 25.570313 52.320313 L 28.875 56.378906 L 31.730469 58.933594 L 35.039063 59.988281 L 36.539063 60.4375 L 38.34375 68.25 L 39.695313 69.90625 L 43.152344 68.703125 L 40.746094 73.363281 L 53.824219 79.523438 L 52.167969 80.425781 "/>
<path style=" stroke:none;fill-rule:nonzero;fill:rgb(42.698669%,42.399597%,43.099976%);fill-opacity:1;" d="M 16.554688 27.976563 L 20.460938 26.625 L 23.617188 28.128906 L 25.117188 31.433594 L 26.921875 31.132813 L 27.375 29.328125 L 26.472656 25.875 L 27.375 17.609375 L 26.621094 13.097656 L 29.328125 9.945313 L 35.1875 5.285156 L 33.535156 3.03125 L 25.269531 7.089844 L 21.8125 9.792969 L 19.859375 14 L 16.851563 18.058594 L 15.953125 22.867188 L 16.554688 27.976563 "/>
<path style=" stroke:none;fill-rule:nonzero;fill:rgb(86.299133%,85.099792%,84.698486%);fill-opacity:1;" d="M 22.714844 13.851563 C 22.714844 13.851563 24.96875 8.289063 33.984375 5.585938 C 43.003906 2.882813 34.4375 3.632813 34.4375 3.632813 L 24.667969 7.390625 L 20.910156 11.144531 L 19.257813 14.152344 L 22.714844 13.851563 "/>
<path style=" stroke:none;fill-rule:nonzero;fill:rgb(86.299133%,85.099792%,84.698486%);fill-opacity:1;" d="M 18.207031 26.925781 C 18.207031 26.925781 15.050781 16.40625 27.074219 14.902344 L 26.621094 13.097656 L 18.355469 15.054688 L 15.953125 22.867188 L 16.554688 27.976563 L 18.207031 26.925781 "/>
<path style=" stroke:none;fill-rule:nonzero;fill:rgb(96.899414%,89.399719%,80.39856%);fill-opacity:1;" d="M 23.015625 40.902344 L 24.984375 38.996094 C 24.984375 38.996094 25.871094 39.097656 26.019531 40.148438 C 26.171875 41.203125 26.621094 50.667969 33.082031 55.777344 C 33.671875 56.246094 28.273438 55.027344 28.273438 55.027344 L 23.464844 47.511719 "/>
<path style=" stroke:none;fill-rule:nonzero;fill:rgb(96.899414%,89.399719%,80.39856%);fill-opacity:1;" d="M 50.667969 38.046875 C 50.667969 38.046875 51.019531 33.492188 52.246094 33.839844 C 53.472656 34.191406 53.472656 35.417969 53.472656 35.417969 C 53.472656 35.417969 50.492188 37.34375 50.667969 38.046875 "/>
<path style=" stroke:none;fill-rule:nonzero;fill:rgb(96.899414%,89.399719%,80.39856%);fill-opacity:1;" d="M 63.140625 21.363281 C 63.140625 21.363281 60.664063 21.886719 60.433594 24.070313 C 60.207031 26.253906 63.140625 24.519531 63.589844 24.371094 "/>
<path style=" stroke:none;fill-rule:nonzero;fill:rgb(96.899414%,89.399719%,80.39856%);fill-opacity:1;" d="M 44.957031 21.515625 C 44.957031 21.515625 41.648438 21.964844 41.648438 24.070313 C 41.648438 26.175781 45.40625 26.023438 46.460938 25.121094 "/>
<path style=" stroke:none;fill-rule:nonzero;fill:rgb(96.899414%,89.399719%,80.39856%);fill-opacity:1;" d="M 24.519531 31.285156 C 24.519531 31.285156 18.808594 27.828125 18.207031 31.132813 C 17.605469 34.4375 16.253906 36.84375 19.109375 40.300781 L 17.15625 39.699219 L 15.351563 35.039063 L 14.75 30.53125 L 18.207031 26.925781 L 22.113281 27.226563 L 24.367188 29.027344 L 24.519531 31.285156 "/>
<path style=" stroke:none;fill-rule:nonzero;fill:rgb(96.899414%,89.399719%,80.39856%);fill-opacity:1;" d="M 27.222656 21.816406 C 27.222656 21.816406 29.777344 8.589844 42.703125 6.035156 C 53.34375 3.933594 58.929688 6.488281 61.035156 8.890625 C 61.035156 8.890625 51.570313 -2.378906 42.550781 1.078125 C 33.535156 4.535156 26.921875 10.847656 27.074219 14.902344 C 27.328125 21.8125 27.222656 21.816406 27.222656 21.816406 "/>
<path style=" stroke:none;fill-rule:nonzero;fill:rgb(96.899414%,89.399719%,80.39856%);fill-opacity:1;" d="M 62.089844 10.394531 C 62.089844 10.394531 57.730469 10.242188 57.578125 14.152344 C 57.578125 14.152344 57.578125 14.753906 57.878906 15.351563 C 57.878906 15.351563 61.335938 11.445313 63.441406 13.550781 "/>
<path style=" stroke:none;fill-rule:nonzero;fill:rgb(96.899414%,89.399719%,80.39856%);fill-opacity:1;" d="M 43.003906 15.761719 C 43.003906 15.761719 42.253906 9.761719 37.140625 13.25 C 33.835938 15.503906 34.136719 18.660156 34.738281 19.261719 C 35.339844 19.863281 35.175781 21.074219 35.632813 20.242188 C 36.089844 19.410156 35.9375 16.707031 37.59375 15.953125 C 39.246094 15.203125 41.957031 14.363281 43.003906 15.761719 "/>
<path style=" stroke:none;fill-rule:nonzero;fill:rgb(28.599548%,45.098877%,54.899597%);fill-opacity:1;" d="M 28.875 56.378906 L 14.75 62.691406 C 14.75 62.691406 20.609375 85.984375 17.605469 93.199219 L 15.5 92.445313 L 15.351563 83.582031 L 11.445313 66.75 L 9.789063 62.089844 L 24.519531 52.171875 L 28.875 56.378906 "/>
<path style=" stroke:none;fill-rule:nonzero;fill:rgb(28.599548%,45.098877%,54.899597%);fill-opacity:1;" d="M 30.328125 69.261719 L 32.332031 71.707031 L 32.332031 80.726563 L 29.925781 80.726563 C 29.925781 80.726563 29.628906 74.414063 29.628906 73.660156 C 29.628906 72.910156 29.925781 70.207031 29.925781 70.207031 "/>
<path style=" stroke:none;fill-rule:nonzero;fill:rgb(28.599548%,45.098877%,54.899597%);fill-opacity:1;" d="M 30.378906 82.078125 L 23.617188 82.378906 L 25.570313 83.730469 L 30.378906 84.480469 "/>
<path style=" stroke:none;fill-rule:nonzero;fill:rgb(19.999695%,31.799316%,37.998962%);fill-opacity:1;" d="M 53.523438 80.574219 L 59.082031 80.425781 L 60.433594 94.25 L 54.722656 95 L 53.523438 80.574219 "/>
<path style=" stroke:none;fill-rule:nonzero;fill:rgb(19.999695%,31.799316%,37.998962%);fill-opacity:1;" d="M 55.023438 80.574219 L 63.441406 80.125 C 63.441406 80.125 66.898438 71.40625 66.898438 70.957031 C 66.898438 70.507813 69.902344 58.332031 69.902344 58.332031 L 63.140625 51.269531 L 61.785156 50.070313 L 58.179688 53.675781 L 58.179688 67.652344 L 55.023438 80.574219 "/>
<path style=" stroke:none;fill-rule:nonzero;fill:rgb(28.599548%,45.098877%,54.899597%);fill-opacity:1;" d="M 58.78125 79.523438 L 53.523438 80.574219 L 54.273438 84.78125 C 56.226563 85.683594 59.53125 83.28125 59.53125 83.28125 "/>
<path style=" stroke:none;fill-rule:nonzero;fill:rgb(28.599548%,45.098877%,54.899597%);fill-opacity:1;" d="M 58.933594 53.222656 L 69.453125 61.039063 L 69.753906 57.433594 L 61.785156 50.070313 L 58.933594 53.222656 "/>
<path style=" stroke:none;fill-rule:nonzero;fill:rgb(100%,100%,100%);fill-opacity:1;" d="M 35.59375 110.179688 L 32.484375 97.554688 L 30.933594 88.242188 L 30.679688 81.324219 L 44.761719 80.578125 L 53.523438 80.574219 L 52.726563 96.355469 L 54.078125 108.527344 L 53.925781 110.78125 L 42.507813 111.683594 L 35.59375 110.179688 "/>
<path style=" stroke:none;fill-rule:nonzero;fill:rgb(86.299133%,85.099792%,84.698486%);fill-opacity:1;" d="M 51.570313 80.425781 C 51.570313 80.425781 50.816406 96.054688 53.070313 107.175781 C 53.070313 107.175781 48.5625 110.03125 41.949219 110.78125 L 54.574219 110.328125 L 56.078125 109.429688 L 54.273438 84.78125 L 53.824219 79.523438 "/>
<path style=" stroke:none;fill-rule:nonzero;fill:rgb(100%,100%,100%);fill-opacity:1;" d="M 60.691406 93.050781 L 66.550781 91.394531 L 77.671875 90.796875 L 79.324219 85.6875 L 76.320313 76.820313 L 72.863281 76.367188 L 68.054688 77.871094 L 63.441406 80.125 L 60.992188 79.675781 L 59.082031 80.425781 "/>
<path style=" stroke:none;fill-rule:nonzero;fill:rgb(86.299133%,85.099792%,84.698486%);fill-opacity:1;" d="M 60.585938 90.042969 C 60.585938 90.042969 64.492188 88.238281 65.09375 88.390625 L 63.441406 80.125 L 65.394531 79.371094 C 65.394531 79.371094 66.746094 87.1875 66.746094 88.089844 C 66.746094 88.089844 75.160156 88.539063 75.914063 88.539063 C 75.914063 88.539063 77.71875 85.082031 77.265625 81.476563 L 78.917969 86.285156 L 79.070313 88.992188 L 76.664063 92.597656 L 73.960938 93.199219 L 69.453125 93.046875 L 67.949219 91.09375 L 62.6875 91.847656 L 61.035156 92.445313 "/>
<path style=" stroke:none;fill-rule:nonzero;fill:rgb(100%,100%,100%);fill-opacity:1;" d="M 54.679688 79.375 L 51.375 70.957031 L 47.917969 66 C 47.917969 66 48.667969 63.894531 49.71875 63.894531 C 50.773438 63.894531 53.175781 63.894531 53.175781 63.894531 L 56.484375 65.097656 L 56.183594 70.65625 L 54.679688 79.375 "/>
<path style=" stroke:none;fill-rule:nonzero;fill:rgb(86.299133%,85.099792%,84.698486%);fill-opacity:1;" d="M 55.324219 76.515625 C 55.324219 76.515625 51.117188 68.402344 51.117188 67.199219 C 51.117188 67.199219 51.867188 65.398438 52.921875 65.847656 C 53.972656 66.296875 56.226563 67.5 56.226563 67.5 L 56.226563 64.644531 L 51.117188 63.59375 L 47.660156 64.042969 L 53.523438 77.871094 L 54.722656 78.019531 "/>
<path style=" stroke:none;fill-rule:nonzero;fill:rgb(100%,100%,100%);fill-opacity:1;" d="M 36.945313 56.683594 L 32.785156 56.230469 L 28.875 55.027344 L 28.875 56.378906 L 30.785156 58.484375 L 36.796875 61.191406 "/>
<path style=" stroke:none;fill-rule:nonzero;fill:rgb(86.299133%,85.099792%,84.698486%);fill-opacity:1;" d="M 30.230469 57.132813 C 30.230469 57.132813 34.886719 59.085938 36.390625 58.636719 L 36.539063 60.4375 L 32.332031 59.539063 L 29.777344 57.734375 L 30.230469 57.132813 "/>
<path style=" stroke:none;fill-rule:nonzero;fill:rgb(83.099365%,22.399902%,19.999695%);fill-opacity:1;" d="M 60.675781 64.40625 C 58.125 64.332031 55.820313 64.027344 53.804688 63.460938 C 53.941406 62.632813 53.683594 61.820313 53.890625 61.226563 C 54.453125 60.820313 55.394531 60.828125 56.246094 60.734375 C 55.511719 60.371094 54.476563 60.230469 53.628906 60.4375 C 53.609375 59.863281 53.351563 59.507813 53.195313 59.058594 C 54.628906 58.546875 58.015625 55.191406 59.917969 56.304688 C 60.824219 56.832031 61.210938 59.847656 61.28125 61.316406 C 61.339844 62.535156 61.171875 63.761719 60.675781 64.40625 "/>
<path style=" stroke:none;fill-rule:nonzero;fill:rgb(83.099365%,22.399902%,19.999695%);fill-opacity:1;" d="M 60.675781 64.40625 L 60.683594 64.046875 C 58.15625 63.972656 55.882813 63.671875 53.902344 63.113281 L 53.804688 63.460938 L 54.160156 63.519531 C 54.195313 63.300781 54.207031 63.089844 54.207031 62.886719 C 54.207031 62.496094 54.167969 62.136719 54.167969 61.84375 C 54.167969 61.640625 54.1875 61.472656 54.230469 61.34375 L 53.890625 61.226563 L 54.101563 61.519531 C 54.300781 61.371094 54.625 61.277344 55.011719 61.21875 C 55.398438 61.164063 55.84375 61.140625 56.285156 61.089844 L 57.511719 60.953125 L 56.402344 60.410156 C 55.84375 60.132813 55.15625 59.980469 54.472656 59.980469 C 54.15625 59.980469 53.84375 60.011719 53.542969 60.085938 L 53.628906 60.4375 L 53.988281 60.425781 C 53.976563 60.085938 53.894531 59.804688 53.796875 59.566406 C 53.703125 59.328125 53.601563 59.132813 53.535156 58.941406 L 53.195313 59.058594 L 53.316406 59.398438 C 53.6875 59.265625 54.09375 59.011719 54.554688 58.707031 C 55.246094 58.253906 56.046875 57.675781 56.84375 57.21875 C 57.636719 56.757813 58.429688 56.433594 59.035156 56.441406 C 59.300781 56.441406 59.53125 56.496094 59.734375 56.613281 L 59.738281 56.613281 C 59.789063 56.644531 59.863281 56.710938 59.941406 56.820313 C 60.078125 57.007813 60.214844 57.3125 60.335938 57.679688 C 60.691406 58.773438 60.878906 60.398438 60.921875 61.335938 C 60.925781 61.480469 60.929688 61.628906 60.929688 61.773438 C 60.929688 62.28125 60.886719 62.777344 60.792969 63.199219 C 60.703125 63.621094 60.558594 63.96875 60.390625 64.1875 L 60.675781 64.40625 L 60.683594 64.046875 L 60.675781 64.40625 L 60.960938 64.625 C 61.226563 64.28125 61.390625 63.839844 61.5 63.351563 C 61.605469 62.863281 61.652344 62.324219 61.652344 61.773438 C 61.652344 61.617188 61.648438 61.457031 61.640625 61.300781 C 61.605469 60.546875 61.488281 59.414063 61.265625 58.382813 C 61.152344 57.863281 61.015625 57.375 60.835938 56.960938 C 60.746094 56.753906 60.644531 56.5625 60.527344 56.398438 C 60.410156 56.234375 60.273438 56.09375 60.097656 55.992188 L 60.101563 55.992188 C 59.769531 55.800781 59.40625 55.71875 59.035156 55.71875 C 58.472656 55.71875 57.902344 55.898438 57.332031 56.152344 C 56.480469 56.539063 55.628906 57.113281 54.871094 57.625 C 54.496094 57.878906 54.144531 58.121094 53.835938 58.316406 C 53.527344 58.507813 53.257813 58.652344 53.074219 58.71875 L 52.738281 58.839844 L 52.855469 59.175781 C 52.945313 59.433594 53.050781 59.640625 53.128906 59.835938 C 53.207031 60.03125 53.261719 60.214844 53.269531 60.449219 L 53.285156 60.894531 L 53.714844 60.789063 C 53.949219 60.730469 54.210938 60.699219 54.472656 60.703125 C 55.042969 60.699219 55.640625 60.835938 56.085938 61.054688 L 56.246094 60.734375 L 56.203125 60.375 C 55.792969 60.421875 55.34375 60.441406 54.90625 60.507813 C 54.472656 60.574219 54.042969 60.675781 53.679688 60.933594 L 53.585938 61 L 53.550781 61.109375 C 53.464844 61.351563 53.445313 61.601563 53.445313 61.84375 C 53.445313 62.195313 53.484375 62.546875 53.484375 62.886719 C 53.484375 63.0625 53.476563 63.234375 53.449219 63.402344 L 53.394531 63.71875 L 53.707031 63.808594 C 55.761719 64.386719 58.09375 64.691406 60.664063 64.765625 L 60.847656 64.773438 L 60.960938 64.625 L 60.675781 64.40625 "/>
<path style=" stroke:none;fill-rule:nonzero;fill:rgb(83.099365%,22.399902%,19.999695%);fill-opacity:1;" d="M 48.480469 60.238281 C 48.472656 60.429688 48.464844 60.625 48.457031 60.820313 C 47.660156 61.34375 46.378906 61.335938 45.503906 61.777344 C 46.789063 61.832031 47.804688 62.144531 48.683594 62.582031 C 48.664063 63.066406 48.644531 63.550781 48.625 64.039063 C 47.164063 65.039063 45.832031 66.523438 44.113281 67.460938 C 43.300781 67.90625 40.453125 69.046875 39.585938 68.84375 C 39.097656 68.730469 39.054688 68.125 38.859375 67.550781 C 38.441406 66.324219 37.484375 64.375 37.398438 62.53125 C 37.292969 60.203125 37.058594 56.300781 39.566406 56.78125 C 41.59375 57.164063 43.949219 58.097656 45.515625 58.957031 C 46.472656 59.480469 47.027344 60.125 48.480469 60.238281 "/>
<path style=" stroke:none;fill-rule:nonzero;fill:rgb(83.099365%,22.399902%,19.999695%);fill-opacity:1;" d="M 48.480469 60.238281 L 48.121094 60.226563 C 48.113281 60.417969 48.105469 60.609375 48.097656 60.804688 L 48.457031 60.820313 L 48.261719 60.519531 C 47.9375 60.734375 47.457031 60.863281 46.929688 60.976563 C 46.40625 61.097656 45.84375 61.203125 45.339844 61.453125 L 44.105469 62.078125 L 45.488281 62.136719 C 46.726563 62.191406 47.683594 62.484375 48.523438 62.902344 L 48.683594 62.582031 L 48.320313 62.566406 C 48.300781 63.050781 48.285156 63.539063 48.265625 64.023438 L 48.625 64.039063 L 48.421875 63.742188 C 47.664063 64.257813 46.960938 64.886719 46.234375 65.496094 C 45.511719 66.105469 44.765625 66.695313 43.941406 67.144531 C 43.601563 67.332031 42.796875 67.683594 41.96875 67.976563 C 41.554688 68.125 41.132813 68.257813 40.753906 68.355469 C 40.378906 68.453125 40.042969 68.507813 39.832031 68.507813 C 39.757813 68.507813 39.699219 68.5 39.667969 68.492188 C 39.613281 68.476563 39.59375 68.464844 39.558594 68.429688 C 39.507813 68.378906 39.445313 68.253906 39.390625 68.074219 C 39.332031 67.894531 39.28125 67.671875 39.199219 67.433594 C 38.984375 66.800781 38.640625 66.011719 38.34375 65.15625 C 38.046875 64.300781 37.796875 63.382813 37.761719 62.515625 C 37.734375 61.949219 37.699219 61.296875 37.699219 60.644531 C 37.699219 59.703125 37.773438 58.753906 38.011719 58.09375 C 38.128906 57.761719 38.285156 57.507813 38.46875 57.347656 C 38.652344 57.191406 38.855469 57.101563 39.164063 57.101563 C 39.265625 57.101563 39.378906 57.109375 39.5 57.132813 C 41.472656 57.507813 43.8125 58.433594 45.34375 59.273438 C 45.792969 59.515625 46.167969 59.808594 46.640625 60.066406 C 47.109375 60.328125 47.675781 60.539063 48.453125 60.597656 L 48.480469 60.238281 L 48.121094 60.226563 L 48.480469 60.238281 L 48.507813 59.878906 C 47.832031 59.824219 47.394531 59.65625 46.984375 59.433594 C 46.578125 59.214844 46.199219 58.917969 45.6875 58.640625 C 44.085938 57.765625 41.714844 56.824219 39.636719 56.425781 C 39.472656 56.394531 39.316406 56.378906 39.164063 56.378906 C 38.703125 56.375 38.292969 56.535156 37.988281 56.808594 C 37.53125 57.222656 37.296875 57.824219 37.15625 58.492188 C 37.019531 59.164063 36.980469 59.910156 36.980469 60.644531 C 36.980469 61.324219 37.011719 61.984375 37.039063 62.546875 C 37.085938 63.527344 37.355469 64.503906 37.664063 65.390625 C 37.972656 66.277344 38.316406 67.078125 38.515625 67.667969 C 38.605469 67.925781 38.664063 68.21875 38.777344 68.503906 C 38.835938 68.648438 38.910156 68.792969 39.03125 68.917969 C 39.148438 69.046875 39.316406 69.152344 39.503906 69.195313 C 39.609375 69.21875 39.71875 69.226563 39.832031 69.226563 C 40.152344 69.226563 40.523438 69.15625 40.933594 69.054688 C 41.542969 68.898438 42.230469 68.660156 42.84375 68.421875 C 43.453125 68.179688 43.980469 67.945313 44.289063 67.777344 C 45.183594 67.289063 45.964844 66.667969 46.699219 66.050781 C 47.433594 65.429688 48.125 64.816406 48.828125 64.335938 L 48.980469 64.234375 L 48.984375 64.050781 C 49.003906 63.566406 49.023438 63.082031 49.042969 62.59375 L 49.050781 62.363281 L 48.84375 62.257813 C 47.925781 61.800781 46.855469 61.472656 45.519531 61.417969 L 45.503906 61.777344 L 45.664063 62.097656 C 46.039063 61.910156 46.554688 61.800781 47.089844 61.683594 C 47.625 61.558594 48.179688 61.429688 48.65625 61.121094 L 48.8125 61.019531 L 48.820313 60.835938 C 48.828125 60.640625 48.835938 60.445313 48.839844 60.25 L 48.851563 59.90625 L 48.507813 59.878906 L 48.480469 60.238281 "/>
<path style=" stroke:none;fill-rule:nonzero;fill:rgb(83.099365%,22.399902%,19.999695%);fill-opacity:1;" d="M 49.929688 63.015625 C 49.707031 61.75 49.449219 61.386719 49.550781 60.28125 C 52.933594 58.023438 53.570313 64.15625 49.929688 63.015625 "/>
<path style=" stroke:none;fill-rule:nonzero;fill:rgb(83.099365%,22.399902%,19.999695%);fill-opacity:1;" d="M 49.929688 63.015625 L 50.285156 62.957031 C 50.1875 62.402344 50.085938 62.015625 50.011719 61.6875 C 49.933594 61.359375 49.890625 61.09375 49.886719 60.738281 C 49.886719 60.613281 49.894531 60.472656 49.910156 60.3125 L 49.550781 60.28125 L 49.75 60.582031 C 50.242188 60.25 50.640625 60.136719 50.941406 60.136719 C 51.121094 60.136719 51.265625 60.175781 51.394531 60.242188 C 51.589844 60.34375 51.742188 60.507813 51.855469 60.726563 C 51.964844 60.941406 52.027344 61.207031 52.027344 61.46875 C 52.027344 61.820313 51.917969 62.164063 51.71875 62.398438 C 51.515625 62.636719 51.234375 62.796875 50.777344 62.800781 C 50.570313 62.800781 50.324219 62.761719 50.039063 62.671875 L 49.929688 63.015625 L 50.285156 62.957031 L 49.929688 63.015625 L 49.824219 63.363281 C 50.164063 63.46875 50.484375 63.519531 50.777344 63.519531 C 51.417969 63.523438 51.945313 63.261719 52.273438 62.863281 C 52.601563 62.464844 52.746094 61.964844 52.746094 61.46875 C 52.746094 60.972656 52.601563 60.480469 52.300781 60.085938 C 52.148438 59.890625 51.957031 59.71875 51.726563 59.601563 C 51.496094 59.484375 51.226563 59.414063 50.941406 59.417969 C 50.457031 59.417969 49.925781 59.597656 49.347656 59.980469 L 49.207031 60.074219 L 49.191406 60.246094 C 49.175781 60.425781 49.167969 60.585938 49.167969 60.738281 C 49.167969 61.164063 49.226563 61.5 49.304688 61.847656 C 49.386719 62.195313 49.484375 62.558594 49.574219 63.078125 L 49.613281 63.296875 L 49.824219 63.363281 L 49.929688 63.015625 "/>
<path style=" stroke:none;fill-rule:nonzero;fill:rgb(93.699646%,24.299622%,23.098755%);fill-opacity:1;" d="M 54.828125 64.046875 C 54.828125 64.046875 53.777344 62.542969 54.527344 62.09375 C 55.28125 61.640625 56.03125 62.09375 56.484375 61.339844 C 56.933594 60.589844 56.484375 60.136719 56.632813 59.238281 C 56.78125 58.335938 57.535156 58.183594 58.285156 58.035156 C 59.035156 57.882813 61.140625 57.582031 61.441406 58.335938 L 60.539063 55.628906 L 58.738281 55.027344 L 53.027344 58.335938 L 52.726563 59.988281 L 52.726563 63.292969 "/>
<path style=" stroke:none;fill-rule:nonzero;fill:rgb(93.699646%,24.299622%,23.098755%);fill-opacity:1;" d="M 39.050781 69.003906 C 38.871094 66.660156 38.679688 64.316406 38.464844 61.976563 C 38.148438 58.476563 39.304688 59.085938 42.339844 59.085938 C 42.800781 59.085938 45.191406 59.640625 45.363281 59.988281 C 46.179688 61.664063 43.992188 61.289063 46.304688 62.550781 C 48.261719 63.617188 51.710938 61.90625 50.921875 59.539063 C 50.480469 59.011719 48.621094 59.375 47.953125 59.027344 C 46.78125 58.417969 45.605469 57.808594 44.429688 57.203125 C 42.9375 56.425781 39.484375 55.296875 37.894531 56.378906 C 33.855469 59.125 38.148438 65.980469 39.585938 68.84375 "/>
<path style=" stroke:none;fill-rule:nonzero;fill:rgb(13.299561%,12.199402%,12.5%);fill-opacity:1;" d="M 43.003906 15.761719 C 38.910156 14.808594 36.875 17.476563 35.632813 20.242188 C 34.523438 19.972656 34.964844 18.464844 35.246094 17.699219 C 35.976563 15.679688 38.933594 12.996094 41.347656 13.359375 C 42.386719 13.519531 43.789063 14.46875 43.003906 15.761719 "/>
<path style=" stroke:none;fill-rule:nonzero;fill:rgb(13.299561%,12.199402%,12.5%);fill-opacity:1;" d="M 62.960938 20.425781 C 63.027344 20.425781 63.09375 20.429688 63.15625 20.433594 C 64.082031 22.355469 64.882813 24.390625 66.050781 26.089844 C 65.269531 27.910156 60.128906 29.523438 60.207031 26.253906 C 61.320313 25.765625 63.238281 26.152344 64.222656 25.53125 C 63.652344 23.96875 62.832031 22.636719 62.960938 20.425781 "/>
<path style=" stroke:none;fill-rule:nonzero;fill:rgb(13.299561%,12.199402%,12.5%);fill-opacity:1;" d="M 45.101563 20.476563 C 45.980469 22.085938 46.265625 23.777344 47.515625 24.992188 C 48.078125 25.542969 49.167969 26.207031 48.628906 27.730469 C 48.5 28.089844 47.574219 28.894531 47.042969 29.050781 C 45.089844 29.625 40.542969 29.167969 42.082031 26.734375 C 43.695313 26.8125 45.867188 27.785156 47.070313 26.613281 C 46.144531 25.132813 44.492188 22.203125 45.101563 20.476563 "/>
<path style=" stroke:none;fill-rule:nonzero;fill:rgb(13.299561%,12.199402%,12.5%);fill-opacity:1;" d="M 62.230469 36.835938 C 59.289063 38.726563 56.015625 40.777344 51.199219 40.300781 C 50.167969 39.40625 49.777344 37.417969 50.777344 36.101563 C 51.296875 36.996094 50.96875 38.640625 52.421875 38.890625 C 55.152344 39.355469 58.332031 37.21875 60.296875 36.472656 C 61.515625 34.417969 60.191406 33.660156 59.09375 32.339844 C 56.847656 29.628906 53.832031 26.269531 53.941406 22.214844 C 54.851563 21.558594 54.929688 23.222656 55.058594 23.523438 C 56.234375 26.269531 59.1875 29.78125 61.34375 32.132813 C 61.871094 32.710938 62.742188 33.269531 62.839844 33.652344 C 63.117188 34.765625 62.113281 36.097656 62.230469 36.835938 "/>
<path style=" stroke:none;fill-rule:nonzero;fill:rgb(13.299561%,12.199402%,12.5%);fill-opacity:1;" d="M 23.488281 34.851563 C 22.570313 34.324219 22.347656 32.007813 21.269531 31.945313 C 19.722656 31.851563 20.003906 34.949219 20.011719 36.757813 C 18.945313 35.792969 18.761719 32.820313 19.539063 31.292969 C 18.652344 30.855469 18.253906 31.773438 17.757813 32.097656 C 18.394531 27.488281 24.503906 29.960938 23.488281 34.851563 "/>
<path style=" stroke:none;fill-rule:nonzero;fill:rgb(13.299561%,12.199402%,12.5%);fill-opacity:1;" d="M 64.101563 38.757813 C 62.730469 41.363281 60.796875 44.230469 56.785156 44.3125 C 56.703125 43.472656 56.640625 42.191406 56.789063 41.6875 C 59.855469 41.390625 61.75 39.828125 64.101563 38.757813 "/>
<path style=" stroke:none;fill-rule:nonzero;fill:rgb(13.299561%,12.199402%,12.5%);fill-opacity:1;" d="M 44.871094 40.445313 C 47.429688 41.792969 52.136719 41.9375 55.613281 41.835938 C 55.800781 42.597656 55.796875 43.539063 55.804688 44.46875 C 51.332031 44.691406 46.042969 43.585938 44.871094 40.445313 "/>
<path style=" stroke:none;fill-rule:nonzero;fill:rgb(13.299561%,12.199402%,12.5%);fill-opacity:1;" d="M 44.382813 42.957031 C 46.152344 47.402344 52.238281 46.890625 57.371094 46.765625 C 57.144531 47.34375 56.65625 48.027344 56.046875 48.273438 C 54.402344 48.941406 49.867188 49.449219 47.582031 48.238281 C 46.136719 47.46875 45.207031 45.726563 44.414063 44.707031 C 44.03125 44.214844 42.121094 42.960938 44.382813 42.957031 "/>
<path style=" stroke:none;fill-rule:nonzero;fill:rgb(50.59967%,68.998718%,76.899719%);fill-opacity:1;" d="M 62.015625 67.472656 C 59.9375 71.03125 57.949219 74.6875 55.484375 77.824219 C 56.519531 74.785156 56.960938 69.703125 57.117188 65.824219 C 59.277344 64.8125 61.128906 66.054688 62.015625 67.472656 "/>
<path style=" stroke:none;fill-rule:nonzero;fill:rgb(13.299561%,12.199402%,12.5%);fill-opacity:1;" d="M 73.195313 80.261719 C 70.867188 80.726563 69.234375 82.988281 66.964844 82.84375 C 68.210938 81.085938 70.398438 80.34375 73.195313 80.261719 "/>
<path style=" stroke:none;fill-rule:nonzero;fill:rgb(13.299561%,12.199402%,12.5%);fill-opacity:1;" d="M 74.21875 83.902344 C 72.324219 84.101563 70.097656 84.410156 68.175781 84.25 C 69.085938 82.859375 72.59375 83.339844 74.21875 83.902344 "/>
<path style=" stroke:none;fill-rule:nonzero;fill:rgb(13.299561%,12.199402%,12.5%);fill-opacity:1;" d="M 74.878906 87.039063 C 72.746094 87.085938 70.097656 87.042969 68.074219 86.875 C 69.269531 85.585938 73.496094 86.398438 74.878906 87.039063 "/>
<path style=" stroke:none;fill-rule:nonzero;fill:rgb(86.299133%,85.099792%,84.698486%);fill-opacity:1;" d="M 58.007813 95.628906 C 58.3125 98.304688 59.371094 101.015625 59.238281 103.945313 C 58.0625 104.34375 57.386719 104.691406 55.808594 104.6875 C 55.695313 102.199219 55.363281 98.390625 55.460938 96.015625 C 56.238281 96.070313 57.382813 95.460938 58.007813 95.628906 "/>
<path style=" stroke:none;fill-rule:nonzero;fill:rgb(94.099426%,83.898926%,72.198486%);fill-opacity:1;" d="M 54.570313 56.191406 C 53.503906 56.890625 52.589844 57.761719 51.5625 58.507813 C 49.285156 58.621094 48.042969 58.351563 46.367188 57.042969 C 46.394531 56.9375 46.5625 56.984375 46.570313 56.855469 C 49.007813 57.941406 52.109375 56.414063 54.570313 56.191406 "/>
<path style=" stroke:none;fill-rule:nonzero;fill:rgb(50.59967%,68.998718%,76.899719%);fill-opacity:1;" d="M 41.769531 72.820313 C 42.4375 69.914063 45.0625 68.410156 47.449219 66.8125 C 49.910156 69.9375 51.40625 73.953125 53.054688 77.828125 C 49.160156 76.65625 45.179688 74.75 41.769531 72.820313 "/>
<g clip-path="url(#clip1)" clip-rule="nonzero">
<path style=" stroke:none;fill-rule:nonzero;fill:rgb(13.299561%,12.199402%,12.5%);fill-opacity:1;" d="M 65.121094 77.710938 C 68.765625 75.898438 75.578125 72.832031 77.863281 77.71875 C 78.707031 79.519531 79.699219 82.5625 80.136719 84.421875 C 80.753906 87.046875 79.464844 92.558594 76.769531 93.4375 C 74.390625 94.214844 71.609375 94.167969 68.742188 93.589844 C 68.40625 93.308594 68.03125 92.820313 67.765625 92.308594 C 65.71875 92.230469 63.800781 92.421875 62.183594 93.261719 C 62.335938 94.777344 61.3125 95.019531 60.351563 95.332031 C 59.640625 98.152344 61.777344 101.839844 61.265625 104.414063 C 60.902344 106.246094 58.644531 106.53125 56.988281 106.875 C 56.933594 107.894531 57.058594 108.742188 57.171875 109.605469 C 56.792969 111.003906 55.09375 111.796875 53.480469 111.992188 C 48.179688 112.628906 40.132813 112.917969 35.03125 111.082031 C 33.609375 107.59375 32.488281 103.347656 31.300781 99.363281 C 26.328125 99.894531 22.304688 97.214844 18.515625 95.460938 C 17.203125 94.855469 15.386719 94.519531 14.894531 93.472656 C 14.417969 92.460938 14.613281 90.523438 14.496094 88.691406 C 14.195313 84.011719 13.9375 79.5 12.703125 74.710938 C 12.148438 72.558594 11.183594 70.664063 10.507813 68.59375 C 9.882813 66.671875 8.792969 64.300781 8.511719 62.386719 C 8.089844 59.550781 10.761719 59.390625 12.46875 58.160156 C 15.109375 56.261719 17.183594 55.210938 20.042969 53.492188 C 20.890625 52.984375 23.445313 51.699219 23.734375 51.105469 C 24.3125 49.933594 22.742188 48.277344 22.324219 47.355469 C 21.660156 45.898438 21.316406 44.664063 21.21875 43.226563 C 18.820313 42.847656 17 41.421875 15.902344 39.808594 C 14.085938 37.144531 12.824219 32.214844 14.398438 28.464844 C 14.519531 28.171875 15.136719 27.589844 15.226563 27.136719 C 15.40625 26.242188 14.890625 25.054688 14.859375 24.105469 C 14.691406 19.234375 15.683594 15.035156 18.964844 13.5625 C 20.296875 8.257813 25.0625 6.492188 29.554688 3.855469 C 31.230469 2.871094 33.082031 2.242188 34.996094 1.539063 C 41.851563 -0.984375 52.371094 -0.507813 58.0625 3.792969 C 60.472656 5.617188 64.332031 9.472656 65.710938 12.261719 C 69.355469 19.628906 69.09375 31.9375 66.546875 40.894531 C 66.203125 42.097656 65.707031 43.867188 65.015625 45.3125 C 64.53125 46.320313 63.027344 48.339844 63.210938 49.230469 C 63.398438 50.152344 66.636719 52.613281 67.332031 53.28125 C 68.582031 54.488281 70.960938 56.089844 71.152344 57.613281 C 71.359375 59.234375 70.4375 61.453125 69.972656 63.015625 C 68.410156 68.234375 66.890625 73.058594 65.121094 77.710938 M 56.429688 5.773438 C 51.761719 3.140625 43.863281 1.160156 38.902344 3.636719 C 34.898438 5.632813 29.484375 8.9375 27.640625 13.121094 C 29.363281 17.164063 27.128906 20.863281 26.984375 24.964844 C 26.910156 27.148438 28.011719 29.054688 28.097656 31.429688 C 27.507813 32.402344 25.703125 32.523438 24.457031 32.457031 C 24.035156 30.355469 23.300781 27.992188 21.136719 27.753906 C 18.074219 27.417969 15.835938 29.953125 15.695313 32.601563 C 15.53125 35.71875 18.089844 40.878906 21.714844 40.523438 C 23.113281 40.382813 23.457031 38.980469 24.984375 38.996094 C 25.808594 40.644531 23.707031 41.164063 23.492188 42.34375 C 23.433594 42.648438 23.664063 43.835938 23.800781 44.394531 C 24.457031 47.117188 25.925781 50.636719 27.371094 52.707031 C 29.203125 55.332031 32.804688 55.730469 36.679688 55.988281 C 37.371094 54.496094 39.921875 54.617188 41.582031 55.007813 C 39.59375 54.21875 37.742188 52.308594 36.207031 50.617188 C 34.445313 48.675781 32.660156 46.59375 32.570313 44.054688 C 35.898438 48.675781 38.652344 52.710938 44.707031 54.742188 C 49.285156 56.277344 54.636719 54.035156 58.15625 51.566406 C 59.617188 50.539063 60.488281 48.90625 61.527344 47.414063 C 65.414063 41.828125 67.226563 33.851563 66.828125 26.121094 C 66.664063 22.929688 66.671875 19.753906 65.601563 17.609375 C 64.480469 15.367188 60.699219 13.359375 58.488281 15.386719 C 58.078125 13.207031 60.328125 11.859375 62.972656 12.644531 C 61.085938 10.210938 59.109375 7.285156 56.429688 5.773438 Z M 33.027344 4.574219 C 28.53125 5.851563 22.773438 9.117188 20.925781 13.152344 C 22.355469 12.945313 23.347656 12.226563 24.757813 12.136719 C 25.292969 12.101563 25.992188 12.359375 26.605469 12.207031 C 27.824219 11.902344 28.855469 9.164063 29.777344 8.144531 C 30.675781 7.152344 31.753906 6.726563 32.492188 5.820313 C 32.96875 5.589844 33.671875 5.605469 33.699219 4.894531 C 33.492188 4.671875 33.273438 4.507813 33.027344 4.574219 Z M 18.820313 17.253906 C 16.835938 19.441406 17.25 23.535156 17.492188 26.445313 C 21.082031 24.1875 25.84375 26.625 25.796875 30.464844 C 27.511719 30.417969 26.4375 28.324219 26.128906 26.976563 C 25.117188 22.566406 27.835938 17.78125 26.253906 13.75 C 23.179688 13.984375 20.652344 15.238281 18.820313 17.253906 Z M 58.636719 54.210938 C 62.804688 52.1875 63.554688 61.761719 61.921875 64.84375 C 62.175781 65.765625 63.042969 66.117188 63.398438 66.945313 C 61.074219 71.109375 58.488281 75 56.117188 79.113281 C 57.882813 78.015625 60.402344 78.917969 62.480469 78.097656 C 63.238281 77.796875 63.789063 76.058594 64.363281 74.667969 C 65.945313 70.84375 67.605469 66.019531 68.34375 62.371094 C 68.511719 61.539063 68.964844 59.726563 68.863281 58.984375 C 68.679688 57.660156 66.882813 56.675781 65.96875 55.855469 C 64.28125 54.34375 63.222656 53.011719 61.464844 51.59375 C 60.75 52.648438 59.21875 53.355469 58.636719 54.210938 Z M 28.351563 57.511719 C 27.941406 57.222656 25.179688 53.625 24.800781 53.773438 C 19.796875 55.746094 15.121094 59.15625 10.941406 62.382813 C 14.925781 70.933594 16.535156 81.40625 16.820313 91.503906 C 21.382813 93.640625 25.394531 96.714844 31.585938 97.039063 C 30.871094 91.964844 30.214844 87.441406 29.808594 82.667969 C 28.253906 82.011719 26.019531 82.699219 24.5625 82.464844 C 24.550781 80.710938 26.789063 81.695313 26.972656 80.515625 C 27.113281 79.625 25.742188 79.554688 26.191406 78.148438 C 27.328125 78.5625 27.925781 79.476563 29.140625 79.820313 C 30.25 77.394531 29.125 73.097656 29.285156 71.070313 C 29.316406 70.6875 29.476563 68.960938 30.328125 69.261719 C 31.082031 69.53125 30.285156 73.863281 30.367188 75.78125 C 30.445313 77.550781 30.15625 79.265625 30.871094 80.375 C 36.855469 79.558594 42.9375 79.03125 49.414063 78.855469 C 47.988281 78.242188 46.296875 77.664063 44.441406 76.621094 C 43.433594 76.050781 40.265625 74.871094 39.972656 73.917969 C 39.511719 72.394531 41.1875 71.582031 41.476563 70.277344 C 38.457031 71.925781 37.867188 68.699219 37.152344 66.414063 C 36.503906 64.34375 36.136719 62.796875 35.976563 61.601563 C 33.375 60.359375 30.589844 59.105469 28.351563 57.511719 Z M 61.28125 61.316406 C 61.210938 59.847656 60.824219 56.832031 59.917969 56.304688 C 58.015625 55.191406 54.628906 58.546875 53.195313 59.058594 C 53.351563 59.507813 53.609375 59.863281 53.628906 60.4375 C 54.476563 60.230469 55.511719 60.371094 56.246094 60.734375 C 55.394531 60.828125 54.453125 60.820313 53.890625 61.226563 C 53.683594 61.820313 53.941406 62.632813 53.804688 63.460938 C 55.820313 64.027344 58.125 64.332031 60.675781 64.40625 C 61.171875 63.761719 61.339844 62.535156 61.28125 61.316406 Z M 46.570313 56.855469 C 46.5625 56.984375 46.394531 56.9375 46.367188 57.042969 C 48.042969 58.351563 49.285156 58.621094 51.5625 58.507813 C 52.589844 57.761719 53.503906 56.890625 54.570313 56.191406 C 52.109375 56.414063 49.007813 57.941406 46.570313 56.855469 Z M 30.542969 56.234375 C 29.238281 57.554688 34.191406 59.355469 35.765625 59.453125 C 35.757813 58.617188 36.242188 57.832031 36.144531 57.230469 C 34.273438 56.902344 31.8125 57.117188 30.542969 56.234375 Z M 45.515625 58.957031 C 43.949219 58.097656 41.59375 57.164063 39.566406 56.78125 C 37.058594 56.300781 37.292969 60.203125 37.398438 62.53125 C 37.484375 64.375 38.441406 66.324219 38.859375 67.550781 C 39.054688 68.125 39.097656 68.730469 39.585938 68.84375 C 40.453125 69.046875 43.300781 67.90625 44.113281 67.460938 C 45.832031 66.523438 47.164063 65.039063 48.625 64.039063 C 48.644531 63.550781 48.664063 63.066406 48.683594 62.582031 C 47.804688 62.144531 46.789063 61.832031 45.503906 61.777344 C 46.378906 61.335938 47.660156 61.34375 48.457031 60.820313 C 48.464844 60.625 48.472656 60.429688 48.480469 60.238281 C 47.027344 60.125 46.472656 59.480469 45.515625 58.957031 Z M 49.550781 60.28125 C 49.449219 61.386719 49.707031 61.75 49.929688 63.015625 C 53.570313 64.15625 52.933594 58.023438 49.550781 60.28125 Z M 52.511719 64.1875 C 51.578125 64.089844 50.785156 65.261719 49.570313 64.753906 C 49.292969 65.0625 49.039063 65.394531 48.757813 65.695313 C 51.4375 68.925781 52.65625 73.511719 54.726563 77.308594 C 55.839844 73.660156 55.710938 69.664063 55.957031 65.683594 C 54.429688 65.78125 53.582031 64.300781 52.511719 64.1875 Z M 57.117188 65.824219 C 56.960938 69.703125 56.519531 74.785156 55.484375 77.824219 C 57.949219 74.6875 59.9375 71.03125 62.015625 67.472656 C 61.128906 66.054688 59.277344 64.8125 57.117188 65.824219 Z M 53.054688 77.828125 C 51.40625 73.953125 49.910156 69.9375 47.449219 66.8125 C 45.0625 68.410156 42.4375 69.914063 41.769531 72.820313 C 45.179688 74.75 49.160156 76.65625 53.054688 77.828125 Z M 74.875 92.097656 C 77.222656 91.53125 78.699219 88.65625 78.042969 85.703125 C 77.601563 83.71875 76.816406 79.984375 75.976563 78.714844 C 75.355469 77.777344 73.675781 76.546875 72.332031 77.410156 C 70.148438 78.808594 66.296875 79.214844 64.707031 80.90625 C 65.503906 83.566406 65.753906 87.21875 66.082031 90.589844 C 68.8125 90.761719 72.167969 89.839844 74.4375 90.816406 C 72.855469 91.332031 70.796875 91.335938 69.429688 92.082031 C 70.546875 92.625 73.167969 92.515625 74.875 92.097656 Z M 62.757813 81.027344 C 62.007813 80.855469 61.136719 81.019531 60.417969 81.03125 C 60.757813 84.382813 61.570313 88.078125 61.859375 91.59375 C 62.984375 91.628906 63.585938 91.097656 64.511719 90.921875 C 64.5625 87.835938 64.242188 83.582031 62.757813 81.027344 Z M 54.75 81.6875 C 54.695313 85.796875 54.933594 89.851563 55.25 93.964844 C 56.828125 93.726563 57.898438 93.570313 59.363281 93.25 C 58.886719 89.289063 58.945313 84.832031 57.976563 81.328125 C 56.855469 81.335938 55.867188 81.3125 54.75 81.6875 Z M 30.886719 82.515625 C 31.925781 92.082031 33.433594 100.125 36.199219 108.597656 C 42.335938 110.460938 49.730469 110.625 55.15625 108.941406 C 54.160156 104.160156 54.59375 98.339844 54.015625 93.234375 C 53.574219 89.402344 53.796875 85.542969 53.195313 81.628906 C 46.625 80.261719 37.335938 81.308594 30.886719 82.515625 Z M 55.460938 96.015625 C 55.363281 98.390625 55.695313 102.199219 55.808594 104.6875 C 57.386719 104.691406 58.0625 104.34375 59.238281 103.945313 C 59.371094 101.015625 58.3125 98.304688 58.007813 95.628906 C 57.382813 95.460938 56.238281 96.070313 55.460938 96.015625 "/>
</g>
<path style=" stroke:none;fill-rule:nonzero;fill:rgb(96.899414%,89.399719%,80.39856%);fill-opacity:1;" d="M 40.796875 41.582031 C 40.996094 41.320313 42.082031 40.921875 43.601563 41.652344 C 43.601563 41.652344 41.800781 41.953125 41.949219 44.960938 L 41.199219 44.808594 C 41.199219 44.808594 40.421875 42.082031 40.796875 41.582031 "/>
<path style=" stroke:none;fill-rule:nonzero;fill:rgb(10.998535%,9.799194%,9.799194%);fill-opacity:1;" d="M 53.972656 67.425781 C 53.972656 67.882813 53.601563 68.253906 53.144531 68.253906 C 52.691406 68.253906 52.320313 67.882813 52.320313 67.425781 C 52.320313 66.96875 52.691406 66.597656 53.144531 66.597656 C 53.601563 66.597656 53.972656 66.96875 53.972656 67.425781 "/>
<path style=" stroke:none;fill-rule:nonzero;fill:rgb(10.998535%,9.799194%,9.799194%);fill-opacity:1;" d="M 54.800781 71.257813 C 54.800781 71.714844 54.429688 72.085938 53.972656 72.085938 C 53.515625 72.085938 53.144531 71.714844 53.144531 71.257813 C 53.144531 70.800781 53.515625 70.429688 53.972656 70.429688 C 54.429688 70.429688 54.800781 70.800781 54.800781 71.257813 "/>
<path style=" stroke:none;fill-rule:nonzero;fill:rgb(0.799561%,0.799561%,0.799561%);fill-opacity:1;" d="M 141.421875 35.167969 L 117.394531 35.167969 L 117.394531 37.640625 C 117.988281 37.722656 118.738281 37.863281 119.640625 38.050781 C 120.542969 38.242188 121.3125 38.476563 121.949219 38.75 C 122.839844 39.128906 123.402344 39.574219 123.636719 40.082031 C 123.871094 40.589844 123.988281 41.222656 123.988281 41.984375 L 123.988281 67.398438 C 123.988281 71.078125 123.261719 73.828125 121.8125 75.644531 C 120.359375 77.464844 118.363281 78.375 115.820313 78.375 C 115.160156 78.375 114.515625 78.226563 113.878906 77.929688 C 113.242188 77.632813 112.832031 77.273438 112.640625 76.851563 L 112.640625 76.441406 C 113.84375 75.46875 114.917969 74.40625 115.859375 73.253906 C 116.796875 72.101563 117.269531 70.851563 117.269531 69.496094 C 117.269531 67.914063 116.722656 66.582031 115.636719 65.503906 C 114.546875 64.425781 113.085938 63.886719 111.246094 63.886719 C 109.300781 63.886719 107.773438 64.53125 106.664063 65.820313 C 105.554688 67.109375 105 68.738281 105 70.703125 C 105 74.019531 106.210938 76.628906 108.628906 78.53125 C 111.050781 80.433594 114.234375 81.386719 118.1875 81.386719 C 120.46875 81.386719 122.613281 81.0625 124.621094 80.417969 C 126.628906 79.773438 128.445313 78.816406 130.074219 77.546875 C 131.679688 76.257813 132.945313 74.660156 133.863281 72.757813 C 134.78125 70.851563 135.242188 68.757813 135.242188 66.476563 L 135.242188 41.667969 C 135.242188 40.90625 135.363281 40.230469 135.605469 39.636719 C 135.847656 39.046875 136.402344 38.632813 137.269531 38.402344 C 138.011719 38.210938 138.675781 38.0625 139.269531 37.957031 C 139.859375 37.851563 140.578125 37.746094 141.421875 37.640625 Z M 176.609375 70.828125 C 175.488281 72.5 174.136719 73.878906 172.550781 74.964844 C 170.96875 76.054688 169.179688 76.597656 167.195313 76.597656 C 163.558594 76.597656 160.90625 75.46875 159.238281 73.207031 C 157.570313 70.945313 156.734375 67.648438 156.734375 63.316406 L 178.164063 63.316406 L 178.164063 61.253906 C 178.164063 59.460938 177.886719 57.742188 177.339844 56.105469 C 176.789063 54.46875 175.910156 53.046875 174.707031 51.839844 C 173.460938 50.574219 171.886719 49.578125 169.984375 48.859375 C 168.082031 48.144531 165.652344 47.78125 162.695313 47.78125 C 159.988281 47.78125 157.542969 48.25 155.355469 49.179688 C 153.167969 50.109375 151.355469 51.324219 149.917969 52.824219 C 148.460938 54.367188 147.335938 56.125 146.542969 58.101563 C 145.75 60.078125 145.355469 62.144531 145.355469 64.296875 C 145.355469 66.6875 145.71875 68.902344 146.449219 70.941406 C 147.175781 72.980469 148.28125 74.75 149.761719 76.25 C 151.238281 77.75 153.113281 78.945313 155.386719 79.832031 C 157.65625 80.71875 160.359375 81.164063 163.484375 81.164063 C 165.367188 81.164063 167.03125 80.957031 168.480469 80.542969 C 169.925781 80.132813 171.359375 79.523438 172.773438 78.722656 C 174.105469 77.960938 175.292969 77.046875 176.339844 75.980469 C 177.386719 74.914063 178.277344 73.777344 179.019531 72.574219 Z M 156.734375 60.652344 C 156.816406 57.082031 157.347656 54.472656 158.320313 52.824219 C 159.289063 51.175781 160.589844 50.351563 162.21875 50.351563 C 163.167969 50.351563 163.957031 50.605469 164.578125 51.113281 C 165.203125 51.617188 165.695313 52.371094 166.054688 53.363281 C 166.371094 54.207031 166.59375 55.296875 166.71875 56.628906 C 166.847656 57.957031 166.910156 59.257813 166.910156 60.527344 Z M 223.90625 77.835938 C 223.269531 77.769531 222.707031 77.664063 222.210938 77.515625 C 221.714844 77.371094 221.296875 77.222656 220.957031 77.074219 C 220.324219 76.800781 219.890625 76.429688 219.65625 75.964844 C 219.425781 75.5 219.308594 74.875 219.308594 74.09375 L 219.308594 58.5625 C 219.308594 55.328125 218.449219 52.734375 216.726563 50.777344 C 215.003906 48.824219 212.417969 47.847656 208.976563 47.847656 C 207.539063 47.847656 206.183594 48.027344 204.917969 48.386719 C 203.648438 48.746094 202.625 49.179688 201.84375 49.683594 C 201.125 50.148438 200.34375 50.753906 199.496094 51.492188 C 198.652344 52.230469 197.933594 52.867188 197.339844 53.394531 L 197.214844 53.394531 L 197.214844 48.796875 L 196.738281 48.320313 L 181.617188 49.144531 L 181.617188 51.460938 C 182.316406 51.523438 182.953125 51.640625 183.535156 51.808594 C 184.117188 51.976563 184.597656 52.191406 184.976563 52.441406 C 185.527344 52.84375 185.972656 53.363281 186.308594 53.996094 C 186.648438 54.628906 186.816406 55.273438 186.816406 55.929688 L 186.816406 74.378906 C 186.816406 75.160156 186.691406 75.796875 186.4375 76.28125 C 186.183594 76.765625 185.71875 77.125 185.042969 77.359375 C 184.660156 77.484375 184.203125 77.585938 183.664063 77.660156 C 183.125 77.734375 182.589844 77.792969 182.0625 77.835938 L 182.0625 80.148438 L 201.335938 80.148438 L 201.335938 77.835938 C 200.847656 77.769531 200.351563 77.664063 199.84375 77.515625 C 199.339844 77.371094 198.914063 77.199219 198.578125 77.011719 C 198.089844 76.757813 197.742188 76.382813 197.53125 75.886719 C 197.320313 75.386719 197.214844 74.769531 197.214844 74.03125 L 197.214844 57.007813 C 197.46875 56.671875 197.78125 56.277344 198.152344 55.835938 C 198.523438 55.390625 199.015625 54.957031 199.628906 54.535156 C 200.328125 54.050781 201.046875 53.679688 201.777344 53.425781 C 202.507813 53.171875 203.296875 53.046875 204.144531 53.046875 C 205.691406 53.046875 206.863281 53.589844 207.65625 54.679688 C 208.449219 55.765625 208.847656 57.386719 208.847656 59.542969 L 208.847656 74.378906 C 208.847656 75.246094 208.753906 75.902344 208.5625 76.34375 C 208.371094 76.789063 208.054688 77.125 207.613281 77.359375 C 207.316406 77.507813 206.882813 77.613281 206.3125 77.675781 C 205.742188 77.738281 205.253906 77.792969 204.855469 77.835938 L 204.855469 80.148438 L 223.90625 80.148438 Z M 267.523438 77.835938 C 266.554688 77.75 265.582031 77.539063 264.609375 77.199219 C 263.640625 76.863281 262.828125 76.195313 262.175781 75.203125 C 260.253906 72.351563 258.417969 69.648438 256.667969 67.09375 C 254.917969 64.539063 253.007813 61.761719 250.941406 58.761719 C 251.992188 57.828125 252.925781 57.050781 253.738281 56.425781 C 254.550781 55.800781 255.386719 55.199219 256.253906 54.628906 C 257.558594 53.765625 258.769531 53.070313 259.875 52.554688 C 260.984375 52.035156 262.59375 51.480469 264.703125 50.890625 L 264.703125 48.703125 L 248.597656 48.703125 L 248.597656 50.953125 C 249.941406 51.144531 250.945313 51.367188 251.613281 51.617188 C 252.277344 51.871094 252.613281 52.191406 252.613281 52.570313 C 252.613281 52.65625 252.574219 52.882813 252.503906 53.25 C 252.429688 53.621094 252.042969 54.164063 251.34375 54.882813 C 250.160156 56.089844 248.59375 57.609375 246.644531 59.449219 C 244.691406 61.285156 242.933594 62.902344 241.371094 64.296875 L 241.371094 31.585938 L 240.894531 31.078125 L 225.109375 31.902344 L 225.109375 34.214844 C 225.765625 34.257813 226.492188 34.363281 227.296875 34.53125 C 228.101563 34.703125 228.703125 34.914063 229.105469 35.167969 C 229.695313 35.546875 230.144531 36.113281 230.449219 36.863281 C 230.757813 37.613281 230.910156 38.335938 230.910156 39.035156 L 230.910156 74.378906 C 230.910156 75.160156 230.789063 75.796875 230.542969 76.28125 C 230.300781 76.765625 229.835938 77.125 229.15625 77.359375 C 228.753906 77.484375 228.28125 77.585938 227.753906 77.660156 C 227.21875 77.734375 226.6875 77.792969 226.15625 77.835938 L 226.15625 80.148438 L 245.839844 80.148438 L 245.839844 77.835938 C 245.335938 77.792969 244.828125 77.707031 244.320313 77.582031 C 243.8125 77.453125 243.367188 77.304688 242.988281 77.136719 C 242.355469 76.90625 241.925781 76.546875 241.703125 76.058594 C 241.484375 75.574219 241.371094 74.949219 241.371094 74.1875 L 241.371094 67.277344 L 243.238281 65.699219 C 244.589844 67.617188 246.027344 69.699219 247.546875 71.945313 C 249.066406 74.1875 250.746094 76.921875 252.582031 80.148438 L 267.523438 80.148438 Z M 287.90625 77.835938 C 287.355469 77.769531 286.828125 77.664063 286.320313 77.515625 C 285.816406 77.371094 285.351563 77.199219 284.925781 77.011719 C 284.335938 76.757813 283.882813 76.371094 283.5625 75.851563 C 283.246094 75.335938 283.089844 74.707031 283.089844 73.96875 L 283.089844 48.796875 L 282.613281 48.320313 L 267.078125 49.144531 L 267.078125 51.460938 C 267.714844 51.523438 268.414063 51.671875 269.1875 51.902344 C 269.960938 52.136719 270.535156 52.378906 270.914063 52.632813 C 271.421875 52.972656 271.847656 53.421875 272.183594 53.980469 C 272.523438 54.539063 272.691406 55.191406 272.691406 55.929688 L 272.691406 74.378906 C 272.691406 75.160156 272.554688 75.789063 272.277344 76.265625 C 272.003906 76.742188 271.527344 77.105469 270.851563 77.359375 C 270.472656 77.507813 270.015625 77.613281 269.488281 77.675781 C 268.960938 77.738281 268.421875 77.792969 267.871094 77.835938 L 267.871094 80.148438 L 287.90625 80.148438 Z M 281.441406 32.789063 C 280.214844 31.648438 278.746094 31.078125 277.035156 31.078125 C 275.320313 31.078125 273.847656 31.648438 272.613281 32.789063 C 271.375 33.929688 270.757813 35.304688 270.757813 36.910156 C 270.757813 38.515625 271.375 39.886719 272.613281 41.015625 C 273.847656 42.144531 275.320313 42.710938 277.035156 42.710938 C 278.722656 42.710938 280.1875 42.144531 281.425781 41.015625 C 282.660156 39.886719 283.277344 38.515625 283.277344 36.910156 C 283.277344 35.304688 282.664063 33.929688 281.441406 32.789063 Z M 332.664063 77.835938 C 332.03125 77.769531 331.46875 77.664063 330.972656 77.515625 C 330.472656 77.371094 330.054688 77.222656 329.71875 77.074219 C 329.085938 76.800781 328.652344 76.429688 328.417969 75.964844 C 328.1875 75.5 328.070313 74.875 328.070313 74.09375 L 328.070313 58.5625 C 328.070313 55.328125 327.210938 52.734375 325.488281 50.777344 C 323.765625 48.824219 321.179688 47.847656 317.734375 47.847656 C 316.300781 47.847656 314.945313 48.027344 313.679688 48.386719 C 312.410156 48.746094 311.386719 49.179688 310.605469 49.683594 C 309.886719 50.148438 309.101563 50.753906 308.257813 51.492188 C 307.414063 52.230469 306.695313 52.867188 306.101563 53.394531 L 305.976563 53.394531 L 305.976563 48.796875 L 305.5 48.320313 L 290.378906 49.144531 L 290.378906 51.460938 C 291.078125 51.523438 291.714844 51.640625 292.296875 51.808594 C 292.878906 51.976563 293.359375 52.191406 293.738281 52.441406 C 294.289063 52.84375 294.734375 53.363281 295.070313 53.996094 C 295.410156 54.628906 295.578125 55.273438 295.578125 55.929688 L 295.578125 74.378906 C 295.578125 75.160156 295.449219 75.796875 295.199219 76.28125 C 294.945313 76.765625 294.480469 77.125 293.804688 77.359375 C 293.421875 77.484375 292.964844 77.585938 292.425781 77.660156 C 291.886719 77.734375 291.351563 77.792969 290.824219 77.835938 L 290.824219 80.148438 L 310.097656 80.148438 L 310.097656 77.835938 C 309.609375 77.769531 309.113281 77.664063 308.605469 77.515625 C 308.097656 77.371094 307.675781 77.199219 307.339844 77.011719 C 306.851563 76.757813 306.503906 76.382813 306.292969 75.886719 C 306.082031 75.386719 305.976563 74.769531 305.976563 74.03125 L 305.976563 57.007813 C 306.230469 56.671875 306.542969 56.277344 306.914063 55.835938 C 307.285156 55.390625 307.777344 54.957031 308.390625 54.535156 C 309.089844 54.050781 309.804688 53.679688 310.535156 53.425781 C 311.269531 53.171875 312.058594 53.046875 312.90625 53.046875 C 314.453125 53.046875 315.621094 53.589844 316.417969 54.679688 C 317.210938 55.765625 317.609375 57.386719 317.609375 59.542969 L 317.609375 74.378906 C 317.609375 75.246094 317.515625 75.902344 317.324219 76.34375 C 317.132813 76.789063 316.816406 77.125 316.371094 77.359375 C 316.078125 77.507813 315.644531 77.613281 315.074219 77.675781 C 314.503906 77.738281 314.015625 77.792969 313.613281 77.835938 L 313.613281 80.148438 L 332.664063 80.148438 Z M 360.925781 78.375 C 363.640625 76.472656 365 73.789063 365 70.320313 C 365 67.722656 364.125 65.582031 362.375 63.902344 C 360.621094 62.222656 357.859375 60.894531 354.082031 59.925781 C 351.636719 59.289063 349.730469 58.613281 348.371094 57.894531 C 347.007813 57.175781 346.328125 56.015625 346.328125 54.410156 C 346.328125 53.203125 346.792969 52.265625 347.722656 51.585938 C 348.652344 50.910156 349.933594 50.574219 351.558594 50.574219 C 353.628906 50.574219 355.5625 51.371094 357.359375 52.964844 C 359.15625 54.5625 360.425781 56.457031 361.164063 58.65625 L 363.382813 58.65625 L 362.875 47.847656 L 360.46875 47.847656 L 359.800781 49.71875 C 358.703125 49.253906 357.34375 48.824219 355.726563 48.433594 C 354.109375 48.042969 352.339844 47.847656 350.417969 47.847656 C 346.359375 47.847656 343.078125 48.765625 340.574219 50.605469 C 338.070313 52.441406 336.820313 54.851563 336.820313 57.832031 C 336.820313 59.4375 337.105469 60.824219 337.675781 61.984375 C 338.246094 63.148438 339.007813 64.140625 339.957031 64.964844 C 341.054688 65.894531 342.117188 66.574219 343.144531 67.007813 C 344.167969 67.441406 345.398438 67.871094 346.835938 68.292969 C 348.273438 68.714844 349.484375 69.074219 350.464844 69.371094 C 351.449219 69.667969 352.351563 70.027344 353.175781 70.449219 C 353.914063 70.851563 354.496094 71.324219 354.921875 71.875 C 355.34375 72.425781 355.554688 73.121094 355.554688 73.96875 C 355.554688 75.53125 355.082031 76.6875 354.144531 77.4375 C 353.203125 78.1875 351.769531 78.5625 349.847656 78.5625 C 348.390625 78.5625 347.019531 78.234375 345.742188 77.582031 C 344.464844 76.925781 343.328125 76.121094 342.335938 75.171875 C 341.382813 74.21875 340.539063 73.148438 339.800781 71.953125 C 339.058594 70.761719 338.53125 69.6875 338.214844 68.738281 L 335.898438 68.738281 L 336.3125 80.5625 L 338.785156 80.5625 L 339.734375 78.40625 C 340.8125 79.082031 342.328125 79.71875 344.285156 80.324219 C 346.238281 80.925781 348.242188 81.226563 350.289063 81.226563 C 354.664063 81.226563 358.210938 80.273438 360.925781 78.375 "/>
</g>
</svg>
