<svg xmlns="http://www.w3.org/2000/svg" width="17.161" height="11.451" viewBox="0 0 35.161 23.451">
  <path id="Icon_ionic-ios-arrow-round-forward" data-name="Icon ionic-ios-arrow-round-forward" d="M44.3,31.7a1.6,1.6,0,0,0-.012,2.247l7.426,7.438H23.45a1.588,1.588,0,0,0,0,3.175H51.7L44.274,52a1.607,1.607,0,0,0,.012,2.247,1.581,1.581,0,0,0,2.235-.012L56.584,44.1h0a1.783,1.783,0,0,0,.33-.5,1.515,1.515,0,0,0,.122-.611,1.592,1.592,0,0,0-.452-1.111L46.521,31.74A1.556,1.556,0,0,0,44.3,31.7Z" transform="translate(-21.875 -31.255)" fill="#fff"/>
</svg>
