<?xml version="1.0" standalone="no"?>
<!DOCTYPE svg PUBLIC "-//W3C//DTD SVG 20010904//EN"
 "http://www.w3.org/TR/2001/REC-SVG-20010904/DTD/svg10.dtd">
<svg version="1.0" xmlns="http://www.w3.org/2000/svg"
 width="250" height="70" viewBox="0 0 480.000000 80.000000"
 preserveAspectRatio="xMidYMid meet">

<g transform="translate(0.000000,138.000000) scale(0.100000,-0.100000)"
fill="#000000" stroke="none">
<path d="M888 1247 l-26 -32 -17 23 c-19 27 -51 29 -57 4 -4 -14 5 -22 38 -34
24 -8 41 -12 39 -8 -3 5 11 21 32 37 20 17 32 32 27 36 -6 3 -22 -9 -36 -26z"/>
<path d="M220 1200 c0 -12 49 -45 56 -37 7 7 -32 47 -46 47 -5 0 -10 -4 -10
-10z"/>
<path d="M590 1180 c-22 -6 -20 -8 20 -17 28 -6 52 -6 63 -1 10 5 17 11 15 12
-9 8 -76 12 -98 6z"/>
<path d="M795 1150 c3 -5 10 -10 16 -10 5 0 9 5 9 10 0 6 -7 10 -16 10 -8 0
-12 -4 -9 -10z"/>
<path d="M900 1140 c0 -5 5 -10 11 -10 5 0 7 5 4 10 -3 6 -8 10 -11 10 -2 0
-4 -4 -4 -10z"/>
<path d="M570 1110 c0 -16 7 -20 30 -20 17 0 30 2 30 5 0 2 -13 11 -30 20 -29
15 -30 15 -30 -5z"/>
<path d="M708 1052 c5 -9 12 -24 15 -32 3 -9 6 -4 6 11 1 15 -6 29 -14 33 -12
4 -13 2 -7 -12z"/>
<path d="M252 1048 c-14 -14 -16 -28 -3 -28 9 0 24 30 18 36 -2 2 -9 -2 -15
-8z"/>
<path d="M575 1050 c-3 -5 1 -10 9 -10 9 0 16 5 16 10 0 6 -4 10 -9 10 -6 0
-13 -4 -16 -10z"/>
<path d="M220 990 c-9 -6 -10 -10 -3 -10 6 0 14 -14 18 -31 5 -22 10 -28 18
-20 7 7 7 14 0 23 -6 7 -12 21 -14 30 -3 13 -8 15 -19 8z"/>
<path d="M295 990 c-5 -9 -4 -15 3 -18 15 -5 16 -42 2 -42 -5 0 -10 -7 -10
-15 0 -8 -9 -15 -20 -15 -23 0 -26 -10 -8 -28 9 -9 9 -12 -1 -12 -9 0 -8 -4 3
-15 18 -19 46 -19 46 -1 0 9 -7 12 -21 9 -21 -6 -21 -6 -3 22 10 15 20 23 22
16 9 -27 22 -8 18 27 -7 56 -21 89 -31 72z"/>
<path d="M641 988 c0 -7 4 -22 9 -33 7 -17 9 -15 9 13 1 17 -3 32 -9 32 -5 0
-10 -6 -9 -12z"/>
<path d="M740 983 c0 -10 -3 -29 -7 -42 -4 -16 -2 -22 4 -18 14 9 22 66 11 73
-4 3 -8 -3 -8 -13z"/>
<path d="M686 983 c-12 -12 -6 -43 9 -43 8 0 15 9 15 19 0 21 -13 34 -24 24z"/>
<path d="M800 619 l0 -370 48 3 47 3 3 148 3 147 40 0 c31 0 47 7 70 29 l29
29 0 164 0 164 -28 27 c-26 25 -34 27 -120 27 l-92 0 0 -371z m138 289 c15
-15 17 -241 2 -269 -6 -10 -17 -19 -25 -19 -13 0 -15 25 -15 150 0 153 5 171
38 138z"/>
<path d="M1080 620 l0 -370 100 0 100 0 0 35 0 35 -50 0 -50 0 0 150 0 150 35
0 c34 0 35 1 35 40 0 39 -1 40 -35 40 l-35 0 0 110 0 110 50 0 50 0 0 35 0 35
-100 0 -100 0 0 -370z"/>
<path d="M1310 619 l0 -370 48 3 47 3 3 143 c4 202 19 189 37 -33 10 -117 9
-115 62 -115 l46 0 -7 98 c-4 53 -11 125 -17 160 -8 52 -7 67 6 85 12 17 15
54 15 182 l0 161 -28 27 c-26 25 -34 27 -120 27 l-92 0 0 -371z m138 289 c15
-15 17 -241 2 -269 -6 -10 -17 -19 -25 -19 -13 0 -15 25 -15 150 0 153 5 171
38 138z"/>
<path d="M1644 975 c-42 -29 -45 -56 -42 -368 l3 -297 27 -27 c22 -22 39 -27
87 -31 58 -4 62 -3 96 31 l35 35 0 151 0 151 -50 0 -49 0 -3 -142 c-3 -135 -4
-143 -23 -143 -20 0 -20 7 -20 290 0 283 0 290 20 290 19 0 20 -8 23 -107 l3
-108 49 0 50 0 0 100 c0 109 -14 161 -48 179 -30 16 -134 14 -158 -4z"/>
<path d="M1900 620 l0 -370 100 0 100 0 0 35 0 35 -50 0 -50 0 0 150 0 150 35
0 c34 0 35 1 35 40 0 39 -1 40 -35 40 l-35 0 0 110 0 110 50 0 50 0 0 35 0 35
-100 0 -100 0 0 -370z"/>
<path d="M2130 619 l0 -370 48 3 47 3 3 148 3 147 40 0 c31 0 47 7 70 29 l29
29 0 164 0 164 -28 27 c-26 25 -34 27 -120 27 l-92 0 0 -371z m138 289 c15
-15 17 -241 2 -269 -6 -10 -17 -19 -25 -19 -13 0 -15 25 -15 150 0 153 5 171
38 138z"/>
<path d="M2400 955 c0 -34 1 -35 40 -35 l40 0 2 -332 3 -333 48 -3 47 -3 0
335 0 336 45 0 c45 0 45 0 45 35 l0 35 -135 0 -135 0 0 -35z"/>
<path d="M2690 620 l0 -370 50 0 50 0 0 370 0 370 -50 0 -50 0 0 -370z"/>
<path d="M2869 961 l-29 -29 0 -302 c0 -327 3 -344 55 -368 34 -16 103 -15
135 1 14 7 33 28 42 47 16 31 18 68 18 301 0 147 -3 280 -6 298 -4 17 -18 42
-32 56 -21 22 -34 25 -89 25 -58 0 -68 -3 -94 -29z m116 -63 c3 -13 4 -144 3
-293 l-3 -270 -22 -3 -23 -3 0 289 c0 159 3 292 7 295 13 14 33 6 38 -15z"/>
<path d="M3140 620 l0 -370 50 0 50 0 1 133 1 132 18 -100 c11 -55 22 -115 25
-133 6 -32 7 -33 53 -30 l47 3 3 368 2 367 -50 0 -50 0 -1 -137 -1 -138 -26
138 -25 137 -49 0 -48 0 0 -370z"/>
<path d="M3620 620 l0 -370 50 0 50 0 0 370 0 370 -50 0 -50 0 0 -370z"/>
<path d="M3760 955 c0 -35 0 -35 45 -35 l45 0 0 -336 0 -335 48 3 47 3 3 333
2 332 40 0 c39 0 40 1 40 35 l0 35 -135 0 -135 0 0 -35z"/>
<path d="M573 933 c-1 -24 -1 -25 7 -8 11 26 12 35 2 35 -4 0 -8 -12 -9 -27z"/>
<path d="M651 908 c-9 -25 6 -39 19 -18 6 10 11 8 21 -8 10 -16 16 -18 26 -10
19 16 16 31 -6 25 -13 -3 -21 1 -24 14 -7 26 -26 24 -36 -3z"/>
<path d="M210 891 c0 -7 -4 -10 -9 -6 -16 9 -24 -15 -10 -31 9 -11 9 -18 1
-26 -16 -16 -15 -35 2 -35 9 0 15 17 19 51 3 28 3 53 1 55 -2 2 -4 -1 -4 -8z"/>
<path d="M343 867 c-13 -17 -10 -40 6 -45 8 -3 11 0 7 6 -3 5 1 12 9 16 8 3
15 10 15 15 0 15 -28 21 -37 8z"/>
<path d="M610 869 c-13 -8 -13 -11 2 -23 10 -7 14 -17 10 -21 -4 -4 0 -6 8 -3
8 3 13 14 12 24 -5 27 -15 35 -32 23z"/>
<path d="M683 843 c-16 -6 -17 -23 -2 -23 6 0 17 7 25 15 16 16 4 20 -23 8z"/>
<path d="M725 750 c-3 -5 -1 -10 4 -10 6 0 11 5 11 10 0 6 -2 10 -4 10 -3 0
-8 -4 -11 -10z"/>
<path d="M698 728 c5 -5 16 -8 23 -6 8 3 3 7 -10 11 -17 4 -21 3 -13 -5z"/>
<path d="M254 721 c18 -7 18 -8 -4 -29 -13 -12 -19 -22 -13 -22 7 0 21 13 31
28 l20 28 -26 1 c-22 1 -23 0 -8 -6z"/>
<path d="M570 617 c-14 -7 -37 -21 -53 -31 -22 -15 -30 -16 -42 -6 -8 7 -15 9
-15 4 0 -5 -6 -1 -13 8 -15 20 -87 36 -87 19 0 -6 14 -17 30 -26 31 -16 41
-29 15 -19 -9 4 -15 0 -15 -9 0 -10 13 -18 35 -23 21 -4 32 -10 28 -17 -4 -7
0 -8 12 -4 9 4 24 2 31 -4 11 -9 13 -9 9 2 -4 11 7 18 39 27 44 11 78 51 68
80 -5 15 -11 15 -42 -1z m18 -21 c-10 -7 -15 -15 -12 -18 2 -3 -2 -8 -10 -11
-11 -4 -13 -1 -9 11 7 19 23 32 38 32 6 -1 2 -7 -7 -14z"/>
<path d="M280 590 c0 -5 9 -10 21 -10 11 0 17 5 14 10 -3 6 -13 10 -21 10 -8
0 -14 -4 -14 -10z"/>
<path d="M635 590 c-3 -6 1 -7 9 -4 18 7 21 14 7 14 -6 0 -13 -4 -16 -10z"/>
<path d="M642 556 c-26 -14 -19 -26 15 -26 13 0 23 6 23 14 0 22 -13 26 -38
12z"/>
<path d="M287 554 c-13 -13 5 -24 36 -24 30 1 31 1 13 15 -21 16 -39 19 -49 9z"/>
<path d="M320 510 c0 -5 10 -10 23 -10 18 0 19 2 7 10 -19 13 -30 13 -30 0z"/>
<path d="M383 484 c-24 -14 -43 -27 -43 -30 0 -7 78 35 85 46 9 14 5 13 -42
-16z"/>
<path d="M521 467 c-16 -20 -3 -27 27 -16 14 5 39 7 56 5 l31 -6 -30 15 c-38
18 -69 19 -84 2z"/>
<path d="M446 365 c5 -11 16 -15 38 -13 43 4 39 22 -6 26 -31 3 -37 0 -32 -13z"/>
</g>
</svg>
