<svg xmlns="http://www.w3.org/2000/svg" width="55" height="55" viewBox="0 0 104 83.2">
  <path id="Icon_awesome-sitemap" data-name="Icon awesome-sitemap" d="M20.8,57.2H5.2A5.2,5.2,0,0,0,0,62.4V78a5.2,5.2,0,0,0,5.2,5.2H20.8A5.2,5.2,0,0,0,26,78V62.4A5.2,5.2,0,0,0,20.8,57.2Zm-3.9-13H48.1V52h7.8V44.2H87.1V52h7.8V42.642A6.25,6.25,0,0,0,88.658,36.4H55.9V26h6.5a5.2,5.2,0,0,0,5.2-5.2V5.2A5.2,5.2,0,0,0,62.4,0H41.6a5.2,5.2,0,0,0-5.2,5.2V20.8A5.2,5.2,0,0,0,41.6,26h6.5V36.4H15.342A6.249,6.249,0,0,0,9.1,42.642V52h7.8Zm42.9,13H44.2A5.2,5.2,0,0,0,39,62.4V78a5.2,5.2,0,0,0,5.2,5.2H59.8A5.2,5.2,0,0,0,65,78V62.4A5.2,5.2,0,0,0,59.8,57.2Zm39,0H83.2A5.2,5.2,0,0,0,78,62.4V78a5.2,5.2,0,0,0,5.2,5.2H98.8A5.2,5.2,0,0,0,104,78V62.4A5.2,5.2,0,0,0,98.8,57.2Z" fill="#f7f7f8"/>
</svg>

