<svg xmlns="http://www.w3.org/2000/svg" width="55" height="55" viewBox="0 0 87.908 87.908">
  <path id="Icon_awesome-plus-circle" data-name="Icon awesome-plus-circle" d="M44.517.563A43.954,43.954,0,1,0,88.471,44.517,43.947,43.947,0,0,0,44.517.563ZM70.038,49.479a2.133,2.133,0,0,1-2.127,2.127H51.606V67.911a2.133,2.133,0,0,1-2.127,2.127H39.554a2.133,2.133,0,0,1-2.127-2.127V51.606H21.122a2.133,2.133,0,0,1-2.127-2.127V39.554a2.133,2.133,0,0,1,2.127-2.127H37.427V21.122a2.133,2.133,0,0,1,2.127-2.127h9.925a2.133,2.133,0,0,1,2.127,2.127V37.427H67.911a2.133,2.133,0,0,1,2.127,2.127Z" transform="translate(-0.563 -0.563)" fill="#fcfcfc"/>
</svg>

