<svg xmlns="http://www.w3.org/2000/svg" xmlns:xlink="http://www.w3.org/1999/xlink" width="960" height="361" viewBox="0 0 960 361">
  <defs>
    <clipPath id="clip-PROJECTS_PHONE_VIEW_-_W:960_x_H_750_2">
      <rect width="960" height="361"/>
    </clipPath>
  </defs>
  <g id="PROJECTS_PHONE_VIEW_-_W:960_x_H_750_2" data-name="PROJECTS PHONE VIEW - W:960 x H 750 – 2" clip-path="url(#clip-PROJECTS_PHONE_VIEW_-_W:960_x_H_750_2)">
    <rect width="960" height="361" fill="#010101"/>
    <path id="Path_4778" data-name="Path 4778" d="M39.58,0V-46.45H37.119v20.918H9.775V-46.45H7.314V0H9.775V-23.276H37.119V0ZM59.712.615A13.082,13.082,0,0,0,65.591-.564a11.773,11.773,0,0,0,3.691-2.717,9.392,9.392,0,0,0,1.743-2.632h.137V0h2.393V-25.327a10.73,10.73,0,0,0-1.5-5.879,9.261,9.261,0,0,0-4.17-3.538,15.264,15.264,0,0,0-6.221-1.179,16.813,16.813,0,0,0-5.042.684,11.272,11.272,0,0,0-3.657,1.863,8.749,8.749,0,0,0-2.29,2.649,7.273,7.273,0,0,0-.906,3.042h2.393a6.477,6.477,0,0,1,1.179-2.649,7.6,7.6,0,0,1,2.974-2.358,11.951,11.951,0,0,1,5.212-.974,10.876,10.876,0,0,1,6.938,2.1q2.666,2.1,2.666,6.682v5.161H60.122q-5.913,0-8.921,2.734a9.122,9.122,0,0,0-3.008,7.075,9.751,9.751,0,0,0,3.2,7.708A12.115,12.115,0,0,0,59.712.615Zm.239-2.256a9.729,9.729,0,0,1-6.614-2.239,7.619,7.619,0,0,1-2.581-6.067A7.18,7.18,0,0,1,53.013-15.4q2.256-2.136,7.144-2.136H71.128v5.605a9.559,9.559,0,0,1-1.538,5.4,10.456,10.456,0,0,1-4.067,3.606A12.146,12.146,0,0,1,59.951-1.641ZM83.877,0H86.3V-49.048H83.877ZM97.412,0h2.427V-49.048H97.412Zm12.92,0h2.427V-22.559a13.584,13.584,0,0,1,1.111-5.554,9.473,9.473,0,0,1,3.3-4.033,9.291,9.291,0,0,1,5.435-1.521,9.572,9.572,0,0,1,4.854,1.179,7.93,7.93,0,0,1,3.179,3.452,12.406,12.406,0,0,1,1.128,5.554V0h2.393V-23.174a11.719,11.719,0,0,1,1.128-5.059,9.713,9.713,0,0,1,3.333-3.914,9.31,9.31,0,0,1,5.417-1.521,9.87,9.87,0,0,1,4.717,1.094,7.763,7.763,0,0,1,3.23,3.315,11.88,11.88,0,0,1,1.179,5.605V0h2.427V-24.3q0-5.776-3.23-8.7a11.643,11.643,0,0,0-8.118-2.922,11.175,11.175,0,0,0-5.725,1.333,10.444,10.444,0,0,0-3.469,3.11,10.388,10.388,0,0,0-1.538,3.145h-.137a9.789,9.789,0,0,0-1.743-3.691,9.492,9.492,0,0,0-3.469-2.82,11.793,11.793,0,0,0-5.281-1.077,10.851,10.851,0,0,0-5.349,1.162,9.226,9.226,0,0,0-3.162,2.751,10.318,10.318,0,0,0-1.47,2.888h-.137v-6.187h-2.427Zm64.463.615a13.082,13.082,0,0,0,5.879-1.179,11.773,11.773,0,0,0,3.691-2.717,9.392,9.392,0,0,0,1.743-2.632h.137V0h2.393V-25.327a10.73,10.73,0,0,0-1.5-5.879,9.261,9.261,0,0,0-4.17-3.538,15.264,15.264,0,0,0-6.221-1.179,16.813,16.813,0,0,0-5.042.684,11.272,11.272,0,0,0-3.657,1.863,8.749,8.749,0,0,0-2.29,2.649,7.273,7.273,0,0,0-.906,3.042h2.393a6.477,6.477,0,0,1,1.179-2.649,7.6,7.6,0,0,1,2.974-2.358,11.951,11.951,0,0,1,5.212-.974,10.876,10.876,0,0,1,6.938,2.1q2.666,2.1,2.666,6.682v5.161H175.205q-5.913,0-8.921,2.734a9.122,9.122,0,0,0-3.008,7.075,9.751,9.751,0,0,0,3.2,7.708A12.115,12.115,0,0,0,174.795.615Zm.239-2.256a9.729,9.729,0,0,1-6.614-2.239,7.619,7.619,0,0,1-2.581-6.067A7.18,7.18,0,0,1,168.1-15.4q2.256-2.136,7.144-2.136h10.972v5.605a9.559,9.559,0,0,1-1.538,5.4,10.456,10.456,0,0,1-4.067,3.606A12.146,12.146,0,0,1,175.034-1.641ZM198.447,0h2.427V-21.738a13.68,13.68,0,0,1,1.453-6.665,9.423,9.423,0,0,1,3.828-3.9,10.71,10.71,0,0,1,5.11-1.265,13.4,13.4,0,0,1,2.1.137q.837.137,1.111.205v-2.358q-.342-.068-1.094-.171a14.627,14.627,0,0,0-1.914-.1,11.21,11.21,0,0,0-5.52,1.23,9.755,9.755,0,0,0-3.4,2.991,9.65,9.65,0,0,0-1.538,3.367h-.137v-7.041h-2.427ZM222.3-14.595l5.093-4.614L242.5,0h3.076L229.209-20.815l15.415-14.492h-3.145L222.441-17.534H222.3V-49.048h-2.427V0H222.3Zm55,15.21a15.412,15.412,0,0,0,5.537-.906,12.253,12.253,0,0,0,3.914-2.324,10.727,10.727,0,0,0,2.375-3.025,7.982,7.982,0,0,0,.923-3.042h-2.461a6.768,6.768,0,0,1-1.333,3.162,9.161,9.161,0,0,1-3.367,2.751A12.226,12.226,0,0,1,277.3-1.641a10.723,10.723,0,0,1-8.477-3.572q-3.145-3.572-3.145-10.271v-2.051h24.883V-19.38a21.463,21.463,0,0,0-1.726-9.143,12.435,12.435,0,0,0-4.8-5.537,13.518,13.518,0,0,0-7.144-1.863,13.453,13.453,0,0,0-7.109,1.863,12.435,12.435,0,0,0-4.8,5.537,21.463,21.463,0,0,0-1.726,9.143v3.965a20.237,20.237,0,0,0,1.692,8.682,12.275,12.275,0,0,0,4.836,5.469A14.389,14.389,0,0,0,277.3.615ZM265.679-19.619v-.205a18.109,18.109,0,0,1,1.4-7.5,10.644,10.644,0,0,1,3.931-4.717,10.644,10.644,0,0,1,5.879-1.624,10.791,10.791,0,0,1,5.93,1.624,10.5,10.5,0,0,1,3.931,4.717,18.3,18.3,0,0,1,1.384,7.5v.205ZM319.956,0h2.905q-.855-1.3-1.88-2.751t-2.119-3.025q-1.094-1.572-2.2-3.2t-2.2-3.2q-1.094-1.572-2.119-3.025T310.42-17.91l12.2-17.4h-2.769L309.121-19.893h-.137l-10.63-15.415h-2.905q.855,1.23,1.846,2.666t2.068,2.974q1.077,1.538,2.153,3.11t2.153,3.127q1.077,1.555,2.068,2.991t1.846,2.666L295.176,0h2.734l11.006-15.757h.137Zm17.773.615a13.082,13.082,0,0,0,5.879-1.179A11.773,11.773,0,0,0,347.3-3.281a9.392,9.392,0,0,0,1.743-2.632h.137V0h2.393V-25.327a10.73,10.73,0,0,0-1.5-5.879,9.261,9.261,0,0,0-4.17-3.538,15.264,15.264,0,0,0-6.221-1.179,16.812,16.812,0,0,0-5.042.684,11.272,11.272,0,0,0-3.657,1.863,8.749,8.749,0,0,0-2.29,2.649,7.273,7.273,0,0,0-.906,3.042h2.393a6.477,6.477,0,0,1,1.179-2.649,7.6,7.6,0,0,1,2.974-2.358,11.951,11.951,0,0,1,5.212-.974,10.876,10.876,0,0,1,6.938,2.1q2.666,2.1,2.666,6.682v5.161H338.14q-5.913,0-8.921,2.734a9.122,9.122,0,0,0-3.008,7.075,9.751,9.751,0,0,0,3.2,7.708A12.115,12.115,0,0,0,337.729.615Zm.239-2.256a9.729,9.729,0,0,1-6.614-2.239,7.619,7.619,0,0,1-2.581-6.067A7.18,7.18,0,0,1,331.03-15.4q2.256-2.136,7.144-2.136h10.972v5.605a9.559,9.559,0,0,1-1.538,5.4,10.456,10.456,0,0,1-4.067,3.606A12.146,12.146,0,0,1,337.969-1.641ZM361.279,0h2.427V-22.559a13.584,13.584,0,0,1,1.111-5.554,9.473,9.473,0,0,1,3.3-4.033,9.291,9.291,0,0,1,5.435-1.521,9.572,9.572,0,0,1,4.854,1.179,7.93,7.93,0,0,1,3.179,3.452,12.406,12.406,0,0,1,1.128,5.554V0H385.1V-23.174a11.719,11.719,0,0,1,1.128-5.059,9.713,9.713,0,0,1,3.333-3.914,9.31,9.31,0,0,1,5.417-1.521,9.87,9.87,0,0,1,4.717,1.094,7.763,7.763,0,0,1,3.23,3.315,11.88,11.88,0,0,1,1.179,5.605V0h2.427V-24.3q0-5.776-3.23-8.7a11.643,11.643,0,0,0-8.118-2.922,11.175,11.175,0,0,0-5.725,1.333,10.444,10.444,0,0,0-3.469,3.11,10.389,10.389,0,0,0-1.538,3.145h-.137a9.79,9.79,0,0,0-1.743-3.691,9.492,9.492,0,0,0-3.469-2.82,11.793,11.793,0,0,0-5.281-1.077,10.851,10.851,0,0,0-5.349,1.162,9.226,9.226,0,0,0-3.162,2.751,10.318,10.318,0,0,0-1.47,2.888h-.137v-6.187h-2.427Zm69.282.615a13.876,13.876,0,0,0,6.631-1.641,12.346,12.346,0,0,0,4.956-4.956,16.5,16.5,0,0,0,1.88-8.237v-6.9A16.787,16.787,0,0,0,442.3-29a12.639,12.639,0,0,0-4.751-5.11,13.143,13.143,0,0,0-6.887-1.812,13.142,13.142,0,0,0-5.093.889,11.837,11.837,0,0,0-3.5,2.17,11.709,11.709,0,0,0-2.153,2.581,9.931,9.931,0,0,0-1.008,2.119h-.137v-7.144h-2.393V11.313H418.8V-6.973h.171a11.761,11.761,0,0,0,1.812,3.213,11.283,11.283,0,0,0,3.726,3.076A12.587,12.587,0,0,0,430.562.615Zm-.1-2.256a11.043,11.043,0,0,1-6.152-1.709A11.364,11.364,0,0,1,420.239-8a14.676,14.676,0,0,1-1.436-6.528v-6.255a15.049,15.049,0,0,1,1.333-6.289,11.511,11.511,0,0,1,3.948-4.768,10.784,10.784,0,0,1,6.34-1.829,10.706,10.706,0,0,1,5.657,1.521,10.716,10.716,0,0,1,4,4.443,15.581,15.581,0,0,1,1.487,7.126v5.742A15.679,15.679,0,0,1,440-7.366a10.4,10.4,0,0,1-4.1,4.324A11.036,11.036,0,0,1,430.459-1.641ZM453.154,0h2.427V-49.048h-2.427Zm25.464.615a15.412,15.412,0,0,0,5.537-.906,12.253,12.253,0,0,0,3.914-2.324,10.727,10.727,0,0,0,2.375-3.025,7.982,7.982,0,0,0,.923-3.042h-2.461a6.768,6.768,0,0,1-1.333,3.162,9.161,9.161,0,0,1-3.367,2.751,12.226,12.226,0,0,1-5.588,1.128,10.723,10.723,0,0,1-8.477-3.572Q467-8.784,467-15.483v-2.051H491.88V-19.38a21.463,21.463,0,0,0-1.726-9.143,12.435,12.435,0,0,0-4.8-5.537,13.518,13.518,0,0,0-7.144-1.863A13.453,13.453,0,0,0,471.1-34.06a12.435,12.435,0,0,0-4.8,5.537,21.463,21.463,0,0,0-1.726,9.143v3.965a20.237,20.237,0,0,0,1.692,8.682A12.275,12.275,0,0,0,471.1-1.265,14.389,14.389,0,0,0,478.618.615ZM467-19.619v-.205a18.109,18.109,0,0,1,1.4-7.5,10.644,10.644,0,0,1,3.931-4.717,10.644,10.644,0,0,1,5.879-1.624,10.791,10.791,0,0,1,5.93,1.624,10.5,10.5,0,0,1,3.931,4.717,18.3,18.3,0,0,1,1.384,7.5v.205Zm31.992-6.87a7.641,7.641,0,0,0,1.4,4.751,9.794,9.794,0,0,0,3.965,2.974,39.439,39.439,0,0,0,6.016,2.017q2.6.615,4.99,1.418a10.452,10.452,0,0,1,3.914,2.239A5.145,5.145,0,0,1,520.8-9.16a6.333,6.333,0,0,1-1.436,4.272,8.6,8.6,0,0,1-3.76,2.5,15.207,15.207,0,0,1-5.093.82,12.857,12.857,0,0,1-6.187-1.248,7.759,7.759,0,0,1-3.2-2.974,7.067,7.067,0,0,1-.974-3.162h-2.427a8.822,8.822,0,0,0,1.23,4.272,9.85,9.85,0,0,0,4.016,3.76,15.555,15.555,0,0,0,7.5,1.538A18.244,18.244,0,0,0,516.8-.461a10.518,10.518,0,0,0,4.717-3.3,8.744,8.744,0,0,0,1.777-5.64,7.062,7.062,0,0,0-1.692-5.042,11.181,11.181,0,0,0-4.46-2.786,62.946,62.946,0,0,0-6.084-1.812q-2.29-.615-4.067-1.265a12.84,12.84,0,0,1-2.991-1.5,6.063,6.063,0,0,1-1.863-2.034,5.762,5.762,0,0,1-.649-2.82,5.863,5.863,0,0,1,2.734-5.281,11.736,11.736,0,0,1,6.494-1.76,11.183,11.183,0,0,1,5.657,1.213,7.472,7.472,0,0,1,2.939,2.854,6.4,6.4,0,0,1,.872,2.939h2.393a8.648,8.648,0,0,0-1.145-4.033A9.543,9.543,0,0,0,517.7-34.4a13.742,13.742,0,0,0-6.99-1.521,15.6,15.6,0,0,0-6,1.094,9.58,9.58,0,0,0-4.187,3.2A8.473,8.473,0,0,0,498.989-26.489Zm57.866-9.434a14.91,14.91,0,0,0-7.28,1.777,12.854,12.854,0,0,0-5.144,5.229,17.552,17.552,0,0,0-1.9,8.545V-14.8a17.246,17.246,0,0,0,1.914,8.494,12.761,12.761,0,0,0,5.161,5.178A15.073,15.073,0,0,0,556.855.615a15.093,15.093,0,0,0,7.229-1.726,12.894,12.894,0,0,0,5.178-5.161,17.075,17.075,0,0,0,1.948-8.528v-5.571a17.1,17.1,0,0,0-1.948-8.511,13.3,13.3,0,0,0-5.2-5.247A14.658,14.658,0,0,0,556.855-35.923Zm0,2.256a11.9,11.9,0,0,1,6.05,1.555,10.936,10.936,0,0,1,4.272,4.6,16.168,16.168,0,0,1,1.572,7.485v4.888a16.016,16.016,0,0,1-1.572,7.5,10.7,10.7,0,0,1-4.255,4.495,12.124,12.124,0,0,1-6.033,1.5,12.222,12.222,0,0,1-6.135-1.521,10.6,10.6,0,0,1-4.221-4.512A16.231,16.231,0,0,1,545-15.142v-4.888a16.4,16.4,0,0,1,1.555-7.52,10.719,10.719,0,0,1,4.255-4.58A12,12,0,0,1,556.855-33.667ZM581.533,0h2.427V-33.188h10.117v-2.119H583.96v-4.614q0-3.623,1.538-5.127t5.2-1.5q.991,0,2.119.068a16.279,16.279,0,0,1,1.709.171v-2.119a9.72,9.72,0,0,0-1.777-.256q-1.162-.085-2.153-.085-4.717,0-6.887,2.1t-2.17,6.682v4.683h-6.221v2.119h6.221ZM19.209,39.077a14.91,14.91,0,0,0-7.28,1.777,12.854,12.854,0,0,0-5.144,5.229,17.552,17.552,0,0,0-1.9,8.545V60.2A17.246,17.246,0,0,0,6.8,68.694a12.761,12.761,0,0,0,5.161,5.178,15.073,15.073,0,0,0,7.246,1.743,15.093,15.093,0,0,0,7.229-1.726,12.894,12.894,0,0,0,5.178-5.161A17.075,17.075,0,0,0,33.564,60.2V54.629a17.1,17.1,0,0,0-1.948-8.511,13.3,13.3,0,0,0-5.2-5.247A14.658,14.658,0,0,0,19.209,39.077Zm0,2.256a11.9,11.9,0,0,1,6.05,1.555,10.936,10.936,0,0,1,4.272,4.6A16.168,16.168,0,0,1,31.1,54.971v4.888a16.016,16.016,0,0,1-1.572,7.5,10.7,10.7,0,0,1-4.255,4.495,12.124,12.124,0,0,1-6.033,1.5,12.222,12.222,0,0,1-6.135-1.521,10.6,10.6,0,0,1-4.221-4.512,16.231,16.231,0,0,1-1.538-7.468V54.971A16.4,16.4,0,0,1,8.9,47.451a10.719,10.719,0,0,1,4.255-4.58A12,12,0,0,1,19.209,41.333Zm48.672-1.641H65.454V60.85a14.2,14.2,0,0,1-1.316,5.981,11.527,11.527,0,0,1-3.914,4.7,10.825,10.825,0,0,1-6.392,1.829,10.573,10.573,0,0,1-5.178-1.213,8.346,8.346,0,0,1-3.4-3.452,11.126,11.126,0,0,1-1.2-5.315V39.692H41.631V63.755a12.589,12.589,0,0,0,1.606,6.682,9.986,9.986,0,0,0,4.324,3.9,13.964,13.964,0,0,0,6.033,1.282,13.057,13.057,0,0,0,5.879-1.2,11.47,11.47,0,0,0,5.811-6.46h.171V75h2.427ZM78.1,75h2.427V53.262A13.68,13.68,0,0,1,81.98,46.6a9.423,9.423,0,0,1,3.828-3.9,10.71,10.71,0,0,1,5.11-1.265,13.4,13.4,0,0,1,2.1.137q.837.137,1.111.205V39.419q-.342-.068-1.094-.171a14.627,14.627,0,0,0-1.914-.1,11.21,11.21,0,0,0-5.52,1.23,9.755,9.755,0,0,0-3.4,2.991,9.65,9.65,0,0,0-1.538,3.367h-.137V39.692H78.1Zm74.512-35.308h-2.6l-8.306,31.787h-.171L131.387,39.692h-2.5L118.809,71.479h-.171l-8.306-31.787h-2.7L117.441,75h2.5l10.151-31.855h.137L140.41,75h2.5Zm17.979-.615a14.91,14.91,0,0,0-7.28,1.777,12.854,12.854,0,0,0-5.144,5.229,17.552,17.552,0,0,0-1.9,8.545V60.2a17.246,17.246,0,0,0,1.914,8.494,12.761,12.761,0,0,0,5.161,5.178,15.966,15.966,0,0,0,14.475.017A12.894,12.894,0,0,0,183,68.728a17.075,17.075,0,0,0,1.948-8.528V54.629A17.1,17.1,0,0,0,183,46.118a13.3,13.3,0,0,0-5.2-5.247A14.658,14.658,0,0,0,170.591,39.077Zm0,2.256a11.9,11.9,0,0,1,6.05,1.555,10.936,10.936,0,0,1,4.272,4.6,16.168,16.168,0,0,1,1.572,7.485v4.888a16.016,16.016,0,0,1-1.572,7.5,10.7,10.7,0,0,1-4.255,4.495,12.993,12.993,0,0,1-12.168-.017,10.6,10.6,0,0,1-4.221-4.512,16.231,16.231,0,0,1-1.538-7.468V54.971a16.4,16.4,0,0,1,1.555-7.52,10.719,10.719,0,0,1,4.255-4.58A12,12,0,0,1,170.591,41.333ZM193.457,75h2.427V53.262a13.68,13.68,0,0,1,1.453-6.665,9.423,9.423,0,0,1,3.828-3.9,10.71,10.71,0,0,1,5.11-1.265,13.4,13.4,0,0,1,2.1.137q.837.137,1.111.205V39.419q-.342-.068-1.094-.171a14.627,14.627,0,0,0-1.914-.1,11.21,11.21,0,0,0-5.52,1.23,9.755,9.755,0,0,0-3.4,2.991,9.65,9.65,0,0,0-1.538,3.367h-.137V39.692h-2.427Zm23.857-14.595,5.093-4.614L237.515,75h3.076L224.219,54.185l15.415-14.492h-3.145L217.451,57.466h-.137V25.952h-2.427V75h2.427Z" transform="translate(134.295 104.884)" fill="#fff"/>
  </g>
</svg>
