<?xml version="1.0" encoding="UTF-8"?>
<svg xmlns="http://www.w3.org/2000/svg" xmlns:xlink="http://www.w3.org/1999/xlink" width="1200" height="800" viewBox="0 0 193 193" version="1.1">
<g id="surface1">
<path style=" stroke:none;fill-rule:evenodd;fill:rgb(100%,100%,100%);fill-opacity:1;" d="M 0 0.242188 L 192.757813 0.242188 L 192.757813 193 L 0 193 L 0 0.242188 "/>
<path style=" stroke:none;fill-rule:nonzero;fill:rgb(100%,100%,100%);fill-opacity:1;" d="M 74.359375 24.089844 C 70.644531 24.089844 67.382813 26.046875 65.527344 28.980469 L 83.191406 28.980469 C 81.339844 26.046875 78.078125 24.089844 74.359375 24.089844 "/>
<path style=" stroke:none;fill-rule:nonzero;fill:rgb(100%,100%,100%);fill-opacity:1;" d="M 99.257813 34.566406 L 49.464844 34.566406 C 42.824219 34.566406 37.425781 39.96875 37.425781 46.605469 L 37.425781 77.761719 C 37.425781 84.398438 42.824219 89.800781 49.464844 89.800781 L 99.257813 89.800781 C 105.894531 89.800781 111.296875 84.398438 111.296875 77.761719 L 111.296875 46.605469 C 111.296875 39.96875 105.894531 34.566406 99.257813 34.566406 "/>
<path style=" stroke:none;fill-rule:nonzero;fill:rgb(13.699341%,12.199402%,12.5%);fill-opacity:1;" d="M 99.257813 28.980469 L 89.382813 28.980469 C 87.117188 22.875 81.246094 18.503906 74.359375 18.503906 C 67.472656 18.503906 61.605469 22.875 59.335938 28.980469 L 49.464844 28.980469 C 39.746094 28.980469 31.839844 36.886719 31.839844 46.605469 L 31.839844 77.761719 C 31.839844 87.480469 39.746094 95.386719 49.464844 95.386719 L 99.257813 95.386719 C 108.976563 95.386719 116.882813 87.480469 116.882813 77.761719 L 116.882813 46.605469 C 116.882813 36.886719 108.976563 28.980469 99.257813 28.980469 Z M 74.359375 24.089844 C 78.078125 24.089844 81.339844 26.046875 83.191406 28.980469 L 65.527344 28.980469 C 67.382813 26.046875 70.644531 24.089844 74.359375 24.089844 Z M 111.296875 77.761719 C 111.296875 84.398438 105.894531 89.800781 99.257813 89.800781 L 49.464844 89.800781 C 42.824219 89.800781 37.425781 84.398438 37.425781 77.761719 L 37.425781 46.605469 C 37.425781 39.96875 42.824219 34.566406 49.464844 34.566406 L 99.257813 34.566406 C 105.894531 34.566406 111.296875 39.96875 111.296875 46.605469 L 111.296875 77.761719 "/>
<path style=" stroke:none;fill-rule:nonzero;fill:rgb(92.89856%,10.998535%,14.099121%);fill-opacity:1;" d="M 69.222656 45.085938 C 69.222656 41.542969 71.0625 39.585938 74.359375 39.585938 C 77.65625 39.585938 79.492188 41.542969 79.492188 45.085938 L 79.492188 55.964844 L 89.027344 52.546875 C 90.003906 52.179688 91.351563 51.8125 92.207031 51.8125 C 93.917969 51.8125 97.21875 53.523438 97.21875 57.3125 C 97.21875 59.636719 95.875 61.222656 92.9375 62.078125 L 82.183594 65.253906 L 89.515625 74.789063 C 90.378906 75.894531 90.984375 76.992188 90.984375 78.335938 C 90.984375 82.492188 86.949219 83.46875 85.480469 83.46875 C 83.773438 83.46875 82.183594 82.859375 81.328125 81.515625 L 74.359375 71.125 L 67.390625 81.515625 C 66.535156 82.859375 64.949219 83.46875 63.234375 83.46875 C 61.769531 83.46875 57.734375 82.492188 57.734375 78.335938 C 57.734375 76.992188 58.34375 75.894531 59.199219 74.789063 L 66.535156 65.253906 L 55.777344 62.078125 C 52.84375 61.222656 51.5 59.636719 51.5 57.3125 C 51.5 53.523438 54.800781 51.8125 56.511719 51.8125 C 57.367188 51.8125 58.710938 52.179688 59.6875 52.546875 L 69.222656 55.964844 L 69.222656 45.085938 "/>
<path style=" stroke:none;fill-rule:nonzero;fill:rgb(13.699341%,12.199402%,12.5%);fill-opacity:1;" d="M 81.898438 103.425781 C 78.367188 103.425781 76.722656 106.5625 75.878906 109.597656 L 75.777344 109.597656 L 75.777344 106.808594 C 75.777344 104.621094 74.335938 103.425781 72.492188 103.425781 C 70.652344 103.425781 69.210938 104.621094 69.210938 106.808594 L 69.210938 127.109375 C 69.210938 129.054688 70.007813 130.746094 72.84375 130.746094 C 75.675781 130.746094 76.472656 129.054688 76.472656 127.109375 L 76.472656 118.652344 C 76.472656 112.632813 78.066406 110.59375 81.003906 110.59375 L 82.296875 110.59375 C 84.089844 110.59375 85.878906 109.648438 85.878906 106.960938 C 85.878906 104.917969 84.1875 103.425781 81.898438 103.425781 Z M 50.003906 103.425781 C 41.394531 103.425781 36.269531 109.097656 36.269531 117.558594 C 36.269531 123.878906 40.101563 130.746094 50.25 130.746094 C 54.628906 130.746094 61.644531 128.703125 61.644531 124.328125 C 61.644531 122.984375 60.402344 121.488281 58.660156 121.488281 C 55.722656 121.488281 55.722656 125.074219 50.25 125.074219 C 46.023438 125.074219 43.53125 122.285156 43.53125 118.453125 L 59.953125 118.453125 C 62.394531 118.453125 63.140625 117.804688 63.140625 115.320313 C 63.140625 109.347656 58.363281 103.425781 50.003906 103.425781 Z M 43.53125 114.273438 C 44.332031 110.742188 46.519531 108.503906 50.152344 108.503906 C 53.386719 108.503906 55.875 110.941406 56.273438 114.273438 Z M 22.683594 114.324219 L 19.648438 113.628906 C 17.410156 113.128906 15.769531 112.730469 15.769531 111.039063 C 15.769531 109.496094 17.410156 108.800781 19.949219 108.800781 C 24.527344 108.800781 24.625 112.136719 27.464844 112.136719 C 29.351563 112.136719 30.496094 110.644531 30.496094 108.949219 C 30.496094 105.617188 24.925781 103.425781 19.402344 103.425781 C 14.375 103.425781 8.503906 105.617188 8.503906 111.539063 C 8.503906 116.414063 11.789063 118.15625 16.015625 119.199219 L 20.296875 120.246094 C 22.886719 120.890625 24.476563 121.191406 24.476563 123.03125 C 24.476563 124.523438 22.835938 125.667969 20.246094 125.667969 C 14.875 125.667969 14.574219 121.191406 11.441406 121.191406 C 9.398438 121.191406 8.503906 122.636719 8.503906 124.226563 C 8.503906 127.808594 13.976563 130.746094 20.546875 130.746094 C 26.019531 130.746094 31.742188 128.007813 31.742188 122.085938 C 31.742188 117.011719 26.816406 115.269531 22.683594 114.324219 Z M 108.171875 103.425781 C 105.433594 103.425781 104.738281 105.714844 104.539063 106.460938 L 99.660156 122.882813 L 99.5625 122.882813 L 94.6875 106.460938 C 94.488281 105.714844 93.789063 103.425781 91.054688 103.425781 C 89.3125 103.425781 87.519531 104.621094 87.519531 107.210938 C 87.519531 107.65625 87.769531 108.453125 87.96875 109.050781 L 94.835938 128.15625 C 95.53125 130.097656 95.980469 130.746094 99.613281 130.746094 C 103.246094 130.746094 103.695313 130.097656 104.390625 128.15625 L 111.257813 109.050781 C 111.457031 108.453125 111.703125 107.65625 111.703125 107.210938 C 111.703125 104.621094 109.910156 103.425781 108.171875 103.425781 Z M 119.964844 103.425781 C 117.128906 103.425781 116.332031 105.117188 116.332031 107.058594 L 116.332031 127.109375 C 116.332031 129.054688 117.128906 130.746094 119.964844 130.746094 C 122.800781 130.746094 123.597656 129.054688 123.597656 127.109375 L 123.597656 107.058594 C 123.597656 105.117188 122.800781 103.425781 119.964844 103.425781 Z M 142.804688 109.097656 C 148.027344 109.097656 146.785156 113.378906 150.21875 113.378906 C 152.058594 113.378906 153.601563 112.335938 153.601563 110.242188 C 153.601563 106.859375 149.074219 103.425781 143.003906 103.425781 C 134.09375 103.425781 129.367188 109.25 129.367188 117.609375 C 129.367188 125.222656 133.597656 130.746094 142.554688 130.746094 C 150.019531 130.746094 153.601563 126.367188 153.601563 123.179688 C 153.601563 121.738281 152.40625 120.394531 150.566406 120.394531 C 146.734375 120.394531 147.828125 125.074219 142.753906 125.074219 C 138.773438 125.074219 136.632813 122.136719 136.632813 117.609375 C 136.632813 111.039063 139.96875 109.097656 142.804688 109.097656 Z M 184.253906 115.320313 C 184.253906 109.347656 179.476563 103.425781 171.117188 103.425781 C 162.507813 103.425781 157.382813 109.097656 157.382813 117.558594 C 157.382813 123.878906 161.214844 130.746094 171.363281 130.746094 C 175.742188 130.746094 182.761719 128.703125 182.761719 124.328125 C 182.761719 122.984375 181.515625 121.488281 179.773438 121.488281 C 176.839844 121.488281 176.839844 125.074219 171.363281 125.074219 C 167.136719 125.074219 164.648438 122.285156 164.648438 118.453125 L 181.066406 118.453125 C 183.507813 118.453125 184.253906 117.804688 184.253906 115.320313 Z M 164.648438 114.273438 C 165.445313 110.742188 167.632813 108.503906 171.265625 108.503906 C 174.5 108.503906 176.988281 110.941406 177.386719 114.273438 L 164.648438 114.273438 "/>
<path style=" stroke:none;fill-rule:nonzero;fill:rgb(92.89856%,10.998535%,14.099121%);fill-opacity:1;" d="M 120.011719 100.851563 C 122.3125 100.851563 124.175781 98.988281 124.175781 96.6875 C 124.175781 94.390625 122.3125 92.527344 120.011719 92.527344 C 117.714844 92.527344 115.851563 94.390625 115.851563 96.6875 C 115.851563 98.988281 117.714844 100.851563 120.011719 100.851563 Z M 72.910156 136.359375 C 70.71875 136.359375 69.277344 137.601563 69.277344 139.988281 L 69.277344 151.105469 L 69.175781 151.105469 C 67.734375 148.765625 65.246094 147.421875 62.011719 147.421875 C 54.347656 147.421875 50.816406 153.941406 50.816406 160.90625 C 50.816406 170.3125 56.140625 174.742188 62.210938 174.742188 C 65.742188 174.742188 68.679688 173.246094 69.875 170.164063 L 69.972656 170.164063 L 69.972656 171.308594 C 69.972656 173.546875 71.117188 174.742188 73.257813 174.742188 C 75.496094 174.742188 76.542969 173.546875 76.542969 171.308594 L 76.542969 139.988281 C 76.542969 137.601563 75.097656 136.359375 72.910156 136.359375 Z M 63.851563 169.070313 C 59.972656 168.96875 58.082031 165.4375 58.082031 161.15625 C 58.082031 157.773438 59.226563 153.097656 63.851563 153.097656 C 68.28125 153.042969 69.675781 157.425781 69.675781 161.15625 C 69.675781 165.285156 68.082031 169.070313 63.851563 169.070313 Z M 95.949219 147.421875 C 87.339844 147.421875 82.214844 153.097656 82.214844 161.554688 C 82.214844 167.875 86.042969 174.742188 96.195313 174.742188 C 100.574219 174.742188 107.589844 172.699219 107.589844 168.320313 C 107.589844 166.976563 106.347656 165.484375 104.605469 165.484375 C 101.671875 165.484375 101.671875 169.070313 96.195313 169.070313 C 91.96875 169.070313 89.476563 166.28125 89.476563 162.449219 L 105.898438 162.449219 C 108.339844 162.449219 109.085938 161.804688 109.085938 159.316406 C 109.085938 153.34375 104.308594 147.421875 95.949219 147.421875 Z M 89.476563 158.269531 C 90.277344 154.738281 92.464844 152.496094 96.097656 152.496094 C 99.332031 152.496094 101.820313 154.9375 102.21875 158.269531 Z M 165.113281 168.867188 L 157.550781 158.71875 L 162.921875 153.097656 C 163.570313 152.398438 164.019531 152 164.019531 150.707031 C 164.019531 148.863281 162.226563 147.421875 160.585938 147.421875 C 159.488281 147.421875 158.542969 148.019531 157.796875 148.816406 L 149.734375 157.773438 L 149.734375 139.984375 C 149.734375 137.59375 148.292969 136.351563 146.105469 136.351563 C 143.914063 136.351563 142.472656 137.59375 142.472656 139.984375 L 142.472656 171.109375 C 142.472656 173.496094 143.914063 174.742188 146.105469 174.742188 C 148.292969 174.742188 149.734375 173.496094 149.734375 171.109375 L 149.734375 165.585938 L 152.273438 163.347656 L 159.140625 173.050781 C 159.6875 173.84375 160.632813 174.742188 162.425781 174.742188 C 164.367188 174.742188 165.859375 173.050781 165.859375 171.207031 C 165.859375 170.015625 165.359375 169.21875 165.113281 168.867188 Z M 127.792969 158.320313 L 124.757813 157.621094 C 122.519531 157.125 120.878906 156.726563 120.878906 155.035156 C 120.878906 153.492188 122.519531 152.796875 125.058594 152.796875 C 129.636719 152.796875 129.734375 156.128906 132.570313 156.128906 C 134.460938 156.128906 135.605469 154.636719 135.605469 152.945313 C 135.605469 149.613281 130.03125 147.421875 124.507813 147.421875 C 119.484375 147.421875 113.613281 149.613281 113.613281 155.535156 C 113.613281 160.410156 116.894531 162.152344 121.125 163.195313 L 125.40625 164.242188 C 127.992188 164.890625 129.585938 165.1875 129.585938 167.027344 C 129.585938 168.519531 127.941406 169.664063 125.355469 169.664063 C 119.980469 169.664063 119.683594 165.1875 116.546875 165.1875 C 114.507813 165.1875 113.613281 166.628906 113.613281 168.222656 C 113.613281 171.804688 119.085938 174.742188 125.652344 174.742188 C 131.128906 174.742188 136.851563 172.003906 136.851563 166.082031 C 136.851563 161.007813 131.925781 159.265625 127.792969 158.320313 "/>
</g>
</svg>
