<?xml version="1.0" encoding="UTF-8"?>
<svg xmlns="http://www.w3.org/2000/svg" xmlns:xlink="http://www.w3.org/1999/xlink" width="600" height="200" viewBox="0 0 250.07 130.06" version="1.1">
<defs>
<clipPath id="clip1">
  <path d="M 157 0 L 250.070313 0 L 250.070313 78 L 157 78 Z M 157 0 "/>
</clipPath>
<clipPath id="clip2">
  <path d="M 0 51 L 220 51 L 220 130.058594 L 0 130.058594 Z M 0 51 "/>
</clipPath>
</defs>
<g id="surface1">
<g clip-path="url(#clip1)" clip-rule="nonzero">
<path style=" stroke:none;fill-rule:nonzero;fill:rgb(86.299133%,47.099304%,23.899841%);fill-opacity:1;" d="M 228.753906 65.621094 C 228.539063 65.160156 228.441406 64.929688 228.324219 64.703125 C 225.191406 58.75 222.0625 52.789063 218.902344 46.84375 C 218.585938 46.25 218.625 45.894531 219.0625 45.382813 C 224.042969 39.5625 229 33.71875 233.964844 27.878906 C 234.140625 27.671875 234.296875 27.453125 234.359375 27.089844 C 232.910156 27.46875 231.460938 27.84375 230.011719 28.226563 C 223.988281 29.824219 217.964844 31.414063 211.949219 33.03125 C 211.390625 33.183594 211.132813 33.019531 210.855469 32.554688 C 207.4375 26.84375 203.996094 21.144531 200.5625 15.441406 C 200.386719 15.144531 200.195313 14.859375 199.816406 14.609375 C 199.539063 16.128906 199.261719 17.652344 198.988281 19.171875 C 198.03125 24.546875 197.078125 29.921875 196.125 35.296875 C 196.019531 35.875 195.878906 36.453125 195.828125 37.039063 C 195.78125 37.59375 195.496094 37.796875 194.992188 37.957031 C 187.898438 40.183594 180.808594 42.433594 173.71875 44.679688 C 173.40625 44.777344 173.105469 44.90625 172.769531 45.210938 L 190.257813 52.160156 C 190.046875 52.328125 189.902344 52.460938 189.746094 52.5625 C 186.121094 54.910156 182.488281 57.246094 178.871094 59.605469 C 178.441406 59.886719 178.097656 59.925781 177.609375 59.707031 C 173.277344 57.757813 168.933594 55.84375 164.59375 53.90625 C 162.648438 53.035156 160.894531 51.882813 159.53125 50.214844 C 156.445313 46.441406 157.058594 42.148438 161.164063 39.527344 C 162.511719 38.667969 164.035156 38.023438 165.558594 37.527344 C 172.511719 35.265625 179.484375 33.082031 186.460938 30.890625 C 187.042969 30.707031 187.3125 30.445313 187.425781 29.8125 C 188.355469 24.433594 189.3125 19.058594 190.285156 13.6875 C 190.804688 10.816406 191.078125 7.871094 192.476563 5.238281 C 193.015625 4.226563 193.65625 3.234375 194.421875 2.386719 C 197.1875 -0.683594 201.054688 -0.804688 203.980469 2.121094 C 204.96875 3.109375 205.816406 4.273438 206.550781 5.46875 C 209.773438 10.726563 212.945313 16.019531 216.101563 21.316406 C 216.476563 21.945313 216.8125 22.070313 217.503906 21.886719 C 225.277344 19.800781 233.0625 17.75 240.84375 15.691406 C 242.449219 15.269531 244.074219 15.113281 245.722656 15.421875 C 249.308594 16.09375 250.878906 18.824219 249.664063 22.289063 C 249.109375 23.867188 248.15625 25.203125 247.085938 26.460938 C 241.65625 32.847656 236.230469 39.242188 230.785156 45.613281 C 230.339844 46.132813 230.328125 46.511719 230.636719 47.089844 C 233.886719 53.21875 237.109375 59.363281 240.34375 65.496094 C 241.117188 66.964844 241.710938 68.492188 241.726563 70.175781 C 241.765625 74.011719 238.960938 77.152344 235.148438 77.710938 C 233.011719 78.023438 231.027344 77.570313 229.027344 76.949219 C 224.152344 75.445313 219.269531 73.960938 214.382813 72.492188 C 213.929688 72.355469 213.757813 72.179688 213.679688 71.691406 C 213.113281 68.253906 212.503906 64.820313 211.910156 61.386719 C 211.894531 61.292969 211.921875 61.191406 211.9375 60.980469 L 228.753906 65.621094 "/>
</g>
<g clip-path="url(#clip2)" clip-rule="nonzero">
<path style=" stroke:none;fill-rule:nonzero;fill:rgb(30.198669%,32.899475%,34.498596%);fill-opacity:1;" d="M 174.632813 69.546875 L 173.230469 80.195313 C 171.058594 80.195313 168.929688 80.179688 166.804688 80.199219 C 165.078125 80.210938 163.503906 81.324219 162.984375 82.933594 C 162.78125 83.566406 162.710938 84.238281 162.621094 84.898438 C 161.539063 93.074219 160.46875 101.246094 159.398438 109.421875 C 159.128906 111.484375 158.863281 113.546875 158.59375 115.640625 L 147.90625 115.640625 C 148.105469 114.066406 148.292969 112.546875 148.492188 111.027344 C 149.1875 105.730469 149.886719 100.433594 150.585938 95.136719 C 151.195313 90.554688 151.734375 85.960938 152.453125 81.394531 C 153.410156 75.273438 159.503906 69.839844 165.679688 69.570313 C 168.628906 69.441406 171.585938 69.546875 174.632813 69.546875 M 131.398438 101.035156 C 130.820313 105.453125 130.273438 109.65625 129.707031 113.851563 C 129.679688 114.066406 129.511719 114.355469 129.328125 114.4375 C 120.746094 118.414063 109.445313 117.859375 102.398438 109.855469 C 98.609375 105.554688 97.023438 100.449219 97.261719 94.773438 C 97.808594 81.628906 108.707031 70.152344 121.738281 68.550781 C 129.355469 67.613281 136.03125 69.667969 141.191406 75.585938 C 144.703125 79.613281 146.328125 84.425781 146.089844 89.734375 C 145.929688 93.242188 145.382813 96.734375 144.945313 100.226563 C 144.324219 105.171875 143.648438 110.109375 142.996094 115.050781 C 142.972656 115.226563 142.9375 115.402344 142.898438 115.625 L 132.632813 115.625 C 132.769531 114.488281 132.894531 113.378906 133.035156 112.269531 C 133.78125 106.5625 134.597656 100.863281 135.25 95.144531 C 135.65625 91.585938 135.398438 88.050781 133.769531 84.753906 C 132.039063 81.246094 129.136719 79.394531 125.316406 78.988281 C 117.410156 78.152344 109.886719 83.644531 108.199219 91.425781 C 107.085938 96.5625 108.84375 101.484375 112.933594 104.207031 C 116.917969 106.859375 121.1875 106.867188 125.53125 105.148438 C 127.734375 104.277344 129.613281 102.894531 131.398438 101.035156 M 47.171875 61.640625 L 36.773438 69.382813 C 36.21875 68.507813 35.722656 67.640625 35.144531 66.828125 C 33.65625 64.746094 31.804688 63.191406 29.113281 63.003906 C 26.875 62.847656 24.960938 63.582031 23.4375 65.234375 C 22.074219 66.710938 21.894531 68.808594 23.167969 70.476563 C 24.570313 72.308594 26.105469 74.050781 27.671875 75.75 C 30.269531 78.5625 32.984375 81.273438 35.566406 84.101563 C 37.910156 86.679688 39.785156 89.566406 40.363281 93.089844 C 41.050781 97.277344 40.214844 101.261719 38.234375 104.941406 C 34.570313 111.75 28.800781 115.699219 21.179688 116.933594 C 17.816406 117.480469 14.460938 117.371094 11.179688 116.40625 C 6.824219 115.125 3.792969 112.269531 1.839844 108.234375 C 1.152344 106.8125 0.625 105.308594 0 103.78125 L 11.277344 97.742188 C 11.410156 98.058594 11.5 98.316406 11.621094 98.5625 C 12.265625 99.84375 12.789063 101.207031 13.582031 102.390625 C 15.9375 105.890625 19.742188 106.957031 23.597656 105.222656 C 24.601563 104.765625 25.53125 104.164063 26.355469 103.429688 C 28.84375 101.222656 29.308594 98.152344 27.46875 95.375 C 26.414063 93.78125 25.089844 92.347656 23.800781 90.917969 C 20.726563 87.503906 17.523438 84.195313 14.519531 80.714844 C 12.445313 78.316406 11.039063 75.523438 10.59375 72.3125 C 10.105469 68.804688 10.804688 65.496094 12.632813 62.542969 C 17.167969 55.207031 23.761719 51.386719 32.480469 51.703125 C 37.449219 51.882813 41.40625 54.207031 44.480469 58.070313 C 45.390625 59.214844 46.242188 60.402344 47.171875 61.640625 M 52.328125 112.507813 C 51.984375 115.066406 51.660156 117.480469 51.34375 119.894531 C 50.917969 123.101563 50.503906 126.3125 50.09375 129.523438 C 50.046875 129.898438 49.933594 130.0625 49.53125 130.058594 C 46.371094 130.046875 43.207031 130.050781 40.042969 130.046875 C 39.972656 130.046875 39.902344 130.007813 39.726563 129.957031 C 39.917969 128.445313 40.105469 126.921875 40.304688 125.40625 C 41.003906 120.082031 41.699219 114.761719 42.40625 109.4375 C 43.21875 103.355469 43.859375 97.242188 44.894531 91.195313 C 46.730469 80.488281 55.8125 71.265625 66.46875 68.96875 C 72.648438 67.636719 78.5625 68.25 83.957031 71.726563 C 89.335938 75.195313 92.421875 80.226563 93.125 86.554688 C 94.117188 95.503906 90.824219 102.929688 84.46875 109.078125 C 80.296875 113.109375 75.304688 115.675781 69.542969 116.542969 C 63.609375 117.4375 58.027344 116.445313 53.023438 112.949219 C 52.839844 112.820313 52.644531 112.707031 52.328125 112.507813 M 82.765625 90.394531 C 82.589844 89.496094 82.464844 88.179688 82.066406 86.949219 C 80.140625 81 74.035156 77.738281 67.714844 79.207031 C 60.785156 80.820313 55.832031 86.269531 55.113281 93.34375 C 54.582031 98.574219 57.402344 103.613281 62.640625 105.507813 C 66.859375 107.03125 70.921875 106.394531 74.695313 104.132813 C 79.695313 101.132813 82.40625 96.675781 82.765625 90.394531 Z M 219.25 115.707031 C 214.851563 115.699219 210.453125 115.675781 206.058594 115.695313 C 205.480469 115.695313 205.148438 115.527344 204.824219 115.035156 C 199.617188 107.105469 194.390625 99.191406 189.164063 91.277344 C 189 91.023438 188.820313 90.78125 188.527344 90.355469 C 187.402344 98.90625 186.300781 107.265625 185.199219 115.648438 L 173.6875 115.648438 C 173.820313 114.523438 173.9375 113.441406 174.082031 112.359375 C 175.203125 103.777344 176.335938 95.191406 177.460938 86.605469 C 178.539063 78.40625 179.613281 70.203125 180.707031 62 C 180.738281 61.757813 180.902344 61.449219 181.101563 61.316406 C 185.0625 58.734375 189.039063 56.175781 193.015625 53.609375 C 193.074219 53.574219 193.152344 53.570313 193.359375 53.511719 L 189.769531 80.882813 L 189.910156 80.976563 L 208.757813 60.089844 C 208.941406 61.152344 209.101563 62.0625 209.257813 62.972656 C 209.703125 65.578125 210.132813 68.191406 210.609375 70.792969 C 210.710938 71.316406 210.570313 71.640625 210.21875 72.007813 C 206.1875 76.226563 202.167969 80.464844 198.144531 84.695313 C 197.972656 84.878906 197.804688 85.070313 197.605469 85.289063 C 197.730469 85.496094 197.839844 85.691406 197.972656 85.875 C 204.90625 95.613281 211.84375 105.347656 218.785156 115.078125 C 218.910156 115.257813 219.09375 115.394531 219.25 115.550781 L 219.25 115.707031 "/>
</g>
<path style=" stroke:none;fill-rule:nonzero;fill:rgb(30.198669%,32.899475%,34.498596%);fill-opacity:1;" d="M 140.210938 59.386719 L 142.480469 46.523438 L 149.613281 46.523438 L 149.15625 49.113281 L 144.710938 49.113281 L 144.261719 51.613281 L 148.34375 51.613281 L 147.890625 54.203125 L 143.804688 54.203125 L 143.351563 56.796875 L 147.796875 56.796875 L 147.34375 59.386719 L 140.210938 59.386719 M 130.355469 54.203125 L 124.757813 54.203125 L 123.847656 59.386719 L 121.164063 59.386719 L 123.433594 46.523438 L 126.121094 46.523438 L 125.210938 51.613281 L 130.8125 51.613281 L 131.71875 46.523438 L 134.40625 46.523438 L 132.136719 59.386719 L 129.449219 59.386719 L 130.355469 54.203125 M 113.9375 58.933594 C 113.03125 59.347656 112.027344 59.597656 111.027344 59.597656 C 107.621094 59.597656 105.480469 57.039063 105.480469 53.84375 C 105.480469 49.757813 108.925781 46.3125 113.011719 46.3125 C 114.035156 46.3125 114.960938 46.558594 115.71875 46.976563 L 115.339844 50.058594 C 114.773438 49.433594 113.863281 49 112.730469 49 C 110.382813 49 108.300781 51.121094 108.300781 53.578125 C 108.300781 55.449219 109.476563 56.910156 111.328125 56.910156 C 112.464844 56.910156 113.5625 56.472656 114.300781 55.867188 L 113.9375 58.933594 M 96.511719 56.644531 L 92.101563 56.644531 L 90.703125 59.386719 L 87.582031 59.386719 L 94.464844 46.523438 L 97.476563 46.523438 L 99.820313 59.386719 L 96.925781 59.386719 L 96.511719 56.644531 M 93.445313 54.050781 L 96.09375 54.050781 L 95.46875 50.039063 Z M 76.523438 46.523438 L 80.652344 46.523438 C 82.808594 46.523438 84.320313 47.808594 84.320313 50.019531 C 84.320313 52.804688 82.351563 54.675781 79.550781 54.675781 L 77.773438 54.675781 L 76.941406 59.386719 L 74.253906 59.386719 L 76.523438 46.523438 M 80.328125 49.113281 L 78.757813 49.113281 L 78.226563 52.082031 L 79.796875 52.082031 C 80.746094 52.082031 81.5 51.460938 81.5 50.285156 C 81.5 49.511719 81.027344 49.113281 80.328125 49.113281 Z M 64.554688 56.644531 L 60.148438 56.644531 L 58.746094 59.386719 L 55.625 59.386719 L 62.511719 46.523438 L 65.519531 46.523438 L 67.867188 59.386719 L 64.96875 59.386719 L 64.554688 56.644531 M 61.488281 54.050781 L 64.140625 54.050781 L 63.515625 50.039063 Z M 224.003906 110.957031 L 224.003906 115.640625 L 223.113281 115.640625 L 223.113281 110.957031 L 221.421875 110.957031 L 221.421875 110.234375 L 225.695313 110.234375 L 225.695313 110.957031 L 224.003906 110.957031 M 231.847656 115.640625 L 231.847656 111.128906 L 231.820313 111.128906 L 230.050781 115.640625 L 229.488281 115.640625 L 227.71875 111.128906 L 227.691406 111.128906 L 227.691406 115.640625 L 226.800781 115.640625 L 226.800781 110.234375 L 228.175781 110.234375 L 229.789063 114.339844 L 231.375 110.234375 L 232.738281 110.234375 L 232.738281 115.640625 L 231.847656 115.640625 "/>
</g>
</svg>
