<svg id="Layer_1" data-name="Layer 1" xmlns="http://www.w3.org/2000/svg" xmlns:xlink="http://www.w3.org/1999/xlink" viewBox="0 0 920.44 458.89"><defs><style>.cls-1{fill:none;}.cls-2{clip-path:url(#clip-path);}.cls-3{opacity:1;}.cls-4{opacity:0.61;}.cls-5{fill:#7caa16;}.cls-6{fill:#7caa15;}.cls-7{opacity:0.43;}.cls-8{fill:#e5dc07;}.cls-9{opacity:0.3;}.cls-10{fill:#56aed5;}.cls-11{fill:#af43c3;}.cls-12{fill:#889182;}.cls-13{fill:#e58707;}.cls-14{isolation:isolate;}.cls-15{fill:#fff;}.cls-16{fill:#fffdfa;}.cls-17{fill:snow;}</style><clipPath id="clip-path" transform="translate(-500.42 -310.59)"><rect class="cls-1" width="1920" height="1080"/></clipPath></defs><g class="cls-2"><g id="Web_1920_1" data-name="Web 1920 1"><g id="Group_169" data-name="Group 169" class="cls-3"><g id="Group_162" data-name="Group 162"><g id="Group_163" data-name="Group 163"><g id="Ellipse_3" data-name="Ellipse 3" class="cls-4"><ellipse id="Ellipse_3-2" data-name="Ellipse 3-2" class="cls-5" cx="1110.78" cy="455.79" rx="247.12" ry="86.07" transform="translate(-582.12 285.06) rotate(-29)"/><path id="Ellipse_3_-_Outline" data-name="Ellipse 3 - Outline" class="cls-6" d="M1070.51,383.13c-14.6,8.09-28.91,16.69-42.53,25.56-13.27,8.64-26,17.64-38,26.75-11.7,8.93-22.69,18.06-32.67,27.12a365.39,365.39,0,0,0-26.68,26.71,233.37,233.37,0,0,0-20,25.43A126.41,126.41,0,0,0,898.18,538a59.89,59.89,0,0,0-4.56,20.09A29.51,29.51,0,0,0,909,585.74a59.54,59.54,0,0,0,19.45,6.79,126,126,0,0,0,26.38,1.69A231.47,231.47,0,0,0,987,590.77a364.52,364.52,0,0,0,36.77-8.46c13-3.67,26.55-8.15,40.32-13.33,14-5.29,28.44-11.35,42.8-18,14.73-6.84,29.61-14.42,44.21-22.51s28.91-16.7,42.53-25.57c13.27-8.64,26-17.63,38-26.74,11.69-8.94,22.68-18.07,32.67-27.13a367.11,367.11,0,0,0,26.67-26.7,233.48,233.48,0,0,0,20-25.44,125.77,125.77,0,0,0,12.54-23.27,59.58,59.58,0,0,0,4.55-20.08,29.48,29.48,0,0,0-15.34-27.69,59.75,59.75,0,0,0-19.45-6.78,125.32,125.32,0,0,0-26.38-1.69,229.64,229.64,0,0,0-32.14,3.44,364.12,364.12,0,0,0-36.78,8.47c-13,3.66-26.55,8.14-40.32,13.33-14,5.28-28.44,11.34-42.79,18-14.74,6.85-29.62,14.42-44.22,22.52m-1.46-2.63c119.37-66.16,234.82-86.09,257.87-44.51s-55,128.91-174.41,195.08-234.82,86.09-257.86,44.52S949.69,446.67,1069.05,380.5Z" transform="translate(-500.42 -310.59)"/></g><g id="Ellipse_4" data-name="Ellipse 4" class="cls-7"><ellipse id="Ellipse_4-2" data-name="Ellipse 4-2" class="cls-8" cx="792.98" cy="455.88" rx="86.07" ry="247.12" transform="translate(-490.6 617.85) rotate(-61)"/><path id="Ellipse_4_-_Outline" data-name="Ellipse 4 - Outline" class="cls-8" d="M832.77,384.1c-14.58-8.08-29.44-15.65-44.15-22.49-14.34-6.66-28.72-12.71-42.73-18-13.75-5.18-27.29-9.65-40.24-13.31A365.28,365.28,0,0,0,669,321.88a230.81,230.81,0,0,0-32-3.43,124.66,124.66,0,0,0-26.17,1.68,58.59,58.59,0,0,0-19.12,6.66,28.5,28.5,0,0,0-14.85,26.8,58.6,58.6,0,0,0,4.48,19.74,124.69,124.69,0,0,0,12.45,23.08,230,230,0,0,0,19.87,25.33,363.07,363.07,0,0,0,26.6,26.62c10,9.06,20.93,18.16,32.6,27.08,11.9,9.09,24.65,18.07,37.9,26.7,13.59,8.86,27.88,17.44,42.47,25.53s29.43,15.65,44.15,22.48c14.34,6.67,28.71,12.72,42.73,18,13.74,5.17,27.28,9.65,40.23,13.3A363.41,363.41,0,0,0,917,589.89a230.82,230.82,0,0,0,32,3.42,124.66,124.66,0,0,0,26.17-1.68A58.36,58.36,0,0,0,994.28,585a28.5,28.5,0,0,0,14.85-26.8,58.6,58.6,0,0,0-4.48-19.74,125,125,0,0,0-12.45-23.08A228.92,228.92,0,0,0,972.33,490a365.05,365.05,0,0,0-26.59-26.63c-10-9-20.94-18.16-32.61-27.07-11.9-9.1-24.65-18.08-37.89-26.71-13.6-8.85-27.89-17.44-42.47-25.52m1.94-3.5c119.37,66.16,197.45,153.5,174.41,195.08s-138.5,21.65-257.87-44.52S553.8,377.66,576.85,336.08,715.34,314.43,834.71,380.6Z" transform="translate(-500.42 -310.59)"/></g><g id="Ellipse_5" data-name="Ellipse 5" class="cls-9"><ellipse id="Ellipse_5-2" data-name="Ellipse 5-2" class="cls-10" cx="1110.75" cy="627.97" rx="86.07" ry="247.12" transform="translate(-477.4 984.44) rotate(-61)"/><path id="Ellipse_5_-_Outline" data-name="Ellipse 5 - Outline" class="cls-10" d="M1151,555.31c-14.6-8.09-29.48-15.67-44.21-22.52-14.36-6.67-28.76-12.73-42.8-18-13.77-5.18-27.34-9.66-40.32-13.33A367.31,367.31,0,0,0,986.92,493a233,233,0,0,0-32.15-3.44,126,126,0,0,0-26.38,1.69A59.54,59.54,0,0,0,908.94,498,29.48,29.48,0,0,0,893.6,525.7a59.64,59.64,0,0,0,4.55,20.09,126.41,126.41,0,0,0,12.54,23.27,230.94,230.94,0,0,0,20,25.43,363.15,363.15,0,0,0,26.67,26.7c10,9.07,21,18.2,32.67,27.13,11.92,9.11,24.69,18.11,38,26.74,13.61,8.87,27.92,17.47,42.52,25.57s29.48,15.67,44.22,22.52c14.36,6.67,28.75,12.73,42.79,18,13.78,5.18,27.34,9.66,40.32,13.33a367.5,367.5,0,0,0,36.78,8.47,232.83,232.83,0,0,0,32.15,3.44,126,126,0,0,0,26.38-1.69,59.57,59.57,0,0,0,19.44-6.79,29.47,29.47,0,0,0,15.35-27.68,59.64,59.64,0,0,0-4.55-20.09,126.6,126.6,0,0,0-12.54-23.26,232.52,232.52,0,0,0-20-25.44,367.11,367.11,0,0,0-26.67-26.7c-10-9.07-21-18.2-32.67-27.13-11.92-9.11-24.69-18.1-38-26.74-13.62-8.87-27.92-17.47-42.53-25.57m1.46-2.62c119.37,66.16,197.45,153.5,174.4,195.08S1188.39,769.42,1069,703.25,871.57,549.75,894.61,508.17,1033.11,486.52,1152.48,552.69Z" transform="translate(-500.42 -310.59)"/></g><g id="Ellipse_6" data-name="Ellipse 6" class="cls-9"><ellipse id="Ellipse_6-2" data-name="Ellipse 6-2" class="cls-11" cx="792.79" cy="627.9" rx="247.12" ry="86.07" transform="translate(-705.43 152.48) rotate(-29)"/><path id="Ellipse_6_-_Outline" data-name="Ellipse 6 - Outline" class="cls-11" d="M832.58,699.69c14.58-8.09,28.87-16.67,42.47-25.53,13.25-8.63,26-17.61,37.9-26.7,11.67-8.92,22.64-18,32.6-27.08a365,365,0,0,0,26.6-26.62A231.44,231.44,0,0,0,992,568.43a124.05,124.05,0,0,0,12.44-23.08,58.61,58.61,0,0,0,4.49-19.74,28.49,28.49,0,0,0-14.86-26.8A58.51,58.51,0,0,0,975,492.15a124.61,124.61,0,0,0-26.16-1.68,230.65,230.65,0,0,0-32,3.43,362.16,362.16,0,0,0-36.68,8.45c-13,3.65-26.49,8.13-40.24,13.3-14,5.27-28.39,11.32-42.72,18C782.44,540.47,767.59,548,753,556.12s-28.87,16.67-42.47,25.53c-13.24,8.62-26,17.61-37.89,26.7C661,617.27,650,626.38,640,635.42a367.19,367.19,0,0,0-26.6,26.63,232.19,232.19,0,0,0-19.86,25.32,125,125,0,0,0-12.44,23.08,58.67,58.67,0,0,0-4.49,19.75A28.48,28.48,0,0,0,591.5,757a58.61,58.61,0,0,0,19.12,6.67,124.66,124.66,0,0,0,26.17,1.67,229.15,229.15,0,0,0,32-3.43,365.47,365.47,0,0,0,36.68-8.44c12.95-3.66,26.49-8.13,40.24-13.3,14-5.28,28.39-11.33,42.72-18,14.72-6.84,29.57-14.4,44.15-22.48m1.94,3.5c-119.37,66.16-234.81,86.09-257.86,44.51s55-128.92,174.41-195.08,234.81-86.09,257.86-44.52S953.89,637,834.52,703.19Z" transform="translate(-500.42 -310.59)"/></g></g></g><g id="Group_166" data-name="Group 166"><path id="Path_2" data-name="Path 2" class="cls-12" d="M1210.83,544.38h6.1a7.94,7.94,0,0,0,3.94-.92,6,6,0,0,0,2.48-2.67,9.48,9.48,0,0,0,.85-4.26v0a9.07,9.07,0,0,0-.85-4.13,5.94,5.94,0,0,0-2.48-2.6,8.06,8.06,0,0,0-3.94-.9h-6.1Zm3.25-2.68V531.55h2.34a4.82,4.82,0,0,1,2.41.58,3.86,3.86,0,0,1,1.54,1.71,6.4,6.4,0,0,1,.53,2.73v0a6.72,6.72,0,0,1-.52,2.79,3.82,3.82,0,0,1-1.52,1.73,4.74,4.74,0,0,1-2.44.59Zm17.27,2.93a6.64,6.64,0,0,0,2.25-.33,5.11,5.11,0,0,0,1.59-.86,4.36,4.36,0,0,0,1.5-2.3l0-.1h-2.91l0,.06a1.76,1.76,0,0,1-.4.5,3,3,0,0,1-.78.48,3.1,3.1,0,0,1-1.17.2,2.77,2.77,0,0,1-1.46-.38,2.48,2.48,0,0,1-1-1.08,4,4,0,0,1-.33-1.71v-1.27a4,4,0,0,1,.34-1.74,2.49,2.49,0,0,1,.92-1.09,2.53,2.53,0,0,1,1.34-.37,2.49,2.49,0,0,1,1.33.36,2.35,2.35,0,0,1,.9,1.07,4.16,4.16,0,0,1,.33,1.77v1.26l1.47-1.86h-8.17v2h9.68v-1a6.93,6.93,0,0,0-.68-3.13,5,5,0,0,0-1.93-2.07,6.34,6.34,0,0,0-6,0,5.18,5.18,0,0,0-2,2.15,7.23,7.23,0,0,0-.69,3.27h0a7.11,7.11,0,0,0,.7,3.27,5,5,0,0,0,2,2.13A6.07,6.07,0,0,0,1231.35,544.63Zm8.14-.25h3.14v-9.47h2.44v-2.36h-2.5v-.89a1.41,1.41,0,0,1,1.66-1.6h.54a2.57,2.57,0,0,1,.4,0V528c-.23,0-.48-.07-.74-.09s-.55,0-.87,0a4.46,4.46,0,0,0-3.1.88,3.44,3.44,0,0,0-1,2.65v1.11h-1.91v2.36h1.91Zm7.22,0h3.14V532.55h-3.14Zm1.58-13.65a1.68,1.68,0,0,0,1.25-.51,1.66,1.66,0,0,0,.51-1.23,1.74,1.74,0,0,0-1.76-1.75,1.76,1.76,0,0,0-1.25.51,1.65,1.65,0,0,0-.52,1.24,1.62,1.62,0,0,0,.52,1.23A1.72,1.72,0,0,0,1248.29,530.73Zm3.92,13.65h3.14v-6.85a3.22,3.22,0,0,1,.28-1.4,2.13,2.13,0,0,1,2-1.24,2,2,0,0,1,1.64.64,3,3,0,0,1,.53,1.9v7H1263v-7.65a4.78,4.78,0,0,0-1-3.28,4.42,4.42,0,0,0-5.14-.6,3.33,3.33,0,0,0-1.27,1.53h-.19v-1.83h-3.14Zm18.15.25a6.64,6.64,0,0,0,2.25-.33,5.23,5.23,0,0,0,1.59-.86,4.36,4.36,0,0,0,1.5-2.3l0-.11h-2.92l0,.07a1.76,1.76,0,0,1-.4.5,3,3,0,0,1-.78.48,3.1,3.1,0,0,1-1.17.2,2.77,2.77,0,0,1-1.46-.38,2.48,2.48,0,0,1-1-1.08,4,4,0,0,1-.33-1.71v-1.27a4,4,0,0,1,.34-1.74,2.49,2.49,0,0,1,.92-1.09,2.53,2.53,0,0,1,1.34-.37,2.49,2.49,0,0,1,1.33.36,2.35,2.35,0,0,1,.9,1.07,4.16,4.16,0,0,1,.33,1.77v1.26l1.47-1.86h-8.17v2h9.68v-1a6.93,6.93,0,0,0-.68-3.13,5,5,0,0,0-1.93-2.07,6.34,6.34,0,0,0-6,0,5.18,5.18,0,0,0-2,2.15,7.23,7.23,0,0,0-.69,3.27h0a7.11,7.11,0,0,0,.7,3.27,5.07,5.07,0,0,0,2,2.13,6,6,0,0,0,3.08.75Zm11.93,0a6.89,6.89,0,0,0,2.69-.48,4.38,4.38,0,0,0,1.83-1.35,3.29,3.29,0,0,0,.67-2v0a2.66,2.66,0,0,0-.85-2.08,5.75,5.75,0,0,0-2.62-1.16l-2-.42a3.32,3.32,0,0,1-1.29-.49.93.93,0,0,1-.37-.78h0a1,1,0,0,1,.24-.68,1.56,1.56,0,0,1,.66-.45,2.63,2.63,0,0,1,1-.17,2.41,2.41,0,0,1,1.4.38,1.51,1.51,0,0,1,.64.85v0h2.91v0a3.2,3.2,0,0,0-.65-1.73,4,4,0,0,0-1.67-1.25,6.77,6.77,0,0,0-2.63-.47,6.94,6.94,0,0,0-2.59.46,4,4,0,0,0-1.72,1.3,3.11,3.11,0,0,0-.62,2h0a2.89,2.89,0,0,0,.84,2.16,5,5,0,0,0,2.53,1.2l2,.42a3.36,3.36,0,0,1,1.29.51,1,1,0,0,1,.38.79v0a1,1,0,0,1-.25.68,1.83,1.83,0,0,1-.71.45,3,3,0,0,1-1.06.17,2.66,2.66,0,0,1-1.46-.35,1.82,1.82,0,0,1-.74-.9l0,0H1277v0a3.25,3.25,0,0,0,.75,1.79,4.18,4.18,0,0,0,1.76,1.23,7.36,7.36,0,0,0,2.75.45Zm10.82-.25h3.4L1300.3,532h.94v-3.09h-2.76Zm2.88-3.76h8.75l-.79-2.43h-7.17Zm8.29,3.76h3.42l-5.4-15.5h-1.8V532Zm5,0h3.14v-6.62a2.8,2.8,0,0,1,.36-1.44,2.33,2.33,0,0,1,1-.93,3.42,3.42,0,0,1,1.54-.33,5.84,5.84,0,0,1,.73.05c.24,0,.48.08.71.13v-2.73a3.45,3.45,0,0,0-.54-.11,4.46,4.46,0,0,0-.63,0,3.35,3.35,0,0,0-1.92.54,2.71,2.71,0,0,0-1.07,1.5h-.19v-1.84h-3.14Zm13.38.25a6.11,6.11,0,0,0,2.66-.52,4.37,4.37,0,0,0,1.78-1.49,5.08,5.08,0,0,0,.83-2.23v-.07H1325l0,0a2.25,2.25,0,0,1-.78,1.35,2.45,2.45,0,0,1-1.55.45,2.25,2.25,0,0,1-1.42-.43,2.63,2.63,0,0,1-.88-1.25,5.86,5.86,0,0,1-.31-2v0a5.65,5.65,0,0,1,.3-2,2.47,2.47,0,0,1,.89-1.24,2.64,2.64,0,0,1,3,.09,2.39,2.39,0,0,1,.75,1.38v0h2.91v0a5,5,0,0,0-.8-2.3,4.28,4.28,0,0,0-1.78-1.51,6.13,6.13,0,0,0-2.7-.54,6.47,6.47,0,0,0-3.14.72,4.74,4.74,0,0,0-2,2.09,7.46,7.46,0,0,0-.68,3.32v0a7.56,7.56,0,0,0,.68,3.35,4.73,4.73,0,0,0,2,2.11A6.13,6.13,0,0,0,1322.66,544.63Zm7.07-.25h3.13v-6.85a3.23,3.23,0,0,1,.29-1.4,2.24,2.24,0,0,1,.81-.92,2.32,2.32,0,0,1,1.24-.32,2,2,0,0,1,1.64.65,2.91,2.91,0,0,1,.53,1.9v6.94h3.13v-7.65a5.7,5.7,0,0,0-.47-2.41,3.32,3.32,0,0,0-1.36-1.51,4.51,4.51,0,0,0-2.22-.52,3.89,3.89,0,0,0-2.13.56,3.31,3.31,0,0,0-1.26,1.53h-.2V528h-3.13Zm13,0h3.13V532.55h-3.13Zm1.57-13.65a1.74,1.74,0,0,0,1.25-3,1.72,1.72,0,0,0-1.25-.51,1.76,1.76,0,0,0-1.24.51,1.7,1.7,0,0,0-.53,1.24,1.66,1.66,0,0,0,.53,1.23A1.71,1.71,0,0,0,1344.31,530.73Zm8.84,13.69a8.44,8.44,0,0,0,.87,0l.7-.1V542l-.43,0h-.5a1.51,1.51,0,0,1-1.15-.37,1.59,1.59,0,0,1-.36-1.17v-5.55h2.43v-2.36h-2.44v-2.83h-3.16v2.83h-1.83v2.36h1.83v6.28a3,3,0,0,0,.94,2.47A5,5,0,0,0,1353.15,544.42Zm8.32.21a6.64,6.64,0,0,0,2.25-.33,5,5,0,0,0,1.59-.86,4.36,4.36,0,0,0,1.5-2.3l0-.1h-2.91l0,.06a1.76,1.76,0,0,1-.4.5,3,3,0,0,1-.78.48,3.1,3.1,0,0,1-1.17.2,2.77,2.77,0,0,1-1.46-.38,2.48,2.48,0,0,1-.95-1.08,4,4,0,0,1-.33-1.71v-1.27a4,4,0,0,1,.34-1.74,2.63,2.63,0,0,1,.92-1.09,2.64,2.64,0,0,1,2.68,0,2.46,2.46,0,0,1,.9,1.07,4.31,4.31,0,0,1,.32,1.77v1.26l1.48-1.86h-8.18v2h9.68v-1a6.86,6.86,0,0,0-.68-3.12,5,5,0,0,0-1.93-2.08,6.34,6.34,0,0,0-6,0,5.18,5.18,0,0,0-2,2.15,7.23,7.23,0,0,0-.69,3.27h0a7.11,7.11,0,0,0,.7,3.27,5,5,0,0,0,2,2.13A6.07,6.07,0,0,0,1361.47,544.63Zm12.44,0a6.05,6.05,0,0,0,2.66-.52,4.42,4.42,0,0,0,1.78-1.48,5.15,5.15,0,0,0,.82-2.24v-.07h-2.9l0,0a2.25,2.25,0,0,1-.78,1.35,2.45,2.45,0,0,1-1.55.45,2.27,2.27,0,0,1-1.42-.43,2.63,2.63,0,0,1-.88-1.25,5.86,5.86,0,0,1-.31-2v0a5.74,5.74,0,0,1,.3-2,2.52,2.52,0,0,1,.89-1.24,2.42,2.42,0,0,1,1.42-.43,2.32,2.32,0,0,1,1.6.52,2.39,2.39,0,0,1,.75,1.38v0h2.91v0a5,5,0,0,0-.79-2.3,4.31,4.31,0,0,0-1.79-1.51,6.24,6.24,0,0,0-2.7-.54,6.47,6.47,0,0,0-3.14.72,4.79,4.79,0,0,0-2,2.09,7.46,7.46,0,0,0-.68,3.32v0a7.56,7.56,0,0,0,.68,3.35,4.73,4.73,0,0,0,2,2.11A6.13,6.13,0,0,0,1373.91,544.63Zm11.92-.21a8.44,8.44,0,0,0,.87,0l.7-.1V542l-.42,0h-.5a1.54,1.54,0,0,1-1.16-.37,1.59,1.59,0,0,1-.36-1.17v-5.55h2.44v-2.36H1385v-2.83h-3.17v2.83H1380v2.36h1.82v6.28a3,3,0,0,0,1,2.47A5,5,0,0,0,1385.83,544.42Zm7.16.21a4,4,0,0,0,2.15-.55,3.23,3.23,0,0,0,1.27-1.53h.2v1.83h3.13V532.55h-3.13v6.83a3.25,3.25,0,0,1-.28,1.4,2.1,2.1,0,0,1-.8.92,2.51,2.51,0,0,1-1.31.33,1.93,1.93,0,0,1-1.61-.65,3.06,3.06,0,0,1-.5-1.9v-6.93H1389v7.64a5.76,5.76,0,0,0,.45,2.4,3.27,3.27,0,0,0,1.35,1.52A4.3,4.3,0,0,0,1393,544.63Zm9-.25h3.14v-6.62a2.79,2.79,0,0,1,.35-1.44,2.39,2.39,0,0,1,1-.93,3.49,3.49,0,0,1,1.55-.33,5.81,5.81,0,0,1,.72.05c.25,0,.48.08.72.13v-2.73a3.45,3.45,0,0,0-.54-.11,4.44,4.44,0,0,0-.63,0,3.27,3.27,0,0,0-1.92.53,2.71,2.71,0,0,0-1.07,1.5h-.19v-1.84H1402Zm13.36.25a6.57,6.57,0,0,0,2.25-.33,5,5,0,0,0,1.59-.86,4.3,4.3,0,0,0,1-1.13,3.9,3.9,0,0,0,.5-1.17l0-.1h-2.93l0,.06a1.76,1.76,0,0,1-.4.5,2.83,2.83,0,0,1-.78.48,3.1,3.1,0,0,1-1.17.2,2.77,2.77,0,0,1-1.46-.38,2.52,2.52,0,0,1-.94-1.08,4,4,0,0,1-.34-1.71v-1.27a4.19,4.19,0,0,1,.34-1.74A2.63,2.63,0,0,1,1414,535a2.56,2.56,0,0,1,1.34-.37,2.52,2.52,0,0,1,1.34.36,2.41,2.41,0,0,1,.9,1.07,4.32,4.32,0,0,1,.33,1.77v1.26l1.47-1.86h-8.17v2h9.68v-1a6.79,6.79,0,0,0-.67-3.13,5,5,0,0,0-1.94-2.07,5.76,5.76,0,0,0-3-.74,5.83,5.83,0,0,0-3,.76,5.15,5.15,0,0,0-2,2.15,7.23,7.23,0,0,0-.69,3.27h0a7.11,7.11,0,0,0,.7,3.27,5,5,0,0,0,2,2.13,6,6,0,0,0,3.09.75Z" transform="translate(-500.42 -310.59)"/><g id="Group_164" data-name="Group 164"><g id="Group_163-2" data-name="Group 163-2"><g id="Ellipse_3-3" data-name="Ellipse 3-3" class="cls-4"><ellipse id="Ellipse_3-4" data-name="Ellipse 3-4" class="cls-5" cx="1128.19" cy="452.09" rx="247.12" ry="86.07" transform="translate(-578.15 293.03) rotate(-29)"/><path id="Ellipse_3_-_Outline-2" data-name="Ellipse 3 - Outline-2" class="cls-6" d="M1087.91,379.44c-14.6,8.09-28.91,16.69-42.53,25.56-13.26,8.64-26,17.64-38,26.74-11.69,8.94-22.68,18.07-32.67,27.13a365.11,365.11,0,0,0-26.67,26.7,232,232,0,0,0-20,25.44,125.49,125.49,0,0,0-12.54,23.27A59.41,59.41,0,0,0,911,554.37a29.53,29.53,0,0,0,15.34,27.68,59.77,59.77,0,0,0,19.45,6.79,126.66,126.66,0,0,0,26.38,1.69,231.15,231.15,0,0,0,32.15-3.45,362,362,0,0,0,36.78-8.47c13-3.66,26.54-8.14,40.32-13.32,14-5.29,28.43-11.35,42.79-18,14.74-6.84,29.61-14.42,44.22-22.52s28.91-16.69,42.53-25.56c13.26-8.64,26-17.63,38-26.74,11.69-8.94,22.68-18.07,32.67-27.13a367.11,367.11,0,0,0,26.67-26.7,232,232,0,0,0,20-25.44,125.18,125.18,0,0,0,12.54-23.27,59.6,59.6,0,0,0,4.56-20.08A29.52,29.52,0,0,0,1330,322.14a59.52,59.52,0,0,0-19.45-6.78,125.9,125.9,0,0,0-26.37-1.7,231.15,231.15,0,0,0-32.15,3.45,364.75,364.75,0,0,0-36.78,8.47c-13,3.66-26.54,8.14-40.32,13.33-14,5.28-28.43,11.34-42.79,18-14.74,6.85-29.61,14.42-44.22,22.52m-1.45-2.63c119.37-66.16,234.81-86.09,257.86-44.52s-55,128.92-174.41,195.09S935.1,613.47,912.05,571.9,967.09,443,1086.46,376.81Z" transform="translate(-500.42 -310.59)"/></g><g id="Ellipse_4-3" data-name="Ellipse 4-3" class="cls-7"><ellipse id="Ellipse_4-4" data-name="Ellipse 4-4" class="cls-13" cx="810.39" cy="452.19" rx="86.07" ry="247.12" transform="translate(-478.4 631.17) rotate(-61)"/><path id="Ellipse_4_-_Outline-2" data-name="Ellipse 4 - Outline-2" class="cls-8" d="M850.17,380.41c-14.58-8.09-29.43-15.65-44.15-22.49-14.34-6.66-28.71-12.71-42.73-18-13.74-5.18-27.28-9.65-40.23-13.31a366.1,366.1,0,0,0-36.68-8.44,230.81,230.81,0,0,0-32-3.43,124.61,124.61,0,0,0-26.16,1.68,58.36,58.36,0,0,0-19.12,6.66,28.49,28.49,0,0,0-14.86,26.8,58.61,58.61,0,0,0,4.49,19.74,124.37,124.37,0,0,0,12.44,23.08A232.39,232.39,0,0,0,631,418.05a365,365,0,0,0,26.6,26.62c10,9.05,20.93,18.16,32.61,27.08,11.89,9.09,24.64,18.07,37.89,26.7C741.73,507.3,756,515.89,770.6,524s29.44,15.64,44.15,22.48c14.34,6.66,28.71,12.71,42.73,18,13.75,5.17,27.29,9.65,40.24,13.3a364.88,364.88,0,0,0,36.68,8.45,232,232,0,0,0,32,3.42,124.61,124.61,0,0,0,26.16-1.68,58.59,58.59,0,0,0,19.12-6.66,28.49,28.49,0,0,0,14.86-26.8,58.61,58.61,0,0,0-4.49-19.74,124.64,124.64,0,0,0-12.44-23.08,232.39,232.39,0,0,0-19.87-25.33,365,365,0,0,0-26.6-26.62c-10-9-20.93-18.16-32.61-27.08-11.89-9.09-24.64-18.07-37.89-26.7-13.6-8.85-27.88-17.44-42.47-25.52m1.94-3.5c119.37,66.16,197.46,153.5,174.41,195.08S888,593.64,768.66,527.47,571.21,374,594.25,332.39,732.75,310.74,852.11,376.91Z" transform="translate(-500.42 -310.59)"/></g><g id="Ellipse_5-3" data-name="Ellipse 5-3" class="cls-9"><ellipse id="Ellipse_5-4" data-name="Ellipse 5-4" class="cls-10" cx="1128.15" cy="624.28" rx="86.07" ry="247.12" transform="translate(-465.2 997.76) rotate(-61)"/><path id="Ellipse_5_-_Outline-2" data-name="Ellipse 5 - Outline-2" class="cls-10" d="M1168.43,551.62c-14.61-8.09-29.48-15.67-44.22-22.52-14.36-6.67-28.75-12.73-42.79-18-13.78-5.18-27.34-9.66-40.32-13.33a367.5,367.5,0,0,0-36.78-8.47,232.83,232.83,0,0,0-32.15-3.44,125.32,125.32,0,0,0-26.38,1.69,59.4,59.4,0,0,0-19.44,6.79A29.44,29.44,0,0,0,911,522a59.64,59.64,0,0,0,4.55,20.09,126,126,0,0,0,12.55,23.26,231.22,231.22,0,0,0,19.95,25.44,365.25,365.25,0,0,0,26.68,26.7c10,9.07,21,18.2,32.67,27.13,11.91,9.11,24.68,18.1,37.95,26.74,13.61,8.87,27.93,17.47,42.53,25.57s29.48,15.67,44.21,22.51c14.36,6.68,28.76,12.74,42.8,18,13.77,5.18,27.34,9.66,40.32,13.33a367.31,367.31,0,0,0,36.77,8.47,233,233,0,0,0,32.15,3.44,126.66,126.66,0,0,0,26.38-1.69,59.77,59.77,0,0,0,19.45-6.79,29.48,29.48,0,0,0,15.34-27.68,59.64,59.64,0,0,0-4.55-20.09,126.41,126.41,0,0,0-12.54-23.27,230.94,230.94,0,0,0-20-25.43,361.2,361.2,0,0,0-26.67-26.7c-10-9.07-21-18.2-32.67-27.13-11.92-9.11-24.69-18.11-38-26.75-13.62-8.86-27.93-17.46-42.53-25.56m1.45-2.62c119.37,66.16,197.45,153.5,174.41,195.08s-138.5,21.65-257.87-44.52S889,546.06,912,504.48,1050.51,482.83,1169.88,549Z" transform="translate(-500.42 -310.59)"/></g><g id="Ellipse_6-3" data-name="Ellipse 6-3" class="cls-9"><ellipse id="Ellipse_6-4" data-name="Ellipse 6-4" class="cls-11" cx="810.2" cy="624.21" rx="247.12" ry="86.07" transform="translate(-701.46 160.45) rotate(-29)"/><path id="Ellipse_6_-_Outline-2" data-name="Ellipse 6 - Outline-2" class="cls-11" d="M850,696c14.58-8.09,28.87-16.67,42.47-25.53,13.24-8.63,26-17.61,37.89-26.7,11.67-8.92,22.64-18,32.61-27.08a366.91,366.91,0,0,0,26.59-26.62,229,229,0,0,0,19.87-25.33,124.69,124.69,0,0,0,12.45-23.08,58.6,58.6,0,0,0,4.48-19.74,28.5,28.5,0,0,0-14.85-26.8,58.59,58.59,0,0,0-19.12-6.66,124.66,124.66,0,0,0-26.17-1.68,230.81,230.81,0,0,0-32,3.43,363.41,363.41,0,0,0-36.68,8.45c-12.95,3.65-26.49,8.13-40.23,13.3-14,5.27-28.39,11.32-42.73,18-14.71,6.84-29.57,14.41-44.15,22.49S741.54,569.1,727.94,578c-13.25,8.62-26,17.61-37.9,26.7-11.67,8.92-22.64,18-32.6,27.07a363.2,363.2,0,0,0-26.6,26.63A231,231,0,0,0,611,683.68a125,125,0,0,0-12.45,23.08,58.6,58.6,0,0,0-4.48,19.75A28.5,28.5,0,0,0,608.9,753.3,58.61,58.61,0,0,0,628,760a125.33,125.33,0,0,0,26.17,1.67,229.3,229.3,0,0,0,32-3.43,365.28,365.28,0,0,0,36.67-8.44c13-3.66,26.49-8.13,40.24-13.3,14-5.28,28.39-11.33,42.72-18,14.72-6.84,29.57-14.4,44.16-22.48m1.94,3.5C732.56,765.66,617.11,785.59,594.06,744s55-128.92,174.41-195.08,234.82-86.09,257.86-44.52S971.29,633.33,851.93,699.5Z" transform="translate(-500.42 -310.59)"/></g></g><g id="TECHNICAL_LEAD" data-name="TECHNICAL LEAD" class="cls-14"><g class="cls-14"><path class="cls-15" d="M903.73,532.23V519.67H899.5v-4.1h13.6v4.1h-4.24v12.56Z" transform="translate(-500.42 -310.59)"/><path class="cls-15" d="M927.07,532.23H915.2V515.57h11.87v3.94h-6.81v2.63h6.36v3.56h-6.36v2.59h6.81Z" transform="translate(-500.42 -310.59)"/><path class="cls-15" d="M934.69,524.69a6.1,6.1,0,0,0,.29,2,2.59,2.59,0,0,0,.83,1.24,2.08,2.08,0,0,0,1.31.42,2.1,2.1,0,0,0,1.27-.37,2.25,2.25,0,0,0,.77-1,3.78,3.78,0,0,0,.26-1.42h4.84v.74a5.86,5.86,0,0,1-.92,3.28,6,6,0,0,1-2.55,2.16,8.47,8.47,0,0,1-3.72.77,8.3,8.3,0,0,1-4.17-1,6.44,6.44,0,0,1-2.58-2.74,9.3,9.3,0,0,1-.88-4.15v-1.5a9.26,9.26,0,0,1,.88-4.15,6.41,6.41,0,0,1,2.58-2.73,8.4,8.4,0,0,1,4.17-1,9.42,9.42,0,0,1,2.89.43,6.64,6.64,0,0,1,2.28,1.26,5.62,5.62,0,0,1,1.49,2,6.13,6.13,0,0,1,.53,2.58v.72h-4.84a3.8,3.8,0,0,0-.26-1.43,2.22,2.22,0,0,0-.77-1,2.1,2.1,0,0,0-1.27-.37,2.08,2.08,0,0,0-1.31.42,2.64,2.64,0,0,0-.83,1.24,6.23,6.23,0,0,0-.29,2Z" transform="translate(-500.42 -310.59)"/><path class="cls-15" d="M956.9,532.23v-6.31h-4.83v6.31H947V515.57h5.12v6.29h4.83v-6.29H962v16.66Z" transform="translate(-500.42 -310.59)"/><path class="cls-15" d="M965.44,532.23V515.57h3.85l5.67,8.06h.2v-8.06h4.7v16.66h-3.81l-5.71-8.2h-.2v8.2Z" transform="translate(-500.42 -310.59)"/><path class="cls-15" d="M983.28,532.23V515.57h5.12v16.66Z" transform="translate(-500.42 -310.59)"/><path class="cls-15" d="M996.39,524.69a6.13,6.13,0,0,0,.28,2,2.59,2.59,0,0,0,.83,1.24,2.1,2.1,0,0,0,1.32.42,2.07,2.07,0,0,0,1.26-.37,2.18,2.18,0,0,0,.77-1,3.78,3.78,0,0,0,.26-1.42H1006v.74a5.79,5.79,0,0,1-.93,3.28,6,6,0,0,1-2.54,2.16,8.47,8.47,0,0,1-3.72.77,8.25,8.25,0,0,1-4.17-1A6.32,6.32,0,0,1,992,528.8a9.16,9.16,0,0,1-.88-4.15v-1.5A9.13,9.13,0,0,1,992,519a6.3,6.3,0,0,1,2.58-2.73,8.35,8.35,0,0,1,4.17-1,9.47,9.47,0,0,1,2.89.43,6.64,6.64,0,0,1,2.28,1.26,5.59,5.59,0,0,1,1.48,2,6,6,0,0,1,.54,2.58v.72h-4.85a3.8,3.8,0,0,0-.26-1.43,2.15,2.15,0,0,0-.77-1,2.07,2.07,0,0,0-1.26-.37,2.1,2.1,0,0,0-1.32.42,2.64,2.64,0,0,0-.83,1.24,6.25,6.25,0,0,0-.28,2Z" transform="translate(-500.42 -310.59)"/><path class="cls-15" d="M1007.23,532.23l5-16.66h6.49l5,16.66h-5.47l-.72-3.15H1013l-.75,3.15Zm8-12.42-1.34,5.67h2.89l-1.29-5.67Z" transform="translate(-500.42 -310.59)"/><path class="cls-15" d="M1037,532.23h-11.24V515.57h5.13V528H1037Z" transform="translate(-500.42 -310.59)"/></g><g class="cls-14"><path class="cls-15" d="M953.06,559.23H941.82V542.57H947V555h6.11Z" transform="translate(-500.42 -310.59)"/><path class="cls-15" d="M967.43,559.23H955.55V542.57h11.88v3.94h-6.81v2.63H967v3.56h-6.36v2.59h6.81Z" transform="translate(-500.42 -310.59)"/><path class="cls-15" d="M969.07,559.23l5-16.66h6.49l5,16.66h-5.47l-.72-3.15h-4.55l-.75,3.15Zm8-12.42-1.34,5.67h2.89l-1.29-5.67Z" transform="translate(-500.42 -310.59)"/><path class="cls-15" d="M994.86,542.57a8.27,8.27,0,0,1,4.39,1,6,6,0,0,1,2.48,2.87,11.08,11.08,0,0,1,.78,4.33,11.25,11.25,0,0,1-.8,4.42,6.31,6.31,0,0,1-2.5,3,8.15,8.15,0,0,1-4.35,1.05h-7.24V542.57Zm-2.11,12.72h1.17a4,4,0,0,0,1.56-.27,2.43,2.43,0,0,0,1-.81,3.67,3.67,0,0,0,.57-1.36,9,9,0,0,0,.18-1.91,7.82,7.82,0,0,0-.33-2.44,2.82,2.82,0,0,0-1.06-1.49,3.44,3.44,0,0,0-2-.5h-1.17Z" transform="translate(-500.42 -310.59)"/></g></g></g><path id="Path_3" data-name="Path 3" class="cls-12" d="M862.6,366a8.28,8.28,0,0,0,3.33-.62,5,5,0,0,0,2.16-1.74,4.66,4.66,0,0,0,.76-2.66h0a3.77,3.77,0,0,0-1.12-2.86,7.56,7.56,0,0,0-3.59-1.55l-1.64-.33a4.66,4.66,0,0,1-2-.76,1.48,1.48,0,0,1-.61-1.23h0a1.58,1.58,0,0,1,.33-1,2.24,2.24,0,0,1,.94-.66,3.92,3.92,0,0,1,1.4-.23,3.87,3.87,0,0,1,1.43.24,2.47,2.47,0,0,1,1,.66,1.91,1.91,0,0,1,.47,1l0,.13h3v-.14a4.5,4.5,0,0,0-.83-2.32,5,5,0,0,0-2-1.6,7.5,7.5,0,0,0-3.1-.58,7.33,7.33,0,0,0-3.06.6,4.94,4.94,0,0,0-2.09,1.67,4.16,4.16,0,0,0-.76,2.51h0a3.93,3.93,0,0,0,1.1,2.89,6.65,6.65,0,0,0,3.5,1.61l1.64.33a5.57,5.57,0,0,1,2.07.76,1.48,1.48,0,0,1,.61,1.23h0a1.57,1.57,0,0,1-.37,1,2.42,2.42,0,0,1-1,.71,4.21,4.21,0,0,1-1.53.26,4.62,4.62,0,0,1-1.6-.25,2.72,2.72,0,0,1-1.11-.68,1.68,1.68,0,0,1-.48-1v-.11h-3.13l0,.17a4.3,4.3,0,0,0,.87,2.39,5,5,0,0,0,2.14,1.57A8.45,8.45,0,0,0,862.6,366Zm13.42-.14a7.09,7.09,0,0,0,2.25-.33,5.21,5.21,0,0,0,1.59-.86,4.19,4.19,0,0,0,1-1.14,4.12,4.12,0,0,0,.5-1.16l0-.11h-2.92l0,.06a1.76,1.76,0,0,1-.4.5,2.42,2.42,0,0,1-.78.48,2.92,2.92,0,0,1-1.17.2,2.67,2.67,0,0,1-1.46-.37,2.45,2.45,0,0,1-1-1.09,4,4,0,0,1-.32-1.71V359a4.05,4.05,0,0,1,.34-1.75,2.41,2.41,0,0,1,.92-1.08,2.64,2.64,0,0,1,2.68,0,2.47,2.47,0,0,1,.9,1.07,4.28,4.28,0,0,1,.32,1.77v1.25l1.48-1.85h-8.18v2h9.68v-1a6.86,6.86,0,0,0-.68-3.12,4.89,4.89,0,0,0-1.93-2.07,5.78,5.78,0,0,0-3-.75,5.71,5.71,0,0,0-3,.77,5.12,5.12,0,0,0-2,2.15,7.18,7.18,0,0,0-.68,3.26h0a7.11,7.11,0,0,0,.7,3.27,5,5,0,0,0,2,2.13,6,6,0,0,0,3.09.76Zm12.14-.22a8.44,8.44,0,0,0,.87,0c.27,0,.51-.06.7-.1v-2.33l-.42,0h-.5a1.54,1.54,0,0,1-1.16-.37,1.57,1.57,0,0,1-.36-1.16v-5.56h2.44v-2.36h-2.44v-2.82h-3.17v2.82h-1.83v2.36h1.83v6.28a3,3,0,0,0,1,2.47A5,5,0,0,0,888.16,365.6Zm7.9.22a7.08,7.08,0,0,0,2.69-.49,4.3,4.3,0,0,0,1.83-1.35,3.29,3.29,0,0,0,.67-2h0a2.73,2.73,0,0,0-.85-2.09,5.75,5.75,0,0,0-2.62-1.16l-2-.42a3,3,0,0,1-1.29-.49.93.93,0,0,1-.37-.77h0a1,1,0,0,1,.24-.69,1.59,1.59,0,0,1,.66-.45,2.62,2.62,0,0,1,1-.16,2.33,2.33,0,0,1,1.4.37,1.6,1.6,0,0,1,.64.85V357H901v-.05a3.12,3.12,0,0,0-.65-1.73,3.91,3.91,0,0,0-1.67-1.25,6.55,6.55,0,0,0-2.63-.46,6.7,6.7,0,0,0-2.58.46,4,4,0,0,0-1.73,1.29,3.19,3.19,0,0,0-.62,1.95h0a2.93,2.93,0,0,0,.84,2.16,5,5,0,0,0,2.53,1.2l2,.42a3.22,3.22,0,0,1,1.29.52,1,1,0,0,1,.39.78v0a1,1,0,0,1-.26.68,1.85,1.85,0,0,1-.71.46,3.11,3.11,0,0,1-1,.16,2.61,2.61,0,0,1-1.47-.35,1.75,1.75,0,0,1-.73-.9l0,0h-3.08v0a3.37,3.37,0,0,0,.75,1.79,4.29,4.29,0,0,0,1.76,1.24,7.56,7.56,0,0,0,2.75.45Zm15.68-.26H915V352.73h4.66v-2.67H907.09v2.67h4.65Zm12.42.26a6.91,6.91,0,0,0,2.25-.34,5.23,5.23,0,0,0,1.59-.86,4.51,4.51,0,0,0,1-1.13,4.43,4.43,0,0,0,.5-1.16l0-.11h-2.91l0,.06a2,2,0,0,1-.4.5,2.53,2.53,0,0,1-.78.48,3.13,3.13,0,0,1-1.17.2,2.75,2.75,0,0,1-1.46-.38,2.38,2.38,0,0,1-.95-1.08,3.87,3.87,0,0,1-.33-1.71V359a3.91,3.91,0,0,1,.34-1.75,2.45,2.45,0,0,1,4.49,0,4.2,4.2,0,0,1,.33,1.78v1.25l1.47-1.85H920v2h9.68v-1a6.86,6.86,0,0,0-.68-3.12,4.93,4.93,0,0,0-1.94-2.08,5.86,5.86,0,0,0-3-.74,5.68,5.68,0,0,0-3,.77,5.09,5.09,0,0,0-2,2.14,7.23,7.23,0,0,0-.69,3.27h0a7.11,7.11,0,0,0,.7,3.27,4.94,4.94,0,0,0,2,2.13A6,6,0,0,0,924.16,365.82Zm12.44,0a6.26,6.26,0,0,0,2.66-.53,4.32,4.32,0,0,0,1.77-1.48,5,5,0,0,0,.83-2.24v-.07H939l0,0a2.3,2.3,0,0,1-.78,1.36,2.47,2.47,0,0,1-1.55.45,2.38,2.38,0,0,1-1.42-.43,2.75,2.75,0,0,1-.89-1.26,5.82,5.82,0,0,1-.3-2v0a5.74,5.74,0,0,1,.3-2,2.52,2.52,0,0,1,.89-1.24,2.38,2.38,0,0,1,1.42-.43,2.33,2.33,0,0,1,1.6.53,2.36,2.36,0,0,1,.75,1.38v0h2.91v0a5,5,0,0,0-.8-2.3A4.35,4.35,0,0,0,939.3,354a6.27,6.27,0,0,0-2.7-.54,6.34,6.34,0,0,0-3.14.73,4.63,4.63,0,0,0-2,2.09,7.44,7.44,0,0,0-.68,3.32v0a7.55,7.55,0,0,0,.68,3.34,4.81,4.81,0,0,0,2,2.12,6.32,6.32,0,0,0,3.14.73Zm7.07-.26h3.13v-6.84a3.2,3.2,0,0,1,.29-1.4,2.1,2.1,0,0,1,.8-.92,2.3,2.3,0,0,1,1.25-.33,2,2,0,0,1,1.64.64,3,3,0,0,1,.53,1.9v6.95h3.13v-7.65a5.54,5.54,0,0,0-.46-2.41,3.37,3.37,0,0,0-1.37-1.5,4.39,4.39,0,0,0-2.22-.53,3.83,3.83,0,0,0-2.12.56,3.27,3.27,0,0,0-1.27,1.53h-.2v-6.35h-3.13Zm13,0h3.14v-6.84a3.2,3.2,0,0,1,.29-1.4,2.1,2.1,0,0,1,.8-.92,2.29,2.29,0,0,1,1.24-.33,2,2,0,0,1,1.65.64,2.94,2.94,0,0,1,.52,1.9v6.95h3.14v-7.65a4.7,4.7,0,0,0-1-3.28,4.42,4.42,0,0,0-5.14-.6,3.33,3.33,0,0,0-1.27,1.53h-.19v-1.83h-3.14Zm13,0h3.14V353.73h-3.14Zm1.58-13.64a1.76,1.76,0,0,0,1.25-.51,1.76,1.76,0,0,0,0-2.48,1.76,1.76,0,0,0-1.25-.51,1.74,1.74,0,0,0-1.24.51,1.66,1.66,0,0,0-.53,1.25,1.62,1.62,0,0,0,.53,1.23A1.72,1.72,0,0,0,971.2,351.92Zm9.13,13.9a6.26,6.26,0,0,0,2.66-.53,4.34,4.34,0,0,0,1.78-1.48,5.15,5.15,0,0,0,.82-2.24v-.07h-2.9l0,0a2.3,2.3,0,0,1-.78,1.36,2.45,2.45,0,0,1-1.55.45,2.38,2.38,0,0,1-1.42-.43,2.66,2.66,0,0,1-.88-1.26,5.82,5.82,0,0,1-.31-2v0a5.74,5.74,0,0,1,.3-2,2.52,2.52,0,0,1,.89-1.24,2.38,2.38,0,0,1,1.42-.43,2.33,2.33,0,0,1,1.6.53,2.36,2.36,0,0,1,.75,1.38v0h2.91v0a5,5,0,0,0-.8-2.3A4.35,4.35,0,0,0,983,354a6.27,6.27,0,0,0-2.7-.54,6.37,6.37,0,0,0-3.14.73,4.63,4.63,0,0,0-2,2.09,7.44,7.44,0,0,0-.68,3.32v0a7.55,7.55,0,0,0,.68,3.34,4.81,4.81,0,0,0,2,2.12A6.34,6.34,0,0,0,980.33,365.82Zm10.18-.07a4.69,4.69,0,0,0,1.44-.21,3.69,3.69,0,0,0,1.16-.61,2.91,2.91,0,0,0,.8-.94h.19v1.57h3.1v-8.08a3.87,3.87,0,0,0-.58-2.15A3.69,3.69,0,0,0,995,354a6.74,6.74,0,0,0-2.66-.48,7.39,7.39,0,0,0-2.6.43,4.46,4.46,0,0,0-1.79,1.2,3.44,3.44,0,0,0-.79,1.82v.1H990l0,0a1.45,1.45,0,0,1,.72-.82,3,3,0,0,1,1.38-.28,2.27,2.27,0,0,1,1.47.41,1.44,1.44,0,0,1,.51,1.19v3.77a1.94,1.94,0,0,1-.33,1.12,2.36,2.36,0,0,1-.9.79,2.78,2.78,0,0,1-1.3.29,2.11,2.11,0,0,1-1.33-.38,1.29,1.29,0,0,1-.52-1.07v0a1.23,1.23,0,0,1,.49-1,2.67,2.67,0,0,1,1.5-.43l3.94-.26v-1.91l-4.4.27a6.05,6.05,0,0,0-3.4,1,3,3,0,0,0-1.19,2.5v0a3.45,3.45,0,0,0,.49,1.87,3.22,3.22,0,0,0,1.37,1.24A4.42,4.42,0,0,0,990.51,365.75Zm9.11-.19h3.14V349.21h-3.14Zm14.6,0h4l5.17-15.5h-3.66L1016.32,362h-.2l-3.42-11.89h-3.65Zm10.68,0H1028V353.73h-3.14Zm1.58-13.64a1.72,1.72,0,0,0,1.24-.51,1.65,1.65,0,0,0,.52-1.23,1.69,1.69,0,0,0-.52-1.25,1.72,1.72,0,0,0-1.24-.51,1.76,1.76,0,0,0-1.25.51,1.69,1.69,0,0,0-.52,1.25,1.65,1.65,0,0,0,.52,1.23A1.76,1.76,0,0,0,1026.48,351.92Zm8.62,13.9a7,7,0,0,0,2.69-.49,4.33,4.33,0,0,0,1.84-1.35,3.28,3.28,0,0,0,.66-2h0a2.69,2.69,0,0,0-.84-2.09,5.75,5.75,0,0,0-2.62-1.16l-2-.42a3,3,0,0,1-1.29-.49.93.93,0,0,1-.37-.77h0a1,1,0,0,1,.24-.69,1.59,1.59,0,0,1,.66-.45,2.62,2.62,0,0,1,1-.16,2.3,2.3,0,0,1,1.39.37,1.51,1.51,0,0,1,.64.85V357H1040v-.05a3.28,3.28,0,0,0-.65-1.73,4,4,0,0,0-1.67-1.25,6.63,6.63,0,0,0-2.64-.46,6.7,6.7,0,0,0-2.58.46,4,4,0,0,0-1.73,1.29,3.17,3.17,0,0,0-.62,1.95h0a2.93,2.93,0,0,0,.84,2.16,5,5,0,0,0,2.53,1.2l2,.42a3.36,3.36,0,0,1,1.29.51,1,1,0,0,1,.39.79v0a1,1,0,0,1-.26.68,1.72,1.72,0,0,1-.71.45,2.93,2.93,0,0,1-1,.17,2.67,2.67,0,0,1-1.47-.35,1.82,1.82,0,0,1-.74-.9l0,0h-3.08v0a3.37,3.37,0,0,0,.75,1.79,4.26,4.26,0,0,0,1.77,1.24A7.54,7.54,0,0,0,1035.1,365.82Zm6.92-.26h3.14V353.73H1042Zm1.58-13.64a1.76,1.76,0,0,0,1.25-.51,1.68,1.68,0,0,0,.51-1.23,1.72,1.72,0,0,0-.51-1.25,1.76,1.76,0,0,0-1.25-.51,1.72,1.72,0,0,0-1.24.51,1.66,1.66,0,0,0-.53,1.25,1.62,1.62,0,0,0,.53,1.23A1.72,1.72,0,0,0,1043.6,351.92Zm9.18,13.9a6.31,6.31,0,0,0,3.13-.74,5,5,0,0,0,2-2.13,7.24,7.24,0,0,0,.7-3.3v0a7.18,7.18,0,0,0-.71-3.29,5.12,5.12,0,0,0-2-2.13,6.86,6.86,0,0,0-6.22,0,5.07,5.07,0,0,0-2,2.12,7.05,7.05,0,0,0-.71,3.29v0a7.24,7.24,0,0,0,.7,3.3,4.92,4.92,0,0,0,2,2.13A6.31,6.31,0,0,0,1052.78,365.82Zm0-2.47a2.33,2.33,0,0,1-1.43-.44,2.57,2.57,0,0,1-.89-1.26,5.66,5.66,0,0,1-.31-2v0a5.51,5.51,0,0,1,.31-2,2.88,2.88,0,0,1,.9-1.27,2.45,2.45,0,0,1,2.83,0,2.88,2.88,0,0,1,.9,1.27,5.51,5.51,0,0,1,.31,2v0a5.6,5.6,0,0,1-.31,2,2.7,2.7,0,0,1-.89,1.26A2.29,2.29,0,0,1,1052.78,363.35Zm7.57,2.21h3.14v-6.84a3.05,3.05,0,0,1,.28-1.4,2.12,2.12,0,0,1,.81-.92,2.24,2.24,0,0,1,1.24-.33,2,2,0,0,1,1.64.64,3,3,0,0,1,.53,1.9v6.95h3.13v-7.65a4.74,4.74,0,0,0-1-3.28,4.42,4.42,0,0,0-5.14-.6,3.33,3.33,0,0,0-1.27,1.53h-.19v-1.83h-3.14Z" transform="translate(-500.42 -310.59)"/><path id="Path_4" data-name="Path 4" class="cls-12" d="M507.69,553.29a7.36,7.36,0,0,0,3.33-.7,6.15,6.15,0,0,0,2.35-1.91,5.86,5.86,0,0,0,1.06-2.85v-.12h-3.16l0,.1a3.28,3.28,0,0,1-1.88,2.4,4,4,0,0,1-1.67.33,3.47,3.47,0,0,1-2.11-.65,4.12,4.12,0,0,1-1.37-1.87,7.8,7.8,0,0,1-.48-2.87v0a7.8,7.8,0,0,1,.48-2.87,4,4,0,0,1,1.37-1.86,3.44,3.44,0,0,1,2.1-.65,3.83,3.83,0,0,1,1.67.36,3.35,3.35,0,0,1,1.24,1,3.61,3.61,0,0,1,.66,1.53v.08h3.15v-.14a5.81,5.81,0,0,0-1.06-2.9,6.22,6.22,0,0,0-2.36-2,8.08,8.08,0,0,0-7.19.26,6.56,6.56,0,0,0-2.51,2.81,10.13,10.13,0,0,0-.88,4.34v0a10.1,10.1,0,0,0,.88,4.34,6.55,6.55,0,0,0,2.52,2.82A7.27,7.27,0,0,0,507.69,553.29Zm8.93-.4h3.14v-6.84a3.08,3.08,0,0,1,.28-1.4,2.13,2.13,0,0,1,2.05-1.24,2,2,0,0,1,1.64.64,3,3,0,0,1,.53,1.9v6.94h3.14v-7.64a5.7,5.7,0,0,0-.47-2.41,3.37,3.37,0,0,0-1.36-1.51,4.3,4.3,0,0,0-2.22-.52,3.81,3.81,0,0,0-2.13.56,3.36,3.36,0,0,0-1.27,1.52h-.19v-6.35h-3.14Zm16.21.2a4.59,4.59,0,0,0,1.43-.22,3.56,3.56,0,0,0,1.16-.6,3.13,3.13,0,0,0,.8-.94h.2v1.56h3.09v-8.07a4,4,0,0,0-.57-2.16,3.73,3.73,0,0,0-1.67-1.37,6.62,6.62,0,0,0-2.67-.48,7.24,7.24,0,0,0-2.6.43,4.33,4.33,0,0,0-1.78,1.2,3.3,3.3,0,0,0-.79,1.81v.1h2.9l0,0a1.45,1.45,0,0,1,.71-.81,2.88,2.88,0,0,1,1.38-.28,2.29,2.29,0,0,1,1.48.41,1.42,1.42,0,0,1,.51,1.19v3.77a2,2,0,0,1-.33,1.12,2.36,2.36,0,0,1-.9.79,2.81,2.81,0,0,1-1.3.29,2.13,2.13,0,0,1-1.34-.39,1.25,1.25,0,0,1-.52-1.06v0a1.23,1.23,0,0,1,.5-1,2.84,2.84,0,0,1,1.5-.43l3.93-.25v-1.92l-4.4.27a6.18,6.18,0,0,0-3.39,1,3,3,0,0,0-1.2,2.51v0a3.5,3.5,0,0,0,.5,1.87,3.31,3.31,0,0,0,1.37,1.25,4.42,4.42,0,0,0,2,.44Zm9.11-.2h3.14V536.54h-3.14Zm5.62,0h3.13V536.54h-3.13Zm10.71.26a6.64,6.64,0,0,0,2.25-.33,5.23,5.23,0,0,0,1.59-.86,4.69,4.69,0,0,0,1-1.13,4.49,4.49,0,0,0,.5-1.17l0-.11h-2.92l0,.07a1.61,1.61,0,0,1-.4.5,2.93,2.93,0,0,1-.77.48,3.19,3.19,0,0,1-1.18.2,2.8,2.8,0,0,1-1.46-.38,2.52,2.52,0,0,1-.94-1.08,3.9,3.9,0,0,1-.33-1.71v-1.27a4,4,0,0,1,.33-1.74,2.53,2.53,0,0,1,.93-1.09,2.41,2.41,0,0,1,1.33-.37,2.52,2.52,0,0,1,1.34.36,2.41,2.41,0,0,1,.9,1.07,4.16,4.16,0,0,1,.33,1.77v1.26l1.47-1.86h-8.17v2h9.68v-1a6.93,6.93,0,0,0-.68-3.13,5,5,0,0,0-1.94-2.07,5.76,5.76,0,0,0-3-.74,5.67,5.67,0,0,0-3,.76,5.11,5.11,0,0,0-2,2.15,7.23,7.23,0,0,0-.69,3.27h0a7.13,7.13,0,0,0,.7,3.28,5.07,5.07,0,0,0,2,2.13A6,6,0,0,0,558.27,553.15Zm7.23-.26h3.13v-6.84a3.23,3.23,0,0,1,.29-1.4,2.16,2.16,0,0,1,.8-.92,2.29,2.29,0,0,1,1.25-.32,2,2,0,0,1,1.64.64,3,3,0,0,1,.53,1.9v6.94h3.13v-7.64a4.77,4.77,0,0,0-1-3.29,3.87,3.87,0,0,0-3-1.15,3.75,3.75,0,0,0-2.12.56,3.3,3.3,0,0,0-1.27,1.52h-.2v-1.82H565.5Zm18.16,4.16a7.84,7.84,0,0,0,3.1-.55,4.61,4.61,0,0,0,2-1.57,4.08,4.08,0,0,0,.71-2.4V541.07h-3.14V543h-.15a3.57,3.57,0,0,0-.82-1.14,3.79,3.79,0,0,0-1.2-.73,4.51,4.51,0,0,0-1.5-.26,4.45,4.45,0,0,0-4.28,2.78,7.22,7.22,0,0,0-.58,3v0a7.13,7.13,0,0,0,.58,2.95,4.69,4.69,0,0,0,1.67,2,4.53,4.53,0,0,0,2.56.72,5,5,0,0,0,1.5-.22,3.59,3.59,0,0,0,1.2-.65,3.28,3.28,0,0,0,.84-1h.2v2.2a2,2,0,0,1-.7,1.6,3.11,3.11,0,0,1-2,.56,3.57,3.57,0,0,1-1.64-.33,1.28,1.28,0,0,1-.74-.82v0h-3.1v.06a3.24,3.24,0,0,0,.8,1.76,4.37,4.37,0,0,0,1.82,1.19A8.37,8.37,0,0,0,583.66,557.05Zm0-7.08a2.41,2.41,0,0,1-1.43-.41,2.63,2.63,0,0,1-.91-1.15,4.32,4.32,0,0,1-.32-1.7v0a4.33,4.33,0,0,1,.32-1.71,2.56,2.56,0,0,1,.91-1.15,2.49,2.49,0,0,1,1.43-.41,2.55,2.55,0,0,1,1.45.41,2.61,2.61,0,0,1,.93,1.15,4.17,4.17,0,0,1,.33,1.71v0a4.17,4.17,0,0,1-.33,1.71,2.65,2.65,0,0,1-.93,1.14A2.48,2.48,0,0,1,583.7,550ZM597,553.15a6.64,6.64,0,0,0,2.25-.33,5,5,0,0,0,1.59-.86,4.36,4.36,0,0,0,1.5-2.3l0-.11h-2.91l0,.07a1.76,1.76,0,0,1-.4.5,3,3,0,0,1-.78.48,3.1,3.1,0,0,1-1.17.2,2.77,2.77,0,0,1-1.46-.38,2.48,2.48,0,0,1-1-1.08,4,4,0,0,1-.33-1.71v-1.27a4,4,0,0,1,.34-1.74,2.38,2.38,0,0,1,2.26-1.46,2.55,2.55,0,0,1,1.34.36,2.47,2.47,0,0,1,.9,1.07,4.31,4.31,0,0,1,.32,1.77v1.26l1.48-1.86h-8.18v2h9.68v-1a6.93,6.93,0,0,0-.68-3.13,5,5,0,0,0-1.93-2.07,5.77,5.77,0,0,0-3-.74,5.7,5.7,0,0,0-3,.76,5.18,5.18,0,0,0-2,2.15,7.23,7.23,0,0,0-.69,3.27h0a7.13,7.13,0,0,0,.7,3.28,5,5,0,0,0,2,2.13A6.07,6.07,0,0,0,597,553.15Zm11.94,0a6.84,6.84,0,0,0,2.68-.48,4.42,4.42,0,0,0,1.84-1.35,3.29,3.29,0,0,0,.66-2.05h0a2.68,2.68,0,0,0-.84-2.08,5.65,5.65,0,0,0-2.62-1.16l-2-.42a3.32,3.32,0,0,1-1.29-.49,1,1,0,0,1-.38-.78h0a1,1,0,0,1,.25-.69,1.53,1.53,0,0,1,.66-.45,2.75,2.75,0,0,1,1-.16,2.48,2.48,0,0,1,1.4.37,1.53,1.53,0,0,1,.64.86v0h2.92v0a3.34,3.34,0,0,0-.65-1.74,4.1,4.1,0,0,0-1.67-1.24,6.82,6.82,0,0,0-2.64-.47,6.7,6.7,0,0,0-2.58.46,4,4,0,0,0-1.73,1.3,3.17,3.17,0,0,0-.62,1.95h0a3,3,0,0,0,.84,2.16,5.13,5.13,0,0,0,2.53,1.2l2,.41a3.38,3.38,0,0,1,1.29.52,1,1,0,0,1,.39.78v0a1,1,0,0,1-.26.67,1.75,1.75,0,0,1-.71.46,3.16,3.16,0,0,1-1,.17,2.7,2.7,0,0,1-1.47-.36,1.67,1.67,0,0,1-.73-.9l0,0h-3.09v0a3.4,3.4,0,0,0,.75,1.8,4.15,4.15,0,0,0,1.77,1.23A7.36,7.36,0,0,0,608.91,553.15Zm17.46.14a8.13,8.13,0,0,0,3.34-.62,4.9,4.9,0,0,0,2.16-1.74,4.6,4.6,0,0,0,.75-2.65v0a3.68,3.68,0,0,0-1.12-2.85,7.39,7.39,0,0,0-3.58-1.55l-1.65-.33a4.91,4.91,0,0,1-2-.76,1.49,1.49,0,0,1-.6-1.23h0a1.58,1.58,0,0,1,.33-1,2.18,2.18,0,0,1,.93-.66,3.75,3.75,0,0,1,1.4-.24,4.15,4.15,0,0,1,1.44.24,2.56,2.56,0,0,1,1,.67,2,2,0,0,1,.46,1l0,.13h3.06l0-.14a4.48,4.48,0,0,0-.82-2.31,4.83,4.83,0,0,0-2-1.6,8.24,8.24,0,0,0-6.15,0,5,5,0,0,0-2.09,1.67,4.22,4.22,0,0,0-.77,2.52h0a4,4,0,0,0,1.1,2.89,6.62,6.62,0,0,0,3.51,1.6l1.64.34a5.46,5.46,0,0,1,2.06.76,1.46,1.46,0,0,1,.62,1.23h0a1.58,1.58,0,0,1-.37,1,2.41,2.41,0,0,1-1,.72,4.12,4.12,0,0,1-1.52.26,4.82,4.82,0,0,1-1.6-.25,2.83,2.83,0,0,1-1.11-.68,1.68,1.68,0,0,1-.48-1v-.12h-3.13v.18a4.34,4.34,0,0,0,.88,2.39,5,5,0,0,0,2.14,1.57A8.21,8.21,0,0,0,626.37,553.29Zm13.48-.14a6.27,6.27,0,0,0,3.14-.74,5,5,0,0,0,2-2.12,7.51,7.51,0,0,0,.7-3.3v0a7.23,7.23,0,0,0-.71-3.29,5,5,0,0,0-2-2.12,6.21,6.21,0,0,0-3.11-.74,6.14,6.14,0,0,0-3.11.75,5.07,5.07,0,0,0-2,2.12A7.05,7.05,0,0,0,634,547v0a7.24,7.24,0,0,0,.7,3.3,5,5,0,0,0,2,2.12A6.19,6.19,0,0,0,639.85,553.15Zm0-2.47a2.31,2.31,0,0,1-1.42-.43,2.78,2.78,0,0,1-.89-1.27,5.89,5.89,0,0,1-.31-2v0a5.59,5.59,0,0,1,.32-2,2.73,2.73,0,0,1,.9-1.27,2.48,2.48,0,0,1,2.82,0,2.73,2.73,0,0,1,.9,1.27,5.59,5.59,0,0,1,.32,2v0a5.59,5.59,0,0,1-.32,2,2.78,2.78,0,0,1-.89,1.27A2.27,2.27,0,0,1,639.85,550.68Zm7.69,2.21h3.13V536.54h-3.13Zm9.42.26a3.84,3.84,0,0,0,2.14-.56,3.17,3.17,0,0,0,1.28-1.52h.2v1.82h3.13V541.07h-3.13v6.82a3.34,3.34,0,0,1-.28,1.4,2.07,2.07,0,0,1-.8.93,2.51,2.51,0,0,1-1.31.33,1.94,1.94,0,0,1-1.62-.66,3.09,3.09,0,0,1-.5-1.9v-6.92h-3.13v7.64a5.76,5.76,0,0,0,.45,2.4,3.27,3.27,0,0,0,1.35,1.52,4.28,4.28,0,0,0,2.22.52Zm13.94-.21a8.46,8.46,0,0,0,.87-.05,5.59,5.59,0,0,0,.7-.1v-2.32l-.43,0a3.55,3.55,0,0,1-.5,0,1.53,1.53,0,0,1-1.15-.37A1.61,1.61,0,0,1,670,549v-5.55h2.44v-2.36H670v-2.83h-3.17v2.83H665v2.36h1.83v6.27a3,3,0,0,0,.95,2.48A5,5,0,0,0,670.9,552.94Zm3.26-.05h3.14V541.07h-3.14Zm1.59-13.64a1.74,1.74,0,0,0,1.24-3,1.68,1.68,0,0,0-1.24-.51,1.76,1.76,0,0,0-1.25.51,1.65,1.65,0,0,0-.52,1.24,1.63,1.63,0,0,0,.52,1.23A1.72,1.72,0,0,0,675.75,539.25Zm9.17,13.9a6.21,6.21,0,0,0,3.13-.74,5,5,0,0,0,2-2.12,7.24,7.24,0,0,0,.7-3.3v0a7.23,7.23,0,0,0-.71-3.29,5.07,5.07,0,0,0-2-2.12,6.26,6.26,0,0,0-3.11-.74,6.12,6.12,0,0,0-3.11.75,5,5,0,0,0-2,2.12,7.05,7.05,0,0,0-.71,3.29v0a7.24,7.24,0,0,0,.7,3.3,5,5,0,0,0,2,2.12A6.21,6.21,0,0,0,684.92,553.15Zm0-2.47a2.36,2.36,0,0,1-1.43-.43,2.78,2.78,0,0,1-.89-1.27,5.65,5.65,0,0,1-.3-2v0a5.58,5.58,0,0,1,.31-2,2.73,2.73,0,0,1,.9-1.27,2.48,2.48,0,0,1,2.82,0,2.73,2.73,0,0,1,.9,1.27,5.58,5.58,0,0,1,.31,2v0a5.82,5.82,0,0,1-.31,2,2.73,2.73,0,0,1-.9,1.27A2.23,2.23,0,0,1,684.92,550.68Zm7.57,2.21h3.14v-6.84a3.22,3.22,0,0,1,.28-1.4,2.13,2.13,0,0,1,2.05-1.24,2,2,0,0,1,1.64.64,3,3,0,0,1,.53,1.9v6.94h3.14v-7.64a4.82,4.82,0,0,0-1-3.29,3.86,3.86,0,0,0-3-1.15,3.81,3.81,0,0,0-2.13.56,3.36,3.36,0,0,0-1.27,1.52h-.19v-1.82h-3.14Zm17.65.26a6.89,6.89,0,0,0,2.69-.48,4.38,4.38,0,0,0,1.83-1.35,3.3,3.3,0,0,0,.67-2.05h0a2.69,2.69,0,0,0-.85-2.08,5.65,5.65,0,0,0-2.62-1.16l-2-.42a3.32,3.32,0,0,1-1.29-.49,1,1,0,0,1-.37-.78h0a1,1,0,0,1,.24-.68,1.68,1.68,0,0,1,.66-.46,2.85,2.85,0,0,1,1-.16,2.48,2.48,0,0,1,1.4.37,1.58,1.58,0,0,1,.64.86v0h2.91v0a3.26,3.26,0,0,0-.65-1.74,4.1,4.1,0,0,0-1.67-1.24,7.56,7.56,0,0,0-5.22,0,4.12,4.12,0,0,0-1.73,1.3,3.16,3.16,0,0,0-.61,1.95h0a2.91,2.91,0,0,0,.84,2.16,5,5,0,0,0,2.53,1.2l2,.42a3.21,3.21,0,0,1,1.29.51,1,1,0,0,1,.38.79v0a1,1,0,0,1-.26.67,1.65,1.65,0,0,1-.7.46,3,3,0,0,1-1.06.17,2.58,2.58,0,0,1-1.46-.36,1.73,1.73,0,0,1-.74-.9l0,0h-3.08v0a3.31,3.31,0,0,0,.74,1.8,4.24,4.24,0,0,0,1.78,1.23A7.3,7.3,0,0,0,710.14,553.15Z" transform="translate(-500.42 -310.59)"/><path id="Path_1" data-name="Path 1" class="cls-12" d="M879.51,728.48h3.41l3.79-12.41h.94V713h-2.76Zm2.88-3.76h8.76l-.8-2.43h-7.16Zm8.29,3.76h3.42L888.71,713h-1.8v3.09Zm9.51.26a7.08,7.08,0,0,0,2.69-.49,4.3,4.3,0,0,0,1.83-1.35,3.29,3.29,0,0,0,.67-2h0a2.7,2.7,0,0,0-.85-2.09,5.75,5.75,0,0,0-2.62-1.16l-2-.42a3,3,0,0,1-1.29-.49,1,1,0,0,1-.38-.77h0a1.07,1.07,0,0,1,.24-.69,1.56,1.56,0,0,1,.66-.45,2.62,2.62,0,0,1,1-.16,2.33,2.33,0,0,1,1.4.37,1.57,1.57,0,0,1,.65.85v.06h2.91v0a3.2,3.2,0,0,0-.65-1.73,4,4,0,0,0-1.67-1.25,6.8,6.8,0,0,0-2.63-.47,6.72,6.72,0,0,0-2.59.47,4,4,0,0,0-1.73,1.29,3.18,3.18,0,0,0-.61,2h0a2.89,2.89,0,0,0,.84,2.16,5,5,0,0,0,2.53,1.2l2,.42a3.13,3.13,0,0,1,1.28.52,1,1,0,0,1,.39.78v0a1,1,0,0,1-.26.68,1.66,1.66,0,0,1-.71.45,2.86,2.86,0,0,1-1,.17,2.57,2.57,0,0,1-1.46-.35,1.82,1.82,0,0,1-.74-.9l0,0h-3.09v0a3.28,3.28,0,0,0,.74,1.79,4.24,4.24,0,0,0,1.78,1.23A7.31,7.31,0,0,0,900.19,728.74Zm11.5,0a7.08,7.08,0,0,0,2.69-.49,4.3,4.3,0,0,0,1.83-1.35,3.29,3.29,0,0,0,.67-2h0a2.66,2.66,0,0,0-.85-2.09,5.75,5.75,0,0,0-2.62-1.16l-2-.42a3,3,0,0,1-1.29-.49,1,1,0,0,1-.38-.77h0a1.07,1.07,0,0,1,.24-.69,1.56,1.56,0,0,1,.66-.45,2.62,2.62,0,0,1,1-.16,2.33,2.33,0,0,1,1.4.37,1.57,1.57,0,0,1,.65.85v.06h2.91v0a3.2,3.2,0,0,0-.65-1.73,4,4,0,0,0-1.67-1.25,6.8,6.8,0,0,0-2.63-.47,6.72,6.72,0,0,0-2.59.47,4,4,0,0,0-1.73,1.29,3.18,3.18,0,0,0-.61,2h0a2.89,2.89,0,0,0,.84,2.16,5,5,0,0,0,2.53,1.2l2,.42a3.13,3.13,0,0,1,1.28.52,1,1,0,0,1,.39.78v0a1,1,0,0,1-.26.68,1.85,1.85,0,0,1-.71.46,3.15,3.15,0,0,1-1,.16,2.59,2.59,0,0,1-1.47-.35,1.82,1.82,0,0,1-.74-.9l0,0h-3.08v0a3.37,3.37,0,0,0,.75,1.79,4.15,4.15,0,0,0,1.77,1.23,7.36,7.36,0,0,0,2.75.46Zm10.81,0a4,4,0,0,0,2.15-.56,3.23,3.23,0,0,0,1.27-1.53h.2v1.83h3.13V716.65h-3.13v6.83a3.36,3.36,0,0,1-.27,1.4,2.06,2.06,0,0,1-.81.92,2.49,2.49,0,0,1-1.3.33,1.93,1.93,0,0,1-1.62-.65,3,3,0,0,1-.5-1.9v-6.93h-3.14v7.65a5.83,5.83,0,0,0,.46,2.4,3.17,3.17,0,0,0,1.34,1.51,4.41,4.41,0,0,0,2.22.53Zm9-.26h3.13v-6.62a2.8,2.8,0,0,1,.36-1.44,2.45,2.45,0,0,1,1-.93,3.43,3.43,0,0,1,1.55-.33,5.81,5.81,0,0,1,.72.05c.24,0,.48.08.71.14v-2.74a4.69,4.69,0,0,0-.54-.11,4.44,4.44,0,0,0-.63,0,3.27,3.27,0,0,0-1.92.53,2.7,2.7,0,0,0-1.06,1.5h-.19v-1.84h-3.14Zm13.36.26a6.91,6.91,0,0,0,2.25-.34,5.23,5.23,0,0,0,1.59-.86,4.51,4.51,0,0,0,1-1.13,4.35,4.35,0,0,0,.5-1.17l0-.1h-2.91l0,.06a1.61,1.61,0,0,1-.4.5,2.49,2.49,0,0,1-.77.48,3.19,3.19,0,0,1-1.18.2,2.8,2.8,0,0,1-1.46-.38,2.47,2.47,0,0,1-.94-1.08,3.87,3.87,0,0,1-.33-1.71V722a4,4,0,0,1,.33-1.75,2.54,2.54,0,0,1,3.6-1.1,2.46,2.46,0,0,1,.9,1.07,4.18,4.18,0,0,1,.33,1.78v1.25l1.47-1.86h-8.17v2h9.68v-1a6.86,6.86,0,0,0-.68-3.12,4.93,4.93,0,0,0-1.94-2.08,5.86,5.86,0,0,0-3-.74,5.68,5.68,0,0,0-3,.77,5.09,5.09,0,0,0-2,2.14,7.23,7.23,0,0,0-.69,3.27h0a7.11,7.11,0,0,0,.7,3.27,4.94,4.94,0,0,0,2,2.13A6,6,0,0,0,944.9,728.74Zm11.94,0a7,7,0,0,0,2.68-.49,4.33,4.33,0,0,0,1.84-1.35,3.28,3.28,0,0,0,.66-2h0a2.66,2.66,0,0,0-.85-2.09,5.75,5.75,0,0,0-2.62-1.16l-2-.42a3,3,0,0,1-1.29-.49,1,1,0,0,1-.38-.77h0a1.07,1.07,0,0,1,.24-.69,1.53,1.53,0,0,1,.67-.45,2.57,2.57,0,0,1,.95-.16,2.29,2.29,0,0,1,1.4.37,1.57,1.57,0,0,1,.65.85v.06h2.91v0a3.2,3.2,0,0,0-.65-1.73,4,4,0,0,0-1.67-1.25,6.82,6.82,0,0,0-2.64-.47,6.7,6.7,0,0,0-2.58.47,4,4,0,0,0-1.73,1.29,3.26,3.26,0,0,0-.62,2h0a2.9,2.9,0,0,0,.85,2.16,5,5,0,0,0,2.53,1.2l2,.42a3.11,3.11,0,0,1,1.29.52,1,1,0,0,1,.39.78v0a1,1,0,0,1-.26.68,1.66,1.66,0,0,1-.71.45,2.89,2.89,0,0,1-1,.17,2.63,2.63,0,0,1-1.47-.35,1.82,1.82,0,0,1-.74-.9l0,0h-3.08v0a3.37,3.37,0,0,0,.75,1.79,4.15,4.15,0,0,0,1.77,1.23,7.35,7.35,0,0,0,2.74.46Zm11.92-.26h6.1a7.94,7.94,0,0,0,3.94-.92,6,6,0,0,0,2.48-2.67,9.71,9.71,0,0,0,.85-4.25v0a9.09,9.09,0,0,0-.86-4.14,5.93,5.93,0,0,0-2.48-2.6,8,8,0,0,0-3.93-.9h-6.1ZM972,725.8V715.65h2.35a4.73,4.73,0,0,1,2.41.59,3.77,3.77,0,0,1,1.53,1.7,6.4,6.4,0,0,1,.54,2.73v0a6.83,6.83,0,0,1-.53,2.79,3.71,3.71,0,0,1-1.52,1.73,4.59,4.59,0,0,1-2.43.59Zm17.28,2.94a6.91,6.91,0,0,0,2.25-.34,5.23,5.23,0,0,0,1.59-.86,4.51,4.51,0,0,0,1-1.13,4.35,4.35,0,0,0,.5-1.17l0-.1h-2.91l0,.06a1.61,1.61,0,0,1-.4.5,2.42,2.42,0,0,1-.78.48,3.1,3.1,0,0,1-1.17.2,2.77,2.77,0,0,1-1.46-.38,2.47,2.47,0,0,1-.94-1.08,4,4,0,0,1-.34-1.71V722a4.2,4.2,0,0,1,.34-1.75,2.54,2.54,0,0,1,3.6-1.1,2.46,2.46,0,0,1,.9,1.07,4.18,4.18,0,0,1,.33,1.78v1.25l1.47-1.86h-8.17v2h9.68v-1a6.86,6.86,0,0,0-.68-3.12,5,5,0,0,0-1.93-2.08,5.9,5.9,0,0,0-3-.74,5.71,5.71,0,0,0-3,.77,5.09,5.09,0,0,0-2,2.14,7.23,7.23,0,0,0-.69,3.27h0a7.11,7.11,0,0,0,.7,3.27,5,5,0,0,0,2,2.13A6,6,0,0,0,989.28,728.74Zm7.33-.26h3.14V712.13h-3.14Zm5.54,0h3.13V716.65h-3.13Zm1.58-13.65a1.74,1.74,0,0,0,1.24-3,1.77,1.77,0,0,0-2.49,0,1.72,1.72,0,0,0-.53,1.24,1.78,1.78,0,0,0,1.77,1.74Zm7,13.65h3.52l4.1-11.83h-3.3l-2.43,8.89h-.19l-2.45-8.89h-3.37Zm13.59.26a6.91,6.91,0,0,0,2.25-.34,5.23,5.23,0,0,0,1.59-.86,4.51,4.51,0,0,0,1-1.13,4.35,4.35,0,0,0,.5-1.17l0-.1h-2.91l0,.06a2,2,0,0,1-.4.5,2.53,2.53,0,0,1-.78.48,3.13,3.13,0,0,1-1.17.2,2.75,2.75,0,0,1-1.46-.38,2.43,2.43,0,0,1-1-1.08,3.87,3.87,0,0,1-.33-1.71V722a3.91,3.91,0,0,1,.34-1.75,2.41,2.41,0,0,1,.92-1.08,2.51,2.51,0,0,1,1.34-.38,2.49,2.49,0,0,1,1.33.36,2.4,2.4,0,0,1,.9,1.07,4.18,4.18,0,0,1,.33,1.78v1.25l1.47-1.86h-8.17v2h9.68v-1a6.86,6.86,0,0,0-.68-3.12,5,5,0,0,0-1.93-2.08,5.9,5.9,0,0,0-3-.74,5.71,5.71,0,0,0-3,.77,5.06,5.06,0,0,0-2,2.14,7.11,7.11,0,0,0-.7,3.27h0a7.11,7.11,0,0,0,.7,3.27,5,5,0,0,0,2,2.13A6,6,0,0,0,1024.33,728.74Zm7.23-.26h3.13v-6.62a2.8,2.8,0,0,1,.36-1.44,2.39,2.39,0,0,1,1-.93,3.42,3.42,0,0,1,1.54-.33,5.84,5.84,0,0,1,.73.05,5.57,5.57,0,0,1,.71.14v-2.74a5.17,5.17,0,0,0-.54-.11,4.44,4.44,0,0,0-.63,0,3.27,3.27,0,0,0-1.92.53,2.65,2.65,0,0,0-1.06,1.5h-.2v-1.84h-3.13Zm10,4.17a7.12,7.12,0,0,0,2.5-.4,4.07,4.07,0,0,0,1.77-1.3,8.3,8.3,0,0,0,1.26-2.48l4-11.82h-3.31L1045,726.86l.69-1.25h-.93l.72,1.25-2.83-10.21h-3.45l4.16,11.84-.11.45a1.54,1.54,0,0,1-.65,1,2.35,2.35,0,0,1-1.34.33h-.43l-.38,0v2.35a5.17,5.17,0,0,0,.57,0Z" transform="translate(-500.42 -310.59)"/></g><path id="Path_5" data-name="Path 5" class="cls-16" d="M707.2,459.33h-5.1l.6-2.74h4.8l.4-1.87h-4.82l.59-2.63h5.09l.42-2h-7.47l-2.4,11.27h7.48Zm1.48,2H711l1.08-5.07a2.71,2.71,0,0,1,.38-.91,2.12,2.12,0,0,1,.67-.63,1.92,1.92,0,0,1,.91-.23,1.28,1.28,0,0,1,1.4,1.35,3,3,0,0,1,0,.31,2.57,2.57,0,0,1-.06.35l-1,4.83h2.27l1.1-5.21a2.35,2.35,0,0,0,.09-.53,4,4,0,0,0,0-.49,2.63,2.63,0,0,0-.3-1.29,2.48,2.48,0,0,0-.89-.9,2.64,2.64,0,0,0-1.38-.33,2.81,2.81,0,0,0-1.57.42,3.45,3.45,0,0,0-1.07,1.08h-.15l.3-1.36h-2.21ZM722,464.6a5.22,5.22,0,0,0,3-.78,3.26,3.26,0,0,0,1.44-2.13l1.93-9h-2.22l-.33,1.5h-.13a2.22,2.22,0,0,0-.94-1.19,2.86,2.86,0,0,0-1.59-.45,3.62,3.62,0,0,0-1.67.41,4.18,4.18,0,0,0-1.35,1.12,5.59,5.59,0,0,0-.91,1.7,6.28,6.28,0,0,0-.33,2.1,3.68,3.68,0,0,0,.38,1.7,2.94,2.94,0,0,0,1.06,1.15,2.86,2.86,0,0,0,1.53.41,3.38,3.38,0,0,0,1.47-.31,2.69,2.69,0,0,0,1.07-.91h.14l-.34,1.51a1.86,1.86,0,0,1-.66,1.08,2.24,2.24,0,0,1-1.4.39,2.4,2.4,0,0,1-1.26-.27.9.9,0,0,1-.5-.69h-2.27a2,2,0,0,0,.48,1.34,3.13,3.13,0,0,0,1.36.93A5.44,5.44,0,0,0,722,464.6Zm.87-5.11a1.52,1.52,0,0,1-1.2-.5,2,2,0,0,1-.44-1.36,4.39,4.39,0,0,1,.18-1.25,3.3,3.3,0,0,1,.5-1,2.39,2.39,0,0,1,.76-.65,1.9,1.9,0,0,1,.93-.22,1.56,1.56,0,0,1,1.22.5,1.91,1.91,0,0,1,.46,1.33,4,4,0,0,1-.19,1.24,3.05,3.05,0,0,1-.51,1,2.47,2.47,0,0,1-.77.67A1.84,1.84,0,0,1,722.9,459.49Zm9.21.28a1.49,1.49,0,0,1-.93-.27.84.84,0,0,1-.35-.7.92.92,0,0,1,.44-.81,2.29,2.29,0,0,1,1.22-.34l1.78-.06-.16.74a1.69,1.69,0,0,1-.38.74,2,2,0,0,1-.71.51,2,2,0,0,1-.91.19Zm-1,1.7a3.17,3.17,0,0,0,1-.15,3,3,0,0,0,.85-.41,2.19,2.19,0,0,0,.62-.63h.14l-.23,1.06h2.22l1.18-5.57c0-.11,0-.22.05-.34s0-.24,0-.35a2.18,2.18,0,0,0-.44-1.34,2.82,2.82,0,0,0-1.22-.88,5.06,5.06,0,0,0-1.84-.32,4.92,4.92,0,0,0-1.78.32,3.56,3.56,0,0,0-1.32.88,3.13,3.13,0,0,0-.72,1.37h2.15a1.14,1.14,0,0,1,.33-.42,1.41,1.41,0,0,1,.5-.26,2.57,2.57,0,0,1,.67-.09,1.8,1.8,0,0,1,1,.26.79.79,0,0,1,.38.71v.13s0,.1,0,.18l-.11.53-2.14.07a4.91,4.91,0,0,0-2.83.83,2.47,2.47,0,0,0-1,2.07,2.1,2.1,0,0,0,.34,1.2,2.3,2.3,0,0,0,.91.84,2.69,2.69,0,0,0,1.3.32Zm10,3.13a5.35,5.35,0,0,0,3-.78,3.27,3.27,0,0,0,1.45-2.13l1.92-9h-2.22l-.33,1.5h-.13a2.2,2.2,0,0,0-.93-1.19,2.9,2.9,0,0,0-1.59-.45,3.63,3.63,0,0,0-1.68.41,4.28,4.28,0,0,0-1.35,1.12,5.59,5.59,0,0,0-.91,1.7,6.28,6.28,0,0,0-.33,2.1,3.68,3.68,0,0,0,.38,1.7,2.94,2.94,0,0,0,1.06,1.15,2.89,2.89,0,0,0,1.54.41,3.36,3.36,0,0,0,1.46-.31,2.63,2.63,0,0,0,1.07-.91h.15l-.35,1.51a1.81,1.81,0,0,1-.66,1.08,2.24,2.24,0,0,1-1.4.39,2.42,2.42,0,0,1-1.26-.27.9.9,0,0,1-.5-.69h-2.27a2,2,0,0,0,.49,1.34,3.13,3.13,0,0,0,1.36.93,5.42,5.42,0,0,0,2,.34Zm.87-5.11a1.5,1.5,0,0,1-1.19-.5,2,2,0,0,1-.44-1.37,3.82,3.82,0,0,1,.18-1.25,3.14,3.14,0,0,1,.5-1,2.24,2.24,0,0,1,.75-.65,1.9,1.9,0,0,1,.93-.22,1.56,1.56,0,0,1,1.22.5,1.91,1.91,0,0,1,.46,1.33,4,4,0,0,1-.19,1.24,3.05,3.05,0,0,1-.51,1,2.47,2.47,0,0,1-.77.67,2,2,0,0,1-.94.23Zm5.67,1.85H750l1.83-8.61h-2.28Zm3.5-9.9a1.23,1.23,0,0,0,.9-.39,1.26,1.26,0,0,0,.38-.92,1.29,1.29,0,0,0-.38-.92,1.21,1.21,0,0,0-.9-.37,1.29,1.29,0,0,0-.91,2.21A1.25,1.25,0,0,0,751.2,451.44Zm.77,9.9h2.28l1.08-5.07a2.54,2.54,0,0,1,.39-.91,2.09,2.09,0,0,1,.66-.63,2,2,0,0,1,.91-.23,1.38,1.38,0,0,1,1,.38,1.29,1.29,0,0,1,.36,1,3,3,0,0,1,0,.31,2.57,2.57,0,0,1-.06.35l-1,4.83h2.28l1.1-5.21a4.51,4.51,0,0,0,.09-.53c0-.16,0-.33,0-.49a2.54,2.54,0,0,0-.31-1.29,2.37,2.37,0,0,0-.88-.9,2.76,2.76,0,0,0-1.38-.33,2.86,2.86,0,0,0-1.58.42,3.59,3.59,0,0,0-1.07,1.09h-.14l.3-1.37H753.8Zm13.34,3.26a5.2,5.2,0,0,0,3-.78,3.22,3.22,0,0,0,1.44-2.13l1.93-9h-2.22l-.33,1.5H769a2.17,2.17,0,0,0-.94-1.19,2.86,2.86,0,0,0-1.59-.45,3.62,3.62,0,0,0-1.67.41,4.21,4.21,0,0,0-1.35,1.13,5.47,5.47,0,0,0-.91,1.7,6.28,6.28,0,0,0-.33,2.1,3.6,3.6,0,0,0,.39,1.7,2.81,2.81,0,0,0,2.58,1.55,3.38,3.38,0,0,0,1.47-.31,2.69,2.69,0,0,0,1.07-.91h.14l-.34,1.51a1.86,1.86,0,0,1-.66,1.08,2.24,2.24,0,0,1-1.4.39,2.4,2.4,0,0,1-1.26-.27.88.88,0,0,1-.5-.69h-2.27a2.09,2.09,0,0,0,.48,1.34,3.25,3.25,0,0,0,1.36.93A5.5,5.5,0,0,0,765.31,464.6Zm.87-5.11A1.48,1.48,0,0,1,765,459a2,2,0,0,1-.45-1.36,4.39,4.39,0,0,1,.18-1.25,3.24,3.24,0,0,1,.5-1,2.34,2.34,0,0,1,.75-.65,2.07,2.07,0,0,1,.94-.23,1.56,1.56,0,0,1,1.22.5,1.87,1.87,0,0,1,.45,1.34,3.94,3.94,0,0,1-.18,1.23,3.28,3.28,0,0,1-.52,1,2.47,2.47,0,0,1-.77.67,2,2,0,0,1-.93.23Zm23.18-6.76h-2.28l-2.61,6.18h-.14l-.2-6.18h-2.2l-2.78,6.14H779l0-6.14h-2.22l.47,8.61h2.39l2.78-5.92h.14l.27,5.92h2.44Zm-.46,8.61h2.27l1.83-8.61h-2.28Zm3.5-9.9a1.25,1.25,0,0,0,.91-.39,1.21,1.21,0,0,0,.37-.92,1.24,1.24,0,0,0-.37-.92,1.29,1.29,0,0,0-1.81,0,1.29,1.29,0,0,0-.39.92,1.27,1.27,0,0,0,.39.92A1.23,1.23,0,0,0,792.4,451.44Zm4.34,9.93c.26,0,.5,0,.72,0a3,3,0,0,0,.51-.08l.36-1.71-.2,0h-.48a1.18,1.18,0,0,1-.71-.18.68.68,0,0,1-.24-.58.9.9,0,0,1,0-.23c0-.08,0-.17,0-.27l.81-3.75h1.82l.38-1.79h-1.84l.46-2.13h-2.28l-.46,2.13h-1.37l-.38,1.79h1.39l-.91,4.2a2.85,2.85,0,0,0-.06.39,2.11,2.11,0,0,0,0,.35,1.53,1.53,0,0,0,.67,1.35A2.93,2.93,0,0,0,796.74,461.37Zm2.79,0h2.28l1.09-5.14a2.57,2.57,0,0,1,.38-.9,2.15,2.15,0,0,1,.68-.63,1.9,1.9,0,0,1,.93-.22,1.5,1.5,0,0,1,1.05.36,1.26,1.26,0,0,1,.38,1c0,.11,0,.22,0,.33s0,.22-.06.33l-1,4.9h2.27l1.12-5.28c0-.18.06-.36.08-.53s0-.32,0-.49a2.63,2.63,0,0,0-.3-1.26,2.33,2.33,0,0,0-.9-.89,2.83,2.83,0,0,0-1.4-.33,2.86,2.86,0,0,0-1.58.42,3.49,3.49,0,0,0-1,1h-.15l1-4.51h-2.28Zm19.26,0a5.09,5.09,0,0,0,2.21-.45,3.75,3.75,0,0,0,1.52-1.27,3.16,3.16,0,0,0,.55-1.84,2.18,2.18,0,0,0-.54-1.48,2.48,2.48,0,0,0-1.48-.77l0-.14a3,3,0,0,0,1.31-.51,2.84,2.84,0,0,0,.9-1,2.71,2.71,0,0,0,.33-1.36,2.06,2.06,0,0,0-.4-1.27,2.6,2.6,0,0,0-1.13-.86,4.48,4.48,0,0,0-1.7-.3h-4.6l-2.39,11.27Zm-1-9.52h1.75a2.14,2.14,0,0,1,1.26.31,1,1,0,0,1,.43.89,1.35,1.35,0,0,1-.28.87,1.82,1.82,0,0,1-.78.59,2.92,2.92,0,0,1-1.13.22h-1.88Zm-1.66,7.67.7-3.2h2a2.83,2.83,0,0,1,1,.16,1.2,1.2,0,0,1,.83,1.21,1.62,1.62,0,0,1-.3.95,1.94,1.94,0,0,1-.82.65,2.84,2.84,0,0,1-1.19.23Zm17.42-6.76h-2.28l-1.07,5a2.76,2.76,0,0,1-.39.94,2.05,2.05,0,0,1-.67.64,1.85,1.85,0,0,1-.93.22,1.37,1.37,0,0,1-1-.34,1.34,1.34,0,0,1-.34-1c0-.08,0-.19,0-.32a2.33,2.33,0,0,1,.06-.35l1-4.81h-2.29l-1.08,5.18q-.06.3-.09.6c0,.21,0,.38,0,.5a2.64,2.64,0,0,0,.32,1.33,2.29,2.29,0,0,0,.92.88,2.93,2.93,0,0,0,1.39.32,3.08,3.08,0,0,0,1.08-.2,2.5,2.5,0,0,0,.85-.52,3,3,0,0,0,.63-.79h.14l-.28,1.31h2.21Zm1.2,2.6a2,2,0,0,0,.5,1.4,3.54,3.54,0,0,0,1.53.92l1.34.47a1.65,1.65,0,0,1,.69.37.62.62,0,0,1,.19.46.69.69,0,0,1-.18.49,1.28,1.28,0,0,1-.51.31,2.27,2.27,0,0,1-.78.11,1.83,1.83,0,0,1-1.07-.28,1.14,1.14,0,0,1-.53-.72h-2.2a2.39,2.39,0,0,0,.52,1.4,3.18,3.18,0,0,0,1.34.94,5.35,5.35,0,0,0,1.94.33,5.12,5.12,0,0,0,2-.35,3.16,3.16,0,0,0,1.32-1,2.42,2.42,0,0,0,.47-1.48,2,2,0,0,0-.47-1.36,3.48,3.48,0,0,0-1.52-.9l-1.4-.49a2.19,2.19,0,0,1-.73-.37.65.65,0,0,1-.23-.49.67.67,0,0,1,.18-.46,1.17,1.17,0,0,1,.48-.31,2.19,2.19,0,0,1,1.43,0,1.28,1.28,0,0,1,.51.31.87.87,0,0,1,.25.47h2.1a2.39,2.39,0,0,0-.5-1.34,3,3,0,0,0-1.23-.9,5,5,0,0,0-1.83-.32,4.91,4.91,0,0,0-1.86.34,3,3,0,0,0-1.26,1,2.42,2.42,0,0,0-.46,1.47Zm7.64,6h2.28l1.82-8.61h-2.27Zm3.51-9.9a1.3,1.3,0,0,0,1.28-1.31,1.28,1.28,0,0,0-.37-.92,1.25,1.25,0,0,0-.91-.37,1.21,1.21,0,0,0-.9.37,1.29,1.29,0,0,0-.39.92,1.27,1.27,0,0,0,.39.92A1.23,1.23,0,0,0,845.91,451.44Zm.77,9.9H849l1.08-5.07a3,3,0,0,1,.39-.91,2.09,2.09,0,0,1,.66-.63,2,2,0,0,1,.91-.23,1.38,1.38,0,0,1,1,.38,1.29,1.29,0,0,1,.36,1,1.56,1.56,0,0,1,0,.31,2.57,2.57,0,0,1-.06.35l-1,4.83h2.27l1.1-5.21a4.51,4.51,0,0,0,.09-.53,4,4,0,0,0,0-.49,2.76,2.76,0,0,0-.31-1.29,2.4,2.4,0,0,0-.89-.9,2.73,2.73,0,0,0-1.38-.33,2.81,2.81,0,0,0-1.57.42,3.38,3.38,0,0,0-1.07,1.09h-.14l.3-1.37h-2.22Zm12.66-5.22a2.84,2.84,0,0,1,.46-1,2.19,2.19,0,0,1,.75-.64,2,2,0,0,1,1-.23,1.7,1.7,0,0,1,.86.2,1.36,1.36,0,0,1,.54.55,1.65,1.65,0,0,1,.2.78c0,.05,0,.1,0,.16a.9.9,0,0,1,0,.13Zm1.41,5.41a5.11,5.11,0,0,0,1.9-.33,3.81,3.81,0,0,0,1.39-.94,3.2,3.2,0,0,0,.75-1.39H862.6a1.58,1.58,0,0,1-.63.65,2.21,2.21,0,0,1-1.07.24,1.85,1.85,0,0,1-.9-.22,1.61,1.61,0,0,1-.67-.65,2.17,2.17,0,0,1-.25-1.1v-.24h6c0-.2.07-.44.09-.72a6.79,6.79,0,0,0,0-.68,3.68,3.68,0,0,0-.48-1.92,3.32,3.32,0,0,0-1.3-1.25,3.81,3.81,0,0,0-1.84-.44,4.91,4.91,0,0,0-1.89.38,4.29,4.29,0,0,0-1.48,1.08,4.77,4.77,0,0,0-1,1.68,6.54,6.54,0,0,0-.34,2.15,3.88,3.88,0,0,0,.49,2,3.22,3.22,0,0,0,1.35,1.26A4.36,4.36,0,0,0,860.75,461.53Zm6.24-6.2a2,2,0,0,0,.5,1.41,3.64,3.64,0,0,0,1.53.92l1.34.47a1.76,1.76,0,0,1,.69.36.68.68,0,0,1,.19.47.7.7,0,0,1-.18.48,1.19,1.19,0,0,1-.51.32,2.27,2.27,0,0,1-.78.11,1.92,1.92,0,0,1-1.07-.29,1.14,1.14,0,0,1-.53-.72H866a2.39,2.39,0,0,0,.52,1.4,3.15,3.15,0,0,0,1.33.94,5.15,5.15,0,0,0,1.94.33,5,5,0,0,0,2-.35,3.16,3.16,0,0,0,1.32-1,2.42,2.42,0,0,0,.47-1.48,2,2,0,0,0-.47-1.36,3.48,3.48,0,0,0-1.52-.9l-1.4-.5a2,2,0,0,1-.73-.36.65.65,0,0,1-.23-.49.67.67,0,0,1,.18-.46,1.17,1.17,0,0,1,.48-.31,2.19,2.19,0,0,1,1.43,0,1.28,1.28,0,0,1,.51.31.87.87,0,0,1,.25.47h2.09a2.38,2.38,0,0,0-.5-1.35,3,3,0,0,0-1.23-.89,4.94,4.94,0,0,0-1.83-.32,4.76,4.76,0,0,0-1.86.34,2.93,2.93,0,0,0-1.25,1,2.42,2.42,0,0,0-.46,1.47Zm8.59,0a2.07,2.07,0,0,0,.5,1.41,3.7,3.7,0,0,0,1.53.92l1.34.47a1.69,1.69,0,0,1,.69.36.65.65,0,0,1,.2.47.71.71,0,0,1-.19.48,1.19,1.19,0,0,1-.51.32,2.25,2.25,0,0,1-.77.11,1.92,1.92,0,0,1-1.07-.29,1.14,1.14,0,0,1-.53-.72h-2.2a2.39,2.39,0,0,0,.52,1.4,3.15,3.15,0,0,0,1.33.94,5.15,5.15,0,0,0,1.94.33,4.94,4.94,0,0,0,2-.35,3.16,3.16,0,0,0,1.32-1,2.46,2.46,0,0,0,.47-1.48,2,2,0,0,0-.47-1.37,3.43,3.43,0,0,0-1.52-.9l-1.4-.49a2.29,2.29,0,0,1-.73-.37.63.63,0,0,1-.23-.48.67.67,0,0,1,.18-.47,1.17,1.17,0,0,1,.48-.31,2,2,0,0,1,.72-.11,1.92,1.92,0,0,1,.71.11,1.28,1.28,0,0,1,.51.31,1,1,0,0,1,.26.47h2.09a2.42,2.42,0,0,0-.5-1.34,3,3,0,0,0-1.23-.9,5,5,0,0,0-1.83-.32,4.73,4.73,0,0,0-1.86.35,2.87,2.87,0,0,0-1.26,1,2.49,2.49,0,0,0-.46,1.47Z" transform="translate(-500.42 -310.59)"/><path id="Path_6" data-name="Path 6" class="cls-17" d="M1044.64,459.33h-5.1l.61-2.74h4.8l.39-1.87h-4.81l.58-2.63h5.1l.41-2h-7.47l-2.39,11.27h7.47Zm1.49,2h2.28l1.09-5.07a2.71,2.71,0,0,1,.38-.91,2,2,0,0,1,.67-.63,1.89,1.89,0,0,1,.91-.23,1.35,1.35,0,0,1,1,.38,1.29,1.29,0,0,1,.36,1,1.56,1.56,0,0,1,0,.31c0,.11,0,.22,0,.35l-1,4.83H1054l1.1-5.21a4.51,4.51,0,0,0,.09-.53,4,4,0,0,0,0-.49,2.76,2.76,0,0,0-.31-1.29,2.4,2.4,0,0,0-.89-.9,2.73,2.73,0,0,0-1.38-.33,2.81,2.81,0,0,0-1.57.42,3.38,3.38,0,0,0-1.07,1.09h-.14l.3-1.37H1048Zm13.34,3.26a5.2,5.2,0,0,0,3-.78,3.24,3.24,0,0,0,1.45-2.13l1.92-9h-2.22l-.33,1.5h-.13a2.2,2.2,0,0,0-.93-1.19,2.9,2.9,0,0,0-1.59-.45,3.63,3.63,0,0,0-1.68.41,4.31,4.31,0,0,0-1.35,1.13,5.47,5.47,0,0,0-.91,1.7,6.83,6.83,0,0,0-.33,2.1,3.6,3.6,0,0,0,.39,1.7,2.91,2.91,0,0,0,1.06,1.14,2.84,2.84,0,0,0,1.53.41,3.41,3.41,0,0,0,1.47-.31,2.69,2.69,0,0,0,1.07-.91h.14l-.35,1.51a1.81,1.81,0,0,1-.66,1.08,2.24,2.24,0,0,1-1.4.39,2.42,2.42,0,0,1-1.26-.27.9.9,0,0,1-.5-.69h-2.27a2,2,0,0,0,.49,1.34,3.16,3.16,0,0,0,1.35.93A5.5,5.5,0,0,0,1059.47,464.6Zm.87-5.11a1.5,1.5,0,0,1-1.19-.5,2,2,0,0,1-.44-1.36,3.79,3.79,0,0,1,.18-1.25,3.24,3.24,0,0,1,.5-1,2.24,2.24,0,0,1,.75-.65,2,2,0,0,1,.94-.23,1.54,1.54,0,0,1,1.21.5,1.92,1.92,0,0,1,.46,1.34,4,4,0,0,1-.19,1.23,3.08,3.08,0,0,1-.52,1,2.47,2.47,0,0,1-.77.67,2,2,0,0,1-.93.23Zm9.22.28a1.47,1.47,0,0,1-.93-.27.84.84,0,0,1-.36-.7,1,1,0,0,1,.44-.81,2.39,2.39,0,0,1,1.22-.34l1.78-.06-.16.74a1.59,1.59,0,0,1-.38.74,2,2,0,0,1-.71.52,2.13,2.13,0,0,1-.9.18Zm-1,1.7a2.92,2.92,0,0,0,1-.14,3.3,3.3,0,0,0,.84-.42,2.36,2.36,0,0,0,.63-.63h.14l-.23,1.06h2.21l1.18-5.57a1.86,1.86,0,0,0,.05-.34c0-.12,0-.24,0-.35a2.18,2.18,0,0,0-.44-1.34,2.82,2.82,0,0,0-1.22-.88,5.33,5.33,0,0,0-3.61,0,3.54,3.54,0,0,0-1.33.89,3,3,0,0,0-.71,1.36h2.15a1.07,1.07,0,0,1,.32-.41,1.37,1.37,0,0,1,.51-.26,2.52,2.52,0,0,1,.67-.09,1.78,1.78,0,0,1,1,.26.8.8,0,0,1,.39.71.62.62,0,0,1,0,.13,1.64,1.64,0,0,0,0,.18l-.12.53-2.14.07a4.88,4.88,0,0,0-2.82.83,2.5,2.5,0,0,0-1,2.08,2.32,2.32,0,0,0,.34,1.2,2.56,2.56,0,0,0,.92.84,2.84,2.84,0,0,0,1.31.31Zm10,3.13a5.38,5.38,0,0,0,3-.78,3.26,3.26,0,0,0,1.44-2.13l1.92-9h-2.21l-.33,1.5h-.13a2.23,2.23,0,0,0-.94-1.19,2.9,2.9,0,0,0-1.59-.45,3.59,3.59,0,0,0-1.67.41,4.24,4.24,0,0,0-1.36,1.13,5.47,5.47,0,0,0-.91,1.7,6.83,6.83,0,0,0-.33,2.1,3.6,3.6,0,0,0,.39,1.7,2.91,2.91,0,0,0,1.06,1.14,2.84,2.84,0,0,0,1.53.41,3.38,3.38,0,0,0,1.47-.31A2.69,2.69,0,0,0,1081,460h.14l-.34,1.51a1.86,1.86,0,0,1-.66,1.08,2.26,2.26,0,0,1-1.4.39,2.43,2.43,0,0,1-1.27-.27.92.92,0,0,1-.5-.69h-2.26a2.09,2.09,0,0,0,.48,1.34,3.25,3.25,0,0,0,1.36.93,5.44,5.44,0,0,0,2,.34Zm.86-5.11a1.5,1.5,0,0,1-1.19-.5,2,2,0,0,1-.44-1.36,4.34,4.34,0,0,1,.18-1.25,3.3,3.3,0,0,1,.5-1,2.34,2.34,0,0,1,.75-.65,2,2,0,0,1,.94-.22,1.56,1.56,0,0,1,1.22.5,1.91,1.91,0,0,1,.45,1.33,4.39,4.39,0,0,1-.18,1.25,3.18,3.18,0,0,1-.52,1,2.57,2.57,0,0,1-.77.66,1.82,1.82,0,0,1-.94.23Zm5.67,1.85h2.27l1.83-8.61H1087Zm3.5-9.9a1.23,1.23,0,0,0,.91-.39,1.26,1.26,0,0,0,.38-.92,1.29,1.29,0,0,0-.38-.92,1.29,1.29,0,0,0-1.81,1.84A1.24,1.24,0,0,0,1088.64,451.44Zm.77,9.9h2.28l1.09-5.07a2.71,2.71,0,0,1,.38-.91,2,2,0,0,1,.67-.63,1.92,1.92,0,0,1,.91-.23,1.29,1.29,0,0,1,1.4,1.35,3,3,0,0,1,0,.31c0,.11,0,.22-.06.35l-1,4.83h2.27l1.1-5.21a4.51,4.51,0,0,0,.09-.53,4,4,0,0,0,0-.49,2.64,2.64,0,0,0-.31-1.29,2.45,2.45,0,0,0-.88-.9,2.78,2.78,0,0,0-1.38-.33,2.82,2.82,0,0,0-1.58.42,3.48,3.48,0,0,0-1.07,1.09h-.14l.3-1.37h-2.21Zm13.35,3.26a5.22,5.22,0,0,0,3-.78,3.26,3.26,0,0,0,1.44-2.13l1.92-9h-2.22l-.33,1.5h-.13a2.17,2.17,0,0,0-.93-1.19,2.9,2.9,0,0,0-1.59-.45,3.59,3.59,0,0,0-1.67.41,4.24,4.24,0,0,0-1.36,1.13,5.47,5.47,0,0,0-.91,1.7,6.83,6.83,0,0,0-.33,2.1,3.6,3.6,0,0,0,.39,1.7,2.91,2.91,0,0,0,1.06,1.14,2.84,2.84,0,0,0,1.53.41,3.38,3.38,0,0,0,1.47-.31,2.69,2.69,0,0,0,1.07-.91h.14l-.35,1.51a1.81,1.81,0,0,1-.66,1.08,2.22,2.22,0,0,1-1.4.39,2.42,2.42,0,0,1-1.26-.27.9.9,0,0,1-.5-.69h-2.26a2,2,0,0,0,.48,1.34,3.22,3.22,0,0,0,1.36.93A5.44,5.44,0,0,0,1102.76,464.6Zm.86-5.11a1.51,1.51,0,0,1-1.19-.5,2,2,0,0,1-.44-1.36,4.39,4.39,0,0,1,.18-1.25,3.24,3.24,0,0,1,.5-1,2.34,2.34,0,0,1,.75-.65,1.92,1.92,0,0,1,.94-.23,1.57,1.57,0,0,1,1.22.5,2,2,0,0,1,.45,1.33,4,4,0,0,1-.19,1.24,3.05,3.05,0,0,1-.51,1,2.47,2.47,0,0,1-.77.67,2,2,0,0,1-.94.23Zm23.18-6.76h-2.27l-2.61,6.18h-.14l-.2-6.18h-2.21l-2.77,6.14h-.14l0-6.14h-2.22l.47,8.61h2.39l2.77-5.92h.14l.28,5.92h2.43Zm-.46,8.61h2.27l1.83-8.61h-2.27Zm3.51-9.9a1.23,1.23,0,0,0,.9-.39,1.3,1.3,0,0,0,0-1.84,1.21,1.21,0,0,0-.9-.37,1.28,1.28,0,0,0-1.29,1.29,1.22,1.22,0,0,0,.38.92A1.26,1.26,0,0,0,1129.85,451.44Zm4.33,9.93c.26,0,.5,0,.72,0a3,3,0,0,0,.52-.08l.35-1.71-.2,0h-.48a1.15,1.15,0,0,1-.7-.18.66.66,0,0,1-.25-.58,1.79,1.79,0,0,1,0-.23c0-.08,0-.17,0-.27l.82-3.75h1.82l.38-1.79h-1.84l.45-2.13h-2.28l-.45,2.13h-1.38l-.37,1.79h1.38l-.91,4.2-.06.39c0,.12,0,.24,0,.35a1.57,1.57,0,0,0,.68,1.36A2.89,2.89,0,0,0,1134.18,461.37Zm2.79,0h2.29l1.09-5.14a2.25,2.25,0,0,1,.38-.9,2,2,0,0,1,.68-.63,1.84,1.84,0,0,1,.92-.22,1.48,1.48,0,0,1,1.05.36,1.26,1.26,0,0,1,.38,1,1.83,1.83,0,0,1,0,.33,1.91,1.91,0,0,1-.06.33l-1,4.9h2.28l1.1-5.28a5.34,5.34,0,0,0,.09-.53c0-.16,0-.33,0-.49a2.53,2.53,0,0,0-.31-1.26,2.24,2.24,0,0,0-.89-.89,2.83,2.83,0,0,0-1.4-.33,2.86,2.86,0,0,0-1.58.42,3.61,3.61,0,0,0-1,1h-.14l1-4.51h-2.28Zm19,0,2-9.25h3.37l.42-2h-9.13l-.41,2h3.37l-2,9.25Zm6.4-5.22a2.84,2.84,0,0,1,.46-1,2.19,2.19,0,0,1,.75-.64,2,2,0,0,1,1-.23,1.7,1.7,0,0,1,.86.2,1.45,1.45,0,0,1,.55.55,1.64,1.64,0,0,1,.19.78c0,.05,0,.1,0,.16a.9.9,0,0,1,0,.13Zm1.42,5.41a5.14,5.14,0,0,0,1.9-.33,3.85,3.85,0,0,0,1.38-.94,3.1,3.1,0,0,0,.75-1.39h-2.19a1.5,1.5,0,0,1-.62.65,2.25,2.25,0,0,1-1.08.24,1.85,1.85,0,0,1-.9-.22,1.61,1.61,0,0,1-.67-.65,2.17,2.17,0,0,1-.25-1.1v-.24h6c0-.2.07-.44.09-.72a6.79,6.79,0,0,0,0-.68,3.68,3.68,0,0,0-.48-1.92,3.32,3.32,0,0,0-1.3-1.25,3.85,3.85,0,0,0-1.85-.44,4.91,4.91,0,0,0-1.89.38,4.38,4.38,0,0,0-1.48,1.08,4.93,4.93,0,0,0-1,1.68,6.81,6.81,0,0,0-.34,2.15,3.88,3.88,0,0,0,.49,2,3.22,3.22,0,0,0,1.35,1.26A4.37,4.37,0,0,0,1163.75,461.53Zm8.75-1.76a1.47,1.47,0,0,1-.93-.27.87.87,0,0,1-.36-.7,1,1,0,0,1,.45-.81,2.39,2.39,0,0,1,1.22-.34l1.78-.06-.17.74a1.64,1.64,0,0,1-.38.74,2,2,0,0,1-.7.51A2,2,0,0,1,1172.5,459.77Zm-1,1.7a2.89,2.89,0,0,0,1-.14,3.37,3.37,0,0,0,.85-.42,2.07,2.07,0,0,0,.62-.63h.14l-.23,1.06h2.22l1.18-5.57c0-.11,0-.22,0-.34s0-.24,0-.35a2.18,2.18,0,0,0-.44-1.34,2.8,2.8,0,0,0-1.23-.88,5,5,0,0,0-1.83-.32,4.92,4.92,0,0,0-1.78.32,3.56,3.56,0,0,0-1.32.88,3,3,0,0,0-.71,1.37h2.14a1.14,1.14,0,0,1,.33-.42,1.37,1.37,0,0,1,.51-.26,2.44,2.44,0,0,1,.66-.09,1.8,1.8,0,0,1,1,.26.82.82,0,0,1,.39.71s0,.09,0,.13a1.64,1.64,0,0,0,0,.18l-.12.52-2.14.07a4.91,4.91,0,0,0-2.83.83,2.46,2.46,0,0,0-1,2.08,2.23,2.23,0,0,0,.34,1.2,2.47,2.47,0,0,0,.92.84,2.81,2.81,0,0,0,1.3.32Zm6.39-.13h2.28l1.11-5.21a2.44,2.44,0,0,1,.37-.86,1.78,1.78,0,0,1,.62-.57,1.57,1.57,0,0,1,.76-.2,1.17,1.17,0,0,1,.89.34,1.22,1.22,0,0,1,.32.87,3,3,0,0,1,0,.31,2.33,2.33,0,0,1-.06.35l-1,5h2.2l1.1-5.17a2.31,2.31,0,0,1,.38-.9,1.88,1.88,0,0,1,.62-.57,1.53,1.53,0,0,1,.75-.2,1.17,1.17,0,0,1,.9.35,1.25,1.25,0,0,1,.32.87c0,.1,0,.2,0,.31s0,.22-.06.34l-1,5h2.28l1.12-5.32a5.24,5.24,0,0,0,.08-.53,3.91,3.91,0,0,0,0-.49,2.4,2.4,0,0,0-.31-1.23,2.29,2.29,0,0,0-.85-.87,2.47,2.47,0,0,0-1.25-.31,3,3,0,0,0-1.15.2,2.94,2.94,0,0,0-.92.54,4.6,4.6,0,0,0-.7.83h-.14a2.14,2.14,0,0,0-.73-1.09,2.27,2.27,0,0,0-1.48-.48,2.52,2.52,0,0,0-1.41.43,3.21,3.21,0,0,0-1,1.12h-.14l.3-1.42h-2.21Z" transform="translate(-500.42 -310.59)"/><path id="Path_8" data-name="Path 8" class="cls-17" d="M739.25,629.15l-2.39,11.27H742a5.47,5.47,0,0,0,2.36-.5,5.68,5.68,0,0,0,1.87-1.39,6.62,6.62,0,0,0,1.22-2.12,7.92,7.92,0,0,0,.43-2.68,5,5,0,0,0-.55-2.47,3.76,3.76,0,0,0-1.59-1.57,5.32,5.32,0,0,0-2.48-.55Zm2,2h1.5a2.77,2.77,0,0,1,1.46.35,2.32,2.32,0,0,1,.93,1,3.46,3.46,0,0,1,.32,1.52,5.51,5.51,0,0,1-.28,1.8,4.15,4.15,0,0,1-.76,1.4,3.31,3.31,0,0,1-2.63,1.21h-2.11Zm10,4.05a2.75,2.75,0,0,1,.46-1,2.19,2.19,0,0,1,.75-.64,1.92,1.92,0,0,1,1-.23,1.73,1.73,0,0,1,.86.2,1.36,1.36,0,0,1,.54.55,1.5,1.5,0,0,1,.19.78v.16a.9.9,0,0,1,0,.13Zm1.41,5.41a4.92,4.92,0,0,0,1.9-.34,3.74,3.74,0,0,0,1.39-.93,3.31,3.31,0,0,0,.75-1.39h-2.19a1.47,1.47,0,0,1-.62.64,2.17,2.17,0,0,1-1.08.25,2,2,0,0,1-.9-.22,1.68,1.68,0,0,1-.67-.65,2.22,2.22,0,0,1-.25-1.1v-.24h6c0-.2.07-.44.09-.73a6.49,6.49,0,0,0,0-.68,3.65,3.65,0,0,0-.48-1.91,3.26,3.26,0,0,0-1.3-1.25,3.83,3.83,0,0,0-1.85-.44,4.52,4.52,0,0,0-1.88.38,4.29,4.29,0,0,0-1.48,1.08,4.77,4.77,0,0,0-1,1.68,6.29,6.29,0,0,0-.34,2.15,3.88,3.88,0,0,0,.49,2,3.28,3.28,0,0,0,1.35,1.26A4.33,4.33,0,0,0,752.62,640.61Zm5.17-.19h2.29l2.53-11.9h-2.28Zm4.36,0h2.27l1.83-8.62H764Zm3.5-9.9a1.23,1.23,0,0,0,.91-.39,1.26,1.26,0,0,0,.38-.92,1.28,1.28,0,0,0-2.19-.92,1.31,1.31,0,0,0,.9,2.23Zm1.9,1.28,1.08,8.62h2.58L776,631.8h-2.44l-3.08,6.3h-.14l-.49-6.3Zm10.59,3.4a2.75,2.75,0,0,1,.46-1,2.19,2.19,0,0,1,.75-.64,1.92,1.92,0,0,1,1-.23,1.73,1.73,0,0,1,.86.2,1.36,1.36,0,0,1,.54.55,1.5,1.5,0,0,1,.19.78v.16a.9.9,0,0,1,0,.13Zm1.41,5.41a4.92,4.92,0,0,0,1.9-.34,3.74,3.74,0,0,0,1.39-.93,3.19,3.19,0,0,0,.74-1.39H781.4a1.47,1.47,0,0,1-.62.64,2.18,2.18,0,0,1-1.09.25,2,2,0,0,1-.9-.22,1.65,1.65,0,0,1-.66-.65,2.22,2.22,0,0,1-.25-1.1v-.24h6c0-.2.06-.44.09-.73a6.49,6.49,0,0,0,0-.68,3.65,3.65,0,0,0-.48-1.91,3.26,3.26,0,0,0-1.3-1.25,3.83,3.83,0,0,0-1.85-.44,4.52,4.52,0,0,0-1.88.38,4.29,4.29,0,0,0-1.48,1.08,4.77,4.77,0,0,0-1,1.68,6.29,6.29,0,0,0-.34,2.15,3.88,3.88,0,0,0,.49,2,3.28,3.28,0,0,0,1.35,1.26A4.33,4.33,0,0,0,779.55,640.61Zm5.08-.19h2.28l1-4.75a3.62,3.62,0,0,1,.42-1.09,1.81,1.81,0,0,1,.72-.65,2.08,2.08,0,0,1,1-.22,3.08,3.08,0,0,1,.68.07,3.23,3.23,0,0,1,.63.16l.46-2.09a1.71,1.71,0,0,0-.49-.14,4.21,4.21,0,0,0-.62-.05,2.35,2.35,0,0,0-1.24.35,2.57,2.57,0,0,0-.9,1h-.14l.24-1.19h-2.21Zm7.43,3.15a5.21,5.21,0,0,0,1.75-.27,3.57,3.57,0,0,0,1.37-.89,6.79,6.79,0,0,0,1.18-1.68l4.92-8.93h-2.44l-3.16,6.42h-.14l-.5-6.42h-2.32l1.12,8.64-.06.12,0,.12-.06.11a1.61,1.61,0,0,1-.66.73,2.14,2.14,0,0,1-1,.22h-.36l-.28,0-.37,1.82.48,0,.57,0Zm17.09-11.66a1.34,1.34,0,0,1,.7-1.17,1.32,1.32,0,0,1,.7-.19,1.25,1.25,0,0,1,.83.28.92.92,0,0,1,.33.74,1.59,1.59,0,0,1-.43,1,3.42,3.42,0,0,1-1.42.81,5.68,5.68,0,0,1-.55-.83A1.73,1.73,0,0,1,809.15,631.91Zm-.23,7a2.66,2.66,0,0,1-1.08-.2,1.68,1.68,0,0,1-.72-.57,1.46,1.46,0,0,1-.25-.81,1.58,1.58,0,0,1,.43-1.07,3.16,3.16,0,0,1,1.24-.77l.12,0,.12,0,.13,0,2.05,3a3.49,3.49,0,0,1-1,.4A4,4,0,0,1,808.92,638.94Zm3.34,1.48h2.37l-1.21-1.81a6.89,6.89,0,0,0,1.21-1.76,6,6,0,0,0,.56-2.08l0-.3h-1.91l0,.25a4.31,4.31,0,0,1-.89,2.33l-1.7-2.43A5.43,5.43,0,0,0,813,633.2a2.83,2.83,0,0,0,.72-1.84,2,2,0,0,0-.41-1.23,2.74,2.74,0,0,0-1.11-.85,4,4,0,0,0-1.61-.31,3.9,3.9,0,0,0-1.71.37,3,3,0,0,0-1.2,1,2.35,2.35,0,0,0-.44,1.4,3,3,0,0,0,.21,1.06,6.21,6.21,0,0,0,.7,1.23l-.57.24a5,5,0,0,0-2.09,1.37,2.9,2.9,0,0,0-.7,1.92,2.56,2.56,0,0,0,.52,1.58,3.67,3.67,0,0,0,1.43,1.1,4.93,4.93,0,0,0,2,.41,6.55,6.55,0,0,0,1.65-.21,6,6,0,0,0,1.48-.6Zm7.91,0h2.37l.88-4.08h2l1.34,4.08h2.54l-1.55-4.36a4,4,0,0,0,1.48-.84,3.89,3.89,0,0,0,1-1.3,3.7,3.7,0,0,0,.34-1.57,3,3,0,0,0-1.69-2.79,4,4,0,0,0-1.84-.41h-4.46Zm4.38-9.37h1.94a1.8,1.8,0,0,1,1.22.4,1.35,1.35,0,0,1,.44,1.1,1.86,1.86,0,0,1-.28,1,2,2,0,0,1-.81.7,2.79,2.79,0,0,1-1.21.25h-2.06Zm6.22,9.37H833l1.83-8.62H832.6Zm3.51-9.9a1.32,1.32,0,0,0,1.28-1.31,1.24,1.24,0,0,0-.38-.92,1.26,1.26,0,0,0-.9-.38,1.3,1.3,0,0,0-.91.38,1.3,1.3,0,0,0,0,1.84A1.26,1.26,0,0,0,834.28,630.52Zm1.89,3.89a2,2,0,0,0,.5,1.4,3.54,3.54,0,0,0,1.53.92l1.34.47a1.65,1.65,0,0,1,.69.37.62.62,0,0,1,.19.46.69.69,0,0,1-.18.49,1.28,1.28,0,0,1-.51.31,2.27,2.27,0,0,1-.78.11,1.83,1.83,0,0,1-1.07-.28,1.14,1.14,0,0,1-.53-.72h-2.2a2.39,2.39,0,0,0,.52,1.4,3.12,3.12,0,0,0,1.33.93,5.16,5.16,0,0,0,1.94.34,5.32,5.32,0,0,0,2-.35,3.1,3.1,0,0,0,1.32-1,2.44,2.44,0,0,0,.47-1.48,2,2,0,0,0-.47-1.36,3.43,3.43,0,0,0-1.52-.9l-1.4-.5a2.08,2.08,0,0,1-.73-.36.65.65,0,0,1-.23-.49.67.67,0,0,1,.18-.46,1.17,1.17,0,0,1,.48-.31,2.22,2.22,0,0,1,.72-.12,2.16,2.16,0,0,1,.71.12,1.28,1.28,0,0,1,.51.31,1,1,0,0,1,.26.47h2.08a2.38,2.38,0,0,0-.5-1.35,2.88,2.88,0,0,0-1.23-.89,5.32,5.32,0,0,0-3.69,0,2.86,2.86,0,0,0-1.25,1,2.41,2.41,0,0,0-.45,1.47Zm9.89,6,.61-2.83.86-.74,1.89,3.57h2.51l-2.57-4.85,4.14-3.77h-2.66l-3.5,3.23h-.14l1.38-6.52h-2.27l-2.53,11.91Z" transform="translate(-500.42 -310.59)"/><path id="Path_7" data-name="Path 7" class="cls-17" d="M1003.45,631.5h.15l.45,4.41h-3Zm1,8.92h2.43l-1.46-11.27h-2.73l-6.41,11.27h2.46l1.46-2.69h4Zm3.76,0h2.28l1-4.75a3.16,3.16,0,0,1,.42-1.09,1.78,1.78,0,0,1,.71-.65,2.14,2.14,0,0,1,1-.22,3.23,3.23,0,0,1,.69.07,3.32,3.32,0,0,1,.62.16l.46-2.09a1.71,1.71,0,0,0-.49-.14,4.32,4.32,0,0,0-.62-.05,2.35,2.35,0,0,0-1.24.35,2.57,2.57,0,0,0-.9,1H1012l.24-1.19H1010Zm11.89-8.8a4.44,4.44,0,0,0-2.48.7,4.73,4.73,0,0,0-1.68,1.92,6.16,6.16,0,0,0-.6,2.74,3.9,3.9,0,0,0,.47,1.92,3.24,3.24,0,0,0,1.31,1.26,4.18,4.18,0,0,0,2,.45,4.75,4.75,0,0,0,2-.41,3.74,3.74,0,0,0,1.39-1.13,3.59,3.59,0,0,0,.68-1.56H1021a1.73,1.73,0,0,1-.65.9,1.91,1.91,0,0,1-1.1.32,1.67,1.67,0,0,1-.82-.21,1.46,1.46,0,0,1-.59-.64,2.35,2.35,0,0,1-.22-1.08,4.84,4.84,0,0,1,.17-1.3,3.44,3.44,0,0,1,.48-1,2.28,2.28,0,0,1,.74-.71,1.85,1.85,0,0,1,1-.25,1.68,1.68,0,0,1,1.08.34,1.25,1.25,0,0,1,.47.95h2.16v-.17a.88.88,0,0,0,0-.17,2.85,2.85,0,0,0-.5-1.37,3.44,3.44,0,0,0-1.22-1.05,3.85,3.85,0,0,0-1.83-.4Zm3.92,8.8h2.28l1.09-5.15a2.74,2.74,0,0,1,.38-.9,2.12,2.12,0,0,1,.68-.62,1.88,1.88,0,0,1,.93-.22,1.41,1.41,0,0,1,1,.35,1.27,1.27,0,0,1,.39,1c0,.11,0,.22,0,.33l-.06.33-1,4.9H1032l1.11-5.28a5.24,5.24,0,0,0,.08-.53,4,4,0,0,0,0-.49,2.64,2.64,0,0,0-.31-1.26,2.24,2.24,0,0,0-.89-.89,2.83,2.83,0,0,0-1.4-.33,2.74,2.74,0,0,0-1.58.42,3.49,3.49,0,0,0-1,1h-.14l1-4.51h-2.28Zm9.88,0h2.27l1.83-8.62h-2.27Zm3.51-9.9a1.23,1.23,0,0,0,.9-.39,1.26,1.26,0,0,0,.38-.92,1.24,1.24,0,0,0-.38-.92,1.26,1.26,0,0,0-.9-.38,1.3,1.3,0,0,0-.91.38,1.3,1.3,0,0,0,0,1.84A1.26,1.26,0,0,0,1037.4,630.52Zm4.33,9.93.72,0a4.34,4.34,0,0,0,.52-.08l.35-1.71-.2,0-.23,0h-.25a1.16,1.16,0,0,1-.7-.19.67.67,0,0,1-.25-.57,1.79,1.79,0,0,1,0-.23c0-.09,0-.18,0-.27l.82-3.75h1.82l.38-1.79h-1.84l.46-2.13h-2.29l-.45,2.13h-1.38l-.37,1.79h1.38l-.9,4.2c0,.13-.05.26-.07.39s0,.23,0,.35A1.57,1.57,0,0,0,1040,640,3,3,0,0,0,1041.73,640.45Zm5.55-5.26a2.79,2.79,0,0,1,.46-1,2.19,2.19,0,0,1,.75-.64,1.92,1.92,0,0,1,1-.23,1.7,1.7,0,0,1,.86.2,1.39,1.39,0,0,1,.55.55,1.72,1.72,0,0,1,.19.77c0,.06,0,.11,0,.17a.9.9,0,0,1,0,.13Zm1.41,5.42a4.92,4.92,0,0,0,1.9-.34,3.66,3.66,0,0,0,1.39-.93,3.17,3.17,0,0,0,.74-1.4h-2.19a1.38,1.38,0,0,1-.61.65,2.15,2.15,0,0,1-1.08.25,2,2,0,0,1-.9-.22,1.59,1.59,0,0,1-.66-.65,2.12,2.12,0,0,1-.25-1.1.24.24,0,0,1,0-.12.24.24,0,0,1,0-.12h6c0-.2.07-.44.1-.73s0-.51,0-.68a3.65,3.65,0,0,0-.48-1.91,3.13,3.13,0,0,0-1.3-1.25,3.81,3.81,0,0,0-1.84-.44,4.53,4.53,0,0,0-1.89.38,4.29,4.29,0,0,0-1.48,1.08,5,5,0,0,0-1,1.67,6.59,6.59,0,0,0-.33,2.16,3.82,3.82,0,0,0,.48,2,3.28,3.28,0,0,0,1.35,1.26A4.33,4.33,0,0,0,1048.69,640.61Zm10.39-9a4.47,4.47,0,0,0-2.49.7,4.68,4.68,0,0,0-1.67,1.91,6.23,6.23,0,0,0-.6,2.75,3.73,3.73,0,0,0,.47,1.91,3.18,3.18,0,0,0,1.3,1.27,4.19,4.19,0,0,0,2,.45,4.64,4.64,0,0,0,2-.42,3.77,3.77,0,0,0,1.39-1.12,3.59,3.59,0,0,0,.68-1.56H1060a1.69,1.69,0,0,1-.66.9,1.86,1.86,0,0,1-1.1.32,1.7,1.7,0,0,1-.82-.21,1.5,1.5,0,0,1-.58-.64,2.35,2.35,0,0,1-.22-1.08,4.84,4.84,0,0,1,.17-1.3,3.44,3.44,0,0,1,.48-1,2.28,2.28,0,0,1,.74-.71,1.81,1.81,0,0,1,.94-.25,1.7,1.7,0,0,1,1.09.34,1.25,1.25,0,0,1,.47.95h2.16v-.17a.88.88,0,0,0,0-.17,2.73,2.73,0,0,0-.51-1.37,3.35,3.35,0,0,0-1.22-1.05A3.84,3.84,0,0,0,1059.08,631.62Zm7.5,8.84q.39,0,.72,0a4.46,4.46,0,0,0,.51-.07l.35-1.71-.2,0h-.47a1.18,1.18,0,0,1-.71-.18.71.71,0,0,1-.25-.58,2,2,0,0,1,0-.23c0-.08,0-.17,0-.27l.81-3.75h1.82l.38-1.78h-1.83l.45-2.14H1066l-.45,2.14h-1.38l-.37,1.78h1.37l-.9,4.2c0,.14,0,.27-.07.39s0,.24,0,.36a1.55,1.55,0,0,0,.68,1.35,3,3,0,0,0,1.77.47Zm12.37-8.65h-2.28l-1.07,5a2.73,2.73,0,0,1-.39.95,2,2,0,0,1-.67.63,2,2,0,0,1-.92.23,1.42,1.42,0,0,1-1-.35,1.38,1.38,0,0,1-.33-1,1.84,1.84,0,0,1,0-.31,2.25,2.25,0,0,1,.06-.36l1-4.81h-2.29L1070,637c0,.19-.06.39-.08.6s0,.38,0,.5a2.67,2.67,0,0,0,.32,1.33,2.25,2.25,0,0,0,.93.88,3.2,3.2,0,0,0,2.46.12,2.56,2.56,0,0,0,.85-.52,3,3,0,0,0,.63-.79h.14l-.28,1.31h2.21Zm0,8.61h2.28l1-4.75a3.62,3.62,0,0,1,.42-1.09,1.85,1.85,0,0,1,.71-.65,2.14,2.14,0,0,1,1-.22,3.23,3.23,0,0,1,.69.07,3.64,3.64,0,0,1,.63.16l.45-2.09a1.71,1.71,0,0,0-.49-.14,4.21,4.21,0,0,0-.62-.05,2.35,2.35,0,0,0-1.24.35,2.57,2.57,0,0,0-.9,1h-.14l.24-1.19h-2.21Zm9.55-5.23a2.64,2.64,0,0,1,.47-1,2,2,0,0,1,.75-.64,1.87,1.87,0,0,1,1-.23,1.69,1.69,0,0,1,.85.2,1.39,1.39,0,0,1,.55.55,1.6,1.6,0,0,1,.19.77,1,1,0,0,1,0,.17c0,.06,0,.11,0,.13Zm1.42,5.42a5,5,0,0,0,1.9-.34,3.74,3.74,0,0,0,1.39-.93A3.29,3.29,0,0,0,1094,638h-2.19a1.42,1.42,0,0,1-.62.64,2.12,2.12,0,0,1-1.08.25,2,2,0,0,1-.9-.22,1.59,1.59,0,0,1-.66-.65,2.12,2.12,0,0,1-.25-1.1v-.24h6c0-.2.07-.44.1-.73s0-.51,0-.68a3.65,3.65,0,0,0-.48-1.91,3.13,3.13,0,0,0-1.3-1.25,3.83,3.83,0,0,0-1.85-.44,4.56,4.56,0,0,0-1.89.38,4.38,4.38,0,0,0-1.48,1.08,5.1,5.1,0,0,0-1,1.68,6.53,6.53,0,0,0-.33,2.15,3.88,3.88,0,0,0,.49,2,3.16,3.16,0,0,0,1.35,1.26A4.3,4.3,0,0,0,1090,640.61Zm13.58-8.7a1.24,1.24,0,0,1,.18-.68,1.39,1.39,0,0,1,1.21-.68,1.25,1.25,0,0,1,.83.28.9.9,0,0,1,.33.73,1.5,1.5,0,0,1-.43,1,3.28,3.28,0,0,1-1.42.82,4.62,4.62,0,0,1-.54-.84,1.49,1.49,0,0,1-.16-.66Zm-.24,7a2.51,2.51,0,0,1-1.08-.21,1.63,1.63,0,0,1-.71-.56,1.32,1.32,0,0,1-.25-.81,1.53,1.53,0,0,1,.43-1.07,3.15,3.15,0,0,1,1.24-.78l.11,0,.13,0,.12,0,2,3a3.28,3.28,0,0,1-1,.4,3.93,3.93,0,0,1-1,.13Zm3.34,1.48H1109l-1.21-1.81a6.89,6.89,0,0,0,1.21-1.76,6.25,6.25,0,0,0,.57-2.08l0-.3h-1.91l0,.25a4.19,4.19,0,0,1-.88,2.33l-1.7-2.43a5.44,5.44,0,0,0,2.24-1.41,2.79,2.79,0,0,0,.71-1.84,1.93,1.93,0,0,0-.4-1.23,2.83,2.83,0,0,0-1.11-.86,4,4,0,0,0-1.61-.3,3.87,3.87,0,0,0-1.71.36,3,3,0,0,0-1.2,1,2.35,2.35,0,0,0-.44,1.4,2.94,2.94,0,0,0,.21,1.06,7.14,7.14,0,0,0,.69,1.24l-.56.23a5,5,0,0,0-2.09,1.37,2.9,2.9,0,0,0-.7,1.92,2.56,2.56,0,0,0,.52,1.58,3.67,3.67,0,0,0,1.43,1.1,5,5,0,0,0,2,.41,6.63,6.63,0,0,0,1.66-.21,6.06,6.06,0,0,0,1.47-.6Zm10.29,0,2.4-11.27H1117l-2.4,11.27Zm2.15,0h2.28l1.09-5.08a2.66,2.66,0,0,1,.38-.9,1.92,1.92,0,0,1,.67-.63,1.71,1.71,0,0,1,.91-.23,1.35,1.35,0,0,1,1,.38,1.38,1.38,0,0,1,.36,1c0,.1,0,.21,0,.31a2.57,2.57,0,0,1-.06.35l-1,4.83H1127l1.1-5.21a4.89,4.89,0,0,0,.09-.53,4.15,4.15,0,0,0,0-.49,2.64,2.64,0,0,0-.31-1.29,2.31,2.31,0,0,0-.88-.9,2.66,2.66,0,0,0-1.38-.33,2.82,2.82,0,0,0-1.58.42,3.56,3.56,0,0,0-1.07,1.08h-.14l.3-1.36h-2.21Zm10.4,0h2.29l1.44-6.74H1135l.37-1.79h-1.83l.14-.7a1.15,1.15,0,0,1,.39-.7,1.25,1.25,0,0,1,.77-.23l.54,0a2,2,0,0,1,.34.06l.34-1.59a4.29,4.29,0,0,0-.6-.13,4.74,4.74,0,0,0-.84,0,3.54,3.54,0,0,0-2.13.54,2.73,2.73,0,0,0-1,1.78l-.2,1h-1.38l-.37,1.8h1.41Zm5.52,0h2.28l1-4.75a3.4,3.4,0,0,1,.43-1.09,1.72,1.72,0,0,1,.71-.65,2.08,2.08,0,0,1,1-.22,3.08,3.08,0,0,1,.68.07,3.23,3.23,0,0,1,.63.16l.45-2.09a1.65,1.65,0,0,0-.48-.14,4.44,4.44,0,0,0-.62-.05,2.35,2.35,0,0,0-1.24.35,2.57,2.57,0,0,0-.9,1h-.14l.24-1.19h-2.22Zm10.26-1.57a1.47,1.47,0,0,1-.93-.27.87.87,0,0,1-.36-.7,1,1,0,0,1,.45-.81,2.21,2.21,0,0,1,1.22-.34l1.78-.06-.16.74a1.86,1.86,0,0,1-.38.74,2.11,2.11,0,0,1-.71.51A2.18,2.18,0,0,1,1145.27,638.85Zm-1,1.7a3.17,3.17,0,0,0,1-.15,3,3,0,0,0,.84-.41,2.36,2.36,0,0,0,.63-.63h.14l-.23,1.06h2.21l1.18-5.57a2,2,0,0,0,.06-.34c0-.13,0-.24,0-.35a2.2,2.2,0,0,0-.44-1.34,2.88,2.88,0,0,0-1.23-.89,5,5,0,0,0-1.84-.31,4.86,4.86,0,0,0-1.77.31,3.54,3.54,0,0,0-1.33.89,3.13,3.13,0,0,0-.71,1.36H1145a1.07,1.07,0,0,1,.32-.41,1.37,1.37,0,0,1,.51-.26,2.52,2.52,0,0,1,.67-.09,1.83,1.83,0,0,1,1,.26.81.81,0,0,1,.38.71.62.62,0,0,1,0,.13.82.82,0,0,1,0,.18l-.12.52-2.14.07a4.88,4.88,0,0,0-2.82.83,2.46,2.46,0,0,0-1,2.08,2.14,2.14,0,0,0,.34,1.2,2.48,2.48,0,0,0,.92.84,2.68,2.68,0,0,0,1.3.31Zm7.52-6.15a2,2,0,0,0,.5,1.41,3.54,3.54,0,0,0,1.53.92l1.34.47a1.83,1.83,0,0,1,.69.36.68.68,0,0,1,.19.47.7.7,0,0,1-.18.48,1.19,1.19,0,0,1-.51.32,2.3,2.3,0,0,1-.78.11,1.88,1.88,0,0,1-1.08-.28,1.18,1.18,0,0,1-.52-.73h-2.19a2.3,2.3,0,0,0,.52,1.4,3.06,3.06,0,0,0,1.33.94,5.64,5.64,0,0,0,3.91,0,3.14,3.14,0,0,0,1.32-1,2.46,2.46,0,0,0,.47-1.48,2,2,0,0,0-.47-1.37,3.68,3.68,0,0,0-1.52-.9L1155,635a2.17,2.17,0,0,1-.73-.36.62.62,0,0,1-.23-.49.65.65,0,0,1,.18-.46,1.1,1.1,0,0,1,.48-.32,2.38,2.38,0,0,1,1.43,0,1.52,1.52,0,0,1,.51.32.83.83,0,0,1,.25.47H1159a2.45,2.45,0,0,0-.5-1.35,2.88,2.88,0,0,0-1.23-.89,5.32,5.32,0,0,0-3.69,0,2.91,2.91,0,0,0-1.25,1,2.45,2.45,0,0,0-.46,1.48Zm11.08,6.05.71,0a4.34,4.34,0,0,0,.52-.08l.35-1.71-.2,0-.22,0h-.25a1.19,1.19,0,0,1-.71-.19.67.67,0,0,1-.25-.57,1.79,1.79,0,0,1,0-.23c0-.09,0-.18,0-.27l.81-3.75h1.82l.38-1.79h-1.84l.45-2.13h-2.28l-.45,2.13h-1.38l-.37,1.79h1.38l-.9,4.2c0,.13,0,.26-.07.39s0,.23,0,.35a1.57,1.57,0,0,0,.68,1.36A3,3,0,0,0,1162.91,640.45Zm2.69,0h2.28l1-4.75a3.16,3.16,0,0,1,.42-1.09,1.78,1.78,0,0,1,.71-.65,2.14,2.14,0,0,1,1-.22,3.08,3.08,0,0,1,.68.07,3.23,3.23,0,0,1,.63.16l.46-2.09a1.71,1.71,0,0,0-.49-.14,4.44,4.44,0,0,0-.62-.05,2.35,2.35,0,0,0-1.24.35,2.57,2.57,0,0,0-.9,1h-.14l.24-1.19h-2.21Zm16.46-8.62h-2.28l-1.07,5a2.76,2.76,0,0,1-.39.94,1.92,1.92,0,0,1-.67.63,1.75,1.75,0,0,1-.92.23,1.19,1.19,0,0,1-1.36-1.35,2,2,0,0,1,0-.32c0-.12,0-.24,0-.35l1-4.81h-2.29l-1.09,5.18c0,.19-.06.39-.08.6s0,.38,0,.5a2.57,2.57,0,0,0,.32,1.33,2.25,2.25,0,0,0,.93.88,3.2,3.2,0,0,0,2.46.12,2.56,2.56,0,0,0,.85-.52,3.17,3.17,0,0,0,.63-.78h.14l-.28,1.3h2.21Zm5.35-.18a4.44,4.44,0,0,0-2.48.7,4.66,4.66,0,0,0-1.68,1.92,6.16,6.16,0,0,0-.6,2.74,3.84,3.84,0,0,0,.47,1.91,3.27,3.27,0,0,0,1.31,1.27,4.18,4.18,0,0,0,2,.45,4.75,4.75,0,0,0,2-.41,3.75,3.75,0,0,0,1.4-1.13,3.59,3.59,0,0,0,.68-1.56h-2.18a1.67,1.67,0,0,1-.66.9,1.89,1.89,0,0,1-1.1.32,1.67,1.67,0,0,1-.82-.21,1.52,1.52,0,0,1-.59-.64,2.3,2.3,0,0,1-.21-1.07,4.73,4.73,0,0,1,.16-1.3,3.64,3.64,0,0,1,.48-1.06,2.42,2.42,0,0,1,.75-.71,1.81,1.81,0,0,1,.94-.25,1.79,1.79,0,0,1,1.09.34,1.25,1.25,0,0,1,.47.95H1191v-.17a.91.91,0,0,0,0-.17,2.79,2.79,0,0,0-.51-1.36,3.37,3.37,0,0,0-1.22-1.06A3.88,3.88,0,0,0,1187.41,631.62Zm7.5,8.84q.39,0,.72,0a4.34,4.34,0,0,0,.52-.07l.35-1.71-.2,0h-.48a1.15,1.15,0,0,1-.7-.18.66.66,0,0,1-.25-.58,2,2,0,0,1,0-.23c0-.08,0-.17,0-.27l.82-3.75h1.82l.38-1.78h-1.84l.45-2.14h-2.28l-.45,2.14h-1.38l-.37,1.78h1.38l-.91,4.2-.06.39c0,.12,0,.24,0,.36a1.55,1.55,0,0,0,.68,1.35,3,3,0,0,0,1.76.47Zm12.38-8.66H1205l-1.07,5a2.76,2.76,0,0,1-.39.94,1.92,1.92,0,0,1-.67.63,1.78,1.78,0,0,1-.93.23,1.37,1.37,0,0,1-1-.34,1.43,1.43,0,0,1-.34-1c0-.09,0-.19,0-.32a2.14,2.14,0,0,1,.06-.35l1-4.81h-2.28l-1.09,5.18a5.44,5.44,0,0,0-.08.6,3.62,3.62,0,0,0,0,.5,2.58,2.58,0,0,0,.33,1.33,2.29,2.29,0,0,0,.92.88,2.92,2.92,0,0,0,1.39.31,2.86,2.86,0,0,0,1.08-.19,2.56,2.56,0,0,0,.85-.52,3,3,0,0,0,.63-.79h.14l-.28,1.31h2.21Zm0,8.62h2.28l1-4.75a3.4,3.4,0,0,1,.43-1.09,1.78,1.78,0,0,1,.71-.65,2.14,2.14,0,0,1,1-.22,3.08,3.08,0,0,1,.68.07,3.23,3.23,0,0,1,.63.16l.45-2.09a1.56,1.56,0,0,0-.48-.14,4.44,4.44,0,0,0-.62-.05,2.35,2.35,0,0,0-1.24.35,2.57,2.57,0,0,0-.9,1h-.14l.24-1.19h-2.22Zm9.55-5.23a2.79,2.79,0,0,1,.46-1,2.19,2.19,0,0,1,.75-.64,1.92,1.92,0,0,1,1-.23,1.73,1.73,0,0,1,.86.2,1.3,1.3,0,0,1,.54.55,1.61,1.61,0,0,1,.2.77c0,.06,0,.11,0,.17a.9.9,0,0,1,0,.13Zm1.41,5.42a4.92,4.92,0,0,0,1.9-.34,3.66,3.66,0,0,0,1.39-.93,3.31,3.31,0,0,0,.75-1.39h-2.19a1.42,1.42,0,0,1-.62.64,2.15,2.15,0,0,1-1.08.25,2,2,0,0,1-.9-.22,1.68,1.68,0,0,1-.67-.65,2.22,2.22,0,0,1-.25-1.1v-.24h6a5.8,5.8,0,0,0,.09-.73,6.49,6.49,0,0,0,0-.68,3.65,3.65,0,0,0-.48-1.91,3.26,3.26,0,0,0-1.3-1.25,3.86,3.86,0,0,0-1.85-.45,4.91,4.91,0,0,0-1.89.38,4.28,4.28,0,0,0-1.48,1.09,4.8,4.8,0,0,0-1,1.67,6.53,6.53,0,0,0-.33,2.15,3.87,3.87,0,0,0,.48,2,3.21,3.21,0,0,0,1.36,1.27A4.33,4.33,0,0,0,1218.3,640.61Z" transform="translate(-500.42 -310.59)"/><path id="Icon_awesome-angle-double-up" data-name="Icon awesome-angle-double-up" class="cls-15" d="M803.46,604l7.45,7.45a1.31,1.31,0,0,1,0,1.85h0l-1.25,1.24a1.31,1.31,0,0,1-1.85,0h0l-5.29-5.28-5.28,5.28a1.31,1.31,0,0,1-1.85,0h0l-1.25-1.24a1.31,1.31,0,0,1,0-1.85h0l7.45-7.45a1.31,1.31,0,0,1,1.86,0Zm-1.87-10.52-7.45,7.45a1.32,1.32,0,0,0,0,1.86h0l1.24,1.24a1.31,1.31,0,0,0,1.85,0h0l5.28-5.28L807.8,604a1.31,1.31,0,0,0,1.85,0h0l1.23-1.24a1.3,1.3,0,0,0,0-1.85h0l-7.45-7.45a1.29,1.29,0,0,0-1.83,0Z" transform="translate(-500.42 -310.59)"/><path id="Icon_awesome-angle-double-up-2" data-name="Icon awesome-angle-double-up-2" class="cls-15" d="M1124.63,604l7.45,7.45a1.31,1.31,0,0,1,0,1.85h0l-1.24,1.24a1.31,1.31,0,0,1-1.85,0h0l-5.28-5.28-5.28,5.28a1.31,1.31,0,0,1-1.85,0h0l-1.24-1.24a1.3,1.3,0,0,1,0-1.85h0l7.45-7.45a1.3,1.3,0,0,1,1.85,0Zm-1.86-10.52-7.45,7.45a1.31,1.31,0,0,0,0,1.86h0l1.24,1.24a1.31,1.31,0,0,0,1.85,0h0l5.28-5.28L1129,604a1.32,1.32,0,0,0,1.86,0h0l1.24-1.24a1.31,1.31,0,0,0,0-1.85h0l-7.45-7.45a1.31,1.31,0,0,0-1.84,0Z" transform="translate(-500.42 -310.59)"/><path id="Icon_awesome-angle-double-up-3" data-name="Icon awesome-angle-double-up-3" class="cls-15" d="M1125.48,432.17l7.45,7.45a1.31,1.31,0,0,1,0,1.85h0l-1.24,1.24a1.31,1.31,0,0,1-1.85,0h0l-5.28-5.28-5.28,5.28a1.3,1.3,0,0,1-1.85,0h0l-1.24-1.24a1.31,1.31,0,0,1,0-1.85h0l7.45-7.45a1.31,1.31,0,0,1,1.85,0Zm-1.86-10.52-7.45,7.45a1.32,1.32,0,0,0,0,1.86h0l1.24,1.24a1.31,1.31,0,0,0,1.85,0h0l5.29-5.28,5.28,5.28a1.31,1.31,0,0,0,1.85,0h0l1.24-1.24a1.31,1.31,0,0,0,0-1.85h0l-7.45-7.45a1.31,1.31,0,0,0-1.84,0Z" transform="translate(-500.42 -310.59)"/><path id="Icon_awesome-angle-double-up-4" data-name="Icon awesome-angle-double-up-4" class="cls-15" d="M803.46,432.17l7.45,7.45a1.31,1.31,0,0,1,0,1.85h0l-1.25,1.24a1.31,1.31,0,0,1-1.85,0h0l-5.29-5.28-5.28,5.28a1.3,1.3,0,0,1-1.85,0h0l-1.25-1.24a1.31,1.31,0,0,1,0-1.85h0l7.45-7.45a1.32,1.32,0,0,1,1.86,0Zm-1.87-10.52-7.45,7.45a1.32,1.32,0,0,0,0,1.86h0l1.24,1.24a1.31,1.31,0,0,0,1.85,0h0l5.28-5.28,5.28,5.28a1.31,1.31,0,0,0,1.85,0h0l1.23-1.24a1.3,1.3,0,0,0,0-1.85h0l-7.45-7.45a1.29,1.29,0,0,0-1.83,0Z" transform="translate(-500.42 -310.59)"/></g></g></g></svg>