<svg xmlns="http://www.w3.org/2000/svg" width="902.652" height="565.787" viewBox="0 0 902.652 565.787">
  <g id="Group_169" data-name="Group 169" transform="translate(-283.984 -1350.668)">
    <g id="Group_167" data-name="Group 167" transform="translate(282.984 1350.668)">
      <g id="Group_162" data-name="Group 162" transform="translate(26.804 3.691)">
        <g id="Group_163" data-name="Group 163" transform="translate(0 0)">
          <g id="Ellipse_3" data-name="Ellipse 3" transform="matrix(0.875, -0.485, 0.485, 0.875, 317.767, 239.506)" fill="#7caa16" stroke="#7caa15" stroke-width="3" opacity="0.612">
            <ellipse cx="247.011" cy="86.037" rx="247.011" ry="86.037" stroke="none"/>
            <ellipse cx="247.011" cy="86.037" rx="245.511" ry="84.537" fill="none"/>
          </g>
          <g id="Ellipse_4" data-name="Ellipse 4" transform="matrix(0.875, 0.485, -0.485, 0.875, 83.424, 0)" fill="#e5dc07" stroke="#e5dc07" stroke-width="4" opacity="0.426">
            <ellipse cx="247.011" cy="86.038" rx="247.011" ry="86.038" stroke="none"/>
            <ellipse cx="247.011" cy="86.038" rx="245.011" ry="84.038" fill="none"/>
          </g>
          <g id="Ellipse_5" data-name="Ellipse 5" transform="matrix(0.875, 0.485, -0.485, 0.875, 401.191, 172.088)" fill="#56aed5" stroke="#56aed5" stroke-width="3" opacity="0.3">
            <ellipse cx="247.011" cy="86.038" rx="247.011" ry="86.038" stroke="none"/>
            <ellipse cx="247.011" cy="86.038" rx="245.511" ry="84.538" fill="none"/>
          </g>
          <g id="Ellipse_6" data-name="Ellipse 6" transform="matrix(-0.875, 0.485, -0.485, -0.875, 515.505, 322.589)" fill="#af43c3" stroke="#af43c3" stroke-width="4" opacity="0.3">
            <ellipse cx="247.011" cy="86.038" rx="247.011" ry="86.038" stroke="none"/>
            <ellipse cx="247.011" cy="86.038" rx="245.011" ry="84.038" fill="none"/>
          </g>
        </g>
      </g>
      <g id="Group_166" data-name="Group 166" transform="translate(0 0)">
        <text id="Defines_Architecture" data-name="Defines Architecture" transform="translate(806.652 287.269)" fill="#969048" font-size="20" font-family="SegoeUI-Bold, Segoe UI" font-weight="700"><tspan x="-96.064" y="0">Defines Architecture</tspan></text>
        <g id="Group_164" data-name="Group 164" transform="translate(44.208)">
          <g id="Group_163-2" data-name="Group 163" transform="translate(0)">
            <g id="Ellipse_3-2" data-name="Ellipse 3" transform="matrix(0.875, -0.485, 0.485, 0.875, 317.767, 239.506)" fill="#7caa16" stroke="#7caa15" stroke-width="3" opacity="0.612">
              <ellipse cx="247.011" cy="86.037" rx="247.011" ry="86.037" stroke="none"/>
              <ellipse cx="247.011" cy="86.037" rx="245.511" ry="84.537" fill="none"/>
            </g>
            <g id="Ellipse_4-2" data-name="Ellipse 4" transform="matrix(0.875, 0.485, -0.485, 0.875, 83.424, 0)" fill="#e5dc07" stroke="#e5dc07" stroke-width="4" opacity="0.426">
              <ellipse cx="247.011" cy="86.038" rx="247.011" ry="86.038" stroke="none"/>
              <ellipse cx="247.011" cy="86.038" rx="245.011" ry="84.038" fill="none"/>
            </g>
            <g id="Ellipse_5-2" data-name="Ellipse 5" transform="matrix(0.875, 0.485, -0.485, 0.875, 401.191, 172.088)" fill="#56aed5" stroke="#56aed5" stroke-width="3" opacity="0.3">
              <ellipse cx="247.011" cy="86.038" rx="247.011" ry="86.038" stroke="none"/>
              <ellipse cx="247.011" cy="86.038" rx="245.511" ry="84.538" fill="none"/>
            </g>
            <g id="Ellipse_6-2" data-name="Ellipse 6" transform="matrix(-0.875, 0.485, -0.485, -0.875, 515.505, 322.589)" fill="#af43c3" stroke="#af43c3" stroke-width="4" opacity="0.3">
              <ellipse cx="247.011" cy="86.038" rx="247.011" ry="86.038" stroke="none"/>
              <ellipse cx="247.011" cy="86.038" rx="245.011" ry="84.038" fill="none"/>
            </g>
          </g>
          <text id="TECHNICAL_LEAD" data-name="TECHNICAL 
LEAD" transform="translate(419.495 275.126)" fill="#fff" font-size="25" font-family="SegoeUI-Bold, Segoe UI" font-weight="700"><tspan x="-71.619" y="0">TECHNICAL </tspan><tspan x="-31.226" y="27">LEAD</tspan></text>
        </g>
        <text id="Sets_Technical_Vision" data-name="Sets Technical Vision" transform="translate(455.1 108.452)" fill="#969048" font-size="20" font-family="SegoeUI-Bold, Segoe UI" font-weight="700"><tspan x="-96.846" y="0">Sets Technical Vision</tspan></text>
        <text id="Challenges_Solutions" data-name="Challenges Solutions" transform="translate(99 295.788)" fill="#969048" font-size="20" font-family="SegoeUI-Bold, Segoe UI" font-weight="700"><tspan x="-97.451" y="0">Challenges Solutions</tspan></text>
        <text id="Assures_Delivery" data-name="Assures Delivery" transform="translate(456.398 471.371)" fill="#969048" font-size="20" font-family="SegoeUI-Bold, Segoe UI" font-weight="700"><tspan x="-77.349" y="0">Assures Delivery</tspan></text>
      </g>
      <text id="Engaging_with_Business" data-name="Engaging with Business" transform="translate(282.548 204.237)" fill="snow" font-size="16" font-family="SegoeUI-SemiboldItalic, Segoe UI" font-weight="600" font-style="italic"><tspan x="-84.52" y="0">Engaging with Business</tspan></text>
      <text id="Engaging_with_Team" data-name="Engaging with Team" transform="translate(605.909 204.237)" fill="snow" font-size="16" font-family="SegoeUI-SemiboldItalic, Segoe UI" font-weight="600" font-style="italic"><tspan x="-74.121" y="0">Engaging with Team</tspan></text>
      <text id="Delivery_Risk" data-name="Delivery &amp; Risk" transform="translate(286.181 383.314)" fill="snow" font-size="16" font-family="SegoeUI-SemiboldItalic, Segoe UI" font-weight="600" font-style="italic"><tspan x="-54.566" y="0">Delivery &amp; Risk</tspan></text>
      <text id="Architecture_Infrastructure" data-name="Architecture &amp; Infrastructure" transform="translate(601.573 383.314)" fill="snow" font-size="16" font-family="SegoeUI-SemiboldItalic, Segoe UI" font-weight="600" font-style="italic"><tspan x="-102.969" y="0">Architecture &amp; Infrastructure</tspan></text>
    </g>
    <path id="Icon_awesome-angle-double-up" data-name="Icon awesome-angle-double-up" d="M9.691,19.755l7.45,7.45a1.309,1.309,0,0,1,0,1.857L15.9,30.3a1.309,1.309,0,0,1-1.857,0L8.76,25.025,3.479,30.306a1.309,1.309,0,0,1-1.857,0L.378,29.068a1.309,1.309,0,0,1,0-1.857l7.45-7.45A1.311,1.311,0,0,1,9.691,19.755ZM7.828,9.238l-7.45,7.45a1.309,1.309,0,0,0,0,1.857l1.238,1.238a1.309,1.309,0,0,0,1.857,0L8.754,14.5l5.281,5.281a1.309,1.309,0,0,0,1.857,0l1.238-1.238a1.309,1.309,0,0,0,0-1.857L9.68,9.238A1.3,1.3,0,0,0,7.828,9.238Z" transform="translate(568.4 1677.757)" fill="#fff"/>
    <path id="Icon_awesome-angle-double-up-2" data-name="Icon awesome-angle-double-up" d="M9.691,19.755l7.45,7.45a1.309,1.309,0,0,1,0,1.857L15.9,30.3a1.309,1.309,0,0,1-1.857,0L8.76,25.025,3.479,30.306a1.309,1.309,0,0,1-1.857,0L.378,29.068a1.309,1.309,0,0,1,0-1.857l7.45-7.45A1.311,1.311,0,0,1,9.691,19.755ZM7.828,9.238l-7.45,7.45a1.309,1.309,0,0,0,0,1.857l1.238,1.238a1.309,1.309,0,0,0,1.857,0L8.754,14.5l5.281,5.281a1.309,1.309,0,0,0,1.857,0l1.238-1.238a1.309,1.309,0,0,0,0-1.857L9.68,9.238A1.3,1.3,0,0,0,7.828,9.238Z" transform="translate(889.575 1677.757)" fill="#fff"/>
    <path id="Icon_awesome-angle-double-up-3" data-name="Icon awesome-angle-double-up" d="M9.691,19.755l7.45,7.45a1.309,1.309,0,0,1,0,1.857L15.9,30.3a1.309,1.309,0,0,1-1.857,0L8.76,25.025,3.479,30.306a1.309,1.309,0,0,1-1.857,0L.378,29.068a1.309,1.309,0,0,1,0-1.857l7.45-7.45A1.311,1.311,0,0,1,9.691,19.755ZM7.828,9.238l-7.45,7.45a1.309,1.309,0,0,0,0,1.857l1.238,1.238a1.309,1.309,0,0,0,1.857,0L8.754,14.5l5.281,5.281a1.309,1.309,0,0,0,1.857,0l1.238-1.238a1.309,1.309,0,0,0,0-1.857L9.68,9.238A1.3,1.3,0,0,0,7.828,9.238Z" transform="translate(890.427 1505.978)" fill="#fff"/>
    <path id="Icon_awesome-angle-double-up-4" data-name="Icon awesome-angle-double-up" d="M9.691,19.755l7.45,7.45a1.309,1.309,0,0,1,0,1.857L15.9,30.3a1.309,1.309,0,0,1-1.857,0L8.76,25.025,3.479,30.306a1.309,1.309,0,0,1-1.857,0L.378,29.068a1.309,1.309,0,0,1,0-1.857l7.45-7.45A1.311,1.311,0,0,1,9.691,19.755ZM7.828,9.238l-7.45,7.45a1.309,1.309,0,0,0,0,1.857l1.238,1.238a1.309,1.309,0,0,0,1.857,0L8.754,14.5l5.281,5.281a1.309,1.309,0,0,0,1.857,0l1.238-1.238a1.309,1.309,0,0,0,0-1.857L9.68,9.238A1.3,1.3,0,0,0,7.828,9.238Z" transform="translate(568.4 1505.978)" fill="#fff"/>
  </g>
</svg>
