<svg xmlns="http://www.w3.org/2000/svg" width="55" height="55" viewBox="0 0 80.532 80.538">
  <path id="Icon_simple-pivotaltracker" data-name="Icon simple-pivotaltracker" d="M40.272,0A40.269,40.269,0,1,0,80.535,40.262,40.31,40.31,0,0,0,40.272,0Zm0,8.155A32.115,32.115,0,1,1,8.158,40.262,32.108,32.108,0,0,1,40.272,8.155Zm-.453,4.4L29.6,18.45v.007l8.993,15.571a6.436,6.436,0,0,1,4.4.4l4.732-8.195Zm13.994,7.571L44.819,35.7a6.417,6.417,0,0,1,1.869,4.01h9.45l7.906-13.678L53.813,20.121ZM16.04,26.792V38.705h.007v-.1H34.034a6.389,6.389,0,0,1,2.537-3.624l-4.728-8.188Zm8.346,14.034L16.48,54.5,26.712,60.41l9-15.588a6.473,6.473,0,0,1-1.869-4ZM46.5,41.934a6.389,6.389,0,0,1-2.537,3.618L48.7,53.746h15.8V41.934H46.5Zm-8.96,4.175L32.809,54.3l7.9,13.678,10.232-5.906L41.943,46.5a6.447,6.447,0,0,1-4.406-.4Z" transform="translate(-0.003)" fill="#f7f7f8"/>
</svg>
