<svg xmlns="http://www.w3.org/2000/svg" width="38.15" height="47.5" viewBox="0 0 56.2 70">
  <path id="Icon_awesome-angle-double-up" data-name="Icon awesome-angle-double-up" d="M31.077,43.8,54.954,67.676a4.2,4.2,0,0,1,0,5.952L50.987,77.6a4.2,4.2,0,0,1-5.952,0L28.092,60.689,11.167,77.614a4.2,4.2,0,0,1-5.952,0L1.23,73.646a4.2,4.2,0,0,1,0-5.952L25.108,43.816A4.2,4.2,0,0,1,31.077,43.8ZM25.108,10.089,1.23,33.967a4.2,4.2,0,0,0,0,5.952L5.2,43.887a4.2,4.2,0,0,0,5.952,0L28.075,26.962,45,43.887a4.2,4.2,0,0,0,5.952,0l3.968-3.968a4.2,4.2,0,0,0,0-5.952L31.042,10.089A4.175,4.175,0,0,0,25.108,10.089Z" transform="translate(0.008 -8.852)" fill="#fff"/>
</svg>
