<svg id="Layer_1" data-name="Layer 1" xmlns="http://www.w3.org/2000/svg" viewBox="0 0 615.03 553.65"><defs><style>.cls-1{stroke:#fdee21;stroke-width:5.13px;}.cls-1,.cls-2,.cls-3,.cls-4,.cls-5,.cls-6,.cls-7{fill-rule:evenodd;}.cls-2{fill:#fdee21;}.cls-3{fill:#c8c037;}.cls-4{fill:#fcf6a0;}.cls-6{fill:#fff;}.cls-7{stroke:#000;stroke-width:0.11px;}</style></defs><path class="cls-1" d="M526.47,591.45V709.86h29.07V655.44l6,.11v54.31h29.4V591.45h-29.4v43.93h-6V591.45Z" transform="translate(-160.01 -158.78)"/><path class="cls-1" d="M627.12,591.45H598.81V709.86h28.31Z" transform="translate(-160.01 -158.78)"/><path class="cls-1" d="M631.76,591.45l22.37,118.41h33.76l22.37-118.41H680.2l-7.41,50.66c-.62,1.94-2.7,1.94-3.07,0l-7.41-50.67Z" transform="translate(-160.01 -158.78)"/><path class="cls-1" d="M772.48,591.45H716.27V709.86h56.21V678.81l-31.26-.27V665.23h14.89V634.41H741.22V622.5h31.26Z" transform="translate(-160.01 -158.78)"/><path class="cls-2" d="M469,232.34c-4.74-13-167.58-76.27-169.66-69.32-29.91,7.79-42.08,42.26-62.65,64.09L191,224.49c-20.12,25.88-30.68,52.32-23.49,79.8,25.79,34.94,55.73,64.67,74.39,108.56,1.48,20.69,89.54,2.17,108.41-1.92C324.5,429.38,302.05,458,311.69,540.39c8.81,38.69,14.84,81.89,93,125.65,10.28,5.76,31.56,12.41,44.72,17.25,12.59,5.78,27.3,8.15,68.82-4.55,24-10.35,50-16.59,73.46-26.92l-28.25,1.33c-38.91.84-68.95,3.75-78.22-7.13L449.38,584.2l20.88-40.55c28.89,3,38.49,26.4,64,35.32l30-22.24C651.41,608.2,686.1,524.12,696,458.63,695,432,638.35,467,641.79,454.53c1.33-28.64-22-66.11-37.1-95.31l17.45-67.55c7.92-7.05-36.67-82.19-73.08-91.56-31.95-8.22-80.1,32.23-80.1,32.23Z" transform="translate(-160.01 -158.78)"/><path class="cls-3" d="M612.18,375.9c.32,7.25.28,16.08,1,21.58-.12,4.2-3.26,4.35-5.87,5.23l17,6.22c3.37,5.67,6.07,11.33,8.81,17,3.17,13.95.8,14.34-1.31,15.37-6.16.06-12.29.08-18-1.14,2.57,1.35,3.14,2.34,3.41,4.08.5,3.2-1.56,7.57-5,11.78,5,2.78,14.17,5.51,21,8.09l7.75-17.25c-3.51-25.34-14.15-48.7-28.72-71Z" transform="translate(-160.01 -158.78)"/><path class="cls-3" d="M643.85,460.9c9.41,3.92,22.41,2.77,40.43-6.52,2.68-1.9,5.18-.76.38,2.37C661,478,649.71,467.35,643.85,460.9Z" transform="translate(-160.01 -158.78)"/><path class="cls-3" d="M686.09,451.6c2.79,5.35,1.1,9.71.16,14.23-2.92,23-10.08,41.17-24.14,60.17-45.73,73.52-91.9,27.52-128.71-2.42l-15.23,38.15c-.81,3.34-4.17,5.95,19.61,16.42L562,561c92.39,70.29,157.86-98.4,124.09-109.44Z" transform="translate(-160.01 -158.78)"/><path class="cls-3" d="M544.54,517.3c-6.24.45-24.79,6.76-25.61,10.41L527.47,515Z" transform="translate(-160.01 -158.78)"/><path class="cls-3" d="M532.42,439.34c1.14,0,6.62,1.47,6,1.14-.84-.46-.09,7.69,1.63,11.94L533.4,467c12.81-14.77,33.07-13.79,51.87-15.69l-9-5.56c1.56-5.2-.28-9.31-1.14-13.74Z" transform="translate(-160.01 -158.78)"/><path class="cls-3" d="M563.9,395.52c-13.75,4.22-26.91,11.1-35.74,25.78,6.74-24.19,8.11-23.27,10.29-24.47,9.42-4.21,17.14-1.59,25.45-1.31Z" transform="translate(-160.01 -158.78)"/><path class="cls-4" d="M490.49,679c-16.62,18.34-53.71-1.38-84.51-11.44C327.72,617.83,312.43,571,311.37,525c-4-65.83,16.19-104.09,41.76-113.15-16.92,32.63-24.81,91.19-17,134.73,6.34,24.23,6.47,65.09,47,87,19.85,11.18,14.48,19.88,27.9,30.34,14.71,11.47,55.72,22.38,79.43,15.14Z" transform="translate(-160.01 -158.78)"/><path class="cls-4" d="M515.32,374.79C487.18,334.88,447.6,319.9,403,318.26c8.94-2.91,17.89-4.43,26.83-8.74,2.19-2.3,1.48-6.35.66-10.47-43-11.22-70.08-25.08-104.41-37.93l92.67,22.23c62.57,2.38,57.2,17.83,96.61,91.44Z" transform="translate(-160.01 -158.78)"/><path class="cls-4" d="M545.45,355.54c-20.79-29.68-41-65.72-68.34-88.63-66.1-29.83-131.48-52-208.1-72.15l24.45-31.45c81.31,18.56,157.68,49.62,226.09,100.82,11.57,29.26,19.29,58.57,25.9,91.41Z" transform="translate(-160.01 -158.78)"/><path class="cls-4" d="M587.38,303.08S575.72,276.92,570,266.94c-13.17-14.6-19.82-41.79-46.79-54.6,8.53,2.3,14.36-.45,31.78,15.34l27.42,52Z" transform="translate(-160.01 -158.78)"/><path class="cls-4" d="M601.88,348.4c2.69-22.67,7.8-59,1.94-73.38-16.31-21.87-32.72-44.48-49.15-65.47-2.72-2.53-4.68-6-6.82-8.65,23.09,6,47.19,22,79.69,85.43Z" transform="translate(-160.01 -158.78)"/><path class="cls-5" d="M504.79,351.07c-9.2-7.24-17.39-32.84-31.33-38.16-12.9-1.08-17.63-5.14-34.6-1.69,6.15-3.08,12-7,18.5-9.14,4.43-1,8.59.12,12.82.7,1-.49,1.73-1.11,1.47-2C454.57,290.19,419.54,290,395.89,284c27.45.92,57.82-.6,78.44,6,16.59,14.72,22,42.44,30.46,61Z" transform="translate(-160.01 -158.78)"/><path class="cls-5" d="M555.09,227.6c3.8.34,24.3,32.76,25.26,38.15,1.7,11.79,5.91,25,7,37.35-3.38-11.84-7.06-23.67-11.66-35.5-1.34-3.26-4.74-10.62-14.18-21-4.4-7.34-5.35-13.12-6.46-19Z" transform="translate(-160.01 -158.78)"/><path class="cls-5" d="M624.53,404.14h-8.77l9.69,2.55Z" transform="translate(-160.01 -158.78)"/><path class="cls-5" d="M564.71,395.39c-8.82-1.09-17.86-1.23-26.68.71-3.59,4.82-3.84,9.73-5.41,14.27,10.72-11.81,15-12.53,32.09-15Z" transform="translate(-160.01 -158.78)"/><path class="cls-5" d="M685,456.35c-4.91,3.91-5.4,7.6-19.91,12-10.57,2.5-16.55-1.74-21.53-7.44,7.55,2.16,8.76,7.86,29,1.47Z" transform="translate(-160.01 -158.78)"/><path class="cls-5" d="M641,458.8c-3.53,9.71-7.33,19.52-11.17,28.61-9.14,10.72-5.25,4.61-18.93,21.26,4.38-6.76,10.07-13.24,13-20.28,2.1-4.63,4.7-9.54,5.86-13.66-3.63-1.81-11-2-12.06-1.3-12.16,7.17-14.36,14.76-21.53,22.16,5.2-8.31,9.64-17.38,15.66-24.86.69-1,5.15-1.15,7.89-1.73-4.26-.73-12.15-2.26-12.78-2.19-7.94,1.91-12.38,8.82-18.27,13.41,4.29-6.2,8.25-12.66,13.7-18,.54-.63,15.28.67,22.92,3.71l.15,3,4.34,1.75,3.26-8.17Z" transform="translate(-160.01 -158.78)"/><path class="cls-5" d="M544.73,517.33c-2-.67-19.25-2.89-19.25-2.37-6.64,4.73-7.64,9.25-7.5,13.16,11-10.86,10.63-10.89,26.75-10.79Z" transform="translate(-160.01 -158.78)"/><path class="cls-5" d="M531.6,439.18s12.48-1.82,12.24-.65c-.91,4.33,1.52,14.88,1.79,13.4l-7,5.73c14.7-7.39,30.16-5.91,45.85-7,0,0-13.21-3.65-12.4-3.76,2.94-.42-.79-13.78-1.8-14.07,2.52-.85,5-1.49,7.51-2.12-18.89-4.94-29.81-2-46.17,8.5Z" transform="translate(-160.01 -158.78)"/><path class="cls-5" d="M639.59,448.49l-2.77,1.39c-.39-8.12-9.12-7.52-16.48-7.6l-6-1.47c1.83,1.7,7.51,1.57,5.22,5.23-1.93,1-2.81,5.45-3.92,9.16l-3.26.16c5.76,2.25,11.11,4.23,17.46,6.87l3.75.57,9-4.82Z" transform="translate(-160.01 -158.78)"/><path class="cls-6" d="M556.89,443c-1.41-2.78-8.47-2.39-10-.59-1.24,1.46-.07,10.83,1.51,9.25a12.11,12.11,0,0,1,8.89-2.69,10.82,10.82,0,0,0-.4-6Z" transform="translate(-160.01 -158.78)"/><path class="cls-6" d="M624.64,457c.67-.48,2.07-5.18,1.62-6.59-.93-3.32-7.5-2.62-7.5-2.62-1.6.94-3,6.12-2.42,7.82.28,1.45,7.25,1.91,8.3,1.39Z" transform="translate(-160.01 -158.78)"/><path class="cls-5" d="M343.68,619.11l4.15.4c24.61,12.08,65.12,30,123.77,20.37l9.21,14.48C455,666.91,427.19,664,401.16,664.91Z" transform="translate(-160.01 -158.78)"/><path class="cls-5" d="M308.36,523.6l12.32,51.75c33,20.62,89.37,44.25,136.35,42.34l-10.38-23.82C348.57,573,340.28,546.71,308.36,523.6Z" transform="translate(-160.01 -158.78)"/><path class="cls-5" d="M339,417.62c6,40.09,14.06,70.49,48.93,96,21.37,15.36,42.58,30.67,68.39,43.3,0,0-2.27,11.77-4.16,11.56-76.78-8.53-133-72.2-139.8-101.28,6.59-22.3,16.05-36.24,26.64-49.54Z" transform="translate(-160.01 -158.78)"/><path class="cls-5" d="M375.94,394.9c10.23,44.44,34.63,89.45,58.88,130.28,8.89,11.28,11.21,16.26,24.91,23.12,18.52,5.87,31.62,4.37,45.06,3.49-3.68-6.82-7-13.94-11.19-20.35-30.1-23.8-16.19-45.47-8.19-59.2-16.74-4.22-38.91-13.21-42-25-4.91-38.24-2.41-50.37,2.5-70-22.66,4.78-45.63,9.51-70,17.7Z" transform="translate(-160.01 -158.78)"/><path class="cls-7" d="M292.8,158.85c-7.45,4.86-14.63,11.82-22.35,19.73-12.79,13.25-21.3,26.17-34.33,35.75-2.6,2.25-9.92,5.86-19.11,6.4-4.33.22-7.15.93-15.11-.07-7-3.8-13.68-1.33-20.18,6.46-7.14,10.26-16.17,29.74-19.93,42-7.75,31.28,12,57.05,30.93,76.91,16.84,16.45,26.55,26.73,33.47,41.82,5.23,9.78,9.11,23.21,13.31,32.62,1.51,3,1.2,3,5.28,3.87,8.8,1.88,21,1.89,31.87,2.83a155.76,155.76,0,0,0,17.28-.75c8.43-1.59,18.34-3.15,26.64-6a174.11,174.11,0,0,0,21.86-7.31c-.84,2.85-7.05,5.59-9.38,9.21-22.08,31.61-28.13,59.75-24.29,104.14,2.18,19.67,6.69,36,13.5,54.64a153.34,153.34,0,0,0,16.11,31c18.91,26.71,61.21,61,120.08,74.22a85.6,85.6,0,0,0,32.9-2.26c29.06-8.81,88.28-29.64,88.28-29.64s-52.57,4.35-76.65,2c-5.57-.87-11.71-1.16-15.6-5-.65-.84-3-5.61-1.49-5.65,2.09-.06,8.07-2.54,17.31-3.37-19.72-2.12-19.44-2.1-20.88-5.69-2.24-5.58-5.67-13.2-9.2-19.87,8.67.73,27.86,1.81,34.38-4.92a108.57,108.57,0,0,1-21.4.14c-3.38-.4-9.14-2.46-10.87-3.09-4.51-1.76-8.22-2.3-9.08-3.45-1.57-4-2.63-5.32-4.52-10.65-2.55-7.07-2.76-14.95-3.24-22.16,6.56,8.09,14.93,14.91,26,18.39.15-.3,14.37,6.18,24.7,2.85l2.15-.69c0,.19-6.85.6-9.36-.65-21-8.93-24.17-16.75-27.57-20.63l-9.07-13.59c2.76-5.5,4.32-5.71,8-5.76,11,1.23,15.87,2.17,22.6.55,4.54,9.36,5.77,18.77,16.12,25.58,34.49,10.24,42-3,50.34-14.77,24.81,18.21,65.21,23.83,93.26.32,35.67-41.27,47-106.34,43.8-110C694.88,446.73,689,438.94,684,440c-17.89,4.88-24.48,14-42.21,11.88,2.12-.12,5.67-.17,5.69-.37,1.37-15-.11-22.27-.77-23.52-5.37-11.86-12.44-24.34-17.36-33.7-1.27-1.94-5-16.68-11.24-22.5-2.68-2.29-9.24-8.32-9.24-8.32l-.55,6.41s2.56.39,3.54,4.36c3.69,15.05,22.52,50.65,23.91,52.35,6.67,10.78.67,24.2,5.75,31.73.48,1,10.35-.09,18,.38,12.57-2.7,12-8.24,22.9-9.08,7.32-.56,8.05,13.18,8,14.25-1.36,15.17-6,32.8-13,48.91-14.68,28.29-31.12,53.69-54.44,57.24-28.45,5-43.23-7.47-58.65-15.39l-5.9,5c-20,20-43.83,18.19-53.56-7.89-4.85-10.11-11.16-16.31-16.57-25l-28.66,20.65c-2.39,4.89-5.33,12.61-8.89,21.23a70.43,70.43,0,0,0-4.42,24.84c-3.68,6.26,12.73,31.65,23.09,47.09,3.06,4.56,8.77,12.52,9,13,2.06,5.33,6.56,10,6.83,10.61,19.24,25.1-24.27,19.32-33.26,17.8-17.73-2.82-35.07-10.23-51.37-20.13l-2.83-1.75c-19.37-12.2-37.2-27.81-52.36-43.24-9-10.24-17.64-31.21-24-46.08-9.53-35.76-23.2-97.73,13.83-144.69,2.35-2.68,4.88-7.15,7-8A102.17,102.17,0,0,1,378,402.79l-1.3-8.33c-6.42,1.46-28,9.36-34.13,12.67-13.89,4-25.41,8.23-43.12,12.66a66.14,66.14,0,0,1-16.93,0c-12.74-1.73-34.44-.19-35.83-1.47-8.62-12-11-33.58-18.85-45.11l-.09-.11-.1-.11c-4.59-6.17-9.94-11.2-15.2-16.43-18.86-18.73-35-36.85-39.51-56-1.14-5.67-4.06-11.54-2.51-28.31l0-.08,0-.08c4.53-15.67,11.91-28.44,24.44-41.23,13,.21,25.93.49,36,2.41,4.61.77,14.2,2,24.11,5.72,25.06,9.33,58.18,24.68,58.18,24.68-24.86-13.65-52.66-31.38-70.21-35-2.61-.37-4.22-1.56-5-3.64,26.41-15.51,31.24-33.78,48.6-50.16,7.94-3.45,11-5.22,17.78-6C366.72,178.75,406,203.59,437,220.2c12.61,6.86,24.07,12,35,18.28,9.59,3.16,38.54,25,47,36.8,8.6,18.17,14.89,37.8,20.62,56.74,4.11,19.27,7.71,27.08,7.71,27.08s-3.49-16.11-2.91-19c3.62,1.36,12.18,4,15.73,3.61,0,0-15.85-8.19-17.93-15.43C535.63,305,528.94,268.85,527.14,267c-5.08-6.39-26.27-22.6-39.26-30.1-4.92-2.84-7.57-4.6-7.78-5.85,4.15-4.19,9.28-9.74,13.87-13.26,4.41-3.38,8.42-7.19,14.56-9.47,27-12.16,42.43,4.67,46.1,1.27,0,0-5.81-6.66-3.23-5.57,2.64,1.44,11.25,3.12,12.19,4,9.84,7.7,35.56,35.83,51.07,65.51,3.72,7.27,5.23,12.05,3.51,20.81a151.74,151.74,0,0,1-5,19.43c-1.71,3.91-11.36,30.69-11.32,34.29-1.95,14.7,6.3,33.09,6.3,33.09.08-5-.31-7.65.14-11.22l.56-6.38a12.94,12.94,0,0,1-.29-2.37c.42-4.42,1.5-8.13,1.82-10.65,3.1-19.2,8.49-33,14.6-49.85,1.81-4.25,4.19-6.62,4.07-9.85.1-5.74-5-13.45-8.75-21a228.15,228.15,0,0,0-14.1-25c-13.4-19.26-24.82-34.34-45.73-43.77-5.85-2.57-28.88-5.08-36.83-3.59-9.65,2-17.94,4-24.56,8.23-10.4,6.66-18.58,17-28.17,23.06a261,261,0,0,1-33.38-19.64c-12.61-6.76-27.75-14.6-44-22-7.81-7.29-56.31-24.71-100.72-28.18ZM564.25,554.64c-13.08-10.22-24.09-20.75-31.35-31.59-2.37,12.75-11,21.83-17.61,30.76-1.33,2.09-2.28,5,4.23,14.05,1.76,2.42,8.11,2.83,12.4,2.61-4.36-3.3-11-6.79-12.07-9.81,7.68,5.23,14.78,6.73,21.21,5.89,1.47-.17,3.29-1.72,4.7-4.12,2.86-6.15,5.11-7.63,7.37-9.29l5.22,6.54Z" transform="translate(-160.01 -158.78)"/></svg>