<svg xmlns="http://www.w3.org/2000/svg" height="800" width="1200" viewBox="-39.0243 -46.10325 338.2106 276.6195"><path d="M45.018 121.284c2.96 3.65 6.25 7.35 9.87 11.07-10.54 3.17-17.45 9.06-21.76 14.26-6.82 8.23-10.43 19.1-9.6 28.43H5.378c3.64-7.9 18.17-30.72 39.64-53.76zm210.26 58.71h-22.07c-50.63-26.42-95.08-45.05-142.3-49.12.1-6.57 1.27-14.01 3.52-22.3l-4.35-1.17c-2.31 8.52-3.52 16.23-3.66 23.13-4.92-.33-9.87-.49-14.87-.49-4.23 0-8.09.39-11.61 1.07-4.59-4.58-8.5-8.96-11.82-13.11 21.78-22.68 57.65-43.2 88.87-50.92 8.79 29.22 27.66 49.24 50.56 62.71a96.56 96.56 0 004.95-3.02l39.95 43.01 1.75-.15c10.909-.94 17.11 4.98 18.75 6.82 1.21 1.34 1.93 2.57 2.33 3.54z" fill="#D1A41A"/><path d="M235.788 36.134c.81 39.69-19.44 71.28-47.79 87.48-48.12-23.97-57.18-84.71-48.98-117.29 2.28 12.46 6.43 20.27 15.39 24.1 19.54-5.59 46.43-6.03 66.24-.57 8.25-6 11.45-15.17 13.2-23.18 2.18 9.32 1.93 29.46 1.94 29.46z" fill="#FFDC76"/><path d="M99.79 80.51l14.956-6.798 7.342 21.756zm-15.23 7.887l8.703-5.167 7.886 13.597zM67.7 99.547l7.614-5.711 3.808 13.598zm134.611 35.896l-5.438-5.167-7.07 10.878zm10.063 11.967l-4.352-4.624-11.42 8.702zM194.153 24.491l-13.87.272 8.431 18.492zm-55.204 35.08l-1.36-7.886 13.326 7.07zm3.263 11.694l-1.36-5.166 8.159 3.262zm91.916-8.43l1.905-5.982-10.878 4.623zm-4.078 12.237l1.631-4.895-8.43 2.448z"/><path d="M133.21 90.587h26.246v3.24H133.21zm0-7.777h26.246v3.24H133.21zm80.14 7.777h26.245v3.24H213.35zm0-7.777h26.245v3.24H213.35zm-9.249-19.21h-42.768v-2.915h13.31c1.638-7.018 1.962-13.725-.015-17.125-.843-1.446-2.01-2.122-3.673-2.122-7.61 0-10.753 8.047-10.884 8.39l.002-.003-2.73-1.024c.156-.42 3.964-10.279 13.612-10.279 2.692 0 4.834 1.237 6.191 3.57 2.41 4.141 2.127 11.305.494 18.593h23.355c3.102-9.116 9.58-13.414 20.405-13.414v2.915c-11.733 0-15.019 4.974-17.366 10.499h12.743l-.03 2.9z"/><path d="M206.018 78.002l.019-.003c-3.46-5.1-4.555-9.455-3.109-14.413l-2.97.015c-1.036 3.3-.62 8.273 1.928 12.54h-29.675c1.806-3.617 3.48-8.026 4.703-12.54h-3.02c-1.349 4.787-3.242 9.524-5.373 13.277l-.69 1.213 16.653 10.482-9.375 6.178 1.605 2.436 10.479-6.909 11.311 7.382 1.554-2.468-10.488-6.488s15.682-10.186 16.46-10.683c-.004-.007-.007-.013-.012-.019zm-18.86 8.809l-12.318-7.755 24.072.006z"/><path d="M240.682 32.617c-.019-5.07-1.598-26.5-4.5-32.4-7.87 2.99-22.19 12.68-25.431 22.588-15.532-2.32-33.042-2.045-48.38.61C159.807 12.753 146.945 4.594 137.242 0c-4.093 6.906-5.907 22.92-5.445 34.28l-.054.035c1.8 47.7 25.2 77.4 55.799 95.4 31.481-17.988 53.972-53.057 53.1-97.12.013.009.027.014.039.022zm-26.197-9.196c.115.02.229.042.344.063-.114-.021-.228-.043-.344-.063zm-1.958-.338c.276.044.554.094.83.14l-.83-.14zm23.257 12.976c.81 39.69-19.44 71.279-47.79 87.48-48.118-23.977-57.182-84.71-48.977-117.289 2.283 12.455 6.424 20.267 15.394 24.099 19.532-5.591 46.423-6.033 66.23-.57 8.255-6.002 11.457-15.17 13.205-23.18 2.183 9.322 1.931 29.456 1.938 29.46z"/><path d="M256.305 173.375c-4.942-5.528-14.623-8.145-22.707-7.951-5.739-6.83-39.004-41.862-39.004-41.862l-2.306 2.904 40.162 43.238 1.743-.15c10.912-.934 17.116 4.984 18.757 6.82 1.204 1.347 1.93 2.575 2.326 3.54h-22.075c-50.624-26.417-95.078-45.045-142.297-49.113.103-6.572 1.273-14.01 3.518-22.3l-4.343-1.176c-2.308 8.52-3.524 16.237-3.661 23.133-4.92-.326-9.872-.495-14.868-.495-4.237 0-8.095.393-11.614 1.077-4.59-4.587-8.5-8.959-11.823-13.108 21.936-22.85 58.15-43.498 89.533-51.092l-1.015-4.397c-33.792 8.149-70.78 30.335-91.39 51.762-9.565-12.91-13.36-23.504-14.487-31.532-1.424-10.14.996-19.442 6.999-26.9C47.15 44.1 60.502 43.277 74.23 45.586c-.268 2.168.017 4.24.885 5.522 3.631 5.363 23.144 7.246 34.791 2.05-8.595-12.045-26.006-17.926-30.83-15.57-1.598.781-2.804 2.215-3.63 3.887-4.745-.849-9.458-1.48-12.903-1.455-12.107.088-21.363 4.319-28.295 12.932-6.802 8.45-9.551 18.944-7.95 30.347 1.515 10.8 6.863 22.286 15.825 34.198a306.088 306.088 0 00-4.313 4.723C15.967 146.66 0 172.87 0 177.213v2.25h28.816l-.505-2.668c-1.627-8.6 1.623-19.35 8.28-27.385 4.179-5.044 11.099-10.8 21.967-13.457 9.663 9.43 21.975 19.446 35.679 29.11h21.413v-2.25c0-2.54-1.258-4.762-3.545-6.257-3.382-2.212-8.605-2.517-13.401-.881-4.574-5.093-7.138-11.897-7.691-20.347 46.474 4.115 90.926 22.883 141.085 49.085h27.597l.362-1.809c.515-2.575-.888-6.025-3.752-9.229zm-223.18-26.836c-6.815 8.227-10.428 19.094-9.6 28.424H5.371c3.647-7.894 18.176-30.712 39.643-53.76 2.958 3.656 6.253 7.35 9.872 11.073-10.54 3.168-17.45 9.06-21.762 14.263z"/></svg>