<svg id="svg" version="1.1" xmlns="http://www.w3.org/2000/svg" xmlns:xlink="http://www.w3.org/1999/xlink" width="400" height="81.74863387978142" viewBox="0, 0, 400,81.74863387978142"><g id="svgg"><path id="path0" d="M41.333 0.177 C 41.333 0.274,41.258 0.307,41.167 0.250 C 41.075 0.193,41.000 0.256,41.000 0.389 C 41.000 0.522,40.887 0.674,40.750 0.727 C 40.612 0.780,40.500 0.949,40.500 1.104 C 40.500 1.259,40.294 1.655,40.042 1.984 C 39.790 2.314,39.575 2.640,39.563 2.708 C 39.551 2.777,39.531 2.927,39.518 3.042 C 39.502 3.187,39.446 3.174,39.333 3.000 C 39.211 2.810,39.171 2.881,39.169 3.292 C 39.167 3.661,39.087 3.833,38.917 3.833 C 38.772 3.833,38.667 3.984,38.667 4.189 C 38.667 4.385,38.479 4.719,38.250 4.931 C 38.021 5.144,37.833 5.425,37.833 5.558 C 37.833 5.690,37.713 5.844,37.566 5.900 C 37.416 5.958,37.340 6.110,37.392 6.247 C 37.444 6.381,37.377 6.600,37.243 6.733 C 37.109 6.867,37.000 7.024,37.000 7.083 C 37.000 7.142,36.887 7.303,36.750 7.440 C 36.612 7.578,36.500 7.827,36.500 7.994 C 36.500 8.161,36.387 8.341,36.250 8.394 C 36.112 8.446,36.000 8.604,36.000 8.745 C 36.000 8.885,35.925 9.000,35.833 9.000 C 35.742 9.000,35.667 9.179,35.667 9.399 C 35.667 9.618,35.554 9.841,35.417 9.894 C 35.279 9.946,35.167 10.109,35.167 10.255 C 35.167 10.400,35.087 10.470,34.989 10.410 C 34.891 10.349,34.825 10.401,34.842 10.525 C 34.904 10.977,34.828 11.167,34.583 11.167 C 34.428 11.167,34.333 11.324,34.333 11.583 C 34.333 11.861,34.241 12.000,34.056 12.000 C 33.903 12.000,33.828 12.050,33.889 12.111 C 33.951 12.173,33.869 12.373,33.709 12.557 C 33.548 12.740,33.500 12.842,33.603 12.782 C 33.708 12.721,33.674 12.929,33.524 13.260 C 33.304 13.745,33.238 13.794,33.141 13.548 C 33.051 13.319,33.021 13.358,33.012 13.714 C 33.005 13.969,32.892 14.218,32.761 14.269 C 32.629 14.320,32.562 14.467,32.612 14.597 C 32.662 14.727,32.607 14.833,32.490 14.833 C 32.373 14.833,32.326 14.882,32.386 14.941 C 32.445 15.001,32.327 15.195,32.122 15.372 C 31.917 15.550,31.741 15.763,31.729 15.847 C 31.718 15.931,31.699 16.117,31.688 16.260 C 31.676 16.403,31.592 16.473,31.500 16.417 C 31.403 16.357,31.333 16.526,31.333 16.823 C 31.333 17.166,31.251 17.333,31.083 17.333 C 30.854 17.333,30.757 17.537,30.818 17.887 C 30.831 17.963,30.777 17.985,30.698 17.936 C 30.562 17.852,30.000 18.841,30.000 19.167 C 30.000 19.252,29.775 19.552,29.500 19.833 C 29.225 20.115,29.000 20.497,29.000 20.682 C 29.000 20.895,28.929 20.976,28.808 20.901 C 28.702 20.835,28.655 20.850,28.705 20.933 C 28.862 21.198,28.520 21.865,28.293 21.734 C 28.178 21.668,28.138 21.673,28.204 21.747 C 28.270 21.820,28.220 22.076,28.092 22.315 C 27.964 22.554,27.812 22.898,27.754 23.079 C 27.666 23.353,27.623 23.367,27.494 23.162 C 27.376 22.976,27.338 23.027,27.336 23.375 C 27.334 23.678,27.245 23.833,27.073 23.833 C 26.931 23.833,26.857 23.903,26.910 23.989 C 27.002 24.138,26.383 25.500,26.223 25.500 C 26.181 25.500,26.201 25.413,26.266 25.308 C 26.340 25.187,26.312 25.160,26.190 25.236 C 26.082 25.302,26.034 25.420,26.082 25.498 C 26.130 25.576,26.069 25.740,25.946 25.863 C 25.823 25.986,25.671 26.295,25.607 26.550 C 25.543 26.805,25.417 26.969,25.328 26.914 C 25.239 26.859,25.167 26.960,25.167 27.139 C 25.167 27.318,25.054 27.508,24.917 27.560 C 24.779 27.613,24.667 27.771,24.667 27.911 C 24.667 28.052,24.592 28.167,24.500 28.167 C 24.408 28.167,24.333 28.354,24.333 28.583 C 24.333 28.843,24.239 29.000,24.083 29.000 C 23.917 29.000,23.833 29.167,23.833 29.500 C 23.833 29.775,23.748 30.000,23.643 30.000 C 23.363 30.000,23.011 30.528,23.005 30.958 C 23.002 31.165,22.917 31.315,22.814 31.292 C 22.712 31.269,22.598 31.436,22.560 31.663 C 22.522 31.890,22.387 32.133,22.261 32.204 C 22.122 32.282,22.068 32.476,22.126 32.694 C 22.201 32.981,22.163 33.034,21.943 32.950 C 21.743 32.873,21.667 32.935,21.667 33.172 C 21.667 33.352,21.570 33.500,21.452 33.500 C 21.334 33.500,21.225 33.668,21.210 33.873 C 21.194 34.077,21.103 34.271,21.007 34.303 C 20.912 34.335,20.833 34.507,20.833 34.686 C 20.833 34.864,20.721 35.054,20.583 35.106 C 20.446 35.159,20.333 35.349,20.333 35.528 C 20.333 35.707,20.264 35.810,20.180 35.758 C 20.096 35.706,19.978 35.889,19.917 36.165 C 19.856 36.441,19.738 36.667,19.653 36.667 C 19.569 36.667,19.500 36.817,19.500 37.000 C 19.500 37.185,19.389 37.333,19.250 37.333 C 19.112 37.333,19.000 37.446,19.000 37.583 C 19.000 37.721,18.925 37.833,18.833 37.833 C 18.742 37.833,18.682 37.890,18.700 37.958 C 18.758 38.177,18.483 38.833,18.334 38.833 C 18.255 38.833,18.166 39.002,18.137 39.208 C 18.107 39.415,18.017 39.546,17.936 39.500 C 17.778 39.411,17.422 40.124,17.354 40.667 C 17.343 40.758,17.221 40.833,17.083 40.833 C 16.917 40.833,16.833 41.000,16.833 41.333 C 16.833 41.667,16.750 41.833,16.583 41.833 C 16.428 41.833,16.333 41.991,16.333 42.250 C 16.333 42.479,16.258 42.667,16.167 42.667 C 16.075 42.667,16.000 42.819,16.000 43.005 C 16.000 43.191,15.887 43.387,15.750 43.440 C 15.612 43.492,15.500 43.645,15.500 43.778 C 15.500 43.911,15.425 43.973,15.333 43.917 C 15.239 43.858,15.167 44.000,15.167 44.245 C 15.167 44.483,15.054 44.720,14.917 44.773 C 14.779 44.826,14.667 45.021,14.667 45.207 C 14.667 45.393,14.479 45.719,14.250 45.931 C 14.021 46.144,13.833 46.471,13.833 46.659 C 13.833 46.851,13.724 47.000,13.583 47.000 C 13.446 47.000,13.333 47.103,13.333 47.230 C 13.333 47.356,13.222 47.552,13.085 47.665 C 12.949 47.778,12.873 47.929,12.917 48.000 C 12.960 48.071,12.885 48.222,12.748 48.335 C 12.612 48.448,12.500 48.682,12.500 48.854 C 12.500 49.026,12.426 49.167,12.337 49.167 C 12.247 49.167,12.126 49.354,12.068 49.583 C 12.011 49.812,11.897 50.000,11.815 50.000 C 11.734 50.000,11.667 50.112,11.667 50.250 C 11.667 50.387,11.551 50.500,11.409 50.500 C 11.268 50.500,11.164 50.594,11.179 50.708 C 11.236 51.145,11.158 51.333,10.922 51.333 C 10.783 51.333,10.715 51.432,10.765 51.562 C 10.813 51.688,10.753 51.894,10.632 52.020 C 10.511 52.147,10.225 52.606,9.998 53.042 C 9.770 53.477,9.523 53.833,9.449 53.833 C 9.374 53.833,9.360 53.909,9.417 54.001 C 9.474 54.093,9.404 54.214,9.261 54.269 C 9.117 54.324,9.000 54.472,9.000 54.597 C 9.000 54.949,8.404 55.848,8.263 55.708 C 8.195 55.639,8.154 55.658,8.173 55.750 C 8.252 56.145,8.154 56.679,8.017 56.594 C 7.787 56.451,7.667 56.934,7.667 58.008 C 7.667 58.818,7.725 59.019,8.000 59.167 C 8.183 59.265,8.333 59.291,8.333 59.224 C 8.333 59.157,8.431 59.236,8.550 59.399 C 8.799 59.740,9.777 59.720,9.708 59.375 C 9.683 59.246,9.854 59.167,10.157 59.167 C 10.426 59.167,10.694 59.090,10.752 58.997 C 10.809 58.904,10.926 58.871,11.012 58.924 C 11.097 58.977,11.167 58.940,11.167 58.843 C 11.167 58.746,11.429 58.667,11.750 58.667 C 12.071 58.667,12.333 58.592,12.333 58.500 C 12.333 58.408,12.506 58.333,12.718 58.333 C 12.930 58.333,13.249 58.223,13.426 58.089 C 13.604 57.954,14.036 57.842,14.385 57.839 C 14.764 57.835,14.978 57.766,14.917 57.667 C 14.860 57.575,14.968 57.491,15.157 57.479 C 15.346 57.468,15.663 57.449,15.861 57.438 C 16.060 57.426,16.253 57.323,16.292 57.208 C 16.333 57.083,16.658 57.000,17.102 57.000 C 17.608 57.000,17.874 56.920,17.940 56.750 C 18.011 56.565,18.304 56.500,19.068 56.500 C 19.636 56.500,20.171 56.432,20.258 56.349 C 20.345 56.267,20.754 56.168,21.167 56.129 C 22.027 56.049,22.381 55.963,22.501 55.806 C 22.547 55.745,23.197 55.670,23.945 55.639 C 24.990 55.596,25.266 55.536,25.137 55.381 C 25.005 55.222,25.976 55.178,29.574 55.178 C 32.107 55.178,34.140 55.242,34.092 55.320 C 33.965 55.525,34.606 55.662,35.708 55.664 C 36.367 55.666,36.654 55.730,36.625 55.867 C 36.578 56.092,36.677 56.116,37.760 56.146 C 38.232 56.159,38.480 56.231,38.414 56.337 C 38.356 56.431,38.370 56.498,38.446 56.484 C 39.019 56.385,40.000 56.531,40.000 56.716 C 40.000 56.846,40.244 56.948,40.617 56.973 C 40.956 56.996,41.340 57.103,41.470 57.211 C 41.599 57.318,41.899 57.416,42.136 57.429 C 42.373 57.442,42.596 57.538,42.631 57.643 C 42.666 57.748,42.878 57.833,43.102 57.833 C 43.327 57.833,43.554 57.946,43.606 58.083 C 43.662 58.227,43.911 58.333,44.194 58.333 C 44.524 58.333,44.647 58.397,44.567 58.526 C 44.493 58.646,44.522 58.673,44.644 58.597 C 44.751 58.531,45.091 58.632,45.398 58.822 C 45.976 59.179,47.333 59.304,47.333 59.000 C 47.333 58.908,47.413 58.833,47.510 58.833 C 47.607 58.833,47.632 58.927,47.566 59.042 C 47.501 59.156,47.511 59.192,47.589 59.120 C 47.668 59.049,47.750 58.867,47.772 58.716 C 47.794 58.565,47.930 58.376,48.073 58.296 C 48.423 58.100,48.432 57.000,48.083 57.000 C 47.928 57.000,47.833 56.843,47.833 56.583 C 47.833 56.324,47.739 56.167,47.583 56.167 C 47.446 56.167,47.333 56.086,47.333 55.988 C 47.333 55.766,46.913 55.333,46.696 55.333 C 46.608 55.333,46.492 55.220,46.439 55.082 C 46.386 54.943,46.284 54.840,46.213 54.852 C 45.867 54.908,45.667 54.810,45.667 54.583 C 45.667 54.446,45.586 54.333,45.488 54.333 C 45.253 54.333,44.833 53.908,44.833 53.669 C 44.833 53.565,44.770 53.520,44.692 53.568 C 44.614 53.616,44.397 53.512,44.210 53.338 C 44.022 53.163,43.840 53.049,43.806 53.083 C 43.771 53.118,43.413 52.851,43.010 52.490 C 42.607 52.129,42.139 51.833,41.972 51.833 C 41.804 51.833,41.667 51.760,41.667 51.670 C 41.667 51.580,41.479 51.459,41.250 51.402 C 41.021 51.344,40.833 51.188,40.833 51.055 C 40.833 50.922,40.764 50.857,40.678 50.910 C 40.593 50.962,40.475 50.928,40.417 50.833 C 40.358 50.739,40.240 50.704,40.155 50.757 C 40.070 50.810,40.000 50.774,40.000 50.677 C 40.000 50.579,39.887 50.500,39.750 50.500 C 39.612 50.500,39.500 50.387,39.500 50.250 C 39.500 50.094,39.342 50.000,39.078 50.000 C 38.846 50.000,38.613 49.886,38.559 49.747 C 38.506 49.608,38.377 49.504,38.273 49.517 C 37.864 49.566,37.652 49.492,37.749 49.335 C 37.805 49.245,37.752 49.208,37.632 49.254 C 37.512 49.301,37.117 49.187,36.755 49.002 C 36.393 48.818,35.962 48.667,35.798 48.667 C 35.634 48.667,35.500 48.592,35.500 48.500 C 35.500 48.408,35.267 48.333,34.982 48.333 C 34.625 48.333,34.490 48.266,34.548 48.116 C 34.605 47.966,34.444 47.886,34.029 47.859 C 33.698 47.836,33.377 47.738,33.317 47.640 C 33.245 47.523,33.176 47.540,33.117 47.689 C 33.049 47.860,33.023 47.851,33.013 47.652 C 33.004 47.465,32.820 47.381,32.387 47.364 C 32.050 47.352,31.698 47.264,31.604 47.171 C 31.510 47.077,31.145 47.000,30.793 47.000 C 30.383 47.000,30.024 46.880,29.795 46.667 L 29.437 46.333 29.796 45.999 C 29.996 45.812,30.113 45.554,30.060 45.415 C 30.007 45.279,30.047 45.167,30.149 45.167 C 30.250 45.167,30.333 45.050,30.333 44.907 C 30.333 44.764,30.409 44.694,30.502 44.751 C 30.596 44.809,30.716 44.628,30.773 44.344 C 30.830 44.059,30.981 43.833,31.114 43.833 C 31.245 43.833,31.304 43.753,31.243 43.656 C 31.183 43.558,31.272 43.365,31.442 43.227 C 31.611 43.088,31.648 43.028,31.524 43.091 C 31.370 43.171,31.389 43.070,31.585 42.771 C 31.743 42.530,31.938 42.333,32.019 42.333 C 32.100 42.333,32.167 42.183,32.167 42.000 C 32.167 41.817,32.233 41.667,32.314 41.667 C 32.395 41.667,32.505 41.535,32.559 41.375 C 32.683 41.007,33.035 40.451,33.238 40.305 C 33.323 40.244,33.413 40.057,33.438 39.891 C 33.462 39.725,33.561 39.563,33.658 39.531 C 33.754 39.499,33.833 39.291,33.833 39.069 C 33.833 38.823,33.930 38.667,34.083 38.667 C 34.222 38.667,34.333 38.519,34.333 38.333 C 34.333 38.150,34.400 38.000,34.482 38.000 C 34.564 38.000,34.678 37.813,34.735 37.583 C 34.793 37.354,34.913 37.167,35.003 37.167 C 35.093 37.167,35.167 36.979,35.167 36.750 C 35.167 36.491,35.261 36.333,35.417 36.333 C 35.642 36.333,35.741 36.135,35.686 35.792 C 35.676 35.723,35.734 35.667,35.815 35.667 C 35.897 35.667,36.008 35.492,36.061 35.279 C 36.115 35.065,36.348 34.686,36.579 34.437 C 36.811 34.187,37.000 33.920,37.000 33.844 C 37.000 33.611,37.487 32.750,37.619 32.750 C 37.687 32.750,37.757 32.653,37.774 32.533 C 37.792 32.414,37.903 32.200,38.021 32.058 C 38.139 31.916,38.253 31.677,38.275 31.528 C 38.297 31.378,38.394 31.230,38.491 31.197 C 38.588 31.165,38.667 30.993,38.667 30.814 C 38.667 30.636,38.779 30.446,38.917 30.394 C 39.054 30.341,39.167 30.193,39.167 30.066 C 39.167 29.938,39.242 29.833,39.333 29.833 C 39.425 29.833,39.500 29.646,39.500 29.417 C 39.500 29.157,39.594 29.000,39.750 29.000 C 39.887 29.000,40.000 28.912,40.000 28.805 C 40.000 28.697,40.100 28.491,40.223 28.346 C 40.345 28.202,40.548 27.821,40.674 27.500 C 40.800 27.179,41.000 26.818,41.118 26.696 C 41.236 26.575,41.333 26.369,41.333 26.238 C 41.333 26.107,41.400 26.000,41.482 26.000 C 41.564 26.000,41.678 25.813,41.735 25.583 C 41.793 25.354,41.913 25.167,42.003 25.167 C 42.093 25.167,42.167 25.088,42.167 24.992 C 42.167 24.896,42.360 24.638,42.597 24.419 C 43.037 24.011,43.500 24.019,43.500 24.434 C 43.500 24.562,43.612 24.667,43.750 24.667 C 43.887 24.667,44.000 24.782,44.000 24.923 C 44.000 25.063,44.121 25.363,44.269 25.589 C 44.417 25.815,44.473 26.002,44.394 26.005 C 44.315 26.008,44.363 26.102,44.500 26.214 C 44.638 26.325,44.899 26.698,45.080 27.042 C 45.261 27.385,45.467 27.667,45.538 27.667 C 45.609 27.667,45.667 27.846,45.667 28.066 C 45.667 28.285,45.779 28.508,45.917 28.560 C 46.054 28.613,46.167 28.762,46.167 28.891 C 46.167 29.020,46.278 29.219,46.415 29.332 C 46.551 29.445,46.622 29.604,46.572 29.686 C 46.521 29.767,46.591 29.833,46.727 29.833 C 46.866 29.833,47.022 30.053,47.084 30.335 C 47.144 30.611,47.245 30.804,47.308 30.766 C 47.371 30.727,47.508 30.876,47.612 31.098 C 47.756 31.402,47.755 31.474,47.609 31.391 C 47.503 31.331,47.623 31.504,47.875 31.775 C 48.127 32.046,48.333 32.433,48.333 32.634 C 48.333 32.835,48.430 33.000,48.548 33.000 C 48.666 33.000,48.775 33.168,48.790 33.373 C 48.806 33.577,48.897 33.771,48.993 33.803 C 49.088 33.835,49.167 33.931,49.167 34.015 C 49.167 34.100,49.390 34.478,49.664 34.856 C 49.937 35.233,50.125 35.599,50.081 35.670 C 50.038 35.741,50.114 35.841,50.251 35.894 C 50.388 35.947,50.500 36.104,50.500 36.245 C 50.500 36.385,50.631 36.501,50.792 36.503 C 51.041 36.505,51.047 36.529,50.833 36.667 C 50.667 36.774,50.653 36.829,50.792 36.831 C 50.906 36.832,51.000 36.940,51.000 37.069 C 51.000 37.199,51.078 37.332,51.174 37.364 C 51.270 37.395,51.360 37.584,51.375 37.783 C 51.390 37.981,51.479 38.130,51.572 38.113 C 51.666 38.097,51.770 38.269,51.804 38.496 C 51.838 38.723,52.046 39.076,52.267 39.280 C 52.487 39.484,52.667 39.724,52.667 39.813 C 52.667 39.903,52.784 40.093,52.927 40.236 C 53.070 40.380,53.198 40.647,53.212 40.832 C 53.226 41.016,53.293 41.167,53.361 41.167 C 53.429 41.167,53.612 41.436,53.768 41.765 C 53.925 42.095,54.153 42.403,54.276 42.450 C 54.399 42.497,54.502 42.659,54.505 42.809 C 54.508 42.960,54.618 43.226,54.750 43.400 C 54.882 43.573,54.949 43.782,54.899 43.862 C 54.849 43.942,54.904 43.988,55.022 43.962 C 55.224 43.919,55.264 44.004,55.313 44.583 C 55.324 44.721,55.424 44.815,55.534 44.792 C 55.644 44.769,55.745 44.862,55.758 45.000 C 55.818 45.620,55.843 45.680,56.000 45.583 C 56.092 45.527,56.167 45.637,56.167 45.829 C 56.167 46.020,56.279 46.220,56.417 46.273 C 56.554 46.326,56.667 46.511,56.667 46.684 C 56.667 46.858,56.742 47.000,56.833 47.000 C 56.925 47.000,57.000 47.188,57.000 47.417 C 57.000 47.661,57.086 47.816,57.208 47.792 C 57.326 47.768,57.440 47.951,57.469 48.208 C 57.500 48.471,57.624 48.667,57.761 48.667 C 57.892 48.667,58.000 48.821,58.000 49.010 C 58.000 49.199,58.075 49.307,58.167 49.250 C 58.258 49.193,58.333 49.304,58.333 49.495 C 58.333 49.687,58.446 49.887,58.583 49.940 C 58.721 49.992,58.833 50.180,58.833 50.356 C 58.833 50.533,58.947 50.721,59.086 50.774 C 59.225 50.828,59.329 50.956,59.317 51.061 C 59.267 51.471,59.341 51.681,59.500 51.583 C 59.592 51.527,59.667 51.635,59.667 51.823 C 59.667 52.017,59.775 52.167,59.917 52.167 C 60.072 52.167,60.167 52.324,60.167 52.583 C 60.167 52.813,60.242 53.000,60.333 53.000 C 60.425 53.000,60.500 53.150,60.500 53.333 C 60.500 53.517,60.579 53.667,60.675 53.667 C 60.772 53.667,60.929 53.892,61.025 54.167 C 61.121 54.442,61.267 54.667,61.350 54.667 C 61.432 54.667,61.500 54.779,61.500 54.917 C 61.500 55.054,61.567 55.167,61.649 55.167 C 61.730 55.167,61.848 55.368,61.910 55.615 C 61.972 55.862,62.177 56.198,62.367 56.363 C 62.557 56.527,62.724 56.832,62.738 57.039 C 62.752 57.247,62.854 57.398,62.965 57.375 C 63.088 57.350,63.167 57.534,63.167 57.851 C 63.167 58.243,63.228 58.346,63.417 58.273 C 63.644 58.186,63.769 58.553,63.682 59.054 C 63.669 59.130,63.735 59.144,63.829 59.086 C 63.924 59.028,64.000 59.126,64.000 59.306 C 64.000 59.485,64.112 59.674,64.250 59.727 C 64.387 59.780,64.500 59.975,64.500 60.161 C 64.500 60.351,64.610 60.500,64.750 60.500 C 64.903 60.500,65.000 60.655,65.000 60.899 C 65.000 61.118,65.112 61.341,65.250 61.394 C 65.387 61.446,65.500 61.642,65.500 61.828 C 65.500 62.014,65.575 62.167,65.667 62.167 C 65.758 62.167,65.833 62.247,65.833 62.345 C 65.833 62.443,65.947 62.637,66.085 62.775 C 66.223 62.914,66.299 63.088,66.252 63.163 C 66.206 63.237,66.281 63.341,66.418 63.394 C 66.555 63.447,66.667 63.679,66.667 63.911 C 66.667 64.175,66.760 64.333,66.917 64.333 C 67.054 64.333,67.167 64.438,67.167 64.566 C 67.167 64.693,67.276 64.839,67.409 64.891 C 67.546 64.943,67.622 65.131,67.585 65.325 C 67.549 65.514,67.608 65.668,67.718 65.671 C 67.989 65.676,68.500 66.743,68.500 67.303 C 68.500 67.870,67.964 68.352,67.312 68.370 C 67.042 68.378,66.767 68.481,66.701 68.599 C 66.635 68.718,66.232 68.838,65.806 68.866 C 65.380 68.894,65.067 68.973,65.109 69.042 C 65.182 69.160,64.265 69.222,62.719 69.202 C 62.182 69.195,62.042 69.248,62.111 69.430 C 62.224 69.724,60.009 69.776,59.719 69.485 C 59.619 69.386,58.948 69.268,58.227 69.225 C 57.506 69.182,56.767 69.078,56.583 68.994 C 56.400 68.910,55.913 68.821,55.500 68.796 C 55.007 68.766,54.764 68.679,54.792 68.542 C 54.819 68.403,54.614 68.333,54.181 68.333 C 53.822 68.333,53.499 68.247,53.464 68.141 C 53.428 68.035,53.123 67.941,52.785 67.932 C 52.447 67.924,52.134 67.823,52.090 67.708 C 52.046 67.594,51.741 67.500,51.412 67.500 C 51.056 67.500,50.855 67.433,50.917 67.333 C 50.973 67.242,50.896 67.167,50.744 67.167 C 50.592 67.167,50.269 67.060,50.026 66.930 C 49.782 66.799,49.447 66.650,49.281 66.598 C 49.115 66.545,49.026 66.427,49.083 66.335 C 49.142 66.239,49.004 66.167,48.760 66.167 C 48.525 66.167,48.333 66.079,48.333 65.972 C 48.333 65.865,48.289 65.822,48.234 65.877 C 48.179 65.932,47.877 65.832,47.562 65.655 C 47.247 65.478,46.880 65.333,46.745 65.333 C 46.610 65.333,46.500 65.237,46.500 65.119 C 46.500 65.001,46.332 64.892,46.127 64.876 C 45.923 64.861,45.729 64.770,45.697 64.674 C 45.665 64.578,45.466 64.500,45.254 64.500 C 45.042 64.500,44.826 64.388,44.773 64.250 C 44.720 64.113,44.562 64.000,44.422 64.000 C 44.282 64.000,44.167 63.921,44.167 63.823 C 44.167 63.726,44.092 63.693,44.000 63.750 C 43.908 63.807,43.833 63.774,43.833 63.677 C 43.833 63.579,43.721 63.500,43.583 63.500 C 43.446 63.500,43.333 63.434,43.333 63.354 C 43.333 63.274,43.103 63.162,42.822 63.106 C 42.538 63.049,42.358 62.929,42.415 62.835 C 42.475 62.738,42.338 62.667,42.093 62.667 C 41.859 62.667,41.667 62.587,41.667 62.490 C 41.667 62.393,41.592 62.360,41.500 62.417 C 41.408 62.473,41.333 62.432,41.333 62.325 C 41.333 62.218,41.223 62.173,41.088 62.225 C 40.953 62.277,40.734 62.210,40.600 62.076 C 40.466 61.943,40.122 61.833,39.835 61.833 C 39.548 61.833,39.358 61.762,39.411 61.675 C 39.465 61.588,39.244 61.467,38.919 61.406 C 38.595 61.345,38.289 61.229,38.238 61.148 C 38.188 61.066,37.933 61.000,37.670 61.000 C 37.059 61.000,36.643 60.840,36.761 60.649 C 36.840 60.521,35.787 60.424,35.601 60.542 C 35.565 60.565,35.396 60.459,35.226 60.307 C 35.056 60.154,34.644 60.031,34.312 60.032 C 33.979 60.033,33.567 59.960,33.395 59.871 C 33.224 59.782,32.417 59.695,31.602 59.677 C 30.616 59.656,30.046 59.570,29.896 59.419 C 29.568 59.092,25.839 59.097,25.209 59.425 C 24.907 59.583,24.223 59.665,23.208 59.666 C 22.292 59.666,21.667 59.734,21.667 59.833 C 21.667 59.925,21.372 60.000,21.012 60.000 C 20.649 60.000,20.244 60.113,20.104 60.253 C 19.965 60.392,19.791 60.496,19.717 60.483 C 19.140 60.385,18.173 60.530,18.208 60.708 C 18.235 60.843,17.999 60.935,17.542 60.968 C 17.152 60.996,16.833 61.090,16.833 61.176 C 16.833 61.263,16.651 61.333,16.429 61.333 C 16.206 61.333,15.911 61.446,15.774 61.583 C 15.636 61.721,15.420 61.833,15.294 61.833 C 15.167 61.833,14.921 61.937,14.747 62.065 C 14.573 62.192,14.343 62.263,14.237 62.222 C 14.130 62.181,13.998 62.264,13.943 62.407 C 13.889 62.550,13.658 62.667,13.430 62.667 C 13.203 62.667,12.957 62.772,12.883 62.901 C 12.810 63.030,12.600 63.161,12.417 63.192 C 12.233 63.224,11.961 63.426,11.811 63.641 C 11.617 63.919,11.503 63.973,11.413 63.828 C 11.320 63.676,11.248 63.695,11.133 63.899 C 11.049 64.050,10.909 64.130,10.823 64.077 C 10.737 64.024,10.667 64.083,10.667 64.209 C 10.667 64.335,10.404 64.541,10.083 64.667 C 9.762 64.793,9.370 65.069,9.210 65.281 C 9.051 65.493,8.826 65.667,8.710 65.667 C 8.595 65.667,8.500 65.779,8.500 65.917 C 8.500 66.054,8.354 66.167,8.177 66.167 C 7.999 66.167,7.799 66.253,7.734 66.359 C 7.660 66.478,7.688 66.506,7.808 66.433 C 7.913 66.367,8.000 66.357,8.000 66.411 C 8.000 66.464,7.808 66.581,7.573 66.670 C 7.310 66.771,7.193 66.908,7.267 67.028 C 7.350 67.162,7.295 67.188,7.092 67.110 C 6.872 67.025,6.821 67.061,6.893 67.248 C 6.946 67.387,6.899 67.501,6.786 67.503 C 6.516 67.506,5.500 68.410,5.500 68.647 C 5.500 68.749,5.420 68.833,5.321 68.833 C 5.127 68.833,4.667 69.244,4.667 69.417 C 4.667 69.476,4.369 69.792,4.005 70.119 C 3.640 70.446,3.380 70.774,3.426 70.848 C 3.472 70.923,3.357 71.065,3.171 71.164 C 2.985 71.264,2.833 71.423,2.833 71.519 C 2.833 71.615,2.515 72.001,2.125 72.378 C 1.735 72.755,1.516 73.004,1.637 72.931 C 1.820 72.821,1.820 72.864,1.637 73.184 C 1.334 73.715,1.057 74.000,0.845 74.000 C 0.747 74.000,0.667 74.233,0.667 74.518 C 0.667 74.917,0.608 75.013,0.408 74.936 C 0.266 74.882,0.192 74.906,0.244 74.990 C 0.296 75.075,0.263 75.191,0.169 75.248 C 0.076 75.306,-0.000 75.836,-0.000 76.427 L 0.000 77.500 0.672 77.500 C 1.115 77.500,1.376 77.415,1.440 77.250 C 1.492 77.112,1.715 77.000,1.934 77.000 C 2.154 77.000,2.333 76.925,2.333 76.833 C 2.333 76.742,2.478 76.667,2.655 76.667 C 2.832 76.667,3.089 76.554,3.226 76.417 C 3.364 76.279,3.625 76.167,3.808 76.167 C 3.990 76.167,4.165 76.088,4.197 75.993 C 4.229 75.897,4.423 75.806,4.627 75.790 C 4.832 75.775,5.000 75.666,5.000 75.548 C 5.000 75.430,5.178 75.333,5.396 75.333 C 5.614 75.333,5.886 75.221,6.000 75.083 C 6.114 74.946,6.348 74.833,6.520 74.833 C 6.693 74.833,6.833 74.758,6.833 74.667 C 6.833 74.575,7.015 74.500,7.236 74.500 C 7.782 74.500,8.185 74.331,8.073 74.149 C 8.022 74.067,8.241 74.000,8.560 74.000 C 8.878 74.000,9.164 73.926,9.194 73.835 C 9.225 73.744,9.461 73.652,9.719 73.631 C 9.977 73.610,10.267 73.496,10.364 73.379 C 10.461 73.262,10.794 73.167,11.104 73.167 C 11.413 73.167,11.667 73.087,11.667 72.990 C 11.667 72.893,11.735 72.856,11.819 72.908 C 11.903 72.960,11.997 72.932,12.027 72.847 C 12.058 72.762,12.308 72.661,12.583 72.622 C 12.858 72.584,13.196 72.510,13.333 72.457 C 13.584 72.361,14.485 72.122,14.694 72.097 C 14.756 72.089,14.862 72.027,14.931 71.958 C 14.999 71.890,15.308 71.833,15.616 71.833 C 15.961 71.833,16.214 71.737,16.273 71.583 C 16.326 71.446,16.440 71.333,16.528 71.333 C 16.615 71.333,16.633 71.427,16.569 71.542 C 16.475 71.708,16.496 71.708,16.676 71.542 C 16.799 71.427,17.256 71.333,17.690 71.333 C 18.125 71.333,18.520 71.270,18.568 71.192 C 18.616 71.114,19.195 71.035,19.856 71.016 C 20.516 70.997,21.316 70.873,21.632 70.740 C 22.410 70.415,27.833 70.389,27.833 70.710 C 27.833 70.832,28.060 70.929,28.375 70.940 C 29.986 70.998,30.667 71.074,30.667 71.196 C 30.667 71.272,31.004 71.333,31.417 71.333 C 31.920 71.333,32.167 71.404,32.167 71.549 C 32.167 71.680,32.412 71.781,32.792 71.807 C 33.135 71.829,33.442 71.920,33.473 72.008 C 33.503 72.097,33.597 72.126,33.681 72.075 C 33.765 72.023,33.833 72.060,33.833 72.157 C 33.833 72.254,34.054 72.333,34.323 72.333 C 34.593 72.333,34.860 72.408,34.917 72.500 C 34.973 72.592,35.240 72.667,35.510 72.667 C 35.834 72.667,36.000 72.751,36.000 72.917 C 36.000 73.081,36.165 73.167,36.482 73.167 C 36.750 73.167,37.006 73.274,37.057 73.409 C 37.110 73.546,37.297 73.622,37.492 73.585 C 37.687 73.547,37.833 73.607,37.833 73.724 C 37.833 73.837,37.992 73.941,38.185 73.956 C 38.379 73.970,38.666 74.099,38.823 74.241 C 38.981 74.383,39.230 74.500,39.378 74.500 C 39.526 74.500,39.693 74.575,39.750 74.667 C 39.807 74.758,40.074 74.833,40.343 74.833 C 40.668 74.833,40.833 74.918,40.833 75.083 C 40.833 75.250,41.000 75.333,41.333 75.333 C 41.608 75.333,41.833 75.407,41.833 75.497 C 41.833 75.587,42.021 75.707,42.250 75.765 C 42.479 75.822,42.667 75.936,42.667 76.018 C 42.667 76.100,42.822 76.167,43.012 76.167 C 43.202 76.167,43.470 76.279,43.607 76.417 C 43.745 76.554,44.006 76.667,44.188 76.667 C 44.372 76.667,44.473 76.743,44.414 76.837 C 44.356 76.931,44.370 76.998,44.446 76.984 C 44.905 76.905,45.333 77.033,45.333 77.250 C 45.333 77.387,45.390 77.491,45.458 77.480 C 45.874 77.415,46.338 77.525,46.249 77.669 C 46.191 77.762,46.372 77.883,46.656 77.939 C 46.937 77.996,47.167 78.107,47.167 78.188 C 47.167 78.268,47.432 78.333,47.755 78.333 C 48.125 78.333,48.380 78.426,48.440 78.583 C 48.492 78.721,48.720 78.833,48.944 78.833 C 49.169 78.833,49.312 78.900,49.261 78.983 C 49.154 79.155,49.543 79.333,50.023 79.333 C 50.206 79.333,50.306 79.410,50.247 79.504 C 50.189 79.598,50.204 79.664,50.279 79.651 C 50.752 79.569,51.494 79.695,51.458 79.852 C 51.435 79.954,51.601 80.069,51.826 80.106 C 52.051 80.144,52.278 80.244,52.330 80.329 C 52.383 80.413,52.750 80.501,53.147 80.525 C 53.551 80.549,53.906 80.663,53.953 80.784 C 53.998 80.903,54.292 81.000,54.606 81.000 C 54.928 81.000,55.214 81.097,55.262 81.222 C 55.468 81.759,69.529 81.766,69.735 81.229 C 69.793 81.077,70.104 81.000,70.661 81.000 C 71.296 81.000,71.500 80.939,71.500 80.750 C 71.500 80.569,71.685 80.500,72.167 80.500 C 72.533 80.500,72.833 80.425,72.833 80.333 C 72.833 80.242,73.124 80.167,73.480 80.167 C 73.851 80.167,74.214 80.060,74.333 79.917 C 74.447 79.779,74.711 79.667,74.919 79.667 C 75.127 79.667,75.340 79.555,75.393 79.419 C 75.447 79.278,75.598 79.215,75.745 79.271 C 75.887 79.326,76.187 79.249,76.412 79.102 C 76.637 78.954,76.974 78.833,77.161 78.833 C 77.351 78.833,77.500 78.724,77.500 78.583 C 77.500 78.446,77.604 78.333,77.731 78.333 C 77.858 78.333,78.171 78.225,78.427 78.092 C 78.683 77.959,78.967 77.896,79.058 77.953 C 79.156 78.013,79.179 77.939,79.114 77.769 C 79.053 77.611,79.069 77.523,79.149 77.572 C 79.229 77.622,79.484 77.513,79.715 77.331 C 79.947 77.149,80.217 77.000,80.316 77.000 C 80.415 77.000,80.628 76.887,80.790 76.749 C 80.951 76.610,81.145 76.503,81.221 76.511 C 81.297 76.519,81.614 76.262,81.925 75.942 C 82.237 75.621,82.640 75.311,82.821 75.254 C 83.002 75.197,83.196 75.003,83.253 74.825 C 83.309 74.646,83.426 74.500,83.511 74.500 C 83.597 74.500,83.667 74.387,83.667 74.250 C 83.667 74.112,83.779 74.000,83.917 74.000 C 84.072 74.000,84.167 73.843,84.167 73.583 C 84.167 73.343,84.263 73.167,84.394 73.167 C 84.525 73.167,84.612 73.008,84.599 72.792 C 84.587 72.585,84.672 72.318,84.788 72.196 C 85.101 71.872,85.073 69.010,84.751 68.394 C 84.614 68.131,84.502 67.784,84.501 67.622 C 84.500 67.459,84.312 67.030,84.083 66.667 C 83.854 66.304,83.667 65.936,83.667 65.851 C 83.667 65.765,83.588 65.668,83.491 65.636 C 83.394 65.604,83.298 65.458,83.276 65.312 C 83.255 65.166,83.109 64.918,82.952 64.762 C 82.795 64.605,82.667 64.403,82.667 64.314 C 82.667 64.226,82.517 63.992,82.333 63.795 C 82.027 63.466,81.919 63.146,81.987 62.771 C 82.002 62.691,81.898 62.670,81.757 62.724 C 81.516 62.817,81.390 62.432,81.494 61.917 C 81.513 61.825,81.472 61.806,81.403 61.874 C 81.259 62.019,80.667 61.111,80.667 60.746 C 80.667 60.611,80.554 60.500,80.417 60.500 C 80.279 60.500,80.167 60.376,80.167 60.224 C 80.167 60.072,79.992 59.716,79.779 59.432 C 79.566 59.149,79.344 58.785,79.285 58.625 C 79.226 58.465,79.100 58.333,79.005 58.333 C 78.911 58.333,78.833 58.146,78.833 57.917 C 78.833 57.688,78.758 57.500,78.667 57.500 C 78.575 57.500,78.500 57.396,78.500 57.268 C 78.500 57.140,78.387 56.992,78.250 56.940 C 78.112 56.887,78.000 56.691,78.000 56.505 C 78.000 56.319,77.925 56.167,77.833 56.167 C 77.742 56.167,77.667 56.060,77.667 55.929 C 77.667 55.798,77.555 55.578,77.418 55.441 C 77.281 55.304,77.145 55.038,77.116 54.850 C 77.088 54.662,77.000 54.450,76.922 54.379 C 76.844 54.308,76.834 54.344,76.900 54.458 C 76.966 54.573,76.940 54.667,76.843 54.667 C 76.746 54.667,76.667 54.442,76.667 54.167 C 76.667 53.892,76.600 53.667,76.519 53.667 C 76.438 53.667,76.331 53.509,76.281 53.317 C 76.230 53.124,76.109 53.016,76.011 53.076 C 75.900 53.145,75.833 52.997,75.833 52.682 C 75.833 52.302,75.772 52.201,75.583 52.273 C 75.347 52.364,75.266 52.161,75.289 51.542 C 75.293 51.427,75.230 51.333,75.148 51.333 C 75.067 51.333,75.000 51.221,75.000 51.083 C 75.000 50.946,74.887 50.833,74.750 50.833 C 74.593 50.833,74.500 50.675,74.500 50.407 C 74.500 50.165,74.428 50.025,74.333 50.083 C 74.242 50.140,74.167 50.061,74.167 49.909 C 74.167 49.756,73.942 49.347,73.667 49.000 C 73.392 48.653,73.167 48.286,73.167 48.184 C 73.167 48.083,73.092 48.000,73.000 48.000 C 72.908 48.000,72.833 47.816,72.833 47.592 C 72.833 47.367,72.716 47.118,72.573 47.037 C 72.430 46.957,72.294 46.768,72.272 46.617 C 72.250 46.466,72.168 46.285,72.089 46.213 C 72.011 46.142,72.001 46.177,72.066 46.292 C 72.132 46.406,72.107 46.500,72.010 46.500 C 71.913 46.500,71.833 46.313,71.833 46.083 C 71.833 45.854,71.758 45.667,71.667 45.667 C 71.575 45.667,71.500 45.479,71.500 45.250 C 71.500 44.991,71.406 44.833,71.250 44.833 C 71.095 44.833,71.000 44.677,71.000 44.422 C 71.000 44.107,70.935 44.035,70.723 44.117 C 70.504 44.201,70.466 44.148,70.541 43.861 C 70.605 43.617,70.559 43.500,70.401 43.500 C 70.262 43.500,70.167 43.330,70.167 43.083 C 70.167 42.824,70.072 42.667,69.917 42.667 C 69.779 42.667,69.667 42.557,69.667 42.422 C 69.667 42.084,69.135 41.000,68.969 41.000 C 68.894 41.000,68.833 40.852,68.833 40.672 C 68.833 40.449,68.753 40.374,68.583 40.440 C 68.394 40.513,68.333 40.409,68.333 40.008 C 68.333 39.699,68.264 39.523,68.167 39.583 C 68.072 39.642,68.000 39.500,68.000 39.255 C 68.000 39.017,67.887 38.780,67.750 38.727 C 67.612 38.674,67.500 38.527,67.500 38.399 C 67.500 38.271,67.427 38.167,67.337 38.167 C 67.115 38.167,66.484 36.905,66.632 36.757 C 66.697 36.692,66.642 36.664,66.510 36.694 C 66.377 36.725,66.239 36.602,66.200 36.417 C 66.161 36.233,65.918 35.794,65.660 35.441 C 65.390 35.072,65.233 34.689,65.290 34.539 C 65.353 34.375,65.322 34.321,65.207 34.392 C 65.105 34.455,64.977 34.357,64.917 34.169 C 64.859 33.984,64.741 33.833,64.655 33.833 C 64.570 33.833,64.500 33.646,64.500 33.417 C 64.500 33.157,64.406 33.000,64.250 33.000 C 64.112 33.000,64.000 32.854,64.000 32.675 C 64.000 32.497,63.813 32.148,63.583 31.901 C 63.354 31.654,63.167 31.312,63.167 31.142 C 63.167 30.972,63.054 30.833,62.917 30.833 C 62.761 30.833,62.667 30.676,62.667 30.417 C 62.667 30.188,62.592 30.000,62.500 30.000 C 62.408 30.000,62.331 29.831,62.329 29.625 C 62.326 29.419,62.106 29.036,61.840 28.775 C 61.574 28.514,61.396 28.196,61.445 28.068 C 61.494 27.941,61.414 27.790,61.267 27.734 C 61.120 27.677,61.000 27.524,61.000 27.394 C 61.000 27.263,60.887 27.113,60.750 27.060 C 60.612 27.008,60.500 26.795,60.500 26.588 C 60.500 26.381,60.323 26.033,60.106 25.814 C 59.889 25.596,59.659 25.248,59.595 25.042 C 59.530 24.835,59.408 24.667,59.322 24.667 C 59.237 24.667,59.167 24.554,59.167 24.417 C 59.167 24.279,59.073 24.166,58.958 24.164 C 58.819 24.162,58.833 24.108,59.000 24.000 C 59.167 23.892,59.181 23.838,59.042 23.836 C 58.927 23.834,58.833 23.721,58.833 23.583 C 58.833 23.446,58.721 23.333,58.583 23.333 C 58.431 23.333,58.333 23.178,58.333 22.934 C 58.333 22.715,58.216 22.491,58.073 22.436 C 57.929 22.381,57.854 22.269,57.904 22.187 C 57.955 22.105,57.892 21.951,57.765 21.845 C 57.637 21.740,57.486 21.469,57.430 21.243 C 57.373 21.018,57.253 20.833,57.163 20.833 C 57.074 20.833,57.000 20.721,57.000 20.583 C 57.000 20.446,56.944 20.333,56.875 20.332 C 56.684 20.331,56.167 19.348,56.167 18.986 C 56.167 18.811,56.081 18.667,55.977 18.667 C 55.719 18.667,55.345 18.151,55.339 17.786 C 55.336 17.623,55.229 17.450,55.102 17.401 C 54.975 17.352,54.826 17.087,54.771 16.812 C 54.705 16.484,54.603 16.353,54.474 16.433 C 54.342 16.514,54.310 16.467,54.378 16.291 C 54.436 16.139,54.377 15.989,54.239 15.936 C 54.108 15.885,54.000 15.689,54.000 15.500 C 54.000 15.311,53.887 15.113,53.750 15.060 C 53.612 15.008,53.500 14.798,53.500 14.594 C 53.500 14.370,53.337 14.136,53.089 14.003 C 52.863 13.882,52.717 13.720,52.765 13.642 C 52.880 13.457,52.420 12.802,52.277 12.946 C 52.216 13.006,52.167 12.824,52.167 12.542 C 52.167 12.259,52.088 12.001,51.991 11.969 C 51.894 11.937,51.791 11.762,51.760 11.580 C 51.730 11.399,51.622 11.269,51.520 11.292 C 51.417 11.315,51.333 11.179,51.333 10.990 C 51.333 10.801,51.258 10.693,51.167 10.750 C 51.004 10.850,50.932 10.632,50.988 10.206 C 51.003 10.090,50.900 9.951,50.758 9.897 C 50.616 9.842,50.500 9.614,50.500 9.389 C 50.500 9.164,50.427 9.025,50.338 9.080 C 50.187 9.174,49.585 8.063,49.641 7.792 C 49.655 7.723,49.554 7.667,49.417 7.667 C 49.199 7.667,49.083 7.362,49.147 6.958 C 49.158 6.890,49.054 6.833,48.917 6.833 C 48.756 6.833,48.666 6.670,48.664 6.375 C 48.662 6.018,48.626 5.972,48.500 6.167 C 48.370 6.368,48.338 6.343,48.336 6.036 C 48.334 5.827,48.221 5.613,48.083 5.560 C 47.946 5.508,47.833 5.362,47.833 5.236 C 47.833 4.874,47.235 3.988,47.084 4.126 C 47.008 4.194,47.003 4.153,47.071 4.034 C 47.141 3.914,47.062 3.620,46.893 3.368 C 46.582 2.903,45.969 1.814,45.936 1.667 C 45.925 1.621,45.860 1.602,45.792 1.625 C 45.723 1.648,45.667 1.526,45.667 1.354 C 45.667 1.182,45.554 0.947,45.417 0.833 C 45.279 0.719,45.167 0.518,45.167 0.386 C 45.167 0.255,45.092 0.193,45.000 0.250 C 44.908 0.307,44.833 0.274,44.833 0.177 C 44.833 0.063,44.204 0.000,43.083 0.000 C 41.963 0.000,41.333 0.063,41.333 0.177 " stroke="none" fill="#44b4db" fill-rule="evenodd"></path><path id="path1" d="M96.414 40.833 C 96.414 50.046,96.434 53.815,96.458 49.208 C 96.483 44.602,96.483 37.065,96.458 32.458 C 96.434 27.852,96.414 31.621,96.414 40.833 M165.580 40.833 C 165.580 49.771,165.600 53.427,165.625 48.958 C 165.650 44.490,165.650 37.177,165.625 32.708 C 165.600 28.240,165.580 31.896,165.580 40.833 M229.792 44.957 C 230.365 44.989,231.302 44.989,231.875 44.957 C 232.448 44.924,231.979 44.898,230.833 44.898 C 229.688 44.898,229.219 44.924,229.792 44.957 M314.625 44.957 C 315.198 44.989,316.135 44.989,316.708 44.957 C 317.281 44.924,316.813 44.898,315.667 44.898 C 314.521 44.898,314.052 44.924,314.625 44.957 " stroke="none" fill="#2c2c24" fill-rule="evenodd"></path><path id="path2" d="M96.833 23.167 C 96.833 23.258,96.740 23.333,96.625 23.333 C 96.460 23.333,96.417 26.944,96.417 40.833 C 96.417 54.722,96.460 58.333,96.625 58.333 C 96.740 58.333,96.833 58.408,96.833 58.500 C 96.833 58.609,99.917 58.667,105.750 58.667 C 111.583 58.667,114.667 58.609,114.667 58.500 C 114.667 58.407,115.113 58.333,115.672 58.333 C 116.412 58.333,116.702 58.267,116.773 58.083 C 116.836 57.920,117.095 57.833,117.518 57.833 C 117.875 57.833,118.167 57.758,118.167 57.667 C 118.167 57.575,118.345 57.500,118.563 57.500 C 118.781 57.500,119.053 57.387,119.167 57.250 C 119.281 57.112,119.510 57.000,119.675 57.000 C 119.841 57.000,120.078 56.906,120.203 56.792 C 120.557 56.466,121.137 56.167,121.414 56.167 C 121.553 56.167,121.667 56.062,121.667 55.935 C 121.667 55.807,121.854 55.656,122.083 55.598 C 122.313 55.541,122.500 55.420,122.500 55.330 C 122.500 55.240,122.612 55.167,122.750 55.167 C 122.888 55.167,123.000 55.092,123.000 55.000 C 123.000 54.908,123.112 54.833,123.250 54.833 C 123.388 54.833,123.500 54.721,123.500 54.583 C 123.500 54.446,123.580 54.333,123.679 54.333 C 123.909 54.333,124.333 53.909,124.333 53.679 C 124.333 53.580,124.446 53.500,124.583 53.500 C 124.721 53.500,124.833 53.405,124.833 53.290 C 124.833 53.174,125.021 52.938,125.250 52.766 C 125.479 52.594,125.667 52.348,125.667 52.219 C 125.667 52.090,125.854 51.810,126.083 51.598 C 126.313 51.386,126.500 51.052,126.500 50.856 C 126.500 50.651,126.606 50.500,126.750 50.500 C 126.917 50.500,127.000 50.333,127.000 50.000 C 127.000 49.667,127.083 49.500,127.250 49.500 C 127.406 49.500,127.500 49.343,127.500 49.083 C 127.500 48.854,127.575 48.667,127.667 48.667 C 127.758 48.667,127.833 48.367,127.833 48.000 C 127.833 47.519,127.903 47.333,128.083 47.333 C 128.268 47.333,128.333 47.140,128.333 46.593 C 128.333 46.186,128.408 45.807,128.500 45.750 C 128.592 45.693,128.667 45.023,128.667 44.261 C 128.667 43.232,128.731 42.821,128.917 42.667 C 129.108 42.508,129.167 42.075,129.167 40.833 C 129.167 39.591,129.108 39.158,128.917 39.000 C 128.731 38.846,128.667 38.435,128.667 37.406 C 128.667 36.644,128.592 35.973,128.500 35.917 C 128.408 35.860,128.333 35.481,128.333 35.073 C 128.333 34.527,128.268 34.333,128.083 34.333 C 127.903 34.333,127.833 34.148,127.833 33.667 C 127.833 33.300,127.758 33.000,127.667 33.000 C 127.575 33.000,127.500 32.848,127.500 32.661 C 127.500 32.475,127.388 32.280,127.250 32.227 C 127.112 32.174,127.000 31.949,127.000 31.727 C 127.000 31.505,126.888 31.280,126.750 31.227 C 126.612 31.174,126.500 30.984,126.500 30.804 C 126.500 30.450,126.134 30.000,125.845 30.000 C 125.747 30.000,125.667 29.848,125.667 29.661 C 125.667 29.475,125.554 29.280,125.417 29.227 C 125.279 29.174,125.167 29.027,125.167 28.899 C 125.167 28.771,125.092 28.667,125.000 28.667 C 124.908 28.667,124.833 28.554,124.833 28.417 C 124.833 28.279,124.764 28.167,124.679 28.167 C 124.479 28.167,123.500 27.187,123.500 26.987 C 123.500 26.903,123.388 26.833,123.250 26.833 C 123.112 26.833,123.000 26.758,123.000 26.667 C 123.000 26.575,122.858 26.500,122.684 26.500 C 122.511 26.500,122.326 26.387,122.273 26.250 C 122.220 26.113,122.062 26.000,121.922 26.000 C 121.782 26.000,121.667 25.887,121.667 25.750 C 121.667 25.613,121.553 25.500,121.414 25.500 C 121.174 25.500,120.511 25.188,120.333 24.991 C 120.095 24.727,118.756 24.161,118.554 24.238 C 118.426 24.287,118.278 24.216,118.226 24.081 C 118.168 23.929,117.911 23.833,117.560 23.833 C 117.207 23.833,116.953 23.738,116.894 23.583 C 116.822 23.397,116.526 23.333,115.732 23.333 C 115.133 23.333,114.667 23.260,114.667 23.167 C 114.667 23.058,111.583 23.000,105.750 23.000 C 99.917 23.000,96.833 23.058,96.833 23.167 M132.867 23.200 C 132.757 23.310,132.667 23.491,132.667 23.603 C 132.667 23.714,132.573 23.837,132.458 23.875 C 132.190 23.964,132.149 57.607,132.417 57.798 C 132.508 57.863,132.667 58.067,132.768 58.250 C 132.979 58.630,159.333 58.879,159.333 58.501 C 159.333 58.409,159.427 58.333,159.542 58.332 C 160.226 58.328,160.512 51.228,159.885 49.806 L 159.603 49.167 151.551 49.167 C 147.123 49.167,143.500 49.104,143.500 49.027 C 143.500 48.950,143.313 48.801,143.083 48.697 C 142.638 48.494,142.436 46.496,142.836 46.248 C 142.929 46.191,142.967 46.081,142.919 46.004 C 142.872 45.927,142.983 45.904,143.166 45.952 C 143.353 46.000,143.500 45.957,143.500 45.853 C 143.500 45.719,145.447 45.667,150.463 45.667 C 157.233 45.667,157.434 45.657,157.713 45.331 C 157.968 45.034,158.000 44.532,158.000 40.833 C 158.000 37.135,157.968 36.633,157.713 36.335 C 157.434 36.009,157.233 36.000,150.296 36.000 C 145.654 36.000,143.167 35.942,143.167 35.833 C 143.167 35.742,143.054 35.667,142.917 35.667 C 142.715 35.667,142.667 35.407,142.667 34.333 C 142.667 33.259,142.715 33.000,142.917 33.000 C 143.054 33.000,143.167 32.887,143.167 32.750 C 143.167 32.533,156.513 32.313,158.778 32.492 C 159.181 32.524,159.833 32.042,159.833 31.713 C 159.833 31.596,159.908 31.500,160.000 31.500 C 160.106 31.500,160.167 30.178,160.167 27.867 C 160.167 24.214,160.046 23.338,159.542 23.335 C 159.427 23.334,159.333 23.258,159.333 23.167 C 159.333 22.907,133.127 22.940,132.867 23.200 M165.750 23.220 C 164.961 24.200,165.000 23.283,165.000 40.833 C 165.000 58.438,164.962 57.575,165.782 58.457 C 166.031 58.726,191.667 58.764,191.667 58.496 C 191.667 58.407,191.779 58.333,191.917 58.333 C 192.054 58.333,192.167 58.188,192.167 58.010 C 192.167 57.832,192.242 57.640,192.333 57.583 C 192.634 57.398,192.548 50.647,192.237 50.024 C 192.092 49.734,191.905 49.539,191.820 49.591 C 191.736 49.644,191.667 49.564,191.667 49.414 C 191.667 49.221,191.534 49.150,191.208 49.172 C 188.555 49.347,176.000 49.136,176.000 48.917 C 176.000 48.779,175.887 48.667,175.750 48.667 C 175.530 48.667,175.500 47.148,175.500 36.000 C 175.500 24.852,175.470 23.333,175.250 23.333 C 175.112 23.333,175.000 23.258,175.000 23.167 C 175.000 22.904,165.963 22.956,165.750 23.220 M187.625 23.316 C 187.213 23.733,187.173 32.000,187.583 32.000 C 187.721 32.000,187.833 32.112,187.833 32.250 C 187.833 32.465,188.389 32.500,191.833 32.500 C 195.611 32.500,195.852 32.519,196.167 32.833 C 196.494 33.161,196.500 33.389,196.500 45.750 C 196.500 56.824,196.530 58.333,196.750 58.333 C 196.887 58.333,197.000 58.410,197.000 58.503 C 197.000 58.614,198.603 58.657,201.708 58.628 L 206.417 58.583 206.470 58.208 C 206.499 58.002,206.630 57.833,206.762 57.833 C 206.966 57.833,207.000 56.074,207.000 45.417 C 207.000 37.250,207.057 33.000,207.167 33.000 C 207.258 33.000,207.333 32.887,207.333 32.750 C 207.333 32.535,207.881 32.500,211.262 32.500 C 214.444 32.500,215.236 32.455,215.429 32.262 C 215.623 32.068,215.667 31.232,215.667 27.750 C 215.667 24.268,215.623 23.432,215.429 23.238 C 215.022 22.831,188.028 22.906,187.625 23.316 M226.125 23.232 C 225.965 23.354,225.833 23.539,225.833 23.643 C 225.833 23.748,225.721 23.833,225.583 23.833 C 225.428 23.833,225.333 23.991,225.333 24.250 C 225.333 24.479,225.258 24.667,225.167 24.667 C 225.075 24.667,225.000 24.846,225.000 25.066 C 225.000 25.285,224.887 25.508,224.750 25.560 C 224.612 25.613,224.500 25.814,224.500 26.007 C 224.500 26.199,224.387 26.470,224.250 26.607 C 224.112 26.745,224.000 27.039,224.000 27.262 C 224.000 27.485,223.925 27.667,223.833 27.667 C 223.742 27.667,223.667 27.892,223.667 28.167 C 223.667 28.500,223.583 28.667,223.417 28.667 C 223.263 28.667,223.167 28.823,223.167 29.069 C 223.167 29.291,223.084 29.500,222.982 29.534 C 222.881 29.567,222.785 29.849,222.770 30.160 C 222.754 30.471,222.649 30.756,222.537 30.793 C 222.425 30.831,222.333 31.042,222.333 31.264 C 222.333 31.511,222.237 31.667,222.083 31.667 C 221.929 31.667,221.833 31.823,221.833 32.073 C 221.833 32.297,221.758 32.527,221.667 32.583 C 221.575 32.640,221.500 32.944,221.500 33.260 C 221.500 33.659,221.424 33.833,221.250 33.833 C 221.097 33.833,221.000 33.989,221.000 34.232 C 221.000 34.452,220.887 34.674,220.750 34.727 C 220.612 34.780,220.500 35.013,220.500 35.245 C 220.500 35.477,220.417 35.667,220.316 35.667 C 220.203 35.667,220.155 35.914,220.193 36.308 C 220.240 36.802,220.196 36.946,220.002 36.933 C 219.828 36.922,219.750 37.076,219.750 37.433 C 219.750 37.788,219.672 37.944,219.500 37.933 C 219.344 37.923,219.255 38.057,219.263 38.292 C 219.271 38.499,219.177 38.667,219.055 38.667 C 218.908 38.667,218.833 38.890,218.833 39.333 C 218.833 39.815,218.764 40.000,218.583 40.000 C 218.428 40.000,218.333 40.157,218.333 40.417 C 218.333 40.646,218.258 40.833,218.167 40.833 C 218.075 40.833,218.000 41.013,218.000 41.232 C 218.000 41.452,217.887 41.674,217.750 41.727 C 217.593 41.787,217.500 42.042,217.500 42.411 C 217.500 42.823,217.425 43.000,217.250 43.000 C 217.094 43.000,217.000 43.157,217.000 43.417 C 217.000 43.646,216.925 43.833,216.833 43.833 C 216.742 43.833,216.667 44.058,216.667 44.333 C 216.667 44.667,216.583 44.833,216.417 44.833 C 216.252 44.833,216.167 44.998,216.167 45.313 C 216.167 45.577,216.049 45.890,215.906 46.009 C 215.740 46.146,215.681 46.367,215.742 46.613 C 215.812 46.891,215.768 47.000,215.587 47.000 C 215.431 47.000,215.333 47.153,215.333 47.399 C 215.333 47.618,215.221 47.841,215.083 47.894 C 214.939 47.949,214.833 48.198,214.833 48.485 C 214.833 48.757,214.758 49.027,214.667 49.083 C 214.575 49.140,214.500 49.369,214.500 49.593 C 214.500 49.844,214.404 50.000,214.250 50.000 C 214.108 50.000,214.000 50.149,214.000 50.345 C 214.000 50.535,213.887 50.803,213.750 50.940 C 213.612 51.078,213.500 51.368,213.500 51.585 C 213.500 51.803,213.425 52.027,213.333 52.083 C 213.242 52.140,213.167 52.361,213.167 52.575 C 213.167 52.789,213.054 53.008,212.917 53.060 C 212.779 53.113,212.667 53.314,212.667 53.507 C 212.667 53.699,212.548 53.976,212.402 54.122 C 212.254 54.270,212.170 54.554,212.211 54.768 C 212.254 54.992,212.191 55.186,212.059 55.236 C 211.935 55.284,211.833 55.513,211.833 55.745 C 211.833 56.009,211.740 56.167,211.583 56.167 C 211.387 56.167,211.333 56.398,211.333 57.250 C 211.333 58.102,211.387 58.333,211.583 58.333 C 211.721 58.333,211.833 58.408,211.833 58.500 C 211.833 58.608,213.671 58.667,217.012 58.667 C 222.321 58.667,222.667 58.627,222.667 58.012 C 222.667 57.914,222.779 57.833,222.917 57.833 C 223.072 57.833,223.167 57.676,223.167 57.417 C 223.167 57.157,223.261 57.000,223.417 57.000 C 223.572 57.000,223.667 56.843,223.667 56.583 C 223.667 56.354,223.742 56.167,223.833 56.167 C 223.925 56.167,224.000 55.942,224.000 55.667 C 224.000 55.333,224.083 55.167,224.250 55.167 C 224.406 55.167,224.500 55.009,224.500 54.750 C 224.500 54.491,224.594 54.333,224.750 54.333 C 224.887 54.333,225.000 54.258,225.000 54.167 C 225.000 54.059,226.976 54.000,230.596 54.000 L 236.192 54.000 236.679 54.487 C 236.947 54.755,237.167 55.095,237.167 55.242 C 237.167 55.390,237.279 55.554,237.417 55.606 C 237.554 55.659,237.667 55.882,237.667 56.101 C 237.667 56.321,237.742 56.500,237.833 56.500 C 237.925 56.500,238.000 56.684,238.000 56.908 C 238.000 57.133,238.104 57.377,238.231 57.450 C 238.359 57.523,238.491 57.733,238.525 57.917 C 238.561 58.110,238.744 58.272,238.960 58.303 C 239.165 58.333,239.333 58.426,239.333 58.512 C 239.333 58.832,249.619 58.705,249.998 58.380 C 250.414 58.023,250.469 56.660,250.083 56.274 C 249.946 56.136,249.833 55.868,249.833 55.679 C 249.833 55.483,249.725 55.333,249.583 55.333 C 249.417 55.333,249.333 55.167,249.333 54.833 C 249.333 54.558,249.258 54.333,249.167 54.333 C 249.075 54.333,249.000 54.151,249.000 53.929 C 249.000 53.706,248.887 53.411,248.750 53.274 C 248.612 53.136,248.500 52.831,248.500 52.595 C 248.500 52.360,248.425 52.167,248.333 52.167 C 248.242 52.167,248.167 52.014,248.167 51.828 C 248.167 51.642,248.054 51.446,247.917 51.394 C 247.778 51.340,247.667 51.093,247.667 50.836 C 247.667 50.582,247.554 50.281,247.417 50.167 C 247.279 50.053,247.167 49.781,247.167 49.563 C 247.167 49.345,247.092 49.167,247.000 49.167 C 246.908 49.167,246.833 48.979,246.833 48.750 C 246.833 48.491,246.739 48.333,246.583 48.333 C 246.430 48.333,246.333 48.177,246.333 47.930 C 246.333 47.371,246.169 47.000,245.922 47.000 C 245.789 47.000,245.742 46.849,245.793 46.583 C 245.839 46.340,245.795 46.167,245.686 46.167 C 245.584 46.167,245.500 45.942,245.500 45.667 C 245.500 45.333,245.417 45.167,245.250 45.167 C 245.112 45.167,245.000 45.045,245.000 44.897 C 245.000 44.499,244.442 43.000,244.294 43.000 C 244.224 43.000,244.167 42.813,244.167 42.583 C 244.167 42.324,244.072 42.167,243.917 42.167 C 243.763 42.167,243.667 42.010,243.667 41.760 C 243.667 41.536,243.592 41.307,243.500 41.250 C 243.408 41.193,243.333 40.924,243.333 40.652 C 243.333 40.365,243.228 40.116,243.083 40.060 C 242.946 40.008,242.833 39.785,242.833 39.566 C 242.833 39.322,242.736 39.167,242.583 39.167 C 242.418 39.167,242.333 39.001,242.333 38.677 C 242.333 38.407,242.258 38.140,242.167 38.083 C 242.075 38.027,242.000 37.760,242.000 37.490 C 242.000 37.166,241.916 37.000,241.750 37.000 C 241.583 37.000,241.500 36.833,241.500 36.500 C 241.500 36.225,241.425 36.000,241.333 36.000 C 241.242 36.000,241.167 35.859,241.167 35.687 C 241.167 35.515,241.054 35.281,240.917 35.167 C 240.779 35.053,240.667 34.741,240.667 34.474 C 240.667 34.197,240.560 33.948,240.417 33.894 C 240.279 33.841,240.167 33.618,240.167 33.399 C 240.167 33.179,240.092 33.000,240.000 33.000 C 239.908 33.000,239.833 32.813,239.833 32.583 C 239.833 32.324,239.739 32.167,239.583 32.167 C 239.403 32.167,239.333 31.981,239.333 31.500 C 239.333 31.019,239.264 30.833,239.083 30.833 C 238.928 30.833,238.833 30.676,238.833 30.417 C 238.833 30.188,238.758 30.000,238.667 30.000 C 238.575 30.000,238.500 29.775,238.500 29.500 C 238.500 29.167,238.417 29.000,238.250 29.000 C 238.075 29.000,238.000 28.824,238.000 28.417 C 238.000 28.096,237.925 27.833,237.833 27.833 C 237.742 27.833,237.667 27.689,237.667 27.512 C 237.667 27.335,237.554 27.078,237.417 26.940 C 237.279 26.803,237.167 26.535,237.167 26.345 C 237.167 26.149,237.058 26.000,236.917 26.000 C 236.743 26.000,236.667 25.825,236.667 25.427 C 236.667 25.111,236.592 24.807,236.500 24.750 C 236.408 24.693,236.333 24.499,236.333 24.318 C 236.333 24.137,236.221 23.946,236.083 23.894 C 235.946 23.841,235.833 23.693,235.833 23.566 C 235.833 23.438,235.721 23.333,235.583 23.333 C 235.446 23.333,235.333 23.258,235.333 23.167 C 235.333 22.893,226.489 22.956,226.125 23.232 M269.371 23.253 C 269.033 23.637,269.062 58.086,269.401 58.425 C 269.699 58.722,295.667 58.797,295.667 58.500 C 295.667 58.408,295.892 58.333,296.167 58.333 C 296.442 58.333,296.667 58.405,296.667 58.492 C 296.667 58.588,298.689 58.655,301.842 58.662 C 307.160 58.674,307.500 58.635,307.500 58.012 C 307.500 57.914,307.612 57.833,307.750 57.833 C 307.906 57.833,308.000 57.676,308.000 57.417 C 308.000 57.188,308.075 57.000,308.167 57.000 C 308.258 57.000,308.333 56.813,308.333 56.583 C 308.333 56.324,308.428 56.167,308.583 56.167 C 308.750 56.167,308.833 56.000,308.833 55.667 C 308.833 55.333,308.917 55.167,309.083 55.167 C 309.225 55.167,309.333 55.017,309.333 54.821 C 309.333 54.013,309.427 54.000,315.410 54.000 L 321.011 54.000 321.506 54.506 C 321.778 54.784,322.000 55.059,322.000 55.116 C 322.000 55.360,322.576 56.500,322.699 56.500 C 322.773 56.500,322.833 56.684,322.833 56.908 C 322.833 57.133,322.937 57.377,323.065 57.450 C 323.192 57.523,323.324 57.733,323.358 57.917 C 323.394 58.110,323.577 58.272,323.793 58.303 C 323.999 58.333,324.167 58.426,324.167 58.512 C 324.167 58.791,334.480 58.710,334.762 58.429 C 335.038 58.153,335.101 56.167,334.833 56.167 C 334.742 56.167,334.667 55.979,334.667 55.750 C 334.667 55.491,334.572 55.333,334.417 55.333 C 334.250 55.333,334.167 55.167,334.167 54.833 C 334.167 54.558,334.092 54.333,334.000 54.333 C 333.908 54.333,333.833 54.151,333.833 53.929 C 333.833 53.706,333.721 53.411,333.583 53.274 C 333.446 53.136,333.333 52.831,333.333 52.595 C 333.333 52.325,333.241 52.167,333.083 52.167 C 332.928 52.167,332.833 52.009,332.833 51.750 C 332.833 51.521,332.758 51.333,332.667 51.333 C 332.575 51.333,332.500 51.114,332.500 50.845 C 332.500 50.577,332.387 50.245,332.250 50.107 C 332.112 49.970,332.000 49.710,332.000 49.530 C 332.000 49.350,331.893 49.161,331.763 49.111 C 331.618 49.056,331.561 48.887,331.616 48.677 C 331.679 48.435,331.626 48.333,331.436 48.333 C 331.239 48.333,331.167 48.176,331.167 47.745 C 331.167 47.375,331.074 47.120,330.917 47.060 C 330.779 47.008,330.667 46.785,330.667 46.566 C 330.667 46.346,330.592 46.167,330.500 46.167 C 330.408 46.167,330.333 45.977,330.333 45.745 C 330.333 45.513,330.221 45.280,330.083 45.227 C 329.940 45.172,329.833 44.923,329.833 44.644 C 329.833 44.364,329.727 44.115,329.583 44.060 C 329.441 44.006,329.333 43.757,329.333 43.482 C 329.333 43.217,329.258 43.000,329.167 43.000 C 329.075 43.000,329.000 42.813,329.000 42.583 C 329.000 42.324,328.906 42.167,328.750 42.167 C 328.584 42.167,328.500 42.001,328.500 41.677 C 328.500 41.407,328.425 41.140,328.333 41.083 C 328.242 41.027,328.167 40.840,328.167 40.669 C 328.167 40.497,328.054 40.245,327.917 40.107 C 327.779 39.970,327.667 39.702,327.667 39.512 C 327.667 39.316,327.558 39.167,327.417 39.167 C 327.251 39.167,327.167 39.001,327.167 38.677 C 327.167 38.407,327.092 38.140,327.000 38.083 C 326.908 38.027,326.833 37.795,326.833 37.568 C 326.833 37.342,326.721 37.113,326.583 37.060 C 326.441 37.006,326.333 36.757,326.333 36.482 C 326.333 36.165,326.248 36.000,326.083 36.000 C 325.918 36.000,325.833 35.834,325.833 35.510 C 325.833 35.240,325.758 34.973,325.667 34.917 C 325.575 34.860,325.500 34.628,325.500 34.402 C 325.500 34.175,325.387 33.946,325.250 33.894 C 325.112 33.841,325.000 33.618,325.000 33.399 C 325.000 33.179,324.925 33.000,324.833 33.000 C 324.742 33.000,324.667 32.821,324.667 32.601 C 324.667 32.382,324.554 32.159,324.417 32.106 C 324.260 32.046,324.167 31.791,324.167 31.422 C 324.167 31.010,324.092 30.833,323.917 30.833 C 323.761 30.833,323.667 30.676,323.667 30.417 C 323.667 30.188,323.592 30.000,323.500 30.000 C 323.408 30.000,323.333 29.822,323.333 29.604 C 323.333 29.386,323.221 29.114,323.083 29.000 C 322.946 28.886,322.833 28.577,322.833 28.313 C 322.833 27.998,322.748 27.833,322.583 27.833 C 322.417 27.833,322.333 27.667,322.333 27.333 C 322.333 27.058,322.258 26.833,322.167 26.833 C 322.075 26.833,322.000 26.646,322.000 26.417 C 322.000 26.157,321.906 26.000,321.750 26.000 C 321.590 26.000,321.500 25.840,321.500 25.556 C 321.500 25.053,321.005 23.833,320.801 23.833 C 320.727 23.833,320.667 23.721,320.667 23.583 C 320.667 23.446,320.554 23.333,320.417 23.333 C 320.279 23.333,320.167 23.258,320.167 23.167 C 320.167 23.060,318.552 23.000,315.655 23.000 C 311.045 23.000,310.667 23.050,310.667 23.655 C 310.667 23.753,310.554 23.833,310.417 23.833 C 310.264 23.833,310.167 23.989,310.167 24.232 C 310.167 24.452,310.046 24.677,309.899 24.734 C 309.752 24.790,309.673 24.943,309.723 25.073 C 309.773 25.203,309.705 25.399,309.573 25.508 C 309.441 25.618,309.333 25.854,309.333 26.032 C 309.333 26.211,309.221 26.470,309.083 26.607 C 308.946 26.745,308.833 27.039,308.833 27.262 C 308.833 27.485,308.758 27.667,308.667 27.667 C 308.575 27.667,308.500 27.857,308.500 28.089 C 308.500 28.321,308.387 28.554,308.250 28.606 C 308.112 28.659,307.998 28.863,307.995 29.059 C 307.992 29.256,307.879 29.562,307.745 29.740 C 307.610 29.918,307.500 30.237,307.500 30.449 C 307.500 30.660,307.425 30.833,307.333 30.833 C 307.242 30.833,307.167 31.021,307.167 31.250 C 307.167 31.522,307.073 31.667,306.898 31.667 C 306.691 31.667,306.645 31.796,306.697 32.238 C 306.734 32.553,306.696 32.768,306.613 32.717 C 306.396 32.583,306.158 33.032,306.265 33.376 C 306.320 33.552,306.252 33.708,306.095 33.769 C 305.951 33.824,305.833 34.040,305.833 34.250 C 305.833 34.460,305.721 34.674,305.583 34.727 C 305.446 34.780,305.333 35.013,305.333 35.245 C 305.333 35.477,305.258 35.667,305.167 35.667 C 305.075 35.667,305.000 35.921,305.000 36.232 C 305.000 36.581,304.904 36.834,304.750 36.894 C 304.612 36.946,304.500 37.179,304.500 37.411 C 304.500 37.675,304.406 37.833,304.250 37.833 C 304.096 37.833,304.000 37.990,304.000 38.240 C 304.000 38.464,303.925 38.693,303.833 38.750 C 303.742 38.807,303.667 39.111,303.667 39.427 C 303.667 39.825,303.590 40.000,303.417 40.000 C 303.264 40.000,303.167 40.155,303.167 40.399 C 303.167 40.618,303.046 40.844,302.899 40.900 C 302.708 40.974,302.661 41.123,302.735 41.418 C 302.812 41.724,302.773 41.833,302.587 41.833 C 302.408 41.833,302.333 42.006,302.333 42.417 C 302.333 42.824,302.258 43.000,302.083 43.000 C 301.928 43.000,301.833 43.157,301.833 43.417 C 301.833 43.646,301.758 43.833,301.667 43.833 C 301.575 43.833,301.500 44.058,301.500 44.333 C 301.500 44.667,301.417 44.833,301.250 44.833 C 301.077 44.833,301.000 45.007,301.000 45.399 C 301.000 45.748,300.904 46.001,300.750 46.060 C 300.612 46.113,300.500 46.346,300.500 46.578 C 300.500 46.810,300.425 47.000,300.333 47.000 C 300.242 47.000,300.167 47.179,300.167 47.399 C 300.167 47.618,300.054 47.841,299.917 47.894 C 299.760 47.954,299.667 48.209,299.667 48.578 C 299.667 49.008,299.594 49.167,299.399 49.167 C 299.196 49.167,299.156 49.268,299.235 49.583 C 299.312 49.891,299.273 50.000,299.087 50.000 C 298.927 50.000,298.833 50.156,298.833 50.422 C 298.833 50.654,298.721 50.887,298.583 50.940 C 298.429 50.999,298.333 51.252,298.333 51.601 C 298.333 51.912,298.258 52.167,298.167 52.167 C 298.075 52.167,298.000 52.346,298.000 52.566 C 298.000 52.785,297.887 53.008,297.750 53.060 C 297.612 53.113,297.500 53.338,297.500 53.560 C 297.500 53.783,297.387 54.008,297.250 54.060 C 297.105 54.116,297.000 54.365,297.000 54.652 C 297.000 54.924,296.925 55.193,296.833 55.250 C 296.742 55.307,296.667 55.536,296.667 55.760 C 296.667 56.010,296.571 56.167,296.417 56.167 C 296.203 56.167,296.167 55.699,296.167 52.954 C 296.167 48.678,297.242 49.167,287.831 49.167 C 280.389 49.167,280.157 49.157,279.833 48.833 C 279.506 48.506,279.500 48.278,279.500 36.276 C 279.500 25.490,279.469 23.989,279.238 23.526 L 278.976 23.000 274.279 23.006 C 270.400 23.012,269.546 23.055,269.371 23.253 M337.958 23.316 C 337.466 23.815,337.511 57.960,338.005 58.382 C 338.599 58.891,347.518 58.732,347.748 58.208 C 347.838 58.002,347.970 57.833,348.040 57.833 C 348.109 57.833,348.167 55.583,348.167 52.833 C 348.167 48.500,348.200 47.833,348.417 47.833 C 348.556 47.833,348.667 47.981,348.667 48.167 C 348.667 48.350,348.737 48.500,348.824 48.500 C 348.910 48.500,349.114 48.725,349.277 49.000 C 349.439 49.275,349.668 49.500,349.786 49.500 C 349.904 49.500,350.000 49.581,350.000 49.679 C 350.000 49.913,350.921 50.833,351.154 50.833 C 351.253 50.833,351.333 50.914,351.333 51.013 C 351.333 51.240,352.351 52.263,352.525 52.210 C 352.596 52.189,352.616 52.272,352.569 52.395 C 352.521 52.519,352.786 52.946,353.158 53.344 C 353.529 53.743,353.833 54.128,353.833 54.201 C 353.833 54.274,353.946 54.333,354.083 54.333 C 354.221 54.333,354.333 54.446,354.333 54.583 C 354.333 54.721,354.414 54.833,354.512 54.833 C 354.743 54.833,355.167 55.257,355.167 55.488 C 355.167 55.586,355.279 55.667,355.417 55.667 C 355.554 55.667,355.667 55.779,355.667 55.917 C 355.667 56.054,355.784 56.167,355.927 56.167 C 356.082 56.167,356.138 56.245,356.066 56.362 C 355.985 56.492,356.036 56.522,356.221 56.451 C 356.372 56.393,356.488 56.399,356.478 56.464 C 356.410 56.925,356.537 57.333,356.750 57.333 C 356.887 57.333,357.000 57.407,357.000 57.498 C 357.000 57.824,357.582 58.333,357.954 58.333 C 358.163 58.333,358.333 58.410,358.333 58.503 C 358.333 58.616,360.384 58.670,364.417 58.663 L 370.500 58.652 370.500 57.576 C 370.500 56.922,370.430 56.500,370.321 56.500 C 370.091 56.500,369.667 56.076,369.667 55.845 C 369.667 55.747,369.594 55.667,369.506 55.667 C 369.288 55.667,368.333 54.721,368.333 54.506 C 368.333 54.411,368.237 54.333,368.119 54.333 C 368.002 54.333,367.782 54.127,367.632 53.875 C 367.482 53.623,367.091 53.117,366.763 52.750 C 366.435 52.383,366.167 52.027,366.167 51.958 C 366.167 51.890,366.054 51.833,365.917 51.833 C 365.779 51.833,365.667 51.721,365.667 51.583 C 365.667 51.446,365.554 51.333,365.417 51.333 C 365.279 51.333,365.167 51.253,365.167 51.155 C 365.167 50.924,364.743 50.500,364.512 50.500 C 364.414 50.500,364.333 50.419,364.333 50.321 C 364.333 50.087,363.413 49.167,363.179 49.167 C 363.081 49.167,363.000 49.086,363.000 48.988 C 363.000 48.757,362.576 48.333,362.345 48.333 C 362.247 48.333,362.167 48.221,362.167 48.083 C 362.167 47.946,362.054 47.833,361.917 47.833 C 361.779 47.833,361.667 47.739,361.667 47.623 C 361.667 47.508,361.479 47.211,361.250 46.964 C 361.021 46.717,360.833 46.473,360.833 46.422 C 360.833 46.371,360.458 45.956,360.000 45.500 C 359.542 45.044,359.167 44.595,359.167 44.502 C 359.167 44.409,359.097 44.333,359.013 44.333 C 358.813 44.333,357.833 43.354,357.833 43.154 C 357.833 43.069,357.753 43.000,357.655 43.000 C 357.424 43.000,357.000 42.576,357.000 42.345 C 357.000 42.247,356.887 42.167,356.750 42.167 C 356.613 42.167,356.500 42.054,356.500 41.917 C 356.500 41.779,356.387 41.667,356.250 41.667 C 356.094 41.667,356.000 41.509,356.000 41.250 C 356.000 40.991,356.094 40.833,356.250 40.833 C 356.387 40.833,356.500 40.729,356.500 40.601 C 356.500 40.473,356.613 40.326,356.750 40.273 C 356.887 40.220,357.000 40.072,357.000 39.945 C 357.000 39.817,357.356 39.342,357.792 38.889 C 358.567 38.083,358.887 37.667,359.117 37.167 C 359.278 36.815,359.611 36.500,359.821 36.500 C 359.920 36.500,360.000 36.422,360.000 36.326 C 360.000 36.231,360.153 35.989,360.340 35.788 C 360.527 35.587,360.722 35.253,360.775 35.045 C 360.827 34.837,360.942 34.667,361.030 34.667 C 361.246 34.667,361.667 34.234,361.667 34.012 C 361.667 33.914,361.779 33.833,361.917 33.833 C 362.054 33.833,362.167 33.721,362.167 33.583 C 362.167 33.446,362.237 33.333,362.322 33.333 C 362.408 33.333,362.526 33.182,362.584 32.997 C 362.643 32.812,363.060 32.276,363.512 31.804 C 363.964 31.333,364.333 30.810,364.333 30.641 C 364.333 30.472,364.446 30.333,364.583 30.333 C 364.721 30.333,364.833 30.253,364.833 30.155 C 364.833 29.943,365.250 29.500,365.449 29.500 C 365.586 29.500,365.883 29.023,366.096 28.458 C 366.156 28.298,366.272 28.167,366.353 28.167 C 366.434 28.167,366.500 28.012,366.500 27.823 C 366.500 27.628,366.575 27.526,366.674 27.588 C 366.895 27.724,367.827 26.680,367.831 26.292 C 367.832 26.131,367.946 26.000,368.083 26.000 C 368.221 26.000,368.333 25.915,368.333 25.811 C 368.333 25.707,368.521 25.448,368.750 25.235 C 369.246 24.775,369.373 23.333,368.917 23.333 C 368.779 23.333,368.667 23.258,368.667 23.167 C 368.667 23.059,366.694 23.000,363.083 23.000 C 359.472 23.000,357.500 23.059,357.500 23.167 C 357.500 23.258,357.387 23.333,357.250 23.333 C 357.113 23.333,357.000 23.446,357.000 23.583 C 357.000 23.721,356.919 23.833,356.821 23.833 C 356.542 23.833,355.667 24.776,355.667 25.076 C 355.667 25.223,355.554 25.387,355.417 25.440 C 355.279 25.492,355.167 25.640,355.167 25.768 C 355.167 25.896,355.092 26.000,355.000 26.000 C 354.908 26.000,354.833 26.113,354.833 26.250 C 354.833 26.387,354.721 26.500,354.583 26.500 C 354.446 26.500,354.333 26.595,354.333 26.710 C 354.333 26.826,354.146 27.122,353.917 27.369 C 353.688 27.617,353.500 27.897,353.500 27.993 C 353.500 28.088,353.406 28.167,353.291 28.167 C 353.085 28.167,352.557 29.131,352.629 29.375 C 352.650 29.444,352.554 29.500,352.417 29.500 C 352.279 29.500,352.167 29.613,352.167 29.750 C 352.167 29.887,352.054 30.000,351.917 30.000 C 351.779 30.000,351.667 30.113,351.667 30.250 C 351.667 30.387,351.592 30.500,351.500 30.500 C 351.408 30.500,351.333 30.685,351.333 30.911 C 351.333 31.209,351.264 31.296,351.083 31.227 C 350.946 31.174,350.833 31.218,350.833 31.323 C 350.833 31.429,350.646 31.690,350.417 31.902 C 350.188 32.114,350.000 32.448,350.000 32.644 C 350.000 32.849,349.894 33.000,349.750 33.000 C 349.613 33.000,349.500 33.083,349.500 33.184 C 349.500 33.286,349.313 33.516,349.083 33.696 C 348.854 33.877,348.667 34.169,348.667 34.345 C 348.667 34.522,348.554 34.667,348.417 34.667 C 348.200 34.667,348.167 33.954,348.167 29.250 C 348.167 26.271,348.104 23.833,348.027 23.833 C 347.950 23.833,347.801 23.646,347.697 23.417 L 347.507 23.000 342.879 23.010 C 338.675 23.019,338.223 23.047,337.958 23.316 M373.167 23.417 C 373.167 23.676,373.072 23.833,372.917 23.833 C 372.696 23.833,372.667 25.833,372.667 40.833 C 372.667 55.833,372.696 57.833,372.917 57.833 C 373.072 57.833,373.167 57.991,373.167 58.250 L 373.167 58.667 386.482 58.667 C 398.470 58.667,399.808 58.640,399.899 58.403 C 399.954 58.258,400.000 56.123,400.000 53.659 L 400.000 49.178 391.958 49.171 C 385.027 49.165,383.891 49.130,383.732 48.915 C 383.630 48.779,383.461 48.667,383.357 48.667 C 383.230 48.667,383.167 48.220,383.167 47.333 C 383.167 46.259,383.215 46.000,383.417 46.000 C 383.554 46.000,383.667 45.925,383.667 45.833 C 383.667 45.725,386.167 45.667,390.833 45.667 C 397.093 45.667,398.000 45.635,398.000 45.417 C 398.000 45.279,398.113 45.167,398.250 45.167 C 398.466 45.167,398.500 44.574,398.500 40.833 C 398.500 37.093,398.466 36.500,398.250 36.500 C 398.113 36.500,398.000 36.387,398.000 36.250 C 398.000 36.032,397.093 36.000,390.833 36.000 C 386.167 36.000,383.667 35.942,383.667 35.833 C 383.667 35.742,383.554 35.667,383.417 35.667 C 383.217 35.667,383.167 35.417,383.167 34.417 C 383.167 32.342,382.427 32.506,391.815 32.497 C 398.865 32.490,399.814 32.458,399.901 32.231 C 400.032 31.891,400.030 23.604,399.899 23.264 C 399.808 23.026,398.470 23.000,386.482 23.000 L 373.167 23.000 373.167 23.417 M165.625 48.958 C 165.600 53.427,165.580 49.771,165.580 40.833 C 165.580 31.896,165.600 28.240,165.625 32.708 C 165.650 37.177,165.650 44.490,165.625 48.958 M112.167 32.750 C 112.167 32.942,112.380 33.000,113.083 33.000 C 113.587 33.000,114.000 33.075,114.000 33.167 C 114.000 33.258,114.227 33.333,114.505 33.333 C 114.801 33.333,115.050 33.437,115.106 33.583 C 115.159 33.721,115.307 33.833,115.434 33.833 C 115.562 33.833,115.667 33.946,115.667 34.083 C 115.667 34.221,115.748 34.333,115.846 34.333 C 116.136 34.333,117.333 35.707,117.333 36.040 C 117.333 36.207,117.446 36.387,117.583 36.440 C 117.721 36.492,117.833 36.715,117.833 36.934 C 117.833 37.178,117.931 37.333,118.083 37.333 C 118.280 37.333,118.333 37.565,118.333 38.417 C 118.333 39.012,118.403 39.500,118.488 39.500 C 118.573 39.500,118.666 40.128,118.696 40.896 C 118.737 41.961,118.701 42.273,118.542 42.211 C 118.388 42.152,118.333 42.419,118.333 43.232 C 118.333 44.100,118.280 44.333,118.083 44.333 C 117.917 44.333,117.833 44.500,117.833 44.833 C 117.833 45.108,117.760 45.333,117.670 45.333 C 117.580 45.333,117.459 45.521,117.402 45.750 C 117.344 45.979,117.230 46.167,117.149 46.167 C 117.067 46.167,117.000 46.271,117.000 46.399 C 117.000 46.527,116.888 46.674,116.750 46.727 C 116.612 46.780,116.500 46.920,116.500 47.039 C 116.500 47.243,116.103 47.519,115.458 47.762 C 115.298 47.823,115.167 47.976,115.167 48.103 C 115.167 48.238,114.994 48.333,114.750 48.333 C 114.521 48.333,114.333 48.408,114.333 48.500 C 114.333 48.592,113.993 48.667,113.578 48.667 C 113.061 48.667,112.793 48.745,112.727 48.917 C 112.472 49.581,106.833 49.194,106.833 48.512 C 106.833 48.414,106.758 48.333,106.667 48.333 C 106.558 48.333,106.500 45.748,106.500 40.910 L 106.500 33.487 106.958 33.010 L 107.417 32.533 109.792 32.516 C 111.799 32.503,112.167 32.539,112.167 32.750 M315.833 39.493 C 315.833 39.686,315.946 39.887,316.083 39.940 C 316.221 39.992,316.333 40.215,316.333 40.434 C 316.333 40.654,316.408 40.833,316.500 40.833 C 316.592 40.833,316.668 41.040,316.669 41.292 C 316.672 41.833,316.899 42.249,317.118 42.113 C 317.206 42.059,317.242 42.231,317.201 42.509 C 317.147 42.879,317.195 43.000,317.398 43.000 C 317.586 43.000,317.667 43.151,317.667 43.502 C 317.667 43.779,317.760 44.156,317.875 44.341 C 318.203 44.870,317.799 44.995,315.750 44.995 C 313.408 44.996,313.167 44.932,313.167 44.314 C 313.167 43.998,313.252 43.833,313.417 43.833 C 313.574 43.833,313.667 43.675,313.667 43.405 C 313.667 43.169,313.779 42.864,313.917 42.726 C 314.054 42.589,314.167 42.294,314.167 42.071 C 314.167 41.849,314.242 41.667,314.333 41.667 C 314.425 41.667,314.500 41.487,314.500 41.268 C 314.500 41.048,314.612 40.826,314.750 40.773 C 314.907 40.713,315.000 40.458,315.000 40.089 C 315.000 39.765,315.075 39.500,315.167 39.500 C 315.258 39.500,315.333 39.307,315.333 39.071 C 315.333 38.690,315.361 38.671,315.583 38.893 C 315.721 39.030,315.833 39.301,315.833 39.493 M231.000 39.408 C 231.000 39.633,231.102 39.877,231.226 39.950 C 231.350 40.023,231.495 40.271,231.549 40.500 C 231.731 41.281,232.081 42.167,232.207 42.167 C 232.277 42.167,232.333 42.354,232.333 42.583 C 232.333 42.843,232.428 43.000,232.583 43.000 C 232.764 43.000,232.833 43.185,232.833 43.667 C 232.833 44.033,232.908 44.333,233.000 44.333 C 233.269 44.333,233.191 44.788,232.903 44.899 C 232.563 45.030,229.199 45.026,228.708 44.895 C 228.262 44.775,228.151 43.833,228.583 43.833 C 228.749 43.833,228.833 43.668,228.833 43.345 C 228.833 43.077,228.946 42.745,229.083 42.607 C 229.221 42.470,229.333 42.202,229.333 42.012 C 229.333 41.822,229.408 41.667,229.500 41.667 C 229.592 41.667,229.667 41.488,229.667 41.270 C 229.667 41.052,229.779 40.781,229.917 40.667 C 230.054 40.553,230.167 40.281,230.167 40.063 C 230.167 39.689,230.602 39.044,230.875 39.014 C 230.944 39.006,231.000 39.184,231.000 39.408 " stroke="none" fill="#2c2424" fill-rule="evenodd"></path><path id="path3" d="" stroke="none" fill="#38b8b0" fill-rule="evenodd"></path><path id="path4" d="M269.080 40.833 C 269.080 49.771,269.100 53.427,269.125 48.958 C 269.150 44.490,269.150 37.177,269.125 32.708 C 269.100 28.240,269.080 31.896,269.080 40.833 " stroke="none" fill="#382454" fill-rule="evenodd"></path></g></svg>