<svg id="svg" xmlns="http://www.w3.org/2000/svg" viewBox="0 0 385.27 59.74"><defs><style>.cls-1{fill:#ebac53;}.cls-1,.cls-2,.cls-3,.cls-4,.cls-5{fill-rule:evenodd;}.cls-2{fill:#335c9c;}.cls-3{fill:#205094;}.cls-4{fill:#6b8bb8;}.cls-5{fill:#567caf;}</style></defs><g id="svgg"><path id="path0" class="cls-1" d="M35.33,171.52c-2.66,6.1-3.26,5.42,4.86,5.42H47l1.32-3.18,1.42-3.45a42.19,42.19,0,0,0-6.83-.27H36l-.65,1.48m-7.24.77c-18.53,9.24-27.8,31.62-16.3,39.38,3.43,2.32,4.52,2.54,12.55,2.54,9.75,0,16.18-1.54,25.3-6,6.79-3.36,8.42-4.81,3-2.64-9.81,3.9-21.16,5.54-28.35,4.09-16.87-3.4-15.36-21.5,3-35.34,1.5-1.14,2.81-2.16,2.9-2.28a3.93,3.93,0,0,1,.82-.58c1.66-.94-.55-.26-2.82.87m3.32,8.84c-.81,2.1-4.57,11.35-7.76,19.06l-2.08,5H35l.78-1.56c.43-.86,1.78-4,3-7s3.31-8,4.65-11.21,2.43-5.88,2.43-6a58,58,0,0,0-6.86-.21H32.13l-.72,1.89" transform="translate(-6.73 -159.26)"/><path id="path1" class="cls-2" d="M40.48,159.43a4,4,0,0,1-1.24.27,27.89,27.89,0,0,0-4.39.8c-.54.16-1.65.46-2.46.67s-1.93.52-2.47.7l-1.31.42a33.3,33.3,0,0,0-5.1,2.15c-3.43,1.6-7.77,4.43-8.22,5.36-.3.62-.29.66.07.24a2,2,0,0,1,.93-.59,25,25,0,0,0,2.62-1.11,55.79,55.79,0,0,1,15-4.69,54.09,54.09,0,0,1,7-.72,16,16,0,0,0,2.51.36c14.21,1.37,20.78,11.54,15,23.21-2.1,4.22-4.37,7.1-9.06,11.46-1.4,1.3-1.65,2.36-.29,1.27s8.4-8.19,9.53-9.64c12.88-16.45,6.57-30.49-13.63-30.33a40.3,40.3,0,0,0-4.43.17m33.31,15.68c0,.43-.11.84-.25.9a11.55,11.55,0,0,0-1.18,2.58c-.51,1.35-1.23,3.2-1.61,4.1s-.93,2.31-1.24,3.12c-2.56,6.69-4.65,12.11-4.89,12.66-1,2.22-1.6,4.09-1.31,3.92s.24,0,0,.4a50.52,50.52,0,0,0-2.69,6.4,49.66,49.66,0,0,0,7.49.28h7.49l1.11-3a35,35,0,0,1,1.35-3.37,28.37,28.37,0,0,0,1.1-2.8c.48-1.35,1-2.87,1.27-3.37l.39-.9h7c7,0,7.3.05,6.63,1.15-.11.18-.6,1.37-1.08,2.63-2.09,5.43-3,7.61-3.37,8.38a4.13,4.13,0,0,0-.42,1.07,59.1,59.1,0,0,0,7.47.24h7.48l.69-1.72c.39-.95,1.91-4.76,3.39-8.46s2.82-7,3-7.4.61-1.47,1-2.46.8-2.1,1-2.47a15.79,15.79,0,0,0,.82-2.19,1,1,0,0,1,.27-.46,1.76,1.76,0,0,0,.25-1c0-.43.17-.77.38-.77s.31-.08.21-.18a18.17,18.17,0,0,1,1.25-3.83c.8-2,1.44-3.77,1.44-3.93a51.57,51.57,0,0,0-7.51-.28h-7.52l-.66,1.56c-.37.86-1.46,3.74-2.43,6.41l-1.76,4.84h-7c-5.49,0-7-.08-6.85-.4l1.32-3.37c.64-1.63,1.69-4.19,2.33-5.7a25.89,25.89,0,0,0,1.18-3c0-.17-3.3-.3-7.73-.3H73.79v.8m90.13-.06c-.69,1.45-1.36,3.09-2.71,6.66-.76,2-1.6,4.1-1.87,4.69a28.26,28.26,0,0,0-1.43,4.51,5.93,5.93,0,0,1-.53,1.23c-1,2-6.44,15.53-6.48,16.24,0,.38-.16.63-.29.55s-.25,0-.25.2,2.41.34,7.39.34c6.9,0,7.4,0,7.4-.59a1.6,1.6,0,0,1,.28-.9,8.94,8.94,0,0,0,.86-2c.32-.9.77-2.08,1-2.63a24.06,24.06,0,0,0,1.3-3.5c.11-.55,2.8-7.44,3.64-9.31.24-.54,1.41-3.5,2.6-6.57s2.4-6.18,2.68-6.9.65-1.59.83-1.93.21-.54,0-.39-.36.06-.36-.13c0-.82-13.64-.44-14,.39m64-.64s-.73,2-1.63,4.31a23,23,0,0,0-1.46,4.51c.09.16.05.28-.1.28-.3,0-1.41,2.41-1.41,3.07a1.06,1.06,0,0,1-.2.64,16.4,16.4,0,0,0-1,2.53c-.43,1.27-1.06,2.94-1.4,3.71-1.17,2.61-3,7-3,7.28a13.64,13.64,0,0,1-.82,2,13.64,13.64,0,0,0-.82,2.07,13.77,13.77,0,0,1-.83,2.15c-1.17,2.67-1.93,2.52,12.61,2.46,18.92-.07,23.13-.82,29.39-5.2,2.91-2,7.47-7.62,7.47-9.15a3,3,0,0,1,.45-1.17c5.08-8,1.18-18.44-7-18.74-.9,0-1.65-.19-1.65-.34s-.74-.22-1.64-.14-1.65,0-1.65-.12-5.69-.28-12.65-.28-12.65,0-12.65.1m127.38,4.75c-1.05,2.66-2.27,5.73-2.73,6.82s-.88,2.19-.94,2.46a48.4,48.4,0,0,1-2.14,5.75c-.49,1.09-1.26,3-1.72,4.28-.79,2.14-2.19,5.72-2.84,7.23a37.59,37.59,0,0,0-1.34,3.62c0,.23,14,.19,14.6,0a.78.78,0,0,0,.52-.64,5.94,5.94,0,0,1,.46-1.53c.26-.59.95-2.41,1.54-4s1.36-3.61,1.71-4.41l.64-1.45.54,1.51c.29.83,1.34,3.59,2.32,6.13l1.78,4.62H386l-.24-.74a11.43,11.43,0,0,0-1-2,80.43,80.43,0,0,1-4.07-7.35l-1.88-3.66,1.53-1.29c.84-.71,2.58-2,3.86-2.91a63,63,0,0,0,5.33-4,18.83,18.83,0,0,1,1.62-1.27c1.87-1.28,1.15-1.42-7.26-1.42-7.17,0-8.07.06-8.67.58-.37.32-2,1.77-3.58,3.23s-3.57,3.23-4.37,3.94l-2.42,2.2c-.54.5-1,.86-1.09.8s4.35-11.53,5.16-13.13a2.67,2.67,0,0,0,.3-.86,7.89,7.89,0,0,1,.54-1.57c.93-2.14,2-5.37,1.81-5.55s-3.36-.16-7.27-.16h-7.11l-1.9,4.85m-107.36,4.12c6.32,2.59,2.75,13.38-5.56,16.79-2.5,1-2.69,1.06-6.32,1.15l-3.52.1.61-1.59c1-2.66,6.07-15.21,6.6-16.46.46-1.08,5.55-1.08,8.19,0m-116.3.93-2,.45a7.2,7.2,0,0,1-1.09.14c-.33,0-.53.14-.45.27s-.24.27-.71.29c-3.86.15-10.43,5.6-12.7,10.51-3.71,8-.72,13.1,8.42,14.25,2.89.36,8.59.46,8.9.16a10.17,10.17,0,0,1,2.43-.31,26.67,26.67,0,0,0,11-3.32c1-.53,3.37-3.23,3.37-3.78,0-.2-2.6-.35-6.93-.39l-6.93-.07-1,.89a4.65,4.65,0,0,1-3.38,1.29c-.26-.06-.35.07-.2.29s.06.3-.44,0-.71-.26-.83.05-.17.3-.2,0-.17-.34-.35-.23c-1.2.74-2.23-2-1.56-4.11l.41-1.31h23.39l.39-.85c3-6.7.14-12.5-7.09-14.13a74.53,74.53,0,0,0-12.58-.1m68.84.27a19.32,19.32,0,0,0-6,2.9c-1.24.94-1.23.94-.58-.91.27-.77.49-1.45.49-1.53s-3.2-.08-7.11,0l-7.11.09-1.55,4.11c-1.58,4.17-6.58,16.72-7.43,18.62a5.4,5.4,0,0,0-.46,1.5,1.21,1.21,0,0,1-.24.72,1,1,0,0,0-.28.47,3.5,3.5,0,0,1-.22.71c-.1.27-.41,1.16-.67,2s-.85,2.29-1.3,3.28c-1.23,2.76-1.5,2.66,6.63,2.62l7.14,0,.85-2.36c2.66-7.34,4.1-10,4.63-8.64.41,1.07,3.84,2.3,6.82,2.44,11.34.54,21.13-8.44,21.11-19.36,0-5.84-6.86-8.89-14.73-6.56m85.4-.37c.08.12-.55.25-1.39.27-6.73.2-17.51,7.88-17.47,12.44a5,5,0,0,1-.51,1.32c-1.91,3.64,0,9,3.79,10.6,3,1.25,12.5,2.3,14.36,1.58a12.46,12.46,0,0,1,2.58-.32c5.77-.26,13.51-4,14.68-7.1.31-.83-13.77-.72-14.68.11-1.16,1.07-2.6,2-2.3,1.52s.19-.4-.19-.11a2.67,2.67,0,0,1-1.54.3c-.59,0-1.07.09-1.07.29s-.13.16-.29-.08a.93.93,0,0,0-.56-.45c-1.29-.07-1.81-1.5-1.29-3.55l.37-1.48,11.65-.09,11.65-.1.59-1.17c3.14-6.3.06-12-7.44-13.75-2-.46-11.2-.66-10.94-.23m38.46,0c.11.17-.1.23-.46.14a2.14,2.14,0,0,0-1.23.08,3.21,3.21,0,0,1-1.29.18c-5.93-.57-14.53,7.83-12.27,12,.89,1.64,8,3.85,9.52,2.94.18-.12.34,0,.34.17s.36.33,1,.25.91-.07.81,0a8.94,8.94,0,0,0,2.72.76c3.16.64,4.36,1.07,4.36,1.56,0,1.26-2.28,2.48-4.44,2.39-.54,0-.81.06-.6.19s-.33.24-1.2.24-1.5-.14-1.4-.3,0-.2-.17-.08c-.73.45-2.05-.5-2.05-1.48v-.93H304.82l-.2.9c-.11.5-.25,1.08-.31,1.29-.51,1.68,1.12,3.65,3.86,4.66s16.32,2,17.13,1.13a3.2,3.2,0,0,1,1.51-.15c9.1.66,18.88-7.66,14.69-12.5-1.16-1.34-5.34-2.91-7.38-2.76-.56,0-.95,0-.87-.16s-.44-.2-1.15-.17-1.21-.06-1.12-.21-.54-.25-1.41-.21a5.87,5.87,0,0,1-2.33-.32,3.53,3.53,0,0,0-1.68-.32c-3.07.24-3.18-2.21-.15-3.34s5.51-.45,5.74,1.48l.11.87,6.72,0c7.61,0,7.33.06,7.16-2.66-.2-3.32-4.57-6.2-8.31-5.49-.43.09-.71,0-.63-.1a33.47,33.47,0,0,0-5.95-.29c-3.72,0-6,.08-5.92.27M136,189.64c.32,0,.58-.1.58-.27s.38,0,.86.36,1,.58,1.2.46.24-.05.1.17-.11.38,0,.38.3,2.54,0,2.84a.71.71,0,0,0,0,.65c.15.38-.64.46-4.66.46-4.51,0-4.81,0-4.39-.56s.38-.52,0-.27-.33.09.08-.37a2.24,2.24,0,0,0,.57-1.05c0-.21.11-.35.25-.31.43.14,2-1.47,1.83-1.82-.11-.18,0-.23.15-.11a.73.73,0,0,0,.79-.22,1,1,0,0,1,.82-.31.56.56,0,0,0,.61-.26c.13-.21.33-.25.44-.1a1.23,1.23,0,0,0,.78.33m152.85-.2c1.12-.42,2.95,1.27,2.92,2.71-.05,2.48.19,2.36-5,2.46l-4.69.1.87-1.49c.48-.82.78-1.49.66-1.49s0-.22.18-.48.49-.47.61-.46c.65.09,1.05-.09.88-.37s0-.24.3-.13a.53.53,0,0,0,.7-.3.64.64,0,0,1,.82-.32c.4.1.65,0,.66-.29s.08-.32.19,0,.4.3.9.11m-91.15,1.3c0,.18.27.33.61.33,1.34,0,2.06,1.65,1.56,3.62-.11.45-.27,1.18-.35,1.61a2.59,2.59,0,0,1-.5,1.13,1.33,1.33,0,0,0-.33.79,1.58,1.58,0,0,1-.33.84c-1.57,1.92-1.93,2.46-1.75,2.65s0,.21-.28.21a1.93,1.93,0,0,0-1.1.65c-.33.37-.67.59-.76.5s-.32,0-.52.14c-.92.76-3.82.54-4-.3-.09-.36-.28-.59-.4-.51s-.13-.63,0-1.57a7.67,7.67,0,0,0,.05-2.17c-.1-.26,0-.38.13-.28s.32-.16.34-.6c.17-2.83,7.68-9.71,7.68-7" transform="translate(-6.73 -159.26)"/><path id="path2" class="cls-3" d="M118,190.83l-1,1.06,1.07-1a7.77,7.77,0,0,0,1.07-1.07c0-.25-.27,0-1.17,1m217,1.8c1.85.06,4.88.06,6.73,0s.34-.1-3.36-.1-5.23,0-3.37.1m-14.13,12.15a3.64,3.64,0,0,0,1.32,0c.31-.08,0-.14-.75-.14s-1,.07-.57.15" transform="translate(-6.73 -159.26)"/><path id="path3" class="cls-4" d="M282.46,194.28c0,.3,1.07.41,4.25.41,5.76,0,5.92-.6.2-.73-3.4-.07-4.45,0-4.45.32m-153,.08c-.13.21,1.36.33,4.23.33,2.61,0,4.53-.14,4.64-.33S137,194,134.13,194c-2.6,0-4.52.14-4.64.33" transform="translate(-6.73 -159.26)"/><path id="path4" class="cls-5" d="M196.54,190.72c-.1.17.11.29.48.26s.66-.16.66-.31c0-.36-.91-.32-1.14.05M84,196.25c1.94.05,5.19.05,7.23,0s.46-.11-3.51-.11-5.65.05-3.72.11m54.41,6.24c1.85.06,4.88.06,6.73,0s.34-.11-3.37-.11-5.22.05-3.36.11m151.9,0c6.09.24,11.75.25,11.61,0a55.91,55.91,0,0,0-7.11-.18c-3.83,0-5.86.11-4.5.16" transform="translate(-6.73 -159.26)"/></g></svg>