<?xml version="1.0" encoding="UTF-8"?>
<svg xmlns="http://www.w3.org/2000/svg" xmlns:xlink="http://www.w3.org/1999/xlink" width="365pt" height="207.81pt" viewBox="0 0 365 207.81" version="1.1">
<defs>
<clipPath id="clip1">
  <path d="M 105 160 L 153 160 L 153 207.808594 L 105 207.808594 Z M 105 160 "/>
</clipPath>
</defs>
<g id="surface1">
<path style=" stroke:none;fill-rule:nonzero;fill:rgb(79.598999%,12.5%,14.898682%);fill-opacity:1;" d="M 235.054688 176.191406 L 227.9375 176.191406 L 227.9375 184.0625 L 235.054688 184.0625 C 237.496094 184.0625 239.203125 182.804688 239.203125 180.144531 C 239.203125 177.589844 237.53125 176.191406 235.054688 176.191406 Z M 237.53125 187.214844 L 242.519531 197.21875 L 238.300781 197.21875 L 233.449219 187.527344 L 227.9375 187.527344 L 227.9375 197.21875 L 224.34375 197.21875 L 224.34375 172.726563 L 235.054688 172.726563 C 239.3125 172.726563 242.902344 175.003906 242.902344 180.042969 C 242.902344 183.957031 240.847656 186.375 237.53125 187.214844 "/>
<path style=" stroke:none;fill-rule:nonzero;fill:rgb(79.598999%,12.5%,14.898682%);fill-opacity:1;" d="M 254.933594 181.71875 C 252.527344 181.71875 251.0625 183.398438 250.746094 186.339844 L 259.257813 186.339844 C 259.085938 183.820313 257.898438 181.71875 254.933594 181.71875 Z M 262.785156 189.3125 L 250.679688 189.3125 C 251.0625 192.847656 253.050781 194.351563 255.285156 194.351563 C 256.820313 194.351563 258.039063 193.792969 259.261719 192.882813 L 261.390625 195.191406 C 259.785156 196.730469 257.867188 197.605469 255.074219 197.605469 C 250.785156 197.605469 247.15625 194.140625 247.15625 188.054688 C 247.15625 181.824219 250.4375 178.464844 255.179688 178.464844 C 260.378906 178.464844 262.890625 182.699219 262.890625 187.667969 C 262.890625 188.332031 262.820313 188.929688 262.785156 189.3125 "/>
<path style=" stroke:none;fill-rule:nonzero;fill:rgb(79.598999%,12.5%,14.898682%);fill-opacity:1;" d="M 278.410156 184.203125 C 277.609375 183.121094 275.933594 181.789063 274.121094 181.789063 C 271.539063 181.789063 270.144531 183.75 270.144531 187.632813 C 270.144531 192.25 271.609375 194.277344 274.261719 194.277344 C 275.96875 194.277344 277.46875 193.125 278.410156 191.9375 Z M 278.375 197.21875 L 278.375 195.472656 C 277.050781 196.695313 275.515625 197.605469 273.597656 197.605469 C 269.652344 197.605469 266.550781 194.738281 266.550781 187.738281 C 266.550781 181.441406 269.96875 178.464844 273.769531 178.464844 C 275.621094 178.464844 277.363281 179.445313 278.378906 180.566406 L 278.378906 173.566406 L 281.9375 171.714844 L 281.9375 197.21875 L 278.375 197.21875 "/>
<path style=" stroke:none;fill-rule:nonzero;fill:rgb(79.598999%,12.5%,14.898682%);fill-opacity:1;" d="M 312.070313 197.21875 L 312.070313 186.234375 L 300.835938 186.234375 L 300.835938 197.21875 L 297.175781 197.21875 L 297.175781 172.726563 L 300.835938 172.726563 L 300.835938 182.628906 L 312.070313 182.628906 L 312.070313 172.726563 L 315.734375 172.726563 L 315.734375 197.21875 L 312.070313 197.21875 "/>
<path style=" stroke:none;fill-rule:nonzero;fill:rgb(79.598999%,12.5%,14.898682%);fill-opacity:1;" d="M 332.054688 189.382813 C 331.078125 188.894531 329.820313 188.578125 327.867188 188.578125 C 325.566406 188.578125 324.101563 189.625 324.101563 191.308594 C 324.101563 193.125 325.25 194.351563 327.621094 194.351563 C 329.542969 194.351563 331.214844 193.160156 332.054688 192.007813 Z M 332.054688 197.21875 L 332.054688 195.402344 C 330.800781 196.660156 329.019531 197.605469 327.03125 197.605469 C 324.066406 197.605469 320.683594 195.925781 320.683594 191.410156 C 320.683594 187.320313 323.820313 185.464844 327.972656 185.464844 C 329.683594 185.464844 331.042969 185.707031 332.054688 186.164063 L 332.054688 184.796875 C 332.054688 182.804688 330.832031 181.683594 328.601563 181.683594 C 326.71875 181.683594 325.25 182.035156 323.820313 182.839844 L 322.425781 180.113281 C 324.171875 179.027344 326.125 178.464844 328.707031 178.464844 C 332.789063 178.464844 335.582031 180.460938 335.582031 184.625 L 335.582031 197.21875 L 332.054688 197.21875 "/>
<path style=" stroke:none;fill-rule:nonzero;fill:rgb(79.598999%,12.5%,14.898682%);fill-opacity:1;" d="M 349.496094 196.765625 C 348.621094 197.253906 347.402344 197.601563 345.972656 197.601563 C 343.425781 197.601563 341.855469 196.03125 341.855469 192.738281 L 341.855469 182.140625 L 339.238281 182.140625 L 339.238281 178.851563 L 341.855469 178.851563 L 341.855469 173.601563 L 345.378906 171.714844 L 345.378906 178.851563 L 349.914063 178.851563 L 349.914063 182.140625 L 345.378906 182.140625 L 345.378906 192.113281 C 345.378906 193.824219 345.933594 194.316406 347.261719 194.316406 C 348.203125 194.316406 349.25 193.96875 349.910156 193.582031 L 349.496094 196.765625 "/>
<path style=" stroke:none;fill-rule:nonzero;fill:rgb(79.598999%,12.5%,14.898682%);fill-opacity:1;" d="M 162.566406 112.898438 L 146.472656 112.898438 L 146.472656 95.117188 L 162.566406 95.117188 C 168.621094 95.117188 173.378906 97.402344 173.378906 104.214844 C 173.378906 110.617188 168.945313 112.898438 162.566406 112.898438 Z M 146.472656 67.269531 L 162.023438 67.269531 C 166.246094 67.269531 170.238281 69.125 170.238281 74.753906 C 170.238281 80.277344 165.488281 82.121094 162.023438 82.121094 L 146.472656 82.121094 Z M 180.179688 86.667969 C 186.226563 83.632813 190.339844 78.003906 190.339844 71.074219 C 190.339844 54.921875 175.753906 51.445313 162.457031 51.675781 L 106.476563 51.675781 L 106.476563 103.246094 C 106.476563 110.734375 103.875 113.328125 99.238281 113.328125 C 94.257813 113.328125 91.457031 110.519531 91.457031 105.414063 L 91.457031 98.273438 L 72.539063 98.273438 L 72.539063 101.617188 C 72.539063 118.863281 79.132813 130.660156 99.554688 130.660156 C 116.214844 130.660156 125.023438 123.261719 126.371094 108.652344 L 126.371094 129.039063 L 163.425781 129.039063 C 179.957031 129.039063 193.464844 123.410156 193.464844 104.988281 C 193.464844 96.214844 188.398438 89.0625 180.179688 86.667969 "/>
<g clip-path="url(#clip1)" clip-rule="nonzero">
<path style=" stroke:none;fill-rule:nonzero;fill:rgb(79.598999%,12.5%,14.898682%);fill-opacity:1;" d="M 152.535156 184.117188 C 152.535156 171.050781 141.960938 160.429688 128.921875 160.429688 C 115.855469 160.429688 105.285156 171.050781 105.285156 184.117188 C 105.285156 197.214844 115.855469 207.808594 128.921875 207.808594 C 141.960938 207.808594 152.535156 197.214844 152.535156 184.117188 "/>
</g>
<path style=" stroke:none;fill-rule:nonzero;fill:rgb(79.598999%,12.5%,14.898682%);fill-opacity:1;" d="M 89.78125 176.644531 C 89.78125 165.066406 80.410156 155.671875 68.851563 155.671875 C 57.296875 155.671875 47.933594 165.0625 47.933594 176.644531 C 47.933594 188.234375 57.296875 197.632813 68.851563 197.632813 C 80.410156 197.632813 89.78125 188.234375 89.78125 176.644531 "/>
<path style=" stroke:none;fill-rule:nonzero;fill:rgb(79.598999%,12.5%,14.898682%);fill-opacity:1;" d="M 42.503906 138.734375 C 42.503906 128.277344 34.0625 119.796875 23.621094 119.796875 C 13.175781 119.796875 4.71875 128.277344 4.71875 138.734375 C 4.71875 149.222656 13.175781 157.703125 23.621094 157.703125 C 34.0625 157.703125 42.503906 149.222656 42.503906 138.734375 "/>
<path style=" stroke:none;fill-rule:nonzero;fill:rgb(79.598999%,12.5%,14.898682%);fill-opacity:1;" d="M 33.734375 85.972656 C 33.734375 76.617188 26.1875 69.058594 16.875 69.058594 C 7.558594 69.058594 0 76.617188 0 85.972656 C 0 95.3125 7.558594 102.894531 16.875 102.894531 C 26.1875 102.894531 33.734375 95.3125 33.734375 85.972656 "/>
<path style=" stroke:none;fill-rule:nonzero;fill:rgb(79.598999%,12.5%,14.898682%);fill-opacity:1;" d="M 57.378906 38.589844 C 57.378906 30.742188 51.019531 24.378906 43.199219 24.378906 C 35.378906 24.378906 29.027344 30.742188 29.027344 38.589844 C 29.027344 46.441406 35.378906 52.800781 43.199219 52.800781 C 51.019531 52.800781 57.378906 46.441406 57.378906 38.589844 "/>
<path style=" stroke:none;fill-rule:nonzero;fill:rgb(79.598999%,12.5%,14.898682%);fill-opacity:1;" d="M 97.855469 17.601563 C 97.855469 10.503906 92.121094 4.742188 85.042969 4.742188 C 77.964844 4.742188 72.21875 10.503906 72.21875 17.601563 C 72.21875 24.714844 77.964844 30.476563 85.042969 30.476563 C 92.125 30.476563 97.855469 24.714844 97.855469 17.601563 "/>
<path style=" stroke:none;fill-rule:nonzero;fill:rgb(79.598999%,12.5%,14.898682%);fill-opacity:1;" d="M 140.382813 10.832031 C 140.382813 4.847656 135.558594 0 129.589844 0 C 123.632813 0 118.789063 4.847656 118.789063 10.832031 C 118.789063 16.820313 123.632813 21.667969 129.589844 21.667969 C 135.558594 21.667969 140.382813 16.820313 140.382813 10.832031 "/>
<path style=" stroke:none;fill-rule:nonzero;fill:rgb(37.998962%,38.398743%,36.499023%);fill-opacity:1;" d="M 325.515625 118.734375 C 322.929688 118.734375 320.4375 118.101563 318.703125 116.792969 C 316.878906 115.386719 315.675781 113.328125 315.675781 110.519531 L 300.699219 110.519531 C 300.660156 105.84375 297.699219 97.722656 286.4375 95.453125 C 278.011719 93.617188 265.695313 92.644531 265.695313 87.324219 C 265.695313 83.414063 271.132813 83.097656 274.148438 83.097656 C 276.417969 83.097656 278.457031 83.535156 279.988281 84.503906 C 281.484375 85.480469 282.351563 87 282.351563 89.371094 L 298.644531 89.371094 C 299.296875 103.5625 313.882813 103.957031 325.195313 106.832031 C 328.421875 107.578125 334.15625 108.460938 334.15625 112.785156 C 334.15625 117.230469 329.066406 118.734375 325.515625 118.734375 Z M 273.691406 118.734375 C 271.105469 118.734375 268.609375 118.101563 266.878906 116.792969 C 265.054688 115.386719 263.851563 113.328125 263.851563 110.519531 L 248.171875 110.519531 C 249.089844 107.542969 249.59375 104.347656 249.59375 100.972656 C 249.59375 99.402344 249.453125 97.875 249.25 96.378906 C 253.546875 103.808594 264.332031 104.53125 273.371094 106.828125 C 276.597656 107.578125 282.332031 108.457031 282.332031 112.78125 C 282.332031 117.230469 277.242188 118.734375 273.691406 118.734375 Z M 219.992188 116.578125 C 211.445313 116.578125 208.851563 108.136719 208.851563 100.972656 C 208.851563 93.832031 211.445313 85.253906 219.992188 85.253906 C 228.523438 85.253906 231.226563 93.832031 231.226563 100.972656 C 231.222656 108.136719 228.523438 116.578125 219.992188 116.578125 Z M 338.261719 95.453125 C 329.835938 93.617188 316.953125 92.644531 316.953125 87.324219 C 316.953125 83.414063 321.828125 83.097656 324.84375 83.097656 C 327.113281 83.097656 329.152344 83.535156 330.683594 84.503906 C 332.179688 85.480469 333.046875 87 333.046875 89.371094 L 350.015625 89.371094 C 349.363281 74.753906 336.5 71.171875 324.207031 71.171875 C 313.964844 71.171875 300.65625 74.371094 298.816406 85.679688 C 296.300781 74.160156 284.683594 71.171875 273.507813 71.171875 C 262.484375 71.171875 247.324219 74.863281 247.324219 88.40625 C 247.324219 88.644531 247.359375 88.851563 247.363281 89.082031 C 243.089844 78.390625 232.984375 71.171875 219.992188 71.171875 C 205.9375 71.171875 195.425781 79.40625 191.875 91.550781 C 194.589844 95.214844 196.019531 99.996094 196.019531 104.988281 C 196.019531 109.085938 195.371094 112.714844 194.136719 115.890625 C 198.96875 124.847656 208.269531 130.660156 219.992188 130.660156 C 232.445313 130.660156 242.214844 124.082031 246.773438 114.152344 C 249.171875 126.90625 261.613281 130.660156 273.800781 130.660156 C 284.277344 130.660156 295.851563 127.21875 299.507813 117.460938 C 303.292969 127.566406 314.5625 130.660156 325.625 130.660156 C 338.261719 130.660156 352.527344 125.683594 352.527344 110.617188 C 352.527344 105.960938 349.597656 97.738281 338.261719 95.453125 "/>
<path style=" stroke:none;fill-rule:nonzero;fill:rgb(37.998962%,38.398743%,36.499023%);fill-opacity:1;" d="M 354.175781 60.207031 L 354.175781 57.300781 L 356.113281 57.300781 C 357.070313 57.300781 358.144531 57.523438 358.144531 58.683594 C 358.144531 60.121094 357.070313 60.207031 355.878906 60.207031 Z M 354.175781 61.417969 L 355.8125 61.417969 L 358.269531 65.472656 L 359.863281 65.472656 L 357.203125 61.34375 C 358.570313 61.171875 359.609375 60.445313 359.609375 58.78125 C 359.609375 56.914063 358.527344 56.109375 356.324219 56.109375 L 352.765625 56.109375 L 352.765625 65.472656 L 354.175781 65.472656 L 354.175781 61.417969 "/>
<path style=" stroke:none;fill-rule:nonzero;fill:rgb(37.998962%,38.398743%,36.499023%);fill-opacity:1;" d="M 355.855469 53.257813 C 351.683594 53.257813 348.316406 56.625 348.316406 60.808594 C 348.316406 64.972656 351.683594 68.335938 355.855469 68.335938 C 360.003906 68.335938 363.371094 64.972656 363.371094 60.808594 C 363.371094 56.625 360.003906 53.257813 355.855469 53.257813 Z M 365 60.808594 C 365 65.867188 360.902344 69.964844 355.855469 69.964844 C 350.800781 69.964844 346.699219 65.867188 346.699219 60.808594 C 346.699219 55.734375 350.800781 51.628906 355.855469 51.628906 C 360.902344 51.628906 365 55.734375 365 60.808594 "/>
<path style=" stroke:none;fill-rule:nonzero;fill:rgb(37.998962%,38.398743%,36.499023%);fill-opacity:1;" d="M 182.804688 181.789063 C 181.09375 181.789063 179.59375 182.945313 178.652344 184.136719 L 178.652344 191.867188 C 179.453125 192.953125 181.128906 194.28125 182.941406 194.28125 C 185.523438 194.28125 186.921875 192.324219 186.921875 188.441406 C 186.921875 183.820313 185.453125 181.789063 182.804688 181.789063 Z M 183.292969 197.601563 C 181.441406 197.601563 179.699219 196.625 178.6875 195.507813 L 178.6875 197.21875 L 175.128906 197.21875 L 175.128906 173.566406 L 178.6875 171.714844 L 178.6875 180.597656 C 180.011719 179.371094 181.546875 178.464844 183.46875 178.464844 C 187.40625 178.464844 190.511719 181.332031 190.511719 188.332031 C 190.511719 194.632813 187.09375 197.601563 183.292969 197.601563 "/>
<path style=" stroke:none;fill-rule:nonzero;fill:rgb(37.998962%,38.398743%,36.499023%);fill-opacity:1;" d="M 201.394531 203.691406 L 197.59375 203.691406 L 200.242188 196.871094 L 193.507813 178.851563 L 197.449219 178.851563 L 200.449219 187.84375 C 201.007813 189.453125 201.847656 192.183594 202.054688 193.195313 C 202.367188 192.109375 203.136719 189.484375 203.695313 187.914063 L 206.800781 178.851563 L 210.601563 178.851563 L 201.394531 203.691406 "/>
</g>
</svg>
