<?xml version="1.0" encoding="UTF-8"?>
<svg xmlns="http://www.w3.org/2000/svg" xmlns:xlink="http://www.w3.org/1999/xlink" width="689.72pt" height="122.82pt" viewBox="0 0 689.72 122.82" version="1.1">
<defs>
<clipPath id="clip1">
  <path d="M 638 3 L 689.71875 3 L 689.71875 104 L 638 104 Z M 638 3 "/>
</clipPath>
<clipPath id="clip2">
  <path d="M 0 35 L 638 35 L 638 122.820313 L 0 122.820313 Z M 0 35 "/>
</clipPath>
</defs>
<g id="surface1">
<g clip-path="url(#clip1)" clip-rule="nonzero">
<path style=" stroke:none;fill-rule:nonzero;fill:rgb(100%,80.39856%,22.399902%);fill-opacity:1;" d="M 657.589844 3.40625 C 697.941406 31.40625 681.058594 96.054688 638.234375 103.054688 C 693 103.054688 711.117188 28.113281 657.589844 3.40625 "/>
</g>
<path style=" stroke:none;fill-rule:nonzero;fill:rgb(6.298828%,48.999023%,72.499084%);fill-opacity:1;" d="M 614.765625 2.996094 C 662.53125 -4.003906 682.292969 54.878906 661.292969 82.054688 C 695.882813 47.46875 668.292969 -14.296875 614.765625 2.996094 "/>
<path style=" stroke:none;fill-rule:nonzero;fill:rgb(5.899048%,64.299011%,35.699463%);fill-opacity:1;" d="M 586.765625 31.40625 C 610.234375 -3.59375 659.234375 17.820313 664.175781 53.230469 C 669.941406 9.996094 612.292969 -14.296875 586.765625 31.40625 "/>
<path style=" stroke:none;fill-rule:nonzero;fill:rgb(80.39856%,16.499329%,25.099182%);fill-opacity:1;" d="M 585.53125 57.761719 C 591.292969 21.523438 638.234375 17.820313 655.53125 43.347656 C 641.53125 7.113281 586.351563 11.644531 585.53125 57.761719 "/>
<g clip-path="url(#clip2)" clip-rule="nonzero">
<path style=" stroke:none;fill-rule:nonzero;fill:rgb(0%,0%,0%);fill-opacity:1;" d="M 604.058594 73.40625 C 604.472656 70.9375 605.292969 68.46875 606.53125 66.820313 C 607.765625 65.171875 609.410156 63.527344 611.472656 62.703125 C 613.53125 61.878906 615.589844 61.46875 617.648438 61.46875 C 619.707031 61.46875 621.351563 61.878906 623.410156 62.703125 C 625.058594 63.527344 626.292969 65.171875 627.53125 66.820313 C 628.765625 68.46875 629.175781 70.9375 629.175781 73.820313 Z M 594.175781 79.171875 C 594.175781 82.878906 595 86.171875 595.824219 89.054688 C 597.058594 91.9375 598.707031 94.820313 600.765625 96.878906 C 603.234375 99.347656 605.707031 100.996094 608.589844 102.230469 C 611.882813 103.46875 615.175781 104.289063 618.882813 104.289063 C 621.351563 104.289063 623.410156 104.289063 625.058594 103.46875 C 627.117188 103.054688 628.765625 102.230469 630 101.820313 C 631.234375 100.996094 632.882813 100.585938 633.707031 99.761719 C 634.941406 98.9375 635.765625 98.527344 636.175781 98.113281 C 636.589844 97.703125 637 97.289063 637 97.289063 L 633.292969 90.703125 C 633.292969 90.703125 633.292969 90.703125 632.472656 91.113281 C 631.648438 91.527344 631.234375 91.9375 630.410156 92.347656 C 629.589844 92.761719 628.765625 93.585938 627.53125 93.996094 C 626.292969 94.40625 625.058594 95.230469 623.824219 95.230469 C 622.589844 95.644531 620.941406 95.644531 619.292969 95.644531 C 617.234375 95.644531 615.175781 95.230469 613.117188 94.40625 C 611.058594 93.585938 609.410156 92.761719 608.175781 91.527344 C 606.53125 90.289063 605.707031 88.644531 604.472656 86.585938 C 603.648438 84.527344 603.234375 82.46875 602.824219 79.585938 L 637.410156 79.585938 C 637.410156 79.585938 637.410156 79.171875 637.410156 78.761719 C 637.410156 78.347656 637.410156 77.527344 637.410156 77.113281 C 637.410156 76.703125 637.410156 75.878906 637.410156 75.46875 C 637.410156 72.171875 637 69.289063 636.175781 66.820313 C 635.351563 64.347656 634.117188 61.878906 632.472656 59.820313 C 630.824219 57.761719 628.765625 56.113281 625.882813 54.878906 C 623.410156 53.644531 620.53125 53.230469 616.824219 53.230469 C 613.53125 53.230469 610.234375 53.644531 607.351563 54.878906 C 604.472656 56.113281 602 57.761719 599.941406 59.820313 C 597.882813 61.878906 596.234375 64.761719 595 67.644531 C 594.589844 71.761719 594.175781 75.46875 594.175781 79.171875 Z M 540.648438 103.054688 L 549.707031 103.054688 L 549.707031 80.820313 C 549.707031 79.585938 549.707031 78.347656 549.707031 77.527344 C 549.707031 76.289063 550.117188 75.46875 550.117188 74.644531 C 550.941406 72.171875 551.765625 70.113281 553.410156 68.46875 C 554.648438 66.820313 556.707031 65.171875 558.765625 64.347656 C 560.824219 63.113281 562.882813 63.113281 565.351563 63.113281 C 567.410156 63.113281 569.058594 63.527344 569.882813 63.9375 C 571.117188 64.347656 571.941406 65.171875 572.765625 66.40625 C 573.589844 67.644531 574 68.878906 574 70.113281 C 574 71.347656 574.410156 72.996094 574.410156 75.054688 L 574.410156 103.46875 L 583.472656 103.46875 L 583.472656 72.996094 C 583.472656 66.820313 582.234375 62.289063 579.351563 59.40625 C 576.882813 56.527344 572.351563 54.878906 567 54.878906 C 564.53125 54.878906 562.058594 55.289063 560 56.113281 C 557.941406 56.9375 556.292969 57.761719 554.648438 58.996094 C 553.410156 60.230469 552.175781 61.46875 550.941406 62.703125 C 550.117188 63.9375 549.292969 65.171875 548.882813 66.40625 C 548.882813 66.40625 548.882813 66.40625 548.882813 65.996094 C 548.882813 65.585938 548.882813 65.171875 548.882813 64.761719 C 548.882813 64.347656 548.882813 63.527344 548.882813 63.113281 L 548.882813 56.9375 L 540.234375 56.9375 Z M 517.175781 103.054688 L 526.234375 103.054688 L 526.234375 55.289063 L 517.175781 55.289063 Z M 517.175781 45.820313 L 526.234375 45.820313 L 526.234375 36.347656 L 517.175781 36.347656 Z M 481.351563 94.40625 C 478.472656 94.40625 476 93.585938 473.941406 92.347656 C 471.882813 91.113281 470.234375 89.054688 469 86.585938 C 467.765625 84.113281 467.351563 81.230469 467.351563 77.9375 C 467.351563 74.644531 467.765625 71.761719 469 69.289063 C 470.234375 66.820313 471.472656 65.171875 473.53125 63.9375 C 475.589844 62.703125 477.648438 61.878906 480.53125 61.878906 C 482.589844 61.878906 484.234375 61.878906 485.882813 62.703125 C 487.53125 63.113281 488.765625 63.9375 490 65.171875 C 491.234375 66.40625 492.058594 68.054688 492.882813 70.113281 C 493.707031 72.171875 494.117188 74.644531 494.117188 77.9375 C 494.117188 81.230469 493.707031 83.703125 492.882813 85.761719 C 492.058594 87.820313 491.234375 89.46875 490 90.703125 C 488.765625 91.9375 487.53125 92.761719 485.882813 93.171875 C 484.648438 93.996094 483 94.40625 481.351563 94.40625 Z M 465.707031 111.703125 L 462.824219 119.113281 C 464.472656 119.9375 466.117188 120.347656 467.765625 121.171875 C 469.410156 121.585938 471.472656 122.40625 473.53125 122.40625 C 475.589844 122.820313 477.234375 122.820313 479.292969 122.820313 C 481.765625 122.820313 484.234375 122.820313 486.292969 121.996094 C 488.765625 121.585938 490.824219 120.761719 492.882813 119.527344 C 494.941406 118.289063 496.589844 117.054688 498.234375 115.40625 C 499.882813 113.761719 501.117188 111.703125 501.941406 109.230469 C 502.765625 106.761719 503.175781 104.289063 503.175781 100.996094 L 503.175781 55.703125 L 494.53125 55.703125 L 494.53125 60.230469 C 494.53125 60.644531 494.53125 61.054688 494.53125 61.46875 C 494.53125 61.878906 494.53125 61.878906 494.53125 61.878906 C 494.53125 61.878906 494.53125 61.46875 494.117188 61.054688 C 493.707031 60.644531 493.292969 59.820313 492.472656 59.40625 C 491.648438 58.585938 490.824219 58.171875 489.589844 57.347656 C 488.351563 56.527344 487.117188 56.113281 485.472656 55.703125 C 483.824219 55.289063 481.765625 54.878906 479.292969 54.878906 C 476 54.878906 473.117188 55.289063 470.648438 56.527344 C 468.175781 57.761719 465.707031 59.40625 464.058594 61.46875 C 462.410156 63.527344 460.765625 65.996094 459.941406 68.878906 C 459.117188 71.761719 458.707031 75.054688 458.707031 78.347656 C 458.707031 82.054688 459.117188 84.9375 459.941406 88.230469 C 460.765625 91.113281 462.410156 93.585938 464.058594 96.054688 C 465.707031 98.527344 468.175781 99.761719 470.648438 100.996094 C 473.117188 102.230469 476.410156 103.054688 479.707031 103.054688 C 483 103.054688 485.882813 102.230469 488.351563 100.996094 C 490.824219 99.761719 492.472656 97.703125 493.707031 95.644531 C 493.707031 95.644531 493.707031 95.644531 493.707031 96.054688 C 493.707031 96.46875 493.707031 96.878906 493.707031 97.289063 C 493.707031 97.703125 493.707031 98.113281 493.707031 98.527344 L 493.707031 102.230469 C 493.707031 104.703125 493.292969 106.761719 492.472656 108.40625 C 491.648438 110.054688 490.410156 111.289063 489.175781 112.527344 C 487.941406 113.761719 486.292969 114.171875 484.234375 114.996094 C 482.175781 115.820313 480.53125 115.820313 478.472656 115.820313 C 476.824219 115.820313 474.765625 115.820313 473.53125 115.40625 C 471.882813 114.996094 470.648438 114.585938 469.410156 114.171875 C 468.175781 113.761719 467.351563 113.347656 466.53125 112.9375 C 466.117188 111.703125 465.707031 111.703125 465.707031 111.703125 Z M 404.765625 103.054688 L 413.824219 103.054688 L 413.824219 80.820313 C 413.824219 79.585938 413.824219 78.347656 413.824219 77.527344 C 413.824219 76.289063 414.234375 75.46875 414.234375 74.644531 C 415.058594 72.171875 415.882813 70.113281 417.53125 68.46875 C 418.765625 66.820313 420.824219 65.171875 422.882813 64.347656 C 424.941406 63.113281 427 63.113281 429.472656 63.113281 C 431.53125 63.113281 433.175781 63.527344 434 63.9375 C 435.234375 64.347656 436.058594 65.171875 436.882813 66.40625 C 437.707031 67.644531 438.117188 68.878906 438.117188 70.113281 C 438.117188 71.347656 438.53125 72.996094 438.53125 75.054688 L 438.53125 103.46875 L 447.589844 103.46875 L 447.589844 72.996094 C 447.589844 66.820313 446.351563 62.289063 443.472656 59.40625 C 441 56.527344 436.472656 54.878906 431.117188 54.878906 C 428.648438 54.878906 426.175781 55.289063 424.117188 56.113281 C 422.058594 56.9375 420.410156 57.761719 418.765625 58.996094 C 417.53125 60.230469 416.292969 61.46875 415.058594 62.703125 C 414.234375 63.9375 413.410156 65.171875 413 66.40625 C 413 66.40625 413 66.40625 413 65.996094 C 413 65.585938 413 65.171875 413 64.761719 C 413 64.347656 413 63.527344 413 63.113281 L 413 56.9375 L 404.351563 56.9375 Z M 352.472656 103.054688 L 392.824219 103.054688 L 392.824219 94.820313 L 361.941406 94.820313 L 361.941406 73.40625 L 385.824219 73.40625 L 385.824219 65.171875 L 361.941406 65.171875 L 361.941406 44.585938 L 391.175781 44.585938 L 391.175781 36.347656 L 352.472656 36.347656 Z M 307.175781 72.996094 C 307.589844 70.9375 308.410156 69.289063 309.234375 67.644531 C 310.472656 66.40625 311.707031 65.171875 312.941406 64.347656 C 314.589844 63.527344 316.234375 63.113281 318.292969 63.113281 C 319.941406 63.113281 321.589844 63.527344 323.234375 64.347656 C 324.472656 65.171875 325.707031 66.40625 326.53125 67.644531 C 327.351563 68.878906 327.765625 70.9375 327.765625 72.996094 Z M 294.824219 79.171875 C 294.824219 82.878906 295.234375 85.761719 296.472656 89.054688 C 297.707031 91.9375 299.351563 94.820313 301.410156 96.878906 C 303.882813 99.347656 306.351563 100.996094 309.648438 102.230469 C 312.941406 103.46875 316.234375 104.289063 320.351563 104.289063 C 322.824219 104.289063 324.882813 104.289063 326.941406 103.46875 C 329 103.054688 330.648438 102.230469 332.292969 101.820313 C 333.941406 100.996094 335.175781 100.585938 336.410156 99.761719 C 337.648438 98.9375 338.472656 98.527344 338.882813 98.113281 C 339.292969 97.703125 339.707031 97.289063 339.707031 97.289063 L 335.175781 88.644531 C 335.175781 88.644531 335.175781 88.644531 334.351563 89.054688 C 333.941406 89.46875 333.117188 89.878906 332.292969 90.289063 C 331.472656 90.703125 330.648438 91.527344 329.410156 91.9375 C 328.175781 92.347656 326.941406 92.761719 325.707031 93.171875 C 324.472656 93.585938 322.824219 93.585938 321.175781 93.585938 C 319.53125 93.585938 317.472656 93.171875 316.234375 92.761719 C 314.589844 92.347656 312.941406 91.527344 311.707031 90.289063 C 310.472656 89.054688 309.234375 87.820313 308.410156 86.171875 C 307.589844 84.527344 307.175781 82.46875 306.765625 80.820313 L 339.707031 80.820313 C 339.707031 80.820313 339.707031 80.820313 339.707031 80.40625 C 339.707031 79.996094 339.707031 79.585938 339.707031 79.171875 C 339.707031 78.761719 339.707031 77.9375 339.707031 77.527344 C 339.707031 77.113281 339.707031 76.703125 339.707031 76.289063 C 339.707031 72.996094 339.292969 70.113281 338.472656 67.230469 C 337.648438 64.347656 336 62.289063 334.351563 59.820313 C 332.707031 57.761719 330.234375 56.113281 327.765625 54.878906 C 325.292969 53.644531 322 53.230469 318.707031 53.230469 C 315 53.230469 311.707031 54.054688 308.824219 55.289063 C 305.941406 56.527344 303.472656 58.171875 301 60.230469 C 298.941406 62.703125 297.292969 65.171875 296.058594 68.054688 C 295.234375 71.761719 294.824219 75.054688 294.824219 79.171875 Z M 262.292969 91.9375 C 259.824219 91.9375 257.351563 91.113281 255.707031 89.878906 C 254.058594 88.644531 252.410156 86.996094 251.589844 84.9375 C 250.765625 82.878906 250.351563 79.996094 250.351563 77.527344 C 250.351563 75.054688 250.765625 72.585938 251.589844 70.527344 C 252.410156 68.46875 253.648438 66.820313 255.292969 65.996094 C 256.941406 64.761719 259 64.347656 261.472656 64.347656 C 263.117188 64.347656 264.765625 64.347656 266 65.171875 C 267.234375 65.585938 268.472656 66.40625 269.707031 67.230469 C 270.941406 68.46875 271.765625 69.703125 272.175781 71.347656 C 272.589844 72.996094 273 75.46875 273 77.9375 C 273 80.40625 272.589844 82.878906 272.175781 84.527344 C 271.765625 86.171875 270.941406 87.820313 269.707031 89.054688 C 268.472656 90.289063 267.234375 91.113281 266 91.527344 C 264.765625 91.527344 263.53125 91.9375 262.292969 91.9375 Z M 246.234375 109.230469 L 242.53125 118.703125 C 244.175781 119.527344 245.824219 120.347656 247.472656 120.761719 C 249.53125 121.171875 251.175781 121.996094 253.234375 121.996094 C 255.292969 122.40625 257.351563 122.40625 259.410156 122.40625 C 261.882813 122.40625 264.351563 122.40625 266.824219 121.585938 C 269.292969 121.171875 271.765625 120.347656 273.824219 119.113281 C 275.882813 117.878906 277.941406 116.644531 279.589844 114.585938 C 281.234375 112.9375 282.472656 110.878906 283.292969 108.40625 C 284.117188 105.9375 284.53125 103.054688 284.53125 99.761719 L 284.53125 54.878906 L 273.410156 54.878906 L 273.410156 58.585938 C 273.410156 58.996094 273.410156 59.40625 273.410156 59.40625 L 273.410156 59.820313 L 273 59.820313 C 273 59.820313 273 59.820313 272.589844 58.996094 C 272.175781 58.585938 271.765625 58.171875 270.941406 57.347656 C 270.117188 56.9375 269.292969 56.113281 268.472656 55.703125 C 267.234375 55.289063 266 54.46875 264.351563 54.054688 C 262.707031 53.644531 261.058594 53.230469 259 53.230469 C 255.292969 53.230469 252.410156 54.054688 249.941406 55.289063 C 247.472656 56.527344 245 58.171875 243.351563 60.230469 C 241.707031 62.289063 240.058594 65.171875 239.234375 67.644531 C 238.410156 70.527344 238 73.820313 238 77.113281 C 238 80.40625 238.410156 83.703125 239.234375 86.585938 C 240.058594 89.46875 241.707031 91.9375 243.351563 94.40625 C 245 96.878906 247.472656 98.527344 249.941406 99.761719 C 252.410156 100.996094 255.707031 101.820313 259 101.820313 C 262.292969 101.820313 264.765625 101.40625 267.234375 100.171875 C 269.292969 98.9375 270.941406 97.703125 272.589844 95.230469 C 272.589844 95.230469 272.589844 95.230469 272.589844 95.644531 C 272.589844 96.054688 272.589844 96.054688 272.589844 96.878906 C 272.589844 97.703125 272.589844 97.703125 272.589844 98.113281 L 272.589844 100.996094 C 272.589844 103.054688 272.175781 104.703125 271.351563 106.347656 C 270.53125 107.585938 269.707031 108.820313 268.472656 110.054688 C 267.234375 110.878906 266 111.703125 264.351563 112.113281 C 262.707031 112.527344 261.058594 112.527344 259 112.527344 C 257.351563 112.527344 255.292969 112.527344 254.058594 112.113281 C 252.410156 111.703125 251.175781 111.289063 249.941406 110.878906 C 248.707031 110.46875 247.882813 110.054688 247.058594 109.644531 C 246.234375 109.644531 246.234375 109.230469 246.234375 109.230469 Z M 198.882813 88.644531 C 198.882813 87.40625 199.292969 86.171875 200.117188 85.347656 C 200.941406 84.527344 201.765625 83.703125 203 83.289063 C 204.234375 82.878906 205.472656 82.054688 206.707031 82.054688 C 207.941406 81.644531 209.589844 81.644531 210.824219 81.644531 C 212.058594 81.644531 213.707031 81.644531 214.941406 81.644531 L 217 81.644531 L 217 82.878906 C 217 84.113281 216.589844 85.761719 216.175781 87.40625 C 215.765625 88.644531 214.941406 90.289063 213.707031 91.527344 C 212.472656 92.761719 211.648438 93.996094 210 94.40625 C 208.765625 95.230469 207.117188 95.644531 205.472656 95.644531 C 203.824219 95.644531 202.589844 95.230469 201.351563 94.820313 C 200.117188 94.40625 199.292969 93.585938 198.882813 92.347656 C 199.292969 90.703125 198.882813 89.46875 198.882813 88.644531 Z M 186.941406 89.054688 C 186.941406 91.527344 187.351563 93.585938 188.175781 95.230469 C 189 97.289063 190.234375 98.527344 191.882813 100.171875 C 193.53125 101.40625 195.175781 102.644531 196.824219 103.054688 C 198.882813 103.878906 200.941406 104.289063 203 104.289063 C 205.058594 104.289063 207.117188 103.878906 208.765625 103.46875 C 210.410156 103.054688 211.648438 102.230469 212.882813 101.40625 C 214.117188 100.585938 214.941406 99.761719 215.765625 98.9375 C 216.589844 98.113281 217 97.289063 217.410156 96.878906 C 217.824219 96.46875 217.824219 96.054688 217.824219 96.054688 C 217.824219 96.054688 217.824219 96.46875 217.824219 97.289063 C 217.824219 98.113281 217.824219 98.527344 217.824219 99.761719 L 217.824219 103.46875 L 228.941406 103.46875 L 228.941406 73.40625 C 228.941406 69.289063 228.117188 65.996094 226.472656 63.113281 C 224.824219 60.230469 222.765625 58.171875 219.472656 56.527344 C 216.589844 55.289063 212.882813 54.054688 208.765625 54.054688 C 206.292969 54.054688 204.234375 54.054688 202.589844 54.46875 C 200.53125 54.878906 198.882813 55.289063 197.234375 55.703125 C 195.589844 56.113281 194.351563 56.9375 193.53125 57.347656 C 192.292969 57.761719 191.472656 58.585938 191.058594 58.585938 C 190.648438 58.996094 190.234375 58.996094 190.234375 58.996094 L 194.765625 67.644531 C 194.765625 67.644531 195.175781 67.230469 196 66.820313 C 196.824219 66.40625 197.648438 65.585938 198.882813 65.171875 C 200.117188 64.761719 201.351563 63.9375 203 63.527344 C 204.648438 63.113281 206.292969 62.703125 207.941406 62.703125 C 209.589844 62.703125 211.234375 62.703125 212.882813 63.527344 C 214.117188 63.9375 215.351563 64.761719 216.175781 65.996094 C 217 67.230469 217.410156 68.878906 217.410156 70.9375 L 217.410156 71.761719 L 215.765625 71.761719 C 214.53125 71.761719 212.882813 71.761719 210.824219 71.761719 C 208.765625 71.761719 207.117188 72.171875 204.648438 72.585938 C 202.589844 72.996094 200.53125 73.40625 198.472656 74.230469 C 196.410156 75.054688 194.765625 75.878906 192.707031 77.113281 C 191.058594 78.347656 189.824219 79.585938 188.589844 81.644531 C 187.351563 84.527344 186.941406 86.585938 186.941406 89.054688 Z M 133 103.054688 L 144.941406 103.054688 L 144.941406 81.230469 C 144.941406 79.996094 144.941406 78.761719 144.941406 77.9375 C 144.941406 76.703125 145.351563 75.878906 145.765625 74.644531 C 146.175781 72.585938 147.410156 70.9375 148.234375 69.703125 C 149.472656 68.46875 150.707031 67.230469 152.765625 65.996094 C 154.824219 64.761719 156.472656 64.761719 158.53125 64.761719 C 160.589844 64.761719 162.234375 65.171875 163.472656 65.996094 C 164.707031 66.820313 165.53125 68.054688 165.941406 69.289063 C 166.351563 70.527344 166.765625 72.585938 166.351563 74.230469 L 166.351563 102.644531 L 178.292969 102.644531 L 178.292969 71.761719 C 178.292969 67.644531 177.472656 63.9375 176.234375 61.46875 C 175 58.996094 172.941406 56.527344 170.472656 55.289063 C 168 54.054688 165.117188 53.230469 161.410156 53.230469 C 158.941406 53.230469 156.882813 53.644531 154.824219 54.46875 C 152.765625 55.289063 151.117188 55.703125 149.882813 56.9375 C 148.648438 58.171875 147.410156 58.996094 146.175781 60.230469 C 145.351563 61.46875 144.53125 62.703125 144.117188 63.527344 C 144.117188 63.527344 144.117188 63.113281 144.117188 62.289063 C 144.117188 61.46875 144.117188 61.054688 144.117188 59.820313 L 144.117188 54.054688 L 132.589844 54.054688 Z M 91 88.644531 C 91 87.40625 91.410156 86.171875 92.234375 85.347656 C 93.058594 84.527344 93.882813 83.703125 95.117188 83.289063 C 96.351563 82.878906 97.589844 82.054688 98.824219 82.054688 C 100.058594 81.644531 101.707031 81.644531 102.941406 81.644531 C 104.175781 81.644531 105.824219 81.644531 107.058594 81.644531 L 109.117188 81.644531 L 109.117188 82.878906 C 109.117188 84.113281 108.707031 85.761719 108.292969 87.40625 C 107.882813 89.054688 107.058594 90.289063 105.824219 91.527344 C 104.589844 92.761719 103.765625 93.996094 102.117188 94.40625 C 100.882813 95.230469 99.234375 95.644531 97.589844 95.644531 C 95.941406 95.644531 94.707031 95.230469 93.46875 94.820313 C 92.234375 94.40625 91.410156 93.585938 91 92.347656 C 91 90.703125 91 89.46875 91 88.644531 Z M 78.648438 89.054688 C 78.648438 91.527344 79.058594 93.585938 79.882813 95.230469 C 80.707031 97.289063 81.941406 98.527344 83.589844 100.171875 C 85.234375 101.40625 86.882813 102.644531 88.53125 103.054688 C 90.589844 103.878906 92.648438 104.289063 94.707031 104.289063 C 96.765625 104.289063 98.824219 103.878906 100.472656 103.46875 C 102.117188 103.054688 103.351563 102.230469 104.589844 101.40625 C 105.824219 100.585938 106.648438 99.761719 107.472656 98.9375 C 108.292969 98.113281 108.707031 97.289063 109.117188 96.878906 C 109.53125 96.46875 109.53125 96.054688 109.53125 96.054688 C 109.53125 96.054688 109.53125 96.46875 109.53125 97.289063 C 109.53125 98.113281 109.53125 98.527344 109.53125 99.761719 L 109.53125 103.46875 L 120.648438 103.46875 L 120.648438 73.40625 C 120.648438 69.289063 119.824219 65.996094 118.175781 63.113281 C 116.53125 60.230469 114.472656 58.171875 111.175781 56.527344 C 108.292969 55.289063 104.589844 54.054688 100.472656 54.054688 C 98 54.054688 95.941406 54.054688 94.292969 54.46875 C 92.234375 54.878906 90.589844 55.289063 88.941406 55.703125 C 87.292969 56.113281 86.058594 56.9375 85.234375 57.347656 C 84 57.761719 83.175781 58.585938 82.765625 58.585938 C 82.351563 58.996094 81.941406 58.996094 81.941406 58.996094 L 86.46875 67.644531 C 86.46875 67.644531 86.882813 67.230469 87.707031 66.820313 C 88.53125 66.40625 89.351563 65.585938 90.589844 65.171875 C 91.824219 64.761719 93.058594 63.9375 94.707031 63.527344 C 96.351563 63.113281 98 62.703125 99.648438 62.703125 C 101.292969 62.703125 102.941406 62.703125 104.589844 63.527344 C 105.824219 63.9375 107.058594 64.761719 107.882813 65.996094 C 108.707031 67.230469 109.117188 68.878906 109.117188 70.9375 L 109.117188 71.761719 L 107.472656 71.761719 C 106.234375 71.761719 104.589844 71.761719 102.53125 71.761719 C 100.472656 71.761719 98.824219 72.171875 96.351563 72.585938 C 93.882813 72.996094 92.234375 73.40625 90.175781 74.230469 C 88.117188 75.054688 86.46875 75.878906 84.410156 77.113281 C 82.765625 78.347656 81.53125 79.585938 80.292969 81.644531 C 79.46875 84.527344 79.058594 86.585938 78.648438 89.054688 Z M 0 103.054688 L 12.351563 103.054688 L 15.234375 65.585938 C 15.234375 64.347656 15.234375 63.113281 15.234375 61.878906 C 15.234375 60.644531 15.234375 59.40625 15.234375 58.585938 C 15.234375 57.347656 15.234375 56.527344 15.234375 56.113281 C 15.234375 55.703125 15.234375 54.878906 15.234375 54.878906 C 15.234375 54.878906 15.234375 55.289063 15.648438 56.113281 C 16.058594 56.9375 16.058594 57.761719 16.46875 58.585938 C 16.882813 59.820313 17.292969 61.054688 17.707031 61.878906 C 18.117188 63.113281 18.53125 64.347656 18.941406 65.171875 L 29.648438 91.113281 L 40.351563 91.113281 L 51.058594 65.171875 C 51.46875 63.9375 51.882813 63.113281 52.292969 61.878906 C 52.707031 60.644531 53.117188 59.40625 53.53125 58.585938 C 53.941406 57.761719 54.351563 56.527344 54.351563 56.113281 C 54.351563 55.289063 54.765625 54.878906 54.765625 54.878906 C 54.765625 54.878906 54.765625 55.289063 54.765625 56.113281 C 54.765625 56.9375 54.765625 57.347656 54.765625 58.585938 C 54.765625 59.820313 54.765625 60.644531 54.765625 61.878906 C 54.765625 63.113281 54.765625 64.347656 54.765625 65.585938 L 57.648438 103.054688 L 69.589844 103.054688 L 64.234375 35.9375 L 51.46875 35.9375 L 38.292969 68.878906 C 37.882813 70.113281 37.46875 70.9375 37.058594 72.171875 C 36.648438 73.40625 36.234375 74.230469 35.824219 75.46875 C 35.410156 76.703125 35.410156 77.113281 35 77.9375 C 35 78.761719 34.589844 78.761719 34.589844 79.171875 C 34.589844 79.171875 34.589844 78.761719 34.175781 77.9375 C 34.175781 77.113281 33.765625 76.703125 33.351563 75.46875 C 32.941406 74.230469 32.53125 73.40625 32.117188 72.171875 C 31.707031 70.9375 31.292969 70.113281 30.882813 68.878906 L 17.707031 35.9375 L 5.351563 35.9375 L 0 103.054688 "/>
</g>
</g>
</svg>
