<svg xmlns="http://www.w3.org/2000/svg" viewBox="0 0 250 76.7"><defs><style>.cls-1{fill:#00b0f0;}</style></defs><title>skype</title><g id="Layer_2" data-name="Layer 2"><g id="Layer_1-2" data-name="Layer 1"><g id="_Group_" data-name="&lt;Group&gt;"><g id="_Group_2" data-name="&lt;Group&gt;"><path id="_Path_" data-name="&lt;Path&gt;" class="cls-1" d="M99.55,59V52.88a11.94,11.94,0,0,0,2.52,1.68,20.45,20.45,0,0,0,3.1,1.26,24.67,24.67,0,0,0,3.27.79,18.3,18.3,0,0,0,3,.28q4.8,0,7.17-1.79a6.74,6.74,0,0,0,1.58-8.3A8.92,8.92,0,0,0,118,44.37a21.82,21.82,0,0,0-3.3-2.12q-1.9-1-4.1-2.13t-4.33-2.4A18.81,18.81,0,0,1,102.8,35a11.16,11.16,0,0,1-2.34-3.32,10.31,10.31,0,0,1-.85-4.34,10.27,10.27,0,0,1,1.33-5.31,11.46,11.46,0,0,1,3.5-3.72,15.82,15.82,0,0,1,4.94-2.18,22.48,22.48,0,0,1,5.65-.72q6.57,0,9.57,1.59v5.88a17.27,17.27,0,0,0-10.09-2.74,16.55,16.55,0,0,0-3.41.36,9.57,9.57,0,0,0-3,1.17,6.74,6.74,0,0,0-2.17,2.09,5.57,5.57,0,0,0-.84,3.11,6.45,6.45,0,0,0,.63,3,7.26,7.26,0,0,0,1.87,2.27,18.63,18.63,0,0,0,3,2q1.78,1,4.1,2.12t4.52,2.49a20.57,20.57,0,0,1,3.75,2.9,12.79,12.79,0,0,1,2.55,3.52,9.94,9.94,0,0,1,.95,4.42,11.28,11.28,0,0,1-1.28,5.59,10.59,10.59,0,0,1-3.47,3.72,15,15,0,0,1-5,2.07,27.44,27.44,0,0,1-6,.64,24.19,24.19,0,0,1-2.6-.17q-1.55-.17-3.16-.5a25.41,25.41,0,0,1-3-.81A9.46,9.46,0,0,1,99.55,59"/></g><polygon id="_Path_2" data-name="&lt;Path&gt;" class="cls-1" points="157.27 60.85 150.15 60.85 136.15 45.53 136.03 45.53 136.03 60.85 130.95 60.85 130.95 13.65 136.03 13.65 136.03 43.57 136.15 43.57 149.47 28.97 156.12 28.97 141.42 44.35 157.27 60.85"/><g id="_Group_3" data-name="&lt;Group&gt;"><path id="_Path_3" data-name="&lt;Path&gt;" class="cls-1" d="M187.19,29,172.61,66q-3.9,9.9-11,9.9a11.56,11.56,0,0,1-3.31-.41V70.88a9.36,9.36,0,0,0,3,.56q3.84,0,5.76-4.61l2.54-6L157.26,29h5.63l8.57,24.53q.15.47.65,2.43h.19q.15-.75.62-2.37l9-24.6Z"/><path id="_Compound_Path_" data-name="&lt;Compound Path&gt;" class="cls-1" d="M195.14,43.39v4.45a9.51,9.51,0,0,0,2.55,6.71,9.08,9.08,0,0,0,13.71-.79Q214,50.2,214,43.88q0-5.33-2.45-8.34a8.07,8.07,0,0,0-6.62-3,9,9,0,0,0-7.12,3.1,11.41,11.41,0,0,0-2.69,7.77m.12,12.86h-.12V75.52h-5.08V29h5.08v5.6h.12a12,12,0,0,1,11-6.35,11.58,11.58,0,0,1,9.56,4.28q3.44,4.28,3.44,11.47,0,8-3.87,12.81a12.85,12.85,0,0,1-10.59,4.81,10.59,10.59,0,0,1-9.5-5.35"/><path id="_Compound_Path_2" data-name="&lt;Compound Path&gt;" class="cls-1" d="M244.8,41.86A10.43,10.43,0,0,0,242.68,35a7.21,7.21,0,0,0-5.8-2.46,8.18,8.18,0,0,0-6.1,2.58,11.77,11.77,0,0,0-3.1,6.76Zm5.2,4.33H227.62q.12,5.33,2.85,8.22A9.79,9.79,0,0,0,238,57.3a15.52,15.52,0,0,0,9.84-3.55v4.8q-4.18,3.05-11.05,3.05-6.72,0-10.56-4.34T222.36,45q0-7.44,4.19-12.13A13.42,13.42,0,0,1,237,28.22q6.22,0,9.63,4T250,43.51Z"/><path id="_Compound_Path_3" data-name="&lt;Compound Path&gt;" class="cls-1" d="M38.28,61.43c-12.74,0-18.57-6.49-18.57-11.25A4.12,4.12,0,0,1,24.07,46c5.45,0,4,8.18,14.2,8.18,5.21,0,8.25-3.13,8.25-6.07,0-1.77-1-3.73-4.44-4.59L30.76,40.69C21.63,38.37,20,33.29,20,28.58,20,18.81,29,15.28,37.49,15.28c7.84,0,17.16,4.33,17.16,10.19,0,2.51-2.11,3.88-4.56,3.88-4.65,0-3.88-6.55-13.25-6.55-4.65,0-7.11,2.18-7.11,5.24s3.6,4.09,6.79,4.83l8.39,1.89c9.19,2.08,11.64,7.46,11.64,12.59,0,7.94-6.15,14.07-18.27,14.07M73.46,44.62A36.44,36.44,0,0,0,74,38.35,35.89,35.89,0,0,0,31.9,2.82,21.12,21.12,0,0,0,21.33,0,21.48,21.48,0,0,0,2.8,32.09,36.12,36.12,0,0,0,38.13,74.43a35.79,35.79,0,0,0,6.23-.54A21.11,21.11,0,0,0,54.93,76.7,21.48,21.48,0,0,0,73.46,44.62"/></g></g></g></g></svg>