<svg id="Layer_1" data-name="Layer 1" xmlns="http://www.w3.org/2000/svg" viewBox="0 0 975.11 222.11"><defs><style>.cls-1{fill:#666;}.cls-2{fill:#f99d1c;}</style></defs><g id="g6956"><g id="g6954"><g id="g6944"><path id="path6924" class="cls-1" d="M164,516.7a69.59,69.59,0,0,1-25.24-4.48V499.31s15.71,5.05,25,5.05c8.13,0,16.27-1.4,16.27-11.5,0-7.57-5.61-9.25-12.62-11.21L160.9,480c-8.42-2.52-22.44-5.89-22.44-23,0-19.07,15.43-23.84,31.41-23.84,14.3,0,22.44,4.77,22.44,4.77v12.62a60.22,60.22,0,0,0-23-5c-10.1,0-16.55,2-16.55,10.66,0,7.57,5.89,9.25,12.9,11.21l7.86,2.25c9.25,2.52,21,7.85,21,23C194.83,511.65,180.81,516.7,164,516.7Z" transform="translate(-138.46 -294.87)"/><path id="path6926" class="cls-1" d="M249,516.7c-15.71,0-37.58-5.05-37.58-41.78,0-35.9,22.15-41.79,37.58-41.79,14.58,0,37.58,5.05,37.58,41.79C286.54,512.22,263.82,516.7,249,516.7Zm0-72.35c-8.42,0-22.44,2.52-22.44,30.57,0,28.32,16.27,30.28,22.44,30.28,7.57,0,22.43-3.08,22.43-30.28-.28-28.33-14.3-30.57-22.43-30.57Z" transform="translate(-138.46 -294.87)"/><path id="path6928" class="cls-1" d="M306.17,515.3V408.17h15.14V515.3Z" transform="translate(-138.46 -294.87)"/><path id="path6930" class="cls-1" d="M396.47,515.3l-1.4-10.38A34.82,34.82,0,0,1,368.71,517c-12.34,0-25.8-4.48-25.8-24.68,0-22.43,21-26.64,33.93-26.64h17.67v-7c0-10.38-6.17-12.9-16.83-12.9-12.9,0-28,5.61-28,5.61V439a89.25,89.25,0,0,1,30.29-5.61c17.66,0,29.72,6.45,29.72,27.76v54.41H396.47Zm-2-40.66-14.58.28c-13.75.28-22.16,3.92-22.16,16.82,0,10.38,6.45,13.46,14.58,13.46,11.22,0,22.16-10.37,22.16-10.37Z" transform="translate(-138.46 -294.87)"/><path id="path6932" class="cls-1" d="M464.62,446.87c-9,0-16,9.82-16,9.82V515.3H433.49V434.53h12.06l2,11.22s5.05-12.62,18.79-12.62c7.86,0,10.94,2.24,10.94,2.24v13.74A32.14,32.14,0,0,0,464.62,446.87Z" transform="translate(-138.46 -294.87)"/><path id="path6934" class="cls-1" d="M597.27,515.3h-21l-12.62-42.91c-3.37-11.5-8.14-30.29-8.14-30.29s-5,19.07-8.41,30L534.73,515.3h-21l-21.32-80.77h17.39l9.82,46.28c2.24,10.65,4.76,27.48,4.76,27.48s3.09-16.83,6.46-27.48l13.74-46.28h21.87l13.74,46.28c3.09,10.37,6.45,27.48,6.45,27.48s2.53-15.43,5-27.48l9.82-46.28h17.1Z" transform="translate(-138.46 -294.87)"/><path id="path6936" class="cls-1" d="M637.65,515.3v-81H652.8v81Z" transform="translate(-138.46 -294.87)"/><path id="path6938" class="cls-1" d="M733,515.3V460.05c0-10.09-4.21-13.74-14.59-13.74-13.46,0-26.64,10.1-26.64,10.1V515.3H676.64V434.53h11.78L691.5,446s13.46-12.9,30.57-12.9c14.86,0,26.08,6.45,26.08,27.2v55Z" transform="translate(-138.46 -294.87)"/><path id="path6940" class="cls-1" d="M827.24,515.3l-1.69-10.1S817.14,517,799.47,517c-12.62,0-33.37-5.61-33.37-41.78,0-36.74,25.8-41.79,36.46-41.79,14.58,0,21.31,8.13,21.31,8.13V408.17H839V515.3Zm-3.37-62s-8.41-8.13-19.91-8.13c-11.22,0-22.72,4.49-22.72,29.73,0,26.64,11.78,29.72,21.32,29.72,10.93,0,21.31-9.25,21.31-9.25Z" transform="translate(-138.46 -294.87)"/><path id="path6942" class="cls-1" d="M885.85,516.7a69.59,69.59,0,0,1-25.24-4.48V499.31s15.7,5.05,25,5.05c8.13,0,16.26-1.4,16.26-11.5,0-7.57-5.6-9.25-12.62-11.21L882.76,480c-8.41-2.52-22.43-5.89-22.43-23,0-19.07,15.42-23.84,31.41-23.84,14.3,0,22.43,4.77,22.43,4.77v12.62a60.14,60.14,0,0,0-23-5c-10.1,0-16.55,2-16.55,10.66,0,7.57,5.89,9.25,12.9,11.21l7.85,2.25c9.26,2.52,21,7.85,21,23,.28,19.07-13.46,24.12-30.57,24.12Z" transform="translate(-138.46 -294.87)"/></g><g id="g6952"><path id="path6946" class="cls-2" d="M987.65,385.45a17.84,17.84,0,0,0,2-.56c15.43-4.48,30.29-10.37,45.44-16.54,14.58-6.17,28.88-13.47,41.78-23.84A93.29,93.29,0,0,0,1106,303.28c.84-2.24,2.52-5.89,2.52-8.41-20.19,27.76-100.68,30.57-100.68,30.57l19.07-17.39A265.81,265.81,0,0,0,873,358a145.46,145.46,0,0,1,81.61,36.46C965.5,391.06,976.71,388.54,987.65,385.45Z" transform="translate(-138.46 -294.87)"/><path id="path6948" class="cls-2" d="M1113.57,382.65s-74-5.61-151.16,19.07a156.13,156.13,0,0,1,25.52,36.18C1028.32,415.74,1084.69,386.86,1113.57,382.65Z" transform="translate(-138.46 -294.87)"/><path id="path6950" class="cls-2" d="M993,449.68a145,145,0,0,1,9.25,38.42l70.68-72.64Z" transform="translate(-138.46 -294.87)"/></g></g></g></svg>