<svg id="svg" version="1.1" xmlns="http://www.w3.org/2000/svg" xmlns:xlink="http://www.w3.org/1999/xlink" width="400" height="200.09995002498752" viewBox="0, 0, 400,200.09995002498752"><g id="svgg"><path id="path0" d="M10.195 51.474 C 10.195 74.230,10.197 74.363,10.595 74.363 C 10.861 74.363,10.995 74.496,10.995 74.763 C 10.995 75.096,11.128 75.162,11.794 75.162 C 12.460 75.162,12.594 75.229,12.594 75.562 C 12.594 75.903,12.727 75.962,13.493 75.962 C 14.260 75.962,14.393 76.021,14.393 76.362 C 14.393 76.628,14.526 76.762,14.793 76.762 C 15.059 76.762,15.192 76.895,15.192 77.161 C 15.192 77.495,15.326 77.561,15.992 77.561 C 16.712 77.561,16.792 77.611,16.792 78.061 C 16.792 78.520,16.865 78.561,17.691 78.561 C 18.457 78.561,18.591 78.620,18.591 78.961 C 18.591 79.227,18.724 79.360,18.991 79.360 C 19.257 79.360,19.390 79.494,19.390 79.760 C 19.390 80.093,19.524 80.160,20.190 80.160 C 20.856 80.160,20.990 80.227,20.990 80.560 C 20.990 80.893,21.123 80.960,21.789 80.960 C 22.455 80.960,22.589 81.026,22.589 81.359 C 22.589 81.653,22.722 81.759,23.088 81.759 C 23.455 81.759,23.588 81.866,23.588 82.159 C 23.588 82.492,23.721 82.559,24.388 82.559 C 25.107 82.559,25.187 82.609,25.187 83.058 C 25.187 83.508,25.267 83.558,25.987 83.558 C 26.653 83.558,26.787 83.625,26.787 83.958 C 26.787 84.299,26.920 84.358,27.686 84.358 C 28.452 84.358,28.586 84.417,28.586 84.758 C 28.586 85.091,28.719 85.157,29.385 85.157 C 30.052 85.157,30.185 85.224,30.185 85.557 C 30.185 85.824,30.318 85.957,30.585 85.957 C 30.851 85.957,30.985 86.090,30.985 86.357 C 30.985 86.690,31.118 86.757,31.784 86.757 C 32.450 86.757,32.584 86.823,32.584 87.156 C 32.584 87.497,32.717 87.556,33.483 87.556 C 34.310 87.556,34.383 87.597,34.383 88.056 C 34.383 88.422,34.489 88.556,34.783 88.556 C 35.049 88.556,35.182 88.689,35.182 88.956 C 35.182 89.289,35.316 89.355,35.982 89.355 C 36.648 89.355,36.782 89.422,36.782 89.755 C 36.782 90.096,36.915 90.155,37.681 90.155 C 38.447 90.155,38.581 90.214,38.581 90.555 C 38.581 90.888,38.714 90.955,39.380 90.955 C 40.047 90.955,40.180 91.021,40.180 91.354 C 40.180 91.621,40.313 91.754,40.580 91.754 C 40.846 91.754,40.980 91.887,40.980 92.154 C 40.980 92.487,41.113 92.554,41.779 92.554 C 42.499 92.554,42.579 92.604,42.579 93.053 C 42.579 93.513,42.652 93.553,43.478 93.553 C 44.245 93.553,44.378 93.612,44.378 93.953 C 44.378 94.220,44.511 94.353,44.778 94.353 C 45.044 94.353,45.177 94.486,45.177 94.753 C 45.177 95.086,45.311 95.152,45.977 95.152 C 46.643 95.152,46.777 95.219,46.777 95.552 C 46.777 95.893,46.910 95.952,47.676 95.952 C 48.442 95.952,48.576 96.011,48.576 96.352 C 48.576 96.685,48.709 96.752,49.375 96.752 C 50.042 96.752,50.175 96.685,50.175 96.352 C 50.175 96.085,50.042 95.952,49.775 95.952 C 49.378 95.952,49.375 95.819,49.375 73.863 C 49.375 51.907,49.378 51.774,49.775 51.774 C 50.042 51.774,50.175 51.641,50.175 51.374 C 50.175 51.041,50.042 50.975,49.375 50.975 C 48.709 50.975,48.576 50.908,48.576 50.575 C 48.576 50.234,48.442 50.175,47.676 50.175 C 46.910 50.175,46.777 50.116,46.777 49.775 C 46.777 49.442,46.643 49.375,45.977 49.375 C 45.311 49.375,45.177 49.309,45.177 48.976 C 45.177 48.709,45.044 48.576,44.778 48.576 C 44.484 48.576,44.378 48.442,44.378 48.076 C 44.378 47.617,44.305 47.576,43.478 47.576 C 42.712 47.576,42.579 47.517,42.579 47.176 C 42.579 46.843,42.445 46.777,41.779 46.777 C 41.113 46.777,40.980 46.710,40.980 46.377 C 40.980 46.110,40.846 45.977,40.580 45.977 C 40.313 45.977,40.180 45.844,40.180 45.577 C 40.180 45.244,40.047 45.177,39.380 45.177 C 38.714 45.177,38.581 45.111,38.581 44.778 C 38.581 44.437,38.447 44.378,37.681 44.378 C 36.915 44.378,36.782 44.319,36.782 43.978 C 36.782 43.711,36.648 43.578,36.382 43.578 C 36.089 43.578,35.982 43.445,35.982 43.078 C 35.982 42.629,35.902 42.579,35.182 42.579 C 34.516 42.579,34.383 42.512,34.383 42.179 C 34.383 41.838,34.250 41.779,33.483 41.779 C 32.717 41.779,32.584 41.720,32.584 41.379 C 32.584 41.046,32.450 40.980,31.784 40.980 C 31.118 40.980,30.985 40.913,30.985 40.580 C 30.985 40.247,30.851 40.180,30.185 40.180 C 29.519 40.180,29.385 40.113,29.385 39.780 C 29.385 39.514,29.252 39.380,28.986 39.380 C 28.719 39.380,28.586 39.247,28.586 38.981 C 28.586 38.640,28.452 38.581,27.686 38.581 C 26.860 38.581,26.787 38.540,26.787 38.081 C 26.787 37.631,26.707 37.581,25.987 37.581 C 25.321 37.581,25.187 37.515,25.187 37.181 C 25.187 36.848,25.054 36.782,24.388 36.782 C 23.721 36.782,23.588 36.715,23.588 36.382 C 23.588 36.089,23.455 35.982,23.088 35.982 C 22.722 35.982,22.589 35.875,22.589 35.582 C 22.589 35.249,22.455 35.182,21.789 35.182 C 21.123 35.182,20.990 35.116,20.990 34.783 C 20.990 34.516,20.856 34.383,20.590 34.383 C 20.323 34.383,20.190 34.250,20.190 33.983 C 20.190 33.650,20.057 33.583,19.390 33.583 C 18.671 33.583,18.591 33.533,18.591 33.083 C 18.591 32.624,18.517 32.584,17.691 32.584 C 16.925 32.584,16.792 32.524,16.792 32.184 C 16.792 31.851,16.658 31.784,15.992 31.784 C 15.326 31.784,15.192 31.717,15.192 31.384 C 15.192 31.118,15.059 30.985,14.793 30.985 C 14.526 30.985,14.393 30.851,14.393 30.585 C 14.393 30.244,14.260 30.185,13.493 30.185 C 12.727 30.185,12.594 30.126,12.594 29.785 C 12.594 29.452,12.460 29.385,11.794 29.385 C 11.128 29.385,10.995 29.319,10.995 28.986 C 10.995 28.719,10.861 28.586,10.595 28.586 C 10.197 28.586,10.195 28.719,10.195 51.474 M53.573 76.862 L 53.573 100.150 54.373 100.150 C 55.039 100.150,55.172 100.217,55.172 100.550 C 55.172 100.883,55.306 100.950,55.972 100.950 C 56.638 100.950,56.772 101.016,56.772 101.349 C 56.772 101.690,56.905 101.749,57.671 101.749 C 58.437 101.749,58.571 101.808,58.571 102.149 C 58.571 102.415,58.704 102.549,58.971 102.549 C 59.264 102.549,59.370 102.682,59.370 103.048 C 59.370 103.498,59.450 103.548,60.170 103.548 C 60.836 103.548,60.970 103.615,60.970 103.948 C 60.970 104.281,61.103 104.348,61.769 104.348 C 62.435 104.348,62.569 104.414,62.569 104.748 C 62.569 105.088,62.702 105.147,63.468 105.147 C 64.235 105.147,64.368 105.207,64.368 105.547 C 64.368 105.880,64.501 105.947,65.167 105.947 C 65.834 105.947,65.967 106.014,65.967 106.347 C 65.967 106.613,66.100 106.747,66.367 106.747 C 66.633 106.747,66.767 106.880,66.767 107.146 C 66.767 107.487,66.900 107.546,67.666 107.546 C 68.492 107.546,68.566 107.587,68.566 108.046 C 68.566 108.496,68.646 108.546,69.365 108.546 C 70.032 108.546,70.165 108.612,70.165 108.946 C 70.165 109.212,70.298 109.345,70.565 109.345 C 70.831 109.345,70.965 109.479,70.965 109.745 C 70.965 110.078,71.098 110.145,71.764 110.145 C 72.430 110.145,72.564 110.212,72.564 110.545 C 72.564 110.885,72.697 110.945,73.463 110.945 C 74.230 110.945,74.363 111.004,74.363 111.344 C 74.363 111.611,74.496 111.744,74.763 111.744 C 75.029 111.744,75.162 111.877,75.162 112.144 C 75.162 112.477,75.296 112.544,75.962 112.544 C 76.682 112.544,76.762 112.594,76.762 113.043 C 76.762 113.503,76.835 113.543,77.661 113.543 C 78.427 113.543,78.561 113.602,78.561 113.943 C 78.561 114.276,78.694 114.343,79.360 114.343 C 80.027 114.343,80.160 114.409,80.160 114.743 C 80.160 115.076,80.293 115.142,80.960 115.142 C 81.626 115.142,81.759 115.209,81.759 115.542 C 81.759 115.809,81.892 115.942,82.159 115.942 C 82.425 115.942,82.559 116.075,82.559 116.342 C 82.559 116.682,82.692 116.742,83.458 116.742 C 84.225 116.742,84.358 116.801,84.358 117.141 C 84.358 117.475,84.491 117.541,85.157 117.541 C 85.877 117.541,85.957 117.591,85.957 118.041 C 85.957 118.407,86.064 118.541,86.357 118.541 C 86.623 118.541,86.757 118.674,86.757 118.941 C 86.757 119.281,86.890 119.340,87.656 119.340 C 88.422 119.340,88.556 119.400,88.556 119.740 C 88.556 120.073,88.689 120.140,89.355 120.140 C 90.022 120.140,90.155 120.207,90.155 120.540 C 90.155 120.806,90.288 120.940,90.555 120.940 C 90.821 120.940,90.955 121.073,90.955 121.339 C 90.955 121.672,91.088 121.739,91.754 121.739 L 92.554 121.739 92.554 98.851 C 92.554 76.095,92.551 75.962,92.154 75.962 C 91.887 75.962,91.754 75.829,91.754 75.562 C 91.754 75.229,91.621 75.162,90.955 75.162 C 90.288 75.162,90.155 75.096,90.155 74.763 C 90.155 74.429,90.022 74.363,89.355 74.363 C 88.689 74.363,88.556 74.296,88.556 73.963 C 88.556 73.670,88.422 73.563,88.056 73.563 C 87.656 73.563,87.556 73.463,87.556 73.063 C 87.556 72.614,87.476 72.564,86.757 72.564 C 86.090 72.564,85.957 72.497,85.957 72.164 C 85.957 71.831,85.824 71.764,85.157 71.764 C 84.491 71.764,84.358 71.697,84.358 71.364 C 84.358 71.024,84.225 70.965,83.458 70.965 C 82.692 70.965,82.559 70.905,82.559 70.565 C 82.559 70.232,82.425 70.165,81.759 70.165 C 81.093 70.165,80.960 70.098,80.960 69.765 C 80.960 69.499,80.826 69.365,80.560 69.365 C 80.293 69.365,80.160 69.232,80.160 68.966 C 80.160 68.632,80.027 68.566,79.360 68.566 C 78.641 68.566,78.561 68.516,78.561 68.066 C 78.561 67.607,78.487 67.566,77.661 67.566 C 76.895 67.566,76.762 67.507,76.762 67.166 C 76.762 66.833,76.628 66.767,75.962 66.767 C 75.296 66.767,75.162 66.700,75.162 66.367 C 75.162 66.100,75.029 65.967,74.763 65.967 C 74.496 65.967,74.363 65.834,74.363 65.567 C 74.363 65.227,74.230 65.167,73.463 65.167 C 72.697 65.167,72.564 65.108,72.564 64.768 C 72.564 64.501,72.430 64.368,72.164 64.368 C 71.897 64.368,71.764 64.235,71.764 63.968 C 71.764 63.635,71.631 63.568,70.965 63.568 C 70.245 63.568,70.165 63.518,70.165 63.068 C 70.165 62.619,70.085 62.569,69.365 62.569 C 68.699 62.569,68.566 62.502,68.566 62.169 C 68.566 61.828,68.432 61.769,67.666 61.769 C 66.900 61.769,66.767 61.710,66.767 61.369 C 66.767 61.103,66.633 60.970,66.367 60.970 C 66.100 60.970,65.967 60.836,65.967 60.570 C 65.967 60.237,65.834 60.170,65.167 60.170 C 64.501 60.170,64.368 60.103,64.368 59.770 C 64.368 59.430,64.235 59.370,63.468 59.370 C 62.702 59.370,62.569 59.311,62.569 58.971 C 62.569 58.637,62.435 58.571,61.769 58.571 C 61.049 58.571,60.970 58.521,60.970 58.071 C 60.970 57.621,60.890 57.571,60.170 57.571 C 59.504 57.571,59.370 57.505,59.370 57.171 C 59.370 56.905,59.237 56.772,58.971 56.772 C 58.704 56.772,58.571 56.638,58.571 56.372 C 58.571 56.031,58.437 55.972,57.671 55.972 C 56.905 55.972,56.772 55.913,56.772 55.572 C 56.772 55.239,56.638 55.172,55.972 55.172 C 55.306 55.172,55.172 55.106,55.172 54.773 C 55.172 54.506,55.039 54.373,54.773 54.373 C 54.506 54.373,54.373 54.240,54.373 53.973 C 54.373 53.706,54.240 53.573,53.973 53.573 C 53.576 53.573,53.573 53.706,53.573 76.862 M53.573 126.437 C 53.573 149.192,53.576 149.325,53.973 149.325 C 54.240 149.325,54.373 149.459,54.373 149.725 C 54.373 150.058,54.506 150.125,55.172 150.125 C 55.839 150.125,55.972 150.192,55.972 150.525 C 55.972 150.858,56.105 150.925,56.772 150.925 C 57.438 150.925,57.571 150.991,57.571 151.324 C 57.571 151.665,57.704 151.724,58.471 151.724 C 59.237 151.724,59.370 151.783,59.370 152.124 C 59.370 152.390,59.504 152.524,59.770 152.524 C 60.063 152.524,60.170 152.657,60.170 153.023 C 60.170 153.473,60.250 153.523,60.970 153.523 C 61.636 153.523,61.769 153.590,61.769 153.923 C 61.769 154.264,61.902 154.323,62.669 154.323 C 63.435 154.323,63.568 154.382,63.568 154.723 C 63.568 154.989,63.701 155.122,63.968 155.122 C 64.235 155.122,64.368 155.256,64.368 155.522 C 64.368 155.855,64.501 155.922,65.167 155.922 C 65.834 155.922,65.967 155.989,65.967 156.322 C 65.967 156.655,66.100 156.722,66.767 156.722 C 67.433 156.722,67.566 156.788,67.566 157.121 C 67.566 157.462,67.699 157.521,68.466 157.521 C 69.292 157.521,69.365 157.562,69.365 158.021 C 69.365 158.387,69.472 158.521,69.765 158.521 C 70.032 158.521,70.165 158.654,70.165 158.921 C 70.165 159.254,70.298 159.320,70.965 159.320 C 71.631 159.320,71.764 159.387,71.764 159.720 C 71.764 160.061,71.897 160.120,72.664 160.120 C 73.430 160.120,73.563 160.179,73.563 160.520 C 73.563 160.786,73.696 160.920,73.963 160.920 C 74.230 160.920,74.363 161.053,74.363 161.319 C 74.363 161.653,74.496 161.719,75.162 161.719 C 75.829 161.719,75.962 161.786,75.962 162.119 C 75.962 162.452,76.095 162.519,76.762 162.519 C 77.481 162.519,77.561 162.569,77.561 163.018 C 77.561 163.478,77.635 163.518,78.461 163.518 C 79.227 163.518,79.360 163.577,79.360 163.918 C 79.360 164.251,79.494 164.318,80.160 164.318 C 80.826 164.318,80.960 164.384,80.960 164.718 C 80.960 164.984,81.093 165.117,81.359 165.117 C 81.626 165.117,81.759 165.251,81.759 165.517 C 81.759 165.858,81.892 165.917,82.659 165.917 C 83.425 165.917,83.558 165.976,83.558 166.317 C 83.558 166.650,83.691 166.717,84.358 166.717 C 85.024 166.717,85.157 166.783,85.157 167.116 C 85.157 167.383,85.291 167.516,85.557 167.516 C 85.850 167.516,85.957 167.650,85.957 168.016 C 85.957 168.466,86.037 168.516,86.757 168.516 C 87.423 168.516,87.556 168.582,87.556 168.916 C 87.556 169.256,87.689 169.315,88.456 169.315 C 89.222 169.315,89.355 169.375,89.355 169.715 C 89.355 169.982,89.489 170.115,89.755 170.115 C 90.022 170.115,90.155 170.248,90.155 170.515 C 90.155 170.848,90.288 170.915,90.955 170.915 C 91.621 170.915,91.754 170.981,91.754 171.314 C 91.754 171.581,91.887 171.714,92.154 171.714 C 92.551 171.714,92.554 171.581,92.554 148.826 C 92.554 126.070,92.551 125.937,92.154 125.937 C 91.887 125.937,91.754 125.804,91.754 125.537 C 91.754 125.204,91.621 125.137,90.955 125.137 C 90.288 125.137,90.155 125.071,90.155 124.738 C 90.155 124.471,90.022 124.338,89.755 124.338 C 89.489 124.338,89.355 124.205,89.355 123.938 C 89.355 123.597,89.222 123.538,88.456 123.538 C 87.630 123.538,87.556 123.498,87.556 123.038 C 87.556 122.672,87.450 122.539,87.156 122.539 C 86.890 122.539,86.757 122.405,86.757 122.139 C 86.757 121.806,86.623 121.739,85.957 121.739 C 85.291 121.739,85.157 121.672,85.157 121.339 C 85.157 121.006,85.024 120.940,84.358 120.940 C 83.691 120.940,83.558 120.873,83.558 120.540 C 83.558 120.199,83.425 120.140,82.659 120.140 C 81.892 120.140,81.759 120.081,81.759 119.740 C 81.759 119.474,81.626 119.340,81.359 119.340 C 81.093 119.340,80.960 119.207,80.960 118.941 C 80.960 118.607,80.826 118.541,80.160 118.541 C 79.440 118.541,79.360 118.491,79.360 118.041 C 79.360 117.582,79.287 117.541,78.461 117.541 C 77.694 117.541,77.561 117.482,77.561 117.141 C 77.561 116.808,77.428 116.742,76.762 116.742 C 76.095 116.742,75.962 116.675,75.962 116.342 C 75.962 116.009,75.829 115.942,75.162 115.942 C 74.496 115.942,74.363 115.875,74.363 115.542 C 74.363 115.276,74.230 115.142,73.963 115.142 C 73.696 115.142,73.563 115.009,73.563 114.743 C 73.563 114.402,73.430 114.343,72.664 114.343 C 71.897 114.343,71.764 114.284,71.764 113.943 C 71.764 113.610,71.631 113.543,70.965 113.543 C 70.245 113.543,70.165 113.493,70.165 113.043 C 70.165 112.677,70.058 112.544,69.765 112.544 C 69.499 112.544,69.365 112.410,69.365 112.144 C 69.365 111.803,69.232 111.744,68.466 111.744 C 67.699 111.744,67.566 111.685,67.566 111.344 C 67.566 111.011,67.433 110.945,66.767 110.945 C 66.100 110.945,65.967 110.878,65.967 110.545 C 65.967 110.278,65.834 110.145,65.567 110.145 C 65.301 110.145,65.167 110.012,65.167 109.745 C 65.167 109.412,65.034 109.345,64.368 109.345 C 63.701 109.345,63.568 109.279,63.568 108.946 C 63.568 108.605,63.435 108.546,62.669 108.546 C 61.842 108.546,61.769 108.505,61.769 108.046 C 61.769 107.596,61.689 107.546,60.970 107.546 C 60.303 107.546,60.170 107.480,60.170 107.146 C 60.170 106.813,60.037 106.747,59.370 106.747 C 58.704 106.747,58.571 106.680,58.571 106.347 C 58.571 106.054,58.437 105.947,58.071 105.947 C 57.704 105.947,57.571 105.840,57.571 105.547 C 57.571 105.214,57.438 105.147,56.772 105.147 C 56.105 105.147,55.972 105.081,55.972 104.748 C 55.972 104.414,55.839 104.348,55.172 104.348 C 54.506 104.348,54.373 104.281,54.373 103.948 C 54.373 103.681,54.240 103.548,53.973 103.548 C 53.576 103.548,53.573 103.681,53.573 126.437 " stroke="none" fill="#5c4ce4" fill-rule="evenodd"></path><path id="path1" d="M29.385 39.780 C 29.385 40.047,29.519 40.180,29.785 40.180 C 30.052 40.180,30.185 40.047,30.185 39.780 C 30.185 39.514,30.052 39.380,29.785 39.380 C 29.519 39.380,29.385 39.514,29.385 39.780 M49.375 73.863 C 49.375 95.819,49.378 95.952,49.775 95.952 C 50.173 95.952,50.175 95.819,50.175 73.863 C 50.175 51.907,50.173 51.774,49.775 51.774 C 49.378 51.774,49.375 51.907,49.375 73.863 M133.533 54.773 C 133.533 55.113,133.400 55.172,132.634 55.172 C 131.867 55.172,131.734 55.232,131.734 55.572 C 131.734 55.839,131.601 55.972,131.334 55.972 C 131.068 55.972,130.935 56.105,130.935 56.372 C 130.935 56.705,130.801 56.772,130.135 56.772 C 129.469 56.772,129.335 56.838,129.335 57.171 C 129.335 57.512,129.202 57.571,128.436 57.571 C 127.610 57.571,127.536 57.612,127.536 58.071 C 127.536 58.521,127.456 58.571,126.737 58.571 C 126.070 58.571,125.937 58.637,125.937 58.971 C 125.937 59.237,125.804 59.370,125.537 59.370 C 125.271 59.370,125.137 59.504,125.137 59.770 C 125.137 60.103,125.004 60.170,124.338 60.170 C 123.671 60.170,123.538 60.237,123.538 60.570 C 123.538 60.910,123.405 60.970,122.639 60.970 C 121.872 60.970,121.739 61.029,121.739 61.369 C 121.739 61.702,121.606 61.769,120.940 61.769 C 120.273 61.769,120.140 61.836,120.140 62.169 C 120.140 62.435,120.007 62.569,119.740 62.569 C 119.447 62.569,119.340 62.702,119.340 63.068 C 119.340 63.527,119.267 63.568,118.441 63.568 C 117.674 63.568,117.541 63.627,117.541 63.968 C 117.541 64.301,117.408 64.368,116.742 64.368 C 116.075 64.368,115.942 64.434,115.942 64.768 C 115.942 65.101,115.809 65.167,115.142 65.167 C 114.476 65.167,114.343 65.234,114.343 65.567 C 114.343 65.834,114.210 65.967,113.943 65.967 C 113.676 65.967,113.543 66.100,113.543 66.367 C 113.543 66.707,113.410 66.767,112.644 66.767 C 111.877 66.767,111.744 66.826,111.744 67.166 C 111.744 67.500,111.611 67.566,110.945 67.566 C 110.225 67.566,110.145 67.616,110.145 68.066 C 110.145 68.432,110.038 68.566,109.745 68.566 C 109.479 68.566,109.345 68.699,109.345 68.966 C 109.345 69.306,109.212 69.365,108.446 69.365 C 107.679 69.365,107.546 69.425,107.546 69.765 C 107.546 70.098,107.413 70.165,106.747 70.165 C 106.080 70.165,105.947 70.232,105.947 70.565 C 105.947 70.898,105.814 70.965,105.147 70.965 C 104.481 70.965,104.348 71.031,104.348 71.364 C 104.348 71.631,104.215 71.764,103.948 71.764 C 103.681 71.764,103.548 71.897,103.548 72.164 C 103.548 72.504,103.415 72.564,102.649 72.564 C 101.822 72.564,101.749 72.604,101.749 73.063 C 101.749 73.513,101.669 73.563,100.950 73.563 C 100.283 73.563,100.150 73.630,100.150 73.963 C 100.150 74.296,100.017 74.363,99.350 74.363 C 98.684 74.363,98.551 74.429,98.551 74.763 C 98.551 75.056,98.417 75.162,98.051 75.162 C 97.684 75.162,97.551 75.269,97.551 75.562 C 97.551 75.895,97.418 75.962,96.752 75.962 L 95.952 75.962 95.952 98.851 L 95.952 121.739 96.752 121.739 C 97.418 121.739,97.551 121.672,97.551 121.339 C 97.551 120.999,97.684 120.940,98.451 120.940 C 99.217 120.940,99.350 120.880,99.350 120.540 C 99.350 120.273,99.484 120.140,99.750 120.140 C 100.017 120.140,100.150 120.007,100.150 119.740 C 100.150 119.407,100.283 119.340,100.950 119.340 C 101.616 119.340,101.749 119.274,101.749 118.941 C 101.749 118.600,101.882 118.541,102.649 118.541 C 103.475 118.541,103.548 118.500,103.548 118.041 C 103.548 117.674,103.655 117.541,103.948 117.541 C 104.215 117.541,104.348 117.408,104.348 117.141 C 104.348 116.808,104.481 116.742,105.147 116.742 C 105.814 116.742,105.947 116.675,105.947 116.342 C 105.947 116.009,106.080 115.942,106.747 115.942 C 107.413 115.942,107.546 115.875,107.546 115.542 C 107.546 115.202,107.679 115.142,108.446 115.142 C 109.212 115.142,109.345 115.083,109.345 114.743 C 109.345 114.476,109.479 114.343,109.745 114.343 C 110.012 114.343,110.145 114.210,110.145 113.943 C 110.145 113.610,110.278 113.543,110.945 113.543 C 111.664 113.543,111.744 113.493,111.744 113.043 C 111.744 112.584,111.817 112.544,112.644 112.544 C 113.410 112.544,113.543 112.484,113.543 112.144 C 113.543 111.811,113.676 111.744,114.343 111.744 C 115.009 111.744,115.142 111.677,115.142 111.344 C 115.142 111.078,115.276 110.945,115.542 110.945 C 115.809 110.945,115.942 110.811,115.942 110.545 C 115.942 110.212,116.075 110.145,116.742 110.145 C 117.408 110.145,117.541 110.078,117.541 109.745 C 117.541 109.405,117.674 109.345,118.441 109.345 C 119.207 109.345,119.340 109.286,119.340 108.946 C 119.340 108.612,119.474 108.546,120.140 108.546 C 120.860 108.546,120.940 108.496,120.940 108.046 C 120.940 107.679,121.046 107.546,121.339 107.546 C 121.606 107.546,121.739 107.413,121.739 107.146 C 121.739 106.806,121.872 106.747,122.639 106.747 C 123.405 106.747,123.538 106.687,123.538 106.347 C 123.538 106.014,123.671 105.947,124.338 105.947 C 125.004 105.947,125.137 105.880,125.137 105.547 C 125.137 105.281,125.271 105.147,125.537 105.147 C 125.804 105.147,125.937 105.014,125.937 104.748 C 125.937 104.414,126.070 104.348,126.737 104.348 C 127.403 104.348,127.536 104.281,127.536 103.948 C 127.536 103.607,127.669 103.548,128.436 103.548 C 129.262 103.548,129.335 103.508,129.335 103.048 C 129.335 102.599,129.415 102.549,130.135 102.549 C 130.801 102.549,130.935 102.482,130.935 102.149 C 130.935 101.882,131.068 101.749,131.334 101.749 C 131.601 101.749,131.734 101.616,131.734 101.349 C 131.734 101.009,131.867 100.950,132.634 100.950 C 133.400 100.950,133.533 100.890,133.533 100.550 C 133.533 100.217,133.667 100.150,134.333 100.150 C 134.999 100.150,135.132 100.083,135.132 99.750 C 135.132 99.484,135.266 99.350,135.532 99.350 C 135.930 99.350,135.932 99.217,135.932 76.862 L 135.932 54.373 134.733 54.373 C 133.667 54.373,133.533 54.417,133.533 54.773 M80.960 69.765 C 80.960 70.032,81.093 70.165,81.359 70.165 C 81.626 70.165,81.759 70.032,81.759 69.765 C 81.759 69.499,81.626 69.365,81.359 69.365 C 81.093 69.365,80.960 69.499,80.960 69.765 M13.593 76.362 C 13.593 76.628,13.726 76.762,13.993 76.762 C 14.260 76.762,14.393 76.628,14.393 76.362 C 14.393 76.095,14.260 75.962,13.993 75.962 C 13.726 75.962,13.593 76.095,13.593 76.362 M29.385 85.557 C 29.385 85.824,29.519 85.957,29.785 85.957 C 30.052 85.957,30.185 85.824,30.185 85.557 C 30.185 85.291,30.052 85.157,29.785 85.157 C 29.519 85.157,29.385 85.291,29.385 85.557 M58.571 106.347 C 58.571 106.613,58.704 106.747,58.971 106.747 C 59.237 106.747,59.370 106.613,59.370 106.347 C 59.370 106.080,59.237 105.947,58.971 105.947 C 58.704 105.947,58.571 106.080,58.571 106.347 M65.167 106.347 C 65.167 106.613,65.301 106.747,65.567 106.747 C 65.834 106.747,65.967 106.613,65.967 106.347 C 65.967 106.080,65.834 105.947,65.567 105.947 C 65.301 105.947,65.167 106.080,65.167 106.347 M80.960 115.542 C 80.960 115.809,81.093 115.942,81.359 115.942 C 81.626 115.942,81.759 115.809,81.759 115.542 C 81.759 115.276,81.626 115.142,81.359 115.142 C 81.093 115.142,80.960 115.276,80.960 115.542 M58.571 152.124 C 58.571 152.390,58.704 152.524,58.971 152.524 C 59.237 152.524,59.370 152.390,59.370 152.124 C 59.370 151.857,59.237 151.724,58.971 151.724 C 58.704 151.724,58.571 151.857,58.571 152.124 M80.160 164.718 C 80.160 164.984,80.293 165.117,80.560 165.117 C 80.826 165.117,80.960 164.984,80.960 164.718 C 80.960 164.451,80.826 164.318,80.560 164.318 C 80.293 164.318,80.160 164.451,80.160 164.718 " stroke="none" fill="#4343b4" fill-rule="evenodd"></path><path id="path2" d="M280.060 76.362 C 280.060 76.721,279.927 76.762,278.761 76.762 C 277.595 76.762,277.461 76.803,277.461 77.161 C 277.461 77.428,277.328 77.561,277.061 77.561 C 276.768 77.561,276.662 77.694,276.662 78.061 C 276.662 78.427,276.555 78.561,276.262 78.561 C 275.995 78.561,275.862 78.694,275.862 78.961 C 275.862 79.227,275.729 79.360,275.462 79.360 C 275.196 79.360,275.062 79.494,275.062 79.760 C 275.062 80.027,274.929 80.160,274.663 80.160 C 274.307 80.160,274.263 80.293,274.263 81.359 C 274.263 82.425,274.218 82.559,273.863 82.559 C 273.476 82.559,273.463 82.692,273.463 86.757 L 273.463 90.955 270.965 90.955 L 268.466 90.955 268.466 94.253 L 268.466 97.551 270.965 97.551 L 273.463 97.551 273.463 110.545 L 273.463 123.538 277.961 123.538 L 282.459 123.538 282.459 110.545 L 282.459 97.551 286.257 97.551 L 290.055 97.551 290.055 93.853 L 290.055 90.155 286.257 90.155 L 282.459 90.155 282.459 87.256 L 282.459 84.358 282.959 84.358 C 283.325 84.358,283.458 84.251,283.458 83.958 C 283.458 83.577,283.592 83.558,286.357 83.558 C 289.122 83.558,289.255 83.577,289.255 83.958 C 289.255 84.291,289.389 84.358,290.055 84.358 L 290.855 84.358 290.855 80.960 C 290.855 77.694,290.870 77.561,291.254 77.561 C 291.521 77.561,291.654 77.428,291.654 77.161 C 291.654 76.795,291.521 76.762,290.055 76.762 C 288.589 76.762,288.456 76.728,288.456 76.362 C 288.456 75.975,288.323 75.962,284.258 75.962 C 280.193 75.962,280.060 75.975,280.060 76.362 M145.127 82.659 L 145.127 86.757 150.925 86.757 L 156.722 86.757 156.722 105.147 L 156.722 123.538 161.319 123.538 L 165.917 123.538 165.917 105.147 L 165.917 86.757 172.214 86.757 L 178.511 86.757 178.511 82.659 L 178.511 78.561 161.819 78.561 L 145.127 78.561 145.127 82.659 M179.310 90.555 C 179.310 90.914,179.177 90.955,178.011 90.955 C 176.845 90.955,176.712 90.996,176.712 91.354 C 176.712 91.687,176.578 91.754,175.912 91.754 C 175.246 91.754,175.112 91.821,175.112 92.154 C 175.112 92.420,174.979 92.554,174.713 92.554 C 174.419 92.554,174.313 92.687,174.313 93.053 C 174.313 93.420,174.206 93.553,173.913 93.553 C 173.647 93.553,173.513 93.686,173.513 93.953 C 173.513 94.246,173.380 94.353,173.013 94.353 C 172.564 94.353,172.514 94.433,172.514 95.152 C 172.514 95.819,172.447 95.952,172.114 95.952 C 171.755 95.952,171.714 96.085,171.714 97.251 C 171.714 98.417,171.673 98.551,171.314 98.551 C 170.921 98.551,170.915 98.684,170.915 107.246 C 170.915 115.809,170.921 115.942,171.314 115.942 C 171.673 115.942,171.714 116.075,171.714 117.241 C 171.714 118.407,171.755 118.541,172.114 118.541 C 172.447 118.541,172.514 118.674,172.514 119.340 C 172.514 120.060,172.564 120.140,173.013 120.140 C 173.380 120.140,173.513 120.247,173.513 120.540 C 173.513 120.806,173.647 120.940,173.913 120.940 C 174.180 120.940,174.313 121.073,174.313 121.339 C 174.313 121.672,174.446 121.739,175.112 121.739 C 175.779 121.739,175.912 121.806,175.912 122.139 C 175.912 122.472,176.045 122.539,176.712 122.539 C 177.431 122.539,177.511 122.589,177.511 123.038 C 177.511 123.532,177.531 123.538,179.210 123.538 C 180.776 123.538,180.910 123.570,180.910 123.938 C 180.910 124.325,181.043 124.338,185.107 124.338 C 189.172 124.338,189.305 124.325,189.305 123.938 C 189.305 123.564,189.439 123.538,191.404 123.538 L 193.503 123.538 193.503 123.038 C 193.503 122.547,193.530 122.539,195.102 122.539 L 196.702 122.539 196.702 120.040 C 196.702 117.674,196.680 117.541,196.302 117.541 C 195.946 117.541,195.902 117.408,195.902 116.342 L 195.902 115.142 194.703 115.142 C 193.637 115.142,193.503 115.187,193.503 115.542 C 193.503 115.911,193.370 115.942,191.804 115.942 C 190.238 115.942,190.105 115.973,190.105 116.342 C 190.105 116.728,189.972 116.742,186.307 116.742 C 182.642 116.742,182.509 116.728,182.509 116.342 C 182.509 116.009,182.375 115.942,181.709 115.942 C 181.043 115.942,180.910 115.875,180.910 115.542 C 180.910 115.276,180.776 115.142,180.510 115.142 C 180.131 115.142,180.110 115.009,180.110 112.644 L 180.110 110.145 188.806 110.145 L 197.501 110.145 197.501 103.848 C 197.501 97.684,197.493 97.551,197.101 97.551 C 196.768 97.551,196.702 97.418,196.702 96.752 C 196.702 96.085,196.635 95.952,196.302 95.952 C 195.969 95.952,195.902 95.819,195.902 95.152 C 195.902 94.486,195.835 94.353,195.502 94.353 C 195.236 94.353,195.102 94.220,195.102 93.953 C 195.102 93.686,194.969 93.553,194.703 93.553 C 194.409 93.553,194.303 93.420,194.303 93.053 C 194.303 92.687,194.196 92.554,193.903 92.554 C 193.637 92.554,193.503 92.420,193.503 92.154 C 193.503 91.861,193.370 91.754,193.003 91.754 C 192.637 91.754,192.504 91.648,192.504 91.354 C 192.504 90.999,192.370 90.955,191.304 90.955 C 190.238 90.955,190.105 90.910,190.105 90.555 C 190.105 90.165,189.972 90.155,184.708 90.155 C 179.444 90.155,179.310 90.165,179.310 90.555 M201.699 106.847 L 201.699 123.538 206.297 123.538 L 210.895 123.538 210.895 113.043 C 210.895 102.682,210.900 102.549,211.294 102.549 C 211.561 102.549,211.694 102.415,211.694 102.149 C 211.694 101.882,211.827 101.749,212.094 101.749 C 212.360 101.749,212.494 101.616,212.494 101.349 C 212.494 101.009,212.627 100.950,213.393 100.950 C 214.160 100.950,214.293 100.890,214.293 100.550 C 214.293 100.217,214.426 100.150,215.092 100.150 C 215.759 100.150,215.892 100.083,215.892 99.750 C 215.892 99.417,216.025 99.350,216.692 99.350 C 217.358 99.350,217.491 99.284,217.491 98.951 C 217.491 98.610,217.625 98.551,218.391 98.551 L 219.290 98.551 219.290 96.452 C 219.290 94.486,219.265 94.353,218.891 94.353 C 218.516 94.353,218.491 94.220,218.491 92.254 L 218.491 90.155 217.191 90.155 C 216.025 90.155,215.892 90.196,215.892 90.555 C 215.892 90.888,215.759 90.955,215.092 90.955 C 214.426 90.955,214.293 91.021,214.293 91.354 C 214.293 91.695,214.160 91.754,213.393 91.754 C 212.627 91.754,212.494 91.813,212.494 92.154 C 212.494 92.487,212.360 92.554,211.694 92.554 C 210.975 92.554,210.895 92.604,210.895 93.053 C 210.895 93.420,210.788 93.553,210.495 93.553 C 210.202 93.553,210.095 93.420,210.095 93.053 C 210.095 92.687,209.988 92.554,209.695 92.554 C 209.340 92.554,209.295 92.420,209.295 91.354 L 209.295 90.155 205.497 90.155 L 201.699 90.155 201.699 106.847 M221.689 106.847 L 221.689 123.538 225.887 123.538 L 230.085 123.538 230.085 113.043 C 230.085 102.682,230.090 102.549,230.485 102.549 C 230.751 102.549,230.885 102.415,230.885 102.149 C 230.885 101.816,231.018 101.749,231.684 101.749 C 232.350 101.749,232.484 101.682,232.484 101.349 C 232.484 101.009,232.617 100.950,233.383 100.950 C 234.150 100.950,234.283 100.890,234.283 100.550 C 234.283 100.217,234.416 100.150,235.082 100.150 C 235.749 100.150,235.882 100.083,235.882 99.750 C 235.882 99.484,236.015 99.350,236.282 99.350 C 236.548 99.350,236.682 99.217,236.682 98.951 C 236.682 98.610,236.815 98.551,237.581 98.551 L 238.481 98.551 238.481 94.353 L 238.481 90.155 236.782 90.155 C 235.216 90.155,235.082 90.186,235.082 90.555 C 235.082 90.888,234.949 90.955,234.283 90.955 C 233.617 90.955,233.483 91.021,233.483 91.354 C 233.483 91.695,233.350 91.754,232.584 91.754 C 231.817 91.754,231.684 91.813,231.684 92.154 C 231.684 92.487,231.551 92.554,230.885 92.554 C 230.165 92.554,230.085 92.604,230.085 93.053 C 230.085 93.420,229.978 93.553,229.685 93.553 C 229.317 93.553,229.285 93.420,229.285 91.854 L 229.285 90.155 225.487 90.155 L 221.689 90.155 221.689 106.847 M245.077 90.555 C 245.077 90.929,244.944 90.955,242.979 90.955 L 240.880 90.955 240.880 93.053 C 240.880 95.019,240.905 95.152,241.279 95.152 C 241.648 95.152,241.679 95.286,241.679 96.852 L 241.679 98.551 243.378 98.551 C 245.057 98.551,245.077 98.545,245.077 98.051 L 245.077 97.551 250.075 97.551 L 255.072 97.551 255.072 98.051 C 255.072 98.417,255.179 98.551,255.472 98.551 C 255.739 98.551,255.872 98.684,255.872 98.951 C 255.872 99.217,256.005 99.350,256.272 99.350 C 256.653 99.350,256.672 99.484,256.672 102.249 L 256.672 105.147 250.475 105.147 C 244.411 105.147,244.278 105.156,244.278 105.547 C 244.278 105.888,244.145 105.947,243.378 105.947 C 242.612 105.947,242.479 106.006,242.479 106.347 C 242.479 106.613,242.345 106.747,242.079 106.747 C 241.812 106.747,241.679 106.880,241.679 107.146 C 241.679 107.413,241.546 107.546,241.279 107.546 C 240.939 107.546,240.880 107.679,240.880 108.446 C 240.880 109.212,240.820 109.345,240.480 109.345 C 240.091 109.345,240.080 109.479,240.080 114.343 C 240.080 119.207,240.091 119.340,240.480 119.340 C 240.813 119.340,240.880 119.474,240.880 120.140 C 240.880 120.806,240.946 120.940,241.279 120.940 C 241.546 120.940,241.679 121.073,241.679 121.339 C 241.679 121.606,241.812 121.739,242.079 121.739 C 242.345 121.739,242.479 121.872,242.479 122.139 C 242.479 122.432,242.612 122.539,242.979 122.539 C 243.378 122.539,243.478 122.639,243.478 123.038 C 243.478 123.516,243.532 123.538,244.678 123.538 C 245.744 123.538,245.877 123.583,245.877 123.938 C 245.877 124.319,246.010 124.338,248.776 124.338 C 251.541 124.338,251.674 124.319,251.674 123.938 C 251.674 123.570,251.807 123.538,253.373 123.538 C 255.052 123.538,255.072 123.532,255.072 123.038 C 255.072 122.589,255.152 122.539,255.872 122.539 C 256.538 122.539,256.672 122.472,256.672 122.139 C 256.672 121.798,256.805 121.739,257.571 121.739 L 258.471 121.739 258.471 122.639 L 258.471 123.538 262.169 123.538 L 265.867 123.538 265.867 111.044 C 265.867 98.684,265.863 98.551,265.467 98.551 C 265.099 98.551,265.067 98.417,265.067 96.852 C 265.067 95.286,265.036 95.152,264.668 95.152 C 264.334 95.152,264.268 95.019,264.268 94.353 C 264.268 93.686,264.201 93.553,263.868 93.553 C 263.575 93.553,263.468 93.420,263.468 93.053 C 263.468 92.654,263.368 92.554,262.969 92.554 C 262.602 92.554,262.469 92.447,262.469 92.154 C 262.469 91.821,262.335 91.754,261.669 91.754 C 261.003 91.754,260.870 91.687,260.870 91.354 C 260.870 90.999,260.736 90.955,259.670 90.955 C 258.604 90.955,258.471 90.910,258.471 90.555 C 258.471 90.163,258.337 90.155,251.774 90.155 C 245.211 90.155,245.077 90.163,245.077 90.555 M300.050 90.555 C 300.050 90.914,299.917 90.955,298.751 90.955 C 297.585 90.955,297.451 90.996,297.451 91.354 C 297.451 91.687,297.318 91.754,296.652 91.754 C 295.985 91.754,295.852 91.821,295.852 92.154 C 295.852 92.420,295.719 92.554,295.452 92.554 C 295.159 92.554,295.052 92.687,295.052 93.053 C 295.052 93.420,294.946 93.553,294.653 93.553 C 294.386 93.553,294.253 93.686,294.253 93.953 C 294.253 94.220,294.120 94.353,293.853 94.353 C 293.587 94.353,293.453 94.486,293.453 94.753 C 293.453 95.046,293.320 95.152,292.954 95.152 C 292.476 95.152,292.454 95.206,292.454 96.352 C 292.454 97.418,292.409 97.551,292.054 97.551 C 291.660 97.551,291.654 97.684,291.654 107.146 C 291.654 116.608,291.660 116.742,292.054 116.742 C 292.395 116.742,292.454 116.875,292.454 117.641 C 292.454 118.467,292.494 118.541,292.954 118.541 C 293.320 118.541,293.453 118.647,293.453 118.941 C 293.453 119.207,293.587 119.340,293.853 119.340 C 294.186 119.340,294.253 119.474,294.253 120.140 L 294.253 120.940 295.052 120.940 C 295.719 120.940,295.852 121.006,295.852 121.339 C 295.852 121.606,295.985 121.739,296.252 121.739 C 296.518 121.739,296.652 121.872,296.652 122.139 C 296.652 122.480,296.785 122.539,297.551 122.539 C 298.377 122.539,298.451 122.579,298.451 123.038 C 298.451 123.530,298.477 123.538,300.050 123.538 C 301.516 123.538,301.649 123.572,301.649 123.938 C 301.649 124.324,301.782 124.338,305.447 124.338 C 309.112 124.338,309.245 124.324,309.245 123.938 C 309.245 123.564,309.379 123.538,311.344 123.538 L 313.443 123.538 313.443 123.038 C 313.443 122.589,313.523 122.539,314.243 122.539 C 314.909 122.539,315.042 122.472,315.042 122.139 C 315.042 121.872,315.176 121.739,315.442 121.739 C 315.709 121.739,315.842 121.606,315.842 121.339 C 315.842 121.073,315.975 120.940,316.242 120.940 C 316.508 120.940,316.642 120.806,316.642 120.540 C 316.642 120.273,316.775 120.140,317.041 120.140 C 317.308 120.140,317.441 120.007,317.441 119.740 C 317.441 119.447,317.575 119.340,317.941 119.340 C 318.400 119.340,318.441 119.267,318.441 118.441 C 318.441 117.674,318.500 117.541,318.841 117.541 C 319.174 117.541,319.240 117.408,319.240 116.742 C 319.240 116.075,319.307 115.942,319.640 115.942 C 320.034 115.942,320.040 115.809,320.040 107.246 C 320.040 98.684,320.034 98.551,319.640 98.551 C 319.281 98.551,319.240 98.417,319.240 97.251 C 319.240 96.085,319.199 95.952,318.841 95.952 C 318.507 95.952,318.441 95.819,318.441 95.152 C 318.441 94.433,318.391 94.353,317.941 94.353 C 317.575 94.353,317.441 94.246,317.441 93.953 C 317.441 93.686,317.308 93.553,317.041 93.553 C 316.748 93.553,316.642 93.420,316.642 93.053 C 316.642 92.604,316.562 92.554,315.842 92.554 C 315.176 92.554,315.042 92.487,315.042 92.154 C 315.042 91.887,314.909 91.754,314.643 91.754 C 314.376 91.754,314.243 91.621,314.243 91.354 C 314.243 90.996,314.110 90.955,312.944 90.955 C 311.777 90.955,311.644 90.914,311.644 90.555 C 311.644 90.164,311.511 90.155,305.847 90.155 C 300.183 90.155,300.050 90.164,300.050 90.555 M323.438 106.847 L 323.438 123.538 327.936 123.538 L 332.434 123.538 332.434 113.043 L 332.434 102.549 332.934 102.549 C 333.300 102.549,333.433 102.442,333.433 102.149 C 333.433 101.882,333.567 101.749,333.833 101.749 C 334.100 101.749,334.233 101.616,334.233 101.349 C 334.233 101.016,334.366 100.950,335.032 100.950 C 335.699 100.950,335.832 100.883,335.832 100.550 C 335.832 100.217,335.965 100.150,336.632 100.150 C 337.298 100.150,337.431 100.083,337.431 99.750 C 337.431 99.410,337.565 99.350,338.331 99.350 C 339.097 99.350,339.230 99.291,339.230 98.951 C 339.230 98.617,339.364 98.551,340.030 98.551 L 340.830 98.551 340.830 96.052 C 340.830 93.686,340.808 93.553,340.430 93.553 C 340.061 93.553,340.030 93.420,340.030 91.854 L 340.030 90.155 338.731 90.155 C 337.565 90.155,337.431 90.196,337.431 90.555 C 337.431 90.888,337.298 90.955,336.632 90.955 C 335.965 90.955,335.832 91.021,335.832 91.354 C 335.832 91.687,335.699 91.754,335.032 91.754 C 334.366 91.754,334.233 91.821,334.233 92.154 C 334.233 92.494,334.100 92.554,333.333 92.554 C 332.507 92.554,332.434 92.594,332.434 93.053 C 332.434 93.420,332.327 93.553,332.034 93.553 C 331.693 93.553,331.634 93.420,331.634 92.654 C 331.634 91.887,331.575 91.754,331.234 91.754 C 330.901 91.754,330.835 91.621,330.835 90.955 L 330.835 90.155 327.136 90.155 L 323.438 90.155 323.438 106.847 M343.428 106.847 L 343.428 123.538 347.526 123.538 L 351.624 123.538 351.624 112.244 L 351.624 100.950 352.524 100.950 C 353.290 100.950,353.423 100.890,353.423 100.550 C 353.423 100.217,353.557 100.150,354.223 100.150 C 354.889 100.150,355.022 100.083,355.022 99.750 C 355.022 99.382,355.156 99.350,356.722 99.350 C 358.288 99.350,358.421 99.319,358.421 98.951 C 358.421 98.595,358.554 98.551,359.620 98.551 C 360.686 98.551,360.820 98.595,360.820 98.951 C 360.820 99.217,360.953 99.350,361.219 99.350 C 361.553 99.350,361.619 99.484,361.619 100.150 C 361.619 100.816,361.686 100.950,362.019 100.950 C 362.414 100.950,362.419 101.083,362.419 112.244 L 362.419 123.538 366.617 123.538 L 370.815 123.538 370.815 112.244 L 370.815 100.950 371.614 100.950 C 372.281 100.950,372.414 100.883,372.414 100.550 C 372.414 100.209,372.547 100.150,373.313 100.150 C 374.080 100.150,374.213 100.091,374.213 99.750 C 374.213 99.395,374.346 99.350,375.412 99.350 C 376.478 99.350,376.612 99.306,376.612 98.951 C 376.612 98.582,376.745 98.551,378.311 98.551 C 379.877 98.551,380.010 98.582,380.010 98.951 C 380.010 99.217,380.143 99.350,380.410 99.350 C 380.805 99.350,380.810 99.484,380.810 111.444 L 380.810 123.538 385.407 123.538 L 390.005 123.538 390.005 109.345 C 390.005 95.286,390.001 95.152,389.605 95.152 C 389.272 95.152,389.205 95.019,389.205 94.353 C 389.205 93.686,389.139 93.553,388.806 93.553 C 388.465 93.553,388.406 93.420,388.406 92.654 C 388.406 91.827,388.365 91.754,387.906 91.754 C 387.540 91.754,387.406 91.648,387.406 91.354 C 387.406 91.021,387.273 90.955,386.607 90.955 C 385.940 90.955,385.807 90.888,385.807 90.555 C 385.807 90.167,385.674 90.155,381.209 90.155 C 376.745 90.155,376.612 90.167,376.612 90.555 C 376.612 90.910,376.478 90.955,375.412 90.955 C 374.346 90.955,374.213 90.999,374.213 91.354 C 374.213 91.713,374.080 91.754,372.914 91.754 C 371.747 91.754,371.614 91.795,371.614 92.154 C 371.614 92.509,371.481 92.554,370.415 92.554 C 369.349 92.554,369.215 92.509,369.215 92.154 C 369.215 91.887,369.082 91.754,368.816 91.754 C 368.549 91.754,368.416 91.621,368.416 91.354 C 368.416 91.014,368.283 90.955,367.516 90.955 C 366.750 90.955,366.617 90.895,366.617 90.555 C 366.617 90.168,366.483 90.155,362.519 90.155 C 358.554 90.155,358.421 90.168,358.421 90.555 C 358.421 90.923,358.288 90.955,356.722 90.955 C 355.156 90.955,355.022 90.986,355.022 91.354 C 355.022 91.713,354.889 91.754,353.723 91.754 C 352.557 91.754,352.424 91.795,352.424 92.154 C 352.424 92.487,352.291 92.554,351.624 92.554 C 350.958 92.554,350.825 92.487,350.825 92.154 C 350.825 91.887,350.691 91.754,350.425 91.754 C 350.092 91.754,350.025 91.621,350.025 90.955 L 350.025 90.155 346.727 90.155 L 343.428 90.155 343.428 106.847 M187.506 98.051 C 187.506 98.451,187.606 98.551,188.006 98.551 C 188.456 98.551,188.506 98.631,188.506 99.350 C 188.506 100.017,188.572 100.150,188.906 100.150 C 189.274 100.150,189.305 100.283,189.305 101.849 L 189.305 103.548 184.708 103.548 L 180.110 103.548 180.110 101.449 C 180.110 99.484,180.135 99.350,180.510 99.350 C 180.776 99.350,180.910 99.217,180.910 98.951 C 180.910 98.684,181.043 98.551,181.309 98.551 C 181.603 98.551,181.709 98.417,181.709 98.051 L 181.709 97.551 184.608 97.551 L 187.506 97.551 187.506 98.051 M308.446 98.051 C 308.446 98.501,308.526 98.551,309.245 98.551 C 309.912 98.551,310.045 98.617,310.045 98.951 C 310.045 99.217,310.178 99.350,310.445 99.350 C 310.837 99.350,310.845 99.484,310.845 106.847 C 310.845 114.210,310.837 114.343,310.445 114.343 C 310.178 114.343,310.045 114.476,310.045 114.743 C 310.045 115.009,309.912 115.142,309.645 115.142 C 309.379 115.142,309.245 115.276,309.245 115.542 C 309.245 115.901,309.112 115.942,307.946 115.942 C 306.780 115.942,306.647 115.983,306.647 116.342 C 306.647 116.675,306.513 116.742,305.847 116.742 C 305.181 116.742,305.047 116.675,305.047 116.342 C 305.047 115.983,304.914 115.942,303.748 115.942 C 302.582 115.942,302.449 115.901,302.449 115.542 C 302.449 115.276,302.316 115.142,302.049 115.142 C 301.782 115.142,301.649 115.009,301.649 114.743 C 301.649 114.476,301.516 114.343,301.249 114.343 C 300.909 114.343,300.850 114.210,300.850 113.443 C 300.850 112.677,300.790 112.544,300.450 112.544 C 300.059 112.544,300.050 112.410,300.050 106.747 C 300.050 101.083,300.059 100.950,300.450 100.950 C 300.783 100.950,300.850 100.816,300.850 100.150 C 300.850 99.484,300.916 99.350,301.249 99.350 C 301.516 99.350,301.649 99.217,301.649 98.951 C 301.649 98.610,301.782 98.551,302.549 98.551 C 303.375 98.551,303.448 98.510,303.448 98.051 L 303.448 97.551 305.947 97.551 L 308.446 97.551 308.446 98.051 M256.672 113.043 C 256.672 115.009,256.646 115.142,256.272 115.142 C 256.005 115.142,255.872 115.276,255.872 115.542 C 255.872 115.875,255.739 115.942,255.072 115.942 C 254.406 115.942,254.273 116.009,254.273 116.342 C 254.273 116.720,254.140 116.742,251.774 116.742 C 249.409 116.742,249.275 116.720,249.275 116.342 C 249.275 116.075,249.142 115.942,248.876 115.942 C 248.507 115.942,248.476 115.809,248.476 114.243 C 248.476 112.677,248.507 112.544,248.876 112.544 C 249.142 112.544,249.275 112.410,249.275 112.144 C 249.275 111.811,249.409 111.744,250.075 111.744 C 250.741 111.744,250.875 111.677,250.875 111.344 C 250.875 110.963,251.008 110.945,253.773 110.945 L 256.672 110.945 256.672 113.043 " stroke="none" fill="#040404" fill-rule="evenodd"></path><path id="path3" d="M135.132 53.973 C 135.132 54.240,135.266 54.373,135.532 54.373 C 135.799 54.373,135.932 54.240,135.932 53.973 C 135.932 53.706,135.799 53.573,135.532 53.573 C 135.266 53.573,135.132 53.706,135.132 53.973 M130.135 56.372 C 130.135 56.638,130.268 56.772,130.535 56.772 C 130.801 56.772,130.935 56.638,130.935 56.372 C 130.935 56.105,130.801 55.972,130.535 55.972 C 130.268 55.972,130.135 56.105,130.135 56.372 M108.546 68.966 C 108.546 69.232,108.679 69.365,108.946 69.365 C 109.212 69.365,109.345 69.232,109.345 68.966 C 109.345 68.699,109.212 68.566,108.946 68.566 C 108.679 68.566,108.546 68.699,108.546 68.966 M125.937 104.748 C 125.937 105.014,126.070 105.147,126.337 105.147 C 126.603 105.147,126.737 105.014,126.737 104.748 C 126.737 104.481,126.603 104.348,126.337 104.348 C 126.070 104.348,125.937 104.481,125.937 104.748 M104.348 117.141 C 104.348 117.408,104.481 117.541,104.748 117.541 C 105.014 117.541,105.147 117.408,105.147 117.141 C 105.147 116.875,105.014 116.742,104.748 116.742 C 104.481 116.742,104.348 116.875,104.348 117.141 " stroke="none" fill="#34282c" fill-rule="evenodd"></path><path id="path4" d="M23.588 36.382 C 23.588 36.648,23.721 36.782,23.988 36.782 C 24.255 36.782,24.388 36.648,24.388 36.382 C 24.388 36.115,24.255 35.982,23.988 35.982 C 23.721 35.982,23.588 36.115,23.588 36.382 M40.980 46.377 C 40.980 46.643,41.113 46.777,41.379 46.777 C 41.646 46.777,41.779 46.643,41.779 46.377 C 41.779 46.110,41.646 45.977,41.379 45.977 C 41.113 45.977,40.980 46.110,40.980 46.377 M45.177 48.976 C 45.177 49.242,45.311 49.375,45.577 49.375 C 45.844 49.375,45.977 49.242,45.977 48.976 C 45.977 48.709,45.844 48.576,45.577 48.576 C 45.311 48.576,45.177 48.709,45.177 48.976 M55.172 54.773 C 55.172 55.039,55.306 55.172,55.572 55.172 C 55.839 55.172,55.972 55.039,55.972 54.773 C 55.972 54.506,55.839 54.373,55.572 54.373 C 55.306 54.373,55.172 54.506,55.172 54.773 M59.370 57.171 C 59.370 57.438,59.504 57.571,59.770 57.571 C 60.037 57.571,60.170 57.438,60.170 57.171 C 60.170 56.905,60.037 56.772,59.770 56.772 C 59.504 56.772,59.370 56.905,59.370 57.171 M124.338 59.770 C 124.338 60.037,124.471 60.170,124.738 60.170 C 125.004 60.170,125.137 60.037,125.137 59.770 C 125.137 59.504,125.004 59.370,124.738 59.370 C 124.471 59.370,124.338 59.504,124.338 59.770 M75.162 66.367 C 75.162 66.633,75.296 66.767,75.562 66.767 C 75.829 66.767,75.962 66.633,75.962 66.367 C 75.962 66.100,75.829 65.967,75.562 65.967 C 75.296 65.967,75.162 66.100,75.162 66.367 M17.591 78.961 C 17.591 79.254,17.724 79.360,18.091 79.360 C 18.457 79.360,18.591 79.254,18.591 78.961 C 18.591 78.667,18.457 78.561,18.091 78.561 C 17.724 78.561,17.591 78.667,17.591 78.961 M39.380 91.354 C 39.380 91.621,39.514 91.754,39.780 91.754 C 40.047 91.754,40.180 91.621,40.180 91.354 C 40.180 91.088,40.047 90.955,39.780 90.955 C 39.514 90.955,39.380 91.088,39.380 91.354 M131.734 101.349 C 131.734 101.616,131.867 101.749,132.134 101.749 C 132.400 101.749,132.534 101.616,132.534 101.349 C 132.534 101.083,132.400 100.950,132.134 100.950 C 131.867 100.950,131.734 101.083,131.734 101.349 M69.365 108.946 C 69.365 109.212,69.499 109.345,69.765 109.345 C 70.032 109.345,70.165 109.212,70.165 108.946 C 70.165 108.679,70.032 108.546,69.765 108.546 C 69.499 108.546,69.365 108.679,69.365 108.946 M70.165 113.043 C 70.165 113.410,70.272 113.543,70.565 113.543 C 70.858 113.543,70.965 113.410,70.965 113.043 C 70.965 112.677,70.858 112.544,70.565 112.544 C 70.272 112.544,70.165 112.677,70.165 113.043 M110.145 113.943 C 110.145 114.210,110.278 114.343,110.545 114.343 C 110.811 114.343,110.945 114.210,110.945 113.943 C 110.945 113.676,110.811 113.543,110.545 113.543 C 110.278 113.543,110.145 113.676,110.145 113.943 M74.363 115.542 C 74.363 115.809,74.496 115.942,74.763 115.942 C 75.029 115.942,75.162 115.809,75.162 115.542 C 75.162 115.276,75.029 115.142,74.763 115.142 C 74.496 115.142,74.363 115.276,74.363 115.542 M90.155 124.738 C 90.155 125.004,90.288 125.137,90.555 125.137 C 90.821 125.137,90.955 125.004,90.955 124.738 C 90.955 124.471,90.821 124.338,90.555 124.338 C 90.288 124.338,90.155 124.471,90.155 124.738 M91.754 125.537 C 91.754 125.804,91.887 125.937,92.154 125.937 C 92.420 125.937,92.554 125.804,92.554 125.537 C 92.554 125.271,92.420 125.137,92.154 125.137 C 91.887 125.137,91.754 125.271,91.754 125.537 M68.566 158.021 C 68.566 158.387,68.672 158.521,68.966 158.521 C 69.259 158.521,69.365 158.387,69.365 158.021 C 69.365 157.655,69.259 157.521,68.966 157.521 C 68.672 157.521,68.566 157.655,68.566 158.021 M84.358 167.116 C 84.358 167.383,84.491 167.516,84.758 167.516 C 85.024 167.516,85.157 167.383,85.157 167.116 C 85.157 166.850,85.024 166.717,84.758 166.717 C 84.491 166.717,84.358 166.850,84.358 167.116 " stroke="none" fill="#6028d0" fill-rule="evenodd"></path></g></svg>