<svg xmlns="http://www.w3.org/2000/svg" xmlns:xlink="http://www.w3.org/1999/xlink" width="960" height="700" viewBox="0 0 960 700">
  <defs>
    <style>
      .cls-1 {
        clip-path: url(#clip-iPad_Nexus_9_1);
      }

      .cls-2 {
        clip-path: url(#clip-path);
      }

      .cls-3 {
        fill: #eaedf2;
      }

      .cls-4 {
        fill: #747070;
      }

      .cls-5 {
        fill: #fff;
      }
    </style>
    <clipPath id="clip-path">
      <rect id="Rectangle_2" data-name="Rectangle 2" width="975" height="700"/>
    </clipPath>
    <clipPath id="clip-iPad_Nexus_9_1">
      <rect width="960" height="700"/>
    </clipPath>
  </defs>
  <g id="iPad_Nexus_9_1" data-name="iPad, Nexus 9 – 1" class="cls-1">
    <rect class="cls-5" width="960" height="700"/>
    <g id="Group_1" data-name="Group 1" transform="translate(-95 -563)">
      <g id="Mask_Group_1" data-name="Mask Group 1" class="cls-2" transform="translate(95 563)">
        <rect id="Rectangle_1" data-name="Rectangle 1" class="cls-3" width="974" height="700" transform="translate(-13)"/>
      </g>
      <path id="Path_4793" data-name="Path 4793" class="cls-4" d="M16.358,14.748H5.055V48H7.732V34.621h8.63a12.043,12.043,0,0,0,5.651-1.233,8.684,8.684,0,0,0,3.618-3.467A10.4,10.4,0,0,0,26.9,24.709a10.506,10.506,0,0,0-1.264-5.261,8.684,8.684,0,0,0-3.618-3.467,12.043,12.043,0,0,0-5.655-1.233Zm7.783,9.961a8.218,8.218,0,0,1-.93,4.028,6.186,6.186,0,0,1-2.689,2.576,9.358,9.358,0,0,1-4.264.891H7.729V17.165h8.528a8.069,8.069,0,0,1,5.825,1.978,7.356,7.356,0,0,1,2.059,5.566Zm16.9,23.73a11.724,11.724,0,0,0,4.077-.647,9.3,9.3,0,0,0,2.9-1.648A7.947,7.947,0,0,0,49.808,44a6.049,6.049,0,0,0,.756-2.148H47.788a4.275,4.275,0,0,1-.979,1.953,6.075,6.075,0,0,1-2.243,1.624,8.557,8.557,0,0,1-3.52.647,7.207,7.207,0,0,1-5.775-2.393,9.587,9.587,0,0,1-2.057-6.47v-1.42H50.936V33.718a13.767,13.767,0,0,0-1.3-6.262,9.229,9.229,0,0,0-3.594-3.918,10.274,10.274,0,0,0-5.292-1.343,10.274,10.274,0,0,0-5.292,1.343,9.229,9.229,0,0,0-3.594,3.918,13.767,13.767,0,0,0-1.3,6.262v3.394a13.561,13.561,0,0,0,1.252,6.055,9.025,9.025,0,0,0,3.594,3.906,11,11,0,0,0,5.639,1.366ZM33.214,33.693V33.4a11.011,11.011,0,0,1,.942-4.749,7.266,7.266,0,0,1,13.186,0,11.011,11.011,0,0,1,.942,4.749v.293ZM57.211,48h2.652V32.2a8.3,8.3,0,0,1,.942-4.1,6.322,6.322,0,0,1,2.6-2.561,7.93,7.93,0,0,1,3.768-.879,13.048,13.048,0,0,1,1.364.061q.571.061.818.11V22.365q-.3-.049-.781-.1-.55-.052-1.1-.049a8.448,8.448,0,0,0-3.941.818A6.859,6.859,0,0,0,61.124,25a6.628,6.628,0,0,0-1.117,2.173h-.148V22.609H57.211ZM71.46,37.38a12.88,12.88,0,0,0,1.276,5.981,8.928,8.928,0,0,0,3.594,3.772A10.953,10.953,0,0,0,81.8,48.439a11.455,11.455,0,0,0,5.4-1.111,7.9,7.9,0,0,0,3.11-2.783,7.158,7.158,0,0,0,1.128-3.333h-2.6a6.521,6.521,0,0,1-.992,2.283,5.432,5.432,0,0,1-2.181,1.819,8.636,8.636,0,0,1-3.792.708,7.341,7.341,0,0,1-5.686-2.283,9.207,9.207,0,0,1-2.095-6.458V33.352a9.322,9.322,0,0,1,2.07-6.47,7.183,7.183,0,0,1,5.614-2.3,7.825,7.825,0,0,1,3.792.806,5.894,5.894,0,0,1,2.218,2.014,6.573,6.573,0,0,1,.954,2.38h2.6a7.212,7.212,0,0,0-1.165-3.552,8.411,8.411,0,0,0-3.185-2.893,12.144,12.144,0,0,0-10.609.146,9.039,9.039,0,0,0-3.618,3.735,12.357,12.357,0,0,0-1.3,5.884Zm35.124,11.06a11.724,11.724,0,0,0,4.077-.647,9.3,9.3,0,0,0,2.9-1.648A7.947,7.947,0,0,0,115.345,44a6.05,6.05,0,0,0,.756-2.148h-2.777a4.275,4.275,0,0,1-.979,1.953,6.075,6.075,0,0,1-2.243,1.624,8.557,8.557,0,0,1-3.52.647,7.207,7.207,0,0,1-5.775-2.393,9.587,9.587,0,0,1-2.057-6.47v-1.42h17.723V33.718a13.767,13.767,0,0,0-1.3-6.262,9.229,9.229,0,0,0-3.594-3.918,11.1,11.1,0,0,0-10.584,0A9.229,9.229,0,0,0,97.4,27.456a13.767,13.767,0,0,0-1.3,6.262v3.394a13.561,13.561,0,0,0,1.252,6.055,9.025,9.025,0,0,0,3.594,3.906,11,11,0,0,0,5.641,1.366ZM98.75,33.693V33.4a11.012,11.012,0,0,1,.942-4.749,7.266,7.266,0,0,1,13.186,0,11.012,11.012,0,0,1,.942,4.749v.293Zm34.607,14.746a10.286,10.286,0,0,0,5.056-1.245,8.98,8.98,0,0,0,3.57-3.638A12.027,12.027,0,0,0,143.3,37.7V32.863a12.162,12.162,0,0,0-1.24-5.664,8.977,8.977,0,0,0-3.458-3.7,10.874,10.874,0,0,0-8.39-.818,8.515,8.515,0,0,0-2.43,1.27,7.892,7.892,0,0,0-1.649,1.672,7.047,7.047,0,0,0-.9,1.648h-.148V22.609h-2.528V56.252h2.628V43.508h.148a7.89,7.89,0,0,0,4.115,4.175,9.268,9.268,0,0,0,3.917.756Zm-.273-2.368a7.807,7.807,0,0,1-4.139-1.086,7.459,7.459,0,0,1-2.776-2.991,9.112,9.112,0,0,1-.992-4.272V33.107a9.9,9.9,0,0,1,.93-4.333,7.3,7.3,0,0,1,6.928-4.236A7.5,7.5,0,0,1,137,25.576a7.005,7.005,0,0,1,2.677,3.04,11.161,11.161,0,0,1,.967,4.883v3.589a11.035,11.035,0,0,1-1,4.993,7.008,7.008,0,0,1-2.714,2.991,7.464,7.464,0,0,1-3.846,1Zm17.723-23.462H146.2v2.222h4.61v16.9a10.5,10.5,0,0,0,.557,3.735,3.75,3.75,0,0,0,2.02,2.112,10.274,10.274,0,0,0,4.163.671q.595,0,1.574-.073t1.376-.122V45.8q-.372.024-1.165.085t-1.289.061a5.632,5.632,0,0,1-3.606-.867q-1-.867-1-3.259V24.831H160.1V22.609h-6.667v-6.25H150.8ZM165.279,48h2.628V22.609h-2.628Zm-.892-33.032a2.11,2.11,0,0,0,.632,1.525,2.3,2.3,0,0,0,3.148,0,2.059,2.059,0,0,0,.633-1.526,2.112,2.112,0,0,0-.632-1.578,2.179,2.179,0,0,0-1.6-.622,2.14,2.14,0,0,0-2.179,2.2Zm20,7.227a11.258,11.258,0,0,0-5.441,1.306,9.526,9.526,0,0,0-3.817,3.784,12.109,12.109,0,0,0-1.4,6.042v4a12.148,12.148,0,0,0,1.4,6.079,9.383,9.383,0,0,0,3.817,3.748,11.431,11.431,0,0,0,5.441,1.282,11.306,11.306,0,0,0,5.4-1.282,9.565,9.565,0,0,0,3.83-3.748,11.976,11.976,0,0,0,1.421-6.079v-4a12.061,12.061,0,0,0-1.421-6.079,9.5,9.5,0,0,0-3.842-3.772,11.326,11.326,0,0,0-5.389-1.282Zm0,2.344a7.953,7.953,0,0,1,4.139,1.074,7.382,7.382,0,0,1,2.843,3.113,10.818,10.818,0,0,1,1.028,4.919v3.394a10.911,10.911,0,0,1-1.015,4.932,7.106,7.106,0,0,1-2.813,3.064,8.154,8.154,0,0,1-4.151,1.038,8.246,8.246,0,0,1-4.213-1.05,7.1,7.1,0,0,1-2.813-3.064,10.946,10.946,0,0,1-1-4.919V33.645a10.8,10.8,0,0,1,1.028-4.932,7.4,7.4,0,0,1,2.843-3.1,7.953,7.953,0,0,1,4.131-1.075ZM201.2,48h2.652V33.205a10.516,10.516,0,0,1,.867-4.272,7.423,7.423,0,0,1,2.615-3.186,7.514,7.514,0,0,1,4.375-1.208,6.906,6.906,0,0,1,3.632.891,5.841,5.841,0,0,1,2.256,2.478,8.311,8.311,0,0,1,.781,3.711V48H221V30.91q0-4.3-2.466-6.506A9.134,9.134,0,0,0,212.2,22.2a9.643,9.643,0,0,0-4.313.842,7.142,7.142,0,0,0-2.6,2.075,8.27,8.27,0,0,0-1.289,2.4h-.148v-4.9H201.2Zm39.461,0V14.748h-2.677V48Zm17.869,0V17.165h11.03V14.748h-24.71v2.417h11.006V48Zm35.322.439a10.286,10.286,0,0,0,5.056-1.245,8.981,8.981,0,0,0,3.57-3.638,12.028,12.028,0,0,0,1.314-5.859V32.863a12.161,12.161,0,0,0-1.24-5.664,8.977,8.977,0,0,0-3.458-3.7,10.874,10.874,0,0,0-8.39-.818,8.516,8.516,0,0,0-2.43,1.27,7.893,7.893,0,0,0-1.649,1.672,7.045,7.045,0,0,0-.9,1.648h-.148V22.609h-2.528V56.252h2.628V43.508h.148a7.89,7.89,0,0,0,4.115,4.175,9.268,9.268,0,0,0,3.92.756Zm-.273-2.368a7.807,7.807,0,0,1-4.139-1.086,7.459,7.459,0,0,1-2.776-2.991,9.112,9.112,0,0,1-.992-4.272V33.107a9.9,9.9,0,0,1,.93-4.333,7.3,7.3,0,0,1,6.928-4.236,7.5,7.5,0,0,1,3.966,1.038,7.005,7.005,0,0,1,2.677,3.04,11.16,11.16,0,0,1,.967,4.883v3.589a11.035,11.035,0,0,1-1,4.993,7.008,7.008,0,0,1-2.714,2.991,7.465,7.465,0,0,1-3.84,1ZM310.109,48h2.652V32.2a8.29,8.29,0,0,1,.942-4.1,6.322,6.322,0,0,1,2.6-2.563,7.931,7.931,0,0,1,3.768-.879,13.047,13.047,0,0,1,1.363.061q.571.061.818.11V22.365q-.3-.049-.781-.1-.55-.052-1.1-.049a8.448,8.448,0,0,0-3.941.818,6.859,6.859,0,0,0-2.4,1.966,6.63,6.63,0,0,0-1.117,2.173h-.148V22.609h-2.652ZM335.02,22.194a11.258,11.258,0,0,0-5.441,1.306,9.525,9.525,0,0,0-3.817,3.784,12.109,12.109,0,0,0-1.4,6.042v4a12.148,12.148,0,0,0,1.4,6.079,9.383,9.383,0,0,0,3.817,3.748,11.431,11.431,0,0,0,5.441,1.282,11.306,11.306,0,0,0,5.4-1.282,9.565,9.565,0,0,0,3.83-3.748,11.975,11.975,0,0,0,1.421-6.079v-4a12.06,12.06,0,0,0-1.421-6.079,9.5,9.5,0,0,0-3.842-3.772,11.326,11.326,0,0,0-5.391-1.281Zm0,2.344a7.953,7.953,0,0,1,4.139,1.074A7.382,7.382,0,0,1,342,28.725a10.817,10.817,0,0,1,1.028,4.919v3.394a10.911,10.911,0,0,1-1.015,4.932,7.106,7.106,0,0,1-2.813,3.064,8.154,8.154,0,0,1-4.151,1.038,8.246,8.246,0,0,1-4.213-1.05,7.1,7.1,0,0,1-2.813-3.064,10.946,10.946,0,0,1-1-4.919V33.645a10.8,10.8,0,0,1,1.028-4.932,7.4,7.4,0,0,1,2.843-3.1,7.953,7.953,0,0,1,4.129-1.075ZM357.9,48h2.677l9.518-25.391h-2.826l-7.957,22.412h-.148L351.43,22.609h-2.925Zm16.211,0h2.628V22.609h-2.628Zm-.892-33.032a2.11,2.11,0,0,0,.632,1.525,2.3,2.3,0,0,0,3.148,0,2.059,2.059,0,0,0,.635-1.525A2.112,2.112,0,0,0,377,13.39a2.179,2.179,0,0,0-1.6-.622,2.145,2.145,0,0,0-2.182,2.2Zm19.239,7.226a10.267,10.267,0,0,0-5.007,1.233,9.14,9.14,0,0,0-3.6,3.573,11.405,11.405,0,0,0-1.338,5.737v5.151a11.751,11.751,0,0,0,1.252,5.566,8.989,8.989,0,0,0,3.482,3.662,10.04,10.04,0,0,0,5.131,1.294,9.788,9.788,0,0,0,3.3-.513,9.311,9.311,0,0,0,2.478-1.294,7.542,7.542,0,0,0,1.661-1.66,5.2,5.2,0,0,0,.818-1.636h.148V48h2.528V12.941h-2.63V27.1h-.148a7.184,7.184,0,0,0-1.438-2.283,7.85,7.85,0,0,0-2.665-1.88,9.622,9.622,0,0,0-3.973-.743Zm.273,2.344a7.564,7.564,0,0,1,6.953,4.089,8.948,8.948,0,0,1,1,4.26v4.59a9.817,9.817,0,0,1-.942,4.321,7.606,7.606,0,0,1-2.7,3.113,8.191,8.191,0,0,1-8.192.122,7.081,7.081,0,0,1-2.7-3.015,10.694,10.694,0,0,1-.979-4.785V33.4a10.661,10.661,0,0,1,1.015-4.907,7.018,7.018,0,0,1,2.727-2.966,7.488,7.488,0,0,1,3.813-.989Zm27.311,23.9a11.724,11.724,0,0,0,4.077-.647,9.3,9.3,0,0,0,2.9-1.648A7.946,7.946,0,0,0,428.8,44a6.051,6.051,0,0,0,.756-2.148h-2.777A4.275,4.275,0,0,1,425.8,43.8a6.075,6.075,0,0,1-2.243,1.624,8.557,8.557,0,0,1-3.52.647,7.208,7.208,0,0,1-5.775-2.393,9.587,9.587,0,0,1-2.057-6.47v-1.42h17.723V33.718a13.767,13.767,0,0,0-1.3-6.262,9.229,9.229,0,0,0-3.594-3.918,11.1,11.1,0,0,0-10.584,0,9.229,9.229,0,0,0-3.594,3.918,13.767,13.767,0,0,0-1.3,6.262v3.394a13.562,13.562,0,0,0,1.252,6.055,9.024,9.024,0,0,0,3.594,3.906,11,11,0,0,0,5.639,1.366Zm-7.833-14.746V33.4a11.012,11.012,0,0,1,.942-4.749,7.266,7.266,0,0,1,13.186,0,11.011,11.011,0,0,1,.944,4.749v.293Zm22.7-4.37A5.471,5.471,0,0,0,436,32.9a7.109,7.109,0,0,0,3.025,2.075,34.273,34.273,0,0,0,4.412,1.331q1.859.391,3.482.9a6.845,6.845,0,0,1,2.628,1.44,3.38,3.38,0,0,1,1,2.612,4.157,4.157,0,0,1-.867,2.661,5.447,5.447,0,0,1-2.416,1.685,10.247,10.247,0,0,1-3.632.586,9.03,9.03,0,0,1-3.929-.72A4.837,4.837,0,0,1,436.8,41.5h-2.6a6.07,6.07,0,0,0,1.029,3.381,7.361,7.361,0,0,0,3.111,2.563,12.182,12.182,0,0,0,5.23.989,13.49,13.49,0,0,0,4.873-.842,7.856,7.856,0,0,0,3.482-2.5,6.524,6.524,0,0,0,1.289-4.126,5.323,5.323,0,0,0-1.226-3.748,7.842,7.842,0,0,0-3.259-2.039,36.491,36.491,0,0,0-4.462-1.221q-1.438-.317-2.652-.7a10.365,10.365,0,0,1-2.119-.9,4.054,4.054,0,0,1-1.413-1.318,3.573,3.573,0,0,1-.508-1.965,3.864,3.864,0,0,1,1.809-3.467,7.9,7.9,0,0,1,4.387-1.172,7.766,7.766,0,0,1,3.668.745,5.07,5.07,0,0,1,2.02,1.794,4.112,4.112,0,0,1,.657,2h2.528a6.163,6.163,0,0,0-.942-3.223A6.985,6.985,0,0,0,448.8,23.2a10.837,10.837,0,0,0-4.975-1,12.311,12.311,0,0,0-4.474.781,7.275,7.275,0,0,0-3.235,2.368,6.356,6.356,0,0,0-1.207,3.974Zm34.807-6.713h-4.61v2.222h4.61v16.9a10.5,10.5,0,0,0,.557,3.735,3.75,3.75,0,0,0,2.02,2.112,10.274,10.274,0,0,0,4.163.671q.595,0,1.574-.073t1.376-.122V45.8q-.372.024-1.165.085t-1.289.061a5.632,5.632,0,0,1-3.606-.867q-1-.867-1-3.259V24.831h6.667V22.609h-6.667v-6.25h-2.626Zm22.829,25.83a11.723,11.723,0,0,0,4.077-.647,9.3,9.3,0,0,0,2.9-1.648A7.946,7.946,0,0,0,501.3,44a6.05,6.05,0,0,0,.756-2.148h-2.776a4.275,4.275,0,0,1-.979,1.953,6.075,6.075,0,0,1-2.243,1.624,8.558,8.558,0,0,1-3.52.647,7.207,7.207,0,0,1-5.775-2.393,9.587,9.587,0,0,1-2.057-6.47v-1.42h17.723V33.718a13.767,13.767,0,0,0-1.3-6.262,9.229,9.229,0,0,0-3.594-3.918,11.1,11.1,0,0,0-10.584,0,9.229,9.229,0,0,0-3.594,3.918,13.768,13.768,0,0,0-1.3,6.262v3.394a13.561,13.561,0,0,0,1.252,6.055,9.024,9.024,0,0,0,3.594,3.906,11,11,0,0,0,5.638,1.366Zm-7.833-14.746V33.4a11.011,11.011,0,0,1,.942-4.749,7.266,7.266,0,0,1,13.186,0,11.012,11.012,0,0,1,.942,4.749v.293Zm22.581,3.687a12.878,12.878,0,0,0,1.276,5.981,8.928,8.928,0,0,0,3.594,3.772,10.952,10.952,0,0,0,5.465,1.306,11.455,11.455,0,0,0,5.4-1.111,7.9,7.9,0,0,0,3.111-2.783,7.156,7.156,0,0,0,1.128-3.333h-2.6a6.523,6.523,0,0,1-.992,2.283,5.432,5.432,0,0,1-2.181,1.819,8.636,8.636,0,0,1-3.792.708,7.341,7.341,0,0,1-5.686-2.283,9.207,9.207,0,0,1-2.095-6.458V33.352a9.322,9.322,0,0,1,2.07-6.47,7.184,7.184,0,0,1,5.615-2.295,7.825,7.825,0,0,1,3.792.806,5.894,5.894,0,0,1,2.218,2.014,6.573,6.573,0,0,1,.954,2.38h2.6a7.212,7.212,0,0,0-1.165-3.552,8.412,8.412,0,0,0-3.2-2.893,12.144,12.144,0,0,0-10.609.146,9.038,9.038,0,0,0-3.618,3.735,12.357,12.357,0,0,0-1.3,5.884ZM533.193,48h2.628V33.205a10.388,10.388,0,0,1,.88-4.272,7.229,7.229,0,0,1,7.005-4.394,7.055,7.055,0,0,1,3.644.891,5.834,5.834,0,0,1,2.306,2.49,8.278,8.278,0,0,1,.793,3.723V48H553.1V30.935q0-4.3-2.5-6.519a9.136,9.136,0,0,0-6.295-2.222,9.668,9.668,0,0,0-4.337.867,7.572,7.572,0,0,0-2.689,2.112,7.825,7.825,0,0,0-1.3,2.344h-.148V12.941h-2.633Zm26.72,0h2.652V33.205a10.517,10.517,0,0,1,.863-4.272,7.423,7.423,0,0,1,2.615-3.186,7.514,7.514,0,0,1,4.375-1.208,6.906,6.906,0,0,1,3.632.891,5.841,5.841,0,0,1,2.256,2.478,8.311,8.311,0,0,1,.781,3.711V48h2.628V30.91q0-4.3-2.466-6.506a9.134,9.134,0,0,0-6.333-2.209,9.643,9.643,0,0,0-4.313.842,7.143,7.143,0,0,0-2.6,2.075,8.271,8.271,0,0,0-1.289,2.4h-.148v-4.9H559.91ZM596.1,22.194a11.258,11.258,0,0,0-5.441,1.306,9.526,9.526,0,0,0-3.817,3.784,12.109,12.109,0,0,0-1.4,6.042v4a12.147,12.147,0,0,0,1.4,6.079,9.383,9.383,0,0,0,3.817,3.748,11.431,11.431,0,0,0,5.441,1.282,11.306,11.306,0,0,0,5.4-1.282,9.565,9.565,0,0,0,3.83-3.748,11.977,11.977,0,0,0,1.421-6.079v-4a12.061,12.061,0,0,0-1.421-6.079,9.5,9.5,0,0,0-3.842-3.772A11.326,11.326,0,0,0,596.1,22.194Zm0,2.344a7.953,7.953,0,0,1,4.139,1.074,7.382,7.382,0,0,1,2.843,3.113,10.817,10.817,0,0,1,1.029,4.919v3.394A10.911,10.911,0,0,1,603.1,41.97a7.106,7.106,0,0,1-2.813,3.064,8.154,8.154,0,0,1-4.151,1.038,8.246,8.246,0,0,1-4.214-1.05,7.1,7.1,0,0,1-2.813-3.064,10.945,10.945,0,0,1-1-4.919V33.645a10.8,10.8,0,0,1,1.028-4.932,7.4,7.4,0,0,1,2.843-3.1,7.953,7.953,0,0,1,4.129-1.075ZM613.231,48h2.652V12.941h-2.652Zm19.532-25.806a11.258,11.258,0,0,0-5.441,1.306,9.526,9.526,0,0,0-3.817,3.784,12.109,12.109,0,0,0-1.4,6.042v4a12.147,12.147,0,0,0,1.4,6.079,9.383,9.383,0,0,0,3.818,3.748,11.431,11.431,0,0,0,5.441,1.282,11.306,11.306,0,0,0,5.4-1.282A9.565,9.565,0,0,0,642,43.4a11.977,11.977,0,0,0,1.421-6.079v-4A12.062,12.062,0,0,0,642,27.247a9.5,9.5,0,0,0-3.842-3.772,11.326,11.326,0,0,0-5.391-1.281Zm0,2.344a7.953,7.953,0,0,1,4.139,1.074,7.382,7.382,0,0,1,2.843,3.113,10.817,10.817,0,0,1,1.028,4.919v3.394a10.91,10.91,0,0,1-1.015,4.932,7.106,7.106,0,0,1-2.813,3.064,8.155,8.155,0,0,1-4.151,1.038,8.246,8.246,0,0,1-4.214-1.05,7.1,7.1,0,0,1-2.813-3.064,10.946,10.946,0,0,1-1-4.919V33.645a10.8,10.8,0,0,1,1.028-4.932,7.4,7.4,0,0,1,2.843-3.1,7.953,7.953,0,0,1,4.129-1.075Zm25.779,30.127a9.139,9.139,0,0,1-3.68-.659,6.089,6.089,0,0,1-2.318-1.66,3.973,3.973,0,0,1-.942-2.026H648.85a6.377,6.377,0,0,0,1.19,3.174,7.765,7.765,0,0,0,3.147,2.527,12.249,12.249,0,0,0,5.255.989,14.468,14.468,0,0,0,4.366-.61,9.186,9.186,0,0,0,3.309-1.807,7.843,7.843,0,0,0,2.107-2.954,10.48,10.48,0,0,0,.731-4.053V22.609H666.4v4.517h-.125a7.178,7.178,0,0,0-1.376-2.148,8.429,8.429,0,0,0-2.665-1.965,9.017,9.017,0,0,0-4.015-.818,10.547,10.547,0,0,0-4.994,1.208,9.187,9.187,0,0,0-3.681,3.577,11.314,11.314,0,0,0-1.388,5.811v3.955a11.364,11.364,0,0,0,1.326,5.64,9.221,9.221,0,0,0,3.606,3.638,10.318,10.318,0,0,0,5.106,1.27,9.3,9.3,0,0,0,3.185-.5,8.467,8.467,0,0,0,2.342-1.257,7.857,7.857,0,0,0,1.562-1.587,7.345,7.345,0,0,0,.867-1.514h.148v5.225a6.735,6.735,0,0,1-1.983,5.115,8.055,8.055,0,0,1-5.775,1.889Zm.05-30.127a7.216,7.216,0,0,1,4.131,1.162,7.67,7.67,0,0,1,2.652,3.076,9.521,9.521,0,0,1,.93,4.211v3.638a9.488,9.488,0,0,1-.88,4.028,7.617,7.617,0,0,1-2.59,3.1,7.171,7.171,0,0,1-4.213,1.2,7.4,7.4,0,0,1-6.779-4.1,10.031,10.031,0,0,1-1.028-4.687V33.425a10.407,10.407,0,0,1,1.041-4.871,7.193,7.193,0,0,1,2.813-3,7.775,7.775,0,0,1,3.923-1.016ZM677.107,48h2.628V22.609h-2.628Zm-.892-33.032a2.11,2.11,0,0,0,.632,1.525,2.3,2.3,0,0,0,3.148,0,2.059,2.059,0,0,0,.633-1.526,2.112,2.112,0,0,0-.632-1.578,2.179,2.179,0,0,0-1.6-.622,2.14,2.14,0,0,0-2.179,2.2Zm9.341,22.412a12.88,12.88,0,0,0,1.276,5.981,8.929,8.929,0,0,0,3.594,3.772,10.952,10.952,0,0,0,5.465,1.306,11.456,11.456,0,0,0,5.4-1.111,7.9,7.9,0,0,0,3.111-2.783,7.159,7.159,0,0,0,1.128-3.333h-2.6a6.52,6.52,0,0,1-.992,2.283,5.433,5.433,0,0,1-2.181,1.819,8.636,8.636,0,0,1-3.792.708,7.34,7.34,0,0,1-5.685-2.283,9.207,9.207,0,0,1-2.094-6.458V33.352a9.322,9.322,0,0,1,2.07-6.47,7.183,7.183,0,0,1,5.615-2.3,7.825,7.825,0,0,1,3.792.806,5.893,5.893,0,0,1,2.219,2.014,6.573,6.573,0,0,1,.954,2.38h2.6a7.213,7.213,0,0,0-1.164-3.552,8.411,8.411,0,0,0-3.185-2.893,12.145,12.145,0,0,0-10.609.146,9.039,9.039,0,0,0-3.618,3.735,12.357,12.357,0,0,0-1.3,5.884Zm32.67,11.06a9.479,9.479,0,0,0,3.9-.72A8.537,8.537,0,0,0,724.722,46a7.559,7.559,0,0,0,1.438-1.9h.148V48h2.578V30.1a7.9,7.9,0,0,0-1.178-4.5,6.935,6.935,0,0,0-3.21-2.576,12.175,12.175,0,0,0-4.635-.83,13.612,13.612,0,0,0-3.668.452,8.554,8.554,0,0,0-2.751,1.282,6.276,6.276,0,0,0-1.785,1.953,5.968,5.968,0,0,0-.769,2.441h2.6a4.4,4.4,0,0,1,.88-1.77,5.049,5.049,0,0,1,1.983-1.44,8.466,8.466,0,0,1,3.384-.574,7.406,7.406,0,0,1,4.685,1.392,5.2,5.2,0,0,1,1.785,4.37v3.247h-7.534q-4.366,0-6.605,2a6.672,6.672,0,0,0-2.243,5.225,7.119,7.119,0,0,0,2.33,5.579,8.758,8.758,0,0,0,6.072,2.088Zm.521-2.368a6.918,6.918,0,0,1-4.387-1.392,5.166,5.166,0,0,1-.335-7.5q1.45-1.392,4.67-1.392h7.513v3.564a6.117,6.117,0,0,1-1.015,3.491,7.007,7.007,0,0,1-2.7,2.368,8.157,8.157,0,0,1-3.741.855ZM736.1,48h2.652V12.941H736.1ZM13.285,92.194a10.267,10.267,0,0,0-5.01,1.233A9.139,9.139,0,0,0,4.683,97a11.406,11.406,0,0,0-1.338,5.737v5.151A11.751,11.751,0,0,0,4.6,113.454a8.988,8.988,0,0,0,3.482,3.662,10.039,10.039,0,0,0,5.131,1.294,9.788,9.788,0,0,0,3.3-.513,9.311,9.311,0,0,0,2.478-1.294,7.542,7.542,0,0,0,1.661-1.66,5.2,5.2,0,0,0,.818-1.636h.148V118h2.528V82.941H21.513V97.1h-.148a7.184,7.184,0,0,0-1.438-2.283,7.849,7.849,0,0,0-2.665-1.88,9.621,9.621,0,0,0-3.978-.743Zm.273,2.344a7.564,7.564,0,0,1,6.953,4.089,8.947,8.947,0,0,1,1,4.26v4.59a9.817,9.817,0,0,1-.942,4.321,7.607,7.607,0,0,1-2.7,3.113,7.531,7.531,0,0,1-4.239,1.16,7.512,7.512,0,0,1-3.953-1.038,7.081,7.081,0,0,1-2.7-3.015A10.7,10.7,0,0,1,6,107.233V103.4a10.661,10.661,0,0,1,1.015-4.907A7.018,7.018,0,0,1,9.74,95.527a7.488,7.488,0,0,1,3.813-.989ZM32.148,118h2.626V92.609H32.148Zm-.892-33.032a2.11,2.11,0,0,0,.632,1.525,2.3,2.3,0,0,0,3.148,0,2.059,2.059,0,0,0,.633-1.526,2.112,2.112,0,0,0-.632-1.578,2.179,2.179,0,0,0-1.6-.622,2.14,2.14,0,0,0-2.179,2.2ZM42.013,118h2.652V102.2a8.3,8.3,0,0,1,.942-4.1,6.322,6.322,0,0,1,2.6-2.563,7.93,7.93,0,0,1,3.768-.879,13.047,13.047,0,0,1,1.364.061q.571.061.818.11V92.365q-.3-.049-.781-.1-.55-.052-1.1-.049a8.448,8.448,0,0,0-3.941.818A6.859,6.859,0,0,0,45.929,95a6.628,6.628,0,0,0-1.117,2.173h-.148V92.609H42.013Zm24.763.439a11.724,11.724,0,0,0,4.077-.647,9.3,9.3,0,0,0,2.9-1.648A7.947,7.947,0,0,0,75.537,114a6.05,6.05,0,0,0,.756-2.148H73.517a4.275,4.275,0,0,1-.976,1.948,6.075,6.075,0,0,1-2.243,1.624,8.557,8.557,0,0,1-3.52.647A7.207,7.207,0,0,1,61,113.678a9.587,9.587,0,0,1-2.057-6.47v-1.416H76.665v-2.075a13.767,13.767,0,0,0-1.3-6.262,9.229,9.229,0,0,0-3.594-3.918,11.1,11.1,0,0,0-10.584,0,9.229,9.229,0,0,0-3.594,3.918,13.767,13.767,0,0,0-1.3,6.262v3.394a13.561,13.561,0,0,0,1.252,6.055,9.025,9.025,0,0,0,3.594,3.906,11,11,0,0,0,5.639,1.367Zm-7.833-14.746V103.4a11.011,11.011,0,0,1,.942-4.749,7.266,7.266,0,0,1,13.186,0,11.011,11.011,0,0,1,.942,4.749v.293Zm22.581,3.687a12.88,12.88,0,0,0,1.276,5.981,8.928,8.928,0,0,0,3.594,3.772,10.953,10.953,0,0,0,5.465,1.306,11.455,11.455,0,0,0,5.4-1.111,7.9,7.9,0,0,0,3.111-2.783,7.158,7.158,0,0,0,1.128-3.333H98.9a6.521,6.521,0,0,1-.992,2.283,5.432,5.432,0,0,1-2.181,1.819,8.636,8.636,0,0,1-3.792.708,7.341,7.341,0,0,1-5.687-2.282,9.207,9.207,0,0,1-2.095-6.458v-3.931a9.322,9.322,0,0,1,2.07-6.47,7.183,7.183,0,0,1,5.614-2.295,7.825,7.825,0,0,1,3.792.806,5.894,5.894,0,0,1,2.218,2.014,6.573,6.573,0,0,1,.954,2.38h2.6a7.212,7.212,0,0,0-1.165-3.552,8.411,8.411,0,0,0-3.185-2.893,12.144,12.144,0,0,0-10.609.146,9.038,9.038,0,0,0-3.618,3.735,12.357,12.357,0,0,0-1.3,5.884Zm27.588-14.771H104.5v2.222h4.61v16.895a10.5,10.5,0,0,0,.557,3.735,3.75,3.75,0,0,0,2.02,2.112,10.274,10.274,0,0,0,4.163.671q.595,0,1.574-.073t1.376-.122V115.8q-.372.024-1.165.085t-1.289.061a5.632,5.632,0,0,1-3.606-.867q-1-.867-1-3.259V94.831H118.4V92.609h-6.667v-6.25h-2.626ZM123.586,118h2.628V92.609h-2.628Zm-.89-33.032a2.11,2.11,0,0,0,.632,1.525,2.3,2.3,0,0,0,3.148,0,2.059,2.059,0,0,0,.632-1.526,2.112,2.112,0,0,0-.632-1.578,2.179,2.179,0,0,0-1.6-.622,2.14,2.14,0,0,0-2.179,2.2Zm20,7.227a11.258,11.258,0,0,0-5.441,1.306,9.526,9.526,0,0,0-3.817,3.784,12.11,12.11,0,0,0-1.4,6.042v4a12.148,12.148,0,0,0,1.4,6.079,9.383,9.383,0,0,0,3.817,3.748,11.431,11.431,0,0,0,5.441,1.282,11.306,11.306,0,0,0,5.4-1.282,9.565,9.565,0,0,0,3.83-3.748,11.976,11.976,0,0,0,1.421-6.079v-4a12.061,12.061,0,0,0-1.421-6.079,9.5,9.5,0,0,0-3.842-3.772,11.325,11.325,0,0,0-5.391-1.282Zm0,2.344a7.953,7.953,0,0,1,4.139,1.074,7.382,7.382,0,0,1,2.843,3.113,10.818,10.818,0,0,1,1.029,4.919v3.394a10.911,10.911,0,0,1-1.015,4.932,7.106,7.106,0,0,1-2.813,3.064,8.154,8.154,0,0,1-4.151,1.038,8.246,8.246,0,0,1-4.213-1.05,7.1,7.1,0,0,1-2.813-3.064,10.946,10.946,0,0,1-1-4.919v-3.394a10.8,10.8,0,0,1,1.028-4.932,7.4,7.4,0,0,1,2.843-3.1,7.953,7.953,0,0,1,4.129-1.076ZM159.5,118h2.652V103.205a10.516,10.516,0,0,1,.867-4.272,7.423,7.423,0,0,1,2.615-3.186,7.514,7.514,0,0,1,4.375-1.208,6.906,6.906,0,0,1,3.632.891,5.841,5.841,0,0,1,2.256,2.478,8.311,8.311,0,0,1,.781,3.711V118h2.628V100.91q0-4.3-2.466-6.506a9.134,9.134,0,0,0-6.333-2.209,9.643,9.643,0,0,0-4.313.842,7.142,7.142,0,0,0-2.6,2.075,8.269,8.269,0,0,0-1.289,2.4h-.148v-4.9H159.5Zm42.931.439a9.479,9.479,0,0,0,3.9-.72A8.531,8.531,0,0,0,208.929,116a7.557,7.557,0,0,0,1.438-1.9h.148V118h2.578V100.1a7.9,7.9,0,0,0-1.178-4.5,6.935,6.935,0,0,0-3.21-2.576,12.175,12.175,0,0,0-4.635-.83,13.611,13.611,0,0,0-3.668.452,8.553,8.553,0,0,0-2.751,1.282,6.278,6.278,0,0,0-1.785,1.953,5.969,5.969,0,0,0-.769,2.441h2.6a4.4,4.4,0,0,1,.88-1.77,5.05,5.05,0,0,1,1.983-1.44,8.466,8.466,0,0,1,3.384-.574,7.406,7.406,0,0,1,4.684,1.392,5.2,5.2,0,0,1,1.785,4.37v3.247H202.88q-4.366,0-6.605,2a6.672,6.672,0,0,0-2.243,5.225,7.119,7.119,0,0,0,2.33,5.579,8.758,8.758,0,0,0,6.072,2.088Zm.521-2.368a6.918,6.918,0,0,1-4.387-1.392,5.167,5.167,0,0,1-.335-7.5q1.45-1.392,4.67-1.392h7.513v3.564a6.116,6.116,0,0,1-1.015,3.491,7.006,7.006,0,0,1-2.7,2.368A8.157,8.157,0,0,1,202.955,116.071ZM219.984,118h2.652V103.205a10.517,10.517,0,0,1,.867-4.272,7.423,7.423,0,0,1,2.615-3.186,7.514,7.514,0,0,1,4.375-1.208,6.906,6.906,0,0,1,3.632.891,5.841,5.841,0,0,1,2.256,2.478,8.311,8.311,0,0,1,.781,3.711V118h2.628V100.91q0-4.3-2.466-6.506A9.134,9.134,0,0,0,230.99,92.2a9.643,9.643,0,0,0-4.313.842,7.142,7.142,0,0,0-2.6,2.075,8.27,8.27,0,0,0-1.289,2.4h-.148v-4.9h-2.652Zm35.421-25.806a10.267,10.267,0,0,0-5.007,1.233A9.14,9.14,0,0,0,246.8,97a11.406,11.406,0,0,0-1.338,5.737v5.151a11.751,11.751,0,0,0,1.252,5.566,8.989,8.989,0,0,0,3.482,3.662,10.039,10.039,0,0,0,5.131,1.294,9.788,9.788,0,0,0,3.3-.513,9.31,9.31,0,0,0,2.478-1.294,7.542,7.542,0,0,0,1.661-1.66,5.2,5.2,0,0,0,.818-1.636h.148V118h2.528V82.941h-2.628V97.1h-.148a7.184,7.184,0,0,0-1.438-2.283,7.85,7.85,0,0,0-2.665-1.88,9.621,9.621,0,0,0-3.979-.743Zm.273,2.344a7.564,7.564,0,0,1,6.953,4.089,8.947,8.947,0,0,1,1,4.26v4.59a9.817,9.817,0,0,1-.942,4.321,7.607,7.607,0,0,1-2.7,3.113,8.191,8.191,0,0,1-8.192.122,7.081,7.081,0,0,1-2.7-3.015,10.7,10.7,0,0,1-.979-4.785V103.4a10.661,10.661,0,0,1,1.015-4.907,7.018,7.018,0,0,1,2.727-2.966,7.488,7.488,0,0,1,3.816-.989Zm26.274,4.785a5.471,5.471,0,0,0,1.09,3.577,7.109,7.109,0,0,0,3.025,2.075,34.268,34.268,0,0,0,4.412,1.331q1.859.391,3.482.9a6.846,6.846,0,0,1,2.628,1.44,3.379,3.379,0,0,1,1,2.612,4.158,4.158,0,0,1-.867,2.661,5.447,5.447,0,0,1-2.416,1.685,10.247,10.247,0,0,1-3.632.586,9.03,9.03,0,0,1-3.929-.72,4.837,4.837,0,0,1-2.913-3.967h-2.6a6.07,6.07,0,0,0,1.028,3.381,7.361,7.361,0,0,0,3.111,2.563,12.182,12.182,0,0,0,5.23.989,13.49,13.49,0,0,0,4.873-.842,7.856,7.856,0,0,0,3.482-2.5,6.524,6.524,0,0,0,1.289-4.126,5.323,5.323,0,0,0-1.226-3.748,7.843,7.843,0,0,0-3.259-2.039,36.494,36.494,0,0,0-4.462-1.221q-1.438-.317-2.652-.7a10.365,10.365,0,0,1-2.119-.9,4.055,4.055,0,0,1-1.413-1.318,3.574,3.574,0,0,1-.508-1.965,3.864,3.864,0,0,1,1.809-3.467,7.9,7.9,0,0,1,4.387-1.172,7.766,7.766,0,0,1,3.668.745,5.069,5.069,0,0,1,2.02,1.794,4.112,4.112,0,0,1,.657,2h2.528a6.164,6.164,0,0,0-.942-3.223,6.984,6.984,0,0,0-2.887-2.563,10.836,10.836,0,0,0-4.975-1,12.311,12.311,0,0,0-4.474.781,7.275,7.275,0,0,0-3.235,2.368,6.356,6.356,0,0,0-1.214,3.983Zm25.456-6.714H302.8v2.222h4.61v16.895a10.5,10.5,0,0,0,.557,3.735,3.75,3.75,0,0,0,2.02,2.112,10.274,10.274,0,0,0,4.163.671q.595,0,1.574-.073t1.376-.122V115.8q-.372.024-1.165.085t-1.289.061a5.632,5.632,0,0,1-3.606-.867q-1-.867-1-3.259V94.831H316.7V92.609h-6.666v-6.25h-2.628ZM321.512,118h2.652V102.2a8.29,8.29,0,0,1,.942-4.1,6.322,6.322,0,0,1,2.6-2.563,7.931,7.931,0,0,1,3.768-.879,13.045,13.045,0,0,1,1.363.061q.571.061.818.11V92.365q-.3-.049-.781-.1-.55-.052-1.1-.049a8.448,8.448,0,0,0-3.941.818A6.859,6.859,0,0,0,325.428,95a6.629,6.629,0,0,0-1.117,2.173h-.148V92.609h-2.652Zm35.569-25.391h-2.652v15.625a8.055,8.055,0,0,1-.942,3.8,7.615,7.615,0,0,1-2.7,2.917,8.467,8.467,0,0,1-7.659.391,5.381,5.381,0,0,1-2.33-2.2,7.2,7.2,0,0,1-.843-3.638V92.609H337.3v17.48a8.742,8.742,0,0,0,1.164,4.761,7.03,7.03,0,0,0,3.147,2.71,10.963,10.963,0,0,0,4.487.879,9.3,9.3,0,0,0,4.09-.818,8.09,8.09,0,0,0,2.689-2,7.407,7.407,0,0,0,1.4-2.333h.148V118h2.652Zm5.9,14.771a12.878,12.878,0,0,0,1.276,5.981,8.929,8.929,0,0,0,3.594,3.772,10.953,10.953,0,0,0,5.465,1.306,11.455,11.455,0,0,0,5.4-1.111,7.9,7.9,0,0,0,3.111-2.783,7.159,7.159,0,0,0,1.128-3.333h-2.6a6.52,6.52,0,0,1-.992,2.283,5.433,5.433,0,0,1-2.181,1.819,8.636,8.636,0,0,1-3.792.708,7.341,7.341,0,0,1-5.686-2.283,9.207,9.207,0,0,1-2.095-6.458V103.35a9.322,9.322,0,0,1,2.07-6.47,7.183,7.183,0,0,1,5.615-2.295,7.825,7.825,0,0,1,3.792.806,5.894,5.894,0,0,1,2.218,2.014,6.573,6.573,0,0,1,.954,2.38h2.6a7.212,7.212,0,0,0-1.17-3.55,8.411,8.411,0,0,0-3.185-2.893,12.144,12.144,0,0,0-10.609.146,9.038,9.038,0,0,0-3.618,3.735,12.357,12.357,0,0,0-1.3,5.884Zm27.588-14.771h-4.611v2.222h4.61v16.9a10.5,10.5,0,0,0,.557,3.735,3.75,3.75,0,0,0,2.02,2.112,10.274,10.274,0,0,0,4.163.671q.595,0,1.574-.073t1.376-.122V115.8q-.372.024-1.165.085t-1.289.061a5.632,5.632,0,0,1-3.606-.867q-1-.867-1-3.259V94.831h6.673V92.609H393.2v-6.25h-2.628Zm33.189,0h-2.652v15.625a8.054,8.054,0,0,1-.942,3.8,7.616,7.616,0,0,1-2.7,2.917,8.467,8.467,0,0,1-7.659.391,5.382,5.382,0,0,1-2.33-2.2,7.2,7.2,0,0,1-.843-3.638v-16.9h-2.652v17.48a8.742,8.742,0,0,0,1.164,4.761,7.03,7.03,0,0,0,3.147,2.71,10.963,10.963,0,0,0,4.486.879,9.3,9.3,0,0,0,4.09-.818,8.09,8.09,0,0,0,2.689-2,7.406,7.406,0,0,0,1.4-2.332h.148V118h2.652ZM431.068,118h2.652V102.2a8.29,8.29,0,0,1,.942-4.1,6.322,6.322,0,0,1,2.6-2.563,7.93,7.93,0,0,1,3.768-.879,13.046,13.046,0,0,1,1.363.061q.571.061.818.11V92.365q-.3-.049-.781-.1-.55-.052-1.1-.049a8.448,8.448,0,0,0-3.941.818,6.858,6.858,0,0,0-2.4,1.966,6.629,6.629,0,0,0-1.117,2.173h-.148V92.609h-2.652Zm24.763.439a11.724,11.724,0,0,0,4.077-.647,9.3,9.3,0,0,0,2.9-1.648A7.947,7.947,0,0,0,464.595,114a6.05,6.05,0,0,0,.756-2.148h-2.776a4.275,4.275,0,0,1-.979,1.953,6.076,6.076,0,0,1-2.243,1.624,8.558,8.558,0,0,1-3.52.647,7.207,7.207,0,0,1-5.775-2.393,9.587,9.587,0,0,1-2.057-6.47V105.8h17.723v-2.075a13.766,13.766,0,0,0-1.3-6.262,9.228,9.228,0,0,0-3.594-3.918,11.1,11.1,0,0,0-10.584,0,9.229,9.229,0,0,0-3.594,3.918,13.767,13.767,0,0,0-1.3,6.262v3.394a13.562,13.562,0,0,0,1.252,6.055,9.024,9.024,0,0,0,3.594,3.906,11,11,0,0,0,5.637,1.362ZM448,103.693V103.4a11.012,11.012,0,0,1,.942-4.749,7.266,7.266,0,0,1,13.186,0,11.012,11.012,0,0,1,.942,4.749v.293ZM482.851,118h2.628V94.831h6.817V92.609h-6.817v-2.88a4.554,4.554,0,0,1,1.1-3.5,5.389,5.389,0,0,1,3.632-.989q.619,0,1.421.049t1.152.1V83.161A8.033,8.033,0,0,0,491.568,83q-.818-.061-1.586-.061-3.768,0-5.453,1.611t-1.685,5.029v3.027h-4.487V94.83h4.487Zm22.235-25.806a11.258,11.258,0,0,0-5.441,1.306,9.525,9.525,0,0,0-3.817,3.784,12.109,12.109,0,0,0-1.4,6.042v4a12.147,12.147,0,0,0,1.4,6.079,9.383,9.383,0,0,0,3.818,3.748,11.431,11.431,0,0,0,5.441,1.282,11.306,11.306,0,0,0,5.4-1.282,9.565,9.565,0,0,0,3.83-3.748,11.975,11.975,0,0,0,1.421-6.079v-4a12.061,12.061,0,0,0-1.421-6.079,9.5,9.5,0,0,0-3.842-3.772,11.326,11.326,0,0,0-5.392-1.281Zm0,2.344a7.953,7.953,0,0,1,4.139,1.074,7.382,7.382,0,0,1,2.843,3.113,10.818,10.818,0,0,1,1.029,4.919v3.394a10.912,10.912,0,0,1-1.015,4.932,7.106,7.106,0,0,1-2.813,3.064,8.154,8.154,0,0,1-4.152,1.038,8.246,8.246,0,0,1-4.213-1.05,7.1,7.1,0,0,1-2.813-3.064,10.945,10.945,0,0,1-1-4.919v-3.394a10.8,10.8,0,0,1,1.028-4.932,7.4,7.4,0,0,1,2.843-3.1,7.953,7.953,0,0,1,4.128-1.075ZM522.113,118h2.652V102.2a8.294,8.294,0,0,1,.942-4.1,6.322,6.322,0,0,1,2.6-2.563,7.93,7.93,0,0,1,3.768-.879,13.046,13.046,0,0,1,1.364.061q.57.061.818.11V92.365q-.3-.049-.781-.1-.55-.052-1.1-.049a8.449,8.449,0,0,0-3.941.818A6.86,6.86,0,0,0,526.029,95a6.625,6.625,0,0,0-1.117,2.173h-.148V92.609h-2.652ZM565.54,92.609h-2.823L554.81,115.29h-.124l-7.981-22.681h-2.953l9.645,25.757-.694,1.953a6.218,6.218,0,0,1-1.929,3,4.993,4.993,0,0,1-3.2,1q-.4,0-.992-.049t-.992-.1v2.246a8.862,8.862,0,0,0,1.09.146q.619.049,1.117.049a6.915,6.915,0,0,0,4.511-1.453,10.64,10.64,0,0,0,2.975-4.578l.967-2.466q1.14-3.223,2.306-6.4t2.33-6.372q1.165-3.2,2.33-6.384T565.54,92.609Zm12.715-.415a11.258,11.258,0,0,0-5.441,1.306A9.526,9.526,0,0,0,569,97.284a12.11,12.11,0,0,0-1.4,6.042v4a12.149,12.149,0,0,0,1.4,6.079,9.382,9.382,0,0,0,3.817,3.748,11.431,11.431,0,0,0,5.441,1.282,11.306,11.306,0,0,0,5.4-1.282,9.565,9.565,0,0,0,3.83-3.748,11.977,11.977,0,0,0,1.421-6.079v-4a12.061,12.061,0,0,0-1.421-6.079,9.5,9.5,0,0,0-3.842-3.772,11.326,11.326,0,0,0-5.4-1.281Zm0,2.344a7.953,7.953,0,0,1,4.139,1.074,7.382,7.382,0,0,1,2.843,3.113,10.817,10.817,0,0,1,1.029,4.919v3.394a10.911,10.911,0,0,1-1.015,4.932,7.106,7.106,0,0,1-2.813,3.064,8.155,8.155,0,0,1-4.151,1.038,8.246,8.246,0,0,1-4.213-1.05,7.1,7.1,0,0,1-2.813-3.064,10.946,10.946,0,0,1-1-4.919v-3.394a10.8,10.8,0,0,1,1.028-4.932,7.4,7.4,0,0,1,2.843-3.1,7.953,7.953,0,0,1,4.125-1.075Zm36.362-1.929h-2.652v15.625a8.055,8.055,0,0,1-.942,3.8,7.616,7.616,0,0,1-2.7,2.917,8.467,8.467,0,0,1-7.659.391,5.381,5.381,0,0,1-2.33-2.2,7.2,7.2,0,0,1-.843-3.638V92.609h-2.652v17.48A8.743,8.743,0,0,0,596,114.85a7.03,7.03,0,0,0,3.147,2.71,10.963,10.963,0,0,0,4.487.879,9.3,9.3,0,0,0,4.09-.818,8.09,8.09,0,0,0,2.689-2,7.408,7.408,0,0,0,1.4-2.332h.148V118h2.652ZM621.927,118h2.652V102.2a8.3,8.3,0,0,1,.942-4.1,6.322,6.322,0,0,1,2.6-2.563,7.931,7.931,0,0,1,3.768-.879,13.048,13.048,0,0,1,1.363.061q.57.061.818.11V92.365q-.3-.049-.781-.1-.55-.052-1.1-.049a8.448,8.448,0,0,0-3.941.818,6.859,6.859,0,0,0-2.4,1.966,6.628,6.628,0,0,0-1.117,2.173h-.148V92.609H621.93Zm33.76,6.665a9.14,9.14,0,0,1-3.68-.659,6.088,6.088,0,0,1-2.318-1.66,3.973,3.973,0,0,1-.942-2.026H646a6.377,6.377,0,0,0,1.19,3.174,7.766,7.766,0,0,0,3.147,2.527,12.25,12.25,0,0,0,5.255.989,14.467,14.467,0,0,0,4.366-.61,9.184,9.184,0,0,0,3.309-1.807,7.844,7.844,0,0,0,2.107-2.954,10.484,10.484,0,0,0,.731-4.053V92.609h-2.553v4.517h-.124a7.181,7.181,0,0,0-1.376-2.148,8.429,8.429,0,0,0-2.665-1.965,9.016,9.016,0,0,0-4.016-.818,10.548,10.548,0,0,0-4.994,1.208,9.188,9.188,0,0,0-3.68,3.577,11.314,11.314,0,0,0-1.388,5.811v3.955a11.363,11.363,0,0,0,1.326,5.64,9.22,9.22,0,0,0,3.606,3.638,10.318,10.318,0,0,0,5.106,1.27,9.3,9.3,0,0,0,3.185-.5,8.466,8.466,0,0,0,2.342-1.257,7.855,7.855,0,0,0,1.562-1.587,7.34,7.34,0,0,0,.867-1.514h.148v5.225a6.734,6.734,0,0,1-1.983,5.115,8.055,8.055,0,0,1-5.773,1.889Zm.05-30.127a7.216,7.216,0,0,1,4.127,1.16,7.67,7.67,0,0,1,2.652,3.076,9.521,9.521,0,0,1,.93,4.211v3.638a9.488,9.488,0,0,1-.88,4.028,7.616,7.616,0,0,1-2.59,3.1,7.171,7.171,0,0,1-4.213,1.2,7.4,7.4,0,0,1-6.779-4.1,10.03,10.03,0,0,1-1.029-4.687V103.43A10.4,10.4,0,0,1,649,98.559a7.193,7.193,0,0,1,2.813-3,7.775,7.775,0,0,1,3.931-1.021ZM674.132,118h2.652V102.2a8.3,8.3,0,0,1,.942-4.1,6.322,6.322,0,0,1,2.6-2.563,7.93,7.93,0,0,1,3.768-.879,13.048,13.048,0,0,1,1.363.061q.569.061.818.11V92.365q-.3-.049-.781-.1-.55-.052-1.1-.049a8.449,8.449,0,0,0-3.941.818,6.86,6.86,0,0,0-2.4,1.966,6.627,6.627,0,0,0-1.117,2.173h-.148V92.609h-2.652Zm24.911-25.806A11.258,11.258,0,0,0,693.6,93.5a9.526,9.526,0,0,0-3.817,3.784,12.109,12.109,0,0,0-1.4,6.042v4a12.147,12.147,0,0,0,1.4,6.079,9.382,9.382,0,0,0,3.817,3.748,11.431,11.431,0,0,0,5.441,1.282,11.306,11.306,0,0,0,5.4-1.282,9.565,9.565,0,0,0,3.83-3.748,11.976,11.976,0,0,0,1.421-6.079v-4a12.061,12.061,0,0,0-1.421-6.079,9.5,9.5,0,0,0-3.842-3.772,11.326,11.326,0,0,0-5.391-1.281Zm0,2.344a7.953,7.953,0,0,1,4.139,1.074,7.381,7.381,0,0,1,2.843,3.113,10.817,10.817,0,0,1,1.029,4.919v3.394a10.911,10.911,0,0,1-1.015,4.932,7.106,7.106,0,0,1-2.813,3.064,8.154,8.154,0,0,1-4.152,1.038,8.246,8.246,0,0,1-4.214-1.05,7.1,7.1,0,0,1-2.813-3.064,10.946,10.946,0,0,1-1-4.919v-3.394a10.8,10.8,0,0,1,1.029-4.932,7.4,7.4,0,0,1,2.843-3.1,7.953,7.953,0,0,1,4.129-1.075Zm46.773-1.929h-2.7l-5.577,21.777h-.148l-6.846-21.777h-2.578l-6.742,21.777h-.148l-5.5-21.777h-3L719.815,118h2.628l6.791-21.606h.1L736.174,118H738.8ZM750.747,118h2.628V92.609h-2.628Zm-.892-33.032a2.11,2.11,0,0,0,.632,1.525,2.3,2.3,0,0,0,3.148,0,2.059,2.059,0,0,0,.633-1.526,2.112,2.112,0,0,0-.632-1.578,2.179,2.179,0,0,0-1.6-.622,2.137,2.137,0,0,0-2.177,2.2ZM760.392,118h2.652V103.205a10.517,10.517,0,0,1,.867-4.272,7.423,7.423,0,0,1,2.615-3.186,7.514,7.514,0,0,1,4.375-1.208,6.906,6.906,0,0,1,3.632.891,5.841,5.841,0,0,1,2.256,2.478,8.311,8.311,0,0,1,.781,3.711V118H780.2V100.91q0-4.3-2.466-6.506A9.134,9.134,0,0,0,771.4,92.2a9.642,9.642,0,0,0-4.313.842,7.141,7.141,0,0,0-2.6,2.075,8.27,8.27,0,0,0-1.289,2.4h-.148v-4.9h-2.653Zm35.693,6.665a9.139,9.139,0,0,1-3.68-.659,6.088,6.088,0,0,1-2.318-1.66,3.973,3.973,0,0,1-.942-2.026h-2.751a6.377,6.377,0,0,0,1.19,3.174,7.765,7.765,0,0,0,3.147,2.527,12.25,12.25,0,0,0,5.255.989,14.467,14.467,0,0,0,4.366-.61,9.186,9.186,0,0,0,3.309-1.807,7.843,7.843,0,0,0,2.107-2.954,10.483,10.483,0,0,0,.731-4.053V92.609h-2.553v4.517h-.124a7.178,7.178,0,0,0-1.376-2.148,8.429,8.429,0,0,0-2.665-1.965,9.017,9.017,0,0,0-4.015-.818A10.547,10.547,0,0,0,790.77,93.4a9.188,9.188,0,0,0-3.68,3.577,11.315,11.315,0,0,0-1.388,5.811v3.955a11.364,11.364,0,0,0,1.326,5.64,9.221,9.221,0,0,0,3.606,3.638,10.318,10.318,0,0,0,5.106,1.27,9.3,9.3,0,0,0,3.185-.5,8.469,8.469,0,0,0,2.342-1.257,7.86,7.86,0,0,0,1.562-1.587,7.337,7.337,0,0,0,.867-1.514h.148v5.225a6.734,6.734,0,0,1-1.983,5.115,8.055,8.055,0,0,1-5.777,1.889Zm.05-30.127a7.216,7.216,0,0,1,4.127,1.16,7.67,7.67,0,0,1,2.652,3.076,9.521,9.521,0,0,1,.93,4.211v3.638a9.491,9.491,0,0,1-.88,4.028,7.617,7.617,0,0,1-2.59,3.1,7.171,7.171,0,0,1-4.213,1.2,7.4,7.4,0,0,1-6.779-4.1,10.03,10.03,0,0,1-1.028-4.687V103.43a10.408,10.408,0,0,1,1.041-4.871,7.193,7.193,0,0,1,2.813-3,7.775,7.775,0,0,1,3.923-1.021Zm-780.619,93.9a10.013,10.013,0,0,0,5.246-1.338,9.072,9.072,0,0,0,3.47-3.748,12.282,12.282,0,0,0,1.226-5.652v-4.834a12.15,12.15,0,0,0-1.226-5.615,9.086,9.086,0,0,0-3.433-3.723,9.838,9.838,0,0,0-5.178-1.331,10.288,10.288,0,0,0-2.789.378,9.242,9.242,0,0,0-2.454,1.074,7.826,7.826,0,0,0-1.871,1.624,5.367,5.367,0,0,0-1.066,2H7.286V152.941H4.659V188H7.187v-4.492h.148A6.781,6.781,0,0,0,9.1,186.1a8.593,8.593,0,0,0,2.851,1.721,10.086,10.086,0,0,0,3.569.618Zm-.248-2.368A7.887,7.887,0,0,1,11.14,185a7.607,7.607,0,0,1-2.826-2.979,9,9,0,0,1-1.028-4.346v-4.517a9.751,9.751,0,0,1,.988-4.518,7.394,7.394,0,0,1,2.789-3.015,7.819,7.819,0,0,1,4.127-1.086,7.3,7.3,0,0,1,4.053,1.1,7.187,7.187,0,0,1,2.628,3.113,11.3,11.3,0,0,1,.93,4.773v3.589a11.437,11.437,0,0,1-.914,4.773,7.026,7.026,0,0,1-2.615,3.1,7.267,7.267,0,0,1-4,1.084Zm35.892-23.462H48.507v15.625a8.054,8.054,0,0,1-.942,3.8,7.616,7.616,0,0,1-2.7,2.917,8.467,8.467,0,0,1-7.659.391,5.381,5.381,0,0,1-2.33-2.2,7.2,7.2,0,0,1-.843-3.638V162.609H31.379v17.48a8.743,8.743,0,0,0,1.165,4.761,7.03,7.03,0,0,0,3.147,2.71,10.963,10.963,0,0,0,4.487.879,9.3,9.3,0,0,0,4.09-.818,8.09,8.09,0,0,0,2.689-2,7.407,7.407,0,0,0,1.4-2.332H48.5V188h2.652Zm6.024,6.714a5.471,5.471,0,0,0,1.09,3.577,7.109,7.109,0,0,0,3.025,2.075,34.271,34.271,0,0,0,4.412,1.331q1.859.391,3.482.9a6.845,6.845,0,0,1,2.628,1.44,3.38,3.38,0,0,1,1,2.612,4.158,4.158,0,0,1-.867,2.661,5.447,5.447,0,0,1-2.416,1.685,10.247,10.247,0,0,1-3.632.586,9.029,9.029,0,0,1-3.929-.72,4.837,4.837,0,0,1-2.913-3.967H56.463a6.07,6.07,0,0,0,1.028,3.381,7.361,7.361,0,0,0,3.111,2.563,12.182,12.182,0,0,0,5.23.989,13.49,13.49,0,0,0,4.873-.842,7.856,7.856,0,0,0,3.482-2.5,6.524,6.524,0,0,0,1.289-4.126,5.323,5.323,0,0,0-1.226-3.748,7.843,7.843,0,0,0-3.259-2.039,36.5,36.5,0,0,0-4.462-1.221q-1.438-.317-2.652-.7a10.364,10.364,0,0,1-2.119-.9,4.054,4.054,0,0,1-1.413-1.318,3.574,3.574,0,0,1-.508-1.965,3.864,3.864,0,0,1,1.809-3.467,7.9,7.9,0,0,1,4.387-1.172,7.766,7.766,0,0,1,3.668.745,5.07,5.07,0,0,1,2.02,1.794,4.112,4.112,0,0,1,.657,2h2.528a6.164,6.164,0,0,0-.942-3.223,6.984,6.984,0,0,0-2.887-2.563,10.837,10.837,0,0,0-4.975-1,12.311,12.311,0,0,0-4.474.781,7.275,7.275,0,0,0-3.235,2.368,6.356,6.356,0,0,0-1.212,3.984ZM81.821,188h2.628V162.609H81.821Zm-.892-33.032a2.11,2.11,0,0,0,.632,1.525,2.3,2.3,0,0,0,3.148,0,2.059,2.059,0,0,0,.632-1.526,2.112,2.112,0,0,0-.632-1.578,2.179,2.179,0,0,0-1.6-.622,2.14,2.14,0,0,0-2.179,2.2ZM91.463,188h2.652V173.205a10.516,10.516,0,0,1,.867-4.272,7.423,7.423,0,0,1,2.615-3.186,7.514,7.514,0,0,1,4.375-1.208,6.906,6.906,0,0,1,3.632.891,5.841,5.841,0,0,1,2.256,2.478,8.311,8.311,0,0,1,.781,3.711V188h2.628V170.91q0-4.3-2.466-6.506a9.134,9.134,0,0,0-6.333-2.209,9.642,9.642,0,0,0-4.313.842,7.142,7.142,0,0,0-2.6,2.075,8.269,8.269,0,0,0-1.289,2.4h-.148V162.6H91.463Zm36.042.439a11.724,11.724,0,0,0,4.077-.647,9.3,9.3,0,0,0,2.9-1.648A7.947,7.947,0,0,0,136.265,184a6.049,6.049,0,0,0,.756-2.148h-2.776a4.275,4.275,0,0,1-.979,1.953,6.075,6.075,0,0,1-2.243,1.624,8.557,8.557,0,0,1-3.52.647,7.207,7.207,0,0,1-5.775-2.393,9.587,9.587,0,0,1-2.057-6.47V175.8H137.4v-2.075a13.767,13.767,0,0,0-1.3-6.262,9.229,9.229,0,0,0-3.594-3.918,11.1,11.1,0,0,0-10.584,0,9.229,9.229,0,0,0-3.594,3.918,13.767,13.767,0,0,0-1.3,6.262v3.394a13.561,13.561,0,0,0,1.252,6.055,9.025,9.025,0,0,0,3.594,3.906,11,11,0,0,0,5.638,1.362Zm-7.833-14.746V173.4a11.011,11.011,0,0,1,.942-4.749,7.266,7.266,0,0,1,13.186,0,11.011,11.011,0,0,1,.942,4.749v.293Zm22.7-4.37a5.471,5.471,0,0,0,1.09,3.577,7.109,7.109,0,0,0,3.025,2.075,34.269,34.269,0,0,0,4.412,1.331q1.859.391,3.482.9a6.845,6.845,0,0,1,2.628,1.44,3.38,3.38,0,0,1,1,2.612,4.158,4.158,0,0,1-.867,2.661,5.446,5.446,0,0,1-2.416,1.685,10.246,10.246,0,0,1-3.632.586,9.031,9.031,0,0,1-3.929-.72,4.837,4.837,0,0,1-2.913-3.967h-2.6a6.07,6.07,0,0,0,1.029,3.381,7.361,7.361,0,0,0,3.111,2.563,12.182,12.182,0,0,0,5.23.989,13.49,13.49,0,0,0,4.873-.842,7.857,7.857,0,0,0,3.482-2.5,6.524,6.524,0,0,0,1.289-4.126,5.323,5.323,0,0,0-1.226-3.748,7.843,7.843,0,0,0-3.259-2.039,36.5,36.5,0,0,0-4.462-1.221q-1.438-.317-2.652-.7a10.365,10.365,0,0,1-2.119-.9,4.054,4.054,0,0,1-1.413-1.318,3.573,3.573,0,0,1-.508-1.965,3.864,3.864,0,0,1,1.809-3.467,7.9,7.9,0,0,1,4.382-1.17,7.766,7.766,0,0,1,3.668.745,5.07,5.07,0,0,1,2.02,1.794,4.112,4.112,0,0,1,.657,2H160.1a6.164,6.164,0,0,0-.942-3.223,6.984,6.984,0,0,0-2.887-2.563,10.837,10.837,0,0,0-4.975-1,12.311,12.311,0,0,0-4.474.781,7.275,7.275,0,0,0-3.235,2.368,6.356,6.356,0,0,0-1.21,3.981Zm22.978,0a5.471,5.471,0,0,0,1.09,3.577,7.109,7.109,0,0,0,3.025,2.075,34.268,34.268,0,0,0,4.412,1.331q1.859.391,3.482.9a6.845,6.845,0,0,1,2.628,1.44,3.38,3.38,0,0,1,1,2.612,4.158,4.158,0,0,1-.867,2.661,5.446,5.446,0,0,1-2.416,1.685,10.247,10.247,0,0,1-3.632.586,9.031,9.031,0,0,1-3.929-.72,4.837,4.837,0,0,1-2.913-3.967h-2.6a6.07,6.07,0,0,0,1.028,3.381,7.361,7.361,0,0,0,3.111,2.563,12.182,12.182,0,0,0,5.23.989,13.49,13.49,0,0,0,4.873-.842,7.858,7.858,0,0,0,3.482-2.5,6.524,6.524,0,0,0,1.289-4.126,5.323,5.323,0,0,0-1.226-3.748,7.843,7.843,0,0,0-3.259-2.039,36.5,36.5,0,0,0-4.462-1.221q-1.438-.317-2.652-.7a10.366,10.366,0,0,1-2.119-.9,4.054,4.054,0,0,1-1.413-1.318,3.573,3.573,0,0,1-.508-1.965,3.864,3.864,0,0,1,1.809-3.467,7.9,7.9,0,0,1,4.387-1.172,7.766,7.766,0,0,1,3.668.745,5.07,5.07,0,0,1,2.02,1.794,4.112,4.112,0,0,1,.657,2h2.528a6.164,6.164,0,0,0-.942-3.223,6.985,6.985,0,0,0-2.893-2.554,10.837,10.837,0,0,0-4.975-1,12.31,12.31,0,0,0-4.474.781,7.275,7.275,0,0,0-3.235,2.368,6.356,6.356,0,0,0-1.21,3.974Zm23.225-1.05a2.4,2.4,0,0,0,.719,1.733,2.474,2.474,0,0,0,1.759.708,2.527,2.527,0,0,0,1.809-.708,2.3,2.3,0,0,0,.743-1.733,2.4,2.4,0,0,0-.743-1.794,2.5,2.5,0,0,0-1.809-.72,2.391,2.391,0,0,0-1.759.72,2.438,2.438,0,0,0-.721,1.794Zm1.117,28.394,3-12.744h-3.173l-2.28,12.744Zm28.753-8.228a11.724,11.724,0,0,0,4.077-.647,9.3,9.3,0,0,0,2.9-1.648A7.946,7.946,0,0,0,227.209,184a6.05,6.05,0,0,0,.756-2.148h-2.776a4.275,4.275,0,0,1-.979,1.953,6.074,6.074,0,0,1-2.243,1.624,8.557,8.557,0,0,1-3.52.647,7.207,7.207,0,0,1-5.775-2.393,9.587,9.587,0,0,1-2.057-6.47V175.8h17.723v-2.075a13.767,13.767,0,0,0-1.3-6.262,9.229,9.229,0,0,0-3.594-3.918,11.1,11.1,0,0,0-10.584,0,9.229,9.229,0,0,0-3.594,3.918,13.767,13.767,0,0,0-1.3,6.262v3.394a13.561,13.561,0,0,0,1.252,6.055,9.025,9.025,0,0,0,3.594,3.906,11,11,0,0,0,5.638,1.362Zm-7.831-14.746V173.4a11.012,11.012,0,0,1,.942-4.749,7.266,7.266,0,0,1,13.186,0,11.011,11.011,0,0,1,.942,4.749v.293ZM234.385,188h2.652V173.205a10.516,10.516,0,0,1,.867-4.272,7.423,7.423,0,0,1,2.615-3.186,7.514,7.514,0,0,1,4.375-1.208,6.906,6.906,0,0,1,3.632.891,5.841,5.841,0,0,1,2.256,2.478,8.311,8.311,0,0,1,.781,3.711V188h2.628V170.91q0-4.3-2.466-6.506a9.134,9.134,0,0,0-6.333-2.209,9.642,9.642,0,0,0-4.313.842,7.141,7.141,0,0,0-2.6,2.075,8.269,8.269,0,0,0-1.289,2.4h-.148V162.6h-2.652Zm26.82,0h2.628V173.205a10.389,10.389,0,0,1,.88-4.272,7.228,7.228,0,0,1,7.005-4.394,7.056,7.056,0,0,1,3.644.891,5.833,5.833,0,0,1,2.306,2.49,8.278,8.278,0,0,1,.793,3.723V188h2.652V170.935q0-4.3-2.5-6.519a9.136,9.136,0,0,0-6.295-2.222,9.668,9.668,0,0,0-4.337.867,7.573,7.573,0,0,0-2.689,2.112,7.826,7.826,0,0,0-1.3,2.344h-.148V152.941h-2.628Zm33.586.439a9.48,9.48,0,0,0,3.9-.72A8.531,8.531,0,0,0,301.283,186a7.557,7.557,0,0,0,1.438-1.9h.148V188h2.577V170.1a7.9,7.9,0,0,0-1.178-4.5,6.935,6.935,0,0,0-3.21-2.576,12.174,12.174,0,0,0-4.635-.83,13.612,13.612,0,0,0-3.668.452A8.553,8.553,0,0,0,290,163.928a6.278,6.278,0,0,0-1.785,1.953,5.97,5.97,0,0,0-.769,2.441h2.6a4.4,4.4,0,0,1,.88-1.77,5.05,5.05,0,0,1,1.983-1.44,8.465,8.465,0,0,1,3.384-.574,7.406,7.406,0,0,1,4.685,1.392,5.2,5.2,0,0,1,1.785,4.37v3.247h-7.535q-4.366,0-6.605,2a6.672,6.672,0,0,0-2.243,5.225,7.12,7.12,0,0,0,2.33,5.579,8.758,8.758,0,0,0,6.075,2.088Zm.521-2.368a6.918,6.918,0,0,1-4.387-1.392,5.167,5.167,0,0,1-.335-7.5q1.45-1.392,4.67-1.392h7.513v3.564a6.115,6.115,0,0,1-1.015,3.491,7.006,7.006,0,0,1-2.7,2.368,8.157,8.157,0,0,1-3.744.861ZM312.34,188h2.65V173.205a10.516,10.516,0,0,1,.867-4.272,7.423,7.423,0,0,1,2.615-3.186,7.514,7.514,0,0,1,4.375-1.208,6.906,6.906,0,0,1,3.632.891,5.842,5.842,0,0,1,2.256,2.478,8.311,8.311,0,0,1,.781,3.711V188h2.633V170.91q0-4.3-2.466-6.506a9.134,9.134,0,0,0-6.333-2.209,9.643,9.643,0,0,0-4.313.842,7.141,7.141,0,0,0-2.6,2.075,8.271,8.271,0,0,0-1.289,2.4h-.154V162.6h-2.65Zm25.53-10.62a12.879,12.879,0,0,0,1.276,5.981,8.928,8.928,0,0,0,3.594,3.772,10.953,10.953,0,0,0,5.465,1.306,11.455,11.455,0,0,0,5.4-1.111,7.9,7.9,0,0,0,3.111-2.783,7.158,7.158,0,0,0,1.128-3.333h-2.6a6.52,6.52,0,0,1-.992,2.283,5.433,5.433,0,0,1-2.181,1.819,8.636,8.636,0,0,1-3.792.708,7.341,7.341,0,0,1-5.686-2.283,9.207,9.207,0,0,1-2.095-6.458V173.35a9.322,9.322,0,0,1,2.07-6.47,7.183,7.183,0,0,1,5.615-2.295,7.825,7.825,0,0,1,3.792.806A5.894,5.894,0,0,1,354.2,167.4a6.574,6.574,0,0,1,.954,2.38h2.6a7.212,7.212,0,0,0-1.165-3.552,8.411,8.411,0,0,0-3.185-2.893,12.144,12.144,0,0,0-10.609.146,9.039,9.039,0,0,0-3.618,3.735,12.357,12.357,0,0,0-1.3,5.884Zm26.4,10.62h2.628V162.609h-2.628Zm-.892-33.032a2.109,2.109,0,0,0,.632,1.525,2.3,2.3,0,0,0,3.148,0,2.059,2.059,0,0,0,.633-1.526,2.112,2.112,0,0,0-.632-1.578,2.179,2.179,0,0,0-1.6-.622,2.137,2.137,0,0,0-2.177,2.2ZM373.911,188h2.652V173.205a10.516,10.516,0,0,1,.867-4.272,7.423,7.423,0,0,1,2.615-3.186,7.514,7.514,0,0,1,4.375-1.208,6.906,6.906,0,0,1,3.632.891,5.842,5.842,0,0,1,2.256,2.478,8.311,8.311,0,0,1,.781,3.711V188h2.628V170.91q0-4.3-2.466-6.506a9.134,9.134,0,0,0-6.333-2.209,9.643,9.643,0,0,0-4.313.842,7.141,7.141,0,0,0-2.6,2.075,8.27,8.27,0,0,0-1.289,2.4h-.148V162.6h-2.652Zm35.693,6.665a9.139,9.139,0,0,1-3.68-.659,6.088,6.088,0,0,1-2.318-1.66,3.973,3.973,0,0,1-.942-2.026h-2.751a6.377,6.377,0,0,0,1.19,3.174,7.765,7.765,0,0,0,3.147,2.527,12.249,12.249,0,0,0,5.255.989,14.467,14.467,0,0,0,4.366-.61,9.185,9.185,0,0,0,3.309-1.807,7.844,7.844,0,0,0,2.107-2.954,10.483,10.483,0,0,0,.731-4.053V162.609h-2.555v4.517h-.124a7.179,7.179,0,0,0-1.376-2.148,8.429,8.429,0,0,0-2.665-1.965,9.017,9.017,0,0,0-4.015-.818,10.548,10.548,0,0,0-4.994,1.208,9.187,9.187,0,0,0-3.68,3.577,11.314,11.314,0,0,0-1.388,5.811v3.955a11.365,11.365,0,0,0,1.326,5.64,9.22,9.22,0,0,0,3.606,3.638,10.318,10.318,0,0,0,5.106,1.27,9.3,9.3,0,0,0,3.185-.5,8.467,8.467,0,0,0,2.342-1.257,7.857,7.857,0,0,0,1.561-1.587,7.34,7.34,0,0,0,.867-1.514h.148v5.225a6.734,6.734,0,0,1-1.983,5.115,8.055,8.055,0,0,1-5.774,1.889Zm.05-30.127a7.215,7.215,0,0,1,4.127,1.16,7.67,7.67,0,0,1,2.652,3.076,9.521,9.521,0,0,1,.93,4.211v3.638a9.491,9.491,0,0,1-.88,4.028,7.615,7.615,0,0,1-2.59,3.1,7.171,7.171,0,0,1-4.213,1.2,7.4,7.4,0,0,1-6.779-4.1,10.03,10.03,0,0,1-1.029-4.687V173.43a10.407,10.407,0,0,1,1.041-4.871,7.193,7.193,0,0,1,2.813-3,7.775,7.775,0,0,1,3.928-1.021Zm36.735-2.344a11.258,11.258,0,0,0-5.441,1.306,9.525,9.525,0,0,0-3.817,3.784,12.11,12.11,0,0,0-1.4,6.042v4a12.147,12.147,0,0,0,1.4,6.079,9.383,9.383,0,0,0,3.817,3.748,11.431,11.431,0,0,0,5.441,1.282,11.306,11.306,0,0,0,5.4-1.282,9.565,9.565,0,0,0,3.83-3.748,11.976,11.976,0,0,0,1.421-6.079v-4a12.061,12.061,0,0,0-1.421-6.079,9.5,9.5,0,0,0-3.842-3.772,11.326,11.326,0,0,0-5.391-1.281Zm0,2.344a7.953,7.953,0,0,1,4.139,1.074,7.382,7.382,0,0,1,2.843,3.113,10.817,10.817,0,0,1,1.029,4.919v3.394a10.911,10.911,0,0,1-1.015,4.932,7.106,7.106,0,0,1-2.813,3.064,8.155,8.155,0,0,1-4.151,1.038,8.246,8.246,0,0,1-4.213-1.05,7.1,7.1,0,0,1-2.813-3.064,10.946,10.946,0,0,1-1-4.919v-3.394a10.8,10.8,0,0,1,1.028-4.932,7.4,7.4,0,0,1,2.843-3.1A7.953,7.953,0,0,1,446.389,164.538ZM463.417,188h2.652V172.2a8.29,8.29,0,0,1,.942-4.1,6.321,6.321,0,0,1,2.6-2.563,7.931,7.931,0,0,1,3.768-.879,13.042,13.042,0,0,1,1.363.061q.571.061.818.11v-2.466q-.3-.049-.781-.1-.55-.052-1.1-.049a8.448,8.448,0,0,0-3.941.818,6.859,6.859,0,0,0-2.4,1.968,6.629,6.629,0,0,0-1.117,2.173h-.148v-4.565h-2.652Zm24.415,6.665a9.139,9.139,0,0,1-3.68-.659,6.088,6.088,0,0,1-2.318-1.66,3.973,3.973,0,0,1-.942-2.026h-2.747a6.378,6.378,0,0,0,1.19,3.174,7.765,7.765,0,0,0,3.147,2.527,12.249,12.249,0,0,0,5.255.989,14.467,14.467,0,0,0,4.366-.61,9.185,9.185,0,0,0,3.3-1.808,7.843,7.843,0,0,0,2.107-2.954,10.482,10.482,0,0,0,.731-4.053V162.609h-2.553v4.517h-.124a7.179,7.179,0,0,0-1.376-2.148,8.429,8.429,0,0,0-2.665-1.965,9.017,9.017,0,0,0-4.015-.818,10.548,10.548,0,0,0-4.994,1.208,9.188,9.188,0,0,0-3.68,3.577,11.314,11.314,0,0,0-1.388,5.811v3.955a11.366,11.366,0,0,0,1.326,5.64,9.22,9.22,0,0,0,3.606,3.638,10.318,10.318,0,0,0,5.106,1.27,9.3,9.3,0,0,0,3.185-.5,8.467,8.467,0,0,0,2.342-1.257,7.856,7.856,0,0,0,1.561-1.587,7.341,7.341,0,0,0,.867-1.514h.148v5.225a6.734,6.734,0,0,1-1.983,5.115,8.055,8.055,0,0,1-5.773,1.889Zm.05-30.127a7.215,7.215,0,0,1,4.127,1.16,7.67,7.67,0,0,1,2.652,3.076,9.521,9.521,0,0,1,.93,4.211v3.638a9.49,9.49,0,0,1-.88,4.028,7.616,7.616,0,0,1-2.59,3.1,7.171,7.171,0,0,1-4.213,1.2,7.4,7.4,0,0,1-6.779-4.1,10.03,10.03,0,0,1-1.029-4.687V173.43a10.406,10.406,0,0,1,1.041-4.871,7.193,7.193,0,0,1,2.813-3,7.775,7.775,0,0,1,3.928-1.021Zm24.782,23.9a9.48,9.48,0,0,0,3.9-.72A8.531,8.531,0,0,0,519.162,186a7.556,7.556,0,0,0,1.438-1.9h.148V188h2.577V170.1a7.9,7.9,0,0,0-1.178-4.5,6.935,6.935,0,0,0-3.21-2.576,12.174,12.174,0,0,0-4.635-.83,13.613,13.613,0,0,0-3.668.452,8.553,8.553,0,0,0-2.751,1.282,6.277,6.277,0,0,0-1.785,1.953,5.967,5.967,0,0,0-.769,2.441h2.6a4.4,4.4,0,0,1,.88-1.77,5.05,5.05,0,0,1,1.983-1.44,8.466,8.466,0,0,1,3.384-.574,7.406,7.406,0,0,1,4.684,1.392,5.2,5.2,0,0,1,1.785,4.37v3.247h-7.535q-4.366,0-6.605,2a6.672,6.672,0,0,0-2.243,5.225,7.119,7.119,0,0,0,2.33,5.579,8.758,8.758,0,0,0,6.07,2.088Zm.521-2.368a6.918,6.918,0,0,1-4.387-1.392,5.167,5.167,0,0,1-.335-7.5q1.45-1.392,4.67-1.392h7.513v3.564a6.116,6.116,0,0,1-1.015,3.491,7.006,7.006,0,0,1-2.7,2.368,8.157,8.157,0,0,1-3.739.861ZM530.218,188h2.65V173.205a10.517,10.517,0,0,1,.867-4.272,7.423,7.423,0,0,1,2.615-3.186,7.514,7.514,0,0,1,4.375-1.208,6.906,6.906,0,0,1,3.632.891,5.842,5.842,0,0,1,2.256,2.478,8.309,8.309,0,0,1,.781,3.711V188h2.633V170.91q0-4.3-2.466-6.506a9.134,9.134,0,0,0-6.333-2.209,9.642,9.642,0,0,0-4.313.842,7.142,7.142,0,0,0-2.6,2.075,8.27,8.27,0,0,0-1.289,2.4h-.154V162.6h-2.65Zm27.311,0h2.628V162.609h-2.628Zm-.892-33.032a2.11,2.11,0,0,0,.632,1.525,2.3,2.3,0,0,0,3.148,0,2.059,2.059,0,0,0,.632-1.526,2.112,2.112,0,0,0-.632-1.578,2.179,2.179,0,0,0-1.6-.622,2.134,2.134,0,0,0-2.175,2.2Zm9.469,14.355a5.471,5.471,0,0,0,1.09,3.577,7.109,7.109,0,0,0,3.025,2.075,34.27,34.27,0,0,0,4.412,1.331q1.859.391,3.482.9a6.845,6.845,0,0,1,2.628,1.44,3.379,3.379,0,0,1,1,2.612,4.157,4.157,0,0,1-.867,2.661,5.446,5.446,0,0,1-2.416,1.685,10.246,10.246,0,0,1-3.632.586,9.031,9.031,0,0,1-3.929-.72,4.837,4.837,0,0,1-2.913-3.967h-2.6a6.07,6.07,0,0,0,1.028,3.381,7.361,7.361,0,0,0,3.111,2.563,12.182,12.182,0,0,0,5.23.989,13.49,13.49,0,0,0,4.873-.842,7.857,7.857,0,0,0,3.482-2.5,6.525,6.525,0,0,0,1.289-4.126,5.322,5.322,0,0,0-1.226-3.748,7.842,7.842,0,0,0-3.259-2.039,36.508,36.508,0,0,0-4.462-1.221q-1.438-.317-2.652-.7a10.363,10.363,0,0,1-2.119-.9,4.056,4.056,0,0,1-1.413-1.318,3.573,3.573,0,0,1-.508-1.965,3.864,3.864,0,0,1,1.809-3.467,7.9,7.9,0,0,1,4.387-1.172,7.766,7.766,0,0,1,3.668.745,5.07,5.07,0,0,1,2.02,1.794,4.113,4.113,0,0,1,.657,2h2.528a6.164,6.164,0,0,0-.942-3.223A6.984,6.984,0,0,0,580,163.191a10.836,10.836,0,0,0-4.975-1,12.31,12.31,0,0,0-4.474.781,7.275,7.275,0,0,0-3.235,2.368,6.356,6.356,0,0,0-1.208,3.983Zm30.909,19.116a9.479,9.479,0,0,0,3.9-.72,8.538,8.538,0,0,0,2.6-1.719,7.556,7.556,0,0,0,1.438-1.9h.148V188h2.578V170.1a7.9,7.9,0,0,0-1.178-4.5,6.934,6.934,0,0,0-3.21-2.576,12.175,12.175,0,0,0-4.635-.83,13.612,13.612,0,0,0-3.668.452,8.552,8.552,0,0,0-2.751,1.282,6.276,6.276,0,0,0-1.785,1.953,5.968,5.968,0,0,0-.769,2.441h2.6a4.4,4.4,0,0,1,.88-1.77,5.049,5.049,0,0,1,1.983-1.44,8.466,8.466,0,0,1,3.384-.574,7.406,7.406,0,0,1,4.684,1.392A5.2,5.2,0,0,1,605,170.3v3.247h-7.535q-4.366,0-6.605,2a6.672,6.672,0,0,0-2.243,5.225,7.119,7.119,0,0,0,2.33,5.579,8.758,8.758,0,0,0,6.073,2.088Zm.521-2.368a6.918,6.918,0,0,1-4.387-1.392,5.167,5.167,0,0,1-.335-7.5q1.45-1.392,4.67-1.392H605v3.564a6.116,6.116,0,0,1-1.015,3.491,7.006,7.006,0,0,1-2.7,2.368,8.157,8.157,0,0,1-3.738.861Zm18.442-23.462h-4.61v2.222h4.61v16.9a10.5,10.5,0,0,0,.557,3.735,3.749,3.749,0,0,0,2.02,2.112,10.274,10.274,0,0,0,4.163.671q.6,0,1.574-.073t1.376-.122V185.8q-.372.024-1.164.085t-1.289.061a5.632,5.632,0,0,1-3.606-.867q-1-.867-1-3.259V164.831h6.667v-2.222H618.6v-6.25h-2.628ZM630.458,188h2.628V162.609h-2.628Zm-.892-33.032a2.11,2.11,0,0,0,.632,1.525,2.3,2.3,0,0,0,3.148,0,2.059,2.059,0,0,0,.633-1.526,2.112,2.112,0,0,0-.632-1.578,2.179,2.179,0,0,0-1.6-.622,2.14,2.14,0,0,0-2.179,2.2Zm20,7.227a11.258,11.258,0,0,0-5.441,1.306,9.527,9.527,0,0,0-3.817,3.784,12.109,12.109,0,0,0-1.4,6.042v4a12.147,12.147,0,0,0,1.4,6.079,9.383,9.383,0,0,0,3.818,3.748,11.431,11.431,0,0,0,5.441,1.282,11.306,11.306,0,0,0,5.4-1.282,9.565,9.565,0,0,0,3.83-3.748,11.977,11.977,0,0,0,1.421-6.079v-4a12.061,12.061,0,0,0-1.421-6.079,9.5,9.5,0,0,0-3.842-3.772,11.326,11.326,0,0,0-5.389-1.282Zm0,2.344a7.954,7.954,0,0,1,4.139,1.074,7.382,7.382,0,0,1,2.843,3.113,10.817,10.817,0,0,1,1.028,4.919v3.394a10.911,10.911,0,0,1-1.015,4.932,7.106,7.106,0,0,1-2.813,3.064,8.155,8.155,0,0,1-4.152,1.038,8.246,8.246,0,0,1-4.213-1.05,7.1,7.1,0,0,1-2.813-3.064,10.944,10.944,0,0,1-1-4.919v-3.394a10.8,10.8,0,0,1,1.028-4.932,7.4,7.4,0,0,1,2.843-3.1,7.953,7.953,0,0,1,4.131-1.076ZM666.377,188h2.652V173.205a10.518,10.518,0,0,1,.867-4.272,7.422,7.422,0,0,1,2.615-3.186,7.514,7.514,0,0,1,4.375-1.208,6.906,6.906,0,0,1,3.632.891,5.842,5.842,0,0,1,2.256,2.478,8.311,8.311,0,0,1,.781,3.711V188h2.62V170.91q0-4.3-2.466-6.506a9.134,9.134,0,0,0-6.333-2.209,9.643,9.643,0,0,0-4.313.842,7.142,7.142,0,0,0-2.6,2.075,8.27,8.27,0,0,0-1.289,2.4h-.148V162.6h-2.646Zm33.586.439a9.48,9.48,0,0,0,3.9-.72A8.537,8.537,0,0,0,706.454,186a7.557,7.557,0,0,0,1.438-1.9h.148V188h2.578V170.1a7.9,7.9,0,0,0-1.178-4.5,6.935,6.935,0,0,0-3.21-2.576,12.175,12.175,0,0,0-4.635-.83,13.613,13.613,0,0,0-3.668.452,8.552,8.552,0,0,0-2.751,1.282,6.278,6.278,0,0,0-1.785,1.953,5.968,5.968,0,0,0-.769,2.441h2.6a4.4,4.4,0,0,1,.88-1.77,5.05,5.05,0,0,1,1.983-1.44,8.465,8.465,0,0,1,3.384-.574,7.406,7.406,0,0,1,4.685,1.392,5.2,5.2,0,0,1,1.785,4.37v3.247h-7.535q-4.366,0-6.605,2a6.672,6.672,0,0,0-2.243,5.225,7.119,7.119,0,0,0,2.33,5.579,8.757,8.757,0,0,0,6.073,2.088Zm.521-2.368a6.918,6.918,0,0,1-4.387-1.392,5.167,5.167,0,0,1-.335-7.5q1.45-1.392,4.67-1.392h7.513v3.564a6.116,6.116,0,0,1-1.015,3.491,7.006,7.006,0,0,1-2.7,2.368,8.157,8.157,0,0,1-3.748.861ZM717.832,188h2.652V152.941h-2.652ZM13.9,258.439a11.725,11.725,0,0,0,4.077-.647,9.3,9.3,0,0,0,2.9-1.648A7.946,7.946,0,0,0,22.666,254a6.05,6.05,0,0,0,.756-2.148H20.646a4.275,4.275,0,0,1-.979,1.953,6.075,6.075,0,0,1-2.243,1.624,8.558,8.558,0,0,1-3.52.647,7.207,7.207,0,0,1-5.775-2.393,9.587,9.587,0,0,1-2.057-6.47V245.8H23.794v-2.075a13.767,13.767,0,0,0-1.3-6.262,9.229,9.229,0,0,0-3.594-3.918,10.274,10.274,0,0,0-5.292-1.343,10.274,10.274,0,0,0-5.292,1.343,9.229,9.229,0,0,0-3.594,3.918,13.767,13.767,0,0,0-1.3,6.262v3.394a13.561,13.561,0,0,0,1.252,6.055,9.025,9.025,0,0,0,3.594,3.906A11,11,0,0,0,13.9,258.439ZM6.071,243.693V243.4a11.012,11.012,0,0,1,.942-4.749,6.9,6.9,0,0,1,6.593-4.114A7.3,7.3,0,0,1,17.56,235.6a7.049,7.049,0,0,1,2.64,3.052,11.011,11.011,0,0,1,.942,4.749v.293ZM29.842,258h2.652V243.205a10.516,10.516,0,0,1,.867-4.272,7.423,7.423,0,0,1,2.615-3.186,7.514,7.514,0,0,1,4.375-1.208,6.906,6.906,0,0,1,3.632.891,5.841,5.841,0,0,1,2.256,2.478,8.311,8.311,0,0,1,.781,3.711V258h2.628V240.91q0-4.3-2.466-6.506a9.134,9.134,0,0,0-6.333-2.209,9.643,9.643,0,0,0-4.313.842,7.142,7.142,0,0,0-2.6,2.075,8.27,8.27,0,0,0-1.289,2.4h-.148V232.6H29.842Zm35.694,6.665a9.139,9.139,0,0,1-3.68-.659,6.088,6.088,0,0,1-2.318-1.66,3.973,3.973,0,0,1-.942-2.026H55.844a6.377,6.377,0,0,0,1.19,3.174,7.765,7.765,0,0,0,3.147,2.527,12.249,12.249,0,0,0,5.255.989,14.468,14.468,0,0,0,4.366-.61,9.185,9.185,0,0,0,3.309-1.807,7.843,7.843,0,0,0,2.107-2.954,10.483,10.483,0,0,0,.731-4.053V232.609H73.393v4.517h-.124a7.179,7.179,0,0,0-1.376-2.148,8.429,8.429,0,0,0-2.665-1.965,9.017,9.017,0,0,0-4.015-.818,10.547,10.547,0,0,0-4.994,1.208,9.188,9.188,0,0,0-3.68,3.577,11.314,11.314,0,0,0-1.388,5.811v3.955a11.364,11.364,0,0,0,1.326,5.64,9.22,9.22,0,0,0,3.606,3.638,10.318,10.318,0,0,0,5.106,1.27,9.3,9.3,0,0,0,3.185-.5,8.467,8.467,0,0,0,2.342-1.257,7.856,7.856,0,0,0,1.561-1.587,7.341,7.341,0,0,0,.867-1.514h.148v5.225a6.735,6.735,0,0,1-1.983,5.115,8.055,8.055,0,0,1-5.774,1.889Zm.05-30.127a7.216,7.216,0,0,1,4.127,1.16,7.67,7.67,0,0,1,2.652,3.076,9.521,9.521,0,0,1,.93,4.211v3.638a9.49,9.49,0,0,1-.88,4.028,7.616,7.616,0,0,1-2.59,3.1,7.171,7.171,0,0,1-4.213,1.2,7.4,7.4,0,0,1-6.779-4.1,10.031,10.031,0,0,1-1.028-4.687V243.43a10.406,10.406,0,0,1,1.041-4.871,7.193,7.193,0,0,1,2.813-3,7.775,7.775,0,0,1,3.927-1.021Zm24.787,23.9a9.481,9.481,0,0,0,3.9-.72A8.531,8.531,0,0,0,96.866,256a7.557,7.557,0,0,0,1.438-1.9h.148V258h2.578V240.1a7.9,7.9,0,0,0-1.178-4.5,6.935,6.935,0,0,0-3.21-2.576,12.176,12.176,0,0,0-4.635-.83,13.612,13.612,0,0,0-3.668.452,8.553,8.553,0,0,0-2.751,1.282,6.278,6.278,0,0,0-1.785,1.953,5.969,5.969,0,0,0-.769,2.441h2.6a4.4,4.4,0,0,1,.88-1.77,5.05,5.05,0,0,1,1.983-1.44,8.466,8.466,0,0,1,3.384-.574,7.406,7.406,0,0,1,4.685,1.392,5.2,5.2,0,0,1,1.785,4.37v3.247H90.816q-4.366,0-6.605,2a6.672,6.672,0,0,0-2.243,5.225,7.119,7.119,0,0,0,2.33,5.579,8.758,8.758,0,0,0,6.074,2.088Zm.521-2.368a6.918,6.918,0,0,1-4.387-1.392,5.167,5.167,0,0,1-.335-7.5q1.45-1.392,4.67-1.392h7.513v3.564a6.115,6.115,0,0,1-1.015,3.491,7.006,7.006,0,0,1-2.7,2.368,8.157,8.157,0,0,1-3.745.862Zm26,8.594a9.14,9.14,0,0,1-3.68-.659,6.088,6.088,0,0,1-2.318-1.66,3.973,3.973,0,0,1-.942-2.026H107.2a6.377,6.377,0,0,0,1.19,3.174,7.765,7.765,0,0,0,3.147,2.527,12.249,12.249,0,0,0,5.255.989,14.467,14.467,0,0,0,4.366-.61,9.185,9.185,0,0,0,3.309-1.807,7.843,7.843,0,0,0,2.107-2.954,10.483,10.483,0,0,0,.731-4.053V232.609h-2.553v4.517h-.129a7.179,7.179,0,0,0-1.376-2.148,8.429,8.429,0,0,0-2.665-1.965,9.017,9.017,0,0,0-4.015-.818,10.548,10.548,0,0,0-4.994,1.208,9.188,9.188,0,0,0-3.68,3.577,11.315,11.315,0,0,0-1.388,5.811v3.955a11.365,11.365,0,0,0,1.326,5.64,9.221,9.221,0,0,0,3.606,3.638,10.318,10.318,0,0,0,5.106,1.27,9.3,9.3,0,0,0,3.185-.5,8.467,8.467,0,0,0,2.342-1.257,7.856,7.856,0,0,0,1.561-1.587,7.342,7.342,0,0,0,.867-1.514h.148v5.225a6.734,6.734,0,0,1-1.983,5.115,8.055,8.055,0,0,1-5.771,1.889Zm.05-30.127a7.216,7.216,0,0,1,4.127,1.16,7.67,7.67,0,0,1,2.652,3.076,9.521,9.521,0,0,1,.93,4.211v3.638a9.49,9.49,0,0,1-.88,4.028,7.617,7.617,0,0,1-2.59,3.1,7.171,7.171,0,0,1-4.213,1.2,7.4,7.4,0,0,1-6.779-4.1,10.031,10.031,0,0,1-1.028-4.687v-2.734a10.406,10.406,0,0,1,1.041-4.871,7.193,7.193,0,0,1,2.813-3,7.775,7.775,0,0,1,3.927-1.02Zm27.241,23.9a11.725,11.725,0,0,0,4.077-.647,9.3,9.3,0,0,0,2.9-1.648A7.947,7.947,0,0,0,152.951,254a6.049,6.049,0,0,0,.756-2.148h-2.776a4.275,4.275,0,0,1-.979,1.953,6.075,6.075,0,0,1-2.243,1.624,8.558,8.558,0,0,1-3.52.647,7.207,7.207,0,0,1-5.775-2.393,9.587,9.587,0,0,1-2.057-6.47V245.8h17.723v-2.075a13.767,13.767,0,0,0-1.3-6.262,9.229,9.229,0,0,0-3.594-3.918,11.1,11.1,0,0,0-10.584,0,9.229,9.229,0,0,0-3.594,3.918,13.767,13.767,0,0,0-1.3,6.262v3.394a13.561,13.561,0,0,0,1.252,6.055,9.025,9.025,0,0,0,3.594,3.906,11,11,0,0,0,5.633,1.362Zm-7.833-14.746V243.4a11.011,11.011,0,0,1,.942-4.749,7.266,7.266,0,0,1,13.186,0,11.011,11.011,0,0,1,.942,4.749v.293ZM160.123,258h2.652V241.716a8.258,8.258,0,0,1,.781-3.625,6.167,6.167,0,0,1,5.838-3.552,6.7,6.7,0,0,1,3.371.806,5.382,5.382,0,0,1,2.169,2.295,7.733,7.733,0,0,1,.756,3.54V258h2.652V241.5a7.473,7.473,0,0,1,.805-3.455,6.342,6.342,0,0,1,5.888-3.5,6.861,6.861,0,0,1,3.309.757,5.149,5.149,0,0,1,2.156,2.209,7.564,7.564,0,0,1,.756,3.528V258h2.652V240.349a7.708,7.708,0,0,0-2.33-6.091,8.822,8.822,0,0,0-6.072-2.063,8.669,8.669,0,0,0-3.978.83,7.469,7.469,0,0,0-2.553,2.026,7.983,7.983,0,0,0-1.3,2.3h-.151a6.747,6.747,0,0,0-3.78-4.443,8.691,8.691,0,0,0-3.68-.708,8.125,8.125,0,0,0-3.858.793,6.378,6.378,0,0,0-2.243,1.88,6.994,6.994,0,0,0-1.041,2.014h-.148V232.61h-2.652Zm50.119.439a11.725,11.725,0,0,0,4.077-.647,9.3,9.3,0,0,0,2.9-1.647A7.947,7.947,0,0,0,219,254a6.049,6.049,0,0,0,.756-2.148h-2.776a4.275,4.275,0,0,1-.979,1.953,6.075,6.075,0,0,1-2.243,1.624,8.558,8.558,0,0,1-3.52.647,7.207,7.207,0,0,1-5.775-2.393,9.587,9.587,0,0,1-2.057-6.47V245.8h17.721v-2.075a13.767,13.767,0,0,0-1.3-6.262,9.229,9.229,0,0,0-3.594-3.918,11.1,11.1,0,0,0-10.584,0,9.229,9.229,0,0,0-3.594,3.918,13.767,13.767,0,0,0-1.3,6.262v3.394a13.561,13.561,0,0,0,1.252,6.055,9.025,9.025,0,0,0,3.594,3.906A11,11,0,0,0,210.242,258.439Zm-7.833-14.746V243.4a11.011,11.011,0,0,1,.942-4.749,7.266,7.266,0,0,1,13.186,0,11.011,11.011,0,0,1,.942,4.749v.293ZM226.18,258h2.652V243.205a10.516,10.516,0,0,1,.867-4.272,7.423,7.423,0,0,1,2.615-3.186,7.514,7.514,0,0,1,4.375-1.208,6.906,6.906,0,0,1,3.632.891,5.841,5.841,0,0,1,2.256,2.478,8.311,8.311,0,0,1,.781,3.711V258h2.628V240.91q0-4.3-2.466-6.506a9.134,9.134,0,0,0-6.333-2.209,9.642,9.642,0,0,0-4.313.842,7.142,7.142,0,0,0-2.6,2.075,8.269,8.269,0,0,0-1.289,2.4h-.148V232.6h-2.652Zm28.133-25.391h-4.606v2.222h4.61v16.9a10.5,10.5,0,0,0,.557,3.735,3.75,3.75,0,0,0,2.02,2.112,10.274,10.274,0,0,0,4.163.671q.595,0,1.574-.073t1.376-.122V255.8q-.372.024-1.165.085t-1.289.061a5.632,5.632,0,0,1-3.606-.867q-1-.867-1-3.259V234.831h6.667v-2.222h-6.667v-6.25h-2.628Zm14.62,34.058,3-12.744H268.76l-2.28,12.744ZM286.314,258h2.652V242.2a8.289,8.289,0,0,1,.942-4.1,6.321,6.321,0,0,1,2.6-2.563,7.931,7.931,0,0,1,3.768-.879,13.042,13.042,0,0,1,1.363.061q.571.061.818.11v-2.466q-.3-.049-.781-.1-.55-.052-1.1-.049a8.448,8.448,0,0,0-3.941.818A6.859,6.859,0,0,0,290.23,235a6.629,6.629,0,0,0-1.117,2.173h-.148v-4.565h-2.652Zm24.763.439a11.724,11.724,0,0,0,4.077-.647,9.3,9.3,0,0,0,2.9-1.648A7.947,7.947,0,0,0,319.839,254a6.05,6.05,0,0,0,.756-2.148h-2.776a4.275,4.275,0,0,1-.979,1.953,6.075,6.075,0,0,1-2.243,1.624,8.558,8.558,0,0,1-3.52.647,7.207,7.207,0,0,1-5.775-2.393,9.587,9.587,0,0,1-2.057-6.47V245.8h17.723v-2.075a13.766,13.766,0,0,0-1.3-6.262,9.229,9.229,0,0,0-3.594-3.918,11.1,11.1,0,0,0-10.584,0,9.229,9.229,0,0,0-3.594,3.918,13.767,13.767,0,0,0-1.3,6.262v3.394a13.562,13.562,0,0,0,1.252,6.055,9.025,9.025,0,0,0,3.594,3.906,11,11,0,0,0,5.637,1.362Zm-7.833-14.746V243.4a11.011,11.011,0,0,1,.942-4.749,7.266,7.266,0,0,1,13.186,0,11.011,11.011,0,0,1,.942,4.749v.293Zm32.471-11.5a10.267,10.267,0,0,0-5.007,1.233A9.139,9.139,0,0,0,327.113,237a11.406,11.406,0,0,0-1.338,5.737v5.151a11.751,11.751,0,0,0,1.252,5.566,8.989,8.989,0,0,0,3.482,3.662,10.04,10.04,0,0,0,5.131,1.294,9.788,9.788,0,0,0,3.3-.513,9.309,9.309,0,0,0,2.478-1.294,7.542,7.542,0,0,0,1.661-1.66,5.2,5.2,0,0,0,.818-1.636h.148V258h2.528V222.941h-2.628V237.1H343.8a7.184,7.184,0,0,0-1.438-2.283,7.849,7.849,0,0,0-2.665-1.88,9.622,9.622,0,0,0-3.978-.743Zm.273,2.344a7.564,7.564,0,0,1,6.953,4.089,8.947,8.947,0,0,1,1,4.26v4.59A9.816,9.816,0,0,1,343,251.8a7.608,7.608,0,0,1-2.7,3.113,8.191,8.191,0,0,1-8.192.122,7.081,7.081,0,0,1-2.7-3.015,10.7,10.7,0,0,1-.979-4.785V243.4a10.661,10.661,0,0,1,1.015-4.907,7.018,7.018,0,0,1,2.727-2.966,7.488,7.488,0,0,1,3.816-.989Zm37.552-1.929h-2.652v15.625a8.055,8.055,0,0,1-.942,3.8,7.616,7.616,0,0,1-2.7,2.917,8.467,8.467,0,0,1-7.659.391,5.382,5.382,0,0,1-2.33-2.2,7.2,7.2,0,0,1-.843-3.638V232.609H353.76v17.48a8.743,8.743,0,0,0,1.165,4.761,7.03,7.03,0,0,0,3.147,2.71,10.963,10.963,0,0,0,4.487.879,9.3,9.3,0,0,0,4.09-.818,8.091,8.091,0,0,0,2.689-2,7.407,7.407,0,0,0,1.4-2.332h.148V258h2.652Zm5.9,14.771a12.878,12.878,0,0,0,1.276,5.981,8.929,8.929,0,0,0,3.594,3.772,10.953,10.953,0,0,0,5.465,1.306,11.455,11.455,0,0,0,5.4-1.111,7.9,7.9,0,0,0,3.111-2.783,7.157,7.157,0,0,0,1.128-3.333h-2.6a6.52,6.52,0,0,1-.992,2.283,5.433,5.433,0,0,1-2.181,1.819,8.636,8.636,0,0,1-3.792.708,7.341,7.341,0,0,1-5.686-2.283,9.207,9.207,0,0,1-2.095-6.458v-3.931a9.322,9.322,0,0,1,2.07-6.47,7.183,7.183,0,0,1,5.615-2.295,7.825,7.825,0,0,1,3.792.806,5.9,5.9,0,0,1,2.218,2.014,6.573,6.573,0,0,1,.954,2.38h2.6a7.211,7.211,0,0,0-1.165-3.552,8.411,8.411,0,0,0-3.185-2.893,12.144,12.144,0,0,0-10.609.146,9.038,9.038,0,0,0-3.618,3.735,12.356,12.356,0,0,0-1.3,5.884Zm26.4,10.62h2.628v-25.39h-2.628Zm-.892-33.032a2.11,2.11,0,0,0,.632,1.525,2.3,2.3,0,0,0,3.148,0,2.059,2.059,0,0,0,.632-1.526,2.112,2.112,0,0,0-.632-1.578,2.179,2.179,0,0,0-1.6-.622,2.142,2.142,0,0,0-2.18,2.2ZM415.479,258h2.652V243.205a10.517,10.517,0,0,1,.867-4.272,7.423,7.423,0,0,1,2.615-3.186,7.514,7.514,0,0,1,4.375-1.208,6.906,6.906,0,0,1,3.632.891,5.842,5.842,0,0,1,2.256,2.478,8.311,8.311,0,0,1,.781,3.711V258h2.628V240.91q0-4.3-2.466-6.506a9.134,9.134,0,0,0-6.333-2.209,9.642,9.642,0,0,0-4.313.842,7.142,7.142,0,0,0-2.6,2.075,8.269,8.269,0,0,0-1.289,2.4h-.148V232.6H415.48Zm35.693,6.665a9.139,9.139,0,0,1-3.68-.659,6.088,6.088,0,0,1-2.318-1.66,3.973,3.973,0,0,1-.942-2.026H441.48a6.377,6.377,0,0,0,1.19,3.174,7.765,7.765,0,0,0,3.147,2.527,12.249,12.249,0,0,0,5.255.989,14.468,14.468,0,0,0,4.366-.61,9.185,9.185,0,0,0,3.309-1.807,7.842,7.842,0,0,0,2.107-2.954,10.483,10.483,0,0,0,.731-4.053V232.609h-2.553v4.517h-.124a7.179,7.179,0,0,0-1.376-2.148,8.429,8.429,0,0,0-2.665-1.965,9.017,9.017,0,0,0-4.015-.818,10.548,10.548,0,0,0-4.992,1.2,9.187,9.187,0,0,0-3.68,3.577,11.315,11.315,0,0,0-1.388,5.811v3.955a11.365,11.365,0,0,0,1.326,5.64,9.22,9.22,0,0,0,3.606,3.638,10.318,10.318,0,0,0,5.106,1.27,9.3,9.3,0,0,0,3.185-.5,8.466,8.466,0,0,0,2.342-1.257,7.855,7.855,0,0,0,1.561-1.587,7.34,7.34,0,0,0,.867-1.514h.148v5.225a6.735,6.735,0,0,1-1.983,5.115,8.055,8.055,0,0,1-5.777,1.892Zm.05-30.127a7.216,7.216,0,0,1,4.127,1.16A7.669,7.669,0,0,1,458,238.774a9.521,9.521,0,0,1,.93,4.211v3.638a9.491,9.491,0,0,1-.88,4.028,7.616,7.616,0,0,1-2.59,3.1,7.171,7.171,0,0,1-4.213,1.2,7.4,7.4,0,0,1-6.779-4.1,10.031,10.031,0,0,1-1.028-4.687V243.43a10.406,10.406,0,0,1,1.041-4.871,7.193,7.193,0,0,1,2.813-3A7.775,7.775,0,0,1,451.222,234.538ZM478.711,258h2.652V242.2a8.29,8.29,0,0,1,.942-4.1,6.322,6.322,0,0,1,2.6-2.563,7.931,7.931,0,0,1,3.768-.879,13.042,13.042,0,0,1,1.363.061q.571.061.818.11v-2.466q-.3-.049-.781-.1-.55-.052-1.1-.049a8.448,8.448,0,0,0-3.941.818A6.858,6.858,0,0,0,482.627,235a6.629,6.629,0,0,0-1.117,2.173h-.148v-4.565H478.71Zm16.533,0h2.628V232.609h-2.628Zm-.892-33.032a2.109,2.109,0,0,0,.632,1.525,2.3,2.3,0,0,0,3.148,0,2.059,2.059,0,0,0,.632-1.526,2.112,2.112,0,0,0-.632-1.578,2.179,2.179,0,0,0-1.6-.622,2.14,2.14,0,0,0-2.179,2.2Zm9.468,14.355a5.471,5.471,0,0,0,1.09,3.577,7.11,7.11,0,0,0,3.025,2.075,34.272,34.272,0,0,0,4.412,1.331q1.859.391,3.482.9a6.845,6.845,0,0,1,2.628,1.44,3.38,3.38,0,0,1,1,2.612,4.158,4.158,0,0,1-.867,2.661,5.447,5.447,0,0,1-2.416,1.685,10.247,10.247,0,0,1-3.632.586,9.029,9.029,0,0,1-3.929-.72A4.837,4.837,0,0,1,505.7,251.5h-2.6a6.07,6.07,0,0,0,1.028,3.381,7.361,7.361,0,0,0,3.111,2.563,12.182,12.182,0,0,0,5.23.989,13.49,13.49,0,0,0,4.873-.842,7.857,7.857,0,0,0,3.482-2.5,6.525,6.525,0,0,0,1.289-4.126,5.323,5.323,0,0,0-1.226-3.748,7.842,7.842,0,0,0-3.259-2.039,36.494,36.494,0,0,0-4.462-1.221q-1.438-.317-2.652-.7a10.364,10.364,0,0,1-2.119-.9,4.054,4.054,0,0,1-1.413-1.318,3.573,3.573,0,0,1-.508-1.965,3.864,3.864,0,0,1,1.809-3.467,7.9,7.9,0,0,1,4.378-1.17,7.766,7.766,0,0,1,3.668.745,5.07,5.07,0,0,1,2.02,1.794,4.112,4.112,0,0,1,.657,2h2.528a6.164,6.164,0,0,0-.942-3.223,6.984,6.984,0,0,0-2.888-2.563,10.837,10.837,0,0,0-4.975-1,12.31,12.31,0,0,0-4.474.781,7.275,7.275,0,0,0-3.235,2.368,6.355,6.355,0,0,0-1.2,3.981Zm26.77,8.594,3.2-2.954L544.025,258h3.249l-11.526-14.722,10.827-10.669h-3.222l-12.641,12.3h-.124V222.941h-2.628V258h2.628Zm36.635,10.522a9.48,9.48,0,0,0,3.9-.72A8.531,8.531,0,0,0,573.72,256a7.557,7.557,0,0,0,1.438-1.9h.148V258h2.578V240.1a7.9,7.9,0,0,0-1.178-4.5,6.935,6.935,0,0,0-3.21-2.576,12.175,12.175,0,0,0-4.635-.83,13.611,13.611,0,0,0-3.668.452,8.553,8.553,0,0,0-2.751,1.282,6.277,6.277,0,0,0-1.785,1.953,5.966,5.966,0,0,0-.769,2.441h2.6a4.4,4.4,0,0,1,.88-1.77,5.05,5.05,0,0,1,1.983-1.44,8.466,8.466,0,0,1,3.384-.574,7.406,7.406,0,0,1,4.685,1.392,5.2,5.2,0,0,1,1.785,4.37v3.247h-7.534q-4.366,0-6.605,2a6.672,6.672,0,0,0-2.243,5.225,7.119,7.119,0,0,0,2.33,5.579,8.758,8.758,0,0,0,6.071,2.088Zm.521-2.368a6.918,6.918,0,0,1-4.387-1.392,5.167,5.167,0,0,1-.335-7.5q1.45-1.392,4.67-1.392h7.513v3.564a6.116,6.116,0,0,1-1.015,3.491,7.005,7.005,0,0,1-2.7,2.368,8.157,8.157,0,0,1-3.744.861ZM584.774,258h2.652V243.205a10.517,10.517,0,0,1,.867-4.272,7.422,7.422,0,0,1,2.615-3.186,7.514,7.514,0,0,1,4.375-1.208,6.906,6.906,0,0,1,3.632.891,5.841,5.841,0,0,1,2.256,2.478,8.31,8.31,0,0,1,.781,3.711V258h2.628V240.91q0-4.3-2.466-6.506a9.133,9.133,0,0,0-6.333-2.209,9.642,9.642,0,0,0-4.313.842,7.141,7.141,0,0,0-2.6,2.075,8.27,8.27,0,0,0-1.289,2.4h-.148V232.6h-2.652ZM620.2,232.194a10.267,10.267,0,0,0-5.007,1.233A9.14,9.14,0,0,0,611.594,237a11.405,11.405,0,0,0-1.338,5.737v5.151a11.75,11.75,0,0,0,1.252,5.566,8.989,8.989,0,0,0,3.482,3.662,10.039,10.039,0,0,0,5.131,1.294,9.788,9.788,0,0,0,3.3-.513,9.31,9.31,0,0,0,2.478-1.294,7.542,7.542,0,0,0,1.661-1.66,5.2,5.2,0,0,0,.818-1.636h.148V258h2.528V222.941h-2.628V237.1h-.148a7.183,7.183,0,0,0-1.438-2.283,7.849,7.849,0,0,0-2.665-1.88,9.621,9.621,0,0,0-3.978-.743Zm.273,2.344a7.564,7.564,0,0,1,6.953,4.089,8.948,8.948,0,0,1,1,4.26v4.59a9.816,9.816,0,0,1-.942,4.321,7.608,7.608,0,0,1-2.7,3.113,8.191,8.191,0,0,1-8.192.122,7.081,7.081,0,0,1-2.7-3.015,10.7,10.7,0,0,1-.979-4.785V243.4a10.662,10.662,0,0,1,1.015-4.907,7.018,7.018,0,0,1,2.727-2.966,7.488,7.488,0,0,1,3.817-.989ZM5.179,328H7.806V302.609H5.179Zm-.892-33.032a2.11,2.11,0,0,0,.632,1.525,2.176,2.176,0,0,0,1.549.623,2.185,2.185,0,0,0,1.6-.622,2.059,2.059,0,0,0,.633-1.526,2.112,2.112,0,0,0-.632-1.578,2.179,2.179,0,0,0-1.6-.622,2.148,2.148,0,0,0-2.184,2.2ZM14.821,328h2.652V313.2a10.517,10.517,0,0,1,.867-4.272,7.423,7.423,0,0,1,2.615-3.186,7.514,7.514,0,0,1,4.376-1.209,6.906,6.906,0,0,1,3.632.891,5.841,5.841,0,0,1,2.256,2.478A8.311,8.311,0,0,1,32,311.618V328h2.628V310.91q0-4.3-2.466-6.506a9.134,9.134,0,0,0-6.333-2.209,9.643,9.643,0,0,0-4.313.842,7.142,7.142,0,0,0-2.6,2.075,8.269,8.269,0,0,0-1.289,2.4h-.148V302.6H14.821Zm25.53-10.62a12.88,12.88,0,0,0,1.276,5.981,8.928,8.928,0,0,0,3.594,3.772,10.953,10.953,0,0,0,5.465,1.306,11.454,11.454,0,0,0,5.4-1.111,7.9,7.9,0,0,0,3.111-2.783,7.158,7.158,0,0,0,1.128-3.333h-2.6a6.521,6.521,0,0,1-.992,2.283,5.433,5.433,0,0,1-2.181,1.819,8.635,8.635,0,0,1-3.792.708,7.34,7.34,0,0,1-5.686-2.283,9.207,9.207,0,0,1-2.095-6.458V313.35a9.322,9.322,0,0,1,2.07-6.47,7.183,7.183,0,0,1,5.614-2.3,7.825,7.825,0,0,1,3.792.806,5.894,5.894,0,0,1,2.218,2.014,6.573,6.573,0,0,1,.954,2.38h2.6a7.212,7.212,0,0,0-1.165-3.552,8.411,8.411,0,0,0-3.185-2.893,10.811,10.811,0,0,0-5.243-1.147,10.825,10.825,0,0,0-5.367,1.294,9.039,9.039,0,0,0-3.618,3.735,12.357,12.357,0,0,0-1.3,5.884ZM66.379,328h2.652V312.2a8.3,8.3,0,0,1,.942-4.1,6.322,6.322,0,0,1,2.6-2.563,7.931,7.931,0,0,1,3.768-.879,13.047,13.047,0,0,1,1.364.061q.571.061.818.11v-2.466q-.3-.049-.781-.1-.55-.052-1.1-.049a8.448,8.448,0,0,0-3.941.818A6.859,6.859,0,0,0,70.295,305a6.628,6.628,0,0,0-1.117,2.173H69.03v-4.565H66.379Zm24.763.439a11.725,11.725,0,0,0,4.077-.647,9.3,9.3,0,0,0,2.9-1.648A7.947,7.947,0,0,0,99.9,324a6.051,6.051,0,0,0,.756-2.148H97.883a4.275,4.275,0,0,1-.975,1.948,6.075,6.075,0,0,1-2.243,1.624,8.557,8.557,0,0,1-3.52.647,7.207,7.207,0,0,1-5.775-2.393,9.587,9.587,0,0,1-2.057-6.47v-1.416h17.718v-2.075a13.767,13.767,0,0,0-1.3-6.262,9.228,9.228,0,0,0-3.594-3.918,11.1,11.1,0,0,0-10.584,0,9.227,9.227,0,0,0-3.594,3.918,13.767,13.767,0,0,0-1.3,6.262v3.394a13.561,13.561,0,0,0,1.252,6.055,9.025,9.025,0,0,0,3.594,3.906,11,11,0,0,0,5.639,1.367ZM83.3,313.693V313.4a11.012,11.012,0,0,1,.942-4.749,7.266,7.266,0,0,1,13.186,0,11.011,11.011,0,0,1,.942,4.749v.293Zm30.637,14.746a9.481,9.481,0,0,0,3.9-.72,8.531,8.531,0,0,0,2.6-1.719,7.558,7.558,0,0,0,1.438-1.9h.148V328H124.6V310.1a7.9,7.9,0,0,0-1.178-4.5,6.935,6.935,0,0,0-3.21-2.576,12.176,12.176,0,0,0-4.635-.83,13.612,13.612,0,0,0-3.668.452,8.553,8.553,0,0,0-2.751,1.282,6.278,6.278,0,0,0-1.785,1.953,5.969,5.969,0,0,0-.769,2.441h2.6a4.4,4.4,0,0,1,.88-1.77,5.05,5.05,0,0,1,1.983-1.44,8.465,8.465,0,0,1,3.384-.574,7.406,7.406,0,0,1,4.685,1.392,5.2,5.2,0,0,1,1.785,4.37v3.247h-7.534q-4.366,0-6.605,2a6.672,6.672,0,0,0-2.248,5.226,7.119,7.119,0,0,0,2.33,5.579,8.758,8.758,0,0,0,6.076,2.087Zm.521-2.368a6.919,6.919,0,0,1-4.387-1.392,5.167,5.167,0,0,1-.335-7.5q1.45-1.392,4.67-1.392h7.513v3.564a6.115,6.115,0,0,1-1.015,3.491,7.006,7.006,0,0,1-2.7,2.368,8.157,8.157,0,0,1-3.74.861Zm15.963-16.748a5.471,5.471,0,0,0,1.09,3.577,7.109,7.109,0,0,0,3.025,2.075,34.262,34.262,0,0,0,4.412,1.331q1.859.391,3.482.9a6.845,6.845,0,0,1,2.628,1.44,3.379,3.379,0,0,1,1,2.612,4.158,4.158,0,0,1-.867,2.661,5.445,5.445,0,0,1-2.416,1.685,10.248,10.248,0,0,1-3.632.586,9.03,9.03,0,0,1-3.929-.72,4.837,4.837,0,0,1-2.913-3.967h-2.6a6.07,6.07,0,0,0,1.028,3.381,7.361,7.361,0,0,0,3.111,2.563,12.182,12.182,0,0,0,5.23.989,13.491,13.491,0,0,0,4.873-.842,7.856,7.856,0,0,0,3.482-2.5,6.525,6.525,0,0,0,1.289-4.126,5.323,5.323,0,0,0-1.226-3.748,7.842,7.842,0,0,0-3.259-2.039,36.5,36.5,0,0,0-4.462-1.221q-1.438-.317-2.652-.7a10.365,10.365,0,0,1-2.119-.9,4.055,4.055,0,0,1-1.413-1.318,3.573,3.573,0,0,1-.508-1.965,3.864,3.864,0,0,1,1.809-3.467,7.9,7.9,0,0,1,4.387-1.172,7.765,7.765,0,0,1,3.668.745,5.071,5.071,0,0,1,2.02,1.794,4.112,4.112,0,0,1,.657,2h2.528a6.164,6.164,0,0,0-.942-3.223,6.984,6.984,0,0,0-2.887-2.554,10.836,10.836,0,0,0-4.975-1,12.311,12.311,0,0,0-4.474.781,7.275,7.275,0,0,0-3.235,2.368,6.356,6.356,0,0,0-1.209,3.974ZM155.066,328h2.628V302.609h-2.628Zm-.892-33.032a2.11,2.11,0,0,0,.632,1.525,2.3,2.3,0,0,0,3.148,0,2.059,2.059,0,0,0,.633-1.526,2.112,2.112,0,0,0-.632-1.578,2.179,2.179,0,0,0-1.6-.622,2.147,2.147,0,0,0-2.183,2.2ZM164.708,328h2.652V313.2a10.517,10.517,0,0,1,.867-4.272,7.423,7.423,0,0,1,2.615-3.186,7.514,7.514,0,0,1,4.375-1.208,6.906,6.906,0,0,1,3.632.891,5.841,5.841,0,0,1,2.256,2.478,8.311,8.311,0,0,1,.781,3.711V328h2.628V310.91q0-4.3-2.466-6.506a9.134,9.134,0,0,0-6.333-2.209,9.643,9.643,0,0,0-4.313.842,7.142,7.142,0,0,0-2.6,2.075,8.27,8.27,0,0,0-1.289,2.4h-.148V302.6h-2.653Zm35.693,6.665a9.14,9.14,0,0,1-3.68-.659,6.088,6.088,0,0,1-2.318-1.66,3.973,3.973,0,0,1-.942-2.026H190.71a6.377,6.377,0,0,0,1.19,3.174,7.765,7.765,0,0,0,3.147,2.527,12.249,12.249,0,0,0,5.255.989,14.468,14.468,0,0,0,4.366-.61,9.185,9.185,0,0,0,3.309-1.807,7.844,7.844,0,0,0,2.107-2.954,10.484,10.484,0,0,0,.731-4.053V302.609h-2.553v4.517h-.124a7.178,7.178,0,0,0-1.376-2.148,8.428,8.428,0,0,0-2.665-1.965,9.018,9.018,0,0,0-4.015-.818,10.548,10.548,0,0,0-5,1.2,9.188,9.188,0,0,0-3.68,3.577,11.314,11.314,0,0,0-1.388,5.811v3.955a11.365,11.365,0,0,0,1.326,5.64,9.22,9.22,0,0,0,3.606,3.638,10.318,10.318,0,0,0,5.106,1.27,9.3,9.3,0,0,0,3.185-.5,8.468,8.468,0,0,0,2.342-1.257,7.856,7.856,0,0,0,1.561-1.587,7.337,7.337,0,0,0,.867-1.514h.148v5.225a6.735,6.735,0,0,1-1.983,5.115,8.055,8.055,0,0,1-5.774,1.892Zm.05-30.127a7.217,7.217,0,0,1,4.127,1.16,7.67,7.67,0,0,1,2.652,3.076,9.521,9.521,0,0,1,.93,4.211v3.638a9.49,9.49,0,0,1-.88,4.028,7.615,7.615,0,0,1-2.59,3.1,7.171,7.171,0,0,1-4.213,1.2,7.4,7.4,0,0,1-6.779-4.1,10.031,10.031,0,0,1-1.029-4.687V313.43a10.406,10.406,0,0,1,1.041-4.871,7.192,7.192,0,0,1,2.813-3A7.776,7.776,0,0,1,200.451,304.538Zm36.586,23.9a11.725,11.725,0,0,0,4.077-.647,9.3,9.3,0,0,0,2.9-1.648A7.947,7.947,0,0,0,245.8,324a6.049,6.049,0,0,0,.756-2.148H243.78a4.275,4.275,0,0,1-.979,1.953,6.075,6.075,0,0,1-2.243,1.624,8.557,8.557,0,0,1-3.52.647,7.207,7.207,0,0,1-5.775-2.393,9.587,9.587,0,0,1-2.057-6.47V315.8H246.93v-2.075a13.766,13.766,0,0,0-1.3-6.262,9.228,9.228,0,0,0-3.594-3.918,11.1,11.1,0,0,0-10.584,0,9.228,9.228,0,0,0-3.594,3.918,13.766,13.766,0,0,0-1.3,6.262v3.394a13.562,13.562,0,0,0,1.252,6.055,9.025,9.025,0,0,0,3.594,3.906,11,11,0,0,0,5.638,1.362ZM229.2,313.692V313.4a11.012,11.012,0,0,1,.942-4.749,7.266,7.266,0,0,1,13.186,0,11.012,11.012,0,0,1,.942,4.749v.293ZM252.976,328h2.652V313.2a10.517,10.517,0,0,1,.867-4.272,7.423,7.423,0,0,1,2.615-3.186,7.514,7.514,0,0,1,4.375-1.208,6.906,6.906,0,0,1,3.632.891,5.842,5.842,0,0,1,2.256,2.478,8.311,8.311,0,0,1,.781,3.711V328h2.628V310.91q0-4.3-2.466-6.506a9.134,9.134,0,0,0-6.333-2.209,9.643,9.643,0,0,0-4.313.842,7.142,7.142,0,0,0-2.6,2.075,8.269,8.269,0,0,0-1.289,2.4h-.148V302.6h-2.652Zm28.133-25.391H276.5v2.222h4.61v16.895a10.5,10.5,0,0,0,.557,3.735,3.75,3.75,0,0,0,2.02,2.112,10.274,10.274,0,0,0,4.163.671q.595,0,1.574-.073t1.376-.122V325.8q-.372.024-1.165.085t-1.289.061a5.632,5.632,0,0,1-3.606-.867q-1-.867-1-3.259V304.831H290.4v-2.222h-6.667v-6.25h-2.628Zm22.829,25.83a11.725,11.725,0,0,0,4.077-.647,9.3,9.3,0,0,0,2.9-1.648A7.947,7.947,0,0,0,312.7,324a6.051,6.051,0,0,0,.756-2.148H310.68a4.275,4.275,0,0,1-.979,1.953,6.075,6.075,0,0,1-2.243,1.624,8.557,8.557,0,0,1-3.52.647,7.207,7.207,0,0,1-5.775-2.393,9.587,9.587,0,0,1-2.057-6.47V315.8h17.723v-2.075a13.767,13.767,0,0,0-1.3-6.262,9.229,9.229,0,0,0-3.594-3.918,11.1,11.1,0,0,0-10.584,0,9.229,9.229,0,0,0-3.594,3.918,13.767,13.767,0,0,0-1.3,6.262v3.394a13.561,13.561,0,0,0,1.252,6.055,9.025,9.025,0,0,0,3.594,3.906,11,11,0,0,0,5.638,1.362Zm-7.832-14.746V313.4a11.012,11.012,0,0,1,.942-4.749,7.266,7.266,0,0,1,13.186,0,11.012,11.012,0,0,1,.942,4.749v.293ZM320.1,328h2.652V312.2a8.29,8.29,0,0,1,.942-4.1,6.322,6.322,0,0,1,2.6-2.563,7.931,7.931,0,0,1,3.768-.879,13.047,13.047,0,0,1,1.363.061q.571.061.818.11v-2.466q-.3-.049-.781-.1-.55-.052-1.1-.049a8.448,8.448,0,0,0-3.941.818A6.858,6.858,0,0,0,324.014,305a6.63,6.63,0,0,0-1.117,2.173h-.148v-4.565H320.1Zm27.018.439a10.286,10.286,0,0,0,5.056-1.245,8.98,8.98,0,0,0,3.57-3.638,12.027,12.027,0,0,0,1.314-5.859v-4.834a12.162,12.162,0,0,0-1.24-5.664,8.977,8.977,0,0,0-3.458-3.7,10.874,10.874,0,0,0-8.39-.818,8.515,8.515,0,0,0-2.43,1.27,7.894,7.894,0,0,0-1.649,1.672,7.047,7.047,0,0,0-.9,1.648h-.148v-4.663h-2.526v33.643h2.628V323.508h.148a7.89,7.89,0,0,0,4.115,4.175,9.268,9.268,0,0,0,3.915.756Zm-.273-2.368a7.806,7.806,0,0,1-4.139-1.086,7.459,7.459,0,0,1-2.776-2.991,9.111,9.111,0,0,1-.992-4.272v-4.614a9.9,9.9,0,0,1,.93-4.333,7.3,7.3,0,0,1,6.928-4.236,7.5,7.5,0,0,1,3.966,1.038,7.005,7.005,0,0,1,2.677,3.04,11.161,11.161,0,0,1,.967,4.883v3.589a11.035,11.035,0,0,1-1,4.993,7.008,7.008,0,0,1-2.714,2.991,7.464,7.464,0,0,1-3.842,1ZM363.377,328h2.652V312.2a8.29,8.29,0,0,1,.942-4.1,6.322,6.322,0,0,1,2.6-2.563,7.931,7.931,0,0,1,3.768-.879,13.047,13.047,0,0,1,1.364.061q.571.061.818.11v-2.466q-.3-.049-.781-.1-.55-.052-1.1-.049a8.448,8.448,0,0,0-3.941.818A6.858,6.858,0,0,0,367.293,305a6.63,6.63,0,0,0-1.117,2.173h-.148v-4.565h-2.652Zm16.533,0h2.628V302.609H379.91Zm-.892-33.032a2.109,2.109,0,0,0,.632,1.525,2.3,2.3,0,0,0,3.148,0,2.059,2.059,0,0,0,.633-1.526,2.112,2.112,0,0,0-.632-1.578,2.179,2.179,0,0,0-1.6-.622,2.14,2.14,0,0,0-2.179,2.2Zm9.468,14.355a5.471,5.471,0,0,0,1.09,3.577,7.109,7.109,0,0,0,3.025,2.075,34.262,34.262,0,0,0,4.412,1.331q1.859.391,3.482.9a6.845,6.845,0,0,1,2.628,1.44,3.38,3.38,0,0,1,1,2.612,4.158,4.158,0,0,1-.867,2.661,5.447,5.447,0,0,1-2.416,1.685,10.248,10.248,0,0,1-3.632.586,9.03,9.03,0,0,1-3.929-.72,4.837,4.837,0,0,1-2.913-3.967h-2.6a6.07,6.07,0,0,0,1.033,3.385,7.361,7.361,0,0,0,3.11,2.562,12.182,12.182,0,0,0,5.23.989,13.49,13.49,0,0,0,4.873-.842,7.856,7.856,0,0,0,3.482-2.5,6.524,6.524,0,0,0,1.289-4.126,5.323,5.323,0,0,0-1.226-3.748,7.843,7.843,0,0,0-3.259-2.039,36.5,36.5,0,0,0-4.462-1.221q-1.438-.317-2.652-.7a10.366,10.366,0,0,1-2.119-.9,4.054,4.054,0,0,1-1.413-1.318,3.573,3.573,0,0,1-.508-1.965,3.864,3.864,0,0,1,1.809-3.467,7.9,7.9,0,0,1,4.387-1.172,7.765,7.765,0,0,1,3.668.745,5.069,5.069,0,0,1,2.02,1.794,4.112,4.112,0,0,1,.657,2h2.528a6.164,6.164,0,0,0-.942-3.223,6.984,6.984,0,0,0-2.887-2.563,10.836,10.836,0,0,0-4.975-1,12.311,12.311,0,0,0-4.474.781,7.275,7.275,0,0,0-3.235,2.368A6.356,6.356,0,0,0,388.486,309.323Zm33.239,19.116a11.725,11.725,0,0,0,4.077-.647,9.3,9.3,0,0,0,2.9-1.648A7.948,7.948,0,0,0,430.488,324a6.051,6.051,0,0,0,.756-2.148h-2.777a4.275,4.275,0,0,1-.979,1.953,6.075,6.075,0,0,1-2.243,1.624,8.557,8.557,0,0,1-3.52.647,7.208,7.208,0,0,1-5.775-2.393,9.587,9.587,0,0,1-2.057-6.47V315.8h17.723v-2.075a13.767,13.767,0,0,0-1.3-6.262,9.229,9.229,0,0,0-3.594-3.918,11.1,11.1,0,0,0-10.584,0,9.229,9.229,0,0,0-3.594,3.918,13.767,13.767,0,0,0-1.3,6.262v3.394a13.562,13.562,0,0,0,1.252,6.055,9.024,9.024,0,0,0,3.594,3.906,11,11,0,0,0,5.639,1.362Zm-7.833-14.746V313.4a11.011,11.011,0,0,1,.942-4.749,7.266,7.266,0,0,1,13.186,0,11.013,11.013,0,0,1,.942,4.749v.293ZM453.206,328h2.677l9.518-25.391h-2.826l-7.957,22.412h-.148l-7.733-22.412h-2.925Zm22.482.439a9.481,9.481,0,0,0,3.9-.72,8.53,8.53,0,0,0,2.59-1.719,7.56,7.56,0,0,0,1.438-1.9h.148V328h2.578V310.1a7.9,7.9,0,0,0-1.178-4.5,6.935,6.935,0,0,0-3.21-2.576,12.176,12.176,0,0,0-4.635-.83,13.613,13.613,0,0,0-3.668.452,8.552,8.552,0,0,0-2.751,1.282,6.278,6.278,0,0,0-1.785,1.953,5.969,5.969,0,0,0-.769,2.441h2.6a4.4,4.4,0,0,1,.88-1.77,5.049,5.049,0,0,1,1.983-1.44,8.465,8.465,0,0,1,3.384-.574,7.406,7.406,0,0,1,4.684,1.392,5.2,5.2,0,0,1,1.785,4.37v3.247h-7.535q-4.366,0-6.605,2a6.672,6.672,0,0,0-2.243,5.225,7.119,7.119,0,0,0,2.33,5.579,8.758,8.758,0,0,0,6.072,2.088Zm.521-2.368a6.919,6.919,0,0,1-4.387-1.392,5.167,5.167,0,0,1-.335-7.5q1.45-1.392,4.67-1.392h7.513v3.564a6.114,6.114,0,0,1-1.015,3.491,7.006,7.006,0,0,1-2.7,2.368,8.157,8.157,0,0,1-3.745.861ZM493.559,328h2.652V292.941h-2.652Zm29.621-25.391h-2.652v15.625a8.055,8.055,0,0,1-.942,3.8,7.616,7.616,0,0,1-2.7,2.917,8.467,8.467,0,0,1-7.659.391,5.381,5.381,0,0,1-2.33-2.2,7.2,7.2,0,0,1-.843-3.638V302.609H503.4v17.48a8.743,8.743,0,0,0,1.165,4.761,7.03,7.03,0,0,0,3.147,2.71,10.962,10.962,0,0,0,4.486.879,9.305,9.305,0,0,0,4.09-.818,8.09,8.09,0,0,0,2.689-2,7.406,7.406,0,0,0,1.4-2.332h.148V328h2.652Zm16.409,25.83a11.724,11.724,0,0,0,4.077-.647,9.3,9.3,0,0,0,2.9-1.648A7.947,7.947,0,0,0,548.35,324a6.05,6.05,0,0,0,.756-2.148h-2.776a4.275,4.275,0,0,1-.979,1.953,6.076,6.076,0,0,1-2.243,1.624,8.557,8.557,0,0,1-3.52.647,7.207,7.207,0,0,1-5.775-2.393,9.587,9.587,0,0,1-2.057-6.47V315.8h17.721v-2.075a13.766,13.766,0,0,0-1.3-6.262,9.228,9.228,0,0,0-3.594-3.918,11.1,11.1,0,0,0-10.584,0,9.228,9.228,0,0,0-3.594,3.918,13.766,13.766,0,0,0-1.3,6.262v3.394a13.562,13.562,0,0,0,1.252,6.055,9.026,9.026,0,0,0,3.594,3.906,11,11,0,0,0,5.64,1.362Zm-7.837-14.746V313.4a11.01,11.01,0,0,1,.942-4.749,7.266,7.266,0,0,1,13.186,0,11.011,11.011,0,0,1,.942,4.749v.293Zm23.126,12.231a2.456,2.456,0,0,0,2.478,2.466,2.5,2.5,0,0,0,1.809-.72,2.34,2.34,0,0,0,.743-1.746,2.368,2.368,0,0,0-.743-1.77,2.5,2.5,0,0,0-1.809-.72,2.45,2.45,0,0,0-2.474,2.491Z" transform="translate(177.289 702)"/>
    </g>
  </g>
</svg>
