<svg xmlns="http://www.w3.org/2000/svg" xmlns:xlink="http://www.w3.org/1999/xlink" width="960" height="494" viewBox="0 0 960 494">
  <defs>
    <clipPath id="clip-IT_Consultancy_960_494_1">
      <rect width="960" height="494"/>
    </clipPath>
  </defs>
  <g id="IT_Consultancy_960_494_1" data-name="IT Consultancy 960 × 494 – 1" clip-path="url(#clip-IT_Consultancy_960_494_1)">
    <rect width="960" height="494" fill="#eaedf2"/>
    <path id="Path_4793" data-name="Path 4793" d="M16.162,14.748H5.029V48H7.666V34.621h8.5a11.713,11.713,0,0,0,5.566-1.233,8.612,8.612,0,0,0,3.564-3.467,10.532,10.532,0,0,0,1.245-5.212,10.636,10.636,0,0,0-1.245-5.261,8.612,8.612,0,0,0-3.564-3.467A11.713,11.713,0,0,0,16.162,14.748Zm7.666,9.961a8.321,8.321,0,0,1-.916,4.028,6.135,6.135,0,0,1-2.649,2.576,9.1,9.1,0,0,1-4.2.891h-8.4V17.165h8.4A7.873,7.873,0,0,1,21.8,19.143,7.421,7.421,0,0,1,23.828,24.709Zm16.65,23.73a11.389,11.389,0,0,0,4.016-.647,9.124,9.124,0,0,0,2.856-1.648A7.92,7.92,0,0,0,49.109,44a6.11,6.11,0,0,0,.745-2.148H47.119a4.3,4.3,0,0,1-.964,1.953,5.988,5.988,0,0,1-2.209,1.624,8.317,8.317,0,0,1-3.467.647,7.047,7.047,0,0,1-5.688-2.393,9.686,9.686,0,0,1-2.026-6.47V35.793H50.22V33.718a13.946,13.946,0,0,0-1.282-6.262,9.178,9.178,0,0,0-3.54-3.918,10,10,0,0,0-5.212-1.343,10,10,0,0,0-5.212,1.343,9.178,9.178,0,0,0-3.54,3.918,13.946,13.946,0,0,0-1.282,6.262v3.394a13.738,13.738,0,0,0,1.233,6.055,8.975,8.975,0,0,0,3.54,3.906A10.707,10.707,0,0,0,40.479,48.439ZM32.764,33.693V33.4a11.157,11.157,0,0,1,.928-4.749,7.112,7.112,0,0,1,12.988,0,11.157,11.157,0,0,1,.928,4.749v.293ZM56.4,48h2.612V32.2a8.4,8.4,0,0,1,.928-4.1A6.273,6.273,0,0,1,62.5,25.539a7.715,7.715,0,0,1,3.711-.879,12.659,12.659,0,0,1,1.343.061q.562.061.806.11V22.365q-.293-.049-.769-.1a10.757,10.757,0,0,0-1.086-.049,8.215,8.215,0,0,0-3.882.818A6.778,6.778,0,0,0,60.254,25a6.665,6.665,0,0,0-1.1,2.173h-.146V22.609H56.4ZM70.435,37.38a13.046,13.046,0,0,0,1.257,5.981,8.872,8.872,0,0,0,3.54,3.772,10.657,10.657,0,0,0,5.383,1.306,11.138,11.138,0,0,0,5.322-1.111A7.818,7.818,0,0,0,89,44.545a7.231,7.231,0,0,0,1.111-3.333H87.549a6.572,6.572,0,0,1-.977,2.283,5.371,5.371,0,0,1-2.148,1.819,8.394,8.394,0,0,1-3.735.708,7.175,7.175,0,0,1-5.6-2.283,9.3,9.3,0,0,1-2.063-6.458V33.352a9.417,9.417,0,0,1,2.039-6.47,7.022,7.022,0,0,1,5.53-2.295,7.61,7.61,0,0,1,3.735.806,5.838,5.838,0,0,1,2.185,2.014,6.631,6.631,0,0,1,.94,2.38h2.563a7.287,7.287,0,0,0-1.147-3.552,8.331,8.331,0,0,0-3.137-2.893,11.8,11.8,0,0,0-10.449.146,8.978,8.978,0,0,0-3.564,3.735,12.514,12.514,0,0,0-1.282,5.884Zm34.595,11.06a11.389,11.389,0,0,0,4.016-.647,9.124,9.124,0,0,0,2.856-1.648A7.92,7.92,0,0,0,113.66,44a6.111,6.111,0,0,0,.745-2.148H111.67a4.3,4.3,0,0,1-.964,1.953,5.988,5.988,0,0,1-2.209,1.624,8.317,8.317,0,0,1-3.467.647,7.047,7.047,0,0,1-5.688-2.393,9.686,9.686,0,0,1-2.026-6.47V35.793h17.456V33.718a13.946,13.946,0,0,0-1.282-6.262,9.178,9.178,0,0,0-3.54-3.918,10.788,10.788,0,0,0-10.425,0,9.178,9.178,0,0,0-3.54,3.918A13.946,13.946,0,0,0,94.7,33.718v3.394a13.738,13.738,0,0,0,1.233,6.055,8.975,8.975,0,0,0,3.54,3.906A10.707,10.707,0,0,0,105.029,48.439ZM97.314,33.693V33.4a11.157,11.157,0,0,1,.928-4.749,7.112,7.112,0,0,1,12.988,0,11.157,11.157,0,0,1,.928,4.749v.293ZM131.4,48.439a10.01,10.01,0,0,0,4.98-1.245,8.918,8.918,0,0,0,3.516-3.638,12.18,12.18,0,0,0,1.294-5.859V32.863a12.318,12.318,0,0,0-1.221-5.664,8.924,8.924,0,0,0-3.406-3.7,10.566,10.566,0,0,0-8.264-.818,8.344,8.344,0,0,0-2.393,1.27,7.836,7.836,0,0,0-1.624,1.672,7.08,7.08,0,0,0-.891,1.648h-.146V22.609h-2.49V56.252h2.588V43.508h.146a7.834,7.834,0,0,0,4.053,4.175A9.009,9.009,0,0,0,131.4,48.439Zm-.269-2.368a7.6,7.6,0,0,1-4.077-1.086,7.416,7.416,0,0,1-2.734-2.991,9.226,9.226,0,0,1-.977-4.272V33.107a10.032,10.032,0,0,1,.916-4.333,7.179,7.179,0,0,1,6.824-4.236,7.3,7.3,0,0,1,3.906,1.038,6.973,6.973,0,0,1,2.637,3.04,11.308,11.308,0,0,1,.952,4.883v3.589a11.18,11.18,0,0,1-.989,4.993,6.971,6.971,0,0,1-2.673,2.991A7.266,7.266,0,0,1,131.128,46.071Zm17.456-23.462h-4.541v2.222h4.541V41.726a10.648,10.648,0,0,0,.549,3.735,3.726,3.726,0,0,0,1.99,2.112,9.982,9.982,0,0,0,4.1.671q.586,0,1.55-.073t1.355-.122V45.8q-.366.024-1.147.085t-1.27.061a5.482,5.482,0,0,1-3.552-.867q-.989-.867-.989-3.259V24.831h6.567V22.609h-6.567v-6.25h-2.588ZM162.842,48h2.588V22.609h-2.588Zm-.879-33.032a2.126,2.126,0,0,0,2.148,2.148,2.134,2.134,0,0,0,1.575-.623,2.075,2.075,0,0,0,.623-1.526,2.129,2.129,0,0,0-2.2-2.2,2.075,2.075,0,0,0-1.526.623A2.134,2.134,0,0,0,161.963,14.968Zm19.7,7.227a10.954,10.954,0,0,0-5.359,1.306,9.454,9.454,0,0,0-3.76,3.784,12.261,12.261,0,0,0-1.379,6.042v4a12.3,12.3,0,0,0,1.379,6.079,9.31,9.31,0,0,0,3.76,3.748,11.121,11.121,0,0,0,5.359,1.282,11,11,0,0,0,5.322-1.282,9.49,9.49,0,0,0,3.772-3.748,12.125,12.125,0,0,0,1.4-6.079v-4a12.211,12.211,0,0,0-1.4-6.079,9.428,9.428,0,0,0-3.784-3.772A11.019,11.019,0,0,0,181.665,22.194Zm0,2.344a7.742,7.742,0,0,1,4.077,1.074,7.342,7.342,0,0,1,2.8,3.113,10.958,10.958,0,0,1,1.013,4.919v3.394a11.053,11.053,0,0,1-1,4.932,7.067,7.067,0,0,1-2.771,3.064,7.936,7.936,0,0,1-4.089,1.038,8.025,8.025,0,0,1-4.15-1.05,7.059,7.059,0,0,1-2.771-3.064,11.089,11.089,0,0,1-.989-4.919V33.645a10.94,10.94,0,0,1,1.013-4.932,7.357,7.357,0,0,1,2.8-3.1A7.742,7.742,0,0,1,181.665,24.538ZM198.218,48h2.612V33.205a10.655,10.655,0,0,1,.854-4.272,7.4,7.4,0,0,1,2.576-3.186,7.318,7.318,0,0,1,4.309-1.208,6.721,6.721,0,0,1,3.577.891,5.81,5.81,0,0,1,2.222,2.478,8.419,8.419,0,0,1,.769,3.711V48h2.588V30.91q0-4.3-2.429-6.506a8.913,8.913,0,0,0-6.238-2.209,9.374,9.374,0,0,0-4.248.842,7.054,7.054,0,0,0-2.563,2.075,8.311,8.311,0,0,0-1.27,2.4h-.146V22.609h-2.612Zm38.867,0V14.748h-2.637V48Zm17.6,0V17.165h10.864V14.748H241.211v2.417h10.84V48Zm34.79.439a10.01,10.01,0,0,0,4.98-1.245,8.918,8.918,0,0,0,3.516-3.638,12.18,12.18,0,0,0,1.294-5.859V32.863a12.317,12.317,0,0,0-1.221-5.664,8.924,8.924,0,0,0-3.406-3.7,10.566,10.566,0,0,0-8.264-.818,8.344,8.344,0,0,0-2.393,1.27,7.836,7.836,0,0,0-1.624,1.672,7.08,7.08,0,0,0-.891,1.648h-.146V22.609h-2.49V56.252h2.588V43.508h.146a7.834,7.834,0,0,0,4.053,4.175A9.009,9.009,0,0,0,289.478,48.439Zm-.269-2.368a7.6,7.6,0,0,1-4.077-1.086,7.416,7.416,0,0,1-2.734-2.991,9.226,9.226,0,0,1-.977-4.272V33.107a10.032,10.032,0,0,1,.916-4.333,7.179,7.179,0,0,1,6.824-4.236,7.3,7.3,0,0,1,3.906,1.038,6.973,6.973,0,0,1,2.637,3.04,11.308,11.308,0,0,1,.952,4.883v3.589a11.18,11.18,0,0,1-.989,4.993,6.971,6.971,0,0,1-2.673,2.991A7.266,7.266,0,0,1,289.209,46.071ZM305.493,48h2.612V32.2a8.394,8.394,0,0,1,.928-4.1,6.273,6.273,0,0,1,2.563-2.563,7.715,7.715,0,0,1,3.711-.879,12.659,12.659,0,0,1,1.343.061q.562.061.806.11V22.365q-.293-.049-.769-.1a10.757,10.757,0,0,0-1.086-.049,8.215,8.215,0,0,0-3.882.818A6.778,6.778,0,0,0,309.351,25a6.666,6.666,0,0,0-1.1,2.173h-.146V22.609h-2.612Zm24.536-25.806A10.954,10.954,0,0,0,324.67,23.5a9.453,9.453,0,0,0-3.76,3.784,12.261,12.261,0,0,0-1.379,6.042v4a12.3,12.3,0,0,0,1.379,6.079,9.31,9.31,0,0,0,3.76,3.748,11.121,11.121,0,0,0,5.359,1.282,11,11,0,0,0,5.322-1.282,9.49,9.49,0,0,0,3.772-3.748,12.125,12.125,0,0,0,1.4-6.079v-4a12.211,12.211,0,0,0-1.4-6.079,9.428,9.428,0,0,0-3.784-3.772A11.019,11.019,0,0,0,330.029,22.194Zm0,2.344a7.742,7.742,0,0,1,4.077,1.074,7.342,7.342,0,0,1,2.8,3.113,10.958,10.958,0,0,1,1.013,4.919v3.394a11.053,11.053,0,0,1-1,4.932,7.067,7.067,0,0,1-2.771,3.064,7.936,7.936,0,0,1-4.089,1.038,8.025,8.025,0,0,1-4.15-1.05,7.059,7.059,0,0,1-2.771-3.064,11.089,11.089,0,0,1-.989-4.919V33.645a10.94,10.94,0,0,1,1.013-4.932,7.357,7.357,0,0,1,2.8-3.1A7.742,7.742,0,0,1,330.029,24.538ZM352.563,48H355.2l9.375-25.391h-2.783l-7.837,22.412h-.146l-7.617-22.412h-2.881Zm15.967,0h2.588V22.609H368.53Zm-.879-33.032a2.126,2.126,0,0,0,2.148,2.148,2.134,2.134,0,0,0,1.575-.623A2.075,2.075,0,0,0,372,14.968a2.129,2.129,0,0,0-2.2-2.2,2.075,2.075,0,0,0-1.526.623A2.134,2.134,0,0,0,367.651,14.968ZM386.6,22.194a9.991,9.991,0,0,0-4.932,1.233A9.071,9.071,0,0,0,378.125,27a11.548,11.548,0,0,0-1.318,5.737v5.151a11.9,11.9,0,0,0,1.233,5.566,8.932,8.932,0,0,0,3.43,3.662,9.771,9.771,0,0,0,5.054,1.294,9.508,9.508,0,0,0,3.247-.513,9.123,9.123,0,0,0,2.441-1.294,7.486,7.486,0,0,0,1.636-1.66,5.228,5.228,0,0,0,.806-1.636h.146V48h2.49V12.941H394.7V27.1h-.146a7.2,7.2,0,0,0-1.416-2.283,7.733,7.733,0,0,0-2.625-1.88A9.352,9.352,0,0,0,386.6,22.194Zm.269,2.344a7.434,7.434,0,0,1,6.848,4.089,9.059,9.059,0,0,1,.989,4.26v4.59a9.943,9.943,0,0,1-.928,4.321,7.574,7.574,0,0,1-2.661,3.113,7.963,7.963,0,0,1-8.069.122,7.046,7.046,0,0,1-2.661-3.015,10.835,10.835,0,0,1-.964-4.785V33.4a10.8,10.8,0,0,1,1-4.907,6.979,6.979,0,0,1,2.686-2.966A7.289,7.289,0,0,1,386.865,24.538Zm26.9,23.9a11.389,11.389,0,0,0,4.016-.647,9.124,9.124,0,0,0,2.856-1.648A7.92,7.92,0,0,0,422.4,44a6.111,6.111,0,0,0,.745-2.148H420.41a4.3,4.3,0,0,1-.964,1.953,5.988,5.988,0,0,1-2.209,1.624,8.317,8.317,0,0,1-3.467.647,7.047,7.047,0,0,1-5.688-2.393,9.686,9.686,0,0,1-2.026-6.47V35.793h17.456V33.718a13.946,13.946,0,0,0-1.282-6.262,9.178,9.178,0,0,0-3.54-3.918,10.788,10.788,0,0,0-10.425,0,9.178,9.178,0,0,0-3.54,3.918,13.946,13.946,0,0,0-1.282,6.262v3.394a13.738,13.738,0,0,0,1.233,6.055,8.974,8.974,0,0,0,3.54,3.906A10.707,10.707,0,0,0,413.77,48.439Zm-7.715-14.746V33.4a11.157,11.157,0,0,1,.928-4.749,7.112,7.112,0,0,1,12.988,0A11.157,11.157,0,0,1,420.9,33.4v.293Zm22.363-4.37a5.529,5.529,0,0,0,1.074,3.577,7,7,0,0,0,2.979,2.075,33.376,33.376,0,0,0,4.346,1.331q1.831.391,3.43.9a6.713,6.713,0,0,1,2.588,1.44,3.408,3.408,0,0,1,.989,2.612,4.2,4.2,0,0,1-.854,2.661,5.365,5.365,0,0,1-2.38,1.685,9.955,9.955,0,0,1-3.577.586,8.777,8.777,0,0,1-3.87-.72,4.831,4.831,0,0,1-2.869-3.967H427.71a6.136,6.136,0,0,0,1.013,3.381,7.276,7.276,0,0,0,3.064,2.563,11.841,11.841,0,0,0,5.151.989,13.108,13.108,0,0,0,4.8-.842,7.743,7.743,0,0,0,3.43-2.5,6.593,6.593,0,0,0,1.27-4.126,5.376,5.376,0,0,0-1.208-3.748,7.709,7.709,0,0,0-3.21-2.039,35.521,35.521,0,0,0-4.395-1.221q-1.416-.317-2.612-.7a10.127,10.127,0,0,1-2.087-.9,4.018,4.018,0,0,1-1.392-1.318,3.616,3.616,0,0,1-.5-1.965,3.881,3.881,0,0,1,1.782-3.467,7.691,7.691,0,0,1,4.321-1.172,7.551,7.551,0,0,1,3.613.745,5.019,5.019,0,0,1,1.99,1.794,4.155,4.155,0,0,1,.647,2h2.49a6.233,6.233,0,0,0-.928-3.223A6.914,6.914,0,0,0,442.1,23.2a10.536,10.536,0,0,0-4.9-1,11.962,11.962,0,0,0-4.407.781,7.173,7.173,0,0,0-3.186,2.368A6.424,6.424,0,0,0,428.418,29.323ZM462.7,22.609h-4.541v2.222H462.7V41.726a10.648,10.648,0,0,0,.549,3.735,3.726,3.726,0,0,0,1.99,2.112,9.982,9.982,0,0,0,4.1.671q.586,0,1.55-.073t1.355-.122V45.8q-.366.024-1.147.085t-1.27.061a5.482,5.482,0,0,1-3.552-.867q-.989-.867-.989-3.259V24.831h6.567V22.609h-6.567v-6.25H462.7Zm22.485,25.83a11.389,11.389,0,0,0,4.016-.647,9.124,9.124,0,0,0,2.856-1.648A7.92,7.92,0,0,0,493.811,44a6.111,6.111,0,0,0,.745-2.148h-2.734a4.3,4.3,0,0,1-.964,1.953,5.988,5.988,0,0,1-2.209,1.624,8.317,8.317,0,0,1-3.467.647,7.047,7.047,0,0,1-5.688-2.393,9.686,9.686,0,0,1-2.026-6.47V35.793h17.456V33.718a13.946,13.946,0,0,0-1.282-6.262,9.178,9.178,0,0,0-3.54-3.918,10.788,10.788,0,0,0-10.425,0,9.178,9.178,0,0,0-3.54,3.918,13.946,13.946,0,0,0-1.282,6.262v3.394a13.738,13.738,0,0,0,1.233,6.055,8.974,8.974,0,0,0,3.54,3.906A10.707,10.707,0,0,0,485.181,48.439Zm-7.715-14.746V33.4a11.157,11.157,0,0,1,.928-4.749,7.112,7.112,0,0,1,12.988,0,11.157,11.157,0,0,1,.928,4.749v.293Zm22.241,3.687a13.045,13.045,0,0,0,1.257,5.981,8.872,8.872,0,0,0,3.54,3.772,10.657,10.657,0,0,0,5.383,1.306,11.139,11.139,0,0,0,5.322-1.111,7.818,7.818,0,0,0,3.064-2.783,7.231,7.231,0,0,0,1.111-3.333h-2.563a6.572,6.572,0,0,1-.977,2.283,5.371,5.371,0,0,1-2.148,1.819,8.394,8.394,0,0,1-3.735.708,7.175,7.175,0,0,1-5.6-2.283,9.3,9.3,0,0,1-2.063-6.458V33.352a9.417,9.417,0,0,1,2.039-6.47,7.022,7.022,0,0,1,5.53-2.295,7.61,7.61,0,0,1,3.735.806,5.838,5.838,0,0,1,2.185,2.014,6.631,6.631,0,0,1,.94,2.38h2.563a7.287,7.287,0,0,0-1.147-3.552A8.331,8.331,0,0,0,515,23.342a11.8,11.8,0,0,0-10.449.146,8.978,8.978,0,0,0-3.564,3.735,12.514,12.514,0,0,0-1.282,5.884ZM525.22,48h2.588V33.205a10.525,10.525,0,0,1,.867-4.272,7.449,7.449,0,0,1,2.6-3.186,7.331,7.331,0,0,1,4.3-1.208,6.866,6.866,0,0,1,3.589.891,5.8,5.8,0,0,1,2.271,2.49,8.386,8.386,0,0,1,.781,3.723V48h2.612V30.935q0-4.3-2.466-6.519a8.916,8.916,0,0,0-6.2-2.222,9.4,9.4,0,0,0-4.272.867,7.477,7.477,0,0,0-2.649,2.112,7.859,7.859,0,0,0-1.282,2.344h-.146V12.941H525.22Zm26.318,0h2.612V33.205A10.655,10.655,0,0,1,555,28.933a7.4,7.4,0,0,1,2.576-3.186,7.318,7.318,0,0,1,4.309-1.208,6.721,6.721,0,0,1,3.577.891,5.81,5.81,0,0,1,2.222,2.478,8.419,8.419,0,0,1,.769,3.711V48h2.588V30.91q0-4.3-2.429-6.506a8.913,8.913,0,0,0-6.238-2.209,9.374,9.374,0,0,0-4.248.842,7.054,7.054,0,0,0-2.563,2.075,8.311,8.311,0,0,0-1.27,2.4h-.146V22.609h-2.612Zm35.645-25.806a10.954,10.954,0,0,0-5.359,1.306,9.454,9.454,0,0,0-3.76,3.784,12.261,12.261,0,0,0-1.379,6.042v4a12.3,12.3,0,0,0,1.379,6.079,9.31,9.31,0,0,0,3.76,3.748,11.121,11.121,0,0,0,5.359,1.282,11,11,0,0,0,5.322-1.282,9.49,9.49,0,0,0,3.772-3.748,12.126,12.126,0,0,0,1.4-6.079v-4a12.211,12.211,0,0,0-1.4-6.079,9.428,9.428,0,0,0-3.784-3.772A11.019,11.019,0,0,0,587.183,22.194Zm0,2.344a7.742,7.742,0,0,1,4.077,1.074,7.342,7.342,0,0,1,2.8,3.113,10.957,10.957,0,0,1,1.013,4.919v3.394a11.053,11.053,0,0,1-1,4.932,7.067,7.067,0,0,1-2.771,3.064,7.936,7.936,0,0,1-4.089,1.038,8.025,8.025,0,0,1-4.15-1.05,7.059,7.059,0,0,1-2.771-3.064,11.089,11.089,0,0,1-.989-4.919V33.645a10.94,10.94,0,0,1,1.013-4.932,7.357,7.357,0,0,1,2.8-3.1A7.742,7.742,0,0,1,587.183,24.538ZM604.053,48h2.612V12.941h-2.612Zm19.238-25.806a10.954,10.954,0,0,0-5.359,1.306,9.454,9.454,0,0,0-3.76,3.784,12.261,12.261,0,0,0-1.379,6.042v4a12.3,12.3,0,0,0,1.379,6.079,9.31,9.31,0,0,0,3.76,3.748,11.121,11.121,0,0,0,5.359,1.282,11,11,0,0,0,5.322-1.282,9.49,9.49,0,0,0,3.772-3.748,12.126,12.126,0,0,0,1.4-6.079v-4a12.211,12.211,0,0,0-1.4-6.079,9.428,9.428,0,0,0-3.784-3.772A11.019,11.019,0,0,0,623.291,22.194Zm0,2.344a7.742,7.742,0,0,1,4.077,1.074,7.342,7.342,0,0,1,2.8,3.113,10.957,10.957,0,0,1,1.013,4.919v3.394a11.053,11.053,0,0,1-1,4.932,7.067,7.067,0,0,1-2.771,3.064,7.936,7.936,0,0,1-4.089,1.038,8.025,8.025,0,0,1-4.15-1.05,7.059,7.059,0,0,1-2.771-3.064,11.089,11.089,0,0,1-.989-4.919V33.645a10.94,10.94,0,0,1,1.013-4.932,7.357,7.357,0,0,1,2.8-3.1A7.742,7.742,0,0,1,623.291,24.538Zm25.391,30.127a8.882,8.882,0,0,1-3.625-.659,6,6,0,0,1-2.283-1.66,4,4,0,0,1-.928-2.026h-2.71a6.436,6.436,0,0,0,1.172,3.174,7.671,7.671,0,0,0,3.1,2.527,11.906,11.906,0,0,0,5.176.989,14.05,14.05,0,0,0,4.3-.61,9.007,9.007,0,0,0,3.259-1.807,7.842,7.842,0,0,0,2.075-2.954,10.624,10.624,0,0,0,.72-4.053V22.609h-2.515v4.517H656.3a7.193,7.193,0,0,0-1.355-2.148,8.311,8.311,0,0,0-2.625-1.965,8.767,8.767,0,0,0-3.955-.818,10.263,10.263,0,0,0-4.919,1.208,9.114,9.114,0,0,0-3.625,3.577,11.454,11.454,0,0,0-1.367,5.811v3.955a11.506,11.506,0,0,0,1.306,5.64,9.155,9.155,0,0,0,3.552,3.638,10.041,10.041,0,0,0,5.029,1.27,9.031,9.031,0,0,0,3.137-.5,8.3,8.3,0,0,0,2.307-1.257,7.8,7.8,0,0,0,1.538-1.587,7.367,7.367,0,0,0,.854-1.514h.146v5.225a6.791,6.791,0,0,1-1.953,5.115A7.857,7.857,0,0,1,648.682,54.665Zm.049-30.127A7.028,7.028,0,0,1,652.8,25.7a7.638,7.638,0,0,1,2.612,3.076,9.643,9.643,0,0,1,.916,4.211v3.638a9.612,9.612,0,0,1-.867,4.028,7.59,7.59,0,0,1-2.551,3.1,6.985,6.985,0,0,1-4.15,1.2,7.271,7.271,0,0,1-6.677-4.1,10.159,10.159,0,0,1-1.013-4.687V33.425a10.54,10.54,0,0,1,1.025-4.871,7.149,7.149,0,0,1,2.771-3A7.568,7.568,0,0,1,648.73,24.538ZM666.968,48h2.588V22.609h-2.588Zm-.879-33.032a2.126,2.126,0,0,0,2.148,2.148,2.134,2.134,0,0,0,1.575-.623,2.075,2.075,0,0,0,.623-1.526,2.129,2.129,0,0,0-2.2-2.2,2.075,2.075,0,0,0-1.526.623A2.134,2.134,0,0,0,666.089,14.968Zm9.2,22.412a13.046,13.046,0,0,0,1.257,5.981,8.872,8.872,0,0,0,3.54,3.772,10.656,10.656,0,0,0,5.383,1.306,11.139,11.139,0,0,0,5.322-1.111,7.818,7.818,0,0,0,3.064-2.783,7.231,7.231,0,0,0,1.111-3.333h-2.563a6.572,6.572,0,0,1-.977,2.283,5.371,5.371,0,0,1-2.148,1.819,8.394,8.394,0,0,1-3.735.708,7.174,7.174,0,0,1-5.6-2.283,9.3,9.3,0,0,1-2.063-6.458V33.352a9.417,9.417,0,0,1,2.039-6.47,7.022,7.022,0,0,1,5.53-2.295,7.61,7.61,0,0,1,3.735.806,5.838,5.838,0,0,1,2.185,2.014,6.631,6.631,0,0,1,.94,2.38h2.563a7.287,7.287,0,0,0-1.147-3.552,8.331,8.331,0,0,0-3.137-2.893,11.8,11.8,0,0,0-10.449.146,8.978,8.978,0,0,0-3.564,3.735,12.514,12.514,0,0,0-1.282,5.884Zm32.178,11.06a9.213,9.213,0,0,0,3.845-.72A8.4,8.4,0,0,0,713.867,46a7.548,7.548,0,0,0,1.416-1.9h.146V48h2.539V30.1a7.993,7.993,0,0,0-1.16-4.5,6.851,6.851,0,0,0-3.162-2.576,11.832,11.832,0,0,0-4.565-.83,13.216,13.216,0,0,0-3.613.452,8.368,8.368,0,0,0-2.71,1.282A6.243,6.243,0,0,0,701,25.881a6.034,6.034,0,0,0-.757,2.441h2.563a4.424,4.424,0,0,1,.867-1.77,4.978,4.978,0,0,1,1.953-1.44,8.226,8.226,0,0,1,3.333-.574,7.217,7.217,0,0,1,4.614,1.392,5.235,5.235,0,0,1,1.758,4.37v3.247H707.91q-4.3,0-6.506,2a6.72,6.72,0,0,0-2.209,5.225,7.173,7.173,0,0,0,2.295,5.579A8.545,8.545,0,0,0,707.471,48.439Zm.513-2.368a6.745,6.745,0,0,1-4.321-1.392,4.752,4.752,0,0,1-1.758-3.955,4.731,4.731,0,0,1,1.428-3.54q1.428-1.392,4.6-1.392h7.4v3.564a6.184,6.184,0,0,1-1,3.491,6.934,6.934,0,0,1-2.661,2.368A7.935,7.935,0,0,1,707.983,46.071ZM725.073,48h2.612V12.941h-2.612ZM13.135,92.194A9.991,9.991,0,0,0,8.2,93.427,9.071,9.071,0,0,0,4.663,97a11.548,11.548,0,0,0-1.318,5.737v5.151a11.9,11.9,0,0,0,1.233,5.566,8.932,8.932,0,0,0,3.43,3.662,9.771,9.771,0,0,0,5.054,1.294,9.508,9.508,0,0,0,3.247-.513,9.123,9.123,0,0,0,2.441-1.294,7.486,7.486,0,0,0,1.636-1.66,5.228,5.228,0,0,0,.806-1.636h.146V118h2.49V82.941H21.24V97.1h-.146a7.2,7.2,0,0,0-1.416-2.283,7.733,7.733,0,0,0-2.625-1.88A9.351,9.351,0,0,0,13.135,92.194Zm.269,2.344a7.434,7.434,0,0,1,6.848,4.089,9.059,9.059,0,0,1,.989,4.26v4.59a9.943,9.943,0,0,1-.928,4.321,7.574,7.574,0,0,1-2.661,3.113,7.334,7.334,0,0,1-4.175,1.16,7.313,7.313,0,0,1-3.894-1.038,7.046,7.046,0,0,1-2.661-3.015,10.836,10.836,0,0,1-.964-4.785V103.4a10.8,10.8,0,0,1,1-4.907,6.979,6.979,0,0,1,2.686-2.966A7.289,7.289,0,0,1,13.4,94.538ZM31.714,118H34.3V92.609H31.714Zm-.879-33.032a2.126,2.126,0,0,0,2.148,2.148,2.134,2.134,0,0,0,1.575-.623,2.075,2.075,0,0,0,.623-1.526,2.129,2.129,0,0,0-2.2-2.2,2.075,2.075,0,0,0-1.526.623A2.134,2.134,0,0,0,30.835,84.968ZM41.431,118h2.612V102.2a8.4,8.4,0,0,1,.928-4.1,6.273,6.273,0,0,1,2.563-2.563,7.715,7.715,0,0,1,3.711-.879,12.66,12.66,0,0,1,1.343.061q.562.061.806.11V92.365q-.293-.049-.769-.1a10.756,10.756,0,0,0-1.086-.049,8.215,8.215,0,0,0-3.882.818A6.778,6.778,0,0,0,45.288,95a6.665,6.665,0,0,0-1.1,2.173h-.146V92.609H41.431Zm24.39.439a11.389,11.389,0,0,0,4.016-.647,9.123,9.123,0,0,0,2.856-1.648A7.92,7.92,0,0,0,74.451,114a6.111,6.111,0,0,0,.745-2.148H72.461A4.3,4.3,0,0,1,71.5,113.8a5.988,5.988,0,0,1-2.209,1.624,8.317,8.317,0,0,1-3.467.647,7.047,7.047,0,0,1-5.688-2.393,9.686,9.686,0,0,1-2.026-6.47v-1.416H75.562v-2.075a13.946,13.946,0,0,0-1.282-6.262,9.178,9.178,0,0,0-3.54-3.918,10.788,10.788,0,0,0-10.425,0,9.178,9.178,0,0,0-3.54,3.918,13.946,13.946,0,0,0-1.282,6.262v3.394a13.738,13.738,0,0,0,1.233,6.055,8.975,8.975,0,0,0,3.54,3.906A10.707,10.707,0,0,0,65.82,118.439Zm-7.715-14.746V103.4a11.157,11.157,0,0,1,.928-4.749,7.112,7.112,0,0,1,12.988,0,11.157,11.157,0,0,1,.928,4.749v.293Zm22.241,3.687a13.046,13.046,0,0,0,1.257,5.981,8.872,8.872,0,0,0,3.54,3.772,10.657,10.657,0,0,0,5.383,1.306,11.138,11.138,0,0,0,5.322-1.111,7.818,7.818,0,0,0,3.064-2.783,7.231,7.231,0,0,0,1.111-3.333H97.461a6.572,6.572,0,0,1-.977,2.283,5.371,5.371,0,0,1-2.148,1.819,8.394,8.394,0,0,1-3.735.708A7.175,7.175,0,0,1,85,113.74a9.3,9.3,0,0,1-2.063-6.458v-3.931a9.417,9.417,0,0,1,2.039-6.47,7.022,7.022,0,0,1,5.53-2.295,7.61,7.61,0,0,1,3.735.806,5.838,5.838,0,0,1,2.185,2.014,6.631,6.631,0,0,1,.94,2.38h2.563a7.287,7.287,0,0,0-1.147-3.552,8.331,8.331,0,0,0-3.137-2.893,11.8,11.8,0,0,0-10.449.146,8.978,8.978,0,0,0-3.564,3.735,12.514,12.514,0,0,0-1.282,5.884ZM107.52,92.609h-4.541v2.222h4.541v16.895a10.648,10.648,0,0,0,.549,3.735,3.726,3.726,0,0,0,1.99,2.112,9.982,9.982,0,0,0,4.1.671q.586,0,1.55-.073t1.355-.122V115.8q-.366.024-1.147.085t-1.27.061a5.482,5.482,0,0,1-3.552-.867q-.989-.867-.989-3.259V94.831h6.567V92.609h-6.567v-6.25H107.52ZM121.777,118h2.588V92.609h-2.588ZM120.9,84.968a2.126,2.126,0,0,0,2.148,2.148,2.134,2.134,0,0,0,1.575-.623,2.075,2.075,0,0,0,.623-1.526,2.129,2.129,0,0,0-2.2-2.2,2.075,2.075,0,0,0-1.526.623A2.134,2.134,0,0,0,120.9,84.968Zm19.7,7.227a10.954,10.954,0,0,0-5.359,1.306,9.454,9.454,0,0,0-3.76,3.784,12.261,12.261,0,0,0-1.379,6.042v4a12.3,12.3,0,0,0,1.379,6.079,9.31,9.31,0,0,0,3.76,3.748,11.121,11.121,0,0,0,5.359,1.282,11,11,0,0,0,5.322-1.282,9.49,9.49,0,0,0,3.772-3.748,12.125,12.125,0,0,0,1.4-6.079v-4a12.211,12.211,0,0,0-1.4-6.079,9.428,9.428,0,0,0-3.784-3.772A11.019,11.019,0,0,0,140.6,92.194Zm0,2.344a7.742,7.742,0,0,1,4.077,1.074,7.342,7.342,0,0,1,2.8,3.113,10.958,10.958,0,0,1,1.013,4.919v3.394a11.053,11.053,0,0,1-1,4.932,7.067,7.067,0,0,1-2.771,3.064,7.936,7.936,0,0,1-4.089,1.038,8.025,8.025,0,0,1-4.15-1.05,7.059,7.059,0,0,1-2.771-3.064,11.089,11.089,0,0,1-.989-4.919v-3.394a10.94,10.94,0,0,1,1.013-4.932,7.357,7.357,0,0,1,2.8-3.1A7.742,7.742,0,0,1,140.6,94.538ZM157.153,118h2.612V103.205a10.655,10.655,0,0,1,.854-4.272,7.4,7.4,0,0,1,2.576-3.186,7.318,7.318,0,0,1,4.309-1.208,6.721,6.721,0,0,1,3.577.891,5.81,5.81,0,0,1,2.222,2.478,8.419,8.419,0,0,1,.769,3.711V118h2.588V100.91q0-4.3-2.429-6.506a8.913,8.913,0,0,0-6.238-2.209,9.374,9.374,0,0,0-4.248.842,7.054,7.054,0,0,0-2.563,2.075,8.311,8.311,0,0,0-1.27,2.4h-.146V92.609h-2.612Zm42.285.439a9.213,9.213,0,0,0,3.845-.72A8.394,8.394,0,0,0,205.835,116a7.548,7.548,0,0,0,1.416-1.9h.146V118h2.539V100.1a7.994,7.994,0,0,0-1.16-4.5,6.851,6.851,0,0,0-3.162-2.576,11.832,11.832,0,0,0-4.565-.83,13.216,13.216,0,0,0-3.613.452,8.367,8.367,0,0,0-2.71,1.282,6.244,6.244,0,0,0-1.758,1.953,6.034,6.034,0,0,0-.757,2.441h2.563a4.424,4.424,0,0,1,.867-1.77,4.978,4.978,0,0,1,1.953-1.44,8.226,8.226,0,0,1,3.333-.574,7.217,7.217,0,0,1,4.614,1.392,5.235,5.235,0,0,1,1.758,4.37v3.247h-7.422q-4.3,0-6.506,2a6.72,6.72,0,0,0-2.209,5.225,7.173,7.173,0,0,0,2.295,5.579A8.545,8.545,0,0,0,199.438,118.439Zm.513-2.368a6.745,6.745,0,0,1-4.321-1.392,5.221,5.221,0,0,1-.33-7.5q1.428-1.392,4.6-1.392h7.4v3.564a6.184,6.184,0,0,1-1,3.491,6.934,6.934,0,0,1-2.661,2.368A7.935,7.935,0,0,1,199.951,116.071ZM216.724,118h2.612V103.205a10.655,10.655,0,0,1,.854-4.272,7.4,7.4,0,0,1,2.576-3.186,7.318,7.318,0,0,1,4.309-1.208,6.721,6.721,0,0,1,3.577.891,5.81,5.81,0,0,1,2.222,2.478,8.419,8.419,0,0,1,.769,3.711V118h2.588V100.91q0-4.3-2.429-6.506a8.913,8.913,0,0,0-6.238-2.209,9.374,9.374,0,0,0-4.248.842,7.054,7.054,0,0,0-2.563,2.075,8.311,8.311,0,0,0-1.27,2.4h-.146V92.609h-2.612Zm34.888-25.806a9.991,9.991,0,0,0-4.932,1.233A9.071,9.071,0,0,0,243.14,97a11.548,11.548,0,0,0-1.318,5.737v5.151a11.9,11.9,0,0,0,1.233,5.566,8.932,8.932,0,0,0,3.43,3.662,9.771,9.771,0,0,0,5.054,1.294,9.508,9.508,0,0,0,3.247-.513,9.123,9.123,0,0,0,2.441-1.294,7.486,7.486,0,0,0,1.636-1.66,5.228,5.228,0,0,0,.806-1.636h.146V118h2.49V82.941h-2.588V97.1h-.146a7.2,7.2,0,0,0-1.416-2.283,7.733,7.733,0,0,0-2.625-1.88A9.351,9.351,0,0,0,251.611,92.194Zm.269,2.344a7.434,7.434,0,0,1,6.848,4.089,9.059,9.059,0,0,1,.989,4.26v4.59a9.943,9.943,0,0,1-.928,4.321,7.574,7.574,0,0,1-2.661,3.113,7.963,7.963,0,0,1-8.069.122,7.046,7.046,0,0,1-2.661-3.015,10.836,10.836,0,0,1-.964-4.785V103.4a10.8,10.8,0,0,1,1-4.907,6.979,6.979,0,0,1,2.686-2.966A7.289,7.289,0,0,1,251.88,94.538Zm25.879,4.785a5.529,5.529,0,0,0,1.074,3.577,7,7,0,0,0,2.979,2.075,33.376,33.376,0,0,0,4.346,1.331q1.831.391,3.43.9a6.713,6.713,0,0,1,2.588,1.44,3.408,3.408,0,0,1,.989,2.612,4.2,4.2,0,0,1-.854,2.661,5.365,5.365,0,0,1-2.38,1.685,9.955,9.955,0,0,1-3.577.586,8.777,8.777,0,0,1-3.87-.72,4.831,4.831,0,0,1-2.869-3.967h-2.563a6.136,6.136,0,0,0,1.013,3.381,7.276,7.276,0,0,0,3.064,2.563,11.841,11.841,0,0,0,5.151.989,13.108,13.108,0,0,0,4.8-.842,7.743,7.743,0,0,0,3.43-2.5,6.593,6.593,0,0,0,1.27-4.126,5.376,5.376,0,0,0-1.208-3.748,7.709,7.709,0,0,0-3.21-2.039,35.521,35.521,0,0,0-4.395-1.221q-1.416-.317-2.612-.7a10.127,10.127,0,0,1-2.087-.9,4.018,4.018,0,0,1-1.392-1.318,3.616,3.616,0,0,1-.5-1.965,3.881,3.881,0,0,1,1.782-3.467,7.691,7.691,0,0,1,4.321-1.172,7.551,7.551,0,0,1,3.613.745,5.019,5.019,0,0,1,1.99,1.794,4.155,4.155,0,0,1,.647,2h2.49a6.233,6.233,0,0,0-.928-3.223,6.914,6.914,0,0,0-2.844-2.563,10.536,10.536,0,0,0-4.9-1,11.962,11.962,0,0,0-4.407.781,7.173,7.173,0,0,0-3.186,2.368A6.424,6.424,0,0,0,277.759,99.323Zm25.073-6.714h-4.541v2.222h4.541v16.895a10.648,10.648,0,0,0,.549,3.735,3.726,3.726,0,0,0,1.99,2.112,9.982,9.982,0,0,0,4.1.671q.586,0,1.55-.073t1.355-.122V115.8q-.366.024-1.147.085t-1.27.061a5.482,5.482,0,0,1-3.552-.867q-.989-.867-.989-3.259V94.831h6.567V92.609H305.42v-6.25h-2.588ZM316.724,118h2.612V102.2a8.394,8.394,0,0,1,.928-4.1,6.273,6.273,0,0,1,2.563-2.563,7.715,7.715,0,0,1,3.711-.879,12.66,12.66,0,0,1,1.343.061q.562.061.806.11V92.365q-.293-.049-.769-.1a10.756,10.756,0,0,0-1.086-.049,8.215,8.215,0,0,0-3.882.818A6.778,6.778,0,0,0,320.581,95a6.666,6.666,0,0,0-1.1,2.173h-.146V92.609h-2.612Zm35.034-25.391h-2.612v15.625a8.153,8.153,0,0,1-.928,3.8,7.572,7.572,0,0,1-2.661,2.917,8.229,8.229,0,0,1-7.544.391,5.335,5.335,0,0,1-2.295-2.2,7.289,7.289,0,0,1-.83-3.638V92.609h-2.612v17.48a8.849,8.849,0,0,0,1.147,4.761,6.955,6.955,0,0,0,3.1,2.71,10.657,10.657,0,0,0,4.419.879,9.046,9.046,0,0,0,4.028-.818,7.979,7.979,0,0,0,2.649-2A7.43,7.43,0,0,0,349,113.288h.146V118h2.612Zm5.811,14.771a13.045,13.045,0,0,0,1.257,5.981,8.872,8.872,0,0,0,3.54,3.772,10.657,10.657,0,0,0,5.383,1.306,11.138,11.138,0,0,0,5.322-1.111,7.818,7.818,0,0,0,3.064-2.783,7.231,7.231,0,0,0,1.111-3.333h-2.563a6.571,6.571,0,0,1-.977,2.283,5.371,5.371,0,0,1-2.148,1.819,8.394,8.394,0,0,1-3.735.708,7.175,7.175,0,0,1-5.6-2.283,9.3,9.3,0,0,1-2.063-6.458v-3.931a9.417,9.417,0,0,1,2.039-6.47,7.022,7.022,0,0,1,5.53-2.295,7.61,7.61,0,0,1,3.735.806,5.838,5.838,0,0,1,2.185,2.014,6.631,6.631,0,0,1,.94,2.38h2.563A7.287,7.287,0,0,0,376,96.235a8.331,8.331,0,0,0-3.137-2.893,11.8,11.8,0,0,0-10.449.146,8.978,8.978,0,0,0-3.564,3.735,12.514,12.514,0,0,0-1.282,5.884Zm27.173-14.771H380.2v2.222h4.541v16.895a10.648,10.648,0,0,0,.549,3.735,3.726,3.726,0,0,0,1.99,2.112,9.982,9.982,0,0,0,4.1.671q.586,0,1.55-.073t1.355-.122V115.8q-.366.024-1.147.085t-1.27.061a5.482,5.482,0,0,1-3.552-.867q-.989-.867-.989-3.259V94.831H393.9V92.609h-6.567v-6.25h-2.588Zm32.69,0h-2.612v15.625a8.153,8.153,0,0,1-.928,3.8,7.572,7.572,0,0,1-2.661,2.917,8.229,8.229,0,0,1-7.544.391,5.335,5.335,0,0,1-2.295-2.2,7.289,7.289,0,0,1-.83-3.638V92.609h-2.612v17.48a8.849,8.849,0,0,0,1.147,4.761,6.955,6.955,0,0,0,3.1,2.71,10.657,10.657,0,0,0,4.419.879,9.046,9.046,0,0,0,4.028-.818,7.979,7.979,0,0,0,2.649-2,7.43,7.43,0,0,0,1.379-2.332h.146V118h2.612Zm7.2,25.391h2.612V102.2a8.394,8.394,0,0,1,.928-4.1,6.273,6.273,0,0,1,2.563-2.563,7.715,7.715,0,0,1,3.711-.879,12.66,12.66,0,0,1,1.343.061q.562.061.806.11V92.365q-.293-.049-.769-.1a10.756,10.756,0,0,0-1.086-.049,8.215,8.215,0,0,0-3.882.818A6.778,6.778,0,0,0,428.491,95a6.666,6.666,0,0,0-1.1,2.173h-.146V92.609h-2.612Zm24.39.439a11.389,11.389,0,0,0,4.016-.647,9.123,9.123,0,0,0,2.856-1.648A7.92,7.92,0,0,0,457.654,114a6.111,6.111,0,0,0,.745-2.148h-2.734a4.3,4.3,0,0,1-.964,1.953,5.988,5.988,0,0,1-2.209,1.624,8.317,8.317,0,0,1-3.467.647,7.047,7.047,0,0,1-5.688-2.393,9.686,9.686,0,0,1-2.026-6.47v-1.416h17.456v-2.075a13.946,13.946,0,0,0-1.282-6.262,9.178,9.178,0,0,0-3.54-3.918,10.788,10.788,0,0,0-10.425,0,9.178,9.178,0,0,0-3.54,3.918,13.946,13.946,0,0,0-1.282,6.262v3.394a13.738,13.738,0,0,0,1.233,6.055,8.974,8.974,0,0,0,3.54,3.906A10.707,10.707,0,0,0,449.023,118.439Zm-7.715-14.746V103.4a11.157,11.157,0,0,1,.928-4.749,7.112,7.112,0,0,1,12.988,0,11.157,11.157,0,0,1,.928,4.749v.293ZM475.635,118h2.588V94.831h6.714V92.609h-6.714V89.729a4.6,4.6,0,0,1,1.086-3.5,5.249,5.249,0,0,1,3.577-.989q.61,0,1.4.049t1.135.1V83.161a7.8,7.8,0,0,0-1.2-.159q-.806-.061-1.562-.061-3.711,0-5.371,1.611t-1.66,5.029v3.027h-4.419v2.222h4.419Zm21.9-25.806a10.954,10.954,0,0,0-5.359,1.306,9.453,9.453,0,0,0-3.76,3.784,12.261,12.261,0,0,0-1.379,6.042v4a12.3,12.3,0,0,0,1.379,6.079,9.31,9.31,0,0,0,3.76,3.748,11.121,11.121,0,0,0,5.359,1.282,11,11,0,0,0,5.322-1.282,9.49,9.49,0,0,0,3.772-3.748,12.125,12.125,0,0,0,1.4-6.079v-4a12.211,12.211,0,0,0-1.4-6.079,9.428,9.428,0,0,0-3.784-3.772A11.019,11.019,0,0,0,497.534,92.194Zm0,2.344a7.742,7.742,0,0,1,4.077,1.074,7.342,7.342,0,0,1,2.8,3.113,10.958,10.958,0,0,1,1.013,4.919v3.394a11.053,11.053,0,0,1-1,4.932,7.067,7.067,0,0,1-2.771,3.064,7.936,7.936,0,0,1-4.089,1.038,8.025,8.025,0,0,1-4.15-1.05,7.059,7.059,0,0,1-2.771-3.064,11.089,11.089,0,0,1-.989-4.919v-3.394a10.94,10.94,0,0,1,1.013-4.932,7.357,7.357,0,0,1,2.8-3.1A7.742,7.742,0,0,1,497.534,94.538ZM514.307,118h2.612V102.2a8.4,8.4,0,0,1,.928-4.1,6.273,6.273,0,0,1,2.563-2.563,7.715,7.715,0,0,1,3.711-.879,12.66,12.66,0,0,1,1.343.061q.561.061.806.11V92.365q-.293-.049-.769-.1a10.756,10.756,0,0,0-1.086-.049,8.215,8.215,0,0,0-3.882.818A6.779,6.779,0,0,0,518.164,95a6.664,6.664,0,0,0-1.1,2.173h-.146V92.609h-2.612ZM557.08,92.609H554.3l-7.788,22.681h-.122l-7.861-22.681H535.62l9.5,25.757-.684,1.953a6.229,6.229,0,0,1-1.9,3,4.867,4.867,0,0,1-3.149,1q-.391,0-.977-.049t-.977-.1v2.246a8.6,8.6,0,0,0,1.074.146q.61.049,1.1.049a6.743,6.743,0,0,0,4.443-1.453,10.658,10.658,0,0,0,2.93-4.578l.952-2.466q1.123-3.223,2.271-6.4t2.295-6.372q1.147-3.2,2.295-6.384T557.08,92.609Zm12.524-.415a10.954,10.954,0,0,0-5.359,1.306,9.454,9.454,0,0,0-3.76,3.784,12.261,12.261,0,0,0-1.379,6.042v4a12.3,12.3,0,0,0,1.379,6.079,9.31,9.31,0,0,0,3.76,3.748,11.121,11.121,0,0,0,5.359,1.282,11,11,0,0,0,5.322-1.282,9.49,9.49,0,0,0,3.772-3.748,12.126,12.126,0,0,0,1.4-6.079v-4a12.211,12.211,0,0,0-1.4-6.079,9.428,9.428,0,0,0-3.784-3.772A11.019,11.019,0,0,0,569.6,92.194Zm0,2.344a7.742,7.742,0,0,1,4.077,1.074,7.342,7.342,0,0,1,2.8,3.113,10.957,10.957,0,0,1,1.013,4.919v3.394a11.053,11.053,0,0,1-1,4.932,7.067,7.067,0,0,1-2.771,3.064,7.936,7.936,0,0,1-4.089,1.038,8.025,8.025,0,0,1-4.15-1.05,7.059,7.059,0,0,1-2.771-3.064,11.089,11.089,0,0,1-.989-4.919v-3.394a10.94,10.94,0,0,1,1.013-4.932,7.357,7.357,0,0,1,2.8-3.1A7.742,7.742,0,0,1,569.6,94.538Zm35.815-1.929h-2.612v15.625a8.154,8.154,0,0,1-.928,3.8,7.572,7.572,0,0,1-2.661,2.917,8.229,8.229,0,0,1-7.544.391,5.335,5.335,0,0,1-2.295-2.2,7.289,7.289,0,0,1-.83-3.638V92.609h-2.612v17.48a8.849,8.849,0,0,0,1.147,4.761,6.955,6.955,0,0,0,3.1,2.71,10.657,10.657,0,0,0,4.419.879,9.046,9.046,0,0,0,4.028-.818,7.979,7.979,0,0,0,2.649-2,7.43,7.43,0,0,0,1.379-2.332h.146V118h2.612Zm7.2,25.391h2.612V102.2a8.4,8.4,0,0,1,.928-4.1,6.273,6.273,0,0,1,2.563-2.563,7.715,7.715,0,0,1,3.711-.879,12.66,12.66,0,0,1,1.343.061q.561.061.806.11V92.365q-.293-.049-.769-.1a10.756,10.756,0,0,0-1.086-.049,8.215,8.215,0,0,0-3.882.818A6.779,6.779,0,0,0,616.479,95a6.664,6.664,0,0,0-1.1,2.173h-.146V92.609h-2.612Zm33.252,6.665a8.882,8.882,0,0,1-3.625-.659,6,6,0,0,1-2.283-1.66,4,4,0,0,1-.928-2.026h-2.71a6.436,6.436,0,0,0,1.172,3.174,7.671,7.671,0,0,0,3.1,2.527,11.906,11.906,0,0,0,5.176.989,14.05,14.05,0,0,0,4.3-.61,9.007,9.007,0,0,0,3.259-1.807,7.842,7.842,0,0,0,2.075-2.954,10.624,10.624,0,0,0,.72-4.053V92.609h-2.515v4.517h-.122a7.193,7.193,0,0,0-1.355-2.148,8.311,8.311,0,0,0-2.625-1.965,8.767,8.767,0,0,0-3.955-.818,10.263,10.263,0,0,0-4.919,1.208,9.114,9.114,0,0,0-3.625,3.577,11.454,11.454,0,0,0-1.367,5.811v3.955a11.506,11.506,0,0,0,1.306,5.64,9.155,9.155,0,0,0,3.552,3.638,10.041,10.041,0,0,0,5.029,1.27,9.031,9.031,0,0,0,3.137-.5,8.3,8.3,0,0,0,2.307-1.257,7.8,7.8,0,0,0,1.538-1.587,7.367,7.367,0,0,0,.854-1.514h.146v5.225a6.791,6.791,0,0,1-1.953,5.115A7.857,7.857,0,0,1,645.874,124.665Zm.049-30.127a7.028,7.028,0,0,1,4.065,1.16,7.638,7.638,0,0,1,2.612,3.076,9.643,9.643,0,0,1,.916,4.211v3.638a9.612,9.612,0,0,1-.867,4.028,7.59,7.59,0,0,1-2.551,3.1,6.985,6.985,0,0,1-4.15,1.2,7.271,7.271,0,0,1-6.677-4.1,10.159,10.159,0,0,1-1.013-4.687v-2.734a10.54,10.54,0,0,1,1.025-4.871,7.149,7.149,0,0,1,2.771-3A7.568,7.568,0,0,1,645.923,94.538ZM664.038,118h2.612V102.2a8.4,8.4,0,0,1,.928-4.1,6.273,6.273,0,0,1,2.563-2.563,7.715,7.715,0,0,1,3.711-.879,12.66,12.66,0,0,1,1.343.061q.561.061.806.11V92.365q-.293-.049-.769-.1a10.756,10.756,0,0,0-1.086-.049,8.215,8.215,0,0,0-3.882.818A6.779,6.779,0,0,0,667.9,95a6.664,6.664,0,0,0-1.1,2.173h-.146V92.609h-2.612Zm24.536-25.806a10.954,10.954,0,0,0-5.359,1.306,9.454,9.454,0,0,0-3.76,3.784,12.261,12.261,0,0,0-1.379,6.042v4a12.3,12.3,0,0,0,1.379,6.079,9.31,9.31,0,0,0,3.76,3.748,11.121,11.121,0,0,0,5.359,1.282,11,11,0,0,0,5.322-1.282,9.49,9.49,0,0,0,3.772-3.748,12.126,12.126,0,0,0,1.4-6.079v-4a12.211,12.211,0,0,0-1.4-6.079,9.428,9.428,0,0,0-3.784-3.772A11.019,11.019,0,0,0,688.574,92.194Zm0,2.344a7.742,7.742,0,0,1,4.077,1.074,7.342,7.342,0,0,1,2.8,3.113,10.957,10.957,0,0,1,1.013,4.919v3.394a11.053,11.053,0,0,1-1,4.932,7.067,7.067,0,0,1-2.771,3.064,7.936,7.936,0,0,1-4.089,1.038,8.025,8.025,0,0,1-4.15-1.05,7.059,7.059,0,0,1-2.771-3.064,11.089,11.089,0,0,1-.989-4.919v-3.394a10.94,10.94,0,0,1,1.013-4.932,7.357,7.357,0,0,1,2.8-3.1A7.742,7.742,0,0,1,688.574,94.538Zm46.069-1.929h-2.661l-5.493,21.777h-.146L719.6,92.609h-2.539l-6.641,21.777h-.146l-5.42-21.777H701.9L709.033,118h2.588l6.689-21.606h.1L725.146,118h2.588ZM739.5,118h2.588V92.609H739.5Zm-.879-33.032a2.126,2.126,0,0,0,2.148,2.148,2.134,2.134,0,0,0,1.575-.623,2.075,2.075,0,0,0,.623-1.526,2.129,2.129,0,0,0-2.2-2.2,2.075,2.075,0,0,0-1.526.623A2.134,2.134,0,0,0,738.623,84.968ZM749,118h2.612V103.205a10.655,10.655,0,0,1,.854-4.272,7.4,7.4,0,0,1,2.576-3.186,7.318,7.318,0,0,1,4.309-1.208,6.721,6.721,0,0,1,3.577.891,5.81,5.81,0,0,1,2.222,2.478,8.419,8.419,0,0,1,.769,3.711V118h2.588V100.91q0-4.3-2.429-6.506a8.913,8.913,0,0,0-6.238-2.209,9.374,9.374,0,0,0-4.248.842,7.054,7.054,0,0,0-2.563,2.075,8.311,8.311,0,0,0-1.27,2.4h-.146V92.609H749Zm35.156,6.665a8.882,8.882,0,0,1-3.625-.659,6,6,0,0,1-2.283-1.66,4,4,0,0,1-.928-2.026h-2.71a6.436,6.436,0,0,0,1.172,3.174,7.671,7.671,0,0,0,3.1,2.527,11.906,11.906,0,0,0,5.176.989,14.05,14.05,0,0,0,4.3-.61,9.007,9.007,0,0,0,3.259-1.807,7.842,7.842,0,0,0,2.075-2.954,10.624,10.624,0,0,0,.72-4.053V92.609h-2.515v4.517h-.122a7.193,7.193,0,0,0-1.355-2.148,8.311,8.311,0,0,0-2.625-1.965,8.767,8.767,0,0,0-3.955-.818,10.263,10.263,0,0,0-4.919,1.208,9.114,9.114,0,0,0-3.625,3.577,11.454,11.454,0,0,0-1.367,5.811v3.955a11.506,11.506,0,0,0,1.306,5.64,9.155,9.155,0,0,0,3.552,3.638,10.041,10.041,0,0,0,5.029,1.27,9.031,9.031,0,0,0,3.137-.5,8.3,8.3,0,0,0,2.307-1.257,7.8,7.8,0,0,0,1.538-1.587,7.367,7.367,0,0,0,.854-1.514h.146v5.225a6.791,6.791,0,0,1-1.953,5.115A7.857,7.857,0,0,1,784.155,124.665Zm.049-30.127a7.028,7.028,0,0,1,4.065,1.16,7.638,7.638,0,0,1,2.612,3.076,9.643,9.643,0,0,1,.916,4.211v3.638a9.612,9.612,0,0,1-.867,4.028,7.59,7.59,0,0,1-2.551,3.1,6.985,6.985,0,0,1-4.15,1.2,7.271,7.271,0,0,1-6.677-4.1,10.159,10.159,0,0,1-1.013-4.687v-2.734a10.54,10.54,0,0,1,1.025-4.871,7.149,7.149,0,0,1,2.771-3A7.568,7.568,0,0,1,784.2,94.538Zm-768.872,93.9A9.746,9.746,0,0,0,20.5,187.1a9.02,9.02,0,0,0,3.418-3.748,12.44,12.44,0,0,0,1.208-5.652v-4.834a12.306,12.306,0,0,0-1.208-5.615,9.035,9.035,0,0,0-3.381-3.723,9.576,9.576,0,0,0-5.1-1.331,9.991,9.991,0,0,0-2.747.378,9.033,9.033,0,0,0-2.417,1.074,7.744,7.744,0,0,0-1.843,1.624,5.394,5.394,0,0,0-1.05,2H7.227V152.941H4.639V188h2.49v-4.492h.146A6.786,6.786,0,0,0,9.009,186.1a8.441,8.441,0,0,0,2.808,1.721A9.8,9.8,0,0,0,15.332,188.439Zm-.244-2.368A7.678,7.678,0,0,1,11.023,185a7.56,7.56,0,0,1-2.783-2.979,9.109,9.109,0,0,1-1.013-4.346v-4.517A9.876,9.876,0,0,1,8.2,168.64a7.352,7.352,0,0,1,2.747-3.015,7.612,7.612,0,0,1,4.065-1.086,7.106,7.106,0,0,1,3.992,1.1,7.16,7.16,0,0,1,2.588,3.113,11.455,11.455,0,0,1,.916,4.773v3.589a11.59,11.59,0,0,1-.9,4.773,7,7,0,0,1-2.576,3.1A7.076,7.076,0,0,1,15.088,186.071Zm35.352-23.462H47.827v15.625a8.153,8.153,0,0,1-.928,3.8,7.573,7.573,0,0,1-2.661,2.917,8.229,8.229,0,0,1-7.544.391,5.335,5.335,0,0,1-2.295-2.2,7.289,7.289,0,0,1-.83-3.638V162.609H30.957v17.48a8.849,8.849,0,0,0,1.147,4.761,6.955,6.955,0,0,0,3.1,2.71,10.657,10.657,0,0,0,4.419.879,9.046,9.046,0,0,0,4.028-.818,7.979,7.979,0,0,0,2.649-2,7.43,7.43,0,0,0,1.379-2.332h.146V188h2.612Zm5.933,6.714a5.529,5.529,0,0,0,1.074,3.577,7,7,0,0,0,2.979,2.075,33.376,33.376,0,0,0,4.346,1.331q1.831.391,3.43.9a6.713,6.713,0,0,1,2.588,1.44,3.408,3.408,0,0,1,.989,2.612,4.2,4.2,0,0,1-.854,2.661,5.365,5.365,0,0,1-2.38,1.685,9.955,9.955,0,0,1-3.577.586,8.776,8.776,0,0,1-3.87-.72,4.831,4.831,0,0,1-2.869-3.967H55.664a6.136,6.136,0,0,0,1.013,3.381,7.276,7.276,0,0,0,3.064,2.563,11.841,11.841,0,0,0,5.151.989,13.108,13.108,0,0,0,4.8-.842,7.743,7.743,0,0,0,3.43-2.5,6.593,6.593,0,0,0,1.27-4.126,5.376,5.376,0,0,0-1.208-3.748,7.709,7.709,0,0,0-3.21-2.039,35.523,35.523,0,0,0-4.395-1.221q-1.416-.317-2.612-.7a10.126,10.126,0,0,1-2.087-.9,4.018,4.018,0,0,1-1.392-1.318,3.616,3.616,0,0,1-.5-1.965,3.881,3.881,0,0,1,1.782-3.467,7.691,7.691,0,0,1,4.321-1.172,7.551,7.551,0,0,1,3.613.745,5.019,5.019,0,0,1,1.99,1.794,4.155,4.155,0,0,1,.647,2h2.49a6.233,6.233,0,0,0-.928-3.223,6.914,6.914,0,0,0-2.844-2.563,10.536,10.536,0,0,0-4.9-1,11.962,11.962,0,0,0-4.407.781,7.173,7.173,0,0,0-3.186,2.368A6.424,6.424,0,0,0,56.372,169.323ZM80.64,188h2.588V162.609H80.64Zm-.879-33.032a2.126,2.126,0,0,0,2.148,2.148,2.134,2.134,0,0,0,1.575-.623,2.075,2.075,0,0,0,.623-1.526,2.129,2.129,0,0,0-2.2-2.2,2.075,2.075,0,0,0-1.526.623A2.134,2.134,0,0,0,79.761,154.968ZM90.137,188h2.612V173.205a10.655,10.655,0,0,1,.854-4.272,7.4,7.4,0,0,1,2.576-3.186,7.318,7.318,0,0,1,4.309-1.208,6.721,6.721,0,0,1,3.577.891,5.81,5.81,0,0,1,2.222,2.478,8.419,8.419,0,0,1,.769,3.711V188h2.588V170.91q0-4.3-2.429-6.506a8.913,8.913,0,0,0-6.238-2.209,9.374,9.374,0,0,0-4.248.842,7.054,7.054,0,0,0-2.563,2.075,8.311,8.311,0,0,0-1.27,2.4h-.146v-4.907H90.137Zm35.5.439a11.389,11.389,0,0,0,4.016-.647,9.124,9.124,0,0,0,2.856-1.648A7.92,7.92,0,0,0,134.265,184a6.11,6.11,0,0,0,.745-2.148h-2.734a4.3,4.3,0,0,1-.964,1.953,5.988,5.988,0,0,1-2.209,1.624,8.317,8.317,0,0,1-3.467.647,7.047,7.047,0,0,1-5.688-2.393,9.686,9.686,0,0,1-2.026-6.47v-1.416h17.456v-2.075a13.946,13.946,0,0,0-1.282-6.262,9.178,9.178,0,0,0-3.54-3.918,10.788,10.788,0,0,0-10.425,0,9.178,9.178,0,0,0-3.54,3.918,13.946,13.946,0,0,0-1.282,6.262v3.394a13.738,13.738,0,0,0,1.233,6.055,8.975,8.975,0,0,0,3.54,3.906A10.707,10.707,0,0,0,125.635,188.439Zm-7.715-14.746V173.4a11.157,11.157,0,0,1,.928-4.749,7.112,7.112,0,0,1,12.988,0,11.157,11.157,0,0,1,.928,4.749v.293Zm22.363-4.37a5.529,5.529,0,0,0,1.074,3.577,7,7,0,0,0,2.979,2.075,33.376,33.376,0,0,0,4.346,1.331q1.831.391,3.43.9a6.713,6.713,0,0,1,2.588,1.44,3.408,3.408,0,0,1,.989,2.612,4.2,4.2,0,0,1-.854,2.661,5.364,5.364,0,0,1-2.38,1.685,9.955,9.955,0,0,1-3.577.586,8.777,8.777,0,0,1-3.87-.72,4.831,4.831,0,0,1-2.869-3.967h-2.563a6.136,6.136,0,0,0,1.013,3.381,7.276,7.276,0,0,0,3.064,2.563,11.841,11.841,0,0,0,5.151.989,13.108,13.108,0,0,0,4.8-.842,7.744,7.744,0,0,0,3.43-2.5,6.593,6.593,0,0,0,1.27-4.126,5.376,5.376,0,0,0-1.208-3.748,7.709,7.709,0,0,0-3.21-2.039,35.524,35.524,0,0,0-4.395-1.221q-1.416-.317-2.612-.7a10.126,10.126,0,0,1-2.087-.9,4.018,4.018,0,0,1-1.392-1.318,3.616,3.616,0,0,1-.5-1.965,3.881,3.881,0,0,1,1.782-3.467A7.691,7.691,0,0,1,149,164.44a7.551,7.551,0,0,1,3.613.745,5.019,5.019,0,0,1,1.99,1.794,4.155,4.155,0,0,1,.647,2h2.49a6.233,6.233,0,0,0-.928-3.223,6.914,6.914,0,0,0-2.844-2.563,10.536,10.536,0,0,0-4.9-1,11.962,11.962,0,0,0-4.407.781,7.173,7.173,0,0,0-3.186,2.368A6.424,6.424,0,0,0,140.283,169.323Zm22.632,0a5.529,5.529,0,0,0,1.074,3.577,7,7,0,0,0,2.979,2.075,33.376,33.376,0,0,0,4.346,1.331q1.831.391,3.43.9a6.713,6.713,0,0,1,2.588,1.44,3.408,3.408,0,0,1,.989,2.612,4.2,4.2,0,0,1-.854,2.661,5.364,5.364,0,0,1-2.38,1.685,9.955,9.955,0,0,1-3.577.586,8.777,8.777,0,0,1-3.87-.72,4.831,4.831,0,0,1-2.869-3.967h-2.563a6.136,6.136,0,0,0,1.013,3.381,7.276,7.276,0,0,0,3.064,2.563,11.841,11.841,0,0,0,5.151.989,13.108,13.108,0,0,0,4.8-.842,7.744,7.744,0,0,0,3.43-2.5,6.593,6.593,0,0,0,1.27-4.126,5.376,5.376,0,0,0-1.208-3.748,7.709,7.709,0,0,0-3.21-2.039,35.524,35.524,0,0,0-4.395-1.221q-1.416-.317-2.612-.7a10.126,10.126,0,0,1-2.087-.9,4.018,4.018,0,0,1-1.392-1.318,3.616,3.616,0,0,1-.5-1.965,3.881,3.881,0,0,1,1.782-3.467,7.691,7.691,0,0,1,4.321-1.172,7.551,7.551,0,0,1,3.613.745,5.019,5.019,0,0,1,1.99,1.794,4.155,4.155,0,0,1,.647,2h2.49a6.233,6.233,0,0,0-.928-3.223A6.914,6.914,0,0,0,176.6,163.2a10.536,10.536,0,0,0-4.9-1,11.962,11.962,0,0,0-4.407.781,7.173,7.173,0,0,0-3.186,2.368A6.424,6.424,0,0,0,162.915,169.323Zm22.876-1.05a2.418,2.418,0,0,0,2.441,2.441,2.469,2.469,0,0,0,1.782-.708,2.318,2.318,0,0,0,.732-1.733,2.415,2.415,0,0,0-.732-1.794,2.447,2.447,0,0,0-1.782-.72,2.337,2.337,0,0,0-1.733.72A2.458,2.458,0,0,0,185.791,168.273Zm1.1,28.394,2.954-12.744h-3.125l-2.246,12.744Zm28.32-8.228a11.389,11.389,0,0,0,4.016-.647,9.124,9.124,0,0,0,2.856-1.648A7.92,7.92,0,0,0,223.84,184a6.11,6.11,0,0,0,.745-2.148h-2.734a4.3,4.3,0,0,1-.964,1.953,5.988,5.988,0,0,1-2.209,1.624,8.317,8.317,0,0,1-3.467.647,7.047,7.047,0,0,1-5.688-2.393,9.686,9.686,0,0,1-2.026-6.47v-1.416h17.456v-2.075a13.946,13.946,0,0,0-1.282-6.262,9.178,9.178,0,0,0-3.54-3.918,10.788,10.788,0,0,0-10.425,0,9.178,9.178,0,0,0-3.54,3.918,13.946,13.946,0,0,0-1.282,6.262v3.394a13.738,13.738,0,0,0,1.233,6.055,8.975,8.975,0,0,0,3.54,3.906A10.707,10.707,0,0,0,215.21,188.439ZM207.5,173.693V173.4a11.157,11.157,0,0,1,.928-4.749,7.112,7.112,0,0,1,12.988,0,11.157,11.157,0,0,1,.928,4.749v.293ZM230.908,188h2.612V173.205a10.655,10.655,0,0,1,.854-4.272,7.4,7.4,0,0,1,2.576-3.186,7.318,7.318,0,0,1,4.309-1.208,6.721,6.721,0,0,1,3.577.891,5.81,5.81,0,0,1,2.222,2.478,8.419,8.419,0,0,1,.769,3.711V188h2.588V170.91q0-4.3-2.429-6.506a8.913,8.913,0,0,0-6.238-2.209,9.374,9.374,0,0,0-4.248.842,7.054,7.054,0,0,0-2.563,2.075,8.311,8.311,0,0,0-1.27,2.4h-.146v-4.907h-2.612Zm26.416,0h2.588V173.205a10.525,10.525,0,0,1,.867-4.272,7.448,7.448,0,0,1,2.6-3.186,7.331,7.331,0,0,1,4.3-1.208,6.866,6.866,0,0,1,3.589.891,5.8,5.8,0,0,1,2.271,2.49,8.386,8.386,0,0,1,.781,3.723V188h2.612V170.935q0-4.3-2.466-6.519a8.916,8.916,0,0,0-6.2-2.222,9.4,9.4,0,0,0-4.272.867,7.477,7.477,0,0,0-2.649,2.112,7.861,7.861,0,0,0-1.282,2.344h-.146V152.941h-2.588Zm33.081.439a9.213,9.213,0,0,0,3.845-.72A8.394,8.394,0,0,0,296.8,186a7.548,7.548,0,0,0,1.416-1.9h.146V188H300.9V170.1a7.994,7.994,0,0,0-1.16-4.5,6.851,6.851,0,0,0-3.162-2.576,11.831,11.831,0,0,0-4.565-.83,13.217,13.217,0,0,0-3.613.452,8.367,8.367,0,0,0-2.71,1.282,6.244,6.244,0,0,0-1.758,1.953,6.034,6.034,0,0,0-.757,2.441h2.563a4.424,4.424,0,0,1,.867-1.77,4.978,4.978,0,0,1,1.953-1.44,8.226,8.226,0,0,1,3.333-.574,7.217,7.217,0,0,1,4.614,1.392,5.235,5.235,0,0,1,1.758,4.37v3.247h-7.422q-4.3,0-6.506,2a6.72,6.72,0,0,0-2.209,5.225,7.173,7.173,0,0,0,2.295,5.579A8.545,8.545,0,0,0,290.405,188.439Zm.513-2.368a6.745,6.745,0,0,1-4.321-1.392,5.221,5.221,0,0,1-.33-7.5q1.428-1.392,4.6-1.392h7.4v3.564a6.183,6.183,0,0,1-1,3.491,6.934,6.934,0,0,1-2.661,2.368A7.935,7.935,0,0,1,290.918,186.071ZM307.69,188H310.3V173.205a10.655,10.655,0,0,1,.854-4.272,7.4,7.4,0,0,1,2.576-3.186,7.318,7.318,0,0,1,4.309-1.208,6.721,6.721,0,0,1,3.577.891,5.811,5.811,0,0,1,2.222,2.478,8.419,8.419,0,0,1,.769,3.711V188H327.2V170.91q0-4.3-2.429-6.506a8.913,8.913,0,0,0-6.238-2.209,9.374,9.374,0,0,0-4.248.842,7.054,7.054,0,0,0-2.563,2.075,8.311,8.311,0,0,0-1.27,2.4H310.3v-4.907H307.69Zm25.146-10.62a13.045,13.045,0,0,0,1.257,5.981,8.872,8.872,0,0,0,3.54,3.772,10.657,10.657,0,0,0,5.383,1.306,11.138,11.138,0,0,0,5.322-1.111,7.818,7.818,0,0,0,3.064-2.783,7.231,7.231,0,0,0,1.111-3.333h-2.563a6.571,6.571,0,0,1-.977,2.283,5.371,5.371,0,0,1-2.148,1.819,8.394,8.394,0,0,1-3.735.708,7.175,7.175,0,0,1-5.6-2.283,9.3,9.3,0,0,1-2.063-6.458v-3.931a9.417,9.417,0,0,1,2.039-6.47,7.022,7.022,0,0,1,5.53-2.295,7.61,7.61,0,0,1,3.735.806,5.838,5.838,0,0,1,2.185,2.014,6.631,6.631,0,0,1,.94,2.38h2.563a7.287,7.287,0,0,0-1.147-3.552,8.331,8.331,0,0,0-3.137-2.893,11.8,11.8,0,0,0-10.449.146,8.978,8.978,0,0,0-3.564,3.735,12.514,12.514,0,0,0-1.282,5.884Zm26,10.62h2.588V162.609h-2.588Zm-.879-33.032a2.126,2.126,0,0,0,2.148,2.148,2.134,2.134,0,0,0,1.575-.623,2.075,2.075,0,0,0,.623-1.526,2.129,2.129,0,0,0-2.2-2.2,2.075,2.075,0,0,0-1.526.623A2.134,2.134,0,0,0,357.959,154.968ZM368.335,188h2.612V173.205a10.655,10.655,0,0,1,.854-4.272,7.4,7.4,0,0,1,2.576-3.186,7.318,7.318,0,0,1,4.309-1.208,6.721,6.721,0,0,1,3.577.891,5.811,5.811,0,0,1,2.222,2.478,8.419,8.419,0,0,1,.769,3.711V188h2.588V170.91q0-4.3-2.429-6.506a8.913,8.913,0,0,0-6.238-2.209,9.374,9.374,0,0,0-4.248.842,7.054,7.054,0,0,0-2.563,2.075,8.311,8.311,0,0,0-1.27,2.4h-.146v-4.907h-2.612Zm35.156,6.665a8.882,8.882,0,0,1-3.625-.659,6,6,0,0,1-2.283-1.66,4,4,0,0,1-.928-2.026h-2.71a6.436,6.436,0,0,0,1.172,3.174,7.671,7.671,0,0,0,3.1,2.527,11.906,11.906,0,0,0,5.176.989,14.05,14.05,0,0,0,4.3-.61,9.007,9.007,0,0,0,3.259-1.807,7.842,7.842,0,0,0,2.075-2.954,10.625,10.625,0,0,0,.72-4.053V162.609H411.23v4.517h-.122a7.193,7.193,0,0,0-1.355-2.148,8.311,8.311,0,0,0-2.625-1.965,8.767,8.767,0,0,0-3.955-.818,10.263,10.263,0,0,0-4.919,1.208,9.114,9.114,0,0,0-3.625,3.577,11.454,11.454,0,0,0-1.367,5.811v3.955a11.507,11.507,0,0,0,1.306,5.64,9.154,9.154,0,0,0,3.552,3.638,10.041,10.041,0,0,0,5.029,1.27,9.031,9.031,0,0,0,3.137-.5,8.3,8.3,0,0,0,2.307-1.257,7.8,7.8,0,0,0,1.538-1.587,7.369,7.369,0,0,0,.854-1.514h.146v5.225a6.791,6.791,0,0,1-1.953,5.115A7.857,7.857,0,0,1,403.491,194.665Zm.049-30.127a7.028,7.028,0,0,1,4.065,1.16,7.638,7.638,0,0,1,2.612,3.076,9.643,9.643,0,0,1,.916,4.211v3.638a9.613,9.613,0,0,1-.867,4.028,7.589,7.589,0,0,1-2.551,3.1,6.985,6.985,0,0,1-4.15,1.2,7.271,7.271,0,0,1-6.677-4.1,10.159,10.159,0,0,1-1.013-4.687v-2.734a10.54,10.54,0,0,1,1.025-4.871,7.15,7.15,0,0,1,2.771-3A7.568,7.568,0,0,1,403.54,164.538Zm36.182-2.344a10.954,10.954,0,0,0-5.359,1.306,9.453,9.453,0,0,0-3.76,3.784,12.261,12.261,0,0,0-1.379,6.042v4a12.3,12.3,0,0,0,1.379,6.079,9.31,9.31,0,0,0,3.76,3.748,11.121,11.121,0,0,0,5.359,1.282,11,11,0,0,0,5.322-1.282,9.49,9.49,0,0,0,3.772-3.748,12.125,12.125,0,0,0,1.4-6.079v-4a12.211,12.211,0,0,0-1.4-6.079,9.428,9.428,0,0,0-3.784-3.772A11.019,11.019,0,0,0,439.722,162.194Zm0,2.344a7.742,7.742,0,0,1,4.077,1.074,7.342,7.342,0,0,1,2.8,3.113,10.958,10.958,0,0,1,1.013,4.919v3.394a11.053,11.053,0,0,1-1,4.932,7.067,7.067,0,0,1-2.771,3.064,7.936,7.936,0,0,1-4.089,1.038,8.025,8.025,0,0,1-4.15-1.05,7.059,7.059,0,0,1-2.771-3.064,11.089,11.089,0,0,1-.989-4.919v-3.394a10.94,10.94,0,0,1,1.013-4.932,7.357,7.357,0,0,1,2.8-3.1A7.742,7.742,0,0,1,439.722,164.538ZM456.494,188h2.612V172.2a8.394,8.394,0,0,1,.928-4.1,6.273,6.273,0,0,1,2.563-2.563,7.715,7.715,0,0,1,3.711-.879,12.658,12.658,0,0,1,1.343.061q.562.061.806.11v-2.466q-.293-.049-.769-.1a10.758,10.758,0,0,0-1.086-.049,8.215,8.215,0,0,0-3.882.818A6.778,6.778,0,0,0,460.352,165a6.666,6.666,0,0,0-1.1,2.173h-.146v-4.565h-2.612Zm24.048,6.665a8.882,8.882,0,0,1-3.625-.659,6,6,0,0,1-2.283-1.66,4,4,0,0,1-.928-2.026H471a6.436,6.436,0,0,0,1.172,3.174,7.671,7.671,0,0,0,3.1,2.527,11.906,11.906,0,0,0,5.176.989,14.05,14.05,0,0,0,4.3-.61A9.007,9.007,0,0,0,488,194.592a7.842,7.842,0,0,0,2.075-2.954,10.625,10.625,0,0,0,.72-4.053V162.609h-2.515v4.517h-.122a7.193,7.193,0,0,0-1.355-2.148,8.311,8.311,0,0,0-2.625-1.965,8.767,8.767,0,0,0-3.955-.818,10.263,10.263,0,0,0-4.919,1.208,9.114,9.114,0,0,0-3.625,3.577,11.454,11.454,0,0,0-1.367,5.811v3.955a11.507,11.507,0,0,0,1.306,5.64,9.154,9.154,0,0,0,3.552,3.638,10.041,10.041,0,0,0,5.029,1.27,9.031,9.031,0,0,0,3.137-.5,8.3,8.3,0,0,0,2.307-1.257,7.8,7.8,0,0,0,1.538-1.587,7.369,7.369,0,0,0,.854-1.514h.146v5.225a6.791,6.791,0,0,1-1.953,5.115A7.857,7.857,0,0,1,480.542,194.665Zm.049-30.127a7.028,7.028,0,0,1,4.065,1.16,7.638,7.638,0,0,1,2.612,3.076,9.643,9.643,0,0,1,.916,4.211v3.638a9.613,9.613,0,0,1-.867,4.028,7.589,7.589,0,0,1-2.551,3.1,6.985,6.985,0,0,1-4.15,1.2,7.271,7.271,0,0,1-6.677-4.1,10.159,10.159,0,0,1-1.013-4.687v-2.734a10.54,10.54,0,0,1,1.025-4.871,7.15,7.15,0,0,1,2.771-3A7.568,7.568,0,0,1,480.591,164.538ZM505,188.439a9.213,9.213,0,0,0,3.845-.72A8.394,8.394,0,0,0,511.4,186a7.547,7.547,0,0,0,1.416-1.9h.146V188H515.5V170.1a7.993,7.993,0,0,0-1.16-4.5,6.851,6.851,0,0,0-3.162-2.576,11.831,11.831,0,0,0-4.565-.83,13.217,13.217,0,0,0-3.613.452,8.367,8.367,0,0,0-2.71,1.282,6.244,6.244,0,0,0-1.758,1.953,6.034,6.034,0,0,0-.757,2.441h2.563a4.424,4.424,0,0,1,.867-1.77,4.978,4.978,0,0,1,1.953-1.44,8.226,8.226,0,0,1,3.333-.574,7.217,7.217,0,0,1,4.614,1.392,5.235,5.235,0,0,1,1.758,4.37v3.247h-7.422q-4.3,0-6.506,2a6.72,6.72,0,0,0-2.209,5.225,7.173,7.173,0,0,0,2.295,5.579A8.545,8.545,0,0,0,505,188.439Zm.513-2.368a6.745,6.745,0,0,1-4.321-1.392,5.221,5.221,0,0,1-.33-7.5q1.428-1.392,4.6-1.392h7.4v3.564a6.184,6.184,0,0,1-1,3.491,6.934,6.934,0,0,1-2.661,2.368A7.935,7.935,0,0,1,505.518,186.071ZM522.29,188H524.9V173.205a10.655,10.655,0,0,1,.854-4.272,7.4,7.4,0,0,1,2.576-3.186,7.318,7.318,0,0,1,4.309-1.208,6.721,6.721,0,0,1,3.577.891,5.81,5.81,0,0,1,2.222,2.478,8.419,8.419,0,0,1,.769,3.711V188H541.8V170.91q0-4.3-2.429-6.506a8.913,8.913,0,0,0-6.238-2.209,9.374,9.374,0,0,0-4.248.842,7.054,7.054,0,0,0-2.563,2.075,8.311,8.311,0,0,0-1.27,2.4H524.9v-4.907H522.29Zm26.9,0h2.588V162.609h-2.588Zm-.879-33.032a2.126,2.126,0,0,0,2.148,2.148,2.134,2.134,0,0,0,1.575-.623,2.075,2.075,0,0,0,.623-1.526,2.129,2.129,0,0,0-2.2-2.2,2.075,2.075,0,0,0-1.526.623A2.134,2.134,0,0,0,548.315,154.968Zm9.326,14.355a5.529,5.529,0,0,0,1.074,3.577,7,7,0,0,0,2.979,2.075,33.375,33.375,0,0,0,4.346,1.331q1.831.391,3.43.9a6.713,6.713,0,0,1,2.588,1.44,3.408,3.408,0,0,1,.989,2.612,4.2,4.2,0,0,1-.854,2.661,5.364,5.364,0,0,1-2.38,1.685,9.955,9.955,0,0,1-3.577.586,8.777,8.777,0,0,1-3.87-.72,4.831,4.831,0,0,1-2.869-3.967h-2.563a6.136,6.136,0,0,0,1.013,3.381,7.276,7.276,0,0,0,3.064,2.563,11.841,11.841,0,0,0,5.151.989,13.108,13.108,0,0,0,4.8-.842,7.744,7.744,0,0,0,3.43-2.5,6.593,6.593,0,0,0,1.27-4.126,5.376,5.376,0,0,0-1.208-3.748,7.709,7.709,0,0,0-3.21-2.039,35.525,35.525,0,0,0-4.395-1.221q-1.416-.317-2.612-.7a10.125,10.125,0,0,1-2.087-.9,4.019,4.019,0,0,1-1.392-1.318,3.615,3.615,0,0,1-.5-1.965,3.881,3.881,0,0,1,1.782-3.467,7.692,7.692,0,0,1,4.321-1.172,7.551,7.551,0,0,1,3.613.745,5.019,5.019,0,0,1,1.99,1.794,4.156,4.156,0,0,1,.647,2h2.49a6.233,6.233,0,0,0-.928-3.223,6.914,6.914,0,0,0-2.844-2.563,10.536,10.536,0,0,0-4.9-1,11.962,11.962,0,0,0-4.407.781,7.173,7.173,0,0,0-3.186,2.368A6.424,6.424,0,0,0,557.642,169.323Zm30.444,19.116a9.213,9.213,0,0,0,3.845-.72A8.4,8.4,0,0,0,594.482,186a7.547,7.547,0,0,0,1.416-1.9h.146V188h2.539V170.1a7.993,7.993,0,0,0-1.16-4.5,6.851,6.851,0,0,0-3.162-2.576,11.832,11.832,0,0,0-4.565-.83,13.217,13.217,0,0,0-3.613.452,8.367,8.367,0,0,0-2.71,1.282,6.243,6.243,0,0,0-1.758,1.953,6.034,6.034,0,0,0-.757,2.441h2.563a4.424,4.424,0,0,1,.867-1.77,4.978,4.978,0,0,1,1.953-1.44,8.226,8.226,0,0,1,3.333-.574,7.217,7.217,0,0,1,4.614,1.392,5.235,5.235,0,0,1,1.758,4.37v3.247h-7.422q-4.3,0-6.506,2a6.72,6.72,0,0,0-2.209,5.225,7.173,7.173,0,0,0,2.295,5.579A8.545,8.545,0,0,0,588.086,188.439Zm.513-2.368a6.745,6.745,0,0,1-4.321-1.392,5.221,5.221,0,0,1-.33-7.5q1.428-1.392,4.6-1.392h7.4v3.564a6.184,6.184,0,0,1-1,3.491,6.934,6.934,0,0,1-2.661,2.368A7.935,7.935,0,0,1,588.6,186.071Zm18.164-23.462h-4.541v2.222h4.541v16.895a10.648,10.648,0,0,0,.549,3.735,3.726,3.726,0,0,0,1.99,2.112,9.982,9.982,0,0,0,4.1.671q.586,0,1.55-.073t1.355-.122V185.8q-.366.024-1.147.085t-1.27.061a5.482,5.482,0,0,1-3.552-.867q-.989-.867-.989-3.259V164.831h6.567v-2.222h-6.567v-6.25h-2.588ZM621.021,188h2.588V162.609h-2.588Zm-.879-33.032a2.126,2.126,0,0,0,2.148,2.148,2.134,2.134,0,0,0,1.575-.623,2.075,2.075,0,0,0,.623-1.526,2.129,2.129,0,0,0-2.2-2.2,2.075,2.075,0,0,0-1.526.623A2.134,2.134,0,0,0,620.142,154.968Zm19.7,7.227a10.954,10.954,0,0,0-5.359,1.306,9.454,9.454,0,0,0-3.76,3.784,12.261,12.261,0,0,0-1.379,6.042v4a12.3,12.3,0,0,0,1.379,6.079,9.31,9.31,0,0,0,3.76,3.748,11.121,11.121,0,0,0,5.359,1.282,11,11,0,0,0,5.322-1.282,9.49,9.49,0,0,0,3.772-3.748,12.126,12.126,0,0,0,1.4-6.079v-4a12.211,12.211,0,0,0-1.4-6.079,9.428,9.428,0,0,0-3.784-3.772A11.019,11.019,0,0,0,639.844,162.194Zm0,2.344a7.742,7.742,0,0,1,4.077,1.074,7.342,7.342,0,0,1,2.8,3.113,10.957,10.957,0,0,1,1.013,4.919v3.394a11.053,11.053,0,0,1-1,4.932,7.067,7.067,0,0,1-2.771,3.064,7.936,7.936,0,0,1-4.089,1.038,8.025,8.025,0,0,1-4.15-1.05,7.059,7.059,0,0,1-2.771-3.064,11.089,11.089,0,0,1-.989-4.919v-3.394a10.94,10.94,0,0,1,1.013-4.932,7.357,7.357,0,0,1,2.8-3.1A7.742,7.742,0,0,1,639.844,164.538ZM656.4,188h2.612V173.205a10.655,10.655,0,0,1,.854-4.272,7.4,7.4,0,0,1,2.576-3.186,7.318,7.318,0,0,1,4.309-1.208,6.721,6.721,0,0,1,3.577.891,5.81,5.81,0,0,1,2.222,2.478,8.419,8.419,0,0,1,.769,3.711V188H675.9V170.91q0-4.3-2.429-6.506a8.913,8.913,0,0,0-6.238-2.209,9.374,9.374,0,0,0-4.248.842,7.054,7.054,0,0,0-2.563,2.075,8.311,8.311,0,0,0-1.27,2.4h-.146v-4.907H656.4Zm33.081.439a9.213,9.213,0,0,0,3.845-.72A8.4,8.4,0,0,0,695.874,186a7.547,7.547,0,0,0,1.416-1.9h.146V188h2.539V170.1a7.993,7.993,0,0,0-1.16-4.5,6.851,6.851,0,0,0-3.162-2.576,11.832,11.832,0,0,0-4.565-.83,13.217,13.217,0,0,0-3.613.452,8.367,8.367,0,0,0-2.71,1.282,6.243,6.243,0,0,0-1.758,1.953,6.034,6.034,0,0,0-.757,2.441h2.563a4.424,4.424,0,0,1,.867-1.77,4.978,4.978,0,0,1,1.953-1.44,8.226,8.226,0,0,1,3.333-.574,7.217,7.217,0,0,1,4.614,1.392,5.235,5.235,0,0,1,1.758,4.37v3.247h-7.422q-4.3,0-6.506,2a6.72,6.72,0,0,0-2.209,5.225,7.173,7.173,0,0,0,2.295,5.579A8.545,8.545,0,0,0,689.478,188.439Zm.513-2.368a6.745,6.745,0,0,1-4.321-1.392,5.221,5.221,0,0,1-.33-7.5q1.428-1.392,4.6-1.392h7.4v3.564a6.184,6.184,0,0,1-1,3.491,6.934,6.934,0,0,1-2.661,2.368A7.935,7.935,0,0,1,689.99,186.071ZM707.08,188h2.612V152.941H707.08ZM13.745,258.439a11.39,11.39,0,0,0,4.016-.647,9.123,9.123,0,0,0,2.856-1.648A7.92,7.92,0,0,0,22.375,254a6.111,6.111,0,0,0,.745-2.148H20.386a4.3,4.3,0,0,1-.964,1.953,5.988,5.988,0,0,1-2.209,1.624,8.317,8.317,0,0,1-3.467.647,7.047,7.047,0,0,1-5.688-2.393,9.686,9.686,0,0,1-2.026-6.47v-1.416H23.486v-2.075a13.946,13.946,0,0,0-1.282-6.262,9.178,9.178,0,0,0-3.54-3.918,10,10,0,0,0-5.212-1.343,10,10,0,0,0-5.212,1.343,9.178,9.178,0,0,0-3.54,3.918,13.946,13.946,0,0,0-1.282,6.262v3.394a13.738,13.738,0,0,0,1.233,6.055,8.975,8.975,0,0,0,3.54,3.906A10.706,10.706,0,0,0,13.745,258.439ZM6.03,243.693V243.4a11.157,11.157,0,0,1,.928-4.749,6.787,6.787,0,0,1,6.494-4.114,7.107,7.107,0,0,1,3.894,1.062,7.019,7.019,0,0,1,2.6,3.052,11.157,11.157,0,0,1,.928,4.749v.293ZM29.443,258h2.612V243.205a10.655,10.655,0,0,1,.854-4.272,7.4,7.4,0,0,1,2.576-3.186,7.318,7.318,0,0,1,4.309-1.208,6.721,6.721,0,0,1,3.577.891,5.81,5.81,0,0,1,2.222,2.478,8.419,8.419,0,0,1,.769,3.711V258H48.95V240.91q0-4.3-2.429-6.506a8.913,8.913,0,0,0-6.238-2.209,9.374,9.374,0,0,0-4.248.842,7.054,7.054,0,0,0-2.563,2.075,8.311,8.311,0,0,0-1.27,2.4h-.146v-4.907H29.443ZM64.6,264.665a8.882,8.882,0,0,1-3.625-.659,6,6,0,0,1-2.283-1.66,4,4,0,0,1-.928-2.026h-2.71a6.436,6.436,0,0,0,1.172,3.174,7.671,7.671,0,0,0,3.1,2.527,11.906,11.906,0,0,0,5.176.989,14.05,14.05,0,0,0,4.3-.61,9.007,9.007,0,0,0,3.259-1.807,7.842,7.842,0,0,0,2.075-2.954,10.625,10.625,0,0,0,.72-4.053V232.609H72.339v4.517h-.122a7.193,7.193,0,0,0-1.355-2.148,8.311,8.311,0,0,0-2.625-1.965,8.767,8.767,0,0,0-3.955-.818,10.263,10.263,0,0,0-4.919,1.208,9.114,9.114,0,0,0-3.625,3.577,11.454,11.454,0,0,0-1.367,5.811v3.955a11.506,11.506,0,0,0,1.306,5.64,9.154,9.154,0,0,0,3.552,3.638,10.041,10.041,0,0,0,5.029,1.27,9.031,9.031,0,0,0,3.137-.5,8.3,8.3,0,0,0,2.307-1.257,7.8,7.8,0,0,0,1.538-1.587,7.369,7.369,0,0,0,.854-1.514h.146v5.225a6.791,6.791,0,0,1-1.953,5.115A7.857,7.857,0,0,1,64.6,264.665Zm.049-30.127a7.028,7.028,0,0,1,4.065,1.16,7.638,7.638,0,0,1,2.612,3.076,9.643,9.643,0,0,1,.916,4.211v3.638a9.612,9.612,0,0,1-.867,4.028,7.59,7.59,0,0,1-2.551,3.1,6.985,6.985,0,0,1-4.15,1.2,7.271,7.271,0,0,1-6.677-4.1,10.159,10.159,0,0,1-1.013-4.687v-2.734a10.54,10.54,0,0,1,1.025-4.871,7.15,7.15,0,0,1,2.771-3A7.568,7.568,0,0,1,64.648,234.538Zm24.414,23.9a9.214,9.214,0,0,0,3.845-.72A8.394,8.394,0,0,0,95.459,256a7.548,7.548,0,0,0,1.416-1.9h.146V258h2.539V240.1a7.994,7.994,0,0,0-1.16-4.5,6.851,6.851,0,0,0-3.162-2.576,11.832,11.832,0,0,0-4.565-.83,13.217,13.217,0,0,0-3.613.452,8.367,8.367,0,0,0-2.71,1.282,6.244,6.244,0,0,0-1.758,1.953,6.034,6.034,0,0,0-.757,2.441H84.4a4.424,4.424,0,0,1,.867-1.77,4.978,4.978,0,0,1,1.953-1.44,8.226,8.226,0,0,1,3.333-.574,7.217,7.217,0,0,1,4.614,1.392,5.235,5.235,0,0,1,1.758,4.37v3.247H89.5q-4.3,0-6.506,2a6.72,6.72,0,0,0-2.209,5.225,7.173,7.173,0,0,0,2.295,5.579A8.545,8.545,0,0,0,89.063,258.439Zm.513-2.368a6.745,6.745,0,0,1-4.321-1.392,5.221,5.221,0,0,1-.33-7.5q1.428-1.392,4.6-1.392h7.4v3.564a6.183,6.183,0,0,1-1,3.491,6.934,6.934,0,0,1-2.661,2.368A7.935,7.935,0,0,1,89.575,256.071Zm25.61,8.594a8.882,8.882,0,0,1-3.625-.659,6,6,0,0,1-2.283-1.66,4,4,0,0,1-.928-2.026h-2.71a6.436,6.436,0,0,0,1.172,3.174,7.671,7.671,0,0,0,3.1,2.527,11.906,11.906,0,0,0,5.176.989,14.05,14.05,0,0,0,4.3-.61,9.007,9.007,0,0,0,3.259-1.807,7.842,7.842,0,0,0,2.075-2.954,10.625,10.625,0,0,0,.72-4.053V232.609h-2.515v4.517H122.8a7.193,7.193,0,0,0-1.355-2.148,8.311,8.311,0,0,0-2.625-1.965,8.767,8.767,0,0,0-3.955-.818,10.263,10.263,0,0,0-4.919,1.208,9.114,9.114,0,0,0-3.625,3.577,11.454,11.454,0,0,0-1.367,5.811v3.955a11.507,11.507,0,0,0,1.306,5.64,9.154,9.154,0,0,0,3.552,3.638,10.041,10.041,0,0,0,5.029,1.27,9.031,9.031,0,0,0,3.137-.5,8.3,8.3,0,0,0,2.307-1.257,7.8,7.8,0,0,0,1.538-1.587,7.369,7.369,0,0,0,.854-1.514h.146v5.225a6.791,6.791,0,0,1-1.953,5.115A7.857,7.857,0,0,1,115.186,264.665Zm.049-30.127a7.028,7.028,0,0,1,4.065,1.16,7.638,7.638,0,0,1,2.612,3.076,9.643,9.643,0,0,1,.916,4.211v3.638a9.612,9.612,0,0,1-.867,4.028,7.59,7.59,0,0,1-2.551,3.1,6.985,6.985,0,0,1-4.15,1.2,7.271,7.271,0,0,1-6.677-4.1,10.159,10.159,0,0,1-1.013-4.687v-2.734a10.54,10.54,0,0,1,1.025-4.871,7.15,7.15,0,0,1,2.771-3A7.568,7.568,0,0,1,115.234,234.538Zm26.831,23.9a11.39,11.39,0,0,0,4.016-.647,9.123,9.123,0,0,0,2.856-1.648A7.92,7.92,0,0,0,150.7,254a6.11,6.11,0,0,0,.745-2.148h-2.734a4.3,4.3,0,0,1-.964,1.953,5.988,5.988,0,0,1-2.209,1.624,8.317,8.317,0,0,1-3.467.647,7.047,7.047,0,0,1-5.688-2.393,9.686,9.686,0,0,1-2.026-6.47v-1.416h17.456v-2.075a13.946,13.946,0,0,0-1.282-6.262,9.178,9.178,0,0,0-3.54-3.918,10.788,10.788,0,0,0-10.425,0,9.178,9.178,0,0,0-3.54,3.918,13.946,13.946,0,0,0-1.282,6.262v3.394a13.738,13.738,0,0,0,1.233,6.055,8.975,8.975,0,0,0,3.54,3.906A10.706,10.706,0,0,0,142.065,258.439Zm-7.715-14.746V243.4a11.157,11.157,0,0,1,.928-4.749,7.112,7.112,0,0,1,12.988,0,11.157,11.157,0,0,1,.928,4.749v.293ZM157.764,258h2.612V241.716a8.364,8.364,0,0,1,.769-3.625,6.065,6.065,0,0,1,5.75-3.552,6.516,6.516,0,0,1,3.32.806,5.349,5.349,0,0,1,2.136,2.295,7.833,7.833,0,0,1,.745,3.54V258h2.612V241.5a7.567,7.567,0,0,1,.793-3.455,6.445,6.445,0,0,1,2.271-2.539,6.309,6.309,0,0,1,3.528-.964,6.674,6.674,0,0,1,3.259.757,5.114,5.114,0,0,1,2.124,2.209,7.661,7.661,0,0,1,.745,3.528V258h2.612V240.349q0-4.028-2.295-6.091a8.607,8.607,0,0,0-5.981-2.063,8.429,8.429,0,0,0-3.918.83,7.376,7.376,0,0,0-2.515,2.026,8.016,8.016,0,0,0-1.282,2.295H174.9a6.72,6.72,0,0,0-3.723-4.443,8.448,8.448,0,0,0-3.625-.708,7.9,7.9,0,0,0-3.8.793,6.306,6.306,0,0,0-2.209,1.88,7.034,7.034,0,0,0-1.025,2.014h-.146v-4.272h-2.612Zm49.365.439a11.39,11.39,0,0,0,4.016-.647A9.123,9.123,0,0,0,214,256.145,7.92,7.92,0,0,0,215.759,254a6.11,6.11,0,0,0,.745-2.148H213.77a4.3,4.3,0,0,1-.964,1.953,5.988,5.988,0,0,1-2.209,1.624,8.317,8.317,0,0,1-3.467.647,7.047,7.047,0,0,1-5.688-2.393,9.686,9.686,0,0,1-2.026-6.47v-1.416H216.87v-2.075a13.946,13.946,0,0,0-1.282-6.262,9.178,9.178,0,0,0-3.54-3.918,10.788,10.788,0,0,0-10.425,0,9.178,9.178,0,0,0-3.54,3.918,13.946,13.946,0,0,0-1.282,6.262v3.394a13.738,13.738,0,0,0,1.233,6.055,8.975,8.975,0,0,0,3.54,3.906A10.706,10.706,0,0,0,207.129,258.439Zm-7.715-14.746V243.4a11.157,11.157,0,0,1,.928-4.749,7.112,7.112,0,0,1,12.988,0,11.157,11.157,0,0,1,.928,4.749v.293ZM222.827,258h2.612V243.205a10.655,10.655,0,0,1,.854-4.272,7.4,7.4,0,0,1,2.576-3.186,7.318,7.318,0,0,1,4.309-1.208,6.721,6.721,0,0,1,3.577.891,5.81,5.81,0,0,1,2.222,2.478,8.419,8.419,0,0,1,.769,3.711V258h2.588V240.91q0-4.3-2.429-6.506a8.913,8.913,0,0,0-6.238-2.209,9.374,9.374,0,0,0-4.248.842,7.054,7.054,0,0,0-2.563,2.075,8.311,8.311,0,0,0-1.27,2.4h-.146v-4.907h-2.612Zm27.71-25.391H246v2.222h4.541v16.895a10.648,10.648,0,0,0,.549,3.735,3.726,3.726,0,0,0,1.99,2.112,9.982,9.982,0,0,0,4.1.671q.586,0,1.55-.073t1.355-.122V255.8q-.366.024-1.147.085t-1.27.061a5.482,5.482,0,0,1-3.552-.867q-.989-.867-.989-3.259V234.831h6.567v-2.222h-6.567v-6.25h-2.588Zm14.4,34.058,2.954-12.744h-3.125l-2.246,12.744ZM282.056,258h2.612V242.2a8.394,8.394,0,0,1,.928-4.1,6.273,6.273,0,0,1,2.563-2.563,7.715,7.715,0,0,1,3.711-.879,12.658,12.658,0,0,1,1.343.061q.562.061.806.11v-2.466q-.293-.049-.769-.1a10.758,10.758,0,0,0-1.086-.049,8.215,8.215,0,0,0-3.882.818A6.778,6.778,0,0,0,285.913,235a6.666,6.666,0,0,0-1.1,2.173h-.146v-4.565h-2.612Zm24.39.439a11.39,11.39,0,0,0,4.016-.647,9.123,9.123,0,0,0,2.856-1.648A7.92,7.92,0,0,0,315.076,254a6.111,6.111,0,0,0,.745-2.148h-2.734a4.3,4.3,0,0,1-.964,1.953,5.988,5.988,0,0,1-2.209,1.624,8.317,8.317,0,0,1-3.467.647,7.047,7.047,0,0,1-5.688-2.393,9.686,9.686,0,0,1-2.026-6.47v-1.416h17.456v-2.075a13.946,13.946,0,0,0-1.282-6.262,9.178,9.178,0,0,0-3.54-3.918,10.788,10.788,0,0,0-10.425,0,9.178,9.178,0,0,0-3.54,3.918,13.946,13.946,0,0,0-1.282,6.262v3.394a13.738,13.738,0,0,0,1.233,6.055,8.975,8.975,0,0,0,3.54,3.906A10.706,10.706,0,0,0,306.445,258.439Zm-7.715-14.746V243.4a11.157,11.157,0,0,1,.928-4.749,7.112,7.112,0,0,1,12.988,0,11.157,11.157,0,0,1,.928,4.749v.293Zm31.982-11.5a9.991,9.991,0,0,0-4.932,1.233,9.071,9.071,0,0,0-3.54,3.577,11.548,11.548,0,0,0-1.318,5.737v5.151a11.9,11.9,0,0,0,1.233,5.566,8.932,8.932,0,0,0,3.43,3.662,9.771,9.771,0,0,0,5.054,1.294,9.508,9.508,0,0,0,3.247-.513,9.123,9.123,0,0,0,2.441-1.294,7.486,7.486,0,0,0,1.636-1.66,5.228,5.228,0,0,0,.806-1.636h.146V258h2.49V222.941h-2.588V237.1h-.146a7.2,7.2,0,0,0-1.416-2.283,7.733,7.733,0,0,0-2.625-1.88A9.352,9.352,0,0,0,330.713,232.194Zm.269,2.344a7.434,7.434,0,0,1,6.848,4.089,9.059,9.059,0,0,1,.989,4.26v4.59a9.943,9.943,0,0,1-.928,4.321,7.575,7.575,0,0,1-2.661,3.113,7.963,7.963,0,0,1-8.069.122,7.046,7.046,0,0,1-2.661-3.015,10.835,10.835,0,0,1-.964-4.785V243.4a10.8,10.8,0,0,1,1-4.907,6.979,6.979,0,0,1,2.686-2.966A7.289,7.289,0,0,1,330.981,234.538Zm36.987-1.929h-2.612v15.625a8.153,8.153,0,0,1-.928,3.8,7.573,7.573,0,0,1-2.661,2.917,8.229,8.229,0,0,1-7.544.391,5.335,5.335,0,0,1-2.295-2.2,7.289,7.289,0,0,1-.83-3.638V232.609h-2.612v17.48a8.849,8.849,0,0,0,1.147,4.761,6.955,6.955,0,0,0,3.1,2.71,10.657,10.657,0,0,0,4.419.879,9.046,9.046,0,0,0,4.028-.818,7.979,7.979,0,0,0,2.649-2,7.43,7.43,0,0,0,1.379-2.332h.146V258h2.612Zm5.811,14.771a13.045,13.045,0,0,0,1.257,5.981,8.872,8.872,0,0,0,3.54,3.772,10.657,10.657,0,0,0,5.383,1.306,11.138,11.138,0,0,0,5.322-1.111,7.818,7.818,0,0,0,3.064-2.783,7.231,7.231,0,0,0,1.111-3.333h-2.563a6.571,6.571,0,0,1-.977,2.283,5.371,5.371,0,0,1-2.148,1.819,8.394,8.394,0,0,1-3.735.708,7.175,7.175,0,0,1-5.6-2.283,9.3,9.3,0,0,1-2.063-6.458v-3.931a9.417,9.417,0,0,1,2.039-6.47,7.022,7.022,0,0,1,5.53-2.295,7.61,7.61,0,0,1,3.735.806,5.838,5.838,0,0,1,2.185,2.014,6.631,6.631,0,0,1,.94,2.38h2.563a7.287,7.287,0,0,0-1.147-3.552,8.331,8.331,0,0,0-3.137-2.893,11.8,11.8,0,0,0-10.449.146,8.978,8.978,0,0,0-3.564,3.735,12.514,12.514,0,0,0-1.282,5.884Zm26,10.62h2.588V232.609H399.78Zm-.879-33.032a2.126,2.126,0,0,0,2.148,2.148,2.134,2.134,0,0,0,1.575-.623,2.075,2.075,0,0,0,.623-1.526,2.129,2.129,0,0,0-2.2-2.2,2.075,2.075,0,0,0-1.526.623A2.134,2.134,0,0,0,398.9,224.968ZM409.277,258h2.612V243.205a10.655,10.655,0,0,1,.854-4.272,7.4,7.4,0,0,1,2.576-3.186,7.318,7.318,0,0,1,4.309-1.208,6.721,6.721,0,0,1,3.577.891,5.811,5.811,0,0,1,2.222,2.478,8.419,8.419,0,0,1,.769,3.711V258h2.588V240.91q0-4.3-2.429-6.506a8.913,8.913,0,0,0-6.238-2.209,9.374,9.374,0,0,0-4.248.842,7.054,7.054,0,0,0-2.563,2.075,8.311,8.311,0,0,0-1.27,2.4h-.146v-4.907h-2.612Zm35.156,6.665a8.882,8.882,0,0,1-3.625-.659,6,6,0,0,1-2.283-1.66,4,4,0,0,1-.928-2.026h-2.71a6.436,6.436,0,0,0,1.172,3.174,7.671,7.671,0,0,0,3.1,2.527,11.906,11.906,0,0,0,5.176.989,14.05,14.05,0,0,0,4.3-.61,9.007,9.007,0,0,0,3.259-1.807,7.841,7.841,0,0,0,2.075-2.954,10.625,10.625,0,0,0,.72-4.053V232.609h-2.515v4.517h-.122a7.193,7.193,0,0,0-1.355-2.148,8.311,8.311,0,0,0-2.625-1.965,8.767,8.767,0,0,0-3.955-.818A10.263,10.263,0,0,0,439.2,233.4a9.114,9.114,0,0,0-3.625,3.577,11.454,11.454,0,0,0-1.367,5.811v3.955a11.507,11.507,0,0,0,1.306,5.64,9.154,9.154,0,0,0,3.552,3.638,10.041,10.041,0,0,0,5.029,1.27,9.031,9.031,0,0,0,3.137-.5,8.3,8.3,0,0,0,2.307-1.257,7.8,7.8,0,0,0,1.538-1.587,7.369,7.369,0,0,0,.854-1.514h.146v5.225a6.791,6.791,0,0,1-1.953,5.115A7.857,7.857,0,0,1,444.434,264.665Zm.049-30.127a7.028,7.028,0,0,1,4.065,1.16,7.638,7.638,0,0,1,2.612,3.076,9.643,9.643,0,0,1,.916,4.211v3.638a9.613,9.613,0,0,1-.867,4.028,7.589,7.589,0,0,1-2.551,3.1,6.985,6.985,0,0,1-4.15,1.2,7.271,7.271,0,0,1-6.677-4.1,10.159,10.159,0,0,1-1.013-4.687v-2.734a10.54,10.54,0,0,1,1.025-4.871,7.15,7.15,0,0,1,2.771-3A7.568,7.568,0,0,1,444.482,234.538ZM471.558,258h2.612V242.2a8.394,8.394,0,0,1,.928-4.1,6.273,6.273,0,0,1,2.563-2.563,7.715,7.715,0,0,1,3.711-.879,12.658,12.658,0,0,1,1.343.061q.562.061.806.11v-2.466q-.293-.049-.769-.1a10.758,10.758,0,0,0-1.086-.049,8.215,8.215,0,0,0-3.882.818A6.778,6.778,0,0,0,475.415,235a6.666,6.666,0,0,0-1.1,2.173h-.146v-4.565h-2.612Zm16.284,0h2.588V232.609h-2.588Zm-.879-33.032a2.126,2.126,0,0,0,2.148,2.148,2.134,2.134,0,0,0,1.575-.623,2.075,2.075,0,0,0,.623-1.526,2.129,2.129,0,0,0-2.2-2.2,2.075,2.075,0,0,0-1.526.623A2.134,2.134,0,0,0,486.963,224.968Zm9.326,14.355a5.529,5.529,0,0,0,1.074,3.577,7,7,0,0,0,2.979,2.075,33.377,33.377,0,0,0,4.346,1.331q1.831.391,3.43.9a6.713,6.713,0,0,1,2.588,1.44,3.408,3.408,0,0,1,.989,2.612,4.2,4.2,0,0,1-.854,2.661,5.365,5.365,0,0,1-2.38,1.685,9.955,9.955,0,0,1-3.577.586,8.776,8.776,0,0,1-3.87-.72,4.831,4.831,0,0,1-2.869-3.967h-2.563a6.136,6.136,0,0,0,1.013,3.381,7.276,7.276,0,0,0,3.064,2.563,11.841,11.841,0,0,0,5.151.989,13.108,13.108,0,0,0,4.8-.842,7.744,7.744,0,0,0,3.43-2.5,6.593,6.593,0,0,0,1.27-4.126,5.376,5.376,0,0,0-1.208-3.748,7.709,7.709,0,0,0-3.21-2.039,35.522,35.522,0,0,0-4.395-1.221q-1.416-.317-2.612-.7a10.127,10.127,0,0,1-2.087-.9,4.018,4.018,0,0,1-1.392-1.318,3.616,3.616,0,0,1-.5-1.965,3.881,3.881,0,0,1,1.782-3.467A7.691,7.691,0,0,1,505,234.44a7.551,7.551,0,0,1,3.613.745,5.019,5.019,0,0,1,1.99,1.794,4.155,4.155,0,0,1,.647,2h2.49a6.233,6.233,0,0,0-.928-3.223,6.914,6.914,0,0,0-2.844-2.563,10.536,10.536,0,0,0-4.9-1,11.962,11.962,0,0,0-4.407.781,7.173,7.173,0,0,0-3.186,2.368A6.424,6.424,0,0,0,496.289,239.323Zm26.367,8.594,3.149-2.954L535.889,258h3.2l-11.353-14.722L538.4,232.609h-3.174l-12.451,12.3h-.122V222.941h-2.588V258h2.588Zm36.084,10.522a9.214,9.214,0,0,0,3.845-.72A8.394,8.394,0,0,0,565.137,256a7.547,7.547,0,0,0,1.416-1.9h.146V258h2.539V240.1a7.993,7.993,0,0,0-1.16-4.5,6.851,6.851,0,0,0-3.162-2.576,11.832,11.832,0,0,0-4.565-.83,13.217,13.217,0,0,0-3.613.452,8.367,8.367,0,0,0-2.71,1.282,6.243,6.243,0,0,0-1.758,1.953,6.034,6.034,0,0,0-.757,2.441h2.563a4.424,4.424,0,0,1,.867-1.77,4.978,4.978,0,0,1,1.953-1.44,8.226,8.226,0,0,1,3.333-.574,7.217,7.217,0,0,1,4.614,1.392,5.235,5.235,0,0,1,1.758,4.37v3.247H559.18q-4.3,0-6.506,2a6.72,6.72,0,0,0-2.209,5.225,7.173,7.173,0,0,0,2.295,5.579A8.545,8.545,0,0,0,558.74,258.439Zm.513-2.368a6.745,6.745,0,0,1-4.321-1.392,5.221,5.221,0,0,1-.33-7.5q1.428-1.392,4.6-1.392h7.4v3.564a6.184,6.184,0,0,1-1,3.491,6.934,6.934,0,0,1-2.661,2.368A7.935,7.935,0,0,1,559.253,256.071ZM576.025,258h2.612V243.205a10.655,10.655,0,0,1,.854-4.272,7.4,7.4,0,0,1,2.576-3.186,7.318,7.318,0,0,1,4.309-1.208,6.721,6.721,0,0,1,3.577.891,5.81,5.81,0,0,1,2.222,2.478,8.419,8.419,0,0,1,.769,3.711V258h2.588V240.91q0-4.3-2.429-6.506a8.913,8.913,0,0,0-6.238-2.209,9.374,9.374,0,0,0-4.248.842,7.054,7.054,0,0,0-2.563,2.075,8.311,8.311,0,0,0-1.27,2.4h-.146v-4.907h-2.612Zm34.888-25.806a9.991,9.991,0,0,0-4.932,1.233,9.071,9.071,0,0,0-3.54,3.577,11.548,11.548,0,0,0-1.318,5.737v5.151a11.9,11.9,0,0,0,1.233,5.566,8.932,8.932,0,0,0,3.43,3.662,9.771,9.771,0,0,0,5.054,1.294,9.508,9.508,0,0,0,3.247-.513,9.122,9.122,0,0,0,2.441-1.294,7.487,7.487,0,0,0,1.636-1.66,5.227,5.227,0,0,0,.806-1.636h.146V258h2.49V222.941h-2.588V237.1h-.146a7.2,7.2,0,0,0-1.416-2.283,7.733,7.733,0,0,0-2.625-1.88A9.351,9.351,0,0,0,610.913,232.194Zm.269,2.344a7.434,7.434,0,0,1,6.848,4.089,9.059,9.059,0,0,1,.989,4.26v4.59a9.943,9.943,0,0,1-.928,4.321,7.575,7.575,0,0,1-2.661,3.113,7.963,7.963,0,0,1-8.069.122,7.046,7.046,0,0,1-2.661-3.015,10.836,10.836,0,0,1-.964-4.785V243.4a10.8,10.8,0,0,1,1-4.907,6.979,6.979,0,0,1,2.686-2.966A7.289,7.289,0,0,1,611.182,234.538ZM5.151,328H7.739V302.609H5.151Zm-.879-33.032a2.126,2.126,0,0,0,2.148,2.148A2.134,2.134,0,0,0,8,296.494a2.075,2.075,0,0,0,.623-1.526,2.129,2.129,0,0,0-2.2-2.2,2.075,2.075,0,0,0-1.526.623A2.134,2.134,0,0,0,4.272,294.968ZM14.648,328h2.612V313.205a10.655,10.655,0,0,1,.854-4.272,7.4,7.4,0,0,1,2.576-3.186A7.318,7.318,0,0,1,25,304.538a6.721,6.721,0,0,1,3.577.891,5.81,5.81,0,0,1,2.222,2.478,8.419,8.419,0,0,1,.769,3.711V328h2.588V310.91q0-4.3-2.429-6.506a8.913,8.913,0,0,0-6.238-2.209,9.374,9.374,0,0,0-4.248.842,7.054,7.054,0,0,0-2.563,2.075,8.311,8.311,0,0,0-1.27,2.4h-.146v-4.907H14.648Zm25.146-10.62a13.046,13.046,0,0,0,1.257,5.981,8.872,8.872,0,0,0,3.54,3.772,10.657,10.657,0,0,0,5.383,1.306,11.138,11.138,0,0,0,5.322-1.111,7.818,7.818,0,0,0,3.064-2.783,7.231,7.231,0,0,0,1.111-3.333H56.909a6.572,6.572,0,0,1-.977,2.283,5.371,5.371,0,0,1-2.148,1.819,8.394,8.394,0,0,1-3.735.708,7.174,7.174,0,0,1-5.6-2.283,9.3,9.3,0,0,1-2.063-6.458v-3.931a9.417,9.417,0,0,1,2.039-6.47,7.022,7.022,0,0,1,5.53-2.295,7.61,7.61,0,0,1,3.735.806,5.838,5.838,0,0,1,2.185,2.014,6.631,6.631,0,0,1,.94,2.38h2.563a7.287,7.287,0,0,0-1.147-3.552,8.331,8.331,0,0,0-3.137-2.893,10.515,10.515,0,0,0-5.164-1.147,10.533,10.533,0,0,0-5.286,1.294,8.978,8.978,0,0,0-3.564,3.735,12.514,12.514,0,0,0-1.282,5.884ZM65.43,328h2.612V312.2a8.4,8.4,0,0,1,.928-4.1,6.273,6.273,0,0,1,2.563-2.563,7.715,7.715,0,0,1,3.711-.879,12.662,12.662,0,0,1,1.343.061q.562.061.806.11v-2.466q-.293-.049-.769-.1a10.754,10.754,0,0,0-1.086-.049,8.215,8.215,0,0,0-3.882.818A6.778,6.778,0,0,0,69.287,305a6.665,6.665,0,0,0-1.1,2.173h-.146v-4.565H65.43Zm24.39.439a11.39,11.39,0,0,0,4.016-.647,9.123,9.123,0,0,0,2.856-1.648A7.92,7.92,0,0,0,98.45,324a6.111,6.111,0,0,0,.745-2.148H96.46A4.3,4.3,0,0,1,95.5,323.8a5.988,5.988,0,0,1-2.209,1.624,8.317,8.317,0,0,1-3.467.647,7.047,7.047,0,0,1-5.688-2.393,9.686,9.686,0,0,1-2.026-6.47v-1.416H99.561v-2.075a13.946,13.946,0,0,0-1.282-6.262,9.177,9.177,0,0,0-3.54-3.918,10.788,10.788,0,0,0-10.425,0,9.177,9.177,0,0,0-3.54,3.918,13.946,13.946,0,0,0-1.282,6.262v3.394a13.738,13.738,0,0,0,1.233,6.055,8.975,8.975,0,0,0,3.54,3.906A10.706,10.706,0,0,0,89.819,328.439ZM82.1,313.693V313.4a11.157,11.157,0,0,1,.928-4.749,7.112,7.112,0,0,1,12.988,0,11.157,11.157,0,0,1,.928,4.749v.293Zm30.176,14.746a9.214,9.214,0,0,0,3.845-.72A8.394,8.394,0,0,0,118.677,326a7.548,7.548,0,0,0,1.416-1.9h.146V328h2.539V310.1a7.994,7.994,0,0,0-1.16-4.5,6.851,6.851,0,0,0-3.162-2.576,11.832,11.832,0,0,0-4.565-.83,13.216,13.216,0,0,0-3.613.452,8.367,8.367,0,0,0-2.71,1.282,6.244,6.244,0,0,0-1.758,1.953,6.034,6.034,0,0,0-.757,2.441h2.563a4.424,4.424,0,0,1,.867-1.77,4.978,4.978,0,0,1,1.953-1.44,8.226,8.226,0,0,1,3.333-.574,7.217,7.217,0,0,1,4.614,1.392,5.235,5.235,0,0,1,1.758,4.37v3.247H112.72q-4.3,0-6.506,2A6.72,6.72,0,0,0,104,320.773a7.173,7.173,0,0,0,2.295,5.579A8.545,8.545,0,0,0,112.28,328.439Zm.513-2.368a6.745,6.745,0,0,1-4.321-1.392,5.221,5.221,0,0,1-.33-7.5q1.428-1.392,4.6-1.392h7.4v3.564a6.183,6.183,0,0,1-1,3.491,6.934,6.934,0,0,1-2.661,2.368A7.935,7.935,0,0,1,112.793,326.071Zm15.723-16.748a5.529,5.529,0,0,0,1.074,3.577,7,7,0,0,0,2.979,2.075,33.374,33.374,0,0,0,4.346,1.331q1.831.391,3.43.9a6.713,6.713,0,0,1,2.588,1.44,3.408,3.408,0,0,1,.989,2.612,4.2,4.2,0,0,1-.854,2.661,5.364,5.364,0,0,1-2.38,1.685,9.955,9.955,0,0,1-3.577.586,8.777,8.777,0,0,1-3.87-.72,4.831,4.831,0,0,1-2.869-3.967h-2.563a6.136,6.136,0,0,0,1.013,3.381,7.276,7.276,0,0,0,3.064,2.563,11.841,11.841,0,0,0,5.151.989,13.108,13.108,0,0,0,4.8-.842,7.743,7.743,0,0,0,3.43-2.5,6.593,6.593,0,0,0,1.27-4.126,5.376,5.376,0,0,0-1.208-3.748,7.709,7.709,0,0,0-3.21-2.039,35.521,35.521,0,0,0-4.395-1.221q-1.416-.317-2.612-.7a10.126,10.126,0,0,1-2.087-.9,4.019,4.019,0,0,1-1.392-1.318,3.616,3.616,0,0,1-.5-1.965,3.881,3.881,0,0,1,1.782-3.467,7.691,7.691,0,0,1,4.321-1.172,7.551,7.551,0,0,1,3.613.745,5.02,5.02,0,0,1,1.99,1.794,4.155,4.155,0,0,1,.647,2h2.49a6.233,6.233,0,0,0-.928-3.223A6.914,6.914,0,0,0,142.2,303.2a10.536,10.536,0,0,0-4.9-1,11.962,11.962,0,0,0-4.407.781,7.173,7.173,0,0,0-3.186,2.368A6.424,6.424,0,0,0,128.516,309.323ZM152.783,328h2.588V302.609h-2.588Zm-.879-33.032a2.126,2.126,0,0,0,2.148,2.148,2.134,2.134,0,0,0,1.575-.623,2.075,2.075,0,0,0,.623-1.526,2.129,2.129,0,0,0-2.2-2.2,2.075,2.075,0,0,0-1.526.623A2.134,2.134,0,0,0,151.9,294.968ZM162.28,328h2.612V313.205a10.655,10.655,0,0,1,.854-4.272,7.4,7.4,0,0,1,2.576-3.186,7.318,7.318,0,0,1,4.309-1.208,6.721,6.721,0,0,1,3.577.891,5.81,5.81,0,0,1,2.222,2.478,8.419,8.419,0,0,1,.769,3.711V328h2.588V310.91q0-4.3-2.429-6.506a8.913,8.913,0,0,0-6.238-2.209,9.374,9.374,0,0,0-4.248.842,7.054,7.054,0,0,0-2.563,2.075,8.311,8.311,0,0,0-1.27,2.4h-.146v-4.907H162.28Zm35.156,6.665a8.882,8.882,0,0,1-3.625-.659,6,6,0,0,1-2.283-1.66,4,4,0,0,1-.928-2.026h-2.71a6.436,6.436,0,0,0,1.172,3.174,7.671,7.671,0,0,0,3.1,2.527,11.906,11.906,0,0,0,5.176.989,14.05,14.05,0,0,0,4.3-.61,9.007,9.007,0,0,0,3.259-1.807,7.842,7.842,0,0,0,2.075-2.954,10.625,10.625,0,0,0,.72-4.053V302.609h-2.515v4.517h-.122a7.193,7.193,0,0,0-1.355-2.148,8.311,8.311,0,0,0-2.625-1.965,8.767,8.767,0,0,0-3.955-.818A10.263,10.263,0,0,0,192.2,303.4a9.114,9.114,0,0,0-3.625,3.577,11.454,11.454,0,0,0-1.367,5.811v3.955a11.506,11.506,0,0,0,1.306,5.64,9.154,9.154,0,0,0,3.552,3.638,10.041,10.041,0,0,0,5.029,1.27,9.031,9.031,0,0,0,3.137-.5,8.3,8.3,0,0,0,2.307-1.257,7.8,7.8,0,0,0,1.538-1.587,7.368,7.368,0,0,0,.854-1.514h.146v5.225a6.791,6.791,0,0,1-1.953,5.115A7.857,7.857,0,0,1,197.437,334.665Zm.049-30.127a7.029,7.029,0,0,1,4.065,1.16,7.638,7.638,0,0,1,2.612,3.076,9.643,9.643,0,0,1,.916,4.211v3.638a9.612,9.612,0,0,1-.867,4.028,7.589,7.589,0,0,1-2.551,3.1,6.985,6.985,0,0,1-4.15,1.2,7.271,7.271,0,0,1-6.677-4.1,10.159,10.159,0,0,1-1.013-4.687v-2.734a10.54,10.54,0,0,1,1.025-4.871,7.149,7.149,0,0,1,2.771-3A7.569,7.569,0,0,1,197.485,304.538Zm36.035,23.9a11.39,11.39,0,0,0,4.016-.647,9.123,9.123,0,0,0,2.856-1.648A7.92,7.92,0,0,0,242.151,324a6.11,6.11,0,0,0,.745-2.148h-2.734a4.3,4.3,0,0,1-.964,1.953,5.988,5.988,0,0,1-2.209,1.624,8.317,8.317,0,0,1-3.467.647,7.047,7.047,0,0,1-5.688-2.393,9.686,9.686,0,0,1-2.026-6.47v-1.416h17.456v-2.075a13.946,13.946,0,0,0-1.282-6.262,9.177,9.177,0,0,0-3.54-3.918,10.788,10.788,0,0,0-10.425,0,9.177,9.177,0,0,0-3.54,3.918,13.946,13.946,0,0,0-1.282,6.262v3.394a13.738,13.738,0,0,0,1.233,6.055,8.975,8.975,0,0,0,3.54,3.906A10.706,10.706,0,0,0,233.521,328.439Zm-7.715-14.746V313.4a11.157,11.157,0,0,1,.928-4.749,7.112,7.112,0,0,1,12.988,0,11.157,11.157,0,0,1,.928,4.749v.293ZM249.219,328h2.612V313.205a10.655,10.655,0,0,1,.854-4.272,7.4,7.4,0,0,1,2.576-3.186,7.318,7.318,0,0,1,4.309-1.208,6.721,6.721,0,0,1,3.577.891,5.811,5.811,0,0,1,2.222,2.478,8.419,8.419,0,0,1,.769,3.711V328h2.588V310.91q0-4.3-2.429-6.506a8.913,8.913,0,0,0-6.238-2.209,9.374,9.374,0,0,0-4.248.842,7.054,7.054,0,0,0-2.563,2.075,8.311,8.311,0,0,0-1.27,2.4h-.146v-4.907h-2.612Zm27.71-25.391h-4.541v2.222h4.541v16.895a10.648,10.648,0,0,0,.549,3.735,3.726,3.726,0,0,0,1.99,2.112,9.982,9.982,0,0,0,4.1.671q.586,0,1.55-.073t1.355-.122V325.8q-.366.024-1.147.085t-1.27.061a5.482,5.482,0,0,1-3.552-.867q-.989-.867-.989-3.259V304.831h6.567v-2.222h-6.567v-6.25h-2.588Zm22.485,25.83a11.39,11.39,0,0,0,4.016-.647,9.123,9.123,0,0,0,2.856-1.648A7.92,7.92,0,0,0,308.044,324a6.111,6.111,0,0,0,.745-2.148h-2.734a4.3,4.3,0,0,1-.964,1.953,5.988,5.988,0,0,1-2.209,1.624,8.317,8.317,0,0,1-3.467.647,7.047,7.047,0,0,1-5.688-2.393,9.686,9.686,0,0,1-2.026-6.47v-1.416h17.456v-2.075a13.946,13.946,0,0,0-1.282-6.262,9.178,9.178,0,0,0-3.54-3.918,10.788,10.788,0,0,0-10.425,0,9.178,9.178,0,0,0-3.54,3.918,13.946,13.946,0,0,0-1.282,6.262v3.394a13.738,13.738,0,0,0,1.233,6.055,8.974,8.974,0,0,0,3.54,3.906A10.706,10.706,0,0,0,299.414,328.439ZM291.7,313.693V313.4a11.157,11.157,0,0,1,.928-4.749,7.112,7.112,0,0,1,12.988,0,11.157,11.157,0,0,1,.928,4.749v.293ZM315.332,328h2.612V312.2a8.394,8.394,0,0,1,.928-4.1,6.273,6.273,0,0,1,2.563-2.563,7.715,7.715,0,0,1,3.711-.879,12.662,12.662,0,0,1,1.343.061q.562.061.806.11v-2.466q-.293-.049-.769-.1a10.754,10.754,0,0,0-1.086-.049,8.215,8.215,0,0,0-3.882.818A6.778,6.778,0,0,0,319.189,305a6.666,6.666,0,0,0-1.1,2.173h-.146v-4.565h-2.612Zm26.611.439a10.01,10.01,0,0,0,4.98-1.245,8.918,8.918,0,0,0,3.516-3.638,12.18,12.18,0,0,0,1.294-5.859v-4.834a12.317,12.317,0,0,0-1.221-5.664,8.924,8.924,0,0,0-3.406-3.7,10.566,10.566,0,0,0-8.264-.818,8.344,8.344,0,0,0-2.393,1.27,7.836,7.836,0,0,0-1.624,1.672,7.08,7.08,0,0,0-.891,1.648h-.146v-4.663H331.3v33.643h2.588V323.508h.146a7.834,7.834,0,0,0,4.053,4.175A9.009,9.009,0,0,0,341.943,328.439Zm-.269-2.368a7.6,7.6,0,0,1-4.077-1.086,7.416,7.416,0,0,1-2.734-2.991,9.226,9.226,0,0,1-.977-4.272v-4.614a10.032,10.032,0,0,1,.916-4.333,7.179,7.179,0,0,1,6.824-4.236,7.3,7.3,0,0,1,3.906,1.038,6.973,6.973,0,0,1,2.637,3.04,11.308,11.308,0,0,1,.952,4.883v3.589a11.18,11.18,0,0,1-.989,4.993,6.971,6.971,0,0,1-2.673,2.991A7.266,7.266,0,0,1,341.675,326.071ZM357.959,328h2.612V312.2a8.394,8.394,0,0,1,.928-4.1,6.273,6.273,0,0,1,2.563-2.563,7.715,7.715,0,0,1,3.711-.879,12.662,12.662,0,0,1,1.343.061q.562.061.806.11v-2.466q-.293-.049-.769-.1a10.754,10.754,0,0,0-1.086-.049,8.215,8.215,0,0,0-3.882.818A6.778,6.778,0,0,0,361.816,305a6.666,6.666,0,0,0-1.1,2.173h-.146v-4.565h-2.612Zm16.284,0h2.588V302.609h-2.588Zm-.879-33.032a2.126,2.126,0,0,0,2.148,2.148,2.134,2.134,0,0,0,1.575-.623,2.075,2.075,0,0,0,.623-1.526,2.129,2.129,0,0,0-2.2-2.2,2.075,2.075,0,0,0-1.526.623A2.134,2.134,0,0,0,373.364,294.968Zm9.326,14.355a5.529,5.529,0,0,0,1.074,3.577,7,7,0,0,0,2.979,2.075,33.374,33.374,0,0,0,4.346,1.331q1.831.391,3.43.9a6.713,6.713,0,0,1,2.588,1.44,3.408,3.408,0,0,1,.989,2.612,4.2,4.2,0,0,1-.854,2.661,5.365,5.365,0,0,1-2.38,1.685,9.955,9.955,0,0,1-3.577.586,8.777,8.777,0,0,1-3.87-.72,4.831,4.831,0,0,1-2.869-3.967h-2.563A6.136,6.136,0,0,0,383,324.887a7.276,7.276,0,0,0,3.064,2.563,11.841,11.841,0,0,0,5.151.989,13.108,13.108,0,0,0,4.8-.842,7.743,7.743,0,0,0,3.43-2.5,6.593,6.593,0,0,0,1.27-4.126,5.376,5.376,0,0,0-1.208-3.748,7.709,7.709,0,0,0-3.21-2.039,35.519,35.519,0,0,0-4.395-1.221q-1.416-.317-2.612-.7a10.127,10.127,0,0,1-2.087-.9,4.018,4.018,0,0,1-1.392-1.318,3.616,3.616,0,0,1-.5-1.965,3.881,3.881,0,0,1,1.782-3.467,7.691,7.691,0,0,1,4.321-1.172,7.551,7.551,0,0,1,3.613.745,5.019,5.019,0,0,1,1.99,1.794,4.155,4.155,0,0,1,.647,2h2.49a6.233,6.233,0,0,0-.928-3.223,6.914,6.914,0,0,0-2.844-2.563,10.536,10.536,0,0,0-4.9-1,11.962,11.962,0,0,0-4.407.781,7.173,7.173,0,0,0-3.186,2.368A6.424,6.424,0,0,0,382.69,309.323Zm32.739,19.116a11.39,11.39,0,0,0,4.016-.647,9.123,9.123,0,0,0,2.856-1.648A7.92,7.92,0,0,0,424.06,324a6.111,6.111,0,0,0,.745-2.148H422.07a4.3,4.3,0,0,1-.964,1.953,5.988,5.988,0,0,1-2.209,1.624,8.317,8.317,0,0,1-3.467.647,7.047,7.047,0,0,1-5.688-2.393,9.686,9.686,0,0,1-2.026-6.47v-1.416h17.456v-2.075a13.946,13.946,0,0,0-1.282-6.262,9.178,9.178,0,0,0-3.54-3.918,10.788,10.788,0,0,0-10.425,0,9.178,9.178,0,0,0-3.54,3.918,13.946,13.946,0,0,0-1.282,6.262v3.394a13.738,13.738,0,0,0,1.233,6.055,8.974,8.974,0,0,0,3.54,3.906A10.706,10.706,0,0,0,415.43,328.439Zm-7.715-14.746V313.4a11.157,11.157,0,0,1,.928-4.749,7.112,7.112,0,0,1,12.988,0,11.157,11.157,0,0,1,.928,4.749v.293ZM446.436,328h2.637l9.375-25.391h-2.783l-7.837,22.412h-.146l-7.617-22.412h-2.881Zm22.144.439a9.214,9.214,0,0,0,3.845-.72A8.394,8.394,0,0,0,474.976,326a7.549,7.549,0,0,0,1.416-1.9h.146V328h2.539V310.1a7.994,7.994,0,0,0-1.16-4.5,6.851,6.851,0,0,0-3.162-2.576,11.832,11.832,0,0,0-4.565-.83,13.216,13.216,0,0,0-3.613.452,8.367,8.367,0,0,0-2.71,1.282,6.244,6.244,0,0,0-1.758,1.953,6.034,6.034,0,0,0-.757,2.441h2.563a4.424,4.424,0,0,1,.867-1.77,4.978,4.978,0,0,1,1.953-1.44,8.226,8.226,0,0,1,3.333-.574,7.217,7.217,0,0,1,4.614,1.392,5.235,5.235,0,0,1,1.758,4.37v3.247h-7.422q-4.3,0-6.506,2a6.72,6.72,0,0,0-2.209,5.225,7.173,7.173,0,0,0,2.295,5.579A8.545,8.545,0,0,0,468.579,328.439Zm.513-2.368a6.745,6.745,0,0,1-4.321-1.392,5.221,5.221,0,0,1-.33-7.5q1.428-1.392,4.6-1.392h7.4v3.564a6.183,6.183,0,0,1-1,3.491,6.934,6.934,0,0,1-2.661,2.368A7.935,7.935,0,0,1,469.092,326.071ZM486.182,328h2.612V292.941h-2.612Zm29.175-25.391h-2.612v15.625a8.154,8.154,0,0,1-.928,3.8,7.572,7.572,0,0,1-2.661,2.917,8.229,8.229,0,0,1-7.544.391,5.335,5.335,0,0,1-2.295-2.2,7.289,7.289,0,0,1-.83-3.638V302.609h-2.612v17.48a8.849,8.849,0,0,0,1.147,4.761,6.955,6.955,0,0,0,3.1,2.71,10.657,10.657,0,0,0,4.419.879,9.046,9.046,0,0,0,4.028-.818,7.979,7.979,0,0,0,2.649-2,7.43,7.43,0,0,0,1.379-2.332h.146V328h2.612Zm16.162,25.83a11.389,11.389,0,0,0,4.016-.647,9.123,9.123,0,0,0,2.856-1.648A7.92,7.92,0,0,0,540.149,324a6.11,6.11,0,0,0,.745-2.148h-2.734a4.3,4.3,0,0,1-.964,1.953,5.988,5.988,0,0,1-2.209,1.624,8.317,8.317,0,0,1-3.467.647,7.047,7.047,0,0,1-5.688-2.393,9.686,9.686,0,0,1-2.026-6.47v-1.416H541.26v-2.075a13.946,13.946,0,0,0-1.282-6.262,9.177,9.177,0,0,0-3.54-3.918,10.788,10.788,0,0,0-10.425,0,9.177,9.177,0,0,0-3.54,3.918,13.946,13.946,0,0,0-1.282,6.262v3.394a13.738,13.738,0,0,0,1.233,6.055,8.975,8.975,0,0,0,3.54,3.906A10.706,10.706,0,0,0,531.519,328.439ZM523.8,313.693V313.4a11.157,11.157,0,0,1,.928-4.749,7.112,7.112,0,0,1,12.988,0,11.157,11.157,0,0,1,.928,4.749v.293Zm22.778,12.231a2.4,2.4,0,0,0,.708,1.746,2.337,2.337,0,0,0,1.733.72,2.447,2.447,0,0,0,1.782-.72,2.357,2.357,0,0,0,.732-1.746,2.386,2.386,0,0,0-.732-1.77,2.447,2.447,0,0,0-1.782-.72,2.337,2.337,0,0,0-1.733.72A2.428,2.428,0,0,0,546.582,325.925Z" transform="translate(80 63)" fill="#747070"/>
  </g>
</svg>
