<svg xmlns="http://www.w3.org/2000/svg" xmlns:xlink="http://www.w3.org/1999/xlink" width="960" height="600" viewBox="0 0 960 600"><defs><style>.a{clip-path:url(#a);}.b{fill:#eaedf2;}.c{fill:#747070;}</style><clipPath id="a"><rect width="960" height="600"/></clipPath></defs><g class="a"><rect class="b" width="960" height="600"/><path class="c" d="M16.162,15.173H5.029V55.56H7.666V39.311h8.5a10.027,10.027,0,0,0,5.566-1.5A9.672,9.672,0,0,0,25.3,33.6a15.058,15.058,0,0,0,1.245-6.33,15.214,15.214,0,0,0-1.245-6.39,9.672,9.672,0,0,0-3.564-4.211,10.027,10.027,0,0,0-5.57-1.5Zm7.666,12.1a11.927,11.927,0,0,1-.916,4.892,6.889,6.889,0,0,1-2.649,3.129,7.768,7.768,0,0,1-4.2,1.082h-8.4V18.109h8.4a7.065,7.065,0,0,1,5.737,2.4,10.214,10.214,0,0,1,2.028,6.76Zm16.65,28.822a9.58,9.58,0,0,0,4.016-.786,8.9,8.9,0,0,0,2.856-2,9.478,9.478,0,0,0,1.759-2.6,8.529,8.529,0,0,0,.745-2.609H47.119a5.729,5.729,0,0,1-.964,2.372,6.217,6.217,0,0,1-2.209,1.972,7.046,7.046,0,0,1-3.467.786,6.52,6.52,0,0,1-5.688-2.906,13.551,13.551,0,0,1-2.026-7.858V40.734H50.22v-2.52a20.092,20.092,0,0,0-1.282-7.606,10.684,10.684,0,0,0-3.54-4.759,9.142,9.142,0,0,0-10.424,0,10.684,10.684,0,0,0-3.54,4.759,20.092,20.092,0,0,0-1.282,7.606v4.122a19.8,19.8,0,0,0,1.233,7.354,10.438,10.438,0,0,0,3.54,4.744,9.241,9.241,0,0,0,5.554,1.659Zm-7.714-17.91v-.356a16.108,16.108,0,0,1,.928-5.768c1.144-3.112,3.688-5.116,6.494-5.116s5.35,2,6.494,5.116a16.108,16.108,0,0,1,.928,5.768v.356ZM56.4,55.56h2.612V36.37a12.042,12.042,0,0,1,.928-4.98A7.1,7.1,0,0,1,62.5,28.28a6.634,6.634,0,0,1,3.711-1.068,10.442,10.442,0,0,1,1.343.074q.562.074.806.134v-3q-.293-.06-.769-.121a8.871,8.871,0,0,0-1.086-.06,7.012,7.012,0,0,0-3.882.994,7.279,7.279,0,0,0-2.369,2.388,8.861,8.861,0,0,0-1.1,2.639h-.146V24.721H56.4Zm14.035-12.9a18.773,18.773,0,0,0,1.257,7.264,10.22,10.22,0,0,0,3.54,4.581,9.185,9.185,0,0,0,5.383,1.586,9.5,9.5,0,0,0,5.322-1.349A8.614,8.614,0,0,0,89,51.364a10.112,10.112,0,0,0,1.111-4.048H87.549a8.958,8.958,0,0,1-.977,2.773A5.8,5.8,0,0,1,84.424,52.3a7.121,7.121,0,0,1-3.735.86,6.6,6.6,0,0,1-5.6-2.773,12.98,12.98,0,0,1-2.063-7.844V37.769a13.161,13.161,0,0,1,2.039-7.858,6.67,6.67,0,0,1,11.45.638,9.128,9.128,0,0,1,.94,2.891h2.563a10.214,10.214,0,0,0-1.147-4.314,9.218,9.218,0,0,0-3.137-3.514,9.955,9.955,0,0,0-10.449.177,10.3,10.3,0,0,0-3.564,4.536,17.976,17.976,0,0,0-1.282,7.147Zm34.6,13.433a9.58,9.58,0,0,0,4.016-.786,8.9,8.9,0,0,0,2.856-2A9.48,9.48,0,0,0,113.66,50.7a8.53,8.53,0,0,0,.745-2.609H111.67a5.729,5.729,0,0,1-.964,2.372,6.217,6.217,0,0,1-2.209,1.972,7.046,7.046,0,0,1-3.467.786,6.52,6.52,0,0,1-5.688-2.906,13.551,13.551,0,0,1-2.026-7.858V40.734h17.456v-2.52a20.092,20.092,0,0,0-1.282-7.606,10.684,10.684,0,0,0-3.54-4.759,9.145,9.145,0,0,0-10.425,0,10.684,10.684,0,0,0-3.54,4.759A20.09,20.09,0,0,0,94.7,38.214v4.122a19.8,19.8,0,0,0,1.233,7.354,10.438,10.438,0,0,0,3.54,4.744,9.241,9.241,0,0,0,5.556,1.659ZM97.314,38.183v-.356a16.108,16.108,0,0,1,.928-5.768c1.144-3.112,3.688-5.116,6.494-5.116s5.35,2,6.494,5.116a16.108,16.108,0,0,1,.928,5.768v.356ZM131.4,56.094a8.645,8.645,0,0,0,4.98-1.512,10.191,10.191,0,0,0,3.516-4.419,17.482,17.482,0,0,0,1.294-7.116V37.175a17.706,17.706,0,0,0-1.221-6.879,10.336,10.336,0,0,0-3.406-4.494,8.922,8.922,0,0,0-8.264-.994,7.983,7.983,0,0,0-2.393,1.543,8.953,8.953,0,0,0-1.624,2.031,9.314,9.314,0,0,0-.891,2h-.146V24.721h-2.49V65.583h2.588V50.1h.146a8.93,8.93,0,0,0,4.053,5.071,7.652,7.652,0,0,0,3.858.918Zm-.269-2.876a6.6,6.6,0,0,1-4.077-1.319,8.607,8.607,0,0,1-2.734-3.633,13.226,13.226,0,0,1-.977-5.189V37.472a14.439,14.439,0,0,1,.916-5.263c1.2-3.245,3.9-5.28,6.824-5.145a6.341,6.341,0,0,1,3.906,1.261,8.207,8.207,0,0,1,2.637,3.692,16.325,16.325,0,0,1,.952,5.931v4.359a16.127,16.127,0,0,1-.989,6.064A8.139,8.139,0,0,1,134.916,52a6.305,6.305,0,0,1-3.788,1.213Zm17.456-28.5h-4.541v2.7h4.541V47.94a15.509,15.509,0,0,0,.549,4.536,4.281,4.281,0,0,0,1.99,2.565,8.412,8.412,0,0,0,4.1.815q.586,0,1.55-.089t1.355-.148V52.888q-.366.029-1.147.1t-1.27.074a4.748,4.748,0,0,1-3.552-1.053q-.989-1.053-.989-3.958V27.42h6.567v-2.7h-6.567V17.13h-2.588ZM162.842,55.56h2.588V24.721h-2.588Zm-.879-40.12a2.892,2.892,0,0,0,.623,1.853,1.966,1.966,0,0,0,3.1,0,2.821,2.821,0,0,0,.623-1.853,2.906,2.906,0,0,0-.622-1.916,1.946,1.946,0,0,0-1.578-.756,1.906,1.906,0,0,0-1.526.757,2.914,2.914,0,0,0-.62,1.917Zm19.7,8.778A9.44,9.44,0,0,0,176.3,25.8a10.72,10.72,0,0,0-3.76,4.6,17.569,17.569,0,0,0-1.379,7.338V42.6a17.629,17.629,0,0,0,1.379,7.383,10.528,10.528,0,0,0,3.76,4.552,9.57,9.57,0,0,0,5.359,1.557,9.471,9.471,0,0,0,5.322-1.557,10.723,10.723,0,0,0,3.772-4.552,17.364,17.364,0,0,0,1.4-7.383V37.739a17.488,17.488,0,0,0-1.4-7.383,10.662,10.662,0,0,0-3.784-4.581,9.488,9.488,0,0,0-5.308-1.557Zm0,2.847a6.719,6.719,0,0,1,4.077,1.3,8.557,8.557,0,0,1,2.8,3.781,15.784,15.784,0,0,1,1.013,5.974v4.122a15.931,15.931,0,0,1-1,5.99,8.224,8.224,0,0,1-2.771,3.721,6.865,6.865,0,0,1-4.089,1.261,6.94,6.94,0,0,1-4.15-1.275,8.215,8.215,0,0,1-2.771-3.721,15.988,15.988,0,0,1-.989-5.974V38.125a15.758,15.758,0,0,1,1.013-5.99,8.565,8.565,0,0,1,2.8-3.765,6.72,6.72,0,0,1,4.069-1.306Zm16.555,28.5h2.612V37.591a15.377,15.377,0,0,1,.854-5.189,8.874,8.874,0,0,1,2.576-3.87,6.4,6.4,0,0,1,4.309-1.467,5.808,5.808,0,0,1,3.577,1.082,6.778,6.778,0,0,1,2.222,3.01,12.125,12.125,0,0,1,.769,4.507v19.9h2.588V34.8q0-5.223-2.429-7.9a8.86,8.86,0,0,0-10.486-1.66,7.522,7.522,0,0,0-2.563,2.52,10.97,10.97,0,0,0-1.27,2.915h-.146V24.721h-2.612Zm38.867,0V15.173h-2.637V55.56Zm17.6,0V18.109h10.864V15.173H241.211v2.936h10.84V55.56Zm34.79.533a8.645,8.645,0,0,0,4.98-1.512,10.191,10.191,0,0,0,3.516-4.419,17.482,17.482,0,0,0,1.294-7.116V37.175a17.7,17.7,0,0,0-1.221-6.879,10.336,10.336,0,0,0-3.406-4.494,8.922,8.922,0,0,0-8.264-.994,7.983,7.983,0,0,0-2.393,1.543,8.954,8.954,0,0,0-1.624,2.031,9.313,9.313,0,0,0-.891,2h-.146V24.721h-2.49V65.583h2.588V50.1h.146a8.93,8.93,0,0,0,4.053,5.071,7.652,7.652,0,0,0,3.861.918Zm-.269-2.876a6.6,6.6,0,0,1-4.077-1.319,8.607,8.607,0,0,1-2.734-3.633,13.226,13.226,0,0,1-.977-5.189V37.472a14.44,14.44,0,0,1,.916-5.263c1.2-3.245,3.9-5.28,6.824-5.145a6.341,6.341,0,0,1,3.906,1.261,8.207,8.207,0,0,1,2.637,3.692,16.325,16.325,0,0,1,.952,5.931v4.359a16.127,16.127,0,0,1-.989,6.064A8.139,8.139,0,0,1,292.991,52a6.306,6.306,0,0,1-3.782,1.213Zm16.287,2.343h2.612V36.37a12.034,12.034,0,0,1,.928-4.98,7.1,7.1,0,0,1,2.563-3.113,6.634,6.634,0,0,1,3.711-1.068,10.441,10.441,0,0,1,1.343.074q.562.074.806.134V24.425q-.293-.06-.769-.121a8.872,8.872,0,0,0-1.086-.06,7.012,7.012,0,0,0-3.882.994,7.28,7.28,0,0,0-2.368,2.388,8.864,8.864,0,0,0-1.1,2.639h-.146V24.721h-2.612Zm24.536-31.343A9.44,9.44,0,0,0,324.67,25.8a10.719,10.719,0,0,0-3.76,4.6,17.569,17.569,0,0,0-1.379,7.338V42.6a17.63,17.63,0,0,0,1.379,7.383,10.528,10.528,0,0,0,3.76,4.552,9.57,9.57,0,0,0,5.359,1.557,9.471,9.471,0,0,0,5.322-1.557,10.723,10.723,0,0,0,3.772-4.552,17.364,17.364,0,0,0,1.4-7.383V37.738a17.488,17.488,0,0,0-1.4-7.383,10.662,10.662,0,0,0-3.784-4.581,9.488,9.488,0,0,0-5.31-1.556Zm0,2.847a6.719,6.719,0,0,1,4.077,1.3,8.558,8.558,0,0,1,2.8,3.781,15.783,15.783,0,0,1,1.013,5.974v4.122a15.931,15.931,0,0,1-1,5.99,8.224,8.224,0,0,1-2.771,3.721,6.865,6.865,0,0,1-4.089,1.261,6.94,6.94,0,0,1-4.15-1.275,8.214,8.214,0,0,1-2.771-3.721,15.988,15.988,0,0,1-.989-5.974V38.125a15.758,15.758,0,0,1,1.013-5.99,8.565,8.565,0,0,1,2.8-3.765,6.72,6.72,0,0,1,4.067-1.306Zm22.534,28.5H355.2l9.375-30.839h-2.783l-7.837,27.221h-.146l-7.617-27.221h-2.881Zm15.967,0h2.588V24.721H368.53Zm-.879-40.12a2.892,2.892,0,0,0,.623,1.853,1.967,1.967,0,0,0,3.1,0A2.819,2.819,0,0,0,372,15.441a2.906,2.906,0,0,0-.622-1.916,1.946,1.946,0,0,0-1.578-.756,1.906,1.906,0,0,0-1.526.757,2.912,2.912,0,0,0-.623,1.915ZM386.6,24.217a8.627,8.627,0,0,0-4.932,1.5,10.292,10.292,0,0,0-3.543,4.34,16.541,16.541,0,0,0-1.318,6.968v6.256a17.083,17.083,0,0,0,1.233,6.76,10.3,10.3,0,0,0,3.43,4.448,8.458,8.458,0,0,0,5.054,1.572,7.991,7.991,0,0,0,3.247-.623,8.725,8.725,0,0,0,2.441-1.572,8.517,8.517,0,0,0,1.636-2.016,6.982,6.982,0,0,0,.806-1.987h.146v5.7h2.49V12.979H394.7v17.2h-.146a9.212,9.212,0,0,0-1.416-2.773,7.738,7.738,0,0,0-6.538-3.186Zm.269,2.847c2.883-.1,5.552,1.838,6.848,4.966a12.976,12.976,0,0,1,.989,5.174v5.575a14.3,14.3,0,0,1-.928,5.248,8.952,8.952,0,0,1-2.661,3.781,6.772,6.772,0,0,1-8.069.148,8.255,8.255,0,0,1-2.661-3.662,15.62,15.62,0,0,1-.964-5.812V37.828a15.56,15.56,0,0,1,1-5.96,8.119,8.119,0,0,1,2.686-3.6,6.323,6.323,0,0,1,3.756-1.2Zm26.9,29.028a9.58,9.58,0,0,0,4.016-.786,8.9,8.9,0,0,0,2.856-2,9.477,9.477,0,0,0,1.759-2.6,8.531,8.531,0,0,0,.745-2.609H420.41a5.729,5.729,0,0,1-.964,2.372,6.217,6.217,0,0,1-2.209,1.972,7.046,7.046,0,0,1-3.467.786,6.52,6.52,0,0,1-5.688-2.906,13.552,13.552,0,0,1-2.026-7.858V40.734h17.456v-2.52a20.091,20.091,0,0,0-1.282-7.606,10.684,10.684,0,0,0-3.54-4.759,9.145,9.145,0,0,0-10.425,0,10.684,10.684,0,0,0-3.54,4.759,20.092,20.092,0,0,0-1.282,7.606v4.122a19.8,19.8,0,0,0,1.233,7.354,10.437,10.437,0,0,0,3.54,4.744,9.241,9.241,0,0,0,5.554,1.659Zm-7.715-17.91v-.355a16.108,16.108,0,0,1,.928-5.768c1.144-3.112,3.688-5.116,6.494-5.116s5.35,2,6.494,5.116a16.107,16.107,0,0,1,.93,5.768v.356Zm22.363-5.308a7.765,7.765,0,0,0,1.074,4.345,7.165,7.165,0,0,0,2.979,2.52,29.188,29.188,0,0,0,4.346,1.617,31.313,31.313,0,0,1,3.43,1.093,6.5,6.5,0,0,1,2.588,1.749,4.669,4.669,0,0,1,.989,3.172,5.869,5.869,0,0,1-.854,3.232,5.516,5.516,0,0,1-2.38,2.047,8.38,8.38,0,0,1-3.577.712,7.439,7.439,0,0,1-3.87-.874,5.908,5.908,0,0,1-2.869-4.818H427.71a8.64,8.64,0,0,0,1.013,4.106,7.831,7.831,0,0,0,3.064,3.113,10.049,10.049,0,0,0,5.151,1.2,11.064,11.064,0,0,0,4.8-1.023,8.022,8.022,0,0,0,3.43-3.036,9.247,9.247,0,0,0,1.27-5.011,7.5,7.5,0,0,0-1.208-4.552,7.7,7.7,0,0,0-3.21-2.477,30.761,30.761,0,0,0-4.4-1.483,26.128,26.128,0,0,1-2.612-.85,9.3,9.3,0,0,1-2.087-1.093,4.48,4.48,0,0,1-1.392-1.6,5.147,5.147,0,0,1-.5-2.387,5.074,5.074,0,0,1,1.782-4.211,6.7,6.7,0,0,1,4.321-1.423,6.439,6.439,0,0,1,3.613.9,5.518,5.518,0,0,1,1.99,2.179,5.824,5.824,0,0,1,.647,2.429h2.49a8.808,8.808,0,0,0-.928-3.915,7.588,7.588,0,0,0-2.849-3.1,8.976,8.976,0,0,0-4.9-1.215,10.1,10.1,0,0,0-4.407.949,7.472,7.472,0,0,0-3.186,2.876,9.032,9.032,0,0,0-1.189,4.827ZM462.7,24.721h-4.541v2.7H462.7V47.94a15.507,15.507,0,0,0,.549,4.536,4.28,4.28,0,0,0,1.99,2.565,8.412,8.412,0,0,0,4.1.815q.586,0,1.55-.089t1.355-.148V52.888q-.366.029-1.147.1t-1.27.074a4.748,4.748,0,0,1-3.552-1.053q-.989-1.053-.989-3.958V27.42h6.567v-2.7h-6.567V17.13H462.7Zm22.485,31.372a9.58,9.58,0,0,0,4.016-.786,8.9,8.9,0,0,0,2.856-2,9.485,9.485,0,0,0,1.754-2.6,8.531,8.531,0,0,0,.745-2.609h-2.734a5.73,5.73,0,0,1-.964,2.372,6.217,6.217,0,0,1-2.209,1.972,7.046,7.046,0,0,1-3.467.786,6.52,6.52,0,0,1-5.688-2.906,13.551,13.551,0,0,1-2.026-7.858V40.734h17.456v-2.52a20.092,20.092,0,0,0-1.282-7.606,10.684,10.684,0,0,0-3.54-4.759,9.145,9.145,0,0,0-10.425,0,10.684,10.684,0,0,0-3.54,4.759,20.093,20.093,0,0,0-1.282,7.606v4.122a19.8,19.8,0,0,0,1.233,7.354,10.437,10.437,0,0,0,3.54,4.744,9.241,9.241,0,0,0,5.553,1.659Zm-7.715-17.91v-.356a16.107,16.107,0,0,1,.928-5.768c1.144-3.112,3.688-5.116,6.494-5.116s5.35,2,6.494,5.116a16.109,16.109,0,0,1,.928,5.768v.356Zm22.241,4.478a18.77,18.77,0,0,0,1.257,7.264,10.22,10.22,0,0,0,3.54,4.581,9.185,9.185,0,0,0,5.383,1.586,9.5,9.5,0,0,0,5.322-1.349,8.613,8.613,0,0,0,3.064-3.38,10.111,10.111,0,0,0,1.111-4.048h-2.563a8.959,8.959,0,0,1-.977,2.773A5.8,5.8,0,0,1,513.7,52.3a7.122,7.122,0,0,1-3.735.86,6.6,6.6,0,0,1-5.6-2.773,12.98,12.98,0,0,1-2.063-7.844V37.769a13.161,13.161,0,0,1,2.039-7.858,6.67,6.67,0,0,1,11.45.638,9.127,9.127,0,0,1,.94,2.891h2.563a10.214,10.214,0,0,0-1.147-4.314A9.21,9.21,0,0,0,515,25.611a9.955,9.955,0,0,0-10.449.177,10.3,10.3,0,0,0-3.564,4.536,17.977,17.977,0,0,0-1.282,7.147Zm25.509,12.9h2.588V37.591a15.178,15.178,0,0,1,.867-5.189,8.913,8.913,0,0,1,2.6-3.87,6.408,6.408,0,0,1,4.3-1.467,5.93,5.93,0,0,1,3.589,1.082,6.734,6.734,0,0,1,2.271,3.024,12.071,12.071,0,0,1,.781,4.522V55.56h2.612V34.834q0-5.223-2.466-7.918A8.732,8.732,0,0,0,531.89,25.27a7.939,7.939,0,0,0-2.649,2.565,10.314,10.314,0,0,0-1.282,2.847h-.146v-17.7H525.22Zm26.318,0h2.612V37.591A15.38,15.38,0,0,1,555,32.4a8.874,8.874,0,0,1,2.576-3.87,6.4,6.4,0,0,1,4.309-1.467,5.808,5.808,0,0,1,3.577,1.082,6.777,6.777,0,0,1,2.222,3.01,12.125,12.125,0,0,1,.769,4.507v19.9h2.588V34.8q0-5.223-2.429-7.9a8.86,8.86,0,0,0-10.486-1.66,7.523,7.523,0,0,0-2.563,2.52,10.971,10.971,0,0,0-1.27,2.915h-.146V24.721h-2.612Zm35.645-31.343a9.44,9.44,0,0,0-5.359,1.586,10.72,10.72,0,0,0-3.76,4.6,17.569,17.569,0,0,0-1.379,7.338V42.6a17.628,17.628,0,0,0,1.379,7.383,10.528,10.528,0,0,0,3.76,4.552,9.57,9.57,0,0,0,5.359,1.557,9.471,9.471,0,0,0,5.322-1.557,10.722,10.722,0,0,0,3.772-4.552,17.365,17.365,0,0,0,1.4-7.383V37.738a17.489,17.489,0,0,0-1.4-7.383,10.662,10.662,0,0,0-3.784-4.581A9.488,9.488,0,0,0,587.183,24.217Zm0,2.847a6.719,6.719,0,0,1,4.077,1.3,8.558,8.558,0,0,1,2.8,3.781,15.783,15.783,0,0,1,1.013,5.974v4.122a15.931,15.931,0,0,1-1,5.99,8.224,8.224,0,0,1-2.771,3.721,6.865,6.865,0,0,1-4.089,1.261,6.941,6.941,0,0,1-4.15-1.275,8.214,8.214,0,0,1-2.771-3.721,15.987,15.987,0,0,1-.989-5.975V38.125a15.758,15.758,0,0,1,1.013-5.99,8.565,8.565,0,0,1,2.8-3.765,6.72,6.72,0,0,1,4.067-1.306Zm16.87,28.5h2.612V12.979h-2.612Zm19.238-31.343a9.44,9.44,0,0,0-5.359,1.586,10.72,10.72,0,0,0-3.76,4.6,17.569,17.569,0,0,0-1.379,7.338V42.6a17.628,17.628,0,0,0,1.379,7.383,10.528,10.528,0,0,0,3.76,4.552,9.57,9.57,0,0,0,5.359,1.557,9.471,9.471,0,0,0,5.322-1.557,10.723,10.723,0,0,0,3.772-4.552,17.365,17.365,0,0,0,1.4-7.383V37.738a17.489,17.489,0,0,0-1.4-7.383,10.662,10.662,0,0,0-3.784-4.581,9.488,9.488,0,0,0-5.31-1.556Zm0,2.847a6.719,6.719,0,0,1,4.077,1.3,8.558,8.558,0,0,1,2.8,3.781,15.783,15.783,0,0,1,1.013,5.974v4.122a15.93,15.93,0,0,1-1,5.99,8.224,8.224,0,0,1-2.771,3.721,6.865,6.865,0,0,1-4.089,1.261,6.941,6.941,0,0,1-4.15-1.275,8.214,8.214,0,0,1-2.771-3.721,15.989,15.989,0,0,1-.989-5.975V38.125a15.759,15.759,0,0,1,1.013-5.99,8.565,8.565,0,0,1,2.8-3.765,6.72,6.72,0,0,1,4.067-1.306Zm25.391,36.591a7.515,7.515,0,0,1-3.625-.8,6.211,6.211,0,0,1-2.283-2.016,5.386,5.386,0,0,1-.928-2.461h-2.71a8.9,8.9,0,0,0,1.172,3.855,8.2,8.2,0,0,0,3.1,3.069,10.1,10.1,0,0,0,5.176,1.2,11.763,11.763,0,0,0,4.3-.741,8.708,8.708,0,0,0,3.259-2.195,9.748,9.748,0,0,0,2.075-3.588,15.4,15.4,0,0,0,.72-4.923V24.721h-2.515v5.486H656.3a9.17,9.17,0,0,0-1.355-2.609,8.671,8.671,0,0,0-2.625-2.387,7.471,7.471,0,0,0-3.955-.994,8.847,8.847,0,0,0-4.919,1.467,10.278,10.278,0,0,0-3.625,4.345,16.384,16.384,0,0,0-1.367,7.058v4.8a16.476,16.476,0,0,0,1.306,6.85,10.433,10.433,0,0,0,3.552,4.419,8.679,8.679,0,0,0,5.029,1.542,7.593,7.593,0,0,0,3.137-.607,7.986,7.986,0,0,0,2.307-1.527,8.918,8.918,0,0,0,1.538-1.928,9.625,9.625,0,0,0,.854-1.839h.146v6.346a9.3,9.3,0,0,1-1.953,6.213,7.018,7.018,0,0,1-5.688,2.294Zm.049-36.591a6.151,6.151,0,0,1,4.069,1.411,9.045,9.045,0,0,1,2.612,3.736,13.862,13.862,0,0,1,.916,5.115v4.419a13.826,13.826,0,0,1-.867,4.892A9.064,9.064,0,0,1,652.91,50.4a6.124,6.124,0,0,1-4.15,1.457c-2.835.063-5.441-1.881-6.677-4.98a14.6,14.6,0,0,1-1.013-5.693V37.858a15.165,15.165,0,0,1,1.025-5.916,8.273,8.273,0,0,1,2.771-3.644,6.564,6.564,0,0,1,3.864-1.234Zm18.237,28.5h2.588V24.721h-2.588Zm-.879-40.12a2.892,2.892,0,0,0,.623,1.853,1.967,1.967,0,0,0,3.1,0,2.82,2.82,0,0,0,.623-1.853,2.905,2.905,0,0,0-.622-1.916,1.946,1.946,0,0,0-1.578-.756,1.906,1.906,0,0,0-1.526.757,2.914,2.914,0,0,0-.62,1.917Zm9.2,27.221a18.773,18.773,0,0,0,1.257,7.264,10.221,10.221,0,0,0,3.54,4.581,9.184,9.184,0,0,0,5.383,1.586,9.5,9.5,0,0,0,5.322-1.349,8.613,8.613,0,0,0,3.064-3.38,10.113,10.113,0,0,0,1.111-4.048H692.4a8.958,8.958,0,0,1-.977,2.773,5.8,5.8,0,0,1-2.148,2.209,7.121,7.121,0,0,1-3.735.86,6.6,6.6,0,0,1-5.6-2.773,12.98,12.98,0,0,1-2.063-7.844V37.769a13.162,13.162,0,0,1,2.039-7.858,6.67,6.67,0,0,1,11.45.638,9.129,9.129,0,0,1,.94,2.891h2.563a10.215,10.215,0,0,0-1.147-4.314,9.218,9.218,0,0,0-3.137-3.514,9.955,9.955,0,0,0-10.449.177,10.3,10.3,0,0,0-3.564,4.536,17.976,17.976,0,0,0-1.282,7.147Zm32.178,13.433a7.807,7.807,0,0,0,3.845-.875,8.515,8.515,0,0,0,2.555-2.089,9.262,9.262,0,0,0,1.416-2.308h.146V55.56h2.539V33.819a11.364,11.364,0,0,0-1.16-5.466,7.319,7.319,0,0,0-3.162-3.129,10.005,10.005,0,0,0-4.565-1.008,11.025,11.025,0,0,0-3.613.549,7.821,7.821,0,0,0-2.71,1.557A7.282,7.282,0,0,0,701,28.7a8.5,8.5,0,0,0-.757,2.965h2.563a5.908,5.908,0,0,1,.867-2.15,5.172,5.172,0,0,1,1.953-1.749,6.944,6.944,0,0,1,3.333-.7,6.362,6.362,0,0,1,4.614,1.691,7.1,7.1,0,0,1,1.758,5.308v3.944H707.91q-4.3,0-6.506,2.429a9.082,9.082,0,0,0-2.209,6.346,9.728,9.728,0,0,0,2.3,6.776,7.672,7.672,0,0,0,5.981,2.536Zm.513-2.876a5.988,5.988,0,0,1-4.321-1.691,6.367,6.367,0,0,1-1.758-4.8,6.438,6.438,0,0,1,1.428-4.3q1.428-1.691,4.6-1.691h7.4v4.329a8.735,8.735,0,0,1-1,4.24,7.6,7.6,0,0,1-2.661,2.876,6.811,6.811,0,0,1-3.685,1.038Zm17.093,2.342h2.612V12.979h-2.612ZM13.135,109.237a8.627,8.627,0,0,0-4.935,1.5,10.3,10.3,0,0,0-3.537,4.34,16.541,16.541,0,0,0-1.318,6.968V128.3a17.083,17.083,0,0,0,1.233,6.76,10.3,10.3,0,0,0,3.43,4.448,8.458,8.458,0,0,0,5.054,1.572,7.991,7.991,0,0,0,3.247-.623,8.725,8.725,0,0,0,2.441-1.572,8.518,8.518,0,0,0,1.636-2.016,6.983,6.983,0,0,0,.806-1.987h.146v5.7h2.49V98H21.24v17.2h-.146a9.211,9.211,0,0,0-1.416-2.773,7.739,7.739,0,0,0-6.543-3.186Zm.269,2.847c2.883-.1,5.552,1.838,6.848,4.966a12.976,12.976,0,0,1,.989,5.174V127.8a14.3,14.3,0,0,1-.928,5.248,8.952,8.952,0,0,1-2.661,3.781,6.4,6.4,0,0,1-4.175,1.409,6.354,6.354,0,0,1-3.894-1.261,8.255,8.255,0,0,1-2.661-3.662,15.623,15.623,0,0,1-.964-5.812v-4.655a15.56,15.56,0,0,1,1-5.96,8.119,8.119,0,0,1,2.686-3.6,6.323,6.323,0,0,1,3.756-1.2Zm18.31,28.5H34.3V109.741H31.714Zm-.879-40.12a2.892,2.892,0,0,0,.623,1.853,1.966,1.966,0,0,0,3.1,0,2.821,2.821,0,0,0,.623-1.853,2.906,2.906,0,0,0-.622-1.916,1.946,1.946,0,0,0-1.578-.756,1.906,1.906,0,0,0-1.526.757A2.914,2.914,0,0,0,30.835,100.461Zm10.6,40.12h2.612V121.39a12.042,12.042,0,0,1,.928-4.98,7.1,7.1,0,0,1,2.563-3.113,6.634,6.634,0,0,1,3.711-1.068,10.441,10.441,0,0,1,1.343.074q.562.074.806.134v-2.993q-.293-.06-.769-.121a8.875,8.875,0,0,0-1.086-.06,7.012,7.012,0,0,0-3.882.994,7.279,7.279,0,0,0-2.369,2.388,8.861,8.861,0,0,0-1.1,2.639h-.146v-5.543H41.431Zm24.39.533a9.58,9.58,0,0,0,4.016-.786,8.9,8.9,0,0,0,2.856-2,9.479,9.479,0,0,0,1.758-2.6,8.53,8.53,0,0,0,.745-2.609H72.461a5.73,5.73,0,0,1-.961,2.366,6.217,6.217,0,0,1-2.209,1.972,7.046,7.046,0,0,1-3.467.786,6.52,6.52,0,0,1-5.688-2.906,13.551,13.551,0,0,1-2.026-7.858v-1.72H75.562v-2.52a20.092,20.092,0,0,0-1.282-7.606,10.684,10.684,0,0,0-3.54-4.759,9.145,9.145,0,0,0-10.425,0,10.684,10.684,0,0,0-3.54,4.759,20.092,20.092,0,0,0-1.282,7.606v4.122a19.8,19.8,0,0,0,1.233,7.354,10.438,10.438,0,0,0,3.54,4.744,9.241,9.241,0,0,0,5.554,1.66ZM58.106,123.2v-.356a16.108,16.108,0,0,1,.928-5.768c1.144-3.112,3.688-5.116,6.494-5.116s5.35,2,6.494,5.116a16.108,16.108,0,0,1,.928,5.768v.356Zm22.241,4.478a18.773,18.773,0,0,0,1.257,7.264,10.22,10.22,0,0,0,3.54,4.581,9.185,9.185,0,0,0,5.383,1.586,9.5,9.5,0,0,0,5.322-1.349,8.613,8.613,0,0,0,3.064-3.38,10.112,10.112,0,0,0,1.111-4.048H97.461a8.958,8.958,0,0,1-.977,2.773,5.8,5.8,0,0,1-2.148,2.209,7.122,7.122,0,0,1-3.735.86,6.6,6.6,0,0,1-5.6-2.772,12.98,12.98,0,0,1-2.063-7.844v-4.774a13.161,13.161,0,0,1,2.039-7.858,6.67,6.67,0,0,1,11.45.638,9.128,9.128,0,0,1,.94,2.891h2.563a10.214,10.214,0,0,0-1.147-4.314,9.218,9.218,0,0,0-3.137-3.514,9.955,9.955,0,0,0-10.449.177,10.3,10.3,0,0,0-3.564,4.536,17.977,17.977,0,0,0-1.282,7.147Zm27.173-17.94h-4.541v2.7h4.541v20.52a15.509,15.509,0,0,0,.549,4.536,4.281,4.281,0,0,0,1.99,2.565,8.411,8.411,0,0,0,4.1.815q.586,0,1.55-.089t1.355-.148v-2.732q-.366.029-1.147.1t-1.27.074a4.748,4.748,0,0,1-3.552-1.053q-.989-1.053-.989-3.958V112.44h6.567v-2.7h-6.567V102.15H107.52Zm14.257,30.839h2.588V109.741h-2.588Zm-.877-40.12a2.892,2.892,0,0,0,.623,1.853,1.966,1.966,0,0,0,3.1,0,2.821,2.821,0,0,0,.623-1.853,2.906,2.906,0,0,0-.622-1.916,1.946,1.946,0,0,0-1.578-.756,1.906,1.906,0,0,0-1.526.757,2.914,2.914,0,0,0-.62,1.917Zm19.7,8.778a9.44,9.44,0,0,0-5.359,1.586,10.72,10.72,0,0,0-3.76,4.6,17.569,17.569,0,0,0-1.379,7.338v4.858A17.629,17.629,0,0,0,131.481,135a10.528,10.528,0,0,0,3.76,4.552,9.57,9.57,0,0,0,5.359,1.557,9.471,9.471,0,0,0,5.322-1.557A10.723,10.723,0,0,0,149.694,135a17.364,17.364,0,0,0,1.4-7.383v-4.858a17.488,17.488,0,0,0-1.4-7.383,10.662,10.662,0,0,0-3.784-4.581,9.488,9.488,0,0,0-5.31-1.557Zm0,2.847a6.719,6.719,0,0,1,4.077,1.3,8.558,8.558,0,0,1,2.8,3.781,15.784,15.784,0,0,1,1.013,5.974v4.122a15.93,15.93,0,0,1-1,5.99,8.224,8.224,0,0,1-2.771,3.721,6.865,6.865,0,0,1-4.089,1.261,6.94,6.94,0,0,1-4.15-1.275,8.214,8.214,0,0,1-2.771-3.721,15.988,15.988,0,0,1-.989-5.975v-4.122a15.758,15.758,0,0,1,1.013-5.99,8.565,8.565,0,0,1,2.8-3.765,6.721,6.721,0,0,1,4.067-1.307Zm16.553,28.5h2.612v-17.97a15.376,15.376,0,0,1,.854-5.189,8.874,8.874,0,0,1,2.576-3.87,6.4,6.4,0,0,1,4.309-1.467,5.808,5.808,0,0,1,3.577,1.082,6.777,6.777,0,0,1,2.222,3.01,12.125,12.125,0,0,1,.769,4.507v19.9h2.588V119.824q0-5.223-2.429-7.9a8.86,8.86,0,0,0-10.486-1.66,7.522,7.522,0,0,0-2.563,2.52,10.969,10.969,0,0,0-1.27,2.915h-.146v-5.955h-2.612Zm42.285.533a7.807,7.807,0,0,0,3.845-.875,8.51,8.51,0,0,0,2.552-2.088,9.26,9.26,0,0,0,1.416-2.308h.146v4.737h2.539V118.84a11.366,11.366,0,0,0-1.16-5.466,7.319,7.319,0,0,0-3.162-3.129,10.006,10.006,0,0,0-4.565-1.008,11.024,11.024,0,0,0-3.613.549,7.82,7.82,0,0,0-2.71,1.557,7.284,7.284,0,0,0-1.758,2.372,8.5,8.5,0,0,0-.757,2.965h2.563a5.907,5.907,0,0,1,.867-2.15,5.173,5.173,0,0,1,1.953-1.749,6.944,6.944,0,0,1,3.333-.7,6.362,6.362,0,0,1,4.614,1.691,7.1,7.1,0,0,1,1.758,5.308v3.944h-7.422q-4.3,0-6.506,2.429a9.082,9.082,0,0,0-2.209,6.346,9.728,9.728,0,0,0,2.3,6.776,7.673,7.673,0,0,0,5.981,2.536Zm.513-2.876a5.988,5.988,0,0,1-4.321-1.691,6.953,6.953,0,0,1-1.756-4.47,7.172,7.172,0,0,1,1.426-4.64q1.428-1.691,4.6-1.691h7.4v4.329a8.733,8.733,0,0,1-1,4.24,7.6,7.6,0,0,1-2.661,2.876A6.814,6.814,0,0,1,199.951,138.238Zm16.773,2.343h2.612v-17.97a15.377,15.377,0,0,1,.854-5.189,8.875,8.875,0,0,1,2.576-3.87,6.4,6.4,0,0,1,4.309-1.467,5.808,5.808,0,0,1,3.577,1.082,6.777,6.777,0,0,1,2.222,3.01,12.125,12.125,0,0,1,.769,4.507v19.9h2.588V119.824q0-5.223-2.429-7.9a8.86,8.86,0,0,0-10.486-1.66,7.522,7.522,0,0,0-2.563,2.52,10.97,10.97,0,0,0-1.27,2.915h-.146v-5.955h-2.612Zm34.888-31.343a8.627,8.627,0,0,0-4.932,1.5,10.3,10.3,0,0,0-3.54,4.34,16.541,16.541,0,0,0-1.318,6.968V128.3a17.084,17.084,0,0,0,1.233,6.76,10.3,10.3,0,0,0,3.43,4.448,8.458,8.458,0,0,0,5.054,1.572,7.991,7.991,0,0,0,3.247-.623,8.724,8.724,0,0,0,2.441-1.572,8.518,8.518,0,0,0,1.636-2.016,6.983,6.983,0,0,0,.806-1.987h.146v5.7h2.49V98h-2.588v17.2h-.146a9.212,9.212,0,0,0-1.416-2.773,7.739,7.739,0,0,0-6.544-3.186Zm.269,2.847c2.883-.1,5.552,1.838,6.848,4.966a12.977,12.977,0,0,1,.989,5.174V127.8a14.3,14.3,0,0,1-.928,5.248,8.952,8.952,0,0,1-2.661,3.781,6.772,6.772,0,0,1-8.069.148,8.255,8.255,0,0,1-2.661-3.662,15.622,15.622,0,0,1-.964-5.812v-4.655a15.56,15.56,0,0,1,1-5.96,8.119,8.119,0,0,1,2.686-3.6,6.323,6.323,0,0,1,3.759-1.2ZM277.76,117.9a7.765,7.765,0,0,0,1.074,4.345,7.165,7.165,0,0,0,2.979,2.52,29.186,29.186,0,0,0,4.346,1.617,31.31,31.31,0,0,1,3.43,1.093,6.5,6.5,0,0,1,2.588,1.749,4.669,4.669,0,0,1,.989,3.172,5.87,5.87,0,0,1-.854,3.232,5.516,5.516,0,0,1-2.38,2.047,8.38,8.38,0,0,1-3.577.712,7.439,7.439,0,0,1-3.87-.874,5.908,5.908,0,0,1-2.869-4.818h-2.563a8.64,8.64,0,0,0,1.013,4.106,7.83,7.83,0,0,0,3.064,3.113,10.049,10.049,0,0,0,5.151,1.2,11.064,11.064,0,0,0,4.8-1.023,8.023,8.023,0,0,0,3.43-3.036,9.247,9.247,0,0,0,1.27-5.011,7.5,7.5,0,0,0-1.208-4.552,7.7,7.7,0,0,0-3.21-2.477,30.762,30.762,0,0,0-4.395-1.483,26.127,26.127,0,0,1-2.612-.85,9.3,9.3,0,0,1-2.087-1.093,4.48,4.48,0,0,1-1.392-1.6,5.147,5.147,0,0,1-.5-2.387,5.074,5.074,0,0,1,1.782-4.211,6.7,6.7,0,0,1,4.321-1.423,6.438,6.438,0,0,1,3.613.9,5.517,5.517,0,0,1,1.99,2.179,5.824,5.824,0,0,1,.647,2.429h2.49a8.809,8.809,0,0,0-.928-3.915,7.6,7.6,0,0,0-2.844-3.113,8.976,8.976,0,0,0-4.9-1.215,10.1,10.1,0,0,0-4.407.949,7.472,7.472,0,0,0-3.186,2.876,9.029,9.029,0,0,0-1.2,4.838Zm25.073-8.155h-4.541v2.7h4.541v20.52a15.508,15.508,0,0,0,.549,4.536,4.281,4.281,0,0,0,1.99,2.565,8.411,8.411,0,0,0,4.1.815q.586,0,1.55-.089t1.355-.148v-2.732q-.366.029-1.147.1t-1.27.074a4.748,4.748,0,0,1-3.552-1.053q-.989-1.053-.989-3.958V112.44h6.567v-2.7H305.42V102.15h-2.588Zm13.891,30.839h2.612V121.39a12.034,12.034,0,0,1,.928-4.98,7.1,7.1,0,0,1,2.563-3.113,6.634,6.634,0,0,1,3.711-1.068,10.44,10.44,0,0,1,1.343.074q.562.074.806.134v-2.993q-.293-.06-.769-.121a8.874,8.874,0,0,0-1.086-.06,7.012,7.012,0,0,0-3.882.994,7.279,7.279,0,0,0-2.369,2.388,8.864,8.864,0,0,0-1.1,2.639h-.146v-5.543h-2.612Zm35.034-30.839h-2.612v18.978a11.651,11.651,0,0,1-.928,4.615,8.8,8.8,0,0,1-2.661,3.543,6.966,6.966,0,0,1-7.544.475,5.966,5.966,0,0,1-2.295-2.672,10.443,10.443,0,0,1-.83-4.419v-20.52h-2.612v21.231a12.634,12.634,0,0,0,1.147,5.783,7.579,7.579,0,0,0,3.1,3.291,9.056,9.056,0,0,0,4.419,1.068,7.7,7.7,0,0,0,4.028-.994,8.344,8.344,0,0,0,2.649-2.429A9.6,9.6,0,0,0,349,134.858h.146v5.723h2.612Zm5.811,17.94a18.771,18.771,0,0,0,1.257,7.264,10.22,10.22,0,0,0,3.54,4.581,9.185,9.185,0,0,0,5.383,1.586,9.5,9.5,0,0,0,5.322-1.349,8.613,8.613,0,0,0,3.064-3.38,10.113,10.113,0,0,0,1.111-4.048h-2.563a8.957,8.957,0,0,1-.977,2.773,5.8,5.8,0,0,1-2.148,2.209,7.122,7.122,0,0,1-3.735.86,6.6,6.6,0,0,1-5.6-2.773,12.98,12.98,0,0,1-2.063-7.844v-4.774a13.161,13.161,0,0,1,2.039-7.858,6.67,6.67,0,0,1,11.45.638,9.128,9.128,0,0,1,.94,2.891h2.563A10.21,10.21,0,0,0,376,114.145a9.218,9.218,0,0,0-3.137-3.514,9.955,9.955,0,0,0-10.449.177,10.3,10.3,0,0,0-3.564,4.536,17.977,17.977,0,0,0-1.282,7.147Zm27.173-17.94H380.2v2.7h4.541v20.52a15.509,15.509,0,0,0,.549,4.536,4.281,4.281,0,0,0,1.99,2.565,8.412,8.412,0,0,0,4.1.815q.586,0,1.55-.089t1.355-.148v-2.732q-.366.029-1.147.1t-1.27.074a4.748,4.748,0,0,1-3.552-1.053q-.989-1.053-.989-3.958V112.44H393.9v-2.7h-6.567V102.15h-2.588Zm32.69,0H414.82v18.978a11.65,11.65,0,0,1-.928,4.615,8.8,8.8,0,0,1-2.661,3.543,6.967,6.967,0,0,1-7.544.475,5.967,5.967,0,0,1-2.295-2.672,10.443,10.443,0,0,1-.83-4.419v-20.52H397.95v21.231a12.634,12.634,0,0,0,1.147,5.783,7.579,7.579,0,0,0,3.1,3.292,9.056,9.056,0,0,0,4.419,1.068,7.7,7.7,0,0,0,4.028-.994,8.343,8.343,0,0,0,2.649-2.429,9.6,9.6,0,0,0,1.379-2.832h.146v5.722h2.612Zm7.2,30.839h2.612V121.39a12.034,12.034,0,0,1,.928-4.98,7.1,7.1,0,0,1,2.563-3.113,6.634,6.634,0,0,1,3.711-1.068,10.44,10.44,0,0,1,1.343.074q.562.074.806.134v-2.993q-.293-.06-.769-.121a8.874,8.874,0,0,0-1.086-.06,7.012,7.012,0,0,0-3.882.994,7.28,7.28,0,0,0-2.367,2.388,8.863,8.863,0,0,0-1.1,2.639h-.146v-5.543h-2.612Zm24.39.533a9.58,9.58,0,0,0,4.016-.786,8.9,8.9,0,0,0,2.856-2,9.477,9.477,0,0,0,1.76-2.6,8.531,8.531,0,0,0,.745-2.609h-2.734a5.73,5.73,0,0,1-.964,2.372,6.217,6.217,0,0,1-2.209,1.972,7.046,7.046,0,0,1-3.467.786,6.52,6.52,0,0,1-5.688-2.906,13.551,13.551,0,0,1-2.026-7.858v-1.72h17.456v-2.52a20.091,20.091,0,0,0-1.282-7.606,10.684,10.684,0,0,0-3.54-4.759,9.145,9.145,0,0,0-10.425,0,10.684,10.684,0,0,0-3.54,4.759,20.092,20.092,0,0,0-1.282,7.606v4.122a19.8,19.8,0,0,0,1.233,7.354,10.437,10.437,0,0,0,3.54,4.744,9.239,9.239,0,0,0,5.552,1.654Zm-7.715-17.91v-.356a16.108,16.108,0,0,1,.928-5.768c1.144-3.112,3.688-5.116,6.494-5.116s5.35,2,6.494,5.116a16.109,16.109,0,0,1,.928,5.768v.356Zm34.328,17.377h2.588V112.44h6.714v-2.7h-6.714v-3.5a6.422,6.422,0,0,1,1.086-4.251,4.6,4.6,0,0,1,3.577-1.2q.61,0,1.4.06t1.135.121V98.266a6.5,6.5,0,0,0-1.2-.193Q483.415,98,482.659,98q-3.711,0-5.371,1.957t-1.66,6.108v3.677h-4.419v2.7h4.419Zm21.9-31.343a9.44,9.44,0,0,0-5.359,1.586,10.719,10.719,0,0,0-3.76,4.6,17.569,17.569,0,0,0-1.379,7.338v4.858A17.628,17.628,0,0,0,488.416,135a10.528,10.528,0,0,0,3.76,4.552,9.57,9.57,0,0,0,5.359,1.557,9.471,9.471,0,0,0,5.322-1.557A10.723,10.723,0,0,0,506.629,135a17.364,17.364,0,0,0,1.4-7.383v-4.858a17.488,17.488,0,0,0-1.4-7.383,10.662,10.662,0,0,0-3.784-4.581,9.488,9.488,0,0,0-5.311-1.556Zm0,2.847a6.719,6.719,0,0,1,4.077,1.3,8.557,8.557,0,0,1,2.8,3.781,15.783,15.783,0,0,1,1.013,5.975v4.122a15.932,15.932,0,0,1-1,5.99,8.224,8.224,0,0,1-2.771,3.721,6.865,6.865,0,0,1-4.089,1.261,6.941,6.941,0,0,1-4.15-1.275,8.215,8.215,0,0,1-2.771-3.721,15.987,15.987,0,0,1-.989-5.974v-4.122a15.759,15.759,0,0,1,1.013-5.99,8.565,8.565,0,0,1,2.8-3.765,6.721,6.721,0,0,1,4.066-1.306Zm16.772,28.5h2.612V121.39a12.041,12.041,0,0,1,.928-4.98,7.1,7.1,0,0,1,2.563-3.113,6.634,6.634,0,0,1,3.711-1.068,10.44,10.44,0,0,1,1.343.074q.561.074.806.134v-2.993q-.293-.06-.769-.121a8.875,8.875,0,0,0-1.086-.06,7.012,7.012,0,0,0-3.882.994,7.28,7.28,0,0,0-2.369,2.388,8.858,8.858,0,0,0-1.1,2.639h-.146v-5.543h-2.612Zm42.773-30.839H554.3l-7.788,27.548h-.122l-7.861-27.548H535.62l9.5,31.284-.684,2.372a7.914,7.914,0,0,1-1.9,3.644,4.314,4.314,0,0,1-3.149,1.215q-.391,0-.977-.06t-.977-.121V150.8a7.179,7.179,0,0,0,1.074.177q.61.06,1.1.06a6,6,0,0,0,4.443-1.765,13.523,13.523,0,0,0,2.93-5.56l.952-3q1.123-3.915,2.271-7.773t2.295-7.739q1.147-3.887,2.295-7.754T557.08,109.741Zm12.524-.5a9.44,9.44,0,0,0-5.359,1.586,10.72,10.72,0,0,0-3.76,4.6,17.569,17.569,0,0,0-1.379,7.338v4.858A17.629,17.629,0,0,0,560.485,135a10.528,10.528,0,0,0,3.76,4.552,9.57,9.57,0,0,0,5.359,1.557,9.471,9.471,0,0,0,5.322-1.557A10.723,10.723,0,0,0,578.7,135a17.366,17.366,0,0,0,1.4-7.383v-4.858a17.488,17.488,0,0,0-1.4-7.383,10.662,10.662,0,0,0-3.784-4.581,9.488,9.488,0,0,0-5.314-1.556Zm0,2.847a6.719,6.719,0,0,1,4.077,1.3,8.558,8.558,0,0,1,2.8,3.781,15.783,15.783,0,0,1,1.013,5.974v4.122a15.931,15.931,0,0,1-1,5.99,8.224,8.224,0,0,1-2.771,3.721,6.865,6.865,0,0,1-4.089,1.261,6.94,6.94,0,0,1-4.15-1.275,8.215,8.215,0,0,1-2.771-3.721,15.988,15.988,0,0,1-.989-5.974v-4.122a15.758,15.758,0,0,1,1.013-5.99,8.565,8.565,0,0,1,2.8-3.765,6.721,6.721,0,0,1,4.063-1.306Zm35.815-2.343h-2.612v18.978a11.651,11.651,0,0,1-.928,4.615,8.8,8.8,0,0,1-2.661,3.543,6.966,6.966,0,0,1-7.544.475,5.966,5.966,0,0,1-2.3-2.672,10.444,10.444,0,0,1-.83-4.419v-20.52h-2.612v21.231a12.634,12.634,0,0,0,1.147,5.783,7.579,7.579,0,0,0,3.1,3.292,9.056,9.056,0,0,0,4.419,1.068,7.7,7.7,0,0,0,4.028-.994,8.343,8.343,0,0,0,2.649-2.429,9.6,9.6,0,0,0,1.379-2.832h.146v5.722h2.612Zm7.2,30.839h2.612V121.39a12.042,12.042,0,0,1,.928-4.98,7.1,7.1,0,0,1,2.563-3.113,6.635,6.635,0,0,1,3.711-1.068,10.441,10.441,0,0,1,1.343.074q.561.074.806.134v-2.993q-.293-.06-.769-.121a8.875,8.875,0,0,0-1.086-.06,7.012,7.012,0,0,0-3.882.994,7.282,7.282,0,0,0-2.366,2.388,8.86,8.86,0,0,0-1.1,2.639h-.146v-5.543h-2.612Zm33.252,8.1a7.515,7.515,0,0,1-3.625-.8,6.211,6.211,0,0,1-2.283-2.016,5.386,5.386,0,0,1-.928-2.461h-2.71a8.9,8.9,0,0,0,1.172,3.855,8.2,8.2,0,0,0,3.1,3.069,10.1,10.1,0,0,0,5.176,1.2,11.762,11.762,0,0,0,4.3-.741,8.707,8.707,0,0,0,3.259-2.195A9.749,9.749,0,0,0,655.407,145a15.4,15.4,0,0,0,.72-4.923V109.741h-2.515v5.486h-.122a9.172,9.172,0,0,0-1.355-2.609,8.67,8.67,0,0,0-2.625-2.387,7.471,7.471,0,0,0-3.955-.993,8.847,8.847,0,0,0-4.919,1.467,10.278,10.278,0,0,0-3.625,4.345,16.384,16.384,0,0,0-1.367,7.058v4.8a16.476,16.476,0,0,0,1.306,6.85,10.432,10.432,0,0,0,3.552,4.419,8.679,8.679,0,0,0,5.029,1.542,7.593,7.593,0,0,0,3.137-.607,7.986,7.986,0,0,0,2.307-1.527,8.918,8.918,0,0,0,1.538-1.928,9.621,9.621,0,0,0,.854-1.839h.146v6.346a9.3,9.3,0,0,1-1.953,6.213,7.018,7.018,0,0,1-5.686,2.294Zm.049-36.591a6.151,6.151,0,0,1,4.065,1.409,9.045,9.045,0,0,1,2.612,3.736,13.863,13.863,0,0,1,.916,5.115v4.419a13.827,13.827,0,0,1-.867,4.892,9.062,9.062,0,0,1-2.551,3.765,6.124,6.124,0,0,1-4.15,1.457c-2.835.063-5.441-1.881-6.677-4.98a14.6,14.6,0,0,1-1.013-5.693v-3.321a15.163,15.163,0,0,1,1.025-5.916,8.273,8.273,0,0,1,2.771-3.644,6.566,6.566,0,0,1,3.872-1.24Zm18.118,28.5h2.612V121.39a12.042,12.042,0,0,1,.928-4.98,7.1,7.1,0,0,1,2.563-3.113,6.635,6.635,0,0,1,3.711-1.068,10.442,10.442,0,0,1,1.343.074q.561.074.806.134v-2.993q-.293-.06-.769-.121a8.875,8.875,0,0,0-1.086-.06,7.012,7.012,0,0,0-3.882.994,7.284,7.284,0,0,0-2.364,2.388,8.86,8.86,0,0,0-1.1,2.639h-.146v-5.543h-2.612Zm24.536-31.343a9.44,9.44,0,0,0-5.359,1.586,10.72,10.72,0,0,0-3.76,4.6,17.569,17.569,0,0,0-1.379,7.338v4.858A17.628,17.628,0,0,0,679.455,135a10.527,10.527,0,0,0,3.76,4.552,9.57,9.57,0,0,0,5.359,1.557,9.471,9.471,0,0,0,5.322-1.557A10.723,10.723,0,0,0,697.668,135a17.365,17.365,0,0,0,1.4-7.383v-4.858a17.488,17.488,0,0,0-1.4-7.383,10.661,10.661,0,0,0-3.784-4.581,9.488,9.488,0,0,0-5.31-1.556Zm0,2.847a6.719,6.719,0,0,1,4.077,1.3,8.558,8.558,0,0,1,2.8,3.781,15.783,15.783,0,0,1,1.013,5.974v4.122a15.931,15.931,0,0,1-1,5.99,8.224,8.224,0,0,1-2.771,3.722,6.865,6.865,0,0,1-4.089,1.261,6.941,6.941,0,0,1-4.15-1.275,8.214,8.214,0,0,1-2.771-3.721,15.988,15.988,0,0,1-.989-5.975v-4.122a15.758,15.758,0,0,1,1.013-5.99,8.565,8.565,0,0,1,2.8-3.765,6.72,6.72,0,0,1,4.067-1.306Zm46.069-2.343h-2.661l-5.493,26.45h-.146l-6.743-26.45h-2.539l-6.641,26.45h-.146l-5.42-26.45H701.9l7.133,30.839h2.588l6.689-26.242h.1l6.736,26.242h2.588Zm4.857,30.839h2.588V109.741H739.5Zm-.879-40.12a2.892,2.892,0,0,0,.623,1.853,1.966,1.966,0,0,0,3.1,0,2.82,2.82,0,0,0,.623-1.853,2.906,2.906,0,0,0-.622-1.916,1.946,1.946,0,0,0-1.578-.756,1.906,1.906,0,0,0-1.526.757,2.915,2.915,0,0,0-.618,1.917ZM749,140.581h2.612v-17.97a15.377,15.377,0,0,1,.854-5.189,8.874,8.874,0,0,1,2.576-3.87,6.4,6.4,0,0,1,4.309-1.467,5.808,5.808,0,0,1,3.577,1.082,6.777,6.777,0,0,1,2.222,3.01,12.125,12.125,0,0,1,.769,4.507v19.9h2.588V119.824q0-5.223-2.429-7.9a8.86,8.86,0,0,0-10.486-1.66,7.522,7.522,0,0,0-2.563,2.52,10.973,10.973,0,0,0-1.27,2.915h-.146v-5.955H749Zm35.156,8.1a7.515,7.515,0,0,1-3.625-.8,6.21,6.21,0,0,1-2.283-2.016,5.386,5.386,0,0,1-.928-2.461h-2.71a8.906,8.906,0,0,0,1.172,3.855,8.2,8.2,0,0,0,3.1,3.069,10.1,10.1,0,0,0,5.176,1.2,11.762,11.762,0,0,0,4.3-.741,8.708,8.708,0,0,0,3.259-2.195A9.748,9.748,0,0,0,793.692,145a15.4,15.4,0,0,0,.72-4.923V109.741H791.9v5.486h-.122a9.17,9.17,0,0,0-1.355-2.609,8.67,8.67,0,0,0-2.625-2.387,7.471,7.471,0,0,0-3.955-.993,8.847,8.847,0,0,0-4.919,1.467,10.278,10.278,0,0,0-3.625,4.345,16.384,16.384,0,0,0-1.367,7.058v4.8a16.477,16.477,0,0,0,1.306,6.85,10.433,10.433,0,0,0,3.552,4.419,8.679,8.679,0,0,0,5.029,1.543,7.593,7.593,0,0,0,3.137-.607,7.988,7.988,0,0,0,2.307-1.527,8.922,8.922,0,0,0,1.538-1.928,9.617,9.617,0,0,0,.854-1.839h.146v6.346a9.3,9.3,0,0,1-1.953,6.213,7.018,7.018,0,0,1-5.69,2.294Zm.049-36.591a6.151,6.151,0,0,1,4.065,1.409,9.046,9.046,0,0,1,2.612,3.736,13.862,13.862,0,0,1,.916,5.115v4.419a13.829,13.829,0,0,1-.867,4.892,9.064,9.064,0,0,1-2.551,3.765,6.124,6.124,0,0,1-4.15,1.457c-2.835.063-5.441-1.881-6.677-4.98a14.6,14.6,0,0,1-1.013-5.693v-3.321a15.167,15.167,0,0,1,1.025-5.916,8.272,8.272,0,0,1,2.771-3.644,6.567,6.567,0,0,1,3.864-1.24ZM15.333,226.133a8.447,8.447,0,0,0,5.167-1.625,10.475,10.475,0,0,0,3.418-4.552,17.89,17.89,0,0,0,1.208-6.865V207.22a17.692,17.692,0,0,0-1.208-6.82,10.5,10.5,0,0,0-3.381-4.522,8.305,8.305,0,0,0-5.1-1.617,8.437,8.437,0,0,0-5.164,1.764A8.46,8.46,0,0,0,8.43,198a7.122,7.122,0,0,0-1.05,2.429H7.227V183.019H4.639V225.6h2.49v-5.456h.146a8.531,8.531,0,0,0,1.734,3.148,8.355,8.355,0,0,0,2.808,2.09,8.271,8.271,0,0,0,3.515.751Zm-.244-2.876a6.663,6.663,0,0,1-4.066-1.3,8.723,8.723,0,0,1-2.783-3.618,13.044,13.044,0,0,1-1.013-5.279v-5.486a14.2,14.2,0,0,1,.973-5.487,8.54,8.54,0,0,1,2.747-3.662,6.615,6.615,0,0,1,4.065-1.319A6.2,6.2,0,0,1,19,198.442a8.524,8.524,0,0,1,2.588,3.781,16.551,16.551,0,0,1,.916,5.8v4.359a16.757,16.757,0,0,1-.9,5.8,8.333,8.333,0,0,1-2.576,3.765,6.168,6.168,0,0,1-3.944,1.317Zm35.352-28.5H47.827v18.978a11.65,11.65,0,0,1-.928,4.615,8.8,8.8,0,0,1-2.661,3.543,6.966,6.966,0,0,1-7.544.475,5.966,5.966,0,0,1-2.3-2.672,10.443,10.443,0,0,1-.83-4.419V194.762H30.957v21.231a12.634,12.634,0,0,0,1.147,5.783,7.579,7.579,0,0,0,3.1,3.292,9.055,9.055,0,0,0,4.419,1.068,7.7,7.7,0,0,0,4.028-.994,8.344,8.344,0,0,0,2.649-2.429,9.6,9.6,0,0,0,1.379-2.832h.146V225.6h2.612Zm5.933,8.155a7.765,7.765,0,0,0,1.074,4.345,7.165,7.165,0,0,0,2.979,2.52,29.189,29.189,0,0,0,4.346,1.617,31.317,31.317,0,0,1,3.43,1.093,6.5,6.5,0,0,1,2.588,1.749,4.669,4.669,0,0,1,.989,3.172,5.87,5.87,0,0,1-.854,3.232,5.516,5.516,0,0,1-2.38,2.047,8.38,8.38,0,0,1-3.577.712,7.438,7.438,0,0,1-3.87-.874,5.908,5.908,0,0,1-2.869-4.818H55.664a8.64,8.64,0,0,0,1.013,4.106,7.831,7.831,0,0,0,3.064,3.113,10.049,10.049,0,0,0,5.151,1.2,11.064,11.064,0,0,0,4.8-1.023,8.023,8.023,0,0,0,3.43-3.036,9.247,9.247,0,0,0,1.27-5.011,7.5,7.5,0,0,0-1.208-4.552,7.7,7.7,0,0,0-3.21-2.477,30.768,30.768,0,0,0-4.395-1.483,26.135,26.135,0,0,1-2.612-.85A9.293,9.293,0,0,1,60.88,206.6a4.48,4.48,0,0,1-1.392-1.6,5.147,5.147,0,0,1-.5-2.387,5.074,5.074,0,0,1,1.782-4.211,6.7,6.7,0,0,1,4.321-1.423,6.439,6.439,0,0,1,3.613.9,5.517,5.517,0,0,1,1.99,2.179,5.824,5.824,0,0,1,.647,2.429h2.49a8.809,8.809,0,0,0-.928-3.915,7.6,7.6,0,0,0-2.844-3.113,8.975,8.975,0,0,0-4.9-1.215,10.1,10.1,0,0,0-4.407.949,7.472,7.472,0,0,0-3.186,2.876,9.03,9.03,0,0,0-1.194,4.839ZM80.64,225.6h2.588V194.762H80.64Zm-.879-40.12a2.892,2.892,0,0,0,.623,1.853,1.967,1.967,0,0,0,3.1,0,2.821,2.821,0,0,0,.623-1.853,2.906,2.906,0,0,0-.622-1.916,1.946,1.946,0,0,0-1.578-.756,1.906,1.906,0,0,0-1.526.757A2.914,2.914,0,0,0,79.761,185.481ZM90.137,225.6h2.612v-17.97a15.377,15.377,0,0,1,.854-5.189,8.875,8.875,0,0,1,2.576-3.87,6.4,6.4,0,0,1,4.309-1.467,5.808,5.808,0,0,1,3.577,1.082,6.778,6.778,0,0,1,2.222,3.01,12.125,12.125,0,0,1,.769,4.507v19.9h2.588V204.844q0-5.223-2.429-7.9a8.86,8.86,0,0,0-10.486-1.66,7.522,7.522,0,0,0-2.563,2.52,10.97,10.97,0,0,0-1.27,2.915H92.75v-5.96H90.137Zm35.5.533a9.58,9.58,0,0,0,4.016-.786,8.9,8.9,0,0,0,2.856-2,9.482,9.482,0,0,0,1.756-2.6,8.529,8.529,0,0,0,.745-2.609h-2.734a5.729,5.729,0,0,1-.964,2.372,6.217,6.217,0,0,1-2.209,1.972,7.046,7.046,0,0,1-3.467.786,6.52,6.52,0,0,1-5.688-2.906,13.551,13.551,0,0,1-2.026-7.858v-1.72h17.456v-2.52a20.092,20.092,0,0,0-1.282-7.606,10.684,10.684,0,0,0-3.54-4.759,9.145,9.145,0,0,0-10.425,0,10.684,10.684,0,0,0-3.54,4.759,20.092,20.092,0,0,0-1.282,7.606v4.122a19.8,19.8,0,0,0,1.233,7.354,10.438,10.438,0,0,0,3.54,4.744,9.239,9.239,0,0,0,5.553,1.654Zm-7.715-17.91v-.356a16.107,16.107,0,0,1,.928-5.768c1.144-3.112,3.688-5.116,6.494-5.116s5.35,2,6.494,5.116a16.107,16.107,0,0,1,.928,5.768v.356Zm22.363-5.308a7.765,7.765,0,0,0,1.074,4.345,7.165,7.165,0,0,0,2.979,2.52,29.184,29.184,0,0,0,4.346,1.617,31.314,31.314,0,0,1,3.43,1.093,6.5,6.5,0,0,1,2.588,1.749,4.669,4.669,0,0,1,.989,3.172,5.87,5.87,0,0,1-.854,3.232,5.515,5.515,0,0,1-2.38,2.047,8.379,8.379,0,0,1-3.577.712,7.44,7.44,0,0,1-3.87-.875,5.908,5.908,0,0,1-2.869-4.818h-2.563a8.64,8.64,0,0,0,1.013,4.106,7.831,7.831,0,0,0,3.064,3.113,10.049,10.049,0,0,0,5.151,1.2,11.064,11.064,0,0,0,4.8-1.023,8.024,8.024,0,0,0,3.43-3.036,9.248,9.248,0,0,0,1.27-5.011,7.5,7.5,0,0,0-1.208-4.552,7.7,7.7,0,0,0-3.21-2.477,30.766,30.766,0,0,0-4.4-1.483,26.131,26.131,0,0,1-2.612-.85,9.294,9.294,0,0,1-2.087-1.093A4.48,4.48,0,0,1,143.4,205a5.147,5.147,0,0,1-.5-2.387,5.074,5.074,0,0,1,1.782-4.211A6.7,6.7,0,0,1,149,196.985a6.438,6.438,0,0,1,3.613.9,5.518,5.518,0,0,1,1.99,2.179,5.824,5.824,0,0,1,.647,2.429h2.49a8.809,8.809,0,0,0-.928-3.915,7.6,7.6,0,0,0-2.844-3.113,8.976,8.976,0,0,0-4.9-1.215,10.1,10.1,0,0,0-4.407.949,7.472,7.472,0,0,0-3.186,2.876,9.031,9.031,0,0,0-1.192,4.835Zm22.632,0a7.765,7.765,0,0,0,1.074,4.345,7.164,7.164,0,0,0,2.979,2.52,29.184,29.184,0,0,0,4.346,1.617,31.314,31.314,0,0,1,3.43,1.093,6.5,6.5,0,0,1,2.588,1.749,4.669,4.669,0,0,1,.989,3.172,5.87,5.87,0,0,1-.854,3.232,5.515,5.515,0,0,1-2.38,2.047,8.38,8.38,0,0,1-3.577.712,7.44,7.44,0,0,1-3.87-.875,5.908,5.908,0,0,1-2.869-4.818H162.21a8.64,8.64,0,0,0,1.013,4.106,7.831,7.831,0,0,0,3.064,3.113,10.05,10.05,0,0,0,5.151,1.2,11.064,11.064,0,0,0,4.8-1.023,8.024,8.024,0,0,0,3.43-3.036,9.247,9.247,0,0,0,1.27-5.011,7.5,7.5,0,0,0-1.208-4.552,7.7,7.7,0,0,0-3.21-2.477,30.765,30.765,0,0,0-4.4-1.483,26.13,26.13,0,0,1-2.612-.85,9.294,9.294,0,0,1-2.087-1.093,4.48,4.48,0,0,1-1.392-1.6,5.147,5.147,0,0,1-.5-2.387,5.074,5.074,0,0,1,1.782-4.211,6.7,6.7,0,0,1,4.321-1.423,6.439,6.439,0,0,1,3.613.9,5.517,5.517,0,0,1,1.99,2.179,5.823,5.823,0,0,1,.647,2.429h2.49a8.809,8.809,0,0,0-.928-3.915,7.588,7.588,0,0,0-2.849-3.1,8.976,8.976,0,0,0-4.9-1.215,10.1,10.1,0,0,0-4.407.949,7.471,7.471,0,0,0-3.186,2.876,9.03,9.03,0,0,0-1.192,4.827Zm22.876-1.275a3.288,3.288,0,0,0,.708,2.1,2.22,2.22,0,0,0,1.733.86,2.258,2.258,0,0,0,1.782-.86,3.136,3.136,0,0,0,.732-2.1,3.282,3.282,0,0,0-.732-2.179,2.244,2.244,0,0,0-1.782-.875,2.153,2.153,0,0,0-1.733.875,3.355,3.355,0,0,0-.71,2.179Zm1.1,34.487,2.954-15.479h-3.125l-2.246,15.479Zm28.32-9.994a9.58,9.58,0,0,0,4.016-.786,8.9,8.9,0,0,0,2.856-2,9.483,9.483,0,0,0,1.755-2.6,8.529,8.529,0,0,0,.745-2.609h-2.734a5.729,5.729,0,0,1-.964,2.372,6.217,6.217,0,0,1-2.209,1.972,7.046,7.046,0,0,1-3.467.786,6.52,6.52,0,0,1-5.688-2.906A13.551,13.551,0,0,1,207.5,212.5v-1.72h17.456v-2.52a20.092,20.092,0,0,0-1.282-7.606,10.684,10.684,0,0,0-3.54-4.759,9.145,9.145,0,0,0-10.425,0,10.684,10.684,0,0,0-3.54,4.759,20.092,20.092,0,0,0-1.282,7.606v4.122a19.8,19.8,0,0,0,1.233,7.354,10.438,10.438,0,0,0,3.54,4.744,9.239,9.239,0,0,0,5.553,1.654Zm-7.713-17.91v-.356a16.107,16.107,0,0,1,.928-5.768c1.144-3.112,3.688-5.116,6.494-5.116s5.35,2,6.494,5.116a16.108,16.108,0,0,1,.928,5.768v.356ZM230.908,225.6h2.612v-17.97a15.377,15.377,0,0,1,.854-5.189,8.874,8.874,0,0,1,2.576-3.87,6.4,6.4,0,0,1,4.309-1.467,5.808,5.808,0,0,1,3.577,1.082,6.778,6.778,0,0,1,2.222,3.01,12.125,12.125,0,0,1,.769,4.507v19.9h2.588V204.844q0-5.223-2.429-7.9a8.86,8.86,0,0,0-10.486-1.66,7.522,7.522,0,0,0-2.563,2.52,10.97,10.97,0,0,0-1.27,2.915h-.146v-5.96h-2.612Zm26.416,0h2.588v-17.97a15.18,15.18,0,0,1,.867-5.189,8.911,8.911,0,0,1,2.6-3.87,6.408,6.408,0,0,1,4.3-1.467,5.931,5.931,0,0,1,3.589,1.082,6.734,6.734,0,0,1,2.271,3.024,12.071,12.071,0,0,1,.781,4.522V225.6h2.612V204.874q0-5.223-2.466-7.918a8.732,8.732,0,0,0-10.472-1.646,7.94,7.94,0,0,0-2.649,2.565,10.313,10.313,0,0,0-1.282,2.847h-.146v-17.7h-2.588Zm33.081.533a7.807,7.807,0,0,0,3.845-.875,8.513,8.513,0,0,0,2.55-2.088,9.259,9.259,0,0,0,1.416-2.308h.146V225.6H300.9V203.86a11.365,11.365,0,0,0-1.16-5.466,7.319,7.319,0,0,0-3.162-3.129,10,10,0,0,0-4.565-1.008,11.025,11.025,0,0,0-3.613.549,7.82,7.82,0,0,0-2.71,1.557,7.283,7.283,0,0,0-1.758,2.372,8.5,8.5,0,0,0-.757,2.965h2.563a5.907,5.907,0,0,1,.867-2.15,5.173,5.173,0,0,1,1.953-1.749,6.944,6.944,0,0,1,3.333-.7,6.362,6.362,0,0,1,4.614,1.691,7.105,7.105,0,0,1,1.758,5.308v3.944h-7.422q-4.3,0-6.506,2.429a9.082,9.082,0,0,0-2.209,6.346,9.728,9.728,0,0,0,2.3,6.776,7.672,7.672,0,0,0,5.984,2.536Zm.513-2.876a5.988,5.988,0,0,1-4.321-1.691,6.953,6.953,0,0,1-1.756-4.47,7.172,7.172,0,0,1,1.426-4.64q1.428-1.691,4.6-1.691h7.4V215.1a8.731,8.731,0,0,1-1,4.24,7.6,7.6,0,0,1-2.661,2.876,6.814,6.814,0,0,1-3.688,1.046ZM307.69,225.6h2.61v-17.97a15.376,15.376,0,0,1,.854-5.189,8.875,8.875,0,0,1,2.576-3.87,6.4,6.4,0,0,1,4.309-1.467,5.808,5.808,0,0,1,3.577,1.082,6.779,6.779,0,0,1,2.222,3.01,12.126,12.126,0,0,1,.769,4.507v19.9H327.2V204.844q0-5.223-2.429-7.9a8.86,8.86,0,0,0-10.486-1.66,7.522,7.522,0,0,0-2.563,2.52,10.972,10.972,0,0,0-1.27,2.915H310.3v-5.96h-2.61Zm25.146-12.9a18.771,18.771,0,0,0,1.257,7.264,10.22,10.22,0,0,0,3.54,4.581,9.185,9.185,0,0,0,5.383,1.586,9.5,9.5,0,0,0,5.322-1.349,8.613,8.613,0,0,0,3.064-3.38,10.112,10.112,0,0,0,1.111-4.048H349.95a8.957,8.957,0,0,1-.977,2.773,5.8,5.8,0,0,1-2.148,2.209,7.121,7.121,0,0,1-3.735.86,6.6,6.6,0,0,1-5.6-2.773,12.98,12.98,0,0,1-2.063-7.844v-4.774a13.161,13.161,0,0,1,2.039-7.858,6.67,6.67,0,0,1,11.45.638,9.128,9.128,0,0,1,.94,2.891h2.563a10.214,10.214,0,0,0-1.147-4.314,9.218,9.218,0,0,0-3.137-3.514,9.955,9.955,0,0,0-10.449.177,10.3,10.3,0,0,0-3.564,4.536,17.977,17.977,0,0,0-1.282,7.147Zm26,12.9h2.588V194.762h-2.588Zm-.879-40.12a2.891,2.891,0,0,0,.623,1.853,1.967,1.967,0,0,0,3.1,0,2.821,2.821,0,0,0,.623-1.853,2.905,2.905,0,0,0-.622-1.916,1.946,1.946,0,0,0-1.578-.756,1.906,1.906,0,0,0-1.526.757,2.915,2.915,0,0,0-.618,1.917Zm10.378,40.12h2.612v-17.97a15.376,15.376,0,0,1,.854-5.189,8.874,8.874,0,0,1,2.576-3.87,6.4,6.4,0,0,1,4.309-1.467,5.808,5.808,0,0,1,3.577,1.082,6.778,6.778,0,0,1,2.222,3.01,12.125,12.125,0,0,1,.769,4.507v19.9h2.588V204.844q0-5.223-2.429-7.9a8.86,8.86,0,0,0-10.486-1.66,7.522,7.522,0,0,0-2.563,2.52,10.97,10.97,0,0,0-1.27,2.915h-.146v-5.96h-2.612Zm35.156,8.1a7.515,7.515,0,0,1-3.625-.8,6.211,6.211,0,0,1-2.283-2.016,5.386,5.386,0,0,1-.928-2.461h-2.71a8.906,8.906,0,0,0,1.172,3.855,8.2,8.2,0,0,0,3.1,3.069,10.1,10.1,0,0,0,5.176,1.2,11.762,11.762,0,0,0,4.3-.741,8.708,8.708,0,0,0,3.259-2.195,9.749,9.749,0,0,0,2.075-3.588,15.4,15.4,0,0,0,.72-4.923V194.762H411.23v5.486h-.122a9.171,9.171,0,0,0-1.355-2.609,8.671,8.671,0,0,0-2.625-2.387,7.471,7.471,0,0,0-3.955-.993,8.848,8.848,0,0,0-4.919,1.467,10.277,10.277,0,0,0-3.625,4.344,16.384,16.384,0,0,0-1.367,7.058v4.8a16.478,16.478,0,0,0,1.306,6.85,10.431,10.431,0,0,0,3.552,4.419,8.679,8.679,0,0,0,5.029,1.543,7.593,7.593,0,0,0,3.137-.607,7.987,7.987,0,0,0,2.307-1.527,8.919,8.919,0,0,0,1.538-1.928,9.621,9.621,0,0,0,.854-1.839h.146v6.346a9.3,9.3,0,0,1-1.953,6.213,7.018,7.018,0,0,1-5.687,2.294Zm.049-36.592a6.151,6.151,0,0,1,4.065,1.409,9.045,9.045,0,0,1,2.612,3.736,13.862,13.862,0,0,1,.916,5.115v4.419a13.829,13.829,0,0,1-.867,4.892,9.062,9.062,0,0,1-2.551,3.765,6.124,6.124,0,0,1-4.15,1.458c-2.835.063-5.441-1.881-6.677-4.98a14.6,14.6,0,0,1-1.013-5.693V207.9a15.166,15.166,0,0,1,1.025-5.916,8.274,8.274,0,0,1,2.771-3.644,6.566,6.566,0,0,1,3.869-1.24Zm36.182-2.847a9.44,9.44,0,0,0-5.359,1.586,10.719,10.719,0,0,0-3.76,4.6,17.569,17.569,0,0,0-1.379,7.338v4.858a17.629,17.629,0,0,0,1.379,7.383,10.528,10.528,0,0,0,3.76,4.552,9.57,9.57,0,0,0,5.359,1.557,9.471,9.471,0,0,0,5.322-1.557,10.722,10.722,0,0,0,3.772-4.552,17.364,17.364,0,0,0,1.4-7.383v-4.858a17.489,17.489,0,0,0-1.4-7.383,10.662,10.662,0,0,0-3.784-4.581,9.488,9.488,0,0,0-5.31-1.556Zm0,2.847a6.719,6.719,0,0,1,4.077,1.3,8.558,8.558,0,0,1,2.8,3.781,15.783,15.783,0,0,1,1.013,5.975v4.122a15.932,15.932,0,0,1-1,5.99A8.224,8.224,0,0,1,443.841,222a6.865,6.865,0,0,1-4.089,1.261,6.94,6.94,0,0,1-4.15-1.275,8.215,8.215,0,0,1-2.771-3.721,15.988,15.988,0,0,1-.989-5.974v-4.122a15.758,15.758,0,0,1,1.013-5.99,8.566,8.566,0,0,1,2.8-3.765A6.72,6.72,0,0,1,439.722,197.1Zm16.772,28.5h2.612v-19.19a12.033,12.033,0,0,1,.928-4.98,7.1,7.1,0,0,1,2.563-3.113,6.635,6.635,0,0,1,3.711-1.068,10.438,10.438,0,0,1,1.343.074q.562.074.806.134v-3q-.293-.06-.769-.121a8.871,8.871,0,0,0-1.086-.06,7.012,7.012,0,0,0-3.882.994,7.282,7.282,0,0,0-2.368,2.39,8.863,8.863,0,0,0-1.1,2.639h-.146V194.76h-2.612Zm24.048,8.1a7.515,7.515,0,0,1-3.625-.8,6.211,6.211,0,0,1-2.283-2.016,5.386,5.386,0,0,1-.928-2.461H471a8.906,8.906,0,0,0,1.172,3.855,8.2,8.2,0,0,0,3.1,3.069,10.1,10.1,0,0,0,5.176,1.2,11.762,11.762,0,0,0,4.3-.741,8.713,8.713,0,0,0,3.252-2.2,9.748,9.748,0,0,0,2.075-3.588,15.4,15.4,0,0,0,.72-4.923V194.762H488.28v5.486h-.122a9.171,9.171,0,0,0-1.355-2.609,8.671,8.671,0,0,0-2.625-2.387,7.471,7.471,0,0,0-3.955-.993,8.848,8.848,0,0,0-4.919,1.467,10.278,10.278,0,0,0-3.625,4.345,16.383,16.383,0,0,0-1.367,7.058v4.8a16.479,16.479,0,0,0,1.306,6.85,10.432,10.432,0,0,0,3.552,4.419,8.679,8.679,0,0,0,5.029,1.543,7.593,7.593,0,0,0,3.137-.607,7.987,7.987,0,0,0,2.307-1.527,8.919,8.919,0,0,0,1.538-1.928,9.623,9.623,0,0,0,.854-1.839h.146v6.346a9.3,9.3,0,0,1-1.953,6.213,7.019,7.019,0,0,1-5.686,2.294Zm.049-36.592a6.151,6.151,0,0,1,4.065,1.409,9.045,9.045,0,0,1,2.612,3.736,13.862,13.862,0,0,1,.916,5.115v4.419a13.828,13.828,0,0,1-.867,4.892,9.062,9.062,0,0,1-2.551,3.765,6.124,6.124,0,0,1-4.15,1.458c-2.835.063-5.441-1.881-6.677-4.98a14.6,14.6,0,0,1-1.013-5.693V207.9a15.166,15.166,0,0,1,1.025-5.916,8.274,8.274,0,0,1,2.771-3.644,6.566,6.566,0,0,1,3.869-1.24ZM505,226.134a7.807,7.807,0,0,0,3.845-.875,8.507,8.507,0,0,0,2.555-2.088,9.26,9.26,0,0,0,1.416-2.308h.146V225.6H515.5V203.86a11.364,11.364,0,0,0-1.16-5.466,7.319,7.319,0,0,0-3.162-3.129,10,10,0,0,0-4.565-1.008,11.026,11.026,0,0,0-3.613.549,7.82,7.82,0,0,0-2.71,1.557,7.283,7.283,0,0,0-1.758,2.372,8.5,8.5,0,0,0-.757,2.965h2.563a5.908,5.908,0,0,1,.867-2.15,5.173,5.173,0,0,1,1.953-1.749,6.944,6.944,0,0,1,3.333-.7,6.362,6.362,0,0,1,4.614,1.691,7.105,7.105,0,0,1,1.758,5.308v3.944h-7.422q-4.3,0-6.506,2.429a9.082,9.082,0,0,0-2.209,6.346,9.728,9.728,0,0,0,2.3,6.776A7.673,7.673,0,0,0,505,226.134Zm.513-2.876a5.988,5.988,0,0,1-4.321-1.691,6.953,6.953,0,0,1-1.756-4.47,7.172,7.172,0,0,1,1.426-4.64q1.428-1.691,4.6-1.691h7.4V215.1a8.734,8.734,0,0,1-1,4.24,7.6,7.6,0,0,1-2.661,2.876,6.814,6.814,0,0,1-3.683,1.046ZM522.29,225.6h2.61v-17.97a15.377,15.377,0,0,1,.854-5.189,8.875,8.875,0,0,1,2.576-3.87,6.4,6.4,0,0,1,4.309-1.467,5.808,5.808,0,0,1,3.577,1.082,6.778,6.778,0,0,1,2.222,3.01,12.124,12.124,0,0,1,.769,4.507v19.9H541.8V204.844q0-5.223-2.429-7.9a8.86,8.86,0,0,0-10.486-1.66,7.522,7.522,0,0,0-2.563,2.52,10.971,10.971,0,0,0-1.27,2.915H524.9v-5.96h-2.61Zm26.9,0h2.588V194.762H549.19Zm-.879-40.12a2.892,2.892,0,0,0,.623,1.853,1.967,1.967,0,0,0,3.1,0,2.821,2.821,0,0,0,.623-1.853,2.906,2.906,0,0,0-.622-1.916,1.946,1.946,0,0,0-1.578-.756,1.906,1.906,0,0,0-1.526.757,2.916,2.916,0,0,0-.616,1.917Zm9.326,17.435a7.766,7.766,0,0,0,1.074,4.345,7.165,7.165,0,0,0,2.979,2.52,29.186,29.186,0,0,0,4.346,1.617,31.32,31.32,0,0,1,3.43,1.093,6.5,6.5,0,0,1,2.588,1.749,4.669,4.669,0,0,1,.989,3.172,5.869,5.869,0,0,1-.854,3.232,5.515,5.515,0,0,1-2.38,2.047,8.379,8.379,0,0,1-3.577.712,7.439,7.439,0,0,1-3.87-.874,5.908,5.908,0,0,1-2.869-4.818H556.93a8.64,8.64,0,0,0,1.013,4.106,7.831,7.831,0,0,0,3.064,3.113,10.05,10.05,0,0,0,5.151,1.2,11.064,11.064,0,0,0,4.8-1.023,8.024,8.024,0,0,0,3.43-3.036,9.248,9.248,0,0,0,1.27-5.011,7.5,7.5,0,0,0-1.208-4.552,7.7,7.7,0,0,0-3.21-2.477,30.777,30.777,0,0,0-4.4-1.483,26.13,26.13,0,0,1-2.612-.85,9.292,9.292,0,0,1-2.087-1.093,4.481,4.481,0,0,1-1.392-1.6,5.147,5.147,0,0,1-.5-2.387,5.074,5.074,0,0,1,1.782-4.211,6.7,6.7,0,0,1,4.321-1.423,6.438,6.438,0,0,1,3.613.9,5.517,5.517,0,0,1,1.99,2.179,5.825,5.825,0,0,1,.647,2.429h2.49a8.809,8.809,0,0,0-.928-3.915,7.6,7.6,0,0,0-2.844-3.113,8.975,8.975,0,0,0-4.9-1.215,10.1,10.1,0,0,0-4.407.949,7.472,7.472,0,0,0-3.186,2.876,9.032,9.032,0,0,0-1.19,4.838Zm30.444,23.218a7.807,7.807,0,0,0,3.845-.875,8.513,8.513,0,0,0,2.556-2.088,9.258,9.258,0,0,0,1.416-2.308h.146V225.6h2.539V203.86a11.364,11.364,0,0,0-1.16-5.466,7.319,7.319,0,0,0-3.162-3.129,10.006,10.006,0,0,0-4.565-1.008,11.026,11.026,0,0,0-3.613.549,7.82,7.82,0,0,0-2.71,1.557,7.282,7.282,0,0,0-1.758,2.372,8.5,8.5,0,0,0-.757,2.965h2.563a5.908,5.908,0,0,1,.867-2.15,5.173,5.173,0,0,1,1.953-1.749,6.944,6.944,0,0,1,3.333-.7,6.362,6.362,0,0,1,4.614,1.691,7.1,7.1,0,0,1,1.758,5.308v3.944h-7.422q-4.3,0-6.506,2.429a9.082,9.082,0,0,0-2.209,6.346A9.728,9.728,0,0,0,582.1,223.6a7.673,7.673,0,0,0,5.982,2.536Zm.513-2.876a5.988,5.988,0,0,1-4.321-1.691,6.953,6.953,0,0,1-1.756-4.47,7.172,7.172,0,0,1,1.425-4.64q1.428-1.691,4.6-1.691h7.4V215.1a8.734,8.734,0,0,1-1,4.24,7.6,7.6,0,0,1-2.661,2.876,6.815,6.815,0,0,1-3.682,1.046Zm18.164-28.5h-4.541v2.7h4.541v20.52a15.51,15.51,0,0,0,.549,4.536,4.28,4.28,0,0,0,1.99,2.565,8.411,8.411,0,0,0,4.1.815q.586,0,1.55-.089t1.355-.148v-2.732q-.366.029-1.147.1t-1.27.074a4.748,4.748,0,0,1-3.552-1.053q-.989-1.053-.989-3.958V197.46h6.567v-2.7h-6.567v-7.591h-2.588ZM621.021,225.6h2.588V194.762h-2.588Zm-.879-40.12a2.892,2.892,0,0,0,.623,1.853,1.966,1.966,0,0,0,3.1,0,2.82,2.82,0,0,0,.623-1.853,2.906,2.906,0,0,0-.622-1.916,1.946,1.946,0,0,0-1.578-.756,1.906,1.906,0,0,0-1.526.757,2.914,2.914,0,0,0-.62,1.917Zm19.7,8.778a9.44,9.44,0,0,0-5.359,1.586,10.721,10.721,0,0,0-3.76,4.6,17.569,17.569,0,0,0-1.379,7.338v4.858a17.628,17.628,0,0,0,1.379,7.383,10.528,10.528,0,0,0,3.76,4.552,9.57,9.57,0,0,0,5.359,1.557,9.471,9.471,0,0,0,5.322-1.557,10.723,10.723,0,0,0,3.772-4.552,17.366,17.366,0,0,0,1.4-7.383v-4.858a17.489,17.489,0,0,0-1.4-7.383,10.661,10.661,0,0,0-3.784-4.581,9.488,9.488,0,0,0-5.308-1.557Zm0,2.847a6.719,6.719,0,0,1,4.077,1.3,8.558,8.558,0,0,1,2.8,3.781,15.783,15.783,0,0,1,1.013,5.975v4.122a15.931,15.931,0,0,1-1,5.99A8.223,8.223,0,0,1,643.961,222a6.865,6.865,0,0,1-4.089,1.261,6.941,6.941,0,0,1-4.15-1.275,8.214,8.214,0,0,1-2.771-3.721,15.987,15.987,0,0,1-.989-5.975v-4.122a15.759,15.759,0,0,1,1.013-5.99,8.565,8.565,0,0,1,2.8-3.765,6.721,6.721,0,0,1,4.069-1.307ZM656.4,225.6h2.612v-17.97a15.379,15.379,0,0,1,.854-5.189,8.874,8.874,0,0,1,2.576-3.87,6.4,6.4,0,0,1,4.309-1.467,5.808,5.808,0,0,1,3.577,1.082,6.778,6.778,0,0,1,2.222,3.01,12.125,12.125,0,0,1,.769,4.507v19.9H675.9V204.844q0-5.223-2.429-7.9a8.86,8.86,0,0,0-10.486-1.66,7.523,7.523,0,0,0-2.563,2.52,10.971,10.971,0,0,0-1.27,2.915h-.146v-5.96H656.4Zm33.081.533a7.807,7.807,0,0,0,3.845-.875,8.52,8.52,0,0,0,2.548-2.088,9.26,9.26,0,0,0,1.416-2.308h.146V225.6h2.539V203.86a11.364,11.364,0,0,0-1.16-5.466,7.319,7.319,0,0,0-3.162-3.129,10.005,10.005,0,0,0-4.565-1.008,11.027,11.027,0,0,0-3.613.549,7.82,7.82,0,0,0-2.71,1.557,7.283,7.283,0,0,0-1.758,2.372,8.5,8.5,0,0,0-.757,2.965h2.563a5.905,5.905,0,0,1,.867-2.15,5.172,5.172,0,0,1,1.953-1.749,6.943,6.943,0,0,1,3.333-.7,6.362,6.362,0,0,1,4.614,1.691,7.105,7.105,0,0,1,1.758,5.308v3.944h-7.422q-4.3,0-6.506,2.429a9.082,9.082,0,0,0-2.209,6.346,9.728,9.728,0,0,0,2.3,6.776,7.672,7.672,0,0,0,5.982,2.536Zm.513-2.876a5.988,5.988,0,0,1-4.321-1.691,6.953,6.953,0,0,1-1.756-4.47,7.172,7.172,0,0,1,1.425-4.64q1.428-1.691,4.6-1.691h7.4V215.1a8.733,8.733,0,0,1-1,4.24,7.6,7.6,0,0,1-2.661,2.876,6.814,6.814,0,0,1-3.692,1.046ZM707.08,225.6h2.612V183.019H707.08ZM13.745,311.154a9.581,9.581,0,0,0,4.016-.786,8.9,8.9,0,0,0,2.856-2,9.479,9.479,0,0,0,1.758-2.6,8.53,8.53,0,0,0,.745-2.609H20.386a5.729,5.729,0,0,1-.964,2.372,6.217,6.217,0,0,1-2.209,1.972,7.046,7.046,0,0,1-3.467.786,6.52,6.52,0,0,1-5.688-2.907,13.551,13.551,0,0,1-2.026-7.858V295.8H23.486v-2.52a20.092,20.092,0,0,0-1.282-7.606,10.684,10.684,0,0,0-3.54-4.759,8.662,8.662,0,0,0-5.212-1.631,8.661,8.661,0,0,0-5.212,1.631,10.684,10.684,0,0,0-3.54,4.759,20.092,20.092,0,0,0-1.282,7.606V297.4a19.8,19.8,0,0,0,1.233,7.354,10.438,10.438,0,0,0,3.54,4.744A9.238,9.238,0,0,0,13.745,311.154ZM6.03,293.244v-.356a16.107,16.107,0,0,1,.928-5.768c1.1-3.138,3.686-5.124,6.494-5a6.189,6.189,0,0,1,3.894,1.29,8.3,8.3,0,0,1,2.6,3.707,16.107,16.107,0,0,1,.928,5.768v.356Zm23.413,17.377h2.612v-17.97a15.377,15.377,0,0,1,.854-5.189,8.874,8.874,0,0,1,2.576-3.87,6.4,6.4,0,0,1,4.309-1.467,5.808,5.808,0,0,1,3.577,1.082,6.777,6.777,0,0,1,2.222,3.01,12.125,12.125,0,0,1,.769,4.507v19.9H48.95V289.864q0-5.223-2.429-7.9a8.017,8.017,0,0,0-6.238-2.683,7.971,7.971,0,0,0-4.248,1.023,7.523,7.523,0,0,0-2.563,2.52,10.97,10.97,0,0,0-1.27,2.915h-.146v-5.96H29.443Zm35.157,8.1a7.514,7.514,0,0,1-3.625-.8,6.211,6.211,0,0,1-2.283-2.016,5.386,5.386,0,0,1-.928-2.461h-2.71a8.9,8.9,0,0,0,1.172,3.855,8.2,8.2,0,0,0,3.1,3.069,10.1,10.1,0,0,0,5.176,1.2,11.763,11.763,0,0,0,4.3-.741,8.708,8.708,0,0,0,3.259-2.195,9.748,9.748,0,0,0,2.075-3.588,15.4,15.4,0,0,0,.72-4.923V279.782H72.339v5.486h-.122a9.171,9.171,0,0,0-1.355-2.609,8.67,8.67,0,0,0-2.625-2.387,7.471,7.471,0,0,0-3.955-.994,8.847,8.847,0,0,0-4.919,1.467,10.278,10.278,0,0,0-3.625,4.345,16.384,16.384,0,0,0-1.367,7.058v4.8a16.477,16.477,0,0,0,1.306,6.85,10.432,10.432,0,0,0,3.552,4.419,8.679,8.679,0,0,0,5.029,1.542,7.592,7.592,0,0,0,3.137-.607A7.988,7.988,0,0,0,69.7,307.63,8.919,8.919,0,0,0,71.24,305.7a9.623,9.623,0,0,0,.854-1.839h.146v6.346a9.3,9.3,0,0,1-1.953,6.213,7.019,7.019,0,0,1-5.687,2.294Zm.049-36.591a6.151,6.151,0,0,1,4.065,1.409,9.045,9.045,0,0,1,2.612,3.736,13.862,13.862,0,0,1,.916,5.115V296.8a13.828,13.828,0,0,1-.867,4.892,9.063,9.063,0,0,1-2.551,3.765,6.123,6.123,0,0,1-4.15,1.457c-2.835.063-5.441-1.881-6.677-4.98a14.6,14.6,0,0,1-1.013-5.693v-3.321a15.165,15.165,0,0,1,1.025-5.916,8.273,8.273,0,0,1,2.771-3.644,6.566,6.566,0,0,1,3.868-1.24Zm24.414,29.028a7.808,7.808,0,0,0,3.845-.874,8.51,8.51,0,0,0,2.551-2.087,9.26,9.26,0,0,0,1.416-2.308h.146v4.737H99.56V288.88a11.365,11.365,0,0,0-1.16-5.466,7.319,7.319,0,0,0-3.162-3.129,10.006,10.006,0,0,0-4.565-1.008,11.025,11.025,0,0,0-3.613.549,7.82,7.82,0,0,0-2.71,1.557,7.284,7.284,0,0,0-1.758,2.372,8.5,8.5,0,0,0-.757,2.965H84.4a5.907,5.907,0,0,1,.867-2.15,5.173,5.173,0,0,1,1.953-1.749,6.944,6.944,0,0,1,3.333-.7,6.362,6.362,0,0,1,4.614,1.691,7.1,7.1,0,0,1,1.758,5.308v3.944H89.5q-4.3,0-6.506,2.429a9.082,9.082,0,0,0-2.209,6.346,9.728,9.728,0,0,0,2.295,6.776,7.672,7.672,0,0,0,5.983,2.536Zm.513-2.876a5.988,5.988,0,0,1-4.321-1.691,6.953,6.953,0,0,1-1.756-4.47,7.172,7.172,0,0,1,1.426-4.64q1.428-1.691,4.6-1.691h7.4v4.329a8.732,8.732,0,0,1-1,4.24,7.6,7.6,0,0,1-2.661,2.876,6.814,6.814,0,0,1-3.689,1.047Zm25.61,10.438a7.515,7.515,0,0,1-3.625-.8,6.211,6.211,0,0,1-2.283-2.016,5.386,5.386,0,0,1-.928-2.461h-2.71a8.906,8.906,0,0,0,1.172,3.855,8.2,8.2,0,0,0,3.1,3.069,10.1,10.1,0,0,0,5.176,1.2,11.762,11.762,0,0,0,4.3-.741,8.708,8.708,0,0,0,3.259-2.195,9.747,9.747,0,0,0,2.075-3.588,15.4,15.4,0,0,0,.72-4.923V279.782h-2.515v5.486H122.8a9.171,9.171,0,0,0-1.355-2.609,8.67,8.67,0,0,0-2.625-2.387,7.471,7.471,0,0,0-3.955-.994,8.847,8.847,0,0,0-4.919,1.467,10.278,10.278,0,0,0-3.625,4.345,16.384,16.384,0,0,0-1.367,7.058v4.8a16.478,16.478,0,0,0,1.306,6.85,10.432,10.432,0,0,0,3.552,4.419,8.679,8.679,0,0,0,5.029,1.542,7.592,7.592,0,0,0,3.137-.607,7.988,7.988,0,0,0,2.307-1.527,8.919,8.919,0,0,0,1.538-1.928,9.623,9.623,0,0,0,.854-1.839h.146v6.346a9.3,9.3,0,0,1-1.953,6.213,7.019,7.019,0,0,1-5.684,2.294Zm.049-36.591a6.151,6.151,0,0,1,4.065,1.409,9.045,9.045,0,0,1,2.612,3.736,13.862,13.862,0,0,1,.916,5.115V296.8a13.828,13.828,0,0,1-.867,4.892,9.063,9.063,0,0,1-2.551,3.765,6.124,6.124,0,0,1-4.15,1.457c-2.835.063-5.441-1.881-6.677-4.98a14.6,14.6,0,0,1-1.013-5.693v-3.321a15.164,15.164,0,0,1,1.025-5.916,8.274,8.274,0,0,1,2.771-3.644,6.566,6.566,0,0,1,3.868-1.239Zm26.831,29.028a9.581,9.581,0,0,0,4.016-.786,8.9,8.9,0,0,0,2.856-2,9.471,9.471,0,0,0,1.762-2.6,8.529,8.529,0,0,0,.745-2.609h-2.734a5.729,5.729,0,0,1-.964,2.372,6.217,6.217,0,0,1-2.209,1.972,7.046,7.046,0,0,1-3.467.786,6.52,6.52,0,0,1-5.688-2.907,13.551,13.551,0,0,1-2.026-7.858V295.8h17.456v-2.52a20.092,20.092,0,0,0-1.282-7.606,10.684,10.684,0,0,0-3.54-4.759,9.145,9.145,0,0,0-10.425,0,10.684,10.684,0,0,0-3.54,4.759,20.092,20.092,0,0,0-1.282,7.606V297.4a19.8,19.8,0,0,0,1.233,7.354,10.438,10.438,0,0,0,3.54,4.744,9.239,9.239,0,0,0,5.548,1.654Zm-7.715-17.91v-.353a16.107,16.107,0,0,1,.928-5.768c1.144-3.112,3.688-5.116,6.494-5.116s5.35,2,6.494,5.116a16.107,16.107,0,0,1,.928,5.768v.356Zm23.413,17.379h2.612V290.843a12.037,12.037,0,0,1,.769-4.4c1.018-2.722,3.29-4.427,5.75-4.314a5.617,5.617,0,0,1,3.32.979,6.176,6.176,0,0,1,2.136,2.787,11.272,11.272,0,0,1,.745,4.3v20.429h2.612v-20.04a10.848,10.848,0,0,1,.793-4.2,7.526,7.526,0,0,1,2.271-3.084,5.5,5.5,0,0,1,3.528-1.171,5.732,5.732,0,0,1,3.259.919,5.851,5.851,0,0,1,2.124,2.683,11.021,11.021,0,0,1,.745,4.285v20.6h2.612V289.183q0-4.892-2.295-7.4a7.715,7.715,0,0,0-5.981-2.506,7.2,7.2,0,0,0-3.918,1.008,7.855,7.855,0,0,0-2.515,2.461,10.476,10.476,0,0,0-1.282,2.787H174.9a7.954,7.954,0,0,0-3.723-5.4,7.174,7.174,0,0,0-3.625-.86,6.741,6.741,0,0,0-3.8.963,6.821,6.821,0,0,0-2.209,2.283,9.348,9.348,0,0,0-1.025,2.446h-.146v-5.189H157.76Zm49.365.533a9.581,9.581,0,0,0,4.016-.786,8.9,8.9,0,0,0,2.855-2,9.479,9.479,0,0,0,1.759-2.605,8.528,8.528,0,0,0,.745-2.609H213.77a5.729,5.729,0,0,1-.964,2.372A6.218,6.218,0,0,1,210.6,307.5a7.046,7.046,0,0,1-3.467.786,6.52,6.52,0,0,1-5.688-2.907,13.551,13.551,0,0,1-2.026-7.858V295.8H216.87v-2.52a20.092,20.092,0,0,0-1.282-7.606,10.684,10.684,0,0,0-3.54-4.759,9.145,9.145,0,0,0-10.425,0,10.684,10.684,0,0,0-3.54,4.759,20.092,20.092,0,0,0-1.282,7.606V297.4a19.8,19.8,0,0,0,1.233,7.354,10.438,10.438,0,0,0,3.54,4.744A9.238,9.238,0,0,0,207.129,311.154Zm-7.715-17.91v-.356a16.107,16.107,0,0,1,.928-5.768c1.144-3.112,3.688-5.116,6.494-5.116s5.35,2,6.494,5.116a16.107,16.107,0,0,1,.928,5.768v.356Zm23.413,17.377h2.612v-17.97a15.377,15.377,0,0,1,.854-5.189,8.874,8.874,0,0,1,2.576-3.87,6.4,6.4,0,0,1,4.309-1.467,5.808,5.808,0,0,1,3.577,1.082,6.777,6.777,0,0,1,2.222,3.01,12.125,12.125,0,0,1,.769,4.507v19.9h2.588V289.864q0-5.223-2.429-7.9a8.86,8.86,0,0,0-10.486-1.66,7.522,7.522,0,0,0-2.563,2.52,10.97,10.97,0,0,0-1.27,2.915h-.146v-5.96h-2.612Zm27.71-30.839H246v2.7h4.541V303a15.51,15.51,0,0,0,.549,4.536,4.281,4.281,0,0,0,1.99,2.565,8.411,8.411,0,0,0,4.1.815q.586,0,1.55-.089t1.355-.148v-2.732q-.366.029-1.147.1t-1.27.074a4.748,4.748,0,0,1-3.552-1.053q-.989-1.053-.989-3.958V282.481h6.567v-2.7h-6.567v-7.591h-2.588Zm14.4,41.366,2.954-15.479h-3.125l-2.246,15.479Zm17.119-10.527h2.612v-19.19a12.033,12.033,0,0,1,.928-4.98,7.1,7.1,0,0,1,2.563-3.113,6.634,6.634,0,0,1,3.711-1.068,10.438,10.438,0,0,1,1.343.074q.562.074.806.134v-3q-.293-.06-.769-.121a8.878,8.878,0,0,0-1.086-.06,7.012,7.012,0,0,0-3.882.993,7.281,7.281,0,0,0-2.369,2.39,8.863,8.863,0,0,0-1.1,2.639h-.146v-5.545h-2.612Zm24.39.533a9.581,9.581,0,0,0,4.016-.786,8.9,8.9,0,0,0,2.856-2,9.48,9.48,0,0,0,1.758-2.6,8.53,8.53,0,0,0,.745-2.609h-2.734a5.73,5.73,0,0,1-.964,2.372,6.217,6.217,0,0,1-2.209,1.972,7.046,7.046,0,0,1-3.467.786,6.52,6.52,0,0,1-5.688-2.906,13.551,13.551,0,0,1-2.026-7.858V295.8h17.456v-2.52a20.091,20.091,0,0,0-1.282-7.606,10.684,10.684,0,0,0-3.54-4.759,9.145,9.145,0,0,0-10.425,0,10.684,10.684,0,0,0-3.54,4.759,20.092,20.092,0,0,0-1.282,7.606V297.4a19.8,19.8,0,0,0,1.233,7.354,10.438,10.438,0,0,0,3.54,4.744,9.238,9.238,0,0,0,5.552,1.654Zm-7.715-17.91v-.356a16.107,16.107,0,0,1,.928-5.768c1.144-3.112,3.688-5.116,6.494-5.116s5.35,2,6.494,5.116a16.107,16.107,0,0,1,.928,5.768v.356Zm31.982-13.968a8.628,8.628,0,0,0-4.932,1.5,10.3,10.3,0,0,0-3.54,4.345,16.541,16.541,0,0,0-1.318,6.968v6.256a17.083,17.083,0,0,0,1.233,6.76,10.3,10.3,0,0,0,3.43,4.448,8.458,8.458,0,0,0,5.054,1.572,7.991,7.991,0,0,0,3.247-.623,8.724,8.724,0,0,0,2.441-1.572,8.517,8.517,0,0,0,1.636-2.016,6.984,6.984,0,0,0,.806-1.987h.146v5.7h2.49V268.039h-2.588v17.2h-.146a9.211,9.211,0,0,0-1.416-2.773,7.738,7.738,0,0,0-6.543-3.186Zm.269,2.847c2.883-.1,5.552,1.838,6.848,4.966a12.976,12.976,0,0,1,.989,5.174v5.575a14.3,14.3,0,0,1-.928,5.248,8.954,8.954,0,0,1-2.661,3.781,6.772,6.772,0,0,1-8.069.148,8.255,8.255,0,0,1-2.661-3.662,15.621,15.621,0,0,1-.964-5.812v-4.654a15.56,15.56,0,0,1,1-5.96,8.119,8.119,0,0,1,2.686-3.6,6.323,6.323,0,0,1,3.759-1.2Zm36.987-2.343h-2.612v18.978a11.651,11.651,0,0,1-.928,4.615,8.8,8.8,0,0,1-2.661,3.543,6.966,6.966,0,0,1-7.544.475,5.967,5.967,0,0,1-2.3-2.672,10.443,10.443,0,0,1-.83-4.419V279.782h-2.612v21.231a12.634,12.634,0,0,0,1.147,5.783,7.579,7.579,0,0,0,3.1,3.292,9.056,9.056,0,0,0,4.419,1.068,7.7,7.7,0,0,0,4.028-.993,8.345,8.345,0,0,0,2.649-2.429,9.6,9.6,0,0,0,1.379-2.832h.146v5.722h2.612Zm5.811,17.94a18.771,18.771,0,0,0,1.257,7.264,10.22,10.22,0,0,0,3.54,4.581,9.186,9.186,0,0,0,5.383,1.586,9.5,9.5,0,0,0,5.322-1.349,8.613,8.613,0,0,0,3.064-3.38,10.112,10.112,0,0,0,1.111-4.048h-2.563a8.957,8.957,0,0,1-.977,2.773,5.8,5.8,0,0,1-2.148,2.209,7.121,7.121,0,0,1-3.735.86,6.6,6.6,0,0,1-5.6-2.773,12.98,12.98,0,0,1-2.063-7.844v-4.774a13.161,13.161,0,0,1,2.039-7.858,6.67,6.67,0,0,1,11.45.638,9.127,9.127,0,0,1,.94,2.891h2.563a10.214,10.214,0,0,0-1.147-4.314,9.219,9.219,0,0,0-3.137-3.514,9.955,9.955,0,0,0-10.449.177,10.3,10.3,0,0,0-3.564,4.536,17.976,17.976,0,0,0-1.282,7.147Zm26,12.9h2.588V279.782H399.78ZM398.9,270.5a2.891,2.891,0,0,0,.623,1.853,1.967,1.967,0,0,0,3.1,0,2.821,2.821,0,0,0,.623-1.853,2.906,2.906,0,0,0-.622-1.916,1.946,1.946,0,0,0-1.578-.756,1.906,1.906,0,0,0-1.526.757,2.914,2.914,0,0,0-.621,1.918Zm10.376,40.121h2.612v-17.97a15.377,15.377,0,0,1,.854-5.189,8.875,8.875,0,0,1,2.576-3.87,6.4,6.4,0,0,1,4.309-1.467,5.808,5.808,0,0,1,3.577,1.082,6.779,6.779,0,0,1,2.222,3.01,12.125,12.125,0,0,1,.769,4.507v19.9h2.588V289.864q0-5.223-2.429-7.9a8.86,8.86,0,0,0-10.486-1.66,7.523,7.523,0,0,0-2.563,2.52,10.97,10.97,0,0,0-1.27,2.915h-.146v-5.96h-2.612Zm35.156,8.1a7.514,7.514,0,0,1-3.625-.8,6.211,6.211,0,0,1-2.283-2.016,5.386,5.386,0,0,1-.928-2.461h-2.71a8.906,8.906,0,0,0,1.172,3.855,8.2,8.2,0,0,0,3.1,3.069,10.1,10.1,0,0,0,5.176,1.2,11.762,11.762,0,0,0,4.3-.741,8.708,8.708,0,0,0,3.259-2.195,9.747,9.747,0,0,0,2.075-3.588,15.4,15.4,0,0,0,.72-4.923V279.782h-2.515v5.486h-.122a9.171,9.171,0,0,0-1.355-2.609,8.67,8.67,0,0,0-2.625-2.387,7.471,7.471,0,0,0-3.955-.994,8.846,8.846,0,0,0-4.917,1.464,10.278,10.278,0,0,0-3.625,4.345,16.384,16.384,0,0,0-1.367,7.058v4.8a16.478,16.478,0,0,0,1.306,6.85,10.431,10.431,0,0,0,3.552,4.419,8.679,8.679,0,0,0,5.029,1.542,7.593,7.593,0,0,0,3.137-.607,7.987,7.987,0,0,0,2.307-1.527,8.919,8.919,0,0,0,1.538-1.928,9.622,9.622,0,0,0,.854-1.839h.146v6.346a9.3,9.3,0,0,1-1.953,6.213,7.02,7.02,0,0,1-5.69,2.3Zm.049-36.591a6.151,6.151,0,0,1,4.065,1.409,9.045,9.045,0,0,1,2.612,3.736,13.862,13.862,0,0,1,.916,5.115V296.8a13.829,13.829,0,0,1-.867,4.892,9.062,9.062,0,0,1-2.551,3.765,6.123,6.123,0,0,1-4.15,1.458c-2.835.063-5.441-1.881-6.677-4.98a14.6,14.6,0,0,1-1.013-5.693v-3.321a15.165,15.165,0,0,1,1.025-5.916,8.274,8.274,0,0,1,2.771-3.644A6.566,6.566,0,0,1,444.482,282.125Zm27.076,28.5h2.612v-19.19a12.033,12.033,0,0,1,.928-4.98,7.1,7.1,0,0,1,2.563-3.113,6.635,6.635,0,0,1,3.711-1.068,10.438,10.438,0,0,1,1.343.074q.562.074.806.134v-3q-.293-.06-.769-.121a8.878,8.878,0,0,0-1.086-.06,7.012,7.012,0,0,0-3.882.993,7.281,7.281,0,0,0-2.369,2.39,8.864,8.864,0,0,0-1.1,2.639h-.146v-5.545h-2.612Zm16.284,0h2.588V279.782h-2.588Zm-.879-40.12a2.892,2.892,0,0,0,.623,1.853,1.967,1.967,0,0,0,3.1,0,2.821,2.821,0,0,0,.623-1.853,2.905,2.905,0,0,0-.622-1.916,1.946,1.946,0,0,0-1.578-.756,1.906,1.906,0,0,0-1.526.757A2.914,2.914,0,0,0,486.963,270.5Zm9.326,17.435a7.765,7.765,0,0,0,1.074,4.345,7.165,7.165,0,0,0,2.979,2.52,29.188,29.188,0,0,0,4.346,1.617,31.317,31.317,0,0,1,3.43,1.093,6.5,6.5,0,0,1,2.588,1.749,4.669,4.669,0,0,1,.989,3.172,5.87,5.87,0,0,1-.854,3.232,5.516,5.516,0,0,1-2.38,2.047,8.38,8.38,0,0,1-3.577.712,7.438,7.438,0,0,1-3.87-.875,5.908,5.908,0,0,1-2.869-4.818h-2.563a8.64,8.64,0,0,0,1.013,4.107,7.831,7.831,0,0,0,3.064,3.113,10.049,10.049,0,0,0,5.151,1.2,11.064,11.064,0,0,0,4.8-1.023,8.024,8.024,0,0,0,3.43-3.036,9.248,9.248,0,0,0,1.27-5.011,7.5,7.5,0,0,0-1.208-4.552,7.7,7.7,0,0,0-3.21-2.477,30.761,30.761,0,0,0-4.4-1.483,26.131,26.131,0,0,1-2.612-.85,9.294,9.294,0,0,1-2.087-1.093,4.479,4.479,0,0,1-1.392-1.6,5.147,5.147,0,0,1-.5-2.387,5.074,5.074,0,0,1,1.782-4.211A6.7,6.7,0,0,1,505,282.006a6.438,6.438,0,0,1,3.613.9,5.518,5.518,0,0,1,1.99,2.179,5.824,5.824,0,0,1,.647,2.429h2.49a8.809,8.809,0,0,0-.928-3.915,7.6,7.6,0,0,0-2.844-3.113,8.976,8.976,0,0,0-4.9-1.215,10.1,10.1,0,0,0-4.407.949,7.472,7.472,0,0,0-3.186,2.876,9.034,9.034,0,0,0-1.186,4.835Zm26.367,10.438,3.149-3.588,10.084,15.834h3.2L527.736,292.74,538.4,279.782h-3.174l-12.451,14.939h-.122V268.039h-2.588v42.582h2.588Zm36.084,12.78a7.807,7.807,0,0,0,3.845-.875,8.509,8.509,0,0,0,2.552-2.088,9.259,9.259,0,0,0,1.416-2.308h.146v4.737h2.539V288.88a11.364,11.364,0,0,0-1.16-5.466,7.319,7.319,0,0,0-3.162-3.129,10.005,10.005,0,0,0-4.565-1.008,11.025,11.025,0,0,0-3.613.549,7.82,7.82,0,0,0-2.71,1.557,7.283,7.283,0,0,0-1.758,2.372,8.5,8.5,0,0,0-.757,2.965h2.563a5.908,5.908,0,0,1,.867-2.15,5.173,5.173,0,0,1,1.953-1.749,6.944,6.944,0,0,1,3.333-.7,6.362,6.362,0,0,1,4.614,1.691,7.105,7.105,0,0,1,1.758,5.308v3.944H559.18q-4.3,0-6.506,2.429a9.082,9.082,0,0,0-2.209,6.346,9.728,9.728,0,0,0,2.3,6.776,7.673,7.673,0,0,0,5.98,2.536Zm.513-2.876a5.987,5.987,0,0,1-4.321-1.691,6.953,6.953,0,0,1-1.756-4.47,7.171,7.171,0,0,1,1.426-4.64q1.428-1.691,4.6-1.691h7.4v4.329a8.733,8.733,0,0,1-1,4.24,7.6,7.6,0,0,1-2.661,2.876,6.814,6.814,0,0,1-3.688,1.046Zm16.772,2.343h2.612v-17.97a15.377,15.377,0,0,1,.854-5.189,8.874,8.874,0,0,1,2.576-3.87,6.4,6.4,0,0,1,4.309-1.467,5.808,5.808,0,0,1,3.577,1.082,6.777,6.777,0,0,1,2.222,3.01,12.125,12.125,0,0,1,.769,4.507v19.9h2.588V289.864q0-5.223-2.429-7.9a8.86,8.86,0,0,0-10.486-1.66,7.522,7.522,0,0,0-2.563,2.52,10.971,10.971,0,0,0-1.27,2.915h-.146v-5.96h-2.612Zm34.888-31.343a8.628,8.628,0,0,0-4.932,1.5,10.3,10.3,0,0,0-3.54,4.345,16.541,16.541,0,0,0-1.318,6.968v6.256a17.082,17.082,0,0,0,1.233,6.76,10.3,10.3,0,0,0,3.43,4.448,8.458,8.458,0,0,0,5.054,1.572,7.99,7.99,0,0,0,3.247-.623,8.726,8.726,0,0,0,2.441-1.572,8.518,8.518,0,0,0,1.636-2.016,6.98,6.98,0,0,0,.806-1.987h.146v5.7h2.49V268.039h-2.588v17.2h-.146a9.211,9.211,0,0,0-1.416-2.773,7.738,7.738,0,0,0-6.543-3.186Zm.269,2.847c2.883-.1,5.552,1.838,6.848,4.966a12.977,12.977,0,0,1,.989,5.174v5.575a14.3,14.3,0,0,1-.928,5.248,8.954,8.954,0,0,1-2.661,3.781,6.772,6.772,0,0,1-8.069.148,8.255,8.255,0,0,1-2.661-3.662,15.622,15.622,0,0,1-.964-5.812v-4.655a15.563,15.563,0,0,1,1-5.96,8.119,8.119,0,0,1,2.686-3.6,6.323,6.323,0,0,1,3.76-1.2ZM5.151,395.641H7.739V364.8H5.151Zm-.879-40.12a2.892,2.892,0,0,0,.623,1.853,1.973,1.973,0,0,0,3.105,0,2.821,2.821,0,0,0,.623-1.853A2.906,2.906,0,0,0,8,353.605a1.946,1.946,0,0,0-1.578-.756,1.906,1.906,0,0,0-1.526.757,2.911,2.911,0,0,0-.625,1.915Zm10.376,40.12H17.26v-17.97a15.377,15.377,0,0,1,.854-5.189,8.874,8.874,0,0,1,2.576-3.87A6.4,6.4,0,0,1,25,367.145a5.808,5.808,0,0,1,3.577,1.082,6.778,6.778,0,0,1,2.222,3.01,12.126,12.126,0,0,1,.769,4.507v19.9h2.588V374.884q0-5.223-2.429-7.9a8.017,8.017,0,0,0-6.238-2.683,7.972,7.972,0,0,0-4.248,1.023,7.522,7.522,0,0,0-2.563,2.52,10.969,10.969,0,0,0-1.27,2.915h-.146V364.8H14.648Zm25.146-12.9a18.773,18.773,0,0,0,1.257,7.264,10.22,10.22,0,0,0,3.54,4.581,9.185,9.185,0,0,0,5.383,1.586,9.5,9.5,0,0,0,5.322-1.349,8.613,8.613,0,0,0,3.064-3.38,10.112,10.112,0,0,0,1.111-4.048H56.909a8.958,8.958,0,0,1-.977,2.773,5.8,5.8,0,0,1-2.148,2.209,7.121,7.121,0,0,1-3.735.86,6.6,6.6,0,0,1-5.6-2.773,12.98,12.98,0,0,1-2.063-7.844v-4.774a13.161,13.161,0,0,1,2.039-7.858,6.67,6.67,0,0,1,11.45.638,9.128,9.128,0,0,1,.94,2.891h2.563a10.214,10.214,0,0,0-1.147-4.314,9.218,9.218,0,0,0-3.137-3.514A9.007,9.007,0,0,0,49.93,364.3a9.083,9.083,0,0,0-5.286,1.572A10.3,10.3,0,0,0,41.08,370.4a17.977,17.977,0,0,0-1.282,7.147Zm25.636,12.9h2.612v-19.19a12.042,12.042,0,0,1,.928-4.98,7.1,7.1,0,0,1,2.563-3.113,6.635,6.635,0,0,1,3.711-1.068,10.444,10.444,0,0,1,1.343.074q.562.074.806.134v-3q-.293-.06-.769-.121a8.866,8.866,0,0,0-1.086-.06,7.012,7.012,0,0,0-3.882.994,7.281,7.281,0,0,0-2.369,2.39,8.861,8.861,0,0,0-1.1,2.639h-.146V364.8H65.43Zm24.39.533a9.58,9.58,0,0,0,4.016-.786,8.9,8.9,0,0,0,2.856-2,9.48,9.48,0,0,0,1.758-2.6,8.531,8.531,0,0,0,.745-2.609H96.46a5.731,5.731,0,0,1-.96,2.366,6.216,6.216,0,0,1-2.209,1.972,7.046,7.046,0,0,1-3.467.786,6.52,6.52,0,0,1-5.688-2.907,13.551,13.551,0,0,1-2.026-7.858v-1.72H99.561v-2.52a20.092,20.092,0,0,0-1.282-7.606,10.683,10.683,0,0,0-3.54-4.759,9.145,9.145,0,0,0-10.425,0,10.682,10.682,0,0,0-3.54,4.759,20.092,20.092,0,0,0-1.282,7.606v4.122a19.8,19.8,0,0,0,1.233,7.354,10.438,10.438,0,0,0,3.54,4.744,9.241,9.241,0,0,0,5.554,1.66Zm-7.72-17.91v-.356a16.108,16.108,0,0,1,.928-5.768c1.144-3.112,3.688-5.116,6.494-5.116s5.35,2,6.494,5.116a16.108,16.108,0,0,1,.928,5.768v.356Zm30.176,17.91a7.808,7.808,0,0,0,3.845-.875,8.507,8.507,0,0,0,2.556-2.088,9.261,9.261,0,0,0,1.416-2.308h.146v4.737h2.539V373.9a11.366,11.366,0,0,0-1.16-5.466,7.319,7.319,0,0,0-3.162-3.129,10.006,10.006,0,0,0-4.565-1.008,11.025,11.025,0,0,0-3.613.549,7.82,7.82,0,0,0-2.71,1.557,7.284,7.284,0,0,0-1.758,2.372,8.5,8.5,0,0,0-.757,2.965h2.563a5.907,5.907,0,0,1,.867-2.15,5.173,5.173,0,0,1,1.953-1.749,6.944,6.944,0,0,1,3.333-.7,6.362,6.362,0,0,1,4.614,1.691,7.1,7.1,0,0,1,1.758,5.308v3.944H112.72q-4.3,0-6.506,2.429A9.08,9.08,0,0,0,104,386.864a9.728,9.728,0,0,0,2.295,6.776,7.672,7.672,0,0,0,5.985,2.535Zm.513-2.876a5.988,5.988,0,0,1-4.321-1.691,6.953,6.953,0,0,1-1.756-4.47,7.172,7.172,0,0,1,1.426-4.64q1.428-1.691,4.6-1.691h7.4v4.329a8.732,8.732,0,0,1-1,4.24,7.6,7.6,0,0,1-2.661,2.876,6.814,6.814,0,0,1-3.684,1.046Zm15.723-20.342a7.766,7.766,0,0,0,1.074,4.345,7.165,7.165,0,0,0,2.979,2.52,29.181,29.181,0,0,0,4.346,1.617,31.3,31.3,0,0,1,3.43,1.093,6.5,6.5,0,0,1,2.588,1.749,4.669,4.669,0,0,1,.989,3.172,5.87,5.87,0,0,1-.854,3.232,5.514,5.514,0,0,1-2.38,2.047,8.38,8.38,0,0,1-3.577.712,7.439,7.439,0,0,1-3.87-.874,5.908,5.908,0,0,1-2.869-4.818H127.8a8.64,8.64,0,0,0,1.013,4.107,7.831,7.831,0,0,0,3.064,3.113,10.049,10.049,0,0,0,5.151,1.2,11.065,11.065,0,0,0,4.8-1.023,8.023,8.023,0,0,0,3.43-3.036,9.248,9.248,0,0,0,1.27-5.011,7.5,7.5,0,0,0-1.208-4.552,7.7,7.7,0,0,0-3.21-2.477,30.768,30.768,0,0,0-4.4-1.483,26.139,26.139,0,0,1-2.612-.85,9.3,9.3,0,0,1-2.087-1.093,4.48,4.48,0,0,1-1.392-1.6,5.147,5.147,0,0,1-.5-2.387,5.074,5.074,0,0,1,1.782-4.211,6.7,6.7,0,0,1,4.321-1.424,6.438,6.438,0,0,1,3.613.9,5.519,5.519,0,0,1,1.99,2.179,5.824,5.824,0,0,1,.647,2.429h2.49a8.809,8.809,0,0,0-.928-3.915,7.592,7.592,0,0,0-2.844-3.1,8.975,8.975,0,0,0-4.9-1.215,10.1,10.1,0,0,0-4.407.949,7.472,7.472,0,0,0-3.186,2.876,9.031,9.031,0,0,0-1.191,4.827Zm24.271,22.685h2.588V364.8h-2.588Zm-.879-40.12a2.892,2.892,0,0,0,.623,1.853,1.967,1.967,0,0,0,3.1,0,2.821,2.821,0,0,0,.623-1.853,2.906,2.906,0,0,0-.622-1.916,1.946,1.946,0,0,0-1.578-.756,1.906,1.906,0,0,0-1.526.757,2.912,2.912,0,0,0-.624,1.917Zm10.376,40.12h2.612v-17.97a15.377,15.377,0,0,1,.854-5.189,8.874,8.874,0,0,1,2.576-3.87,6.4,6.4,0,0,1,4.309-1.467,5.808,5.808,0,0,1,3.577,1.082,6.777,6.777,0,0,1,2.222,3.01,12.126,12.126,0,0,1,.769,4.507v19.9h2.588V374.884q0-5.223-2.429-7.9a8.86,8.86,0,0,0-10.486-1.66,7.522,7.522,0,0,0-2.563,2.52,10.97,10.97,0,0,0-1.27,2.915h-.146V364.8H162.28Zm35.156,8.1a7.515,7.515,0,0,1-3.625-.8,6.211,6.211,0,0,1-2.283-2.016,5.386,5.386,0,0,1-.928-2.461h-2.71a8.906,8.906,0,0,0,1.172,3.855,8.2,8.2,0,0,0,3.1,3.069,10.1,10.1,0,0,0,5.176,1.2,11.763,11.763,0,0,0,4.3-.741,8.708,8.708,0,0,0,3.259-2.195,9.749,9.749,0,0,0,2.075-3.588,15.4,15.4,0,0,0,.72-4.923V364.8h-2.515v5.486h-.122a9.17,9.17,0,0,0-1.355-2.609,8.67,8.67,0,0,0-2.625-2.387,7.472,7.472,0,0,0-3.955-.993,8.846,8.846,0,0,0-4.92,1.464,10.278,10.278,0,0,0-3.625,4.345,16.384,16.384,0,0,0-1.367,7.058v4.8a16.477,16.477,0,0,0,1.306,6.85,10.432,10.432,0,0,0,3.552,4.419,8.679,8.679,0,0,0,5.029,1.543,7.593,7.593,0,0,0,3.137-.607,7.988,7.988,0,0,0,2.307-1.527,8.919,8.919,0,0,0,1.538-1.928,9.617,9.617,0,0,0,.854-1.839h.146v6.346a9.3,9.3,0,0,1-1.953,6.213,7.02,7.02,0,0,1-5.687,2.3Zm.049-36.592a6.152,6.152,0,0,1,4.065,1.409,9.045,9.045,0,0,1,2.612,3.736,13.862,13.862,0,0,1,.916,5.115v4.419a13.828,13.828,0,0,1-.867,4.892,9.062,9.062,0,0,1-2.551,3.765,6.124,6.124,0,0,1-4.15,1.458c-2.835.063-5.441-1.881-6.677-4.98a14.6,14.6,0,0,1-1.013-5.693v-3.321a15.165,15.165,0,0,1,1.025-5.916,8.272,8.272,0,0,1,2.771-3.644A6.567,6.567,0,0,1,197.485,367.145Zm36.035,29.028a9.581,9.581,0,0,0,4.016-.786,8.9,8.9,0,0,0,2.856-2,9.477,9.477,0,0,0,1.759-2.6,8.529,8.529,0,0,0,.745-2.609h-2.734a5.729,5.729,0,0,1-.964,2.372,6.217,6.217,0,0,1-2.209,1.972,7.046,7.046,0,0,1-3.467.786,6.52,6.52,0,0,1-5.688-2.907,13.551,13.551,0,0,1-2.026-7.858v-1.72h17.456V378.3a20.091,20.091,0,0,0-1.282-7.606,10.683,10.683,0,0,0-3.54-4.759,9.145,9.145,0,0,0-10.425,0,10.683,10.683,0,0,0-3.54,4.759,20.091,20.091,0,0,0-1.282,7.606v4.122a19.8,19.8,0,0,0,1.233,7.354,10.438,10.438,0,0,0,3.54,4.744,9.238,9.238,0,0,0,5.553,1.654Zm-7.715-17.91v-.355a16.108,16.108,0,0,1,.928-5.768c1.144-3.112,3.688-5.116,6.494-5.116s5.35,2,6.494,5.116a16.108,16.108,0,0,1,.928,5.768v.356Zm23.414,17.378h2.612v-17.97a15.378,15.378,0,0,1,.854-5.189,8.874,8.874,0,0,1,2.576-3.87,6.4,6.4,0,0,1,4.309-1.467,5.808,5.808,0,0,1,3.577,1.082,6.778,6.778,0,0,1,2.222,3.01,12.125,12.125,0,0,1,.769,4.507v19.9h2.588V374.884q0-5.223-2.429-7.9a8.86,8.86,0,0,0-10.486-1.66,7.522,7.522,0,0,0-2.563,2.52,10.969,10.969,0,0,0-1.27,2.915h-.146V364.8H249.22Zm27.71-30.839h-4.541v2.7h4.541v20.52a15.508,15.508,0,0,0,.549,4.536,4.28,4.28,0,0,0,1.99,2.565,8.412,8.412,0,0,0,4.1.815q.586,0,1.55-.089t1.355-.148v-2.732q-.366.029-1.147.1t-1.27.074a4.748,4.748,0,0,1-3.552-1.053q-.989-1.053-.989-3.958V367.5h6.567v-2.7h-6.567v-7.591h-2.588Zm22.485,31.372a9.58,9.58,0,0,0,4.016-.786,8.9,8.9,0,0,0,2.856-2,9.48,9.48,0,0,0,1.758-2.6,8.531,8.531,0,0,0,.745-2.609h-2.734a5.73,5.73,0,0,1-.964,2.372,6.217,6.217,0,0,1-2.209,1.972,7.046,7.046,0,0,1-3.467.786,6.52,6.52,0,0,1-5.688-2.907,13.551,13.551,0,0,1-2.026-7.858v-1.72h17.456V378.3a20.092,20.092,0,0,0-1.282-7.606,10.684,10.684,0,0,0-3.54-4.759,9.145,9.145,0,0,0-10.425,0,10.684,10.684,0,0,0-3.54,4.759,20.092,20.092,0,0,0-1.282,7.606v4.122a19.8,19.8,0,0,0,1.233,7.354,10.437,10.437,0,0,0,3.54,4.744,9.238,9.238,0,0,0,5.553,1.654Zm-7.714-17.91v-.356a16.108,16.108,0,0,1,.928-5.768c1.144-3.112,3.688-5.116,6.494-5.116s5.35,2,6.494,5.116a16.108,16.108,0,0,1,.928,5.768v.356Zm23.632,17.377h2.612v-19.19a12.034,12.034,0,0,1,.928-4.98,7.1,7.1,0,0,1,2.563-3.113,6.635,6.635,0,0,1,3.711-1.068,10.444,10.444,0,0,1,1.343.074q.562.074.806.134v-3q-.293-.06-.769-.121a8.866,8.866,0,0,0-1.086-.06,7.012,7.012,0,0,0-3.882.994,7.281,7.281,0,0,0-2.369,2.39,8.864,8.864,0,0,0-1.1,2.639h-.146V364.8h-2.612Zm26.611.533a8.644,8.644,0,0,0,4.98-1.512,10.191,10.191,0,0,0,3.516-4.419,17.482,17.482,0,0,0,1.294-7.116v-5.871a17.706,17.706,0,0,0-1.221-6.879,10.337,10.337,0,0,0-3.406-4.494,8.921,8.921,0,0,0-8.264-.994,7.983,7.983,0,0,0-2.393,1.542,8.955,8.955,0,0,0-1.624,2.031,9.315,9.315,0,0,0-.891,2h-.146V364.8H331.3v40.862h2.588V390.185h.146a8.93,8.93,0,0,0,4.053,5.071,7.652,7.652,0,0,0,3.856.918Zm-.269-2.876a6.6,6.6,0,0,1-4.077-1.319,8.607,8.607,0,0,1-2.734-3.633,13.226,13.226,0,0,1-.977-5.189v-5.6a14.439,14.439,0,0,1,.916-5.263c1.2-3.245,3.9-5.28,6.824-5.145a6.341,6.341,0,0,1,3.906,1.261,8.207,8.207,0,0,1,2.637,3.692,16.325,16.325,0,0,1,.952,5.931v4.359a16.127,16.127,0,0,1-.989,6.064,8.139,8.139,0,0,1-2.673,3.633,6.305,6.305,0,0,1-3.784,1.212Zm16.285,2.343h2.612v-19.19a12.034,12.034,0,0,1,.928-4.98,7.1,7.1,0,0,1,2.563-3.113,6.635,6.635,0,0,1,3.711-1.068,10.444,10.444,0,0,1,1.343.074q.562.074.806.134v-3q-.293-.06-.769-.121a8.866,8.866,0,0,0-1.086-.06,7.012,7.012,0,0,0-3.882.994,7.281,7.281,0,0,0-2.369,2.39,8.864,8.864,0,0,0-1.1,2.639h-.146V364.8h-2.612Zm16.284,0h2.588V364.8h-2.588Zm-.879-40.12a2.891,2.891,0,0,0,.623,1.853,1.967,1.967,0,0,0,3.1,0,2.82,2.82,0,0,0,.623-1.853,2.906,2.906,0,0,0-.622-1.916,1.946,1.946,0,0,0-1.578-.756,1.906,1.906,0,0,0-1.526.757,2.914,2.914,0,0,0-.62,1.917Zm9.326,17.435a7.766,7.766,0,0,0,1.074,4.345,7.165,7.165,0,0,0,2.979,2.52,29.182,29.182,0,0,0,4.346,1.617,31.3,31.3,0,0,1,3.43,1.093,6.5,6.5,0,0,1,2.588,1.749,4.669,4.669,0,0,1,.989,3.172,5.87,5.87,0,0,1-.854,3.232,5.516,5.516,0,0,1-2.38,2.047,8.38,8.38,0,0,1-3.577.712,7.439,7.439,0,0,1-3.87-.874,5.908,5.908,0,0,1-2.869-4.818h-2.563A8.639,8.639,0,0,0,383,391.861a7.83,7.83,0,0,0,3.064,3.112,10.049,10.049,0,0,0,5.151,1.2,11.063,11.063,0,0,0,4.8-1.023,8.022,8.022,0,0,0,3.43-3.036,9.247,9.247,0,0,0,1.27-5.011,7.5,7.5,0,0,0-1.208-4.552,7.7,7.7,0,0,0-3.21-2.477,30.768,30.768,0,0,0-4.395-1.483,26.131,26.131,0,0,1-2.612-.85,9.3,9.3,0,0,1-2.087-1.093,4.48,4.48,0,0,1-1.392-1.6,5.147,5.147,0,0,1-.5-2.387,5.074,5.074,0,0,1,1.782-4.211,6.7,6.7,0,0,1,4.321-1.423,6.438,6.438,0,0,1,3.613.9,5.517,5.517,0,0,1,1.99,2.179,5.824,5.824,0,0,1,.647,2.429h2.49a8.809,8.809,0,0,0-.928-3.915,7.6,7.6,0,0,0-2.844-3.113,8.975,8.975,0,0,0-4.9-1.215,10.1,10.1,0,0,0-4.407.949,7.472,7.472,0,0,0-3.186,2.876A9.027,9.027,0,0,0,382.69,372.957Zm32.739,23.218a9.58,9.58,0,0,0,4.016-.786,8.9,8.9,0,0,0,2.856-2,9.48,9.48,0,0,0,1.759-2.6,8.531,8.531,0,0,0,.745-2.609H422.07a5.729,5.729,0,0,1-.964,2.372,6.217,6.217,0,0,1-2.209,1.973,7.046,7.046,0,0,1-3.467.786,6.521,6.521,0,0,1-5.688-2.907,13.551,13.551,0,0,1-2.026-7.858v-1.72h17.456V378.3a20.092,20.092,0,0,0-1.282-7.606,10.684,10.684,0,0,0-3.54-4.759,9.145,9.145,0,0,0-10.425,0,10.684,10.684,0,0,0-3.54,4.759A20.092,20.092,0,0,0,405.1,378.3v4.122a19.8,19.8,0,0,0,1.233,7.354,10.437,10.437,0,0,0,3.54,4.744,9.238,9.238,0,0,0,5.554,1.654Zm-7.715-17.91v-.356a16.108,16.108,0,0,1,.928-5.768c1.144-3.112,3.688-5.116,6.494-5.116s5.35,2,6.494,5.116a16.109,16.109,0,0,1,.928,5.768v.356Zm38.722,17.377h2.637l9.375-30.839h-2.783l-7.837,27.221h-.146L440.065,364.8h-2.881Zm22.144.533a7.808,7.808,0,0,0,3.845-.875,8.51,8.51,0,0,0,2.551-2.088,9.263,9.263,0,0,0,1.416-2.308h.146v4.737h2.539V373.9a11.365,11.365,0,0,0-1.16-5.466,7.32,7.32,0,0,0-3.162-3.129,10.006,10.006,0,0,0-4.565-1.008,11.025,11.025,0,0,0-3.613.549,7.82,7.82,0,0,0-2.71,1.557,7.283,7.283,0,0,0-1.758,2.372,8.5,8.5,0,0,0-.757,2.965h2.563a5.908,5.908,0,0,1,.867-2.15,5.173,5.173,0,0,1,1.953-1.749,6.944,6.944,0,0,1,3.333-.7,6.362,6.362,0,0,1,4.614,1.691,7.1,7.1,0,0,1,1.758,5.308v3.944h-7.422q-4.3,0-6.506,2.429a9.082,9.082,0,0,0-2.209,6.346,9.728,9.728,0,0,0,2.295,6.776,7.672,7.672,0,0,0,5.981,2.536Zm.513-2.876a5.988,5.988,0,0,1-4.321-1.691,6.953,6.953,0,0,1-1.756-4.47,7.172,7.172,0,0,1,1.426-4.64q1.428-1.691,4.6-1.691h7.4v4.329a8.731,8.731,0,0,1-1,4.24,7.6,7.6,0,0,1-2.661,2.876,6.814,6.814,0,0,1-3.689,1.046Zm17.089,2.343h2.612V353.06h-2.612ZM515.357,364.8h-2.612V383.78a11.651,11.651,0,0,1-.928,4.615,8.8,8.8,0,0,1-2.661,3.543,6.967,6.967,0,0,1-7.544.475,5.967,5.967,0,0,1-2.3-2.672,10.442,10.442,0,0,1-.83-4.419V364.8h-2.612v21.231a12.634,12.634,0,0,0,1.147,5.783,7.579,7.579,0,0,0,3.1,3.291,9.055,9.055,0,0,0,4.419,1.068,7.7,7.7,0,0,0,4.028-.994,8.344,8.344,0,0,0,2.649-2.429,9.6,9.6,0,0,0,1.379-2.832h.146v5.722h2.612Zm16.162,31.372a9.58,9.58,0,0,0,4.016-.786,8.9,8.9,0,0,0,2.856-2,9.479,9.479,0,0,0,1.758-2.6,8.529,8.529,0,0,0,.745-2.609H538.16a5.73,5.73,0,0,1-.964,2.372,6.217,6.217,0,0,1-2.209,1.972,7.046,7.046,0,0,1-3.467.786,6.52,6.52,0,0,1-5.688-2.907,13.551,13.551,0,0,1-2.026-7.858v-1.72H541.26V378.3a20.091,20.091,0,0,0-1.282-7.606,10.683,10.683,0,0,0-3.54-4.759,9.145,9.145,0,0,0-10.425,0,10.683,10.683,0,0,0-3.54,4.759,20.091,20.091,0,0,0-1.282,7.606v4.122a19.8,19.8,0,0,0,1.233,7.354,10.438,10.438,0,0,0,3.54,4.744,9.238,9.238,0,0,0,5.555,1.654Zm-7.719-17.91v-.356a16.107,16.107,0,0,1,.928-5.768c1.144-3.112,3.688-5.116,6.494-5.116s5.35,2,6.494,5.116a16.107,16.107,0,0,1,.928,5.768v.356Zm22.778,14.855a3.266,3.266,0,0,0,.708,2.121,2.153,2.153,0,0,0,1.733.874,2.244,2.244,0,0,0,1.782-.874,3.193,3.193,0,0,0,.732-2.121,3.238,3.238,0,0,0-.732-2.15,2.244,2.244,0,0,0-1.782-.875,2.153,2.153,0,0,0-1.733.875,3.312,3.312,0,0,0-.7,2.151Z" transform="translate(80 79.257)"/></g></svg>