<svg xmlns="http://www.w3.org/2000/svg" xmlns:xlink="http://www.w3.org/1999/xlink" width="960" height="600" viewBox="0 0 960 600"><defs><style>.a{clip-path:url(#c);}.b{clip-path:url(#a);}.c{fill:#eaedf2;}.d{fill:#747070;}.e{fill:#fff;}</style><clipPath id="a"><rect width="960" height="500"/></clipPath><clipPath id="c"><rect width="960" height="600"/></clipPath></defs><g id="b" class="a"><rect class="e" width="960" height="600"/><g class="b"><rect class="c" width="960" height="545.455"/><path class="d" d="M16.162,14.954H5.029V51.67H7.666V36.9h8.5a10.8,10.8,0,0,0,5.566-1.361A9.076,9.076,0,0,0,25.3,31.708a12.619,12.619,0,0,0,1.245-5.755A12.747,12.747,0,0,0,25.3,20.144a9.076,9.076,0,0,0-3.564-3.828,10.8,10.8,0,0,0-5.57-1.361Zm7.666,11a9.984,9.984,0,0,1-.916,4.448,6.465,6.465,0,0,1-2.649,2.844,8.381,8.381,0,0,1-4.2.984h-8.4V17.623h8.4A7.427,7.427,0,0,1,21.8,19.807a8.709,8.709,0,0,1,2.028,6.146Zm16.65,26.2a10.418,10.418,0,0,0,4.016-.714,8.957,8.957,0,0,0,2.856-1.82,8.624,8.624,0,0,0,1.759-2.367,7.225,7.225,0,0,0,.745-2.372H47.119a4.958,4.958,0,0,1-.964,2.156,6.064,6.064,0,0,1-2.209,1.793,7.633,7.633,0,0,1-3.467.714A6.747,6.747,0,0,1,34.791,46.9a11.469,11.469,0,0,1-2.026-7.144V38.191H50.22V35.9a16.781,16.781,0,0,0-1.282-6.914A9.853,9.853,0,0,0,45.4,24.66a9.9,9.9,0,0,0-10.424,0,9.853,9.853,0,0,0-3.54,4.326A16.781,16.781,0,0,0,30.152,35.9v3.748a16.534,16.534,0,0,0,1.233,6.686,9.631,9.631,0,0,0,3.54,4.313,9.913,9.913,0,0,0,5.554,1.508ZM32.764,35.873v-.324a13.44,13.44,0,0,1,.928-5.244,6.859,6.859,0,0,1,12.988,0,13.44,13.44,0,0,1,.928,5.244v.324ZM56.4,51.67h2.612V34.224A10.08,10.08,0,0,1,59.94,29.7a6.638,6.638,0,0,1,2.56-2.828,7.13,7.13,0,0,1,3.711-.971,11.475,11.475,0,0,1,1.343.067q.562.067.806.121V23.365q-.293-.054-.769-.11A9.75,9.75,0,0,0,66.5,23.2a7.566,7.566,0,0,0-3.882.9,6.981,6.981,0,0,0-2.369,2.171,7.675,7.675,0,0,0-1.1,2.4h-.146V23.634H56.4ZM70.435,39.944a15.687,15.687,0,0,0,1.257,6.6,9.473,9.473,0,0,0,3.54,4.165,9.86,9.86,0,0,0,5.383,1.442,10.256,10.256,0,0,0,5.322-1.227A8.159,8.159,0,0,0,89,47.855a8.56,8.56,0,0,0,1.111-3.68H87.549a7.671,7.671,0,0,1-.977,2.521A5.548,5.548,0,0,1,84.424,48.7a7.709,7.709,0,0,1-3.735.782,6.85,6.85,0,0,1-5.6-2.521,11,11,0,0,1-2.063-7.131V35.5a11.144,11.144,0,0,1,2.039-7.144,6.714,6.714,0,0,1,5.53-2.534,7.015,7.015,0,0,1,3.735.89,6.105,6.105,0,0,1,2.185,2.224,7.782,7.782,0,0,1,.94,2.628h2.563a8.795,8.795,0,0,0-4.284-7.116,10.809,10.809,0,0,0-10.449.161,9.564,9.564,0,0,0-3.564,4.124,15.033,15.033,0,0,0-1.282,6.5Zm34.6,12.212a10.418,10.418,0,0,0,4.016-.714,8.958,8.958,0,0,0,2.856-1.82,8.625,8.625,0,0,0,1.758-2.368,7.226,7.226,0,0,0,.745-2.372H111.67a4.958,4.958,0,0,1-.964,2.156,6.064,6.064,0,0,1-2.209,1.793,7.633,7.633,0,0,1-3.467.714A6.747,6.747,0,0,1,99.342,46.9a11.469,11.469,0,0,1-2.026-7.144V38.191h17.456V35.9a16.781,16.781,0,0,0-1.282-6.914,9.445,9.445,0,0,0-17.505,0A16.78,16.78,0,0,0,94.7,35.9v3.748a16.534,16.534,0,0,0,1.233,6.686,9.631,9.631,0,0,0,3.54,4.313,9.913,9.913,0,0,0,5.556,1.508ZM97.314,35.873v-.324a13.441,13.441,0,0,1,.928-5.244,6.859,6.859,0,0,1,12.988,0,13.44,13.44,0,0,1,.928,5.244v.324ZM131.4,52.155a9.27,9.27,0,0,0,4.98-1.375,9.483,9.483,0,0,0,3.516-4.017,14.626,14.626,0,0,0,1.294-6.469V34.956a14.8,14.8,0,0,0-1.221-6.254,9.556,9.556,0,0,0-3.406-4.085,9.682,9.682,0,0,0-8.264-.9,8.115,8.115,0,0,0-2.393,1.4,8.329,8.329,0,0,0-1.624,1.846,8.106,8.106,0,0,0-.891,1.82h-.146V23.634h-2.49V60.781h2.588V46.71h.146a8.078,8.078,0,0,0,7.911,5.445Zm-.269-2.615a7.059,7.059,0,0,1-4.077-1.2,7.949,7.949,0,0,1-2.734-3.3,11.071,11.071,0,0,1-.977-4.717v-5.1a12.065,12.065,0,0,1,.916-4.784,7.152,7.152,0,0,1,6.824-4.677,6.779,6.779,0,0,1,3.906,1.146,7.529,7.529,0,0,1,2.637,3.357,13.622,13.622,0,0,1,.952,5.392v3.963a13.462,13.462,0,0,1-.989,5.513,7.5,7.5,0,0,1-2.673,3.3,6.745,6.745,0,0,1-3.788,1.1Zm17.456-25.906h-4.541v2.453h4.541V44.742a12.89,12.89,0,0,0,.549,4.124,3.974,3.974,0,0,0,1.99,2.332,9.138,9.138,0,0,0,4.1.741q.586,0,1.55-.081t1.355-.135V49.241q-.366.026-1.147.094t-1.27.067a5.084,5.084,0,0,1-3.552-.957q-.989-.957-.989-3.6V26.088h6.567V23.634h-6.567v-6.9h-2.588ZM162.842,51.67h2.588V23.634h-2.588ZM161.963,15.2a2.479,2.479,0,0,0,.623,1.684,2.091,2.091,0,0,0,3.1,0,2.419,2.419,0,0,0,.623-1.685,2.487,2.487,0,0,0-.622-1.742,2.026,2.026,0,0,0-1.578-.687,1.98,1.98,0,0,0-1.526.688,2.494,2.494,0,0,0-.62,1.742Zm19.7,7.98a10.135,10.135,0,0,0-5.359,1.442,10.013,10.013,0,0,0-3.76,4.178,14.709,14.709,0,0,0-1.379,6.671v4.417a14.758,14.758,0,0,0,1.379,6.712,9.847,9.847,0,0,0,3.76,4.138,10.282,10.282,0,0,0,5.359,1.416,10.172,10.172,0,0,0,5.322-1.416,10.033,10.033,0,0,0,3.772-4.138,14.541,14.541,0,0,0,1.4-6.712V35.469a14.645,14.645,0,0,0-1.4-6.712,9.971,9.971,0,0,0-3.784-4.165,10.191,10.191,0,0,0-5.308-1.416Zm0,2.588a7.186,7.186,0,0,1,4.077,1.186,7.887,7.887,0,0,1,2.8,3.437,13.184,13.184,0,0,1,1.013,5.431v3.748a13.3,13.3,0,0,1-1,5.446,7.586,7.586,0,0,1-2.771,3.383,7.355,7.355,0,0,1-4.089,1.146,7.437,7.437,0,0,1-4.15-1.159A7.577,7.577,0,0,1,174.772,45a13.348,13.348,0,0,1-.989-5.431V35.82a13.162,13.162,0,0,1,1.013-5.446,7.9,7.9,0,0,1,2.8-3.423,7.187,7.187,0,0,1,4.069-1.187Zm16.555,25.9h2.612V35.334a12.833,12.833,0,0,1,.854-4.717A8.068,8.068,0,0,1,204.26,27.1a6.816,6.816,0,0,1,4.309-1.334,5.926,5.926,0,0,1,5.8,3.72,10.128,10.128,0,0,1,.769,4.1V51.67h2.588V32.8q0-4.748-2.429-7.184a8.417,8.417,0,0,0-6.238-2.439,8.618,8.618,0,0,0-4.248.93,7.24,7.24,0,0,0-2.563,2.291,9.533,9.533,0,0,0-1.27,2.65h-.146V23.634h-2.612Zm38.867,0V14.954h-2.637V51.67Zm17.6,0V17.623h10.864V14.954H241.211v2.669h10.84V51.67Zm34.79.485a9.27,9.27,0,0,0,4.98-1.375,9.483,9.483,0,0,0,3.516-4.017,14.626,14.626,0,0,0,1.294-6.469V34.956a14.8,14.8,0,0,0-1.221-6.254,9.556,9.556,0,0,0-3.406-4.085,9.682,9.682,0,0,0-8.264-.9,8.115,8.115,0,0,0-2.393,1.4,8.33,8.33,0,0,0-1.624,1.846,8.105,8.105,0,0,0-.891,1.82h-.146V23.634h-2.49V60.781h2.588V46.71h.146a8.079,8.079,0,0,0,7.914,5.445Zm-.269-2.615a7.059,7.059,0,0,1-4.077-1.2,7.949,7.949,0,0,1-2.734-3.3,11.071,11.071,0,0,1-.977-4.717v-5.1a12.065,12.065,0,0,1,.916-4.784,7.152,7.152,0,0,1,6.824-4.677,6.779,6.779,0,0,1,3.906,1.146,7.529,7.529,0,0,1,2.637,3.357,13.622,13.622,0,0,1,.952,5.392v3.963a13.462,13.462,0,0,1-.989,5.513,7.5,7.5,0,0,1-2.673,3.3,6.745,6.745,0,0,1-3.782,1.1Zm16.287,2.13h2.612V34.224a10.073,10.073,0,0,1,.928-4.527,6.638,6.638,0,0,1,2.563-2.83,7.131,7.131,0,0,1,3.711-.971,11.474,11.474,0,0,1,1.343.067q.562.067.806.121V23.365q-.293-.054-.769-.11A9.75,9.75,0,0,0,315.6,23.2a7.566,7.566,0,0,0-3.882.9,6.982,6.982,0,0,0-2.368,2.171,7.677,7.677,0,0,0-1.1,2.4h-.146V23.634h-2.612Zm24.536-28.494a10.134,10.134,0,0,0-5.359,1.442,10.012,10.012,0,0,0-3.76,4.178,14.709,14.709,0,0,0-1.379,6.671v4.417A14.759,14.759,0,0,0,320.91,46.6a9.847,9.847,0,0,0,3.76,4.138,10.282,10.282,0,0,0,5.359,1.416,10.173,10.173,0,0,0,5.322-1.416,10.033,10.033,0,0,0,3.772-4.138,14.541,14.541,0,0,0,1.4-6.712V35.468a14.645,14.645,0,0,0-1.4-6.712,9.971,9.971,0,0,0-3.784-4.165,10.191,10.191,0,0,0-5.31-1.414Zm0,2.588a7.187,7.187,0,0,1,4.077,1.186,7.887,7.887,0,0,1,2.8,3.437,13.184,13.184,0,0,1,1.013,5.431v3.748a13.3,13.3,0,0,1-1,5.446,7.585,7.585,0,0,1-2.771,3.383,7.355,7.355,0,0,1-4.089,1.146,7.437,7.437,0,0,1-4.15-1.159A7.577,7.577,0,0,1,323.138,45a13.348,13.348,0,0,1-.989-5.431V35.82a13.162,13.162,0,0,1,1.013-5.446,7.9,7.9,0,0,1,2.8-3.423,7.187,7.187,0,0,1,4.067-1.187ZM352.563,51.67H355.2l9.375-28.036h-2.783l-7.837,24.746h-.146l-7.617-24.746h-2.881Zm15.967,0h2.588V23.634H368.53ZM367.651,15.2a2.479,2.479,0,0,0,.623,1.684,2.091,2.091,0,0,0,3.1,0A2.418,2.418,0,0,0,372,15.2a2.487,2.487,0,0,0-.622-1.742,2.026,2.026,0,0,0-1.578-.687,1.98,1.98,0,0,0-1.526.688,2.493,2.493,0,0,0-.623,1.741ZM386.6,23.176a9.252,9.252,0,0,0-4.932,1.361,9.61,9.61,0,0,0-3.543,3.945,13.851,13.851,0,0,0-1.318,6.335V40.5a14.29,14.29,0,0,0,1.233,6.146,9.54,9.54,0,0,0,3.43,4.043,9.059,9.059,0,0,0,5.054,1.429,8.694,8.694,0,0,0,3.247-.566,8.871,8.871,0,0,0,2.441-1.429,7.94,7.94,0,0,0,1.636-1.833,6.034,6.034,0,0,0,.806-1.806h.146V51.67h2.49V12.959H394.7V28.593h-.146a8.122,8.122,0,0,0-1.416-2.521A7.8,7.8,0,0,0,390.513,24a8.586,8.586,0,0,0-3.913-.82Zm.269,2.588a7.37,7.37,0,0,1,6.848,4.515,10.866,10.866,0,0,1,.989,4.7v5.068a11.954,11.954,0,0,1-.928,4.771,8.2,8.2,0,0,1-2.661,3.437,7.321,7.321,0,0,1-8.069.135,7.589,7.589,0,0,1-2.661-3.329,13.042,13.042,0,0,1-.964-5.283V35.549a13,13,0,0,1,1-5.418,7.49,7.49,0,0,1,2.686-3.275,6.765,6.765,0,0,1,3.756-1.092Zm26.9,26.389a10.418,10.418,0,0,0,4.016-.714,8.957,8.957,0,0,0,2.856-1.82,8.623,8.623,0,0,0,1.759-2.366,7.227,7.227,0,0,0,.745-2.372H420.41a4.958,4.958,0,0,1-.964,2.156,6.064,6.064,0,0,1-2.209,1.793,7.633,7.633,0,0,1-3.467.714,6.747,6.747,0,0,1-5.688-2.642,11.469,11.469,0,0,1-2.026-7.144V38.191h17.456V35.9a16.78,16.78,0,0,0-1.282-6.914,9.445,9.445,0,0,0-17.505,0,16.781,16.781,0,0,0-1.282,6.914v3.748a16.534,16.534,0,0,0,1.233,6.686,9.63,9.63,0,0,0,3.54,4.313,9.913,9.913,0,0,0,5.554,1.508Zm-7.715-16.282v-.322a13.441,13.441,0,0,1,.928-5.244,6.859,6.859,0,0,1,12.988,0,13.44,13.44,0,0,1,.93,5.244v.324Zm22.363-4.825A6.561,6.561,0,0,0,429.491,35a7.039,7.039,0,0,0,2.979,2.291,31.09,31.09,0,0,0,4.346,1.47,33.614,33.614,0,0,1,3.43.994,6.566,6.566,0,0,1,2.588,1.59,3.99,3.99,0,0,1,.989,2.884,4.97,4.97,0,0,1-.854,2.938,5.407,5.407,0,0,1-2.38,1.86,9.109,9.109,0,0,1-3.577.647,8.057,8.057,0,0,1-3.87-.795,5.325,5.325,0,0,1-2.869-4.38H427.71a7.291,7.291,0,0,0,1.013,3.733,7.5,7.5,0,0,0,3.064,2.83,10.876,10.876,0,0,0,5.151,1.092,12.009,12.009,0,0,0,4.8-.93,7.469,7.469,0,0,0,4.7-7.316,6.354,6.354,0,0,0-1.208-4.138,7.66,7.66,0,0,0-3.21-2.251,32.934,32.934,0,0,0-4.4-1.348q-1.416-.35-2.612-.773a9.653,9.653,0,0,1-2.087-.994,4.218,4.218,0,0,1-1.392-1.455,4.322,4.322,0,0,1-.5-2.17,4.431,4.431,0,0,1,1.782-3.828,7.151,7.151,0,0,1,4.321-1.294,6.951,6.951,0,0,1,3.613.823,5.232,5.232,0,0,1,1.99,1.981,4.924,4.924,0,0,1,.647,2.208h2.49a7.42,7.42,0,0,0-.928-3.559,7.2,7.2,0,0,0-2.849-2.819,9.7,9.7,0,0,0-4.9-1.1,10.962,10.962,0,0,0-4.407.862,7.277,7.277,0,0,0-3.186,2.615,7.627,7.627,0,0,0-1.189,4.388ZM462.7,23.634h-4.541v2.453H462.7V44.742a12.889,12.889,0,0,0,.549,4.124,3.974,3.974,0,0,0,1.99,2.332,9.139,9.139,0,0,0,4.1.741q.586,0,1.55-.081t1.355-.135V49.241q-.366.026-1.147.094t-1.27.067a5.084,5.084,0,0,1-3.552-.957q-.989-.957-.989-3.6V26.088h6.567V23.634h-6.567v-6.9H462.7Zm22.485,28.52a10.417,10.417,0,0,0,4.016-.714,8.957,8.957,0,0,0,2.856-1.82,8.627,8.627,0,0,0,1.754-2.367,7.227,7.227,0,0,0,.745-2.372h-2.734a4.958,4.958,0,0,1-.964,2.156,6.064,6.064,0,0,1-2.209,1.793,7.633,7.633,0,0,1-3.467.714,6.747,6.747,0,0,1-5.688-2.642,11.469,11.469,0,0,1-2.026-7.144V38.191h17.456V35.9a16.781,16.781,0,0,0-1.282-6.914,9.445,9.445,0,0,0-17.505,0,16.781,16.781,0,0,0-1.282,6.914v3.748a16.533,16.533,0,0,0,1.233,6.686,9.63,9.63,0,0,0,3.54,4.313,9.913,9.913,0,0,0,5.553,1.508ZM477.47,35.873v-.324a13.44,13.44,0,0,1,.928-5.244,6.859,6.859,0,0,1,12.988,0,13.441,13.441,0,0,1,.928,5.244v.324Zm22.241,4.071a15.685,15.685,0,0,0,1.257,6.6,9.473,9.473,0,0,0,3.54,4.165,9.86,9.86,0,0,0,5.383,1.442,10.257,10.257,0,0,0,5.322-1.227,8.158,8.158,0,0,0,3.064-3.073,8.558,8.558,0,0,0,1.111-3.68h-2.563a7.672,7.672,0,0,1-.977,2.521A5.548,5.548,0,0,1,513.7,48.7a7.709,7.709,0,0,1-3.735.782,6.85,6.85,0,0,1-5.6-2.521,11,11,0,0,1-2.063-7.131V35.5a11.144,11.144,0,0,1,2.039-7.144,6.714,6.714,0,0,1,5.53-2.534,7.015,7.015,0,0,1,3.735.89,6.1,6.1,0,0,1,2.185,2.224,7.781,7.781,0,0,1,.94,2.628h2.563A8.774,8.774,0,0,0,515,24.444a10.808,10.808,0,0,0-10.449.161,9.564,9.564,0,0,0-3.564,4.124,15.034,15.034,0,0,0-1.282,6.5ZM525.22,51.67h2.588V35.334a12.67,12.67,0,0,1,.867-4.717,8.112,8.112,0,0,1,2.6-3.518,6.828,6.828,0,0,1,4.3-1.334,6.359,6.359,0,0,1,3.589.984,6.218,6.218,0,0,1,2.271,2.749,10.086,10.086,0,0,1,.781,4.111V51.67h2.612V32.827q0-4.748-2.466-7.2a8.425,8.425,0,0,0-6.2-2.453,8.647,8.647,0,0,0-4.272.957,7.658,7.658,0,0,0-2.649,2.332,8.988,8.988,0,0,0-1.282,2.588h-.146V12.959H525.22Zm26.318,0h2.612V35.334a12.835,12.835,0,0,1,.85-4.717,8.068,8.068,0,0,1,2.576-3.518,6.816,6.816,0,0,1,4.309-1.334,5.926,5.926,0,0,1,5.8,3.72,10.128,10.128,0,0,1,.769,4.1V51.67h2.588V32.8q0-4.748-2.429-7.184a8.417,8.417,0,0,0-6.238-2.439,8.618,8.618,0,0,0-4.248.93,7.241,7.241,0,0,0-2.563,2.291,9.534,9.534,0,0,0-1.27,2.65h-.146V23.634h-2.612Zm35.645-28.494a10.135,10.135,0,0,0-5.359,1.442,10.013,10.013,0,0,0-3.76,4.178,14.709,14.709,0,0,0-1.379,6.671v4.417a14.757,14.757,0,0,0,1.379,6.712,9.846,9.846,0,0,0,3.76,4.138,10.282,10.282,0,0,0,5.359,1.416,10.172,10.172,0,0,0,5.322-1.416,10.032,10.032,0,0,0,3.772-4.138,14.542,14.542,0,0,0,1.4-6.712V35.468a14.645,14.645,0,0,0-1.4-6.712,9.972,9.972,0,0,0-3.784-4.165A10.19,10.19,0,0,0,587.183,23.176Zm0,2.588a7.186,7.186,0,0,1,4.077,1.186,7.887,7.887,0,0,1,2.8,3.437,13.183,13.183,0,0,1,1.013,5.431v3.748a13.3,13.3,0,0,1-1,5.446A7.585,7.585,0,0,1,591.3,48.4a7.355,7.355,0,0,1-4.089,1.146,7.437,7.437,0,0,1-4.15-1.159A7.577,7.577,0,0,1,580.292,45a13.347,13.347,0,0,1-.989-5.431V35.82a13.162,13.162,0,0,1,1.013-5.446,7.9,7.9,0,0,1,2.8-3.423,7.187,7.187,0,0,1,4.067-1.187Zm16.87,25.906h2.612V12.959h-2.612Zm19.238-28.494a10.135,10.135,0,0,0-5.359,1.442,10.012,10.012,0,0,0-3.76,4.178,14.709,14.709,0,0,0-1.379,6.671v4.417a14.757,14.757,0,0,0,1.379,6.712,9.846,9.846,0,0,0,3.76,4.138,10.282,10.282,0,0,0,5.359,1.416,10.172,10.172,0,0,0,5.322-1.416,10.032,10.032,0,0,0,3.772-4.138,14.542,14.542,0,0,0,1.4-6.712V35.468a14.646,14.646,0,0,0-1.4-6.712A9.971,9.971,0,0,0,628.6,24.59a10.19,10.19,0,0,0-5.31-1.414Zm0,2.588a7.186,7.186,0,0,1,4.077,1.186,7.888,7.888,0,0,1,2.8,3.437,13.183,13.183,0,0,1,1.013,5.431v3.748a13.3,13.3,0,0,1-1,5.446A7.585,7.585,0,0,1,627.41,48.4a7.355,7.355,0,0,1-4.089,1.146,7.437,7.437,0,0,1-4.15-1.159A7.577,7.577,0,0,1,616.4,45a13.35,13.35,0,0,1-.989-5.431V35.82a13.163,13.163,0,0,1,1.013-5.446,7.9,7.9,0,0,1,2.8-3.423,7.187,7.187,0,0,1,4.067-1.187Zm25.391,33.265a8.146,8.146,0,0,1-3.625-.728,6.067,6.067,0,0,1-2.283-1.833,4.638,4.638,0,0,1-.928-2.237h-2.71a7.574,7.574,0,0,0,1.172,3.5,7.882,7.882,0,0,0,3.1,2.79,10.935,10.935,0,0,0,5.176,1.092,12.824,12.824,0,0,0,4.3-.674,8.805,8.805,0,0,0,3.259-2,8.712,8.712,0,0,0,2.075-3.262,12.824,12.824,0,0,0,.72-4.475V23.634h-2.515v4.987H656.3a8.1,8.1,0,0,0-1.355-2.372,8.437,8.437,0,0,0-2.625-2.17,8.068,8.068,0,0,0-3.955-.9,9.5,9.5,0,0,0-4.919,1.334,9.625,9.625,0,0,0-3.625,3.95,13.728,13.728,0,0,0-1.367,6.416v4.367a13.8,13.8,0,0,0,1.306,6.227,9.721,9.721,0,0,0,3.552,4.017,9.3,9.3,0,0,0,5.029,1.4,8.259,8.259,0,0,0,3.137-.552,8.094,8.094,0,0,0,2.307-1.388,8.294,8.294,0,0,0,1.538-1.752,8.406,8.406,0,0,0,.854-1.672h.146V51.3a7.948,7.948,0,0,1-1.953,5.648,7.4,7.4,0,0,1-5.688,2.086Zm.049-33.265a6.55,6.55,0,0,1,4.069,1.283,8.273,8.273,0,0,1,2.612,3.4,11.589,11.589,0,0,1,.916,4.65V39.11a11.555,11.555,0,0,1-.867,4.448,8.257,8.257,0,0,1-2.551,3.423,6.515,6.515,0,0,1-4.15,1.325,7.231,7.231,0,0,1-6.677-4.527A12.208,12.208,0,0,1,641.07,38.6V35.577a12.674,12.674,0,0,1,1.025-5.378,7.652,7.652,0,0,1,2.771-3.312,7.023,7.023,0,0,1,3.864-1.122ZM666.968,51.67h2.588V23.634h-2.588ZM666.089,15.2a2.479,2.479,0,0,0,.623,1.684,2.091,2.091,0,0,0,3.1,0,2.419,2.419,0,0,0,.623-1.685,2.487,2.487,0,0,0-.622-1.742,2.026,2.026,0,0,0-1.578-.687,1.979,1.979,0,0,0-1.526.688,2.494,2.494,0,0,0-.62,1.742Zm9.2,24.746a15.687,15.687,0,0,0,1.257,6.6,9.474,9.474,0,0,0,3.54,4.165,9.859,9.859,0,0,0,5.383,1.442,10.257,10.257,0,0,0,5.322-1.227,8.158,8.158,0,0,0,3.064-3.073,8.56,8.56,0,0,0,1.111-3.68H692.4a7.671,7.671,0,0,1-.977,2.521,5.549,5.549,0,0,1-2.148,2.008,7.709,7.709,0,0,1-3.735.782,6.849,6.849,0,0,1-5.6-2.521,11,11,0,0,1-2.063-7.131V35.5a11.145,11.145,0,0,1,2.039-7.144,6.714,6.714,0,0,1,5.53-2.534,7.015,7.015,0,0,1,3.735.89,6.1,6.1,0,0,1,2.185,2.224,7.782,7.782,0,0,1,.94,2.628h2.563a8.795,8.795,0,0,0-4.284-7.116,10.809,10.809,0,0,0-10.449.161,9.564,9.564,0,0,0-3.564,4.124,15.033,15.033,0,0,0-1.282,6.5Zm32.178,12.212a8.233,8.233,0,0,0,6.4-2.694,8.329,8.329,0,0,0,1.416-2.1h.146V51.67h2.539V31.906a9.548,9.548,0,0,0-1.16-4.969,7.039,7.039,0,0,0-3.162-2.844,10.849,10.849,0,0,0-4.565-.916,12.042,12.042,0,0,0-3.613.5,8.046,8.046,0,0,0-2.71,1.416A6.708,6.708,0,0,0,701,27.247a7.17,7.17,0,0,0-.757,2.7h2.563a5.107,5.107,0,0,1,.867-1.954,5.043,5.043,0,0,1,1.953-1.59,7.537,7.537,0,0,1,3.333-.634,6.749,6.749,0,0,1,4.614,1.537,6.1,6.1,0,0,1,1.758,4.825v3.585H707.91q-4.3,0-6.506,2.208a7.81,7.81,0,0,0-2.209,5.769,8.352,8.352,0,0,0,2.3,6.16,8.062,8.062,0,0,0,5.981,2.305Zm.513-2.615A6.329,6.329,0,0,1,703.659,48a5.5,5.5,0,0,1-1.758-4.367,5.518,5.518,0,0,1,1.428-3.909q1.428-1.537,4.6-1.537h7.4v3.935a7.361,7.361,0,0,1-1,3.855,7.216,7.216,0,0,1-2.661,2.615,7.327,7.327,0,0,1-3.685.944Zm17.093,2.129h2.612V12.959h-2.612Zm-711.938,48.8A9.252,9.252,0,0,0,8.2,101.829a9.612,9.612,0,0,0-3.537,3.945,13.851,13.851,0,0,0-1.318,6.335V117.8a14.291,14.291,0,0,0,1.233,6.146,9.541,9.541,0,0,0,3.43,4.043,9.059,9.059,0,0,0,5.054,1.429,8.694,8.694,0,0,0,3.247-.566,8.871,8.871,0,0,0,2.441-1.429,7.94,7.94,0,0,0,1.636-1.833,6.035,6.035,0,0,0,.806-1.806h.146v5.182h2.49V90.25H21.24v15.634h-.146a8.122,8.122,0,0,0-1.416-2.521,7.8,7.8,0,0,0-2.625-2.076,8.585,8.585,0,0,0-3.918-.82Zm.269,2.588a7.37,7.37,0,0,1,6.848,4.515,10.866,10.866,0,0,1,.989,4.7v5.068a11.953,11.953,0,0,1-.928,4.771,8.2,8.2,0,0,1-2.661,3.437,6.826,6.826,0,0,1-4.175,1.281,6.792,6.792,0,0,1-3.894-1.146,7.589,7.589,0,0,1-2.661-3.329,13.044,13.044,0,0,1-.964-5.283V112.84a13,13,0,0,1,1-5.418,7.49,7.49,0,0,1,2.686-3.275,6.765,6.765,0,0,1,3.756-1.092Zm18.31,25.906H34.3V100.925H31.714Zm-.879-36.473a2.479,2.479,0,0,0,.623,1.684,2.091,2.091,0,0,0,3.1,0,2.419,2.419,0,0,0,.623-1.685,2.487,2.487,0,0,0-.622-1.742,2.026,2.026,0,0,0-1.578-.687,1.98,1.98,0,0,0-1.526.688A2.494,2.494,0,0,0,30.835,92.489Zm10.6,36.473h2.612V111.515a10.08,10.08,0,0,1,.928-4.527,6.638,6.638,0,0,1,2.563-2.83,7.13,7.13,0,0,1,3.711-.971,11.475,11.475,0,0,1,1.343.067q.562.067.806.121v-2.721q-.293-.054-.769-.11a9.754,9.754,0,0,0-1.086-.054,7.566,7.566,0,0,0-3.882.9,6.981,6.981,0,0,0-2.369,2.171,7.675,7.675,0,0,0-1.1,2.4h-.146v-5.039H41.431Zm24.39.485a10.418,10.418,0,0,0,4.016-.714,8.956,8.956,0,0,0,2.856-1.82,8.625,8.625,0,0,0,1.758-2.367,7.226,7.226,0,0,0,.745-2.372H72.461a4.958,4.958,0,0,1-.961,2.151,6.064,6.064,0,0,1-2.209,1.793,7.633,7.633,0,0,1-3.467.714,6.747,6.747,0,0,1-5.688-2.642,11.469,11.469,0,0,1-2.026-7.144v-1.563H75.562V113.19a16.781,16.781,0,0,0-1.282-6.914,9.445,9.445,0,0,0-13.965-4.326,9.853,9.853,0,0,0-3.54,4.326,16.781,16.781,0,0,0-1.282,6.914v3.748a16.534,16.534,0,0,0,1.233,6.686,9.631,9.631,0,0,0,3.54,4.313,9.913,9.913,0,0,0,5.554,1.509Zm-7.715-16.282v-.324a13.44,13.44,0,0,1,.928-5.244,6.859,6.859,0,0,1,12.988,0,13.44,13.44,0,0,1,.928,5.244v.324Zm22.241,4.071a15.687,15.687,0,0,0,1.257,6.6A9.473,9.473,0,0,0,85.144,128a9.86,9.86,0,0,0,5.383,1.442,10.256,10.256,0,0,0,5.322-1.227,8.158,8.158,0,0,0,3.064-3.073,8.56,8.56,0,0,0,1.111-3.68H97.461a7.671,7.671,0,0,1-.977,2.521A5.549,5.549,0,0,1,94.336,126a7.709,7.709,0,0,1-3.735.782,6.849,6.849,0,0,1-5.6-2.52,11,11,0,0,1-2.063-7.131v-4.34a11.144,11.144,0,0,1,2.039-7.144,6.714,6.714,0,0,1,5.53-2.534,7.015,7.015,0,0,1,3.735.89,6.105,6.105,0,0,1,2.185,2.224,7.781,7.781,0,0,1,.94,2.628h2.563a8.795,8.795,0,0,0-4.284-7.116,10.809,10.809,0,0,0-10.449.161,9.564,9.564,0,0,0-3.564,4.124,15.034,15.034,0,0,0-1.282,6.5Zm27.173-16.31h-4.541v2.453h4.541v18.655a12.89,12.89,0,0,0,.549,4.124,3.974,3.974,0,0,0,1.99,2.332,9.138,9.138,0,0,0,4.1.741q.586,0,1.55-.081t1.355-.135v-2.483q-.366.026-1.147.094t-1.27.067a5.084,5.084,0,0,1-3.552-.957q-.989-.957-.989-3.6V103.379h6.567v-2.453h-6.567v-6.9H107.52Zm14.257,28.036h2.588V100.925h-2.588ZM120.9,92.489a2.479,2.479,0,0,0,.623,1.684,2.091,2.091,0,0,0,3.1,0,2.419,2.419,0,0,0,.623-1.685,2.487,2.487,0,0,0-.622-1.742,2.026,2.026,0,0,0-1.578-.687,1.98,1.98,0,0,0-1.526.688,2.494,2.494,0,0,0-.62,1.742Zm19.7,7.98a10.135,10.135,0,0,0-5.359,1.442,10.013,10.013,0,0,0-3.76,4.178,14.709,14.709,0,0,0-1.379,6.671v4.417a14.758,14.758,0,0,0,1.379,6.712,9.847,9.847,0,0,0,3.76,4.138,10.282,10.282,0,0,0,5.359,1.416,10.172,10.172,0,0,0,5.322-1.416,10.032,10.032,0,0,0,3.772-4.138,14.541,14.541,0,0,0,1.4-6.712V112.76a14.645,14.645,0,0,0-1.4-6.712,9.971,9.971,0,0,0-3.784-4.165,10.191,10.191,0,0,0-5.31-1.416Zm0,2.588a7.187,7.187,0,0,1,4.077,1.186,7.887,7.887,0,0,1,2.8,3.437,13.184,13.184,0,0,1,1.013,5.431v3.748a13.3,13.3,0,0,1-1,5.446,7.586,7.586,0,0,1-2.771,3.383,7.355,7.355,0,0,1-4.089,1.146,7.437,7.437,0,0,1-4.15-1.159,7.577,7.577,0,0,1-2.771-3.383,13.348,13.348,0,0,1-.989-5.431v-3.748a13.162,13.162,0,0,1,1.013-5.446,7.9,7.9,0,0,1,2.8-3.423,7.188,7.188,0,0,1,4.067-1.188Zm16.553,25.9h2.612V112.625a12.832,12.832,0,0,1,.854-4.717,8.068,8.068,0,0,1,2.576-3.518,6.816,6.816,0,0,1,4.309-1.334,5.926,5.926,0,0,1,5.8,3.72,10.128,10.128,0,0,1,.769,4.1v18.087h2.588v-18.87q0-4.748-2.429-7.184a8.417,8.417,0,0,0-6.238-2.439,8.618,8.618,0,0,0-4.248.93,7.24,7.24,0,0,0-2.563,2.291,9.533,9.533,0,0,0-1.27,2.65h-.146v-5.414h-2.612Zm42.285.485a8.225,8.225,0,0,0,6.4-2.693,8.327,8.327,0,0,0,1.416-2.1h.146v4.306h2.539V109.2a9.549,9.549,0,0,0-1.16-4.969,7.04,7.04,0,0,0-3.162-2.844,10.85,10.85,0,0,0-4.565-.916,12.042,12.042,0,0,0-3.613.5,8.046,8.046,0,0,0-2.71,1.416,6.709,6.709,0,0,0-1.758,2.156,7.17,7.17,0,0,0-.757,2.7h2.563a5.107,5.107,0,0,1,.867-1.954,5.044,5.044,0,0,1,1.953-1.59,7.537,7.537,0,0,1,3.333-.634,6.75,6.75,0,0,1,4.614,1.537,6.1,6.1,0,0,1,1.758,4.825V113h-7.422q-4.3,0-6.506,2.208a7.81,7.81,0,0,0-2.209,5.769,8.352,8.352,0,0,0,2.3,6.16,8.062,8.062,0,0,0,5.981,2.305Zm.513-2.615a6.329,6.329,0,0,1-4.321-1.537,6.019,6.019,0,0,1-1.756-4.063,6.121,6.121,0,0,1,1.426-4.218q1.428-1.537,4.6-1.537h7.4v3.935a7.36,7.36,0,0,1-1,3.855,7.215,7.215,0,0,1-2.661,2.615A7.329,7.329,0,0,1,199.951,126.831Zm16.773,2.13h2.612V112.625a12.833,12.833,0,0,1,.854-4.717,8.068,8.068,0,0,1,2.576-3.518,6.816,6.816,0,0,1,4.309-1.334,5.926,5.926,0,0,1,5.8,3.72,10.128,10.128,0,0,1,.769,4.1v18.087h2.588v-18.87q0-4.748-2.429-7.184a8.417,8.417,0,0,0-6.238-2.439,8.618,8.618,0,0,0-4.248.93,7.24,7.24,0,0,0-2.563,2.291,9.533,9.533,0,0,0-1.27,2.65h-.146v-5.414h-2.612Zm34.888-28.494a9.252,9.252,0,0,0-4.932,1.361,9.611,9.611,0,0,0-3.54,3.945,13.851,13.851,0,0,0-1.318,6.335V117.8a14.291,14.291,0,0,0,1.233,6.146,9.541,9.541,0,0,0,3.43,4.043,9.059,9.059,0,0,0,5.054,1.429,8.694,8.694,0,0,0,3.247-.566,8.87,8.87,0,0,0,2.441-1.429,7.941,7.941,0,0,0,1.636-1.833,6.035,6.035,0,0,0,.806-1.806h.146v5.182h2.49V90.25h-2.588v15.634h-.146a8.122,8.122,0,0,0-1.416-2.521,7.8,7.8,0,0,0-2.625-2.076,8.585,8.585,0,0,0-3.919-.82Zm.269,2.588a7.37,7.37,0,0,1,6.848,4.515,10.866,10.866,0,0,1,.989,4.7v5.068a11.953,11.953,0,0,1-.928,4.771,8.2,8.2,0,0,1-2.661,3.437,7.321,7.321,0,0,1-8.069.135,7.589,7.589,0,0,1-2.661-3.329,13.044,13.044,0,0,1-.964-5.283V112.84a13,13,0,0,1,1-5.418,7.49,7.49,0,0,1,2.686-3.275,6.765,6.765,0,0,1,3.759-1.092Zm25.879,5.283a6.561,6.561,0,0,0,1.074,3.95,7.039,7.039,0,0,0,2.979,2.291,31.086,31.086,0,0,0,4.346,1.47,33.612,33.612,0,0,1,3.43.994,6.566,6.566,0,0,1,2.588,1.59,3.99,3.99,0,0,1,.989,2.884,4.97,4.97,0,0,1-.854,2.938,5.407,5.407,0,0,1-2.38,1.86,9.109,9.109,0,0,1-3.577.647,8.057,8.057,0,0,1-3.87-.795,5.325,5.325,0,0,1-2.869-4.38h-2.563a7.291,7.291,0,0,0,1.013,3.733,7.5,7.5,0,0,0,3.064,2.83,10.876,10.876,0,0,0,5.151,1.092,12.009,12.009,0,0,0,4.8-.93,7.469,7.469,0,0,0,4.7-7.316,6.355,6.355,0,0,0-1.208-4.138,7.66,7.66,0,0,0-3.21-2.251,32.936,32.936,0,0,0-4.395-1.348q-1.416-.35-2.612-.773a9.654,9.654,0,0,1-2.087-.994,4.219,4.219,0,0,1-1.392-1.455,4.322,4.322,0,0,1-.5-2.17,4.431,4.431,0,0,1,1.782-3.828,7.151,7.151,0,0,1,4.321-1.294,6.951,6.951,0,0,1,3.613.823,5.232,5.232,0,0,1,1.99,1.981,4.925,4.925,0,0,1,.647,2.208h2.49a7.421,7.421,0,0,0-.928-3.559,7.207,7.207,0,0,0-2.844-2.83,9.7,9.7,0,0,0-4.9-1.1,10.962,10.962,0,0,0-4.407.862,7.277,7.277,0,0,0-3.186,2.615,7.625,7.625,0,0,0-1.2,4.4Zm25.073-7.413h-4.541v2.453h4.541v18.655a12.889,12.889,0,0,0,.549,4.124,3.974,3.974,0,0,0,1.99,2.332,9.138,9.138,0,0,0,4.1.741q.586,0,1.55-.081t1.355-.135v-2.483q-.366.026-1.147.094t-1.27.067a5.084,5.084,0,0,1-3.552-.957q-.989-.957-.989-3.6V103.379h6.567v-2.453H305.42v-6.9h-2.588Zm13.891,28.036h2.612V111.515a10.073,10.073,0,0,1,.928-4.527,6.638,6.638,0,0,1,2.563-2.83,7.131,7.131,0,0,1,3.711-.971,11.474,11.474,0,0,1,1.343.067q.562.067.806.121v-2.721q-.293-.054-.769-.11a9.753,9.753,0,0,0-1.086-.054,7.566,7.566,0,0,0-3.882.9,6.981,6.981,0,0,0-2.369,2.171,7.677,7.677,0,0,0-1.1,2.4h-.146v-5.039h-2.612Zm35.034-28.036h-2.612v17.252a9.766,9.766,0,0,1-.928,4.2,8.119,8.119,0,0,1-2.661,3.221,7.55,7.55,0,0,1-7.544.432,5.611,5.611,0,0,1-2.295-2.429,8.744,8.744,0,0,1-.83-4.017V100.925h-2.612v19.3a10.6,10.6,0,0,0,1.147,5.257,7.218,7.218,0,0,0,3.1,2.992,9.8,9.8,0,0,0,4.419.971,8.321,8.321,0,0,0,4.028-.9,8.109,8.109,0,0,0,2.649-2.208A8.425,8.425,0,0,0,349,123.758h.146v5.2h2.612Zm5.811,16.31a15.685,15.685,0,0,0,1.257,6.6,9.473,9.473,0,0,0,3.54,4.165,9.86,9.86,0,0,0,5.383,1.442,10.256,10.256,0,0,0,5.322-1.227,8.159,8.159,0,0,0,3.064-3.073,8.56,8.56,0,0,0,1.111-3.68h-2.563a7.67,7.67,0,0,1-.977,2.521A5.549,5.549,0,0,1,371.558,126a7.709,7.709,0,0,1-3.735.782,6.85,6.85,0,0,1-5.6-2.521,11,11,0,0,1-2.063-7.131v-4.34a11.144,11.144,0,0,1,2.039-7.144,6.714,6.714,0,0,1,5.53-2.534,7.015,7.015,0,0,1,3.735.89,6.1,6.1,0,0,1,2.185,2.224,7.782,7.782,0,0,1,.94,2.628h2.563a8.817,8.817,0,0,0-4.289-7.114,10.809,10.809,0,0,0-10.449.161,9.564,9.564,0,0,0-3.564,4.124,15.034,15.034,0,0,0-1.282,6.5Zm27.173-16.31H380.2v2.453h4.541v18.655a12.89,12.89,0,0,0,.549,4.124,3.974,3.974,0,0,0,1.99,2.332,9.139,9.139,0,0,0,4.1.741q.586,0,1.55-.081t1.355-.135v-2.483q-.366.026-1.147.094t-1.27.067a5.084,5.084,0,0,1-3.552-.957q-.989-.957-.989-3.6V103.379H393.9v-2.453h-6.567v-6.9h-2.588Zm32.69,0H414.82v17.252a9.766,9.766,0,0,1-.928,4.2,8.12,8.12,0,0,1-2.661,3.221,7.55,7.55,0,0,1-7.544.432,5.611,5.611,0,0,1-2.295-2.429,8.744,8.744,0,0,1-.83-4.017V100.925H397.95v19.3a10.6,10.6,0,0,0,1.147,5.257,7.218,7.218,0,0,0,3.1,2.992,9.794,9.794,0,0,0,4.419.971,8.321,8.321,0,0,0,4.028-.9,8.108,8.108,0,0,0,2.649-2.208,8.425,8.425,0,0,0,1.379-2.575h.146v5.2h2.612Zm7.2,28.036h2.612V111.515a10.073,10.073,0,0,1,.928-4.527,6.638,6.638,0,0,1,2.563-2.83,7.131,7.131,0,0,1,3.711-.971,11.474,11.474,0,0,1,1.343.067q.562.067.806.121v-2.721q-.293-.054-.769-.11a9.753,9.753,0,0,0-1.086-.054,7.566,7.566,0,0,0-3.882.9,6.982,6.982,0,0,0-2.367,2.171,7.677,7.677,0,0,0-1.1,2.4h-.146v-5.039h-2.612Zm24.39.485a10.418,10.418,0,0,0,4.016-.714,8.956,8.956,0,0,0,2.856-1.82,8.624,8.624,0,0,0,1.76-2.367,7.227,7.227,0,0,0,.745-2.372h-2.734a4.958,4.958,0,0,1-.964,2.156,6.064,6.064,0,0,1-2.209,1.793,7.633,7.633,0,0,1-3.467.714,6.747,6.747,0,0,1-5.688-2.642,11.469,11.469,0,0,1-2.026-7.144v-1.563h17.456V113.2a16.78,16.78,0,0,0-1.282-6.914,9.445,9.445,0,0,0-17.505,0A16.781,16.781,0,0,0,438.7,113.2v3.748a16.534,16.534,0,0,0,1.233,6.686,9.63,9.63,0,0,0,3.54,4.313,9.912,9.912,0,0,0,5.552,1.5Zm-7.715-16.282v-.324a13.441,13.441,0,0,1,.928-5.244,6.859,6.859,0,0,1,12.988,0,13.441,13.441,0,0,1,.928,5.244v.324Zm34.328,15.8h2.588V103.379h6.714v-2.453h-6.714v-3.18a5.441,5.441,0,0,1,1.086-3.865,4.893,4.893,0,0,1,3.577-1.092q.61,0,1.4.054t1.135.11v-2.46a7.106,7.106,0,0,0-1.2-.176q-.806-.067-1.562-.067-3.711,0-5.371,1.779t-1.66,5.553v3.342h-4.419v2.453h4.419Zm21.9-28.494a10.135,10.135,0,0,0-5.359,1.442,10.012,10.012,0,0,0-3.76,4.178,14.709,14.709,0,0,0-1.379,6.671v4.417a14.757,14.757,0,0,0,1.379,6.712,9.847,9.847,0,0,0,3.76,4.138,10.282,10.282,0,0,0,5.359,1.416,10.173,10.173,0,0,0,5.322-1.415,10.033,10.033,0,0,0,3.772-4.138,14.542,14.542,0,0,0,1.4-6.712v-4.417a14.645,14.645,0,0,0-1.4-6.712,9.971,9.971,0,0,0-3.784-4.165,10.19,10.19,0,0,0-5.311-1.414Zm0,2.588a7.186,7.186,0,0,1,4.077,1.186,7.887,7.887,0,0,1,2.8,3.437,13.184,13.184,0,0,1,1.013,5.431v3.748a13.3,13.3,0,0,1-1,5.446,7.586,7.586,0,0,1-2.771,3.383,7.355,7.355,0,0,1-4.089,1.146,7.437,7.437,0,0,1-4.15-1.159,7.577,7.577,0,0,1-2.771-3.383,13.348,13.348,0,0,1-.989-5.431v-3.748a13.163,13.163,0,0,1,1.013-5.446,7.9,7.9,0,0,1,2.8-3.423,7.187,7.187,0,0,1,4.066-1.187Zm16.772,25.906h2.612V111.515a10.079,10.079,0,0,1,.928-4.527,6.638,6.638,0,0,1,2.563-2.83,7.13,7.13,0,0,1,3.711-.971,11.474,11.474,0,0,1,1.343.067q.561.067.806.121v-2.721q-.293-.054-.769-.11a9.754,9.754,0,0,0-1.086-.054,7.566,7.566,0,0,0-3.882.9,6.982,6.982,0,0,0-2.369,2.171,7.673,7.673,0,0,0-1.1,2.4h-.146v-5.039h-2.612Zm42.773-28.036H554.3l-7.788,25.043h-.122l-7.861-25.043H535.62l9.5,28.44-.684,2.156a7,7,0,0,1-1.9,3.312,4.564,4.564,0,0,1-3.149,1.1q-.391,0-.977-.054t-.977-.11v2.48a7.842,7.842,0,0,0,1.074.161q.61.054,1.1.054a6.334,6.334,0,0,0,4.443-1.6,11.97,11.97,0,0,0,2.93-5.055l.952-2.723q1.123-3.559,2.271-7.067t2.295-7.036q1.147-3.533,2.295-7.049T557.08,100.925Zm12.524-.458a10.135,10.135,0,0,0-5.359,1.442,10.012,10.012,0,0,0-3.76,4.178,14.709,14.709,0,0,0-1.379,6.671v4.417a14.758,14.758,0,0,0,1.379,6.712,9.846,9.846,0,0,0,3.76,4.138,10.282,10.282,0,0,0,5.359,1.416,10.173,10.173,0,0,0,5.322-1.416,10.033,10.033,0,0,0,3.772-4.138,14.543,14.543,0,0,0,1.4-6.712v-4.417a14.645,14.645,0,0,0-1.4-6.712,9.972,9.972,0,0,0-3.784-4.165,10.19,10.19,0,0,0-5.314-1.414Zm0,2.588a7.186,7.186,0,0,1,4.077,1.186,7.887,7.887,0,0,1,2.8,3.437,13.183,13.183,0,0,1,1.013,5.431v3.748a13.3,13.3,0,0,1-1,5.446,7.586,7.586,0,0,1-2.771,3.383,7.356,7.356,0,0,1-4.089,1.146,7.437,7.437,0,0,1-4.15-1.159,7.577,7.577,0,0,1-2.771-3.383,13.349,13.349,0,0,1-.989-5.431v-3.748a13.162,13.162,0,0,1,1.013-5.446,7.9,7.9,0,0,1,2.8-3.423,7.188,7.188,0,0,1,4.063-1.187Zm35.815-2.13h-2.612v17.252a9.766,9.766,0,0,1-.928,4.2,8.119,8.119,0,0,1-2.661,3.221,7.55,7.55,0,0,1-7.544.432,5.611,5.611,0,0,1-2.3-2.429,8.744,8.744,0,0,1-.83-4.017V100.925h-2.612v19.3a10.6,10.6,0,0,0,1.147,5.257,7.218,7.218,0,0,0,3.1,2.992,9.8,9.8,0,0,0,4.419.971,8.321,8.321,0,0,0,4.028-.9,8.108,8.108,0,0,0,2.649-2.208,8.427,8.427,0,0,0,1.379-2.575h.146v5.2h2.612Zm7.2,28.036h2.612V111.515a10.08,10.08,0,0,1,.928-4.527,6.638,6.638,0,0,1,2.563-2.83,7.131,7.131,0,0,1,3.711-.971,11.475,11.475,0,0,1,1.343.067q.561.067.806.121v-2.721q-.293-.054-.769-.11a9.754,9.754,0,0,0-1.086-.054,7.566,7.566,0,0,0-3.882.9,6.983,6.983,0,0,0-2.366,2.171,7.674,7.674,0,0,0-1.1,2.4h-.146v-5.039h-2.612Zm33.252,7.359a8.147,8.147,0,0,1-3.625-.728,6.067,6.067,0,0,1-2.283-1.833,4.638,4.638,0,0,1-.928-2.237h-2.71a7.574,7.574,0,0,0,1.172,3.5,7.882,7.882,0,0,0,3.1,2.79,10.935,10.935,0,0,0,5.176,1.092,12.823,12.823,0,0,0,4.3-.674,8.8,8.8,0,0,0,3.259-2,8.713,8.713,0,0,0,2.075-3.262,12.826,12.826,0,0,0,.72-4.475V100.925h-2.515v4.987h-.122a8.1,8.1,0,0,0-1.355-2.372,8.436,8.436,0,0,0-2.625-2.17,8.068,8.068,0,0,0-3.955-.9,9.5,9.5,0,0,0-4.919,1.334,9.625,9.625,0,0,0-3.625,3.95,13.728,13.728,0,0,0-1.367,6.416v4.367a13.8,13.8,0,0,0,1.306,6.227,9.72,9.72,0,0,0,3.552,4.017,9.3,9.3,0,0,0,5.029,1.4,8.259,8.259,0,0,0,3.137-.552,8.094,8.094,0,0,0,2.307-1.388,8.294,8.294,0,0,0,1.538-1.752,8.4,8.4,0,0,0,.854-1.672h.146v5.769a7.948,7.948,0,0,1-1.953,5.648,7.4,7.4,0,0,1-5.686,2.086Zm.049-33.265a6.55,6.55,0,0,1,4.065,1.281,8.273,8.273,0,0,1,2.612,3.4,11.59,11.59,0,0,1,.916,4.65V116.4a11.556,11.556,0,0,1-.867,4.448,8.256,8.256,0,0,1-2.551,3.423,6.515,6.515,0,0,1-4.15,1.325,7.231,7.231,0,0,1-6.677-4.527,12.207,12.207,0,0,1-1.013-5.175v-3.019a12.672,12.672,0,0,1,1.025-5.378,7.652,7.652,0,0,1,2.771-3.312,7.024,7.024,0,0,1,3.872-1.127Zm18.118,25.906h2.612V111.515a10.08,10.08,0,0,1,.928-4.527,6.638,6.638,0,0,1,2.563-2.83,7.131,7.131,0,0,1,3.711-.971,11.475,11.475,0,0,1,1.343.067q.561.067.806.121v-2.721q-.293-.054-.769-.11a9.754,9.754,0,0,0-1.086-.054,7.566,7.566,0,0,0-3.882.9,6.985,6.985,0,0,0-2.364,2.171,7.674,7.674,0,0,0-1.1,2.4h-.146v-5.039h-2.612Zm24.536-28.494a10.135,10.135,0,0,0-5.359,1.442,10.013,10.013,0,0,0-3.76,4.178,14.709,14.709,0,0,0-1.379,6.671v4.417a14.757,14.757,0,0,0,1.379,6.712,9.846,9.846,0,0,0,3.76,4.138,10.282,10.282,0,0,0,5.359,1.416,10.172,10.172,0,0,0,5.322-1.416,10.033,10.033,0,0,0,3.772-4.138,14.542,14.542,0,0,0,1.4-6.712v-4.417a14.645,14.645,0,0,0-1.4-6.712,9.971,9.971,0,0,0-3.784-4.165,10.191,10.191,0,0,0-5.31-1.414Zm0,2.588a7.186,7.186,0,0,1,4.077,1.186,7.887,7.887,0,0,1,2.8,3.437,13.183,13.183,0,0,1,1.013,5.431v3.748a13.3,13.3,0,0,1-1,5.446,7.585,7.585,0,0,1-2.771,3.383,7.355,7.355,0,0,1-4.089,1.146,7.437,7.437,0,0,1-4.15-1.159,7.577,7.577,0,0,1-2.771-3.383,13.349,13.349,0,0,1-.989-5.431v-3.748a13.162,13.162,0,0,1,1.013-5.446,7.9,7.9,0,0,1,2.8-3.423,7.187,7.187,0,0,1,4.067-1.187Zm46.069-2.13h-2.661l-5.493,24.045h-.146L719.6,100.925h-2.539l-6.641,24.045h-.146l-5.42-24.045H701.9l7.133,28.036h2.588L718.31,105.1h.1l6.736,23.856h2.588Zm4.857,28.036h2.588V100.925H739.5Zm-.879-36.473a2.479,2.479,0,0,0,.623,1.684,2.091,2.091,0,0,0,3.1,0,2.419,2.419,0,0,0,.623-1.685,2.487,2.487,0,0,0-.622-1.742,2.026,2.026,0,0,0-1.578-.687,1.98,1.98,0,0,0-1.526.688,2.5,2.5,0,0,0-.618,1.742ZM749,128.961h2.612V112.625a12.833,12.833,0,0,1,.854-4.717,8.068,8.068,0,0,1,2.576-3.518,6.816,6.816,0,0,1,4.309-1.334,5.926,5.926,0,0,1,5.8,3.72,10.128,10.128,0,0,1,.769,4.1v18.087h2.588v-18.87q0-4.748-2.429-7.184a8.416,8.416,0,0,0-6.238-2.439,8.618,8.618,0,0,0-4.248.93,7.24,7.24,0,0,0-2.563,2.291,9.535,9.535,0,0,0-1.27,2.65h-.146v-5.414H749Zm35.156,7.359a8.147,8.147,0,0,1-3.625-.728,6.067,6.067,0,0,1-2.283-1.833,4.638,4.638,0,0,1-.928-2.237h-2.71a7.575,7.575,0,0,0,1.172,3.5,7.881,7.881,0,0,0,3.1,2.79,10.935,10.935,0,0,0,5.176,1.092,12.823,12.823,0,0,0,4.3-.674,8.805,8.805,0,0,0,3.259-2,8.712,8.712,0,0,0,2.075-3.262,12.827,12.827,0,0,0,.72-4.475V100.925H791.9v4.987h-.122a8.1,8.1,0,0,0-1.355-2.372,8.436,8.436,0,0,0-2.625-2.17,8.068,8.068,0,0,0-3.955-.9,9.5,9.5,0,0,0-4.919,1.334,9.626,9.626,0,0,0-3.625,3.95,13.728,13.728,0,0,0-1.367,6.416v4.367a13.8,13.8,0,0,0,1.306,6.227,9.721,9.721,0,0,0,3.552,4.017,9.3,9.3,0,0,0,5.029,1.4,8.258,8.258,0,0,0,3.137-.552,8.1,8.1,0,0,0,2.307-1.388,8.3,8.3,0,0,0,1.538-1.752,8.4,8.4,0,0,0,.854-1.672h.146v5.769a7.948,7.948,0,0,1-1.953,5.648,7.4,7.4,0,0,1-5.69,2.086Zm.049-33.265a6.55,6.55,0,0,1,4.065,1.281,8.273,8.273,0,0,1,2.612,3.4,11.589,11.589,0,0,1,.916,4.65V116.4a11.557,11.557,0,0,1-.867,4.448,8.257,8.257,0,0,1-2.551,3.423,6.515,6.515,0,0,1-4.15,1.325,7.231,7.231,0,0,1-6.677-4.527,12.208,12.208,0,0,1-1.013-5.175v-3.019a12.675,12.675,0,0,1,1.025-5.378,7.651,7.651,0,0,1,2.771-3.313,7.025,7.025,0,0,1,3.864-1.127ZM15.333,206.736a9.041,9.041,0,0,0,5.167-1.477,9.671,9.671,0,0,0,3.418-4.138,14.954,14.954,0,0,0,1.208-6.241v-5.338a14.79,14.79,0,0,0-1.208-6.2,9.693,9.693,0,0,0-3.381-4.111,8.886,8.886,0,0,0-5.1-1.47,9.113,9.113,0,0,0-2.747.417,8.635,8.635,0,0,0-2.417,1.186,8.045,8.045,0,0,0-1.843,1.793,6.189,6.189,0,0,0-1.05,2.208H7.227V167.542H4.639v38.711h2.49v-4.96h.146a7.584,7.584,0,0,0,1.734,2.862,8.347,8.347,0,0,0,2.808,1.9,8.978,8.978,0,0,0,3.515.682Zm-.244-2.615a7.127,7.127,0,0,1-4.066-1.181A8.079,8.079,0,0,1,8.24,199.65a10.924,10.924,0,0,1-1.013-4.8v-4.987a11.869,11.869,0,0,1,.973-4.989,7.884,7.884,0,0,1,2.747-3.329,7.07,7.07,0,0,1,4.065-1.2A6.611,6.611,0,0,1,19,181.562,7.777,7.777,0,0,1,21.592,185a13.805,13.805,0,0,1,.916,5.27v3.963a13.973,13.973,0,0,1-.9,5.27,7.6,7.6,0,0,1-2.576,3.423,6.582,6.582,0,0,1-3.944,1.2Zm35.352-25.906H47.827v17.252a9.766,9.766,0,0,1-.928,4.2,8.12,8.12,0,0,1-2.661,3.221,7.55,7.55,0,0,1-7.544.432,5.611,5.611,0,0,1-2.3-2.429,8.744,8.744,0,0,1-.83-4.017V178.217H30.957v19.3a10.6,10.6,0,0,0,1.147,5.257,7.218,7.218,0,0,0,3.1,2.992,9.794,9.794,0,0,0,4.419.971,8.321,8.321,0,0,0,4.028-.9,8.109,8.109,0,0,0,2.649-2.208,8.425,8.425,0,0,0,1.379-2.575h.146v5.2h2.612Zm5.933,7.413a6.561,6.561,0,0,0,1.074,3.95,7.039,7.039,0,0,0,2.979,2.291,31.09,31.09,0,0,0,4.346,1.47,33.622,33.622,0,0,1,3.43.994,6.566,6.566,0,0,1,2.588,1.59,3.99,3.99,0,0,1,.989,2.884,4.97,4.97,0,0,1-.854,2.938,5.407,5.407,0,0,1-2.38,1.86,9.109,9.109,0,0,1-3.577.647,8.056,8.056,0,0,1-3.87-.795,5.325,5.325,0,0,1-2.869-4.38H55.664a7.291,7.291,0,0,0,1.013,3.733,7.5,7.5,0,0,0,3.064,2.83,10.876,10.876,0,0,0,5.151,1.092,12.01,12.01,0,0,0,4.8-.93,7.47,7.47,0,0,0,4.7-7.316,6.354,6.354,0,0,0-1.208-4.138,7.66,7.66,0,0,0-3.21-2.251,32.94,32.94,0,0,0-4.395-1.348q-1.416-.35-2.612-.773a9.652,9.652,0,0,1-2.087-.994,4.218,4.218,0,0,1-1.392-1.455,4.322,4.322,0,0,1-.5-2.17,4.431,4.431,0,0,1,1.782-3.828,7.151,7.151,0,0,1,4.321-1.294,6.951,6.951,0,0,1,3.613.823,5.232,5.232,0,0,1,1.99,1.981,4.925,4.925,0,0,1,.647,2.208h2.49a7.421,7.421,0,0,0-.928-3.559,7.207,7.207,0,0,0-2.844-2.83,9.7,9.7,0,0,0-4.9-1.1,10.962,10.962,0,0,0-4.407.862,7.277,7.277,0,0,0-3.186,2.615,7.626,7.626,0,0,0-1.194,4.4ZM80.64,206.252h2.588V178.217H80.64Zm-.879-36.473a2.479,2.479,0,0,0,.623,1.684,2.091,2.091,0,0,0,3.1,0,2.419,2.419,0,0,0,.623-1.685,2.487,2.487,0,0,0-.622-1.742,2.026,2.026,0,0,0-1.578-.687,1.98,1.98,0,0,0-1.526.688A2.494,2.494,0,0,0,79.761,169.78Zm10.376,36.473h2.612V189.916A12.833,12.833,0,0,1,93.6,185.2a8.069,8.069,0,0,1,2.576-3.518,6.816,6.816,0,0,1,4.309-1.334,5.926,5.926,0,0,1,5.8,3.72,10.128,10.128,0,0,1,.769,4.1v18.087h2.588v-18.87q0-4.748-2.429-7.184a8.417,8.417,0,0,0-6.238-2.439,8.618,8.618,0,0,0-4.248.93,7.24,7.24,0,0,0-2.563,2.291,9.533,9.533,0,0,0-1.27,2.65H92.75v-5.418H90.137Zm35.5.485a10.418,10.418,0,0,0,4.016-.714,8.957,8.957,0,0,0,2.856-1.82,8.626,8.626,0,0,0,1.756-2.367,7.225,7.225,0,0,0,.745-2.372h-2.734a4.958,4.958,0,0,1-.964,2.156,6.064,6.064,0,0,1-2.209,1.793,7.633,7.633,0,0,1-3.467.714,6.747,6.747,0,0,1-5.688-2.642,11.469,11.469,0,0,1-2.026-7.144v-1.563h17.456v-2.291a16.78,16.78,0,0,0-1.282-6.914,9.445,9.445,0,0,0-17.5,0,16.781,16.781,0,0,0-1.282,6.914v3.748a16.534,16.534,0,0,0,1.233,6.686,9.631,9.631,0,0,0,3.54,4.313,9.912,9.912,0,0,0,5.553,1.5Zm-7.715-16.282v-.324a13.44,13.44,0,0,1,.928-5.244,6.859,6.859,0,0,1,12.988,0,13.44,13.44,0,0,1,.928,5.244v.324Zm22.363-4.825a6.561,6.561,0,0,0,1.074,3.95,7.039,7.039,0,0,0,2.979,2.291,31.084,31.084,0,0,0,4.346,1.47,33.619,33.619,0,0,1,3.43.994,6.566,6.566,0,0,1,2.588,1.59,3.99,3.99,0,0,1,.989,2.884,4.97,4.97,0,0,1-.854,2.938,5.406,5.406,0,0,1-2.38,1.86,9.108,9.108,0,0,1-3.577.647,8.057,8.057,0,0,1-3.87-.8,5.325,5.325,0,0,1-2.869-4.38h-2.563a7.291,7.291,0,0,0,1.013,3.733,7.5,7.5,0,0,0,3.064,2.83,10.877,10.877,0,0,0,5.151,1.092,12.009,12.009,0,0,0,4.8-.93,7.47,7.47,0,0,0,4.7-7.316,6.354,6.354,0,0,0-1.208-4.138,7.66,7.66,0,0,0-3.21-2.251,32.938,32.938,0,0,0-4.4-1.348q-1.416-.35-2.612-.773a9.652,9.652,0,0,1-2.087-.994,4.218,4.218,0,0,1-1.392-1.455,4.322,4.322,0,0,1-.5-2.17,4.431,4.431,0,0,1,1.782-3.828A7.151,7.151,0,0,1,149,180.238a6.951,6.951,0,0,1,3.613.823,5.232,5.232,0,0,1,1.99,1.981,4.925,4.925,0,0,1,.647,2.208h2.49a7.421,7.421,0,0,0-.928-3.559,7.207,7.207,0,0,0-2.844-2.83,9.7,9.7,0,0,0-4.9-1.1,10.962,10.962,0,0,0-4.407.862,7.277,7.277,0,0,0-3.186,2.615,7.626,7.626,0,0,0-1.192,4.4Zm22.632,0a6.561,6.561,0,0,0,1.074,3.95,7.039,7.039,0,0,0,2.979,2.291,31.084,31.084,0,0,0,4.346,1.47,33.619,33.619,0,0,1,3.43.994,6.566,6.566,0,0,1,2.588,1.59,3.99,3.99,0,0,1,.989,2.884,4.97,4.97,0,0,1-.854,2.938,5.406,5.406,0,0,1-2.38,1.86,9.109,9.109,0,0,1-3.577.647,8.057,8.057,0,0,1-3.87-.8,5.325,5.325,0,0,1-2.869-4.38H162.21a7.291,7.291,0,0,0,1.013,3.733,7.5,7.5,0,0,0,3.064,2.83,10.877,10.877,0,0,0,5.151,1.092,12.009,12.009,0,0,0,4.8-.93,7.47,7.47,0,0,0,4.7-7.316,6.355,6.355,0,0,0-1.208-4.138,7.66,7.66,0,0,0-3.21-2.251,32.937,32.937,0,0,0-4.4-1.348q-1.416-.35-2.612-.773a9.652,9.652,0,0,1-2.087-.994,4.219,4.219,0,0,1-1.392-1.455,4.322,4.322,0,0,1-.5-2.17,4.431,4.431,0,0,1,1.782-3.828,7.151,7.151,0,0,1,4.321-1.294,6.951,6.951,0,0,1,3.613.823,5.232,5.232,0,0,1,1.99,1.981,4.924,4.924,0,0,1,.647,2.208h2.49a7.421,7.421,0,0,0-.928-3.559,7.2,7.2,0,0,0-2.849-2.82,9.7,9.7,0,0,0-4.9-1.1,10.962,10.962,0,0,0-4.407.862,7.277,7.277,0,0,0-3.186,2.615,7.626,7.626,0,0,0-1.192,4.388Zm22.876-1.159a2.819,2.819,0,0,0,.708,1.913,2.306,2.306,0,0,0,1.733.782,2.35,2.35,0,0,0,1.782-.782,2.7,2.7,0,0,0,.732-1.914,2.815,2.815,0,0,0-.732-1.981,2.332,2.332,0,0,0-1.782-.8,2.233,2.233,0,0,0-1.733.8,2.872,2.872,0,0,0-.71,1.981Zm1.1,31.352,2.954-14.071h-3.125l-2.246,14.071Zm28.32-9.085a10.418,10.418,0,0,0,4.016-.714,8.958,8.958,0,0,0,2.856-1.82,8.626,8.626,0,0,0,1.755-2.367,7.225,7.225,0,0,0,.745-2.372h-2.734a4.958,4.958,0,0,1-.964,2.156,6.064,6.064,0,0,1-2.209,1.793,7.633,7.633,0,0,1-3.467.714,6.747,6.747,0,0,1-5.688-2.642,11.469,11.469,0,0,1-2.026-7.144v-1.563h17.456v-2.291a16.781,16.781,0,0,0-1.282-6.914,9.445,9.445,0,0,0-17.5,0,16.781,16.781,0,0,0-1.282,6.914v3.748a16.534,16.534,0,0,0,1.233,6.686,9.631,9.631,0,0,0,3.54,4.313,9.912,9.912,0,0,0,5.553,1.5ZM207.5,190.455v-.324a13.44,13.44,0,0,1,.928-5.244,6.859,6.859,0,0,1,12.988,0,13.44,13.44,0,0,1,.928,5.244v.324Zm23.408,15.8h2.612V189.916a12.833,12.833,0,0,1,.854-4.717,8.068,8.068,0,0,1,2.576-3.518,6.816,6.816,0,0,1,4.309-1.334,5.926,5.926,0,0,1,5.8,3.72,10.129,10.129,0,0,1,.769,4.1v18.087h2.588v-18.87q0-4.748-2.429-7.184a8.417,8.417,0,0,0-6.238-2.439,8.618,8.618,0,0,0-4.248.93,7.24,7.24,0,0,0-2.563,2.291,9.533,9.533,0,0,0-1.27,2.65h-.146v-5.418h-2.612Zm26.416,0h2.588V189.916a12.672,12.672,0,0,1,.867-4.717,8.11,8.11,0,0,1,2.6-3.518,6.829,6.829,0,0,1,4.3-1.334,6.359,6.359,0,0,1,3.589.984,6.218,6.218,0,0,1,2.271,2.749,10.085,10.085,0,0,1,.781,4.111v18.061h2.612V187.41q0-4.748-2.466-7.2a8.425,8.425,0,0,0-6.2-2.453,8.647,8.647,0,0,0-4.272.957,7.658,7.658,0,0,0-2.649,2.332,8.987,8.987,0,0,0-1.282,2.588h-.146V167.542h-2.588Zm33.081.485a8.216,8.216,0,0,0,6.4-2.693,8.326,8.326,0,0,0,1.416-2.1h.146v4.306H300.9V186.488a9.549,9.549,0,0,0-1.16-4.969,7.039,7.039,0,0,0-3.162-2.844,10.849,10.849,0,0,0-4.565-.916,12.043,12.043,0,0,0-3.613.5,8.046,8.046,0,0,0-2.71,1.416,6.709,6.709,0,0,0-1.758,2.156,7.171,7.171,0,0,0-.757,2.7h2.563a5.106,5.106,0,0,1,.867-1.954,5.044,5.044,0,0,1,1.953-1.59,7.536,7.536,0,0,1,3.333-.634,6.75,6.75,0,0,1,4.614,1.537,6.1,6.1,0,0,1,1.758,4.825v3.585h-7.422q-4.3,0-6.506,2.208a7.81,7.81,0,0,0-2.209,5.769,8.352,8.352,0,0,0,2.3,6.16,8.062,8.062,0,0,0,5.984,2.305Zm.513-2.615a6.329,6.329,0,0,1-4.321-1.537,6.019,6.019,0,0,1-1.756-4.063,6.121,6.121,0,0,1,1.426-4.218q1.428-1.537,4.6-1.537h7.4V196.7a7.358,7.358,0,0,1-1,3.855,7.214,7.214,0,0,1-2.661,2.615,7.329,7.329,0,0,1-3.688.951Zm16.772,2.13h2.61V189.916a12.832,12.832,0,0,1,.854-4.717,8.068,8.068,0,0,1,2.576-3.518,6.816,6.816,0,0,1,4.309-1.334,5.926,5.926,0,0,1,5.8,3.72,10.129,10.129,0,0,1,.769,4.1v18.087H327.2v-18.87q0-4.748-2.429-7.184a8.417,8.417,0,0,0-6.238-2.439,8.618,8.618,0,0,0-4.248.93,7.24,7.24,0,0,0-2.563,2.291,9.535,9.535,0,0,0-1.27,2.65H310.3v-5.418h-2.61Zm25.146-11.726a15.686,15.686,0,0,0,1.257,6.6,9.473,9.473,0,0,0,3.54,4.165,9.86,9.86,0,0,0,5.383,1.442,10.256,10.256,0,0,0,5.322-1.227,8.159,8.159,0,0,0,3.064-3.073,8.559,8.559,0,0,0,1.111-3.68H349.95a7.67,7.67,0,0,1-.977,2.521,5.549,5.549,0,0,1-2.148,2.008,7.709,7.709,0,0,1-3.735.782,6.85,6.85,0,0,1-5.6-2.521,11,11,0,0,1-2.063-7.131v-4.34a11.144,11.144,0,0,1,2.039-7.144A6.714,6.714,0,0,1,343,180.4a7.015,7.015,0,0,1,3.735.89,6.1,6.1,0,0,1,2.185,2.224,7.782,7.782,0,0,1,.94,2.628h2.563a8.795,8.795,0,0,0-4.284-7.116,10.809,10.809,0,0,0-10.449.161,9.564,9.564,0,0,0-3.564,4.124,15.034,15.034,0,0,0-1.282,6.5Zm26,11.726h2.588V178.217h-2.588Zm-.879-36.473a2.479,2.479,0,0,0,.623,1.684,2.091,2.091,0,0,0,3.1,0,2.419,2.419,0,0,0,.623-1.685,2.487,2.487,0,0,0-.622-1.742,2.026,2.026,0,0,0-1.578-.687,1.98,1.98,0,0,0-1.526.688,2.494,2.494,0,0,0-.618,1.742Zm10.378,36.473h2.612V189.916a12.832,12.832,0,0,1,.854-4.717,8.068,8.068,0,0,1,2.576-3.518,6.816,6.816,0,0,1,4.309-1.334,5.926,5.926,0,0,1,5.8,3.72,10.128,10.128,0,0,1,.769,4.1v18.087h2.588v-18.87q0-4.748-2.429-7.184a8.417,8.417,0,0,0-6.238-2.439,8.618,8.618,0,0,0-4.248.93,7.24,7.24,0,0,0-2.563,2.291,9.534,9.534,0,0,0-1.27,2.65h-.146v-5.418h-2.612Zm35.156,7.359a8.146,8.146,0,0,1-3.625-.728,6.067,6.067,0,0,1-2.283-1.833,4.638,4.638,0,0,1-.928-2.237h-2.71a7.575,7.575,0,0,0,1.172,3.5,7.882,7.882,0,0,0,3.1,2.79,10.935,10.935,0,0,0,5.176,1.092,12.823,12.823,0,0,0,4.3-.674,8.8,8.8,0,0,0,3.259-2,8.713,8.713,0,0,0,2.075-3.262,12.826,12.826,0,0,0,.72-4.475V178.217H411.23V183.2h-.122a8.1,8.1,0,0,0-1.355-2.372,8.436,8.436,0,0,0-2.625-2.17,8.069,8.069,0,0,0-3.955-.9,9.5,9.5,0,0,0-4.919,1.334,9.625,9.625,0,0,0-3.625,3.95,13.728,13.728,0,0,0-1.367,6.416v4.367a13.8,13.8,0,0,0,1.306,6.227,9.72,9.72,0,0,0,3.552,4.017,9.3,9.3,0,0,0,5.029,1.4,8.259,8.259,0,0,0,3.137-.552,8.1,8.1,0,0,0,2.307-1.388,8.3,8.3,0,0,0,1.538-1.752,8.4,8.4,0,0,0,.854-1.672h.146v5.769a7.948,7.948,0,0,1-1.953,5.648,7.4,7.4,0,0,1-5.687,2.086Zm.049-33.265a6.55,6.55,0,0,1,4.065,1.281,8.273,8.273,0,0,1,2.612,3.4,11.589,11.589,0,0,1,.916,4.65v4.017a11.558,11.558,0,0,1-.867,4.448,8.255,8.255,0,0,1-2.551,3.423,6.515,6.515,0,0,1-4.15,1.325,7.231,7.231,0,0,1-6.677-4.527,12.208,12.208,0,0,1-1.013-5.175v-3.019a12.674,12.674,0,0,1,1.025-5.378,7.652,7.652,0,0,1,2.771-3.313,7.024,7.024,0,0,1,3.869-1.127Zm36.182-2.588a10.135,10.135,0,0,0-5.359,1.442,10.012,10.012,0,0,0-3.76,4.178,14.709,14.709,0,0,0-1.379,6.671v4.417a14.758,14.758,0,0,0,1.379,6.712,9.846,9.846,0,0,0,3.76,4.138,10.282,10.282,0,0,0,5.359,1.416,10.173,10.173,0,0,0,5.322-1.416,10.032,10.032,0,0,0,3.772-4.138,14.542,14.542,0,0,0,1.4-6.712V190.05a14.646,14.646,0,0,0-1.4-6.712,9.971,9.971,0,0,0-3.784-4.165,10.19,10.19,0,0,0-5.31-1.414Zm0,2.588a7.186,7.186,0,0,1,4.077,1.186,7.888,7.888,0,0,1,2.8,3.437,13.184,13.184,0,0,1,1.013,5.431v3.748a13.3,13.3,0,0,1-1,5.446,7.585,7.585,0,0,1-2.771,3.383,7.356,7.356,0,0,1-4.089,1.146,7.437,7.437,0,0,1-4.15-1.159,7.577,7.577,0,0,1-2.771-3.383,13.349,13.349,0,0,1-.989-5.431V190.4a13.162,13.162,0,0,1,1.013-5.446,7.9,7.9,0,0,1,2.8-3.423A7.187,7.187,0,0,1,439.722,180.346Zm16.772,25.906h2.612V188.807a10.073,10.073,0,0,1,.928-4.527,6.637,6.637,0,0,1,2.563-2.83,7.131,7.131,0,0,1,3.711-.971,11.469,11.469,0,0,1,1.343.067q.562.067.806.121v-2.723q-.293-.054-.769-.11a9.75,9.75,0,0,0-1.086-.054,7.566,7.566,0,0,0-3.882.9,6.983,6.983,0,0,0-2.368,2.173,7.677,7.677,0,0,0-1.1,2.4h-.146v-5.04h-2.612Zm24.048,7.359a8.146,8.146,0,0,1-3.625-.728,6.067,6.067,0,0,1-2.283-1.833,4.639,4.639,0,0,1-.928-2.237H471a7.575,7.575,0,0,0,1.172,3.5,7.882,7.882,0,0,0,3.1,2.79,10.935,10.935,0,0,0,5.176,1.092,12.823,12.823,0,0,0,4.3-.674,8.808,8.808,0,0,0,3.252-2,8.712,8.712,0,0,0,2.075-3.262,12.826,12.826,0,0,0,.72-4.475V178.217H488.28V183.2h-.122a8.1,8.1,0,0,0-1.355-2.372,8.436,8.436,0,0,0-2.625-2.17,8.068,8.068,0,0,0-3.955-.9,9.5,9.5,0,0,0-4.919,1.334,9.625,9.625,0,0,0-3.625,3.95,13.727,13.727,0,0,0-1.367,6.416v4.367a13.8,13.8,0,0,0,1.306,6.227,9.72,9.72,0,0,0,3.552,4.017,9.3,9.3,0,0,0,5.029,1.4,8.259,8.259,0,0,0,3.137-.552,8.094,8.094,0,0,0,2.307-1.388,8.3,8.3,0,0,0,1.538-1.752,8.4,8.4,0,0,0,.854-1.672h.146v5.769a7.948,7.948,0,0,1-1.953,5.648,7.4,7.4,0,0,1-5.686,2.086Zm.049-33.265a6.55,6.55,0,0,1,4.065,1.281,8.273,8.273,0,0,1,2.612,3.4,11.589,11.589,0,0,1,.916,4.65v4.017a11.557,11.557,0,0,1-.867,4.448,8.256,8.256,0,0,1-2.551,3.423,6.515,6.515,0,0,1-4.15,1.325,7.231,7.231,0,0,1-6.677-4.527,12.207,12.207,0,0,1-1.013-5.175v-3.019a12.674,12.674,0,0,1,1.025-5.378,7.652,7.652,0,0,1,2.771-3.313,7.024,7.024,0,0,1,3.869-1.127ZM505,206.737a8.238,8.238,0,0,0,6.4-2.693,8.326,8.326,0,0,0,1.416-2.1h.146v4.306H515.5V186.488a9.548,9.548,0,0,0-1.16-4.969,7.04,7.04,0,0,0-3.162-2.844,10.848,10.848,0,0,0-4.565-.916,12.044,12.044,0,0,0-3.613.5,8.046,8.046,0,0,0-2.71,1.416,6.709,6.709,0,0,0-1.758,2.156,7.169,7.169,0,0,0-.757,2.7h2.563a5.107,5.107,0,0,1,.867-1.954,5.044,5.044,0,0,1,1.953-1.59,7.537,7.537,0,0,1,3.333-.634,6.75,6.75,0,0,1,4.614,1.537,6.1,6.1,0,0,1,1.758,4.825v3.585h-7.422q-4.3,0-6.506,2.208a7.81,7.81,0,0,0-2.209,5.769,8.352,8.352,0,0,0,2.3,6.16A8.062,8.062,0,0,0,505,206.737Zm.513-2.615a6.329,6.329,0,0,1-4.321-1.537,6.019,6.019,0,0,1-1.756-4.063,6.121,6.121,0,0,1,1.426-4.218q1.428-1.537,4.6-1.537h7.4V196.7a7.36,7.36,0,0,1-1,3.855,7.215,7.215,0,0,1-2.661,2.615,7.329,7.329,0,0,1-3.683.951Zm16.777,2.13h2.61V189.916a12.833,12.833,0,0,1,.854-4.717,8.068,8.068,0,0,1,2.576-3.518,6.816,6.816,0,0,1,4.309-1.334,5.926,5.926,0,0,1,5.8,3.72,10.127,10.127,0,0,1,.769,4.1v18.087H541.8v-18.87q0-4.748-2.429-7.184a8.417,8.417,0,0,0-6.238-2.439,8.618,8.618,0,0,0-4.248.93,7.24,7.24,0,0,0-2.563,2.291,9.534,9.534,0,0,0-1.27,2.65H524.9v-5.418h-2.61Zm26.9,0h2.588V178.217H549.19Zm-.879-36.473a2.479,2.479,0,0,0,.623,1.684,2.091,2.091,0,0,0,3.1,0,2.419,2.419,0,0,0,.623-1.685,2.487,2.487,0,0,0-.622-1.742,2.026,2.026,0,0,0-1.578-.687,1.98,1.98,0,0,0-1.526.688,2.5,2.5,0,0,0-.616,1.742Zm9.326,15.85a6.561,6.561,0,0,0,1.074,3.95,7.039,7.039,0,0,0,2.979,2.291,31.088,31.088,0,0,0,4.346,1.47,33.626,33.626,0,0,1,3.43.994,6.566,6.566,0,0,1,2.588,1.59,3.989,3.989,0,0,1,.989,2.884,4.97,4.97,0,0,1-.854,2.938,5.407,5.407,0,0,1-2.38,1.86,9.109,9.109,0,0,1-3.577.647,8.057,8.057,0,0,1-3.87-.795,5.325,5.325,0,0,1-2.869-4.38H556.93a7.291,7.291,0,0,0,1.013,3.733,7.5,7.5,0,0,0,3.064,2.83,10.877,10.877,0,0,0,5.151,1.092,12.009,12.009,0,0,0,4.8-.93,7.47,7.47,0,0,0,4.7-7.316,6.354,6.354,0,0,0-1.208-4.138,7.66,7.66,0,0,0-3.21-2.251,32.951,32.951,0,0,0-4.4-1.348q-1.416-.35-2.612-.773a9.65,9.65,0,0,1-2.087-.994,4.22,4.22,0,0,1-1.392-1.455,4.322,4.322,0,0,1-.5-2.17,4.431,4.431,0,0,1,1.782-3.828,7.152,7.152,0,0,1,4.321-1.294,6.951,6.951,0,0,1,3.613.823,5.232,5.232,0,0,1,1.99,1.981,4.925,4.925,0,0,1,.647,2.208h2.49a7.421,7.421,0,0,0-.928-3.559,7.207,7.207,0,0,0-2.844-2.83,9.7,9.7,0,0,0-4.9-1.1,10.961,10.961,0,0,0-4.407.862,7.277,7.277,0,0,0-3.186,2.615,7.627,7.627,0,0,0-1.19,4.4Zm30.444,21.107a8.242,8.242,0,0,0,6.4-2.693,8.325,8.325,0,0,0,1.416-2.1h.146v4.306h2.539V186.488a9.548,9.548,0,0,0-1.16-4.969,7.039,7.039,0,0,0-3.162-2.844,10.85,10.85,0,0,0-4.565-.916,12.043,12.043,0,0,0-3.613.5,8.045,8.045,0,0,0-2.71,1.416,6.708,6.708,0,0,0-1.758,2.156,7.17,7.17,0,0,0-.757,2.7h2.563a5.107,5.107,0,0,1,.867-1.954,5.043,5.043,0,0,1,1.953-1.59,7.537,7.537,0,0,1,3.333-.634,6.75,6.75,0,0,1,4.614,1.537,6.1,6.1,0,0,1,1.758,4.825v3.585h-7.422q-4.3,0-6.506,2.208a7.81,7.81,0,0,0-2.209,5.769,8.352,8.352,0,0,0,2.295,6.16,8.062,8.062,0,0,0,5.982,2.305Zm.513-2.615a6.329,6.329,0,0,1-4.321-1.537,6.019,6.019,0,0,1-1.756-4.063,6.121,6.121,0,0,1,1.425-4.218q1.428-1.537,4.6-1.537h7.4V196.7a7.36,7.36,0,0,1-1,3.855,7.215,7.215,0,0,1-2.661,2.615,7.329,7.329,0,0,1-3.682.951Zm18.164-25.906h-4.541v2.453h4.541v18.655a12.891,12.891,0,0,0,.549,4.124,3.974,3.974,0,0,0,1.99,2.332,9.138,9.138,0,0,0,4.1.741q.586,0,1.55-.081t1.355-.135v-2.483q-.366.027-1.147.094t-1.27.067a5.084,5.084,0,0,1-3.552-.957q-.989-.957-.989-3.6V180.67h6.567v-2.453h-6.567v-6.9h-2.588Zm14.263,28.036h2.588V178.217h-2.588Zm-.879-36.473a2.479,2.479,0,0,0,.623,1.684,2.091,2.091,0,0,0,3.1,0,2.419,2.419,0,0,0,.623-1.685,2.488,2.488,0,0,0-.622-1.742,2.026,2.026,0,0,0-1.578-.687,1.98,1.98,0,0,0-1.526.688,2.494,2.494,0,0,0-.62,1.742Zm19.7,7.98a10.135,10.135,0,0,0-5.359,1.442,10.013,10.013,0,0,0-3.76,4.178,14.709,14.709,0,0,0-1.379,6.671v4.417a14.757,14.757,0,0,0,1.379,6.712,9.847,9.847,0,0,0,3.76,4.138,10.282,10.282,0,0,0,5.359,1.416,10.172,10.172,0,0,0,5.322-1.416,10.032,10.032,0,0,0,3.772-4.138,14.543,14.543,0,0,0,1.4-6.712v-4.417a14.645,14.645,0,0,0-1.4-6.712,9.971,9.971,0,0,0-3.784-4.165,10.191,10.191,0,0,0-5.308-1.416Zm0,2.588a7.187,7.187,0,0,1,4.077,1.186,7.887,7.887,0,0,1,2.8,3.437,13.183,13.183,0,0,1,1.013,5.431v3.747a13.3,13.3,0,0,1-1,5.446,7.585,7.585,0,0,1-2.771,3.383,7.355,7.355,0,0,1-4.089,1.146,7.437,7.437,0,0,1-4.15-1.159,7.577,7.577,0,0,1-2.771-3.383,13.347,13.347,0,0,1-.989-5.431V190.4a13.162,13.162,0,0,1,1.013-5.446,7.9,7.9,0,0,1,2.8-3.423,7.187,7.187,0,0,1,4.069-1.188Zm16.558,25.9h2.612V189.916a12.834,12.834,0,0,1,.854-4.717,8.068,8.068,0,0,1,2.576-3.518,6.816,6.816,0,0,1,4.309-1.334,5.926,5.926,0,0,1,5.8,3.72,10.128,10.128,0,0,1,.769,4.1v18.087H675.9v-18.87q0-4.748-2.429-7.184a8.417,8.417,0,0,0-6.238-2.439,8.618,8.618,0,0,0-4.248.93,7.24,7.24,0,0,0-2.563,2.291,9.534,9.534,0,0,0-1.27,2.65h-.146v-5.418H656.4Zm33.081.485a8.207,8.207,0,0,0,6.393-2.693,8.326,8.326,0,0,0,1.416-2.1h.146v4.306h2.539V186.488a9.548,9.548,0,0,0-1.16-4.969,7.039,7.039,0,0,0-3.162-2.844,10.85,10.85,0,0,0-4.565-.916,12.045,12.045,0,0,0-3.613.5,8.045,8.045,0,0,0-2.71,1.416,6.708,6.708,0,0,0-1.758,2.156,7.169,7.169,0,0,0-.757,2.7h2.563a5.105,5.105,0,0,1,.867-1.954,5.043,5.043,0,0,1,1.953-1.59,7.536,7.536,0,0,1,3.333-.634,6.75,6.75,0,0,1,4.614,1.537,6.1,6.1,0,0,1,1.758,4.825v3.585h-7.422q-4.3,0-6.506,2.208a7.809,7.809,0,0,0-2.209,5.769,8.352,8.352,0,0,0,2.3,6.16,8.062,8.062,0,0,0,5.982,2.306Zm.513-2.615a6.329,6.329,0,0,1-4.321-1.537,6.019,6.019,0,0,1-1.756-4.063,6.121,6.121,0,0,1,1.425-4.218q1.428-1.537,4.6-1.537h7.4V196.7a7.36,7.36,0,0,1-1,3.855,7.215,7.215,0,0,1-2.661,2.615,7.329,7.329,0,0,1-3.692.951Zm17.086,2.13h2.612V167.542H707.08ZM13.745,284.028a10.419,10.419,0,0,0,4.016-.714,8.957,8.957,0,0,0,2.856-1.82,8.625,8.625,0,0,0,1.758-2.367,7.226,7.226,0,0,0,.745-2.372H20.386a4.958,4.958,0,0,1-.964,2.156,6.064,6.064,0,0,1-2.209,1.793,7.634,7.634,0,0,1-3.467.714,6.747,6.747,0,0,1-5.688-2.642,11.469,11.469,0,0,1-2.026-7.144v-1.563H23.486v-2.291a16.781,16.781,0,0,0-1.282-6.914,9.853,9.853,0,0,0-3.54-4.326,9.274,9.274,0,0,0-5.212-1.483,9.274,9.274,0,0,0-5.212,1.483,9.853,9.853,0,0,0-3.54,4.326,16.781,16.781,0,0,0-1.282,6.914v3.748a16.534,16.534,0,0,0,1.233,6.686,9.631,9.631,0,0,0,3.54,4.313A9.911,9.911,0,0,0,13.745,284.028ZM6.03,267.746v-.324a13.44,13.44,0,0,1,.928-5.244,6.777,6.777,0,0,1,6.494-4.542,6.608,6.608,0,0,1,3.894,1.173,7.6,7.6,0,0,1,2.6,3.37,13.44,13.44,0,0,1,.928,5.244v.324Zm23.413,15.8h2.612V267.207a12.833,12.833,0,0,1,.854-4.717,8.068,8.068,0,0,1,2.576-3.518,6.816,6.816,0,0,1,4.309-1.334,5.926,5.926,0,0,1,5.8,3.72,10.128,10.128,0,0,1,.769,4.1v18.087H48.95v-18.87q0-4.748-2.429-7.184a8.417,8.417,0,0,0-6.238-2.439,8.618,8.618,0,0,0-4.248.93,7.241,7.241,0,0,0-2.563,2.291,9.533,9.533,0,0,0-1.27,2.65h-.146V255.5H29.443ZM64.6,290.9a8.146,8.146,0,0,1-3.625-.728,6.067,6.067,0,0,1-2.283-1.833,4.638,4.638,0,0,1-.928-2.237h-2.71a7.574,7.574,0,0,0,1.172,3.5,7.881,7.881,0,0,0,3.1,2.79,10.935,10.935,0,0,0,5.176,1.092,12.824,12.824,0,0,0,4.3-.674,8.805,8.805,0,0,0,3.259-2,8.712,8.712,0,0,0,2.075-3.262,12.826,12.826,0,0,0,.72-4.475V255.508H72.339V260.5h-.122a8.1,8.1,0,0,0-1.355-2.372,8.436,8.436,0,0,0-2.625-2.17,8.068,8.068,0,0,0-3.955-.9,9.5,9.5,0,0,0-4.919,1.334,9.625,9.625,0,0,0-3.625,3.95,13.728,13.728,0,0,0-1.367,6.416v4.367a13.8,13.8,0,0,0,1.306,6.227,9.72,9.72,0,0,0,3.552,4.017,9.3,9.3,0,0,0,5.029,1.4,8.258,8.258,0,0,0,3.137-.552,8.1,8.1,0,0,0,2.307-1.388,8.3,8.3,0,0,0,1.538-1.752,8.406,8.406,0,0,0,.854-1.672h.146v5.769a7.948,7.948,0,0,1-1.953,5.648A7.4,7.4,0,0,1,64.6,290.9Zm.049-33.265a6.55,6.55,0,0,1,4.065,1.281,8.273,8.273,0,0,1,2.612,3.4,11.589,11.589,0,0,1,.916,4.65v4.017a11.557,11.557,0,0,1-.867,4.448,8.257,8.257,0,0,1-2.551,3.423,6.515,6.515,0,0,1-4.15,1.325A7.231,7.231,0,0,1,58,275.65a12.208,12.208,0,0,1-1.013-5.175v-3.019a12.673,12.673,0,0,1,1.025-5.378,7.652,7.652,0,0,1,2.771-3.313,7.024,7.024,0,0,1,3.868-1.127Zm24.414,26.389a8.224,8.224,0,0,0,6.4-2.692,8.326,8.326,0,0,0,1.416-2.1h.146v4.306H99.56V263.779a9.549,9.549,0,0,0-1.16-4.969,7.04,7.04,0,0,0-3.162-2.844,10.85,10.85,0,0,0-4.565-.916,12.043,12.043,0,0,0-3.613.5,8.045,8.045,0,0,0-2.71,1.416,6.709,6.709,0,0,0-1.758,2.156,7.17,7.17,0,0,0-.757,2.7H84.4a5.107,5.107,0,0,1,.867-1.954,5.043,5.043,0,0,1,1.953-1.59,7.537,7.537,0,0,1,3.333-.634,6.749,6.749,0,0,1,4.614,1.537A6.1,6.1,0,0,1,96.925,264v3.585H89.5q-4.3,0-6.506,2.208a7.81,7.81,0,0,0-2.209,5.769,8.352,8.352,0,0,0,2.295,6.16,8.062,8.062,0,0,0,5.983,2.305Zm.513-2.615a6.329,6.329,0,0,1-4.321-1.537,6.019,6.019,0,0,1-1.756-4.063,6.121,6.121,0,0,1,1.426-4.218q1.428-1.537,4.6-1.537h7.4v3.935a7.359,7.359,0,0,1-1,3.855,7.214,7.214,0,0,1-2.661,2.615,7.329,7.329,0,0,1-3.689.952Zm25.61,9.489a8.147,8.147,0,0,1-3.625-.728,6.067,6.067,0,0,1-2.283-1.833,4.638,4.638,0,0,1-.928-2.237h-2.71a7.575,7.575,0,0,0,1.172,3.5,7.882,7.882,0,0,0,3.1,2.79,10.935,10.935,0,0,0,5.176,1.092,12.823,12.823,0,0,0,4.3-.674,8.805,8.805,0,0,0,3.259-2,8.712,8.712,0,0,0,2.075-3.262,12.826,12.826,0,0,0,.72-4.475V255.508h-2.515V260.5H122.8a8.1,8.1,0,0,0-1.355-2.372,8.436,8.436,0,0,0-2.625-2.17,8.068,8.068,0,0,0-3.955-.9,9.5,9.5,0,0,0-4.919,1.334,9.625,9.625,0,0,0-3.625,3.95,13.728,13.728,0,0,0-1.367,6.416v4.367a13.8,13.8,0,0,0,1.306,6.227,9.72,9.72,0,0,0,3.552,4.017,9.3,9.3,0,0,0,5.029,1.4,8.258,8.258,0,0,0,3.137-.552,8.1,8.1,0,0,0,2.307-1.388,8.3,8.3,0,0,0,1.538-1.752,8.406,8.406,0,0,0,.854-1.672h.146v5.769a7.948,7.948,0,0,1-1.953,5.648,7.4,7.4,0,0,1-5.684,2.086Zm.049-33.265a6.55,6.55,0,0,1,4.065,1.281,8.273,8.273,0,0,1,2.612,3.4,11.589,11.589,0,0,1,.916,4.65v4.017a11.557,11.557,0,0,1-.867,4.448,8.256,8.256,0,0,1-2.551,3.423,6.515,6.515,0,0,1-4.15,1.325,7.231,7.231,0,0,1-6.677-4.527,12.208,12.208,0,0,1-1.013-5.175v-3.019a12.673,12.673,0,0,1,1.025-5.378,7.652,7.652,0,0,1,2.771-3.312,7.024,7.024,0,0,1,3.868-1.126Zm26.831,26.389a10.419,10.419,0,0,0,4.016-.714,8.957,8.957,0,0,0,2.856-1.82,8.621,8.621,0,0,0,1.762-2.365,7.225,7.225,0,0,0,.745-2.372h-2.734a4.958,4.958,0,0,1-.964,2.156,6.064,6.064,0,0,1-2.209,1.793,7.634,7.634,0,0,1-3.467.714,6.747,6.747,0,0,1-5.688-2.642,11.469,11.469,0,0,1-2.026-7.144v-1.563h17.456v-2.291a16.781,16.781,0,0,0-1.282-6.914,9.445,9.445,0,0,0-17.505,0,16.781,16.781,0,0,0-1.282,6.914v3.748a16.533,16.533,0,0,0,1.233,6.686,9.631,9.631,0,0,0,3.54,4.313,9.912,9.912,0,0,0,5.548,1.5Zm-7.715-16.282v-.321a13.44,13.44,0,0,1,.928-5.244,6.859,6.859,0,0,1,12.988,0,13.44,13.44,0,0,1,.928,5.244v.324Zm23.413,15.8h2.612v-17.98a10.058,10.058,0,0,1,.769-4,6.307,6.307,0,0,1,9.07-3.032,5.719,5.719,0,0,1,2.136,2.534,9.419,9.419,0,0,1,.745,3.909v18.572h2.612V265.325a9.08,9.08,0,0,1,.793-3.815,6.93,6.93,0,0,1,2.271-2.8,5.867,5.867,0,0,1,3.528-1.064,6.165,6.165,0,0,1,3.259.836,5.442,5.442,0,0,1,2.124,2.439,9.211,9.211,0,0,1,.745,3.9v18.731h2.612v-19.49q0-4.448-2.295-6.725a8.114,8.114,0,0,0-5.981-2.278,7.764,7.764,0,0,0-3.918.916,7.565,7.565,0,0,0-2.515,2.237,9.146,9.146,0,0,0-1.282,2.534H174.9a7.28,7.28,0,0,0-3.723-4.906,7.762,7.762,0,0,0-3.625-.782,7.275,7.275,0,0,0-3.8.876A6.519,6.519,0,0,0,161.543,258a8.1,8.1,0,0,0-1.025,2.224h-.146v-4.717H157.76Zm49.365.485a10.419,10.419,0,0,0,4.016-.714A8.957,8.957,0,0,0,214,281.5a8.624,8.624,0,0,0,1.759-2.368,7.224,7.224,0,0,0,.745-2.372H213.77a4.958,4.958,0,0,1-.964,2.156A6.064,6.064,0,0,1,210.6,280.7a7.633,7.633,0,0,1-3.467.714,6.747,6.747,0,0,1-5.688-2.642,11.469,11.469,0,0,1-2.026-7.144v-1.564H216.87v-2.291a16.781,16.781,0,0,0-1.282-6.914,9.445,9.445,0,0,0-17.5,0,16.781,16.781,0,0,0-1.282,6.914v3.748a16.534,16.534,0,0,0,1.233,6.686,9.631,9.631,0,0,0,3.54,4.313A9.911,9.911,0,0,0,207.129,284.028Zm-7.715-16.282v-.324a13.44,13.44,0,0,1,.928-5.244,6.859,6.859,0,0,1,12.988,0,13.44,13.44,0,0,1,.928,5.244v.324Zm23.413,15.8h2.612V267.207a12.833,12.833,0,0,1,.854-4.717,8.068,8.068,0,0,1,2.576-3.518,6.816,6.816,0,0,1,4.309-1.334,5.926,5.926,0,0,1,5.8,3.72,10.129,10.129,0,0,1,.769,4.1v18.087h2.588v-18.87q0-4.748-2.429-7.184a8.417,8.417,0,0,0-6.238-2.439,8.618,8.618,0,0,0-4.248.93,7.24,7.24,0,0,0-2.563,2.291,9.533,9.533,0,0,0-1.27,2.65h-.146V255.5h-2.612Zm27.71-28.036H246v2.453h4.541v18.655a12.891,12.891,0,0,0,.549,4.124,3.974,3.974,0,0,0,1.99,2.332,9.138,9.138,0,0,0,4.1.741q.586,0,1.55-.081t1.355-.135v-2.483q-.366.027-1.147.094t-1.27.067a5.084,5.084,0,0,1-3.552-.957q-.989-.957-.989-3.6V257.961h6.567v-2.453h-6.567v-6.9h-2.588Zm14.4,37.605,2.954-14.071h-3.125l-2.246,14.071Zm17.119-9.57h2.612V266.1a10.072,10.072,0,0,1,.928-4.527,6.637,6.637,0,0,1,2.563-2.83,7.13,7.13,0,0,1,3.711-.971,11.469,11.469,0,0,1,1.343.067q.562.067.806.121v-2.723q-.293-.054-.769-.11a9.758,9.758,0,0,0-1.086-.054,7.566,7.566,0,0,0-3.882.9,6.982,6.982,0,0,0-2.369,2.173,7.677,7.677,0,0,0-1.1,2.4h-.146v-5.041h-2.612Zm24.39.485a10.419,10.419,0,0,0,4.016-.714,8.956,8.956,0,0,0,2.856-1.82,8.625,8.625,0,0,0,1.758-2.367,7.226,7.226,0,0,0,.745-2.372h-2.734a4.958,4.958,0,0,1-.964,2.156,6.064,6.064,0,0,1-2.209,1.793,7.634,7.634,0,0,1-3.467.714,6.747,6.747,0,0,1-5.688-2.642,11.469,11.469,0,0,1-2.026-7.144v-1.563h17.456v-2.291a16.78,16.78,0,0,0-1.282-6.914,9.445,9.445,0,0,0-17.505,0,16.781,16.781,0,0,0-1.282,6.914v3.748a16.534,16.534,0,0,0,1.233,6.686,9.631,9.631,0,0,0,3.54,4.313,9.911,9.911,0,0,0,5.552,1.5Zm-7.715-16.282v-.324a13.44,13.44,0,0,1,.928-5.244,6.859,6.859,0,0,1,12.988,0,13.44,13.44,0,0,1,.928,5.244v.324Zm31.982-12.7a9.252,9.252,0,0,0-4.932,1.361,9.613,9.613,0,0,0-3.54,3.95,13.851,13.851,0,0,0-1.318,6.335v5.688a14.29,14.29,0,0,0,1.233,6.146,9.541,9.541,0,0,0,3.43,4.043A9.059,9.059,0,0,0,330.64,284a8.693,8.693,0,0,0,3.247-.566A8.87,8.87,0,0,0,336.328,282a7.94,7.94,0,0,0,1.636-1.833,6.036,6.036,0,0,0,.806-1.806h.146v5.179h2.49V244.833h-2.588v15.634h-.146a8.121,8.121,0,0,0-1.416-2.521,7.8,7.8,0,0,0-2.625-2.076,8.586,8.586,0,0,0-3.918-.82Zm.269,2.588a7.37,7.37,0,0,1,6.848,4.515,10.866,10.866,0,0,1,.989,4.7v5.068a11.953,11.953,0,0,1-.928,4.771,8.2,8.2,0,0,1-2.661,3.437,7.321,7.321,0,0,1-8.069.135,7.589,7.589,0,0,1-2.661-3.329,13.042,13.042,0,0,1-.964-5.283v-4.231a13,13,0,0,1,1-5.418,7.49,7.49,0,0,1,2.686-3.275,6.765,6.765,0,0,1,3.759-1.092Zm36.987-2.13h-2.612v17.252a9.766,9.766,0,0,1-.928,4.2,8.12,8.12,0,0,1-2.661,3.221,7.55,7.55,0,0,1-7.544.432,5.611,5.611,0,0,1-2.3-2.429,8.744,8.744,0,0,1-.83-4.017V255.508h-2.612v19.3a10.6,10.6,0,0,0,1.147,5.257,7.218,7.218,0,0,0,3.1,2.992,9.794,9.794,0,0,0,4.419.971,8.321,8.321,0,0,0,4.028-.9,8.11,8.11,0,0,0,2.649-2.208,8.425,8.425,0,0,0,1.379-2.575h.146v5.2h2.612Zm5.811,16.31a15.685,15.685,0,0,0,1.257,6.6,9.473,9.473,0,0,0,3.54,4.165,9.861,9.861,0,0,0,5.383,1.442,10.257,10.257,0,0,0,5.322-1.227,8.158,8.158,0,0,0,3.064-3.073,8.559,8.559,0,0,0,1.111-3.68h-2.563a7.67,7.67,0,0,1-.977,2.521,5.549,5.549,0,0,1-2.148,2.009,7.709,7.709,0,0,1-3.735.782,6.85,6.85,0,0,1-5.6-2.521,11,11,0,0,1-2.063-7.131v-4.34a11.144,11.144,0,0,1,2.039-7.144,6.714,6.714,0,0,1,5.53-2.534,7.014,7.014,0,0,1,3.735.89,6.105,6.105,0,0,1,2.185,2.224,7.781,7.781,0,0,1,.94,2.628h2.563a8.795,8.795,0,0,0-4.284-7.116,10.808,10.808,0,0,0-10.449.161,9.563,9.563,0,0,0-3.564,4.124,15.033,15.033,0,0,0-1.282,6.5Zm26,11.726h2.588V255.508H399.78ZM398.9,247.07a2.479,2.479,0,0,0,.623,1.684,2.091,2.091,0,0,0,3.1,0,2.419,2.419,0,0,0,.623-1.685,2.487,2.487,0,0,0-.622-1.742,2.026,2.026,0,0,0-1.578-.687,1.98,1.98,0,0,0-1.526.688,2.494,2.494,0,0,0-.621,1.743Zm10.376,36.474h2.612V267.207a12.833,12.833,0,0,1,.854-4.717,8.068,8.068,0,0,1,2.576-3.518,6.816,6.816,0,0,1,4.309-1.334,5.926,5.926,0,0,1,5.8,3.72,10.128,10.128,0,0,1,.769,4.1v18.087h2.588v-18.87q0-4.748-2.429-7.184a8.417,8.417,0,0,0-6.238-2.439,8.618,8.618,0,0,0-4.248.93,7.241,7.241,0,0,0-2.563,2.291,9.533,9.533,0,0,0-1.27,2.65h-.146V255.5h-2.612Zm35.156,7.359a8.146,8.146,0,0,1-3.625-.728,6.068,6.068,0,0,1-2.283-1.833,4.639,4.639,0,0,1-.928-2.237h-2.71a7.575,7.575,0,0,0,1.172,3.5,7.882,7.882,0,0,0,3.1,2.79,10.935,10.935,0,0,0,5.176,1.092,12.824,12.824,0,0,0,4.3-.674,8.805,8.805,0,0,0,3.259-2,8.711,8.711,0,0,0,2.075-3.262,12.827,12.827,0,0,0,.72-4.475V255.508h-2.515V260.5h-.122a8.1,8.1,0,0,0-1.355-2.372,8.436,8.436,0,0,0-2.625-2.17,8.068,8.068,0,0,0-3.955-.9,9.5,9.5,0,0,0-4.917,1.331,9.625,9.625,0,0,0-3.625,3.95,13.728,13.728,0,0,0-1.367,6.416v4.367a13.8,13.8,0,0,0,1.306,6.227,9.719,9.719,0,0,0,3.552,4.017,9.3,9.3,0,0,0,5.029,1.4,8.259,8.259,0,0,0,3.137-.552,8.1,8.1,0,0,0,2.307-1.388,8.3,8.3,0,0,0,1.538-1.752,8.4,8.4,0,0,0,.854-1.672h.146v5.769a7.948,7.948,0,0,1-1.953,5.648,7.4,7.4,0,0,1-5.69,2.089Zm.049-33.265a6.55,6.55,0,0,1,4.065,1.281,8.273,8.273,0,0,1,2.612,3.4,11.589,11.589,0,0,1,.916,4.65v4.017a11.558,11.558,0,0,1-.867,4.448,8.256,8.256,0,0,1-2.551,3.423,6.515,6.515,0,0,1-4.15,1.325,7.231,7.231,0,0,1-6.677-4.527,12.208,12.208,0,0,1-1.013-5.175v-3.019a12.674,12.674,0,0,1,1.025-5.378,7.653,7.653,0,0,1,2.771-3.312A7.025,7.025,0,0,1,444.482,257.638Zm27.076,25.906h2.612V266.1a10.072,10.072,0,0,1,.928-4.527,6.638,6.638,0,0,1,2.563-2.83,7.131,7.131,0,0,1,3.711-.971,11.469,11.469,0,0,1,1.343.067q.562.067.806.121v-2.723q-.293-.054-.769-.11a9.758,9.758,0,0,0-1.086-.054,7.566,7.566,0,0,0-3.882.9,6.983,6.983,0,0,0-2.369,2.173,7.678,7.678,0,0,0-1.1,2.4h-.146v-5.041h-2.612Zm16.284,0h2.588V255.508h-2.588Zm-.879-36.473a2.479,2.479,0,0,0,.623,1.684,2.091,2.091,0,0,0,3.1,0,2.419,2.419,0,0,0,.623-1.685,2.487,2.487,0,0,0-.622-1.742,2.026,2.026,0,0,0-1.578-.687,1.98,1.98,0,0,0-1.526.688A2.494,2.494,0,0,0,486.963,247.071Zm9.326,15.85a6.561,6.561,0,0,0,1.074,3.95,7.04,7.04,0,0,0,2.979,2.291,31.088,31.088,0,0,0,4.346,1.47,33.614,33.614,0,0,1,3.43.994,6.566,6.566,0,0,1,2.588,1.59,3.99,3.99,0,0,1,.989,2.884,4.97,4.97,0,0,1-.854,2.938,5.407,5.407,0,0,1-2.38,1.86,9.108,9.108,0,0,1-3.577.647,8.056,8.056,0,0,1-3.87-.8,5.325,5.325,0,0,1-2.869-4.38h-2.563A7.29,7.29,0,0,0,496.6,280.1a7.5,7.5,0,0,0,3.064,2.83,10.877,10.877,0,0,0,5.151,1.092,12.009,12.009,0,0,0,4.8-.93,7.47,7.47,0,0,0,4.7-7.316,6.355,6.355,0,0,0-1.208-4.138,7.66,7.66,0,0,0-3.21-2.251,32.932,32.932,0,0,0-4.4-1.348q-1.416-.35-2.612-.773a9.652,9.652,0,0,1-2.087-.994,4.218,4.218,0,0,1-1.392-1.455,4.322,4.322,0,0,1-.5-2.17,4.431,4.431,0,0,1,1.782-3.828A7.151,7.151,0,0,1,505,257.529a6.951,6.951,0,0,1,3.613.823,5.232,5.232,0,0,1,1.99,1.981,4.925,4.925,0,0,1,.647,2.208h2.49a7.421,7.421,0,0,0-.928-3.559,7.207,7.207,0,0,0-2.844-2.83,9.7,9.7,0,0,0-4.9-1.1,10.962,10.962,0,0,0-4.407.862,7.277,7.277,0,0,0-3.186,2.615,7.628,7.628,0,0,0-1.186,4.4Zm26.367,9.489,3.149-3.262,10.084,14.395h3.2l-11.353-16.255,10.664-11.78h-3.174l-12.451,13.581h-.122V244.833h-2.588v38.711h2.588Zm36.084,11.618a8.225,8.225,0,0,0,6.4-2.693,8.326,8.326,0,0,0,1.416-2.1h.146v4.306h2.539V263.779a9.548,9.548,0,0,0-1.16-4.969,7.039,7.039,0,0,0-3.162-2.844,10.849,10.849,0,0,0-4.565-.916,12.042,12.042,0,0,0-3.613.5,8.045,8.045,0,0,0-2.71,1.416,6.709,6.709,0,0,0-1.758,2.156,7.168,7.168,0,0,0-.757,2.7h2.563a5.108,5.108,0,0,1,.867-1.954,5.043,5.043,0,0,1,1.953-1.59,7.537,7.537,0,0,1,3.333-.634,6.749,6.749,0,0,1,4.614,1.537A6.1,6.1,0,0,1,566.6,264v3.585H559.18q-4.3,0-6.506,2.208a7.809,7.809,0,0,0-2.209,5.769,8.352,8.352,0,0,0,2.3,6.16,8.062,8.062,0,0,0,5.98,2.305Zm.513-2.615a6.329,6.329,0,0,1-4.321-1.537,6.019,6.019,0,0,1-1.756-4.063A6.121,6.121,0,0,1,554.6,271.6q1.428-1.537,4.6-1.537h7.4v3.935a7.36,7.36,0,0,1-1,3.855,7.214,7.214,0,0,1-2.661,2.615,7.329,7.329,0,0,1-3.688.951Zm16.772,2.13h2.612V267.207a12.833,12.833,0,0,1,.854-4.717,8.068,8.068,0,0,1,2.576-3.518,6.816,6.816,0,0,1,4.309-1.334,5.926,5.926,0,0,1,5.8,3.72,10.128,10.128,0,0,1,.769,4.1v18.087h2.588v-18.87q0-4.748-2.429-7.184a8.416,8.416,0,0,0-6.238-2.439,8.618,8.618,0,0,0-4.248.93,7.24,7.24,0,0,0-2.563,2.291,9.534,9.534,0,0,0-1.27,2.65h-.146V255.5h-2.612Zm34.888-28.494a9.252,9.252,0,0,0-4.932,1.361,9.613,9.613,0,0,0-3.54,3.95,13.851,13.851,0,0,0-1.318,6.335v5.688a14.29,14.29,0,0,0,1.233,6.146,9.541,9.541,0,0,0,3.43,4.043A9.059,9.059,0,0,0,610.84,284a8.693,8.693,0,0,0,3.247-.566,8.871,8.871,0,0,0,2.441-1.429,7.94,7.94,0,0,0,1.636-1.833,6.033,6.033,0,0,0,.806-1.806h.146v5.177h2.49V244.833h-2.588v15.634h-.146a8.121,8.121,0,0,0-1.416-2.521,7.8,7.8,0,0,0-2.625-2.076A8.585,8.585,0,0,0,610.913,255.049Zm.269,2.588a7.37,7.37,0,0,1,6.848,4.515,10.866,10.866,0,0,1,.989,4.7v5.068a11.954,11.954,0,0,1-.928,4.771,8.2,8.2,0,0,1-2.661,3.437,7.321,7.321,0,0,1-8.069.135,7.589,7.589,0,0,1-2.661-3.329,13.044,13.044,0,0,1-.964-5.283v-4.232a13,13,0,0,1,1-5.418,7.49,7.49,0,0,1,2.686-3.275,6.764,6.764,0,0,1,3.76-1.092ZM5.151,360.835H7.739V332.8H5.151Zm-.879-36.473a2.479,2.479,0,0,0,.623,1.684,2.1,2.1,0,0,0,3.105,0,2.419,2.419,0,0,0,.623-1.685A2.487,2.487,0,0,0,8,322.62a2.026,2.026,0,0,0-1.578-.687,1.979,1.979,0,0,0-1.526.688,2.493,2.493,0,0,0-.625,1.741Zm10.376,36.473H17.26V344.5a12.833,12.833,0,0,1,.854-4.717,8.068,8.068,0,0,1,2.576-3.518A6.816,6.816,0,0,1,25,334.929a5.926,5.926,0,0,1,5.8,3.72,10.129,10.129,0,0,1,.769,4.1v18.088h2.588v-18.87q0-4.748-2.429-7.184a8.417,8.417,0,0,0-6.238-2.439,8.619,8.619,0,0,0-4.248.93,7.24,7.24,0,0,0-2.563,2.291,9.532,9.532,0,0,0-1.27,2.65h-.146v-5.418H14.648Zm25.146-11.726a15.687,15.687,0,0,0,1.257,6.6,9.473,9.473,0,0,0,3.54,4.165,9.861,9.861,0,0,0,5.383,1.442,10.256,10.256,0,0,0,5.322-1.227,8.158,8.158,0,0,0,3.064-3.073,8.559,8.559,0,0,0,1.111-3.68H56.909a7.67,7.67,0,0,1-.977,2.521,5.549,5.549,0,0,1-2.148,2.009,7.708,7.708,0,0,1-3.735.782,6.849,6.849,0,0,1-5.6-2.521A11,11,0,0,1,42.386,349v-4.34a11.144,11.144,0,0,1,2.039-7.144,6.713,6.713,0,0,1,5.53-2.534,7.014,7.014,0,0,1,3.735.89,6.1,6.1,0,0,1,2.185,2.224,7.781,7.781,0,0,1,.94,2.628h2.563a8.795,8.795,0,0,0-4.284-7.116,9.7,9.7,0,0,0-5.164-1.267,9.748,9.748,0,0,0-5.286,1.429,9.564,9.564,0,0,0-3.564,4.124,15.034,15.034,0,0,0-1.282,6.5ZM65.43,360.835h2.612V343.389a10.08,10.08,0,0,1,.928-4.527,6.638,6.638,0,0,1,2.563-2.83,7.131,7.131,0,0,1,3.711-.971,11.477,11.477,0,0,1,1.343.067q.562.067.806.121v-2.723q-.293-.054-.769-.11a9.746,9.746,0,0,0-1.086-.054,7.566,7.566,0,0,0-3.882.9,6.982,6.982,0,0,0-2.369,2.173,7.675,7.675,0,0,0-1.1,2.4h-.146V332.8H65.43Zm24.39.485a10.418,10.418,0,0,0,4.016-.714,8.956,8.956,0,0,0,2.856-1.82,8.625,8.625,0,0,0,1.758-2.367,7.226,7.226,0,0,0,.745-2.372H96.46a4.958,4.958,0,0,1-.96,2.151,6.064,6.064,0,0,1-2.209,1.793,7.633,7.633,0,0,1-3.467.714,6.747,6.747,0,0,1-5.688-2.642,11.469,11.469,0,0,1-2.026-7.144v-1.563H99.561v-2.291a16.781,16.781,0,0,0-1.282-6.914,9.445,9.445,0,0,0-17.505,0,16.781,16.781,0,0,0-1.282,6.914v3.748a16.534,16.534,0,0,0,1.233,6.686,9.63,9.63,0,0,0,3.54,4.313,9.912,9.912,0,0,0,5.554,1.509ZM82.1,345.037v-.324a13.44,13.44,0,0,1,.928-5.244,6.859,6.859,0,0,1,12.988,0,13.44,13.44,0,0,1,.928,5.244v.324Zm30.176,16.282a8.242,8.242,0,0,0,6.4-2.693,8.327,8.327,0,0,0,1.416-2.1h.146v4.306h2.539V341.07a9.549,9.549,0,0,0-1.16-4.969,7.039,7.039,0,0,0-3.162-2.844,10.85,10.85,0,0,0-4.565-.916,12.043,12.043,0,0,0-3.613.5,8.046,8.046,0,0,0-2.71,1.416,6.709,6.709,0,0,0-1.758,2.156,7.17,7.17,0,0,0-.757,2.7h2.563a5.107,5.107,0,0,1,.867-1.954,5.043,5.043,0,0,1,1.953-1.59,7.537,7.537,0,0,1,3.333-.634,6.749,6.749,0,0,1,4.614,1.537,6.1,6.1,0,0,1,1.758,4.825v3.585H112.72q-4.3,0-6.506,2.208a7.808,7.808,0,0,0-2.214,5.77,8.352,8.352,0,0,0,2.295,6.16,8.062,8.062,0,0,0,5.985,2.3Zm.513-2.615a6.329,6.329,0,0,1-4.321-1.537,6.019,6.019,0,0,1-1.756-4.063,6.121,6.121,0,0,1,1.426-4.218q1.428-1.537,4.6-1.537h7.4v3.935a7.359,7.359,0,0,1-1,3.855,7.215,7.215,0,0,1-2.661,2.615,7.329,7.329,0,0,1-3.684.951Zm15.723-18.492a6.561,6.561,0,0,0,1.074,3.95,7.039,7.039,0,0,0,2.979,2.291,31.08,31.08,0,0,0,4.346,1.47,33.6,33.6,0,0,1,3.43.994,6.566,6.566,0,0,1,2.588,1.59,3.989,3.989,0,0,1,.989,2.884,4.97,4.97,0,0,1-.854,2.938,5.406,5.406,0,0,1-2.38,1.861,9.109,9.109,0,0,1-3.577.647,8.057,8.057,0,0,1-3.87-.795,5.325,5.325,0,0,1-2.869-4.38H127.8a7.291,7.291,0,0,0,1.013,3.733,7.5,7.5,0,0,0,3.064,2.83,10.876,10.876,0,0,0,5.151,1.092,12.01,12.01,0,0,0,4.8-.93,7.47,7.47,0,0,0,4.7-7.316,6.354,6.354,0,0,0-1.208-4.138,7.66,7.66,0,0,0-3.21-2.251,32.945,32.945,0,0,0-4.4-1.348q-1.416-.35-2.612-.773a9.654,9.654,0,0,1-2.087-.994,4.219,4.219,0,0,1-1.392-1.455,4.322,4.322,0,0,1-.5-2.17,4.431,4.431,0,0,1,1.782-3.828,7.151,7.151,0,0,1,4.321-1.294,6.95,6.95,0,0,1,3.613.823,5.233,5.233,0,0,1,1.99,1.981,4.925,4.925,0,0,1,.647,2.208h2.49a7.421,7.421,0,0,0-.928-3.559,7.2,7.2,0,0,0-2.844-2.82,9.694,9.694,0,0,0-4.9-1.1,10.962,10.962,0,0,0-4.407.862,7.277,7.277,0,0,0-3.186,2.615,7.627,7.627,0,0,0-1.191,4.388Zm24.271,20.622h2.588V332.8h-2.588Zm-.879-36.473a2.479,2.479,0,0,0,.623,1.684,2.091,2.091,0,0,0,3.1,0,2.419,2.419,0,0,0,.623-1.685,2.487,2.487,0,0,0-.622-1.742,2.026,2.026,0,0,0-1.578-.687,1.98,1.98,0,0,0-1.526.688,2.493,2.493,0,0,0-.624,1.742Zm10.376,36.473h2.612V344.5a12.833,12.833,0,0,1,.854-4.717,8.068,8.068,0,0,1,2.576-3.518,6.816,6.816,0,0,1,4.309-1.334,5.926,5.926,0,0,1,5.8,3.72,10.129,10.129,0,0,1,.769,4.1v18.087h2.588v-18.87q0-4.748-2.429-7.184a8.417,8.417,0,0,0-6.238-2.439,8.619,8.619,0,0,0-4.248.93,7.24,7.24,0,0,0-2.563,2.291,9.533,9.533,0,0,0-1.27,2.65h-.146v-5.418H162.28Zm35.156,7.359a8.146,8.146,0,0,1-3.625-.728,6.067,6.067,0,0,1-2.283-1.833,4.639,4.639,0,0,1-.928-2.237h-2.71a7.575,7.575,0,0,0,1.172,3.5,7.882,7.882,0,0,0,3.1,2.79,10.935,10.935,0,0,0,5.176,1.092,12.823,12.823,0,0,0,4.3-.674,8.8,8.8,0,0,0,3.259-2,8.713,8.713,0,0,0,2.075-3.262,12.827,12.827,0,0,0,.72-4.475V332.8h-2.515v4.987h-.122a8.1,8.1,0,0,0-1.355-2.372,8.435,8.435,0,0,0-2.625-2.17,8.069,8.069,0,0,0-3.955-.9,9.5,9.5,0,0,0-4.92,1.33,9.626,9.626,0,0,0-3.625,3.95,13.728,13.728,0,0,0-1.367,6.416V348.4a13.8,13.8,0,0,0,1.306,6.227,9.72,9.72,0,0,0,3.552,4.017,9.3,9.3,0,0,0,5.029,1.4,8.258,8.258,0,0,0,3.137-.552,8.1,8.1,0,0,0,2.307-1.388,8.3,8.3,0,0,0,1.538-1.752,8.4,8.4,0,0,0,.854-1.672h.146v5.769a7.948,7.948,0,0,1-1.953,5.648,7.4,7.4,0,0,1-5.687,2.089Zm.049-33.265a6.551,6.551,0,0,1,4.065,1.281,8.273,8.273,0,0,1,2.612,3.4,11.589,11.589,0,0,1,.916,4.65v4.017a11.557,11.557,0,0,1-.867,4.448,8.255,8.255,0,0,1-2.551,3.423,6.515,6.515,0,0,1-4.15,1.325,7.231,7.231,0,0,1-6.677-4.527,12.208,12.208,0,0,1-1.013-5.175v-3.019a12.673,12.673,0,0,1,1.025-5.378,7.651,7.651,0,0,1,2.771-3.312A7.025,7.025,0,0,1,197.485,334.929Zm36.035,26.389a10.419,10.419,0,0,0,4.016-.714,8.957,8.957,0,0,0,2.856-1.82,8.624,8.624,0,0,0,1.759-2.366,7.225,7.225,0,0,0,.745-2.372h-2.734a4.958,4.958,0,0,1-.964,2.156A6.064,6.064,0,0,1,236.989,358a7.633,7.633,0,0,1-3.467.714,6.747,6.747,0,0,1-5.688-2.642,11.469,11.469,0,0,1-2.026-7.144V347.36h17.456v-2.291a16.78,16.78,0,0,0-1.282-6.914,9.445,9.445,0,0,0-17.5,0,16.78,16.78,0,0,0-1.282,6.914v3.748a16.534,16.534,0,0,0,1.233,6.686,9.631,9.631,0,0,0,3.54,4.313,9.911,9.911,0,0,0,5.553,1.5Zm-7.715-16.282v-.322a13.44,13.44,0,0,1,.928-5.244,6.859,6.859,0,0,1,12.988,0,13.44,13.44,0,0,1,.928,5.244v.324Zm23.414,15.8h2.612V344.5a12.834,12.834,0,0,1,.854-4.717,8.068,8.068,0,0,1,2.576-3.518,6.816,6.816,0,0,1,4.309-1.334,5.926,5.926,0,0,1,5.8,3.72,10.128,10.128,0,0,1,.769,4.1v18.087h2.588v-18.87q0-4.748-2.429-7.184a8.417,8.417,0,0,0-6.238-2.439,8.619,8.619,0,0,0-4.248.93,7.24,7.24,0,0,0-2.563,2.291,9.532,9.532,0,0,0-1.27,2.65h-.146v-5.418H249.22Zm27.71-28.036h-4.541v2.453h4.541v18.655a12.889,12.889,0,0,0,.549,4.124,3.974,3.974,0,0,0,1.99,2.332,9.138,9.138,0,0,0,4.1.741q.586,0,1.55-.081t1.355-.135v-2.483q-.366.027-1.147.094t-1.27.067a5.084,5.084,0,0,1-3.552-.957q-.989-.957-.989-3.6V335.252h6.567V332.8h-6.567v-6.9h-2.588Zm22.485,28.52a10.418,10.418,0,0,0,4.016-.714,8.956,8.956,0,0,0,2.856-1.82,8.625,8.625,0,0,0,1.758-2.367,7.227,7.227,0,0,0,.745-2.372h-2.734a4.958,4.958,0,0,1-.964,2.156A6.064,6.064,0,0,1,302.882,358a7.633,7.633,0,0,1-3.467.714,6.747,6.747,0,0,1-5.688-2.642,11.469,11.469,0,0,1-2.026-7.144V347.36h17.456v-2.291a16.781,16.781,0,0,0-1.282-6.914,9.445,9.445,0,0,0-17.505,0,16.781,16.781,0,0,0-1.282,6.914v3.748a16.534,16.534,0,0,0,1.233,6.686,9.63,9.63,0,0,0,3.54,4.313A9.911,9.911,0,0,0,299.414,361.319ZM291.7,345.037v-.324a13.441,13.441,0,0,1,.928-5.244,6.859,6.859,0,0,1,12.988,0,13.441,13.441,0,0,1,.928,5.244v.324Zm23.632,15.8h2.612V343.389a10.073,10.073,0,0,1,.928-4.527,6.638,6.638,0,0,1,2.563-2.83,7.131,7.131,0,0,1,3.711-.971,11.476,11.476,0,0,1,1.343.067q.562.067.806.121v-2.723q-.293-.054-.769-.11a9.747,9.747,0,0,0-1.086-.054,7.566,7.566,0,0,0-3.882.9,6.982,6.982,0,0,0-2.369,2.173,7.677,7.677,0,0,0-1.1,2.4h-.146V332.8h-2.612Zm26.611.485a9.27,9.27,0,0,0,4.98-1.375,9.483,9.483,0,0,0,3.516-4.017,14.625,14.625,0,0,0,1.294-6.469v-5.338a14.8,14.8,0,0,0-1.221-6.254,9.556,9.556,0,0,0-3.406-4.085,9.682,9.682,0,0,0-8.264-.9,8.115,8.115,0,0,0-2.393,1.4,8.331,8.331,0,0,0-1.624,1.846,8.107,8.107,0,0,0-.891,1.82h-.146V332.8H331.3v37.147h2.588v-14.07h.146a8.078,8.078,0,0,0,7.909,5.445Zm-.269-2.615a7.058,7.058,0,0,1-4.077-1.2,7.949,7.949,0,0,1-2.734-3.3,11.071,11.071,0,0,1-.977-4.717v-5.095a12.065,12.065,0,0,1,.916-4.784,7.152,7.152,0,0,1,6.824-4.677,6.779,6.779,0,0,1,3.906,1.146,7.529,7.529,0,0,1,2.637,3.357,13.622,13.622,0,0,1,.952,5.392v3.963a13.462,13.462,0,0,1-.989,5.513,7.5,7.5,0,0,1-2.673,3.3,6.744,6.744,0,0,1-3.784,1.1Zm16.285,2.13h2.612V343.389a10.073,10.073,0,0,1,.928-4.527,6.637,6.637,0,0,1,2.563-2.83,7.131,7.131,0,0,1,3.711-.971,11.476,11.476,0,0,1,1.343.067q.562.067.806.121v-2.723q-.293-.054-.769-.11a9.746,9.746,0,0,0-1.086-.054,7.566,7.566,0,0,0-3.882.9,6.982,6.982,0,0,0-2.369,2.173,7.677,7.677,0,0,0-1.1,2.4h-.146V332.8h-2.612Zm16.284,0h2.588V332.8h-2.588Zm-.879-36.473a2.479,2.479,0,0,0,.623,1.684,2.091,2.091,0,0,0,3.1,0,2.419,2.419,0,0,0,.623-1.685,2.487,2.487,0,0,0-.622-1.742,2.026,2.026,0,0,0-1.578-.687,1.98,1.98,0,0,0-1.526.688,2.494,2.494,0,0,0-.62,1.742Zm9.326,15.85a6.561,6.561,0,0,0,1.074,3.95,7.039,7.039,0,0,0,2.979,2.291,31.08,31.08,0,0,0,4.346,1.47,33.6,33.6,0,0,1,3.43.994,6.565,6.565,0,0,1,2.588,1.59,3.99,3.99,0,0,1,.989,2.884,4.97,4.97,0,0,1-.854,2.938,5.407,5.407,0,0,1-2.38,1.861,9.11,9.11,0,0,1-3.577.647,8.057,8.057,0,0,1-3.87-.795,5.325,5.325,0,0,1-2.869-4.38h-2.563A7.291,7.291,0,0,0,383,357.4a7.5,7.5,0,0,0,3.064,2.829,10.876,10.876,0,0,0,5.151,1.092,12.009,12.009,0,0,0,4.8-.93,7.469,7.469,0,0,0,4.7-7.316,6.354,6.354,0,0,0-1.208-4.138,7.66,7.66,0,0,0-3.21-2.251,32.945,32.945,0,0,0-4.395-1.348q-1.416-.35-2.612-.773a9.653,9.653,0,0,1-2.087-.994,4.219,4.219,0,0,1-1.392-1.455,4.322,4.322,0,0,1-.5-2.17,4.431,4.431,0,0,1,1.782-3.828,7.151,7.151,0,0,1,4.321-1.294,6.95,6.95,0,0,1,3.613.823,5.232,5.232,0,0,1,1.99,1.981,4.925,4.925,0,0,1,.647,2.208h2.49a7.421,7.421,0,0,0-.928-3.559,7.207,7.207,0,0,0-2.844-2.83,9.694,9.694,0,0,0-4.9-1.1,10.962,10.962,0,0,0-4.407.862,7.277,7.277,0,0,0-3.186,2.615A7.625,7.625,0,0,0,382.69,340.212Zm32.739,21.107a10.418,10.418,0,0,0,4.016-.714,8.957,8.957,0,0,0,2.856-1.82,8.626,8.626,0,0,0,1.759-2.367,7.227,7.227,0,0,0,.745-2.372H422.07a4.958,4.958,0,0,1-.964,2.156A6.064,6.064,0,0,1,418.9,358a7.633,7.633,0,0,1-3.467.714,6.747,6.747,0,0,1-5.688-2.642,11.469,11.469,0,0,1-2.026-7.144V347.36h17.456v-2.291a16.781,16.781,0,0,0-1.282-6.914,9.445,9.445,0,0,0-17.505,0,16.78,16.78,0,0,0-1.282,6.914v3.748a16.534,16.534,0,0,0,1.233,6.686,9.629,9.629,0,0,0,3.54,4.313,9.911,9.911,0,0,0,5.554,1.5Zm-7.715-16.282v-.324a13.44,13.44,0,0,1,.928-5.244,6.859,6.859,0,0,1,12.988,0,13.441,13.441,0,0,1,.928,5.244v.324Zm38.722,15.8h2.637l9.375-28.036h-2.783l-7.837,24.746h-.146L440.065,332.8h-2.881Zm22.144.485a8.221,8.221,0,0,0,6.4-2.693,8.33,8.33,0,0,0,1.416-2.1h.146v4.306h2.539V341.07a9.549,9.549,0,0,0-1.16-4.969,7.039,7.039,0,0,0-3.162-2.844,10.849,10.849,0,0,0-4.565-.916,12.043,12.043,0,0,0-3.613.5,8.046,8.046,0,0,0-2.71,1.416,6.709,6.709,0,0,0-1.758,2.156,7.17,7.17,0,0,0-.757,2.7h2.563a5.107,5.107,0,0,1,.867-1.954,5.043,5.043,0,0,1,1.953-1.59,7.537,7.537,0,0,1,3.333-.634,6.749,6.749,0,0,1,4.614,1.537,6.1,6.1,0,0,1,1.758,4.825v3.585h-7.422q-4.3,0-6.506,2.208a7.809,7.809,0,0,0-2.209,5.769,8.351,8.351,0,0,0,2.295,6.16,8.062,8.062,0,0,0,5.981,2.305Zm.513-2.615a6.329,6.329,0,0,1-4.321-1.537,6.019,6.019,0,0,1-1.756-4.063,6.121,6.121,0,0,1,1.426-4.218q1.428-1.537,4.6-1.537h7.4v3.935a7.358,7.358,0,0,1-1,3.855,7.215,7.215,0,0,1-2.661,2.615,7.329,7.329,0,0,1-3.689.951Zm17.089,2.13h2.612V322.124h-2.612ZM515.357,332.8h-2.612v17.252a9.767,9.767,0,0,1-.928,4.2,8.119,8.119,0,0,1-2.661,3.221,7.55,7.55,0,0,1-7.544.432,5.611,5.611,0,0,1-2.3-2.429,8.743,8.743,0,0,1-.83-4.017V332.8h-2.612v19.3a10.6,10.6,0,0,0,1.147,5.257,7.218,7.218,0,0,0,3.1,2.992,9.794,9.794,0,0,0,4.419.971,8.321,8.321,0,0,0,4.028-.9,8.108,8.108,0,0,0,2.649-2.208,8.425,8.425,0,0,0,1.379-2.575h.146v5.2h2.612Zm16.162,28.52a10.417,10.417,0,0,0,4.016-.714,8.958,8.958,0,0,0,2.856-1.82,8.624,8.624,0,0,0,1.758-2.367,7.226,7.226,0,0,0,.745-2.372H538.16a4.958,4.958,0,0,1-.964,2.156A6.064,6.064,0,0,1,534.987,358a7.633,7.633,0,0,1-3.467.714,6.747,6.747,0,0,1-5.688-2.642,11.469,11.469,0,0,1-2.026-7.144V347.36H541.26v-2.291a16.78,16.78,0,0,0-1.282-6.914,9.445,9.445,0,0,0-17.5,0,16.78,16.78,0,0,0-1.282,6.914v3.748a16.534,16.534,0,0,0,1.233,6.686,9.631,9.631,0,0,0,3.54,4.313,9.911,9.911,0,0,0,5.555,1.5ZM523.8,345.037v-.324a13.44,13.44,0,0,1,.928-5.244,6.859,6.859,0,0,1,12.988,0,13.44,13.44,0,0,1,.928,5.244v.324Zm22.778,13.5a2.8,2.8,0,0,0,.708,1.928,2.233,2.233,0,0,0,1.733.795,2.333,2.333,0,0,0,1.782-.795,2.742,2.742,0,0,0,.732-1.928,2.779,2.779,0,0,0-.732-1.954,2.333,2.333,0,0,0-1.782-.8,2.233,2.233,0,0,0-1.733.8,2.836,2.836,0,0,0-.7,1.955Z" transform="translate(80 70.892)"/></g></g></svg>