<svg xmlns="http://www.w3.org/2000/svg" xmlns:xlink="http://www.w3.org/1999/xlink" width="960" height="600" viewBox="0 0 960 600"><defs><clipPath id="a"><rect width="960" height="450"/></clipPath><clipPath id="c"><rect width="960" height="600"/></clipPath></defs><g id="b" clip-path="url(#c)"><rect width="960" height="600" fill="#fff"/><g clip-path="url(#a)"><rect width="960" height="490.909" fill="#eaedf2"/><path d="M16.162,14.736H5.029V47.78H7.666v-13.3h8.5a11.774,11.774,0,0,0,5.566-1.225A8.587,8.587,0,0,0,25.3,29.814a10.413,10.413,0,0,0,1.245-5.179A10.516,10.516,0,0,0,25.3,19.406a8.587,8.587,0,0,0-3.564-3.445,11.774,11.774,0,0,0-5.57-1.225Zm7.666,9.9a8.226,8.226,0,0,1-.916,4,6.118,6.118,0,0,1-2.649,2.56,9.148,9.148,0,0,1-4.2.885h-8.4V17.137h8.4A7.9,7.9,0,0,1,21.8,19.1a7.348,7.348,0,0,1,2.028,5.531Zm16.65,23.582a11.454,11.454,0,0,0,4.016-.643,9.138,9.138,0,0,0,2.856-1.638A7.881,7.881,0,0,0,49.109,43.8a6.047,6.047,0,0,0,.745-2.135H47.119a4.263,4.263,0,0,1-.964,1.941,5.986,5.986,0,0,1-2.209,1.614,8.363,8.363,0,0,1-3.467.643,7.068,7.068,0,0,1-5.688-2.378,9.585,9.585,0,0,1-2.026-6.43V35.649H50.22V33.587a13.785,13.785,0,0,0-1.282-6.223,9.141,9.141,0,0,0-3.54-3.893,10.049,10.049,0,0,0-5.212-1.335,10.049,10.049,0,0,0-5.212,1.335,9.141,9.141,0,0,0-3.54,3.893,13.785,13.785,0,0,0-1.282,6.223V36.96a13.579,13.579,0,0,0,1.233,6.017,8.939,8.939,0,0,0,3.54,3.882,10.761,10.761,0,0,0,5.554,1.357ZM32.764,33.562v-.291a11.027,11.027,0,0,1,.928-4.719,7.13,7.13,0,0,1,12.988,0,11.027,11.027,0,0,1,.928,4.719v.291ZM56.4,47.78h2.612v-15.7A8.3,8.3,0,0,1,59.94,28a6.254,6.254,0,0,1,2.56-2.545,7.755,7.755,0,0,1,3.711-.874,12.739,12.739,0,0,1,1.343.061q.562.061.806.109V22.3q-.293-.049-.769-.1a10.824,10.824,0,0,0-1.086-.049,8.259,8.259,0,0,0-3.882.813,6.768,6.768,0,0,0-2.369,1.954,6.608,6.608,0,0,0-1.1,2.159h-.146V22.547H56.4ZM70.435,37.226a12.9,12.9,0,0,0,1.257,5.944,8.839,8.839,0,0,0,3.54,3.748,10.711,10.711,0,0,0,5.383,1.3,11.2,11.2,0,0,0,5.322-1.1A7.8,7.8,0,0,0,89,44.346a7.155,7.155,0,0,0,1.111-3.312H87.549a6.51,6.51,0,0,1-.977,2.269,5.362,5.362,0,0,1-2.148,1.808,8.44,8.44,0,0,1-3.735.7,7.2,7.2,0,0,1-5.6-2.269,9.2,9.2,0,0,1-2.063-6.418v-3.9a9.319,9.319,0,0,1,2.039-6.43,7.044,7.044,0,0,1,5.53-2.281,7.65,7.65,0,0,1,3.735.8,5.824,5.824,0,0,1,2.185,2,6.566,6.566,0,0,1,.94,2.365h2.563a7.21,7.21,0,0,0-1.147-3.53,8.311,8.311,0,0,0-3.137-2.875,11.867,11.867,0,0,0-10.449.145,8.946,8.946,0,0,0-3.564,3.712,12.371,12.371,0,0,0-1.282,5.847Zm34.6,10.991a11.454,11.454,0,0,0,4.016-.643,9.138,9.138,0,0,0,2.856-1.638A7.881,7.881,0,0,0,113.66,43.8a6.048,6.048,0,0,0,.745-2.135H111.67a4.263,4.263,0,0,1-.964,1.941,5.986,5.986,0,0,1-2.209,1.614,8.363,8.363,0,0,1-3.467.643,7.068,7.068,0,0,1-5.688-2.378,9.585,9.585,0,0,1-2.026-6.43V35.649h17.456V33.587a13.785,13.785,0,0,0-1.282-6.223,9.141,9.141,0,0,0-3.54-3.893,10.847,10.847,0,0,0-10.425,0,9.141,9.141,0,0,0-3.54,3.893A13.785,13.785,0,0,0,94.7,33.587V36.96a13.579,13.579,0,0,0,1.233,6.017,8.939,8.939,0,0,0,3.54,3.882,10.761,10.761,0,0,0,5.556,1.357ZM97.314,33.562v-.291a11.027,11.027,0,0,1,.928-4.719,7.13,7.13,0,0,1,12.988,0,11.027,11.027,0,0,1,.928,4.719v.291ZM131.4,48.216a10.06,10.06,0,0,0,4.98-1.237,8.887,8.887,0,0,0,3.516-3.615,12.041,12.041,0,0,0,1.294-5.822v-4.8a12.176,12.176,0,0,0-1.221-5.629,8.89,8.89,0,0,0-3.406-3.677,10.625,10.625,0,0,0-8.264-.813,8.362,8.362,0,0,0-2.393,1.262,7.81,7.81,0,0,0-1.624,1.662,7.022,7.022,0,0,0-.891,1.638h-.146V22.547h-2.49V55.98h2.588V43.316h.146a7.808,7.808,0,0,0,4.053,4.149,9.058,9.058,0,0,0,3.858.751Zm-.269-2.353a7.637,7.637,0,0,1-4.077-1.079,7.387,7.387,0,0,1-2.734-2.972,9.121,9.121,0,0,1-.977-4.245V32.98a9.916,9.916,0,0,1,.916-4.306,7.183,7.183,0,0,1,6.824-4.209,7.335,7.335,0,0,1,3.906,1.032,6.942,6.942,0,0,1,2.637,3.021,11.176,11.176,0,0,1,.952,4.852v3.567a11.05,11.05,0,0,1-.989,4.962,6.942,6.942,0,0,1-2.673,2.972,7.3,7.3,0,0,1-3.788.993Zm17.456-23.315h-4.541v2.208h4.541V41.545a10.52,10.52,0,0,0,.549,3.712,3.712,3.712,0,0,0,1.99,2.1,10.039,10.039,0,0,0,4.1.667q.586,0,1.55-.073t1.355-.121V45.593q-.366.024-1.147.084t-1.27.061a5.509,5.509,0,0,1-3.552-.862q-.989-.862-.989-3.239V24.756h6.567V22.547h-6.567V16.337h-2.588ZM162.842,47.78h2.588V22.547h-2.588Zm-.879-32.825a2.106,2.106,0,0,0,.623,1.516,2.251,2.251,0,0,0,3.1,0,2.055,2.055,0,0,0,.623-1.516,2.109,2.109,0,0,0-.622-1.568,2.136,2.136,0,0,0-1.578-.618,2.082,2.082,0,0,0-1.526.619,2.113,2.113,0,0,0-.62,1.568Zm19.7,7.182a11.009,11.009,0,0,0-5.359,1.3,9.424,9.424,0,0,0-3.76,3.76,12.121,12.121,0,0,0-1.379,6v3.975a12.16,12.16,0,0,0,1.379,6.041,9.281,9.281,0,0,0,3.76,3.725,11.178,11.178,0,0,0,5.359,1.274,11.056,11.056,0,0,0,5.322-1.274,9.461,9.461,0,0,0,3.772-3.725,11.988,11.988,0,0,0,1.4-6.041V33.2a12.073,12.073,0,0,0-1.4-6.041,9.4,9.4,0,0,0-3.784-3.748,11.075,11.075,0,0,0-5.308-1.274Zm0,2.329a7.78,7.78,0,0,1,4.077,1.067,7.312,7.312,0,0,1,2.8,3.094,10.831,10.831,0,0,1,1.013,4.888v3.373a10.925,10.925,0,0,1-1,4.9,7.039,7.039,0,0,1-2.771,3.045,7.975,7.975,0,0,1-4.089,1.032,8.065,8.065,0,0,1-4.15-1.043,7.031,7.031,0,0,1-2.771-3.045,10.96,10.96,0,0,1-.989-4.888V33.514a10.813,10.813,0,0,1,1.013-4.9,7.327,7.327,0,0,1,2.8-3.081,7.78,7.78,0,0,1,4.069-1.068ZM198.218,47.78h2.612v-14.7a10.531,10.531,0,0,1,.854-4.245,7.054,7.054,0,0,1,6.885-4.367,6.754,6.754,0,0,1,3.577.885,5.786,5.786,0,0,1,2.222,2.462,8.322,8.322,0,0,1,.769,3.688V47.78h2.588V30.8q0-4.273-2.429-6.465a8.947,8.947,0,0,0-6.238-2.2,9.425,9.425,0,0,0-4.248.837,7.046,7.046,0,0,0-2.563,2.062,8.242,8.242,0,0,0-1.27,2.385h-.146V22.547h-2.612Zm38.867,0V14.736h-2.637V47.78Zm17.6,0V17.137h10.864v-2.4H241.211v2.4h10.84V47.78Zm34.79.436a10.06,10.06,0,0,0,4.98-1.237,8.888,8.888,0,0,0,3.516-3.615,12.041,12.041,0,0,0,1.294-5.822v-4.8a12.175,12.175,0,0,0-1.221-5.629,8.89,8.89,0,0,0-3.406-3.677,10.625,10.625,0,0,0-8.264-.813,8.362,8.362,0,0,0-2.393,1.262,7.81,7.81,0,0,0-1.624,1.662,7.021,7.021,0,0,0-.891,1.638h-.146V22.547h-2.49V55.98h2.588V43.316h.146a7.808,7.808,0,0,0,4.053,4.149,9.058,9.058,0,0,0,3.861.751Zm-.269-2.353a7.637,7.637,0,0,1-4.077-1.079,7.387,7.387,0,0,1-2.734-2.972,9.121,9.121,0,0,1-.977-4.245V32.98a9.917,9.917,0,0,1,.916-4.306,7.183,7.183,0,0,1,6.824-4.209,7.335,7.335,0,0,1,3.906,1.032,6.942,6.942,0,0,1,2.637,3.021,11.176,11.176,0,0,1,.952,4.852v3.567a11.05,11.05,0,0,1-.989,4.962,6.942,6.942,0,0,1-2.673,2.972,7.3,7.3,0,0,1-3.782.993Zm16.287,1.917h2.612v-15.7A8.3,8.3,0,0,1,309.033,28a6.254,6.254,0,0,1,2.563-2.547,7.755,7.755,0,0,1,3.711-.874,12.737,12.737,0,0,1,1.343.061q.562.061.806.109V22.3q-.293-.049-.769-.1a10.824,10.824,0,0,0-1.086-.049,8.259,8.259,0,0,0-3.882.813,6.768,6.768,0,0,0-2.368,1.954,6.61,6.61,0,0,0-1.1,2.159h-.146V22.547h-2.612Zm24.536-25.645a11.009,11.009,0,0,0-5.359,1.3,9.423,9.423,0,0,0-3.76,3.76,12.122,12.122,0,0,0-1.379,6v3.975a12.16,12.16,0,0,0,1.379,6.041,9.281,9.281,0,0,0,3.76,3.725,11.178,11.178,0,0,0,5.359,1.274,11.056,11.056,0,0,0,5.322-1.274,9.461,9.461,0,0,0,3.772-3.725,11.987,11.987,0,0,0,1.4-6.041V33.2a12.072,12.072,0,0,0-1.4-6.041,9.4,9.4,0,0,0-3.784-3.748,11.075,11.075,0,0,0-5.31-1.273Zm0,2.329a7.78,7.78,0,0,1,4.077,1.067,7.312,7.312,0,0,1,2.8,3.094,10.831,10.831,0,0,1,1.013,4.888v3.373a10.925,10.925,0,0,1-1,4.9,7.038,7.038,0,0,1-2.771,3.045,7.976,7.976,0,0,1-4.089,1.031,8.065,8.065,0,0,1-4.15-1.043,7.031,7.031,0,0,1-2.771-3.045,10.96,10.96,0,0,1-.989-4.888V33.514a10.813,10.813,0,0,1,1.013-4.9,7.327,7.327,0,0,1,2.8-3.081,7.78,7.78,0,0,1,4.067-1.068ZM352.563,47.78H355.2l9.375-25.232h-2.783l-7.837,22.272h-.146l-7.617-22.272h-2.881Zm15.967,0h2.588V22.547H368.53Zm-.879-32.825a2.106,2.106,0,0,0,.623,1.516,2.251,2.251,0,0,0,3.1,0A2.055,2.055,0,0,0,372,14.954a2.109,2.109,0,0,0-.622-1.568,2.136,2.136,0,0,0-1.578-.618,2.082,2.082,0,0,0-1.526.619,2.114,2.114,0,0,0-.623,1.567ZM386.6,22.135a10.041,10.041,0,0,0-4.932,1.225,9.042,9.042,0,0,0-3.543,3.551,11.417,11.417,0,0,0-1.318,5.7v5.119a11.764,11.764,0,0,0,1.233,5.531,8.9,8.9,0,0,0,3.43,3.639,9.819,9.819,0,0,0,5.054,1.286,9.563,9.563,0,0,0,3.247-.51,9.143,9.143,0,0,0,2.441-1.286,7.462,7.462,0,0,0,1.636-1.65,5.181,5.181,0,0,0,.806-1.626h.146V47.78h2.49V12.94H394.7V27.01h-.146a7.148,7.148,0,0,0-1.416-2.269,7.732,7.732,0,0,0-2.625-1.868,9.4,9.4,0,0,0-3.913-.738Zm.269,2.329a7.441,7.441,0,0,1,6.848,4.063,8.956,8.956,0,0,1,.989,4.233v4.561a9.829,9.829,0,0,1-.928,4.294,7.54,7.54,0,0,1-2.661,3.094,8.006,8.006,0,0,1-8.069.121,7.016,7.016,0,0,1-2.661-3,10.709,10.709,0,0,1-.964-4.755V33.271a10.675,10.675,0,0,1,1-4.876,6.951,6.951,0,0,1,2.686-2.947,7.325,7.325,0,0,1,3.756-.983Zm26.9,23.75a11.454,11.454,0,0,0,4.016-.643,9.138,9.138,0,0,0,2.856-1.638A7.881,7.881,0,0,0,422.4,43.8a6.048,6.048,0,0,0,.745-2.135H420.41a4.263,4.263,0,0,1-.964,1.941,5.986,5.986,0,0,1-2.209,1.614,8.363,8.363,0,0,1-3.467.643,7.068,7.068,0,0,1-5.688-2.378,9.585,9.585,0,0,1-2.026-6.43V35.649h17.456V33.587a13.785,13.785,0,0,0-1.282-6.223,9.141,9.141,0,0,0-3.54-3.893,10.848,10.848,0,0,0-10.425,0,9.141,9.141,0,0,0-3.54,3.893,13.785,13.785,0,0,0-1.282,6.223V36.96a13.579,13.579,0,0,0,1.233,6.017,8.938,8.938,0,0,0,3.54,3.882,10.761,10.761,0,0,0,5.554,1.357Zm-7.715-14.654v-.29a11.027,11.027,0,0,1,.928-4.719,7.13,7.13,0,0,1,12.988,0,11.027,11.027,0,0,1,.93,4.719v.291Zm22.363-4.343a5.47,5.47,0,0,0,1.074,3.555,7,7,0,0,0,2.979,2.062,33.532,33.532,0,0,0,4.346,1.323q1.831.389,3.43.894a6.725,6.725,0,0,1,2.588,1.431,3.375,3.375,0,0,1,.989,2.6,4.156,4.156,0,0,1-.854,2.644,5.365,5.365,0,0,1-2.38,1.674,10.012,10.012,0,0,1-3.577.582,8.825,8.825,0,0,1-3.87-.715,4.8,4.8,0,0,1-2.869-3.942H427.71a6.07,6.07,0,0,0,1.013,3.36,7.265,7.265,0,0,0,3.064,2.547,11.906,11.906,0,0,0,5.151.983,13.182,13.182,0,0,0,4.8-.837,7.74,7.74,0,0,0,3.43-2.484,6.523,6.523,0,0,0,1.27-4.1,5.32,5.32,0,0,0-1.208-3.725,7.715,7.715,0,0,0-3.21-2.026,35.692,35.692,0,0,0-4.4-1.213q-1.416-.315-2.612-.7a10.161,10.161,0,0,1-2.087-.894,4.007,4.007,0,0,1-1.392-1.31,3.576,3.576,0,0,1-.5-1.953,3.85,3.85,0,0,1,1.782-3.445,7.728,7.728,0,0,1,4.321-1.165,7.591,7.591,0,0,1,3.613.74,5.008,5.008,0,0,1,1.99,1.783,4.111,4.111,0,0,1,.647,1.987h2.49a6.165,6.165,0,0,0-.928-3.2,6.9,6.9,0,0,0-2.849-2.537,10.593,10.593,0,0,0-4.9-.994,12.029,12.029,0,0,0-4.407.776,7.17,7.17,0,0,0-3.186,2.353,6.356,6.356,0,0,0-1.189,3.949ZM462.7,22.547h-4.541v2.208H462.7V41.545a10.519,10.519,0,0,0,.549,3.712,3.712,3.712,0,0,0,1.99,2.1,10.039,10.039,0,0,0,4.1.667q.586,0,1.55-.073t1.355-.121V45.593q-.366.024-1.147.084t-1.27.061a5.509,5.509,0,0,1-3.552-.862q-.989-.862-.989-3.239V24.756h6.567V22.547h-6.567V16.337H462.7Zm22.485,25.668a11.454,11.454,0,0,0,4.016-.643,9.138,9.138,0,0,0,2.856-1.638,7.881,7.881,0,0,0,1.754-2.131,6.048,6.048,0,0,0,.745-2.135h-2.734a4.263,4.263,0,0,1-.964,1.941,5.986,5.986,0,0,1-2.209,1.614,8.363,8.363,0,0,1-3.467.643,7.068,7.068,0,0,1-5.688-2.378,9.584,9.584,0,0,1-2.026-6.43V35.649h17.456V33.587a13.785,13.785,0,0,0-1.282-6.223,9.141,9.141,0,0,0-3.54-3.893,10.847,10.847,0,0,0-10.425,0,9.141,9.141,0,0,0-3.54,3.893,13.785,13.785,0,0,0-1.282,6.223V36.96a13.579,13.579,0,0,0,1.233,6.017,8.938,8.938,0,0,0,3.54,3.882,10.761,10.761,0,0,0,5.553,1.357ZM477.47,33.562v-.291a11.026,11.026,0,0,1,.928-4.719,7.13,7.13,0,0,1,12.988,0,11.028,11.028,0,0,1,.928,4.719v.291Zm22.241,3.664a12.894,12.894,0,0,0,1.257,5.944,8.839,8.839,0,0,0,3.54,3.748,10.711,10.711,0,0,0,5.383,1.3,11.2,11.2,0,0,0,5.322-1.1,7.8,7.8,0,0,0,3.064-2.766,7.154,7.154,0,0,0,1.111-3.312h-2.563a6.511,6.511,0,0,1-.977,2.269A5.362,5.362,0,0,1,513.7,45.11a8.44,8.44,0,0,1-3.735.7,7.2,7.2,0,0,1-5.6-2.269,9.2,9.2,0,0,1-2.063-6.418v-3.9a9.318,9.318,0,0,1,2.039-6.43,7.044,7.044,0,0,1,5.53-2.281,7.65,7.65,0,0,1,3.735.8,5.824,5.824,0,0,1,2.185,2,6.565,6.565,0,0,1,.94,2.365h2.563a7.21,7.21,0,0,0-1.147-3.53A8.312,8.312,0,0,0,515,23.276a11.866,11.866,0,0,0-10.449.145,8.946,8.946,0,0,0-3.564,3.712A12.371,12.371,0,0,0,499.7,32.98ZM525.22,47.78h2.588v-14.7a10.4,10.4,0,0,1,.867-4.245,7.117,7.117,0,0,1,6.9-4.366,6.9,6.9,0,0,1,3.589.885,5.777,5.777,0,0,1,2.271,2.474,8.289,8.289,0,0,1,.781,3.7V47.78h2.612V30.821q0-4.273-2.466-6.478a8.95,8.95,0,0,0-6.2-2.208A9.451,9.451,0,0,0,531.89,23a7.469,7.469,0,0,0-2.649,2.1,7.8,7.8,0,0,0-1.282,2.329h-.146V12.94H525.22Zm26.318,0h2.612v-14.7a10.531,10.531,0,0,1,.85-4.245,7.054,7.054,0,0,1,6.885-4.367,6.754,6.754,0,0,1,3.577.885,5.786,5.786,0,0,1,2.222,2.462,8.322,8.322,0,0,1,.769,3.688V47.78h2.588V30.8q0-4.273-2.429-6.465a8.947,8.947,0,0,0-6.238-2.2,9.425,9.425,0,0,0-4.248.837,7.046,7.046,0,0,0-2.563,2.062,8.242,8.242,0,0,0-1.27,2.385h-.146V22.547h-2.612Zm35.645-25.645a11.01,11.01,0,0,0-5.359,1.3,9.424,9.424,0,0,0-3.76,3.76,12.122,12.122,0,0,0-1.379,6v3.975a12.159,12.159,0,0,0,1.379,6.041,9.281,9.281,0,0,0,3.76,3.725,11.178,11.178,0,0,0,5.359,1.274,11.056,11.056,0,0,0,5.322-1.274,9.461,9.461,0,0,0,3.772-3.725,11.988,11.988,0,0,0,1.4-6.041V33.2a12.073,12.073,0,0,0-1.4-6.041,9.4,9.4,0,0,0-3.784-3.748A11.075,11.075,0,0,0,587.183,22.135Zm0,2.329a7.78,7.78,0,0,1,4.077,1.067,7.312,7.312,0,0,1,2.8,3.094,10.831,10.831,0,0,1,1.013,4.888v3.373a10.925,10.925,0,0,1-1,4.9,7.038,7.038,0,0,1-2.771,3.045,7.975,7.975,0,0,1-4.089,1.032,8.065,8.065,0,0,1-4.15-1.043,7.03,7.03,0,0,1-2.771-3.045,10.959,10.959,0,0,1-.989-4.888V33.514a10.813,10.813,0,0,1,1.013-4.9,7.327,7.327,0,0,1,2.8-3.081,7.78,7.78,0,0,1,4.067-1.068Zm16.87,23.315h2.612V12.94h-2.612Zm19.238-25.645a11.01,11.01,0,0,0-5.359,1.3,9.424,9.424,0,0,0-3.76,3.76,12.122,12.122,0,0,0-1.379,6v3.975a12.159,12.159,0,0,0,1.379,6.041,9.281,9.281,0,0,0,3.76,3.725,11.178,11.178,0,0,0,5.359,1.274,11.056,11.056,0,0,0,5.322-1.274,9.461,9.461,0,0,0,3.772-3.725,11.988,11.988,0,0,0,1.4-6.041V33.2a12.073,12.073,0,0,0-1.4-6.041,9.4,9.4,0,0,0-3.784-3.748,11.075,11.075,0,0,0-5.31-1.273Zm0,2.329a7.78,7.78,0,0,1,4.077,1.067,7.312,7.312,0,0,1,2.8,3.094,10.831,10.831,0,0,1,1.013,4.888v3.373a10.925,10.925,0,0,1-1,4.9,7.038,7.038,0,0,1-2.771,3.045,7.975,7.975,0,0,1-4.089,1.031,8.065,8.065,0,0,1-4.15-1.043,7.03,7.03,0,0,1-2.771-3.045,10.961,10.961,0,0,1-.989-4.888V33.514a10.814,10.814,0,0,1,1.013-4.9,7.327,7.327,0,0,1,2.8-3.081,7.78,7.78,0,0,1,4.067-1.068ZM648.682,54.4a8.931,8.931,0,0,1-3.625-.655,6,6,0,0,1-2.283-1.65,3.964,3.964,0,0,1-.928-2.013h-2.71a6.371,6.371,0,0,0,1.172,3.154,7.661,7.661,0,0,0,3.1,2.511,11.972,11.972,0,0,0,5.176.983,14.133,14.133,0,0,0,4.3-.606,9.023,9.023,0,0,0,3.259-1.8,7.793,7.793,0,0,0,2.075-2.935,10.5,10.5,0,0,0,.72-4.028V22.547h-2.515v4.489H656.3a7.142,7.142,0,0,0-1.355-2.135,8.307,8.307,0,0,0-2.625-1.953,8.814,8.814,0,0,0-3.955-.813,10.315,10.315,0,0,0-4.919,1.2,9.087,9.087,0,0,0-3.625,3.555,11.325,11.325,0,0,0-1.367,5.775V36.6a11.375,11.375,0,0,0,1.306,5.6,9.125,9.125,0,0,0,3.552,3.615,10.091,10.091,0,0,0,5.029,1.262,9.083,9.083,0,0,0,3.137-.5,8.316,8.316,0,0,0,2.307-1.249,7.774,7.774,0,0,0,1.538-1.577,7.314,7.314,0,0,0,.854-1.5h.146v5.192a6.725,6.725,0,0,1-1.953,5.083,7.889,7.889,0,0,1-5.688,1.877Zm.049-29.939a7.061,7.061,0,0,1,4.069,1.155,7.6,7.6,0,0,1,2.612,3.057,9.532,9.532,0,0,1,.916,4.185v3.615a9.5,9.5,0,0,1-.867,4,7.554,7.554,0,0,1-2.551,3.081,7.017,7.017,0,0,1-4.15,1.192,7.276,7.276,0,0,1-6.677-4.074,10.043,10.043,0,0,1-1.013-4.658V33.3a10.419,10.419,0,0,1,1.025-4.841,7.122,7.122,0,0,1,2.771-2.981,7.605,7.605,0,0,1,3.864-1.01ZM666.968,47.78h2.588V22.547h-2.588Zm-.879-32.825a2.106,2.106,0,0,0,.623,1.516,2.251,2.251,0,0,0,3.1,0,2.055,2.055,0,0,0,.623-1.516,2.108,2.108,0,0,0-.622-1.568,2.136,2.136,0,0,0-1.578-.618,2.082,2.082,0,0,0-1.526.619,2.113,2.113,0,0,0-.62,1.568Zm9.2,22.272a12.9,12.9,0,0,0,1.257,5.944,8.84,8.84,0,0,0,3.54,3.748,10.71,10.71,0,0,0,5.383,1.3,11.2,11.2,0,0,0,5.322-1.1,7.8,7.8,0,0,0,3.064-2.766,7.156,7.156,0,0,0,1.111-3.312H692.4a6.509,6.509,0,0,1-.977,2.269,5.362,5.362,0,0,1-2.148,1.808,8.44,8.44,0,0,1-3.735.7,7.2,7.2,0,0,1-5.6-2.269,9.2,9.2,0,0,1-2.063-6.418v-3.9a9.319,9.319,0,0,1,2.039-6.429,7.044,7.044,0,0,1,5.53-2.281,7.65,7.65,0,0,1,3.735.8,5.824,5.824,0,0,1,2.185,2,6.566,6.566,0,0,1,.94,2.365h2.563a7.211,7.211,0,0,0-1.147-3.53,8.311,8.311,0,0,0-3.137-2.875,11.867,11.867,0,0,0-10.449.145,8.947,8.947,0,0,0-3.564,3.712,12.37,12.37,0,0,0-1.282,5.847Zm32.178,10.991a9.264,9.264,0,0,0,3.845-.716,8.4,8.4,0,0,0,2.555-1.709,7.506,7.506,0,0,0,1.416-1.888h.146V47.78h2.539V29.992a7.9,7.9,0,0,0-1.16-4.472,6.842,6.842,0,0,0-3.162-2.56,11.9,11.9,0,0,0-4.565-.825,13.3,13.3,0,0,0-3.613.449,8.391,8.391,0,0,0-2.71,1.274A6.217,6.217,0,0,0,701,25.8a5.969,5.969,0,0,0-.757,2.426h2.563a4.386,4.386,0,0,1,.867-1.759,4.976,4.976,0,0,1,1.953-1.431,8.272,8.272,0,0,1,3.333-.57,7.249,7.249,0,0,1,4.614,1.383,5.186,5.186,0,0,1,1.758,4.343v3.227H707.91q-4.3,0-6.506,1.987a6.658,6.658,0,0,0-2.209,5.192,7.106,7.106,0,0,0,2.3,5.544,8.578,8.578,0,0,0,5.981,2.075Zm.513-2.353a6.774,6.774,0,0,1-4.321-1.383,5.166,5.166,0,0,1-.33-7.448q1.428-1.383,4.6-1.383h7.4v3.542a6.118,6.118,0,0,1-1,3.469,6.921,6.921,0,0,1-2.661,2.353,7.975,7.975,0,0,1-3.685.85Zm17.093,1.916h2.612V12.94h-2.612ZM13.135,91.7A10.041,10.041,0,0,0,8.2,92.922a9.042,9.042,0,0,0-3.537,3.551,11.417,11.417,0,0,0-1.318,5.7v5.119a11.764,11.764,0,0,0,1.233,5.531,8.9,8.9,0,0,0,3.43,3.639,9.819,9.819,0,0,0,5.054,1.286,9.563,9.563,0,0,0,3.247-.51,9.143,9.143,0,0,0,2.441-1.286,7.462,7.462,0,0,0,1.636-1.65,5.182,5.182,0,0,0,.806-1.626h.146v4.664h2.49V82.5H21.24v14.07h-.146A7.148,7.148,0,0,0,19.678,94.3a7.732,7.732,0,0,0-2.625-1.868,9.4,9.4,0,0,0-3.918-.738Zm.269,2.329a7.441,7.441,0,0,1,6.848,4.063,8.956,8.956,0,0,1,.989,4.233v4.561a9.829,9.829,0,0,1-.928,4.294,7.54,7.54,0,0,1-2.661,3.094,7.368,7.368,0,0,1-4.175,1.153,7.348,7.348,0,0,1-3.894-1.032,7.016,7.016,0,0,1-2.661-3,10.71,10.71,0,0,1-.964-4.755v-3.809a10.675,10.675,0,0,1,1-4.876,6.951,6.951,0,0,1,2.686-2.947,7.325,7.325,0,0,1,3.756-.983Zm18.31,23.315H34.3V92.109H31.714Zm-.879-32.825a2.106,2.106,0,0,0,.623,1.516,2.251,2.251,0,0,0,3.1,0,2.055,2.055,0,0,0,.623-1.516,2.109,2.109,0,0,0-.622-1.568,2.136,2.136,0,0,0-1.578-.618,2.082,2.082,0,0,0-1.526.619A2.114,2.114,0,0,0,30.835,84.516Zm10.6,32.825h2.612v-15.7a8.3,8.3,0,0,1,.928-4.074,6.254,6.254,0,0,1,2.563-2.547,7.754,7.754,0,0,1,3.711-.874,12.74,12.74,0,0,1,1.343.061q.562.061.806.109V91.867q-.293-.049-.769-.1a10.829,10.829,0,0,0-1.086-.049,8.259,8.259,0,0,0-3.882.813,6.768,6.768,0,0,0-2.369,1.954,6.608,6.608,0,0,0-1.1,2.159h-.146V92.109H41.431Zm24.39.436a11.454,11.454,0,0,0,4.016-.643,9.137,9.137,0,0,0,2.856-1.638,7.881,7.881,0,0,0,1.758-2.131,6.048,6.048,0,0,0,.745-2.135H72.461a4.263,4.263,0,0,1-.961,1.936,5.986,5.986,0,0,1-2.209,1.614,8.363,8.363,0,0,1-3.467.643,7.068,7.068,0,0,1-5.688-2.378,9.584,9.584,0,0,1-2.026-6.43V105.21H75.562v-2.062a13.785,13.785,0,0,0-1.282-6.223,9.141,9.141,0,0,0-3.54-3.893,10.847,10.847,0,0,0-10.425,0,9.141,9.141,0,0,0-3.54,3.893,13.785,13.785,0,0,0-1.282,6.223v3.373a13.579,13.579,0,0,0,1.233,6.017,8.939,8.939,0,0,0,3.54,3.882,10.761,10.761,0,0,0,5.554,1.358Zm-7.715-14.654v-.291a11.027,11.027,0,0,1,.928-4.719,7.13,7.13,0,0,1,12.988,0,11.027,11.027,0,0,1,.928,4.719v.291Zm22.241,3.664a12.9,12.9,0,0,0,1.257,5.944,8.839,8.839,0,0,0,3.54,3.748,10.711,10.711,0,0,0,5.383,1.3,11.2,11.2,0,0,0,5.322-1.1,7.8,7.8,0,0,0,3.064-2.766,7.155,7.155,0,0,0,1.111-3.312H97.461a6.51,6.51,0,0,1-.977,2.269,5.362,5.362,0,0,1-2.148,1.808,8.44,8.44,0,0,1-3.735.7,7.2,7.2,0,0,1-5.6-2.268,9.2,9.2,0,0,1-2.063-6.418v-3.906a9.319,9.319,0,0,1,2.039-6.43,7.044,7.044,0,0,1,5.53-2.281,7.65,7.65,0,0,1,3.735.8,5.824,5.824,0,0,1,2.185,2,6.565,6.565,0,0,1,.94,2.365h2.563a7.21,7.21,0,0,0-1.147-3.53,8.311,8.311,0,0,0-3.137-2.875,11.867,11.867,0,0,0-10.449.145,8.946,8.946,0,0,0-3.564,3.712,12.371,12.371,0,0,0-1.282,5.847ZM107.52,92.109h-4.541v2.208h4.541v16.789a10.52,10.52,0,0,0,.549,3.712,3.712,3.712,0,0,0,1.99,2.1,10.038,10.038,0,0,0,4.1.667q.586,0,1.55-.073t1.355-.121v-2.235q-.366.024-1.147.084t-1.27.061a5.509,5.509,0,0,1-3.552-.862q-.989-.862-.989-3.239V94.318h6.567V92.109h-6.567V85.9H107.52Zm14.257,25.232h2.588V92.109h-2.588ZM120.9,84.516a2.106,2.106,0,0,0,.623,1.516,2.251,2.251,0,0,0,3.1,0,2.055,2.055,0,0,0,.623-1.516,2.109,2.109,0,0,0-.622-1.568,2.136,2.136,0,0,0-1.578-.618,2.082,2.082,0,0,0-1.526.619,2.114,2.114,0,0,0-.62,1.568ZM140.6,91.7a11.009,11.009,0,0,0-5.359,1.3,9.424,9.424,0,0,0-3.76,3.76,12.122,12.122,0,0,0-1.379,6v3.975a12.16,12.16,0,0,0,1.379,6.041,9.281,9.281,0,0,0,3.76,3.725,11.177,11.177,0,0,0,5.359,1.274,11.056,11.056,0,0,0,5.322-1.274,9.461,9.461,0,0,0,3.772-3.725,11.987,11.987,0,0,0,1.4-6.041V102.76a12.073,12.073,0,0,0-1.4-6.041,9.4,9.4,0,0,0-3.784-3.748A11.075,11.075,0,0,0,140.6,91.7Zm0,2.329a7.78,7.78,0,0,1,4.077,1.067,7.312,7.312,0,0,1,2.8,3.094,10.831,10.831,0,0,1,1.013,4.888v3.373a10.925,10.925,0,0,1-1,4.9,7.039,7.039,0,0,1-2.771,3.045,7.975,7.975,0,0,1-4.089,1.031,8.065,8.065,0,0,1-4.15-1.043,7.03,7.03,0,0,1-2.771-3.045,10.96,10.96,0,0,1-.989-4.888v-3.373a10.813,10.813,0,0,1,1.013-4.9,7.327,7.327,0,0,1,2.8-3.081,7.78,7.78,0,0,1,4.067-1.069Zm16.553,23.314h2.612v-14.7a10.531,10.531,0,0,1,.854-4.245,7.054,7.054,0,0,1,6.885-4.367,6.754,6.754,0,0,1,3.577.885,5.786,5.786,0,0,1,2.222,2.462,8.321,8.321,0,0,1,.769,3.688v16.279h2.588V100.359q0-4.273-2.429-6.465a8.947,8.947,0,0,0-6.238-2.2,9.425,9.425,0,0,0-4.248.837,7.045,7.045,0,0,0-2.563,2.062,8.241,8.241,0,0,0-1.27,2.385h-.146V92.109h-2.612Zm42.285.436a9.264,9.264,0,0,0,3.845-.716,8.4,8.4,0,0,0,2.552-1.708,7.5,7.5,0,0,0,1.416-1.888h.146v3.876h2.539V99.554a7.906,7.906,0,0,0-1.16-4.472,6.842,6.842,0,0,0-3.162-2.56,11.9,11.9,0,0,0-4.565-.825,13.294,13.294,0,0,0-3.613.449,8.39,8.39,0,0,0-2.71,1.274,6.219,6.219,0,0,0-1.758,1.941,5.969,5.969,0,0,0-.757,2.426h2.563a4.385,4.385,0,0,1,.867-1.759,4.976,4.976,0,0,1,1.953-1.431,8.272,8.272,0,0,1,3.333-.57,7.249,7.249,0,0,1,4.614,1.383,5.186,5.186,0,0,1,1.758,4.343v3.227h-7.422q-4.3,0-6.506,1.987a6.658,6.658,0,0,0-2.209,5.192,7.106,7.106,0,0,0,2.3,5.544,8.578,8.578,0,0,0,5.981,2.075Zm.513-2.353a6.774,6.774,0,0,1-4.321-1.383,5.166,5.166,0,0,1-.33-7.453q1.428-1.383,4.6-1.383h7.4v3.542a6.117,6.117,0,0,1-1,3.469,6.92,6.92,0,0,1-2.661,2.353A7.976,7.976,0,0,1,199.951,115.425Zm16.773,1.917h2.612v-14.7a10.531,10.531,0,0,1,.854-4.245,7.054,7.054,0,0,1,6.885-4.367,6.755,6.755,0,0,1,3.577.885,5.786,5.786,0,0,1,2.222,2.462,8.322,8.322,0,0,1,.769,3.688v16.279h2.588V100.359q0-4.273-2.429-6.465a8.947,8.947,0,0,0-6.238-2.2,9.425,9.425,0,0,0-4.248.837,7.045,7.045,0,0,0-2.563,2.062,8.241,8.241,0,0,0-1.27,2.385h-.146V92.109h-2.612ZM251.612,91.7a10.041,10.041,0,0,0-4.932,1.225,9.042,9.042,0,0,0-3.54,3.551,11.417,11.417,0,0,0-1.318,5.7v5.119a11.764,11.764,0,0,0,1.233,5.531,8.9,8.9,0,0,0,3.43,3.639,9.819,9.819,0,0,0,5.054,1.286,9.563,9.563,0,0,0,3.247-.51,9.142,9.142,0,0,0,2.441-1.286,7.462,7.462,0,0,0,1.636-1.65,5.182,5.182,0,0,0,.806-1.626h.146v4.664h2.49V82.5h-2.588v14.07h-.146a7.148,7.148,0,0,0-1.416-2.269,7.732,7.732,0,0,0-2.625-1.868,9.4,9.4,0,0,0-3.919-.738Zm.269,2.329a7.441,7.441,0,0,1,6.848,4.063,8.957,8.957,0,0,1,.989,4.233v4.561a9.829,9.829,0,0,1-.928,4.294,7.54,7.54,0,0,1-2.661,3.094,8.006,8.006,0,0,1-8.069.121,7.016,7.016,0,0,1-2.661-3,10.71,10.71,0,0,1-.964-4.755v-3.809a10.675,10.675,0,0,1,1-4.876,6.951,6.951,0,0,1,2.686-2.947,7.325,7.325,0,0,1,3.759-.983Zm25.879,4.755a5.47,5.47,0,0,0,1.074,3.555,7,7,0,0,0,2.979,2.062,33.528,33.528,0,0,0,4.346,1.323q1.831.389,3.43.894a6.725,6.725,0,0,1,2.588,1.431,3.375,3.375,0,0,1,.989,2.6,4.156,4.156,0,0,1-.854,2.644,5.365,5.365,0,0,1-2.38,1.674,10.012,10.012,0,0,1-3.577.582,8.825,8.825,0,0,1-3.87-.715,4.8,4.8,0,0,1-2.869-3.942h-2.563a6.07,6.07,0,0,0,1.013,3.36,7.265,7.265,0,0,0,3.064,2.547,11.906,11.906,0,0,0,5.151.983,13.182,13.182,0,0,0,4.8-.837,7.741,7.741,0,0,0,3.43-2.484,6.523,6.523,0,0,0,1.27-4.1,5.32,5.32,0,0,0-1.208-3.725,7.715,7.715,0,0,0-3.21-2.026,35.7,35.7,0,0,0-4.395-1.213q-1.416-.315-2.612-.7a10.162,10.162,0,0,1-2.087-.894,4.008,4.008,0,0,1-1.392-1.31,3.576,3.576,0,0,1-.5-1.953,3.85,3.85,0,0,1,1.782-3.445,7.728,7.728,0,0,1,4.321-1.165,7.591,7.591,0,0,1,3.613.74,5.008,5.008,0,0,1,1.99,1.783,4.111,4.111,0,0,1,.647,1.987h2.49a6.166,6.166,0,0,0-.928-3.2,6.9,6.9,0,0,0-2.844-2.547,10.593,10.593,0,0,0-4.9-.994,12.03,12.03,0,0,0-4.407.776,7.17,7.17,0,0,0-3.186,2.353,6.356,6.356,0,0,0-1.2,3.958Zm25.073-6.672h-4.541v2.208h4.541v16.789a10.52,10.52,0,0,0,.549,3.712,3.713,3.713,0,0,0,1.99,2.1,10.038,10.038,0,0,0,4.1.667q.586,0,1.55-.073t1.355-.121v-2.235q-.366.024-1.147.084t-1.27.061a5.509,5.509,0,0,1-3.552-.862q-.989-.862-.989-3.239V94.318h6.567V92.109H305.42V85.9h-2.588Zm13.891,25.232h2.612v-15.7a8.3,8.3,0,0,1,.928-4.074,6.254,6.254,0,0,1,2.563-2.547,7.755,7.755,0,0,1,3.711-.874,12.738,12.738,0,0,1,1.343.061q.562.061.806.109V91.867q-.293-.049-.769-.1a10.829,10.829,0,0,0-1.086-.049,8.259,8.259,0,0,0-3.882.813,6.768,6.768,0,0,0-2.369,1.954,6.61,6.61,0,0,0-1.1,2.159h-.146V92.109h-2.612Zm35.034-25.232h-2.612v15.527a8.062,8.062,0,0,1-.928,3.776,7.542,7.542,0,0,1-2.661,2.9,8.275,8.275,0,0,1-7.544.389,5.32,5.32,0,0,1-2.295-2.186,7.206,7.206,0,0,1-.83-3.615V92.109h-2.612V109.48a8.749,8.749,0,0,0,1.147,4.731,6.942,6.942,0,0,0,3.1,2.693,10.715,10.715,0,0,0,4.419.874,9.1,9.1,0,0,0,4.028-.813,7.974,7.974,0,0,0,2.649-1.987A7.374,7.374,0,0,0,349,112.659h.146v4.683h2.612Zm5.811,14.679a12.894,12.894,0,0,0,1.257,5.944,8.839,8.839,0,0,0,3.54,3.748,10.711,10.711,0,0,0,5.383,1.3,11.2,11.2,0,0,0,5.322-1.1,7.8,7.8,0,0,0,3.064-2.766,7.156,7.156,0,0,0,1.111-3.312h-2.563a6.509,6.509,0,0,1-.977,2.269,5.363,5.363,0,0,1-2.148,1.808,8.44,8.44,0,0,1-3.735.7,7.2,7.2,0,0,1-5.6-2.269,9.2,9.2,0,0,1-2.063-6.418v-3.906a9.319,9.319,0,0,1,2.039-6.43,7.044,7.044,0,0,1,5.53-2.281,7.65,7.65,0,0,1,3.735.8,5.824,5.824,0,0,1,2.185,2,6.566,6.566,0,0,1,.94,2.365h2.563A7.21,7.21,0,0,0,376,95.713a8.311,8.311,0,0,0-3.137-2.875,11.867,11.867,0,0,0-10.449.145,8.946,8.946,0,0,0-3.564,3.712,12.371,12.371,0,0,0-1.282,5.847Zm27.173-14.679H380.2v2.208h4.541v16.789a10.521,10.521,0,0,0,.549,3.712,3.712,3.712,0,0,0,1.99,2.1,10.039,10.039,0,0,0,4.1.667q.586,0,1.55-.073t1.355-.121v-2.235q-.366.024-1.147.084t-1.27.061a5.509,5.509,0,0,1-3.552-.862q-.989-.862-.989-3.239V94.318H393.9V92.109h-6.567V85.9h-2.588Zm32.69,0H414.82v15.527a8.061,8.061,0,0,1-.928,3.776,7.543,7.543,0,0,1-2.661,2.9,8.275,8.275,0,0,1-7.544.389,5.321,5.321,0,0,1-2.295-2.186,7.206,7.206,0,0,1-.83-3.615V92.109H397.95V109.48a8.749,8.749,0,0,0,1.147,4.731,6.942,6.942,0,0,0,3.1,2.693,10.715,10.715,0,0,0,4.419.873,9.1,9.1,0,0,0,4.028-.813,7.974,7.974,0,0,0,2.649-1.987,7.373,7.373,0,0,0,1.379-2.317h.146v4.682h2.612Zm7.2,25.232h2.612v-15.7a8.3,8.3,0,0,1,.928-4.074,6.254,6.254,0,0,1,2.563-2.547,7.755,7.755,0,0,1,3.711-.874,12.738,12.738,0,0,1,1.343.061q.562.061.806.109V91.867q-.293-.049-.769-.1a10.829,10.829,0,0,0-1.086-.049,8.259,8.259,0,0,0-3.882.813,6.768,6.768,0,0,0-2.367,1.954,6.609,6.609,0,0,0-1.1,2.159h-.146V92.109h-2.612Zm24.39.436a11.455,11.455,0,0,0,4.016-.643,9.137,9.137,0,0,0,2.856-1.638,7.881,7.881,0,0,0,1.76-2.131,6.048,6.048,0,0,0,.745-2.135h-2.734a4.263,4.263,0,0,1-.964,1.941,5.986,5.986,0,0,1-2.209,1.614,8.363,8.363,0,0,1-3.467.643,7.068,7.068,0,0,1-5.688-2.378,9.585,9.585,0,0,1-2.026-6.43v-1.407h17.456v-2.062a13.784,13.784,0,0,0-1.282-6.223,9.141,9.141,0,0,0-3.54-3.893,10.848,10.848,0,0,0-10.425,0,9.141,9.141,0,0,0-3.54,3.893,13.785,13.785,0,0,0-1.282,6.223v3.373a13.579,13.579,0,0,0,1.233,6.017,8.938,8.938,0,0,0,3.54,3.882,10.761,10.761,0,0,0,5.552,1.353Zm-7.715-14.654v-.291a11.027,11.027,0,0,1,.928-4.719,7.13,7.13,0,0,1,12.988,0,11.028,11.028,0,0,1,.928,4.719v.291Zm34.328,14.217h2.588V94.318h6.714V92.109h-6.714V89.247a4.552,4.552,0,0,1,1.086-3.478,5.273,5.273,0,0,1,3.577-.983q.61,0,1.4.049t1.135.1V82.721a7.846,7.846,0,0,0-1.2-.158q-.806-.061-1.562-.061-3.711,0-5.371,1.6t-1.66,5v3.008h-4.419v2.208h4.419Zm21.9-25.645a11.01,11.01,0,0,0-5.359,1.3,9.423,9.423,0,0,0-3.76,3.76,12.121,12.121,0,0,0-1.379,6v3.975a12.16,12.16,0,0,0,1.379,6.041,9.281,9.281,0,0,0,3.76,3.725,11.178,11.178,0,0,0,5.359,1.274,11.056,11.056,0,0,0,5.322-1.274,9.461,9.461,0,0,0,3.772-3.725,11.988,11.988,0,0,0,1.4-6.041v-3.975a12.072,12.072,0,0,0-1.4-6.041,9.4,9.4,0,0,0-3.784-3.748,11.075,11.075,0,0,0-5.311-1.273Zm0,2.329a7.78,7.78,0,0,1,4.077,1.067,7.312,7.312,0,0,1,2.8,3.093,10.831,10.831,0,0,1,1.013,4.888v3.373a10.926,10.926,0,0,1-1,4.9,7.038,7.038,0,0,1-2.771,3.045,7.975,7.975,0,0,1-4.089,1.031,8.065,8.065,0,0,1-4.15-1.043,7.031,7.031,0,0,1-2.771-3.045,10.96,10.96,0,0,1-.989-4.888v-3.373a10.814,10.814,0,0,1,1.013-4.9,7.327,7.327,0,0,1,2.8-3.081,7.78,7.78,0,0,1,4.066-1.068Zm16.772,23.315h2.612v-15.7a8.3,8.3,0,0,1,.928-4.074,6.254,6.254,0,0,1,2.563-2.547,7.754,7.754,0,0,1,3.711-.873,12.738,12.738,0,0,1,1.343.061q.561.061.806.109V91.867q-.293-.049-.769-.1a10.83,10.83,0,0,0-1.086-.049,8.259,8.259,0,0,0-3.882.813,6.769,6.769,0,0,0-2.369,1.954,6.606,6.606,0,0,0-1.1,2.159h-.146V92.109h-2.612ZM557.08,92.109H554.3l-7.788,22.539h-.122l-7.861-22.539H535.62l9.5,25.6-.684,1.941a6.186,6.186,0,0,1-1.9,2.981,4.887,4.887,0,0,1-3.149.994q-.391,0-.977-.049t-.977-.1V125.7a8.657,8.657,0,0,0,1.074.145q.61.049,1.1.049a6.771,6.771,0,0,0,4.443-1.444,10.584,10.584,0,0,0,2.93-4.549l.952-2.451q1.123-3.2,2.271-6.36t2.295-6.332q1.147-3.18,2.295-6.344T557.08,92.109ZM569.6,91.7a11.01,11.01,0,0,0-5.359,1.3,9.424,9.424,0,0,0-3.76,3.76,12.121,12.121,0,0,0-1.379,6v3.975a12.16,12.16,0,0,0,1.379,6.041,9.281,9.281,0,0,0,3.76,3.725,11.178,11.178,0,0,0,5.359,1.274,11.056,11.056,0,0,0,5.322-1.274,9.461,9.461,0,0,0,3.772-3.725,11.989,11.989,0,0,0,1.4-6.041v-3.975a12.073,12.073,0,0,0-1.4-6.041,9.4,9.4,0,0,0-3.784-3.748A11.075,11.075,0,0,0,569.6,91.7Zm0,2.329a7.78,7.78,0,0,1,4.077,1.067,7.312,7.312,0,0,1,2.8,3.094,10.831,10.831,0,0,1,1.013,4.888v3.373a10.925,10.925,0,0,1-1,4.9,7.038,7.038,0,0,1-2.771,3.045,7.976,7.976,0,0,1-4.089,1.031,8.065,8.065,0,0,1-4.15-1.043,7.031,7.031,0,0,1-2.771-3.045,10.96,10.96,0,0,1-.989-4.888v-3.373a10.813,10.813,0,0,1,1.013-4.9,7.327,7.327,0,0,1,2.8-3.081,7.78,7.78,0,0,1,4.063-1.068Zm35.815-1.917h-2.612v15.527a8.062,8.062,0,0,1-.928,3.776,7.542,7.542,0,0,1-2.661,2.9,8.275,8.275,0,0,1-7.544.389,5.321,5.321,0,0,1-2.3-2.186,7.207,7.207,0,0,1-.83-3.615V92.109h-2.612V109.48a8.75,8.75,0,0,0,1.147,4.731,6.942,6.942,0,0,0,3.1,2.693,10.715,10.715,0,0,0,4.419.873,9.1,9.1,0,0,0,4.028-.813,7.974,7.974,0,0,0,2.649-1.987,7.375,7.375,0,0,0,1.379-2.317h.146v4.682h2.612Zm7.2,25.232h2.612v-15.7a8.3,8.3,0,0,1,.928-4.074,6.254,6.254,0,0,1,2.563-2.547,7.755,7.755,0,0,1,3.711-.873,12.74,12.74,0,0,1,1.343.061q.561.061.806.109V91.867q-.293-.049-.769-.1a10.83,10.83,0,0,0-1.086-.049,8.259,8.259,0,0,0-3.882.813,6.769,6.769,0,0,0-2.366,1.954,6.607,6.607,0,0,0-1.1,2.159h-.146V92.109h-2.612Zm33.252,6.623a8.931,8.931,0,0,1-3.625-.655,6,6,0,0,1-2.283-1.65,3.964,3.964,0,0,1-.928-2.013h-2.71A6.371,6.371,0,0,0,637.5,122.8a7.661,7.661,0,0,0,3.1,2.511,11.972,11.972,0,0,0,5.176.983,14.132,14.132,0,0,0,4.3-.606,9.022,9.022,0,0,0,3.259-1.8,7.794,7.794,0,0,0,2.075-2.936,10.5,10.5,0,0,0,.72-4.028V92.109h-2.515V96.6h-.122a7.143,7.143,0,0,0-1.355-2.135,8.306,8.306,0,0,0-2.625-1.953,8.814,8.814,0,0,0-3.955-.813,10.315,10.315,0,0,0-4.919,1.2,9.087,9.087,0,0,0-3.625,3.555,11.325,11.325,0,0,0-1.367,5.775v3.93a11.375,11.375,0,0,0,1.306,5.6,9.124,9.124,0,0,0,3.552,3.615,10.092,10.092,0,0,0,5.029,1.262,9.083,9.083,0,0,0,3.137-.5,8.316,8.316,0,0,0,2.307-1.249,7.774,7.774,0,0,0,1.538-1.577,7.311,7.311,0,0,0,.854-1.5h.146V117a6.725,6.725,0,0,1-1.953,5.083,7.888,7.888,0,0,1-5.686,1.877Zm.049-29.938a7.061,7.061,0,0,1,4.065,1.153,7.6,7.6,0,0,1,2.612,3.057,9.533,9.533,0,0,1,.916,4.185v3.615a9.5,9.5,0,0,1-.867,4,7.553,7.553,0,0,1-2.551,3.081,7.017,7.017,0,0,1-4.15,1.192,7.276,7.276,0,0,1-6.677-4.074,10.042,10.042,0,0,1-1.013-4.658v-2.717a10.417,10.417,0,0,1,1.025-4.841,7.122,7.122,0,0,1,2.771-2.981,7.605,7.605,0,0,1,3.872-1.015Zm18.118,23.315h2.612v-15.7a8.3,8.3,0,0,1,.928-4.074,6.254,6.254,0,0,1,2.563-2.547,7.755,7.755,0,0,1,3.711-.874,12.741,12.741,0,0,1,1.343.061q.561.061.806.109V91.867q-.293-.049-.769-.1a10.83,10.83,0,0,0-1.086-.049,8.259,8.259,0,0,0-3.882.813,6.769,6.769,0,0,0-2.364,1.954,6.607,6.607,0,0,0-1.1,2.159h-.146V92.109h-2.612ZM688.574,91.7a11.009,11.009,0,0,0-5.359,1.3,9.424,9.424,0,0,0-3.76,3.76,12.121,12.121,0,0,0-1.379,6v3.975a12.16,12.16,0,0,0,1.379,6.041,9.281,9.281,0,0,0,3.76,3.725,11.178,11.178,0,0,0,5.359,1.274A11.056,11.056,0,0,0,693.9,116.5a9.461,9.461,0,0,0,3.772-3.725,11.988,11.988,0,0,0,1.4-6.041v-3.975a12.073,12.073,0,0,0-1.4-6.041,9.4,9.4,0,0,0-3.784-3.748,11.075,11.075,0,0,0-5.31-1.273Zm0,2.329a7.78,7.78,0,0,1,4.077,1.067,7.312,7.312,0,0,1,2.8,3.094,10.831,10.831,0,0,1,1.013,4.888v3.373a10.925,10.925,0,0,1-1,4.9,7.038,7.038,0,0,1-2.771,3.045,7.975,7.975,0,0,1-4.089,1.031,8.065,8.065,0,0,1-4.15-1.043,7.03,7.03,0,0,1-2.771-3.045,10.96,10.96,0,0,1-.989-4.888v-3.373a10.813,10.813,0,0,1,1.013-4.9,7.327,7.327,0,0,1,2.8-3.081,7.78,7.78,0,0,1,4.067-1.068Zm46.069-1.917h-2.661l-5.493,21.641h-.146L719.6,92.109h-2.539L710.42,113.75h-.146l-5.42-21.641H701.9l7.133,25.232h2.588l6.689-21.471h.1l6.736,21.471h2.588Zm4.857,25.232h2.588V92.109H739.5Zm-.879-32.825a2.106,2.106,0,0,0,.623,1.516,2.251,2.251,0,0,0,3.1,0,2.055,2.055,0,0,0,.623-1.516,2.109,2.109,0,0,0-.622-1.568,2.136,2.136,0,0,0-1.578-.618,2.082,2.082,0,0,0-1.526.619,2.114,2.114,0,0,0-.618,1.568ZM749,117.342h2.612v-14.7a10.531,10.531,0,0,1,.854-4.245,7.054,7.054,0,0,1,6.885-4.367,6.755,6.755,0,0,1,3.577.885,5.786,5.786,0,0,1,2.222,2.462,8.321,8.321,0,0,1,.769,3.688v16.279h2.588V100.359q0-4.273-2.429-6.465a8.947,8.947,0,0,0-6.238-2.2,9.425,9.425,0,0,0-4.248.837,7.045,7.045,0,0,0-2.563,2.062,8.244,8.244,0,0,0-1.27,2.385h-.146V92.109H749Zm35.156,6.623a8.931,8.931,0,0,1-3.625-.655,6,6,0,0,1-2.283-1.65,3.964,3.964,0,0,1-.928-2.013h-2.71a6.372,6.372,0,0,0,1.172,3.154,7.661,7.661,0,0,0,3.1,2.511,11.972,11.972,0,0,0,5.176.983,14.132,14.132,0,0,0,4.3-.606,9.024,9.024,0,0,0,3.259-1.8,7.793,7.793,0,0,0,2.075-2.935,10.5,10.5,0,0,0,.72-4.028V92.109H791.9V96.6h-.122a7.142,7.142,0,0,0-1.355-2.135,8.307,8.307,0,0,0-2.625-1.953,8.814,8.814,0,0,0-3.955-.813,10.315,10.315,0,0,0-4.919,1.2,9.087,9.087,0,0,0-3.625,3.555,11.324,11.324,0,0,0-1.367,5.775v3.93a11.376,11.376,0,0,0,1.306,5.6,9.124,9.124,0,0,0,3.552,3.615,10.091,10.091,0,0,0,5.029,1.262,9.082,9.082,0,0,0,3.137-.5,8.317,8.317,0,0,0,2.307-1.249,7.777,7.777,0,0,0,1.538-1.577,7.308,7.308,0,0,0,.854-1.5h.146V117a6.725,6.725,0,0,1-1.953,5.083,7.889,7.889,0,0,1-5.69,1.877Zm.049-29.938a7.061,7.061,0,0,1,4.065,1.153,7.6,7.6,0,0,1,2.612,3.057,9.533,9.533,0,0,1,.916,4.185v3.615a9.5,9.5,0,0,1-.867,4,7.554,7.554,0,0,1-2.551,3.081,7.017,7.017,0,0,1-4.15,1.192,7.276,7.276,0,0,1-6.677-4.074,10.043,10.043,0,0,1-1.013-4.658v-2.717a10.42,10.42,0,0,1,1.025-4.84,7.122,7.122,0,0,1,2.771-2.981,7.606,7.606,0,0,1,3.864-1.015ZM15.333,187.339a9.794,9.794,0,0,0,5.167-1.33,8.985,8.985,0,0,0,3.418-3.725,12.3,12.3,0,0,0,1.208-5.617v-4.8a12.165,12.165,0,0,0-1.208-5.58,9,9,0,0,0-3.381-3.7,9.623,9.623,0,0,0-5.1-1.323,10.049,10.049,0,0,0-2.747.376,9.062,9.062,0,0,0-2.417,1.067,7.729,7.729,0,0,0-1.843,1.614,5.349,5.349,0,0,0-1.05,1.987H7.227V152.064H4.639V186.9h2.49V182.44h.146a6.741,6.741,0,0,0,1.734,2.576,8.45,8.45,0,0,0,2.808,1.71,9.855,9.855,0,0,0,3.515.614Zm-.244-2.353a7.715,7.715,0,0,1-4.066-1.063,7.532,7.532,0,0,1-2.783-2.96,9.006,9.006,0,0,1-1.013-4.319v-4.489a9.763,9.763,0,0,1,.973-4.49,7.323,7.323,0,0,1,2.747-3,7.649,7.649,0,0,1,4.065-1.079,6.838,6.838,0,0,1,6.58,4.187,11.321,11.321,0,0,1,.916,4.743v3.567a11.454,11.454,0,0,1-.9,4.743,6.966,6.966,0,0,1-2.576,3.081,7.11,7.11,0,0,1-3.944,1.077ZM50.441,161.67H47.827V177.2a8.061,8.061,0,0,1-.928,3.776,7.543,7.543,0,0,1-2.661,2.9,8.275,8.275,0,0,1-7.544.389,5.32,5.32,0,0,1-2.3-2.186,7.206,7.206,0,0,1-.83-3.615V161.671H30.957v17.371a8.75,8.75,0,0,0,1.147,4.731,6.942,6.942,0,0,0,3.1,2.693,10.715,10.715,0,0,0,4.419.873,9.1,9.1,0,0,0,4.028-.813,7.974,7.974,0,0,0,2.649-1.987,7.373,7.373,0,0,0,1.379-2.317h.146V186.9h2.612Zm5.933,6.672a5.47,5.47,0,0,0,1.074,3.555,7,7,0,0,0,2.979,2.062,33.532,33.532,0,0,0,4.346,1.323q1.831.389,3.43.894a6.725,6.725,0,0,1,2.588,1.431,3.375,3.375,0,0,1,.989,2.6,4.156,4.156,0,0,1-.854,2.644,5.365,5.365,0,0,1-2.38,1.674,10.012,10.012,0,0,1-3.577.582,8.824,8.824,0,0,1-3.87-.715,4.8,4.8,0,0,1-2.869-3.942H55.664a6.07,6.07,0,0,0,1.013,3.36,7.265,7.265,0,0,0,3.064,2.547,11.906,11.906,0,0,0,5.151.983,13.182,13.182,0,0,0,4.8-.837,7.741,7.741,0,0,0,3.43-2.484,6.523,6.523,0,0,0,1.27-4.1,5.32,5.32,0,0,0-1.208-3.725,7.715,7.715,0,0,0-3.21-2.026,35.7,35.7,0,0,0-4.395-1.213q-1.416-.315-2.612-.7a10.16,10.16,0,0,1-2.087-.894,4.007,4.007,0,0,1-1.392-1.31,3.576,3.576,0,0,1-.5-1.953,3.85,3.85,0,0,1,1.782-3.445,7.728,7.728,0,0,1,4.321-1.165,7.592,7.592,0,0,1,3.613.74,5.008,5.008,0,0,1,1.99,1.783A4.111,4.111,0,0,1,71.341,168h2.49a6.165,6.165,0,0,0-.928-3.2,6.9,6.9,0,0,0-2.844-2.547,10.593,10.593,0,0,0-4.9-.994,12.029,12.029,0,0,0-4.407.776,7.17,7.17,0,0,0-3.186,2.353,6.356,6.356,0,0,0-1.194,3.959ZM80.64,186.9h2.588V161.671H80.64Zm-.879-32.825a2.106,2.106,0,0,0,.623,1.516,2.251,2.251,0,0,0,3.1,0,2.055,2.055,0,0,0,.623-1.516,2.109,2.109,0,0,0-.622-1.568,2.136,2.136,0,0,0-1.578-.618,2.082,2.082,0,0,0-1.526.619A2.114,2.114,0,0,0,79.761,154.078ZM90.137,186.9h2.612V172.2a10.531,10.531,0,0,1,.854-4.245,7.054,7.054,0,0,1,6.885-4.367,6.755,6.755,0,0,1,3.577.885,5.786,5.786,0,0,1,2.222,2.462,8.322,8.322,0,0,1,.769,3.688V186.9h2.588V169.921q0-4.273-2.429-6.465a8.947,8.947,0,0,0-6.238-2.2,9.424,9.424,0,0,0-4.248.837,7.045,7.045,0,0,0-2.563,2.062,8.241,8.241,0,0,0-1.27,2.385H92.75v-4.876H90.137Zm35.5.436a11.454,11.454,0,0,0,4.016-.643,9.138,9.138,0,0,0,2.856-1.638,7.881,7.881,0,0,0,1.756-2.131,6.047,6.047,0,0,0,.745-2.135h-2.734a4.262,4.262,0,0,1-.964,1.941,5.986,5.986,0,0,1-2.209,1.614,8.363,8.363,0,0,1-3.467.643,7.068,7.068,0,0,1-5.688-2.378,9.584,9.584,0,0,1-2.026-6.43v-1.407h17.456v-2.062a13.785,13.785,0,0,0-1.282-6.223,9.141,9.141,0,0,0-3.54-3.894,10.847,10.847,0,0,0-10.425,0,9.141,9.141,0,0,0-3.54,3.894,13.785,13.785,0,0,0-1.282,6.223v3.373a13.579,13.579,0,0,0,1.233,6.017,8.939,8.939,0,0,0,3.54,3.882,10.761,10.761,0,0,0,5.553,1.353Zm-7.715-14.654v-.291a11.027,11.027,0,0,1,.928-4.719,7.13,7.13,0,0,1,12.988,0,11.027,11.027,0,0,1,.928,4.719v.291Zm22.363-4.343a5.47,5.47,0,0,0,1.074,3.555,7,7,0,0,0,2.979,2.062,33.527,33.527,0,0,0,4.346,1.323q1.831.389,3.43.894a6.725,6.725,0,0,1,2.588,1.431,3.375,3.375,0,0,1,.989,2.6,4.156,4.156,0,0,1-.854,2.644,5.364,5.364,0,0,1-2.38,1.674,10.011,10.011,0,0,1-3.577.582,8.826,8.826,0,0,1-3.87-.716,4.8,4.8,0,0,1-2.869-3.942h-2.563a6.07,6.07,0,0,0,1.013,3.36,7.265,7.265,0,0,0,3.064,2.547,11.906,11.906,0,0,0,5.151.983,13.182,13.182,0,0,0,4.8-.837,7.742,7.742,0,0,0,3.43-2.484,6.523,6.523,0,0,0,1.27-4.1,5.32,5.32,0,0,0-1.208-3.725,7.715,7.715,0,0,0-3.21-2.026,35.7,35.7,0,0,0-4.4-1.213q-1.416-.315-2.612-.7a10.161,10.161,0,0,1-2.087-.894,4.007,4.007,0,0,1-1.392-1.31,3.576,3.576,0,0,1-.5-1.953,3.85,3.85,0,0,1,1.782-3.445A7.728,7.728,0,0,1,149,163.491a7.592,7.592,0,0,1,3.613.74,5.008,5.008,0,0,1,1.99,1.783A4.112,4.112,0,0,1,155.25,168h2.49a6.165,6.165,0,0,0-.928-3.2,6.9,6.9,0,0,0-2.844-2.547,10.593,10.593,0,0,0-4.9-.994,12.029,12.029,0,0,0-4.407.776,7.17,7.17,0,0,0-3.186,2.353,6.355,6.355,0,0,0-1.192,3.956Zm22.632,0a5.47,5.47,0,0,0,1.074,3.555,7,7,0,0,0,2.979,2.062,33.527,33.527,0,0,0,4.346,1.323q1.831.389,3.43.894a6.725,6.725,0,0,1,2.588,1.431,3.375,3.375,0,0,1,.989,2.6,4.156,4.156,0,0,1-.854,2.644,5.364,5.364,0,0,1-2.38,1.674,10.012,10.012,0,0,1-3.577.582,8.826,8.826,0,0,1-3.87-.716,4.8,4.8,0,0,1-2.869-3.942H162.21a6.07,6.07,0,0,0,1.013,3.36,7.265,7.265,0,0,0,3.064,2.547,11.906,11.906,0,0,0,5.151.983,13.182,13.182,0,0,0,4.8-.837,7.742,7.742,0,0,0,3.43-2.484,6.523,6.523,0,0,0,1.27-4.1,5.32,5.32,0,0,0-1.208-3.725,7.715,7.715,0,0,0-3.21-2.026,35.7,35.7,0,0,0-4.4-1.213q-1.416-.315-2.612-.7a10.161,10.161,0,0,1-2.087-.894,4.008,4.008,0,0,1-1.392-1.31,3.576,3.576,0,0,1-.5-1.953,3.85,3.85,0,0,1,1.782-3.445,7.728,7.728,0,0,1,4.321-1.165,7.592,7.592,0,0,1,3.613.74,5.008,5.008,0,0,1,1.99,1.783,4.111,4.111,0,0,1,.647,1.987h2.49a6.165,6.165,0,0,0-.928-3.2,6.9,6.9,0,0,0-2.849-2.538,10.592,10.592,0,0,0-4.9-.994,12.029,12.029,0,0,0-4.407.776,7.17,7.17,0,0,0-3.186,2.353,6.356,6.356,0,0,0-1.192,3.949Zm22.876-1.043a2.4,2.4,0,0,0,.708,1.722,2.426,2.426,0,0,0,1.733.7,2.477,2.477,0,0,0,1.782-.7,2.3,2.3,0,0,0,.732-1.722,2.392,2.392,0,0,0-.732-1.783,2.455,2.455,0,0,0-1.782-.716,2.344,2.344,0,0,0-1.733.716,2.435,2.435,0,0,0-.71,1.783Zm1.1,28.216,2.954-12.664h-3.125l-2.246,12.664Zm28.32-8.177a11.454,11.454,0,0,0,4.016-.643,9.138,9.138,0,0,0,2.856-1.638,7.881,7.881,0,0,0,1.755-2.131,6.047,6.047,0,0,0,.745-2.135h-2.734a4.263,4.263,0,0,1-.964,1.941,5.985,5.985,0,0,1-2.209,1.614,8.363,8.363,0,0,1-3.467.643,7.068,7.068,0,0,1-5.688-2.378,9.585,9.585,0,0,1-2.026-6.43v-1.407h17.456v-2.062a13.785,13.785,0,0,0-1.282-6.223,9.141,9.141,0,0,0-3.54-3.893,10.847,10.847,0,0,0-10.425,0,9.141,9.141,0,0,0-3.54,3.894,13.785,13.785,0,0,0-1.282,6.223v3.373a13.579,13.579,0,0,0,1.233,6.017,8.939,8.939,0,0,0,3.54,3.882,10.761,10.761,0,0,0,5.553,1.353ZM207.5,172.686v-.291a11.027,11.027,0,0,1,.928-4.719,7.13,7.13,0,0,1,12.988,0,11.027,11.027,0,0,1,.928,4.719v.291ZM230.908,186.9h2.612V172.2a10.531,10.531,0,0,1,.854-4.245,7.054,7.054,0,0,1,6.885-4.367,6.754,6.754,0,0,1,3.577.885,5.786,5.786,0,0,1,2.222,2.462,8.322,8.322,0,0,1,.769,3.688V186.9h2.588V169.921q0-4.273-2.429-6.465a8.947,8.947,0,0,0-6.238-2.2,9.424,9.424,0,0,0-4.248.837,7.045,7.045,0,0,0-2.563,2.062,8.242,8.242,0,0,0-1.27,2.385h-.146v-4.876h-2.612Zm26.416,0h2.588V172.2a10.4,10.4,0,0,1,.867-4.245,7.117,7.117,0,0,1,6.9-4.367,6.9,6.9,0,0,1,3.589.885,5.777,5.777,0,0,1,2.271,2.474,8.289,8.289,0,0,1,.781,3.7V186.9h2.612V169.945q0-4.273-2.466-6.478a8.95,8.95,0,0,0-6.2-2.208,9.45,9.45,0,0,0-4.272.862,7.47,7.47,0,0,0-2.649,2.1,7.8,7.8,0,0,0-1.282,2.329h-.146V152.064h-2.588Zm33.081.436a9.264,9.264,0,0,0,3.845-.715,8.4,8.4,0,0,0,2.55-1.708,7.5,7.5,0,0,0,1.416-1.888h.146V186.9H300.9V169.116a7.905,7.905,0,0,0-1.16-4.472,6.842,6.842,0,0,0-3.162-2.56,11.9,11.9,0,0,0-4.565-.825,13.3,13.3,0,0,0-3.613.449,8.391,8.391,0,0,0-2.71,1.274,6.218,6.218,0,0,0-1.758,1.941,5.97,5.97,0,0,0-.757,2.426h2.563a4.385,4.385,0,0,1,.867-1.759,4.976,4.976,0,0,1,1.953-1.431,8.272,8.272,0,0,1,3.333-.57,7.249,7.249,0,0,1,4.614,1.383,5.186,5.186,0,0,1,1.758,4.343v3.227h-7.422q-4.3,0-6.506,1.987a6.658,6.658,0,0,0-2.209,5.192,7.106,7.106,0,0,0,2.3,5.544,8.578,8.578,0,0,0,5.984,2.075Zm.513-2.353A6.773,6.773,0,0,1,286.6,183.6a5.166,5.166,0,0,1-.33-7.453q1.428-1.383,4.6-1.383h7.4v3.542a6.116,6.116,0,0,1-1,3.469,6.92,6.92,0,0,1-2.661,2.353,7.976,7.976,0,0,1-3.688.856ZM307.69,186.9h2.61V172.2a10.531,10.531,0,0,1,.854-4.245,7.054,7.054,0,0,1,6.885-4.367,6.754,6.754,0,0,1,3.577.885,5.787,5.787,0,0,1,2.222,2.463,8.322,8.322,0,0,1,.769,3.688V186.9H327.2V169.921q0-4.273-2.429-6.465a8.947,8.947,0,0,0-6.238-2.2,9.424,9.424,0,0,0-4.248.837,7.045,7.045,0,0,0-2.563,2.062,8.243,8.243,0,0,0-1.27,2.385H310.3v-4.876h-2.61Zm25.146-10.554a12.894,12.894,0,0,0,1.257,5.944,8.839,8.839,0,0,0,3.54,3.748,10.711,10.711,0,0,0,5.383,1.3,11.2,11.2,0,0,0,5.322-1.1,7.8,7.8,0,0,0,3.064-2.766,7.155,7.155,0,0,0,1.111-3.312H349.95a6.509,6.509,0,0,1-.977,2.269,5.363,5.363,0,0,1-2.148,1.808,8.44,8.44,0,0,1-3.735.7,7.2,7.2,0,0,1-5.6-2.269,9.2,9.2,0,0,1-2.063-6.418v-3.906a9.319,9.319,0,0,1,2.039-6.43,7.044,7.044,0,0,1,5.53-2.281,7.65,7.65,0,0,1,3.735.8,5.824,5.824,0,0,1,2.185,2,6.566,6.566,0,0,1,.94,2.365h2.563a7.21,7.21,0,0,0-1.147-3.53,8.311,8.311,0,0,0-3.137-2.875,11.867,11.867,0,0,0-10.449.145,8.946,8.946,0,0,0-3.564,3.712,12.371,12.371,0,0,0-1.282,5.847Zm26,10.554h2.588V161.671h-2.588Zm-.879-32.825a2.106,2.106,0,0,0,.623,1.516,2.251,2.251,0,0,0,3.1,0,2.056,2.056,0,0,0,.623-1.516,2.109,2.109,0,0,0-.622-1.568,2.136,2.136,0,0,0-1.578-.618,2.082,2.082,0,0,0-1.526.619,2.113,2.113,0,0,0-.618,1.568ZM368.335,186.9h2.612V172.2a10.53,10.53,0,0,1,.854-4.245,7.054,7.054,0,0,1,6.885-4.367,6.755,6.755,0,0,1,3.577.885,5.787,5.787,0,0,1,2.222,2.462,8.322,8.322,0,0,1,.769,3.688V186.9h2.588V169.921q0-4.273-2.429-6.465a8.947,8.947,0,0,0-6.238-2.2,9.425,9.425,0,0,0-4.248.837,7.045,7.045,0,0,0-2.563,2.062,8.242,8.242,0,0,0-1.27,2.385h-.146v-4.876h-2.612Zm35.156,6.623a8.931,8.931,0,0,1-3.625-.655,6,6,0,0,1-2.283-1.65,3.964,3.964,0,0,1-.928-2.013h-2.71a6.372,6.372,0,0,0,1.172,3.154,7.661,7.661,0,0,0,3.1,2.511,11.971,11.971,0,0,0,5.176.983,14.132,14.132,0,0,0,4.3-.606,9.023,9.023,0,0,0,3.259-1.8,7.794,7.794,0,0,0,2.075-2.936,10.5,10.5,0,0,0,.72-4.028V161.671H411.23v4.489h-.122a7.142,7.142,0,0,0-1.355-2.135,8.307,8.307,0,0,0-2.625-1.953,8.814,8.814,0,0,0-3.955-.813,10.315,10.315,0,0,0-4.919,1.2,9.086,9.086,0,0,0-3.625,3.555,11.325,11.325,0,0,0-1.367,5.775v3.93a11.376,11.376,0,0,0,1.306,5.6,9.123,9.123,0,0,0,3.552,3.615,10.091,10.091,0,0,0,5.029,1.262,9.083,9.083,0,0,0,3.137-.5,8.317,8.317,0,0,0,2.307-1.249,7.775,7.775,0,0,0,1.538-1.577,7.311,7.311,0,0,0,.854-1.5h.146v5.192a6.725,6.725,0,0,1-1.953,5.083,7.889,7.889,0,0,1-5.687,1.877Zm.049-29.939a7.06,7.06,0,0,1,4.065,1.153,7.6,7.6,0,0,1,2.612,3.057,9.532,9.532,0,0,1,.916,4.185V175.6a9.5,9.5,0,0,1-.867,4,7.552,7.552,0,0,1-2.551,3.081,7.017,7.017,0,0,1-4.15,1.193,7.276,7.276,0,0,1-6.677-4.074,10.042,10.042,0,0,1-1.013-4.658v-2.717a10.42,10.42,0,0,1,1.025-4.84,7.123,7.123,0,0,1,2.771-2.981,7.605,7.605,0,0,1,3.869-1.015Zm36.182-2.329a11.009,11.009,0,0,0-5.359,1.3,9.423,9.423,0,0,0-3.76,3.76,12.121,12.121,0,0,0-1.379,6V176.3a12.16,12.16,0,0,0,1.379,6.041,9.281,9.281,0,0,0,3.76,3.725,11.177,11.177,0,0,0,5.359,1.274,11.056,11.056,0,0,0,5.322-1.274,9.461,9.461,0,0,0,3.772-3.725,11.988,11.988,0,0,0,1.4-6.041v-3.975a12.073,12.073,0,0,0-1.4-6.041,9.4,9.4,0,0,0-3.784-3.748,11.075,11.075,0,0,0-5.31-1.273Zm0,2.329a7.78,7.78,0,0,1,4.077,1.067,7.312,7.312,0,0,1,2.8,3.094,10.831,10.831,0,0,1,1.013,4.888v3.373a10.926,10.926,0,0,1-1,4.9,7.038,7.038,0,0,1-2.771,3.045,7.976,7.976,0,0,1-4.089,1.031,8.065,8.065,0,0,1-4.15-1.043,7.031,7.031,0,0,1-2.771-3.045,10.961,10.961,0,0,1-.989-4.888v-3.373a10.813,10.813,0,0,1,1.013-4.9,7.327,7.327,0,0,1,2.8-3.081A7.78,7.78,0,0,1,439.722,163.588ZM456.494,186.9h2.612V171.2a8.3,8.3,0,0,1,.928-4.074,6.253,6.253,0,0,1,2.563-2.547,7.755,7.755,0,0,1,3.711-.873,12.73,12.73,0,0,1,1.343.061q.562.061.806.109v-2.451q-.293-.049-.769-.1a10.824,10.824,0,0,0-1.086-.049,8.259,8.259,0,0,0-3.882.813,6.769,6.769,0,0,0-2.368,1.956,6.609,6.609,0,0,0-1.1,2.159h-.146V161.67h-2.612Zm24.048,6.623a8.931,8.931,0,0,1-3.625-.655,6,6,0,0,1-2.283-1.65,3.964,3.964,0,0,1-.928-2.013H471a6.372,6.372,0,0,0,1.172,3.154,7.661,7.661,0,0,0,3.1,2.511,11.971,11.971,0,0,0,5.176.983,14.132,14.132,0,0,0,4.3-.606,9.023,9.023,0,0,0,3.252-1.8,7.793,7.793,0,0,0,2.075-2.936,10.5,10.5,0,0,0,.72-4.028v-24.82H488.28v4.489h-.122a7.142,7.142,0,0,0-1.355-2.135,8.307,8.307,0,0,0-2.625-1.953,8.814,8.814,0,0,0-3.955-.813,10.315,10.315,0,0,0-4.919,1.2,9.087,9.087,0,0,0-3.625,3.555,11.324,11.324,0,0,0-1.367,5.775v3.93a11.377,11.377,0,0,0,1.306,5.6,9.124,9.124,0,0,0,3.552,3.615A10.091,10.091,0,0,0,480.2,186.2a9.083,9.083,0,0,0,3.137-.5,8.316,8.316,0,0,0,2.307-1.249,7.775,7.775,0,0,0,1.538-1.577,7.313,7.313,0,0,0,.854-1.5h.146v5.192a6.725,6.725,0,0,1-1.953,5.083,7.889,7.889,0,0,1-5.686,1.877Zm.049-29.939a7.06,7.06,0,0,1,4.065,1.153,7.6,7.6,0,0,1,2.612,3.057,9.532,9.532,0,0,1,.916,4.185V175.6a9.5,9.5,0,0,1-.867,4,7.553,7.553,0,0,1-2.551,3.081,7.017,7.017,0,0,1-4.15,1.193,7.276,7.276,0,0,1-6.677-4.074,10.042,10.042,0,0,1-1.013-4.658v-2.717a10.419,10.419,0,0,1,1.025-4.84,7.123,7.123,0,0,1,2.771-2.981,7.6,7.6,0,0,1,3.869-1.015ZM505,187.34a9.264,9.264,0,0,0,3.845-.715,8.4,8.4,0,0,0,2.555-1.708,7.5,7.5,0,0,0,1.416-1.888h.146V186.9H515.5V169.116a7.9,7.9,0,0,0-1.16-4.472,6.842,6.842,0,0,0-3.162-2.56,11.9,11.9,0,0,0-4.565-.825,13.3,13.3,0,0,0-3.613.449,8.391,8.391,0,0,0-2.71,1.274,6.218,6.218,0,0,0-1.758,1.941,5.969,5.969,0,0,0-.757,2.426h2.563a4.386,4.386,0,0,1,.867-1.759,4.976,4.976,0,0,1,1.953-1.431,8.272,8.272,0,0,1,3.333-.57,7.249,7.249,0,0,1,4.614,1.383,5.186,5.186,0,0,1,1.758,4.343v3.227h-7.422q-4.3,0-6.506,1.987a6.658,6.658,0,0,0-2.209,5.192,7.106,7.106,0,0,0,2.3,5.544A8.578,8.578,0,0,0,505,187.34Zm.513-2.353a6.773,6.773,0,0,1-4.321-1.383,5.166,5.166,0,0,1-.33-7.453q1.428-1.383,4.6-1.383h7.4v3.542a6.117,6.117,0,0,1-1,3.469,6.92,6.92,0,0,1-2.661,2.353,7.976,7.976,0,0,1-3.683.856ZM522.29,186.9h2.61V172.2a10.531,10.531,0,0,1,.854-4.245,7.054,7.054,0,0,1,6.885-4.367,6.754,6.754,0,0,1,3.577.885,5.786,5.786,0,0,1,2.222,2.463,8.321,8.321,0,0,1,.769,3.688V186.9H541.8V169.921q0-4.273-2.429-6.465a8.947,8.947,0,0,0-6.238-2.2,9.424,9.424,0,0,0-4.248.837,7.045,7.045,0,0,0-2.563,2.062,8.242,8.242,0,0,0-1.27,2.385H524.9v-4.876h-2.61Zm26.9,0h2.588V161.671H549.19Zm-.879-32.825a2.106,2.106,0,0,0,.623,1.516,2.251,2.251,0,0,0,3.1,0,2.055,2.055,0,0,0,.623-1.516,2.109,2.109,0,0,0-.622-1.568,2.136,2.136,0,0,0-1.578-.618,2.082,2.082,0,0,0-1.526.619,2.114,2.114,0,0,0-.616,1.568Zm9.326,14.265a5.471,5.471,0,0,0,1.074,3.555,7,7,0,0,0,2.979,2.062,33.529,33.529,0,0,0,4.346,1.323q1.831.389,3.43.894a6.725,6.725,0,0,1,2.588,1.431,3.375,3.375,0,0,1,.989,2.6,4.156,4.156,0,0,1-.854,2.644,5.364,5.364,0,0,1-2.38,1.674,10.011,10.011,0,0,1-3.577.582,8.826,8.826,0,0,1-3.87-.715,4.8,4.8,0,0,1-2.869-3.942H556.93a6.07,6.07,0,0,0,1.013,3.36,7.265,7.265,0,0,0,3.064,2.547,11.907,11.907,0,0,0,5.151.983,13.182,13.182,0,0,0,4.8-.837,7.742,7.742,0,0,0,3.43-2.484,6.524,6.524,0,0,0,1.27-4.1,5.32,5.32,0,0,0-1.208-3.725,7.715,7.715,0,0,0-3.21-2.026,35.713,35.713,0,0,0-4.4-1.213q-1.416-.315-2.612-.7a10.158,10.158,0,0,1-2.087-.894,4.009,4.009,0,0,1-1.392-1.31,3.575,3.575,0,0,1-.5-1.953,3.85,3.85,0,0,1,1.782-3.445,7.729,7.729,0,0,1,4.321-1.165,7.591,7.591,0,0,1,3.613.74,5.008,5.008,0,0,1,1.99,1.783,4.112,4.112,0,0,1,.647,1.987h2.49a6.166,6.166,0,0,0-.928-3.2,6.9,6.9,0,0,0-2.844-2.547,10.592,10.592,0,0,0-4.9-.994,12.029,12.029,0,0,0-4.407.776,7.17,7.17,0,0,0-3.186,2.353,6.355,6.355,0,0,0-1.19,3.958Zm30.444,19a9.264,9.264,0,0,0,3.845-.715,8.4,8.4,0,0,0,2.556-1.708,7.5,7.5,0,0,0,1.416-1.888h.146V186.9h2.539V169.116a7.9,7.9,0,0,0-1.16-4.472,6.842,6.842,0,0,0-3.162-2.56,11.9,11.9,0,0,0-4.565-.825,13.3,13.3,0,0,0-3.613.449,8.39,8.39,0,0,0-2.71,1.274,6.217,6.217,0,0,0-1.758,1.941,5.969,5.969,0,0,0-.757,2.426h2.563a4.386,4.386,0,0,1,.867-1.759,4.976,4.976,0,0,1,1.953-1.431,8.272,8.272,0,0,1,3.333-.57,7.249,7.249,0,0,1,4.614,1.383,5.186,5.186,0,0,1,1.758,4.343v3.227h-7.422q-4.3,0-6.506,1.987a6.658,6.658,0,0,0-2.209,5.192,7.106,7.106,0,0,0,2.295,5.544,8.579,8.579,0,0,0,5.982,2.075Zm.513-2.353a6.774,6.774,0,0,1-4.321-1.383,5.166,5.166,0,0,1-.33-7.453q1.428-1.383,4.6-1.383h7.4v3.542a6.118,6.118,0,0,1-1,3.469,6.92,6.92,0,0,1-2.661,2.353,7.976,7.976,0,0,1-3.682.856Zm18.164-23.315h-4.541v2.208h4.541v16.789a10.521,10.521,0,0,0,.549,3.712,3.712,3.712,0,0,0,1.99,2.1,10.038,10.038,0,0,0,4.1.667q.586,0,1.55-.073t1.355-.121v-2.235q-.366.024-1.147.084t-1.27.061a5.509,5.509,0,0,1-3.552-.862q-.989-.862-.989-3.239V163.88h6.567v-2.208h-6.567v-6.211h-2.588ZM621.021,186.9h2.588V161.671h-2.588Zm-.879-32.825a2.106,2.106,0,0,0,.623,1.516,2.251,2.251,0,0,0,3.1,0,2.055,2.055,0,0,0,.623-1.516,2.109,2.109,0,0,0-.622-1.568,2.136,2.136,0,0,0-1.578-.618,2.082,2.082,0,0,0-1.526.619,2.114,2.114,0,0,0-.62,1.568Zm19.7,7.182a11.01,11.01,0,0,0-5.359,1.3,9.425,9.425,0,0,0-3.76,3.76,12.122,12.122,0,0,0-1.379,6V176.3a12.159,12.159,0,0,0,1.379,6.041,9.281,9.281,0,0,0,3.76,3.725,11.178,11.178,0,0,0,5.359,1.274,11.056,11.056,0,0,0,5.322-1.274,9.461,9.461,0,0,0,3.772-3.725,11.989,11.989,0,0,0,1.4-6.041v-3.975a12.073,12.073,0,0,0-1.4-6.041,9.4,9.4,0,0,0-3.784-3.748,11.075,11.075,0,0,0-5.308-1.274Zm0,2.329a7.78,7.78,0,0,1,4.077,1.067,7.312,7.312,0,0,1,2.8,3.094,10.831,10.831,0,0,1,1.013,4.888v3.373a10.925,10.925,0,0,1-1,4.9,7.038,7.038,0,0,1-2.771,3.045,7.975,7.975,0,0,1-4.089,1.031,8.065,8.065,0,0,1-4.15-1.043,7.03,7.03,0,0,1-2.771-3.045,10.959,10.959,0,0,1-.989-4.888v-3.373a10.813,10.813,0,0,1,1.013-4.9,7.327,7.327,0,0,1,2.8-3.081,7.779,7.779,0,0,1,4.069-1.069ZM656.4,186.9h2.612V172.2a10.532,10.532,0,0,1,.854-4.245,7.054,7.054,0,0,1,6.885-4.367,6.755,6.755,0,0,1,3.577.885,5.786,5.786,0,0,1,2.222,2.462,8.322,8.322,0,0,1,.769,3.688V186.9H675.9V169.921q0-4.273-2.429-6.465a8.947,8.947,0,0,0-6.238-2.2,9.425,9.425,0,0,0-4.248.837,7.046,7.046,0,0,0-2.563,2.062,8.242,8.242,0,0,0-1.27,2.385h-.146v-4.876H656.4Zm33.081.436a9.264,9.264,0,0,0,3.845-.715,8.4,8.4,0,0,0,2.548-1.708,7.5,7.5,0,0,0,1.416-1.888h.146V186.9h2.539V169.116a7.9,7.9,0,0,0-1.16-4.472,6.842,6.842,0,0,0-3.162-2.56,11.9,11.9,0,0,0-4.565-.825,13.3,13.3,0,0,0-3.613.449,8.39,8.39,0,0,0-2.71,1.274,6.217,6.217,0,0,0-1.758,1.941,5.968,5.968,0,0,0-.757,2.426h2.563a4.384,4.384,0,0,1,.867-1.759,4.976,4.976,0,0,1,1.953-1.431,8.272,8.272,0,0,1,3.333-.57,7.249,7.249,0,0,1,4.614,1.383,5.186,5.186,0,0,1,1.758,4.343v3.227h-7.422q-4.3,0-6.506,1.987a6.658,6.658,0,0,0-2.209,5.192,7.106,7.106,0,0,0,2.3,5.544,8.578,8.578,0,0,0,5.982,2.075Zm.513-2.353a6.774,6.774,0,0,1-4.321-1.383,5.166,5.166,0,0,1-.33-7.453q1.428-1.383,4.6-1.383h7.4v3.542a6.117,6.117,0,0,1-1,3.469,6.92,6.92,0,0,1-2.661,2.353,7.976,7.976,0,0,1-3.692.856ZM707.08,186.9h2.612v-34.84H707.08Zm-693.335,70a11.456,11.456,0,0,0,4.016-.643,9.138,9.138,0,0,0,2.856-1.638,7.881,7.881,0,0,0,1.758-2.131,6.048,6.048,0,0,0,.745-2.135H20.386a4.262,4.262,0,0,1-.964,1.941,5.986,5.986,0,0,1-2.209,1.614,8.363,8.363,0,0,1-3.467.643,7.068,7.068,0,0,1-5.688-2.378,9.584,9.584,0,0,1-2.026-6.43v-1.407H23.486v-2.062a13.785,13.785,0,0,0-1.282-6.223,9.141,9.141,0,0,0-3.54-3.893,10.049,10.049,0,0,0-5.212-1.335,10.049,10.049,0,0,0-5.212,1.335,9.141,9.141,0,0,0-3.54,3.893,13.785,13.785,0,0,0-1.282,6.223v3.373a13.579,13.579,0,0,0,1.233,6.017,8.939,8.939,0,0,0,3.54,3.882A10.759,10.759,0,0,0,13.745,256.9ZM6.03,242.248v-.291a11.027,11.027,0,0,1,.928-4.719,6.79,6.79,0,0,1,6.494-4.088,7.141,7.141,0,0,1,3.894,1.055,6.987,6.987,0,0,1,2.6,3.033,11.027,11.027,0,0,1,.928,4.719v.291Zm23.413,14.217h2.612v-14.7a10.531,10.531,0,0,1,.854-4.245,7.054,7.054,0,0,1,6.885-4.366,6.754,6.754,0,0,1,3.577.885,5.786,5.786,0,0,1,2.222,2.462,8.322,8.322,0,0,1,.769,3.688v16.279H48.95V239.483q0-4.273-2.429-6.465a8.947,8.947,0,0,0-6.238-2.2,9.425,9.425,0,0,0-4.248.837,7.046,7.046,0,0,0-2.563,2.062,8.242,8.242,0,0,0-1.27,2.385h-.146v-4.876H29.443ZM64.6,263.089a8.931,8.931,0,0,1-3.625-.655,6,6,0,0,1-2.283-1.65,3.964,3.964,0,0,1-.928-2.013h-2.71a6.371,6.371,0,0,0,1.172,3.154,7.661,7.661,0,0,0,3.1,2.511,11.972,11.972,0,0,0,5.176.983,14.135,14.135,0,0,0,4.3-.606,9.024,9.024,0,0,0,3.259-1.8,7.793,7.793,0,0,0,2.075-2.936,10.5,10.5,0,0,0,.72-4.028V231.233H72.339v4.489h-.122a7.142,7.142,0,0,0-1.355-2.135,8.307,8.307,0,0,0-2.625-1.953,8.814,8.814,0,0,0-3.955-.813,10.315,10.315,0,0,0-4.919,1.2,9.087,9.087,0,0,0-3.625,3.555,11.325,11.325,0,0,0-1.367,5.775v3.93a11.375,11.375,0,0,0,1.306,5.6,9.124,9.124,0,0,0,3.552,3.615,10.091,10.091,0,0,0,5.029,1.262,9.082,9.082,0,0,0,3.137-.5,8.318,8.318,0,0,0,2.307-1.249,7.775,7.775,0,0,0,1.538-1.577,7.313,7.313,0,0,0,.854-1.5h.146v5.192a6.725,6.725,0,0,1-1.953,5.083,7.889,7.889,0,0,1-5.687,1.877Zm.049-29.939a7.061,7.061,0,0,1,4.065,1.153,7.6,7.6,0,0,1,2.612,3.057,9.532,9.532,0,0,1,.916,4.185v3.615a9.5,9.5,0,0,1-.867,4,7.553,7.553,0,0,1-2.551,3.081,7.017,7.017,0,0,1-4.15,1.192A7.276,7.276,0,0,1,58,249.361a10.042,10.042,0,0,1-1.013-4.658v-2.717a10.418,10.418,0,0,1,1.025-4.84,7.123,7.123,0,0,1,2.771-2.981,7.605,7.605,0,0,1,3.868-1.015ZM89.063,256.9a9.265,9.265,0,0,0,3.845-.715,8.4,8.4,0,0,0,2.551-1.707,7.5,7.5,0,0,0,1.416-1.888h.146v3.876H99.56V238.678a7.905,7.905,0,0,0-1.16-4.472,6.842,6.842,0,0,0-3.162-2.56,11.9,11.9,0,0,0-4.565-.825,13.3,13.3,0,0,0-3.613.449,8.39,8.39,0,0,0-2.71,1.274,6.218,6.218,0,0,0-1.758,1.941,5.969,5.969,0,0,0-.757,2.426H84.4a4.385,4.385,0,0,1,.867-1.759,4.976,4.976,0,0,1,1.953-1.431,8.273,8.273,0,0,1,3.333-.57,7.249,7.249,0,0,1,4.614,1.383,5.186,5.186,0,0,1,1.758,4.343V242.1H89.5q-4.3,0-6.506,1.988a6.658,6.658,0,0,0-2.209,5.192,7.106,7.106,0,0,0,2.295,5.544,8.578,8.578,0,0,0,5.983,2.075Zm.513-2.353a6.773,6.773,0,0,1-4.321-1.383,5.166,5.166,0,0,1-.33-7.453q1.428-1.383,4.6-1.383h7.4v3.542a6.116,6.116,0,0,1-1,3.469,6.92,6.92,0,0,1-2.661,2.353,7.976,7.976,0,0,1-3.689.857Zm25.61,8.54a8.932,8.932,0,0,1-3.625-.655,6,6,0,0,1-2.283-1.65,3.964,3.964,0,0,1-.928-2.013h-2.71a6.372,6.372,0,0,0,1.172,3.154,7.661,7.661,0,0,0,3.1,2.511,11.972,11.972,0,0,0,5.176.983,14.132,14.132,0,0,0,4.3-.606,9.023,9.023,0,0,0,3.259-1.8,7.793,7.793,0,0,0,2.075-2.936,10.5,10.5,0,0,0,.72-4.028v-24.82h-2.515v4.489H122.8a7.142,7.142,0,0,0-1.355-2.135,8.307,8.307,0,0,0-2.625-1.953,8.814,8.814,0,0,0-3.955-.813,10.315,10.315,0,0,0-4.919,1.2,9.087,9.087,0,0,0-3.625,3.555,11.325,11.325,0,0,0-1.367,5.775v3.93a11.376,11.376,0,0,0,1.306,5.6,9.124,9.124,0,0,0,3.552,3.615,10.091,10.091,0,0,0,5.029,1.262,9.082,9.082,0,0,0,3.137-.5,8.318,8.318,0,0,0,2.307-1.249,7.776,7.776,0,0,0,1.538-1.577,7.313,7.313,0,0,0,.854-1.5h.146v5.192a6.725,6.725,0,0,1-1.953,5.083,7.889,7.889,0,0,1-5.684,1.877Zm.049-29.938A7.061,7.061,0,0,1,119.3,234.3a7.6,7.6,0,0,1,2.612,3.057,9.532,9.532,0,0,1,.916,4.185v3.615a9.5,9.5,0,0,1-.867,4,7.553,7.553,0,0,1-2.551,3.081,7.017,7.017,0,0,1-4.15,1.192,7.276,7.276,0,0,1-6.677-4.074,10.042,10.042,0,0,1-1.013-4.658v-2.717a10.418,10.418,0,0,1,1.025-4.841,7.123,7.123,0,0,1,2.771-2.981,7.605,7.605,0,0,1,3.868-1.014Zm26.831,23.75a11.455,11.455,0,0,0,4.016-.643,9.137,9.137,0,0,0,2.856-1.638,7.882,7.882,0,0,0,1.762-2.129,6.047,6.047,0,0,0,.745-2.135h-2.734a4.263,4.263,0,0,1-.964,1.941,5.986,5.986,0,0,1-2.209,1.614,8.363,8.363,0,0,1-3.467.643,7.068,7.068,0,0,1-5.688-2.378,9.584,9.584,0,0,1-2.026-6.43v-1.407h17.456v-2.062a13.785,13.785,0,0,0-1.282-6.223,9.141,9.141,0,0,0-3.54-3.893,10.847,10.847,0,0,0-10.425,0,9.141,9.141,0,0,0-3.54,3.894,13.785,13.785,0,0,0-1.282,6.223v3.373a13.579,13.579,0,0,0,1.233,6.017,8.939,8.939,0,0,0,3.54,3.882,10.76,10.76,0,0,0,5.548,1.353Zm-7.715-14.654v-.289a11.027,11.027,0,0,1,.928-4.719,7.13,7.13,0,0,1,12.988,0,11.027,11.027,0,0,1,.928,4.719v.291Zm23.413,14.219h2.612V240.283a8.267,8.267,0,0,1,.769-3.6,6.069,6.069,0,0,1,5.75-3.53,6.549,6.549,0,0,1,3.32.8,5.329,5.329,0,0,1,2.136,2.281,7.743,7.743,0,0,1,.745,3.518v16.715h2.612v-16.4a7.481,7.481,0,0,1,.793-3.433,6.419,6.419,0,0,1,2.271-2.523,6.339,6.339,0,0,1,3.528-.958,6.708,6.708,0,0,1,3.259.752,5.1,5.1,0,0,1,2.124,2.2,7.573,7.573,0,0,1,.745,3.506v16.858h2.612V238.925a7.7,7.7,0,0,0-2.295-6.053,8.641,8.641,0,0,0-5.981-2.05,8.475,8.475,0,0,0-3.918.825,7.368,7.368,0,0,0-2.515,2.013,7.952,7.952,0,0,0-1.282,2.281H174.9a6.689,6.689,0,0,0-3.723-4.415,8.494,8.494,0,0,0-3.625-.7,7.942,7.942,0,0,0-3.8.788,6.3,6.3,0,0,0-2.209,1.868,6.974,6.974,0,0,0-1.025,2h-.146v-4.245H157.76Zm49.365.436a11.456,11.456,0,0,0,4.016-.643A9.137,9.137,0,0,0,214,254.622a7.881,7.881,0,0,0,1.759-2.132,6.046,6.046,0,0,0,.745-2.135H213.77a4.262,4.262,0,0,1-.964,1.941,5.986,5.986,0,0,1-2.209,1.614,8.363,8.363,0,0,1-3.467.643,7.068,7.068,0,0,1-5.688-2.378,9.585,9.585,0,0,1-2.026-6.429v-1.407H216.87v-2.062a13.785,13.785,0,0,0-1.282-6.223,9.141,9.141,0,0,0-3.54-3.893,10.848,10.848,0,0,0-10.425,0,9.141,9.141,0,0,0-3.54,3.894,13.785,13.785,0,0,0-1.282,6.223v3.373a13.579,13.579,0,0,0,1.233,6.017,8.939,8.939,0,0,0,3.54,3.882A10.76,10.76,0,0,0,207.129,256.9Zm-7.715-14.654v-.291a11.027,11.027,0,0,1,.928-4.719,7.13,7.13,0,0,1,12.988,0,11.027,11.027,0,0,1,.928,4.719v.291Zm23.413,14.217h2.612v-14.7a10.531,10.531,0,0,1,.854-4.245,7.054,7.054,0,0,1,6.885-4.366,6.754,6.754,0,0,1,3.577.885,5.786,5.786,0,0,1,2.222,2.462,8.322,8.322,0,0,1,.769,3.688v16.279h2.588V239.483q0-4.273-2.429-6.465a8.947,8.947,0,0,0-6.238-2.2,9.424,9.424,0,0,0-4.248.837,7.046,7.046,0,0,0-2.563,2.062,8.241,8.241,0,0,0-1.27,2.385h-.146v-4.876h-2.612Zm27.71-25.232H246v2.208h4.541v16.789a10.521,10.521,0,0,0,.549,3.712,3.712,3.712,0,0,0,1.99,2.1,10.038,10.038,0,0,0,4.1.667q.586,0,1.55-.073t1.355-.121v-2.235q-.366.024-1.147.084t-1.27.061a5.509,5.509,0,0,1-3.552-.862q-.989-.862-.989-3.239V233.442h6.567v-2.208h-6.567v-6.211h-2.588Zm14.4,33.845,2.954-12.664h-3.125l-2.246,12.664Zm17.119-8.613h2.612v-15.7a8.3,8.3,0,0,1,.928-4.074,6.253,6.253,0,0,1,2.563-2.547,7.754,7.754,0,0,1,3.711-.873,12.735,12.735,0,0,1,1.343.061q.562.061.806.109v-2.451q-.293-.049-.769-.1a10.83,10.83,0,0,0-1.086-.049,8.258,8.258,0,0,0-3.882.813,6.768,6.768,0,0,0-2.369,1.956,6.609,6.609,0,0,0-1.1,2.159h-.146v-4.536h-2.612Zm24.39.436a11.456,11.456,0,0,0,4.016-.643,9.136,9.136,0,0,0,2.856-1.638,7.882,7.882,0,0,0,1.758-2.131,6.047,6.047,0,0,0,.745-2.135h-2.734a4.263,4.263,0,0,1-.964,1.941,5.986,5.986,0,0,1-2.209,1.614,8.363,8.363,0,0,1-3.467.643,7.068,7.068,0,0,1-5.688-2.378,9.585,9.585,0,0,1-2.026-6.43v-1.407h17.456v-2.062a13.785,13.785,0,0,0-1.282-6.223,9.142,9.142,0,0,0-3.54-3.893,10.848,10.848,0,0,0-10.425,0,9.141,9.141,0,0,0-3.54,3.893,13.785,13.785,0,0,0-1.282,6.223v3.373a13.579,13.579,0,0,0,1.233,6.017,8.939,8.939,0,0,0,3.54,3.882,10.76,10.76,0,0,0,5.552,1.354Zm-7.715-14.654v-.291a11.027,11.027,0,0,1,.928-4.719,7.13,7.13,0,0,1,12.988,0,11.027,11.027,0,0,1,.928,4.719v.291Zm31.982-11.428a10.041,10.041,0,0,0-4.932,1.225,9.042,9.042,0,0,0-3.54,3.555,11.417,11.417,0,0,0-1.318,5.7v5.119a11.763,11.763,0,0,0,1.233,5.531,8.9,8.9,0,0,0,3.43,3.639,9.82,9.82,0,0,0,5.054,1.286,9.563,9.563,0,0,0,3.247-.51,9.142,9.142,0,0,0,2.441-1.286,7.461,7.461,0,0,0,1.636-1.65,5.183,5.183,0,0,0,.806-1.626h.146v4.661h2.49v-34.84h-2.588V235.7h-.146a7.147,7.147,0,0,0-1.416-2.269,7.732,7.732,0,0,0-2.625-1.868,9.4,9.4,0,0,0-3.918-.738Zm.269,2.329a7.441,7.441,0,0,1,6.848,4.063,8.956,8.956,0,0,1,.989,4.233v4.561a9.828,9.828,0,0,1-.928,4.294,7.541,7.541,0,0,1-2.661,3.094,8.006,8.006,0,0,1-8.069.121,7.016,7.016,0,0,1-2.661-3,10.709,10.709,0,0,1-.964-4.755v-3.808a10.674,10.674,0,0,1,1-4.876,6.951,6.951,0,0,1,2.686-2.947,7.325,7.325,0,0,1,3.759-.983Zm36.987-1.917h-2.612V246.76a8.062,8.062,0,0,1-.928,3.776,7.543,7.543,0,0,1-2.661,2.9,8.274,8.274,0,0,1-7.544.389,5.321,5.321,0,0,1-2.3-2.186,7.206,7.206,0,0,1-.83-3.615V231.233h-2.612V248.6a8.75,8.75,0,0,0,1.147,4.731,6.942,6.942,0,0,0,3.1,2.693,10.715,10.715,0,0,0,4.419.873,9.1,9.1,0,0,0,4.028-.813,7.975,7.975,0,0,0,2.649-1.988,7.373,7.373,0,0,0,1.379-2.317h.146v4.682h2.612Zm5.811,14.679a12.894,12.894,0,0,0,1.257,5.944,8.839,8.839,0,0,0,3.54,3.748,10.711,10.711,0,0,0,5.383,1.3,11.2,11.2,0,0,0,5.322-1.1,7.8,7.8,0,0,0,3.064-2.766,7.155,7.155,0,0,0,1.111-3.312h-2.563a6.509,6.509,0,0,1-.977,2.269,5.363,5.363,0,0,1-2.148,1.808,8.44,8.44,0,0,1-3.735.7,7.2,7.2,0,0,1-5.6-2.269,9.2,9.2,0,0,1-2.063-6.418v-3.906a9.319,9.319,0,0,1,2.039-6.43,7.044,7.044,0,0,1,5.53-2.281,7.65,7.65,0,0,1,3.735.8,5.824,5.824,0,0,1,2.185,2,6.565,6.565,0,0,1,.94,2.365h2.563a7.21,7.21,0,0,0-1.147-3.53,8.311,8.311,0,0,0-3.137-2.875,11.867,11.867,0,0,0-10.449.145,8.946,8.946,0,0,0-3.564,3.712,12.37,12.37,0,0,0-1.282,5.847Zm26,10.554h2.588V231.233H399.78Zm-.879-32.825a2.106,2.106,0,0,0,.623,1.516,2.251,2.251,0,0,0,3.1,0,2.055,2.055,0,0,0,.623-1.516,2.109,2.109,0,0,0-.622-1.568,2.136,2.136,0,0,0-1.578-.618,2.082,2.082,0,0,0-1.526.619,2.114,2.114,0,0,0-.621,1.569Zm10.376,32.826h2.612v-14.7a10.531,10.531,0,0,1,.854-4.245,7.054,7.054,0,0,1,6.885-4.366,6.754,6.754,0,0,1,3.577.885,5.787,5.787,0,0,1,2.222,2.462,8.321,8.321,0,0,1,.769,3.688v16.279h2.588V239.483q0-4.273-2.429-6.465a8.947,8.947,0,0,0-6.238-2.2,9.424,9.424,0,0,0-4.248.837,7.046,7.046,0,0,0-2.563,2.062,8.241,8.241,0,0,0-1.27,2.385h-.146v-4.876h-2.612Zm35.156,6.623a8.931,8.931,0,0,1-3.625-.655,6,6,0,0,1-2.283-1.65,3.964,3.964,0,0,1-.928-2.013h-2.71a6.371,6.371,0,0,0,1.172,3.154,7.661,7.661,0,0,0,3.1,2.511,11.972,11.972,0,0,0,5.176.983,14.134,14.134,0,0,0,4.3-.606,9.024,9.024,0,0,0,3.259-1.8,7.792,7.792,0,0,0,2.075-2.936,10.5,10.5,0,0,0,.72-4.028V231.233h-2.515v4.489h-.122a7.143,7.143,0,0,0-1.355-2.135,8.307,8.307,0,0,0-2.625-1.953,8.814,8.814,0,0,0-3.955-.813,10.315,10.315,0,0,0-4.917,1.2,9.087,9.087,0,0,0-3.625,3.555,11.325,11.325,0,0,0-1.367,5.775v3.93a11.376,11.376,0,0,0,1.306,5.6,9.123,9.123,0,0,0,3.552,3.615,10.091,10.091,0,0,0,5.029,1.262,9.083,9.083,0,0,0,3.137-.5,8.316,8.316,0,0,0,2.307-1.249,7.774,7.774,0,0,0,1.538-1.577,7.312,7.312,0,0,0,.854-1.5h.146v5.192a6.725,6.725,0,0,1-1.953,5.083,7.889,7.889,0,0,1-5.69,1.88Zm.049-29.939a7.061,7.061,0,0,1,4.065,1.153,7.6,7.6,0,0,1,2.612,3.057,9.533,9.533,0,0,1,.916,4.185v3.615a9.5,9.5,0,0,1-.867,4,7.553,7.553,0,0,1-2.551,3.081,7.017,7.017,0,0,1-4.15,1.193,7.276,7.276,0,0,1-6.677-4.074,10.043,10.043,0,0,1-1.013-4.658v-2.717a10.419,10.419,0,0,1,1.025-4.841,7.123,7.123,0,0,1,2.771-2.981A7.606,7.606,0,0,1,444.482,233.15Zm27.076,23.315h2.612v-15.7a8.3,8.3,0,0,1,.928-4.074,6.254,6.254,0,0,1,2.563-2.547,7.755,7.755,0,0,1,3.711-.873,12.735,12.735,0,0,1,1.343.061q.562.061.806.109v-2.451q-.293-.049-.769-.1a10.83,10.83,0,0,0-1.086-.049,8.258,8.258,0,0,0-3.882.813,6.768,6.768,0,0,0-2.369,1.956,6.61,6.61,0,0,0-1.1,2.159h-.146v-4.536h-2.612Zm16.284,0h2.588V231.233h-2.588Zm-.879-32.825a2.106,2.106,0,0,0,.623,1.516,2.251,2.251,0,0,0,3.1,0,2.055,2.055,0,0,0,.623-1.516,2.109,2.109,0,0,0-.622-1.568,2.136,2.136,0,0,0-1.578-.618,2.082,2.082,0,0,0-1.526.619A2.114,2.114,0,0,0,486.963,223.64Zm9.326,14.265a5.47,5.47,0,0,0,1.074,3.555,7,7,0,0,0,2.979,2.062,33.531,33.531,0,0,0,4.346,1.323q1.831.389,3.43.894a6.725,6.725,0,0,1,2.588,1.431,3.375,3.375,0,0,1,.989,2.6,4.156,4.156,0,0,1-.854,2.644,5.364,5.364,0,0,1-2.38,1.674,10.011,10.011,0,0,1-3.577.582,8.824,8.824,0,0,1-3.87-.716,4.8,4.8,0,0,1-2.869-3.942h-2.563a6.07,6.07,0,0,0,1.013,3.36,7.265,7.265,0,0,0,3.064,2.547,11.906,11.906,0,0,0,5.151.983,13.181,13.181,0,0,0,4.8-.837,7.742,7.742,0,0,0,3.43-2.484,6.524,6.524,0,0,0,1.27-4.1,5.32,5.32,0,0,0-1.208-3.725,7.715,7.715,0,0,0-3.21-2.026,35.691,35.691,0,0,0-4.4-1.213q-1.416-.315-2.612-.7a10.16,10.16,0,0,1-2.087-.894,4.007,4.007,0,0,1-1.392-1.31,3.575,3.575,0,0,1-.5-1.953,3.85,3.85,0,0,1,1.782-3.445A7.728,7.728,0,0,1,505,233.053a7.591,7.591,0,0,1,3.613.74,5.009,5.009,0,0,1,1.99,1.783,4.111,4.111,0,0,1,.647,1.987h2.49a6.166,6.166,0,0,0-.928-3.2,6.9,6.9,0,0,0-2.844-2.547,10.593,10.593,0,0,0-4.9-.994,12.03,12.03,0,0,0-4.407.776,7.17,7.17,0,0,0-3.186,2.353,6.356,6.356,0,0,0-1.186,3.956Zm26.367,8.54,3.149-2.936,10.084,12.955h3.2l-11.353-14.63,10.664-10.6h-3.174l-12.451,12.223h-.122V221.626h-2.588v34.84h2.588ZM558.74,256.9a9.264,9.264,0,0,0,3.845-.716,8.4,8.4,0,0,0,2.552-1.708,7.5,7.5,0,0,0,1.416-1.888h.146v3.876h2.539V238.678a7.9,7.9,0,0,0-1.16-4.472,6.842,6.842,0,0,0-3.162-2.56,11.9,11.9,0,0,0-4.565-.825,13.294,13.294,0,0,0-3.613.449,8.39,8.39,0,0,0-2.71,1.274,6.218,6.218,0,0,0-1.758,1.941,5.967,5.967,0,0,0-.757,2.426h2.563a4.386,4.386,0,0,1,.867-1.759,4.975,4.975,0,0,1,1.953-1.431,8.272,8.272,0,0,1,3.333-.57,7.249,7.249,0,0,1,4.614,1.383,5.186,5.186,0,0,1,1.758,4.343V242.1H559.18q-4.3,0-6.506,1.988a6.658,6.658,0,0,0-2.209,5.192,7.106,7.106,0,0,0,2.3,5.544,8.578,8.578,0,0,0,5.98,2.075Zm.513-2.353a6.773,6.773,0,0,1-4.321-1.383,5.166,5.166,0,0,1-.33-7.453q1.428-1.383,4.6-1.383h7.4v3.542a6.117,6.117,0,0,1-1,3.469,6.92,6.92,0,0,1-2.661,2.353,7.976,7.976,0,0,1-3.688.856Zm16.772,1.917h2.612v-14.7a10.531,10.531,0,0,1,.854-4.245,7.054,7.054,0,0,1,6.885-4.367,6.754,6.754,0,0,1,3.577.885,5.786,5.786,0,0,1,2.222,2.462,8.322,8.322,0,0,1,.769,3.688v16.279h2.588V239.483q0-4.273-2.429-6.465a8.947,8.947,0,0,0-6.238-2.2,9.424,9.424,0,0,0-4.248.837,7.045,7.045,0,0,0-2.563,2.062,8.242,8.242,0,0,0-1.27,2.385h-.146v-4.876h-2.612Zm34.888-25.645a10.041,10.041,0,0,0-4.932,1.225,9.042,9.042,0,0,0-3.54,3.555,11.417,11.417,0,0,0-1.318,5.7v5.119a11.763,11.763,0,0,0,1.233,5.531,8.9,8.9,0,0,0,3.43,3.639,9.819,9.819,0,0,0,5.054,1.286,9.562,9.562,0,0,0,3.247-.51,9.143,9.143,0,0,0,2.441-1.286,7.461,7.461,0,0,0,1.636-1.65,5.18,5.18,0,0,0,.806-1.626h.146v4.66h2.49v-34.84h-2.588V235.7h-.146a7.147,7.147,0,0,0-1.416-2.269,7.731,7.731,0,0,0-2.625-1.868A9.4,9.4,0,0,0,610.913,230.821Zm.269,2.329a7.441,7.441,0,0,1,6.848,4.063,8.957,8.957,0,0,1,.989,4.233v4.561a9.829,9.829,0,0,1-.928,4.294,7.541,7.541,0,0,1-2.661,3.093,8.006,8.006,0,0,1-8.069.121,7.016,7.016,0,0,1-2.661-3,10.71,10.71,0,0,1-.964-4.755v-3.809a10.676,10.676,0,0,1,1-4.876,6.951,6.951,0,0,1,2.686-2.947,7.324,7.324,0,0,1,3.76-.983ZM5.151,326.028H7.739V300.8H5.151ZM4.272,293.2a2.106,2.106,0,0,0,.623,1.516,2.133,2.133,0,0,0,1.525.619A2.141,2.141,0,0,0,8,294.719a2.056,2.056,0,0,0,.623-1.516A2.109,2.109,0,0,0,8,291.634a2.136,2.136,0,0,0-1.578-.618,2.081,2.081,0,0,0-1.526.619,2.114,2.114,0,0,0-.625,1.567Zm10.376,32.825H17.26v-14.7a10.531,10.531,0,0,1,.854-4.245A7.057,7.057,0,0,1,25,302.712a6.755,6.755,0,0,1,3.577.885A5.786,5.786,0,0,1,30.8,306.06a8.322,8.322,0,0,1,.769,3.688v16.279h2.588V309.045q0-4.273-2.429-6.465a8.947,8.947,0,0,0-6.238-2.2,9.425,9.425,0,0,0-4.248.837,7.045,7.045,0,0,0-2.563,2.062,8.241,8.241,0,0,0-1.27,2.385h-.146v-4.876H14.648Zm25.146-10.554a12.9,12.9,0,0,0,1.257,5.944,8.839,8.839,0,0,0,3.54,3.748,10.711,10.711,0,0,0,5.383,1.3,11.2,11.2,0,0,0,5.322-1.1,7.8,7.8,0,0,0,3.064-2.766,7.155,7.155,0,0,0,1.111-3.312H56.909a6.509,6.509,0,0,1-.977,2.269,5.363,5.363,0,0,1-2.148,1.808,8.44,8.44,0,0,1-3.735.7,7.2,7.2,0,0,1-5.6-2.269,9.2,9.2,0,0,1-2.063-6.418v-3.906a9.319,9.319,0,0,1,2.039-6.43,7.044,7.044,0,0,1,5.53-2.281,7.649,7.649,0,0,1,3.735.8,5.824,5.824,0,0,1,2.185,2,6.565,6.565,0,0,1,.94,2.365h2.563a7.21,7.21,0,0,0-1.147-3.53,8.311,8.311,0,0,0-3.137-2.875,10.57,10.57,0,0,0-5.164-1.14,10.586,10.586,0,0,0-5.286,1.286,8.946,8.946,0,0,0-3.564,3.712,12.371,12.371,0,0,0-1.282,5.847ZM65.43,326.028h2.612v-15.7a8.3,8.3,0,0,1,.928-4.074,6.254,6.254,0,0,1,2.563-2.547,7.755,7.755,0,0,1,3.711-.873,12.748,12.748,0,0,1,1.343.061q.562.061.806.109v-2.451q-.293-.049-.769-.1a10.815,10.815,0,0,0-1.086-.049,8.259,8.259,0,0,0-3.882.813,6.769,6.769,0,0,0-2.369,1.956,6.608,6.608,0,0,0-1.1,2.159h-.146v-4.536H65.43Zm24.39.436a11.455,11.455,0,0,0,4.016-.643,9.137,9.137,0,0,0,2.856-1.638,7.882,7.882,0,0,0,1.758-2.131,6.048,6.048,0,0,0,.745-2.135H96.46a4.262,4.262,0,0,1-.96,1.936,5.986,5.986,0,0,1-2.209,1.614,8.364,8.364,0,0,1-3.467.643,7.068,7.068,0,0,1-5.688-2.378,9.584,9.584,0,0,1-2.026-6.43V313.9H99.561v-2.062a13.785,13.785,0,0,0-1.282-6.223,9.14,9.14,0,0,0-3.54-3.894,10.848,10.848,0,0,0-10.425,0,9.14,9.14,0,0,0-3.54,3.893,13.785,13.785,0,0,0-1.282,6.223v3.373a13.579,13.579,0,0,0,1.233,6.017,8.939,8.939,0,0,0,3.54,3.882,10.76,10.76,0,0,0,5.554,1.358ZM82.1,311.81v-.291a11.027,11.027,0,0,1,.928-4.719,7.13,7.13,0,0,1,12.988,0,11.027,11.027,0,0,1,.928,4.719v.291Zm30.176,14.654a9.265,9.265,0,0,0,3.845-.715,8.4,8.4,0,0,0,2.556-1.708,7.5,7.5,0,0,0,1.416-1.888h.146v3.876h2.539V308.24a7.906,7.906,0,0,0-1.16-4.472,6.842,6.842,0,0,0-3.162-2.56,11.9,11.9,0,0,0-4.565-.825,13.3,13.3,0,0,0-3.613.449,8.39,8.39,0,0,0-2.71,1.274,6.218,6.218,0,0,0-1.758,1.941,5.969,5.969,0,0,0-.757,2.426h2.563a4.385,4.385,0,0,1,.867-1.759,4.976,4.976,0,0,1,1.953-1.431,8.272,8.272,0,0,1,3.333-.57,7.249,7.249,0,0,1,4.614,1.383,5.186,5.186,0,0,1,1.758,4.343v3.227H112.72q-4.3,0-6.506,1.987A6.658,6.658,0,0,0,104,318.846a7.106,7.106,0,0,0,2.295,5.544,8.578,8.578,0,0,0,5.985,2.074Zm.513-2.353a6.774,6.774,0,0,1-4.321-1.383,5.166,5.166,0,0,1-.33-7.453q1.428-1.383,4.6-1.383h7.4v3.542a6.116,6.116,0,0,1-1,3.469,6.92,6.92,0,0,1-2.661,2.353,7.976,7.976,0,0,1-3.684.856Zm15.723-16.643a5.471,5.471,0,0,0,1.074,3.555,7,7,0,0,0,2.979,2.062,33.521,33.521,0,0,0,4.346,1.323q1.831.389,3.43.894a6.724,6.724,0,0,1,2.588,1.431,3.375,3.375,0,0,1,.989,2.6,4.156,4.156,0,0,1-.854,2.644,5.364,5.364,0,0,1-2.38,1.674,10.012,10.012,0,0,1-3.577.582,8.826,8.826,0,0,1-3.87-.715,4.8,4.8,0,0,1-2.869-3.942H127.8a6.07,6.07,0,0,0,1.013,3.36,7.265,7.265,0,0,0,3.064,2.547,11.906,11.906,0,0,0,5.151.983,13.183,13.183,0,0,0,4.8-.837,7.741,7.741,0,0,0,3.43-2.484,6.524,6.524,0,0,0,1.27-4.1,5.32,5.32,0,0,0-1.208-3.724,7.715,7.715,0,0,0-3.21-2.026,35.7,35.7,0,0,0-4.4-1.213q-1.416-.315-2.612-.7a10.162,10.162,0,0,1-2.087-.894,4.008,4.008,0,0,1-1.392-1.31,3.576,3.576,0,0,1-.5-1.953,3.85,3.85,0,0,1,1.782-3.445,7.727,7.727,0,0,1,4.321-1.165,7.591,7.591,0,0,1,3.613.74,5.009,5.009,0,0,1,1.99,1.783,4.112,4.112,0,0,1,.647,1.987h2.49a6.165,6.165,0,0,0-.928-3.2,6.9,6.9,0,0,0-2.844-2.538,10.593,10.593,0,0,0-4.9-.994,12.029,12.029,0,0,0-4.407.776,7.169,7.169,0,0,0-3.186,2.353,6.356,6.356,0,0,0-1.191,3.949Zm24.271,18.56h2.588V300.8h-2.588ZM151.9,293.2a2.106,2.106,0,0,0,.623,1.516,2.251,2.251,0,0,0,3.1,0,2.055,2.055,0,0,0,.623-1.516,2.109,2.109,0,0,0-.622-1.568,2.136,2.136,0,0,0-1.578-.618,2.082,2.082,0,0,0-1.526.619,2.114,2.114,0,0,0-.624,1.568Zm10.376,32.825h2.612v-14.7a10.531,10.531,0,0,1,.854-4.245,7.054,7.054,0,0,1,6.885-4.366,6.754,6.754,0,0,1,3.577.885,5.786,5.786,0,0,1,2.222,2.462,8.322,8.322,0,0,1,.769,3.688v16.279h2.588V309.045q0-4.273-2.429-6.465a8.947,8.947,0,0,0-6.238-2.2,9.425,9.425,0,0,0-4.248.837,7.045,7.045,0,0,0-2.563,2.062,8.242,8.242,0,0,0-1.27,2.385h-.146v-4.876H162.28Zm35.156,6.623a8.932,8.932,0,0,1-3.625-.655,6,6,0,0,1-2.283-1.65,3.964,3.964,0,0,1-.928-2.013h-2.71a6.371,6.371,0,0,0,1.172,3.154,7.661,7.661,0,0,0,3.1,2.511,11.971,11.971,0,0,0,5.176.983,14.133,14.133,0,0,0,4.3-.606,9.023,9.023,0,0,0,3.259-1.8,7.794,7.794,0,0,0,2.075-2.936,10.5,10.5,0,0,0,.72-4.028V300.8h-2.515v4.489h-.122a7.142,7.142,0,0,0-1.355-2.135,8.306,8.306,0,0,0-2.625-1.953,8.815,8.815,0,0,0-3.955-.813,10.315,10.315,0,0,0-4.92,1.2,9.087,9.087,0,0,0-3.625,3.555,11.325,11.325,0,0,0-1.367,5.775v3.93a11.376,11.376,0,0,0,1.306,5.6,9.124,9.124,0,0,0,3.552,3.615,10.092,10.092,0,0,0,5.029,1.262,9.083,9.083,0,0,0,3.137-.5,8.317,8.317,0,0,0,2.307-1.249A7.775,7.775,0,0,0,204.077,322a7.309,7.309,0,0,0,.854-1.5h.146v5.192a6.725,6.725,0,0,1-1.953,5.083,7.889,7.889,0,0,1-5.687,1.88Zm.049-29.939a7.062,7.062,0,0,1,4.065,1.153,7.6,7.6,0,0,1,2.612,3.057,9.532,9.532,0,0,1,.916,4.185v3.615a9.5,9.5,0,0,1-.867,4,7.552,7.552,0,0,1-2.551,3.081A7.017,7.017,0,0,1,197.51,323a7.276,7.276,0,0,1-6.677-4.074,10.043,10.043,0,0,1-1.013-4.658v-2.717a10.419,10.419,0,0,1,1.025-4.841,7.121,7.121,0,0,1,2.771-2.981A7.606,7.606,0,0,1,197.485,302.712Zm36.035,23.75a11.456,11.456,0,0,0,4.016-.643,9.138,9.138,0,0,0,2.856-1.638,7.882,7.882,0,0,0,1.759-2.13,6.046,6.046,0,0,0,.745-2.135h-2.734a4.263,4.263,0,0,1-.964,1.941,5.986,5.986,0,0,1-2.209,1.614,8.363,8.363,0,0,1-3.467.643,7.068,7.068,0,0,1-5.688-2.378,9.585,9.585,0,0,1-2.026-6.43V313.9h17.456v-2.062a13.784,13.784,0,0,0-1.282-6.223,9.14,9.14,0,0,0-3.54-3.894,10.848,10.848,0,0,0-10.425,0,9.14,9.14,0,0,0-3.54,3.893,13.784,13.784,0,0,0-1.282,6.223v3.373a13.579,13.579,0,0,0,1.233,6.017,8.939,8.939,0,0,0,3.54,3.882,10.76,10.76,0,0,0,5.553,1.354Zm-7.715-14.654v-.29a11.027,11.027,0,0,1,.928-4.719,7.13,7.13,0,0,1,12.988,0,11.027,11.027,0,0,1,.928,4.719v.291Zm23.414,14.219h2.612v-14.7a10.531,10.531,0,0,1,.854-4.245,7.054,7.054,0,0,1,6.885-4.366,6.754,6.754,0,0,1,3.577.885,5.787,5.787,0,0,1,2.222,2.462,8.322,8.322,0,0,1,.769,3.688v16.279h2.588V309.045q0-4.273-2.429-6.465a8.947,8.947,0,0,0-6.238-2.2,9.425,9.425,0,0,0-4.248.837,7.045,7.045,0,0,0-2.563,2.062,8.241,8.241,0,0,0-1.27,2.385h-.146v-4.876H249.22Zm27.71-25.232h-4.541V303h4.541v16.789a10.52,10.52,0,0,0,.549,3.712,3.712,3.712,0,0,0,1.99,2.1,10.038,10.038,0,0,0,4.1.667q.586,0,1.55-.073t1.355-.121v-2.235q-.366.024-1.147.084t-1.27.061a5.509,5.509,0,0,1-3.552-.862q-.989-.862-.989-3.239V303h6.567V300.8h-6.567v-6.211h-2.588Zm22.485,25.668a11.455,11.455,0,0,0,4.016-.643,9.136,9.136,0,0,0,2.856-1.638,7.881,7.881,0,0,0,1.758-2.131,6.048,6.048,0,0,0,.745-2.135h-2.734a4.263,4.263,0,0,1-.964,1.941,5.986,5.986,0,0,1-2.209,1.614,8.363,8.363,0,0,1-3.467.643,7.068,7.068,0,0,1-5.688-2.378,9.584,9.584,0,0,1-2.026-6.43V313.9h17.456v-2.062a13.785,13.785,0,0,0-1.282-6.223,9.141,9.141,0,0,0-3.54-3.894,10.847,10.847,0,0,0-10.425,0,9.141,9.141,0,0,0-3.54,3.894,13.785,13.785,0,0,0-1.282,6.223v3.373a13.579,13.579,0,0,0,1.233,6.017,8.938,8.938,0,0,0,3.54,3.882A10.76,10.76,0,0,0,299.414,326.464ZM291.7,311.81v-.291a11.027,11.027,0,0,1,.928-4.719,7.13,7.13,0,0,1,12.988,0,11.027,11.027,0,0,1,.928,4.719v.291Zm23.632,14.217h2.612v-15.7a8.3,8.3,0,0,1,.928-4.074,6.254,6.254,0,0,1,2.563-2.547,7.755,7.755,0,0,1,3.711-.873,12.747,12.747,0,0,1,1.343.061q.562.061.806.109v-2.451q-.293-.049-.769-.1a10.816,10.816,0,0,0-1.086-.049,8.259,8.259,0,0,0-3.882.813,6.768,6.768,0,0,0-2.369,1.956,6.61,6.61,0,0,0-1.1,2.159h-.146v-4.536h-2.612Zm26.611.436a10.059,10.059,0,0,0,4.98-1.237,8.887,8.887,0,0,0,3.516-3.615,12.04,12.04,0,0,0,1.294-5.822v-4.8a12.176,12.176,0,0,0-1.221-5.629,8.89,8.89,0,0,0-3.406-3.677,10.625,10.625,0,0,0-8.264-.813,8.362,8.362,0,0,0-2.393,1.262,7.811,7.811,0,0,0-1.624,1.662,7.022,7.022,0,0,0-.891,1.638h-.146v-4.634H331.3v33.432h2.588V321.564h.146a7.807,7.807,0,0,0,4.053,4.149A9.058,9.058,0,0,0,341.943,326.464Zm-.269-2.353a7.636,7.636,0,0,1-4.077-1.079,7.387,7.387,0,0,1-2.734-2.972,9.121,9.121,0,0,1-.977-4.245v-4.585a9.916,9.916,0,0,1,.916-4.306,7.183,7.183,0,0,1,6.824-4.21,7.335,7.335,0,0,1,3.906,1.032,6.942,6.942,0,0,1,2.637,3.021,11.176,11.176,0,0,1,.952,4.852v3.567a11.05,11.05,0,0,1-.989,4.962,6.942,6.942,0,0,1-2.673,2.972,7.3,7.3,0,0,1-3.784.992Zm16.285,1.917h2.612v-15.7a8.3,8.3,0,0,1,.928-4.074,6.253,6.253,0,0,1,2.563-2.547,7.755,7.755,0,0,1,3.711-.873,12.748,12.748,0,0,1,1.343.061q.562.061.806.109v-2.451q-.293-.049-.769-.1a10.816,10.816,0,0,0-1.086-.049,8.259,8.259,0,0,0-3.882.813,6.768,6.768,0,0,0-2.369,1.956,6.61,6.61,0,0,0-1.1,2.159h-.146v-4.536h-2.612Zm16.284,0h2.588V300.8h-2.588Zm-.879-32.825a2.106,2.106,0,0,0,.623,1.516,2.251,2.251,0,0,0,3.1,0,2.055,2.055,0,0,0,.623-1.516,2.109,2.109,0,0,0-.622-1.568,2.136,2.136,0,0,0-1.578-.618,2.082,2.082,0,0,0-1.526.619,2.113,2.113,0,0,0-.62,1.568Zm9.326,14.265a5.471,5.471,0,0,0,1.074,3.555,7,7,0,0,0,2.979,2.062,33.522,33.522,0,0,0,4.346,1.323q1.831.389,3.43.894a6.724,6.724,0,0,1,2.588,1.431,3.375,3.375,0,0,1,.989,2.6,4.156,4.156,0,0,1-.854,2.644,5.365,5.365,0,0,1-2.38,1.674,10.013,10.013,0,0,1-3.577.582,8.825,8.825,0,0,1-3.87-.715,4.8,4.8,0,0,1-2.869-3.942h-2.563A6.071,6.071,0,0,0,383,322.935a7.265,7.265,0,0,0,3.064,2.546,11.906,11.906,0,0,0,5.151.983,13.182,13.182,0,0,0,4.8-.837,7.74,7.74,0,0,0,3.43-2.484,6.523,6.523,0,0,0,1.27-4.1,5.32,5.32,0,0,0-1.208-3.724,7.715,7.715,0,0,0-3.21-2.026,35.7,35.7,0,0,0-4.395-1.213q-1.416-.315-2.612-.7a10.161,10.161,0,0,1-2.087-.894,4.008,4.008,0,0,1-1.392-1.31,3.576,3.576,0,0,1-.5-1.953,3.85,3.85,0,0,1,1.782-3.445,7.728,7.728,0,0,1,4.321-1.165,7.591,7.591,0,0,1,3.613.74,5.008,5.008,0,0,1,1.99,1.783,4.111,4.111,0,0,1,.647,1.987h2.49a6.166,6.166,0,0,0-.928-3.2,6.9,6.9,0,0,0-2.844-2.547,10.592,10.592,0,0,0-4.9-.994,12.031,12.031,0,0,0-4.407.776,7.17,7.17,0,0,0-3.186,2.353A6.356,6.356,0,0,0,382.69,307.467Zm32.739,19a11.454,11.454,0,0,0,4.016-.643,9.137,9.137,0,0,0,2.856-1.638,7.883,7.883,0,0,0,1.759-2.131,6.048,6.048,0,0,0,.745-2.135H422.07a4.263,4.263,0,0,1-.964,1.941,5.986,5.986,0,0,1-2.209,1.614,8.363,8.363,0,0,1-3.467.643,7.068,7.068,0,0,1-5.688-2.378,9.585,9.585,0,0,1-2.026-6.43V313.9h17.456v-2.062a13.785,13.785,0,0,0-1.282-6.223,9.141,9.141,0,0,0-3.54-3.893,10.847,10.847,0,0,0-10.425,0,9.141,9.141,0,0,0-3.54,3.893,13.785,13.785,0,0,0-1.282,6.223v3.373a13.579,13.579,0,0,0,1.233,6.017,8.938,8.938,0,0,0,3.54,3.882,10.76,10.76,0,0,0,5.554,1.353Zm-7.715-14.654v-.291a11.027,11.027,0,0,1,.928-4.719,7.13,7.13,0,0,1,12.988,0,11.028,11.028,0,0,1,.928,4.719v.291Zm38.722,14.217h2.637l9.375-25.232h-2.783l-7.837,22.272h-.146L440.065,300.8h-2.881Zm22.144.436a9.265,9.265,0,0,0,3.845-.715,8.4,8.4,0,0,0,2.551-1.708,7.507,7.507,0,0,0,1.416-1.888h.146v3.876h2.539V308.24a7.905,7.905,0,0,0-1.16-4.472,6.842,6.842,0,0,0-3.162-2.56,11.9,11.9,0,0,0-4.565-.825,13.3,13.3,0,0,0-3.613.449,8.39,8.39,0,0,0-2.71,1.274,6.218,6.218,0,0,0-1.758,1.941,5.969,5.969,0,0,0-.757,2.426h2.563a4.386,4.386,0,0,1,.867-1.759,4.976,4.976,0,0,1,1.953-1.431,8.272,8.272,0,0,1,3.333-.57,7.249,7.249,0,0,1,4.614,1.383,5.186,5.186,0,0,1,1.758,4.343v3.227h-7.422q-4.3,0-6.506,1.987a6.658,6.658,0,0,0-2.209,5.192,7.106,7.106,0,0,0,2.295,5.544,8.578,8.578,0,0,0,5.981,2.075Zm.513-2.353a6.774,6.774,0,0,1-4.321-1.383,5.166,5.166,0,0,1-.33-7.453q1.428-1.383,4.6-1.383h7.4v3.542a6.116,6.116,0,0,1-1,3.469,6.92,6.92,0,0,1-2.661,2.353,7.976,7.976,0,0,1-3.689.856Zm17.089,1.917h2.612v-34.84h-2.612ZM515.357,300.8h-2.612v15.527a8.062,8.062,0,0,1-.928,3.776,7.542,7.542,0,0,1-2.661,2.9,8.275,8.275,0,0,1-7.544.389,5.321,5.321,0,0,1-2.3-2.186,7.205,7.205,0,0,1-.83-3.615V300.8h-2.612v17.371a8.75,8.75,0,0,0,1.147,4.731,6.942,6.942,0,0,0,3.1,2.693,10.714,10.714,0,0,0,4.419.873,9.1,9.1,0,0,0,4.028-.813,7.974,7.974,0,0,0,2.649-1.987,7.373,7.373,0,0,0,1.379-2.317h.146v4.682h2.612Zm16.162,25.668a11.454,11.454,0,0,0,4.016-.643,9.139,9.139,0,0,0,2.856-1.638,7.881,7.881,0,0,0,1.758-2.131,6.047,6.047,0,0,0,.745-2.135H538.16a4.263,4.263,0,0,1-.964,1.941,5.986,5.986,0,0,1-2.209,1.614,8.363,8.363,0,0,1-3.467.643,7.068,7.068,0,0,1-5.688-2.378,9.584,9.584,0,0,1-2.026-6.43V313.9H541.26v-2.062a13.784,13.784,0,0,0-1.282-6.223,9.141,9.141,0,0,0-3.54-3.894,10.848,10.848,0,0,0-10.425,0,9.141,9.141,0,0,0-3.54,3.893,13.784,13.784,0,0,0-1.282,6.223v3.373a13.58,13.58,0,0,0,1.233,6.017,8.939,8.939,0,0,0,3.54,3.882,10.76,10.76,0,0,0,5.555,1.354ZM523.8,311.81v-.291a11.027,11.027,0,0,1,.928-4.719,7.13,7.13,0,0,1,12.988,0,11.027,11.027,0,0,1,.928,4.719v.291Zm22.778,12.154a2.377,2.377,0,0,0,.708,1.735,2.344,2.344,0,0,0,1.733.715,2.455,2.455,0,0,0,1.782-.715,2.335,2.335,0,0,0,.732-1.735,2.364,2.364,0,0,0-.732-1.759,2.455,2.455,0,0,0-1.782-.716,2.344,2.344,0,0,0-1.733.716,2.4,2.4,0,0,0-.7,1.76Z" transform="translate(80 62.526)" fill="#747070"/></g></g></svg>