<svg id="Layer_1" data-name="Layer 1" xmlns="http://www.w3.org/2000/svg" xmlns:xlink="http://www.w3.org/1999/xlink" viewBox="0 0 334.46 356.73"><defs><style>.cls-1{fill:none;}.cls-2{clip-path:url(#clip-path);}.cls-3{fill:#8abe00;}.cls-4{fill:#ccd9e0;}.cls-5{fill:#71af49;}.cls-6{fill:#01708c;}.cls-7{fill:#97afc9;}.cls-8{fill:#fff;}.cls-9{fill:#63a544;}.cls-10{fill:#6fb14d;}.cls-11{fill:#99c941;}.cls-12{fill:#809fbc;}.cls-13{fill:#7fb75c;}.cls-14{fill:#89c100;}.cls-15{fill:#01758e;}.cls-16{fill:#81bc00;}.cls-17{fill:#29799e;}.cls-18{fill:#a7d04c;}.cls-19{fill:#a7d149;}</style><clipPath id="clip-path" transform="translate(-162.3 -71.58)"><circle class="cls-1" cx="326.48" cy="243.32" r="179.18"/></clipPath></defs><g class="cls-2"><rect class="cls-3" x="133.58" y="183.28" width="1.19" height="172.17"/><path class="cls-4" d="M341.82,427.54h-1.19V400.05a16.55,16.55,0,0,1,8.77-14.63L398,359.5l.56,1.05L350,386.47a15.36,15.36,0,0,0-8.14,13.58Z" transform="translate(-162.3 -71.58)"/><path class="cls-4" d="M340.63,401.2c-.45-11.47,1.65-16.58,1.74-16.79s3.45-6.54,20-16.49c16-9.58,11.52-21.68,11.32-22.19l1.11-.43c.05.13,5,13.53-11.82,23.65-16.2,9.72-19.53,15.9-19.56,16s-2.07,5.08-1.63,16.24Z" transform="translate(-162.3 -71.58)"/><path class="cls-5" d="M352,428.31h-2.39c0-.83,0-82.91-.51-90.71-.57-8.8,12.72-12.46,13.29-12.61l.61,2.31c-.12,0-12,3.29-11.52,10.15C352,345.32,352,424.92,352,428.31Z" transform="translate(-162.3 -71.58)"/><path class="cls-6" d="M333.85,428.31h-2.39V321.41a13.09,13.09,0,0,1,8.18-12.16l19.8-8.05.9,2.21-19.8,8.06a10.69,10.69,0,0,0-6.69,9.94Z" transform="translate(-162.3 -71.58)"/><rect class="cls-6" x="148.74" y="245.64" width="2.39" height="110.32"/><path class="cls-3" d="M304.61,425.75h-1.19V378.57c0-.19,1.42-10.25-7.26-15.47l-23.48-15.17.65-1,23.46,15.15c9.36,5.63,7.83,16.47,7.81,16.58Z" transform="translate(-162.3 -71.58)"/><path class="cls-3" d="M322,350.42c0-.08-1.66-8-13.06-14.36a151.65,151.65,0,0,1-19.52-12.78h0s-10.28-5.68-9.56-16c.69-9.86,0-13.54,0-13.57l0-45h1.2v44.83c.1.54.69,4.36,0,13.83s8.93,14.92,9,15A153.19,153.19,0,0,0,309.55,335c11.93,6.64,13.59,14.83,13.65,15.18Z" transform="translate(-162.3 -71.58)"/><path class="cls-3" d="M280.11,296.11c0-.22-.24-5.3-8.41-8.6-9.21-3.73-14-6.62-14.82-12.11-.76-5.27-1-10.23-1-10.28l1.19-.06s.27,4.95,1,10.17c.71,4.91,5.3,7.62,14.08,11.17,9,3.62,9.16,9.44,9.16,9.68l-1.19,0h.6Z" transform="translate(-162.3 -71.58)"/><rect class="cls-4" x="212.06" y="174.63" width="1.19" height="24.89"/><path class="cls-4" d="M465.05,324.34l-.15-1.19C477.38,321.6,479,305.79,479,305.63V261.57h1.19v44.12C480.15,305.91,478.48,322.67,465.05,324.34Z" transform="translate(-162.3 -71.58)"/><rect class="cls-5" x="269" y="145.14" width="2.39" height="43.73"/><rect class="cls-4" x="211.06" y="70.17" width="1.19" height="38.55"/><rect class="cls-3" x="61.46" y="85.39" width="1.19" height="131.19"/><path class="cls-3" d="M265.37,214.92c-8.58-.4-10.46-13.2-10.54-13.75l-.39-54.89h1.2l.38,54.81s1.81,12.28,9.41,12.64Z" transform="translate(-162.3 -71.58)"/><path class="cls-3" d="M324.69,378.57h-4.78c0-8.73,10.47-14.06,10.91-14.28l42.9-23,2.26,4.21-43,23C330.66,369.71,324.69,373.78,324.69,378.57Z" transform="translate(-162.3 -71.58)"/><path class="cls-3" d="M324.63,401.42l-4.75-.49c.49-4.76-5-9.42-7.2-10.81l-45.56-32.4,2.76-3.89,45.43,32.3C316.22,386.72,325.5,393,324.63,401.42Z" transform="translate(-162.3 -71.58)"/><rect class="cls-3" x="157.62" y="198.94" width="4.77" height="156.51"/><circle class="cls-7" cx="213.31" cy="52.21" r="21"/><path class="cls-8" d="M366.17,118.05a2.84,2.84,0,0,1,.45-1,2.12,2.12,0,0,1,1.72-.88h14.52a2.2,2.2,0,0,1,2.18,2.18c0,.56,0,1.12,0,1.68a.27.27,0,0,1-.14.28l-6.53,4.86-1.39,1a2.18,2.18,0,0,1-2.76,0l-7.91-5.88-.14-.09Zm9.44-.45h-7.13a.75.75,0,0,0-.84.85c0,.27,0,.55,0,.83a.27.27,0,0,0,.13.24L375.1,125a.74.74,0,0,0,1,0l7.35-5.47a.3.3,0,0,0,.1-.21c0-.28,0-.57,0-.85a.76.76,0,0,0-.85-.84Z" transform="translate(-162.3 -71.58)"/><path class="cls-8" d="M366.17,122c.36.26.71.54,1.09.77a.77.77,0,0,1,.39.78c0,1.86,0,3.71,0,5.57a.75.75,0,0,0,.84.84h14.25a.75.75,0,0,0,.84-.84c0-2,0-3.91,0-5.86a.34.34,0,0,1,.16-.31l1.3-1a.89.89,0,0,1,0,.15v7.09a2.2,2.2,0,0,1-2.19,2.2H368.36a2.2,2.2,0,0,1-2.15-1.79s0-.08,0-.12Z" transform="translate(-162.3 -71.58)"/><circle class="cls-9" cx="270.65" cy="102.92" r="44.4"/><path class="cls-8" d="M396.25,184.3a4.56,4.56,0,0,0,2.59.78c1.69,0,2.71-.9,2.71-2.19s-.6-1.88-2.35-2.44c-2.1-.67-2.94-1.52-2.94-2.89,0-1.53,1.32-2.68,3.25-2.68a4.42,4.42,0,0,1,2.32.53l-.29.63a3.9,3.9,0,0,0-2.07-.54c-1.87,0-2.46,1.13-2.46,2,0,1.11.66,1.75,2.36,2.29,1.9.62,2.93,1.37,2.93,3.06,0,1.44-1.06,2.9-3.55,2.9a5.3,5.3,0,0,1-2.8-.77Z" transform="translate(-162.3 -71.58)"/><path class="cls-8" d="M409.85,180.33H405.2v4.56h5.18v.64h-5.94V175.07h5.68v.63H405.2v4h4.65Z" transform="translate(-162.3 -71.58)"/><path class="cls-8" d="M412.37,175.21a14.6,14.6,0,0,1,2.54-.24,4.13,4.13,0,0,1,3.06.93,2.57,2.57,0,0,1,.74,1.84,2.78,2.78,0,0,1-2.15,2.71v0a2.78,2.78,0,0,1,1.66,2.13,13.63,13.63,0,0,0,.85,2.92h-.81a14.12,14.12,0,0,1-.69-2.52c-.35-1.5-1-2.2-2.46-2.28h-2v4.8h-.76Zm.76,4.9h2c1.73,0,2.81-.9,2.81-2.25,0-1.68-1.38-2.27-3.05-2.27a8,8,0,0,0-1.77.17Z" transform="translate(-162.3 -71.58)"/><path class="cls-8" d="M423.83,185.53,420,175.07h.81l2.07,5.75c.57,1.62,1,2.84,1.35,3.93h0c.35-1.1.88-2.39,1.5-3.91l2.33-5.77h.82l-4.34,10.46Z" transform="translate(-162.3 -71.58)"/><path class="cls-8" d="M430.72,175.07v10.46H430V175.07Z" transform="translate(-162.3 -71.58)"/><path class="cls-8" d="M441.47,185.11a8,8,0,0,1-3.27.6c-2.83,0-5.53-1.72-5.53-5.37,0-2.73,2-5.46,5.95-5.46a6.43,6.43,0,0,1,2.82.53l-.25.63a5.94,5.94,0,0,0-2.53-.52c-3.39,0-5.2,2.06-5.2,4.88,0,2.58,1.73,4.66,5,4.66a6.43,6.43,0,0,0,2.76-.56Z" transform="translate(-162.3 -71.58)"/><path class="cls-8" d="M448.79,180.33h-4.65v4.56h5.18v.64h-5.94V175.07h5.68v.63h-4.92v4h4.65Z" transform="translate(-162.3 -71.58)"/><path class="cls-8" d="M451,184.3a4.56,4.56,0,0,0,2.59.78c1.69,0,2.72-.9,2.72-2.19s-.61-1.88-2.36-2.44c-2.1-.67-2.93-1.52-2.93-2.89,0-1.53,1.31-2.68,3.24-2.68a4.49,4.49,0,0,1,2.33.53l-.3.63a3.86,3.86,0,0,0-2.06-.54c-1.88,0-2.47,1.13-2.47,2,0,1.11.67,1.75,2.36,2.29,1.91.62,2.93,1.37,2.93,3.06,0,1.44-1.05,2.9-3.55,2.9a5.26,5.26,0,0,1-2.79-.77Z" transform="translate(-162.3 -71.58)"/><path class="cls-8" d="M469.82,185.53c-.39-.36-.73-.73-1.26-1.2a4.87,4.87,0,0,1-3.48,1.38,3,3,0,0,1-3.12-2.93,3.45,3.45,0,0,1,2.24-3.09v-.05a3.75,3.75,0,0,1-1-2.25,2.45,2.45,0,0,1,2.53-2.51,2,2,0,0,1,2.14,2.1c0,1.13-.68,2-2.66,2.87v0c1.31,1.46,2.63,2.83,3.31,3.53a7.09,7.09,0,0,0,1.19-3.37h.72a7.33,7.33,0,0,1-1.48,3.77c.69.67,1.25,1.21,1.8,1.71Zm-1.7-1.63c-.43-.42-2-2-3.56-3.76a2.92,2.92,0,0,0-1.85,2.53,2.43,2.43,0,0,0,2.56,2.44A4,4,0,0,0,468.12,183.9ZM464,177.32a3.43,3.43,0,0,0,.92,2.11c1.36-.66,2.32-1.28,2.32-2.38a1.49,1.49,0,0,0-1.53-1.58A1.71,1.71,0,0,0,464,177.32Z" transform="translate(-162.3 -71.58)"/><path class="cls-8" d="M402.42,189a24,24,0,0,1,3.14-.23,6.44,6.44,0,0,1,4.88,1.68,4.78,4.78,0,0,1,1.26,3.41,5.59,5.59,0,0,1-1.44,3.82,6.93,6.93,0,0,1-5.12,1.74c-.95,0-1.82,0-2.72-.1Zm.76,9.69a15.06,15.06,0,0,0,2.08.09c4,0,5.66-2.19,5.66-4.9,0-2.56-1.61-4.47-5.43-4.47a11.78,11.78,0,0,0-2.31.2Z" transform="translate(-162.3 -71.58)"/><path class="cls-8" d="M419.07,194.1h-4.66v4.56h5.19v.63h-6V188.83h5.68v.64h-4.92v4h4.66Z" transform="translate(-162.3 -71.58)"/><path class="cls-8" d="M421.22,198.07a4.7,4.7,0,0,0,2.6.77c1.69,0,2.71-.9,2.71-2.18s-.6-1.88-2.36-2.44c-2.09-.67-2.93-1.52-2.93-2.89,0-1.53,1.32-2.68,3.24-2.68a4.46,4.46,0,0,1,2.33.53l-.29.63a3.9,3.9,0,0,0-2.07-.54c-1.88,0-2.46,1.13-2.46,2,0,1.11.66,1.75,2.35,2.29,1.91.62,2.94,1.37,2.94,3.06,0,1.44-1.06,2.9-3.56,2.9a5.2,5.2,0,0,1-2.79-.78Z" transform="translate(-162.3 -71.58)"/><path class="cls-8" d="M429.42,188.83h.76v5.36h.06c.31-.4.65-.75.94-1.06l4.18-4.3h1l-4.41,4.46,4.88,6h-1l-4.45-5.52L430.18,195v4.31h-.76Z" transform="translate(-162.3 -71.58)"/><path class="cls-8" d="M440.63,189.47h-3.89v-.64h8.55v.64h-3.9v9.82h-.76Z" transform="translate(-162.3 -71.58)"/><path class="cls-8" d="M455.75,193.93a5.22,5.22,0,0,1-5.31,5.55,5.09,5.09,0,0,1-5.2-5.28,5.27,5.27,0,0,1,5.31-5.55A5.06,5.06,0,0,1,455.75,193.93Zm-9.72.24a4.46,4.46,0,0,0,4.44,4.69c2.76,0,4.48-2.09,4.48-4.87a4.45,4.45,0,0,0-4.43-4.72C447.54,189.27,446,191.6,446,194.17Z" transform="translate(-162.3 -71.58)"/><path class="cls-8" d="M457.7,188.94a15.43,15.43,0,0,1,2.48-.2,4.3,4.3,0,0,1,3,.93,2.7,2.7,0,0,1,.84,2,2.89,2.89,0,0,1-.81,2.15A4.52,4.52,0,0,1,460,195a5,5,0,0,1-1.49-.16v4.45h-.76Zm.76,5.23a5.35,5.35,0,0,0,1.58.19c2.08,0,3.25-1,3.25-2.56,0-1.8-1.43-2.42-3.12-2.42a9.51,9.51,0,0,0-1.71.14Z" transform="translate(-162.3 -71.58)"/><path class="cls-8" d="M448.29,147.25V150c-.16.19-.33.37-.61.25s-.3-.34-.29-.59V147.8c0-.56-.09-.65-.64-.65H425.64c-.54,0-.64.1-.64.63v14.49c0,.53.1.62.61.62h21.17c.51,0,.61-.09.61-.61,0-3.39,0-6.79,0-10.18,0-.26,0-.49.32-.58s.45.06.59.28v11a1.47,1.47,0,0,1-1.62,1c-2.61,0-5.22,0-7.84,0h-.36v1.37h3a.87.87,0,0,1,1,1c0,.49,0,1,0,1.47a1,1,0,0,1-.67,1.1h-16.6c-.19-.16-.37-.32-.26-.6s.34-.3.59-.3h4.35c0-.52,0-1,0-1.47s.12-1,.68-1.17v-1.37h-5.05a1.6,1.6,0,0,1-.44,0,1.3,1.3,0,0,1-1-1.39c0-3.13,0-6.25,0-9.38,0-.12,0-.25,0-.37h-5.57c0,.08,0,.15,0,.22v14.59c0,.29.1.39.39.38h4.22c.26,0,.49,0,.58.31s-.06.45-.28.59h-5a1.37,1.37,0,0,1-.85-1.45q0-14,0-27.94A1.14,1.14,0,0,1,418.9,138h11.32a1.14,1.14,0,0,1,1.29,1.29v6.95h15.28a1.35,1.35,0,0,1,1.45,1A.1.1,0,0,0,448.29,147.25Zm-17.69-5.5H418.53v4.48H430.6Zm-12.09-.94h12.1v-1.43c0-.44,0-.46-.46-.46H418.81a.25.25,0,0,0-.3.28Zm12.3,27h10.75v-1.7H430.81Zm-12.28-16.11h5.56v-.88h-3.85a.76.76,0,0,1-.83-.84V149c0-.71.26-1,1-1h3.7l0-.87h-5.6Zm16.34,12.14v1.32h2.66v-1.32Zm-14.55-13.94h3.76V149h-3.76Zm13.61,15.27v-1.33h-2.4v1.33Z" transform="translate(-162.3 -71.58)"/><path class="cls-8" d="M421.42,156.26c-.35,0-.7,0-1.05,0a.75.75,0,0,1-.82-.79q0-.56,0-1.11a.74.74,0,0,1,.79-.79h2.21a.74.74,0,0,1,.77.81c0,.37,0,.74,0,1.1a.73.73,0,0,1-.77.78c-.38,0-.75,0-1.13,0Zm1-1.77h-1.94v.86h1.94Z" transform="translate(-162.3 -71.58)"/><path class="cls-8" d="M436.19,162.11h-9.34c-.75,0-1.07-.31-1.07-1V149c0-.73.32-1.06,1.06-1.06h18.72c.73,0,1.05.33,1.05,1.07v12c0,.76-.32,1.07-1.07,1.07Zm9.51-13.25h-19V161.2h19Z" transform="translate(-162.3 -71.58)"/><path class="cls-8" d="M424.59,142.63h4.19c.66,0,.93.27.93.93v.86c0,.66-.27.94-.92.94h-8.44c-.68,0-.94-.26-.94-1v-.81c0-.73.25-1,1-1Zm4.21.92h-8.47v.88h8.47Z" transform="translate(-162.3 -71.58)"/><circle class="cls-10" cx="95.17" cy="182.17" r="13.51"/><path class="cls-8" d="M250.29,259.9c.2-.57.4-1.15.59-1.73a.25.25,0,0,0,0-.17,4.44,4.44,0,0,1-.37-1.9,4.32,4.32,0,0,1,1.61-3.3.4.4,0,0,0,.16-.31,6.08,6.08,0,0,1,6.3-5.8,6.07,6.07,0,0,1,5.27,8.61.27.27,0,0,0,0,.26l.77,2.24a.93.93,0,0,1-.68,1.27.9.9,0,0,1-.56-.05l-2.21-.76a.37.37,0,0,0-.31,0,5.83,5.83,0,0,1-2.21.53.31.31,0,0,0-.23.12,4.36,4.36,0,0,1-4,1.67,3.81,3.81,0,0,1-1.2-.32.38.38,0,0,0-.33,0c-.45.16-.9.28-1.34.46a.84.84,0,0,1-1.22-.54Zm7.93-12.35a4.38,4.38,0,0,0-.54,0,4.85,4.85,0,0,0-2.25.83,5.09,5.09,0,0,0-2.26,3.57,4.92,4.92,0,0,0,.08,1.95,5.25,5.25,0,0,0,4.53,4,5.15,5.15,0,0,0,2.91-.54.58.58,0,0,1,.48,0l1.38.47,1.08.37a.16.16,0,0,0,.15,0s0-.08,0-.13a.32.32,0,0,0,0-.09c-.27-.79-.54-1.58-.82-2.37a.55.55,0,0,1,0-.47,5.15,5.15,0,0,0-.07-4.89,5.16,5.16,0,0,0-2.41-2.23A5.09,5.09,0,0,0,258.22,247.55Zm-7,12.38c.53-.18,1-.34,1.53-.53a.8.8,0,0,1,.66,0,3.45,3.45,0,0,0,2.83.1,3.3,3.3,0,0,0,1.17-.75,6.2,6.2,0,0,1-5.07-5,3.16,3.16,0,0,0-.59.85,3.5,3.5,0,0,0,0,3.15.68.68,0,0,1,0,.59C251.54,258.87,251.37,259.39,251.19,259.93Z" transform="translate(-162.3 -71.58)"/><path class="cls-8" d="M258.33,252.25h2.48a.43.43,0,0,1,.48.43.42.42,0,0,1-.34.41l-.19,0h-4.88l-.21,0a.42.42,0,0,1,0-.82.82.82,0,0,1,.22,0Z" transform="translate(-162.3 -71.58)"/><path class="cls-8" d="M258.32,251.35H255.8a.42.42,0,0,1-.11-.84h5.18a.43.43,0,1,1,0,.85h-2.53Z" transform="translate(-162.3 -71.58)"/><path class="cls-8" d="M257.33,254.86h-1.55a.42.42,0,0,1-.4-.59.42.42,0,0,1,.42-.26h3.1a.42.42,0,0,1,.38.62.41.41,0,0,1-.4.23Z" transform="translate(-162.3 -71.58)"/><circle class="cls-11" cx="241.99" cy="166.78" r="15.28"/><path class="cls-8" d="M400,249.12a4.07,4.07,0,0,1-.76-.36,1.53,1.53,0,0,1-.66-1.27c0-.2,0-.41,0-.61V229.41a1.67,1.67,0,0,1,1.18-1.69,2,2,0,0,1,.54-.08h8a1.67,1.67,0,0,1,1.72,1.72v18a1.66,1.66,0,0,1-1.35,1.69l-.07,0Zm9.31-4.37v-13.4H399.28v13.4Zm-10.06.69v1.89a1,1,0,0,0,1.11,1.12h4.39c1.18,0,2.36,0,3.54,0a1,1,0,0,0,1-.91c0-.69,0-1.38,0-2.07l0,0Zm0-14.8h10.07v-1.2a1,1,0,0,0-1.13-1.13h-7.94a1,1,0,0,0-1,.9C399.25,229.68,399.27,230.16,399.27,230.64Z" transform="translate(-162.3 -71.58)"/><path class="cls-8" d="M405.48,244.09h-.11c-.24,0-.39-.14-.39-.34s.15-.33.4-.33h.25a.34.34,0,0,1,.35.34.33.33,0,0,1-.36.33Z" transform="translate(-162.3 -71.58)"/><path class="cls-8" d="M406.81,244.09h-.19a.32.32,0,0,1-.3-.32.33.33,0,0,1,.31-.34H407a.34.34,0,0,1,.37.32.35.35,0,0,1-.37.35Z" transform="translate(-162.3 -71.58)"/><path class="cls-8" d="M408.16,244.09h-.1c-.25,0-.4-.14-.4-.34s.16-.33.41-.33h.25a.34.34,0,1,1,0,.67Z" transform="translate(-162.3 -71.58)"/><path class="cls-8" d="M404.3,247.78a1,1,0,1,1,1-1A1,1,0,0,1,404.3,247.78Zm0-1.34a.34.34,0,0,0-.33.34.34.34,0,1,0,.33-.34Z" transform="translate(-162.3 -71.58)"/><path class="cls-8" d="M404.3,230h-1.25c-.27,0-.42-.13-.42-.34s.15-.33.42-.33h2.51c.27,0,.42.12.42.33s-.15.34-.42.34Z" transform="translate(-162.3 -71.58)"/><path class="cls-8" d="M404.3,246.44a.34.34,0,1,1-.33.34A.34.34,0,0,1,404.3,246.44Z" transform="translate(-162.3 -71.58)"/><circle class="cls-12" cx="317.28" cy="175.58" r="17.18"/><path class="cls-8" d="M470.17,258.79h-.55l-.17-.05A2,2,0,0,1,468,256.4a3.08,3.08,0,0,1,.91-1.53l4.53-4.53c.36-.36.37-.42.12-.86a9.23,9.23,0,0,1-1.18-3.8,9,9,0,0,1,1.72-6.2,9.19,9.19,0,0,1,6.25-3.82,8.89,8.89,0,0,1,5.14.66,9.19,9.19,0,0,1,5.61,7.45c0,.24.06.48.09.72v.95a1.66,1.66,0,0,0,0,.22,9,9,0,0,1-.72,3,9.32,9.32,0,0,1-5.26,5.12,8.87,8.87,0,0,1-4.5.55,9.27,9.27,0,0,1-3.46-1.16c-.39-.23-.48-.21-.79.1q-2.26,2.28-4.54,4.54a3.55,3.55,0,0,1-.75.59A6.37,6.37,0,0,1,470.17,258.79ZM488.73,245a7,7,0,1,0-7,7A7,7,0,0,0,488.73,245Z" transform="translate(-162.3 -71.58)"/><path class="cls-8" d="M485.16,240.7a1,1,0,0,1-1.3.91,4.51,4.51,0,0,0-1.88-.34,4.12,4.12,0,0,0-3.55,2.35c-.18.35-.37.68-.8.76a.91.91,0,0,1-.95-.34.93.93,0,0,1-.12-1,6.15,6.15,0,0,1,8-3.24A1,1,0,0,1,485.16,240.7Z" transform="translate(-162.3 -71.58)"/><circle class="cls-13" cx="118.86" cy="46.94" r="39.8"/><path class="cls-8" d="M271.38,87.42h20.28l.08,0a1.26,1.26,0,0,1,.94,1.29c0,1.46,0,2.93,0,4.39a1.26,1.26,0,0,1-1.34,1.33H271.7a1.26,1.26,0,0,1-1.34-1.33c0-1.46,0-2.93,0-4.39a2,2,0,0,1,.21-.75A1.31,1.31,0,0,1,271.38,87.42Zm18,2.52a1,1,0,0,0-1,1,1,1,0,0,0,1,1,1,1,0,0,0,1-1A1,1,0,0,0,289.39,89.94Z" transform="translate(-162.3 -71.58)"/><path class="cls-8" d="M281.52,111.34H271.8a1.29,1.29,0,0,1-1.44-1.46c0-1.38,0-2.77,0-4.15a1.29,1.29,0,0,1,1.44-1.44h19.43a1.3,1.3,0,0,1,1.45,1.46v4.15a1.29,1.29,0,0,1-1.44,1.44Zm8.88-3.51a1,1,0,0,0-1-1,1,1,0,0,0-1,1,1,1,0,0,0,1,1A1,1,0,0,0,290.4,107.83Z" transform="translate(-162.3 -71.58)"/><path class="cls-8" d="M281.52,95.85c3.24,0,6.49,0,9.74,0a1.28,1.28,0,0,1,1.27.69,1.65,1.65,0,0,1,.14.65c0,1.46,0,2.92,0,4.37a1.25,1.25,0,0,1-1.3,1.34H271.8a1.45,1.45,0,0,1-1.07-.37,1.3,1.3,0,0,1-.37-1c0-1.47,0-2.94,0-4.42a1.24,1.24,0,0,1,1.25-1.31h9.91Zm8.88,3.52a1,1,0,0,0-1-1,1,1,0,0,0-1,1,1,1,0,0,0,1,1A1,1,0,0,0,290.4,99.37Z" transform="translate(-162.3 -71.58)"/><path class="cls-8" d="M252.4,126.49a4.09,4.09,0,0,0,2.3.68c1.5,0,2.41-.79,2.41-1.94s-.54-1.66-2.1-2.16c-1.85-.59-2.6-1.35-2.6-2.56,0-1.36,1.17-2.38,2.88-2.38a4,4,0,0,1,2.06.47l-.26.56a3.4,3.4,0,0,0-1.83-.48c-1.66,0-2.19,1-2.19,1.74,0,1,.6,1.55,2.1,2,1.69.55,2.6,1.21,2.6,2.71,0,1.28-.94,2.58-3.16,2.58a4.63,4.63,0,0,1-2.47-.69Z" transform="translate(-162.3 -71.58)"/><path class="cls-8" d="M261.64,118.86h-3.46v-.56h7.59v.56h-3.46v8.71h-.67Z" transform="translate(-162.3 -71.58)"/><path class="cls-8" d="M275,122.81a4.63,4.63,0,0,1-4.7,4.93,4.51,4.51,0,0,1-4.61-4.68,4.67,4.67,0,0,1,4.7-4.93A4.48,4.48,0,0,1,275,122.81Zm-8.61.22a4,4,0,0,0,3.94,4.16c2.45,0,4-1.86,4-4.32a4,4,0,0,0-3.93-4.19C267.76,118.68,266.43,120.75,266.43,123Z" transform="translate(-162.3 -71.58)"/><path class="cls-8" d="M276.78,118.42a13.65,13.65,0,0,1,2.26-.21,3.64,3.64,0,0,1,2.71.83,2.26,2.26,0,0,1,.66,1.62,2.46,2.46,0,0,1-1.91,2.41v0A2.43,2.43,0,0,1,282,125a12.87,12.87,0,0,0,.76,2.58H282a13.05,13.05,0,0,1-.62-2.23c-.3-1.33-.9-2-2.17-2h-1.76v4.25h-.68Zm.68,4.35h1.79c1.52,0,2.49-.8,2.49-2,0-1.48-1.23-2-2.71-2a6.55,6.55,0,0,0-1.57.16Z" transform="translate(-162.3 -71.58)"/><path class="cls-8" d="M285.53,124.31l-1.28,3.26h-.71l3.75-9.27H288l3.71,9.27H291l-1.31-3.26Zm3.9-.56-1.3-3.27a12.49,12.49,0,0,1-.51-1.47h0c-.14.47-.29.88-.51,1.43l-1.32,3.31Z" transform="translate(-162.3 -71.58)"/><path class="cls-8" d="M300.56,127.1a8.42,8.42,0,0,1-3.11.57,5.16,5.16,0,0,1-3.7-1.32,4.69,4.69,0,0,1-1.35-3.43c0-2.17,1.65-4.72,5.38-4.72a6.39,6.39,0,0,1,2.48.47l-.22.55a5.31,5.31,0,0,0-2.29-.46c-3,0-4.65,1.89-4.65,4.19s1.64,4.15,4.47,4.15a5.34,5.34,0,0,0,2.32-.38v-3.18h-2.4V123h3.07Z" transform="translate(-162.3 -71.58)"/><path class="cls-8" d="M307.44,123h-4.12V127h4.59v.56h-5.27V118.3h5v.56h-4.36v3.54h4.12Z" transform="translate(-162.3 -71.58)"/><path class="cls-8" d="M308.77,129.31a18.67,18.67,0,0,0,.71-2.92l.89-.14a17.73,17.73,0,0,1-1.06,3Z" transform="translate(-162.3 -71.58)"/><path class="cls-8" d="M257.57,132.19a10.34,10.34,0,0,1,2.08-.21,3.46,3.46,0,0,1,2.61.81,2.05,2.05,0,0,1,.58,1.53,2.3,2.3,0,0,1-1.64,2.07v0a2.42,2.42,0,0,1,2,2.32,2.35,2.35,0,0,1-.71,1.75,4.36,4.36,0,0,1-3.2.92c-.72,0-1.34,0-1.75-.08Zm.67,4h1.63c1.46,0,2.28-.82,2.28-1.82,0-1.42-1.17-1.8-2.54-1.8a5.94,5.94,0,0,0-1.37.11Zm0,4.61a6.75,6.75,0,0,0,1.31.08c1.46,0,3-.43,3-2.08,0-1.46-1.32-2.06-2.89-2.06h-1.39Z" transform="translate(-162.3 -71.58)"/><path class="cls-8" d="M266.3,138.08,265,141.34h-.7l3.74-9.27h.66l3.72,9.27h-.71l-1.3-3.26Zm3.91-.56-1.31-3.27a15.56,15.56,0,0,1-.51-1.47h0c-.14.47-.29.88-.51,1.43l-1.32,3.31Z" transform="translate(-162.3 -71.58)"/><path class="cls-8" d="M281,141a7,7,0,0,1-2.9.54,4.58,4.58,0,0,1-4.9-4.77c0-2.42,1.79-4.84,5.27-4.84a5.78,5.78,0,0,1,2.51.47l-.22.56a5.4,5.4,0,0,0-2.25-.47c-3,0-4.61,1.83-4.61,4.34,0,2.28,1.53,4.13,4.45,4.13a5.72,5.72,0,0,0,2.45-.5Z" transform="translate(-162.3 -71.58)"/><path class="cls-8" d="M282.67,132.07h.67v4.74h.06a11.32,11.32,0,0,1,.84-.93l3.7-3.81h.85l-3.91,4,4.33,5.32h-.84l-3.95-4.9-1.08,1.08v3.82h-.67Z" transform="translate(-162.3 -71.58)"/><path class="cls-8" d="M290.78,132.07v5.35c0,2.52,1.25,3.52,2.79,3.52,1.72,0,2.95-1.07,2.95-3.52v-5.35h.67v5.29c0,3-1.69,4.15-3.66,4.15-1.8,0-3.43-1-3.43-4.08v-5.36Z" transform="translate(-162.3 -71.58)"/><path class="cls-8" d="M299.62,132.16a14.56,14.56,0,0,1,2.2-.18,3.84,3.84,0,0,1,2.69.83,2.41,2.41,0,0,1,.74,1.8,2.56,2.56,0,0,1-.72,1.91,4,4,0,0,1-2.91,1,4.28,4.28,0,0,1-1.33-.14v4h-.67Zm.67,4.64a5,5,0,0,0,1.41.16c1.84,0,2.87-.83,2.87-2.27,0-1.59-1.26-2.14-2.76-2.14a9,9,0,0,0-1.52.12Z" transform="translate(-162.3 -71.58)"/><circle class="cls-6" cx="149.61" cy="230.73" r="21.82"/><path class="cls-8" d="M311.84,311.07H301.11a1.49,1.49,0,0,1-1.24-.7,1.54,1.54,0,0,1-.29-.88V295.4a2.24,2.24,0,0,1,.13-.84A1.58,1.58,0,0,1,300,294a1.62,1.62,0,0,1,1.17-.49h21.37a1.57,1.57,0,0,1,1.4.84,1.72,1.72,0,0,1,.24.89c0,.66,0,1.32,0,2v12a1.81,1.81,0,0,1-.38,1.15,1.51,1.51,0,0,1-1.21.63H311.84Zm.39-1.29h10a1.82,1.82,0,0,0,.33,0,.3.3,0,0,0,.29-.29c0-.1,0-.2,0-.3V295.47c0-.1,0-.2,0-.3a.31.31,0,0,0-.3-.32,2.3,2.3,0,0,0-.37,0H301.94a.37.37,0,0,0-.39.41v13.94a2.25,2.25,0,0,0,0,.26.34.34,0,0,0,.32.34c.13,0,.25,0,.38,0Zm-11.68-8.1a.66.66,0,0,0-.6.64.62.62,0,0,0,.61.62.61.61,0,0,0,.62-.64A.65.65,0,0,0,300.55,301.68Z" transform="translate(-162.3 -71.58)"/><circle class="cls-14" cx="162.39" cy="140.9" r="63.2"/><path class="cls-8" d="M282.09,217c-.14-1.91-.31-4.39-.31-5.76h0c-.51,1.37-1.1,2.86-1.92,4.81l-3,7h-.71l-2.79-6.93c-.8-2-1.39-3.53-1.81-4.9h0c-.05,1.49-.15,3.83-.32,5.95l-.46,5.88h-.92l1-12.86h1.07l3.1,7.67c.64,1.6,1.14,2.94,1.52,4.1h0c.34-1.08.86-2.38,1.59-4.08l3.24-7.69h1.11l.91,12.86h-.91Z" transform="translate(-162.3 -71.58)"/><path class="cls-8" d="M298.3,216.48a6.42,6.42,0,0,1-6.53,6.83,6.25,6.25,0,0,1-6.39-6.49A6.48,6.48,0,0,1,291.9,210,6.22,6.22,0,0,1,298.3,216.48Zm-11.95.3a5.48,5.48,0,0,0,5.46,5.77c3.4,0,5.51-2.58,5.51-6,0-2.78-1.81-5.8-5.45-5.8S286.35,213.61,286.35,216.78Z" transform="translate(-162.3 -71.58)"/><path class="cls-8" d="M300.71,223.08V210.22h.87l5.83,7.92A42.54,42.54,0,0,1,310,221.9l0,0c-.13-1.49-.15-3-.15-5v-6.64h.91v12.86H310l-5.63-7.65c-1.08-1.49-2.08-2.85-2.76-4l-.06,0c.09,1.45.11,2.82.11,4.73v6.87Z" transform="translate(-162.3 -71.58)"/><path class="cls-8" d="M315.12,210.22v12.86h-.93V210.22Z" transform="translate(-162.3 -71.58)"/><path class="cls-8" d="M321.21,211h-4.79v-.78h10.52V211h-4.79v12.08h-.94Z" transform="translate(-162.3 -71.58)"/><path class="cls-8" d="M339.81,216.48a6.42,6.42,0,0,1-6.53,6.83,6.25,6.25,0,0,1-6.39-6.49,6.48,6.48,0,0,1,6.53-6.83A6.22,6.22,0,0,1,339.81,216.48Zm-11.95.3a5.48,5.48,0,0,0,5.46,5.77c3.4,0,5.52-2.58,5.52-6,0-2.78-1.82-5.8-5.46-5.8S327.86,213.61,327.86,216.78Z" transform="translate(-162.3 -71.58)"/><path class="cls-8" d="M342.22,210.39a18.38,18.38,0,0,1,3.13-.29,5,5,0,0,1,3.76,1.15,3.15,3.15,0,0,1,.92,2.25,3.43,3.43,0,0,1-2.66,3.34v0a3.4,3.4,0,0,1,2.05,2.61,17.16,17.16,0,0,0,1,3.59h-1a17.66,17.66,0,0,1-.86-3.09c-.42-1.85-1.26-2.71-3-2.81h-2.45v5.9h-.93Zm.93,6h2.49c2.11,0,3.45-1.11,3.45-2.77,0-2.06-1.7-2.78-3.76-2.78a9.23,9.23,0,0,0-2.18.21Z" transform="translate(-162.3 -71.58)"/><path class="cls-8" d="M353.64,210.22v12.86h-.94V210.22Z" transform="translate(-162.3 -71.58)"/><path class="cls-8" d="M357,223.08V210.22h.88l5.82,7.92a42.54,42.54,0,0,1,2.61,3.76l0,0c-.13-1.49-.15-3-.15-5v-6.64h.91v12.86h-.86l-5.63-7.65c-1.08-1.49-2.08-2.85-2.76-4l-.06,0c.09,1.45.11,2.82.11,4.73v6.87Z" transform="translate(-162.3 -71.58)"/><path class="cls-8" d="M380.84,222.43a11.73,11.73,0,0,1-4.31.79,7.17,7.17,0,0,1-5.14-1.84,6.52,6.52,0,0,1-1.87-4.75c0-3,2.29-6.55,7.47-6.55a8.8,8.8,0,0,1,3.43.65l-.3.77a7.21,7.21,0,0,0-3.17-.63c-4.22,0-6.45,2.61-6.45,5.8,0,3.34,2.27,5.76,6.2,5.76a7.42,7.42,0,0,0,3.21-.53v-4.41h-3.32v-.76h4.25Z" transform="translate(-162.3 -71.58)"/><path class="cls-8" d="M288,239.48a5.7,5.7,0,0,0,3.19,1c2.08,0,3.34-1.11,3.34-2.69s-.75-2.31-2.9-3c-2.58-.82-3.61-1.87-3.61-3.55,0-1.89,1.62-3.3,4-3.3a5.51,5.51,0,0,1,2.86.65l-.36.78a4.72,4.72,0,0,0-2.54-.67c-2.31,0-3,1.4-3,2.41,0,1.37.82,2.15,2.91,2.82,2.34.77,3.6,1.68,3.6,3.76,0,1.78-1.29,3.57-4.37,3.57a6.44,6.44,0,0,1-3.43-1Z" transform="translate(-162.3 -71.58)"/><path class="cls-8" d="M304.78,234.59h-5.72v5.61h6.37V241h-7.31V228.12h7v.78h-6.05v4.91h5.72Z" transform="translate(-162.3 -71.58)"/><path class="cls-8" d="M307.88,228.29A18.19,18.19,0,0,1,311,228a5.08,5.08,0,0,1,3.76,1.15,3.14,3.14,0,0,1,.91,2.25,3.42,3.42,0,0,1-2.65,3.34v0a3.38,3.38,0,0,1,2,2.62,17.64,17.64,0,0,0,1.05,3.58h-1a16.51,16.51,0,0,1-.86-3.09c-.42-1.85-1.26-2.71-3-2.8h-2.45V241h-.93Zm.93,6h2.48c2.12,0,3.46-1.11,3.46-2.77,0-2.06-1.7-2.78-3.76-2.78a9.16,9.16,0,0,0-2.18.21Z" transform="translate(-162.3 -71.58)"/><path class="cls-8" d="M322,241l-4.7-12.86h1l2.54,7.08c.71,2,1.26,3.49,1.66,4.83h0c.44-1.36,1.09-2.94,1.85-4.81l2.87-7.1h1L322.9,241Z" transform="translate(-162.3 -71.58)"/><path class="cls-8" d="M330.47,228.12V241h-.94V228.12Z" transform="translate(-162.3 -71.58)"/><path class="cls-8" d="M343.7,240.47a9.81,9.81,0,0,1-4,.74c-3.48,0-6.8-2.12-6.8-6.6,0-3.36,2.48-6.72,7.31-6.72a7.94,7.94,0,0,1,3.48.65l-.31.78a7.32,7.32,0,0,0-3.11-.65c-4.18,0-6.39,2.54-6.39,6,0,3.17,2.11,5.73,6.16,5.73a8,8,0,0,0,3.4-.69Z" transform="translate(-162.3 -71.58)"/><path class="cls-8" d="M352.71,234.59H347v5.61h6.38V241h-7.31V228.12h7v.78h-6v4.91h5.73Z" transform="translate(-162.3 -71.58)"/><path class="cls-8" d="M355.37,239.48a5.67,5.67,0,0,0,3.18,1c2.08,0,3.34-1.11,3.34-2.69s-.74-2.31-2.9-3c-2.57-.82-3.61-1.87-3.61-3.55,0-1.89,1.63-3.3,4-3.3a5.53,5.53,0,0,1,2.87.65l-.37.78a4.72,4.72,0,0,0-2.54-.67c-2.3,0-3,1.4-3,2.41,0,1.37.82,2.15,2.9,2.82,2.35.77,3.61,1.68,3.61,3.76,0,1.78-1.3,3.57-4.37,3.57a6.5,6.5,0,0,1-3.44-1Z" transform="translate(-162.3 -71.58)"/><rect class="cls-8" x="140.3" y="107.36" width="2.39" height="17.12"/><rect class="cls-8" x="145.67" y="101.38" width="2.39" height="23.1"/><rect class="cls-8" x="150.85" y="103.46" width="2.39" height="21.02"/><rect class="cls-8" x="156.08" y="96.93" width="2.39" height="27.55"/><rect class="cls-8" x="161.2" y="100.64" width="2.39" height="23.83"/><rect class="cls-8" x="165.91" y="100.64" width="2.39" height="23.83"/><rect class="cls-8" x="170.75" y="92.97" width="2.39" height="31.5"/><rect class="cls-8" x="175.59" y="96.81" width="2.39" height="27.67"/><rect class="cls-8" x="180.43" y="113.54" width="2.39" height="10.93"/><circle class="cls-15" cx="44.71" cy="139.31" r="44.71"/><path class="cls-8" d="M168.3,216.38l-1.11,2.83h-.61l3.25-8h.57l3.22,8H173l-1.13-2.83Zm3.39-.48-1.14-2.83c-.21-.54-.32-.89-.44-1.28h0c-.12.41-.25.76-.44,1.24l-1.15,2.87Z" transform="translate(-162.3 -71.58)"/><path class="cls-8" d="M174.91,211.25a12.44,12.44,0,0,1,1.91-.15,3.34,3.34,0,0,1,2.33.71,2.11,2.11,0,0,1,.64,1.57,2.24,2.24,0,0,1-.62,1.66,3.5,3.5,0,0,1-2.53.87,3.7,3.7,0,0,1-1.14-.12v3.42h-.59Zm.59,4a4.37,4.37,0,0,0,1.21.14c1.6,0,2.5-.73,2.5-2s-1.1-1.86-2.4-1.86a6.75,6.75,0,0,0-1.31.11Z" transform="translate(-162.3 -71.58)"/><path class="cls-8" d="M181.45,211.25a12.44,12.44,0,0,1,1.91-.15,3.34,3.34,0,0,1,2.33.71,2.11,2.11,0,0,1,.64,1.57,2.24,2.24,0,0,1-.62,1.66,3.5,3.5,0,0,1-2.53.87,3.7,3.7,0,0,1-1.14-.12v3.42h-.59Zm.59,4a4.37,4.37,0,0,0,1.21.14c1.6,0,2.5-.73,2.5-2s-1.1-1.86-2.4-1.86a6.75,6.75,0,0,0-1.31.11Z" transform="translate(-162.3 -71.58)"/><path class="cls-8" d="M188,211.17h.59v7.55h4v.49H188Z" transform="translate(-162.3 -71.58)"/><path class="cls-8" d="M194.42,211.17v8h-.58v-8Z" transform="translate(-162.3 -71.58)"/><path class="cls-8" d="M202.69,218.89a6,6,0,0,1-2.52.47,4,4,0,0,1-4.24-4.13,4.23,4.23,0,0,1,4.57-4.2,5,5,0,0,1,2.17.4l-.19.49a4.56,4.56,0,0,0-1.95-.4c-2.61,0-4,1.58-4,3.76,0,2,1.32,3.57,3.85,3.57a5,5,0,0,0,2.12-.42Z" transform="translate(-162.3 -71.58)"/><path class="cls-8" d="M205.19,216.38l-1.11,2.83h-.61l3.24-8h.58l3.22,8h-.61l-1.13-2.83Zm3.39-.48-1.14-2.83c-.21-.54-.32-.89-.44-1.28h0c-.12.41-.25.76-.44,1.24l-1.15,2.87Z" transform="translate(-162.3 -71.58)"/><path class="cls-8" d="M212.61,211.66h-3v-.49h6.57v.49h-3v7.55h-.59Z" transform="translate(-162.3 -71.58)"/><path class="cls-8" d="M217.58,211.17v8H217v-8Z" transform="translate(-162.3 -71.58)"/><path class="cls-8" d="M227.16,215.08a4,4,0,0,1-4.08,4.28,3.92,3.92,0,0,1-4-4.06,4.05,4.05,0,0,1,4.08-4.27A3.89,3.89,0,0,1,227.16,215.08Zm-7.47.2a3.44,3.44,0,1,0,3.45-3.78C220.85,211.5,219.69,213.29,219.69,215.28Z" transform="translate(-162.3 -71.58)"/><path class="cls-8" d="M228.66,219.21v-8h.55l3.64,5a28.05,28.05,0,0,1,1.64,2.35l0,0c-.08-.93-.1-1.89-.1-3.13v-4.15H235v8h-.54l-3.52-4.78c-.68-.93-1.3-1.78-1.73-2.5l0,0c.06.9.08,1.76.08,3v4.29Z" transform="translate(-162.3 -71.58)"/><path class="cls-8" d="M245.3,219.21c-.3-.27-.56-.56-1-.92a3.72,3.72,0,0,1-2.67,1.07,2.28,2.28,0,0,1-2.4-2.26,2.63,2.63,0,0,1,1.72-2.37v0a2.9,2.9,0,0,1-.74-1.73,1.88,1.88,0,0,1,1.94-1.93,1.58,1.58,0,0,1,1.65,1.61c0,.87-.53,1.53-2,2.21v0c1,1.12,2,2.17,2.54,2.71a5.42,5.42,0,0,0,.92-2.59h.55a5.72,5.72,0,0,1-1.13,2.9c.52.51,1,.93,1.38,1.31ZM244,218c-.34-.32-1.54-1.55-2.75-2.89a2.27,2.27,0,0,0-1.42,2,1.86,1.86,0,0,0,2,1.87A3.09,3.09,0,0,0,244,218Zm-3.21-5.06a2.61,2.61,0,0,0,.7,1.62c1-.5,1.79-1,1.79-1.82a1.14,1.14,0,0,0-1.18-1.22A1.31,1.31,0,0,0,240.79,212.9Z" transform="translate(-162.3 -71.58)"/><path class="cls-8" d="M177,224.41a17.3,17.3,0,0,1,2.41-.18,4.94,4.94,0,0,1,3.76,1.29,3.66,3.66,0,0,1,1,2.62,4.33,4.33,0,0,1-1.11,2.94,5.35,5.35,0,0,1-3.94,1.33c-.73,0-1.4,0-2.09-.07Zm.59,7.44a11.74,11.74,0,0,0,1.6.07c3.05,0,4.35-1.68,4.35-3.77s-1.24-3.43-4.18-3.43a9.36,9.36,0,0,0-1.77.15Z" transform="translate(-162.3 -71.58)"/><path class="cls-8" d="M186.53,229.51l-1.11,2.83h-.61l3.25-8h.57l3.22,8h-.61l-1.13-2.83Zm3.39-.49-1.14-2.82c-.21-.54-.32-.89-.44-1.28h0c-.12.4-.25.76-.44,1.24L186.73,229Z" transform="translate(-162.3 -71.58)"/><path class="cls-8" d="M194,224.79h-3v-.49h6.57v.49h-3v7.55H194Z" transform="translate(-162.3 -71.58)"/><path class="cls-8" d="M198.34,229.51l-1.11,2.83h-.6l3.24-8h.57l3.23,8h-.61l-1.14-2.83Zm3.39-.49-1.13-2.82a13.22,13.22,0,0,1-.44-1.28h0c-.12.4-.25.76-.44,1.24L198.55,229Z" transform="translate(-162.3 -71.58)"/><path class="cls-8" d="M205,224.41a8.48,8.48,0,0,1,1.8-.18,3,3,0,0,1,2.26.7,1.74,1.74,0,0,1,.51,1.32,2,2,0,0,1-1.42,1.79v0a2.1,2.1,0,0,1,1.75,2,2.05,2.05,0,0,1-.61,1.51,3.82,3.82,0,0,1-2.78.8c-.62,0-1.16,0-1.51-.07Zm.58,3.44H207c1.26,0,2-.7,2-1.57,0-1.23-1-1.56-2.21-1.56a5.26,5.26,0,0,0-1.18.09Zm0,4a5.83,5.83,0,0,0,1.13.07c1.27,0,2.58-.37,2.58-1.8,0-1.26-1.14-1.79-2.5-1.79h-1.21Z" transform="translate(-162.3 -71.58)"/><path class="cls-8" d="M212.52,229.51l-1.11,2.83h-.61l3.25-8h.57l3.22,8h-.61l-1.13-2.83Zm3.39-.49-1.13-2.82c-.22-.54-.33-.89-.45-1.28h0c-.12.4-.25.76-.44,1.24L212.72,229Z" transform="translate(-162.3 -71.58)"/><path class="cls-8" d="M218.86,231.4a3.52,3.52,0,0,0,2,.59c1.3,0,2.09-.69,2.09-1.68s-.47-1.44-1.81-1.87c-1.62-.51-2.26-1.17-2.26-2.22a2.22,2.22,0,0,1,2.49-2.07,3.49,3.49,0,0,1,1.79.41l-.22.49a2.93,2.93,0,0,0-1.59-.42c-1.44,0-1.9.87-1.9,1.51,0,.85.52,1.34,1.82,1.76,1.46.48,2.25,1,2.25,2.35,0,1.11-.81,2.23-2.73,2.23a4,4,0,0,1-2.15-.59Z" transform="translate(-162.3 -71.58)"/><path class="cls-8" d="M229.32,228.34h-3.58v3.51h4v.49h-4.57v-8h4.37v.49h-3.79v3.06h3.58Z" transform="translate(-162.3 -71.58)"/><path class="cls-8" d="M231,231.4a3.55,3.55,0,0,0,2,.59c1.3,0,2.08-.69,2.08-1.68s-.46-1.44-1.81-1.87c-1.61-.51-2.25-1.17-2.25-2.22a2.22,2.22,0,0,1,2.49-2.07,3.49,3.49,0,0,1,1.79.41l-.23.49a2.89,2.89,0,0,0-1.58-.42c-1.45,0-1.9.87-1.9,1.51,0,.85.51,1.34,1.81,1.76,1.47.48,2.26,1,2.26,2.35,0,1.11-.81,2.23-2.74,2.23a4,4,0,0,1-2.14-.59Z" transform="translate(-162.3 -71.58)"/><path class="cls-8" d="M189.77,179.29v21.42a1.59,1.59,0,0,0,1.59,1.59h25.33a1.59,1.59,0,0,0,1.59-1.59V179.29a1.6,1.6,0,0,0-1.59-1.6H191.36A1.6,1.6,0,0,0,189.77,179.29Zm22.72.59h2.32v1.87h-2.32Zm-3.54,0h2.31v1.87H209Zm-3.56,0h2.33v1.87h-2.33Zm10.46,19.92H193.78a1.6,1.6,0,0,1-1.59-1.6V185.61a1.59,1.59,0,0,1,1.59-1.59h20.47a1.6,1.6,0,0,1,1.6,1.59Z" transform="translate(-162.3 -71.58)"/><polygon class="cls-8" points="44.67 120.5 43.83 119.66 46.32 117.17 43.83 114.68 44.67 113.84 48.01 117.17 44.67 120.5"/><rect class="cls-8" x="36.05" y="116.57" width="11.11" height="1.19"/><polygon class="cls-8" points="38.54 127.13 35.21 123.8 38.54 120.47 39.38 121.31 36.9 123.8 39.38 126.28 38.54 127.13"/><rect class="cls-8" x="36.05" y="123.2" width="11.11" height="1.19"/><circle class="cls-16" cx="74.73" cy="253.5" r="44.59"/><path class="cls-8" d="M210.92,329.54v-8h.55l3.64,4.95c.74,1,1.22,1.64,1.64,2.35l0,0c-.08-.93-.1-1.89-.1-3.13V321.5h.58v8h-.54l-3.52-4.78c-.68-.93-1.3-1.78-1.73-2.49l0,0c.06.91.08,1.76.08,3v4.29Z" transform="translate(-162.3 -71.58)"/><path class="cls-8" d="M223.51,325.55h-3.58v3.5h4v.49h-4.57v-8h4.36V322h-3.78v3.07h3.58Z" transform="translate(-162.3 -71.58)"/><path class="cls-8" d="M227.51,322h-3v-.49h6.57V322h-3v7.55h-.58Z" transform="translate(-162.3 -71.58)"/><path class="cls-8" d="M234,329.54l-2.28-8h.59l1.28,4.62c.29,1,.56,2,.73,2.7h0c.15-.66.47-1.65.81-2.7l1.48-4.62h.58l1.3,4.61c.27,1,.56,2,.69,2.71h0c.19-.76.48-1.63.81-2.69l1.48-4.63h.61l-2.66,8h-.57l-1.3-4.6a25.34,25.34,0,0,1-.68-2.76h0a23,23,0,0,1-.81,2.73l-1.5,4.63Z" transform="translate(-162.3 -71.58)"/><path class="cls-8" d="M250.72,325.42a4,4,0,0,1-4.08,4.27,3.92,3.92,0,0,1-4-4.06,4.05,4.05,0,0,1,4.08-4.27A3.89,3.89,0,0,1,250.72,325.42Zm-7.47.19a3.44,3.44,0,1,0,3.45-3.77C244.41,321.84,243.25,323.62,243.25,325.61Z" transform="translate(-162.3 -71.58)"/><path class="cls-8" d="M252.23,321.61a11,11,0,0,1,2-.18,3.15,3.15,0,0,1,2.35.72,1.94,1.94,0,0,1,.58,1.4,2.14,2.14,0,0,1-1.66,2.09v0a2.11,2.11,0,0,1,1.27,1.63,10.57,10.57,0,0,0,.66,2.24h-.62a10.79,10.79,0,0,1-.54-1.93c-.26-1.16-.78-1.69-1.88-1.75h-1.53v3.68h-.58Zm.58,3.77h1.55c1.33,0,2.16-.69,2.16-1.73,0-1.29-1.06-1.74-2.35-1.74a5.87,5.87,0,0,0-1.36.13Z" transform="translate(-162.3 -71.58)"/><path class="cls-8" d="M258.78,321.5h.58v4.12h.05a10,10,0,0,1,.73-.81l3.21-3.31h.74l-3.39,3.43,3.75,4.61h-.73l-3.43-4.24-.93.93v3.31h-.58Z" transform="translate(-162.3 -71.58)"/><path class="cls-8" d="M206.2,338.88c-.09-1.2-.2-2.75-.2-3.61h0c-.32.86-.69,1.79-1.21,3l-1.86,4.39h-.44l-1.74-4.33c-.5-1.25-.87-2.21-1.13-3.07h0c0,.93-.09,2.4-.2,3.73l-.29,3.67h-.57l.64-8h.67l1.94,4.8c.4,1,.71,1.83,1,2.56h0c.22-.68.54-1.49,1-2.55l2-4.81h.7l.57,8h-.57Z" transform="translate(-162.3 -71.58)"/><path class="cls-8" d="M209.69,339.84l-1.11,2.83H208l3.25-8h.57l3.22,8h-.6l-1.14-2.83Zm3.39-.49L212,336.53a13.22,13.22,0,0,1-.44-1.28h0c-.12.41-.25.76-.44,1.24l-1.14,2.86Z" transform="translate(-162.3 -71.58)"/><path class="cls-8" d="M216.3,342.67v-8h.55l3.64,4.95a28.05,28.05,0,0,1,1.64,2.35l0,0c-.08-.93-.09-1.89-.09-3.13v-4.15h.57v8h-.54l-3.52-4.78c-.68-.93-1.3-1.78-1.73-2.5l0,0c.07.9.08,1.76.08,3v4.29Z" transform="translate(-162.3 -71.58)"/><path class="cls-8" d="M225.76,339.84l-1.11,2.83H224l3.24-8h.58l3.22,8h-.61l-1.13-2.83Zm3.38-.49L228,336.53c-.21-.54-.32-.89-.44-1.28h0c-.12.41-.26.76-.45,1.24L226,339.35Z" transform="translate(-162.3 -71.58)"/><path class="cls-8" d="M238.79,342.27a7.63,7.63,0,0,1-2.7.49,4.47,4.47,0,0,1-3.21-1.15,4.09,4.09,0,0,1-1.17-3c0-1.89,1.43-4.09,4.67-4.09a5.62,5.62,0,0,1,2.14.4l-.19.48a4.53,4.53,0,0,0-2-.39c-2.63,0-4,1.63-4,3.62s1.42,3.61,3.88,3.61a4.55,4.55,0,0,0,2-.34v-2.75h-2.07v-.48h2.66Z" transform="translate(-162.3 -71.58)"/><path class="cls-8" d="M244.75,338.67h-3.58v3.51h4v.49h-4.57v-8H245v.49h-3.79v3.07h3.58Z" transform="translate(-162.3 -71.58)"/><path class="cls-8" d="M254.12,338.88c-.08-1.2-.19-2.75-.19-3.61h0c-.33.86-.7,1.79-1.21,3l-1.86,4.39h-.44l-1.74-4.33c-.5-1.25-.87-2.21-1.14-3.07h0c0,.93-.1,2.4-.2,3.73l-.29,3.67h-.57l.64-8h.67l1.93,4.8c.41,1,.72,1.83,1,2.56h0c.22-.68.54-1.49,1-2.55l2-4.81h.69l.58,8h-.58Z" transform="translate(-162.3 -71.58)"/><path class="cls-8" d="M260.94,338.67h-3.58v3.51h4v.49h-4.57v-8h4.37v.49h-3.78v3.07h3.58Z" transform="translate(-162.3 -71.58)"/><path class="cls-8" d="M262.87,342.67v-8h.55l3.64,4.95a25.45,25.45,0,0,1,1.63,2.35l0,0c-.09-.93-.1-1.89-.1-3.13v-4.15h.57v8h-.53l-3.52-4.78c-.68-.93-1.3-1.78-1.73-2.5l0,0c.06.9.07,1.76.07,3v4.29Z" transform="translate(-162.3 -71.58)"/><path class="cls-8" d="M273,335.12h-3v-.49h6.57v.49h-3v7.55H273Z" transform="translate(-162.3 -71.58)"/><rect class="cls-8" x="69.87" y="219.78" width="9.59" height="6.27"/><polygon class="cls-8" points="89.5 231.65 89.5 229.27 75.33 229.27 75.33 226.05 74.14 226.05 74.14 229.27 59.96 229.27 59.96 231.65 65.73 231.65 65.73 235.41 60.86 235.41 60.86 241.68 70.45 241.68 70.45 235.41 66.92 235.41 66.92 231.65 82.25 231.65 82.25 235.41 78.65 235.41 78.65 241.68 88.24 241.68 88.24 235.41 83.45 235.41 83.45 231.65 89.5 231.65"/><circle class="cls-17" cx="250.45" cy="237.17" r="55.54"/><path class="cls-8" d="M361.82,304.3v9.08h-.66V304.3Z" transform="translate(-162.3 -71.58)"/><path class="cls-8" d="M364.19,313.38V304.3h.62l4.11,5.6a30.74,30.74,0,0,1,1.85,2.65l0,0c-.09-1-.1-2.13-.1-3.53V304.3h.64v9.08h-.6l-4-5.4c-.77-1.05-1.47-2-1.95-2.81l0,0c.07,1,.08,2,.08,3.34v4.85Z" transform="translate(-162.3 -71.58)"/><path class="cls-8" d="M373.7,304.3h4.93v.56h-4.27v3.57h3.91V309h-3.91v4.4h-.66Z" transform="translate(-162.3 -71.58)"/><path class="cls-8" d="M380.57,304.42a13,13,0,0,1,2.21-.2,3.56,3.56,0,0,1,2.65.81,2.22,2.22,0,0,1,.65,1.59,2.43,2.43,0,0,1-1.87,2.36v0a2.39,2.39,0,0,1,1.44,1.84,11.4,11.4,0,0,0,.74,2.53h-.7a12,12,0,0,1-.61-2.18c-.29-1.3-.89-1.91-2.13-2h-1.72v4.16h-.66Zm.66,4.26H383c1.5,0,2.44-.78,2.44-1.95,0-1.46-1.2-2-2.66-2a6.36,6.36,0,0,0-1.53.15Z" transform="translate(-162.3 -71.58)"/><path class="cls-8" d="M389.12,310.19l-1.25,3.19h-.69l3.67-9.08h.64l3.64,9.08h-.69l-1.28-3.19Zm3.83-.55-1.28-3.19a15,15,0,0,1-.5-1.45h0a12.82,12.82,0,0,1-.5,1.41l-1.29,3.23Z" transform="translate(-162.3 -71.58)"/><path class="cls-8" d="M396.27,312.32a4.07,4.07,0,0,0,2.25.67c1.47,0,2.36-.78,2.36-1.9s-.53-1.63-2.05-2.11c-1.82-.58-2.54-1.32-2.54-2.51s1.14-2.33,2.81-2.33a3.9,3.9,0,0,1,2,.46l-.25.55a3.43,3.43,0,0,0-1.79-.47c-1.64,0-2.15,1-2.15,1.7,0,1,.58,1.52,2.05,2,1.66.54,2.55,1.19,2.55,2.66,0,1.25-.92,2.52-3.09,2.52a4.48,4.48,0,0,1-2.42-.68Z" transform="translate(-162.3 -71.58)"/><path class="cls-8" d="M405.31,304.86h-3.38v-.56h7.42v.56H406v8.52h-.66Z" transform="translate(-162.3 -71.58)"/><path class="cls-8" d="M410.25,304.42a13,13,0,0,1,2.21-.2,3.6,3.6,0,0,1,2.66.81,2.22,2.22,0,0,1,.64,1.59,2.42,2.42,0,0,1-1.87,2.36v0a2.37,2.37,0,0,1,1.44,1.84,12.69,12.69,0,0,0,.74,2.53h-.7a11.41,11.41,0,0,1-.6-2.18c-.3-1.3-.89-1.91-2.13-2h-1.73v4.16h-.66Zm.66,4.26h1.75c1.5,0,2.44-.78,2.44-1.95,0-1.46-1.2-2-2.65-2a6.53,6.53,0,0,0-1.54.15Z" transform="translate(-162.3 -71.58)"/><path class="cls-8" d="M418.31,304.3v5.24c0,2.47,1.22,3.45,2.73,3.45,1.69,0,2.88-1.05,2.88-3.45V304.3h.67v5.19c0,2.93-1.66,4.06-3.59,4.06-1.76,0-3.35-1-3.35-4V304.3Z" transform="translate(-162.3 -71.58)"/><path class="cls-8" d="M433.92,313a6.78,6.78,0,0,1-2.84.53,4.49,4.49,0,0,1-4.8-4.67c0-2.37,1.75-4.74,5.16-4.74a5.55,5.55,0,0,1,2.45.46l-.21.55a5.17,5.17,0,0,0-2.2-.46c-3,0-4.51,1.8-4.51,4.25,0,2.23,1.49,4,4.35,4a5.64,5.64,0,0,0,2.4-.48Z" transform="translate(-162.3 -71.58)"/><path class="cls-8" d="M438.17,304.86h-3.38v-.56h7.42v.56h-3.38v8.52h-.66Z" transform="translate(-162.3 -71.58)"/><path class="cls-8" d="M443.77,304.3v5.24c0,2.47,1.23,3.45,2.74,3.45,1.68,0,2.88-1.05,2.88-3.45V304.3h.66v5.19c0,2.93-1.65,4.06-3.58,4.06-1.77,0-3.36-1-3.36-4V304.3Z" transform="translate(-162.3 -71.58)"/><path class="cls-8" d="M452.42,304.42a13,13,0,0,1,2.21-.2,3.6,3.6,0,0,1,2.66.81,2.22,2.22,0,0,1,.64,1.59,2.43,2.43,0,0,1-1.87,2.36v0a2.37,2.37,0,0,1,1.44,1.84,12.69,12.69,0,0,0,.74,2.53h-.7a12,12,0,0,1-.61-2.18c-.29-1.3-.89-1.91-2.12-2h-1.73v4.16h-.66Zm.66,4.26h1.75c1.5,0,2.44-.78,2.44-1.95,0-1.46-1.2-2-2.65-2a6.53,6.53,0,0,0-1.54.15Z" transform="translate(-162.3 -71.58)"/><path class="cls-8" d="M464.52,308.87h-4v4H465v.55h-5.16V304.3h4.94v.56h-4.28v3.46h4Z" transform="translate(-162.3 -71.58)"/><path class="cls-8" d="M375.76,323.15c-.1-1.43-.23-3.3-.23-4.33h0c-.39,1-.83,2.15-1.45,3.61l-2.23,5.28h-.53l-2.09-5.21c-.61-1.5-1.05-2.65-1.37-3.68h0c-.05,1.12-.12,2.88-.25,4.47l-.34,4.42h-.69l.77-9.66h.81l2.32,5.76c.49,1.2.86,2.21,1.14,3.08h0c.26-.82.65-1.79,1.19-3.07l2.44-5.77h.83l.69,9.66h-.69Z" transform="translate(-162.3 -71.58)"/><path class="cls-8" d="M380,324.31l-1.33,3.4h-.73l3.89-9.66h.69l3.87,9.66h-.73l-1.36-3.4Zm4.07-.59-1.36-3.39a15.09,15.09,0,0,1-.53-1.54h0a14.35,14.35,0,0,1-.53,1.49l-1.38,3.44Z" transform="translate(-162.3 -71.58)"/><path class="cls-8" d="M387.88,327.71v-9.66h.66l4.37,5.95a33.4,33.4,0,0,1,2,2.82l0,0c-.1-1.12-.11-2.26-.11-3.75v-5h.69v9.66h-.65L390.61,322c-.82-1.12-1.57-2.13-2.08-3l0,0c.08,1.09.09,2.13.09,3.56v5.16Z" transform="translate(-162.3 -71.58)"/><path class="cls-8" d="M399.23,324.31l-1.34,3.4h-.73l3.9-9.66h.69l3.87,9.66h-.74l-1.36-3.4Zm4.06-.59-1.36-3.39c-.25-.65-.38-1.06-.53-1.54h0c-.15.49-.31.92-.54,1.49l-1.37,3.44Z" transform="translate(-162.3 -71.58)"/><path class="cls-8" d="M414.87,327.22a8.94,8.94,0,0,1-3.24.59,5.41,5.41,0,0,1-3.86-1.38,4.93,4.93,0,0,1-1.4-3.57c0-2.26,1.72-4.91,5.6-4.91a6.55,6.55,0,0,1,2.58.49l-.23.57a5.49,5.49,0,0,0-2.38-.47c-3.16,0-4.84,2-4.84,4.35s1.71,4.33,4.66,4.33a5.53,5.53,0,0,0,2.41-.4v-3.31h-2.5v-.58h3.2Z" transform="translate(-162.3 -71.58)"/><path class="cls-8" d="M422,322.91h-4.3v4.21h4.78v.59H417v-9.66h5.24v.59h-4.54v3.68H422Z" transform="translate(-162.3 -71.58)"/><path class="cls-8" d="M433.27,323.15c-.1-1.43-.23-3.3-.23-4.33h0c-.39,1-.83,2.15-1.44,3.61l-2.24,5.28h-.53l-2.09-5.21c-.6-1.5-1-2.65-1.36-3.68h0c0,1.12-.12,2.88-.25,4.47l-.34,4.42H424l.78-9.66h.8l2.32,5.76c.49,1.2.86,2.21,1.15,3.08h0c.25-.82.64-1.79,1.18-3.07l2.44-5.77h.83l.69,9.66h-.69Z" transform="translate(-162.3 -71.58)"/><path class="cls-8" d="M441.45,322.91h-4.3v4.21h4.78v.59h-5.49v-9.66h5.25v.59h-4.54v3.68h4.3Z" transform="translate(-162.3 -71.58)"/><path class="cls-8" d="M443.76,327.71v-9.66h.66l4.37,5.95a30.8,30.8,0,0,1,2,2.82l0,0c-.1-1.12-.11-2.26-.11-3.75v-5h.69v9.66h-.65L446.49,322c-.82-1.12-1.57-2.13-2.08-3l-.05,0c.08,1.09.09,2.13.09,3.56v5.16Z" transform="translate(-162.3 -71.58)"/><path class="cls-8" d="M455.92,318.64h-3.59v-.59h7.89v.59h-3.6v9.07h-.7Z" transform="translate(-162.3 -71.58)"/><path class="cls-8" d="M384.81,340.89a4.25,4.25,0,0,0,2.39.72c1.57,0,2.51-.83,2.51-2s-.56-1.73-2.18-2.25c-1.93-.62-2.7-1.4-2.7-2.66,0-1.42,1.21-2.48,3-2.48a4.21,4.21,0,0,1,2.15.48l-.27.59a3.65,3.65,0,0,0-1.91-.5c-1.73,0-2.28,1.05-2.28,1.81,0,1,.62,1.62,2.18,2.12,1.76.57,2.71,1.26,2.71,2.82,0,1.33-1,2.68-3.28,2.68a4.84,4.84,0,0,1-2.58-.72Z" transform="translate(-162.3 -71.58)"/><path class="cls-8" d="M397.37,337.23h-4.29v4.21h4.78V342h-5.49v-9.66h5.25V333h-4.54v3.68h4.29Z" transform="translate(-162.3 -71.58)"/><path class="cls-8" d="M399.69,332.5a13.49,13.49,0,0,1,2.35-.22,3.79,3.79,0,0,1,2.82.86,2.35,2.35,0,0,1,.69,1.69,2.58,2.58,0,0,1-2,2.51v0a2.53,2.53,0,0,1,1.53,2,13.15,13.15,0,0,0,.79,2.7h-.75a13.77,13.77,0,0,1-.64-2.32c-.32-1.39-.95-2-2.26-2.11h-1.84V342h-.7Zm.7,4.53h1.86c1.6,0,2.6-.83,2.6-2.08,0-1.55-1.28-2.09-2.82-2.09a7.4,7.4,0,0,0-1.64.15Z" transform="translate(-162.3 -71.58)"/><path class="cls-8" d="M410.27,342l-3.52-9.66h.75l1.9,5.31c.53,1.49,1,2.63,1.25,3.63h0c.32-1,.81-2.21,1.39-3.61l2.14-5.33H415L411,342Z" transform="translate(-162.3 -71.58)"/><path class="cls-8" d="M416.63,332.37V342h-.7v-9.66Z" transform="translate(-162.3 -71.58)"/><path class="cls-8" d="M426.56,341.64a7.29,7.29,0,0,1-3,.56,4.77,4.77,0,0,1-5.1-5c0-2.52,1.86-5,5.48-5a6.12,6.12,0,0,1,2.61.48l-.23.59a5.56,5.56,0,0,0-2.33-.48c-3.14,0-4.8,1.9-4.8,4.51,0,2.38,1.59,4.3,4.62,4.3a5.94,5.94,0,0,0,2.55-.52Z" transform="translate(-162.3 -71.58)"/><path class="cls-8" d="M433.32,337.23H429v4.21h4.78V342h-5.48v-9.66h5.24V333H429v3.68h4.3Z" transform="translate(-162.3 -71.58)"/><path class="cls-8" d="M435.31,340.89a4.25,4.25,0,0,0,2.39.72c1.56,0,2.51-.83,2.51-2s-.56-1.73-2.18-2.25c-1.94-.62-2.71-1.4-2.71-2.66,0-1.42,1.22-2.48,3-2.48a4.2,4.2,0,0,1,2.14.48l-.27.59a3.61,3.61,0,0,0-1.9-.5c-1.74,0-2.28,1.05-2.28,1.81,0,1,.61,1.62,2.18,2.12,1.76.57,2.7,1.26,2.7,2.82,0,1.33-1,2.68-3.28,2.68a4.86,4.86,0,0,1-2.58-.72Z" transform="translate(-162.3 -71.58)"/><path class="cls-8" d="M406.76,284.08c1.58-.28,1.53-.28,1.59-2,0-.86-.18-1.18-1.09-1.13-1.38.07-2.77,0-4.16,0a4.51,4.51,0,0,1-4.55-3.28,4.58,4.58,0,0,1,2-5.26.88.88,0,0,0,.5-1.08,5.31,5.31,0,0,1,6.27-6.45c.6.11.85,0,1.11-.56a7.55,7.55,0,0,1,7.5-4.64,7.41,7.41,0,0,1,6.57,5.62c.22.78.71.82,1.32.87a7.4,7.4,0,0,1-.4,14.78c-.66,0-1.32,0-2,0a.83.83,0,0,1-1.17.17,4.61,4.61,0,0,0-2-.1,1.08,1.08,0,0,1-1.06,0c-1.76-.11-1.76-.11-1.76,1.66,0,4.19,0,8.37,0,12.56,0,1,.06,1.64,1.27,1.42a.13.13,0,0,1,.17.17c-1.26.68-2,.3-2-1.12,0-4,0-8,0-12.08a9.74,9.74,0,0,0,0-1.42,2.49,2.49,0,0,0-.09,1.11c0,3.76,0,7.53,0,11.29,0,.36,0,.73,0,1.09-.06,1.43-.73,1.81-2,1.14,1.4-.47,1.4-.47,1.4-2.18q0-6,0-12c0-1.61,0-1.61-1.57-1.65a1,1,0,0,1-1.1,0,3.65,3.65,0,0,0-1.91.12c-.49.13-.54.53-.58.93s0,.72,0,1.09-.13,1-.67,1.21A1.16,1.16,0,0,1,406.76,284.08Z" transform="translate(-162.3 -71.58)"/><path class="cls-8" d="M411.46,281a2.55,2.55,0,0,1,1.1,0c0,2.84-.05,5.69,0,8.53,0,.75-.23.95-1,.94-2.94,0-5.89,0-8.83,0-.7,0-1.09.13-1,.92,0,.18.05.44-.15.54s-.38-.17-.55-.3a12,12,0,0,0-1.41-1.05c-.67-.39-.49-.76,0-1.14s.77-.62,1.15-.93c.53-.44,1.05-.84,1,.35,0,.45.32.43.62.43h8.33c.71,0,.66-.44.65-.94C411.36,285.92,411.26,283.47,411.46,281Z" transform="translate(-162.3 -71.58)"/><path class="cls-8" d="M417.22,281h1.06a57.91,57.91,0,0,1,0,6.18c0,2.08,0,2.09,2.1,2.1,1.55,0,3.11,0,4.66,0,.58,0,1.05,0,1.12-.77.06-.53.4-.55.78-.27.21.16.38.37.6.52.45.32,1,.6,1.06,1.2a6.7,6.7,0,0,1-2.19,1.74c-.32,0-.41-.18-.37-.44.13-.83-.39-.82-1-.81-2.35,0-4.7,0-7.05,0-.63,0-.92-.23-.89-.87.12-2.71.1-5.42,0-8.13A2.63,2.63,0,0,1,417.22,281Z" transform="translate(-162.3 -71.58)"/><path class="cls-8" d="M412.72,296.84a4,4,0,0,1,.6,0c.8.12,1-.24,1-1q0-6.74,0-13.47c0-.46-.41-1.33.48-1.32s.46.87.46,1.33c0,4.3,0,8.59,0,12.88,0,1.68-.28,1.6,1.6,1.58a17.37,17.37,0,0,1-1.72,2.36c-.19.26-.38.23-.55,0A20.25,20.25,0,0,1,412.72,296.84Z" transform="translate(-162.3 -71.58)"/><path class="cls-8" d="M420.27,281.12a3.32,3.32,0,0,1,1.17-.17c0,.73,0,1.46,0,2.19,0,.33-.22.86.2,1a2.93,2.93,0,0,0,1.94,0c.46-.22,0-.93.35-1.44.74.57,1.46,1.14,2.19,1.69.25.2.34.38,0,.62-.75.63-1.49,1.27-2.28,1.95-.27-1.57-.27-1.57-1.89-1.57s-1.72,0-1.72-1.72C420.28,282.77,420.27,281.94,420.27,281.12Z" transform="translate(-162.3 -71.58)"/><path class="cls-8" d="M406.76,284.08c1.75.17,1.75.17,1.76-1.52,0-.23,0-.46,0-.68-.06-.82.24-1.12,1-.73,0,1.12,0,2.25,0,3.37,0,.58-.19.78-.74.73-.4,0-.79,0-1.19,0-1.44,0-1.44,0-1.61,1.5a15.9,15.9,0,0,1-2.45-1.79c-.32-.25,0-.41.15-.54.72-.63,1.46-1.23,2.17-1.83C406.51,282.93,405.47,284.17,406.76,284.08Z" transform="translate(-162.3 -71.58)"/><circle class="cls-18" cx="187.3" cy="14.13" r="14.13"/><path class="cls-8" d="M355.21,86.86v1.85h-1.83l.11,2.08h-7.78l.11-2.09H344V87.3a2.65,2.65,0,0,1,1.58-2.49l.27-.13,0,0-.13-.14A2.18,2.18,0,0,1,345,83a2.28,2.28,0,0,1,4.22-1.29.45.45,0,0,0,.67,0,2.28,2.28,0,0,1,4.1.44,2.22,2.22,0,0,1-.56,2.38l-.11.13a2.75,2.75,0,0,1,1.43,1.14A6.28,6.28,0,0,1,355.21,86.86Zm-2.48,3.24a2.55,2.55,0,0,0-2-2.87,7.83,7.83,0,0,0-1.68-.1,2.63,2.63,0,0,0-2,1,2.57,2.57,0,0,0-.59,2Zm-1.2-5.59a1.93,1.93,0,1,0-3.86,0,1.93,1.93,0,0,0,3.86,0ZM348,86.6a2.91,2.91,0,0,1-.93-1.32s-.11-.08-.17-.08a2.38,2.38,0,0,0-1.45.48,2.31,2.31,0,0,0-.75,2.32h1.35a.29.29,0,0,0,.27-.14,3.23,3.23,0,0,1,1.41-1.15Zm6.48,1.4a9.55,9.55,0,0,0,0-1.07,2.15,2.15,0,0,0-2.24-1.73c-.05,0-.14.09-.16.15a2.75,2.75,0,0,1-.69,1.05l-.19.18a7.92,7.92,0,0,1,1,.56c.28.23.51.54.77.8a.2.2,0,0,0,.15.06C353.54,88,354,88,354.49,88ZM347,84.44a2.69,2.69,0,0,1,1.64-2.39,1.51,1.51,0,0,0-1.69-.66,1.59,1.59,0,0,0-1.17,1.54A1.56,1.56,0,0,0,347,84.44Zm5.28,0A1.55,1.55,0,0,0,353.46,83a1.6,1.6,0,0,0-1.17-1.62,1.51,1.51,0,0,0-1.7.66A2.69,2.69,0,0,1,352.24,84.43Z" transform="translate(-162.3 -71.58)"/><circle class="cls-19" cx="63.46" cy="72.01" r="17.18"/><path class="cls-8" d="M225.75,136.21c2.37,0,4.74,0,7.1,0a1.08,1.08,0,0,1,1.13,1.14c0,3.31,0,6.63,0,9.94a1,1,0,0,1-.8,1.06,1.23,1.23,0,0,1-.27,0H218.59a1,1,0,0,1-1.05-1.06v-10a1,1,0,0,1,.74-1,1.54,1.54,0,0,1,.37,0Zm0,.24h-7.12a.79.79,0,0,0-.85.86v9.94a.77.77,0,0,0,.84.86h14.21a.79.79,0,0,0,.9-.9v-9.83c0-.64-.28-.93-.93-.93Z" transform="translate(-162.3 -71.58)"/><path class="cls-8" d="M216.32,148.6h18.85a1.84,1.84,0,0,1-1.62,2.38c-1,0-1.94,0-2.92,0-4.14,0-8.29,0-12.44,0a1.89,1.89,0,0,1-1.51-.66A1.83,1.83,0,0,1,216.32,148.6Zm9.44.24h-9c-.17,0-.23,0-.22.21a2.56,2.56,0,0,0,0,.39,1.6,1.6,0,0,0,1.63,1.3h15.19a1.61,1.61,0,0,0,1.66-1.65c0-.2-.06-.26-.26-.26Z" transform="translate(-162.3 -71.58)"/><path class="cls-8" d="M233.35,137.27v10H218.16v-10Zm-14.93.25V147h14.67v-9.52Z" transform="translate(-162.3 -71.58)"/><path class="cls-8" d="M226.9,149.9h-2.29v-.22h2.29Z" transform="translate(-162.3 -71.58)"/><path class="cls-8" d="M229.76,141.68v1.2c-.22,0-.44,0-.65,0s-.33,0-.39.28a6.4,6.4,0,0,1-.36.87l.63.62-.85.86-.6-.62-1.09.42a.2.2,0,0,0-.09.16c0,.27,0,.53,0,.81h-1.19c0-.25,0-.51,0-.76s0-.2-.19-.25c-.32-.11-.63-.24-1-.38l-.61.64-.86-.88.63-.57c-.15-.41-.28-.76-.42-1.11a.23.23,0,0,0-.17-.08h-.8v-1.2h.79c.12,0,.16,0,.2-.15.11-.33.25-.65.4-1l-.65-.59.88-.88.59.63,1.11-.42a.2.2,0,0,0,.07-.15c0-.27,0-.53,0-.81h1.2c0,.27,0,.54,0,.8a.21.21,0,0,0,.09.17l1.07.4.61-.65.85.87-.63.59c.16.42.29.78.44,1.13,0,0,.1.08.15.08Zm-6.3-1.21-.61,1.46H222c0,.19,0,.36,0,.53s0,.18.19.18h.67l.62,1.47-.6.55.53.53.56-.6,1.44.6c0,.2,0,.46,0,.71,0,.05.05.14.08.14h.61v-.93a3.16,3.16,0,0,0,1.43-.59l.62.66.51-.53-.61-.56.61-1.46h.7s.14,0,.14-.09c0-.2,0-.4,0-.61h-.86l-.61-1.47.6-.56-.53-.54-.56.62-1.45-.6v-.85h-.7v.85l-1.48.62-.54-.59-.52.49Z" transform="translate(-162.3 -71.58)"/><path class="cls-8" d="M225.76,140.26a2,2,0,1,1-2,2A2,2,0,0,1,225.76,140.26Zm-1.77,2a1.76,1.76,0,0,0,1.76,1.77,1.76,1.76,0,1,0,0-3.52A1.77,1.77,0,0,0,224,142.27Z" transform="translate(-162.3 -71.58)"/></g></svg>