<?xml version="1.0" standalone="no"?>
<!DOCTYPE svg PUBLIC "-//W3C//DTD SVG 20010904//EN"
 "http://www.w3.org/TR/2001/REC-SVG-20010904/DTD/svg10.dtd">
<svg version="1.0" xmlns="http://www.w3.org/2000/svg"
 width="880.000000pt" height="619.000000pt" viewBox="0 0 880.000000 619.000000"
 preserveAspectRatio="xMidYMid meet">

<g transform="translate(0.000000,619.000000) scale(0.100000,-0.100000)"
fill="#000000" stroke="none">
<path d="M4410 5560 l0 -230 248 2 247 3 0 225 0 225 -247 3 -248 2 0 -230z"/>
<path d="M3227 5233 c-4 -3 -7 -105 -7 -225 l0 -218 250 0 250 0 0 225 0 225
-243 0 c-134 0 -247 -3 -250 -7z"/>
<path d="M3820 5015 l0 -225 245 0 245 0 0 225 0 225 -245 0 -245 0 0 -225z"/>
<path d="M4410 5015 l0 -225 250 0 250 0 -2 223 -3 222 -247 3 -248 2 0 -225z"/>
<path d="M5982 5035 c-94 -148 -134 -283 -134 -455 0 -116 16 -196 62 -296
l28 -61 -34 -17 c-19 -9 -69 -26 -112 -38 l-77 -23 -1721 -3 -1722 -2 -5 -23
c-26 -101 -14 -356 23 -535 109 -521 453 -922 920 -1071 239 -76 368 -94 670
-94 263 1 427 16 663 64 796 159 1424 646 1754 1359 l53 115 119 11 c66 7 144
17 173 24 125 30 264 117 335 212 36 48 137 228 131 233 -169 119 -291 152
-525 142 -123 -6 -133 -5 -133 12 0 27 -45 151 -71 196 -63 110 -156 207 -282
294 -32 23 -59 41 -60 41 -1 -1 -26 -39 -55 -85z"/>
<path d="M2630 4465 l0 -225 248 2 247 3 3 223 2 222 -250 0 -250 0 0 -225z"/>
<path d="M3220 4465 l0 -225 250 0 250 0 0 225 0 225 -250 0 -250 0 0 -225z"/>
<path d="M3820 4465 l0 -225 245 0 245 0 0 225 0 225 -245 0 -245 0 0 -225z"/>
<path d="M4410 4465 l0 -225 250 0 250 0 0 225 0 225 -250 0 -250 0 0 -225z"/>
<path d="M5000 4465 l0 -225 250 0 250 0 0 225 0 225 -250 0 -250 0 0 -225z"/>
<path d="M2091 1944 l-31 -26 0 -264 c0 -161 -4 -264 -10 -264 -5 0 -32 14
-60 30 -221 131 -484 97 -666 -84 -280 -280 -184 -740 186 -896 83 -34 263
-40 357 -12 128 39 262 148 322 261 65 123 64 119 69 650 2 267 1 505 -3 530
-14 92 -98 131 -164 75z m-306 -655 c158 -41 266 -173 266 -326 0 -38 -3 -82
-7 -99 -21 -87 -95 -178 -186 -226 -37 -20 -57 -23 -148 -23 -96 0 -110 3
-158 28 -70 37 -123 91 -158 163 -25 51 -29 70 -29 144 0 96 26 166 85 233 80
91 222 136 335 106z"/>
<path d="M4628 1941 l-33 -29 -3 -694 c-2 -381 0 -708 3 -727 10 -51 45 -81
98 -81 34 0 50 6 71 26 l26 27 0 197 0 197 63 42 62 41 40 -43 c22 -24 69 -76
105 -116 36 -41 70 -79 75 -85 6 -6 44 -49 85 -96 164 -186 169 -190 217 -190
33 0 50 6 68 24 48 49 43 101 -18 166 -18 19 -82 91 -142 160 -60 69 -112 127
-115 130 -41 38 -131 153 -127 162 2 7 97 73 210 146 217 141 237 161 222 219
-9 40 -43 72 -81 79 -41 7 -42 7 -368 -206 -235 -153 -279 -180 -290 -180 -3
0 -6 178 -6 396 0 252 -4 402 -10 415 -13 24 -61 49 -94 49 -14 0 -40 -13 -58
-29z"/>
<path d="M2782 1485 c-171 -37 -333 -183 -394 -353 -28 -80 -35 -228 -14 -309
46 -183 192 -340 364 -393 89 -28 245 -28 334 0 113 35 237 132 302 237 14 24
38 78 52 120 24 70 26 89 21 183 -3 76 -11 121 -27 165 -101 264 -365 409
-638 350z m266 -220 c72 -32 142 -102 175 -173 18 -38 22 -65 22 -142 0 -85
-3 -101 -28 -148 -40 -75 -90 -127 -155 -159 -51 -25 -68 -28 -157 -28 -89 0
-106 3 -157 28 -65 32 -115 84 -155 159 -25 47 -28 63 -28 148 1 112 19 163
87 236 102 111 256 142 396 79z"/>
<path d="M3995 1490 c-77 -16 -155 -52 -216 -97 -342 -257 -285 -761 107 -945
68 -32 71 -33 214 -33 l145 0 75 36 c141 68 193 136 156 207 -34 65 -89 69
-177 12 -80 -51 -125 -63 -224 -58 -64 3 -91 10 -133 33 -98 53 -153 124 -179
231 -14 56 -14 75 -4 132 22 122 86 204 201 259 45 22 69 27 135 27 89 1 133
-14 219 -71 58 -40 99 -42 141 -9 26 21 30 30 30 76 0 47 -3 54 -35 81 -95 80
-196 119 -325 124 -49 2 -108 0 -130 -5z"/>
<path d="M6060 1486 c-184 -40 -349 -198 -404 -385 -20 -69 -21 -218 -1 -294
24 -93 63 -157 144 -238 126 -126 225 -164 412 -157 114 4 120 5 201 45 131
66 176 125 148 194 -14 33 -55 59 -93 59 -14 0 -49 -16 -78 -37 -29 -20 -73
-42 -98 -50 -67 -20 -171 -17 -235 8 -71 26 -152 99 -182 164 l-24 50 411 5
411 5 30 34 c30 33 30 36 24 105 -12 142 -59 241 -160 342 -137 137 -320 191
-506 150z m223 -206 c83 -26 157 -83 197 -153 16 -28 30 -58 30 -64 0 -10 -73
-13 -331 -13 l-330 0 7 23 c27 88 134 184 236 211 74 20 115 19 191 -4z"/>
<path d="M6858 1471 l-33 -29 -3 -473 c-3 -497 -1 -514 42 -544 35 -25 99 -19
130 11 l26 27 0 253 c0 278 7 332 52 411 82 147 251 204 432 147 46 -14 57
-15 82 -3 38 18 69 76 60 112 -18 74 -111 112 -276 111 -125 0 -180 -15 -283
-76 -58 -34 -67 -35 -67 -4 0 14 -13 38 -31 55 -41 41 -86 42 -131 2z"/>
</g>
</svg>
