<svg id="layer" xmlns="http://www.w3.org/2000/svg" viewBox="0 0 373.82 194.23"><defs><style>.cls-1{fill:#e16b26;}.cls-1,.cls-2{fill-rule:evenodd;}.cls-2,.cls-3{fill:#434243;}</style></defs><path class="cls-1" d="M447.82,286.71c-.31-.68-.5-1.06-.62-1.37-4.67-8.9-9.34-17.81-14.07-26.65a1.57,1.57,0,0,1,.25-2.18q11.21-13.06,22.29-26.15a2.58,2.58,0,0,0,.62-1.18c-2.18.56-4.36,1.12-6.48,1.68-9,2.37-18,4.73-27,7.16a1.16,1.16,0,0,1-1.61-.68c-5.11-8.54-10.28-17.07-15.38-25.6a3.42,3.42,0,0,0-1.13-1.24c-.43,2.3-.8,4.54-1.24,6.85q-2.14,12-4.3,24.09c-.12.88-.37,1.75-.43,2.62s-.5,1.12-1.25,1.37q-15.87,4.95-31.75,10a3.22,3.22,0,0,0-1.44.81c8.66,3.43,17.31,6.92,26.16,10.4-.32.25-.5.44-.75.62-5.42,3.49-10.84,7-16.25,10.53a1.59,1.59,0,0,1-1.87.12q-9.72-4.38-19.43-8.65a20.35,20.35,0,0,1-7.59-5.54c-4.61-5.67-3.68-12,2.43-15.94a27.74,27.74,0,0,1,6.53-3q15.6-5.06,31.2-9.9a1.73,1.73,0,0,0,1.43-1.62q2.06-12,4.3-24.1c.74-4.29,1.18-8.72,3.3-12.64a19.81,19.81,0,0,1,2.92-4.23c4.11-4.61,9.9-4.8,14.26-.38a29.34,29.34,0,0,1,3.86,5c4.8,7.84,9.53,15.75,14.26,23.66a1.61,1.61,0,0,0,2.12.87c11.64-3.12,23.22-6.17,34.87-9.28a17,17,0,0,1,7.28-.44c5.36,1,7.72,5.11,5.92,10.28a19.11,19.11,0,0,1-3.86,6.22c-8.1,9.53-16.19,19.12-24.35,28.65a1.65,1.65,0,0,0-.25,2.18c4.86,9.15,9.65,18.3,14.51,27.52a14.66,14.66,0,0,1,2.05,7,11.28,11.28,0,0,1-9.83,11.27,20.79,20.79,0,0,1-9.16-1.12c-7.28-2.24-14.57-4.48-21.85-6.66a1.26,1.26,0,0,1-1.06-1.19c-.81-5.1-1.74-10.27-2.62-15.38a2.55,2.55,0,0,1,.07-.62c8.09,2.24,16.31,4.49,24.9,6.85" transform="translate(-106.05 -188.74)"/><path class="cls-2" d="M433.63,361.55c-6.6,0-13.14-.06-19.74,0a2,2,0,0,1-1.87-1q-11.67-17.74-23.41-35.49c-.25-.38-.5-.75-.94-1.37-1.68,12.76-3.3,25.28-5,37.79H365.57c.19-1.68.37-3.3.56-4.92l5-38.48c1.62-12.26,3.24-24.53,4.86-36.73a1.53,1.53,0,0,1,.62-1c5.92-3.86,11.83-7.66,17.81-11.52.06-.06.19-.06.5-.12-1.81,13.69-3.61,27.27-5.36,40.9.07.07.13.13.19.13,9.34-10.34,18.62-20.67,28.15-31.2.24,1.62.49,2.93.74,4.3.69,3.92,1.31,7.78,2,11.71a1.88,1.88,0,0,1-.56,1.8c-6,6.29-12,12.64-18.05,18.93-.25.25-.5.56-.81.87a7.7,7.7,0,0,0,.56.87q15.49,21.86,31.13,43.65a3.76,3.76,0,0,0,.69.69v.18Z" transform="translate(-106.05 -188.74)"/><path class="cls-2" d="M184.25,356.76c-.49,3.8-1,7.41-1.49,11l-1.87,14.38c-.06.56-.25.81-.87.81h-14.2c-.12,0-.18-.06-.49-.12.31-2.24.56-4.55.87-6.79,1.06-8,2.05-15.88,3.11-23.85,1.18-9.09,2.18-18.24,3.74-27.27,2.74-16,16.31-29.76,32.25-33.19,9.22-2,18.06-1.05,26.15,4.11A29.2,29.2,0,0,1,245.15,318c1.49,13.39-3.42,24.47-13,33.62a40.16,40.16,0,0,1-22.29,11.15c-8.84,1.31-17.19-.13-24.66-5.36-.25-.18-.56-.37-1-.68m45.46-33a35.25,35.25,0,0,0-1.06-5.17c-2.86-8.9-12-13.76-21.42-11.58-10.34,2.43-17.75,10.52-18.8,21.11A17.15,17.15,0,0,0,199.7,346.3c6.28,2.3,12.39,1.31,18-2.06,7.47-4.48,11.52-11.08,12-20.48" transform="translate(-106.05 -188.74)"/><path class="cls-2" d="M176.53,280.8c-5.29,3.92-10.39,7.72-15.56,11.58-.81-1.31-1.56-2.62-2.43-3.8-2.24-3.11-5-5.42-9-5.73a10,10,0,0,0-8.47,3.3,5.91,5.91,0,0,0-.37,7.85c2.12,2.74,4.36,5.35,6.72,7.9,3.86,4.24,8,8.29,11.77,12.46,3.49,3.86,6.29,8.15,7.16,13.45a27.71,27.71,0,0,1-3.17,17.68c-5.48,10.15-14.08,16.06-25.47,17.93a33.69,33.69,0,0,1-14.94-.81c-6.54-1.93-11-6.16-13.95-12.2-1.06-2.12-1.81-4.36-2.74-6.66,5.73-3.05,11.21-6,16.87-9a12.21,12.21,0,0,0,.5,1.24,44.72,44.72,0,0,0,2.93,5.73c3.55,5.23,9.21,6.85,14.94,4.24a16.64,16.64,0,0,0,4.11-2.68c3.74-3.3,4.42-7.91,1.68-12a54.91,54.91,0,0,0-5.48-6.66c-4.6-5.11-9.4-10-13.88-15.26a24.24,24.24,0,0,1-5.86-12.57,21.27,21.27,0,0,1,3.06-14.57c6.78-11,16.62-16.69,29.63-16.19,7.41.25,13.33,3.73,17.94,9.52,1.37,1.68,2.67,3.43,4,5.3" transform="translate(-106.05 -188.74)"/><path class="cls-2" d="M302.37,339.64c-.87,6.6-1.68,12.89-2.55,19.17a1.43,1.43,0,0,1-.56.88c-12.83,5.91-29.7,5.1-40.23-6.85a30.82,30.82,0,0,1-7.65-22.54c.81-19.62,17.12-36.8,36.55-39.17,11.39-1.37,21.35,1.68,29.07,10.52a29.6,29.6,0,0,1,7.35,21.11c-.25,5.23-1.06,10.46-1.74,15.69-.94,7.41-1.93,14.76-2.93,22.17-.06.25-.06.5-.12.87H304.24c.19-1.68.37-3.36.62-5,1.12-8.53,2.31-17.06,3.3-25.59.62-5.3.25-10.59-2.18-15.51a14.84,14.84,0,0,0-12.64-8.59,24,24,0,0,0-25.59,18.56c-1.68,7.65.94,15,7.1,19.11,6,4,12.33,4,18.8,1.43a25.94,25.94,0,0,0,8.72-6.22" transform="translate(-106.05 -188.74)"/><path class="cls-2" d="M366.94,292.63c-.68,5.29-1.37,10.58-2.12,15.87h-9.59a6.11,6.11,0,0,0-5.72,4.11,14.32,14.32,0,0,0-.56,2.93q-2.43,18.3-4.8,36.61c-.43,3.05-.81,6.17-1.18,9.28H327c.31-2.37.56-4.61.87-6.91C329,346.61,330,338.7,331,330.79c.94-6.84,1.75-13.69,2.8-20.54,1.44-9.16,10.53-17.25,19.74-17.69,4.42-.12,8.84.07,13.39.07" transform="translate(-106.05 -188.74)"/><path class="cls-3" d="M440.72,354.46v7h-1.3v-7h-2.56V353.4h6.42v1.06Zm11.71,7v-6.72h-.06l-2.68,6.72h-.87l-2.62-6.72h-.06v6.72h-1.31V353.4h2.06l2.43,6.16,2.36-6.16h2.06v8.09Z" transform="translate(-106.05 -188.74)"/><path class="cls-3" d="M202.5,273.32h-6.6l-2.12,4.11h-4.67l10.27-19.24h4.49l3.48,19.24h-4.29ZM198,269.46h4l-.94-6Z" transform="translate(-106.05 -188.74)"/><path class="cls-3" d="M220.37,258.19h6.16c3.24,0,5.48,1.93,5.48,5.23a6.7,6.7,0,0,1-7.1,7h-2.67l-1.25,7h-4Zm5.73,3.86h-2.37l-.81,4.43h2.37a2.46,2.46,0,0,0,2.55-2.68,1.64,1.64,0,0,0-1.74-1.75" transform="translate(-106.05 -188.74)"/><path class="cls-3" d="M250.26,273.32h-6.6l-2.12,4.11h-4.67l10.27-19.24h4.49l3.48,19.24h-4.29Zm-4.61-3.86h4l-.93-6Z" transform="translate(-106.05 -188.74)"/><path class="cls-3" d="M276.28,276.75a10.65,10.65,0,0,1-4.36,1c-5.1,0-8.28-3.8-8.28-8.6a11.43,11.43,0,0,1,11.27-11.27,8.31,8.31,0,0,1,4,1l-.56,4.61a5.16,5.16,0,0,0-3.92-1.56,6.91,6.91,0,0,0-6.6,6.85c0,2.8,1.74,5,4.54,5a6.89,6.89,0,0,0,4.42-1.56Z" transform="translate(-106.05 -188.74)"/><polygon class="cls-3" points="194.76 80.91 186.42 80.91 185.05 88.69 181 88.69 184.43 69.45 188.41 69.45 187.11 77.05 195.45 77.05 196.82 69.45 200.81 69.45 197.44 88.69 193.4 88.69 194.76 80.91"/><polygon class="cls-3" points="209.46 88.69 212.88 69.45 223.53 69.45 222.85 73.31 216.18 73.31 215.56 77.05 221.66 77.05 220.98 80.91 214.88 80.91 214.19 84.83 220.85 84.83 220.17 88.69 209.46 88.69"/></svg>