<svg id="svg" version="1.1" xmlns="http://www.w3.org/2000/svg" xmlns:xlink="http://www.w3.org/1999/xlink" width="400" height="200" viewBox="0, 0, 400,200"><g id="svgg"><path id="path0" d="M30.648 103.750 C 30.675 121.653,30.721 130.707,30.750 123.871 C 30.791 114.190,30.858 111.421,31.052 111.349 C 31.188 111.298,31.593 111.272,31.950 111.293 C 32.307 111.313,32.989 111.346,33.464 111.365 C 34.140 111.392,34.498 111.552,35.114 112.101 C 35.546 112.487,36.080 112.858,36.300 112.926 C 36.520 112.994,37.200 113.355,37.810 113.729 C 40.292 115.247,46.652 115.346,48.800 113.900 C 49.185 113.640,49.995 113.198,50.600 112.918 C 51.731 112.392,53.777 110.799,54.059 110.224 C 54.224 109.887,56.285 108.400,56.587 108.400 C 56.681 108.400,57.015 108.702,57.329 109.071 C 58.341 110.260,58.476 110.387,60.123 111.703 C 61.016 112.416,61.844 113.000,61.962 113.000 C 62.199 113.000,63.641 113.800,63.800 114.020 C 64.249 114.641,67.693 114.920,68.080 114.367 C 68.595 113.632,68.566 80.699,68.050 80.434 C 67.858 80.335,64.550 80.199,60.700 80.131 C 53.147 79.999,51.676 79.853,50.219 79.091 C 49.488 78.709,48.755 78.550,46.987 78.391 C 44.169 78.137,43.136 77.882,42.548 77.294 C 42.264 77.009,41.719 76.783,41.097 76.691 C 39.671 76.479,38.685 76.095,38.051 75.504 C 37.748 75.221,37.058 74.857,36.517 74.696 C 35.462 74.380,34.800 73.906,34.800 73.465 C 34.800 73.180,34.281 72.909,33.360 72.713 C 33.039 72.644,32.712 72.375,32.553 72.049 C 32.376 71.685,32.137 71.505,31.843 71.516 C 31.599 71.525,31.400 71.457,31.400 71.366 C 31.400 71.275,31.220 71.200,31.000 71.200 C 30.601 71.200,30.600 71.317,30.648 103.750 M188.088 82.500 C 188.088 85.690,188.116 86.967,188.150 85.338 C 188.183 83.709,188.183 81.099,188.149 79.538 C 188.116 77.977,188.088 79.310,188.088 82.500 M229.150 106.538 C 228.821 106.624,228.800 107.411,228.800 119.515 L 228.800 132.400 231.500 132.400 L 234.200 132.400 234.216 131.050 C 234.224 130.308,234.283 129.835,234.346 130.000 C 234.513 130.439,234.821 130.593,235.539 130.597 C 236.146 130.600,236.180 130.641,236.239 131.450 L 236.300 132.300 239.900 132.300 L 243.500 132.300 243.559 131.399 L 243.618 130.499 244.509 130.569 L 245.400 130.640 245.400 131.520 L 245.400 132.400 250.900 132.400 L 256.400 132.400 256.400 131.511 L 256.400 130.622 257.350 130.561 L 258.300 130.500 258.359 128.931 C 258.443 126.668,258.553 126.731,254.723 126.842 C 251.705 126.929,251.518 126.957,251.169 127.389 C 250.812 127.830,250.800 127.831,250.800 127.434 C 250.800 127.102,250.630 126.999,249.900 126.890 C 249.133 126.774,249.000 126.687,249.000 126.294 C 249.000 125.560,248.790 125.203,248.329 125.155 C 248.093 125.130,250.240 125.063,253.100 125.005 L 258.300 124.900 258.357 120.800 C 258.427 115.696,258.449 115.800,257.296 115.800 L 256.400 115.800 256.400 114.926 C 256.400 113.817,256.337 113.804,250.900 113.804 C 245.463 113.804,245.400 113.817,245.400 114.926 L 245.400 115.800 244.538 115.800 C 243.688 115.800,243.674 115.789,243.488 114.950 L 243.300 114.100 242.200 113.970 C 240.736 113.797,237.884 113.774,236.950 113.928 C 236.217 114.050,236.200 114.072,236.200 114.926 L 236.200 115.800 235.317 115.800 C 234.797 115.800,234.392 115.903,234.332 116.050 C 234.277 116.188,234.224 114.128,234.216 111.473 L 234.200 106.647 233.750 106.526 C 233.240 106.389,229.684 106.398,229.150 106.538 M125.048 120.350 L 125.100 132.300 132.400 132.300 L 139.700 132.300 139.761 131.450 L 139.823 130.600 140.711 130.600 L 141.600 130.600 141.600 129.711 L 141.600 128.822 142.550 128.761 L 143.500 128.700 143.561 127.750 C 143.621 126.815,143.633 126.800,144.301 126.800 C 144.737 126.800,145.053 126.675,145.184 126.450 C 145.332 126.196,145.390 126.685,145.394 128.229 C 145.401 130.542,145.430 130.600,146.605 130.600 C 147.135 130.600,147.182 130.662,147.239 131.450 L 147.300 132.300 154.376 132.353 C 159.433 132.390,161.531 132.340,161.726 132.178 C 162.070 131.893,162.132 120.620,161.793 119.987 C 161.649 119.719,161.373 119.600,160.893 119.600 L 160.200 119.600 160.200 118.550 L 160.199 117.500 162.000 117.564 L 163.800 117.628 163.800 124.086 C 163.800 127.638,163.857 130.962,163.927 131.472 L 164.054 132.400 168.511 132.400 C 171.888 132.400,172.991 132.340,173.068 132.150 C 173.148 131.950,173.172 131.950,173.184 132.150 C 173.204 132.459,187.114 132.512,187.600 132.204 C 187.946 131.986,188.157 122.484,187.856 120.678 C 187.698 119.732,187.669 119.698,186.962 119.639 L 186.231 119.578 186.166 116.998 C 186.121 115.225,186.019 114.338,185.840 114.159 C 185.598 113.918,176.731 113.769,173.800 113.958 C 173.305 113.990,172.113 113.955,171.150 113.880 L 169.400 113.744 169.400 112.212 C 169.400 110.188,169.417 110.200,166.483 110.200 C 163.669 110.200,163.808 110.085,163.803 112.422 L 163.800 113.744 162.074 113.851 C 161.044 113.916,160.288 114.057,160.199 114.202 C 160.083 114.390,160.029 114.386,159.962 114.186 C 159.858 113.874,150.469 113.672,148.500 113.939 L 147.300 114.102 147.300 116.701 L 147.300 119.300 148.344 119.400 C 149.212 119.483,149.356 119.551,149.197 119.800 C 149.092 119.965,149.005 120.337,149.003 120.627 C 149.000 121.171,148.612 121.391,147.650 121.397 C 147.252 121.400,147.200 121.502,147.200 122.280 L 147.200 123.160 146.304 123.231 L 145.407 123.302 145.354 118.704 C 145.302 114.280,145.285 114.103,144.900 114.045 C 143.552 113.841,143.600 113.902,143.600 112.383 C 143.600 110.545,143.409 110.200,142.393 110.200 C 141.650 110.200,141.600 110.163,141.600 109.614 C 141.600 108.376,141.769 108.400,132.984 108.400 L 124.997 108.400 125.048 120.350 M197.407 108.787 C 197.271 109.040,197.200 113.044,197.200 120.400 C 197.200 127.756,197.271 131.760,197.407 132.013 C 197.606 132.385,197.900 132.400,204.807 132.400 L 212.000 132.400 212.000 131.449 L 212.000 130.497 212.900 130.569 C 213.664 130.629,213.800 130.705,213.803 131.070 C 213.804 131.307,213.860 131.703,213.926 131.950 L 214.047 132.400 220.423 132.400 L 226.800 132.400 226.800 124.100 L 226.800 115.800 225.900 115.800 L 225.000 115.800 225.000 114.909 C 225.000 113.753,225.013 113.755,218.962 113.836 C 213.477 113.910,213.940 113.706,213.835 116.101 C 213.705 119.084,213.813 119.400,214.961 119.400 L 215.903 119.400 215.833 120.277 C 215.755 121.263,215.457 121.393,213.273 121.398 C 211.983 121.401,212.006 121.325,212.003 125.550 L 212.000 128.800 207.400 128.800 L 202.800 128.800 202.800 118.600 L 202.800 108.400 200.207 108.400 C 197.848 108.400,197.595 108.435,197.407 108.787 M271.400 109.289 L 271.400 110.178 270.450 110.239 L 269.500 110.300 269.443 114.400 C 269.373 119.504,269.351 119.400,270.504 119.400 L 271.400 119.400 271.400 120.300 L 271.400 121.200 273.189 121.200 L 274.978 121.200 275.039 122.150 L 275.100 123.100 275.950 123.161 C 276.708 123.216,276.800 123.277,276.800 123.725 C 276.800 124.639,277.141 125.000,278.007 125.000 L 278.800 125.000 278.800 125.900 L 278.800 126.800 278.040 126.800 C 277.082 126.800,276.800 127.082,276.800 128.040 L 276.800 128.800 275.900 128.800 L 275.000 128.800 275.000 128.007 C 275.000 126.898,274.669 126.776,271.851 126.844 L 269.500 126.900 269.500 129.600 L 269.500 132.300 275.900 132.300 L 282.300 132.300 282.360 131.486 C 282.417 130.708,282.456 130.665,283.260 130.486 L 284.100 130.300 284.154 126.245 C 284.215 121.682,284.153 121.400,283.093 121.400 C 282.445 121.400,282.400 121.358,282.397 120.750 C 282.392 119.652,282.180 119.511,280.408 119.431 L 278.800 119.358 278.800 118.795 C 278.800 117.655,278.706 117.600,276.779 117.600 L 275.000 117.600 275.000 115.700 L 275.000 113.800 275.900 113.800 L 276.800 113.800 276.800 112.900 L 276.800 112.000 277.800 112.000 L 278.800 112.000 278.800 112.900 L 278.800 113.800 281.150 113.830 C 282.443 113.846,283.249 113.898,282.942 113.944 L 282.385 114.028 282.442 115.764 L 282.500 117.500 284.350 117.558 L 286.200 117.615 286.200 125.008 L 286.200 132.400 290.679 132.400 C 295.606 132.400,295.400 132.455,295.400 131.132 C 295.400 129.985,297.155 130.307,297.239 131.469 L 297.300 132.300 303.500 132.353 C 310.311 132.412,310.200 132.431,310.200 131.200 C 310.200 130.747,310.315 130.651,311.050 130.488 L 311.900 130.300 311.956 123.500 C 312.021 115.519,312.056 115.800,311.008 115.800 C 310.228 115.800,310.223 115.795,310.161 114.950 L 310.100 114.100 309.000 113.970 C 307.567 113.800,298.922 113.768,297.950 113.928 C 297.217 114.050,297.200 114.072,297.200 114.926 L 297.200 115.800 296.300 115.800 L 295.400 115.800 295.400 115.012 C 295.400 114.019,295.321 113.976,293.281 113.849 L 291.600 113.744 291.600 112.093 C 291.600 110.103,291.755 110.200,288.584 110.200 L 286.200 110.200 286.200 112.000 L 286.200 113.800 284.993 113.800 C 283.862 113.800,283.799 113.776,283.993 113.413 C 284.341 112.763,284.257 109.086,283.886 108.714 C 283.614 108.442,282.752 108.400,277.486 108.400 L 271.400 108.400 271.400 109.289 M134.239 112.850 L 134.300 113.700 136.139 113.757 L 137.979 113.815 138.039 114.757 L 138.100 115.700 138.950 115.761 L 139.800 115.823 139.800 120.411 L 139.800 125.000 138.900 125.000 L 138.000 125.000 138.000 125.900 L 138.000 126.800 136.340 126.800 C 134.445 126.800,134.200 126.942,134.200 128.040 L 134.200 128.800 132.400 128.800 L 130.600 128.800 130.600 120.400 L 130.600 112.000 132.389 112.000 L 134.177 112.000 134.239 112.850 M314.136 114.093 C 313.795 114.434,313.594 131.232,313.921 132.084 C 314.019 132.339,314.384 132.400,315.818 132.400 L 317.593 132.400 317.646 127.750 L 317.700 123.100 318.300 123.038 C 319.183 122.946,319.400 122.516,319.400 120.862 L 319.400 119.400 320.300 119.400 L 321.200 119.400 321.200 118.514 L 321.200 117.627 323.100 117.564 L 325.001 117.500 325.000 118.450 L 325.000 119.400 326.140 119.400 C 327.027 119.400,327.227 119.453,327.040 119.640 C 326.908 119.772,326.800 120.167,326.800 120.517 C 326.800 121.180,326.476 121.391,325.450 121.397 C 325.050 121.400,325.000 121.501,325.000 122.300 L 325.000 123.200 324.100 123.200 L 323.200 123.200 323.200 126.779 C 323.200 130.687,323.173 130.600,324.405 130.600 C 324.935 130.600,324.982 130.662,325.039 131.450 L 325.100 132.300 332.176 132.353 C 340.130 132.412,339.792 132.475,339.816 130.926 C 339.824 130.361,339.877 130.013,339.933 130.150 C 339.988 130.288,340.386 130.457,340.817 130.526 C 341.479 130.632,341.600 130.726,341.600 131.139 C 341.600 132.407,341.573 132.400,346.507 132.400 L 351.000 132.400 351.000 133.270 L 351.000 134.139 349.255 134.320 L 347.510 134.500 347.343 135.350 C 347.177 136.197,347.174 136.200,346.288 136.200 L 345.400 136.200 345.400 135.321 C 345.400 134.705,345.306 134.407,345.084 134.321 C 344.562 134.121,340.867 134.184,340.292 134.403 L 339.757 134.606 339.831 136.921 C 339.930 140.067,339.228 139.800,347.398 139.800 C 354.706 139.800,354.600 139.817,354.600 138.664 C 354.600 138.109,354.685 137.990,355.150 137.892 C 356.384 137.632,356.295 138.527,356.352 125.752 L 356.403 114.047 355.952 113.926 C 355.354 113.766,344.407 113.803,343.006 113.970 L 341.911 114.100 341.744 114.950 C 341.597 115.697,341.511 115.800,341.038 115.803 C 340.037 115.809,339.943 116.006,339.840 118.328 C 339.775 119.789,339.690 120.348,339.578 120.047 C 339.451 119.703,339.254 119.600,338.722 119.600 L 338.031 119.600 337.965 116.916 C 337.929 115.440,337.826 114.158,337.735 114.068 C 337.587 113.920,328.159 113.827,325.700 113.950 C 325.150 113.977,322.399 113.945,319.586 113.878 C 314.964 113.769,314.439 113.789,314.136 114.093 M361.200 113.980 C 360.308 114.099,360.299 114.108,360.239 114.939 C 360.179 115.770,360.170 115.779,359.339 115.839 L 358.500 115.900 358.400 117.700 L 358.300 119.500 357.602 119.566 C 356.625 119.659,356.606 119.729,356.603 123.243 C 356.600 126.685,356.641 126.800,357.879 126.800 C 358.380 126.800,358.386 126.820,358.442 128.650 L 358.500 130.500 359.339 130.561 C 360.170 130.621,360.179 130.630,360.239 131.461 L 360.300 132.300 366.440 132.300 C 373.706 132.300,373.045 132.593,373.076 129.364 L 373.100 126.900 370.400 126.900 L 367.700 126.900 367.639 127.850 L 367.578 128.800 366.689 128.800 C 365.810 128.800,365.800 128.792,365.800 128.114 C 365.800 127.249,365.358 126.800,364.506 126.800 C 363.861 126.800,363.838 126.772,363.769 125.903 L 363.698 125.006 369.299 124.953 L 374.900 124.900 374.958 122.700 C 375.035 119.801,374.986 119.634,374.004 119.477 L 373.215 119.351 373.157 117.626 L 373.100 115.900 372.150 115.839 L 371.200 115.778 371.200 114.912 C 371.200 114.184,371.129 114.028,370.750 113.926 C 370.184 113.774,362.412 113.818,361.200 113.980 M243.600 117.200 C 243.600 117.454,243.472 117.594,243.250 117.584 C 243.041 117.575,243.001 117.528,243.150 117.468 C 243.288 117.412,243.400 117.239,243.400 117.083 C 243.400 116.928,243.445 116.800,243.500 116.800 C 243.555 116.800,243.600 116.980,243.600 117.200 M174.162 119.400 L 175.103 119.400 175.033 120.282 C 174.959 121.203,174.727 121.391,173.650 121.397 C 173.250 121.400,173.200 121.501,173.200 122.300 L 173.200 123.200 172.300 123.200 L 171.400 123.200 171.400 124.974 L 171.400 126.747 170.571 126.859 C 170.115 126.920,169.667 127.089,169.574 127.235 C 169.481 127.382,169.405 125.306,169.403 122.558 L 169.400 117.615 171.250 117.558 L 173.100 117.500 173.160 118.450 L 173.221 119.400 174.162 119.400 M154.631 118.500 L 154.703 119.400 153.700 119.400 L 152.697 119.400 152.769 118.500 L 152.840 117.600 153.700 117.600 L 154.560 117.600 154.631 118.500 M180.600 118.500 L 180.600 119.400 179.649 119.400 L 178.697 119.400 178.769 118.500 L 178.840 117.600 179.720 117.600 L 180.600 117.600 180.600 118.500 M221.200 117.875 C 221.200 118.026,221.256 118.431,221.325 118.775 L 221.450 119.400 220.425 119.400 L 219.400 119.400 219.400 118.500 L 219.400 117.600 220.300 117.600 C 220.930 117.600,221.200 117.682,221.200 117.875 M242.269 117.799 C 241.702 118.028,241.507 120.190,241.645 124.734 C 241.754 128.331,241.843 128.600,242.924 128.600 C 243.296 128.600,243.600 128.667,243.600 128.750 C 243.600 128.833,243.150 128.869,242.600 128.831 L 241.600 128.761 241.600 127.902 C 241.600 126.973,241.411 126.800,240.395 126.800 C 239.865 126.800,239.818 126.738,239.761 125.950 C 239.700 125.104,239.696 125.100,238.850 125.039 C 238.003 124.977,238.000 124.974,238.000 124.182 C 238.000 123.666,237.897 123.348,237.705 123.274 C 237.445 123.175,237.445 123.126,237.705 122.866 C 237.867 122.704,238.000 122.263,238.000 121.886 C 238.000 121.222,238.025 121.200,238.779 121.200 C 239.621 121.200,239.800 120.989,239.800 119.995 C 239.800 119.465,239.862 119.418,240.650 119.361 C 241.496 119.300,241.500 119.296,241.561 118.450 C 241.618 117.672,241.669 117.601,242.161 117.613 C 242.666 117.625,242.673 117.636,242.269 117.799 M294.200 117.746 C 293.647 117.956,293.606 118.283,293.603 122.550 L 293.600 126.800 293.150 126.803 C 292.312 126.808,291.823 127.039,291.738 127.470 C 291.692 127.707,291.642 125.583,291.627 122.750 L 291.600 117.600 293.050 117.616 C 293.848 117.624,294.365 117.683,294.200 117.746 M304.639 118.450 C 304.699 119.291,304.709 119.301,305.521 119.360 L 306.342 119.420 306.451 121.260 C 306.510 122.272,306.511 123.928,306.452 124.940 L 306.346 126.780 305.523 126.840 L 304.700 126.900 304.639 127.850 L 304.578 128.800 303.689 128.800 L 302.800 128.800 302.800 128.007 C 302.800 127.144,302.439 126.800,301.535 126.800 C 301.127 126.800,301.021 126.675,300.904 126.050 C 300.740 125.177,300.537 125.007,299.650 125.003 L 299.000 125.000 299.000 123.111 L 299.000 121.223 299.850 121.161 C 300.671 121.102,300.706 121.071,300.886 120.260 C 301.065 119.456,301.108 119.417,301.886 119.360 C 302.690 119.301,302.701 119.289,302.761 118.450 L 302.823 117.600 303.700 117.600 L 304.577 117.600 304.639 118.450 M332.431 118.500 L 332.503 119.400 331.500 119.400 L 330.497 119.400 330.569 118.500 L 330.640 117.600 331.500 117.600 L 332.360 117.600 332.431 118.500 M349.000 118.184 C 349.000 119.217,349.169 119.400,350.121 119.400 L 351.000 119.400 351.000 123.100 L 351.000 126.800 350.240 126.800 C 349.282 126.800,349.000 127.082,349.000 128.040 L 349.000 128.800 348.111 128.800 L 347.222 128.800 347.161 127.850 L 347.100 126.900 346.250 126.839 L 345.400 126.777 345.400 123.089 L 345.400 119.400 346.300 119.400 L 347.200 119.400 347.200 118.500 L 347.200 117.600 348.100 117.600 C 348.961 117.600,349.000 117.625,349.000 118.184 M252.010 119.400 L 252.800 119.400 252.800 120.300 L 252.800 121.200 250.849 121.200 L 248.897 121.200 248.969 120.300 L 249.040 119.400 249.826 119.400 C 250.364 119.400,250.652 119.298,250.736 119.078 C 250.850 118.782,250.874 118.782,251.040 119.078 C 251.158 119.289,251.492 119.400,252.010 119.400 M366.896 119.400 C 367.539 119.400,367.562 119.429,367.631 120.300 L 367.703 121.200 365.751 121.200 L 363.800 121.200 363.800 120.311 L 363.800 119.422 364.750 119.348 C 365.273 119.308,365.820 119.303,365.966 119.337 C 366.113 119.372,366.531 119.400,366.896 119.400 M154.633 125.881 C 154.561 126.779,154.222 126.975,152.700 126.997 C 151.379 127.016,151.000 126.767,151.000 125.878 L 151.000 125.000 152.851 125.000 L 154.703 125.000 154.633 125.881 M180.631 125.900 L 180.560 126.800 179.773 126.800 C 179.145 126.800,178.951 126.890,178.806 127.250 C 178.683 127.557,178.621 127.596,178.613 127.373 C 178.600 127.038,178.048 126.808,177.250 126.803 C 176.850 126.800,176.800 126.699,176.800 125.900 L 176.800 125.000 178.751 125.000 L 180.703 125.000 180.631 125.900 M221.400 125.584 C 221.400 126.591,221.223 126.800,220.372 126.800 C 219.750 126.800,219.554 126.890,219.427 127.232 C 219.290 127.602,219.249 127.616,219.140 127.332 C 219.055 127.109,218.780 127.000,218.306 127.000 L 217.600 127.000 217.600 126.000 L 217.600 125.000 219.500 125.000 L 221.400 125.000 221.400 125.584 M332.431 125.900 C 332.360 126.798,332.358 126.800,331.590 126.800 C 331.068 126.800,330.754 126.913,330.616 127.150 C 330.504 127.343,330.409 127.389,330.406 127.252 C 330.403 127.116,330.040 126.947,329.600 126.877 C 328.808 126.750,328.800 126.740,328.800 125.874 L 328.800 125.000 330.651 125.000 L 332.503 125.000 332.431 125.900 M47.342 150.400 C 47.400 150.620,47.585 150.800,47.754 150.800 C 48.013 150.800,48.004 150.736,47.700 150.400 C 47.501 150.180,47.315 150.000,47.288 150.000 C 47.260 150.000,47.285 150.180,47.342 150.400 " stroke="none" fill="#222222" fill-rule="evenodd"></path><path id="path1" d="M66.150 56.550 C 67.938 56.583,70.862 56.583,72.650 56.550 C 74.438 56.516,72.975 56.489,69.400 56.489 C 65.825 56.489,64.362 56.516,66.150 56.550 M30.721 68.716 C 30.403 69.545,30.589 71.200,31.000 71.200 C 31.220 71.200,31.400 71.275,31.400 71.366 C 31.400 71.457,31.599 71.525,31.843 71.516 C 32.137 71.505,32.376 71.685,32.553 72.049 C 32.712 72.375,33.039 72.644,33.360 72.713 C 34.281 72.909,34.800 73.180,34.800 73.465 C 34.800 73.906,35.462 74.380,36.517 74.696 C 37.058 74.857,37.748 75.221,38.051 75.504 C 38.685 76.095,39.671 76.479,41.097 76.691 C 41.719 76.783,42.264 77.009,42.548 77.294 C 43.136 77.882,44.169 78.137,46.987 78.391 C 48.755 78.550,49.488 78.709,50.219 79.091 C 51.676 79.853,53.147 79.999,60.700 80.131 C 64.550 80.199,67.858 80.335,68.050 80.434 C 68.379 80.603,68.400 81.607,68.400 97.220 C 68.400 114.515,68.403 114.450,67.537 114.799 C 66.805 115.093,70.532 115.032,72.155 114.722 C 73.180 114.527,73.754 114.300,74.097 113.957 C 74.365 113.690,75.105 113.300,75.742 113.091 C 76.402 112.875,77.158 112.449,77.500 112.101 C 77.830 111.766,78.348 111.333,78.650 111.141 C 78.953 110.948,79.436 110.435,79.723 110.002 C 80.010 109.568,80.437 109.153,80.672 109.079 C 80.908 109.006,81.145 108.891,81.200 108.823 C 81.255 108.755,81.561 108.554,81.880 108.375 L 82.459 108.050 84.125 109.675 C 86.903 112.384,87.622 113.000,88.007 113.000 C 88.210 113.000,88.432 113.090,88.500 113.200 C 88.568 113.310,88.791 113.400,88.996 113.400 C 89.202 113.400,89.624 113.610,89.935 113.867 C 91.135 114.858,91.700 115.000,94.450 115.000 C 97.080 115.000,99.069 114.649,99.501 114.109 C 99.806 113.728,101.209 113.071,102.042 112.919 C 102.516 112.833,103.058 112.512,103.542 112.029 C 103.959 111.613,104.634 111.119,105.042 110.931 C 105.450 110.743,105.945 110.315,106.142 109.979 C 106.473 109.417,106.573 109.375,107.450 109.435 L 108.400 109.500 108.400 90.186 L 108.400 70.871 107.450 70.834 C 106.558 70.798,106.482 70.835,106.200 71.448 C 106.017 71.846,105.616 72.233,105.171 72.442 C 104.770 72.630,104.273 72.998,104.067 73.261 C 103.860 73.523,103.333 73.894,102.896 74.086 C 101.476 74.706,100.914 74.983,100.100 75.461 C 99.660 75.720,98.850 76.030,98.300 76.151 C 96.480 76.549,95.504 76.854,95.191 77.123 C 94.864 77.403,93.861 77.637,91.400 78.005 C 89.654 78.267,85.571 79.138,84.700 79.435 C 83.587 79.814,69.832 79.907,68.685 79.543 C 67.942 79.307,66.424 79.204,62.500 79.124 C 59.640 79.065,56.940 78.929,56.500 78.820 C 56.060 78.711,54.980 78.441,54.100 78.220 C 53.220 77.998,51.330 77.720,49.900 77.602 C 47.189 77.377,46.109 77.146,45.100 76.574 C 44.550 76.262,43.748 76.039,40.874 75.400 C 40.200 75.250,39.655 74.970,39.286 74.586 C 38.978 74.264,38.615 74.000,38.480 74.000 C 37.764 74.000,35.950 73.096,35.783 72.655 C 35.668 72.352,35.218 72.008,34.551 71.711 C 33.558 71.269,33.015 70.678,32.550 69.534 C 32.426 69.230,32.255 69.185,31.579 69.279 C 30.784 69.390,30.762 69.378,30.883 68.897 C 31.021 68.345,30.911 68.222,30.721 68.716 M56.600 108.463 C 56.600 108.497,56.892 108.790,57.250 109.113 L 57.900 109.700 57.313 109.050 C 56.765 108.444,56.600 108.308,56.600 108.463 M54.800 109.500 C 54.427 109.775,54.207 109.997,54.311 109.993 C 54.512 109.985,55.778 109.003,55.589 109.001 C 55.528 109.000,55.173 109.225,54.800 109.500 M58.400 110.455 C 58.400 110.494,58.692 110.739,59.050 111.001 C 59.452 111.295,59.592 111.343,59.416 111.127 C 59.150 110.799,58.400 110.303,58.400 110.455 M33.500 111.548 C 33.940 111.592,34.480 111.784,34.700 111.974 C 35.554 112.711,35.859 112.829,35.114 112.134 C 34.452 111.516,34.198 111.405,33.514 111.434 L 32.700 111.467 33.500 111.548 " stroke="none" fill="#a4a4a4" fill-rule="evenodd"></path><path id="path2" d="M50.050 56.561 C 49.328 56.614,49.200 56.689,49.197 57.061 C 49.189 58.446,49.319 58.400,45.400 58.400 C 41.477 58.400,41.611 58.352,41.603 59.750 C 41.600 60.191,41.554 60.200,39.216 60.200 C 36.296 60.200,36.200 60.232,36.200 61.192 L 36.200 61.941 34.563 62.067 C 32.552 62.222,32.556 62.218,32.442 64.193 C 32.342 65.907,32.360 65.884,31.183 65.810 C 30.686 65.778,30.666 65.820,30.644 66.938 C 30.600 69.172,30.695 69.403,31.608 69.275 C 32.254 69.185,32.427 69.233,32.550 69.534 C 33.015 70.678,33.558 71.269,34.551 71.711 C 35.218 72.008,35.668 72.352,35.783 72.655 C 35.950 73.096,37.764 74.000,38.480 74.000 C 38.615 74.000,38.978 74.264,39.286 74.586 C 39.655 74.970,40.200 75.250,40.874 75.400 C 43.748 76.039,44.550 76.262,45.100 76.574 C 46.109 77.146,47.189 77.377,49.900 77.602 C 51.330 77.720,53.220 77.998,54.100 78.220 C 54.980 78.441,56.060 78.711,56.500 78.820 C 56.940 78.929,59.640 79.065,62.500 79.124 C 66.424 79.204,67.942 79.307,68.685 79.543 C 69.832 79.907,83.587 79.814,84.700 79.435 C 85.571 79.138,89.654 78.267,91.400 78.005 C 93.861 77.637,94.864 77.403,95.191 77.123 C 95.504 76.854,96.480 76.549,98.300 76.151 C 98.850 76.030,99.660 75.720,100.100 75.461 C 100.914 74.983,101.476 74.706,102.896 74.086 C 103.333 73.894,103.860 73.523,104.067 73.261 C 104.273 72.998,104.770 72.630,105.171 72.442 C 105.619 72.232,106.016 71.847,106.200 71.444 C 106.480 70.831,106.559 70.791,107.400 70.837 L 108.300 70.885 108.294 67.766 C 108.287 64.283,108.196 64.000,107.076 64.000 C 106.441 64.000,106.400 63.959,106.400 63.324 C 106.400 62.401,106.102 62.220,104.329 62.071 C 102.823 61.943,102.800 61.933,102.800 61.387 C 102.800 60.256,102.704 60.200,100.779 60.200 L 99.000 60.200 99.000 59.614 C 99.000 58.448,98.804 58.400,94.086 58.400 L 89.800 58.400 89.800 57.612 C 89.800 57.178,89.688 56.751,89.550 56.662 C 89.322 56.514,52.016 56.419,50.050 56.561 M83.164 59.906 C 84.377 60.014,84.738 60.133,85.267 60.598 C 86.041 61.278,86.815 61.486,89.766 61.809 C 91.801 62.032,92.049 62.102,92.199 62.498 C 92.403 63.033,93.380 63.518,94.622 63.701 C 95.408 63.817,95.590 63.934,95.856 64.493 C 96.059 64.918,96.368 65.199,96.733 65.290 C 97.933 65.592,98.042 67.610,96.884 68.094 C 96.412 68.291,96.090 68.600,95.938 69.001 C 95.710 69.605,95.590 69.667,93.759 70.108 C 93.461 70.180,92.990 70.538,92.712 70.903 C 92.360 71.363,91.944 71.628,91.353 71.769 C 89.660 72.170,88.096 72.640,87.889 72.811 C 87.772 72.907,87.187 73.119,86.589 73.283 C 85.990 73.447,85.320 73.632,85.100 73.694 C 84.473 73.870,79.689 74.205,75.280 74.381 C 72.194 74.504,71.106 74.618,70.599 74.871 C 69.769 75.285,69.234 75.286,68.414 74.877 C 67.936 74.638,66.813 74.510,64.133 74.389 C 55.625 74.004,52.943 73.679,51.655 72.875 C 51.157 72.565,49.437 72.060,47.850 71.759 C 46.939 71.586,46.758 71.472,46.481 70.889 C 46.173 70.238,45.365 69.853,43.713 69.566 C 43.470 69.525,43.263 69.258,43.158 68.854 C 43.028 68.354,42.846 68.172,42.345 68.043 C 41.553 67.838,41.187 65.600,41.946 65.600 C 42.524 65.600,43.157 65.050,43.293 64.430 C 43.410 63.901,43.521 63.842,44.859 63.604 C 46.047 63.392,46.407 63.234,46.911 62.701 C 47.483 62.096,47.654 62.040,49.611 61.817 C 52.645 61.471,53.605 61.218,54.477 60.534 C 55.249 59.927,55.272 59.923,58.377 59.812 C 62.457 59.666,81.277 59.737,83.164 59.906 " stroke="none" fill="#d6e397" fill-rule="evenodd"></path><path id="path3" d="M134.333 67.733 C 134.260 67.807,134.200 68.212,134.200 68.633 C 134.200 69.355,134.164 69.400,133.588 69.400 C 133.252 69.400,133.026 69.480,133.086 69.577 C 133.146 69.675,133.039 69.742,132.848 69.727 C 132.536 69.703,132.494 69.974,132.444 72.339 L 132.389 74.978 131.544 75.039 L 130.700 75.100 130.642 76.950 C 130.603 78.217,130.509 78.808,130.342 78.825 C 130.209 78.839,129.830 78.861,129.500 78.875 C 128.821 78.903,128.867 78.678,128.825 82.150 L 128.800 84.200 128.245 84.200 C 127.093 84.200,126.800 84.648,126.800 86.411 C 126.800 87.884,126.770 88.000,126.387 88.000 C 125.656 88.000,125.167 88.381,125.312 88.837 C 125.399 89.113,125.369 89.205,125.221 89.113 C 125.064 89.016,125.000 89.649,125.000 91.288 C 125.000 92.991,124.934 93.607,124.750 93.625 C 124.613 93.639,124.230 93.661,123.900 93.675 L 123.300 93.700 123.239 95.893 C 123.145 99.307,122.772 99.000,127.004 99.000 L 130.600 99.000 130.600 97.200 L 130.600 95.400 131.184 95.400 C 132.347 95.400,132.400 95.312,132.400 93.379 L 132.400 91.600 137.994 91.600 L 143.589 91.600 143.644 94.350 L 143.700 97.100 144.550 97.161 L 145.400 97.223 145.400 98.113 L 145.400 99.003 159.250 98.951 L 173.100 98.900 173.156 96.375 C 173.224 93.298,173.891 93.606,167.150 93.603 L 162.000 93.600 162.000 92.600 L 162.000 91.600 162.900 91.600 L 163.800 91.600 163.800 90.700 C 163.800 89.757,163.865 89.705,164.936 89.790 C 165.561 89.840,165.800 89.241,165.800 87.625 L 165.800 86.223 166.650 86.161 L 167.500 86.100 167.561 85.150 L 167.622 84.200 168.511 84.200 C 169.000 84.200,169.389 84.133,169.376 84.050 C 169.201 82.941,169.424 82.231,169.919 82.321 C 170.772 82.475,171.202 82.240,171.171 81.637 C 171.156 81.342,171.156 80.583,171.172 79.950 L 171.200 78.800 172.087 78.800 C 172.791 78.800,172.999 78.720,173.097 78.408 C 173.232 77.983,173.196 75.656,173.048 75.250 C 172.977 75.055,170.777 75.000,162.967 75.000 C 156.852 75.000,153.021 75.072,153.091 75.186 C 153.155 75.289,153.111 75.431,152.994 75.503 C 152.861 75.586,152.794 76.515,152.813 77.997 L 152.843 80.359 153.447 80.479 C 153.778 80.546,155.862 80.600,158.076 80.600 L 162.103 80.600 162.032 81.489 C 161.962 82.376,161.959 82.379,161.131 82.439 L 160.300 82.500 160.236 83.400 C 160.195 83.982,160.054 84.368,159.836 84.492 C 159.357 84.767,158.976 84.801,159.127 84.556 C 159.200 84.438,159.136 84.390,158.978 84.446 C 158.825 84.499,158.712 84.690,158.727 84.869 C 158.742 85.049,158.675 85.146,158.577 85.086 C 158.480 85.026,158.400 85.657,158.400 86.488 L 158.400 88.000 157.750 88.024 C 157.393 88.037,156.993 88.034,156.863 88.018 C 156.728 88.001,156.568 88.377,156.490 88.894 C 156.365 89.728,156.309 89.800,155.777 89.800 C 155.417 89.800,155.200 89.905,155.200 90.079 C 155.200 90.232,155.065 90.409,154.900 90.472 C 154.670 90.561,154.600 90.939,154.600 92.094 L 154.600 93.600 153.850 93.624 C 153.438 93.637,153.032 93.637,152.950 93.624 C 152.868 93.611,152.800 94.005,152.800 94.500 L 152.800 95.400 151.900 95.400 L 151.000 95.400 151.000 92.921 C 151.000 90.858,150.948 90.423,150.687 90.323 C 150.515 90.257,150.431 90.112,150.499 90.001 C 150.575 89.879,150.306 89.800,149.812 89.800 L 149.000 89.800 148.976 87.950 C 148.963 86.933,148.969 85.981,148.988 85.835 C 149.008 85.690,148.906 85.425,148.762 85.247 C 148.545 84.978,148.546 84.951,148.770 85.086 C 148.989 85.217,148.997 85.168,148.813 84.824 C 148.688 84.591,148.404 84.400,148.181 84.400 C 147.944 84.400,147.831 84.489,147.909 84.615 C 147.982 84.733,147.856 84.713,147.628 84.571 C 147.267 84.345,147.207 84.081,147.157 82.506 L 147.100 80.700 146.250 80.639 L 145.400 80.577 145.389 78.839 C 145.366 75.216,145.300 75.010,144.158 75.003 L 143.616 75.000 143.558 73.250 C 143.518 72.031,143.424 71.492,143.250 71.475 C 143.113 71.461,142.685 71.439,142.300 71.425 L 141.600 71.400 141.600 69.500 L 141.600 67.600 138.033 67.600 C 136.072 67.600,134.407 67.660,134.333 67.733 M175.093 75.245 C 175.040 75.385,175.019 79.955,175.048 85.400 L 175.100 95.300 175.950 95.361 L 176.800 95.423 176.800 96.267 C 176.800 96.732,176.950 97.325,177.135 97.589 C 177.319 97.851,177.356 97.996,177.218 97.911 C 177.038 97.800,176.985 97.890,177.033 98.228 C 177.076 98.532,177.224 98.690,177.448 98.673 C 177.639 98.658,177.748 98.722,177.690 98.815 C 177.633 98.909,181.594 98.988,186.494 98.992 L 195.403 98.997 195.352 87.049 L 195.300 75.100 192.135 75.045 C 189.816 75.004,189.007 75.050,189.110 75.216 C 189.205 75.370,189.119 75.401,188.842 75.313 C 188.189 75.106,188.174 75.260,188.153 82.653 C 188.127 91.737,188.140 91.599,187.330 91.603 C 186.701 91.606,186.151 91.831,186.183 92.072 C 186.192 92.143,186.200 92.515,186.200 92.900 L 186.200 93.600 185.200 93.600 L 184.200 93.600 184.200 92.721 C 184.200 91.769,184.017 91.600,182.986 91.600 L 182.404 91.600 182.352 83.350 L 182.300 75.100 178.746 75.045 C 176.011 75.003,175.168 75.050,175.093 75.245 M201.003 87.005 L 200.994 99.009 204.647 98.955 L 208.300 98.900 208.352 90.661 L 208.404 82.423 209.252 82.361 C 210.094 82.300,210.100 82.294,210.161 81.460 L 210.222 80.621 213.011 80.560 L 215.801 80.500 215.800 81.450 C 215.800 82.301,215.753 82.400,215.350 82.403 C 213.954 82.411,213.807 83.048,213.971 88.400 C 214.069 91.601,214.050 91.497,214.550 91.525 C 215.905 91.600,215.800 91.455,215.803 93.250 C 215.806 94.775,215.954 95.460,216.272 95.417 C 217.420 95.264,217.600 95.383,217.600 96.300 L 217.600 97.200 218.500 97.200 L 219.400 97.200 219.400 97.996 C 219.400 99.058,219.099 99.021,227.200 98.956 L 234.100 98.900 234.161 98.061 C 234.221 97.230,234.230 97.221,235.061 97.161 C 235.601 97.122,235.882 97.011,235.850 96.850 C 235.822 96.713,235.890 96.600,236.000 96.600 C 236.220 96.600,236.277 93.009,236.070 92.234 C 235.981 91.902,235.838 91.796,235.573 91.865 C 235.368 91.919,235.150 91.881,235.088 91.781 C 234.812 91.334,228.722 91.616,228.783 92.072 C 228.792 92.143,228.800 92.515,228.800 92.900 L 228.800 93.600 226.900 93.600 L 225.000 93.600 225.000 92.900 C 225.000 92.515,225.008 92.143,225.017 92.072 C 225.050 91.829,224.496 91.606,223.850 91.603 C 223.297 91.600,223.200 91.528,223.200 91.116 C 223.200 90.430,222.994 89.980,222.748 90.132 C 222.626 90.208,222.598 90.166,222.681 90.031 C 222.784 89.864,224.595 89.800,229.195 89.800 C 232.700 89.800,235.710 89.745,235.884 89.679 C 236.161 89.572,236.200 88.927,236.200 84.495 C 236.200 78.602,236.239 78.800,235.090 78.800 L 234.222 78.800 234.161 77.850 L 234.100 76.900 233.261 76.839 C 232.430 76.779,232.421 76.770,232.361 75.939 L 232.300 75.100 226.014 75.047 C 219.177 74.990,219.409 74.951,219.403 76.139 C 219.400 76.746,219.359 76.780,218.550 76.839 L 217.700 76.900 217.639 77.850 L 217.578 78.800 216.689 78.800 L 215.800 78.800 215.776 77.450 C 215.763 76.708,215.766 76.023,215.783 75.929 C 215.952 74.986,216.066 75.000,208.293 75.000 L 201.012 75.000 201.003 87.005 M138.208 81.994 C 138.365 81.746,138.394 81.753,138.397 82.041 C 138.399 82.265,138.553 82.375,138.850 82.362 C 139.803 82.322,139.800 82.316,139.800 84.300 L 139.800 86.200 137.500 86.200 C 136.015 86.200,135.200 86.125,135.200 85.988 C 135.200 85.872,135.268 85.817,135.350 85.867 C 135.546 85.986,136.013 85.480,135.855 85.321 C 135.788 85.255,135.830 85.200,135.947 85.200 C 136.085 85.200,136.170 84.402,136.186 82.962 C 136.199 81.730,136.230 80.704,136.255 80.680 C 136.280 80.657,136.613 80.589,136.997 80.529 C 137.380 80.469,137.740 80.303,137.797 80.160 C 137.853 80.017,137.928 80.437,137.961 81.094 C 138.004 81.923,138.079 82.198,138.208 81.994 M226.800 81.184 C 226.800 82.217,226.969 82.400,227.921 82.400 L 228.800 82.400 228.800 83.300 L 228.800 84.200 225.936 84.200 L 223.073 84.200 223.139 83.364 C 223.219 82.352,223.148 82.426,224.110 82.353 C 224.885 82.295,224.901 82.278,224.961 81.447 L 225.023 80.600 225.911 80.600 C 226.760 80.600,226.800 80.626,226.800 81.184 M81.880 108.375 C 81.561 108.554,81.255 108.755,81.200 108.823 C 81.145 108.891,80.908 109.006,80.672 109.079 C 80.437 109.153,80.010 109.568,79.723 110.002 C 79.436 110.435,78.953 110.948,78.650 111.141 C 78.348 111.333,77.830 111.766,77.500 112.101 C 77.158 112.449,76.402 112.875,75.742 113.091 C 75.105 113.300,74.365 113.690,74.097 113.957 C 72.797 115.258,65.601 115.305,63.800 114.025 C 63.525 113.829,62.805 113.440,62.200 113.159 C 60.907 112.559,58.837 110.926,57.508 109.457 L 56.564 108.414 55.532 109.178 C 54.964 109.598,54.139 110.293,53.698 110.721 C 52.476 111.908,51.428 112.800,51.255 112.801 C 51.059 112.802,49.460 113.614,48.800 114.049 C 47.008 115.228,38.769 115.203,38.006 114.017 C 37.948 113.926,37.405 113.600,36.800 113.293 C 36.195 112.986,35.385 112.502,35.001 112.217 C 34.344 111.731,31.651 111.150,31.024 111.359 C 30.878 111.407,30.796 115.292,30.761 123.765 C 30.680 143.073,30.659 141.496,31.000 141.527 C 31.165 141.542,31.548 141.564,31.850 141.577 C 32.363 141.598,32.400 141.659,32.400 142.479 C 32.400 143.431,32.583 143.600,33.616 143.600 C 34.146 143.600,34.200 143.662,34.200 144.276 C 34.200 145.070,34.449 145.300,35.400 145.380 C 36.257 145.451,36.267 145.461,36.267 146.184 C 36.267 146.780,36.776 147.220,37.400 147.164 C 37.565 147.149,38.578 147.151,39.650 147.168 L 41.600 147.200 41.600 147.713 C 41.600 148.927,41.772 149.000,44.607 149.000 L 47.200 149.000 47.200 149.482 C 47.200 149.775,47.442 150.168,47.815 150.482 L 48.431 151.000 56.202 151.000 C 64.624 151.000,64.501 150.983,64.088 152.060 C 63.891 152.573,65.164 152.766,68.945 152.794 C 72.856 152.823,73.200 152.734,73.200 151.701 L 73.200 151.016 81.850 150.930 C 86.608 150.883,90.659 150.829,90.854 150.810 C 91.093 150.787,91.285 150.486,91.445 149.888 L 91.683 149.000 94.409 149.000 L 97.134 149.000 97.167 148.167 C 97.208 147.110,96.929 147.211,99.868 147.187 L 102.411 147.166 102.647 146.283 C 102.851 145.520,102.955 145.400,103.414 145.400 C 104.429 145.400,105.790 145.146,105.685 144.976 C 105.627 144.882,105.735 144.864,105.924 144.937 C 106.189 145.038,106.239 144.991,106.141 144.735 C 106.070 144.551,106.100 144.400,106.206 144.400 C 106.313 144.400,106.400 144.175,106.400 143.900 C 106.400 143.552,106.509 143.400,106.760 143.400 C 106.958 143.400,107.228 143.292,107.360 143.160 C 107.547 142.973,107.600 142.983,107.600 143.205 C 107.600 143.371,107.746 143.283,107.950 142.995 C 108.277 142.533,108.300 141.393,108.300 126.000 L 108.300 109.500 107.398 109.441 C 106.580 109.387,106.464 109.438,106.140 109.985 C 105.944 110.317,105.450 110.743,105.042 110.931 C 104.634 111.119,103.959 111.613,103.542 112.029 C 103.058 112.512,102.516 112.833,102.042 112.919 C 101.209 113.071,99.806 113.728,99.501 114.109 C 99.069 114.649,97.080 115.000,94.450 115.000 C 91.700 115.000,91.135 114.858,89.935 113.867 C 89.624 113.610,89.202 113.400,88.996 113.400 C 88.791 113.400,88.568 113.310,88.500 113.200 C 88.432 113.090,88.210 113.000,88.007 113.000 C 87.622 113.000,86.903 112.384,84.125 109.675 L 82.459 108.050 81.880 108.375 " stroke="none" fill="#4ca8cf" fill-rule="evenodd"></path><path id="path4" d="M58.377 59.812 C 55.272 59.923,55.249 59.927,54.477 60.534 C 53.605 61.218,52.645 61.471,49.611 61.817 C 47.654 62.040,47.483 62.096,46.911 62.701 C 46.407 63.234,46.047 63.392,44.859 63.604 C 43.521 63.842,43.410 63.901,43.293 64.430 C 43.157 65.050,42.524 65.600,41.946 65.600 C 41.187 65.600,41.553 67.838,42.345 68.043 C 42.846 68.172,43.028 68.354,43.158 68.854 C 43.263 69.258,43.470 69.525,43.713 69.566 C 45.365 69.853,46.173 70.238,46.481 70.889 C 46.758 71.472,46.939 71.586,47.850 71.759 C 49.437 72.060,51.157 72.565,51.655 72.875 C 52.943 73.679,55.625 74.004,64.133 74.389 C 66.813 74.510,67.936 74.638,68.414 74.877 C 69.234 75.286,69.769 75.285,70.599 74.871 C 71.106 74.618,72.194 74.504,75.280 74.381 C 79.689 74.205,84.473 73.870,85.100 73.694 C 85.320 73.632,85.990 73.447,86.589 73.283 C 87.187 73.119,87.772 72.907,87.889 72.811 C 88.096 72.640,89.660 72.170,91.353 71.769 C 91.944 71.628,92.360 71.363,92.712 70.903 C 92.990 70.538,93.461 70.180,93.759 70.108 C 95.590 69.667,95.710 69.605,95.938 69.001 C 96.090 68.600,96.412 68.291,96.884 68.094 C 98.042 67.610,97.933 65.592,96.733 65.290 C 96.368 65.199,96.059 64.918,95.856 64.493 C 95.590 63.934,95.408 63.817,94.622 63.701 C 93.380 63.518,92.403 63.033,92.199 62.498 C 92.049 62.102,91.801 62.032,89.766 61.809 C 86.815 61.486,86.041 61.278,85.267 60.598 C 84.738 60.133,84.377 60.014,83.164 59.906 C 81.277 59.737,62.457 59.666,58.377 59.812 " stroke="none" fill="#82bf10" fill-rule="evenodd"></path></g></svg>