<svg id="svg" xmlns="http://www.w3.org/2000/svg" viewBox="0 0 209.69 96"><defs><style>.cls-1{fill:#040404;}.cls-1,.cls-2,.cls-3,.cls-4,.cls-5{fill-rule:evenodd;}.cls-2{fill:#525252;}.cls-3{fill:#dcdcdc;}.cls-4{fill:#3c3c3c;}.cls-5{fill:#343434;}</style></defs><g id="svgg"><path id="path0" class="cls-1" d="M82.22,50.64a12.92,12.92,0,0,0-9.4,7.64A7.17,7.17,0,0,0,72.23,60c0,.22-.07.39-.16.39-.5,0-.1,5.72.52,7.28,1.46,3.73,6.21,8.05,8.83,8.05.46,0,.53.51.5,3.53,0,3.25.07,3.05-1.73,3.44a17,17,0,0,0-3.8,1.52l-1,.69c-7.07,4.7-8.94,15.47-3.93,22.63.93,1.33,3.28,3.67,3.69,3.68a.22.22,0,0,1,.24.2c0,.29,3,1.74,4.85,2.33l1.65.52,0,3c0,2.78-.06,3.56-.51,3.46a14.82,14.82,0,0,0-4.2,2.1c-1.93,1.36-4.75,5-4.75,6.15a4.4,4.4,0,0,1-.23.65c-.27.63-.38,6.66-.12,6.66.08,0,.15.14.15.3,0,1,1.75,4,3.18,5.49a13,13,0,0,0,16.68,1.4,11.73,11.73,0,0,0,2.45-2.28,1.66,1.66,0,0,1,.37-.53c3.67-4,3.16-12.1-1-16.49-1.16-1.22-3.89-3-4.57-3a3.56,3.56,0,0,1-.88-.31l-.66-.32V114.1l.63-.19a17.68,17.68,0,0,0,7.8-4.46c.76-.8.84-.78,3.15.56a22.29,22.29,0,0,0,2.14,1.17c.78,0,1.09.8.83,2a12.94,12.94,0,0,0,8.34,14.61,4.94,4.94,0,0,1,1.12.47c.18.36,6-.17,7.29-.65a12.82,12.82,0,0,0-.63-24.19,13.34,13.34,0,0,0-7.87,0,21.24,21.24,0,0,0-2.88,1.46c-1.88,1.75-2.29,1.89-3.45,1.16-.72-.45-2.42-1.41-3.5-2-.92-.47-1-.72-.67-1.75a13.36,13.36,0,0,0,.42-2c.06-.62.2-1.12.29-1.12s.18-.49.18-1.08-.07-1-.16-1-.41-1-.42-2a1.83,1.83,0,0,0-.17-.88c-.93-1-.51-1.46,3-3.36.31-.17.87-.51,1.24-.75.85-.56,1-.55,1.73.1A10.5,10.5,0,0,0,110.93,93a4.45,4.45,0,0,1,1.16.4c.39.35,4.33.18,5.65-.24a4.22,4.22,0,0,1,1.55-.3c.16.07.25,0,.19-.06s.31-.37.81-.61A12.41,12.41,0,0,0,127.24,80c-.07-1.07-.15-2.26-.17-2.65s-.07-.68-.1-.64a10,10,0,0,1-1-1.69c-1.54-3-5.68-6.56-7.72-6.56a1.69,1.69,0,0,1-.77-.28c-.45-.31-5.7-.4-5.7-.1,0,.09-.33.23-.73.3a12,12,0,0,0-5.35,3.26,11,11,0,0,0-1.88,2.4.3.3,0,0,1-.14.27c-1.07.48-2.14,6.44-1.52,8.52a8.67,8.67,0,0,1,.31,1.25,39.19,39.19,0,0,1-5.58,3.38,3.64,3.64,0,0,1-.83-.7c-1.39-1.43-4.61-3.56-5.39-3.56-.13,0-.23-.07-.23-.16s-.5-.27-1.12-.41c-1.66-.37-1.6-.23-1.6-3.73V75.85l.73-.3c4.82-2,7.25-4.55,8.47-9,2.43-8.86-5.78-17.72-14.73-15.9m3.3,6.49,1,.28a5.91,5.91,0,0,1,4,5.84,4.94,4.94,0,0,1-.76,3.28c-2.46,4.29-9,3.91-11.09-.64-1.47-3.16.49-7.71,3.65-8.45A7.29,7.29,0,0,0,83.68,57a3.42,3.42,0,0,1,1.84.1m118.53,17a7.2,7.2,0,0,0-6.57,5.26c-.08.22-.21.3-.37.21s-.16,0,0,.18a1.07,1.07,0,0,1,.12,1c-.09.35-.21,3.51-.27,7l-.12,6.4-1,.1-1,.1v5.43l1,.1,1,.09.1,10.38.1,10.38,3,0,3,.06v-21h6.61l-.06-2.77-.05-2.76-3.25-.06-3.25,0V88.45c0-6.48.08-7,1.14-8.07.74-.75,3.1-.9,3.53-.23.1.15.18.22.18.14s.39,0,.87.24l.88.37v-6l-.53-.2a16.11,16.11,0,0,0-2.87-.61,12.2,12.2,0,0,0-2.13.08m-87.36.67a3.18,3.18,0,0,1,1.14.57.76.76,0,0,0,.44.28c.35,0,1.37,1.26,2,2.44,1.32,2.62.5,5.62-2.11,7.8a7,7,0,0,1-6,.64A6.42,6.42,0,0,1,110.44,76a6,6,0,0,1,6.25-1.19M139.4,97.74l0,23,3,0,3,.06v-5.12c0-5.09,0-5.11.45-5.53s1.09-.57,1.1-.28c0,.12,1.7,2.33,2.52,3.3.12.14.64.81,1.17,1.51s1,1.36,1.15,1.5.48.61.83,1.06,1.11,1.44,1.7,2.19l1.07,1.36h7.69l-1-1.31c-1.31-1.67-2.53-3.19-2.82-3.49-.13-.13-1.65-2-3.4-4.23s-3.53-4.45-4-5c-1.13-1.39-1.17-1.29,1.93-4.31,7.33-7.16,8.22-8.05,8.13-8.14a38,38,0,0,0-3.89-.1h-3.79L150,98.57c-2.32,2.34-4.31,4.27-4.42,4.27s-.2-4.52-.2-14.07V74.71h-6l.05,23m75.22.05v23.1l3-.06,3,0,.09-5.16c.11-5.42.19-5.9,1-5.76a98.44,98.44,0,0,1,6.86,8.41c.21.3.77,1,1.24,1.57l.85,1h3.75a32.52,32.52,0,0,0,3.76-.11,9.55,9.55,0,0,0-1-1.27,9.13,9.13,0,0,1-1-1.3,2.56,2.56,0,0,0-.54-.72c-.3-.32-1.53-1.85-2.75-3.39s-2.62-3.3-3.12-3.88a41.38,41.38,0,0,1-3.67-4.75,5.74,5.74,0,0,1,1.21-1.34c2.91-2.7,9.84-9.5,9.84-9.65a22.23,22.23,0,0,0-3.83-.17h-3.83l-4.27,4.27c-2.34,2.34-4.33,4.27-4.41,4.27s-.17-6.31-.19-14l-.05-14-3,0-3,0V97.79m-75.56,0c0,12.64,0,17.82.05,11.5s0-16.67,0-23-.05-1.15-.05,11.49M174,75.08a1.35,1.35,0,0,1-.66.3c-2,.45-3.11,3.32-2,5.48s5.3,2.76,5.3.9c0-.45,0-.46-.57-.17a2.9,2.9,0,0,1-4.28-2.6c0-1.45,1.36-3.19,2.23-2.85a.34.34,0,0,0,.39-.08c.14-.22.92-.06,1.7.33.51.26.53.25.53-.22,0-.75-2.24-1.69-2.61-1.09m-20.33,1c-.27.57-.64,1.38-.83,1.81s-.72,1.58-1.18,2.56c-1,2-1,2.19-.46,2.19.27,0,.52-.27.82-.88l.42-.88,1.76.06,1.75.05.29.83c.24.69,1.36,1.31,1.36.75,0-.1-1.7-3.92-1.93-4.34-.1-.19-.42-.91-.71-1.6-.72-1.72-.74-1.73-1.29-.55M159.14,79v3.71h.48c.46,0,.48,0,.53-1.5l.06-1.51.77-.1c3.32-.46,3-4.06-.36-4.23l-1.48-.07V79m7.44-3.42c-.09.14-.38.7-.66,1.27s-.56,1-.64.87-.09,0,0,.19a1.8,1.8,0,0,1-.26,1.06c-1.61,3.09-1.8,3.74-1.11,3.74.27,0,.49-.1.49-.21a3.56,3.56,0,0,1,.31-.88l.31-.65h3.46l.42.87c.35.72,1.32,1.31,1.32.81,0-.12-2-4.5-2.31-5.18a9,9,0,0,1-.59-1.4c-.24-.76-.46-.9-.72-.49M178.11,79l-.06,3.7.68-.06.68-.06.1-1.74.1-1.75h3.1l.1,1.75c.09,1.63.12,1.75.53,1.81l.44.06v-7.4h-.48c-.46,0-.48,0-.53,1.5l-.06,1.51-1.6,0-1.6.06V75.29h-1.34L178.11,79m7.81,0,0,3.69h2c1.81,0,1.95,0,1.95-.38s-.16-.38-1.5-.44l-1.51,0-.06-1.13c-.07-1.54.08-1.69,1.83-1.69,2.46,0,1.93-.71-.6-.82l-1.17-.05V76.16l1.51,0c1.34,0,1.5-.1,1.5-.44s-.14-.38-1.92-.38H186l0,3.68m-24.15-2.59c1.15.75.35,2.4-1.16,2.4-.49,0-.5,0-.5-1.36V76.07h.59a2.37,2.37,0,0,1,1.07.31m-7,2c.68,1.38.62,1.54-.61,1.54s-1.34,0-.74-1.41.76-1.31,1.35-.13m12.46-.35a11.1,11.1,0,0,0,.51,1.14c.34.66.22.75-1,.75s-1.31,0-.72-1.37.86-1.43,1.2-.52m29.39,10.24c0,3.14,0,4.43.05,2.86s0-4.15,0-5.72-.05-.29-.05,2.86m-110.24.46c4.33.84,7.25,4.31,7.67,9.13.09,1.1,0,1.48-.66,3.71-.86,2.83-5.33,6.45-7.44,6-.32-.07-.57,0-.57.07s-.44.19-1,.19-1-.07-1-.15-.42-.15-.93-.15c-2.77,0-6.93-3.85-7.33-6.72a5.26,5.26,0,0,0-.31-1.25c-.51-1,.17-4.55,1.21-6.32a9.56,9.56,0,0,1,10.3-4.54m85.8,5.18c-3.08,1.07-5.75,3.1-6.86,5.2a5.35,5.35,0,0,1-.5.8,7.62,7.62,0,0,0-.66,1.35c-.24.59-.51,1.24-.61,1.46-.7,1.53-.71,8.17,0,9.7a13.73,13.73,0,0,1,1,2.53.35.35,0,0,0,.15.31,8,8,0,0,1,.9,1.2,11.65,11.65,0,0,0,16.93,2.63c1.39-1.08,1.42-1.07,1.42.54v1.23h5.82V94.29l-2.86,0-2.86.06L184,95.66c-.07,1.88-.11,1.91-1.19.94-2.59-2.3-3.78-2.77-7.29-2.82a17.51,17.51,0,0,0-3.3.15m74.59.25c-3.13,1.09-7.56,5.35-7.56,7.27a4.8,4.8,0,0,1-.33.92,4.72,4.72,0,0,0-.36,1.14c0,.22-.15,1.19-.29,2.17a10.88,10.88,0,0,0,0,3.69c.14,1,.25,2.1.25,2.34s.05.44.12.44.25.41.4.92a12,12,0,0,0,1.52,3.13,16.49,16.49,0,0,0,2.78,3c4.39,3.37,11.25,3.13,14.94-.53.75-.74.95-.53.95.95v1.25h6l-.05-13.24-.05-13.24-2.95-.06-3,0v1.45c0,1.8-.11,1.86-1.28.79a6.16,6.16,0,0,0-1.08-.87.87.87,0,0,1-.39-.25,14.26,14.26,0,0,0-3.05-1.47,16.38,16.38,0,0,0-6.62.24M179.18,99.4a2,2,0,0,0,.76.33c1.47,0,4.46,4.59,4.13,6.35-.07.39,0,.63.09.63s.2.43.2,1-.09,1-.19,1-.14.24-.08.56c.63,3.11-3.18,6.84-7.1,7-7.41.25-10.88-9.59-5.36-15.17,1.88-1.9,5.84-2.74,7.55-1.62m75.79.27c2.21,1.06,4.42,4.07,4.2,5.74-.05.4,0,.72.09.72a3.78,3.78,0,0,1,.17,1.55,3.53,3.53,0,0,1-.18,1.56c-.1,0-.13.29-.08.65.29,1.75-2.27,5.09-4.54,6-7.15,2.69-12.92-5.34-9.3-13A7.14,7.14,0,0,1,255,99.67m-58.3,10.92c0,5.71,0,8,.06,5.19s0-7.52,0-10.37-.06-.52-.06,5.18m-81.08-1.16a.23.23,0,0,0,.31.09c.34-.21,2.24.83,3.07,1.68a6.18,6.18,0,0,1-1.7,10,6.28,6.28,0,0,1-8.42-3.06c-.75-1.65-.29-6.22.63-6.22.09,0,.22-.16.28-.36.41-1.27,5.27-3.07,5.83-2.16m155,3.15a4.51,4.51,0,1,0,4.9,0,5.08,5.08,0,0,0-4.9,0m3.67,0a4.22,4.22,0,0,1,2.79,4.14c-.7,5-7.89,4.8-7.89-.27a3.85,3.85,0,0,1,5.1-3.87m-2.53,3.65c.05,2.37.35,3.24.54,1.57.11-1,.22-1,1.08.09s1.49,1.18.56-.09l-.71-1,.6-.56c1.1-1,.6-2-1.1-2.27l-1-.13.06,2.36m1.59-1.73c1,.37.56,1.75-.51,1.75-.51,0-.54,0-.54-.84,0-1.14.13-1.26,1.05-.91M87.09,127.36C92.83,130,91.27,138.7,85,139.24c-.92.07-1.48,0-1.48-.07s-.24-.15-.54-.11-.87-.14-1.7-.68c-5-3.25-3.75-10.07,2.14-11.56a7.59,7.59,0,0,1,3.7.54" transform="translate(-68.16 -50.07)"/><path id="path1" class="cls-2" d="M83.29,50.26c0,.11.52.2,1.17.2s1.16-.09,1.16-.2-.52-.19-1.16-.19-1.17.09-1.17.19m-1.62.24a.5.5,0,0,0,.75,0c.07-.11-.09-.18-.36-.15s-.44.11-.39.19m4.92,0c0,.22.52.24.65,0s-.07-.17-.28-.18-.37,0-.37.15m-7,.55c-.4.17-.73.37-.73.44s1.18-.17,1.43-.41,0-.35-.7,0m9.46.09c.61.43,1.21.55,1.37.29s0-.19-.14-.12a1.1,1.1,0,0,1-.76-.16c-.62-.34-1-.35-.47,0m1.56.68c.66.58,1.67,1.05,1.42.65-.14-.22-.31-.37-.38-.33s-.29,0-.49-.2c-.4-.3-.87-.41-.55-.12m-13.39.53c-.41.41-.38.52.09.27.21-.11.39-.29.39-.39,0-.27-.12-.24-.48.12m-1.35,1.15a2.86,2.86,0,0,1-.89.67c-.12,0-.17.09-.1.19s-.1.32-.36.49a1.53,1.53,0,0,0-.57.7c0,.21.55-.3,1.34-1.13s1.43-1.53,1.43-1.55c0-.17-.26,0-.85.63m17.48.34c.56.55,1.23,1.28,1.5,1.6s.46.46.37.19a13.75,13.75,0,0,0-2.71-2.81c-.09,0,.29.46.84,1M72.94,57.18c-.46,1-.29,1,.24.07.24-.43.36-.78.27-.78s-.32.32-.51.71m9.62.21c-.24,0-.43.17-.43.28s.14.15.3.08a2.18,2.18,0,0,1,.59-.11c.15,0,.27-.09.27-.2s-.06-.18-.14-.16l-.59.11m3,0c-.07.12,0,.21.26.21a2.66,2.66,0,0,1,.74.12c.24.09.29.06.16-.07-.31-.32-1-.48-1.16-.26M81,58.16a3.79,3.79,0,0,0-.86.8l-.38.51.67-.47a7.43,7.43,0,0,0,.87-.7,1.27,1.27,0,0,1,.48-.34c.26-.09.26-.1,0-.1a2.1,2.1,0,0,0-.78.3m15.52.25a.21.21,0,0,0,.21.2c.11,0,.16.07.1.17a1.35,1.35,0,0,0,.19.82c.3.65.3.65.17.07a11.15,11.15,0,0,1-.26-1.31c0-.22-.41-.17-.41,0m-8.33.1c0,.11.17.31.38.44a2.13,2.13,0,0,1,.64.86c.17.41.31.54.4.39s-.17-.56-.64-1.06-.78-.74-.78-.63M72,59.08a2.76,2.76,0,0,1-.12.63c-.09.24-.07.29.07.16.31-.3.5-1.07.26-1.07s-.21.12-.21.28m7.17.9c-.2.37-.18.38.19.19.22-.12.4-.3.4-.41,0-.33-.37-.2-.59.22m-.68,1.43c-.33.79-.36,1.39-.09,1.56s.2-.15.2-.56a3.77,3.77,0,0,1,.19-1.17c.28-.75,0-.6-.3.17M90,61.13c.23.79.47,1.14.47.68a1.48,1.48,0,0,0-.31-.78c-.29-.38-.3-.37-.16.1m7.71,2.33c0,.58,0,.82.09.53a4.79,4.79,0,0,0,0-1.07c-.05-.29-.09-.05-.09.54m-26.2-.2c0,.38,0,.53.09.34a1.56,1.56,0,0,0,0-.68c0-.18-.09,0-.09.34m18.78,0c0,.31.08.63.19.69s.19-.16.19-.57-.08-.69-.19-.69-.19.26-.19.57m-11.92.61c-.13.49.29,1.92.57,1.92.06,0,.06-.09,0-.21a5,5,0,0,1-.28-1.21c-.11-.87-.15-.93-.28-.5m11.81,1c-.3,1-.3,1,0,.59s.39-.88.19-.88-.15.13-.2.29M71.91,66.75a4.33,4.33,0,0,1,.13.63c0,.08.09.15.21.15s0-.77-.26-1.07c-.13-.13-.16,0-.08.29M89,67c-.45.76-.33.85.23.16.24-.3.37-.59.28-.64s-.32.16-.51.48m-9.39.15c.25.3.48.53.52.5s-.59-1.06-.78-1.06,0,.25.26.56M97,66.9a6.13,6.13,0,0,1-.24.68c-.07.18-.06.34,0,.34s.27-.31.38-.68.15-.68.07-.68-.18.15-.24.34m-8.87,1c0,.11-.22.25-.48.32s-.49.19-.49.28-.18.22-.4.29-.36.17-.31.22a2,2,0,0,0,.85-.3c.81-.41,1.43-1,1-1a.21.21,0,0,0-.22.19m-7.4.26a3.66,3.66,0,0,0,1.66.91c.21,0,0-.11-1.27-.85-.53-.3-.6-.31-.39-.06m-8.12.42a6,6,0,0,0,.92,1.62c.14.14.24.19.24.1a6.37,6.37,0,0,0-1.16-1.72m10.61.73a3,3,0,0,0,1.23.15,3.09,3.09,0,0,0,1.23-.15c0-.08-.51-.14-1.23-.14s-1.28.06-1.23.14m37.62-.08c-.07.11,0,.3.25.41.49.26.6.26.6,0,0-.12-.06-.17-.13-.1s-.23,0-.35-.19-.28-.25-.37-.1m-13.7.71c-.25.27-.48.46-.52.42s-.4.25-.8.64a10.21,10.21,0,0,0-2,2.52s.3-.16.55-.48a22.28,22.28,0,0,1,2.82-2.84c.37-.29.62-.57.56-.63s-.31.11-.56.37m15,.3a1.07,1.07,0,0,0,.66.37c.21,0,.17-.08-.13-.22s-.44-.29-.44-.38-.1-.16-.22-.16-.07.17.13.39m-26.86.31a14.42,14.42,0,0,1-2.9,3.11c-.47.36-.79.65-.71.65A2.53,2.53,0,0,0,93,73.47a1,1,0,0,1,.54-.41c.11,0,.32-.22.46-.49s.36-.46.48-.43a.18.18,0,0,0,.23-.18,1.45,1.45,0,0,1,.41-.67c.22-.24.36-.55.3-.69s-.11-.16-.12,0M74,71c.15.19.54.62.88,1s.58.67.53.73,0,.08,0,0a3.6,3.6,0,0,1,1,.78,4.45,4.45,0,0,0,1.11.84c.11,0-.06-.23-.38-.5a12.47,12.47,0,0,1-2.64-2.56c-.22-.34-.49-.63-.6-.63s-.09.15.06.34m50.6,1.55a5.45,5.45,0,0,0,.85,1c.28.17-.17-.42-.92-1.2-.52-.54-.52-.53.07.24M103.27,74c-.26.31-.2.35.28.17.17-.06.3-.19.3-.29,0-.27-.31-.2-.58.12m101.22-.16a2,2,0,0,0,.77,0c.19-.05,0-.09-.44-.08s-.57,0-.33.08m-78.72.44c.28.53.57.66.45.22a.72.72,0,0,0-.37-.48c-.22-.09-.24,0-.08.26m76.05-.13c-.54.26-1.09.72-.84.72A4.22,4.22,0,0,0,202.4,74c0-.12,0-.12-.58.15m6.59,0a2.1,2.1,0,0,0,.68.38l.68.28v3c0,3.09-.05,3.28-.76,2.84a.67.67,0,0,0-.55-.07c-.17.07,0,.2.46.36s.78.2.89,0c.26-.41.19-6.27-.09-6.49s-1.31-.49-1.31-.34m-117.5.34c-.24.11-.44.27-.44.35,0,.25.74,0,.85-.32s.09-.26.06-.26l-.47.23m48.2,0c-.07.19.61.23,3.13.18,4.36-.08,4.58-.42.28-.42-2.48,0-3.34.06-3.41.24m75.24.07c-.17.45-.14,46.63,0,46.63s.12-10.47.09-23.27l-.05-23.28h6.21l.05,13.92.06,13.91,0-14.11,0-14.11h-3.18c-2.73,0-3.19,0-3.29.31M113,74.65c-.66.13-.52.39.15.29.32,0,.58-.16.58-.26a.13.13,0,0,0-.15-.14l-.58.11m2.2,0c-.06.09.19.2.57.25.75.09.92-.12.24-.3s-.69-.16-.81,0M154,74.8a1.23,1.23,0,0,0-.32.44c0,.07.1,0,.23-.1s.29-.17.48,0,.34,0,.09-.38c-.13-.21-.22-.19-.48.06m5,.23c-.26.1-.37,7.08-.13,7.71a.72.72,0,0,0,.68.31c.71,0,.74-.34,0-.42l-.54-.07V75.19l1.07-.11,1.07-.12h-1A5.3,5.3,0,0,0,159,75m2.86-.07a3,3,0,0,0,.69.81c.38.36.64.55.58.43s-.16-.38-.23-.57-.22-.37-.59-.32c-.06,0-.19-.1-.28-.25s-.17-.18-.17-.1m16.29,0a2.2,2.2,0,0,0,.78.15c.42,0,.77,0,.77-.08s-.35-.15-.77-.15a2.07,2.07,0,0,0-.78.08m4.59,0a5.52,5.52,0,0,0-.13,1.54V78l-1.5.06-1.5.07,1.6,0,1.6,0V75.07l.53.06.53.06.06,3.74,0,3.73h-1.17l0-1.7,0-1.69-.07,1.45c-.09,2,0,2.33.71,2.33a.72.72,0,0,0,.68-.31,39.82,39.82,0,0,0-.12-7.61,1.13,1.13,0,0,0-1.19-.1m3.1,0a6.47,6.47,0,0,0,2,.14h2.07v.54c0,.29.06.53.15.53.29,0,.15-1.12-.16-1.24a15.37,15.37,0,0,0-4,0m14.26.09a.76.76,0,0,1-.38.25,5.21,5.21,0,0,0-1.39,1.38,1.26,1.26,0,0,1-.33.49c-.17.2-.24.36-.14.36s.35-.27.56-.6a8,8,0,0,1,1.34-1.36c.52-.42.86-.76.76-.76a.8.8,0,0,0-.42.24m-82.72.33a1.71,1.71,0,0,0,.56.4,1.39,1.39,0,0,1,.52.34c.38.33.38.33.13-.08a2.6,2.6,0,0,0-1-.74l-.69-.33.43.41m55.18-.14c-.12.13-.23.18-.23.12s-.3.18-.68.53a2.38,2.38,0,0,0-.68.9c0,.14.29,0,.64-.43a8.68,8.68,0,0,1,1.11-1c.27-.18.39-.33.28-.33a.71.71,0,0,0-.44.22m3.7,0c.42.31.47,1.32.06,1.24-.15,0-.29,0-.29.12s.2.22.47.25c.44.06.49,0,.49-.6s-.41-1.29-.84-1.28c-.13,0-.08.12.11.27m-65.11.17c-.58.37-1.25,1.07-1.13,1.19s0,.11-.11.11-.31.17-.43.39c-.36.68.24.24.82-.59.3-.42.66-.77.81-.77a.45.45,0,0,0,.38-.29c.13-.34.14-.34-.34,0M178,79c0,2,0,2.79.06,1.8s0-2.6,0-3.59S178,77,178,79m-90-3c-.25.66,0,6.21.31,6.29s.23,0,0-.1-.23-.9-.19-3.31c.06-3.09,0-3.38-.15-2.88m14.39,0c-.16.41-.15.47,0,.47s.22-.17.28-.38c.12-.46-.16-.53-.33-.09m52.81.47a.86.86,0,0,0,.35,1c.17.07.23,0,.15-.09a3.44,3.44,0,0,1-.26-.73c-.1-.35-.17-.42-.24-.23m5-.08a3.42,3.42,0,0,0,.11,2.33,1.81,1.81,0,0,0,1.87-1.25c0-.54-.48-1.11-.67-.8s-.09.2.06.11.23-.05.23,0a1.84,1.84,0,0,0,.11.49c.14.36-.57,1.09-1.07,1.09-.33,0-.39-.16-.44-1.08,0-.6-.12-1-.2-.94m7.42.1a2.15,2.15,0,0,0,.31.76c.2.33.25.36.17.1a4.07,4.07,0,0,1-.17-.63c-.06-.35-.31-.55-.31-.23M119,76.6c0,.24.76,1.18.76,1a1.73,1.73,0,0,0-.38-.66c-.21-.27-.38-.4-.38-.29m53.75.26c-.53.57-.37.72.17.18.23-.24.38-.47.33-.52s-.28.1-.5.34m-20,.3c-.33.73-.11.8.26.09.17-.33.24-.6.14-.6s-.27.23-.4.51m-25.82,0c0,.24.09.44.19.44.25,0,.25-.21,0-.58s-.19-.21-.19.14m27,.59a1.21,1.21,0,0,0,.39.48c.43.37.49.3.19-.26-.2-.37-.58-.52-.58-.22m12.46.33c-.16.35-.16.51,0,.61s.16.05.1,0,0-.33.14-.52.26-.3.38.15c.07.27.21.49.33.49s.15-.11.09-.24-.17-.4-.23-.58c-.17-.49-.56-.42-.81.14m-57.56.35c-.34.82-.36,1.11-.1,1.11.11,0,.2-.18.2-.4a2,2,0,0,1,.21-.8c.11-.21.16-.44.1-.5s-.25.21-.41.59m56-.15c-.26.56,0,.66.32.11s.25-.6,0-.6-.24.22-.37.49M197.65,78c.06.1,0,.19-.07.19s-.45,1-.31,1.14a4.06,4.06,0,0,0,.67-1.43s-.09-.1-.21-.1-.15.09-.08.2m-45.77.9c-.16.42.06.62.29.25s.23-.57,0-.57-.23.14-.3.32m4.38.45c.11.32.29.58.39.58s.14-.1.08-.24-.16-.39-.23-.58-.19-.34-.28-.34-.07.26,0,.58m-35.8.33c.18.74.27.81.27.2a.87.87,0,0,0-.2-.63c-.13-.08-.16.07-.07.43m67.35-.38a10,10,0,0,0,1.55,0c.4,0,0-.08-.83-.07s-1.18,0-.72.07m-86.24,1.51c0,.83.07,1.41.17,1.35a5.8,5.8,0,0,0,0-2.81,3.37,3.37,0,0,0-.17,1.46m26-.1c0,.69,0,1,.08.63a6.63,6.63,0,0,0,0-1.26c0-.35-.08-.06-.08.63m33.5-1c0,.11.18.19.39.19s.39-.08.39-.19-.18-.19-.39-.19-.39.08-.39.19m-1,1.43a4.06,4.06,0,0,0,.19,1.58c.13.07.2-.42.2-1.34a3.69,3.69,0,0,0-.2-1.57c-.12-.08-.19.41-.19,1.33M205,80a.24.24,0,0,1-.34.06c-.12-.07-.15,0-.07.1s.25.17.54,0a1.92,1.92,0,0,1,1.07-.08c.46.08.64.06.55-.08A2,2,0,0,0,205,80m-41.11.31c-.18.49,0,.55.27.09.11-.22.13-.41,0-.41s-.23.15-.3.32m5.45-.19c-.13.23.19.78.36.61s0-.27-.06-.45-.23-.25-.3-.16m34.51.57c-.33.33-.4.66-.14.66.09,0,.26-.22.38-.48.26-.56.19-.61-.24-.18m-53,.56c-.12.26-.14.52-.05.58s.26-.16.37-.48c.24-.7,0-.78-.32-.1M157,81c0,.21.61,1.29.69,1.21a2.19,2.19,0,0,0-.54-1.31c-.08,0-.15,0-.15.1m16,.31a2.55,2.55,0,0,0,2.82.18c.37-.33.39-.38.09-.25a4,4,0,0,1-2.72,0c-.68-.45-.81-.37-.19.11m3.56.36c.07.74,0,.79-.53.9-.33.07-.6.2-.6.29s.46.22.66,0a.57.57,0,0,1,.36-.14c.39,0,.63-1.24.31-1.56s-.27-.18-.2.49m-56-.39c0,.16-.08.51-.14.78-.09.42-.07.44.12.14a1.22,1.22,0,0,0,.13-.78c0-.23-.09-.3-.11-.14m31.62.32c-.32.71-.17.76.24.06.19-.31.26-.57.17-.57s-.28.23-.41.51m12.7-.2c-.15.41-.15.76,0,.59s.3-.9.18-.9-.13.14-.2.31m-9,.32c0,.44.3,1,.41.81a.89.89,0,0,0-.06-.62c-.17-.47-.38-.58-.35-.19m7.24.24c-.19.76,0,1.07.76,1.07.52,0,.69-.09.78-.42s.05-.36-.12-.19-1.31.32-1.31.14a4.72,4.72,0,0,1,.19-.59c.12-.31.12-.49,0-.49s-.24.22-.31.48m24.75-.35c1.73.12,2.13.25,2.13.65s-.14.38-2.13.38a5.5,5.5,0,0,0-2.13.19c0,.36,4.2.25,4.34-.11.42-1.09.23-1.25-1.48-1.21-.88,0-1.21.06-.73.1m-16,.49.66.53a.56.56,0,0,0,.29.14,5,5,0,0,1,.53.17c.2.07.34,0,.34-.08s-.16-.22-.36-.22a2.91,2.91,0,0,1-1.08-.48c-.88-.6-1.14-.64-.38-.06m-63.25-.06c-.13.21.37,1.57.58,1.57s.07-.15,0-.34a6,6,0,0,1-.22-.82c-.12-.58-.19-.67-.35-.41m-28.74.31c-.33.24-.33.28,0,.28a.52.52,0,0,0,.45-.2c.21-.34,0-.39-.41-.08m70.55.14c0,.59,1.18.84,1.39.29.07-.18-.08-.23-.54-.18s-.66,0-.73-.28-.1-.19-.12.17M89,82.41c.29.29,1.27.49,1.27.25s-.17-.19-.38-.19a2.54,2.54,0,0,1-.72-.13c-.24-.08-.3-.06-.17.07m80,.4c.11.27,1.33.33,1.5.06.06-.09-.28-.2-.74-.24-.62,0-.83,0-.76.18m9.9-.19c-.4,0-.73.15-.73.25s1.31.23,1.46,0,.12-.29-.73-.22m-22.46.23c0,.11.31.2.68.2s.68-.09.68-.2-.3-.19-.68-.19-.68.09-.68.19m46.8.39c0,.38,0,.53.09.34a1.56,1.56,0,0,0,0-.68c-.05-.18-.09,0-.09.34m-126.38.21c-.52.31-.4.59.15.34.26-.12.48-.29.48-.38s-.21-.2-.63,0M92,83.63c.63.5,1,.49.42,0a1.53,1.53,0,0,0-.68-.37c-.12,0,0,.17.26.38m10,.48a.49.49,0,0,1-.41.3c-.16,0-.3.09-.3.2s-.08.16-.17.1-.23,0-.29.18-.05.26.43,0,1.11-.85,1-1-.16,0-.22.2m17.24.1c-.2.22-.27.39-.16.39a1.1,1.1,0,0,0,.54-.39c.2-.21.27-.39.16-.39a1.17,1.17,0,0,0-.54.39m-43.84.14a3.74,3.74,0,0,0-.78.54,4.34,4.34,0,0,1-.67.56c-.37.24-.41.31-.15.31s.33-.07.33-.15.34-.35.76-.58a5.19,5.19,0,0,0,1-.72c.3-.36.25-.36-.48,0M93,84.11a7.94,7.94,0,0,0,1.16.88,14.88,14.88,0,0,1,1.94,1.59c.69.72.81.78,1.21.57s.39-.21,0-.12-.67-.15-1.37-.83c-1.31-1.25-1.76-1.59-1.9-1.45s-.11,0-.11-.09-.22-.29-.48-.41-.49-.18-.49-.14m17.11.78a2.49,2.49,0,0,0,.49.49,1.46,1.46,0,0,0-.25-.49c-.18-.26-.4-.48-.49-.48s0,.22.25.48m7.91.69c-.37.33-.5.51-.28.41s1.22-1,1-1a4.2,4.2,0,0,0-.76.59m-18.62.18c-.24.22-.37.39-.27.39.27,0,.94-.56.82-.68s-.3.08-.55.29m11.45-.24c0,.08.18.26.4.4.37.23.38.22.18-.15s-.58-.54-.58-.25m-38,1c-.83,1-1,1.2-.83,1.2s1.5-1.54,1.38-1.66-.29.16-.55.46m39.2-.25a2.66,2.66,0,0,0,2.22.51c.35-.17.3-.2-.33-.21a4.4,4.4,0,0,1-1.43-.3c-.62-.26-.67-.26-.46,0m-13.72.1c-.24.1-.44.27-.44.38s.67-.06.87-.38.14-.23-.43,0m18.09.09c-.32.14-.45.27-.28.28a1.29,1.29,0,0,0,.68-.27c.46-.35.35-.36-.4,0m-1.36.29c-.07.11.06.2.28.2s.4-.09.4-.2-.13-.19-.28-.19a.51.51,0,0,0-.4.19m10.8.31c-.2.43-.19.47.1.31a.86.86,0,0,0,.37-.5c.07-.48-.22-.37-.47.19M125,88.33c-.89,1.11-1,1.42-.37.73.89-.92,1.23-1.36,1-1.35a2.31,2.31,0,0,0-.65.62m-53.69-.14c-.27.31-.31.48-.09.48s.25-.17.39-.38c.27-.45.07-.52-.3-.1m-.78,1.25a2.3,2.3,0,0,0-.43.78.2.2,0,0,1-.2.2c-.12,0-.15.1-.07.22s.21.12.39-.12.21-.43.15-.52,0-.16.06-.17.9-1,.69-1-.36.26-.59.57m9.37.39c-.07.11-.2.17-.28.11s-.32.1-.52.34-.24.32-.08.2a1.33,1.33,0,0,1,.49-.25c.38-.07.77-.36.65-.49s-.19,0-.26.09m8.82,0c0,.18.57.5.82.45.07,0,.3.19.51.46s.47.48.58.48a3.12,3.12,0,0,1,.9.82c.39.45.62.64.51.41-.42-.85-3.32-3.14-3.32-2.62m15.8.34c-.84.51-.7.63.19.17.5-.26.61-.26,1,0s.46.29.27-.07c-.32-.59-.66-.61-1.49-.11m18.34.46c-.48.42-.78.77-.66.77a3.08,3.08,0,0,0,1-.77c1-1,.83-1-.3,0m-45.16.84a4.57,4.57,0,0,0-.81,1c0,.09.28-.16.63-.56a4.12,4.12,0,0,1,1-.86c.21-.07.29-.19.18-.26s-.56.25-1,.7M103.11,91c-.26.2-.39.37-.3.36s.94-.55.84-.65-.29.08-.54.29m3.2-.26c0,.08.13.26.4.38.48.23.48.23.14-.14s-.41-.45-.54-.24M69.5,91.5a.91.91,0,0,0,0,.33c0,.08-.06.14-.15.14s-.22.22-.27.49,0,.48,0,.48a2.47,2.47,0,0,0,.51-1.5c-.06-.06-.12,0-.13.06m37.91.18a2.11,2.11,0,0,1,.13.41s.16.08.35.08a.93.93,0,0,1,.58.23c.13.13.23.15.23,0s-.32-.39-.71-.64c-.56-.37-.68-.4-.58-.13m13.18.44c-.35.17-.63.39-.63.48s-.09.12-.2.05-.19,0-.19.09c0,.29.2.25.6-.1a1.44,1.44,0,0,1,.59-.35,2.09,2.09,0,0,0,.65-.27c.6-.36-.08-.27-.82.1M109,92.65a.91.91,0,0,0,.62.36c.28.06.74.18,1,.25.8.21.32-.11-.73-.5-.7-.25-1-.29-.89-.11m-32.71.48c-.17.32-.15.36.09.27a.46.46,0,0,0,.3-.38c0-.38-.15-.34-.39.11m42.09-.07-.48.29.48-.1a4.62,4.62,0,0,1,.73-.11.22.22,0,0,0,.24-.2c0-.27-.4-.23-1,.12m54.8.46c-.15.25.3.25.68,0s.22-.19-.13-.19a.78.78,0,0,0-.55.19m3.59,0c.39.25.84.25.68,0a.73.73,0,0,0-.54-.19c-.35,0-.37,0-.14.19m71.68,0c-.06.11,0,.2.17.2a.51.51,0,0,0,.41-.2c.07-.1,0-.19-.17-.19a.55.55,0,0,0-.41.19m3.59,0c.38.25.58.25.58,0,0-.1-.19-.19-.43-.19s-.39,0-.15.19m-138.26.15a12.77,12.77,0,0,0,1.75,0c.45,0,0-.08-.93-.08s-1.33,0-.82.08m133.17,0c-.19,0-.34.17-.34.27s.33.23.48,0a.34.34,0,0,1,.4-.08c.15.06.28,0,.28-.1s-.21-.24-.82-.08m6.25.06a.19.19,0,0,0,.18.19,1.64,1.64,0,0,1,.49.12c.17.07.3,0,.3-.11s-.08-.18-.18-.11a.22.22,0,0,1-.3-.09c-.16-.25-.49-.25-.49,0m-177.57.65c-.32.68-.42,1.27-.18,1A4.59,4.59,0,0,0,76,93.77s-.2.23-.38.6m153.56-.23c-.13.13-.23.15-.23,0s-.17.07-.37.37a3.83,3.83,0,0,1-.92.92c-.31.2-.48.37-.38.37s0,.2-.3.44c-.5.46-1,1.11-.92,1.11s.85-.78,1.81-1.74a21.3,21.3,0,0,0,1.64-1.75,1,1,0,0,0-.33.23m8.3,0a5.18,5.18,0,0,1-1.28,1.49c-.7.66-1.2,1.19-1.1,1.19a4.19,4.19,0,0,0,1-.82,3.62,3.62,0,0,1,1.06-.83.23.23,0,0,0,.24-.19,2.47,2.47,0,0,1,.17-.54c.08-.19.1-.4,0-.47s-.12,0-.12.17m-75.27.14A60.47,60.47,0,0,1,157.49,99c-.21.15-.33.34-.25.42a16.45,16.45,0,0,0,2.56-2.3,15.67,15.67,0,0,1,2.56-2.29c.08.06.08,0,0-.12s-.05-.25.07-.25a.19.19,0,0,0,.2-.19.19.19,0,0,0-.19-.19.18.18,0,0,0-.2.17m32.3,2.78a11.94,11.94,0,0,0,.2,3.1c.29.22,2,.18,2,0s-.43-.19-1-.19h-1V97a15,15,0,0,0-.14-2.91,15,15,0,0,0-.15,3m15.19,0,.06,2.9h-3.2a13.66,13.66,0,0,0-3.32.19c-.08.13,1.07.19,3.29.19H210v-3a17.27,17.27,0,0,0-.15-3.09,13,13,0,0,0-.09,2.8m35.74-2.74c-.46.29-.15.36.38.08.27-.14.36-.26.2-.26a1.3,1.3,0,0,0-.58.18M93.1,94.64c.09.64.32,1.21.5,1.21s.21-.09-.11-.88-.46-.86-.39-.33m76.72-.15c-.16.1-.24.23-.18.29s.75-.09.75-.31-.21-.21-.57,0m10.47.1a.94.94,0,0,0,.65.29c.36,0,.34,0-.14-.29-.7-.37-.82-.37-.51,0m75,0a.87.87,0,0,0,.46.32,4.94,4.94,0,0,1,1.17.72c.77.57.93.63.74.29s-.3-.43-.39-.43a2.13,2.13,0,0,1-.72-.45c-.71-.6-1.66-.93-1.26-.45m-10.54.12a.24.24,0,0,1-.31.1c-.1-.06-.18,0-.18.08s-.28.33-.63.5a2.31,2.31,0,0,0-.88.7c-.18.28.13.14,1-.44l1.3-.88s0-.1,0-.16-.17,0-.24.1M169,95.06a1.48,1.48,0,0,1-.74.44.54.54,0,0,0-.45.4c0,.27.12.21.76-.28l.89-.68s0-.1,0-.16-.25.08-.44.28m12.4.15a22.3,22.3,0,0,0,2.43,1.93,3.21,3.21,0,0,0-1.19-1.09c-.11,0-.15-.08-.09-.17s-.23-.31-.62-.5-.63-.26-.53-.17M68.17,95.9c0,.68.35,1,.37.39,0-.35-.08-.63-.18-.63a.22.22,0,0,0-.19.24m7-.1c0,.43.38.71.38.29,0-.24-.08-.43-.19-.43s-.19.06-.19.14m25.41.54c0,.16.08.29.19.29s.19-.13.19-.29-.08-.29-.19-.29-.19.13-.19.29m66.34.2c-.14.16-.2.34-.13.41s.71-.29.71-.54-.31-.2-.58.13m91.48.18c.33.5.66.65.66.28,0-.11-.07-.15-.17-.09s-.22-.07-.27-.28-.2-.39-.32-.39-.09.19.1.48m-16.84.56c-.86,1-1.38,1.67-1.28,1.77a7.33,7.33,0,0,0,1.1-1.19c1.17-1.43,1.28-1.81.18-.58m-147.71.9c0,.8,0,1.13.08.73a8.9,8.9,0,0,0,0-1.46c0-.4-.08-.07-.08.73m131.65-.53a3.84,3.84,0,0,1-1,1.11,8,8,0,0,0-1.19,1.26c-.22.4.71-.4,1.91-1.65.67-.69.8-1,.46-1a.23.23,0,0,0-.2.25m-75.92.79c-.31.25-.45.45-.3.44s1.26-.9,1-.89a2.47,2.47,0,0,0-.7.45m81.91,1.89c-1.32,1.29-2.18,2.21-1.91,2A36.43,36.43,0,0,0,233.11,99s.16-.22.46-.48.49-.49.42-.49a33,33,0,0,0-2.52,2.34m-66.67-1c-.36.58-.2.62.22.06.19-.25.28-.46.19-.46s-.27.18-.41.4m10,0c-.18.07.68.13,1.91.13s2-.06,1.78-.13a13.8,13.8,0,0,0-3.69,0m64.93.24c-.18.55,0,.7.28.21.12-.24.14-.44,0-.5s-.24.07-.31.29m10.77-.29a12.54,12.54,0,0,0,3.2.07,8.17,8.17,0,0,0-1.94-.14c-.85,0-1.42,0-1.26.07M68.29,100a1.1,1.1,0,0,0,0,.66c.2.2.33-.12.26-.67l-.06-.55-.16.56m32.27-.07c0,.21.08.38.19.38s.19-.17.19-.38-.08-.39-.19-.39-.19.17-.19.39m55.9,0a.82.82,0,0,0-.23.52c0,.21.1.16.31-.15.34-.48.29-.74-.08-.37m16.48.17c-.54.44-.46.47.26.1.28-.15.45-.32.36-.37s-.37.06-.62.27m6.76-.22c0,.24.77.66.93.5s-.06-.24-.26-.39c-.44-.34-.67-.37-.67-.11m68,.56c-1.2,1-1.91,1.74-1.74,1.9s.13,0,.13-.11.08-.18.19-.11.2,0,.2-.16c0-.34.66-1,.84-.78s.13,0,.13-.17.36-.48.8-.68.71-.44.6-.51-.63.21-1.15.62m7.7-.41a2.49,2.49,0,0,0,.74.73,7,7,0,0,1,1.27,1.29c.3.41.62.75.72.75s.12-.1,0-.25l-.69-.86c-.59-.73-2-1.92-2-1.66m-107.76.44c-.5.55-.29.6.23.06.24-.25.36-.45.28-.45a1.15,1.15,0,0,0-.51.39m16.67-.21a.17.17,0,0,1-.12.25.59.59,0,0,0-.28.45c0,.34,0,.33.33-.08s.48-.8.17-.8c-.12,0-.16.08-.1.18m-71,.84c-.28,1-.15,1.19.23.28s.37-1.11.14-1.11c-.08,0-.25.37-.37.83m129.26-.52c-.18.47-.14.52.17.21s.37-.52.12-.52c-.1,0-.23.14-.29.31m-50.82.47c-.3.32-.46.58-.36.58s.64-.47.9-.92.05-.28-.54.34m9.38-.29c.86,1,2,2.11,1.66,1.55a5.14,5.14,0,0,0-1.56-1.7c-.36-.19-.37-.18-.1.15m-105.72.34a1.45,1.45,0,0,0,.27.64c.26.34.27.33.17-.16s-.44-.93-.44-.48m79.85.11c-.43.48.05.47.51,0,.24-.26.27-.35.08-.35a1.07,1.07,0,0,0-.59.35m-8.51.11c-.36.27-.45.51-.19.51.08,0,.25-.18.38-.39.29-.45.27-.47-.19-.12m92.13.26a9.47,9.47,0,0,1-.23.92c-.08.26,0,.23.16-.09.4-.7.57-1.36.36-1.36s-.23.24-.29.53m-17-.09a4,4,0,0,0-.57.63c-.15.21,0,.13.35-.19a4.05,4.05,0,0,0,.63-.63c0-.11-.12-.06-.41.19m-67.47.6c-.14.17-.16.33-.05.4s.24,0,.31-.21c.16-.43,0-.53-.26-.19m16.43.07c-.43.5-.79,1.23-.65,1.36s.11,0,.11-.12.09-.19.19-.12.2,0,.2-.19a2,2,0,0,1,.31-.79c.36-.55.27-.63-.16-.14m-78,.32c-.23.26-.7,1.29-.59,1.29a4.79,4.79,0,0,0,.86-1.45s-.16,0-.27.16m7.38.25a.8.8,0,0,0,.17.82c.2.2.31.22.31.06a.22.22,0,0,0-.21-.23c-.13,0-.16-.22-.08-.58.15-.72,0-.78-.19-.07m12.63-.18a11.06,11.06,0,0,0,3.63,0,11.84,11.84,0,0,0-3.63,0m132.81.29c-.36.47-.47.73-.29.73s.27-.22.39-.48c.24-.53.2-.63-.1-.25M69,103.69c.11.37.27.63.34.59s0-.81-.31-1-.2-.06,0,.46m158.31.56c-1.16,1.1-1.26,1.25-1,1.49s.31.18.29.09c-.09-.45.08-.72,1.09-1.73,1.48-1.46,1.18-1.36-.41.15m-44.15-.71c.11.22.16.45.11.5s.05.22.23.37c.43.35.19-.54-.26-1-.26-.26-.27-.25-.08.12m-74.07.06c-.16.1-.24.23-.18.29s.27,0,.48-.18c.41-.31.16-.4-.3-.11m42.89.78c-1.18,1.13-1.17,1.11-.38,2l.61.67-.43-.73-.44-.72.42-.59c.23-.32.49-.58.57-.58s.3-.22.48-.49c.45-.69.3-.61-.83.48m-51.24-.6c0,.25.55.43.67.23s0-.22-.2-.28c-.41-.16-.47-.15-.47,0m19.21,0c0,.08.18.2.39.26s.38,0,.33-.11-.72-.38-.72-.15m138.51-.09a6.21,6.21,0,0,0,.64,1.77c.25.25.13-.27-.26-1.12-.21-.47-.38-.76-.38-.65m-150.59.59c-.4.27-.73.57-.73.68s.19,0,.42-.2a2.87,2.87,0,0,1,.78-.5c.19-.06.35-.19.35-.29s0-.25-.82.31m-16.4-.18c.1.18-.53.88-.67.74s-.08,0-.08.21c0,.37,0,.38.59-.27.39-.41.47-.61.3-.71s-.2-.07-.14,0m71.4.56c-.12.37-.14.68,0,.68s.47-1.14.34-1.28-.18.22-.29.6m75-.24c0,.29.09.53.19.53.25,0,.25-.4,0-.78-.14-.22-.19-.17-.19.25m-116.47.18c1,.73,1.17.8.47.18a3,3,0,0,0-.85-.61c-.1,0,.07.19.38.43m-43.54.4c1,.92,1.33,1.19,1.33,1s-.26-.35-.57-.54-.52-.42-.46-.53,0-.13-.09-.06-.25,0-.31-.16a.43.43,0,0,0-.33-.29c-.12,0,.07.28.43.63m24.72-.27c-.07.11.06.3.29.42.53.28.6.18.17-.26-.21-.22-.39-.28-.46-.16m67,0c-.22.38-.33,1.23-.17,1.23s.21-.28.27-.63c.1-.64.06-.88-.1-.6m-99.86.59a.47.47,0,0,0,.2.35.21.21,0,0,1,.09.29.24.24,0,0,0,.11.3c.38.23.37,0,0-.6-.2-.32-.37-.47-.38-.34m174.7.41a1.41,1.41,0,0,0,0,.75c.15.15.38-.83.27-1.14,0-.14-.15,0-.23.39m-154.53-.06c-.37.45-.1.54.3.1.19-.22.26-.39.15-.39a.81.81,0,0,0-.45.29m14.17.1c.25.21.49.34.55.29s-.56-.67-.82-.68c-.1,0,0,.17.27.39m18.74-.12c.11.3.66.58.66.34a1,1,0,0,0-.62-.61c-.08,0-.1.12,0,.27m115,.33a10.86,10.86,0,0,0,.07,3.37c.1.38.16-.22.17-1.69,0-2.35,0-2.73-.24-1.68m-158.22.38c.67.45,1,.59.58.2a1.83,1.83,0,0,0-.68-.4c-.11,0-.06.09.1.2m9.42,0a1.41,1.41,0,0,1-.69.29c-.5.1-.86.51-.44.51.25,0,1.71-.95,1.47-1a.44.44,0,0,0-.34.16m137.8.21a.73.73,0,0,0,.52.4c.36,0,.18-.32-.34-.6-.36-.19-.37-.17-.18.2M259,107.67c0,.79.09,1.37.2,1.37s.19-.54.19-1.25a3.17,3.17,0,0,0-.19-1.37c-.12-.07-.2.39-.2,1.25m-96.35-.08c0,.53,0,.73.08.43a3.15,3.15,0,0,0,0-1c-.05-.24-.08,0-.08.54m-91.94-.33a1.22,1.22,0,0,1,.32.6c0,.13.08.19.17.13s.32.2.5.57.38.68.46.68a7.4,7.4,0,0,1,1.15,1c.56.53,1,.89,1,.81a6.23,6.23,0,0,0-1.05-1.13,17.58,17.58,0,0,1-1.77-2c-.39-.54-.8-1-.92-1s-.06.16.12.35m54,.39a4.27,4.27,0,0,0,.66.75c.18.1.17.06,0-.16s-.2-.35-.14-.4-.14-.26-.42-.44l-.52-.35.42.6m27.67-.16a1.89,1.89,0,0,0,.42.39s0-.18-.13-.39-.31-.39-.43-.39-.05.18.14.39m75.32.12c.66.9,2.07,2.39,1.63,1.72a5.44,5.44,0,0,0-.79-.94c-.22-.2-.36-.43-.31-.52s-.14-.29-.42-.48l-.52-.34.41.56m-74.45.82a1.3,1.3,0,0,0,.42.53l.42.37-.35-.53c-.35-.55-.49-.65-.49-.37m-27.73.32a1.84,1.84,0,0,0,.38.68c.21.27.38.39.38.26A1.57,1.57,0,0,0,126,109c-.21-.26-.39-.38-.39-.27m118.73.2c0,.66.34,1.28.35.68a1.53,1.53,0,0,0-.18-.78c-.15-.24-.18-.22-.17.1M95.67,110c-.61.61-1,1.1-.84,1.1s.23-.07.18-.16,0-.16.08-.16a3.79,3.79,0,0,0,1-.78c.82-.79,1.51-.92,2-.39a.62.62,0,0,0,.4.19c.11,0-.15-.22-.57-.48-1-.61-1-.62-2.27.68m73.63-.34a3.92,3.92,0,0,1,.12.68c0,.14.07.24.16.24s.12-.3.07-.67-.16-.68-.27-.68-.14.19-.08.43m-55.21-.1a3.17,3.17,0,0,0,.87,0c.24,0,0-.09-.44-.09s-.67,0-.43.09m40.3.25c.19.21.39.35.45.3s-.36-.69-.6-.69,0,.18.15.39M98.73,110c0,.1.12.27.39.39.6.28.72.28.56,0s-.84-.6-1-.42m12.86.21-.46.37.71-.22c.39-.12.67-.29.62-.37-.15-.24-.38-.18-.87.22m5.26-.2c0,.08.22.25.49.38s.48.15.48.06-.22-.26-.48-.38-.49-.15-.49-.06m29.22.13c-.09.24,0,.28.27.18s.39,0,.39.08.19.3.42.43c.41.22.41.2-.05-.37s-.86-.77-1-.32m16.81.41c0,.44.11.76.19.71s.17-.88,0-1.23-.17-.06-.14.52m58.38-.48c-.33.32-.3.64,0,.37s1,.34,1.77,1.43,2.35,2.9,2.1,2.42a51.23,51.23,0,0,0-3.55-4.45.75.75,0,0,0-.35.23m8.61-.07c-.06.1.12.38.4.63.5.46.5.46.28,0-.13-.24-.32-.43-.43-.43s-.14-.09-.08-.2.08-.19,0-.19a.29.29,0,0,0-.2.16m8.17.15a.72.72,0,0,0-.14.44c0,.22.06.24.22.08a.52.52,0,0,0,.14-.44c0-.12-.14-.16-.22-.08m-82.92.64a9.54,9.54,0,0,0,1.95,2.15c.11,0,.05-.15-.13-.34a6.48,6.48,0,0,1-1.38-1.75.49.49,0,0,0-.4-.36c-.23,0-.24,0,0,.3m-36.91,0c.16.1.21.19.11.19-.29,0,.24.46.59.51s.21-.06-.13-.42a1.53,1.53,0,0,0-.65-.47c-.12,0-.08.09.08.19M220.59,116a49,49,0,0,0,.09,5.25,44.12,44.12,0,0,0,.15-5.16c0-2.89,0-5.25-.09-5.25s-.12,2.32-.15,5.16m-110.8-4.27c-.78.95-.53,1,.3.07.38-.42.6-.76.48-.75s-.47.31-.78.68m17-.2a1.83,1.83,0,0,1,.12.59.25.25,0,0,0,.21.27c.13,0,.16-.13.08-.34a1.91,1.91,0,0,1-.15-.58c0-.13-.09-.24-.19-.24s-.13.14-.07.3m20.69-.16c0,.29.54.85.64.68s-.06-.32-.27-.5-.38-.26-.37-.18m83.4.23c.22.41.59.55.59.22,0-.11-.18-.29-.41-.41s-.38-.18-.18.19m-47.77.22c-.09.33-.06.36.17.17s.36-.57.1-.57c-.09,0-.22.18-.27.4m75.18-.1a1,1,0,0,0-.25.55.5.5,0,0,1-.19.41.45.45,0,0,0-.19.35c0,.21.67-.61.68-.83a1,1,0,0,1,.16-.36c.23-.35.08-.44-.21-.12m-13.11,0c-.07.12,0,.42.27.67s.36.39.22.07-.22-.52-.27-.67-.13-.21-.22-.07m26.44.06c-.24.15-.22.19.1.19a1.53,1.53,0,0,0,.68-.19c.24-.16.22-.19-.1-.19a1.53,1.53,0,0,0-.68.19m1.94,0a1.53,1.53,0,0,0,.68.19c.32,0,.34,0,.1-.19a1.53,1.53,0,0,0-.68-.19c-.32,0-.34,0-.1.19m-198.06.15c0,.08.31.29.68.46s.62.23.57.14c-.16-.26-1.25-.78-1.25-.6m26.53.33c0,.27.13.49.17.49s.07-.22.07-.49-.07-.48-.16-.48-.13.22-.08.48m17.41.09c.26.52.68,1,.68.71a2.13,2.13,0,0,0-.71-1.17c-.21-.08-.21,0,0,.46m50.53-.48a3.76,3.76,0,0,0,.86,1.45c.25.21.25.15,0-.41s-.84-1.28-.84-1m-77.4.5c-.47.35-.47.36,0,.25a1,1,0,0,0,.55-.3c.21-.34,0-.32-.51,0m139.48.57,1.65,2.06c.53.65,1.16,1.44,1.39,1.75s.43.45.44.32a1.06,1.06,0,0,0-.34-.58,7.67,7.67,0,0,1-.82-1,13.56,13.56,0,0,0-1.6-1.9,1.55,1.55,0,0,1-.43-.63c0-.1-.22-.34-.48-.52s-.38-.2.19.52m-49.43-.27c-.13.15-.2.27-.13.27s-.11.24-.38.53-.44.56-.39.61.39-.24,1-1.09c.36-.51.29-.73-.09-.32m89.92,0a2.6,2.6,0,0,0,.88,0c.24,0,0-.08-.44-.08s-.68,0-.44.08m-163.78.73c-.32.78-.34.88-.13.88s.25-.35.36-.77c.26-1,.15-1-.23-.11m161.85-.11c-.68.6-1.45,1.77-1.17,1.77.1,0,.32-.31.5-.68s.39-.68.47-.68a2.49,2.49,0,0,0,.71-.49c.31-.26.47-.48.35-.48a2.46,2.46,0,0,0-.86.56m4-.32a5.87,5.87,0,0,0,.77.58,2.31,2.31,0,0,1,.77,1c.22.62.56.93.56.52a6.54,6.54,0,0,0-1.58-2c-.53-.37-.89-.42-.52-.07m-196.93.15a.19.19,0,0,0,.17.19,2.56,2.56,0,0,1,.54.11c.32.11.32.09,0-.19s-.69-.39-.69-.11M91,113.06c-.18,0-.34.16-.34.25s.18.11.39.06.39-.18.39-.28,0-.16,0-.14l-.39.11m147.68,0c0,.33.23.8.39.8s0-.74-.22-.89-.17,0-.17.09m-89.53.42c.2.21.4.34.45.29s-.36-.68-.6-.68,0,.17.15.39m9.19,1.29c1.85,2.32,2.72,3.3,2.73,3.07a9.83,9.83,0,0,0-1.78-2.2,1.75,1.75,0,0,1-.44-.61,2,2,0,0,0-.53-.65,1.84,1.84,0,0,1-.54-.7c0-.1-.18-.29-.4-.41s.21.56,1,1.5m88.55-.6a4.16,4.16,0,0,0,1.25,1c.06-.06-.08-.25-.33-.42a10.07,10.07,0,0,1-1.09-1,3.08,3.08,0,0,0-.81-.65c-.09,0,.36.49,1,1.08m10-.24a4.15,4.15,0,0,1-1,.77c-.19.06-.34.21-.34.33s.11.14.34,0c.4-.22,1.93-1.77,1.75-1.77a3.21,3.21,0,0,0-.77.65m-85.51,0a.76.76,0,0,0,.44.29c.11,0,.08-.13-.05-.29a.76.76,0,0,0-.44-.29c-.1,0-.08.13.05.29m100-.16a20.18,20.18,0,0,0,.07,5.11,7.78,7.78,0,0,0,.19-2.62c0-1.44,0-2.62-.06-2.62a.5.5,0,0,0-.2.13m1.91.06a.5.5,0,0,0,.39.2.66.66,0,0,1,.47.34c.11.18.2.24.2.12s-.63-.85-.94-.85c-.13,0-.18.09-.12.19m-192.92.2c0,.1.13.19.29.19s.29-.09.29-.19-.13-.2-.29-.2-.29.09-.29.2m8.15,0c0,.1.13.19.29.19s.29-.09.29-.19-.13-.2-.29-.2-.29.09-.29.2m31.83,0c.06.76.33,1.24.35.61a1.12,1.12,0,0,0-.17-.74c-.11-.07-.19,0-.18.13m43.52.09a.55.55,0,0,0,.27.42c.32.1.28-.25-.05-.53s-.26-.16-.22.11M88,114.34a31.32,31.32,0,0,0,0,3.25l.06,3,.09-3.25c.1-3.2.09-3.5-.11-3m61.84.13a1.3,1.3,0,0,0,.49.48c.17.06.14-.06-.07-.38-.37-.57-.77-.66-.42-.1m-22.29,1.07c0,.75,0,1,.08.63a7.71,7.71,0,0,0,0-1.36c0-.34-.08,0-.08.73m149.83-1.12a2,2,0,0,0,.06.91,5.62,5.62,0,0,1,0,1.74c-.18,1.12.08,1.69.28.61.26-1.37,0-3.82-.34-3.26m-175.84,1.24c0,.75.06,1.09.17.92a3.06,3.06,0,0,0,0-2c-.09-.06-.17.42-.17,1.07m70.47-1a.23.23,0,0,0,.31.09c.09-.06.18,0,.18.08s.17.3.38.41c.51.27.5.11,0-.38s-1.06-.55-.84-.2m8.73,0c-.5.29-1,.73-.74.73a2.47,2.47,0,0,0,.74-.47c.63-.52.63-.62,0-.26m91.54,0c-.19.49,0,1.37.31,1.39s.19,0,.05-.06c-.51-.17-.29-1.41.25-1.41s.82.49.48,1c-.23.38-.23.39.06.15a.76.76,0,0,0,.09-1.15c-.32-.32-1.11-.3-1.24,0m-46.79.29c.14.22.32.4.4.4s.24.22.34.48a1.43,1.43,0,0,0,.59.69c.29.16.17-.08-.4-.81-.82-1-1.41-1.52-.93-.76m48.85.21c0,.21.09.39.19.39s.2-.18.2-.39-.09-.39-.2-.39-.19.18-.19.39m-34.68.19c.13.22.31.39.4.39s.06-.17-.06-.39-.29-.38-.39-.38-.08.17.05.38m28.47,0c0,.22.09.39.2.39s.19-.17.19-.39-.09-.38-.19-.38-.2.17-.2.38m-103.26.62a3.76,3.76,0,0,0,.45.74,2.32,2.32,0,0,1,.36.54c.13.24.31.43.41.43s-.09-.43-.42-1c-.75-1.2-1.25-1.68-.8-.74m8.87-.45a2.94,2.94,0,0,0,2,.49c.22-.1.09-.17-.46-.26a11.32,11.32,0,0,1-1.24-.28c-.31-.11-.42-.09-.33,0m5.25,0a3.82,3.82,0,0,1-1.11.18c-.4,0-.73.11-.73.23,0,.28,1.4.07,2.11-.31.55-.3.37-.37-.27-.1m69.94,0a4.36,4.36,0,0,0,1.74.63c.78,0,.37-.31-.68-.5a4,4,0,0,0-1.06-.13m5.23,0a5.08,5.08,0,0,1-1.11.17c-.64,0-.92.41-.29.41a4,4,0,0,0,1.89-.59c.07-.1.09-.18.06-.17l-.55.18m15,.68c0,.53,0,.73.08.43a3.5,3.5,0,0,0,0-1c0-.24-.08,0-.08.54m7.56.09c0,.48,0,.68.08.44a2.54,2.54,0,0,0,0-.87c0-.24-.08,0-.08.43m-156.19-.16a2.87,2.87,0,0,1-.15.68c-.1.28-.07.31.12.14a.82.82,0,0,0,.15-.68c-.05-.25-.1-.31-.12-.14m153.28.16c-.54.44-.25,1.14,1,2.51.34.37,0-.44-.42-.87-.68-.8-.78-1.23-.35-1.54.19-.14.31-.3.26-.35s-.29.06-.53.25M108.51,117a2.82,2.82,0,0,0,.58,1.38c.22,0,.12-.53-.14-.8a.48.48,0,0,1-.11-.48c0-.15,0-.27-.12-.27a.2.2,0,0,0-.21.17m43.38.11a.78.78,0,0,0,.38.38c.23.09.24,0,.08-.27s-.62-.53-.46-.11m88.72-.12a1,1,0,0,0,.63.62c.09,0,.07-.18,0-.39-.21-.38-.59-.53-.59-.23m27.55.33c0,.29.09.45.2.39a.5.5,0,0,0,0-.78c-.11-.07-.2.1-.2.39m-40.37.65a4.87,4.87,0,0,1,.8,1.15c0,.1.22.33.48.51s.49.43.49.58.94,1,1.11.81,0-.11-.07-.11a12.38,12.38,0,0,1-1.73-1.93,14.66,14.66,0,0,0-1.71-1.94c-.09,0,.2.41.63.93m44.45,0c0,.53.07,1,.17,1s.13-.37.07-.81-.05-.77.11-.67.18,0,.11-.16c-.24-.61-.46-.28-.46.67M236,117.76c.12.23.31.36.41.3.26-.17.23-.25-.22-.49s-.39-.18-.19.19m33.48-.2c-.13.21.07.79.28.79s.1-.21.05-.48c-.1-.53-.16-.58-.33-.31m6.86,0a3.67,3.67,0,0,1-.08.49c0,.18,0,.33.12.33a.18.18,0,0,0,.17-.17,2,2,0,0,1,.12-.49c.07-.17,0-.31-.1-.31s-.22.07-.23.15M152.74,118c0,.35.34.65.53.46s0-.27-.2-.45-.33-.31-.33,0m88.88,0c.07.33.72,1,1,1,.09,0,.13.06.08.14s.26.51.61.58.32,0-.75-1c-.54-.53-1-.84-.92-.68m31.53.18c.05.22.18.4.27.4.26,0,.21-.31-.1-.57s-.26-.16-.17.17m-111.95,0c-.06.1.06.34.27.53.44.39.51.17.11-.36-.15-.19-.32-.27-.38-.17m5.51.18c0,.16.31.47,1.22,1.2.29.23.32.23.22,0s-1.44-1.43-1.44-1.2m69.84.15a3.09,3.09,0,0,0,.67.93c.37.41.68.67.68.59,0-.24-1.34-1.74-1.35-1.52m21.75.39a1.5,1.5,0,0,1-.59.48c-.1,0-.23.14-.29.3s.14.11.56-.21.68-.6.68-.7.08-.13.19-.06.19,0,.19-.09c0-.34-.29-.23-.74.28m-138.9,0c-.12.14-.17.31-.1.37s-.11.26-.38.43c-.53.35-.86.92-.43.76a6.5,6.5,0,0,0,1.47-1.71c0-.21-.34-.11-.56.15m150.51-.12c0,.23.74.92.86.81s-.13-.29-.39-.54-.47-.37-.47-.27m5.89.15c-.06.16-.21.23-.32.16s-.14,0-.07.08a.21.21,0,0,1-.08.31c-.11,0-.09.08,0,0s.88-.89.67-.89-.18.13-.24.29m-148.72,0c-.21.38-.33,1.23-.17,1.23s.22-.28.28-.63c.09-.64,0-.88-.11-.6m26.41.2c.25.47.61.76.61.49a1.25,1.25,0,0,0-.42-.54c-.41-.37-.41-.37-.19,0m29,.29c-.36.41-.36.41.12.16s.64-.33.43-.46-.35.07-.55.3m94.21-.14a.65.65,0,0,0-.16.51c0,.12.18,0,.31-.29.25-.57.2-.64-.15-.22m-114.26.69a4,4,0,0,0,.72.77c.05,0,0-.13-.14-.29s-.17-.29-.09-.29-.09-.22-.38-.49c-.76-.71-.81-.59-.11.3m-52.66-.38a10.72,10.72,0,0,0,2.24,1.73c.37,0,.15-.35-.29-.46a3,3,0,0,1-1.11-.8c-.6-.63-1.12-.93-.84-.47m161.54.3c.27.29.63.37,1.69.37s1.42-.08,1.69-.37.33-.35-.08-.14a6,6,0,0,1-3.22,0c-.41-.21-.41-.2-.08.14m-168.95.31a.69.69,0,0,0,.32.51c.17.06.22,0,.13-.25a1.9,1.9,0,0,1-.13-.51.19.19,0,0,0-.19-.18c-.11,0-.17.19-.13.43m66.46,0c.22.24.45.37.53.29s0-.26-.24-.41c-.57-.43-.73-.35-.29.12m12.25.17c-1,.65-1,.7,0,.29a1.65,1.65,0,0,0,.79-.58c.15-.38.18-.39-.82.29m62.64-.51a1.26,1.26,0,0,0,.3.39c.34.34.76.42.57.12s-.87-.65-.87-.51m-89.43.21c0,.24.94,1.28,1,1.12s-.17-.4-.47-.7-.54-.5-.54-.42m102.23.1c-.15.1-.21.24-.13.32s.24,0,.37-.09c.29-.29.12-.45-.24-.23m13.39,0a.79.79,0,0,0,.29.44c.16.13.29.15.29.05a.76.76,0,0,0-.29-.44c-.16-.13-.29-.16-.29,0m5.81.15c-.26.31-.05.38.37.12.16-.11.18-.22.07-.29s-.3,0-.44.17m-37.55.35a2.14,2.14,0,0,1,.12.54.18.18,0,0,0,.19.17c.28,0,.24-.26-.11-.69s-.3-.34-.2,0m-120.82.23c-.2.16-.34.32-.29.36s1-.25,1-.45-.22-.24-.67.09m-37.6,0c-.18,0-.34.16-.34.25s.74,0,.89-.22,0-.18-.55,0m9.23,0c.17.27,1.08.44,1.21.22s-.06-.16-.28-.16a2.48,2.48,0,0,1-.72-.13c-.21-.09-.29-.06-.21.07m156.49.08a1,1,0,0,0,.58.31,2,2,0,0,1,.63.15c.19.08.34,0,.34,0s-.24-.24-.54-.3a8,8,0,0,1-.92-.25c-.34-.14-.36-.12-.09.14m-74.88.16c0,.13.08.17.19.11s.19,0,.19,0,.18.16.39.16.39-.06.39-.15-.12-.15-.28-.15a1.82,1.82,0,0,1-.58-.12c-.17-.06-.3,0-.3.11m8.53,0c-.87.25-1.3.63-.48.44.6-.14,1.69-.66,1.35-.64-.1,0-.5.1-.87.2m-66.44.36a2.14,2.14,0,0,0,.68.16c.18,0,.15-.06-.1-.16a2.18,2.18,0,0,0-.68-.17c-.18,0-.14.06.1.17m-9.6.07a4,4,0,0,0,.58,1.09,6.44,6.44,0,0,1,.48.68,10.31,10.31,0,0,0,2.33,2.46c.22.11,0-.23-.58-.75a14.93,14.93,0,0,1-1.55-1.82c-.8-1.2-1.26-1.81-1.26-1.66m-25.39.29c-.16.11-.18.22-.07.29s.3,0,.44-.17c.26-.31,0-.38-.37-.12m13.66,0c.24.38.92.63.71.26a.82.82,0,0,0-.5-.39c-.18,0-.27,0-.21.13m34.07.86c-.12.27-.3.48-.4.48s-.22.13-.28.29,0,.24.18.17,1-1.21.8-1.35-.18.14-.3.41m-48.88,0a2.64,2.64,0,0,0-.74.67c-.16.23-.38.36-.48.3s-.18,0-.18.18a1.14,1.14,0,0,1-.43.65,3.14,3.14,0,0,0-.7.84c-.14.26.1.08.54-.4s1.21-1.24,1.72-1.69c1-.87,1-1,.27-.55m16.25.2c.25.26.53.43.62.37s0-.27-.3-.48c-.67-.52-.85-.46-.32.11m1.37,1.31a2.84,2.84,0,0,0,.93.92c.32,0-.29-.81-1.06-1.41-.51-.4-.5-.37.13.49m29.57.5c-.32.29-.87.76-1.23,1.06s-.59.61-.52.68.27,0,.43-.25.38-.36.48-.33.14,0,.08-.15,0-.2.09-.2,1.45-1.13,1.33-1.25-.33.16-.66.44m-28.39.91c0,.21.45.87.6.87s.09-.13.09-.29a.27.27,0,0,0-.24-.29.39.39,0,0,1-.34-.24c-.06-.14-.1-.16-.11-.05m11.5.54c-.08.13-.07.17,0,.09s.28,0,.43.24c.35.51.72.51.4,0s-.68-.64-.85-.34m-33.78.52c-.37.59-.29.7.14.2s.47-.58.25-.58-.26.17-.39.38m8.49.91A7.76,7.76,0,0,0,79,130c0,.23.74-.44.78-.71s.43-.67.63-.55.15,0,.07-.09,0-.23.15-.23a.41.41,0,0,0,.36-.22,2.12,2.12,0,0,1,.92-.55c.46-.18.76-.38.66-.44a2.06,2.06,0,0,0-1,.37m4.65-.34c0,.09.18.21.39.27.46.12.53-.16.08-.33s-.47-.15-.47.06m33.77.1c-.19.23-.16.26.17.17s.4-.18.4-.27c0-.27-.32-.21-.57.1M87.75,128a7.89,7.89,0,0,0,1.85,1.81c.06,0-.28-.51-.74-1-.78-.82-1.11-1.06-1.11-.81m9,.69c.21.79.46,1.14.46.66a1.39,1.39,0,0,0-.29-.77c-.29-.36-.3-.36-.17.11m15.5-.2a.72.72,0,0,0,.55.19c.34,0,.37,0,.13-.19s-.83-.25-.68,0m3.88,0c-.15.25.3.25.68,0s.21-.19-.13-.19a.72.72,0,0,0-.55.19M72,128.68c-.12.44-.12,1.13,0,1,.28-.3.44-1,.22-1a.38.38,0,0,0-.22,0m6.67,2.06a2.43,2.43,0,0,0-.28,1.91c.17.29.21.23.21-.36a4.11,4.11,0,0,1,.21-1.24c.23-.62.16-.79-.14-.31m11.38.49a.51.51,0,0,0,.2.41c.1.07.19,0,.19-.17a.55.55,0,0,0-.19-.41c-.11-.07-.2,0-.2.17M71.52,133c0,.75,0,1,.08.63a7.71,7.71,0,0,0,0-1.36c0-.35-.08,0-.08.73m25.93,0a2.21,2.21,0,0,0,.2,1.17c.12.08.19-.32.19-1s-.08-1.18-.19-1.18-.2.48-.2,1.06m-7-.54c-.21.21-.16,1.23.06,1.23s.19-.31.19-.68c0-.7,0-.77-.25-.55m-12,.89a2.59,2.59,0,0,0,.38,2c.24.32.27.32.17,0a8.42,8.42,0,0,1-.26-1.35c-.1-.73-.19-.92-.29-.68m11.82,1.31c-.07.23-.09.46,0,.51s.16-.09.23-.32.09-.46,0-.51-.16.09-.23.32m-.89,1.7c-.82,1.13-1,1.5-.29.72.48-.55,1.16-1.65,1-1.65a6.8,6.8,0,0,0-.74.93M79,135.93A9.14,9.14,0,0,0,81,138.06c.27.2,0-.15-.56-.79l-1.22-1.35c-.1-.12-.16-.11-.16,0m-7.11.76c.06.21.17.62.24.92s.2.48.29.43.07-.38,0-.73c-.24-.7-.66-1.26-.48-.62m24.89.48c-.36.9-.37,1-.16,1a3.69,3.69,0,0,0,.53-1.7,2.07,2.07,0,0,0-.37.73m-8.75.57a1.39,1.39,0,0,1-.69.3c-.32.07-.53.21-.47.31s-.15.24-.48.3-.6.2-.6.29c0,.31,1.9-.57,2.32-1.08.14-.16.2-.3.14-.3a.35.35,0,0,0-.22.18m-6.5.6c0,.1,0,.19.07.19a6.68,6.68,0,0,1,.77.29c.39.16.71.25.71.19s-.26-.2-.58-.32-.59-.28-.59-.37a.18.18,0,0,0-.19-.18.19.19,0,0,0-.19.2m-8.73.69c0,.37.53,1.09.64.91s0-.4-.26-.64-.38-.36-.38-.27m11.25.08c0,.11.12.19.28.19a.51.51,0,0,0,.4-.19c.06-.11-.06-.19-.28-.19s-.4.08-.4.19m-10.48,1.13c0,.26.72,1.12.84,1s-.11-.34-.37-.64-.47-.46-.47-.36m19.79,2.14c-1,1-1.58,1.67-1.26,1.45a8.14,8.14,0,0,0,.95-.81c.2-.23.44-.36.53-.3s.25-.1.35-.35a3.87,3.87,0,0,1,.78-1,2.45,2.45,0,0,0,.59-.73c0-.21.16-.35-1.94,1.75m-18.82-.81a.43.43,0,0,0,.29.33.47.47,0,0,1,.29.41.27.27,0,0,0,.23.29,1.22,1.22,0,0,1,.58.32c.71.65.34.13-.51-.71-.48-.47-.88-.76-.88-.64m1.94,1.8c0,.11.2.29.44.42.43.23.43.22.07-.19s-.51-.5-.51-.23m14.12,1c-.4.22-.7.43-.67.47s1.27-.37,1.37-.63.09-.27.06-.26l-.76.42m-12.72,0c.1.28.54.44.54.19s-.14-.24-.3-.31-.28,0-.24.12m1.8.93c-.07.12,0,.2.13.17a4.28,4.28,0,0,1,1.76.42c.18.1.37.1.43,0s-.27-.27-.72-.4l-1.14-.33a.44.44,0,0,0-.46.12m7.67.31-.68.27.77-.11a2.4,2.4,0,0,0,1-.29c.27-.26-.26-.2-1,.13m-3.73.41a15.69,15.69,0,0,0,1.94,0c.5,0,0-.07-1-.07s-1.48,0-.91.07" transform="translate(-68.16 -50.07)"/><path id="path2" class="cls-3" d="M85.62,50.26c0,.11.13.2.29.2s.29-.09.29-.2-.13-.19-.29-.19-.29.09-.29.19m8,3.55a3.75,3.75,0,0,1,.63.63c.17.21.25.25.17.09-.22-.46-.71-1-.92-1s-.06.11.12.25m1.69,2.12a2,2,0,0,0,.39.54c.21.25.38.36.38.26a1.15,1.15,0,0,0-.38-.55c-.22-.19-.39-.31-.39-.25M88,58.56a2.06,2.06,0,0,0,.58.66c.32.29.58.45.58.37a2.17,2.17,0,0,0-.58-.66c-.32-.29-.58-.45-.58-.37m9.51,4.69a7.49,7.49,0,0,0,.12,2.08,15.38,15.38,0,0,0,0-4.07,5.72,5.72,0,0,0-.14,2m-19.21.12c0,.5,0,.53.22.21s.15-.42,0-.57-.21-.06-.21.36M71.5,64.43c0,.37,0,.52.09.34a1.56,1.56,0,0,0,0-.68c0-.19-.09,0-.09.34m8.69,3.09c0,.11.19.29.43.42.44.23.44.23.07-.19s-.5-.5-.5-.23m-7.92.5c.12.26.25.46.28.42s-.17-.91-.33-.91-.07.22,0,.49m11.65,1.2a4.79,4.79,0,0,0,1.07,0c.29,0,.05-.08-.53-.08s-.83,0-.54.08m39.51,2c.3.29.75.71,1,.92l.46.39-.39-.48A5.91,5.91,0,0,0,123,70.64c-.08,0,.11.23.4.53m-48.87.66a8,8,0,0,0,.82.84c.44.43.68.58.52.35-.27-.39-1.34-1.34-1.34-1.19m3.49,2.86c0,.09.14.22.31.29.48.18.52.14.21-.18s-.52-.37-.52-.11m35.7,0c0,.1.3.19.67.19a1.23,1.23,0,0,0,.78-.19c.07-.12-.19-.2-.67-.2s-.78.09-.78.2m31.81,13.77c0,7.72.05,14,.1,13.93s.12-27.74,0-27.87-.1,6.22-.1,13.94M210,77.65a30.11,30.11,0,0,1-.17,3.39c-.09.27-.07.31.1.15s.21-1.14.17-3.39l-.06-3.19,0,3M182.5,75.16a8.4,8.4,0,0,0,0,1.6l.06,1.34.1-1.6c.09-1.6.07-1.83-.12-1.34m3.06,0c-.29.29-.33,7.25,0,7.43a15.87,15.87,0,0,0,.24-3.77c0-2.14.05-3.89,0-3.89l-.24.23m-83.14.47c-.18.47-.14.52.17.2s.38-.51.12-.51c-.09,0-.22.14-.29.31m77.35,1.05c0,.8,0,1.12.07.72a7,7,0,0,0,0-1.45c0-.4-.07-.07-.07.73M81.11,76c.18.07.24.85.24,3s-.06,2.91-.24,3-.07.09.15.06.39-.21.44-2.94,0-3.23-.64-3.19c-.11,0-.08.06,0,.11m82.1.72c0,.63.3.81.35.21a.75.75,0,0,0-.15-.58c-.11-.06-.2.1-.2.37M188,76.4a10,10,0,0,0,1.55,0c.4,0,0-.08-.83-.07s-1.17,0-.72.07M163.21,78c0,.36.06.41.24.23s.18-.29,0-.47-.24-.13-.24.24m24.6-.06a10,10,0,0,0,1.55,0c.4,0,0-.07-.83-.07s-1.18,0-.72.07m-17.51.69a1.52,1.52,0,0,0,.15,1.23c.08.08.14-.27.14-.77,0-1-.13-1.17-.29-.46M172,79c0,.48,0,.68.08.44a2.54,2.54,0,0,0,0-.87c-.05-.24-.08-.05-.08.43m-70.29-.53c-.15.48-.14.92,0,.92s.19-.22.19-.48-.13-.68-.2-.44M179.77,81c0,1,0,1.38.08.93a12.77,12.77,0,0,0,0-1.75c0-.51-.08-.14-.08.82m2.68-.09a7.61,7.61,0,0,0,.12,1.87c.08.13.12-.44.09-1.26-.09-2.21-.19-2.48-.21-.61m-62.06-.78c0,.37,0,.52.09.34a1.56,1.56,0,0,0,0-.68c0-.19-.09,0-.09.34m32.29,1.11c-.06.08.56.12,1.36.08,1.07,0,1.52,0,1.65.2s.17.2.1,0-2.93-.55-3.11-.25m13.2,0a11.36,11.36,0,0,0,1.65,0c.45,0,.08-.07-.82-.07s-1.28,0-.83.07m21.72.19a6.18,6.18,0,0,0,1.36,0c.4,0,.12-.07-.62-.07s-1.08,0-.74.07m-86,.94a.56.56,0,0,0,.1.53c.17.16.22.08.22-.31,0-.58-.14-.68-.32-.22m101.68,6.49V94h6.4L206.52,94l-3.14-.06-.06-5.09-.06-5.08v5.14M118.48,85l-.37.42.54-.35c.55-.35.65-.49.37-.49a1.37,1.37,0,0,0-.54.42m-4.15,1.71c-.24.16-.21.19.13.2a.72.72,0,0,0,.55-.2c.15-.24-.3-.24-.68,0m9.8,2.87a5.91,5.91,0,0,0-.68.73c-.43.52-.41.51.24-.09s.82-.8.68-.79a1.13,1.13,0,0,0-.24.15M91.06,91.73c.25.34.49.58.55.53s-.15-.34-.45-.63l-.55-.53.45.63m65.41,2.33c1.15,0,3,0,4.17,0s.21-.07-2.08-.07-3.23,0-2.09.07m27.2,0a2.44,2.44,0,0,0-.26,1.21,8,8,0,0,1-.11,1.16c0,.06.06.21.21.35s.27,0,.27-1.21V94.12l3.05-.06,3.06-.06-3,0a20.29,20.29,0,0,0-3.21.1m11.6,0a4.79,4.79,0,0,0,1.07,0c.29,0,0-.08-.54-.08s-.82,0-.53.08m36.29,0c1.15,0,3,0,4.07,0s.15-.07-2.1-.07-3.13,0-2,.07m30.54,0,3.15.06v13.47c0,8.86.07,13.48.2,13.48.36,0,.25-26.9-.12-27A25.14,25.14,0,0,0,262,94l-3,0,3.15.06m-52.18,2.13c.09,3.73.17,4.09.2,1a16.11,16.11,0,0,0-.11-3,7.56,7.56,0,0,0-.09,2.08m48.7-.91a5.86,5.86,0,0,0,.07,1.5c.07.18.14-.34.15-1.17,0-1.79-.12-2-.22-.33m-96.79-.2c-.28.32-.45.58-.37.58a2.3,2.3,0,0,0,.66-.58c.28-.32.45-.58.37-.58a2.53,2.53,0,0,0-.66.58m28.44,12.6c0,7.31,0,10.3,0,6.65s0-9.64,0-13.29,0-.66,0,6.64M152,96A5.12,5.12,0,0,0,151,97,8.35,8.35,0,0,0,152.21,96a5,5,0,0,0,.94-1.07A7.61,7.61,0,0,0,152,96m-51.4-.2c0,.16.08.3.19.3s.19-.14.19-.3-.08-.29-.19-.29-.19.14-.19.29m-7.18.39c0,.16.09.29.19.29s.2-.13.2-.29-.09-.29-.2-.29-.19.13-.19.29m141.12,1.4-.67.75c-.05.06,0,0,.2,0S235.28,97,235.16,97s-.34.23-.66.59M75,98.18c0,.48,0,.68.09.44a3.24,3.24,0,0,0,0-.88c0-.24-.09,0-.09.44m128.27,12.51c0,5.76,0,8.09,0,5.18s0-7.63,0-10.48,0-.46,0,5.3m18.52-9.43c-.9.92-1.07,1.3-.2.46a3.68,3.68,0,0,0,.77-.9s-.3.16-.57.44m-66.86.46c-.38.49-.51.79-.28.65s.69-.89.54-.89-.16.11-.26.24m74.33.88a5.1,5.1,0,0,0-.68.72c-.15.21,0,.08.45-.29a7.73,7.73,0,0,0,.72-.73c0-.1-.1,0-.49.3m-137.33.93c-.18.28-.28.55-.23.6s.24-.17.41-.5c.38-.73.27-.79-.18-.1m16.43.21a.38.38,0,0,0-.24.3c0,.13.09.13.26,0s.32-.15.39-.08.13,0,.13-.1-.13-.26-.54-.1m-1.11.84c-.5.55-.29.6.23.06.24-.25.36-.45.28-.45a1.24,1.24,0,0,0-.51.39m-16.54.31c-.24.28-.33.47-.21.42s.88-.93.72-.92a2.84,2.84,0,0,0-.51.5m92.68-.24a.56.56,0,0,0,.19.42c.11.06.2,0,.2-.17a.53.53,0,0,0-.2-.42c-.1-.06-.19,0-.19.17M162.68,106c0,.42,0,.57.09.33a2.21,2.21,0,0,0,0-.77c-.05-.19-.09,0-.09.44m81.86.77c0,.43.05.58.09.34a2,2,0,0,0,0-.78c0-.18-.09,0-.09.44m-92.45,0a.76.76,0,0,0,.36.37c.17.06.23,0,.17-.17a.74.74,0,0,0-.37-.37c-.17-.06-.23,0-.16.17m.77.93a1.23,1.23,0,0,0,.53.56c.36.18.38.17.13-.06a7.11,7.11,0,0,1-.53-.56c-.22-.25-.24-.24-.13.06m91.68.62c0,.43.05.58.09.34a2,2,0,0,0,0-.77c0-.19-.09,0-.09.43m-81.86.78c0,.43,0,.58.09.34a2.27,2.27,0,0,0,0-.78c-.05-.18-.09,0-.09.44M147,111c.41.47.5.51.5.23,0-.1-.19-.29-.44-.41-.43-.23-.43-.23-.06.18m-1.35,5c0,2.88,0,4.09.06,2.68s0-3.77,0-5.24-.06-.32-.06,2.56m123.56-2.79c-.37.42-.37.42.07.19.24-.12.43-.31.43-.41,0-.28-.09-.24-.5.22m-12,.2c-.21.2-.29.36-.17.36s.74-.55.62-.66-.25.1-.45.3m-75.58.46c-.25.26-.37.48-.27.47s1-1,.8-1a2.75,2.75,0,0,0-.53.49m-79.93-.25c-.15.48-.14.93,0,1s.19-.13.19-.47-.13-.81-.2-.55m170.38.09a3.15,3.15,0,0,0,1,0c.24,0,0-.08-.53-.08s-.73,0-.44.08m-191,.76c.18.08.24.87.24,3v2.88l-.59.13c-.33.08-.56.18-.5.23s.41,0,.79-.13l.7-.23,0-2.94c0-2.77-.08-2.94-.44-3s-.28,0-.15.06m39.3,1.24c0,.69,0,1,.07.63a5.31,5.31,0,0,0,0-1.26c0-.35-.07-.06-.07.63m134.78-.58c-.25.21-.37.38-.25.38s.81-.52.81-.69-.07-.09-.56.31m17.24.3c0,.6.06.69.42.63.91-.14,1-1.32.07-1.32-.43,0-.49.08-.49.69m-96.51.67c-.07.11.16.19.57.19s.69-.09.69-.19-.26-.2-.57-.2a1,1,0,0,0-.69.2m75.17,0c0,.1.31.19.68.19s.68-.09.68-.19-.31-.2-.68-.2-.68.09-.68.2m-149.49.88a.82.82,0,0,0,.1.72c.16.16.21,0,.21-.5,0-.83-.13-.93-.31-.22m18.39.76c-.12.27-.15.49,0,.49s.45-.8.33-.91-.16.16-.28.42m63.5,1.07a4.76,4.76,0,0,0,.13,2.33,2.76,2.76,0,0,0,.16-1.26c0-1.24-.06-1.45-.29-1.07m75.23,1c0,.7,0,1,.08.63a6.63,6.63,0,0,0,0-1.26c-.05-.34-.08-.06-.08.63m15-.75c.42.27.75.35,1,.25s.22-.17-.24-.23a1.72,1.72,0,0,1-.77-.25.66.66,0,0,0-.39-.18c-.11,0,.08.19.43.41m-2.09.17c0,.11.18.19.39.19s.39-.08.39-.19-.18-.19-.39-.19-.39.08-.39.19m-2.71.15a2.58,2.58,0,0,0,.61.72c.41.38.54.45.4.19-.24-.43-1-1.13-1-.91m-31,.69a1.52,1.52,0,0,0,.39.52c.21.21.39.31.39.22a1.24,1.24,0,0,0-.39-.51c-.22-.2-.39-.3-.39-.23M114,121.6a4.79,4.79,0,0,0,1.07,0c.29,0,0-.08-.54-.08s-.82,0-.53.08m139.23.05c-.4.13-.41.16-.09.17a1.3,1.3,0,0,0,.68-.17c.34-.22.1-.22-.59,0M175,122a2.54,2.54,0,0,0,.87,0c.24,0,0-.08-.43-.08s-.68,0-.44.08m-91.08,5A4.79,4.79,0,0,0,85,127c.29,0,.05-.08-.53-.08s-.83,0-.54.08m26.6,1.14c.3.16.6.25.66.19s0-.23-.63-.38l-.58-.12.55.31m3.37.61a6.63,6.63,0,0,0,1.26,0c.35-.05.07-.08-.63-.08s-1,0-.63.08m-16.44,2.56c0,.33.09.59.2.59s.19-.21.19-.47a.82.82,0,0,0-.19-.59c-.12-.07-.2.12-.2.47m0,3.32c0,.63,0,.64.22.22s.16-.5,0-.66-.22-.07-.21.44m-1.06,3.79c-.19.47-.15.52.17.2s.37-.51.12-.51-.23.14-.29.31" transform="translate(-68.16 -50.07)"/><path id="path3" class="cls-4" d="M214.52,97.69c0,12.7,0,17.87,0,11.48s0-16.77,0-23.08,0-1.09,0,11.6m-75.27.1c0,12.64,0,17.82.06,11.5s0-16.67,0-23-.06-1.15-.06,11.49M179.51,76.7l.09,1.6.06-1.44a5.06,5.06,0,0,0-.09-1.59c-.09-.09-.11.56-.06,1.43m6.29-1.36c-.05.14-.07,1.87,0,3.83l.05,3.59.1-3.83c.1-3.76.09-4.09-.11-3.59M159,78.88c0,2,0,2.83.06,1.78s0-2.7,0-3.68-.06-.13-.06,1.9m27.9-1.75c0,.43,0,.58.09.34a2.25,2.25,0,0,0,0-.78c0-.18-.08,0-.08.44m-7.29,2.18c0,.08.44.13,1.1.1,2-.1,2.25-.18.58-.21a5.35,5.35,0,0,0-1.68.11M187,80.53l0,1.26h1.16l1.17,0-1.11-.08-1.11-.07-.07-1.2-.07-1.2v1.26m-21.16-.88c.08.25,1.68.38,1.68.13,0-.1-.39-.22-.87-.25s-.85,0-.81.12m-12.38.1c-.07.12.19.19.67.19s.78-.08.78-.19-.3-.19-.66-.19-.73.08-.79.19m26.15,1.36c0,.8,0,1.13.08.73a8.9,8.9,0,0,0,0-1.46c0-.4-.08-.07-.08.73M84.22,88.62a2.19,2.19,0,0,0,.77,0c.19,0,0-.08-.44-.08s-.58,0-.33.09m105.86,18.87c0,7.2,0,10.15,0,6.55s0-9.5,0-13.1,0-.65,0,6.55m4.44-10.38c0,1.5,0,2.08.07,1.3s0-2,0-2.71-.07-.08-.07,1.41m64.39-1.45c0,.69,0,1,.08.63A6.63,6.63,0,0,0,259,95c0-.35-.08-.07-.08.63M158.06,98.42l-.57.63.63-.57a4.05,4.05,0,0,0,.63-.63c0-.15-.16,0-.69.57m-9.25,1a2.23,2.23,0,0,0-.53.62c0,.07.26-.13.58-.44.53-.51.66-.67.53-.67a4.33,4.33,0,0,0-.58.49m27.26-.36a3.76,3.76,0,0,0,1.06,0c.3,0,.06-.08-.53-.08s-.83,0-.53.08m75.26,0a3.83,3.83,0,0,0,1.07,0c.29,0,0-.08-.53-.08s-.83,0-.54.08m-136.66,3.69a2.25,2.25,0,0,0,.78,0c.18,0,0-.08-.44-.08s-.58,0-.34.09m54.41,4.81c0,.42,0,.58.09.34a2,2,0,0,0,0-.78c0-.19-.09,0-.09.44m103.41,4.13c-.13.08.11.14.52.14s.65-.06.52-.14a1.13,1.13,0,0,0-.52-.15,1.16,1.16,0,0,0-.52.15m-4.33,4.59a.79.79,0,0,0,.2.59c.11.07.19-.13.19-.47s-.09-.6-.19-.6-.2.22-.2.48m-9.25,3.5c0,.64,0,.88.08.53a5.61,5.61,0,0,0,0-1.16c-.05-.3-.08,0-.08.63m-55.93.84c0,.16-.86.24-3,.27l-3,0L200,121c2.68.06,3.55-.07,3.15-.46-.07-.08-.13,0-.13.09m-43.64.18a29,29,0,0,0-3.92.2,24.66,24.66,0,0,0,3.68.08,24.64,24.64,0,0,0,4-.24c.1-.1.14-.17.1-.14s-1.79.07-3.87.1M141,121c.83,0,2.18,0,3,0s.15-.07-1.5-.07-2.33,0-1.51.07m43,0a15.45,15.45,0,0,0,3.08.15,12.9,12.9,0,0,0,2.94-.15,32.7,32.7,0,0,0-6,0m31.59,0a26.63,26.63,0,0,0,5,0,16.79,16.79,0,0,0-3-.11c-1.62,0-2.51.06-2,.1m17.13,0c1.1,0,2.85,0,3.88,0s.14-.06-2-.06-3,0-1.88.06m26.49,0a7.49,7.49,0,0,0,2.23.09c3.86-.08,4.28-.16,1-.2a23.09,23.09,0,0,0-3.23.11m13.06,0c-.05.08.33.15.84.15s.89-.07.84-.15a2.59,2.59,0,0,0-1.68,0m-157.55,7.42-1.55.12,1.49,0a3.78,3.78,0,0,0,1.61-.16c.07-.11.1-.18.06-.16s-.76.09-1.61.16" transform="translate(-68.16 -50.07)"/><path id="path4" class="cls-5" d="M75.23,54.39l-.76.82.82-.77c.77-.71.91-.88.77-.88a7.92,7.92,0,0,0-.83.83m18.44,0a4.84,4.84,0,0,0,.86.77,3.79,3.79,0,0,0-.67-.77,5.27,5.27,0,0,0-.85-.78,3.39,3.39,0,0,0,.66.78m-10,2.72c-.2.13-.09.15.39.06.83-.15,1-.26.37-.26a1.7,1.7,0,0,0-.76.2M71.89,61.13c0,.37,0,.52.09.34a1.56,1.56,0,0,0,0-.68c0-.19-.09,0-.09.34m-.17,2.23c0,.75,0,1,.07.63a6.17,6.17,0,0,0,0-1.36c0-.35-.07,0-.07.73m.14,2.17a1.74,1.74,0,0,0,.14.91c.08,0,.12-.23.08-.62-.1-1.07-.2-1.2-.22-.29m42.23,2.33a4.58,4.58,0,0,0,1.17,0c.29,0,0-.08-.64-.08s-.88,0-.53.08m-41.45.26a1.25,1.25,0,0,0,.28.68c.3.37.3.37.13,0-.1-.21-.23-.52-.29-.68s-.11-.25-.12,0m9.24,1c.25.22,1.26.41,1.14.22a1.3,1.3,0,0,0-.7-.27c-.33-.05-.52,0-.44,0m38,0c.13.2.87.37.87.19s-.21-.19-.48-.24-.44,0-.39,0m-35.74.51a1.56,1.56,0,0,0,.68,0c.18,0,0-.09-.34-.09s-.53,0-.34.09m9.45,2.88a4.66,4.66,0,0,0-.76.87,6.07,6.07,0,0,0,1-.87,4.51,4.51,0,0,0,.76-.88,6.42,6.42,0,0,0-1,.88M124,72.09c.15.21.49.66.76,1s.6.76.74,1,.11.1-.05-.22a7.46,7.46,0,0,0-1-1.35c-.39-.43-.59-.6-.45-.39m79,2a1.78,1.78,0,0,0-.78.28c-.13.12-.09.15.1.08a13.6,13.6,0,0,1,1.75-.28c1.16-.13,1.26-.17.48-.16-.53,0-1.23,0-1.55.08m3.39,0c.27,0,.83.16,1.24.25s.68.09.58,0a3.4,3.4,0,0,0-1.24-.25c-.58,0-.84,0-.58,0M89.79,75l-.58.26.58-.11c.62-.13.79-.21.66-.34a1.34,1.34,0,0,0-.66.19m55.62,13.71c0,7.76,0,14.11.1,14.11a1,1,0,0,0,.44-.21c.25-.18.24-.19,0-.1s-.34-.68-.39-13.9l0-14-.05,14.11m64.17-10.85.09,3.14.06-3a17.74,17.74,0,0,0-.1-3.14,13.91,13.91,0,0,0,0,3m-50.15-2.66a5.78,5.78,0,0,0,2.3,0,3.89,3.89,0,0,0-1.39-.12c-.71,0-1.12.06-.91.09m19,0a1.56,1.56,0,0,0,.68,0c.19,0,0-.09-.34-.09s-.52,0-.34.09m5,0c.42.09.43.15.49,3.67l.06,3.58V75.19l-.48,0c-.42,0-.43,0,0,.06m3.69,0a15.69,15.69,0,0,0,1.94,0c.51,0,0-.07-1-.07s-1.48,0-.92.07M87.79,78.89c0,3.18,0,3.59.73,3.56.21,0,.18-.06-.09-.16S88,81.91,87.94,79l-.1-3.19,0,3.12M174.39,76c0,.08.23.17.61.2.8,0,.8,0,0-.24-.29-.06-.56,0-.62,0M81.82,78.78c0,1.55,0,2.18.06,1.41s0-2,0-2.82-.06-.14-.06,1.41m37.36-2.13a2.31,2.31,0,0,0,.51.58s-.09-.26-.32-.58a2,2,0,0,0-.51-.58s.09.26.32.58m40.93-.51a2.09,2.09,0,0,0,.76.15c.42,0,.72,0,.67-.08s-1.43-.21-1.43-.07m26.71,0c-.24.24-.14,1.82.11,1.91a8.91,8.91,0,0,0,2.8.06,5.4,5.4,0,0,0-1.54-.15h-1.31V76.28l1.5-.07,1.51-.07-1.47,0a5.78,5.78,0,0,0-1.6.09m-19.34.34a3.61,3.61,0,0,0,.69,1.28c.05,0,0-.28-.22-.63-.36-.71-.47-.86-.47-.65m-13,1.61c.34.8.59,1,.34.3a1.88,1.88,0,0,0-.4-.74c-.09-.06-.07.14.06.44m17.36-.39a5.82,5.82,0,0,0,0,2.46c.09.05.15-.52.15-1.25s0-1.34,0-1.34a.92.92,0,0,0-.14.13m-69.74.38a4.51,4.51,0,0,1-.14.78c-.11.34-.1.34.11,0a1.29,1.29,0,0,0,.14-.78c-.09-.43-.09-.43-.11,0m78.1.21a11.36,11.36,0,0,0,1.65,0c.45,0,.08-.07-.83-.07s-1.28,0-.82.07m-53,2.38a8.55,8.55,0,0,0,.14,2.2,16,16,0,0,0,0-4.27,6.31,6.31,0,0,0-.14,2.07m40.43-1.42c.15.31.14.45,0,.52s-.18.1,0,.11c.38,0,.45-.29.14-.68s-.29-.35-.1,0m12-.18c0,.08.4.12,1,.09,1.9-.09,2.13-.18.58-.21a5,5,0,0,0-1.58.12m8,0a7.72,7.72,0,0,0,1.36,0c.4-.05.12-.08-.62-.08s-1.08,0-.74.08m-35.84.76a5,5,0,0,1-.32.7c-.06.11,0,.14.09.07s.68-1.29.52-1.29-.18.23-.29.52m35,.59a3.4,3.4,0,0,0,.12,1.29c.08,0,.12-.32.09-.82-.1-1.53-.18-1.73-.21-.47m-66.05,0a.79.79,0,0,0,.07.63c.15.25.19.19.19-.31,0-.69-.08-.8-.26-.32m32.18.59a10.6,10.6,0,0,0,3.07,0A6.58,6.58,0,0,0,154,81c-1,0-1.52,0-1.2.09m13.24,0a10,10,0,0,0,1.55,0c.4,0,0-.08-.83-.08s-1.18,0-.72.08M197,82c0,.53,0,.73.09.44a3.46,3.46,0,0,0,0-1c0-.24-.08,0-.08.53M81.59,82a1,1,0,0,1-.62.27.61.61,0,0,0-.48.18c-.07.12.12.12.51,0,.62-.18,1.08-.5.92-.65s-.2,0-.33.19m121.52.12a4.61,4.61,0,0,0-.1,1.12c0,.52.06.43.17-.38.17-1.12.13-1.49-.07-.74m-125,1a2.1,2.1,0,0,0-.63.36c0,.15,1.16-.3,1.28-.49s.14-.21-.65.13m24.08.51c0,.51.1.83.19.74s.09-.49,0-.91l-.2-.74,0,.91m94.64,4.86,0,5.58h-.86a2,2,0,0,0-.95.14c-.05.08.35.12.88.08,1.23-.09,1.14.36,1.08-6L196.86,83l0,5.58m6.25.82c0,2.46,0,3.43.06,2.17s0-3.26,0-4.46-.07-.16-.06,2.29m-91.56-3.09c.41.31.77.37.6.11a1.06,1.06,0,0,0-.54-.28c-.43-.11-.43-.1-.06.17M125,88.14c-.29.39-.33.53-.12.36s.79-1,.65-1a3,3,0,0,0-.53.63m-3,3c-.35.3-.42.42-.18.3s1-.82.84-.8a4.36,4.36,0,0,0-.66.5m-44.93.8c-.56.68-.8,1-.7,1a3,3,0,0,0,.61-.68c.53-.69.6-1,.09-.34m97,1.6c-.2.13.19.19,1.26.19s1.46-.06,1.26-.19a4.5,4.5,0,0,0-2.52,0m75.26,0c-.2.13.19.19,1.27.19s1.46-.06,1.26-.19a4.54,4.54,0,0,0-2.53,0m-95.12.73a66.63,66.63,0,0,0,8,0,34.69,34.69,0,0,0-3.89-.1,30.78,30.78,0,0,0-4.09.14m29.69,0a5.84,5.84,0,0,0-.13,1.59v1.46l-.63-.57-.63-.57.57.63c.72.8.85.66.92-1l.06-1.35,2.86-.06,2.86,0v13.3c0,7.32.07,13.27.15,13.22s.1-6.06,0-13.35l-.09-13.26-2.92,0a19.23,19.23,0,0,0-3.06.08m22.27.06,3.3.11.11,2.81.11,2.81V97.11l0-2.91h-6.78l3.29.11m27.13,0c3.36,0,3.84.1,3.74.36s0,.24.08.17c.89-.55.14-.67-3.74-.63l-3.93,0,3.85.06m21.08-.06c0,.06.26.24.58.4s.58.26.58.21-.26-.24-.58-.4-.58-.26-.58-.21m4.78,0a5.43,5.43,0,0,0-.13,1.53,3.68,3.68,0,0,1-.19,1.51c-.11,0-.09.07,0,0s.27-.52.31-1.54l.05-1.5,3,.06a14.11,14.11,0,0,0,2.9-.09,33,33,0,0,0-6,0m-31.65,1.85-1.74,1.8,1.79-1.74c1.67-1.62,1.88-1.85,1.74-1.85s-.83.81-1.79,1.79m-66.83-.29-1.06,1.12,1.11-1.06c.61-.58,1.12-1.09,1.12-1.12s-.19,0-1.17,1.06M68.16,98.22c0,1,.06,1.33.2,1.12a4.14,4.14,0,0,0,0-2.42c-.13-.08-.2.4-.2,1.3m6.66,0c0,.8,0,1.13.08.73a8.9,8.9,0,0,0,0-1.46c0-.4-.08-.07-.08.73m19.21,0c0,.8,0,1.13.07.73a8.9,8.9,0,0,0,0-1.46c0-.4-.07-.07-.07.73m147,.15c-.56.67-.8,1-.7,1a3,3,0,0,0,.61-.68c.53-.69.6-1,.09-.33m-10.36,2.61-1.16,1.22,1.21-1.16c1.13-1.08,1.3-1.27,1.16-1.27s-.57.55-1.21,1.21m-58.7-.22-.85.79.92-.74a8.09,8.09,0,0,0,.92-.79c0-.15-.21,0-1,.74m83.63-.72a2.72,2.72,0,0,0,.63.53c.45.32.55.35.36.1s-1-.8-1-.63m-58.73,10.34c0,5.68,0,10.36.1,10.41s.13-7.56,0-17c0-2-.07,1-.09,6.63m50-9.3-.67.73.73-.67a7.17,7.17,0,0,0,.73-.73c0-.15-.17,0-.79.67m-91.66.1-.57.63.63-.57a4.61,4.61,0,0,0,.63-.63c0-.15-.16,0-.69.57m8.64.68c-.4,1.07-.41,1.12-.23.92s.64-1.46.51-1.46-.18.24-.28.54m39.28,9.07c0,5.33,0,7.48.06,4.78s0-7.06,0-9.7-.06-.42-.06,4.92m18.09-8.53c-.3.26-.47.48-.38.48a1.66,1.66,0,0,0,.63-.49c.58-.62.45-.61-.25,0m-121.36.69a1.12,1.12,0,0,0,.42.68c.43.36.43.36.12,0a3.41,3.41,0,0,1-.42-.68c-.09-.25-.11-.25-.12,0m18.41.21a3.49,3.49,0,0,0,.77.33c.37.12.59.14.49,0a2.17,2.17,0,0,0-.78-.32c-.32-.08-.53-.1-.48,0m65.69,2a4.41,4.41,0,0,0,.19.86c.15.16,0-.88-.13-1.25s-.14-.15-.06.39m-21,.21a18.49,18.49,0,0,0,0,4.28,6.76,6.76,0,0,0,.15-2.18c0-1.32,0-2.41,0-2.41a1.17,1.17,0,0,0-.15.31m75.11.18c0,.27.12.48.16.48s.08-.21.08-.48-.08-.49-.17-.49-.12.22-.07.49m-114.8.52a3.81,3.81,0,0,0,.63.65c.35.32.48.39.29.17s-.27-.48-.19-.58.07-.12,0,0a.38.38,0,0,1-.44-.07c-.14-.12-.26-.18-.26-.13m60.82,1.51c0,.54.06,1,.14,1s.15-.44.15-1-.07-1-.15-1-.14.44-.14,1m-97.67-.19c-.68.14-.68.14-.1.17a1.89,1.89,0,0,0,.87-.17c.32-.21.22-.21-.77,0m-4.22.13a1.52,1.52,0,0,0,.67,0c.19,0,0-.08-.33-.08s-.53,0-.34.08m1.31.11c0,.08.43.15,1,.15s1-.07,1-.16-.44-.15-1-.15-1,.07-1,.16m154.58,1.66c-.06.38,0,.57.07.46a.87.87,0,0,0,.11-.64c-.06-.39-.09-.36-.18.18m-54.07,0c0,.27-.08.7-.13,1l-.1.49.2-.48a2,2,0,0,0,.14-1L184,109l0,.48m-71,0c-.36.1-.62.22-.58.26a3.1,3.1,0,0,0,1-.18c.53-.15.79-.27.58-.27a5.16,5.16,0,0,0-1,.19m13.2.76c.11.32.24.55.28.51a1.87,1.87,0,0,0-.4-1.1s0,.26.12.59m19.38.25c-.15.19-.2,1.77-.16,5.39l.05,5.11.05-5.15c0-3.69.11-5.21.27-5.38s.19-.23.12-.23a.78.78,0,0,0-.33.26m77.94,1.63c.21.29.66.84,1,1.21s.19.13-.31-.53c-.89-1.19-1.46-1.74-.69-.68m22,.81a2.35,2.35,0,0,0,.49.69c.1.07,0-.19-.22-.57-.49-.83-.69-.92-.27-.12m12.39,0c-.19.3-.43.66-.54.82s-.15.24,0,.14,1.09-1.49.94-1.49a2,2,0,0,0-.41.53m14.62-.39a3.24,3.24,0,0,0,.88,0c.24,0,0-.09-.44-.09s-.68,0-.44.09m-170.34.35a2.17,2.17,0,0,0-.1.74c0,.27.08.17.18-.26.17-.72.12-1-.08-.48m-12.29.5a1.44,1.44,0,0,0-.63.28c0,.14,1-.13,1.25-.32s.22-.2-.62,0m37.29,2.21a9.4,9.4,0,0,0,.14,2.3,17.51,17.51,0,0,0,0-4.46,6.86,6.86,0,0,0-.14,2.16M270.1,113.6c-.25.27-.42.52-.37.56s.28-.18.53-.49c.56-.68.46-.73-.16-.07M157.48,114a3.65,3.65,0,0,0,.63.71c.13,0-.71-1.14-1-1.29s0,.18.32.58m114.38-.19a3.84,3.84,0,0,0,.76.19c.48.09.6.07.39-.06s-1.34-.3-1.15-.13m-184,3.52c0,1.81,0,2.58.07,1.7s0-2.35,0-3.29-.07-.23-.07,1.59m-6,0c0,1.7,0,2.38.06,1.49s0-2.28,0-3.1-.06-.1-.06,1.61m38.85-2a1.18,1.18,0,0,0,.06.73c.14.23.19.12.19-.42,0-.82-.09-.93-.25-.31m105.78.55a4.12,4.12,0,0,0,.63.71c.12.07,0-.19-.32-.58-.65-.85-.9-1-.31-.13m50.49.49c0,.42,0,.58.09.33a2.19,2.19,0,0,0,0-.77c0-.19-.08,0-.08.44M102,117.48c.15,1,.26,1.12.26.37a1.94,1.94,0,0,0-.19-.85c-.12-.2-.15,0-.07.48m81.73,2.1.1,1.39.06-1.24a4,4,0,0,0-.09-1.4c-.09-.08-.12.48-.07,1.25m52.56-1.06a2.61,2.61,0,0,0,.53.63c.21.17.16,0-.12-.36-.51-.7-.7-.82-.41-.27m22.46-.22a3,3,0,0,1,.31,1.42l.07,1.25v-1.34c0-1-.09-1.36-.31-1.42s-.22,0-.06.09m12.2,2.28a1.34,1.34,0,0,0,.66.29c.16,0,0-.13-.26-.29-.71-.37-.89-.37-.4,0m3.57,0c-.27.15-.35.27-.19.27a1.41,1.41,0,0,0,.67-.29c.46-.35.18-.34-.48,0m-133.7.61c.88,0,2.32,0,3.2,0s.16-.06-1.6-.06-2.48,0-1.6.06m16.49,0c1.09,0,2.88,0,4,0s.2-.06-2-.06-3.08,0-2,.06m28,0c.82,0,2.18,0,3,0s.15-.06-1.5-.06-2.33,0-1.5.06m13.09,0c.88,0,2.32,0,3.2,0s.16-.06-1.6-.06-2.48,0-1.6.06m17.56,0c.82,0,2.18,0,3,0s.15-.06-1.5-.06-2.33,0-1.5.06m16.39,0c1.09,0,2.88,0,4,0s.19-.06-2-.06-3.08,0-2,.06m28.33,0c.89,0,2.28,0,3.1,0s.1-.06-1.61-.06-2.37,0-1.49.06m11.82,0a3.24,3.24,0,0,0,.88,0c.24,0,0-.09-.44-.09s-.68,0-.44.09m-160.26.25a2.32,2.32,0,0,0,1,.29c.42,0,.58,0,.37,0s-.65-.19-1-.29-.52-.13-.38,0m4.29-.08a2.23,2.23,0,0,1-.76.27c-.53.13-.55.16-.15.17a2.24,2.24,0,0,0,1-.26c.26-.16.39-.29.27-.29a.59.59,0,0,0-.33.11m56.1.13a1,1,0,0,0,.72.1c.52-.06.5-.07-.17-.17-.41,0-.65,0-.55.07m4.87-.05-.68.14.62,0a1.12,1.12,0,0,0,.74-.17c.06-.11.09-.18.06-.17l-.74.17m70.22,0a3.41,3.41,0,0,0,1.38.29c1.48.15,4.25,0,4.25-.28s-.37-.08-.83,0a13.91,13.91,0,0,1-2,.15,14.07,14.07,0,0,1-2-.15c-.46-.09-.83-.1-.83,0m-73.08.33a7,7,0,0,0,1.45,0c.4,0,.08-.07-.72-.07s-1.13,0-.73.07M77,122.73l-.54.5.63-.44a3.43,3.43,0,0,0,.63-.5c0-.15-.22,0-.72.44m28.84,2.12a4.33,4.33,0,0,0,.76.68s-.2-.3-.56-.68a4,4,0,0,0-.76-.68s.2.31.56.68m-21.77,2a2.54,2.54,0,0,0,.87,0c.24,0,0-.08-.43-.08s-.68,0-.44.08m-2.89.83-.46.38.53-.23c.3-.13.54-.31.54-.39s-.11-.18-.61.24m32.57.73a11.36,11.36,0,0,0,1.65,0c.45,0,.08-.08-.83-.08s-1.27,0-.82.08m-34.62,1.26c-.22.29-.47.93-.35.93a2.17,2.17,0,0,0,.36-.59c.31-.61.3-.74,0-.34M71.72,133c0,.85,0,1.18.07.72a8,8,0,0,0,0-1.55c0-.4-.07,0-.07.83m.17,2.42c0,.38,0,.53.09.34a1.52,1.52,0,0,0,0-.67c0-.19-.09,0-.09.33m12.66,10.29-2.13.11,2,0a11.88,11.88,0,0,0,2.42-.14c.21-.1.26-.16.1-.15s-1.25.08-2.43.15" transform="translate(-68.16 -50.07)"/></g></svg>