<svg id="svg" xmlns="http://www.w3.org/2000/svg" viewBox="0 0 173.09 79.47"><defs><style>.cls-1{fill:#585858;}.cls-1,.cls-2,.cls-3,.cls-4,.cls-5{fill-rule:evenodd;}.cls-2{fill:#2c2c2c;}.cls-3{fill:#3c3c3c;}.cls-4{fill:#343434;}.cls-5{fill:#040404;}</style></defs><g id="svgg"><path id="path0" class="cls-1" d="M115.85,44.74c-.07.11.06.2.29.2s.41-.09.41-.2-.13-.2-.29-.2a.53.53,0,0,0-.41.2m-3,.42c-.27.43.27.64,1.31.49.68-.09,1-.24,1-.42,0-.35-2.13-.41-2.34-.07m4.56.07c0,.31,1.84.66,2.22.42.12-.07.27,0,.33.18a1.07,1.07,0,0,0,.71.43c.32.07.58.21.58.31s.15.19.33.19c.52,0,3.72,3.08,3.72,3.59a.46.46,0,0,0,.3.38.76.76,0,0,1,.31.7c0,.39.1.59.3.59s.3.26.3,1.11.07,1.11.31,1.11.3-.26.3-1.12-.09-1.15-.3-1.23a.5.5,0,0,1-.31-.43,4,4,0,0,0-.84-1.87c-.1,0-.17-.13-.17-.3s-.09-.3-.19-.3a9.21,9.21,0,0,1-1.6-1.42,5.12,5.12,0,0,0-1.83-1.42c-.24,0-.42-.13-.42-.3s-.2-.3-.59-.3a.78.78,0,0,1-.7-.3c-.16-.43-2.76-.45-2.76,0m-6.27.62a.29.29,0,0,1-.3.3.3.3,0,0,0-.3.31.35.35,0,0,0,.38.3.57.57,0,0,0,.5-.3c.07-.18.37-.31.73-.31s.61-.1.61-.3-.22-.3-.81-.3-.81.08-.81.3m-1.41.86a2.78,2.78,0,0,0-.75.59,1.49,1.49,0,0,1-.66.47c-.11,0-.21.14-.21.31a.31.31,0,0,1-.3.3.29.29,0,0,0-.31.28.83.83,0,0,1-.3.53.92.92,0,0,0-.3.63c0,.21-.09.38-.2.38s-.21.23-.21.5-.11.51-.3.51-.3.22-.3.81.09.81.27.81.33-.32.41-.81.21-.81.31-.81.23-.23.3-.51.22-.5.33-.5.2-.13.2-.29a7.53,7.53,0,0,1,2.51-2.54.26.26,0,0,0,.28-.34c-.07-.38-.33-.49-.77-.32M115,51.46c.05.17.5.26,1.26.26s1.21-.09,1.26-.26-.27-.25-1.26-.25-1.32.07-1.26.25m-.81.3c-.25.05-.46.17-.46.27a.19.19,0,0,1-.2.19,1.86,1.86,0,0,0-1,1,1.07,1.07,0,0,1-.31.53c-.37.37-.29.74.17.83.24,0,.34-.07.34-.38a3,3,0,0,1,1.84-1.81.36.36,0,0,0,.39-.4c0-.22-.07-.39-.16-.38l-.6.12m3.92,0c-.21.21-.15.67.08.67a4.18,4.18,0,0,1,1.11.95c.72.77.91.88,1,.61s-.18-.65-.88-1.35c-1.06-1.07-1.11-1.1-1.33-.88m-12.87,4.11c0,2.32,0,2.83.29,2.83.41,0,.47-.41.42-2.93-.06-2.81,0-2.73-.41-2.73s-.3.45-.3,2.83m15.1-1.49c-.3.3-.15,2.91.16,2.91s.59-.83.45-1.86c-.11-.85-.37-1.29-.61-1.05m6.74,1.57c0,.93.05,1.1.31,1s.34-1.91-.06-2c-.18-.06-.25.23-.25,1m-15,1.22a1.31,1.31,0,0,0,.07.76c.27.43.65-.12.5-.73s-.45-.67-.57,0m14.4,1.41c0,.87-.07,1.13-.3,1.13s-.3.19-.3.51a.68.68,0,0,1-.31.63.54.54,0,0,0-.3.46,7.56,7.56,0,0,1-1.52,1.88c-1.58,1.62-1.79,2-1.11,2,.22,0,.41-.13.41-.3a.29.29,0,0,1,.3-.3.3.3,0,0,0,.3-.31.31.31,0,0,1,.3-.3.31.31,0,0,0,.31-.3.3.3,0,0,1,.3-.31.29.29,0,0,0,.3-.3.3.3,0,0,1,.31-.3.31.31,0,0,0,.3-.31c0-.16.09-.3.2-.3s.25-.23.33-.51.2-.5.3-.5.18-.26.18-.59a.73.73,0,0,1,.32-.7c.24-.09.3-.37.25-1.17-.09-1.5-.57-1.57-.57-.09m-7.31-.08a3,3,0,0,1-1.21.88c-.68.1-.76.74-.1.74s2.56-1.68,2.56-2.16-.5-.28-1.25.54m-6.5-.07c-.24.24-.15.47.16.47a.31.31,0,0,1,.31.31c0,.36.53.4.65,0s-.85-1.11-1.12-.83m-6.81,1.29c0,.58.08.8.3.8s.3.19.3.51c0,.55.56,1.31,1,1.31s.32-.7-.05-1a.87.87,0,0,1-.3-.54.51.51,0,0,0-.3-.4c-.17-.06-.31-.36-.31-.68a.76.76,0,0,0-.3-.68c-.24-.09-.3.06-.3.69m34.68-.62c-.15.24.79.5,1.21.34.17-.07.3-.21.3-.33s-1.35-.27-1.51,0m-26.46.49c-.13.36,0,.53.51.53a.36.36,0,0,0,.37-.41.46.46,0,0,0-.88-.12m23.52.12c0,.39.1.42,1,.37.7,0,1-.15,1-.37s-.27-.32-1-.36c-.86-.06-1,0-1,.36m5.36-.2c-.23.39.13.61,1,.61a1.6,1.6,0,0,1,1.13.31c.32.38,1.11.31,1.11-.11,0-.17-.22-.33-.51-.37a1,1,0,0,1-.66-.36,2.36,2.36,0,0,0-2.07-.08m-27.4.71c0,.21.22.3.71.3s.71-.09.71-.3-.22-.3-.71-.3-.71.09-.71.3m20.3,0a.49.49,0,0,1-.4.3.29.29,0,0,0-.28.31c0,.18-.19.3-.51.3s-.5.11-.5.3a.31.31,0,0,1-.31.31.3.3,0,0,0-.3.3c0,.17-.09.3-.2.3a4.19,4.19,0,0,0-1.62,1.74,1.12,1.12,0,0,1-.3.62,1.1,1.1,0,0,0-.31.69c0,.21-.08.39-.18.39s-.25.36-.32.81a2.07,2.07,0,0,1-.32.92,12,12,0,0,0-.19,2.93c0,2.37,0,2.82-.3,2.82a.3.3,0,0,0-.3.3c0,.21-.21.31-.61.31s-.61.1-.61.3-.19.3-.5.3-.51.09-.51.18-.18.23-.4.29-.41,0-.41-.08a2,2,0,0,0-1-1,.2.2,0,0,1-.2-.2c0-.11-.23-.26-.51-.33s-.5-.25-.5-.4a.29.29,0,0,0-.28-.29.46.46,0,0,1-.4-.3A.68.68,0,0,0,123,72c-.27,0-.53-.09-.57-.2-.16-.48-1.38-.48-1.38,0s.09.44.52.36.57,0,.71.28a.74.74,0,0,0,.58.38.54.54,0,0,1,.49.3.49.49,0,0,0,.43.3c.17,0,.31.09.31.21s.13.2.3.2a3.25,3.25,0,0,1,1.13.91c.88,1,1.84,1.23,2.08.6a.59.59,0,0,1,.52-.3c.23,0,.41-.09.41-.21s.16-.26.36-.33.69-.26,1.11-.44l.76-.33-.05-3.19c0-2.92,0-3.18.3-3.18s.36-.17.36-.69.11-.73.3-.8a.56.56,0,0,0,.3-.5.93.93,0,0,1,.31-.64.84.84,0,0,0,.3-.45c0-.21.22-.47,1.47-1.72a3.42,3.42,0,0,1,1.11-.86.24.24,0,0,0,.25-.21c0-.11.13-.2.29-.2a.62.62,0,0,0,.46-.28,1,1,0,0,1,.66-.36.64.64,0,0,0,.57-.42c.09-.47-1.32-.52-1.5,0m10.44.62a.52.52,0,0,0,.4.43c.23.06.41.19.41.29s.11.18.26.18a1,1,0,0,1,.58.35c.18.19.59.59.91.88a4.15,4.15,0,0,1,1.21,1.63.8.8,0,0,0,.39.45.69.69,0,0,1,.29.62c0,.32.11.51.3.51s.3-.21.3-.71-.11-.76-.3-.83a.47.47,0,0,1-.3-.4.28.28,0,0,0-.26-.28c-.15,0-.28-.19-.29-.42a1.81,1.81,0,0,0-.55-.9,1.74,1.74,0,0,1-.52-.69c0-.12-.27-.21-.61-.21s-.6-.11-.6-.31a.31.31,0,0,0-.31-.3.31.31,0,0,1-.3-.3c0-.19-.19-.31-.5-.31s-.51.11-.51.32M107.7,62.37c-.38.38-.3.64.35,1.18a1.87,1.87,0,0,1,.61.75.25.25,0,0,0,.22.26,1,1,0,0,1,.52.3,1.13,1.13,0,0,0,.7.3.36.36,0,0,1,.39.31c0,.18.19.3.48.3a1.09,1.09,0,0,1,.74.31c.33.4,1.08.3,1.17-.16.05-.27-.07-.35-.56-.35-.34,0-.62-.09-.62-.2s-.22-.26-.49-.32a.94.94,0,0,1-.6-.41.43.43,0,0,0-.33-.29.91.91,0,0,1-.46-.2,8.41,8.41,0,0,1-1.69-1.67c-.15-.28-.24-.3-.43-.11m13.38,2.88a.74.74,0,0,1-.69.32c-.65,0-.85.19-.61.58s1.42.13,1.42-.17c0-.09.2-.21.43-.28s.39-.23.34-.37a.49.49,0,0,0-.89-.08m18.6.61a.54.54,0,0,1-.48.31c-.49,0-1.82,1.2-1.82,1.64a.54.54,0,0,1-.3.46c-.32.12-.4.67-.18,1.23.14.37.68.06.68-.4a4.18,4.18,0,0,1,.86-1.68.41.41,0,0,0,.16-.35c0-.19.21-.29.6-.29s.61-.11.61-.25.4-.26,1.36-.26,1.37-.06,1.37-.3c0-.45-2.69-.55-2.86-.11M113.32,68.5c0,2.28,0,2.32-.46,2.32a1.77,1.77,0,0,0-.87.29,2.6,2.6,0,0,1-.9.35c-.78.11-.79.78,0,.78.42,0,.62-.1.62-.3s.23-.31.88-.31c1.36,0,1.55-.33,1.55-2.78,0-2.2-.1-2.68-.53-2.68-.22,0-.28.48-.28,2.33m5.46-2c0,.17.18.3.4.3s.41-.13.41-.3-.18-.31-.41-.31a.37.37,0,0,0-.4.31m23.95-.09c-.07.12.06.27.29.33s.43.23.43.39.22.28.6.28.61-.1.61-.31a.31.31,0,0,0-.31-.3.49.49,0,0,1-.42-.3.84.84,0,0,0-1.2-.09m8.6.79c0,.59.09.81.31.81s.3-.22.3-.81-.08-.8-.3-.8-.31.22-.31.8m-6.74.34c-.26.27-.13,1.08.17,1.08s.31.31.31,1.61c0,1.6.21,2.16.57,1.48a7.06,7.06,0,0,0-.12-3.27,1.28,1.28,0,0,1-.34-.58c-.14-.46-.34-.57-.59-.32m78.53.77c0,.35.48.49,2,.56l1.11.05v4l-.7.1a3.19,3.19,0,0,0-2.14,1.26c-.06.2-.2.36-.3.36s-.19.5-.19,1.11c0,.85.07,1.11.3,1.11s.3-.25.3-1c0-.57.1-1,.22-1a1.61,1.61,0,0,0,.66-.49,1.9,1.9,0,0,1,1.46-.56l1-.06V68.09L225,68c-1.56-.05-1.87,0-1.87.25M151.94,70.2c0,1.57.26,2.17.51,1.17.2-.77,0-2.63-.26-2.72s-.25.33-.25,1.55m14-1.33c0,.13-.07,7.24,0,15.81l.05,15.57,3.39,0,3.39.06V95.79c0-4.06,0-4.54.3-4.27a1,1,0,0,1,.31.52c0,.12.13.22.3.22a.3.3,0,0,1,.3.3.31.31,0,0,0,.31.31c.18,0,.3.18.3.46,0,.57,1,1.76,1.48,1.76s.45-.52,0-.68a.49.49,0,0,1-.31-.4.47.47,0,0,0-.3-.41.46.46,0,0,1-.3-.4.5.5,0,0,0-.31-.41.49.49,0,0,1-.3-.42c0-.17-.09-.31-.19-.31s-.25-.19-.32-.41a.54.54,0,0,0-.43-.4c-.16,0-.24-.1-.17-.21s-1.1-1.89-1.29-1.71-.14,2.34-.15,5a50.59,50.59,0,0,1-.16,5.14c-.28.45-4.92.3-5.17-.16s-.3-28.66-.08-29.49c.12-.44.19-.45,2.73-.45s2.6,0,2.61.45c0,.25,0,3.73.06,7.74,0,6.69.07,7.28.39,7.34a.46.46,0,0,0,.49-.29c.16-.43.6-.93,2.62-3A10.77,10.77,0,0,0,177,79.91c0-.1.14-.19.31-.19a.29.29,0,0,0,.3-.3c0-.17.09-.31.2-.31s.21-.13.21-.3a.29.29,0,0,1,.3-.3.27.27,0,0,0,.3-.25c0-.14.28-.44.61-.66s.6-.52.61-.66.58-.25,2.22-.25c2,0,2.76-.19,2-.46a15.78,15.78,0,0,0-4.08.28,1.41,1.41,0,0,1-.76.18c-.35,0-.57.11-.57.28a.47.47,0,0,1-.3.4c-.17.06-.3.19-.28.27.07.45-.05.87-.25.87a1.65,1.65,0,0,0-.7.5,1.71,1.71,0,0,1-.68.51c-.12,0-.21.14-.21.3a.31.31,0,0,1-.31.31c-.16,0-.3.09-.3.21a1.71,1.71,0,0,1-.51.68,1.65,1.65,0,0,0-.5.7c0,.12-.14.23-.3.23a.3.3,0,0,0-.31.3.29.29,0,0,1-.3.3.3.3,0,0,0-.3.31.31.31,0,0,1-.31.3c-.26,0-.3-.94-.3-7.29V68.58l-3.35,0c-2.34,0-3.38.1-3.44.26m54.71.1c0,.3-.12.35-.6.28s-.61,0-.61.24a.3.3,0,0,1-.27.32,2.79,2.79,0,0,0-1.35,1.38.27.27,0,0,1-.3.24c-.2,0-.3.2-.3.59a.78.78,0,0,1-.31.7c-.23.09-.3.49-.3,1.82v1.71l-.85-.06c-1-.07-1.43,0-1.26.32.06.1-.08.18-.31.18-.56,0-.65,5-.09,5.19s.69-.3.47-.89a10.66,10.66,0,0,1,0-3.58c.12-.58.17-.6,1.34-.61,1.51,0,1.53,0,1.49-2.1a4.24,4.24,0,0,1,.18-1.82,3.24,3.24,0,0,0,.58-1c.21-.48.49-.86.63-.86a.29.29,0,0,0,.26-.31.3.3,0,0,1,.3-.3c.17,0,.3-.09.3-.2s.13-.2.28-.2a.85.85,0,0,0,.53-.31,1.08,1.08,0,0,1,.72-.3c.67,0,1.1-.21,1.1-.53s-.25-.28-.81-.28-.81.07-.81.37m8.83-.24c-.64.65-.14.78,2.78.71,3.75-.09,3.39-1,3.32,8.27,0,4.11,0,7.47.06,7.47s.27-.2.44-.45a20.5,20.5,0,0,1,1.44-1.64,5.75,5.75,0,0,0,1.13-1.47.3.3,0,0,1,.3-.28c.17,0,.31-.09.31-.2a2.85,2.85,0,0,1,.65-.87c3.14-3.24,3.38-3.58,2.58-3.58-.22,0-.4.13-.4.3a.31.31,0,0,1-.31.31.3.3,0,0,0-.3.3.3.3,0,0,1-.3.3.31.31,0,0,0-.31.31.3.3,0,0,1-.25.31c-.14,0-.48.29-.76.63a7.87,7.87,0,0,1-.86.95,1.12,1.12,0,0,0-.35.68c0,.38-.68,1.17-1,1.17-.11,0-.2.13-.2.3s-.1.3-.22.3a1.2,1.2,0,0,0-.56.34c-.31.32-.34-.11-.39-6.67,0-6-.09-7-.35-7a.3.3,0,0,1-.3-.31c0-.31-5.83-.47-6.14-.17m-92.65,2.38c-.18.93.39,1.8,2.07,3.16.4.32,1.47.24,1.47-.11q0-.3-.6-.3c-.41,0-.61-.1-.61-.31a.3.3,0,0,0-.3-.3c-.17,0-.3-.09-.3-.21a1.64,1.64,0,0,0-.51-.68,1.56,1.56,0,0,1-.51-.89c0-1.12-.52-1.39-.71-.36M119.12,71c-.4.4-.09.67.77.67.64,0,.91-.08.91-.28,0-.4-1.36-.72-1.68-.39m-9.85,1.37c0,.2-.18.31-.51.31a.71.71,0,0,0-.63.31.46.46,0,0,1-.39.3.3.3,0,0,0-.29.3.3.3,0,0,1-.3.31c-.17,0-.3.09-.3.21a5.83,5.83,0,0,1-1.11,1.28c-1.13,1.08-1.36,1.6-.81,1.82.16.06.3,0,.3,0a1.93,1.93,0,0,1,.46-.68c1.76-2,2.75-2.89,3.39-3.09.22-.07.4-.2.4-.3s.2-.2.45-.24c.65-.09.58-.66-.1-.74-.4,0-.56,0-.56.26m35.26,0a.46.46,0,0,1-.4.3.3.3,0,0,0-.28.31.29.29,0,0,1-.3.3.3.3,0,0,0-.3.3c0,.19-.19.31-.51.31s-.5.11-.5.3.2.3.6.3.61-.09.61-.2a.22.22,0,0,1,.23-.2c.37,0,1.62-1.45,1.51-1.75s-.51-.35-.66,0m6.8.92c0,.52-.1.85-.29.92a1.09,1.09,0,0,0-.42.71c-.07.32-.21.59-.31.59s-.19.12-.19.28a13.49,13.49,0,0,1-3,3.15c-.12,0-.21.14-.21.31s-.12.3-.26.28c-.53-.07-.76,0-.76.32,0,.57,2-.08,2-.65a.25.25,0,0,1,.22-.26c.48,0,2.62-2.38,2.62-2.91,0-.33.11-.52.3-.52s.3-.2.3-.52a.71.71,0,0,1,.31-.63c.2-.07.3-.4.3-1s-.08-.89-.3-.89-.31.23-.31.82M141,74.77a.31.31,0,0,0,.61,0,.31.31,0,1,0-.61,0m56.62,1-.51.21.7.19c.74.21,2,.06,2-.23s-1.42-.51-2.22-.17m63.29-.1c-.89.16-.94.46-.09.49,2.23.08,3.22-.26,1.41-.49a5.77,5.77,0,0,0-1.32,0m-76.15.73c-.35.21-.34.23.21.33,1.32.24,1.08.94-1.13,3.22a19,19,0,0,0-2,2.26c0,.1-.14.19-.31.19a.31.31,0,0,0-.3.3c0,.17-.09.31-.2.31s-.2.13-.2.3-.1.3-.22.3a3.24,3.24,0,0,0-1,.86c-.41.48-1.13,1.25-1.6,1.72-.9.89-1.08,1.4-.56,1.6.17.06.3.2.3.3s.32.63.86,1.14a1.09,1.09,0,0,1,.36.6.23.23,0,0,0,.2.25c.11,0,.2.12.21.26a2.14,2.14,0,0,0,.6.84,3.33,3.33,0,0,1,.72,1c.06.2.2.37.3.37a.21.21,0,0,1,.19.23,2.06,2.06,0,0,0,.61.81,2.05,2.05,0,0,1,.61.88c0,.17.09.3.2.3a.22.22,0,0,1,.2.23A2.21,2.21,0,0,0,184,96.1a.28.28,0,0,0,.25-.3c0-.34-.7-1.12-1-1.12-.11,0-.2-.21-.2-.48a2.43,2.43,0,0,0-.81-1.31,3.13,3.13,0,0,1-.81-1.13.49.49,0,0,0-.3-.44.46.46,0,0,1-.3-.4.3.3,0,0,0-.31-.28.31.31,0,0,1-.3-.3A.31.31,0,0,0,180,90c-.19,0-.31-.19-.31-.51a.7.7,0,0,0-.3-.63.44.44,0,0,1-.3-.35c0-.12-.23-.4-.51-.61-.71-.53-.68-.6.91-2.14a4.91,4.91,0,0,0,1.42-1.8c0-.24.13-.43.3-.43s.3-.09.3-.2a1.5,1.5,0,0,1,.41-.61c.22-.22.4-.34.4-.26s.18-.06.41-.3a1.44,1.44,0,0,0,.4-.64c0-.12.14-.21.3-.21a.31.31,0,0,0,.31-.3.3.3,0,0,1,.3-.31.29.29,0,0,0,.3-.3.3.3,0,0,1,.31-.3c.16,0,.3-.09.3-.21s.61-.87,1.3-1.32c.29-.19.52-.47.52-.62s.09-.28.2-.28c.48,0,.18-.77-.35-.9a1.37,1.37,0,0,1-.69-.37c-.19-.31-.64-.34-1.1-.08m9.5,0a.78.78,0,0,1-.71.3c-.38,0-.58.1-.58.3s-.2.31-.61.31-.6.1-.6.3-.18.3-.41.3a.58.58,0,0,0-.53.31c-.07.16-.2.3-.3.3a1.94,1.94,0,0,0-1,1c0,.12-.09.16-.2.09s-.27,0-.34.24a2.08,2.08,0,0,1-.41.63,1,1,0,0,0-.26.56.31.31,0,0,1-.33.29c-.24,0-.3.13-.22.53s0,.55-.3.64-.38.23-.32.67,0,.55-.13.52-.24.44-.28,1.13c0,.94,0,1.16.25,1.16s.32-.23.32-1,.09-1,.3-1.13a.76.76,0,0,0,.3-.68c0-.32.14-.62.31-.68a.57.57,0,0,0,.3-.51.57.57,0,0,1,.3-.5c.17-.07.31-.22.31-.33s.17-.47,1.37-1.72a3.35,3.35,0,0,1,1.17-.91c.16,0,.29-.08.29-.18s.23-.24.5-.31.51-.22.51-.32.18-.2.39-.2a1.12,1.12,0,0,0,.68-.29,2.38,2.38,0,0,1,1.18-.36c.65,0,.9-.15.95-.41.09-.48-1.73-.53-1.91,0m6.23,0c.09.49,1.68.55,1.68.07,0-.22-.26-.33-.88-.37s-.86,0-.8.3m5.92-.12c-.23.37.17.53,1.07.44.72-.08.83-.15.64-.38s-1.52-.37-1.71-.06m51.4-.08c-.35.35-.09.67.52.67.78,0,1.27-.27,1.08-.58a1.86,1.86,0,0,0-1.6-.09m5.93.14c0,.34.44.53,1.23.53.33,0,.59.07.59.16s.36.33.8.52a7.23,7.23,0,0,1,1.57,1,3.86,3.86,0,0,0,.91.7c.31,0,.35-.38.06-.67a1,1,0,0,1-.3-.52c0-.12-.14-.22-.31-.22s-.3-.09-.3-.2-.22-.25-.49-.32a.94.94,0,0,1-.6-.41.61.61,0,0,0-.54-.28,1.19,1.19,0,0,1-.72-.3c-.4-.4-1.9-.42-1.9,0m7.41-.13c-.34.33,0,.46,1.23.46.78,0,1.27-.08,1.16-.18a5.3,5.3,0,0,0-2.39-.28m-45.62.26c-.26.16-.25.19,0,.2.69,0,1.15,4,.53,4.59-.3.3,0,.67.44.67s.39-.17.39-2.63c0-2.2-.05-2.63-.3-2.63s-.3-.09-.3-.2-.42-.26-.81,0m17.79,0c0,.11.18.2.4.2s.41-.09.41-.2-.18-.21-.41-.21-.4.09-.4.21m1.82,0c0,.11.46.2,1,.2s1-.08.9-.2a1.69,1.69,0,0,0-1-.21c-.49,0-.9.09-.9.21m2.33,0c-.08.12.19.2.68.2a1.61,1.61,0,0,1,.92.18c.2.32-.13,1.44-.42,1.44s-.27.07-.27.16a66.61,66.61,0,0,1-5.24,5.66,15.87,15.87,0,0,0-1.84,2.08c0,.1-.13.18-.28.18s-.29.24-.29.73.12.76.29.83a.55.55,0,0,1,.28.49.57.57,0,0,0,.3.51c.17.06.31.19.31.28a2.92,2.92,0,0,0,.6.84,2.85,2.85,0,0,1,.61.82,6.75,6.75,0,0,0,1.24,1.59,2.22,2.22,0,0,1,.47.77c.08.23.22.42.32.42a.2.2,0,0,1,.19.21,2.25,2.25,0,0,0,.61.8,2.35,2.35,0,0,1,.61.82.88.88,0,0,0,.25.49,19.17,19.17,0,0,1,1.91,2.39c.89,1.3.65,1.41-2.85,1.33l-2.68-.07-.54-.61a2.42,2.42,0,0,1-.54-.86.23.23,0,0,0-.2-.25.21.21,0,0,1-.21-.21,2.36,2.36,0,0,0-.6-.8,2.06,2.06,0,0,1-.61-.87,2.11,2.11,0,0,0-.6-.87,2.24,2.24,0,0,1-.61-.84.24.24,0,0,0-.21-.25.21.21,0,0,1-.2-.22,3.17,3.17,0,0,0-.6-1,4.41,4.41,0,0,1-.61-.9,2.73,2.73,0,0,0-.61-.72,2.15,2.15,0,0,1-.61-.86c0-.33-.57-1.16-.79-1.16s-.43.88-.21,1.09a26.5,26.5,0,0,1,.2,4.61v4.42l-.55.2a19.08,19.08,0,0,1-5.27-.1c-.39-.14-.45-.09-.45.37v.53h3.13c2.65,0,3.14,0,3.14-.31a.3.3,0,0,1,.3-.3c.26,0,.3-.58.3-4s.05-4,.31-4,.3.19.3.44a2.79,2.79,0,0,0,.91,1.31,3.2,3.2,0,0,1,.91,1.21,1.38,1.38,0,0,0,.45.76,3.77,3.77,0,0,1,1.17,1.84c0,.17.09.31.2.31.35,0,1,.79,1,1.21,0,.22.13.4.3.4a.31.31,0,0,1,.31.31.3.3,0,0,0,.3.3.3.3,0,0,1,.3.31c0,.27.5.3,3.69.25l3.7,0,.06-.76c0-.58,0-.76-.26-.76a.31.31,0,0,1-.31-.3.31.31,0,0,0-.3-.31c-.19,0-.31-.19-.31-.51a.7.7,0,0,0-.3-.63.46.46,0,0,1-.3-.39.3.3,0,0,0-.31-.29.3.3,0,0,1-.3-.3.3.3,0,0,0-.3-.3c-.18,0-.31-.19-.31-.44a1.62,1.62,0,0,0-.5-.9,1.59,1.59,0,0,1-.51-.68c0-.11-.13-.21-.3-.21s-.3-.19-.3-.48a.65.65,0,0,0-.31-.6A.5.5,0,0,1,245,92c0-.17-.09-.31-.2-.31-.35,0-1-.79-1-1.21,0-.23-.13-.41-.3-.41s-.3-.09-.3-.2a1.6,1.6,0,0,0-1-1c-.17,0-.23-.13-.16-.36a1.09,1.09,0,0,0-.4-.91c-.28-.3-.42-.55-.3-.55s.21-.14.21-.3.07-.28.16-.25,1.46-1.17,1.46-1.46c0-.11.13-.21.3-.21a.3.3,0,0,0,.3-.31.31.31,0,0,1,.31-.3.31.31,0,0,0,.3-.3.31.31,0,0,1,.3-.31.3.3,0,0,0,.31-.3c0-.17.09-.3.19-.3a7.54,7.54,0,0,0,2-2c0-.11.14-.2.31-.2a.3.3,0,0,0,.3-.3.3.3,0,0,1,.3-.3.31.31,0,0,0,.31-.31.3.3,0,0,1,.3-.3c.2,0,.3-.2.3-.61s.1-.6.37-.6c1,0,1.16-1.24.21-1.71-.72-.36-1.9-.42-2.09-.11m-45,.55a.63.63,0,0,0,.45.43c.46.08.67.25,1.84,1.43s1.05,1.09,1.14-.69c.07-1.34,0-1.42-.38-1.49s-.46,0-.46.56-.1.62-.3.62a.29.29,0,0,1-.3-.3.29.29,0,0,0-.29-.3.47.47,0,0,1-.39-.31c-.18-.45-1.4-.41-1.31.05m8.82,10.89c0,8.32,0,11.32-.18,11.53s-.79.28-2.42.28c-2.83,0-2.82,0-2.82-1.32s-.22-1.51-.68-.81a5,5,0,0,1-1.52,1.52,5.45,5.45,0,0,0-1,.48,6.91,6.91,0,0,1-2.08.59c-1.28.13-1.45.21-1.25.54s2.74.28,2.74-.09c0-.2.2-.3.61-.3s.6-.1.6-.31.2-.3.61-.3.61-.1.61-.3c0-.55.57-.33.64.25l.06.56,3.39,0,3.39.06V88.52c0-11.13,0-11.83-.36-11.83s-.35.65-.29,11.24M255.92,77a.84.84,0,0,1-.61.35c-.25,0-.44.15-.44.29a.28.28,0,0,1-.31.26.31.31,0,0,0-.3.31c0,.16-.1.3-.23.3a1.65,1.65,0,0,0-.7.5,1.64,1.64,0,0,1-.68.51c-.11,0-.21.14-.21.3a.31.31,0,0,1-.3.31c-.17,0-.31.09-.31.21a1,1,0,0,1-.3.52,1.13,1.13,0,0,0-.3.7c0,.21-.09.39-.21.39s-.2.27-.2.6-.1.61-.29.61-.31.27-.35.86-.15.84-.32.81-.25.74-.25,3.39,0,3.43.28,3.43c.41,0,.48-.58.44-3.89,0-2.33,0-3,.23-3s.26-.28.26-.81.09-.81.31-.81.3-.19.3-.51a.71.71,0,0,1,.3-.63.49.49,0,0,0,.31-.41,7.34,7.34,0,0,1,1.46-1.71c2.07-2,2.07-2,2.45-2,.18,0,.33-.08.33-.19s.25-.21.56-.25.58-.2.62-.42c.09-.47-1.27-.51-1.54,0m12.83-.18a1,1,0,0,0-.13.52c0,.56.69.37.77-.2s-.33-.63-.64-.32m5.85.31c.1.26.2,5.36.23,11.34l.06,10.87-.52.2c-.85.33-4.65.26-4.93-.09s-.82-.17-.82.41v.49h3.09c4.27,0,3.8,1.53,3.73-12.19l-.05-11.37-.48-.07c-.43-.06-.47,0-.31.41M104,77.58a.47.47,0,0,1-.31.39c-.45.18-.41,1.4.05,1.31a.67.67,0,0,0,.43-.57,1,1,0,0,1,.35-.67c.43-.24.34-.74-.12-.74-.22,0-.4.12-.4.28m11,.35c-.2.33.32.57,1.23.57a3,3,0,0,0,1.09-.17c.52-.33,0-.63-1.09-.63a2.19,2.19,0,0,0-1.23.23m17.55.12c.05.26.26.36.77.36s.72-.1.77-.36-.08-.35-.77-.35-.83.06-.77.35m-19.32.56a.5.5,0,0,1-.44.3,3.26,3.26,0,0,0-1.17.91c-1.29,1.38-1.35,1.46-1.35,2,0,.32-.12.51-.31.51s-.3.38-.3,2.23,0,2.22.3,2.22.31-.38.31-2.22,0-2.23.3-2.23.3-.19.3-.5.12-.51.31-.51.3-.09.3-.2a5,5,0,0,1,1.62-1.62c.11,0,.2-.14.2-.3s.19-.31.5-.31.51-.11.51-.3-.19-.3-.48-.3a.65.65,0,0,0-.6.3m4.72,0c0,.19.19.3.51.3a.7.7,0,0,1,.63.31.67.67,0,0,0,.6.3c.3,0,.48.12.48.3s.1.31.21.31c.34,0,1,.78,1,1.19a.56.56,0,0,0,.3.5.68.68,0,0,1,.3.63c0,.32.12.51.31.51s.3-.2.3-.58a1.28,1.28,0,0,0-.3-.84A.84.84,0,0,1,122,81a5.1,5.1,0,0,0-2.17-2.12.59.59,0,0,1-.53-.3c-.07-.18-.37-.3-.73-.3s-.61.1-.61.3m13.47,0a.46.46,0,0,1-.41.3c-.45,0-1.53.68-1.53,1s.22.26.5.26.51-.12.51-.31.2-.3.6-.3.61-.1.61-.3a.31.31,0,0,1,.3-.31.3.3,0,0,0,.31-.3.35.35,0,0,0-.39-.3.56.56,0,0,0-.5.3m2.71-.09a3.42,3.42,0,0,0,1.79,1.61c.25,0,.43.12.43.3,0,.42,1.53.42,1.69,0,.08-.22-.09-.34-.59-.43a1.68,1.68,0,0,1-.81-.31.6.6,0,0,0-.46-.18,1.15,1.15,0,0,1-.68-.35c-.78-.83-1.37-1.11-1.37-.65m-31.21,1.13c-.34.34-.14,1.29.28,1.29s.41-.11.36-.65-.36-.92-.64-.64m41.67.41c-.67.18-.4.67.37.67.58,0,.71-.07.65-.35s-.42-.48-1-.32m-15.18.4a2.94,2.94,0,0,0,.06,1.89c.36.57.68-.08.52-1.1s-.28-1.09-.58-.79m9.1.21c-1.11.29,0,.57,2.41.63,3.09.07,3.83,0,3.23-.48a19.83,19.83,0,0,0-5.64-.15M102.4,84.78a12.25,12.25,0,0,0,.2,3.44c.11,0,.2.31.2.69a1.6,1.6,0,0,0,.31,1,1.11,1.11,0,0,1,.3.63.51.51,0,0,0,.3.44.68.68,0,0,1,.31.61.68.68,0,0,0,.3.61.46.46,0,0,1,.3.39.3.3,0,0,0,.31.29c.19,0,.3.19.3.5s.11.51.3.51.31.09.31.2c0,.35.79,1,1.21,1,.22,0,.4.13.4.3a.31.31,0,0,0,.31.31.3.3,0,0,1,.3.3.3.3,0,0,0,.3.3.31.31,0,0,1,.31.31q0,.3.6.3c.41,0,.61.1.61.3s.19.31.48.31a1,1,0,0,1,.73.3c.38.46,1.88.41,1.79,0,0-.25-.3-.37-.81-.42a1.73,1.73,0,0,1-1-.35.91.91,0,0,0-.62-.29c-.21,0-.38-.09-.38-.2a.24.24,0,0,0-.27-.21c-.24,0-.51-.18-1.49-1a.94.94,0,0,0-.55-.21.3.3,0,0,1-.32-.29.5.5,0,0,0-.35-.41,10.87,10.87,0,0,1-2.27-2.9.76.76,0,0,0-.31-.44,1,1,0,0,1-.3-.64.6.6,0,0,0-.3-.51c-.2-.07-.31-.38-.31-.9s-.08-.78-.3-.78-.3-.52-.3-3.44-.05-3.44-.31-3.44-.3.52-.3,3.44m120.52,5.63c0,6.61-.06,8.91-.25,9.09s-4.92.34-5.1.06c-.06-.1-.11-4.1-.12-8.89a84.71,84.71,0,0,0-.2-8.83c-.35-.21-1.08.11-.82.37s.22,2.93.22,9.18v9h6.87V91.07c0-8.06,0-9.3-.3-9.4s-.3,1-.3,8.74M197.13,82c-.28.45.23.6,2,.6,1.14,0,1.91.08,1.91.2s.26.21.58.21.64.13.7.3a.6.6,0,0,0,.53.3c.23,0,.41.14.41.31a.31.31,0,0,0,.31.3c.19,0,.3.19.3.51a.71.71,0,0,0,.3.63.56.56,0,0,1,.31.51.55.55,0,0,0,.3.5c.24.09.3.52.3,2s.06,1.9.3,1.9c.57,0,.71-3.61.14-3.8-.13,0-.24-.35-.24-.68s-.12-.64-.3-.71a.46.46,0,0,1-.3-.39A3.85,3.85,0,0,0,203,83a.49.49,0,0,1-.42-.31.76.76,0,0,0-.68-.3c-.32,0-.62-.13-.68-.3-.14-.36-3.86-.45-4.08-.1m63.27.1a.76.76,0,0,1-.68.3c-.31,0-.62.13-.68.3a.5.5,0,0,1-.43.31.3.3,0,0,0-.31.3c0,.17-.18.3-.4.3s-.4.09-.4.2a4.64,4.64,0,0,1-.63,1.09c-.44.62-.59,1-.5,1.31.18.55.72.34.72-.27a.66.66,0,0,1,.33-.59c.22-.08.29-.29.23-.63s0-.5.15-.5a.49.49,0,0,0,.38-.3.68.68,0,0,1,.62-.31c.32,0,.52-.11.52-.3s.18-.3.46-.3a1.15,1.15,0,0,0,.66-.19c.32-.3,4.13-.37,4.13-.07,0,.15.26.26.61.26s.61.1.61.3a.29.29,0,0,0,.3.3.3.3,0,0,1,.3.31.31.31,0,0,0,.31.3.31.31,0,0,1,.3.3c0,.17.07.31.16.31s.86,1.25.9,1.78c0,.28.17.44.4.44.46,0,.51-1.17.06-1.34a.58.58,0,0,1-.31-.53c0-.64-2.32-2.78-3-2.78-.32,0-.63-.13-.69-.3s-.52-.31-2.05-.31-2,.07-2.05.31m-35.3.14c.19.19.3.19.49,0s.13-.24-.25-.24-.43,0-.24.24m-29.48.52a6.57,6.57,0,0,0-2.23,2.6.63.63,0,0,1-.31.56c-.23.08-.3.33-.25.88.08,1,.62,1,.78,0s.62-2,.84-2,.16-.14.16-.31a.3.3,0,0,1,.3-.3.3.3,0,0,0,.3-.3.31.31,0,0,1,.31-.31.3.3,0,0,0,.3-.3c0-.2.2-.3.61-.3s.6-.1.6-.31c0-.4-.77-.37-1.41.06M130,83.43a6.6,6.6,0,0,0,.22,2.86c.12,0,.23-.69.26-1.56.06-1.46-.17-2.08-.48-1.3m-7.56,1.26c0,.73-.09,1.3-.2,1.3s-.21.33-.21.73c0,.71-1.08,2.1-1.63,2.1-.1,0-.19.14-.19.3a.3.3,0,0,1-.3.31.29.29,0,0,0-.3.3c0,.19-.19.3-.51.3s-.5.12-.5.31-.39.3-2.23.3-2.22,0-2.22.3.38.31,2.22.31a6.87,6.87,0,0,0,2.23-.19c0-.1.27-.24.6-.32s.61-.21.61-.32a.21.21,0,0,1,.23-.18c.39,0,2.23-2,2.11-2.35a.19.19,0,0,1,.19-.28c.22,0,.3-.25.3-.91s.08-.91.31-.91c.49,0,.34-2.27-.16-2.34-.3,0-.35.12-.35,1.24m63.74,3.56c.08,2.39.56,2.46.56.08,0-1.43-.05-1.73-.31-1.73s-.3.27-.25,1.65m69.72.17c0,1.39.06,1.83.25,1.77s.25-.61.25-1.77-.07-1.71-.25-1.77-.25.37-.25,1.77M129.43,86.93c-.28.29-.15,2.7.15,2.7s.32.07.35.15a4.06,4.06,0,0,0,1.71.86.49.49,0,0,1,.41.3.56.56,0,0,0,.5.31.35.35,0,0,0,.38-.31.29.29,0,0,0-.28-.3.51.51,0,0,1-.4-.3.68.68,0,0,0-.62-.31c-.32,0-.52-.11-.52-.3s-.19-.3-.5-.3-.52-.12-.53-.26,0-.69-.05-1.24c0-.92-.27-1.33-.6-1m-19.14.55a.68.68,0,0,0,.3.61.49.49,0,0,1,.3.44c0,.41,1,1.4,1.58,1.59.24.08.44.23.44.33s.23.19.51.19.51-.06.51-.13c0-.28-1.06-1.08-1.43-1.08a.35.35,0,0,1-.39-.31.31.31,0,0,0-.31-.3.36.36,0,0,1-.3-.39c0-.37-.8-1.43-1.09-1.43-.07,0-.12.22-.12.48m29.13.42c-.35.42,0,.52,1.69.51s2.35-.17,1.89-.55a6.88,6.88,0,0,0-3.58,0m129.53,0c-.21.21-.15.88.07.88s.2-.23.2-.5c0-.53,0-.6-.27-.38m-131.9.58a.78.78,0,0,1-.7.3c-.39,0-.59.11-.59.3s-.19.31-.5.31-.51.11-.51.3a.29.29,0,0,1-.3.3.3.3,0,0,0-.3.31.29.29,0,0,1-.26.3c-.37,0-.83.81-.6,1s.51-.12,1-.62a5.2,5.2,0,0,1,1.25-.94c.22-.07.4-.21.4-.31s.17-.19.39-.19a1.12,1.12,0,0,0,.68-.29,2,2,0,0,1,1.07-.35c.55,0,.81-.17.85-.42.09-.48-1.73-.53-1.91,0m6.44,0c0,.25.26.35.77.35s.72-.1.77-.35-.08-.35-.77-.35-.83.06-.77.35m1.81.6a.67.67,0,0,0,.58.43,1,1,0,0,1,.66.35.54.54,0,0,0,.36.29c.24,0,.5.2,1.72,1.31a3.48,3.48,0,0,1,.89,1,.46.46,0,0,0,.31.35.48.48,0,0,1,.3.4.51.51,0,0,0,.3.41.68.68,0,0,1,.31.62A.82.82,0,0,0,151,95a.55.55,0,0,1,.27.46c0,.81.07,1.22.35,1.22s.3-.23.3-.8a1.89,1.89,0,0,0-.3-1.09,1.34,1.34,0,0,1-.31-.83c0-.33-.11-.52-.3-.52a.29.29,0,0,1-.3-.3.29.29,0,0,0-.29-.3c-.17,0-.24-.15-.18-.38s-1.14-1.85-1.55-1.85c-.11,0-.21-.14-.21-.3a.37.37,0,0,0-.4-.31c-.22,0-.41-.08-.41-.19s-.22-.26-.5-.33-.51-.23-.51-.37-.32-.26-.72-.29c-.6,0-.71,0-.66.32m47.62.39a1.62,1.62,0,0,0,.15,1.54,1.53,1.53,0,0,1,.35.65.64.64,0,0,0,.33.46c.4.13.53-.54.17-.94a1.89,1.89,0,0,1-.32-1.1c0-.7-.31-1-.68-.61m75.23,0a1.61,1.61,0,0,0-.14.79,1.4,1.4,0,0,1-.3.9.88.88,0,0,0-.31.58c0,.42-.47,1-.78,1a.27.27,0,0,0-.23.3.29.29,0,0,1-.29.3,1,1,0,0,0-.57.29,1.58,1.58,0,0,1-.83.35c-.82.1-.74.47.13.54.57,0,.75,0,.75-.26s.18-.31.42-.31c.48,0,1.61-1,1.61-1.48a.47.47,0,0,1,.3-.41.58.58,0,0,0,.3-.51.58.58,0,0,1,.31-.51c.39-.15.42-1.74,0-1.74a.66.66,0,0,0-.4.13m-63.63,1.49a2.78,2.78,0,0,1-.81,1.19,3.15,3.15,0,0,0-.81,1c0,.12-.14.22-.3.22a.31.31,0,0,0-.31.31c0,.2-.2.3-.59.3a1.45,1.45,0,0,0-.9.3c-.2.21-.72.3-1.63.3s-1.33.07-1.33.31.3.3,1.42.3,1.41-.06,1.41-.3.23-.31.79-.31c.76,0,3.26-1.88,3.26-2.46a1,1,0,0,1,.3-.5c.45-.44.39-1.08-.1-1.08a.36.36,0,0,0-.4.41m51.87-.22c-.14.23.08.82.32.82s.18.16.18.36a6,6,0,0,0,2.18,2.27.23.23,0,0,1,.25.2c0,.11.37.2.82.2,1.05,0,1-.47-.08-.56-.41,0-.74-.14-.74-.24a7.73,7.73,0,0,0-1.12-1.31A4.5,4.5,0,0,1,257.09,91a.38.38,0,0,0-.7-.21M186.72,92c0,.67.08.91.3.91s.31-.24.31-.91-.08-.91-.31-.91-.3.23-.3.91m63.5,1c0,.67.07.91.3.91s.3.19.3.5c0,.56.55,1.32,1,1.32s.32-.6-.05-.74a.78.78,0,0,1-.3-.7c0-.39-.1-.59-.3-.59s-.31-.22-.31-.8-.08-.81-.3-.81-.3.23-.3.91M194,92.57c0,.42,1.21,1.51,1.66,1.51a.33.33,0,0,1,.36.3c0,.22.23.3.81.3s.81-.08.81-.3-.19-.3-.52-.3a1.34,1.34,0,0,1-.82-.3,1.14,1.14,0,0,0-.7-.31.35.35,0,0,1-.39-.3.29.29,0,0,0-.3-.3.3.3,0,0,1-.3-.31.31.31,0,1,0-.61,0m-6.74.63a1.12,1.12,0,0,0,.17,1.28.94.94,0,0,1,.3.64.56.56,0,0,0,.31.5.51.51,0,0,1,.3.4.28.28,0,0,0,.28.28c.16,0,.34.23.41.51s.21.5.32.5a.24.24,0,0,1,.2.26c0,.28,1.13,1.09,1.43,1,.1,0,.19.08.19.25a.3.3,0,0,0,.3.3.31.31,0,0,1,.31.31c0,.2.2.3.58.3s.64.13.7.3.39.31.83.31.72-.09.72-.31-.21-.3-.62-.3-.66-.12-.72-.3a.53.53,0,0,0-.46-.31,2.32,2.32,0,0,1-1-.6,3,3,0,0,0-.82-.61,9.09,9.09,0,0,1-2.45-3.11.45.45,0,0,0-.29-.39.87.87,0,0,1-.35-.67c-.07-.55-.37-.82-.64-.55m-61.91,1.28a6.29,6.29,0,0,1-1.47,1.21.23.23,0,0,0-.25.19c0,.1-.23.23-.5.3s-.51.27-.51.43.19.3.51.3.5-.11.5-.3.19-.31.51-.31a.68.68,0,0,0,.63-.3.47.47,0,0,1,.4-.3.29.29,0,0,0,.28-.31c0-.16.1-.3.22-.3a.94.94,0,0,0,.5-.29,1,1,0,0,0,.29-.5c0-.33.55-.26.68.08a.5.5,0,0,0,.43.3c.17,0,.31.1.31.21s.23.2.5.2.51.11.51.3.2.31.61.31.6.1.6.28a.47.47,0,0,0,.25.39c.21.08.21.11,0,.12s-.36,5.07,0,5.07c.12,0,.21.22.21.49,0,.7.2,1.13.52,1.13s.29-.24.29-.71-.09-.71-.32-.71-.31-.4-.27-3c0-3.25-.07-3.61-1.09-3.62a.59.59,0,0,1-.48-.31.65.65,0,0,0-.6-.31c-.29,0-.48-.12-.48-.3a.34.34,0,0,0-.38-.3.56.56,0,0,1-.5-.31c-.2-.53-.6-.33-1.85.91m14.05.31c0,.24.33.3,1.72.3s1.72.06,1.72.3.19.31.51.31.5.11.5.3a.3.3,0,0,0,.31.3c.19,0,.3.19.3.51a.7.7,0,0,0,.3.63c.4.15.45,3.14.06,3.06-.23,0-.28.06-.34.76a.33.33,0,0,1-.32.3c-.17,0-.31.09-.31.2,0,.46-.83,1-1.51,1-.5,0-.71.1-.71.31s.22.3.81.3.81-.08.81-.32.11-.29.28-.22c.33.12,1.74-1.2,1.74-1.63a1,1,0,0,1,.28-.57c.34-.34.29-3.17-.06-3.29a.44.44,0,0,1-.22-.41c0-.46-1.27-1.85-1.69-1.85a.53.53,0,0,1-.46-.3c-.09-.24-.51-.31-1.92-.31s-1.8.06-1.8.31m121.74.2c0,.24.28.3,1.31.3s1.31-.06,1.31-.3-.28-.31-1.31-.31-1.31.07-1.31.31m-123.2.7c-.59.62-.74,1.22-.3,1.22s1-.71,1-1c0-.11.13-.2.3-.2a.3.3,0,0,0,.3-.31c0-.49-.66-.33-1.26.3m38.27.11c0,.31.11.5.3.5a.3.3,0,0,1,.3.31.31.31,0,0,0,.31.3c.16,0,.3.18.3.4a3.63,3.63,0,0,0,1.6,1.82c.41,0,.22-.53-.38-1.13a2.58,2.58,0,0,1-.61-.75,5.18,5.18,0,0,0-1.55-2c-.16,0-.27.22-.27.51m75.7.41c-.16.39,2.38,2.92,2.92,2.92a.56.56,0,0,1,.51.31.62.62,0,0,0,.53.3c.23,0,.41-.13.41-.3a.31.31,0,0,0-.31-.31.48.48,0,0,1-.42-.3.49.49,0,0,0-.42-.3,6,6,0,0,1-1.57-1.32c-1.37-1.41-1.48-1.47-1.65-1m-67.62.5c0,.22.1.4.21.4a.2.2,0,0,1,.2.19,2.7,2.7,0,0,0,.61.86c1.2,1.3.91,1.48-2.33,1.46a24.52,24.52,0,0,1-3.4-.18c-.53-.14-.57-.12-.51.32l.07.49h7.48v-.94c0-.84-.11-1-1-2-1.13-1.15-1.28-1.22-1.28-.63M121.47,97a1.36,1.36,0,0,1-.87.35c-.48,0-.73.18-.77.42-.09.47,1.33.52,1.5,0a.67.67,0,0,1,.6-.3c.35,0,.49-.12.49-.41,0-.48-.7-.56-1-.11m15.38.2c-.17.46.1,1.37.39,1.27s.31-1.4,0-1.51a.33.33,0,0,0-.38.24m15.09,1.73c0,1.74.22,2.35.48,1.37a8.62,8.62,0,0,0,0-2.87c-.29-.77-.48-.18-.48,1.5m116.37-1c-.22.33-.47.6-.56.6a2.75,2.75,0,0,0-1.11.86,1.29,1.29,0,0,1-.78.35c-.25,0-.48.1-.52.22a2.67,2.67,0,0,1-1.33.26c-1.31.06-1.59.16-1.37.52s2.33.27,2.47-.09c.07-.19.38-.3.81-.3s.73-.12.8-.31a.51.51,0,0,1,.4-.3.29.29,0,0,0,.28-.3c0-.19.19-.31.49-.31.7,0,1.49-1.37,1-1.69-.09,0-.34.17-.55.49m-155,2.4v2.44h-.61c-.4,0-.6.1-.6.31,0,.45,1.26.39,1.69-.08s.4-4.94-.13-5c-.32-.06-.35.16-.35,2.37m5.6-2.28c-.19.19,0,.48.38.48a.3.3,0,0,0,.29-.31c0-.3-.43-.41-.67-.17m18,1.87c-.19.86,1.28,3.06,2,3.06.16,0,.28.09.28.2s.41.2.9.2c.73,0,.89-.06.79-.3s-.39-.31-.9-.31-.79-.08-.79-.3a.29.29,0,0,0-.3-.3.27.27,0,0,1-.3-.23,1.61,1.61,0,0,0-.51-.7,1.6,1.6,0,0,1-.51-1c0-.81-.54-1.09-.7-.36m119.86-.25c-.5.2-.27.68.33.68a1.21,1.21,0,0,1,.83.3c.3.36,2.53.43,2.74.09s-.07-.46-1.43-.48c-.91,0-1.31-.09-1.31-.27s-.08-.25-.19-.25a2.26,2.26,0,0,1-.45-.08.92.92,0,0,0-.52,0m-61.93.85c0,.48,2.45.68,2.74.22s.1-.36-1.38-.51c-1.3-.13-1.36-.12-1.36.29m-43.57,1.55c-.07.5-.22.91-.32.91s-.19.17-.19.39a1.14,1.14,0,0,1-.31.69,1.06,1.06,0,0,0-.3.54,11.64,11.64,0,0,1-3.14,3.23c-.16,0-.3.08-.3.19s-.27.24-.6.32-.61.21-.61.3-.3.2-.66.24-.67.18-.72.42c-.09.46,1.33.51,1.51,0a.65.65,0,0,1,.6-.31c.3,0,.48-.12.48-.3s.2-.3.52-.3a.68.68,0,0,0,.62-.31.51.51,0,0,1,.4-.3.29.29,0,0,0,.28-.3.28.28,0,0,1,.24-.31,5.25,5.25,0,0,0,2-2.37c0-.27.12-.46.3-.46s.3-.2.3-.6.11-.61.31-.61.3-.25.3-1c0-1.34-.5-1.41-.7-.1m-32.26,1c0,.21.21.3.71.3s.76.11.84.3a.52.52,0,0,0,.47.31.89.89,0,0,1,.61.3.8.8,0,0,0,.44.3c.25,0,.63.33,1.75,1.46,1.28,1.29,1.45,1.51,1.45,1.85a.51.51,0,0,0,.3.41.68.68,0,0,1,.31.62c0,.33.11.52.3.52.52,0,.38-1.3-.2-1.85a1.62,1.62,0,0,1-.51-.84.56.56,0,0,0-.3-.48.47.47,0,0,1-.31-.39.29.29,0,0,0-.3-.29.29.29,0,0,1-.3-.3.29.29,0,0,0-.28-.3.48.48,0,0,1-.4-.3.59.59,0,0,0-.52-.31,2.13,2.13,0,0,1-1-.6,2.12,2.12,0,0,0-.91-.61c-.17,0-.3-.09-.3-.2s-.41-.21-.91-.21c-.67,0-.91.08-.91.31m-7.84.23c-.51.21-.27.71.31.64.33,0,.55-.19.55-.36,0-.32-.43-.46-.86-.28m20,.4a.53.53,0,0,0,.21.58,1.07,1.07,0,0,1,.34.78c0,.29.09.53.2.53a3.73,3.73,0,0,1,1,.81,3.67,3.67,0,0,0,1,.81c.12,0,.21.14.21.31a.3.3,0,0,0,.3.3.3.3,0,0,1,.3.3c0,.19.19.31.51.31s.5.11.5.3.19.3.51.3c.62,0,.7-.59.1-.75-.22-.06-.4-.18-.4-.28s-.13-.18-.28-.18a1.65,1.65,0,0,1-.75-.42c-1.46-1.25-1.81-1.59-1.81-1.79a.21.21,0,0,0-.2-.22c-.12,0-.3-.23-.4-.5s-.29-.51-.4-.51-.21-.23-.21-.5c0-.58-.54-.71-.75-.18m-21.29.38a.3.3,0,0,1-.3.3c-.17,0-.31.09-.31.2a3.29,3.29,0,0,1-.71.91,3,3,0,0,1-.91.71c-.11,0-.2.14-.2.3a.28.28,0,0,1-.25.31c-.25,0-.76.88-.76,1.33a.46.46,0,0,1-.3.36c-.19.07-.31.39-.31.88a2.29,2.29,0,0,1-.31,1.17c-.34.44-.41,5.66-.08,5.87s.48-.54.47-3.29c0-2.27,0-2.88.27-2.88s.26-.26.26-.71.09-.71.31-.71.3-.19.3-.48a.67.67,0,0,1,.3-.6c.17-.07.31-.21.31-.32a12.18,12.18,0,0,1,2.12-2.24c.26,0,1.13-1,1-1.2-.2-.33-.92-.26-.92.09m4.55,5.08a.9.9,0,0,1-.4.28,4.26,4.26,0,0,0-1.52,1.25,1.12,1.12,0,0,1-.31.51c-.4.39-.31,1.14.16,1.23.27,0,.35-.07.35-.55s.09-.62.19-.62a2.63,2.63,0,0,0,.81-.63,2.59,2.59,0,0,0,.62-.8c0-.41,3.37-.29,3.79.13a1,1,0,0,0,.47.29c.34,0,1,.8,1,1.21,0,.22.13.4.3.4s.3.31.3,1.52-.06,1.52-.3,1.52-.3.18-.3.4a1.43,1.43,0,0,1-1.22,1.21.37.37,0,0,0-.4.31c0,.24-.34.3-1.82.3-1.17,0-1.82-.08-1.82-.22a3.18,3.18,0,0,0-.81-1,2.32,2.32,0,0,1-.81-1.21c0-.58-.68-.51-.76.08a5.82,5.82,0,0,0,2,2.52,1,1,0,0,1,.5.31c.22.22.75.3,1.91.3s1.64-.07,1.73-.3a.65.65,0,0,1,.6-.31c.29,0,.48-.12.48-.3a.3.3,0,0,1,.31-.3.3.3,0,0,0,.3-.28.48.48,0,0,1,.3-.4.61.61,0,0,0,.31-.55,1.14,1.14,0,0,1,.3-.72,3.5,3.5,0,0,0,0-2.82,1.53,1.53,0,0,1-.31-.69,3.52,3.52,0,0,0-1.8-1.82.53.53,0,0,1-.48-.26c-.12-.36-3.33-.38-3.69,0m22.58,0c.05.25.29.39.75.43s.66,0,.6-.3-.29-.39-.74-.43-.67,0-.61.3m1.83.62c.07.4,4.23.64,4.79.28s-.07-.63-2.43-.63c-2.21,0-2.43,0-2.36.35m-12.38.86c0,.76.08,1,.31,1s.3-.25.3-1-.07-1-.3-1-.31.25-.31,1m.61,2.73c0,.67.07.92.25.86s.25-.42.25-.86-.1-.81-.25-.86-.25.19-.25.86m-15.57,0a.31.31,0,1,0,.3-.3.3.3,0,0,0-.3.3m15,2.63c0,.85.07,1.11.31,1.11s.3-.26.3-1.11-.07-1.11-.3-1.11-.31.26-.31,1.11m-20.62,1.1a1.42,1.42,0,0,0,.3.89,1,1,0,0,1,.3.61.53.53,0,0,0,.21.43.68.68,0,0,1,.2.52c0,.21.09.39.2.39a10.75,10.75,0,0,1,1.71,1.54c1,1,1.62,1.5,1.82,1.42s.31,0,.31.18.21.3.61.3.61.1.61.3.22.31.8.31.81-.09.81-.31-.21-.3-.71-.3-.76-.11-.83-.3a.68.68,0,0,0-.6-.31c-.27,0-.49-.09-.49-.2s-.22-.3-.5-.4-.51-.29-.51-.4a.2.2,0,0,0-.2-.21,10.51,10.51,0,0,1-2.27-2.23,2.2,2.2,0,0,1-.56-1,.35.35,0,0,0-.3-.38c-.22,0-.31-.21-.31-.71s-.09-.71-.3-.71-.3.2-.3.6m20,.72c0,.31.11.5.3.5s.3-.19.3-.5-.11-.51-.3-.51-.3.19-.3.51m-.61.93a8.25,8.25,0,0,1-2.48,2.87c-.19.07-.35.22-.35.34s-.13.21-.28.21a.83.83,0,0,0-.53.3.94.94,0,0,1-.64.3.56.56,0,0,0-.5.31c-.08.19-.39.3-.9.3s-.79.08-.79.3.23.31.89.31.92-.1,1-.31a.73.73,0,0,1,.63-.3c.28,0,.51-.09.51-.2s.14-.21.3-.21a.3.3,0,0,0,.31-.3c0-.19.19-.3.51-.3a.71.71,0,0,0,.63-.31.48.48,0,0,1,.4-.3.28.28,0,0,0,.29-.25,1.68,1.68,0,0,1,.6-.75,1.52,1.52,0,0,0,.6-1c0-.28.12-.46.3-.46s.31-.18.31-.41a.36.36,0,0,0-.41-.4c-.22,0-.4.1-.4.22" transform="translate(-102.4 -44.54)"/><path id="path1" class="cls-2" d="M114.3,45.69a2.61,2.61,0,0,0-1.39.37.86.86,0,0,1-.51.3,3.13,3.13,0,0,0-.92.35,10.77,10.77,0,0,0-4.25,4.35c-.12.3-.29.55-.38.55s-.21.37-.28.81-.22.81-.33.81c-.34,0-.24,5.09.11,5.55a1.71,1.71,0,0,1,.3.86c0,.26.08.47.18.47s.26.2.34.45c.41,1.29,3,3.85,4.53,4.53l1.47.67,1,.44v2.48c0,2.73-.17,3.16-1.27,3.16a2.91,2.91,0,0,0-1.09.29l-1.28.62a9,9,0,0,0-2.85,1.87c-1.25,1.12-3.42,4-3.42,4.53,0,.2-.08.37-.18.37s-.24.41-.31.9a2.43,2.43,0,0,1-.33,1,27.61,27.61,0,0,0,0,6.36c.1,0,.25.39.33.86a3,3,0,0,0,.27,1,6.89,6.89,0,0,1,.61,1.14,7.17,7.17,0,0,0,1,1.56A2.58,2.58,0,0,1,106,93a11.25,11.25,0,0,0,2.34,2.16,3.31,3.31,0,0,1,.89.81c0,.09.18.17.38.17a1,1,0,0,1,.64.3.89.89,0,0,0,.61.31.65.65,0,0,1,.5.2.6.6,0,0,0,.46.2c.42,0-.26-.6-.69-.6-1.59,0-5.66-4.06-6.79-6.78-.88-2.11-1.41-7.49-.78-7.88a2.18,2.18,0,0,0,.33-1,2.25,2.25,0,0,1,.31-1,.54.54,0,0,0,.18-.42A15.61,15.61,0,0,1,107,75.54a13.68,13.68,0,0,1,6.42-3.6c.87-.19.9-.33.91-3.3V66l-1-.41a10.28,10.28,0,0,1-3.81-2.27,10,10,0,0,1-2.33-11.85,10.71,10.71,0,0,1,8-5.55c3.61-.31,8.13,1.7,9.26,4.13a6.26,6.26,0,0,0,.76,1.21c1.08,1,1.27,6.57.29,8.59a11.3,11.3,0,0,1-3.17,4.07c-.54.41-.95.78-.89.83.8.8,4.61-4.56,4.88-6.87.08-.64.22-1.16.32-1.16s.23-1.36,0-1.51a2.94,2.94,0,0,1-.32-1.27,5.7,5.7,0,0,0-.41-1.7,2.26,2.26,0,0,1-.3-.86c0-.18-.09-.32-.2-.32s-.2-.12-.2-.27c0-.44-1.33-2-2.78-3.17a10.51,10.51,0,0,0-2.73-1.5,18.27,18.27,0,0,0-5.44-.38m-.07,5.53c-.94.48-2.53,2.15-2.53,2.65a.6.6,0,0,1-.18.46c-.42.26-.47,1.74-.1,2.8,2,5.72,9.78,4.7,9.78-1.28,0-3.75-3.79-6.27-7-4.63m3.69.15a.46.46,0,0,0,.44.24c1.82,0,3.35,4.18,2.3,6.29-.41.83-1.84,2.21-2.29,2.21a1.52,1.52,0,0,0-.72.29c-.68.52-3.93.07-3.93-.54,0-.09-.11-.16-.25-.16-.47,0-1.62-1.77-1.52-2.32.06-.32,0-.51-.15-.51s-.3-.19-.36-.42c-.15-.54.06-1.8.29-1.8s.17-.22.17-.49a5.22,5.22,0,0,1,2.2-2.55,1.71,1.71,0,0,0,.74-.32c.48-.38,3-.31,3.08.08m22.26,8.25c.3.22.27.27-.27.39l-.81.19a17.19,17.19,0,0,0,2.12,0c1.28,0,2.1-.05,1.82-.09-.64-.1-1-.41-.67-.61.13-.08-.39-.15-1.15-.15-1.14,0-1.32,0-1,.23m-2.48.87a1.42,1.42,0,0,1-.67.32,3.87,3.87,0,0,0-1.2.63,3,3,0,0,1-.81.49,11.6,11.6,0,0,0-2.49,2.73.37.37,0,0,1-.15.33,4,4,0,0,0-.86,1.73,3.34,3.34,0,0,1-.3.94c-.4.86-.52,5.14-.15,5.28s-.3,1.12-.79,1.12c-.21,0-.38.08-.38.18s-.25.28-.56.4a5.6,5.6,0,0,0-1.64,1c-.42.39-1.54.16-2.09-.43a11.32,11.32,0,0,0-2.91-2.11c-.07.06.24.34.68.62a14.24,14.24,0,0,1,1.87,1.53c1.24,1.19,1.38,1.21,2.73.42.56-.32,1.48-.83,2.06-1.14,1.31-.69,1.65-1.25,1.31-2.17-.93-2.59.42-7,2.9-9.33A10.31,10.31,0,0,1,138,60.66c.56-.26.62-.33.26-.34a.75.75,0,0,0-.55.17m6.66.15c9.58,3.73,9.08,16.65-.74,19.37a10.36,10.36,0,0,1-9.05-2.22c-1-1-1.17-1-4.16.86a9.15,9.15,0,0,1-.81.43c-.95.44-1.17.93-.85,1.87l.29.85.09-.64c.05-.36,0-.69-.07-.75s.37-1,.8-1.17a6.68,6.68,0,0,0,.95-.51c1.86-1.21,3.11-1.56,3.48-1a8.23,8.23,0,0,0,3.45,2.16,1,1,0,0,1,.65.31c.2.24.8.3,2.94.3s2.7,0,2.8-.3a.54.54,0,0,1,.48-.31c1.15,0,5.3-3.26,5.31-4.17a.86.86,0,0,1,.3-.48.91.91,0,0,0,.31-.6.89.89,0,0,1,.3-.61,1.2,1.2,0,0,0,.3-.82c0-.74.19-1.2.5-1.2s.24-.51.23-1.82-.1-1.82-.25-1.82-.48-.47-.48-1.1a3.78,3.78,0,0,0-.5-1.35c-.28-.49-.57-1-.65-1.19a10.44,10.44,0,0,0-3.55-3.37c-.19-.06-.35-.19-.35-.28s-.28-.22-.61-.29a1.62,1.62,0,0,1-.72-.32c-.06-.11-.36-.19-.66-.18-.48,0-.45,0,.27.32m-23.87,4.41c-.25.19-.3.3-.13.31a1,1,0,0,0,.57-.3c.39-.39.07-.39-.44,0m20.28.26a2.42,2.42,0,0,0,.81,0c.19,0,0-.09-.46-.09s-.6.05-.35.1m-22,.41-.56.35v2.67c0,3-.15,2.77,2,3.52.84.29,1.7.6,1.92.7s.37.13.11-.12a6.17,6.17,0,0,0-2.49-1c-1.2-.24-1.34-.59-1.35-3.25V66.25l.86-.44c.56-.29.72-.44.46-.44a2.31,2.31,0,0,0-1,.35m19.82.26c-1.05.69-2,1.8-2,2.35,0,.25.1.16.31-.26a5.68,5.68,0,0,1,2.57-2.34c.55-.22.71-.35.43-.35a3.4,3.4,0,0,0-1.34.6m4.47-.19c1,.47,2.25,1.53,2.25,1.91a.82.82,0,0,0,.3.5c1.48,1.22-.71,6.47-2.7,6.47a.69.69,0,0,0-.53.2,3.21,3.21,0,0,1-2.23,0,.86.86,0,0,0-.62-.2.68.68,0,0,1-.62-.31.48.48,0,0,0-.38-.3c-.62,0-1.72-1.72-1.72-2.68,0-.56-.09-1-.25-1s-.19-.21,0-.63.22-.61.07-.75c-.48-.49-.69,1-.33,2.32a5,5,0,0,0,9.21,1.57c1.77-2.57-.26-7.57-3-7.51-.18,0,.07.2.56.42M222.65,69c-.07.26-.28.39-.62.39-2.23,0-4.51,2.92-4.62,5.93l0,1.65-.74-.06c-1.58-.14-2,.34-2,2.3s0,2,1.86,2.21l1,.13.06,8.93.05,8.94h5.05l.06-8.78c.06-9.8,0-9.32,1.54-9.32,1.95,0,1.94,0,1.94-2,0-2.19-.3-2.65-1.68-2.65-.52,0-.95.1-1,.24-.22.65-.76-.06-.76-1A3,3,0,0,1,225,73c.46-.08.46-.09-.08-.12-1.25-.06-2.35,1.37-2.36,3,0,1.42.16,1.55,1.93,1.63l1.41.06.06,1.64.06,1.65-1.54.08c-2.05.1-1.91-.6-1.91,9.52v8.85h-4.85V90.49c0-9.92.08-9.39-1.6-9.51l-1.23-.09V79.31c0-1.74,0-1.81,1.39-1.81,1.19,0,1.4-.3,1.5-2,.22-3.91,2.68-6.18,6.81-6.29.46,0,.47,0,.11-.17-1-.4-1.88-.4-2,0m3.06.16c.2.13.25.63.21,1.92a5.25,5.25,0,0,0,.08,1.75,6.44,6.44,0,0,0,.15-1.92c0-1.7,0-1.92-.35-1.92s-.29,0-.09.17M167,69.66c-.32.24-.34,1.32-.29,15l.05,14.76h5.06l0-5.21c.06-5.56.16-6,1-4.6.2.33.43.61.52.61a.18.18,0,0,1,.16.2,30,30,0,0,0,2.72,3.86,1,1,0,0,1,.31.55c0,.13.07.24.15.24a2.53,2.53,0,0,1,.65.81,2.27,2.27,0,0,0,.66.81c.09,0,.16.1.16.21a6.39,6.39,0,0,0,.92,1.42l.92,1.2h2.82c3.4,0,3.33.17,1.1-2.79a21.68,21.68,0,0,1-1.72-2.46.3.3,0,0,0-.17-.25,50.65,50.65,0,0,1-3.87-5.19c0-.1-.12-.23-.27-.29-.37-.14-1-1.39-.78-1.69s3.23-3.6,6.2-6.7c2.1-2.18,2.48-2.8,2-3.26a15.39,15.39,0,0,0-5.18.17,83.25,83.25,0,0,0-6,6.33c-2.33,2.83-2.22,3.14-2.22-6,0-5.6-.06-7.61-.24-7.79-.34-.34-4.22-.33-4.68,0m63.21,0c-.43.43-.37,29.61.06,29.78a21.09,21.09,0,0,0,4.91-.06c.22-.14.26-1.15.21-5.14a46,46,0,0,1,.08-5.12c.19-.19.91.48,1.08,1a3.18,3.18,0,0,0,.61.93,2.1,2.1,0,0,1,.48.68.84.84,0,0,0,.21.41c.11.13.94,1.24,1.82,2.46s1.82,2.49,2.07,2.81a5.84,5.84,0,0,1,.53.79c.43,1.15,1,1.36,3.68,1.36,2.86,0,3.34-.09,3-.52-.56-.62-.76-.89-.76-1a9,9,0,0,0-1.56-2,.61.61,0,0,1-.26-.45c0-.17-.06-.3-.15-.3a2.85,2.85,0,0,1-.65-.81c-.27-.44-.56-.81-.65-.81s-.16-.1-.16-.23a5.16,5.16,0,0,0-.86-1.29c-.48-.58-1-1.26-1.17-1.51s-1-1.35-1.79-2.34-.85-1.25,2-4.19c1.19-1.25,2.76-2.9,3.47-3.67s1.56-1.65,1.86-2c.79-.8.68-2.27-.12-1.61-.15.12-.33.15-.42.07-.23-.24-4.56-.19-4.52,0a5,5,0,0,1-1.07,1.33c-.6.62-1.69,1.8-2.41,2.61l-2.32,2.59c-.56.61-1.13,1.28-1.27,1.48-.7,1-.76.36-.7-7.35a68.2,68.2,0,0,0-.15-7.84c-.27-.41-4.63-.56-5-.17m-58.75.14c.19.12.27,2,.31,7.93.05,8.37.07,8.46,1.07,7.51.47-.45,3-3.28,3.85-4.28.33-.38,1.19-1.32,1.93-2.08L180,77.48l2.51.06c3.25.08,3.34-.21-1.49,4.81-3.64,3.79-4.2,4.42-4.2,4.8a12.61,12.61,0,0,0,2.24,3.26.28.28,0,0,1,.19.26,49.89,49.89,0,0,0,3.48,4.71,1.44,1.44,0,0,1,.36.56,1.35,1.35,0,0,0,.38.54,15.9,15.9,0,0,1,1.22,1.62l.84,1.24h-5.25l-1.18-1.57c-.65-.86-1.35-1.84-1.56-2.17a5.5,5.5,0,0,0-.67-.89,6.28,6.28,0,0,1-.61-.81c-.19-.29-1-1.37-1.71-2.4a14.81,14.81,0,0,1-1.37-2.06c0-.29-.79-.67-1.12-.54s-.29,1-.29,5.27v5.17h-4.85V84.72c0-11.1.05-14.68.24-14.87a11.73,11.73,0,0,1,4.35-.07m63.32.1c.15.19.24,2.69.28,7.94.06,9,0,8.87,1.94,6.51.57-.7,1.15-1.38,1.29-1.5s.94-1,1.77-1.91,1.89-2.07,2.35-2.55l.82-.87h2c2.76,0,3.44.14,2.95.6-.33.31-4,4.23-5.51,5.87-.36.39-1.14,1.23-1.74,1.86-1.18,1.25-1.21,1.47-.34,2.47a2.12,2.12,0,0,1,.46.72c0,.12.06.21.15.21a2.34,2.34,0,0,1,.65.76,9.77,9.77,0,0,0,.62.85,50.52,50.52,0,0,1,3.23,4.43.31.31,0,0,0,.16.26,24,24,0,0,1,2.67,3.59c0,.5-5.22.27-5.48-.24a2.51,2.51,0,0,0-.39-.56,14.45,14.45,0,0,1-1.07-1.46c-.51-.75-1-1.48-1.14-1.61a21.94,21.94,0,0,1-2-3,.19.19,0,0,0-.18-.2,7.93,7.93,0,0,1-1.24-1.62c-1.08-1.65-1.15-1.71-1.7-1.5-.28.11-.32.74-.32,4.94,0,6,.24,5.46-2.42,5.46h-2.17l-.13-2c-.17-2.56-.17-24.89,0-26.51l.13-1.24h2.07c1.48,0,2.13.08,2.29.27m-37.69,6.65a3.82,3.82,0,0,1-1.11.35c-.39.07.66.12,2.33.12a15.32,15.32,0,0,0,2.53-.07,10.2,10.2,0,0,1-1.38-.36,2.93,2.93,0,0,0-2.37,0m63,.06a2.47,2.47,0,0,1-1.2.36,5,5,0,0,0-2.23.78c-.17.1-.44.23-.61.31-1,.43-3.84,3.13-3.84,3.63a.83.83,0,0,1-.31.48,1,1,0,0,0-.3.64.58.58,0,0,1-.3.5c-.18.07-.31.37-.31.76a2.19,2.19,0,0,1-.29,1.06c-.33.46-.56,6.8-.24,6.6s.53.37.53,1.1c0,.37.09.66.2.66s.26.25.34.56a1.67,1.67,0,0,0,.26.65c.06.06.35.47.64.92a12.23,12.23,0,0,0,2.63,2.72,1,1,0,0,1,.43.26,4.69,4.69,0,0,0,2,1,1.15,1.15,0,0,1,.69.32c.26.26.86.32,3.26.33,2.95,0,3.29,0,4.74-.88.17-.1.44-.24.61-.32a6.43,6.43,0,0,0,1.13-1c1.07-1.12,1.45-1,1.54.41l.06,1,2.12.06a18.54,18.54,0,0,0,2.58-.06l.45-.11V88.43c0-9.49,0-10.9-.3-11a.45.45,0,0,1-.3-.38c0-.21-.51-.27-2.21-.28l-2.2,0-.12.61a9,9,0,0,0-.12,1.49c0,1.13-.36,1.16-1.43.11a8.13,8.13,0,0,0-1.56-1.17c-.41-.21-.88-.47-1-.58S265,77,264,76.92a1.58,1.58,0,0,1-.91-.3,4.54,4.54,0,0,0-3,0m-52.47.25c-1.26.12-1.79.74-1.65,1.92.16,1.36-.1,1.35-1.62,0a5.63,5.63,0,0,0-1.7-1.23.64.64,0,0,1-.49-.2.58.58,0,0,0-.47-.2c-.43,0,.28.6.72.6A7.54,7.54,0,0,1,205,79.62c.74.94,1.27.63,1.39-.81l.1-1.21,2.27-.06,2.28-.06V99.35l-2.28-.06-2.27-.06-.06-1c-.09-1.56-.49-1.77-1.46-.76-.42.43-.89.89-1,1a4,4,0,0,1-1.74.91,1.57,1.57,0,0,0-.77.29c-.55.42-5.43.43-6.16,0a2.36,2.36,0,0,0-.85-.3c-.62,0-3.06-1.64-4-2.69-4-4.38-3.94-12.33.21-16.48a12,12,0,0,1,3.5-2.48c.43,0,1.34-.58.93-.59a.57.57,0,0,0-.46.2.82.82,0,0,1-.6.2,1,1,0,0,0-.72.3.8.8,0,0,1-.44.3c-.65,0-3.3,2.57-3.92,3.8a3.41,3.41,0,0,1-.54.82c-.09,0-.15.22-.15.41a1.62,1.62,0,0,1-.28.74,4.42,4.42,0,0,0-.4,1.5,2.76,2.76,0,0,1-.31,1.21c-.29.18-.38,3.66-.09,3.66.13,0,.29.47.36,1.06a9,9,0,0,0,1.09,3.18,5.24,5.24,0,0,0,1,1.5,1.18,1.18,0,0,1,.25.42A7.41,7.41,0,0,0,191.43,98c.32.24.69.54.83.65a5.32,5.32,0,0,0,1.87.91,1.88,1.88,0,0,1,.78.32c.4.26,1.08.32,3.45.32s3-.06,3.3-.32a1.36,1.36,0,0,1,.77-.32,1,1,0,0,0,.67-.31.84.84,0,0,1,.47-.3,4.16,4.16,0,0,0,1.1-.93c1.09-1.16,1.55-1.1,1.36.18s0,1.38,2.76,1.31l2.3,0,.06-10.52c0-5.78,0-10.9-.07-11.37l-.12-.86-1.25,0c-.69,0-1.62.07-2.06.12m58,.85c1.33.63,2.6,1.61,2.6,2s1,.54,1.22.31a3.51,3.51,0,0,0,.24-1.29l.06-1.11,2.14-.06c1.57,0,2.2,0,2.33.2s.16,4.84.13,10.93l-.06,10.67h-4.62l-.06-1.17c-.08-1.54-.53-1.64-1.8-.4-1.05,1-1.85,1.56-2.35,1.57a1.54,1.54,0,0,0-.75.31c-.57.42-5.71.41-6.27,0a1.55,1.55,0,0,0-.73-.29,4.55,4.55,0,0,1-1.3-.51c-7-3.74-7.8-15-1.38-19.75,3.08-2.27,7.54-2.86,10.6-1.39m-152.39.42a7.19,7.19,0,1,0,9.9,8.85c.39-1.12.39-1.64,0-.9a2.92,2.92,0,0,0-.3,1,1,1,0,0,1-.3.71.78.78,0,0,0-.3.48,10,10,0,0,1-2.76,2.55,1.92,1.92,0,0,0-.78.33c-.63.4-4.77.34-4.91-.07a.47.47,0,0,0-.44-.26.92.92,0,0,1-.62-.3.8.8,0,0,0-.49-.3,3.7,3.7,0,0,1-1.53-1.58.22.22,0,0,0-.2-.24c-.11,0-.26-.25-.33-.56a1.5,1.5,0,0,0-.36-.7c-.39-.25-.42-4.33,0-4.91a1.94,1.94,0,0,0,.32-.72,6.94,6.94,0,0,1,1.47-2,2,2,0,0,0,.41-.3,4.7,4.7,0,0,1,1.92-1.15.93.93,0,0,0,.56-.18,1.72,1.72,0,0,1,.7-.28c.45-.08.44-.09-.1-.11a4.87,4.87,0,0,0-1.82.58m4.14-.47a1.66,1.66,0,0,1,.7.28,1.13,1.13,0,0,0,.64.18,1.19,1.19,0,0,1,.73.28,2,2,0,0,0,.7.41A6.21,6.21,0,0,1,122.22,81a.87.87,0,0,0,.32.54,1,1,0,0,1,.24.93c0,.43,0,.67.17.67a.43.43,0,0,1,.35.25c.06.15.1.11.11-.1a1.65,1.65,0,0,0-.17-.71,3.6,3.6,0,0,1-.3-.86c-.34-1.67-3.84-4.31-5.58-4.21l-.5,0,.5.09m81.19,3.89a5.44,5.44,0,0,0,1.62,0c.4-.1.06-.15-1-.14-1.45,0-1.51,0-.61.14m63.12,0a4,4,0,0,0,1.42,0c.65-.13.54-.15-.64-.16s-1.26,0-.78.15m-65.54.38c-4.63,2.61-5.42,8.46-1.6,12,3.25,3,9,2,10.78-1.75.14-.3.38-.82.54-1.13a11.82,11.82,0,0,0,0-5.16c-.16-.3-.4-.79-.55-1.1-.58-1.24-3.11-3.18-4.13-3.17-.39,0-.17.14,1.11.69a6,6,0,0,1,3,3.14c.12.28.3.67.41.86a10.35,10.35,0,0,1-.13,4.6c-.46,1.24-2.12,3.43-2.63,3.44a.86.86,0,0,0-.48.3,1.16,1.16,0,0,1-.81.31c-.31,0-.6.11-.65.24-.13.4-2.64.46-3.41.08a2.9,2.9,0,0,0-1-.32c-2,0-4.63-4.39-4.19-7l.25-1.49a6.65,6.65,0,0,1,3.65-4.32c.65-.32,1-.58.77-.57a3,3,0,0,0-1,.35m63.19.06a7.38,7.38,0,0,0,.16,13A7.28,7.28,0,0,0,267,94a7,7,0,0,0,2.25-3.67A7.08,7.08,0,0,0,265.57,82c-1-.47-1.81-.58-.92-.11a2.85,2.85,0,0,0,.77.3c.91,0,3.2,2.7,3.63,4.27.77,2.83-1.11,7.86-2.93,7.86a.51.51,0,0,0-.41.3c-.06.18-.37.31-.71.31s-.63.11-.68.25-.59.25-1.73.25a4,4,0,0,1-1.89-.25,1.19,1.19,0,0,0-.73-.25c-1.07,0-3.69-2.58-3.69-3.63a1.19,1.19,0,0,0-.3-.75c-.42-.42-.43-3.47,0-4a1.54,1.54,0,0,0,.31-.75c0-1.24,2.36-3.37,4.45-4.06.17,0,.08-.09-.2-.09a3.44,3.44,0,0,0-1.21.39M129.16,84.58a11,11,0,0,0,.1,2.32,1.73,1.73,0,0,1,.34-.71,2.76,2.76,0,0,0,.26-1.33,9.49,9.49,0,0,1,.13-1.72c.1-.5.08-.6-.07-.39s-.54.13-.68-.5a11.49,11.49,0,0,0-.08,2.33m-5.68.1c0,.44,0,.6.09.35a2.2,2.2,0,0,0,0-.81c0-.19-.09,0-.09.46m5.23,3.66c-.45,1-.24,1.22,2.5,2.71a7.84,7.84,0,0,1,1.32.82c.32.48,1.18.4,1.73-.15a10.26,10.26,0,0,1,14,.15,10.14,10.14,0,0,1,3,7.9,9,9,0,0,1-1,3.59,10.13,10.13,0,0,1-6.91,5.5c-.95.24-1.15.34-.61.28,1.57-.16,2.31-.35,2.55-.62a.84.84,0,0,1,.58-.29.89.89,0,0,0,.61-.3.81.81,0,0,1,.48-.3c.92,0,4.17-4.61,4.17-5.9a1.46,1.46,0,0,1,.33-.88c.42-.41.53-3.54.14-3.54-.14,0-.3-.34-.37-.75a5.09,5.09,0,0,0-.41-1.3,2.35,2.35,0,0,1-.29-.77,15.64,15.64,0,0,0-2.42-3.24,2.08,2.08,0,0,1-.65-.46,8.53,8.53,0,0,0-3.55-1.7,2.21,2.21,0,0,1-1-.3,5,5,0,0,0-1.7-.17,5.06,5.06,0,0,0-1.7.17,2.15,2.15,0,0,1-1,.3,10.22,10.22,0,0,0-3.18,1.34l-1,.87-.87.76-.85-.5c-.47-.27-1.32-.73-1.87-1-1.57-.78-2-1.22-1.8-2s0-.89-.3-.16m-3,5.2c-1,1.24-4.86,3.57-6,3.57a2.54,2.54,0,0,0-1,.35l-.59.35v2.65c0,2.88.1,3.15,1.22,3.37a6.83,6.83,0,0,1,.9.27c.36.15.38.13.13-.18a1.22,1.22,0,0,0-.83-.34c-1,0-1.22-.47-1.22-3.2,0-1.95.06-2.46.28-2.46a.85.85,0,0,0,.53-.3,1,1,0,0,1,.65-.31,8,8,0,0,0,2.59-1c1.35-.63,4.49-3.27,3.89-3.27a1.21,1.21,0,0,0-.59.47m1.55-.09c.39.21,1,.57,1.42.8s1,.55,1.31.71c1,.45,1.45,1.08,1.16,1.55s-.32,4.64.06,5.14a1.57,1.57,0,0,1,.3.74,3.87,3.87,0,0,0,.86,1.77c.08,0,.15.2.15.37a13.19,13.19,0,0,0,3,3.1,3.32,3.32,0,0,1,1,.51,4.7,4.7,0,0,0,1.27.62,6.32,6.32,0,0,1,1,.3,3.38,3.38,0,0,0,1.11.16c.48,0,.29-.11-.77-.38-5.84-1.49-8.68-6.08-7.68-12.44l.12-.8-2.16-1.27a14.65,14.65,0,0,0-2.48-1.26c-.18,0,0,.17.37.38m12.67.65c-1.39.33-3.58,2.37-3.3,3.07.06.14.11.1.12-.11s.11-.35.22-.35.2-.12.2-.27a1.73,1.73,0,0,1,.56-.77,4.83,4.83,0,0,1,7.71,5.63c-1.23,2.53-5.51,3.13-7.65,1.07a3.19,3.19,0,0,1-1.06-2.21,1.2,1.2,0,0,0-.21-.85c-.18-.11-.18-.27,0-.65a.8.8,0,0,0,.06-.86c-.42-.75-.7,1.15-.34,2.28,1.2,3.72,5,5.13,7.94,3,4.41-3.26,1.1-10.19-4.27-8.93m-27.28,3.16a.48.48,0,0,1,.46.52c0,.34,0,.38.18.16.58-.92.84,0,.78,2.65l0,2.68-.61.18a15.67,15.67,0,0,0-3.31,1.67,13.83,13.83,0,0,0-2.45,2.64.33.33,0,0,1-.16.3,3.93,3.93,0,0,0-.85,1.8.71.71,0,0,1-.33.56c-.45.25-.42,5.38,0,5.84a1.46,1.46,0,0,1,.3.89c0,.32.08.59.18.59s.26.2.33.44a13.66,13.66,0,0,0,3.91,4.1c.4.19.87.44,1,.54a3.16,3.16,0,0,0,1.46.47c.47.08.76.24.76.42s.21.3.61.3c1.1,0,.68-.51-.66-.79-5.68-1.19-9.42-7.32-7.66-12.56.55-1.63.9-2.43,1.08-2.43s.16-.12.16-.26c0-1,3.44-3.6,5.76-4.31l.61-.19,0-2.87.06-2.87-.6-.31a2.47,2.47,0,0,0-1.07-.28l-.46,0,.45.09m8.34,7.23a.82.82,0,0,0,.49.31c.43,0,2.59,2.08,3.25,3.12a10.78,10.78,0,0,1,.57,10c-.6,1.26-3.24,4.11-3.79,4.11-.18,0-.32.1-.32.21a.23.23,0,0,1-.25.2,2.63,2.63,0,0,0-.8.28,9,9,0,0,1-2,.55c-.89.17-1.42.37-1.42.53,0,.37,1.21.33,1.49,0a1.91,1.91,0,0,1,1-.44,2.44,2.44,0,0,0,1.08-.4.94.94,0,0,1,.57-.27c1.71,0,5.09-4.49,5.44-7.23.07-.58.21-1.06.31-1.06s.19-.41.19-.91-.09-.91-.19-.91-.24-.48-.31-1.06a9.75,9.75,0,0,0-4.08-6.44c-1.1-.81-1.77-1.07-1.29-.49m-6,4a6.27,6.27,0,0,0-.91.38c-.17.1-.5.27-.73.37-1.15.5-2.49,3.36-2.2,4.71s1.65,3.58,2.2,3.59a1.2,1.2,0,0,1,.51.27c2.17,1.84,7.39-.56,7.26-3.34l0-.67-.08.61a2.25,2.25,0,0,1-.34.91,6.22,6.22,0,0,0-.52.87c-.8,1.59-4.56,2.41-6.31,1.36a4.81,4.81,0,0,1-.13-8.22c.8-.5,4.61-.74,4.61-.29,0,.1.2.25.44.33a4.66,4.66,0,0,1,2.25,3.14l.08.69,0-.75c.11-2.44-3.58-4.82-6.13-4" transform="translate(-102.4 -44.54)"/><path id="path2" class="cls-3" d="M115.14,45.25c0,.23.26.3,1.11.3s1.11-.07,1.11-.3-.26-.31-1.11-.31-1.11.07-1.11.31m-3.71,1c-.25.25-.14.53.12.32a1.93,1.93,0,0,1,.66-.31c.32-.08.3-.1-.12-.12a1.18,1.18,0,0,0-.66.11m-3.44,3c-.2.21-.33.42-.28.47s.25-.1.45-.32c.48-.52.32-.66-.17-.15m7.81,1.91a3.41,3.41,0,0,0,1,0c.25,0,0-.09-.56-.08s-.76,0-.45.08m-2.28.77c-.17.21-.18.3,0,.3a.2.2,0,0,0,.22-.19c0-.1.21-.22.46-.27.43-.09.43-.09,0-.12a.94.94,0,0,0-.68.28m12.47.25a1.46,1.46,0,0,1,.32.86c.08.67.09.67.12-.15s0-.86-.32-.86-.27.06-.12.15M120.34,54c-.22.22-.17.53.06.38s.29.09.39.35.19.34.2.15c0-.42-.46-1.06-.65-.88m6.12.59c0,.16.09.3.21.3s.2.46.2,1-.09,1-.2,1c-.31,0-.25.55.08.68s.29-.21.28-1.6-.07-1.71-.29-1.71a.3.3,0,0,0-.28.31M105.9,55.86c0,.61,0,.86.08.56a4.13,4.13,0,0,0,0-1.11c0-.31-.08-.06-.08.55m5.6-.62a.57.57,0,0,0,.25.5c.2.1.2.14,0,.24s-.31.69,0,.69.31-.22.31-.79-.11-.83-.31-.9-.3,0-.3.26m9.3,1.8a.28.28,0,0,1-.31.24c-.18,0-.26.09-.2.2a.44.44,0,0,0,.3.2c.21,0,.46-.62.32-.77s-.11,0-.11.13m5.46,1.74c0,.38-.11.73-.25.79s-.11.11.1.12.35-.15.35-.8c0-.44,0-.8-.1-.8s-.1.31-.1.69m-6.85.33c-.49.44-.86.84-.81.88a4.14,4.14,0,0,0,1-.81c1.13-1.11,1-1.15-.18-.07m-13.26-.24c-.07.13,0,.23.08.23s.21.26.21.58.13.64.36.72.3.08.1-.12a1.09,1.09,0,0,1-.26-.67c0-.57-.31-1-.49-.74m7.43.59c-.18.11-.15.22.11.38s.36.15.38-.16-.1-.47-.49-.22m25.91.24c0,.23.1.38.21.34a.36.36,0,0,0,.21-.34.37.37,0,0,0-.21-.34c-.11,0-.21.12-.21.34m3-.2c-.14.22,0,.61.27.61.08,0,.15-.18.15-.41,0-.43-.22-.53-.42-.2m-27.36.76c0,.25.29.37.86.42.9.07,1.9-.34,1.48-.61s-.56-.2-.56.14-.22.3-.71.3-.71-.09-.71-.3-.09-.3-.21-.3-.19.15-.15.35m22.14.08c-.12.45-.12.45.55.1l.54-.28-.5-.1c-.36-.07-.52,0-.59.28m7.25.06c.52.39.82.4.5,0a.87.87,0,0,0-.57-.3c-.26,0-.24.06.07.29m1.36.27c-.17.12-.14.22.13.39s.36.18.27-.16a2,2,0,0,0-.12-.39l-.28.16m-21.37,1.44-.6.73.69-.65c.37-.36.64-.69.59-.73s-.36.25-.68.65m9.44.48c-1.23,1.23-1.53,1.57-1.44,1.64A7.83,7.83,0,0,0,133.85,63c1.36-1.44,1.47-1.75.15-.42m14.7.45c.38.38.72.66.77.62s-1.16-1.33-1.34-1.33.2.32.57.71m-40,.16c.26.26.52.44.57.41s-.63-.87-.86-.87,0,.21.29.46m13.15,1.42c-.13.15-.17.34-.09.41.23.24.42.14.52-.27s-.1-.53-.43-.14m-10.27.64a1,1,0,0,0,.56.31c.14,0,.08-.13-.14-.3-.51-.39-.81-.39-.42,0m38.68-.16a1.17,1.17,0,0,1,.34.57c.09.32.1.3.07-.09a.64.64,0,0,0-.34-.57c-.2-.05-.22,0-.07.09m-30.92.75c-.34.26-.34.28,0,.38s.38,0,.36-.28,0-.38,0-.38l-.37.28m23.23,0c.07.2.33.32.66.31s.45,0,.13-.12a2.13,2.13,0,0,1-.66-.31c-.2-.16-.23-.13-.13.12m-11,.06c-.14.06-.24.35-.23.64s0,.46.12.14a2,2,0,0,1,.31-.66c.21-.27.2-.28-.2-.12m-13,.4c-.23.23-.18,4.73.06,4.73s.2.15.2.33,0,.28.12.22a23.73,23.73,0,0,0-.09-5c-.08-.22-.21-.34-.29-.26m32.34,0a1.49,1.49,0,0,1,.33.86c.08.67.08.66.11-.16s0-.86-.32-.85-.27,0-.12.15m-13,.57-.57.52.66-.46a4.06,4.06,0,0,0,.66-.52c0-.16-.23,0-.75.46m-7.14,3,.1,2.48.06-2.21a8.57,8.57,0,0,1,.28-2.48c.16-.2.13-.26-.16-.26s-.38.15-.28,2.47m91.6-1a.28.28,0,0,1-.24.31c-.13,0-.18,0-.13.1s.26,0,.44,0c.36-.14.47-.69.13-.69-.11,0-.2.14-.2.3m-70.52.81c0,.45,0,.61.09.35a2.2,2.2,0,0,0,0-.81c0-.19-.09,0-.09.46m77.94-.16c-.3.08-.34.22-.23.74.25,1.16.48,1.31.49.3,0-.56.11-1,.26-1,.31-.12,0-.12-.52,0m-63.13,15c0,8.06,0,11.36.05,7.32s0-10.62,0-14.66-.05-.73-.05,7.34m53.08-14.36c0,.11-.13.2-.3.2s-.3.09-.3.21.12.14.4,0,.57-.6.3-.6c-.05,0-.1.09-.1.2m15.86,5.56c0,3.22,0,4.52.07,2.87s0-4.29,0-5.87-.07-.23-.07,3m-17.2-4.25c-.13.28-.16.46-.06.4.27-.17.63-.9.45-.9s-.27.23-.39.5m-98.25.1c-.72.13-.74.15-.19.18a1.46,1.46,0,0,1,.86.27c.19.19.24.14.24-.2s0-.44,0-.42-.41.09-.86.17m25.51.11c-.07.18-.22.27-.33.2s-.2,0-.2.09c0,.34.55.24.69-.12.07-.18.09-.37,0-.42s-.13.07-.2.25m-35.23.72c0,.29.06.32.31.13l.37-.27s-.11-.07-.31-.13-.37,0-.37.27m40.79.82c0,.41-.14.79-.28.85s-.2.1,0,.12.49-.43.39-1.13c-.08-.5-.09-.47-.12.16M124.24,74a1.77,1.77,0,0,1,.41.24c0,.07.46.44.9.83l.8.71-.8-.94a2.67,2.67,0,0,0-1.21-1c-.29,0-.32,0-.1.11m5.26.26a3.85,3.85,0,0,1-.66.28c-.2.06-.35.23-.34.37s0,.21.12,0a.5.5,0,0,1,.46-.25.93.93,0,0,0,.62-.31c.28-.34.24-.36-.2-.1m10.11.35a1.54,1.54,0,0,1,.69.28c.3.28.72.21.72-.12s-.23-.3-1-.28c-.55,0-.74.07-.45.12m2,.19c0,.31.24.35.51.09a1.59,1.59,0,0,1,.7-.28c.28,0,.12-.09-.35-.09s-.86.1-.86.28M222.79,76c0,.7.12,1,.33,1.08s.23,0,.06-.09a2.09,2.09,0,0,1-.32-1.07l-.09-.91,0,1m-26.63.54c-.07.26,0,.39.13.33s.44-.75.18-.75c-.11,0-.25.19-.31.42m3.94-.08a.56.56,0,0,0,.31.41c.15.06.19-.07.12-.33-.13-.5-.52-.57-.43-.08m59.33-.11a.31.31,0,0,1-.14.4c-.15.1-.19.17-.08.17.39,0,.76-.35.62-.57a.45.45,0,0,0-.34-.23c-.11,0-.14.1-.06.23m3.87.22a1.06,1.06,0,0,0,.65.35c.21,0,.23-.06.07-.12a.46.46,0,0,1-.26-.38c0-.15-.17-.26-.39-.24-.37,0-.38,0-.07.39m-83.45.41c0,.14-.28.44-.61.66s-.61.48-.61.57,1.25-.81,1.48-1.2c.09-.17.07-.28-.05-.28a.23.23,0,0,0-.21.25M202,76.88c-.06.11.06.29.28.4s.37.15.28-.19-.36-.52-.56-.21m4,.32c0,.48,0,.49.25.16s.36-.67,0-.67c-.13,0-.26.23-.28.51m8.77-.39a.76.76,0,0,0-.14.46c0,.23.06.25.22.08a.52.52,0,0,0,.15-.45c0-.13-.15-.17-.23-.09m28.18.12a.76.76,0,0,1-.37.55c-.19.11-.25.21-.12.21a.76.76,0,0,0,.61-.84c-.06-.17-.11-.14-.12.08m5.89,0a1.77,1.77,0,0,1-.06.86c-.08.31-.08.56,0,.56.28,0,.44-1.28.19-1.51s-.2-.13-.14.09m20.61.17a.6.6,0,0,1-.43.58c-.48.13-.52.58-.09,1s0,.81-.65.25l-.55-.49.49.64c.81,1,1.11.87,1-.6a1.41,1.41,0,0,1,.2-.85.83.83,0,0,0,.14-.65c-.07-.27-.1-.25-.12.11M172,77.9c0,.5,0,.71.08.46a2.78,2.78,0,0,0,0-.91c0-.25-.08,0-.08.45m39.26,10.52c0,6.06,0,8.54.06,5.51s0-8,0-11-.06-.55-.06,5.51M114.62,77.93c-.14.22.24.57.62.57.11,0,.08-.08-.08-.17a.32.32,0,0,1-.14-.4c.08-.13,0-.23-.06-.23a.47.47,0,0,0-.34.23m2.86,0a.27.27,0,0,1-.11.37c-.13.08.22.11.78,0,.82-.07,1,0,1.15.23a.53.53,0,0,0,.44.33c.21,0,.14-.13-.21-.4a2,2,0,0,0-1-.41.88.88,0,0,1-.64-.2.45.45,0,0,0-.33-.2c-.11,0-.14.1-.06.23m14.85,0c0,.1-.16.22-.36.26s-.2.11.18.18.51,0,.43-.26-.25-.5-.25-.18m52.57.72a4.39,4.39,0,0,0-.79.91,6.79,6.79,0,0,0,1-.91,4.69,4.69,0,0,0,.8-.91,6.6,6.6,0,0,0-1,.91m89.78,10c-.05,6,0,10.89.06,10.81s.12-5,.1-11l-.06-10.8-.1,11M134.08,78.2c-.08.2,0,.25.2.17a.41.41,0,0,1,.49.16c.12.19.18.2.18,0,0-.4-.74-.72-.87-.37m80.41,1.12c0,.83,0,1.17.08.76a7.72,7.72,0,0,0,0-1.52c0-.42-.08-.08-.08.76m26.56-.21a5,5,0,0,0-1,1.22,7.09,7.09,0,0,0,1.23-1.22,8.83,8.83,0,0,0,1-1.21,12.55,12.55,0,0,0-1.22,1.21m-128.23-.48c-.32.24-.33.28-.06.28a.61.61,0,0,0,.47-.21c.21-.35,0-.38-.41-.07m18.5-.16c0,.13-.18.24-.38.24a.94.94,0,0,0-.65.36c-.23.3-.23.31,0,.1a1.15,1.15,0,0,1,.64-.26c.38,0,.7-.35.5-.55s-.12,0-.12.11m116.62.35c-.5.67-.44.86.07.21.24-.3.4-.57.36-.61s-.23.14-.43.4m-69.91,0a.27.27,0,0,1-.24.3c-.13,0-.17.07-.1.14s.32-.06.55-.3.35-.44.1-.44a.3.3,0,0,0-.31.3m12.49.53c-1,1-.71,1,.41,0,.49-.44.76-.79.61-.78a3.33,3.33,0,0,0-1,.81m14.2-.45c0,.19,1,1.14,1.07,1s-.2-.33-.51-.63-.56-.47-.56-.39m-69.14.18c0,.14.14.31.34.37a5.22,5.22,0,0,1,.75.33c.37.2.38.18.13-.12a1,1,0,0,0-.64-.33.52.52,0,0,1-.46-.25c-.08-.2-.11-.2-.12,0m-6.21.54a1.32,1.32,0,0,0,0,.66c.07.24.11.19.12-.18a.79.79,0,0,1,.28-.64c.2-.08.19-.1,0-.12a.44.44,0,0,0-.37.28m16.34,0c-.29.3-.31.57,0,.57.11,0,.2-.13.2-.29a.46.46,0,0,1,.26-.39c.14,0,.15-.11,0-.12a.83.83,0,0,0-.46.23M172,80.63c0,.56,0,.76.09.45a3.77,3.77,0,0,0,0-1c0-.25-.08,0-.08.56m-28-.3c-.14.27-.14.4,0,.4s.21-.13.21-.29a.47.47,0,0,1,.35-.38c.33-.08.33-.09,0-.11a.72.72,0,0,0-.57.38m101.21,1.41a18.52,18.52,0,0,0-1.69,1.82c.13,0,.58-.42,2.39-2.29a10.15,10.15,0,0,0,1.21-1.35s-.91.82-1.91,1.82m-107.18-1.4c-.17.28,0,.45.38.36s.25-.11,0-.32-.31-.18-.4,0m-16.25.39a7.74,7.74,0,0,0,.52.81,2.41,2.41,0,0,1,.33.81l.09.51,0-.54a1.08,1.08,0,0,0-.28-.78.8.8,0,0,1-.3-.5.92.92,0,0,0-.34-.54c-.31-.25-.31-.23,0,.23m103.86.65-.57.57h.53c.31,0,.47-.09.4-.22s0-.34.11-.51c.45-.54.11-.42-.47.16M103,82.4l.1,1.47.07-1.21a3.75,3.75,0,0,1,.28-1.46c.16-.2.12-.26-.17-.27s-.37.14-.28,1.47m111.68-.87c0,.27.07.36.27.28a.31.31,0,0,0,0-.61c-.11,0-.21.11-.23.33m23.88.32c-.3.63-.25.63.29,0,.27-.31.34-.51.19-.51s-.35.23-.48.51m-41.93.21c-.48.27-.48.28-.07.29a.63.63,0,0,0,.55-.3c.06-.17.09-.3.07-.29l-.55.3m4.57,0c.07.2.33.32.66.31s.45,0,.13-.13a2,2,0,0,1-.66-.3c-.2-.16-.23-.13-.13.12m21.61,8.52c0,4.89,0,6.87.06,4.38s0-6.48,0-8.89-.06-.38-.06,4.51m37.41-8.61a1.77,1.77,0,0,1-.6.28c-.32.07-.29.1.13.12a.69.69,0,0,0,.65-.28c.13-.35.09-.38-.18-.12m4.27.09a.65.65,0,0,0,.66.31c.42,0,.45,0,.13-.13a2,2,0,0,1-.66-.3c-.2-.16-.23-.13-.13.12m-89.8.5a9.12,9.12,0,0,0-1.72,2c0,.08.24-.12.54-.45s.86-.95,1.25-1.37c.85-.89.8-1-.07-.18m60.82.44c0,.5,0,.7.09.45a3.47,3.47,0,0,0,0-.91c0-.25-.09,0-.09.46m-55.21.51c-.37.38-.57.7-.45.7s.26-.14.33-.3a.47.47,0,0,1,.4-.31.28.28,0,0,0,.28-.28.45.45,0,0,1,.25-.39c.14-.06.16-.11,0-.12a2.61,2.61,0,0,0-.86.7m86.09-.63a6.18,6.18,0,0,0,1.37,1.33c.07,0-.18-.32-.56-.71-.67-.69-.81-.8-.81-.62m-62.45.82a1.77,1.77,0,0,0,.66.51c.1,0-.07-.23-.37-.51-.7-.65-.91-.65-.29,0m46.91.26c0,.69,0,.7.12.15a1.35,1.35,0,0,1,.33-.76c.15-.09.11-.15-.12-.15s-.35.16-.33.76m-63.44.13a2.33,2.33,0,0,0,0,.86c.08.49.09.47.12-.17,0-.4.14-.78.28-.84s.2-.11,0-.12a.4.4,0,0,0-.37.27m-9,1.55c-.65.68-1,1.13-.78,1a11.6,11.6,0,0,0,2-2.25,16.31,16.31,0,0,0-1.24,1.23m71.85-.38c0,.24,0,.4.05.35l.33-.44c.23-.3.22-.35-.06-.35s-.32.17-.32.44M103,86.85c0,1.14,0,1.37.29,1.37s.28-.07.12-.26a3.6,3.6,0,0,1-.29-1.37c-.08-1.09-.08-1.09-.12.26m19.61-.2c0,.74,0,.77.12.2,0-.36.16-.66.27-.66a.2.2,0,0,0,.19-.2c0-.11-.14-.2-.31-.2s-.29.21-.27.86m64.07-.46c0,.11.14.2.3.2s.31-.09.31-.2-.14-.2-.31-.2-.3.09-.3.2m18.6,0a.21.21,0,0,0,.19.22c.1,0,.23.16.28.36s.1.3.12,0a.8.8,0,0,0-.28-.58c-.21-.17-.31-.18-.31,0m-75.78.26c-.35.35-.31.48.16.48.25,0,.4-.13.4-.36,0-.42-.22-.46-.56-.12m57.25,1.89c0,.77,0,1.07.08.65a8.41,8.41,0,0,0,0-1.42c-.05-.36-.08,0-.08.77m69,.2c0,.89,0,1.23.07.75a8.76,8.76,0,0,0,0-1.62c0-.41-.08,0-.07.87m12.88-.26c0,1.64.28,2.09.58,1s.12-2.06-.31-2.06c-.21,0-.28.28-.27,1.06m-76-.72c-.38.15-.34,1.69.05,1.69.22,0,.3-.24.3-.91a3.84,3.84,0,0,0-.05-.9l-.3.12m57.64,1c0,.67,0,.91.08.55a4.89,4.89,0,0,0,0-1.21c-.05-.31-.08,0-.08.66m18.94-.2c0,.27-.09.5-.2.5s-.28-.67-.07-.88.27-.15.27.38m-158.81-.17a1.17,1.17,0,0,1,.34.57c.09.32.11.3.08-.08a.68.68,0,0,0-.34-.58c-.2,0-.23,0-.08.09m18.74.67c0,.5,0,.71.08.46a2.78,2.78,0,0,0,0-.91c0-.25-.08-.05-.08.45m9.79-.19c-.07.27,0,.39.13.34s.44-.75.17-.75c-.11,0-.24.18-.3.41m3.9-.22c0,.11.17.29.39.4s.36.15.28-.19-.67-.58-.67-.21m-39.21,1a.6.6,0,0,0,.31.56c.25.09.29.06.13-.13a2.57,2.57,0,0,1-.31-.56c-.08-.21-.12-.17-.13.13m75,0a.44.44,0,0,1,.26.36.81.81,0,0,0,.3.52c.21.17.3.18.3,0a.21.21,0,0,0-.18-.23c-.1,0-.22-.18-.28-.4s-.23-.4-.38-.39-.21,0,0,.12m27.17.52a.38.38,0,0,1-.37.36c-.3,0-.31,0-.06.19s.71-.24.54-.66c-.06-.13-.11-.09-.11.11m36.56.12a2.84,2.84,0,0,0,.55.66c.22.17.17,0-.13-.37-.53-.73-.73-.86-.42-.29m-111.43.51a1,1,0,0,0,.65.33.52.52,0,0,1,.46.26c.08.19.11.19.12,0s-.15-.31-.34-.37a5.31,5.31,0,0,1-.76-.33c-.36-.2-.37-.18-.13.12m105.58-.12a2,2,0,0,0,.51.78c.28.3.51.5.51.45a4.75,4.75,0,0,0-.51-.78c-.28-.37-.51-.58-.51-.45m-49.61.19c-.23.23-.14.47.17.47s.31-.09.31-.19c0-.26-.32-.44-.48-.28m-7.41.13a6.12,6.12,0,0,0,.64.65c.64.59.64.6.25,0s-.89-.9-.89-.7m-46.81.54c-.35.15-.35.17,0,.19s.35.1.35.21a.18.18,0,0,0,.16.2c.09,0,.16-.18.16-.4,0-.44,0-.45-.62-.2m-17.33.15a17,17,0,0,0,2,0c.52-.05,0-.08-1.07-.08s-1.54,0-1,.08m72.08.66c0,.39,0,.55.09.35a1.7,1.7,0,0,0,0-.71c-.05-.19-.09,0-.09.36M174.3,92a1.21,1.21,0,0,1,.35.5.5.5,0,0,0,.39.35c.17,0,.18,0,0-.15a1.21,1.21,0,0,1-.35-.5.49.49,0,0,0-.39-.35c-.17,0-.18,0,0,.15m19.09.17a1.19,1.19,0,0,0,.31.41c.26.26.3.27.3,0a.49.49,0,0,0-.3-.41c-.17-.07-.31-.07-.31,0m74.47,0a.44.44,0,0,0-.25.39c0,.26.05.25.32,0s.33-.51-.07-.37m-17,.77c0,.39.07.7.16.7s.13-.31.08-.7a1.76,1.76,0,0,0-.16-.71,1.73,1.73,0,0,0-.08.71m-145,0a5.19,5.19,0,0,0,1.4,1.51c.13,0-.17-.36-1.25-1.51l-.56-.61.41.61m98,.32c-1,.93-1.15,1.26-.29.55.52-.42,1.36-1.38,1.21-1.38a9.55,9.55,0,0,0-.92.83m31.78,2.2c0,1.73,0,2.43.06,1.57s0-2.27,0-3.13-.06-.16-.06,1.56m22.15-2.17c.84.89,1,1.05,1,.9a12.28,12.28,0,0,0-1-1l-1-.9.9,1m-108-.32a.47.47,0,0,1,.25.39.48.48,0,0,0,.3.41.66.66,0,0,1,.33.55c0,.4,0,.4.12,0a.6.6,0,0,0-.19-.6,1.73,1.73,0,0,1-.42-.57.46.46,0,0,0-.39-.34c-.2,0-.2,0,0,.12m32.12.76c.12.31.69.6.69.36,0-.08-.18-.26-.4-.39s-.38-.2-.29,0m13.19.15c.28.37,1,.63,1,.35,0-.1-.16-.18-.36-.18a1.14,1.14,0,0,1-.65-.25c-.24-.22-.24-.2,0,.08m-66.9.22c0,.24.15.35.46.34s.35-.06.15-.13a1.26,1.26,0,0,1-.46-.34c-.09-.14-.15-.09-.15.13m123.35.28a.64.64,0,0,0,.32.56c.24.09.29.27.2.64s-.06.48.09.39a.49.49,0,0,1,.51.11c.25.21.28.19.18-.08s-.2-.33-.29-.33-.21-.16-.28-.36c-.32-.87-.72-1.39-.73-.93m14.16,0c0,.22.06.27.15.13a1,1,0,0,1,.45-.33c.2-.08.15-.12-.15-.14s-.46.11-.45.34m-125.12,0a9.52,9.52,0,0,0,1.51,0c.42-.05.08-.08-.76-.08s-1.17,0-.75.08m61.92,0a1.51,1.51,0,0,1-.92.2c-.61,0-.8.08-.8.35s.06.29.25.1a1.29,1.29,0,0,1,.78-.24,1.12,1.12,0,0,0,.79-.31c.14-.16.2-.3.14-.3s-.17.09-.24.2m-63.19.19c0,.1-.16.23-.35.28s-.24.1.1.12.45-.1.45-.28,0-.31-.1-.31-.1.09-.1.19m57.58.16c.36,0,.66.17.66.27a.19.19,0,0,0,.2.19c.11,0,.2-.13.2-.3s-.21-.3-.86-.27-.77,0-.2.11m64,.16c0,.17.09.3.2.3s.21-.13.21-.3-.1-.31-.21-.31-.2.14-.2.31m3,0c0,.17.1.3.21.3a.19.19,0,0,0,.2-.19c0-.1.29-.22.66-.27.57-.07.54-.08-.21-.11s-.86,0-.86.27m-64.86.44a1.7,1.7,0,0,0,.71,0c.2-.05,0-.09-.35-.09s-.55,0-.36.09m-68.13.7c0,.34,0,.54.15.47s.26-.84,0-1-.17.17-.19.5m53,.14a2.21,2.21,0,0,1,.41.64c.07.18.12.08.13-.23s-.11-.56-.41-.64-.39-.08-.13.23m5.73.13c.18.28.41.51.51.51s0-.23-.26-.51a2.84,2.84,0,0,0-.51-.5s.08.23.26.5m-52.42.26c-.18.3-.16.37.12.37s.32-.12.26-.37a1.86,1.86,0,0,0-.12-.36,2.58,2.58,0,0,0-.26.36m40.83.29c.33.63,1,1.28,1,1a.45.45,0,0,0-.31-.34.46.46,0,0,1-.3-.37.79.79,0,0,0-.31-.51c-.26-.23-.27-.2,0,.24m51.86,0c-.35,1.38-.34,2.38,0,2.47s.39-.5.18-2.47l-.06-.51-.13.51m-78.41,0c0,.11.14.2.31.2s.3-.09.3-.2-.14-.2-.3-.2-.31.09-.31.2M130.78,99c0,1.23,0,1.7.08,1.06a20.72,20.72,0,0,0,0-2.23c0-.58-.08,0-.08,1.17m14.49-1.94a.2.2,0,0,0,.19.22c.1,0,.22.16.28.36s.09.3.11,0a.8.8,0,0,0-.28-.58c-.21-.17-.3-.18-.3,0m-25.86.5c-.18.22-.17.31,0,.39s.33,0,.39-.28c.12-.45-.11-.51-.44-.11m128.78.33c.56.78.69.78.25,0-.19-.33-.42-.6-.51-.6s0,.27.26.6M269,97.8c0,.26,0,.54-.13.61-.34.22-.28,1,.07.86a.53.53,0,0,1,.53.18c.18.23.74.28,2.49.25l2.25,0L272,99.59c-2.54-.08-2.75-.18-2.75-1.39,0-.49-.08-.89-.17-.89s-.13.22-.08.49m-150.46.26a17.58,17.58,0,0,0,0,4.71c.1,0,.23.16.29.36a12.52,12.52,0,0,0,.09-2.43c0-2.57-.07-3-.43-2.64m73.37.54a2.07,2.07,0,0,0,.91.52c.2,0,.15-.08-.13-.24-1.32-.77-1.39-.79-.78-.28m-12.74.24c0,.34.14.5.5.56s.46.07.15-.16a.82.82,0,0,1-.35-.47.4.4,0,0,0-.15-.31c-.08,0-.15.12-.15.38m24.8-.1c-.29.24-.37.39-.2.39a.83.83,0,0,0,.53-.4c.31-.5.27-.5-.33,0m-52.15.49c0,.45,0,.61.09.36a2.2,2.2,0,0,0,0-.81c0-.2-.09,0-.09.45m41.45.11c0,.17.34.31.68.33.5,0,.52,0,.08-.07a1.27,1.27,0,0,1-.67-.34c-.11-.15-.14-.13-.09.08m63,.1a.32.32,0,0,0,.33.3c.27,0,.28,0,.08-.3a1.12,1.12,0,0,0-.33-.31s-.08.14-.08.31m10.11-.14c0,.13-.17.24-.38.24-.64,0-1,.22-1,.58s0,.29.28,0a1,1,0,0,1,.69-.35c.43,0,.78-.34.56-.55-.06-.07-.12,0-.12.11m-99.56.29a20.91,20.91,0,0,0,5,0,20.91,20.91,0,0,0-5,0m16.15,0-2.83.12,2.77,0a10.22,10.22,0,0,0,2.89-.16c.07-.11.1-.18.06-.16s-1.33.09-2.89.16m34.66.06a12.05,12.05,0,0,0,2.56.1l2.41-.06-2.57-.1a8.07,8.07,0,0,0-2.4.06m-15.75.13c-.48.31-.15.37.4.08.28-.15.37-.27.2-.27a1.44,1.44,0,0,0-.6.19m5.62,0c.7,0,1.79,0,2.42,0s.07-.07-1.27-.07-1.85,0-1.15.07m24,0a22.64,22.64,0,0,0,2.33,0c.63,0,.11-.07-1.17-.07s-1.8,0-1.16.07m13.35,0c.75,0,2,0,2.73,0s.13-.07-1.37-.07-2.11,0-1.36.07m-47.24,1c-.1.24.08.3.88.3s1-.06.88-.3-.39-.3-.88-.3-.81.1-.88.3m63.09,0c-.1.25.09.3,1,.3s1.08,0,1-.3-.4-.3-1-.3-.9.1-1,.3m-123.28,1.18a5.37,5.37,0,0,0,.66.65l.66.6-.6-.66c-.55-.61-.72-.75-.72-.59m-6,.68a3,3,0,0,1-.14.74c-.09.23,0,.28.32.19s.35-.17.24-.24a1.19,1.19,0,0,1-.3-.63c-.08-.44-.09-.45-.12-.06M112,103.63c0,.2.07.36.16.36a.18.18,0,0,0,.16-.19c0-.11.25-.22.55-.26.51-.06.5-.08-.15-.17s-.72,0-.72.26m7.7-.11a1.46,1.46,0,0,1,.77.33c.12.16.14.14.09-.06s-.35-.32-.78-.34c-.63,0-.64,0-.08.07m-8.91.71c0,.2.07.36.16.36a.17.17,0,0,0,.15-.18c0-.11.16-.23.36-.27s.21-.1-.16-.18-.51,0-.51.27m10.22-.09a5.06,5.06,0,0,1,.93.59c.7.53,1.08.63.62.17a1,1,0,0,0-.5-.31.8.8,0,0,1-.44-.3A.82.82,0,0,0,121,104c-.28,0-.28,0,0,.14m28.76.67c-.16.25-.17.39,0,.39s.27-.14.33-.31c.18-.48,0-.53-.29-.08M108,106.87c-.2.21-.33.42-.28.47s.25-.1.45-.32c.48-.52.32-.66-.17-.15m16.61.34c.3.43.58.69.62.6s-.08-.32-.26-.5a1.17,1.17,0,0,1-.32-.48c0-.1-.13-.22-.29-.28s-.07.2.25.66m22.89.11a.82.82,0,0,1-.5.31.82.82,0,0,0-.51.3c-.17.21-.18.3,0,.3a.21.21,0,0,0,.22-.2c0-.11.16-.2.36-.2a.86.86,0,0,0,.61-.41c.29-.47.2-.53-.16-.1m-40.21.49a.5.5,0,0,0-.2.5c0,.24.13.2.3-.18a3.87,3.87,0,0,0,.21-.5,1.79,1.79,0,0,0-.31.18m-.81,1.69c0,.55,0,.58.12.15a1.17,1.17,0,0,1,.33-.66c.15-.09.1-.14-.12-.15s-.35.15-.33.66M116,109a1.7,1.7,0,0,0,.71,0c.19,0,0-.09-.36-.09s-.55,0-.35.09m22.33.26c.11.42.3.51.53.28s-.22-.68-.47-.68c-.09,0-.11.18-.06.4m5.47-.18c-.2.12-.31.3-.24.4.19.31.44.22.55-.22a1.89,1.89,0,0,0,.08-.39,3.56,3.56,0,0,0-.39.21M126,109.7a2.25,2.25,0,0,1,.29.86c.07.49.1.44.12-.25s0-.86-.3-.86-.27.07-.11.25m.44,2.27a.31.31,0,1,0,.61,0,.31.31,0,0,0-.61,0m-20.56,1.52c0,.61,0,.86.08.56a4.2,4.2,0,0,0,0-1.12c0-.3-.08-.05-.08.56m5.6-.61c0,.12.14.21.3.21s.31-.09.31-.21-.14-.2-.31-.2-.3.09-.3.2m0,1.09c0,.45.52.54.55.11,0-.22-.1-.39-.26-.39a.29.29,0,0,0-.29.28m15,.73c0,.12.14.21.31.21s.3-.09.3-.21-.14-.2-.3-.2-.31.09-.31.2m-14.21,1.12a8,8,0,0,0,1,1.11c.38.33.31.2-.21-.41-1.06-1.23-1.27-1.42-.78-.7m14,.36a1.58,1.58,0,0,1-.24.91c-.19.19-.17.24.1.24s.34-.18.34-.91a2.08,2.08,0,0,0-.1-.91s-.1.3-.1.67m-.61,1.74a.53.53,0,0,1-.25.49c-.15.06-.11.11.1.12s.36-.14.36-.49,0-.5-.11-.5-.1.17-.1.38m-18.58.55a.62.62,0,0,0,.31.57c.25.09.28.06.13-.14a2.8,2.8,0,0,1-.32-.56c-.07-.2-.11-.16-.12.13m17,1.8c-.27.27-.39.5-.29.49s1-1,.84-1a2.66,2.66,0,0,0-.55.51M122,122a5,5,0,0,1-.91.59c-.31.14-.33.18-.07.19a.82.82,0,0,0,.58-.29.82.82,0,0,1,.51-.3.46.46,0,0,0,.37-.31c.15-.38.13-.38-.48.12m-9.85,1c0,.18.34.32.67.34.51,0,.52,0,.08-.07a1.31,1.31,0,0,1-.67-.34c-.11-.15-.14-.13-.08.07m8.13,0a1.79,1.79,0,0,1-.7.27c-.44.08-.42.1.13.12s.68-.08.75-.27c.13-.35.09-.38-.18-.12m-6.57.72c0,.17.09.31.21.31s.2-.14.2-.31-.09-.3-.2-.3-.21.14-.21.3" transform="translate(-102.4 -44.54)"/><path id="path3" class="cls-4" d="M140.67,65.51a4.13,4.13,0,0,0,1.11,0c.31-.05.06-.08-.56-.08s-.86,0-.55.08m84,3.44a3.47,3.47,0,0,0,.91,0c.25,0,0-.09-.46-.09s-.7,0-.45.09m-88.18.8a.45.45,0,0,0,.16.74c.22.09.31,0,.31-.38s-.2-.64-.47-.36m89.71,1.18c0,.77,0,1.07.08.65a8.41,8.41,0,0,0,0-1.42c-.05-.36-.08,0-.08.77m3.21,13.54c0,10.2.07,14,.22,13.25.36-2,.41-25.75,0-26.76-.26-.75-.29.66-.27,13.51m-32.86-8c-.1.38-.07.38.48.1.72-.37.74-.5.11-.5a.55.55,0,0,0-.59.4m2.83-.22-.57.13.69.21c.62.19.68.18.6-.15s-.11-.36-.13-.34l-.59.15m60.43,0a.3.3,0,0,1-.14.4c-.15.1-.17.18-.05.18a1.2,1.2,0,0,0,.58-.4c.36-.4.36-.41-.08-.41-.27,0-.39.09-.31.23m3.06.09a.81.81,0,0,0,.41.38c.25.09.27.06.09-.16s-.18-.32-.13-.37,0-.1-.18-.1-.24.11-.19.25m-68.51.84c-.24.31-.24.33,0,.13a2.06,2.06,0,0,1,.7-.33c.39-.1.39-.1,0-.13a1,1,0,0,0-.71.33m-78.48.4a2.2,2.2,0,0,0,.81,0c.19,0,0-.09-.46-.09s-.6,0-.35.09m153.37.67c0,.39,0,.54.09.35a1.7,1.7,0,0,0,0-.71c-.05-.19-.09,0-.09.36m-43,1c0,.83,0,1.17.08.76a9.64,9.64,0,0,0,0-1.52c0-.42-.08-.08-.08.76m19.95,1.31a4.39,4.39,0,0,0-.79.91,6.79,6.79,0,0,0,1-.91,5.18,5.18,0,0,0,.8-.91,6.6,6.6,0,0,0-1,.91m-31,.78c.07.1,0,.25-.16.35s.35.14,1.7,0c.47-.05-.17-.39-.85-.45-.44,0-.75,0-.69.1m9.21-.12c-1,0-1.22.12-1,.32a2.55,2.55,0,0,0,2.29-.15c.17-.18.24-.31.15-.28s-.73.07-1.43.11m-26.48.4a3.77,3.77,0,0,0,1,0c.25,0,0-.08-.56-.08s-.76,0-.45.09m2,0a1.65,1.65,0,0,0,.7,0c.2-.05,0-.09-.35-.09s-.55,0-.35.09m61.27,0a1.65,1.65,0,0,0,.7,0c.2-.05,0-.09-.35-.09s-.55,0-.35.09m1.71,0a2.78,2.78,0,0,0,.91,0c.25,0,.05-.08-.45-.08s-.71,0-.46.08m-153.35,2.9c0,1.16,0,1.64.08,1.06a18.92,18.92,0,0,0,0-2.13c0-.58-.08-.1-.08,1.07m84.85-1.07-.7.76.76-.7a7.57,7.57,0,0,0,.75-.75c0-.16-.17,0-.81.69m-91.34,1.17c0,.55,0,.76.09.45a3.41,3.41,0,0,0,0-1c-.05-.25-.09,0-.09.56M268.82,86.6c0,.33.07.6.17.6s.12-.27.07-.6a1.32,1.32,0,0,0-.16-.61s-.08.27-.08.61m-129.5,2.15c-.1.25-.07.28.13.11a3.27,3.27,0,0,1,1.27-.29l1-.08-1.14,0c-.9,0-1.17,0-1.27.3m53.21.88a.86.86,0,0,0,.16.4,1,1,0,0,0,.16-.4c.06-.25,0-.4-.16-.4s-.23.15-.16.4m-54.86,6.12-.59.65.66-.59a4.66,4.66,0,0,0,.65-.66c0-.15-.16,0-.72.6m131.61,2.47c0,.56,0,.76.09.46a3.78,3.78,0,0,0,0-1c-.05-.25-.09,0-.09.55m-132.77.44a.45.45,0,0,0,.16.75c.22.08.31,0,.31-.38s-.2-.64-.47-.37m-13.69,6.6a5.08,5.08,0,0,0,.66.66l.66.59-.6-.65c-.55-.61-.72-.75-.72-.6m16.16,4a1.87,1.87,0,0,0,1,.1l.79-.07-.95-.1c-.53,0-.88,0-.79.07m3.56-.07-1,.14.95,0c.52,0,1-.06,1.07-.18s.1-.18.06-.17a10.57,10.57,0,0,1-1.07.17m-30.9,3c-.06.25,0,.4.16.4s.23-.15.16-.4a1.09,1.09,0,0,0-.16-.41,1.09,1.09,0,0,0-.16.41" transform="translate(-102.4 -44.54)"/><path id="path4" class="cls-5" d="M114.63,46a10.92,10.92,0,0,0-3.22,1.1,12.72,12.72,0,0,0-4.18,4.37,10,10,0,0,0,2.33,11.85,10.28,10.28,0,0,0,3.81,2.27l1,.41v2.69c0,3,0,3.11-.91,3.3a13.68,13.68,0,0,0-6.42,3.6,15.61,15.61,0,0,0-2.58,3.85.54.54,0,0,1-.18.42,2.25,2.25,0,0,0-.31,1,2.18,2.18,0,0,1-.33,1c-.63.39-.1,5.77.78,7.88,1.13,2.72,5.2,6.78,6.79,6.78a1.4,1.4,0,0,1,.64.29,1.76,1.76,0,0,0,.86.31,2.89,2.89,0,0,1,1.07.31l.6.31-.06,2.87,0,2.87-.61.19c-2.32.71-5.76,3.28-5.76,4.31,0,.14-.07.26-.16.26s-.53.8-1.08,2.43c-1.76,5.24,2,11.37,7.66,12.56.76.16,1.26.37,1.26.52s.25.27.61.27.61-.11.61-.26.53-.36,1.42-.53a9,9,0,0,0,2-.55,2.63,2.63,0,0,1,.8-.28.23.23,0,0,0,.25-.2c0-.11.14-.21.32-.21.55,0,3.19-2.85,3.79-4.11,2.19-4.51.24-11.22-3.8-13.11-.22-.1-.72-.36-1.11-.57a3.5,3.5,0,0,0-1.13-.4c-.93,0-1.1-.55-1.1-3.36V97.81l.59-.35a2.54,2.54,0,0,1,1-.35c1.09,0,5-2.33,6-3.57.58-.75,1.3-.59,3.66.79l2.16,1.27-.12.8c-.56,3.58-.14,5.9,1.53,8.3a10,10,0,0,0,17.31-1.34,9,9,0,0,0,1-3.59,10.14,10.14,0,0,0-3-7.9,10.26,10.26,0,0,0-14-.15c-.55.55-1.41.63-1.73.15a7.84,7.84,0,0,0-1.32-.82c-2.81-1.54-3-1.74-2.4-2.87.48-.93.47-5.69,0-7.11-.37-1.07-.18-1.53.81-2a9.15,9.15,0,0,0,.81-.43c3-1.81,3.13-1.84,4.16-.86,5.31,5,15,1.95,16.43-5.25,2-9.92-9.5-16.46-16.75-9.5-2.48,2.38-3.83,6.74-2.9,9.33.34.92,0,1.48-1.31,2.17-.58.31-1.5.82-2.06,1.14-1.35.79-1.49.77-2.73-.42a11.76,11.76,0,0,0-5.36-3.11c-1.78-.54-1.72-.42-1.72-3.43V66.06l.59-.35a2.4,2.4,0,0,1,.87-.34c1.56,0,4.63-2.88,5.92-5.57,1-2,.79-7.61-.29-8.59A6.26,6.26,0,0,1,124.5,50c-.42-.91-3.6-3.44-4.32-3.44a2.45,2.45,0,0,1-.75-.28,13.2,13.2,0,0,0-4.8-.33m3.79,5.3a5.08,5.08,0,0,1-2.24,9.66,5.21,5.21,0,0,1-4.76-3.78c-.37-1.06-.32-2.54.1-2.8a.6.6,0,0,0,.18-.46c0-2,4.45-3.79,6.72-2.62m25.06,14.46a5.07,5.07,0,0,1-1,9.42c-3.29,1-7.41-2.89-6.18-5.84a4,4,0,0,0,.31-1c0-2.09,4.49-3.75,6.91-2.55m81.36,3.39c-.11,0-.89.18-1.72.32-3.55.61-5.2,2.47-5.4,6.06-.1,1.72-.31,2-1.5,2-1.34,0-1.39.07-1.39,1.81v1.58l1.23.09c1.68.12,1.59-.41,1.6,9.51v8.85h4.85V90.49c0-10.12-.14-9.42,1.91-9.52l1.54-.08-.06-1.65-.06-1.64-1.41-.06c-1.77-.08-1.93-.21-1.93-1.63a2.85,2.85,0,0,1,2.54-3.1l.8-.06.06-1.71c.06-1.89-.13-2.24-1.07-1.94m-57.69.75c-.19.19-.24,3.77-.24,14.87V99.34h4.85V94.17c0-4.27.05-5.18.29-5.27s1.12.25,1.12.54a14.81,14.81,0,0,0,1.37,2.06c.75,1,1.52,2.11,1.71,2.4a6.28,6.28,0,0,0,.61.81,5.5,5.5,0,0,1,.67.89c.21.33.91,1.31,1.56,2.17l1.18,1.57h5.25l-.84-1.24a15.9,15.9,0,0,0-1.22-1.62,1.35,1.35,0,0,1-.38-.54,1.44,1.44,0,0,0-.36-.56,49.89,49.89,0,0,1-3.48-4.71.28.28,0,0,0-.19-.26,12.61,12.61,0,0,1-2.24-3.26c0-.38.56-1,4.2-4.8,4.83-5,4.74-4.73,1.49-4.81L180,77.48l-1.33,1.38c-.74.76-1.6,1.7-1.93,2.08-.83,1-3.38,3.83-3.85,4.28-1,1-1,.86-1.07-7.51,0-5.91-.12-7.81-.31-7.93a11.73,11.73,0,0,0-4.35.07m63.18,1c-.17,1.62-.17,24,0,26.51l.13,2h2.17c2.66,0,2.42.55,2.42-5.46,0-4.2,0-4.83.32-4.94.55-.21.62-.15,1.7,1.5a7.93,7.93,0,0,0,1.24,1.62.19.19,0,0,1,.18.2,21.94,21.94,0,0,0,2,3c.12.13.63.86,1.14,1.61a14.45,14.45,0,0,0,1.07,1.46,2.51,2.51,0,0,1,.39.56c.26.51,5.48.74,5.48.24a24,24,0,0,0-2.67-3.59.31.31,0,0,1-.16-.26,50.52,50.52,0,0,0-3.23-4.43,9.77,9.77,0,0,1-.62-.85,2.34,2.34,0,0,0-.65-.76c-.09,0-.15-.09-.15-.21a2.12,2.12,0,0,0-.46-.72c-.87-1-.84-1.22.34-2.47.6-.63,1.38-1.47,1.74-1.86,1.49-1.64,5.18-5.56,5.51-5.87.49-.46-.19-.6-2.95-.6h-2l-.82.87c-.46.48-1.51,1.62-2.35,2.55s-1.63,1.78-1.77,1.91-.72.8-1.29,1.5c-1.91,2.36-1.88,2.48-1.94-6.51s.18-8.21-2.57-8.21h-2.07l-.13,1.24m-34.21,6.23c-9.64,1.52-12,16.21-3.48,21.42a6.77,6.77,0,0,0,1.72.84,2.36,2.36,0,0,1,.85.3c.73.42,5.61.41,6.16,0a1.57,1.57,0,0,1,.77-.29,4,4,0,0,0,1.74-.91c.15-.11.62-.57,1-1,1-1,1.37-.8,1.46.76l.06,1,2.27.06,2.28.06V77.48l-2.28.06-2.27.06-.1,1.21c-.12,1.44-.65,1.75-1.39.81a7.66,7.66,0,0,0-2.5-1.92,1.52,1.52,0,0,1-.68-.29c-.5-.35-4.17-.56-5.65-.33m63.3,0c-8,1.2-11.54,12-6.24,19,1.16,1.54,3.51,3.23,4.51,3.23a1.55,1.55,0,0,1,.73.29c.56.43,5.7.44,6.27,0a1.54,1.54,0,0,1,.75-.31c.5,0,1.3-.54,2.35-1.57,1.27-1.24,1.72-1.14,1.8.4l.06,1.17h4.62l.06-10.67c0-6.09,0-10.78-.13-10.93s-.76-.24-2.33-.2l-2.14.06-.06,1.11a3.51,3.51,0,0,1-.24,1.29c-.23.23-1.22,0-1.22-.31,0-1.61-5.19-3.16-8.79-2.62m-140.64.79c1.66.58,3.91,2.68,4.17,3.88a5.28,5.28,0,0,0,.33,1,8.08,8.08,0,0,1-.11,4.15c-2.73,7.67-13.9,5.94-14-2.16a7,7,0,0,1,9.57-6.84m83.7,4.2a7.26,7.26,0,0,1,2.82,2.64c.15.32.4.82.56,1.12a11.82,11.82,0,0,1,0,5.16c-.16.31-.4.83-.54,1.13-2.15,4.67-10.12,4.6-12.28-.11-1.29-2.83-1.31-3.86-.08-6.88,1.32-3.24,6.27-4.83,9.53-3.06M265.55,82a7.07,7.07,0,0,1,3.7,8.39A7,7,0,0,1,267,94a7.28,7.28,0,0,1-7.52,1,7,7,0,0,1-4-6.6,6.7,6.7,0,0,1,2.23-5.3A7.66,7.66,0,0,1,265.55,82M142.41,94.09a5.06,5.06,0,0,1,1.8,8.94,5.38,5.38,0,0,1-5.61.29c-4.89-3-1.77-10.52,3.81-9.23m-24.79,14.44a5,5,0,0,1-.05,9.73,4.71,4.71,0,0,1-3.66-.46,1.2,1.2,0,0,0-.51-.27c-.55,0-1.91-2.23-2.2-3.59s1-4.21,2.2-4.71c.23-.1.56-.27.73-.37a4.09,4.09,0,0,1,3.49-.33" transform="translate(-102.4 -44.54)"/></g></svg>