<svg id="svg" version="1.1" xmlns="http://www.w3.org/2000/svg" xmlns:xlink="http://www.w3.org/1999/xlink" width="400" height="107.99640610961366" viewBox="0, 0, 400,107.99640610961366"><g id="svgg"><path id="path0" d="M25.111 1.788 C 25.059 1.872,24.943 2.397,24.854 2.953 C 24.584 4.627,24.098 5.520,22.777 6.769 C 18.787 10.539,15.667 13.718,15.667 14.013 C 15.667 14.082,15.606 14.164,15.532 14.194 C 15.274 14.300,12.993 17.311,12.311 18.445 C 11.935 19.071,11.492 19.733,11.327 19.917 C 11.031 20.245,10.091 21.862,9.535 23.000 C 9.378 23.321,9.193 23.626,9.122 23.678 C 8.951 23.805,7.220 27.644,7.077 28.215 C 7.015 28.463,6.907 28.667,6.838 28.667 C 6.659 28.667,4.604 34.680,4.588 35.250 C 4.585 35.342,4.537 35.454,4.479 35.500 C 4.134 35.778,2.953 42.110,2.656 45.282 C 2.554 46.364,2.417 47.362,2.350 47.500 C 1.981 48.261,1.985 56.881,2.355 57.667 C 2.419 57.804,2.559 58.667,2.666 59.583 C 2.945 61.990,4.141 67.269,4.518 67.759 C 4.592 67.855,4.960 68.793,5.335 69.842 C 6.605 73.394,9.069 77.880,12.104 82.167 C 14.519 85.577,20.707 91.906,23.015 93.327 L 23.789 93.803 24.314 92.014 C 24.932 89.912,25.420 86.781,25.699 83.130 C 25.809 81.689,25.924 80.535,25.953 80.564 C 25.983 80.594,26.123 81.810,26.264 83.267 C 26.746 88.247,27.626 91.065,29.067 92.246 C 29.462 92.569,29.837 92.833,29.902 92.833 C 30.088 92.833,31.569 91.667,31.717 91.404 C 31.790 91.273,31.952 91.167,32.077 91.167 C 32.503 91.167,37.496 86.055,38.700 84.386 C 38.911 84.094,39.328 83.532,39.626 83.136 C 40.662 81.764,42.061 79.577,42.750 78.250 C 43.131 77.517,43.625 76.617,43.847 76.250 C 44.278 75.537,44.752 74.456,45.456 72.583 C 45.697 71.942,45.950 71.378,46.018 71.331 C 46.331 71.116,48.167 64.443,48.167 63.523 C 48.167 63.342,48.235 63.169,48.319 63.139 C 48.699 63.000,49.329 56.679,49.332 52.983 C 49.334 49.339,48.720 42.765,48.352 42.500 C 48.288 42.454,48.101 41.817,47.937 41.083 C 47.409 38.734,46.180 34.464,45.995 34.333 C 45.930 34.287,45.686 33.688,45.453 33.000 C 44.731 30.872,44.230 29.647,43.373 27.917 C 42.919 27.000,42.308 25.744,42.015 25.125 C 41.723 24.506,41.421 24.000,41.345 24.000 C 41.269 24.000,41.109 23.756,40.990 23.458 C 40.871 23.160,40.524 22.521,40.220 22.038 C 39.916 21.555,39.667 21.087,39.667 20.997 C 39.667 20.907,39.592 20.833,39.500 20.833 C 39.408 20.833,39.333 20.725,39.333 20.592 C 39.333 20.459,39.239 20.290,39.124 20.217 C 38.851 20.043,38.000 18.899,38.000 18.706 C 38.000 18.624,37.604 18.113,37.120 17.570 C 36.636 17.027,36.108 16.375,35.946 16.120 C 35.639 15.635,34.913 14.843,31.966 11.774 C 29.615 9.326,29.199 8.833,28.463 7.612 C 28.122 7.046,27.758 6.484,27.653 6.362 C 27.548 6.240,27.048 5.227,26.541 4.112 C 25.601 2.040,25.279 1.517,25.111 1.788 " stroke="none" fill="#14a050" fill-rule="evenodd"></path><path id="path1" d="M25.833 82.966 C 25.833 85.039,24.892 90.798,24.216 92.864 L 23.797 94.144 24.228 97.947 C 24.715 102.245,24.979 104.792,25.032 105.708 L 25.068 106.333 26.243 106.333 C 27.611 106.333,27.719 106.208,27.908 104.417 C 28.275 100.930,29.601 93.293,29.856 93.194 C 30.069 93.112,30.031 92.833,29.807 92.833 C 28.305 92.833,26.643 88.835,26.179 84.106 C 26.009 82.379,25.833 81.798,25.833 82.966 " stroke="none" fill="#bbc3c3" fill-rule="evenodd"></path><path id="path2" d="M287.295 36.359 C 286.910 36.658,286.000 38.568,286.000 39.076 C 286.000 39.454,286.075 39.487,287.167 39.595 C 287.808 39.658,288.333 39.765,288.333 39.832 C 288.333 39.899,288.737 40.001,289.229 40.059 C 291.880 40.371,292.965 41.091,293.318 42.773 C 293.602 44.127,293.494 77.295,293.202 78.167 C 292.753 79.512,291.546 80.249,289.481 80.441 C 288.152 80.565,287.799 80.890,287.579 82.194 C 287.519 82.546,287.402 82.833,287.319 82.833 C 287.191 82.833,287.084 83.814,287.208 83.843 C 287.770 83.971,307.973 84.101,309.872 83.989 C 314.474 83.718,318.184 82.989,320.465 81.909 C 321.133 81.592,321.761 81.333,321.861 81.333 C 322.172 81.333,324.538 79.967,325.526 79.216 C 326.044 78.822,326.544 78.500,326.636 78.500 C 326.728 78.500,327.138 78.174,327.548 77.775 C 327.958 77.377,328.527 76.885,328.811 76.682 C 329.096 76.480,329.658 75.887,330.059 75.364 C 330.461 74.842,331.006 74.184,331.270 73.901 C 331.534 73.618,331.862 73.169,332.000 72.903 C 332.137 72.637,332.606 71.768,333.042 70.971 C 334.357 68.563,335.230 65.383,335.445 62.208 C 335.503 61.360,335.614 60.667,335.692 60.667 C 335.770 60.667,335.833 59.954,335.833 59.083 C 335.833 58.139,335.766 57.500,335.667 57.500 C 335.575 57.500,335.499 57.106,335.497 56.625 C 335.489 54.332,333.917 48.167,333.339 48.167 C 333.267 48.167,333.053 47.806,332.863 47.365 C 331.891 45.105,328.284 41.133,326.375 40.221 C 326.077 40.079,325.833 39.891,325.833 39.805 C 325.833 39.616,323.125 38.341,321.833 37.921 C 321.329 37.757,320.842 37.564,320.750 37.493 C 319.350 36.403,315.215 36.185,298.122 36.297 C 294.202 36.322,290.227 36.296,289.289 36.239 C 287.985 36.159,287.515 36.187,287.295 36.359 M340.233 36.732 C 339.210 37.926,339.024 39.667,339.919 39.667 C 340.241 39.667,340.635 39.735,340.794 39.820 C 340.953 39.904,341.796 40.081,342.667 40.213 C 345.529 40.649,345.938 40.997,346.161 43.194 C 346.343 44.991,346.195 75.315,345.995 77.136 C 345.718 79.654,344.994 80.221,341.583 80.587 C 341.033 80.646,340.460 80.728,340.310 80.769 C 339.944 80.870,339.317 82.364,339.280 83.225 L 339.250 83.917 346.833 84.059 C 351.004 84.137,354.442 84.269,354.472 84.351 C 354.543 84.541,359.667 84.549,359.667 84.359 C 359.667 84.281,360.510 84.171,361.542 84.114 C 369.272 83.688,376.319 80.020,378.577 75.250 C 378.924 74.517,379.267 73.879,379.339 73.833 C 380.306 73.214,380.312 64.942,379.345 64.340 C 379.266 64.290,378.994 63.812,378.740 63.276 C 378.139 62.004,376.223 60.086,374.808 59.339 C 374.226 59.031,373.570 58.641,373.350 58.471 C 373.130 58.302,372.199 57.925,371.280 57.634 L 369.610 57.104 370.342 56.793 C 370.745 56.622,371.114 56.421,371.162 56.346 C 371.211 56.272,371.666 55.946,372.173 55.623 C 372.681 55.299,373.377 54.708,373.719 54.309 C 374.062 53.910,374.563 53.330,374.834 53.021 C 377.146 50.375,376.977 43.656,374.533 41.022 C 374.139 40.598,373.697 40.078,373.552 39.869 C 373.228 39.403,371.261 38.234,370.197 37.876 C 369.768 37.732,369.379 37.561,369.333 37.498 C 369.192 37.301,368.156 37.021,366.500 36.731 C 363.907 36.277,340.622 36.278,340.233 36.732 M308.750 40.169 C 312.986 40.516,315.638 41.279,318.321 42.922 C 319.871 43.871,323.001 46.512,323.000 46.870 C 323.000 47.051,324.047 48.500,324.178 48.500 C 324.605 48.500,326.667 54.123,327.020 56.250 C 327.470 58.960,327.126 66.414,326.513 67.250 C 326.446 67.342,326.179 68.092,325.922 68.917 C 325.523 70.193,324.465 72.561,324.173 72.833 C 324.124 72.879,323.649 73.491,323.119 74.193 C 322.589 74.895,321.914 75.657,321.619 75.885 C 321.324 76.114,320.767 76.608,320.381 76.984 C 319.995 77.359,319.645 77.667,319.602 77.667 C 319.559 77.667,319.087 77.921,318.554 78.233 C 318.020 78.544,317.058 78.967,316.417 79.174 C 315.775 79.380,315.212 79.602,315.167 79.667 C 314.734 80.279,306.871 80.286,306.083 79.675 C 305.992 79.604,305.702 79.495,305.440 79.432 C 303.655 79.005,302.479 78.110,301.982 76.801 L 301.583 75.750 301.583 58.462 L 301.583 41.174 302.024 40.734 C 302.713 40.045,304.943 39.857,308.750 40.169 M362.083 40.826 C 365.136 41.641,366.784 43.002,368.081 45.780 C 368.827 47.380,368.692 51.540,367.857 52.670 C 367.685 52.903,367.387 53.401,367.195 53.778 C 366.501 55.138,364.441 56.195,361.833 56.528 C 359.739 56.796,354.543 56.591,354.138 56.224 C 353.786 55.906,353.655 44.963,354.000 44.750 C 354.093 44.693,354.167 43.918,354.167 42.998 C 354.167 41.298,354.349 40.576,354.815 40.433 C 355.575 40.199,360.791 40.480,362.083 40.826 M75.000 52.570 C 74.404 52.778,73.242 53.124,72.417 53.339 C 71.592 53.554,70.879 53.777,70.833 53.836 C 70.731 53.965,68.598 54.424,66.607 54.743 C 63.764 55.200,63.569 56.660,66.250 57.427 C 68.153 57.971,69.537 58.784,69.975 59.614 C 70.197 60.035,70.233 75.502,70.018 77.752 C 69.794 80.083,69.524 80.344,66.750 80.913 L 65.083 81.254 65.083 82.585 L 65.083 83.917 73.083 83.928 C 78.570 83.935,81.122 83.883,81.206 83.761 C 81.273 83.663,81.329 83.044,81.331 82.385 L 81.333 81.187 80.542 81.077 C 76.291 80.486,76.513 81.142,76.505 69.203 C 76.499 59.858,76.460 60.161,77.782 59.342 C 78.223 59.068,78.680 58.762,78.797 58.661 C 79.509 58.048,82.535 57.164,83.902 57.171 C 86.133 57.181,87.710 57.952,88.785 59.558 C 89.224 60.214,89.623 60.788,89.671 60.833 C 90.374 61.500,90.731 66.167,90.588 72.833 C 90.425 80.417,90.491 80.252,87.376 80.886 L 85.583 81.250 85.583 82.583 L 85.583 83.917 93.545 83.960 L 101.507 84.003 101.670 83.574 C 101.760 83.338,101.833 82.716,101.833 82.192 L 101.833 81.238 100.292 80.936 C 96.769 80.245,97.003 80.973,96.986 70.683 C 96.978 66.137,96.914 61.967,96.842 61.417 C 96.677 60.141,96.744 60.027,98.203 59.119 C 101.051 57.346,104.199 56.932,106.641 58.009 C 108.287 58.735,110.167 61.317,110.167 62.852 C 110.167 63.010,110.260 63.170,110.375 63.208 C 110.807 63.352,110.661 78.420,110.219 79.351 C 109.783 80.269,107.816 81.167,106.239 81.167 C 106.199 81.167,106.167 81.785,106.167 82.542 L 106.167 83.917 114.123 83.917 L 122.080 83.917 122.187 83.417 C 122.246 83.142,122.303 82.530,122.314 82.057 L 122.333 81.197 121.125 80.995 C 118.818 80.609,117.877 80.229,117.414 79.496 L 117.000 78.840 117.000 70.712 C 116.999 59.365,116.756 58.150,113.850 54.982 C 113.354 54.442,112.856 54.000,112.742 54.000 C 112.629 54.000,112.496 53.896,112.447 53.768 C 111.728 51.896,102.861 51.933,101.333 53.814 C 101.287 53.870,100.507 54.292,99.598 54.750 C 98.690 55.208,97.744 55.785,97.496 56.032 C 97.248 56.278,96.757 56.642,96.404 56.840 L 95.762 57.201 95.382 56.725 C 95.173 56.464,95.001 56.181,95.001 56.098 C 94.995 55.033,91.349 52.741,89.070 52.368 C 87.024 52.034,82.411 52.950,81.845 53.804 C 81.793 53.883,81.150 54.259,80.417 54.640 C 79.683 55.022,78.570 55.720,77.942 56.192 C 76.533 57.252,76.478 57.195,76.614 54.816 C 76.775 51.998,76.747 51.960,75.000 52.570 M143.068 52.327 C 141.033 52.558,137.654 53.443,137.333 53.829 C 137.287 53.885,136.762 54.144,136.167 54.406 C 133.272 55.679,130.350 58.637,129.217 61.440 C 128.963 62.069,128.708 62.621,128.650 62.667 C 127.666 63.447,127.693 74.117,128.679 74.472 C 128.764 74.503,128.833 74.636,128.833 74.768 C 128.833 75.426,130.308 78.458,131.013 79.250 C 131.523 79.823,133.273 81.561,133.847 82.065 C 134.508 82.646,136.492 83.572,137.895 83.955 C 138.457 84.108,138.955 84.287,139.001 84.352 C 139.436 84.965,145.925 84.961,147.250 84.347 C 147.433 84.262,148.122 84.036,148.779 83.845 C 150.279 83.410,152.695 82.390,152.918 82.099 C 153.010 81.979,153.467 81.645,153.933 81.359 C 154.957 80.729,157.667 77.865,157.667 77.413 C 157.667 77.354,157.924 76.867,158.238 76.331 C 160.386 72.666,160.797 66.107,159.172 61.425 C 158.983 60.880,158.766 60.392,158.690 60.342 C 158.614 60.291,158.259 59.692,157.901 59.011 C 157.281 57.831,154.588 54.833,154.147 54.833 C 154.058 54.833,153.559 54.561,153.039 54.229 C 150.655 52.704,146.589 51.929,143.068 52.327 M176.470 52.340 C 176.317 52.430,175.229 52.770,174.054 53.095 C 172.878 53.421,171.793 53.754,171.642 53.834 C 171.411 53.958,168.694 54.520,166.479 54.903 C 165.684 55.040,164.999 55.681,165.003 56.284 C 165.007 57.099,165.403 57.375,167.465 58.001 C 168.133 58.204,168.775 58.465,168.892 58.582 C 169.009 58.699,169.416 58.954,169.797 59.148 C 170.910 59.716,170.867 59.270,170.790 69.472 C 170.704 81.017,170.889 80.358,167.580 80.861 C 166.849 80.973,166.195 81.143,166.128 81.240 C 165.980 81.453,165.959 83.865,166.101 84.236 C 166.220 84.547,170.728 84.638,170.917 84.333 C 170.980 84.231,172.363 84.167,174.510 84.167 C 176.726 84.167,178.000 84.228,178.000 84.333 C 178.000 84.436,178.855 84.500,180.230 84.500 L 182.460 84.500 182.647 83.760 C 182.850 82.954,182.893 81.683,182.732 81.264 C 182.661 81.077,182.405 80.998,181.857 80.994 C 180.041 80.980,178.441 80.426,178.120 79.698 C 177.901 79.202,177.721 62.524,177.920 61.178 C 178.046 60.331,178.592 59.727,179.761 59.143 C 180.167 58.940,180.500 58.716,180.500 58.644 C 180.500 58.573,181.044 58.343,181.708 58.133 C 186.280 56.691,190.602 58.891,191.342 63.037 C 191.603 64.495,191.743 77.211,191.515 78.667 C 191.255 80.321,190.721 80.697,188.272 80.947 C 187.037 81.073,187.005 81.113,187.005 82.583 C 187.004 84.629,186.829 84.500,189.603 84.500 C 191.090 84.500,192.000 84.437,192.000 84.333 C 192.000 84.228,193.250 84.167,195.417 84.167 C 197.583 84.167,198.833 84.228,198.833 84.333 C 198.833 84.436,199.692 84.500,201.077 84.500 L 203.320 84.500 203.501 83.828 C 203.601 83.459,203.660 82.690,203.633 82.120 L 203.583 81.084 202.632 80.965 C 201.527 80.828,199.496 80.239,199.081 79.935 C 198.629 79.605,198.519 77.744,198.506 70.167 C 198.493 63.007,198.313 60.413,197.751 59.285 C 197.613 59.008,197.500 58.712,197.500 58.626 C 197.500 58.210,196.087 55.693,195.617 55.272 C 195.323 55.009,194.740 54.468,194.320 54.070 C 191.908 51.782,187.015 51.543,182.792 53.507 C 182.540 53.624,182.333 53.775,182.333 53.841 C 182.333 53.908,182.052 54.095,181.708 54.257 C 180.907 54.634,178.810 56.043,178.509 56.406 C 177.735 57.339,177.642 57.158,177.764 54.958 C 177.910 52.333,177.591 51.686,176.470 52.340 M221.083 52.408 C 218.847 52.783,216.333 53.549,216.333 53.856 C 216.333 53.935,216.210 54.000,216.059 54.000 C 214.051 54.000,209.885 58.308,209.380 60.905 C 209.326 61.186,209.199 61.470,209.099 61.536 C 208.846 61.701,208.848 67.134,209.101 67.298 C 209.202 67.363,209.340 67.716,209.408 68.081 C 209.861 70.545,211.918 72.967,214.584 74.176 C 215.454 74.570,216.167 74.952,216.167 75.024 C 216.167 75.178,214.500 76.326,213.667 76.745 C 213.346 76.907,212.933 77.173,212.750 77.337 C 212.567 77.502,212.096 77.801,211.705 78.003 C 209.655 79.061,210.854 82.373,213.790 83.762 C 215.446 84.545,215.463 84.820,213.901 85.575 C 213.617 85.712,213.092 86.097,212.734 86.430 C 212.376 86.762,211.790 87.223,211.432 87.453 C 207.765 89.806,206.570 94.022,208.633 97.322 C 209.184 98.204,211.145 100.333,211.405 100.333 C 211.508 100.333,211.832 100.552,212.124 100.819 C 214.283 102.791,221.212 103.521,226.364 102.320 C 227.881 101.966,230.331 101.094,230.499 100.847 C 230.545 100.779,230.996 100.507,231.500 100.243 C 232.584 99.674,233.753 98.911,234.333 98.394 C 236.120 96.802,236.500 96.436,236.500 96.305 C 236.500 96.223,236.748 95.907,237.052 95.604 C 238.151 94.505,239.419 91.580,239.669 89.565 C 240.421 83.513,237.056 80.454,229.042 79.903 C 228.102 79.839,227.333 79.735,227.333 79.672 C 227.333 79.610,225.911 79.467,224.172 79.355 C 220.641 79.128,219.619 78.900,218.936 78.186 C 217.586 76.778,218.966 75.167,221.521 75.167 C 221.968 75.167,222.333 75.092,222.333 75.000 C 222.333 74.908,222.525 74.833,222.759 74.833 C 224.289 74.833,228.049 73.493,229.073 72.582 C 229.433 72.262,229.812 72.000,229.917 72.000 C 230.228 72.000,232.294 69.898,232.946 68.917 C 233.460 68.142,234.134 66.146,234.262 65.015 C 234.325 64.453,234.442 63.952,234.522 63.903 C 234.710 63.787,234.711 61.000,234.523 61.000 C 234.444 61.000,234.335 60.606,234.279 60.125 C 234.224 59.644,234.130 59.081,234.070 58.875 C 233.957 58.486,234.405 58.299,234.533 58.682 C 234.570 58.792,235.147 58.869,236.005 58.878 C 239.015 58.908,240.657 56.947,240.263 53.792 C 240.109 52.567,239.633 52.603,238.208 53.946 C 237.393 54.715,231.409 54.621,230.833 53.831 C 230.709 53.659,228.246 52.892,226.917 52.610 C 225.159 52.237,222.628 52.149,221.083 52.408 M261.000 52.267 C 257.177 52.713,252.723 54.359,251.036 55.950 C 250.716 56.253,250.396 56.500,250.325 56.500 C 249.752 56.500,247.224 59.929,246.569 61.594 C 246.319 62.230,246.059 62.825,245.992 62.917 C 245.056 64.191,245.051 72.927,245.985 74.068 C 246.067 74.168,246.217 74.559,246.317 74.936 C 246.569 75.876,247.762 78.428,248.122 78.795 C 248.284 78.959,248.724 79.505,249.100 80.007 C 249.476 80.510,250.133 81.141,250.559 81.410 C 250.985 81.679,251.333 81.959,251.333 82.031 C 251.333 82.378,253.949 83.620,255.500 84.011 C 255.912 84.114,256.325 84.259,256.417 84.332 C 257.204 84.960,263.896 84.972,264.750 84.347 C 264.842 84.280,265.404 84.088,266.000 83.921 C 268.043 83.348,269.914 82.505,270.695 81.808 C 270.987 81.547,271.297 81.333,271.383 81.333 C 271.886 81.333,274.525 78.460,275.230 77.145 C 275.493 76.653,275.770 76.211,275.845 76.163 C 276.104 75.997,276.988 73.339,277.270 71.882 C 278.033 67.933,277.262 61.428,275.832 59.750 C 275.675 59.567,275.338 59.024,275.082 58.545 C 274.436 57.334,272.275 55.211,270.982 54.517 C 270.402 54.206,269.832 53.856,269.716 53.740 C 268.885 52.909,263.420 51.985,261.000 52.267 M222.943 55.720 C 224.679 56.171,226.463 57.722,227.078 59.316 C 227.259 59.784,227.459 60.167,227.523 60.167 C 227.780 60.167,228.167 62.576,228.167 64.176 C 228.167 65.841,227.762 68.167,227.473 68.167 C 227.396 68.167,227.333 68.261,227.333 68.377 C 227.333 68.492,227.002 69.080,226.598 69.683 C 224.376 72.996,218.521 72.025,216.715 68.045 C 216.475 67.516,216.218 67.043,216.145 66.994 C 215.109 66.298,215.214 59.429,216.276 58.367 C 216.399 58.244,216.500 58.090,216.500 58.025 C 216.500 57.494,218.454 56.003,219.667 55.608 C 220.179 55.441,222.123 55.507,222.943 55.720 M144.068 55.913 C 144.792 56.042,145.430 56.208,145.484 56.282 C 145.539 56.356,146.160 56.703,146.866 57.053 C 148.544 57.886,150.019 59.418,150.924 61.266 C 151.278 61.991,151.629 62.626,151.704 62.679 C 153.297 63.795,153.281 76.213,151.686 77.500 C 151.629 77.546,151.379 77.883,151.130 78.250 C 149.566 80.557,146.942 81.535,143.911 80.939 C 141.713 80.507,140.969 80.082,138.975 78.114 C 137.507 76.665,136.848 75.539,136.033 73.083 C 135.881 72.625,135.705 72.212,135.641 72.165 C 134.712 71.479,134.737 61.550,135.669 60.833 C 135.729 60.788,136.022 60.262,136.320 59.667 C 136.962 58.385,137.417 57.874,138.660 57.038 C 139.168 56.696,139.622 56.366,139.669 56.304 C 139.799 56.133,141.583 55.737,142.417 55.695 C 142.600 55.686,143.343 55.784,144.068 55.913 M262.125 56.019 C 262.606 56.113,263.000 56.246,263.000 56.314 C 263.000 56.383,263.422 56.614,263.938 56.827 C 265.704 57.559,267.720 59.645,268.577 61.625 C 268.746 62.015,268.933 62.333,268.993 62.333 C 269.140 62.333,269.777 64.480,270.112 66.105 C 270.866 69.757,270.196 76.332,268.923 77.780 C 268.828 77.889,268.375 78.430,267.917 78.982 C 266.227 81.020,263.397 81.636,260.206 80.662 C 259.073 80.316,258.646 80.119,258.305 79.787 C 258.183 79.668,257.740 79.327,257.320 79.028 C 256.900 78.729,256.263 78.094,255.904 77.617 C 255.545 77.140,255.145 76.639,255.015 76.502 C 254.650 76.120,253.731 74.005,253.338 72.643 C 253.143 71.969,252.916 71.267,252.834 71.083 C 252.189 69.658,252.184 62.708,252.826 61.922 C 252.904 61.828,253.048 61.450,253.147 61.083 C 253.542 59.623,254.674 57.994,255.833 57.223 C 256.429 56.826,257.013 56.421,257.130 56.322 C 257.812 55.752,260.064 55.615,262.125 56.019 M362.411 60.585 C 363.233 60.729,363.946 60.904,363.995 60.974 C 364.043 61.043,364.544 61.236,365.106 61.404 C 369.643 62.753,372.285 66.987,371.683 71.940 C 371.491 73.520,371.020 75.131,370.540 75.852 C 369.340 77.655,368.598 78.329,366.986 79.083 C 366.398 79.358,365.879 79.633,365.833 79.693 C 365.440 80.208,361.391 80.477,358.829 80.157 C 355.824 79.783,354.167 78.120,354.167 75.480 C 354.167 75.135,354.092 74.807,354.000 74.750 C 353.893 74.684,353.833 72.111,353.833 67.578 L 353.833 60.510 354.375 60.340 C 355.145 60.100,360.600 60.266,362.411 60.585 M389.641 72.095 C 388.365 72.488,386.333 74.232,386.333 74.935 C 386.333 75.047,386.256 75.165,386.161 75.196 C 385.372 75.459,385.299 80.109,386.072 80.881 C 386.187 80.996,386.478 81.402,386.718 81.782 C 388.498 84.602,394.704 84.792,396.365 82.078 C 396.967 81.094,397.497 79.909,397.498 79.542 C 397.499 79.335,397.575 79.167,397.667 79.167 C 397.763 79.167,397.833 78.639,397.833 77.917 C 397.833 77.229,397.777 76.666,397.708 76.665 C 397.640 76.664,397.439 76.200,397.262 75.634 C 396.936 74.589,396.192 73.682,394.838 72.679 C 393.746 71.869,391.276 71.592,389.641 72.095 M393.857 73.345 C 398.663 75.797,397.269 82.791,391.907 83.126 C 385.716 83.512,384.404 74.575,390.417 72.979 C 391.270 72.753,393.071 72.945,393.857 73.345 M389.333 77.917 L 389.333 81.833 389.917 81.833 L 390.500 81.833 390.500 80.250 L 390.500 78.667 390.973 78.667 C 391.411 78.667,391.495 78.780,392.104 80.208 L 392.762 81.750 393.548 81.801 C 394.499 81.862,394.496 81.979,393.591 80.128 C 392.864 78.640,392.803 78.333,393.234 78.333 C 394.022 78.333,394.460 76.099,393.885 75.011 C 393.487 74.255,392.802 74.029,390.875 74.013 L 389.333 74.000 389.333 77.917 M392.529 75.609 C 393.357 76.359,392.650 77.500,391.355 77.500 L 390.500 77.500 390.500 76.417 L 390.500 75.333 391.362 75.333 C 391.930 75.333,392.328 75.427,392.529 75.609 M226.189 85.741 C 228.048 85.962,230.066 86.419,230.417 86.699 C 230.508 86.772,231.071 87.151,231.667 87.541 C 235.184 89.843,234.221 95.467,229.967 97.460 C 227.313 98.703,222.335 99.298,220.817 98.554 C 220.597 98.446,219.817 98.163,219.083 97.924 C 216.472 97.076,214.500 95.280,214.091 93.377 C 214.027 93.080,213.905 92.794,213.821 92.742 C 213.637 92.629,213.611 90.719,213.792 90.639 C 213.860 90.608,214.139 90.109,214.412 89.529 C 214.729 88.854,215.178 88.241,215.662 87.824 C 216.077 87.466,216.588 87.022,216.798 86.836 C 218.321 85.491,221.231 85.151,226.189 85.741 " stroke="none" fill="#24343c" fill-rule="evenodd"></path><path id="path3" d="M25.833 81.171 C 25.833 81.570,25.908 82.314,25.998 82.823 C 26.089 83.333,26.235 84.387,26.322 85.167 C 26.496 86.717,26.826 88.396,26.935 88.288 C 26.972 88.250,26.892 87.663,26.755 86.984 C 26.618 86.305,26.394 84.595,26.256 83.183 C 26.006 80.620,25.833 79.798,25.833 81.171 M25.714 83.417 C 25.716 83.875,25.748 84.043,25.786 83.789 C 25.825 83.536,25.824 83.161,25.784 82.956 C 25.744 82.751,25.713 82.958,25.714 83.417 M25.539 85.167 C 25.539 85.487,25.573 85.619,25.615 85.458 C 25.657 85.298,25.657 85.035,25.615 84.875 C 25.573 84.715,25.539 84.846,25.539 85.167 M24.202 92.368 C 24.009 93.031,23.880 93.602,23.915 93.637 C 23.951 93.673,24.143 93.165,24.342 92.509 C 24.541 91.853,24.670 91.282,24.629 91.240 C 24.587 91.198,24.395 91.706,24.202 92.368 M28.485 91.889 C 28.729 92.193,29.667 92.907,29.667 92.789 C 29.667 92.753,29.348 92.469,28.958 92.160 C 28.569 91.850,28.356 91.728,28.485 91.889 " stroke="none" fill="#64b48c" fill-rule="evenodd"></path><path id="path4" d="" stroke="none" fill="#405884" fill-rule="evenodd"></path></g></svg>