<svg id="svg" xmlns="http://www.w3.org/2000/svg" viewBox="0 0 293.92 88.45"><defs><style>.cls-1{fill:#c11e47;}.cls-1,.cls-2,.cls-3,.cls-4,.cls-5{fill-rule:evenodd;}.cls-2{fill:#40aae0;}.cls-3{fill:#186a99;}.cls-4{fill:#0e1414;}.cls-5{fill:#24769c;}</style></defs><g id="svgg"><path id="path0" class="cls-1" d="M99.55,80.6a25.7,25.7,0,0,1-2.39,1c-1,.3-10.35,3.93-12,4.67-.71.31-2.09.82-3.06,1.12a33.17,33.17,0,0,0-3.46,1.37,4.69,4.69,0,0,1-2.2.62c-.27-.11-.42-.07-.33.08s-2.18,1.33-2.89,1.33a7.16,7.16,0,0,0-1.6.63c-.71.34-2.16.94-3.22,1.33s-2.51,1-3.22,1.27-1.65.66-2.1.79c-2.82.84-5.71,2.33-5,2.58,2.26.77,6.87,2.58,7.42,2.91a7,7,0,0,0,1.77.64,11.65,11.65,0,0,1,2.32.84,5.38,5.38,0,0,0,1.85.61c.36,0,.66.14.66.32s.26.32.58.32a1.53,1.53,0,0,1,.88.27,7.41,7.41,0,0,0,1.69.7c.87.28,1.23.52,1,.68a2.41,2.41,0,0,1-1.54-.25c-.63-.27-1.52-.61-2-.75a18.11,18.11,0,0,1-1.93-.74l-2.54-1.11a22.11,22.11,0,0,0-2.26-.88c-.86-.24-6.83-2.51-8.7-3.29-.71-.31-1-.34-.75-.09a25.49,25.49,0,0,0,5.1,2.29c.53.18,1.26.46,1.62.61s2.38,1,4.51,1.76,4.71,1.83,5.74,2.27c2.43,1,1.85,1.12,8.31-1.43,3.08-1.22,7.93-3.11,10.76-4.21s5.64-2.21,6.22-2.48c2.36-1.07,3.26-.92,8.93,1.53.35.15,1.22.48,1.93.73,1.87.66,9.52,3.62,14.27,5.52,3.56,1.43,2.59,1.6,12-2.09,4.16-1.63,8.26-3.2,9.1-3.48,1.39-.46,2.13-1.36,1.13-1.36A85.64,85.64,0,0,1,137.55,94a8.61,8.61,0,0,0-1.69-.62,8.29,8.29,0,0,1-1.69-.6,53.33,53.33,0,0,0-5.12-2,11,11,0,0,1-1.44-.54c-.69-.3-1.9-.78-2.7-1.08-1.56-.57-10.2-3.9-12.57-4.84l-5.15-2c-2-.79-4.23-1.66-4.86-1.94-1.1-.48-1.24-.46-2.78.25m-.42,18.73c-2.5,1.08-10.83,4.33-11.1,4.33a10.39,10.39,0,0,0-1.59.62,46.26,46.26,0,0,1-5.32,2c-1.47.45-1,.82,2.86,2.3,6.7,2.56,9.23,3.53,10.15,3.93,6.15,2.66,8.12,2.65,15-.07,4.66-1.84,11.66-4.55,13-5,.78-.28.43-.77-.84-1.15-.57-.16-1.83-.62-2.81-1l-3.7-1.43c-7.67-2.91-10.82-4.14-12-4.7-1.64-.76-1.41-.77-3.62.19m-15.65,7.92a1.54,1.54,0,0,0,.88.28,4.6,4.6,0,0,1,1.63.57,17.32,17.32,0,0,0,2.34,1,30.6,30.6,0,0,1,4,1.58c.8.36,2,.83,2.58,1s1.74.67,2.49,1a7.12,7.12,0,0,0,2.34.61c.53,0,1,.14,1,.32,0,.4-2.15.43-2.4,0a2.6,2.6,0,0,0-1.23-.52,18.17,18.17,0,0,1-2.66-1c-.88-.4-2.11-.9-2.73-1.12s-1.57-.58-2.1-.82-1.62-.66-2.42-1-1.88-.73-2.41-1-1.51-.59-2.18-.8-1.21-.52-1.21-.69c0-.34,1.61,0,2.08.4m177.67,3.09a27.39,27.39,0,0,0,3.39,0c.93-.06.16-.12-1.7-.12s-2.62.06-1.69.12m36.11,0a35.67,35.67,0,0,0,3.87,0c1-.06.1-.11-2-.11s-3,0-1.84.11M179.13,130.18l-.08,19.91L183,150l3.95-.1L187,138c.09-11.61.1-11.87.72-11.71s.61.14.07-.6c-1.15-1.58-1.2-1-1.1,11.63l.1,12.4h-7.44L179.29,130l-.08-19.75-.08,19.92m26.42-7.59c0,6.69.11,10.28.16,8,.23-10.58.23-20.14,0-20.14s-.21,5.47-.17,12.16m51.9-11.83c-1.08.43-.88.65.24.26a2.54,2.54,0,0,0,1-.46c0-.19-.39-.13-1.2.2m9.58-.06a5.93,5.93,0,0,0,1.45.49c.62.14.8.11.49-.07a5.93,5.93,0,0,0-1.45-.49c-.62-.14-.8-.11-.49.07m25.83.1c-.6.17-1,.37-.95.44a5.72,5.72,0,0,0,2.52-.67c0-.19-.26-.15-1.57.23m10.91-.1a5.93,5.93,0,0,0,1.45.49c.62.14.8.11.49-.07a5.93,5.93,0,0,0-1.45-.49c-.62-.14-.8-.11-.49.07m21.35,19.55-.08,20,11.75-.09,11.74-.09.1-3.7a14.89,14.89,0,0,0-.14-3.7,13.53,13.53,0,0,0-.24,3.55v3.54H325.37L325.28,130l-.08-19.75-.08,20m8.55-3.53c.05,8.94.19,16.26.32,16.26.31,0,.14-32-.17-32.29-.13-.13-.2,7.09-.15,16M186.83,112.41c.76,1.08.92,1.15.7.27-.1-.35-.31-.64-.48-.64s-.23-.12-.14-.27,0-.27-.28-.27-.3.22.2.91m67.8-.37a2.1,2.1,0,0,1-.85.64,12.25,12.25,0,0,0-3.18,3.46,2.31,2.31,0,0,1-.68,1.09c-.42.42-.56.79-.38,1s.54-.22.92-1.07a11.15,11.15,0,0,1,4.25-4.67,6.26,6.26,0,0,0,1.37-.94c0-.38-.95,0-1.45.52m15-.53c.68.61,2.12,1.08,2.12.7a.28.28,0,0,0-.4-.28.53.53,0,0,1-.61-.19.92.92,0,0,0-.73-.35c-.28,0-.46.06-.38.12m20.19.33c.11.17,0,.22-.34.1s-.65,0-.88.45c-.34.63-.31.63,1,0,1.78-.9,1.84-1,.83-.88-.46,0-.76.21-.65.38m18.13.34c1.39.73,2.16.8,1.76.15a.38.38,0,0,0-.5-.11c-.18.11-.67,0-1.1-.32a2.88,2.88,0,0,0-1.19-.49c-.23,0,.24.35,1,.77m-35.1.7a1.75,1.75,0,0,0,.61.92c.62.57.62.58,0,1.8-.4.78-.51,1.31-.3,1.44s.29.08.25-.06c-.13-.48.42-1.73.68-1.57s.24-.33.22-.92c0-.79-.16-1-.49-.9s-.38,0-.19-.26.14-.35-.08-.21a.35.35,0,0,1-.51-.19c-.09-.23-.18-.26-.19-.05m14.31.45a.35.35,0,0,1-.45.18c-.13-.09-.24.06-.24.32s.12.36.67-.1c.37-.3.73-.6.8-.64s0-.09-.22-.09a.76.76,0,0,0-.56.33m-98.72,1.29c.39.53.84,1,1,1,.34,0-1.1-1.89-1.46-1.91-.14,0,.07.41.46,1m96.95-.37a10.65,10.65,0,0,1-1.77,2.18,8.83,8.83,0,0,0-1.77,2.29.47.47,0,0,1-.5.41c-.28,0-.42.13-.32.29s0,.37-.23.46-.23.17.11.19.7-.37.95-.86a17.33,17.33,0,0,1,2.34-2.86c1.17-1.22,1.76-2.06,1.55-2.2s-.36-.08-.36.1m26.64,0c-.12.2.11.62.52,1a18.11,18.11,0,0,1,2,2.11c.74.91,1.39,1.44,1.61,1.3s.17-.27-.2-.34c-.54-.11-.72-.49-.58-1.2,0-.17,0-.22-.15-.1-.28.28-1.45-.73-1.45-1.26a.46.46,0,0,0-.49-.41c-.27,0-.61-.31-.75-.7s-.35-.56-.48-.35m-170,1.36c-.8.31-3.62,1.4-6.28,2.41s-5.27,2-5.8,2.27c-1,.41-4,1.55-5.08,1.9s-.65.73.88,1.31l1.44.55,3.15-1.18c1.73-.64,3.59-1.36,4.12-1.6,1-.43,4.61-1.85,6.6-2.59,5.24-2,6.2-2.68,4.1-3.14a11.4,11.4,0,0,1-1.19-.33,4.42,4.42,0,0,0-1.94.4m-85.31.24c-.23.6-.59.42,5.55,2.81,3,1.18,6.13,2.41,6.93,2.75,5.48,2.28,6.4,2.55,7.64,2.22,1.72-.47,2-.82.86-1.27l-2.3-1a8.27,8.27,0,0,0-1.68-.6,11.12,11.12,0,0,1-2-.77c-.93-.42-2.64-1.08-3.79-1.47s-2.53-.9-3.06-1.14c-4.55-2-7.72-2.62-8.13-1.55m5.19.87c2.93,1.24,9,3.58,11,4.22,2.46.8,4.39,1.77,4.19,2.09s-1.65.42-2.47,0a60.14,60.14,0,0,0-6-2.28,11.09,11.09,0,0,1-2.09-.94,4.23,4.23,0,0,0-1.57-.62c-.46,0-2.74-.9-6.7-2.65l-.81-.35.81-.24c.44-.13.86-.26.93-.27a29.26,29.26,0,0,1,2.74,1.06m127.82-.58a4.67,4.67,0,0,0,.8,1.15c.45.53.81.81.81.63a.72.72,0,0,0-.33-.53.35.35,0,0,1-.18-.44c.08-.12-.14-.41-.48-.62s-.62-.3-.62-.19m70.25,1.18c-1.15.53-2.58,2.07-2.54,2.73s.05.54.19,0c.08-.31.26-.49.41-.41s.24-.08.22-.39a.47.47,0,0,1,.36-.56.9.9,0,0,0,.65-.36c.74-1.14,5.37-1.62,5.76-.59a.52.52,0,0,0,.69.31.65.65,0,0,1,.76.22c.2.32.26.32.27,0,0-1.11-4.91-1.81-6.77-1m35.46.55c-.26.16-.37.4-.25.52s.45,0,.72-.18A2.84,2.84,0,0,1,298,118c1,.12,1.66.08,1.79-.12.26-.42-3.67-.44-4.34,0m5.47-.08a3.14,3.14,0,0,1,1.22.49c.22.18.51.24.63.11.37-.36-.64-.83-1.69-.78-.87,0-.89.05-.16.18m-109.24.53a55.16,55.16,0,0,0,5.26,6.76,4.19,4.19,0,0,1,.9,1.11c-.24.27,3.25,4.25,3.57,4s.13-.3-.28-.46c-.65-.24-1.93-1.88-1.8-2.3,0-.13-.2-.38-.53-.56a2,2,0,0,1-.82-1.15c-.11-.45-.35-.74-.52-.63s-.31,0-.31-.28a.77.77,0,0,0-.48-.65.81.81,0,0,1-.49-.7c0-.28-.14-.43-.3-.32-.33.2-1.06-.91-.81-1.24.08-.11,0-.13-.07,0-.35.27-1.07-.52-1.07-1.16a.56.56,0,0,0-.52-.6c-.33,0-.45-.18-.33-.49s0-.48-.27-.48a1.11,1.11,0,0,1-.79-.57c-.18-.31-.33-.43-.34-.28m79.59.71c-.76.42-.76.45-.11.46A1,1,0,0,0,272,119c.11-.27.16-.47.12-.45s-.43.23-.88.47m20.26.76c-.42.33-.67.7-.57.8s.52-.18.94-.62c.9-1,.7-1.05-.37-.18m15.18.76c1.43,1.52,2.1,2,1.26,1a9.34,9.34,0,0,0-1.9-1.85c-.44-.35-.15,0,.64.89m9.84-.5c.27.58.65,1,.83,1s.2-.14,0-.4-.57-.69-.83-1c-.41-.54-.41-.48,0,.4m-67.37.88a8.11,8.11,0,0,0,.07,2.62c.23,1,.28.75.28-1.43,0-3,0-3.18-.35-1.19m-18.67.49a2.3,2.3,0,0,0,1.45.33,2.34,2.34,0,0,0,1.45-.33c.12-.19-.44-.32-1.45-.32s-1.58.13-1.45.32m49.52.82c-.54,1.19-.44,1.44.14.36.28-.5.44-1,.37-1s-.31.24-.51.69M317.5,122c.35,1.3,1.07,2.79,1.08,2.25a5.55,5.55,0,0,0-.64-1.77c-.36-.7-.56-.91-.44-.48m-91.23,0c.21.34-1.12,1-1.54.75-.13-.08-.24,0-.24.22s-.13.27-.3.17-.47.1-.66.46a1.17,1.17,0,0,1-.82.65c-.26,0-.47.16-.47.35s-.18.23-.41.1-.29-.11-.16,0,.06.48-.16.75.27,0,1.1-.65a17.56,17.56,0,0,1,3.3-1.89c1.19-.49,1.67-.84,1.41-1-.58-.36-1.29-.32-1,.06m10-.12c-.16.16,2.37,1.57,4.77,2.66.17.08,0-.14-.3-.48a7.06,7.06,0,0,0-1.93-1.12c-.72-.28-1.28-.68-1.23-.88.08-.4-.95-.54-1.31-.18m21,.54c0,.85,3.71,3.46,4.88,3.44.24,0-.06-.25-.69-.56a4.13,4.13,0,0,1-1.23-.79c-.06-.14-.39-.26-.73-.26a.55.55,0,0,1-.61-.48.5.5,0,0,0-.51-.48c-.29,0-.41-.15-.27-.37s.09-.29-.2-.11-.36.11-.22-.28.07-.53-.1-.53a.39.39,0,0,0-.32.42m31.63.43c-.54,1.17-.3,1.24.35.09.3-.52.43-.94.29-.94s-.43.38-.64.85m19.3-.29a2.29,2.29,0,0,0,.46.91c.45.6.46.6.29-.11s-.75-1.33-.75-.8m-227,2.3-1.29.58,1.57.69a17.48,17.48,0,0,0,1.7.7c.14,0,3,1.13,10.75,4.18,4.47,1.77,5.16,2,6.54,1.77a2.94,2.94,0,0,1,2,.17c.43.35,3.78-.55,4.85-1.3a5.59,5.59,0,0,1,1.12-.47c.9-.26,10.76-4.08,12.65-4.89,1.5-.65,1.51-.81,0-1.51a3.79,3.79,0,0,0-3.5.1,30,30,0,0,1-2.9,1.21c-1.42.54-5.07,1.95-8.12,3.14l-5.53,2.16L97.46,130l-5.74-2.25-5-1.94c-4-1.55-4-1.55-5.48-.9m228.21.36a10.08,10.08,0,0,0,.49,1.77c.19.45.22.29.08-.48a10.08,10.08,0,0,0-.49-1.77c-.19-.44-.22-.29-.08.48m-67.65-.44c-.11.11.3.79.91,1.51a6.44,6.44,0,0,1,1.12,1.57c0,.14.16.26.35.26s0-.38-.33-.85a3,3,0,0,1-.66-1.24c0-.5-1.12-1.52-1.39-1.25m-158,.4a11.75,11.75,0,0,0,2.24.94c1.06.37,2.73,1,3.7,1.35s2.43.91,3.22,1.19,2.32.9,3.38,1.39,2.49,1.06,3.15,1.27,1.21.53,1.21.69c0,.54-2.35.31-3.85-.37a73.17,73.17,0,0,0-7.59-2.93,16.26,16.26,0,0,1-2.35-1,4.8,4.8,0,0,0-1.52-.57,19.12,19.12,0,0,1-3.66-1.5c-.06,0,0-.22.1-.41a1.76,1.76,0,0,1,2-.06m195.12.38c0,.37-.11.6-.24.52-.31-.19-.17,7.39.15,8.56.14.49.25-1.46.25-4.43s0-5.31-.08-5.31-.08.3-.08.66m39.8,4.66c0,2.55.1,4.4.22,4.09a24.45,24.45,0,0,0,.22-4.09,24.61,24.61,0,0,0-.22-4.1c-.12-.3-.22,1.54-.22,4.1m-69.24-3.89c-.1.28,0,.5.14.5s.23.17.1.37-.09.29.14.15.47,0,.59.35a5.63,5.63,0,0,0,1,1.44,2.84,2.84,0,0,1,.76,1.13.3.3,0,0,0,.29.31l.73.08c.28,0,.25.15-.08.36s-.32.32.32.32a4.25,4.25,0,0,1,1.77.59c1.19.73,2.42,1.07,2.42.67,0-.16-.22-.29-.5-.29-1.25,0-6.27-3.36-6.27-4.21s-1.21-2.26-1.4-1.77m14.29-.15c0,.14.36.32.8.41s.73,0,.65-.09c-.22-.34-1.45-.62-1.45-.32m-43.82.92c-.43.47-.76,1-.72,1.11a4.76,4.76,0,0,1-.57,1.52,5.73,5.73,0,0,0-.64,1.68c0,.23.45-.52,1-1.66a15.15,15.15,0,0,1,1.49-2.66c.28-.32.46-.65.39-.72s-.5.25-.93.73m-31.73,0c-.1.16.13.36.5.46s.59.31.49.47.28.63.85,1c1,.76,1,.76-.22-.75s-1.36-1.66-1.62-1.23m78.45.16a3.22,3.22,0,0,0,1.26.32c.24-.21-.1-.36-1.26-.57l-1.13-.19,1.13.44m-37.35.55c-.42.17-.68.4-.56.51s.53,0,.93-.15a6.35,6.35,0,0,1,1.53-.49c.7-.12.68-.14-.16-.16a5.33,5.33,0,0,0-1.74.29m3.67-.06c.54.15,1.26.38,1.61.52s.56.16.3-.13a3.35,3.35,0,0,0-1.61-.53c-1.13-.13-1.16-.11-.3.14m-5.56,1.54a6.41,6.41,0,0,0-.84,1.71c-.19.79-.19.79.21-.05a7.65,7.65,0,0,1,1-1.53c.34-.37.53-.76.44-.85s-.47.22-.82.72m8.26-.44a16.42,16.42,0,0,1,1.16,2.18c.5,1.09.73,1.38.6.78-.21-1-1.57-3.39-1.92-3.39-.11,0,0,.2.16.43m8.63.06a3.91,3.91,0,0,0,.46,1,10,10,0,0,1,.59,2.23c.41,2.23.82,2.94.47.82-.13-.79-.24-1.73-.25-2.08a1.8,1.8,0,0,0-.27-1c-.14-.17-.48-.61-.74-1l-.47-.65.21.65m25.57-.15c1.12.76,1.76,1,1,.34a3,3,0,0,0-1.13-.66c-.18,0-.1.14.16.32m40.39,1.44c0,1.06.06,1.46.13.88a9,9,0,0,0,0-1.94c-.07-.48-.13,0-.13,1.06m-38.45-.43a1,1,0,0,0,.35.77,8.19,8.19,0,0,1,1.29,1.69c.51.81.94,1.23.94.93a2.2,2.2,0,0,0-.66-1.2c-.36-.36-.57-.8-.46-1s0-.28-.2-.23-.6-.27-.83-.72-.42-.64-.43-.26m-79.78,1.63c.67.86,1.08,1.7.95,1.91s-.09.28.13.15.55.07.77.43.54.66.69.66-1-1.64-2.7-3.55c-.84-.92-.81-.85.16.4m10.13.52c1.23,1.55,2,2.19,2,1.7a.35.35,0,0,0-.34-.36c-.19,0-.25-.16-.13-.35s-.09-.42-.45-.51a1.32,1.32,0,0,1-.85-.76,1.38,1.38,0,0,0-.69-.77c-.28-.11-.07.34.49,1.05m55.93,1a1.08,1.08,0,0,0,.85.36c.34,0,.62.14.62.32a.36.36,0,0,0,.39.32c.6,0-.4-.85-1.32-1.13-.52-.15-.69-.11-.54.13m51.42,1.68a3.13,3.13,0,0,0-.19,1.49c.09.09.25-.25.37-.76s.28-1.18.36-1.49.07-.56,0-.56a3.34,3.34,0,0,0-.52,1.32m-252.34-.48-1.13.49.93.5c.51.27,2.4,1.05,4.19,1.73s5.15,2,7.45,2.9c6.4,2.53,7.1,2.73,8,2.32.68-.33.62-.36-.59-.38a9,9,0,0,1-3.06-.83,10.52,10.52,0,0,0-2.12-.8,11,11,0,0,1-2.16-.81,13.21,13.21,0,0,0-2-.8,6.08,6.08,0,0,1-1.39-.61A10.37,10.37,0,0,0,63,137a19.89,19.89,0,0,1-2.9-1.06,24.55,24.55,0,0,0-2.58-1c-.68-.18-.57-.25.75-.45a4,4,0,0,1,1.93,0,21.62,21.62,0,0,0,2.8,1.18c3.53,1.3,4.81,1.82,6.59,2.66a8.26,8.26,0,0,0,2.1.76,5.09,5.09,0,0,1,1.63.6,16.7,16.7,0,0,0,2.41,1,6.87,6.87,0,0,1,1.6.69,1.24,1.24,0,0,0,.74.29c1.08,0-.23-.69-4.5-2.37-16.55-6.51-14.67-5.91-16.37-5.17m82.18,1c-2,.81-5.23,2.06-7.09,2.77s-3.82,1.48-4.35,1.71-1.51.58-2.17.79c-1.7.55-1.73.83-.15,1.6l1.39.67,4.17-1.63c4.21-1.64,6.37-2.47,10.78-4.15,5.09-1.94,5.21-2,3.63-2.63-1.84-.7-2.52-.6-6.21.87m98.41.94c0,1.42.06,2,.12,1.2a15.86,15.86,0,0,0,0-2.58c-.07-.66-.12,0-.12,1.38m24.41-2c.91.67,1.9,1.15,1.9.93s-.37-.45-.82-.65c-.75-.35-1.41-.51-1.08-.28m-57.59.79c.67.79,1.16.94,1.16.35,0-.21-.09-.28-.21-.16s-.52,0-.89-.35c-.67-.57-.67-.57-.06.16m70,2.66c0,1.74.1,3,.23,2.79.32-.49.32-5.61,0-5.8a8.88,8.88,0,0,0-.24,3m-79.77-2.29c0,.16.22.37.49.47s.45.31.4.45.31.66.79,1.14.8,1.08.69,1.36,0,.48.45.48a1.37,1.37,0,0,1,1,.72c1.05,2,1.32,2.33,1.33,1.8s-4.66-6.71-5-6.71c-.07,0-.14.13-.14.29m70.17.29c.39.34.62.72.5.83s.05.2.34.2c.77,0,.67-.19-.51-1-.86-.58-.92-.59-.33-.06m52.68,2.42a19.59,19.59,0,0,1-4.62,7c-2,1.87-2.05,1.6,1.84,5.65,1.37,1.42,2.21,2.22,1.88,1.77s-1.15-1.36-1.82-2a4.75,4.75,0,0,1-1.21-1.71c0-.26-.13-.38-.29-.28-.37.23-1.7-1.42-1.53-1.89a.45.45,0,0,1,.52-.26c.21,0,.29-.06.18-.25s-.07-.33.09-.33a4.57,4.57,0,0,0,2-1.89c0-.17.39-.62.87-1a2.47,2.47,0,0,0,.91-1.3,2.4,2.4,0,0,1,.54-1.2,4.18,4.18,0,0,0,.72-1.53,2.42,2.42,0,0,1,.56-1.17.82.82,0,0,0,.2-.81c-.08-.39-.37,0-.84,1.27m-9.1-.5a10.05,10.05,0,0,1-3.29,3.7c-.72.49-1.17.89-1,.89,1.3,0,5.55-4.67,4.87-5.35-.07-.07-.33.27-.58.76m-19.61.16a13.78,13.78,0,0,0,3.29,3.83c.39.2,0-.3-.8-1.11a12.81,12.81,0,0,1-2-2.45,3,3,0,0,0-.68-1c-.09,0,0,.33.21.73m-43.39,1a3.9,3.9,0,0,0-.05,1.54c.1.23.18,0,.2-.56a2.44,2.44,0,0,1,.37-1.34c.24-.24.25-.41,0-.55s-.42.26-.54.91m20.92-.32a1.46,1.46,0,0,0,.17,1.05c.28.5.34.43.34-.46,0-1.11-.21-1.36-.51-.59M237,140.54c-.26.79-.36,1.38-.23,1.29a5,5,0,0,0,.86-2.59c-.08-.09-.37.5-.63,1.3m-18.92,0a2.54,2.54,0,0,0,.51,1.29c.49.62.49.62.27-.16-.38-1.32-.78-1.9-.78-1.13m32.65-.22c.1.16-.1.55-.45.87a2,2,0,0,0-.64.88c0,.16.38-.16.84-.7a2.26,2.26,0,0,1,3.39-.4,13.27,13.27,0,0,0,2,1.19l1.54.71c.13.07.24.05.24,0a5.26,5.26,0,0,0-1.46-.84c-.81-.36-1.38-.8-1.28-1s0-.22-.3-.11a.51.51,0,0,1-.68-.27c-.11-.3-.75-.49-1.8-.53s-1.55,0-1.45.22m15.67.2c0,.6-.94,1.53-1.31,1.3-.16-.1-.2.06-.08.36.18.48.3.44,1-.32s1-1.8.59-1.8c-.09,0-.16.2-.16.46m-40,0c0,1,2.41,3.77,3.29,3.77.19,0-.14-.33-.74-.74a7.07,7.07,0,0,1-1.82-2c-.4-.71-.72-1.17-.73-1m54.14.24c0,.19.17.24.38.11s.3-.06.16.33,0,.61.43.74.64.33.64.53.27.54.61.75.33,0-.41-1.19c-.93-1.46-1.81-2.07-1.81-1.27m-35.85,1.37c-.39.95-.42,1.16-.09.71s.63-.84.84-1.08a.53.53,0,0,0,.09-.7c-.16-.16-.52.31-.84,1.07m-44.17.06a6.13,6.13,0,0,0,1.12,1.61,4.4,4.4,0,0,1,.91,1.2,2.75,2.75,0,0,0,.7.89c.39.35.58.65.42.65s0,.23.42.5a1.64,1.64,0,0,1,.72,1c0,.26.15.46.34.46s.24.15.13.34,0,.29.23.24.39.09.34.31.07.4.24.4c.57,0,.35-.72-.47-1.58s-3.89-4.61-4.76-5.84c-.43-.61-.5-.65-.34-.15m72.94,1c-.44.86-.86,1.7-.93,1.85s.22-.06.64-.48.72-.9.66-1.06a.51.51,0,0,1,.28-.52.81.81,0,0,0,.26-.79c-.08-.39-.38-.06-.91,1m20.29-1a3.6,3.6,0,0,0,1.29.46c.27,0,0-.21-.6-.47-1.37-.6-1.74-.59-.69,0m9.55.07a20.83,20.83,0,0,1-4,.45l-3.77.22,3.78,0c2.52,0,3.9-.18,4.17-.45s.32-.4.23-.4a.7.7,0,0,0-.4.23m-67.41.44a5.09,5.09,0,0,1-1.23,1c-.56.34-.83.61-.61.61.41,0,2.67-1.9,2.28-1.92a.68.68,0,0,0-.44.34m22.41.26c0,.81,4.24.95,5.69.2.58-.3.72-.48.37-.48a.93.93,0,0,0-.72.28,6.1,6.1,0,0,1-2.44.29c-1.24,0-2.25-.13-2.25-.29a.33.33,0,0,0-.65,0m-14.66,1.56a13.52,13.52,0,0,1-4.4,3.88,5.19,5.19,0,0,0-1.56,1.12c0,.41.54.27,1-.25a.86.86,0,0,1,.86-.33c.24.1.36,0,.25-.15s.25-.45.89-.35c.13,0,.24-.16.24-.39s.33-.61.72-.83c.78-.43,3-3.21,2.74-3.45-.09-.08-.41.26-.72.75m40.35.22c.49.43,1,.71,1.06.62s-1.24-1.4-1.66-1.4c-.17,0,.1.35.6.78m-63.63.38c.31.37.46.77.34.88s0,.22.18.22.31.14.2.32,0,.32.34.32a3.91,3.91,0,0,1,1.65,1.21c.62.67,1,1,.9.77s-.1-.39.21-.29a.53.53,0,0,1,.36.55c0,.22.05.3.21.2a.39.39,0,0,1,.52.14.4.4,0,0,0,.54.13c.18-.12-.37-.62-1.23-1.12a20.32,20.32,0,0,1-3.17-2.46c-.88-.85-1.36-1.24-1.05-.87m27.54-.11c-.25.65-.19,1.06.13,1,.16,0,.38.14.49.41s.33.48.5.48a3.33,3.33,0,0,1,1.18.61,10.7,10.7,0,0,0,2.06,1c.66.23,1.21.61,1.21.84,0,.48.29.53.87.17.39-.25.19-.37-2.48-1.48-1.87-.77-3.88-2.39-3.67-2.94.11-.26.12-.48,0-.48s-.23.18-.32.4M271,146.63a11.92,11.92,0,0,1-2.63,1.84c-1,.49-1.44.88-1.21,1,.59.37.86.29.86-.28,0-.36.2-.47.65-.35s.56,0,.47-.11.12-.43.48-.62.67-.24.68-.1.15-.07.31-.47.5-.73.75-.73.53-.29.62-.64a2.26,2.26,0,0,0,.12-.63s-.52.48-1.1,1.06m14.8-.47c.23.38.53.68.66.68.5,0,3.12,1.86,2.91,2.07s0,.12.38,0a.8.8,0,0,1,1,.31.81.81,0,0,0,.92.34c.36-.14-.19-.54-1.82-1.32a24.9,24.9,0,0,1-3.4-1.93c-1-.73-1-.74-.65-.14m-78.51,3.62a17,17,0,0,0,3.37.23c3.32,0,2.8-.18-1.11-.35-1.59-.07-2.6,0-2.26.12m48.57-.14c.3.08.56.28.56.44s.24.2.54.08c.61-.23-.22-.71-1.19-.68-.32,0-.3.07.09.16m9.1.1c-.41.18-.47.28-.16.28a3.44,3.44,0,0,0,1.13-.28c.4-.17.46-.27.16-.27a3.54,3.54,0,0,0-1.13.27m28.36,0a3.33,3.33,0,0,0,1.13.28c.3,0,.24-.1-.16-.28a3.66,3.66,0,0,0-1.13-.27c-.31,0-.25.1.16.27m10.39.34c.4.16.73.51.73.77a1.17,1.17,0,0,0,.64.83c.36.19.65.22.65.07a4.49,4.49,0,0,0-2.28-2c-.25,0-.14.15.26.31m-72.43.63c0,.18.29.32.65.32s.64-.14.64-.32-.29-.32-.64-.32-.65.14-.65.32m28.68,0c0,.18.45.32,1,.32s.9-.13.79-.32a1.35,1.35,0,0,0-1-.32c-.43,0-.79.14-.79.32m38,0c0,.18.44.32,1,.32s1-.14,1-.32-.43-.32-1-.32-1,.14-1,.32m8.42,2.1c.5,1.18,1,1.84,1.17,1.63s.5.27.94.78a4.06,4.06,0,0,0,1.41,1.14c.35.11.63.34.63.52s-.18.21-.4.09-.32-.14,0,.17a1.08,1.08,0,0,0,1.1.17c.68-.21.67-.25-.31-.72a12,12,0,0,1-3.84-3.46c-1-1.18-1-1.21-.66-.32m12.55,2.33,1.69,1.86-4.16.17-4.16.18,4.29.06c5,.08,5.09,0,2.57-2.57-2.13-2.16-2.29-1.94-.23.3" transform="translate(-55.3 -79.95)"/><path id="path1" class="cls-2" d="M107.67,82a3.2,3.2,0,0,0,1.13.56q.8.24.48-.09a3,3,0,0,0-1.13-.55c-.53-.16-.7-.13-.48.08M114,84.32c0,.18.28.32.63.32a1.06,1.06,0,0,1,.82.33,1.16,1.16,0,0,0,.91.29c.54,0,.4-.16-.59-.62-1.52-.7-1.77-.75-1.77-.32m5.16,2.1a3.59,3.59,0,0,0,1.13.46c.17,0,0-.21-.49-.46a3.41,3.41,0,0,0-1.12-.46c-.18,0,0,.2.48.46m2.58,1c1.06.61,1.58.62.79,0a2.38,2.38,0,0,0-1.11-.47c-.29,0-.15.2.32.46m7.38,2.92c.6.26,1.16.41,1.25.32s-1.39-.82-2-.81c-.21,0,.12.23.72.49m4.86,1.59a3.11,3.11,0,0,0,1,.65c.53.28,1,.37,1,.22s-.37-.45-.82-.65c-.9-.41-1.12-.45-1.12-.22m7.74,3.23c1.05.6,1.62.59.82,0a2.2,2.2,0,0,0-1.13-.46c-.32,0-.21.17.31.47m-40.11,1.1c-.19.3.49.64,1.76.88.94.18.56-.24-.71-.78-.49-.2-1-.25-1-.1M55.3,105.35c0,9.24-.19,8.58,2.58,9.15a120.56,120.56,0,0,1,11.6,4.2c.26.11,1.13.45,1.93.75s2.54,1,3.87,1.53,2.67,1.06,3,1.16a1,1,0,0,1,.57.86c0,.38.12.6.29.5.46-.29,2.29.19,2.08.54-.13.19.16.23.77.1.87-.19,4.49.94,7.65,2.4.36.16,2.6,1,5,1.93s4.6,1.77,4.91,1.95c1.84,1,1.85,1,1.85-7.15,0-6.56.07-7.5.54-7.84,1.14-.84-.52-1.55-1.79-.76-.49.31-1.59,0-6.36-1.9-3.17-1.25-7.61-3-9.86-3.84-3.62-1.38-4.11-1.65-4.11-2.31,0-.41-.13-.67-.28-.57a2.78,2.78,0,0,1-1.37-.16,13.52,13.52,0,0,0-2.39-.42,11.79,11.79,0,0,1-3.22-.93c-1.06-.46-3.31-1.37-5-2-5.8-2.25-8.87-3.43-10.16-3.9a4.48,4.48,0,0,1-1.69-1c-.32-.43-.4,1.06-.4,7.73m49.63-8a4.39,4.39,0,0,0,1.53.87c.84.35,2.15.93,2.9,1.27,1.37.62,2.32.81,1.89.39a21.38,21.38,0,0,0-2.87-1.31l-3-1.26c-.22-.09-.4-.08-.4,0m42.22,7.9v8l-.89.48-.88.48h.82a2,2,0,0,0,1.21-.37c.49-.5.55-16.7.06-16.7-.21,0-.32,2.9-.32,8.05M100.42,98.1c0,.13.43.26,1,.27s1-.08,1-.24-.43-.27-1-.27-1,.11-1,.24m2.58.38a4.47,4.47,0,0,0,1.85,1c1,.38,2.16.84,2.54,1a1.79,1.79,0,0,0,1.09.22c.22-.07-.67-.54-2-1s-2.63-1-2.94-1.19-.56-.18-.56,0m10,2.31,2.17,1c.4.19.82.25.93.14s-.22-.37-.72-.58l-2-.82c-1.64-.71-2-.5-.43.24m-3.22.42a6.83,6.83,0,0,0,1.93,1c.79.26,2,.72,2.69,1a2.88,2.88,0,0,0,1.41.36c.1-.1-.24-.33-.75-.53s-1.44-.57-2.06-.84l-2.19-.94c-1.34-.58-1.62-.58-1,0m-22.24,2c-.45.25-.66.46-.49.46a3.59,3.59,0,0,0,1.13-.46c.45-.26.66-.47.48-.47a3.49,3.49,0,0,0-1.12.47m31.74.16a7.38,7.38,0,0,0,1.85.62c.31,0,.57.18.57.37s.18.28.4.21a2.32,2.32,0,0,1,1.31.31,2.52,2.52,0,0,0,1.23.35c.43-.14-5.4-2.51-6.1-2.48-.3,0,0,.29.74.62m-37.7.32c-.12.18,0,.32.28.32a.87.87,0,0,0,.68-.32c.11-.18,0-.32-.28-.32a.84.84,0,0,0-.68.32m35.14.27a21,21,0,0,0,4.55,1.88c.07-.08-.42-.38-1.09-.69l-2.16-1c-1-.5-1.79-.61-1.3-.18m-35.14,1.51c-1.31.6-.53.6.84,0,.6-.25.87-.46.61-.45a5,5,0,0,0-1.45.45m43.5.15c-.35.15-.92.36-1.26.47s-.53.29-.24.57.47.29.76,0a1.84,1.84,0,0,1,1.13-.38c.44,0,.74-.2.74-.49,0-.53-.19-.56-1.13-.16m88.62,26.11c0,10,0,14.11.09,9.1s.05-13.2,0-18.21-.09-.91-.09,9.11m-158.25-16c-.08.22-.11,4.08-.07,8.57l.09,8.16,1.29.45a7.86,7.86,0,0,0,1.88.45,15,15,0,0,1,2.74.85l5.53,2.14c1.86.72,4,1.55,4.67,1.85s2.63,1,4.27,1.63c2.73,1,4,2.11,2.66,2.28l-.61.08c-.4.06-.86.52-.51.52a6.81,6.81,0,0,0,1.29-.36c.86-.32,1.31-.25,3.08.44,1.14.45,2.65,1,3.36,1.23s2.31.88,3.56,1.45a28,28,0,0,0,3.58,1.4,36.5,36.5,0,0,1,4,1.59c3.9,1.76,5.3,2.17,6.17,1.76,1.74-.81,6.68-2.77,8.3-3.3a37.62,37.62,0,0,0,3.9-1.58,14.59,14.59,0,0,1,2.46-1,7.55,7.55,0,0,0,1.58-.55,12.41,12.41,0,0,1,1.57-.58,9.26,9.26,0,0,0,1.29-.43c.53-.22,1.15-.46,1.39-.55s.33-.28.23-.45-.66-.15-1.39.12c-1.87.66-7.23,2.74-8.13,3.14-.44.2-1.89.77-3.22,1.25s-3.58,1.36-5,1.92-2.9,1.1-3.3,1.19l-.73.17v-7.6c0-6.9.06-7.62.57-7.91,1.06-.6,0-1.21-1.32-.74-1.1.39-1.83.21-5.53-1.37-.53-.23-3.51-1.39-6.61-2.59s-5.93-2.3-6.28-2.45-1-.43-1.53-.61c-1-.36-1.26-1.61-.32-1.65.35,0,.41-.09.15-.19a1,1,0,0,0-.89.22c-.37.31-.74.28-1.75-.12a3.48,3.48,0,0,0-1.79-.32c-.48.19-1.23-.07-4.58-1.54a9,9,0,0,0-1.64-.6,8.17,8.17,0,0,1-1.59-.65,7.84,7.84,0,0,0-1.67-.64,11.78,11.78,0,0,1-2-.75c-.93-.42-2.42-1-3.31-1.32-4.06-1.43-5.64-2.25-5.46-2.84s-.11-.79-.36-.16m91.32,0c.28.28.39,2.59.39,8.37v8l-1.13.47c-.62.26-1.13.66-1.12.89s.08.3.24.08a3.3,3.3,0,0,1,1.36-.66l1.13-.31.09-7.88c.1-8.49,0-9.34-.81-9.34-.42,0-.45.09-.15.39m102,6.38c0,.8.06,1.12.14.72a4.41,4.41,0,0,0,0-1.45c-.08-.4-.14-.07-.14.73m-127,1.15c-1.07.47-1.53,1.37-.49.94,1.28-.51,2.31-.73,2.55-.53s.06,0-.18-.35c-.5-.66-.51-.66-1.88-.06m3.26.74c.48.19.33.32-.76.65-.93.28-1.27.51-1,.74s2.21-.34,3-.94c.24-.19-.74-.72-1.28-.7-.33,0-.3.09.12.25m194.64,6.49c0,1.15.06,1.62.13,1.05a10.53,10.53,0,0,0,0-2.1c-.07-.58-.13-.1-.13,1m-10-.16c0,.88.06,1.21.14.72a5.75,5.75,0,0,0,0-1.61c-.08-.4-.14,0-.13.89M55.86,134c-.51.3-.56,1.06-.56,8.65V151l1.69.55a30,30,0,0,1,3,1.17,7,7,0,0,0,1.66.61,21,21,0,0,1,3.16,1.29,17.94,17.94,0,0,0,3.29,1.29,20.57,20.57,0,0,1,3.57,1.45,17.25,17.25,0,0,0,3.84,1.45,12.3,12.3,0,0,1,3.13,1.08,22.79,22.79,0,0,0,3.4,1.33,17,17,0,0,1,4.71,2.08,2.9,2.9,0,0,0,1.33.49,17,17,0,0,1,3,1c3.44,1.54,3.93,1.72,4.56,1.72a10.86,10.86,0,0,1,2.68,1c2.36,1.11,3.88,1.21,5.6.37.67-.33,1.73-.84,2.35-1.12,2-.91.56-.58-1.78.42a16,16,0,0,1-2.65,1c-.31,0-.41-1.74-.41-7.72,0-4.25,0-7.74.09-7.74s1.53-.54,5.72-2.15c1.15-.44,2.45-.92,2.9-1.07s2-.79,3.53-1.42a29,29,0,0,1,3-1.16,9.6,9.6,0,0,0,1.63-.6c1.28-.58,2.85-1.18,6.44-2.47,1.82-.66,1.9-1,.41-1.62-1.32-.55-1.46-.56-1.46-.14,0,.18.27.32.59.32,1.74,0,0,1.22-2.55,1.78a8.35,8.35,0,0,0-1.57.5c-.55.3-5.73,2.4-7.27,2.95-.53.19-2.46,1-4.28,1.75a30,30,0,0,1-3.71,1.4,3.75,3.75,0,0,0-1.21.44c-2,1-5.3.43-10-1.88A36.12,36.12,0,0,0,90,147.78c-1-.34-2.77-1.05-3.92-1.58a12.81,12.81,0,0,0-2.53-1,7,7,0,0,1-1.79-.64,6.67,6.67,0,0,0-1.77-.65,7.28,7.28,0,0,1-1.87-.7,5.56,5.56,0,0,0-2.24-.63,23.89,23.89,0,0,1-4.83-1.51L62,137.54c-2.81-1.1-5.41-2.15-5.78-2.35l-.67-.36.74-.6c.79-.64.56-.8-.38-.25m90.32.07.81.4v16.09l-1.25.59c-.68.32-1.17.66-1.07.75s.46,0,.82-.18a3.28,3.28,0,0,1,1.28-.35c1,0,1-.46,1-8.86s-.08-8.87-1.92-8.85c-.28,0-.15.17.31.41m100.31.71c0,.71.07,1,.15.56a3.7,3.7,0,0,0,0-1.29c-.08-.31-.14,0-.14.73m-65.25,15.87c1.11.06,2.85.06,3.87,0s.1-.12-2-.12-3,.05-1.84.12m27.87,0a21.51,21.51,0,0,0,2.9,0c.75-.06.06-.12-1.54-.12s-2.2.06-1.36.13m122,0c3.24.05,8.53.05,11.77,0s.59-.09-5.88-.09-9.12,0-5.89.09m-189.09,2c-1.49.82-.48.83,1.15,0,.85-.43,1.06-.63.62-.63a4.94,4.94,0,0,0-1.77.61m-4.35,1.63-2.58,1.06c-.17.07-.23.23-.11.35s5-1.6,5.57-2.12-.65-.22-2.88.71m-5.08,1.85c-1.16.46-1.63,1-.8,1,.65,0,2.62-1.16,2.3-1.34a3.25,3.25,0,0,0-1.5.32m-6.36,2.53c-2,.81-4.14,1.66-4.67,1.89s-1.33.52-1.78.65a13,13,0,0,0-1.77.74,6.47,6.47,0,0,1-1.46.59,12.8,12.8,0,0,0-1.77.64,11.68,11.68,0,0,1-1.87.66c-.87.16-1.83.73-1.83,1.09,0,.18.4.12.89-.14a14.89,14.89,0,0,1,2.27-.83,24.25,24.25,0,0,0,3.55-1.44,33.17,33.17,0,0,1,4.09-1.66,20.48,20.48,0,0,0,3.28-1.33,6.09,6.09,0,0,1,2.33-.74c1,0,3.25-.92,3.25-1.35s-.74-.27-4.51,1.23m-17.65,6.75c-.93.41-1.44,1.1-.8,1.1a8.6,8.6,0,0,0,3-1.37c0-.37-1-.24-2.18.27" transform="translate(-55.3 -79.95)"/><path id="path2" class="cls-3" d="M103.43,80.79a8.81,8.81,0,0,0,2.34.86c.08-.08-.33-.33-.91-.57a4.48,4.48,0,0,1-1.22-.65,3.43,3.43,0,0,0-1.29-.43c-.82-.16-.52.06,1.08.79m-5.21,0a9.28,9.28,0,0,0-1.29.8c-.25.25,1.9-.61,2.76-1.11,1-.59-.31-.32-1.47.31m-6,2.09c-.27.28-.57.48-.67.46-.38-.07-1,.26-.79.45s2.89-.8,2.69-1.12-.67-.34-1.23.21m17.09-.26c-.68.17.54.75,6.22,3,3,1.16,5.13,1.71,2.61.67-.53-.22-1-.52-1-.67s-.26-.24-.57-.22c-.79,0-3-.72-3-1.05,0-.15-.47-.32-1-.38s-1-.26-1-.5-.22-.37-.65-.32-.69-.08-.64-.33c.08-.42,0-.43-1-.17M88.67,84.49c-.79.6-.54.6.83,0,.75-.33.89-.47.44-.48a2.55,2.55,0,0,0-1.27.47m-3.52,1.28c-.1.27-.06.49.09.49a1.3,1.3,0,0,0,.68-.49c.32-.39.31-.48-.09-.48a.81.81,0,0,0-.68.48m-1.29.54c.16.26,0,.31-.39.14s-.53-.14-.24.14a.69.69,0,0,0,.92.07c.5-.29.51-.32,0-.51s-.46-.08-.3.16m38.6,1.9a19.57,19.57,0,0,0,3.33,1.15c.07-.08-.39-.31-1-.52s-1.15-.51-1.15-.67-.32-.3-.72-.3a4.55,4.55,0,0,1-1.65-.49,4.26,4.26,0,0,0-1.45-.47c-.29,0,.91.59,2.66,1.3M79.26,88c-.37.26-.76.38-.88.27s-.2,0-.2.17a.43.43,0,0,1-.46.37.9.9,0,0,0-.68.34c-.28.46,2.15-.57,2.74-1.16s.34-.6-.52,0m47.43,1.45c-.19.31,2.06,1.44,2.32,1.17.08-.07-.37-.32-1-.54s-1.06-.53-1-.68.09-.26,0-.26-.25.14-.35.31M72.17,90.61a.76.76,0,0,1-.63.48c-.25,0-.45.15-.45.33,0,.48,1.17-.19,1.4-.8.11-.28.12-.5,0-.5s-.24.22-.35.49m58,.12c-.3.19,0,.43.93.81a3.87,3.87,0,0,0,1.49.41c.08-.08-.32-.3-.87-.49s-.91-.5-.8-.68c.24-.4-.16-.43-.75,0M69.16,92c0,.16.36.21.8.13s.81-.21.81-.28-.36-.13-.81-.13-.8.13-.8.28m64,0a5.71,5.71,0,0,0,2.84,1.2c.17-.06-.29-.3-1-.54s-1.34-.57-1.34-.71a.32.32,0,0,0-.34-.28c-.19,0-.25.15-.14.33M64.48,93.85c-.7.43-1.19.78-1.08.78a7.62,7.62,0,0,0,2.69-1.28c.31-.5-.19-.34-1.61.5m72.26-.61c-.22.36,2.22,1.63,2.54,1.32.1-.1-.33-.35-.95-.56s-1.19-.53-1.25-.74-.19-.26-.34,0M61.92,94.82c-.67.49-.4.57.61.17.34-.13.49-.33.32-.43s-.59,0-.93.26m78.94.46c1.7.79,2.24.79.81,0a5,5,0,0,0-1.61-.61c-.27,0,.09.28.8.61m-39.26.66a10.52,10.52,0,0,1,2.32.77,4.15,4.15,0,0,0,1.4.49c.23,0-.38-.36-1.36-.79a8.68,8.68,0,0,0-2.74-.76c-.8,0-.74.07.38.29M58,96.21c.21.35-.72.76-1.14.5-.16-.1-.29,0-.29.16,0,.5.65.4,1.93-.3L59.65,96h-.91c-.49,0-.82.11-.72.27m40.3.36c-.71.34-1.13.63-.94.63A6.08,6.08,0,0,0,99,96.58c.7-.35,1.12-.63.94-.63a7.48,7.48,0,0,0-1.61.62m45.77,0c1.74.81,2.55.81,1,0a5.27,5.27,0,0,0-1.76-.62c-.27,0,.09.29.8.62m2.52.91c-.09.36-.75.79-1.66,1.1s-4.92,1.84-9.08,3.47-8,3-8.44,3.13-.8.31-.7.59.34.36,1.19,0c1.92-.81,5.53-2.21,8.75-3.4,1.78-.65,3.69-1.43,4.26-1.72a4.65,4.65,0,0,1,1.45-.54c1.17,0,4.4-1.76,4.53-2.47.17-.89-.08-1-.3-.16m-52,.54c-.45.25-.66.46-.49.46A3.59,3.59,0,0,0,95.26,98c.44-.25.66-.46.48-.46a3.65,3.65,0,0,0-1.12.46m5.48.44c0,.18-.31.42-.67.53s-.6.29-.52.37.56,0,1-.3.75-.55.51-.69-.36-.08-.36.09M58.84,99a3.68,3.68,0,0,0,1.13.46c.18,0,0-.21-.48-.46a3.35,3.35,0,0,0-1.13-.46c-.18,0,0,.2.48.46m43.83.13a12.16,12.16,0,0,0,1.94.8c.44.11,0-.16-.93-.61-2-.93-2.67-1.06-1-.19m8,.19a10.51,10.51,0,0,0,2.1.8c.2,0-.41-.36-1.36-.8a9.5,9.5,0,0,0-2.09-.8c-.2,0,.4.36,1.35.8m-19.29,0c-.44.25-.66.46-.48.46A3.68,3.68,0,0,0,92,99.31c.44-.25.66-.46.48-.46a3.78,3.78,0,0,0-1.13.46m53.81.28a8.18,8.18,0,0,1-2.24,1,15,15,0,0,0-2.1.79,24.77,24.77,0,0,1-2.82,1.12,8.68,8.68,0,0,0-2.5,1.14c0,.14-.7.34-1.57.46a4.07,4.07,0,0,0-1.95.65,3.23,3.23,0,0,1-1.52.66,8.66,8.66,0,0,0-1.68.48,11.33,11.33,0,0,1-3.25,1.12,4.4,4.4,0,0,0-1.88.91c-.42.4-.82.69-.9.65s-1,.17-2.55.86c-.71.3-1.95.75-2.74,1a10.34,10.34,0,0,0-2.09.86,2.42,2.42,0,0,1-1,.43,9.65,9.65,0,0,0-2.08.8,9.81,9.81,0,0,1-2.17.82,6.53,6.53,0,0,0-1.8.63,8.17,8.17,0,0,1-1.63.64,2.43,2.43,0,0,0-1,.66c-.39.36-.71.52-.71.34s-.53-.13-1.29.13a10,10,0,0,1-1.54.47c-.26,0-.5,12.81-.25,13.47.12.32.47.23,1.39-.35a9,9,0,0,1,2.34-1,8.9,8.9,0,0,0,1.77-.59,18,18,0,0,1,2.09-.89c1.91-.71,5.59-2.14,7.44-2.89a21.72,21.72,0,0,1,3.06-1,28.41,28.41,0,0,0,4.48-1.76A57.52,57.52,0,0,1,130,119a8.14,8.14,0,0,0,2.65-1.17c0-.17.15-.21.33-.1s.64,0,1-.31a2.75,2.75,0,0,1,1.16-.5,13.63,13.63,0,0,0,3.35-1.31,2.81,2.81,0,0,1,1.15-.3,1.57,1.57,0,0,0,.89-.26,6.84,6.84,0,0,1,1.59-.66c.71-.23,1.58-.53,1.94-.69a9.88,9.88,0,0,1,1.5-.46l.85-.18,0-6.93c.05-7.21,0-7.65-1.28-6.49m-31.25,1a3.89,3.89,0,0,0,1.23.47,7.32,7.32,0,0,1,1.75.66c1.37.66,2.46.88,1.45.29a43.36,43.36,0,0,0-5.07-1.9c-.09,0,.2.22.64.48m-26.1.05c-1.95.65-3.87,1.52-3.87,1.76s.55.38.7,0a7.7,7.7,0,0,1,3-1.37.82.82,0,0,0,.65-.32c.11-.18.16-.31.1-.3l-.58.19m18.69-.13a70.84,70.84,0,0,0,7.9,3.08,20.41,20.41,0,0,0-3.32-1.48c-4-1.58-4.8-1.85-4.58-1.6m-12.9.57a33.46,33.46,0,0,1-3.12,1.34A10.8,10.8,0,0,0,88,103.6a49.61,49.61,0,0,0,6.26-2.41c.33-.28-.21-.36-.63-.1M81.4,103.18c-.44.25-.66.46-.48.46a3.59,3.59,0,0,0,1.13-.46c.44-.26.66-.47.48-.47a3.52,3.52,0,0,0-1.13.47m39.48,0c2.18,1.07,5,2.2,5.17,2a9.31,9.31,0,0,0-2.5-1.21c-3.09-1.22-4-1.52-2.67-.84m-48.82,1a3.41,3.41,0,0,0,1.12.46c.18,0,0-.2-.48-.46a3.59,3.59,0,0,0-1.13-.46c-.17,0,0,.21.49.46m13.21.34c-1.91,1-1.26,1,.81,0,.88-.43,1.39-.77,1.12-.76a8.61,8.61,0,0,0-1.93.78m31.22,0a10.31,10.31,0,0,0,2.1.8c.44,0-2-1.13-3.06-1.41-.42-.11,0,.16,1,.61m3.26,1.29a3.41,3.41,0,0,0,1.29.46c.27,0,0-.21-.6-.47-1.37-.6-1.74-.59-.69,0m2.44,1c.62.45.62.46,0,.69-1.56.57-8.47,3.25-13,5a40.13,40.13,0,0,1-5.89,2c-1,0-1.22.42-.43.73a13,13,0,0,0,4.51-1.51,5.26,5.26,0,0,1,1.29-.46,12.23,12.23,0,0,0,1.93-.66c1.3-.59,6.86-2.74,7.1-2.74a16.88,16.88,0,0,0,2-.82,17.44,17.44,0,0,1,2.72-1c.51-.1.92-.3.92-.44,0-.39-1-1.27-1.37-1.27-.2,0-.08.2.26.46M298.38,110a2.36,2.36,0,0,0,1.12,0c.31-.08.06-.14-.56-.14s-.88.06-.56.14m-118,.34a14,14,0,0,0,2.42,0c.66-.07.12-.13-1.21-.13s-1.87.06-1.21.13m27.41,0a29.85,29.85,0,0,0,3.54,0c.93-.06.09-.12-1.86-.12s-2.71.06-1.68.12m119.56,0a41.81,41.81,0,0,0,4.19,0c1.1-.06.12-.11-2.19-.11s-3.2,0-2,.11m-237.93.57a3.59,3.59,0,0,0,1.13.46c.18,0,0-.21-.49-.46a3.65,3.65,0,0,0-1.12-.46c-.18,0,0,.21.48.46m115.39,11.27c0,6.87.15,11.84.33,11.95s.3-4.47.3-11.76c0-8-.11-11.94-.33-11.94s-.33,3.86-.3,11.75m8.51,8.23c0,11.08,0,15.61.1,10.07s0-14.6,0-20.14-.1-1-.1,10.07m40.83-18.5c-.24.27-.37.56-.29.63s.4-.14.72-.5.46-.64.3-.63a1.45,1.45,0,0,0-.73.5m17,.11c.44.34.86.55.94.48s-1-1.08-1.42-1.09c-.18,0,0,.27.48.61m-179.14-.15a7.85,7.85,0,0,0,2.54,1,3.42,3.42,0,0,0-1.17-.65c-1.19-.49-1.64-.6-1.37-.33m217.45.79a2.71,2.71,0,0,0,1.1.67c.4,0,.38,0-.89-.76l-1-.57.76.66m-166.89,2a22,22,0,0,1-2.1.83c-.71.23-1.62.55-2,.72-1.31.54-2.15.87-4.11,1.61a18.62,18.62,0,0,0-2.26,1,4,4,0,0,1-1.13.39,71.8,71.8,0,0,0-7.41,3c-.26.25,1.31,1.39,1.89,1.36.29,0,.13-.17-.36-.35-1-.36-1.15-.84-.32-1.11,1.07-.35,4.11-1.49,5.08-1.9s7.68-3,12.15-4.68a3.11,3.11,0,0,1,2.67-.17c2.28.79,1.83,1.18-3.71,3.24-2,.74-5.6,2.16-6.6,2.59-3.13,1.37-7.36,2.76-7.83,2.58s-.52-.17,0,.34.77.46,4.35-1c2.1-.84,4.61-1.81,5.58-2.14s2.23-.83,2.79-1.09a5.37,5.37,0,0,1,1.29-.48,4,4,0,0,0,1.12-.45,23.22,23.22,0,0,1,2.58-1c2.59-.84,3.59-2.74,1.45-2.74a2.62,2.62,0,0,1-1.35-.47c-.77-.58-.76-.58-1.75-.09m-86.39,1.07c-.44.52,0,1.09.82,1.09.18,0,.12-.13-.13-.28a.7.7,0,0,1-.25-.8c.25-.66.09-.66-.44,0m216.65,1.44c-.38.72-.56,1.22-.4,1.12a5.59,5.59,0,0,0,1.2-2.31c-.06-.06-.42.48-.8,1.19m41.2-.89a6.45,6.45,0,0,1,1,1.19c.3.44.55.6.55.36,0-.45-1.46-2-1.87-2-.13,0,0,.18.27.4m-64.36.41c-.3.78.12.92.52.17.25-.47.26-.67,0-.67s-.43.22-.54.5m33.08,0c-.22.28-.34.57-.25.66s.35-.06.58-.34.34-.57.25-.66-.35.07-.58.34M64.32,117a5.23,5.23,0,0,0,2.52,1c.09-.1.09-.17,0-.17a9.43,9.43,0,0,1-1.34-.49c-.64-.27-1.17-.41-1.17-.33m195.7.56c-.4.2-.72.5-.72.67s.36.07.79-.21c.9-.59,4.53-.73,4.8-.19.09.18.12.14.08-.08-.11-.54-4-.68-5-.19m-68.72.09a3.08,3.08,0,0,0,.68.91l.69.71-.37-.71c-.36-.7-1-1.28-1-.91m-46.85,1a4.42,4.42,0,0,1-1.3.48,22.55,22.55,0,0,0-3.05,1.13,25.2,25.2,0,0,1-3,1.12,8.66,8.66,0,0,0-1.67.63,41.39,41.39,0,0,1-7,2.6,1.06,1.06,0,0,0-.82.32,1.1,1.1,0,0,1-.85.32c-.84,0-3.82,1.29-3.82,1.65,0,.16-.27.28-.58.28a1.5,1.5,0,0,0-.89.29,6.3,6.3,0,0,1-1.59.67,27.55,27.55,0,0,0-2.66,1,8.55,8.55,0,0,1-1.64.61,8.11,8.11,0,0,0-1.7.76,13.39,13.39,0,0,1-2.38,1c-1.52.37-3.37,1.25-3.21,1.52s0,.33-.17.45-.33.05-.33-.14-.36-.34-.81-.34-.8.12-.8.28-.65.48-1.45.72a3.49,3.49,0,0,0-1.45.63c0,.12-.36.14-.81.06l-.8-.16v7.13c0,7.55,0,7.73,1.47,6.65a2.41,2.41,0,0,1,1-.48,8.2,8.2,0,0,0,1.79-.63,15.39,15.39,0,0,1,2.31-.85,5.58,5.58,0,0,0,1.28-.45,11.15,11.15,0,0,1,1.69-.65c.76-.24,1.37-.56,1.37-.72s.14-.21.3-.11a5.1,5.1,0,0,0,2.14-.62,12.42,12.42,0,0,1,2.16-.81,7.83,7.83,0,0,0,1.65-.6c2.87-1.31,4.26-2,5-2.43a26.08,26.08,0,0,1,2.74-1.17,40.84,40.84,0,0,0,4.11-1.64,2.78,2.78,0,0,1,1-.29c.27,0,.49-.14.49-.32s.2-.32.44-.32a10.24,10.24,0,0,0,2-.61c.86-.33,2.19-.79,2.94-1s1.37-.51,1.37-.64.4-.31.89-.4a25.12,25.12,0,0,0,2.82-.83,27.82,27.82,0,0,1,2.82-.86l.88-.17v-6.76c0-7.48,0-7.36-2.05-6.27m113.38.95a5.61,5.61,0,0,0-.43,1.85c0,.47.13.3.32-.49a10.13,10.13,0,0,1,.62-1.85c.19-.34.25-.63.15-.63s-.4.51-.66,1.12m14-.49c0,.28-.44.37-1.45.29-1.45-.11-1.91.13-.94.5,1.13.43,3.25-.34,2.63-1-.13-.13-.24-.06-.24.17m20.37.58c-.5.49-.6.63-.22.32a2.37,2.37,0,0,1,1.06-.56.36.36,0,0,0,.38-.32c0-.5-.24-.39-1.22.56m12.34-.68,1.45,1.25,1.12,1-.8-.91a6.14,6.14,0,0,0-1.45-1.25c-.35-.18-.5-.21-.32,0m-239,1.25a3.68,3.68,0,0,0,1.13.46c.18,0,0-.21-.48-.46a3.52,3.52,0,0,0-1.13-.46c-.18,0,0,.2.48.46M78,122.38c.31.18.48.47.38.64s0,.3.15.3.35-.12.35-.26a1.48,1.48,0,0,0-1.12-1c-.18,0-.08.16.24.34m147.43-.13c-.31.08-.56.27-.56.42,0,.33,1.23,0,1.47-.36s0-.3-.91-.06m12,0a7.37,7.37,0,0,0,2.47,1.11c.13,0,0-.21-.39-.46s-.72-.39-.84-.31-.32,0-.43-.19c-.21-.35-.81-.46-.81-.15m-120.53,2.36c-1.33.5-3.25,1.29-4.28,1.76a10.27,10.27,0,0,1-2.41.86,4.36,4.36,0,0,0-1.61.64,4.43,4.43,0,0,1-1.63.64,1.49,1.49,0,0,0-.88.29,9.14,9.14,0,0,1-1.92.8c-1.56.51-3.87,1.81-3.22,1.81.18,0,2.79-1,5.8-2.13l7.57-2.94c1.16-.43,2.59-1,3.19-1.3a6.39,6.39,0,0,1,2.15-.53c.8,0,1-.12.72-.43-.45-.54-.69-.51-3.48.53m124-.69c-.08.13.38.67,1,1.2,1,.8,1.06.83.52.17-1.13-1.37-1.41-1.62-1.54-1.37m-19.71,1.66-.94,1.16,1.09-1c.6-.57,1-1.09.94-1.15s-.57.4-1.09,1M80.29,125c-.49.36-.52.48-.14.7s.33.14.19,0,.08-.46.49-.68.58-.42.39-.42a2.06,2.06,0,0,0-.93.42m4.66,0a3.59,3.59,0,0,0,1.13.46c.17,0,0-.21-.49-.46a3.65,3.65,0,0,0-1.12-.46c-.18,0,0,.21.48.46m36.66-.09c1.37.66,1.5.59-7,3.91-2.93,1.13-5.68,2.17-6.13,2.3a5.59,5.59,0,0,0-1.12.47c-1,.74-4.42,1.65-4.84,1.31a2,2,0,0,0-1.35-.24c-.87.13-.86.14.14.19.58,0,1,.17,1,.33,0,.56,1,.68,2.05.24.86-.38,12.41-4.89,16.92-6.6,2-.75,2-2.37.06-2.28-.33,0-.26.14.23.37m65.88,1.56a1,1,0,0,0,.57.56c.24.09.36,0,.28-.28a1,1,0,0,0-.57-.56c-.24-.08-.36,0-.28.28m56.42.82a2.27,2.27,0,0,1,.56,1,.36.36,0,0,0,.34.38c.44,0-.11-1-.88-1.64-.56-.43-.56-.42,0,.22m5.94.1a2.22,2.22,0,0,0,.6,1c.33.28.38.21.25-.3a2.22,2.22,0,0,0-.6-1c-.33-.28-.38-.21-.25.3M85.59,128a3.68,3.68,0,0,0,1.13.46c.18,0,0-.21-.48-.46a3.68,3.68,0,0,0-1.13-.46c-.18,0,0,.21.48.46m114.26.56c.48.66,1,1.13,1.15,1,.36-.22.38-.49,0-.38-.15,0-.67-.35-1.16-.89l-.89-1,.87,1.2M310,128.8c0,.79.07,1.12.14.72a4.41,4.41,0,0,0,0-1.45c-.07-.4-.14-.07-.14.73m-31.71-.41a14.27,14.27,0,0,0,.07,2.5l.19,1.93.05-2.49c.05-2.41-.06-3.12-.31-1.94m-59.72.68a4.39,4.39,0,0,0-.49,1.4c0,.23.31-.14.67-.82s.58-1.31.49-1.4-.39.28-.67.82m51.87-.27a.83.83,0,0,0,.63.32.74.74,0,0,1,.61.33c.09.18.13.16.09,0s-.4-.5-.8-.65-.66-.15-.53.05m-80.09,1a4.5,4.5,0,0,1,1,1.29.32.32,0,0,0,.35.27c.19,0-.11-.58-.67-1.29a4.58,4.58,0,0,0-1.32-1.28c-.17,0,.14.45.67,1m129,.44c0,.7.07,1,.15.56a3.47,3.47,0,0,0,0-1.29c-.08-.31-.14,0-.14.73m-221.16,0a3.59,3.59,0,0,0,1.13.46c.18,0,0-.21-.48-.46a3.43,3.43,0,0,0-1.13-.46c-.18,0,0,.2.48.46m174-.37a4,4,0,0,0,.81,1.23c.44.53.8.8.8.6a3.1,3.1,0,0,0-.8-1.23c-.45-.48-.81-.75-.81-.6m37.8,2c0,.88.06,1.21.14.72a5.75,5.75,0,0,0,0-1.61c-.07-.4-.14,0-.13.89M93.33,131a6,6,0,0,0,1.29.51c.56.15.65.13.32-.08a5.85,5.85,0,0,0-1.29-.52c-.56-.14-.66-.12-.32.09m98.61,1c0,.17.33.48.73.69.72.38.72.38.11-.31s-.84-.84-.84-.38m44.81-.09a.72.72,0,0,0,.33.59c.2.13.31,1.42.28,3.26a14.79,14.79,0,0,0,.14,3.24c.47.47.21-6.23-.27-6.85-.26-.34-.47-.45-.48-.24m20.48,1.1a.35.35,0,0,0,.48.11c.16-.1.3,0,.3.16a.36.36,0,0,0,.39.34c.29,0,.3-.09,0-.38-.46-.47-1.44-.65-1.17-.23M140.86,134a24.35,24.35,0,0,1-2.48.95,14.19,14.19,0,0,0-1.94.77c-.93.43-2.83,1.15-4.21,1.62s-3.46,1.27-4.63,1.8a12.69,12.69,0,0,1-2.67,1c-1.24,0-1.8.81-1,1.4a2.74,2.74,0,0,0,1.25.51c.29,0,.18-.15-.25-.32-1-.38-.68-.8.83-1.29.66-.21,1.64-.57,2.17-.79s2.49-1,4.35-1.71,5.12-2,7.24-2.81c3.79-1.48,3.89-1.5,5.3-1.06,2.47.76,2.35.88-2.87,2.86-1.33.5-3.5,1.33-4.83,1.85-10.45,4.06-10.31,4-10.89,3.57s-.46-.32,0,.26l.59.7,2.79-1a26.68,26.68,0,0,0,3.12-1.23,8.92,8.92,0,0,1,1.56-.64,15.89,15.89,0,0,0,2.09-.84,3.81,3.81,0,0,1,1.29-.45,6,6,0,0,0,1.6-.55c.64-.3,2.54-1.08,4.24-1.71,3.61-1.37,3.91-1.92,1.65-3.11-1.73-.92-1.6-.92-4.38.23m-84.58.44c-.37.46.75,1.46,1.17,1.05.08-.09-.18-.26-.58-.39-.7-.22-.7-.25-.12-.68.33-.24.45-.44.26-.44a1.28,1.28,0,0,0-.73.46m169.93,1.64c0,1.24.06,1.71.13,1a12.17,12.17,0,0,0,0-2.26c-.07-.57-.13,0-.13,1.22m20-.16c0,1,.06,1.37.14.88a7.49,7.49,0,0,0,0-1.77c-.08-.49-.14-.09-.14.89m17.95-.68c0,.33,1.26,1.15,1.45.94.05-.06-.25-.36-.67-.68s-.78-.43-.78-.26m14.68.43a3.24,3.24,0,0,0,.51,1c.17.18.14-.15-.06-.72-.41-1.17-.79-1.44-.45-.32m9.84.5a7.45,7.45,0,0,0,1.82,3c.12,0,0-.17-.17-.39a1.57,1.57,0,0,1-.38-1c0-.32-.13-.58-.28-.58s-.43-.33-.62-.73-.36-.54-.37-.31m-142.95.66a2.15,2.15,0,0,0-.95.41,1.49,1.49,0,0,1-.88.29,4.65,4.65,0,0,0-1.63.58,14.19,14.19,0,0,1-2.62,1,17.39,17.39,0,0,0-2.72,1,5.6,5.6,0,0,1-1.7.59,2.81,2.81,0,0,0-1.36.78c-.46.42-.89.63-1,.45s-.55-.13-1.22.16a20.74,20.74,0,0,1-5.43,1.84,8.52,8.52,0,0,0-2.57.8,10.51,10.51,0,0,1-2.1.8,5.18,5.18,0,0,0-1.5.61,10.29,10.29,0,0,1-2.25.84,5,5,0,0,0-1.45.49,27.18,27.18,0,0,1-3.06,1.28,49.75,49.75,0,0,0-5.23,2.12,16.61,16.61,0,0,1-2.66.84,4.6,4.6,0,0,0-1.78.63c0,.12-.44.37-1,.56l-1,.34v7.1a63.74,63.74,0,0,0,.2,7.11,16.63,16.63,0,0,0,2-.78c1-.42,2.69-1.11,3.75-1.51a19.34,19.34,0,0,0,2.25-1,5.62,5.62,0,0,1,1.52-.45,3.2,3.2,0,0,0,1.57-.68,1.36,1.36,0,0,1,.88-.44c.75,0,2.64-.74,2.64-1,0-.14.26-.25.57-.25a9.73,9.73,0,0,0,2.18-.62l3.86-1.48c1.24-.48,3-1.17,4-1.53s2.47-1,3.33-1.41a8.42,8.42,0,0,1,2-.76,16.66,16.66,0,0,0,2.66-.93c1.24-.52,3.18-1.26,4.32-1.65a41.15,41.15,0,0,0,4.87-2,2.55,2.55,0,0,1,1-.3c1.07,0,1.19-.82,1.1-7.46-.09-6.37-.11-6.56-.73-6.45m120.43.54c.2.44.41.76.46.71.2-.2-.29-1.52-.56-1.52s-.11.36.1.81m-201.81,1a3.43,3.43,0,0,0,1.13.46c.18,0,0-.2-.48-.46a3.68,3.68,0,0,0-1.13-.46c-.18,0,0,.21.48.46m6.77,0a3.35,3.35,0,0,0,1.13.46c.18,0,0-.2-.49-.46a3.65,3.65,0,0,0-1.12-.46c-.18,0,0,.21.48.46m3.22,1.29a3.43,3.43,0,0,0,1.13.46c.18,0,0-.2-.48-.46a3.68,3.68,0,0,0-1.13-.46c-.18,0,0,.21.48.46m191.58,1c-.42.86-.51,1.31-.26,1.22s1.27-2.3,1-2.5a3.84,3.84,0,0,0-.77,1.28m-29.15-.36c0,.43-.18.84-.4.92s-.3.26-.16.41c.32.35.53.09.87-1.1.18-.61.17-1,0-1s-.3.35-.3.78m54.1-.38a1.52,1.52,0,0,0,1.13.53c.65,0,.65,0,0-.2a3.65,3.65,0,0,1-1.13-.52c-.42-.32-.42-.3,0,.19m26,.64c-.72,1-.62,1.45.15.57.6-.69.83-1.29.5-1.29a2.51,2.51,0,0,0-.65.72m-63-.13c0,.17.36.54.81.83s.8.38.8.2a.31.31,0,0,0-.3-.33,1.76,1.76,0,0,1-.8-.5c-.28-.28-.51-.37-.51-.2m-176.9.16c.92.66,1.91,1.14,1.91.92s-.37-.44-.83-.65c-.75-.34-1.4-.51-1.08-.27m173,.39c-.63.75-.18.89.48.15.33-.35.44-.64.26-.64a1.27,1.27,0,0,0-.74.49m-178.22.31a3.61,3.61,0,0,0,1.13.47c.18,0,0-.21-.48-.47a3.59,3.59,0,0,0-1.13-.46c-.18,0,0,.21.48.46m2.9,1.12a2.36,2.36,0,0,0,1.11.33c.82,0,.56-.18-.62-.44-.71-.16-.84-.13-.49.11m144.08.33c0,.58.53,1.5.74,1.28s0-.51-.29-1-.45-.61-.45-.33m96.5.33c-.85.94-.45,1.06.44.14.42-.44.62-.79.45-.79a1.94,1.94,0,0,0-.89.65m-54.54.22a2.69,2.69,0,0,0,1.13,0c.31-.08.05-.15-.57-.15s-.87.07-.56.15m-28.44.74-1.77.22,1.61.05a5.15,5.15,0,0,0,2.09-.27c.27-.17.34-.29.16-.26l-2.09.26m79.6,2.54c0,.4,1.33,2,1.51,1.86s-.15-.46-.53-.84-.6-.82-.49-1,0-.31-.15-.31a.32.32,0,0,0-.34.28M288,148a4.49,4.49,0,0,0,1.37.81,3.92,3.92,0,0,1,1.27.76c.17.24.24.23.25,0s-.72-.72-1.61-1.16-1.46-.61-1.28-.39m-48.59.78c-1.08.66-1.49,1.24-.48.69.74-.41,1.89-1.31,1.69-1.31a5.68,5.68,0,0,0-1.21.62m29.32-.2c-.39.2-.72.48-.72.62,0,.31,1.17-.29,1.45-.74.11-.17.15-.3.1-.28l-.83.4m-44.23.53a2.6,2.6,0,0,0,.86.64c.12,0,0-.29-.37-.64a2.07,2.07,0,0,0-.86-.65c-.15,0,0,.29.37.65m5.8,1.61c0,.18.22.32.49.32s.48-.14.48-.32-.22-.32-.48-.32-.49.14-.49.32m2.26,0c0,.41.34.41,1,0,.39-.25.34-.31-.24-.32-.4,0-.73.14-.73.32m29.26.06c.3.31.48.31.78,0s.21-.38-.39-.38-.69.09-.39.38m35.19-.06c.63.41,1,.41,1,0,0-.18-.32-.32-.72-.32-.59,0-.64.07-.25.32m2.9,0c0,.18.21.32.47.32a.83.83,0,0,0,.66-.32c.11-.18-.1-.32-.46-.32s-.67.14-.67.32m17.41,2.12c0,.34,1,1.18,1.18,1s0-.41-.31-.69c-.52-.51-.87-.64-.87-.31m-9.72,1.65c.82,1.18,2.68,2.74,2.94,2.45.09-.1,0-.26-.31-.34a9.1,9.1,0,0,1-1.91-1.65c-1-1.08-1.24-1.21-.72-.46" transform="translate(-55.3 -79.95)"/><path id="path3" class="cls-4" d="M57.39,97.66c1.21.56,7.46,3,8.54,3.27a22.11,22.11,0,0,1,2.26.88l2.54,1.11a18.11,18.11,0,0,0,1.93.74c.47.14,1.36.48,2,.75a2.41,2.41,0,0,0,1.54.25c.25-.16-.11-.4-1-.68a7.41,7.41,0,0,1-1.69-.7,1.53,1.53,0,0,0-.88-.27c-.32,0-.58-.14-.58-.32s-.3-.32-.66-.32a5.38,5.38,0,0,1-1.85-.61,11.73,11.73,0,0,0-2.33-.84,5,5,0,0,1-1.45-.49,51,51,0,0,0-8.13-3.05l-1.21-.18,1,.46m24,9.19c0,.17.55.48,1.21.69s1.64.57,2.18.8,1.62.65,2.41,1,1.89.73,2.42,1,1.48.6,2.1.82,1.85.72,2.73,1.12a18.17,18.17,0,0,0,2.66,1,2.6,2.6,0,0,1,1.23.52c.25.41,2.4.38,2.4,0,0-.18-.44-.32-1-.32a7.12,7.12,0,0,1-2.34-.61c-.75-.33-1.87-.78-2.49-1s-1.78-.69-2.58-1a30.6,30.6,0,0,0-4-1.58,17.32,17.32,0,0,1-2.34-1,4.6,4.6,0,0,0-1.63-.57,1.54,1.54,0,0,1-.88-.28c-.47-.44-2.08-.74-2.08-.4m98,23.23v19.66h7.45l-.1-12.4c-.06-8.14,0-12.4.23-12.39a31,31,0,0,1,3.38,3.92l6.38,8.11c1.83,2.32,3.6,4.59,3.93,5,5.69,7.48,5.76,7.54,9.41,7.68l3.17.13-.08-19.62-.09-19.61H206l-.08,12.49c0,6.86-.21,12.48-.35,12.48-.32,0-2.1-2.07-5.79-6.76-1.47-1.86-2.9-3.66-3.18-4s-1.53-1.93-2.8-3.54-2.7-3.37-3.18-3.9a3.58,3.58,0,0,1-.89-1.37c0-.23-.12-.41-.26-.41a9.86,9.86,0,0,1-1.81-2.1c-1.84-2.51-2.92-3-6-3h-2.22v19.65M257.52,111c-11.21,4.58-11,18.21.29,21.55a8.39,8.39,0,0,1,2.06.82,3.67,3.67,0,0,0,1.56.43c5.49.5,7.57,6.92,3,9.15-1.87.91-5.2.91-6,0-.3-.35-.62-.5-.72-.35-.2.33-2.68-.72-3.84-1.63-1.62-1.26-2.8-.71-4.59,2.14-1.38,2.19-1.37,2.32.13,3.42a13.26,13.26,0,0,0,2.16,1.3c.45.17,1.23.52,1.73.77,9.5,4.71,20.87-.67,21.4-10.13.33-6-2.14-9.19-8.95-11.51a12.06,12.06,0,0,1-1.93-.78,2.31,2.31,0,0,0-1-.24c-2.12-.15-5.3-2.46-5.43-3.94-.42-4.6,4-6.58,9.28-4.15,4.3,2,4.75,1.89,6.35-1.27l1.12-2.23-.71-.65c-3.1-2.85-11.86-4.34-15.86-2.71m35.62,0c-4.55,1.43-9.84,5.24-11.16,8-.29.6-.73,1.09-1,1.09s-.38.13-.28.31a3.9,3.9,0,0,1-.45,1.85c-1.8,4.26-1.8,12.21,0,16.12a7.82,7.82,0,0,1,.63,1.69c0,.18.11.33.25.33s.53.53.88,1.17c3,5.6,12.3,9.62,19.66,8.52l2.25-.34,1.57,1.69,2.9,3.15c2.13,2.32,3,2.6,8,2.5l4.25-.09-4.56-5.09c-5.29-5.91-5-5.13-2.94-7.06,8.34-8,7.7-23.21-1.29-30.3-4.59-3.62-13.29-5.29-18.69-3.58m32.23,19.11v19.66h22.88v-7.12l-7.25.1-7.25.1-.08-16.12-.09-16.11-4.11-.09-4.1-.09v19.67M58.2,115.89l-.81.24.81.35c4,1.75,6.24,2.65,6.7,2.65a4.23,4.23,0,0,1,1.57.62,11.09,11.09,0,0,0,2.09.94,60.14,60.14,0,0,1,6,2.28c.82.44,2.21.45,2.47,0s-1.73-1.29-4.19-2.09c-2-.64-8.06-3-11-4.22a29.26,29.26,0,0,0-2.74-1.06c-.07,0-.49.14-.93.27m244.92,2.16c9.34,3.43,10.05,19.77,1,24-5.45,2.59-14.26-.38-15.41-5.2a3.85,3.85,0,0,0-.56-1.3c-.23-.29-.36-2.25-.36-5.35s.13-5.07.36-5.35a3.8,3.8,0,0,0,.55-1.28,4.5,4.5,0,0,1,.77-1.51c.32-.37.86-1.06,1.2-1.53,1.91-2.61,8.53-4,12.42-2.53M229,122a21,21,0,0,0-7.06,3.37c-3.27,3.05-5.14,11-3.54,15.11,2.68,6.81,6.73,9.71,13.54,9.71,5.49,0,11.7-3.49,12.46-7,0-.2.29-1,.56-1.8a17,17,0,0,0,1.07-6.16,25.88,25.88,0,0,0-1.2-5.29,2.38,2.38,0,0,1-.38-1,2.44,2.44,0,0,0-.43-1c-.18-.2-.83-1-1.45-1.81C240.12,123,234.1,121.2,229,122m-147.1,3.29c-.11.19-.16.38-.1.41a19.12,19.12,0,0,0,3.66,1.5,4.8,4.8,0,0,1,1.52.57,16.26,16.26,0,0,0,2.35,1,73.17,73.17,0,0,1,7.59,2.93c1.5.68,3.85.91,3.85.37,0-.16-.54-.47-1.21-.69s-2.08-.79-3.15-1.27S93.8,129,93,128.69s-2.24-.81-3.22-1.19-2.64-1-3.7-1.35a11.75,11.75,0,0,1-2.24-.94,1.76,1.76,0,0,0-2,.06M234.7,128c4.06,1.92,4.52,12.19.7,15.41-1.47,1.24-5.56,1.21-7.06-.06-2.7-2.27-3.24-10.63-.91-14,1.26-1.81,4.9-2.5,7.27-1.37m-177,6.56c-.54.13-.72.26-.41.28a13.68,13.68,0,0,1,2.57,1A22.2,22.2,0,0,0,63,137a10.37,10.37,0,0,1,2.26.84,6.08,6.08,0,0,0,1.39.61,13.21,13.21,0,0,1,2,.8,11,11,0,0,0,2.16.81,10.52,10.52,0,0,1,2.12.8,8.34,8.34,0,0,0,3.2.81c1.68,0,1.53-.36-.42-1a16.7,16.7,0,0,1-2.41-1,5.09,5.09,0,0,0-1.63-.6,8.26,8.26,0,0,1-2.1-.76A70.12,70.12,0,0,0,63,135.69a20.4,20.4,0,0,1-2.72-1.15c-.36-.31-1.23-.29-2.59.06" transform="translate(-55.3 -79.95)"/><path id="path4" class="cls-5" d="M103.64,80.51c0,.2.1.28.21.16s.41,0,.65.15.43.24.43,0-.23-.41-.51-.52c-.7-.27-.78-.25-.78.18M89.78,83.68c-.39.25-.34.31.24.31.4,0,.73-.13.73-.31,0-.4-.34-.4-1,0m21.76,0a1.13,1.13,0,0,0,.9.3c.68,0,.68,0,.06-.3q-1.32-.57-1,0m-24.32,1a4,4,0,0,0-1,.74,9.7,9.7,0,0,0,2.67-1.12c.53-.5-.75-.21-1.69.38m31.24,1.69a3.78,3.78,0,0,0,1.13.46c.18,0,0-.21-.48-.46A3.35,3.35,0,0,0,118,86c-.18,0,0,.2.48.46m5.16,1.74c0,.35,1,.76,1.25.5.1-.1,0-.32-.29-.48-.6-.38-1-.39-1,0M130.89,91c.77.66,2.05,1,2.28.61.12-.21.11-.28,0-.16s-.56,0-.93-.24c-.7-.49-1.87-.68-1.32-.21m-60.77.38c-.39.26-.34.32.25.32.39,0,.72-.14.72-.32,0-.4-.34-.4-1,0M68,92.17c-.58.19-1,.47-1,.63s.26.19.56.06a10.09,10.09,0,0,1,1.13-.39c.31-.09.57-.29.57-.45s0-.26-.08-.24L68,92.17m31.26,4.27c-1.21.52-1.43.9-.28.46.43-.16.86-.2,1-.1s.2,0,.2-.16.39-.41.88-.48c.83-.13.83-.14.08-.16a5.25,5.25,0,0,0-1.85.44m46.73.5c1.48.55,1.1,1.33-1.13,2.3a13.15,13.15,0,0,1-2.43.87,4.65,4.65,0,0,0-1.45.54c-.57.29-2.48,1.07-4.26,1.72-3.17,1.17-6.78,2.57-8.72,3.39-.86.36-1,.34-1.35-.12s-.36-.48-.38,0-.28.57-.76.57a1.81,1.81,0,0,0-1.12.38c-.29.29-.53.24-1-.22-.78-.71-1.27-.41-.52.33s.65,1-.4,1.22a17.44,17.44,0,0,0-2.72,1,16.88,16.88,0,0,1-2,.82c-.24,0-5.8,2.15-7.1,2.74a12.23,12.23,0,0,1-1.93.66,5.26,5.26,0,0,0-1.29.46,17.25,17.25,0,0,1-4.4,1.59c-1.52-.25-1.57,0-1.57,8,0,6.82,0,7.54-.53,7.54-.3,0-.44.1-.32.22s.76-.08,1.42-.45a16.59,16.59,0,0,1,2.5-1.06,6.42,6.42,0,0,0,1.59-.68,1.49,1.49,0,0,1,.88-.29,4.43,4.43,0,0,0,1.63-.64,4.36,4.36,0,0,1,1.61-.64,11.88,11.88,0,0,0,2.59-.94c4.58-2.1,7-2.76,7.64-2.14a1.23,1.23,0,0,0,1,.39c.27-.11.22-.17-.15-.19-.94,0-.63-.63.62-1.15,1-.44,1.23-.44,1.72,0a1.81,1.81,0,0,0,.95.49c.23,0,.07-.28-.35-.62s-.69-.69-.6-.77a71.8,71.8,0,0,1,7.41-3,4,4,0,0,0,1.13-.39,18.62,18.62,0,0,1,2.26-1c2.59-1,3.08-1.17,4-1.56.44-.18,1.31-.51,1.93-.72s1.6-.6,2.17-.85c.92-.41,1.13-.4,1.84.06a2,2,0,0,0,1.37.37c.46-.12.43-.15-.14-.18-1.05-.06-.89-.49.4-1.1l1.13-.54v-8c0-8.39-.07-8.8-1.44-8.75-.53,0-.49.09.23.35m-90.18.3A.65.65,0,0,0,56,98c.32.29.37.25.22-.17s0-.62.19-.7.3-.16,0-.18a.72.72,0,0,0-.61.32m43.85,1.27a.35.35,0,0,1-.48.15.38.38,0,0,0-.49.17.37.37,0,0,1-.48.16.35.35,0,0,0-.48.16.39.39,0,0,1-.51.15c-.16-.11-.3,0-.3.17s-.13.28-.3.17a.37.37,0,0,0-.5.15.39.39,0,0,1-.51.15c-.16-.1-.3,0-.3.17s-.14.27-.32.17-.32,0-.32.14-.11.32-.24.3c-.69-.11-1.38.08-1.38.37s.27.2.73,0,.72-.33.72-.26a24.61,24.61,0,0,0,4.44-1.54c.66-.28,1.21-.64,1.21-.79,0-.37-.24-.34-.49.06m2.74-.06c0,.34,1.64,1.1,1.87.87s0-.18-.28-.18-.38,0,0-.28.32-.31-.1-.47-.44-.07-.33.12,0,.32-.14.32a.34.34,0,0,1-.34-.33.32.32,0,0,0-.33-.32.3.3,0,0,0-.32.27m-10.47.88c-1.4.67-1.5.78-.73.78.49,0,.89-.14.89-.32s.11-.29.24-.25a3.4,3.4,0,0,0,1.21-.47c1.48-.83.21-.62-1.61.26m54.6,6.75,0,6.93-.85.18a9.88,9.88,0,0,0-1.5.46c-.36.16-1.23.46-1.94.69a6.84,6.84,0,0,0-1.59.66,1.57,1.57,0,0,1-.89.26,2.81,2.81,0,0,0-1.15.3,13.63,13.63,0,0,1-3.35,1.31,2.75,2.75,0,0,0-1.16.5c-.4.28-.87.42-1,.31s-.33-.07-.33.1A8.14,8.14,0,0,1,130,119a57.52,57.52,0,0,0-5.57,2.28,28.41,28.41,0,0,1-4.48,1.76,21.72,21.72,0,0,0-3.06,1c-1.85.75-5.53,2.18-7.44,2.89a18,18,0,0,0-2.09.89,8.9,8.9,0,0,1-1.77.59,9,9,0,0,0-2.34,1c-.92.58-1.27.67-1.39.35-.25-.66,0-13.45.25-13.47a10,10,0,0,0,1.54-.47c.76-.26,1.29-.32,1.29-.13s.32,0,.71-.34a2.43,2.43,0,0,1,1-.66,8.17,8.17,0,0,0,1.63-.64,6.53,6.53,0,0,1,1.8-.63,9.81,9.81,0,0,0,2.17-.82,9.65,9.65,0,0,1,2.08-.8,2.42,2.42,0,0,0,1-.43,10.34,10.34,0,0,1,2.09-.86c.79-.24,2-.69,2.74-1,1.6-.69,2.38-1,2.55-.86s.48-.25.9-.65a4.4,4.4,0,0,1,1.88-.91,11.33,11.33,0,0,0,3.25-1.12,8.66,8.66,0,0,1,1.68-.48,3.23,3.23,0,0,0,1.52-.66,4.07,4.07,0,0,1,1.95-.65c.87-.12,1.57-.32,1.57-.46a8.68,8.68,0,0,1,2.5-1.14,24.77,24.77,0,0,0,2.82-1.12,15,15,0,0,1,2.1-.79,8.18,8.18,0,0,0,2.24-1c1.24-1.16,1.33-.72,1.28,6.49m-41.87-6.5a4.35,4.35,0,0,0,1.39.63c1,.33,1.4.36,1.4.11s-.3-.37-.67-.38a5.57,5.57,0,0,1-1.4-.27c-.4-.13-.72-.18-.72-.09m-15.71.87c-.4.16-.73.36-.73.44,0,.32,1.19,0,1.57-.36s.2-.5-.84-.08m19.57.54c.27.1.78.33,1.13.51.58.3.6.27.2-.21a1.61,1.61,0,0,0-1.12-.51c-.48,0-.54.09-.21.21m-22.63.69c-1.13.49-1.59,1-.91,1a8.64,8.64,0,0,0,2.6-1.48c0-.21-.42-.1-1.69.47m6.06-.24c.09.14-.36.35-1,.47a2.65,2.65,0,0,0-1.32.5.32.32,0,0,1-.4.16c-.12-.07-.43.09-.68.36s-.32.44-.16.37,1.2-.48,2.31-.9c1.93-.73,2.54-1.21,1.54-1.21-.25,0-.39.11-.31.25m23.84.11a2.58,2.58,0,0,0,1.19.49c.31,0,.57.15.57.33s.4.31.88.3.67-.1.41-.19-1.1-.44-1.85-.78q-2.46-1.11-1.2-.15m-32.89,1.33-1,.46,1-.19c1-.2,1.33-.37,1.1-.59a2.19,2.19,0,0,0-1.1.32m30.14,0a3.41,3.41,0,0,0,1.12.46c.18,0,0-.2-.48-.46a3.59,3.59,0,0,0-1.13-.46c-.17,0,0,.21.49.46m-32.55.94c-2.24.84-2.9,1.15-2.9,1.33s1.09,0,1.54-.4a.9.9,0,0,1,.8-.25,1.76,1.76,0,0,0,1.2-.49c1-.74.87-.76-.64-.19m4.19.58c-.39.31-.85.49-1,.4s-.29,0-.29.16,0,.34.12.34a19,19,0,0,0,3.1-1.44c0-.34-1.3,0-1.93.54m37.87-.07c-.12.19,0,.23.35.11s.48-.09.32.16,0,.3.3.17.44-.26.1-.48c-.57-.35-.84-.35-1.07,0M263.25,110a2.36,2.36,0,0,0,1.12,0c.32-.08.06-.14-.56-.14s-.87.06-.56.14m37.06,0a2.4,2.4,0,0,0,1.13,0c.31-.08.05-.14-.57-.14s-.87.06-.56.14M179,110.32c-.3.3-.28,40,0,40.13.13.05,2,0,4.11-.08l3.87-.17-3.95-.07-4-.06.09-20c.05-11,.07-20,.06-20a1.14,1.14,0,0,0-.24.22m145.92.19c-.09.22-.12,9.32-.07,20.22l.08,19.82.16-20.22c.09-11.13.12-20.23.07-20.23s-.16.19-.24.41m9.35,16.35c0,8.78,0,12.37.09,8s.05-11.57,0-16-.09-.8-.09,8m-82.83-12.77c-.46.5-.86,1.17-.7,1.17.35,0,1.52-1.25,1.29-1.39s-.41,0-.59.22m-194,.8c-.1.15.46.26,1.23.24s1.24-.14,1-.27c-.51-.32-2.07-.3-2.27,0m89.29,1.28c.2.76-.31,1.14-2.47,1.83a13.08,13.08,0,0,0-2.1.81,4.67,4.67,0,0,1-1.13.48,14.83,14.83,0,0,0-1.77.67c-.53.25-1.76.72-2.74,1.06s-3.48,1.3-5.57,2.14c-3.67,1.48-3.81,1.51-4.43,1-.35-.31-.73-.48-.85-.36s0,.21.16.21c.78,0,.33.52-.93,1.06s-2.12.5-1.74-.11c.1-.17,0-.3-.14-.3s-.29.37-.25.82c.07.95.65.67-10.1,4.82-4,1.55-7.72,3-8.3,3.27a2.18,2.18,0,0,1-1.36.27c-1.41-.87-1.62.17-1.62,8.11v7.6l.73-.17c.4-.09,1.89-.63,3.3-1.19s3.67-1.42,5-1.92,2.78-1.05,3.22-1.25c.9-.4,6.26-2.48,8.13-3.14.74-.27,1.27-.31,1.39-.12a.38.38,0,0,0,.51.12c.2-.13.18-.36,0-.63-.38-.46.43-1.12,1.39-1.12a13.54,13.54,0,0,0,2.59-1c1.17-.53,3.26-1.34,4.63-1.8s3.28-1.19,4.21-1.62a15.16,15.16,0,0,1,1.91-.77c.11,0,1.35-.46,2.76-1,2.1-.84,2.67-1,3.17-.64s.61.26.61,0,.51-.55,1.13-.81l1.13-.47v-8a57.86,57.86,0,0,0-.3-8.22c-.16-.1-.22.09-.13.41m149.8,2c-.13.2.17.3.76.25s.9-.18.81-.33a1.24,1.24,0,0,0-1.57.08m3.18-.1c.39.38,1.89.48,1.66.11a1.39,1.39,0,0,0-1-.34c-.47,0-.74.1-.62.23m-153.2,6.85v6.76l-.88.17a27.82,27.82,0,0,0-2.82.86,25.12,25.12,0,0,1-2.82.83c-.49.09-.89.27-.89.4s-.62.42-1.37.64-2.08.69-2.94,1a10.24,10.24,0,0,1-2,.61c-.24,0-.44.14-.44.32s-.22.32-.49.32a2.78,2.78,0,0,0-1,.29,40.84,40.84,0,0,1-4.11,1.64,26.08,26.08,0,0,0-2.74,1.17c-.77.45-2.16,1.12-5,2.43a7.83,7.83,0,0,1-1.65.6,12.42,12.42,0,0,0-2.16.81,5.1,5.1,0,0,1-2.14.62c-.16-.1-.3,0-.3.11s-.61.48-1.37.72a11.15,11.15,0,0,0-1.69.65,5.58,5.58,0,0,1-1.28.45,15.39,15.39,0,0,0-2.31.85,8.2,8.2,0,0,1-1.79.63,2.41,2.41,0,0,0-1,.48c-1.43,1.08-1.47.9-1.47-6.65v-7.13l.8.16c.45.08.81.06.81-.06a3.49,3.49,0,0,1,1.45-.63c.8-.24,1.45-.56,1.45-.72s.36-.28.8-.28.81.15.81.34.15.25.33.14.26-.32.17-.45,1.69-1.15,3.21-1.52a13.39,13.39,0,0,0,2.38-1,8.11,8.11,0,0,1,1.7-.76,8.55,8.55,0,0,0,1.64-.61,27.55,27.55,0,0,1,2.66-1,6.3,6.3,0,0,0,1.59-.67,1.5,1.5,0,0,1,.89-.29c.31,0,.58-.12.58-.28,0-.36,3-1.65,3.82-1.65a1.1,1.1,0,0,0,.85-.32,1.06,1.06,0,0,1,.82-.32,41.39,41.39,0,0,0,7-2.6,8.66,8.66,0,0,1,1.67-.63,25.2,25.2,0,0,0,3-1.12,22.55,22.55,0,0,1,3.05-1.13,4.42,4.42,0,0,0,1.3-.48c2.09-1.09,2.05-1.21,2.05,6.27m147.69-6.35c-.74.34-1,.88-.41.88a.33.33,0,0,0,.32-.34c0-.19.12-.27.26-.18a.8.8,0,0,0,.68-.1c.66-.41-.05-.63-.85-.26m9.64.42a7.76,7.76,0,0,0,1.61,1.24c1.06.61,1.06.61.53,0a7.76,7.76,0,0,0-1.61-1.24c-1.06-.61-1.06-.61-.53,0M292,120.14c-.61.69-.61.69.09.32s1.27-1,.81-1a2.14,2.14,0,0,0-.9.69m-63.46,1.15a2.4,2.4,0,0,0-1,.49c-.23.23-.07.27.48.14a6.45,6.45,0,0,1,1.37-.21c.31,0,.56-.15.56-.33s-.35-.35-1.45-.09m5.32.09c0,.18.29.33.64.33s.65-.15.65-.33-.29-.32-.65-.32-.64.15-.64.32m73.46.62a3.74,3.74,0,0,1,.66,1.29.34.34,0,0,0,.33.35c.19,0,0-.58-.4-1.29a3.59,3.59,0,0,0-1-1.29c-.14,0,0,.42.41.94m-17.56.65c.1.16,0,.36-.23.44s-.28.26-.14.42.39.06.56-.2c.39-.63.38-1,0-1-.19,0-.26.13-.16.3M74.63,124a2.36,2.36,0,0,0,1.11.33c.82,0,.56-.18-.62-.44-.71-.16-.84-.13-.49.11m5.73.56c-.31.08-.57.28-.57.45s.22.2.57,0,.78-.37,1-.47c.63-.23-.17-.23-1,0m208.11.74a1.2,1.2,0,0,0-.06.86c.08.08.26-.16.38-.54s.15-.76.06-.85-.26.15-.38.53m20.94,2.08a5.31,5.31,0,0,0,.33,1.42c.31.31.14-1.74-.18-2.21s-.29-.14-.15.79m9.91.82c0,.62.06.88.14.57a2.69,2.69,0,0,0,0-1.13c-.08-.31-.14-.06-.14.56m-89.14-.08c-.08.13.53.2,1.35.15,2.36-.15,2.64-.31.64-.35a4.92,4.92,0,0,0-2,.2m57.59,2.18c0,1.24.06,1.7.12,1a12.17,12.17,0,0,0,0-2.26c-.07-.57-.13,0-.12,1.22m-59.73-1c-.42.44-.7.84-.62.9s.52-.32,1-.81.76-.9.62-.9a3.09,3.09,0,0,0-1,.81m7.16-.17a2.44,2.44,0,0,0,.88.83c.27.1.13-.19-.29-.64-.93-1-1.13-1.05-.59-.19m42.87,1.14c0,.7.07,1,.15.56a3.47,3.47,0,0,0,0-1.29c-.08-.31-.14,0-.14.73m-41.85,1a3.17,3.17,0,0,1,.2.66c0,.09.14.07.3,0,.38-.23.08-1.14-.37-1.14-.18,0-.24.23-.13.51m-9.47.54c0,.58.07.63.32.24.4-.63.4-1,0-1-.18,0-.32.33-.32.73m92.57.56c0,.62.06.88.14.57a2.69,2.69,0,0,0,0-1.13c-.08-.31-.14-.06-.14.56M309.6,132c0,.27-.14.84-.22,1.28s-.05.7.21.44a1.78,1.78,0,0,0,.22-1.28c-.08-.51-.17-.71-.21-.44M237,135c.17,3.63.35,3.85.38.48a9.64,9.64,0,0,0-.24-3c-.15-.09-.21,1-.14,2.48m-90.52-.67c.72.92.24,1.38-2.41,2.32-1.37.49-3.26,1.24-4.19,1.67a10.15,10.15,0,0,1-2.12.77,3.84,3.84,0,0,0-1.28.45,15.89,15.89,0,0,1-2.09.84,8.92,8.92,0,0,0-1.56.64c-1.46,1.09-5.93,2.18-6.47,1.59a1.74,1.74,0,0,0-.92-.61c-.19,0-.09.16.21.34.89.51.69.81-1,1.41-3.59,1.29-5.16,1.89-6.44,2.47a9.6,9.6,0,0,1-1.63.6,29,29,0,0,0-3,1.16c-1.5.63-3.09,1.27-3.53,1.42a56.06,56.06,0,0,0-5.66,2.2c-1.42.82,1.24.27,3.56-.74,1.69-.74,2.51-1.06,5.32-2.11a27.18,27.18,0,0,0,3.06-1.28,5,5,0,0,1,1.45-.49,10.29,10.29,0,0,0,2.25-.84,5.18,5.18,0,0,1,1.5-.61,10.51,10.51,0,0,0,2.1-.8,8.52,8.52,0,0,1,2.57-.8,20.74,20.74,0,0,0,5.43-1.84c.67-.29,1.16-.35,1.22-.16s.49,0,1-.45a2.81,2.81,0,0,1,1.36-.78,5.6,5.6,0,0,0,1.7-.59,17.39,17.39,0,0,1,2.72-1,14.19,14.19,0,0,0,2.62-1,4.65,4.65,0,0,1,1.68-.58,1.05,1.05,0,0,0,.79-.29,1.9,1.9,0,0,1,1-.44l.81-.15-.08,6.77c-.1,7.27,0,6.81-1.86,7.57l-1.93.81c-.63.26-2.06.8-3.19,1.2s-3.08,1.13-4.32,1.65a16.66,16.66,0,0,1-2.66.93,8.42,8.42,0,0,0-2,.76c-.86.41-2.36,1.05-3.33,1.41s-2.79,1.05-4,1.53l-3.86,1.48a9.73,9.73,0,0,1-2.18.62c-.31,0-.57.11-.57.25,0,.3-1.89,1-2.64,1a1.36,1.36,0,0,0-.88.44,3.2,3.2,0,0,1-1.57.68,5.62,5.62,0,0,0-1.52.45,19.34,19.34,0,0,1-2.25,1c-1.06.4-2.75,1.09-3.75,1.51a16.63,16.63,0,0,1-2,.78,63.74,63.74,0,0,1-.2-7.11v-7.1l1-.34c.53-.19,1-.47,1-.63,0-.39-.45-.36-1.44.08l-.82.38v7.68c0,5.24.11,7.68.35,7.68a18.68,18.68,0,0,0,2.73-1,7.49,7.49,0,0,1,2.71-.79c.19.12.34.06.34-.13,0-.46,2.28-1.38,3-1.2.31.09.56,0,.56-.13,0-.33,1-.9,1.83-1.05a11.68,11.68,0,0,0,1.87-.66,12.8,12.8,0,0,1,1.77-.64,6.47,6.47,0,0,0,1.46-.59,13,13,0,0,1,1.77-.74c.45-.13,1.24-.43,1.78-.65,4.29-1.86,8.67-3.38,9.2-3.22s.63.05.63-.28c0-.52,2-1.35,3-1.22.31.05.56,0,.56-.2a10.24,10.24,0,0,1,2.82-1.33c1.55-.58,3.44-1.33,4.2-1.67a7.68,7.68,0,0,1,1.8-.62,7.2,7.2,0,0,0,1.84-.75l1.43-.75.08-7.91c.08-7.23,0-7.94-.48-8.35s-.53-.4-.13.11m114.77-.08c0,.14.29.33.65.42s.64.05.64-.08-.29-.33-.64-.43-.65-.05-.65.09m13.86,3.23a5.72,5.72,0,0,0,.14,1.9,10,10,0,0,0,.08-3.73c-.12-.11-.22.7-.22,1.83m32.31.81c-.74,1.13-.71,1.47.05.71.59-.59,1.22-1.84.93-1.84-.14,0-.58.51-1,1.13m-17.48-.3a3.91,3.91,0,0,0,.83,1.26l.83,1-.73-1.13c-.93-1.45-.93-1.45-.93-1.1m-63.45,1.26c.37,1.42.92,2.23.92,1.37a.93.93,0,0,0-.32-.73.35.35,0,0,1-.18-.45c.09-.14,0-.53-.3-.87-.41-.54-.42-.47-.12.68m10.27-.32c0,.26.15.48.32.48s.32-.22.32-.48-.14-.48-.32-.48-.32.21-.32.48m14.75,1a3.49,3.49,0,0,0,1.29,0c.31-.09,0-.15-.73-.15s-1,.07-.56.15m40.76.64c.31.08.57.28.57.44a5.79,5.79,0,0,0,2.52,1.27,6.29,6.29,0,0,0-1.34-1,5.89,5.89,0,0,0-1.92-.93c-.22,0-.14.1.17.18m-56.83,1.8c-.47.4-1.12.89-1.45,1.11-.58.37-.58.38,0,.16a5.18,5.18,0,0,0,2.2-1.6c.34-.56.18-.49-.79.33m113.15,3.94c0,2,.13,3.38.32,3.38s.32-1.34.32-3.38-.12-3.38-.32-3.38-.32,1.34-.32,3.38m-77.67,1c-.22.27-.26.48-.08.48a1.31,1.31,0,0,0,.73-.48c.22-.27.25-.49.07-.49a1.3,1.3,0,0,0-.72.49m20.79,2.33c.5.52,1.77.82,1.77.43,0-.19-.21-.35-.46-.35a4,4,0,0,1-1-.2c-.41-.15-.49-.11-.27.12m-55.84.42c-1,.4-.9.55.24.38.54-.08,1-.27,1-.43,0-.35-.25-.34-1.21.05m-26.74.22a20,20,0,0,0,2.9,0c.75-.06.06-.12-1.54-.12s-2.2.06-1.36.12m84.67,0c0,.18.26.33.57.32a15.18,15.18,0,0,1,1.85.21c.87.14,1.13.11.8-.1-.76-.48-3.22-.81-3.22-.43m9,0c-.34.22-.19.29.55.27.56,0,.95-.15.86-.3-.22-.35-.82-.34-1.41,0m28.45-.06c3.33.05,8.7.05,11.92,0s.5-.1-6.06-.1-9.2,0-5.86.1m-102.26.4c0,.18.29.32.64.32s.64-.14.64-.32-.29-.32-.64-.32-.64.14-.64.32m4.51,0c-.38.24-.29.31.4.32.49,0,.89-.14.89-.32,0-.41-.66-.41-1.29,0m24.81,0c0,.18.3.32.67.32s.57-.14.46-.32a.84.84,0,0,0-.66-.32c-.26,0-.47.14-.47.32m4.35,0c-.11.18.1.32.47.32s.66-.14.66-.32-.21-.32-.46-.32a.85.85,0,0,0-.67.32m38.35,0c-.11.18.1.32.47.32s.66-.14.66-.32-.21-.32-.46-.32a.85.85,0,0,0-.67.32m12.41,7.09c.65.42,8.06.42,8.06,0,0-.2-1.64-.32-4.27-.32-2.88,0-4.11.11-3.79.32" transform="translate(-55.3 -79.95)"/></g></svg>