<svg id="svg" version="1.1" xmlns="http://www.w3.org/2000/svg" xmlns:xlink="http://www.w3.org/1999/xlink" width="400" height="162.7906976744186" viewBox="0, 0, 400,162.7906976744186"><g id="svgg"><path id="path0" d="M58.833 47.475 C 58.833 47.553,58.075 47.662,57.149 47.719 C 56.223 47.775,55.379 47.890,55.274 47.974 C 55.105 48.110,54.553 48.229,53.383 48.381 C 53.181 48.407,52.962 48.482,52.897 48.548 C 52.831 48.613,52.565 48.667,52.306 48.667 C 52.046 48.667,51.833 48.736,51.833 48.821 C 51.833 48.906,51.421 49.028,50.917 49.091 C 50.413 49.154,50.000 49.265,50.000 49.339 C 50.000 49.413,49.756 49.526,49.458 49.589 C 49.160 49.653,48.842 49.763,48.750 49.833 C 48.658 49.904,48.340 50.014,48.042 50.077 C 47.744 50.141,47.500 50.256,47.500 50.332 C 47.500 50.408,47.200 50.521,46.833 50.583 C 46.467 50.645,46.167 50.764,46.167 50.848 C 46.167 50.932,46.054 51.000,45.917 51.000 C 45.779 51.000,45.667 51.075,45.667 51.167 C 45.667 51.258,45.572 51.333,45.457 51.333 C 45.342 51.333,44.892 51.523,44.457 51.754 C 44.022 51.985,43.664 52.117,43.662 52.046 C 43.659 51.975,43.580 52.048,43.487 52.208 C 43.393 52.369,43.208 52.500,43.075 52.500 C 42.942 52.500,42.833 52.575,42.833 52.667 C 42.833 52.758,42.726 52.833,42.595 52.833 C 42.464 52.833,42.257 52.927,42.134 53.042 C 42.012 53.156,41.636 53.391,41.299 53.563 C 40.962 53.735,40.647 53.978,40.598 54.104 C 40.550 54.230,40.396 54.333,40.255 54.333 C 40.115 54.333,40.000 54.396,40.000 54.473 C 40.000 54.550,39.829 54.691,39.621 54.786 C 39.203 54.976,38.782 55.318,37.365 56.621 C 36.843 57.101,36.369 57.494,36.310 57.496 C 36.175 57.501,34.500 59.160,34.500 59.290 C 34.500 59.342,34.203 59.676,33.841 60.032 C 33.478 60.387,33.011 60.919,32.804 61.214 C 32.596 61.509,32.295 61.893,32.135 62.067 C 31.976 62.241,31.881 62.442,31.925 62.513 C 31.969 62.584,31.858 62.689,31.678 62.747 C 31.498 62.804,31.299 63.012,31.237 63.209 C 31.174 63.406,31.020 63.670,30.895 63.796 C 30.769 63.921,30.667 64.131,30.667 64.262 C 30.667 64.393,30.609 64.500,30.538 64.500 C 30.468 64.500,30.225 64.837,30.000 65.250 C 29.775 65.662,29.532 66.000,29.462 66.000 C 29.391 66.000,29.333 66.112,29.333 66.250 C 29.333 66.387,29.258 66.500,29.167 66.500 C 29.075 66.500,29.008 66.556,29.018 66.625 C 29.053 66.865,28.793 67.500,28.660 67.500 C 28.587 67.500,28.477 67.725,28.417 68.000 C 28.356 68.275,28.244 68.500,28.167 68.500 C 28.090 68.500,27.977 68.726,27.916 69.002 C 27.813 69.472,27.513 70.209,27.156 70.873 C 27.070 71.032,27.000 71.276,27.000 71.414 C 27.000 71.553,26.934 71.667,26.852 71.667 C 26.771 71.667,26.654 72.004,26.592 72.417 C 26.530 72.829,26.415 73.167,26.335 73.167 C 26.256 73.167,26.139 73.580,26.076 74.086 C 26.013 74.591,25.901 75.042,25.827 75.087 C 25.753 75.133,25.641 75.657,25.577 76.252 C 25.513 76.847,25.401 77.333,25.328 77.333 C 25.255 77.333,25.141 78.158,25.076 79.167 C 25.011 80.175,24.890 81.000,24.808 81.000 C 24.724 81.000,24.679 82.332,24.705 84.042 C 24.756 87.467,24.791 87.541,26.079 86.930 C 26.384 86.785,26.754 86.667,26.900 86.667 C 27.047 86.667,27.167 86.601,27.167 86.521 C 27.167 86.441,27.482 86.326,27.867 86.264 C 28.252 86.202,28.646 86.091,28.742 86.016 C 28.838 85.941,29.142 85.826,29.417 85.761 C 29.692 85.696,30.104 85.471,30.333 85.262 C 30.715 84.912,31.606 84.564,36.417 82.882 C 38.614 82.114,38.601 82.128,38.742 80.326 C 38.806 79.505,38.919 78.833,38.993 78.833 C 39.068 78.833,39.180 78.421,39.243 77.917 C 39.306 77.412,39.409 77.000,39.471 77.000 C 39.534 77.000,39.683 76.756,39.802 76.458 C 39.921 76.160,40.124 75.692,40.254 75.417 C 40.383 75.142,40.537 74.710,40.596 74.458 C 40.655 74.206,40.764 74.000,40.838 74.000 C 40.913 74.000,41.023 73.775,41.083 73.500 C 41.144 73.225,41.261 73.000,41.343 73.000 C 41.426 73.000,41.541 72.813,41.598 72.583 C 41.656 72.354,41.762 72.167,41.833 72.167 C 41.905 72.167,42.011 71.979,42.068 71.750 C 42.126 71.521,42.247 71.333,42.337 71.333 C 42.426 71.333,42.500 71.255,42.500 71.159 C 42.500 71.063,42.688 70.810,42.917 70.598 C 43.146 70.386,43.333 70.143,43.333 70.060 C 43.333 69.976,43.465 69.781,43.625 69.626 C 44.205 69.067,44.500 68.720,44.500 68.596 C 44.500 68.527,44.927 68.083,45.448 67.610 C 45.969 67.137,46.641 66.512,46.940 66.222 C 47.239 65.932,47.637 65.646,47.825 65.586 C 48.013 65.526,48.167 65.408,48.167 65.322 C 48.167 65.237,48.250 65.167,48.351 65.167 C 48.452 65.167,48.819 64.942,49.167 64.667 C 49.514 64.392,49.881 64.167,49.982 64.167 C 50.084 64.167,50.167 64.092,50.167 64.000 C 50.167 63.908,50.319 63.833,50.505 63.833 C 50.691 63.833,50.885 63.725,50.936 63.594 C 51.018 63.379,51.910 63.060,52.051 63.196 C 52.082 63.226,52.238 63.119,52.399 62.958 C 52.559 62.798,52.835 62.667,53.012 62.667 C 53.189 62.667,53.333 62.601,53.333 62.521 C 53.333 62.441,53.633 62.328,54.000 62.269 C 54.367 62.211,54.667 62.089,54.667 61.998 C 54.667 61.907,54.892 61.833,55.167 61.833 C 55.442 61.833,55.667 61.765,55.667 61.682 C 55.667 61.599,56.060 61.478,56.542 61.412 C 57.023 61.347,57.458 61.228,57.508 61.149 C 57.559 61.070,58.480 60.955,59.556 60.894 C 60.632 60.832,61.551 60.718,61.599 60.641 C 61.723 60.441,63.500 60.465,63.500 60.667 C 63.500 60.758,63.864 60.833,64.308 60.833 C 65.650 60.833,67.662 61.040,67.582 61.170 C 67.540 61.236,67.957 61.342,68.508 61.404 C 69.070 61.468,69.466 61.587,69.411 61.675 C 69.358 61.762,69.539 61.833,69.814 61.833 C 70.089 61.833,70.356 61.903,70.409 61.987 C 70.461 62.072,70.733 62.191,71.013 62.253 C 71.293 62.314,71.724 62.470,71.970 62.598 C 72.215 62.726,72.510 62.832,72.625 62.832 C 72.740 62.833,72.833 62.908,72.833 63.000 C 72.833 63.092,72.919 63.167,73.023 63.167 C 73.276 63.167,74.735 63.883,74.806 64.042 C 74.836 64.110,74.967 64.167,75.097 64.167 C 75.227 64.167,75.333 64.246,75.333 64.343 C 75.333 64.440,75.408 64.473,75.500 64.417 C 75.592 64.360,75.667 64.393,75.667 64.490 C 75.667 64.587,75.745 64.667,75.840 64.667 C 75.936 64.667,76.105 64.742,76.215 64.835 C 76.326 64.928,76.679 65.227,77.000 65.499 C 77.321 65.772,77.641 65.996,77.712 65.997 C 77.783 65.999,78.253 66.412,78.757 66.917 C 79.626 67.785,80.187 68.039,80.417 67.667 C 80.473 67.575,80.684 67.500,80.885 67.499 C 81.086 67.498,81.465 67.386,81.727 67.249 C 81.990 67.112,82.346 67.000,82.519 67.000 C 82.692 67.000,82.833 66.932,82.833 66.848 C 82.833 66.764,83.133 66.645,83.500 66.583 C 83.867 66.521,84.167 66.411,84.167 66.337 C 84.167 66.264,84.429 66.155,84.750 66.094 C 85.071 66.034,85.333 65.909,85.333 65.817 C 85.333 65.609,86.050 65.305,88.500 64.473 C 89.554 64.115,90.529 63.777,90.667 63.720 C 90.804 63.664,91.359 63.459,91.899 63.266 C 93.223 62.792,93.376 62.517,92.697 61.838 C 92.405 61.546,92.167 61.240,92.167 61.157 C 92.167 60.796,86.756 55.619,85.712 54.980 C 85.366 54.769,84.992 54.518,84.881 54.423 C 84.281 53.911,84.166 53.833,84.007 53.833 C 83.911 53.833,83.833 53.760,83.833 53.670 C 83.833 53.580,83.646 53.459,83.417 53.402 C 83.188 53.344,83.000 53.236,83.000 53.160 C 83.000 53.085,82.662 52.855,82.250 52.649 C 81.837 52.443,81.500 52.219,81.500 52.150 C 81.500 52.082,81.275 51.977,81.000 51.917 C 80.725 51.856,80.500 51.746,80.500 51.671 C 80.500 51.597,80.298 51.486,80.052 51.424 C 79.805 51.362,79.393 51.161,79.135 50.978 C 78.877 50.794,78.667 50.702,78.667 50.772 C 78.667 50.842,78.577 50.810,78.467 50.700 C 78.357 50.590,78.132 50.500,77.967 50.500 C 77.802 50.500,77.667 50.432,77.667 50.348 C 77.667 50.264,77.367 50.145,77.000 50.083 C 76.633 50.021,76.333 49.903,76.333 49.821 C 76.333 49.738,76.033 49.623,75.667 49.564 C 75.300 49.505,75.000 49.397,75.000 49.322 C 75.000 49.248,74.644 49.136,74.208 49.073 C 73.773 49.010,73.342 48.908,73.250 48.847 C 72.873 48.596,71.882 48.343,71.537 48.410 C 71.333 48.449,71.167 48.410,71.167 48.324 C 71.167 48.237,70.957 48.167,70.700 48.167 C 70.443 48.167,70.160 48.093,70.070 48.003 C 69.980 47.913,69.137 47.789,68.197 47.728 C 67.257 47.666,66.449 47.552,66.401 47.475 C 66.287 47.290,58.833 47.290,58.833 47.475 M88.583 70.621 C 87.850 70.761,87.212 70.932,87.167 71.000 C 87.121 71.069,86.835 71.179,86.530 71.245 C 86.226 71.311,85.776 71.470,85.530 71.598 C 85.285 71.726,84.957 71.832,84.802 71.832 C 84.646 71.833,84.473 71.908,84.417 72.000 C 84.360 72.092,84.168 72.167,83.990 72.167 C 83.812 72.167,83.667 72.235,83.667 72.318 C 83.667 72.401,83.292 72.520,82.833 72.583 C 82.375 72.646,82.000 72.763,82.000 72.841 C 82.000 72.920,81.737 73.034,81.417 73.094 C 81.096 73.155,80.833 73.263,80.833 73.336 C 80.833 73.409,80.458 73.520,80.000 73.583 C 79.542 73.646,79.167 73.766,79.167 73.849 C 79.167 73.932,79.056 74.000,78.920 74.000 C 78.253 74.000,77.333 74.542,77.333 74.935 C 77.333 75.154,77.390 75.334,77.458 75.335 C 77.527 75.336,77.731 75.673,77.912 76.085 C 78.093 76.497,78.294 76.833,78.357 76.833 C 78.421 76.833,78.524 77.063,78.586 77.345 C 78.648 77.626,78.803 78.057,78.931 78.303 C 79.060 78.549,79.165 78.881,79.166 79.042 C 79.166 79.202,79.233 79.333,79.314 79.333 C 79.395 79.333,79.513 79.746,79.576 80.250 C 79.639 80.754,79.755 81.167,79.833 81.167 C 79.911 81.167,80.028 81.843,80.093 82.670 C 80.157 83.497,80.275 84.214,80.355 84.263 C 80.435 84.313,80.500 85.286,80.500 86.427 C 80.500 88.159,80.541 88.500,80.750 88.500 C 80.887 88.500,81.000 88.434,81.000 88.352 C 81.000 88.271,81.337 88.154,81.750 88.092 C 82.162 88.030,82.500 87.909,82.500 87.823 C 82.500 87.737,82.688 87.667,82.917 87.667 C 83.146 87.667,83.333 87.600,83.333 87.519 C 83.333 87.438,83.671 87.321,84.083 87.259 C 84.496 87.197,84.833 87.077,84.833 86.992 C 84.833 86.907,85.133 86.789,85.500 86.731 C 85.867 86.672,86.168 86.577,86.169 86.520 C 86.172 86.356,87.525 85.778,89.333 85.167 C 89.929 84.965,90.567 84.739,90.750 84.664 C 90.933 84.588,91.646 84.322,92.333 84.073 C 93.021 83.823,93.677 83.545,93.792 83.456 C 94.040 83.261,94.078 81.500,93.833 81.500 C 93.742 81.500,93.667 81.087,93.667 80.583 C 93.667 80.079,93.601 79.667,93.522 79.667 C 93.442 79.667,93.325 79.142,93.261 78.500 C 93.198 77.858,93.085 77.333,93.009 77.333 C 92.934 77.333,92.820 76.921,92.757 76.417 C 92.694 75.912,92.578 75.500,92.498 75.500 C 92.419 75.500,92.303 75.162,92.241 74.750 C 92.179 74.337,92.072 74.000,92.002 74.000 C 91.933 74.000,91.828 73.700,91.769 73.333 C 91.711 72.967,91.589 72.667,91.498 72.667 C 91.407 72.667,91.333 72.547,91.333 72.400 C 91.333 71.778,90.377 70.289,90.016 70.350 C 89.961 70.359,89.317 70.481,88.583 70.621 M99.167 86.609 C 99.029 86.654,98.767 86.755,98.583 86.834 C 98.400 86.912,97.800 87.129,97.250 87.315 C 96.700 87.501,95.612 87.888,94.833 88.175 C 94.054 88.461,93.117 88.794,92.750 88.914 C 92.171 89.104,87.977 90.587,86.357 91.175 C 85.898 91.342,85.771 91.337,85.651 91.148 C 85.571 91.021,85.495 90.973,85.482 91.042 C 85.469 91.110,85.441 91.223,85.419 91.292 C 85.398 91.360,85.323 91.660,85.252 91.958 C 85.182 92.256,85.059 92.500,84.979 92.500 C 84.899 92.500,84.833 92.624,84.833 92.776 C 84.833 93.127,83.677 95.480,83.297 95.900 C 83.140 96.075,83.051 96.281,83.099 96.359 C 83.147 96.436,83.107 96.500,83.010 96.500 C 82.913 96.500,82.833 96.579,82.833 96.675 C 82.833 96.771,82.646 97.023,82.417 97.235 C 82.188 97.448,82.000 97.695,82.000 97.785 C 82.000 97.875,81.850 98.084,81.667 98.250 C 81.483 98.416,81.333 98.623,81.333 98.710 C 81.333 98.886,78.434 101.833,78.261 101.833 C 78.201 101.833,77.950 102.021,77.703 102.250 C 77.456 102.479,77.184 102.667,77.099 102.667 C 77.014 102.667,76.826 102.781,76.681 102.920 C 76.111 103.468,75.109 104.167,74.894 104.167 C 74.769 104.167,74.667 104.233,74.667 104.315 C 74.667 104.396,74.402 104.513,74.079 104.573 C 73.755 104.634,73.530 104.747,73.578 104.824 C 73.659 104.956,72.895 105.253,72.625 105.194 C 72.556 105.179,72.500 105.236,72.500 105.320 C 72.500 105.404,72.275 105.523,72.000 105.583 C 71.725 105.644,71.500 105.762,71.500 105.847 C 71.500 105.931,71.313 106.000,71.083 106.000 C 70.854 106.000,70.667 106.066,70.667 106.148 C 70.667 106.229,70.329 106.346,69.917 106.408 C 69.504 106.470,69.167 106.585,69.167 106.664 C 69.167 106.742,68.660 106.860,68.042 106.926 C 67.423 106.991,66.863 107.128,66.798 107.230 C 66.630 107.494,58.642 107.490,58.317 107.227 C 58.189 107.123,57.614 106.984,57.041 106.919 C 56.468 106.854,55.960 106.737,55.912 106.660 C 55.865 106.583,55.490 106.469,55.079 106.407 C 54.669 106.346,54.333 106.229,54.333 106.148 C 54.333 106.066,54.202 105.998,54.042 105.995 C 53.881 105.992,53.604 105.879,53.426 105.745 C 53.249 105.610,52.967 105.500,52.801 105.500 C 52.636 105.500,52.500 105.425,52.500 105.333 C 52.500 105.242,52.406 105.166,52.292 105.166 C 52.177 105.165,51.569 104.901,50.939 104.578 C 50.232 104.215,49.723 104.046,49.606 104.135 C 49.502 104.214,48.929 104.450,48.333 104.658 C 47.737 104.867,46.762 105.210,46.167 105.421 C 45.571 105.633,44.408 106.043,43.583 106.334 C 40.611 107.382,39.244 107.870,38.917 108.002 C 38.733 108.076,37.871 108.389,37.001 108.698 C 35.971 109.063,35.401 109.353,35.367 109.531 C 35.318 109.787,36.754 111.333,37.041 111.333 C 37.112 111.333,37.544 111.708,38.000 112.167 C 38.456 112.625,38.893 113.000,38.972 113.000 C 39.051 113.000,39.251 113.150,39.417 113.333 C 39.583 113.517,39.819 113.667,39.942 113.667 C 40.066 113.667,40.167 113.725,40.167 113.797 C 40.167 113.869,40.410 114.071,40.708 114.246 C 41.006 114.421,41.341 114.644,41.453 114.741 C 41.987 115.205,42.138 115.301,42.513 115.419 C 42.735 115.488,42.954 115.591,43.000 115.647 C 43.046 115.704,43.458 115.938,43.917 116.167 C 44.375 116.396,44.788 116.621,44.833 116.667 C 45.049 116.882,45.997 117.333,46.234 117.333 C 46.380 117.333,46.500 117.408,46.500 117.500 C 46.500 117.592,46.632 117.667,46.794 117.667 C 46.956 117.667,47.368 117.817,47.710 118.000 C 48.052 118.183,48.482 118.333,48.666 118.333 C 48.850 118.333,49.000 118.404,49.000 118.490 C 49.000 118.576,49.338 118.697,49.750 118.759 C 50.163 118.821,50.500 118.938,50.500 119.019 C 50.500 119.100,50.683 119.167,50.907 119.167 C 51.131 119.167,51.356 119.235,51.407 119.318 C 51.458 119.401,51.875 119.520,52.333 119.583 C 52.791 119.646,53.205 119.760,53.252 119.836 C 53.298 119.912,53.842 120.027,54.460 120.092 C 55.078 120.158,55.625 120.275,55.675 120.353 C 55.726 120.432,56.869 120.546,58.217 120.607 C 59.564 120.668,60.667 120.782,60.667 120.859 C 60.667 121.043,64.287 121.043,64.401 120.859 C 64.448 120.782,65.556 120.668,66.861 120.605 C 68.167 120.543,69.276 120.429,69.326 120.351 C 69.376 120.274,69.923 120.158,70.542 120.092 C 71.160 120.027,71.667 119.904,71.667 119.820 C 71.667 119.736,71.830 119.667,72.031 119.667 C 72.490 119.667,74.388 119.147,74.500 118.991 C 74.546 118.927,74.902 118.821,75.292 118.756 C 75.681 118.691,76.000 118.569,76.000 118.485 C 76.000 118.402,76.131 118.331,76.292 118.328 C 76.452 118.325,76.883 118.177,77.250 118.000 C 77.617 117.823,78.085 117.675,78.292 117.672 C 78.498 117.669,78.667 117.610,78.668 117.542 C 78.669 117.473,79.007 117.269,79.418 117.088 C 79.830 116.907,80.167 116.706,80.167 116.643 C 80.167 116.579,80.386 116.478,80.655 116.419 C 80.924 116.360,81.233 116.204,81.342 116.073 C 81.451 115.941,81.644 115.833,81.770 115.833 C 81.897 115.833,82.000 115.764,82.000 115.680 C 82.000 115.596,82.225 115.477,82.500 115.417 C 82.775 115.356,83.000 115.252,83.000 115.184 C 83.000 115.117,83.281 114.903,83.625 114.709 C 83.969 114.515,84.406 114.210,84.596 114.032 C 84.787 113.853,85.105 113.656,85.304 113.592 C 85.504 113.529,85.667 113.410,85.667 113.326 C 85.667 113.243,85.894 113.058,86.171 112.914 C 86.449 112.771,86.874 112.431,87.116 112.160 C 87.357 111.889,87.620 111.667,87.699 111.667 C 87.879 111.667,91.267 108.257,91.833 107.507 C 92.063 107.203,92.381 106.835,92.542 106.690 C 92.702 106.545,92.833 106.330,92.833 106.213 C 92.833 106.096,92.903 106.000,92.989 106.000 C 93.074 106.000,93.197 105.834,93.261 105.631 C 93.326 105.429,93.556 105.123,93.772 104.953 C 93.989 104.782,94.167 104.535,94.167 104.405 C 94.167 104.274,94.240 104.167,94.330 104.167 C 94.420 104.167,94.541 103.979,94.598 103.750 C 94.656 103.521,94.764 103.333,94.840 103.333 C 94.915 103.333,95.151 102.977,95.363 102.542 C 95.576 102.106,95.806 101.725,95.875 101.694 C 95.944 101.664,96.000 101.542,96.000 101.423 C 96.000 101.305,96.112 101.114,96.250 101.000 C 96.388 100.886,96.500 100.652,96.500 100.480 C 96.500 100.307,96.567 100.167,96.648 100.167 C 96.730 100.167,96.845 99.904,96.906 99.583 C 96.966 99.263,97.081 99.000,97.161 99.000 C 97.241 99.000,97.356 98.775,97.417 98.500 C 97.477 98.225,97.596 98.000,97.680 98.000 C 97.764 98.000,97.836 97.831,97.839 97.625 C 97.842 97.419,97.990 96.950,98.167 96.583 C 98.344 96.217,98.491 95.748,98.494 95.542 C 98.497 95.335,98.575 95.167,98.667 95.167 C 98.758 95.167,98.833 94.957,98.833 94.700 C 98.833 94.443,98.913 94.154,99.010 94.057 C 99.107 93.960,99.230 93.458,99.283 92.940 C 99.336 92.423,99.439 92.000,99.510 92.000 C 99.582 92.000,99.687 91.494,99.745 90.875 C 99.802 90.256,99.921 89.620,100.008 89.461 C 100.095 89.301,100.167 88.570,100.167 87.836 C 100.167 86.415,100.079 86.308,99.167 86.609 M30.792 90.953 C 30.540 90.991,30.333 91.088,30.333 91.168 C 30.333 91.247,29.996 91.364,29.583 91.425 C 29.171 91.487,28.833 91.596,28.833 91.667 C 28.833 91.738,28.496 91.846,28.083 91.908 C 27.671 91.970,27.333 92.084,27.333 92.162 C 27.333 92.240,27.033 92.355,26.667 92.417 C 26.300 92.479,26.000 92.598,26.000 92.681 C 26.000 92.765,25.831 92.836,25.625 92.839 C 25.419 92.842,25.063 92.952,24.833 93.083 C 24.604 93.214,24.248 93.324,24.042 93.327 C 23.835 93.331,23.667 93.407,23.667 93.498 C 23.667 93.589,23.367 93.711,23.000 93.769 C 22.633 93.828,22.333 93.933,22.333 94.002 C 22.333 94.072,21.996 94.179,21.583 94.241 C 21.171 94.303,20.833 94.419,20.833 94.499 C 20.833 94.579,20.627 94.668,20.375 94.697 C 19.893 94.753,19.699 96.711,20.148 96.988 C 20.241 97.046,20.368 97.410,20.430 97.797 C 20.492 98.183,20.600 98.500,20.669 98.500 C 20.739 98.500,20.846 98.837,20.908 99.250 C 20.970 99.662,21.082 100.000,21.157 100.000 C 21.272 100.000,21.474 100.430,21.561 100.861 C 21.573 100.922,21.640 101.028,21.708 101.097 C 21.777 101.166,21.833 101.360,21.833 101.528 C 21.833 101.696,21.900 101.833,21.982 101.833 C 22.064 101.833,22.178 102.021,22.235 102.250 C 22.293 102.479,22.407 102.667,22.490 102.667 C 22.573 102.667,22.690 102.892,22.750 103.167 C 22.810 103.442,22.910 103.667,22.972 103.668 C 23.033 103.669,23.266 104.082,23.490 104.585 C 23.714 105.088,23.958 105.500,24.032 105.500 C 24.106 105.500,24.167 105.604,24.167 105.732 C 24.167 105.860,24.279 106.008,24.417 106.060 C 24.554 106.113,24.667 106.309,24.667 106.495 C 24.667 106.681,24.744 106.833,24.839 106.833 C 24.933 106.833,25.060 106.965,25.121 107.125 C 25.352 107.735,26.500 108.188,26.500 107.669 C 26.500 107.578,26.800 107.456,27.167 107.397 C 27.533 107.339,27.833 107.230,27.833 107.156 C 27.833 107.081,28.171 106.970,28.583 106.908 C 28.996 106.846,29.333 106.729,29.333 106.648 C 29.333 106.566,29.483 106.500,29.667 106.500 C 29.850 106.500,30.000 106.435,30.000 106.355 C 30.000 106.275,30.300 106.161,30.667 106.103 C 31.033 106.044,31.333 105.916,31.333 105.819 C 31.333 105.722,31.465 105.668,31.625 105.700 C 31.785 105.732,32.029 105.637,32.167 105.490 C 32.304 105.342,33.167 104.979,34.083 104.683 C 35.000 104.387,35.900 104.082,36.083 104.005 C 36.267 103.929,36.904 103.697,37.500 103.491 C 39.216 102.898,39.280 102.627,38.002 101.374 C 37.634 101.014,37.333 100.666,37.333 100.601 C 37.333 100.537,37.146 100.310,36.917 100.098 C 36.688 99.886,36.500 99.632,36.500 99.534 C 36.500 99.437,36.406 99.255,36.292 99.130 C 36.006 98.819,35.794 98.454,35.055 97.000 C 34.705 96.313,34.368 95.712,34.306 95.665 C 34.244 95.618,34.142 95.374,34.078 95.123 C 34.015 94.872,33.906 94.667,33.834 94.667 C 33.763 94.667,33.654 94.329,33.592 93.917 C 33.530 93.504,33.415 93.167,33.335 93.167 C 33.256 93.167,33.139 92.754,33.076 92.250 C 33.013 91.746,32.895 91.333,32.814 91.333 C 32.733 91.333,32.667 91.221,32.667 91.083 C 32.667 90.832,31.929 90.780,30.792 90.953 " stroke="none" fill="#db242c" fill-rule="evenodd"></path><path id="path1" d="M140.834 68.456 C 140.146 68.489,139.512 68.588,139.425 68.675 C 139.338 68.762,139.057 68.833,138.800 68.833 C 138.543 68.833,138.333 68.906,138.333 68.995 C 138.333 69.084,138.223 69.114,138.088 69.062 C 137.836 68.966,136.833 69.331,136.833 69.519 C 136.833 69.577,136.533 69.672,136.167 69.731 C 135.800 69.789,135.500 69.911,135.500 70.002 C 135.500 70.093,135.385 70.167,135.245 70.167 C 135.104 70.167,134.946 70.279,134.894 70.417 C 134.841 70.554,134.708 70.667,134.599 70.667 C 134.102 70.667,131.167 73.502,131.167 73.982 C 131.167 74.083,131.092 74.167,131.000 74.167 C 130.908 74.167,130.833 74.319,130.833 74.505 C 130.833 74.691,130.720 74.887,130.582 74.940 C 130.444 74.993,130.285 75.328,130.228 75.685 C 130.171 76.042,130.060 76.333,129.981 76.333 C 129.902 76.333,129.789 76.633,129.731 77.000 C 129.672 77.367,129.559 77.667,129.479 77.667 C 129.399 77.667,129.333 77.817,129.333 78.000 C 129.333 78.183,129.263 78.333,129.177 78.333 C 129.091 78.333,129.016 78.465,129.010 78.625 C 128.980 79.448,128.771 80.430,128.605 80.536 C 128.344 80.701,128.342 88.021,128.602 88.349 C 128.758 88.546,128.961 89.450,129.037 90.292 C 129.047 90.406,129.118 90.500,129.194 90.500 C 129.271 90.500,129.333 90.725,129.333 91.000 C 129.333 91.275,129.399 91.500,129.479 91.500 C 129.559 91.500,129.672 91.800,129.731 92.167 C 129.789 92.533,129.905 92.833,129.989 92.833 C 130.072 92.833,130.190 93.058,130.250 93.333 C 130.310 93.608,130.421 93.833,130.495 93.833 C 130.570 93.833,130.681 94.036,130.743 94.283 C 130.806 94.531,131.039 94.902,131.262 95.109 C 131.484 95.315,131.669 95.544,131.671 95.617 C 131.678 95.811,132.811 97.000,132.989 97.000 C 133.073 97.000,133.356 97.215,133.619 97.478 C 133.881 97.740,134.262 98.008,134.465 98.072 C 134.667 98.136,134.833 98.259,134.833 98.345 C 134.833 98.430,134.946 98.500,135.083 98.500 C 135.221 98.500,135.333 98.569,135.333 98.653 C 135.333 98.738,135.558 98.856,135.833 98.917 C 136.108 98.977,136.333 99.095,136.333 99.178 C 136.333 99.261,136.633 99.377,137.000 99.436 C 137.367 99.495,137.667 99.605,137.667 99.682 C 137.667 99.759,138.043 99.872,138.504 99.933 C 138.964 99.994,139.381 100.109,139.430 100.189 C 139.547 100.378,145.333 100.378,145.333 100.188 C 145.333 100.108,145.858 99.991,146.500 99.928 C 147.142 99.865,147.667 99.749,147.667 99.670 C 147.667 99.591,147.900 99.475,148.184 99.413 C 148.835 99.270,150.333 98.501,150.333 98.310 C 150.333 98.231,150.448 98.167,150.589 98.167 C 150.729 98.167,150.886 98.057,150.937 97.923 C 150.989 97.789,151.183 97.631,151.369 97.572 C 151.746 97.452,152.723 96.498,153.138 95.843 C 153.287 95.609,153.504 95.357,153.621 95.283 C 153.738 95.210,153.833 95.041,153.833 94.908 C 153.833 94.775,153.907 94.667,153.997 94.667 C 154.087 94.667,154.207 94.479,154.265 94.250 C 154.322 94.021,154.430 93.833,154.505 93.833 C 154.579 93.833,154.690 93.608,154.750 93.333 C 154.810 93.058,154.911 92.833,154.973 92.833 C 155.107 92.833,155.437 92.100,155.592 91.458 C 155.653 91.206,155.763 91.000,155.836 91.000 C 155.909 91.000,156.022 90.606,156.088 90.125 C 156.153 89.644,156.292 89.196,156.395 89.131 C 156.528 89.047,156.583 87.649,156.583 84.417 C 156.583 81.184,156.528 79.786,156.395 79.702 C 156.292 79.637,156.153 79.190,156.088 78.708 C 156.022 78.227,155.901 77.833,155.818 77.833 C 155.735 77.833,155.667 77.713,155.667 77.567 C 155.667 77.278,155.172 76.136,154.988 76.000 C 154.926 75.954,154.822 75.673,154.758 75.375 C 154.693 75.077,154.573 74.833,154.490 74.833 C 154.407 74.833,154.293 74.646,154.235 74.417 C 154.178 74.188,154.069 74.000,153.993 74.000 C 153.918 74.000,153.810 73.855,153.754 73.678 C 153.621 73.259,151.241 70.879,150.822 70.746 C 150.645 70.690,150.500 70.582,150.500 70.507 C 150.500 70.431,150.313 70.322,150.083 70.265 C 149.854 70.207,149.667 70.090,149.667 70.004 C 149.667 69.919,149.404 69.799,149.083 69.739 C 148.762 69.679,148.500 69.572,148.500 69.501 C 148.500 69.430,148.331 69.318,148.125 69.252 C 147.919 69.186,147.637 69.097,147.500 69.053 C 147.362 69.009,147.025 68.933,146.750 68.883 C 146.475 68.832,146.175 68.736,146.083 68.668 C 145.873 68.512,142.491 68.376,140.834 68.456 M267.125 68.444 C 266.690 68.485,266.333 68.579,266.333 68.652 C 266.333 68.726,265.910 68.830,265.393 68.884 C 264.876 68.937,264.373 69.060,264.276 69.157 C 264.179 69.254,263.965 69.333,263.800 69.333 C 263.635 69.333,263.500 69.405,263.500 69.492 C 263.500 69.580,263.237 69.701,262.917 69.761 C 262.596 69.821,262.333 69.937,262.333 70.019 C 262.333 70.100,262.251 70.167,262.151 70.167 C 261.851 70.167,259.960 72.134,260.078 72.324 C 260.137 72.421,260.107 72.500,260.010 72.500 C 259.913 72.500,259.833 72.606,259.833 72.736 C 259.833 72.866,259.757 72.998,259.664 73.029 C 259.570 73.060,259.447 73.479,259.390 73.959 C 259.333 74.440,259.222 74.833,259.143 74.833 C 259.065 74.833,259.000 75.733,259.000 76.833 C 259.000 77.933,259.065 78.833,259.145 78.833 C 259.225 78.833,259.339 79.133,259.397 79.500 C 259.456 79.867,259.570 80.167,259.651 80.167 C 259.731 80.167,259.840 80.338,259.893 80.547 C 260.077 81.283,262.197 83.209,263.061 83.426 C 263.302 83.487,263.500 83.597,263.500 83.671 C 263.500 83.746,263.725 83.856,264.000 83.917 C 264.275 83.977,264.500 84.090,264.500 84.167 C 264.500 84.244,264.725 84.356,265.000 84.417 C 265.275 84.477,265.500 84.586,265.500 84.659 C 265.500 84.731,265.800 84.839,266.167 84.897 C 266.533 84.956,266.833 85.078,266.833 85.169 C 266.833 85.259,266.979 85.333,267.157 85.333 C 267.335 85.333,267.527 85.408,267.583 85.500 C 267.640 85.592,267.813 85.667,267.968 85.668 C 268.123 85.668,268.451 85.774,268.697 85.902 C 268.943 86.030,269.379 86.187,269.667 86.250 C 269.954 86.313,270.390 86.470,270.636 86.598 C 270.882 86.726,271.177 86.832,271.292 86.832 C 271.406 86.833,271.500 86.902,271.500 86.987 C 271.500 87.071,271.725 87.190,272.000 87.250 C 272.275 87.310,272.500 87.429,272.500 87.513 C 272.500 87.598,272.612 87.667,272.750 87.667 C 272.887 87.667,273.000 87.737,273.000 87.822 C 273.000 87.908,273.154 88.026,273.342 88.086 C 273.719 88.206,274.833 89.257,274.833 89.494 C 274.833 89.576,274.965 89.774,275.125 89.935 C 275.456 90.266,275.562 93.408,275.250 93.631 C 275.070 93.760,274.777 94.196,274.472 94.792 C 274.366 94.998,274.185 95.167,274.069 95.167 C 273.953 95.167,273.717 95.345,273.546 95.563 C 273.375 95.780,272.976 96.015,272.659 96.084 C 272.342 96.152,272.030 96.293,271.964 96.396 C 271.801 96.654,266.535 96.657,266.369 96.399 C 266.304 96.298,265.969 96.163,265.625 96.100 C 265.281 96.037,264.999 95.932,264.998 95.867 C 264.997 95.803,264.678 95.601,264.290 95.418 C 263.901 95.235,263.484 94.991,263.363 94.876 C 263.242 94.761,263.036 94.667,262.905 94.667 C 262.774 94.667,262.667 94.597,262.667 94.511 C 262.667 94.426,262.501 94.303,262.299 94.239 C 262.097 94.175,261.742 93.907,261.512 93.644 C 260.836 92.875,259.930 93.239,259.041 94.638 C 258.885 94.883,258.662 95.143,258.546 95.217 C 258.032 95.539,258.615 97.167,259.244 97.167 C 259.306 97.167,259.462 97.260,259.589 97.375 C 260.156 97.883,260.330 97.993,260.724 98.092 C 260.954 98.149,261.182 98.299,261.230 98.424 C 261.341 98.713,262.537 99.295,263.317 99.438 C 263.647 99.499,263.961 99.616,264.016 99.700 C 264.070 99.784,264.539 99.896,265.057 99.949 C 265.576 100.003,266.000 100.111,266.000 100.190 C 266.000 100.269,267.350 100.333,269.000 100.333 C 270.650 100.333,272.000 100.268,272.000 100.188 C 272.000 100.108,272.450 99.992,273.000 99.930 C 273.550 99.868,274.000 99.751,274.000 99.672 C 274.000 99.592,274.225 99.477,274.500 99.417 C 274.775 99.356,275.000 99.244,275.000 99.167 C 275.000 99.090,275.215 98.979,275.477 98.922 C 275.739 98.864,276.114 98.633,276.309 98.408 C 276.505 98.184,276.744 98.000,276.840 98.000 C 277.086 98.000,277.833 97.166,277.833 96.892 C 277.833 96.768,277.908 96.667,278.000 96.667 C 278.246 96.667,279.160 95.140,279.163 94.722 C 279.165 94.524,279.260 94.330,279.375 94.292 C 279.655 94.198,279.675 88.880,279.396 88.702 C 279.293 88.637,279.157 88.345,279.094 88.053 C 279.030 87.762,278.871 87.434,278.739 87.324 C 278.608 87.215,278.500 87.064,278.500 86.989 C 278.500 86.785,276.547 84.833,276.343 84.833 C 276.246 84.833,276.167 84.760,276.167 84.670 C 276.167 84.580,275.979 84.459,275.750 84.402 C 275.521 84.344,275.333 84.236,275.333 84.162 C 275.333 84.087,275.108 83.977,274.833 83.917 C 274.558 83.856,274.333 83.741,274.333 83.661 C 274.333 83.581,274.071 83.466,273.750 83.406 C 273.429 83.345,273.167 83.234,273.167 83.158 C 273.167 83.082,272.829 82.970,272.417 82.908 C 272.004 82.846,271.667 82.738,271.667 82.667 C 271.667 82.597,271.498 82.484,271.292 82.417 C 271.085 82.350,270.879 82.276,270.833 82.254 C 270.787 82.232,270.506 82.156,270.208 82.086 C 269.910 82.016,269.667 81.894,269.667 81.814 C 269.667 81.735,269.367 81.623,269.000 81.564 C 268.633 81.505,268.333 81.398,268.333 81.325 C 268.333 81.253,268.108 81.144,267.833 81.083 C 267.558 81.023,267.333 80.910,267.333 80.833 C 267.333 80.756,267.108 80.644,266.833 80.583 C 266.558 80.523,266.333 80.420,266.333 80.354 C 266.333 80.288,266.066 80.137,265.739 80.019 C 265.412 79.901,265.104 79.698,265.055 79.569 C 265.005 79.439,264.871 79.333,264.757 79.333 C 264.424 79.333,263.690 78.567,263.572 78.098 C 263.513 77.861,263.397 77.667,263.315 77.667 C 263.234 77.667,263.167 77.067,263.167 76.333 C 263.167 75.600,263.234 75.000,263.315 75.000 C 263.397 75.000,263.511 74.811,263.569 74.581 C 263.697 74.070,264.164 73.500,264.454 73.500 C 264.571 73.500,264.667 73.430,264.667 73.345 C 264.667 73.259,264.835 73.136,265.042 73.072 C 265.248 73.008,265.462 72.884,265.518 72.798 C 265.573 72.712,265.929 72.600,266.309 72.549 C 266.689 72.498,267.000 72.391,267.000 72.311 C 267.000 72.232,267.900 72.167,269.000 72.167 C 270.100 72.167,271.000 72.231,271.000 72.311 C 271.000 72.390,271.322 72.499,271.716 72.553 C 272.109 72.607,272.653 72.766,272.924 72.908 C 273.195 73.049,273.510 73.165,273.625 73.166 C 273.740 73.166,273.833 73.236,273.833 73.320 C 273.833 73.404,274.052 73.522,274.319 73.580 C 274.587 73.639,274.847 73.795,274.898 73.927 C 274.948 74.059,275.095 74.167,275.224 74.167 C 275.354 74.167,275.553 74.279,275.667 74.417 C 276.111 74.952,278.167 73.983,278.167 73.238 C 278.167 73.186,278.279 73.030,278.417 72.893 C 278.847 72.462,278.744 71.359,278.262 71.238 C 278.040 71.182,277.817 71.031,277.767 70.902 C 277.718 70.772,277.562 70.667,277.422 70.667 C 277.282 70.667,277.167 70.593,277.167 70.503 C 277.167 70.413,276.979 70.293,276.750 70.235 C 276.521 70.178,276.333 70.065,276.333 69.984 C 276.333 69.903,276.033 69.789,275.667 69.731 C 275.300 69.672,275.000 69.559,275.000 69.479 C 275.000 69.399,274.887 69.333,274.750 69.333 C 274.612 69.333,274.500 69.250,274.500 69.149 C 274.500 69.047,274.390 69.007,274.255 69.058 C 274.121 69.110,273.966 69.080,273.912 68.993 C 273.858 68.905,273.562 68.833,273.254 68.833 C 272.946 68.833,272.668 68.755,272.636 68.659 C 272.574 68.473,268.510 68.314,267.125 68.444 M163.117 68.938 C 163.053 69.003,163.000 75.981,163.000 84.444 L 163.000 99.833 166.417 99.833 L 169.833 99.833 169.833 94.523 L 169.833 89.213 175.100 89.131 C 178.317 89.081,180.409 88.985,180.475 88.883 C 180.535 88.792,180.892 88.669,181.270 88.610 C 181.647 88.551,182.172 88.390,182.436 88.253 C 182.700 88.115,183.010 88.002,183.125 88.001 C 183.240 88.000,183.333 87.925,183.333 87.833 C 183.333 87.742,183.446 87.667,183.583 87.667 C 183.721 87.667,183.833 87.597,183.833 87.511 C 183.833 87.426,183.995 87.304,184.193 87.242 C 184.390 87.179,184.718 86.949,184.920 86.731 C 185.123 86.512,185.365 86.333,185.458 86.333 C 185.552 86.333,185.763 86.127,185.928 85.875 C 186.093 85.623,186.327 85.318,186.447 85.196 C 186.568 85.075,186.667 84.877,186.667 84.756 C 186.667 84.635,186.779 84.492,186.917 84.440 C 187.054 84.387,187.167 84.229,187.167 84.089 C 187.167 83.948,187.238 83.833,187.326 83.833 C 187.413 83.833,187.537 83.552,187.600 83.208 C 187.663 82.865,187.798 82.530,187.899 82.464 C 188.163 82.294,188.155 75.699,187.890 75.535 C 187.784 75.470,187.645 75.135,187.580 74.791 C 187.516 74.448,187.404 74.167,187.333 74.167 C 187.261 74.167,187.159 73.998,187.106 73.792 C 186.992 73.350,185.587 71.802,185.437 71.952 C 185.380 72.009,185.333 71.979,185.333 71.885 C 185.333 71.619,184.590 70.884,184.193 70.758 C 183.995 70.696,183.833 70.580,183.833 70.502 C 183.833 70.424,183.608 70.310,183.333 70.250 C 183.058 70.190,182.833 70.072,182.833 69.989 C 182.833 69.905,182.533 69.789,182.167 69.731 C 181.800 69.672,181.500 69.559,181.500 69.479 C 181.500 69.399,181.275 69.333,181.000 69.333 C 180.725 69.333,180.500 69.275,180.500 69.203 C 180.500 68.944,163.372 68.684,163.117 68.938 M194.375 68.944 C 194.210 69.010,194.167 72.264,194.167 84.431 L 194.167 99.833 205.667 99.833 L 217.167 99.833 217.167 96.847 C 217.167 95.204,217.121 93.742,217.066 93.597 C 216.975 93.362,216.123 93.333,209.162 93.333 C 204.871 93.333,201.242 93.288,201.097 93.232 C 200.784 93.112,200.689 87.167,201.000 87.167 C 201.092 87.167,201.167 87.054,201.167 86.917 C 201.167 86.701,201.766 86.667,205.564 86.667 C 209.615 86.667,209.966 86.644,210.028 86.375 C 210.065 86.215,210.066 84.752,210.031 83.125 L 209.967 80.167 205.567 80.167 C 201.767 80.167,201.167 80.133,201.167 79.917 C 201.167 79.779,201.092 79.667,201.000 79.667 C 200.899 79.667,200.833 78.944,200.833 77.833 C 200.833 76.722,200.899 76.000,201.000 76.000 C 201.092 76.000,201.167 75.887,201.167 75.750 C 201.167 75.531,202.117 75.500,208.717 75.500 C 214.367 75.500,216.317 75.450,216.467 75.300 C 216.803 74.963,216.744 69.065,216.403 68.934 C 216.088 68.814,194.675 68.823,194.375 68.944 M224.018 69.062 C 223.879 69.230,223.840 73.327,223.873 84.520 L 223.917 99.750 227.292 99.795 L 230.667 99.840 230.680 90.462 C 230.687 85.304,230.736 81.196,230.788 81.333 C 230.840 81.471,230.929 81.621,230.985 81.667 C 231.041 81.712,231.273 82.031,231.501 82.374 C 231.730 82.717,231.973 82.998,232.042 82.999 C 232.110 82.999,232.167 83.085,232.167 83.189 C 232.167 83.293,232.345 83.544,232.564 83.747 C 232.782 83.949,233.010 84.269,233.070 84.459 C 233.130 84.648,233.289 84.845,233.423 84.896 C 233.557 84.947,233.667 85.088,233.667 85.208 C 233.667 85.328,233.813 85.532,233.991 85.660 C 234.169 85.789,234.278 85.955,234.231 86.030 C 234.185 86.105,234.226 86.167,234.323 86.167 C 234.421 86.167,234.500 86.271,234.500 86.399 C 234.500 86.527,234.612 86.674,234.750 86.727 C 234.887 86.780,235.000 86.938,235.000 87.078 C 235.000 87.218,235.074 87.333,235.163 87.333 C 235.253 87.333,235.374 87.521,235.432 87.750 C 235.489 87.979,235.584 88.169,235.643 88.171 C 235.702 88.174,235.934 88.474,236.159 88.838 C 236.383 89.202,236.627 89.500,236.700 89.500 C 236.773 89.500,236.833 89.609,236.833 89.742 C 236.833 89.875,236.927 90.043,237.042 90.117 C 237.286 90.273,237.635 90.793,237.774 91.208 C 237.828 91.369,237.933 91.500,238.008 91.500 C 238.083 91.500,238.196 91.662,238.258 91.859 C 238.321 92.057,238.551 92.384,238.769 92.587 C 238.988 92.789,239.167 93.040,239.167 93.144 C 239.167 93.248,239.240 93.333,239.330 93.333 C 239.420 93.333,239.539 93.515,239.595 93.738 C 239.651 93.960,239.802 94.183,239.932 94.233 C 240.061 94.282,240.167 94.410,240.167 94.517 C 240.167 94.624,240.354 94.886,240.583 95.098 C 240.813 95.310,241.000 95.603,241.000 95.747 C 241.000 95.892,241.106 96.051,241.235 96.101 C 241.364 96.150,241.516 96.373,241.571 96.595 C 241.627 96.818,241.747 97.000,241.837 97.000 C 241.926 97.000,242.000 97.104,242.000 97.232 C 242.000 97.360,242.112 97.508,242.250 97.560 C 242.387 97.613,242.500 97.739,242.500 97.840 C 242.500 97.941,242.594 98.128,242.708 98.256 C 243.185 98.788,243.333 98.993,243.333 99.123 C 243.333 99.834,249.430 100.260,250.095 99.595 C 250.298 99.392,250.333 97.141,250.333 84.406 L 250.333 69.456 249.970 69.141 C 249.638 68.853,249.345 68.830,246.512 68.871 L 243.417 68.917 243.374 77.875 C 243.346 83.655,243.272 86.833,243.165 86.833 C 243.074 86.833,243.000 86.731,243.000 86.607 C 243.000 86.482,242.813 86.239,242.583 86.067 C 242.354 85.895,242.167 85.671,242.167 85.570 C 242.167 85.468,242.017 85.249,241.833 85.083 C 241.650 84.917,241.500 84.708,241.500 84.618 C 241.500 84.528,241.321 84.289,241.103 84.087 C 240.884 83.884,240.657 83.564,240.596 83.375 C 240.536 83.186,240.378 82.989,240.244 82.937 C 240.110 82.886,240.000 82.733,240.000 82.598 C 240.000 82.463,239.861 82.254,239.691 82.134 C 239.520 82.015,239.328 81.748,239.263 81.542 C 239.198 81.335,239.074 81.167,238.989 81.167 C 238.903 81.167,238.833 81.052,238.833 80.911 C 238.833 80.771,238.721 80.613,238.583 80.560 C 238.446 80.508,238.333 80.375,238.333 80.266 C 238.333 80.051,237.959 79.509,237.388 78.898 C 237.189 78.685,236.977 78.358,236.918 78.172 C 236.859 77.986,236.749 77.833,236.674 77.833 C 236.598 77.833,236.489 77.646,236.432 77.417 C 236.374 77.188,236.253 77.000,236.163 77.000 C 236.074 77.000,236.000 76.904,236.000 76.787 C 236.000 76.670,235.850 76.446,235.667 76.289 C 235.483 76.132,235.333 75.890,235.333 75.752 C 235.333 75.613,235.256 75.500,235.161 75.500 C 235.067 75.500,234.941 75.369,234.881 75.208 C 234.822 75.048,234.647 74.804,234.494 74.667 C 234.340 74.529,234.161 74.248,234.096 74.042 C 234.031 73.835,233.908 73.667,233.822 73.667 C 233.737 73.667,233.667 73.552,233.667 73.411 C 233.667 73.271,233.557 73.114,233.423 73.063 C 233.289 73.011,233.130 72.813,233.069 72.622 C 232.953 72.255,232.806 72.045,232.221 71.406 C 232.022 71.189,231.811 70.858,231.752 70.672 C 231.693 70.486,231.574 70.333,231.489 70.333 C 231.403 70.333,231.333 70.218,231.333 70.078 C 231.333 69.938,231.221 69.780,231.083 69.727 C 230.946 69.674,230.833 69.529,230.833 69.405 C 230.833 68.810,224.491 68.491,224.018 69.062 M287.111 68.944 C 286.820 69.235,286.991 99.467,287.285 99.761 C 287.567 100.043,290.544 100.032,291.005 99.747 C 291.105 99.685,291.167 96.988,291.167 92.655 L 291.167 85.663 298.625 85.707 L 306.083 85.750 306.116 92.750 L 306.149 99.750 308.158 99.797 L 310.167 99.844 310.167 84.602 C 310.167 76.219,310.121 69.242,310.066 69.097 C 309.982 68.881,309.676 68.835,308.357 68.845 C 305.882 68.863,306.140 68.102,306.161 75.304 C 306.175 80.546,306.140 81.551,305.934 81.756 C 305.551 82.139,291.415 82.120,291.268 81.736 C 291.212 81.591,291.167 78.774,291.167 75.475 C 291.167 71.660,291.104 69.361,290.994 69.156 C 290.819 68.829,287.412 68.644,287.111 68.944 M318.882 69.075 C 318.598 69.399,318.545 99.446,318.829 99.727 C 319.028 99.924,322.453 99.936,322.649 99.740 C 322.986 99.403,322.833 68.878,322.495 69.086 C 322.406 69.141,322.333 69.107,322.333 69.010 C 322.333 68.730,319.132 68.790,318.882 69.075 M331.278 68.944 C 331.217 69.006,331.167 75.981,331.167 84.444 L 331.167 99.833 333.250 99.833 L 335.333 99.833 335.333 92.844 L 335.333 85.855 339.409 85.802 C 344.176 85.741,343.894 85.856,343.974 83.936 C 344.059 81.897,344.297 82.000,339.506 82.000 C 336.039 82.000,335.523 81.967,335.434 81.736 C 335.379 81.591,335.333 79.500,335.333 77.088 L 335.333 72.703 335.792 72.586 C 336.044 72.522,339.361 72.494,343.163 72.524 L 350.076 72.579 350.291 72.164 C 350.556 71.654,350.396 69.372,350.072 69.049 C 349.841 68.817,331.507 68.715,331.278 68.944 M356.500 69.018 C 356.500 69.119,356.387 69.159,356.250 69.106 C 356.038 69.025,356.000 69.273,356.000 70.753 L 356.000 72.495 360.542 72.539 L 365.083 72.583 365.167 85.953 C 365.266 101.877,364.901 100.204,368.208 99.891 L 369.333 99.785 369.333 86.226 C 369.333 78.768,369.352 72.651,369.375 72.632 C 369.398 72.613,371.479 72.556,374.000 72.507 L 378.583 72.417 378.632 70.836 C 378.673 69.494,378.637 69.224,378.392 69.044 C 378.001 68.759,356.500 68.733,356.500 69.018 M143.407 75.151 C 143.458 75.234,143.875 75.354,144.334 75.417 C 144.792 75.480,145.167 75.591,145.167 75.664 C 145.167 75.737,145.361 75.846,145.598 75.905 C 145.835 75.965,146.199 76.198,146.408 76.423 C 146.617 76.649,146.873 76.833,146.977 76.833 C 147.082 76.833,147.167 76.912,147.167 77.008 C 147.167 77.104,147.344 77.348,147.560 77.550 C 147.777 77.751,148.007 78.085,148.071 78.292 C 148.136 78.498,148.253 78.667,148.331 78.667 C 148.410 78.667,148.523 78.892,148.583 79.167 C 148.644 79.442,148.755 79.667,148.831 79.667 C 148.907 79.667,149.022 80.060,149.088 80.542 C 149.153 81.023,149.292 81.470,149.395 81.536 C 149.523 81.617,149.583 82.589,149.583 84.583 C 149.583 86.578,149.523 87.550,149.395 87.631 C 149.292 87.696,149.153 88.144,149.088 88.625 C 149.022 89.106,148.907 89.500,148.831 89.500 C 148.755 89.500,148.644 89.725,148.583 90.000 C 148.523 90.275,148.410 90.500,148.331 90.500 C 148.253 90.500,148.137 90.664,148.073 90.865 C 148.010 91.066,147.772 91.384,147.545 91.573 C 147.318 91.762,147.011 92.048,146.863 92.208 C 146.714 92.369,146.497 92.500,146.380 92.500 C 146.262 92.500,146.167 92.561,146.167 92.636 C 146.167 92.798,145.086 93.333,144.758 93.333 C 144.631 93.333,144.498 93.423,144.461 93.533 C 144.365 93.822,140.804 93.830,140.708 93.542 C 140.670 93.427,140.508 93.333,140.348 93.333 C 139.767 93.333,137.333 91.445,137.333 90.994 C 137.333 90.906,137.260 90.833,137.170 90.833 C 137.080 90.833,136.959 90.646,136.902 90.417 C 136.844 90.188,136.734 90.000,136.656 90.000 C 136.579 90.000,136.463 89.719,136.400 89.375 C 136.337 89.031,136.217 88.705,136.133 88.651 C 136.050 88.597,135.938 88.128,135.884 87.609 C 135.830 87.091,135.722 86.667,135.643 86.667 C 135.565 86.667,135.500 85.654,135.500 84.417 C 135.500 83.179,135.567 82.167,135.650 82.167 C 135.732 82.167,135.852 81.642,135.917 81.000 C 135.981 80.358,136.098 79.833,136.176 79.833 C 136.254 79.833,136.367 79.571,136.428 79.250 C 136.488 78.929,136.604 78.667,136.685 78.667 C 136.767 78.667,136.833 78.558,136.833 78.424 C 136.833 78.291,137.021 77.994,137.250 77.765 C 137.479 77.536,137.667 77.287,137.667 77.211 C 137.667 77.029,138.292 76.500,138.507 76.500 C 138.601 76.500,138.719 76.392,138.769 76.260 C 138.820 76.128,139.080 75.972,139.347 75.914 C 139.615 75.855,139.833 75.740,139.833 75.659 C 139.833 75.578,140.208 75.462,140.667 75.401 C 141.125 75.340,141.500 75.225,141.500 75.145 C 141.500 74.952,143.287 74.958,143.407 75.151 M178.475 75.616 C 178.534 75.707,178.796 75.834,179.055 75.897 C 179.668 76.048,180.777 77.123,180.922 77.708 C 180.985 77.960,181.103 78.167,181.185 78.167 C 181.382 78.167,181.377 79.787,181.179 79.909 C 181.095 79.961,180.976 80.228,180.916 80.502 C 180.856 80.776,180.738 81.000,180.653 81.000 C 180.569 81.000,180.498 81.094,180.496 81.208 C 180.491 81.410,179.285 82.250,179.001 82.250 C 178.924 82.250,178.805 82.306,178.736 82.375 C 178.667 82.444,178.286 82.500,177.889 82.500 C 177.492 82.500,177.167 82.575,177.167 82.667 C 177.167 82.954,170.362 82.885,170.071 82.595 C 169.746 82.269,169.718 75.581,170.042 75.432 C 170.406 75.265,178.358 75.438,178.475 75.616 " stroke="none" fill="#242424" fill-rule="evenodd"></path><path id="path2" d="M97.500 60.942 C 97.200 61.041,96.790 61.209,95.975 61.566 C 95.640 61.713,95.251 61.833,95.110 61.833 C 94.968 61.833,94.812 61.900,94.762 61.981 C 94.711 62.062,94.388 62.181,94.044 62.245 C 93.699 62.308,93.267 62.494,93.083 62.658 C 92.900 62.822,92.375 63.086,91.917 63.245 C 91.458 63.405,90.933 63.601,90.750 63.680 C 90.567 63.760,89.554 64.118,88.500 64.475 C 84.978 65.667,84.967 65.677,85.917 66.573 C 86.237 66.875,86.500 67.170,86.500 67.228 C 86.500 67.286,86.631 67.471,86.792 67.639 C 86.952 67.807,87.196 68.117,87.333 68.326 C 87.471 68.536,87.661 68.792,87.755 68.895 C 88.166 69.344,88.649 70.128,88.566 70.212 C 88.243 70.535,90.870 70.504,91.480 70.178 C 91.628 70.098,91.787 70.030,91.833 70.027 C 92.031 70.014,92.617 69.789,93.026 69.570 C 93.269 69.440,93.621 69.333,93.808 69.333 C 93.994 69.333,94.189 69.265,94.241 69.181 C 94.293 69.097,94.635 68.978,95.001 68.917 C 95.367 68.855,95.667 68.744,95.667 68.671 C 95.667 68.598,96.002 68.487,96.413 68.426 C 96.823 68.364,97.203 68.243,97.256 68.157 C 97.309 68.071,97.480 68.000,97.635 67.999 C 97.790 67.998,98.109 67.897,98.344 67.775 C 98.580 67.652,98.982 67.499,99.238 67.435 C 99.494 67.370,100.014 67.178,100.393 67.008 C 100.773 66.838,101.290 66.652,101.542 66.596 C 101.794 66.540,102.001 66.401,102.003 66.288 C 102.005 66.080,101.163 64.320,100.988 64.167 C 100.935 64.121,100.841 63.944,100.778 63.773 C 100.055 61.820,98.614 60.575,97.500 60.942 M42.833 80.319 C 42.833 80.402,42.534 80.521,42.168 80.583 C 41.801 80.645,41.463 80.758,41.417 80.833 C 41.370 80.909,41.032 81.022,40.666 81.083 C 40.300 81.145,40.000 81.255,40.000 81.326 C 40.000 81.398,39.727 81.501,39.393 81.555 C 39.059 81.609,38.628 81.799,38.434 81.977 C 38.241 82.155,37.333 82.562,36.417 82.882 C 32.232 84.344,30.735 84.895,30.542 85.045 C 30.304 85.230,30.250 87.096,30.478 87.236 C 30.613 87.320,30.847 88.553,30.852 89.205 C 30.854 89.364,30.925 89.537,31.011 89.590 C 31.096 89.643,31.167 89.937,31.167 90.244 C 31.167 90.893,32.445 91.170,33.367 90.720 C 33.614 90.599,33.971 90.500,34.158 90.500 C 34.346 90.500,34.500 90.425,34.500 90.333 C 34.500 90.242,34.631 90.166,34.792 90.166 C 34.952 90.165,35.300 90.052,35.564 89.914 C 35.828 89.776,36.334 89.617,36.689 89.560 C 37.043 89.504,37.333 89.392,37.333 89.312 C 37.333 89.232,37.502 89.166,37.708 89.166 C 37.915 89.165,38.303 89.050,38.572 88.910 C 38.840 88.770,39.178 88.637,39.322 88.615 C 39.466 88.592,39.677 88.515,39.792 88.444 C 39.906 88.372,40.001 88.374,40.003 88.448 C 40.004 88.523,40.060 88.508,40.128 88.417 C 40.269 88.224,41.832 87.667,42.231 87.667 C 42.379 87.667,42.500 87.600,42.500 87.519 C 42.500 87.438,42.839 87.320,43.253 87.258 C 43.667 87.196,43.963 87.075,43.910 86.989 C 43.857 86.904,43.931 86.833,44.073 86.833 C 44.377 86.833,44.451 85.734,44.154 85.635 C 44.038 85.596,43.965 84.628,43.946 82.871 L 43.917 80.167 43.375 80.167 C 43.077 80.167,42.833 80.235,42.833 80.319 M98.706 81.432 C 98.407 81.562,98.032 81.695,97.873 81.726 C 97.714 81.757,97.358 81.881,97.083 82.002 C 96.423 82.293,96.492 82.269,95.875 82.414 C 95.577 82.484,95.333 82.597,95.333 82.666 C 95.333 82.734,95.067 82.833,94.743 82.886 C 94.418 82.938,94.024 83.127,93.868 83.306 C 93.711 83.484,93.021 83.832,92.333 84.078 C 91.646 84.325,90.933 84.588,90.750 84.664 C 90.567 84.739,89.929 84.965,89.333 85.167 C 86.642 86.076,86.592 86.111,86.533 87.130 C 86.505 87.609,86.421 88.000,86.346 88.000 C 86.271 88.000,86.158 88.525,86.095 89.167 C 86.032 89.808,85.909 90.333,85.823 90.333 C 85.737 90.333,85.667 90.558,85.667 90.833 C 85.667 91.384,85.756 91.420,86.447 91.150 C 87.070 90.907,91.902 89.192,92.750 88.914 C 93.117 88.794,94.054 88.461,94.833 88.175 C 95.612 87.888,96.700 87.501,97.250 87.315 C 97.800 87.129,98.424 86.891,98.636 86.787 C 98.848 86.684,99.316 86.595,99.677 86.591 L 100.332 86.583 100.333 84.139 C 100.333 80.943,100.228 80.766,98.706 81.432 M44.250 100.667 C 44.193 100.758,43.964 100.833,43.740 100.833 C 43.516 100.833,43.333 100.902,43.333 100.985 C 43.333 101.069,43.033 101.188,42.667 101.250 C 42.300 101.312,42.000 101.426,42.000 101.504 C 42.000 101.582,41.662 101.697,41.250 101.759 C 40.837 101.821,40.500 101.928,40.500 101.998 C 40.500 102.067,40.206 102.171,39.847 102.228 C 39.448 102.292,39.076 102.485,38.889 102.725 C 38.718 102.944,38.107 103.282,37.500 103.492 C 36.904 103.699,36.304 103.909,36.167 103.960 C 36.029 104.011,35.094 104.330,34.089 104.670 C 32.220 105.303,31.696 105.679,32.169 106.051 C 32.308 106.161,32.563 106.475,32.737 106.750 C 32.910 107.025,33.153 107.310,33.276 107.383 C 33.399 107.457,33.500 107.588,33.500 107.675 C 33.500 107.990,35.293 109.680,35.382 109.448 C 35.429 109.325,36.169 108.980,37.025 108.683 C 37.882 108.385,38.733 108.080,38.917 108.005 C 39.241 107.871,40.523 107.413,43.583 106.334 C 44.408 106.043,45.571 105.633,46.167 105.421 C 46.762 105.210,47.737 104.867,48.333 104.659 C 49.640 104.204,49.760 104.112,49.442 103.814 C 48.852 103.261,47.867 102.571,47.176 102.226 C 47.043 102.160,46.590 101.745,46.169 101.303 C 45.406 100.504,44.530 100.213,44.250 100.667 " stroke="none" fill="#ac243c" fill-rule="evenodd"></path><path id="path3" d="" stroke="none" fill="#582430" fill-rule="evenodd"></path><path id="path4" d="M306.075 75.667 C 306.075 79.012,306.098 80.381,306.125 78.708 C 306.152 77.035,306.152 74.298,306.125 72.625 C 306.098 70.952,306.075 72.321,306.075 75.667 M306.076 92.500 C 306.076 96.212,306.098 97.731,306.125 95.875 C 306.152 94.019,306.152 90.981,306.125 89.125 C 306.098 87.269,306.076 88.787,306.076 92.500 " stroke="none" fill="#242434" fill-rule="evenodd"></path></g></svg>