<svg id="svg" xmlns="http://www.w3.org/2000/svg" viewBox="0 0 377.42 145.54"><defs><style>.cls-1{fill:#535bbe;}.cls-1,.cls-2,.cls-3,.cls-4,.cls-5{fill-rule:evenodd;}.cls-2{fill:#f4f4fa;}.cls-3{fill:#7b83eb;}.cls-4{fill:#979dd6;}.cls-5{fill:#7a7dc2;}</style></defs><g id="svgg"><path id="path0" class="cls-1" d="M139.55,145.67l-2.81,1.46c-1.59.82-5.31,4.72-5.31,5.55a4.33,4.33,0,0,1-.71,1.63c-1.26,1.92-1,9.95.42,12.93,4.58,9.62,17.77,11.56,25.22,3.7a13.08,13.08,0,0,0,2.43-3.08,6.64,6.64,0,0,1,.77-1.91c.54-1,.78-2.6.81-5.33,0-3.87-.14-4.61-2.19-8.76-.71-1.45-5.4-5.62-6.32-5.62a6.09,6.09,0,0,1-2.05-.7c-1.82-.95-8.38-.87-10.26.13M366.75,161c-3.05,1.66-3.46,2.39-3.77,6.67-.29,4.1-1.42,6.36-3.18,6.36-.37,0-.67.21-.67.47s.41.46.92.46c2.5,0,2.79,1.12,2.79,10.93,0,9,.5,12.55,1.43,10.16a86.49,86.49,0,0,0,.39-10l0-9.13,1.22-1a5.18,5.18,0,0,1,2.79-1c.85,0,1.56-.21,1.56-.46s-.91-.47-2-.47c-5.43,0-4.84-10.54.64-11.41,1.54-.25,1.84-.47,1.84-1.4,0-1.34-1.73-1.43-4-.22M85.06,162a26.75,26.75,0,0,1-5,.41,18.32,18.32,0,0,0-5.51.75c-1.41.59-5.68.69-28.39.69-28.7,0-29.14,0-31.18,2.43l-1.3,1.51,0,33.39,0,33.39,1.8,2.09,1.8,2.09,19.65.23,19.65.23.14,2.06a4.64,4.64,0,0,0,.77,2.55,28.08,28.08,0,0,1,2.8,4.66c2.78,5.32,1.25,4.86,16.06,4.87,15.3,0,15.59-.07,18-4.63.88-1.64.92-2.89,1.18-35.44.25-32.3.49-30-3.18-30.4l-2.42-.25-.24-3.43c-.26-3.86.25-5.29,1.46-4.09,1.88,1.88,4.57-.77,4.57-4.5,0-6-5.39-10.3-10.66-8.61M240,163.4c0,1,.35,1.11,1.59.64.58-.22.63-.43.22-.93-.79-.94-1.81-.78-1.81.29m-44.48,1c-.44,1.16-.65,28.59-.23,30.61s1.92,1.72,2.27-.23c.14-.83.19-6.73.1-13.1-.18-13,0-14.2,1.77-13,1.13.75,1.15.74,1.15-.62,0-3.57-4-6.44-5.06-3.63m29.92.55a5.79,5.79,0,0,0-1.21,2.52,2.61,2.61,0,0,1-.7,1.62,2.4,2.4,0,0,0-.69,1.4,19.74,19.74,0,0,1-2.81,5.6,2.35,2.35,0,0,0-.44,1.42,3.69,3.69,0,0,1-.68,1.88,3.88,3.88,0,0,0-.7,1.9,2.68,2.68,0,0,1-.61,1.63,8.08,8.08,0,0,0-1.21,2.12c-.34.83-.8,1.51-1,1.51s-.41.82-.41,1.83c0,1.35-.24,2-.89,2.32-2,1.07-2.3.73-4.91-5.31-1.65-3.84-2.79-6.09-3.33-6.65a2.73,2.73,0,0,1-.6-1.68,2.39,2.39,0,0,0-.7-1.64,2.15,2.15,0,0,1-.7-1.42,2.36,2.36,0,0,0-.61-1.45,4.91,4.91,0,0,1-.94-1.89c-.49-2-1.32-1.57-.95.47a4.59,4.59,0,0,0,.68,2,3.33,3.33,0,0,1,.67,1.49,4,4,0,0,0,1,1.79,2.69,2.69,0,0,1,.65,1.82,1.75,1.75,0,0,0,.69,1.56,1.52,1.52,0,0,1,.7,1.39,12.76,12.76,0,0,0,1.62,4,16.92,16.92,0,0,1,1.63,3.44,3.25,3.25,0,0,0,.68,1.46,3.64,3.64,0,0,1,.69,1.66c.07,3.79,3.51,5,4.37,1.61a5,5,0,0,1,1-2,2.5,2.5,0,0,0,.67-1.52,2.13,2.13,0,0,1,.7-1.41,2,2,0,0,0,.7-1.26,5.33,5.33,0,0,1,.67-1.91c.37-.68,1.22-2.38,1.88-3.79s1.36-2.86,1.56-3.24c1.42-2.7,1.91-3.9,1.91-4.64a2.63,2.63,0,0,1,.58-1.49,10,10,0,0,0,1.1-1.54,1.84,1.84,0,0,1,1.39-.91c.84,0,.88.54.88,12.12,0,6.67-.18,12-.4,11.89-.54-.33,1.18,2.34,1.78,2.75,1.11.78,1.27-30.07.16-32.21-.69-1.34-2.46-1-3.81.78m152.15,1.95a7.45,7.45,0,0,0-.33,2.76c0,2.49-1.32,4.36-3.07,4.36-.35,0-.64.21-.64.47s.43.46,1,.46c2.68,0,2.75.24,2.75,9.46v8.49l1.4,1.92c1.41,1.95,4.94,2.84,5.79,1.46.16-.26-.22-.46-.88-.46-3.21,0-4.17-3.62-3.87-14.52.18-6.16.27-6.33,3.47-6.34,1.09,0,2-.22,2-.47s-.71-.47-1.58-.47c-2.54,0-3.7-1.3-4-4.46-.23-2.6-1-3.65-2-2.66m-84.73,6.7c-2.32,1.22-5.1,4.06-5.1,5.23a6.34,6.34,0,0,1-.7,2.32,10.64,10.64,0,0,0,0,7.54,6.26,6.26,0,0,1,.7,2.19c0,1.07,2.64,4.48,3.46,4.48a1.91,1.91,0,0,1,1.18.69c.64.78,2.54.87,7,.35l3-.34-3.8-.25c-6.83-.45-10-4.24-9.79-11.6.32-10.06,9.71-14,16.09-6.69,1.58,1.8,1.7,2.64,1.46,10.53-.08,2.74,0,4.06.39,4.06a.55.55,0,0,0,.52-.58,6.09,6.09,0,0,1,.78-2c1-1.87,1-8.23,0-10.2a6.65,6.65,0,0,1-.76-2.09c-.1-3.69-9.67-6.14-14.37-3.67m24.35-.47c-.26.25-1.08,1-1.82,1.65-2.89,2.56-1.21,9.43,2.3,9.44.5,0,.66.11,4.73,3.25,5.59,4.31.93,10-6.5,8-1.56-.43-1.73-.39-1.73.42,0,.49.26.89.58.9s1.73.13,3.13.26c5.87.54,9.22-1.63,9.26-6,0-2.11-3.82-6.35-5.75-6.35a2.33,2.33,0,0,1-1.61-.65,3.42,3.42,0,0,0-1.57-.91c-3.17-.83-3.74-8.18-.63-8.18a2.43,2.43,0,0,0,1.07-.69c.8-.81,4.13-.94,4.6-.19.22.36.43.34.69-.09.8-1.3-5.48-2.09-6.75-.85m22,.47c-9.81,5.14-7.72,23.3,2.66,23.11,5.47-.1,7.14-.68,2.72-.95-3.11-.18-4.26-.43-4.69-1a1.79,1.79,0,0,0-1-.77c-2.63,0-4.73-8.08-3.58-13.78.91-4.57,7.71-7.77,11.88-5.6,4.94,2.58,5.56,3.88,5.42,11.49-.11,6.32.12,7.5,1,5.28.3-.74.76-1.82,1-2.41.61-1.3.56-8.27-.06-9a6.56,6.56,0,0,1-.78-2.08c-.36-1.71-2.07-3.81-3.1-3.81a3.26,3.26,0,0,1-1.57-.68c-1.35-1-7.83-.85-9.94.26m-59.36.34-1.63.77,2.26.15c3,.2,4-.16,2.8-1.07s-1.41-.81-3.43.15m-40,.38c-.39.4-.41,19.47,0,20.94.91,3.38,1.32.18,1.32-10.11s-.2-11.93-1.3-10.83m14.36.4a2.53,2.53,0,0,1-1,.7c-2,0-4.15,5.17-4.11,9.7.08,7.6,3.71,11.63,10.5,11.62,5.71,0,7-1.2,1.45-1.29a10.9,10.9,0,0,1-9.72-5.93c-1-2-1.11-7.32-.23-8.21a2,2,0,0,0,.52-1.28,3.94,3.94,0,0,1,1-1.88l1.86-2.15a2.94,2.94,0,0,1,1.82-1c.52,0,.93-.21.93-.46,0-.72-2.17-.55-2.94.23m18.25,10.63c0,6.27.15,11.39.35,11.39,1.16,0,1.39-1.15,1.62-8.11.15-4.69.49-8.12.91-9.32.62-1.75.61-1.95-.14-2.42a2.49,2.49,0,0,1-1-1.57,1.44,1.44,0,0,0-1-1.21c-.76-.14-.81.64-.81,11.24m-47.11,0c0,5.35.07,7.48.15,4.72s.08-7.13,0-9.73-.15-.35-.15,5M71.13,177.28a17.34,17.34,0,0,1,.48,4.82c0,5.79-.07,5.84-7.88,6l-6.27.12-.23,18.68c-.27,21.64.35,19.63-6,19.46-6-.16-5.57,1.45-5.57-20.4V188H39.41c-7.86,0-7.68.13-7.68-6,0-2.89.2-4.71.55-5.07,1.1-1.09,38.26-.77,38.85.34m60.3,6.38a13.79,13.79,0,0,0,.95,2.27c1,2,1.16,52.4.23,57.93l-.32,1.85,2.3,1c2.85,1.28,12.92,1.54,15.24.38.72-.36,1.83-.89,2.47-1.18,5.71-2.59,9.47-6.9,11.92-13.7.76-2.11.83-4.27.83-24V186.51l-1.73-1.58-1.73-1.59H146.51c-8.29,0-15.08.14-15.08.32M193.8,207c-.18.29,1,.46,3.24.46,3.13,0,3.66.13,4.67,1.14l1.14,1.14V223.9c0,9.13.16,14.16.46,14.16s.46-4.7.46-13.19c0-17.07.14-17.42,6.54-17.42,2.36,0,3.62-.17,3.43-.46s-4-.46-10-.46-9.79.17-10,.46m117.1,9.23c0,.42,5,1,5.69.62a.42.42,0,0,0,.08-.61c-.34-.55-5.77-.56-5.77,0m-18.83,1.05c-.2.33.07.83.66,1.22s1,.89,1,1.16a3.07,3.07,0,0,0,.81,1.38c.7.77.83,2.1,1,9.43.16,8.45,1,11.88,1,4.07a52.61,52.61,0,0,1,.54-7.18c.6-3.64,0-7.33-1.38-9-1-1.19-3.14-1.8-3.61-1m-50.48.35c-.4.65.29.91,1.72.64.69-.14,1.15-.43,1-.66-.34-.54-2.39-.53-2.73,0m9.37-.16c-.14.15.32.83,1,1.52,1.69,1.61,2.24,4.28,1.21,5.85s-.93,2,0,2.9.57,4.28-.46,5.92-1.2,3-.49,3a2.07,2.07,0,0,1,1.28.94c2.18,3.11,2.54-15.22.37-18.73-.94-1.52-2.22-2.14-2.94-1.42m15.25,0c-.38.38-.39,19.76,0,20.74.73,1.91,1.11-.38,1.11-6.7,0-5.31.17-7.36.75-8.81.87-2.18-.63-6.44-1.85-5.23m10.83-.06a5.67,5.67,0,0,0,1.35,1.4c1.61,1.35,1.81,2.5,2.32,12.72.39,8.09.28,7.42,1.2,7.42.6,0,.7-1.23.7-8.31,0-4.57.12-8.62.26-9s-.08-.8-.67-1a5,5,0,0,1-1.92-1.9c-.86-1.39-3.24-2.37-3.24-1.34m-50.08.67c.9.58,1.39.58,1.39,0,0-.26-.47-.46-1-.46-.85,0-.91.1-.35.46m1.66.87c-.14.22.16.88.67,1.46a6.39,6.39,0,0,1,1,1.33c0,.16.13.86.24,1.56.49,2.93-.08,3.17-7.38,3l-6.58-.13-.15-1.48a4.71,4.71,0,0,1,.65-2.68c.43-.66.66-1.32.5-1.48-.5-.49-2.61,1.9-2.62,3a10.28,10.28,0,0,1-.75,2.88c-1.53,3.83.72,9.92,4.56,12.37,1.85,1.18,9.23,1.66,9.86.64.19-.29-1-.46-3.23-.46-5.06,0-9.06-3.47-9.06-7.85,0-2.82.56-3,9-3.28l7.47-.23-.07-1.16c-.12-1.84-1.16-5.29-1.76-5.8a3.59,3.59,0,0,1-.85-1.28c-.33-.86-1.05-1.07-1.46-.4m77.8.32a1.25,1.25,0,0,0,.24,1.25c.39.39.53.21.53-.72,0-1.4-.35-1.64-.77-.53m.19,4.18c-1,1,1.54,4.37,3.23,4.37a1.06,1.06,0,0,1,.88.67,2.45,2.45,0,0,0,1.61,1c.74.16,1.35.49,1.35.72s.27.43.61.43c1.14,0,2.64,2.65,2.64,4.66,0,2.8,1.12,2.13,1.29-.77s-.81-4.16-5.55-6.6c-4.51-2.32-5.33-2.9-5.54-3.94-.1-.47-.33-.7-.52-.5m-64,4c-.42.31-1.22.87-1.78,1.26-2.11,1.46-2.74,4.31-1.54,7s1.53,2.19,1.53-1.67c0-3.31.6-4.9,1.86-4.9a2.7,2.7,0,0,0,1.17-.77,7.66,7.66,0,0,1,3.62-1.1l2.86-.32L246.9,227a10.09,10.09,0,0,0-4.24.52" transform="translate(-11.29 -129.62)"/><path id="path1" class="cls-2" d="M86.76,129.93c-1.39.26-.89,1.47.62,1.47.89,0,1.39-.24,1.39-.66a1,1,0,0,1,.58-.87c.63-.23-1.32-.19-2.59.06m14.1.4c0,.74.22,1,.89.94,1-.07,1.25-1,.39-1.54-.33-.2-.41-.12-.2.21s.13.53-.12.53a.89.89,0,0,1-.69-.58c-.13-.32-.25-.12-.27.44m-17.81,1.38c-.59.59-.31,1.08.62,1.08.51,0,.92-.31.92-.69,0-.71-1-1-1.54-.39m-5,3.63a.7.7,0,0,1-.68.7c-.41,0-.58.27-.41.69.33.88,1.09.91,1.09.06,0-.36.47-.77,1-.93.88-.24.93-.36.35-.74-1-.65-1.39-.58-1.39.22m-3,2.55c-.14.23.16.65.68.92.74.4.94.37.94-.16,0-.78-1.25-1.37-1.62-.76m38.57,1.23c-.63.64-.3,1.62.5,1.47a1,1,0,0,0,.81-.81.79.79,0,0,0-1.31-.66m-40.07,2.4c0,.55.31.82.68.67.71-.27.56-1.14-.23-1.4-.29-.1-.49.23-.45.73m64.8,1.19c0,.73,1.27.79,1.55.07.11-.29-.19-.55-.68-.59s-.87.2-.87.52m12.4-.32c-1.11.29-.55,1.08.73,1,.55,0,.75-.14.43-.27s-.47-.43-.32-.66.2-.4.12-.37l-1,.27M72.22,144a5.19,5.19,0,0,0-.44,1.94c-.06,1.08,0,1.2.37.57.24-.44.64-.67.88-.52s.43-.37.43-1.15c0-1.46-.59-1.87-1.24-.84m63.38.45c0,.94,0,.94.93.13a10.42,10.42,0,0,0,.93-.9,3.08,3.08,0,0,0-.93-.13c-.65-.05-.93.21-.93.9m18.21-.05c0,.48.2.87.53.87.73,0,.78-1.27.06-1.55-.28-.11-.55.19-.59.68m-37.13,2.34c.2,2.07,1.16,2.21,1.11.17,0-1-.27-1.64-.65-1.64s-.56.49-.46,1.47m14.38.67c-.49.53-.47.65.09.65.79,0,1.4-.76.87-1.08-.2-.12-.63.07-1,.43m-60.44,2.73c-.34,1.37-.07,4.87.38,4.87.9,0,1.09-.7.78-3-.25-1.75-.92-2.86-1.16-1.9m89.68.08c-1,.38-.65,1.08.46,1,.58,0,.78-.14.46-.27s-.46-.42-.32-.66c.29-.46.26-.46-.6-.11m-32.83,3a.68.68,0,0,0-.06.74c.33.33,1.24-.25,1.24-.8s-.8-.55-1.18.06m34.16.26a1.33,1.33,0,0,0,.64,1.27c.38.14.7.06.7-.19a.45.45,0,0,0-.44-.45c-.23,0-.52-.36-.64-.81-.16-.64-.22-.6-.26.18m204.15,4.6a1.1,1.1,0,0,0,0,1c.16.16.3,0,.3-.37,0-.54.09-.53.46,0s.45.5.45-.35c0-1.18-.81-1.4-1.22-.32m5.87.21c0,.51.29.92.65.92s.57-.32.41-.92-.43-.93-.65-.93-.41.42-.41.93m-255.06.85c0,.78.25,1.31.61,1.31s.61-.53.61-1.31-.24-1.32-.61-1.32-.61.54-.61,1.32m-44.8.66.16,1.28L46,161c-17-.08-25.91,0-25.91.34s-.12.31-.35,0c-.56-.76-2-.8-2,0,0,.6,3.44.69,27.07.72,29.06,0,27.91.14,27.11-2.3-.37-1.14-.37-1.14-.21.12m55-.56c0,.27-.22.35-.5.18s-.44.15-.34,1c.23,2,1.31,2,1.31,0,0-.91-.11-1.66-.23-1.66s-.24.22-.24.49m115.29.71c-.17.45-.07.66.27.55.69-.23,1.08-1.29.47-1.29-.25,0-.58.34-.74.74m120.6-.43c-.51.52-.35,1.09.31,1.09a.67.67,0,0,0,.62-.7c0-.73-.41-.9-.93-.39m10.67,0a5.16,5.16,0,0,0-.31,2.16c0,1.82,0,1.84.93,1,1.11-1,1.14-1.34.23-2.25-.52-.52-.55-.74-.11-.92s.35-.25.07-.27a1.17,1.17,0,0,0-.81.27M224,161.35c-.95.94-.92,1.12.17,1.12.61,0,.88-.29.83-.93-.09-1.11-.08-1.11-1-.19m19.32.12a1.72,1.72,0,0,0,1.34,1.46c.71,0,.09-2-.65-2.11-.54-.08-.78.14-.69.65m-50.81.85c-.17.17-.31,7.92-.31,17.23s.14,16.79.31,16.62.61,0,1,.26c.56.46.64.4.48-.35-.11-.51-.47-.86-.79-.79s-.45-.09-.29-.35a.54.54,0,0,1,.73-.22c.24.15.44,0,.44-.24s-.32-.62-.7-.77c-.87-.33-1.07-29.85-.2-29.85.27,0,.34.24.16.54s-.13.41.2.2c.75-.46.68-2.59-.08-2.59a1.52,1.52,0,0,0-.93.31m-76.88,1.43a2.66,2.66,0,0,0,0,.69c0,.19-.19.35-.49.35s-.4.13-.24.3c.34.34,1.71-.68,1.71-1.28s-.9-.55-1-.06m265.31,3.59c0,1.62.17,2.09.75,2.09s.63-.15.25-.62a.73.73,0,0,1,0-1.16c.42-.41.41-.54-.06-.54s-.49-.16-.1-.62.38-.76.21-.93c-.73-.73-1.08-.16-1.08,1.78m-253.66-.51c0,.63.92,1.67,1.48,1.67.81,0,.32-1.76-.56-2-.54-.14-.92,0-.92.32m-115.62.11c-.6.61-.37,66.95.23,66.95.44,0,.44.12,0,.55-.82.82-.68,1.3.36,1.3s.92-.45.93-33.88c0-22.74-.14-33.79-.45-33.6s-.47.07-.47-.2a.49.49,0,0,1,.49-.49c.27,0,.36-.21.21-.46a.78.78,0,0,0-1.31-.17m191.76.66a1.41,1.41,0,0,0,.81.81c.35.12.52-.06.4-.4a1.41,1.41,0,0,0-.81-.81c-.34-.12-.52.05-.4.4m-191.17,6L12,178l-.08-4.22a18.29,18.29,0,0,1,.23-4.52c.43-.43.43-.53.13,4.33m116.88-3.09a.67.67,0,0,0,.7.62.62.62,0,1,0,0-1.24.67.67,0,0,0-.7.62M256,170.33c-.36.57.22.86,1.57.78a1.42,1.42,0,0,0,1.31-.76c.17-.61.13-.61-.31,0-.31.44-.63.53-.85.24-.47-.64-1.4-.78-1.72-.26m6.94-.08c-1.77.37-1.85,1-.12,1a3.27,3.27,0,0,0,2-.41c.33-.54-.64-.86-1.83-.62m16.45.36c-.56.67-.48.73.74.6.75-.09,1.32-.37,1.27-.62-.16-.79-1.35-.78-2,0m3.59.06a.85.85,0,0,0,.91.52c1-.21.77-1.06-.27-1.12-.59,0-.81.17-.64.6m42.54-.27a.81.81,0,0,0,.14.95c.3.3.54.12.71-.5.26-1-.32-1.32-.85-.45m33.94-.14c-.19.31-.25.56-.13.56a4.35,4.35,0,0,1,1,.28c.41.16.73,0,.73-.26s-.19-.42-.42-.28-.51,0-.61-.3-.27-.43-.53,0M158.51,172c.19.49,0,.82-.64,1a1.21,1.21,0,0,0-.93,1c0,.46.14.57.35.27a8,8,0,0,1,1.49-1.28c.63-.43.88-.78.55-.78s-.46-.21-.31-.46,0-.47-.25-.47-.42.33-.26.74m94.23-.35c-.27.44.26,1.21.92,1.33s.63-1.17-.1-1.45a.73.73,0,0,0-.82.12m13.64.8c0,.75.19,1.07.51.87a.71.71,0,0,1,.93.32c.32.51.4.48.41-.14s-1.13-2.24-1.65-2.24c-.11,0-.2.54-.2,1.19m18.55,1.9c0,3,0,3.08.92,2.25.76-.69.83-1,.35-1.56-.35-.43-.37-.59-.05-.4.6.36.61-1.85,0-2.8-.82-1.28-1.24-.42-1.24,2.51m28.52-2c-.51.56-.88,1.17-.81,1.36.2.6-.73.37-1-.24-.14-.34-.25-.25-.27.24s.3.81.94.81.89-.22.71-.7,0-.69.64-.69a.82.82,0,0,0,.92-.93c0-1.11,0-1.11-1.16.15M387,173.6c0,1.39.21,2.32.51,2.32s.4-.31.25-.69a1.27,1.27,0,0,1,.35-1.27c.5-.47.5-.67,0-1.2-.35-.34-.52-.82-.37-1s0-.43-.23-.43-.49,1-.49,2.32m-59.55-1.23a.84.84,0,0,1-.24,1c-.57.35-.67,1.94-.14,2.27.2.12.59-.28.88-.9s.34-1,.06-.83-.35-.07-.17-.66.09-1.08-.17-1.24-.37,0-.22.38m-221.26.68c-.83.6-.68,1.48.25,1.48.51,0,.93-.3.93-.67,0-.83-.6-1.23-1.18-.81M243.19,185c0,10.38.22,12.43,1.14,10.93a.52.52,0,0,0-.2-.72c-.31-.19-.44-4-.37-10.58l.11-10.29.13,10.08c.09,6.19.31,10.09.59,10.09.7,0,.61-19.61-.1-20.31-1.18-1.19-1.3-.22-1.3,10.8m-141-9.74c0,.39.41.7.92.7s.93-.31.93-.7-.41-.69-.93-.69-.92.31-.92.69m31.85-.4c-.37.37.05,1.1.63,1.1.24,0,.44-.31.44-.7,0-.71-.55-.92-1.07-.4m221.35.12c0,.31-.21.44-.47.28s-.46.09-.46.54c0,.77.05.77.78,0,.43-.43.64-.93.47-1.11s-.32-.06-.32.25m-88.26.84a.89.89,0,0,0,.15,1.76c.39,0,.71-.45.74-1a4.34,4.34,0,0,0,0-1,6.53,6.53,0,0,1-.89.27m-175.73.95c-1.24.78-1.93,3.83-.86,3.83.75,0,1.51-1.33,1.36-2.37a1.13,1.13,0,0,1,.5-1.24c.37-.13.51,0,.33.27-.45.74,2.12.18,2.95-.63,1-1-2.62-.88-4.28.14m45.18,0a1.41,1.41,0,0,0,1,1c.62.11.81-.08.69-.69a1.38,1.38,0,0,0-1-1c-.62-.12-.81.07-.69.68m15.41,0a5,5,0,0,1,.28.95c0,.12.29-.06.65-.39.75-.7.53-1.29-.5-1.29-.46,0-.61.26-.43.73m105.16,0a1,1,0,0,0,.86.85c1,0,.85-1.34-.17-1.54-.62-.12-.81.07-.69.69m4.77-.27a.86.86,0,0,0,1.14,1.15c.74-.46.62-1.65-.16-1.65a1.28,1.28,0,0,0-1,.5m36.89,0c0,.26.33.47.72.47s.6.21.44.46,0,.46.25.46.42-.32.26-.73a4.93,4.93,0,0,1-.28-.93c0-.1-.31-.19-.69-.19s-.7.21-.7.46m23.19-.1c0,.53,1.78.59,2.1.07.15-.23-.26-.43-.92-.43s-1.18.16-1.18.36m18.63.41a1,1,0,0,0,.85.85c1,0,.85-1.34-.16-1.54-.62-.12-.81.07-.69.69m4.55-.21c0,.2.42.37.93.37s.93-.2.93-.44-.42-.4-.93-.36-.93.23-.93.43m10.94,0a5.27,5.27,0,0,1,.38,1.93c.05,1.6,1.2,2.36,1.2.8,0-.55-.2-.87-.46-.71-.52.32-.41-1.06.16-2,.24-.4.05-.58-.62-.58s-.86.2-.66.53m-322.53,2c-.34.4-.49,1.94-.41,4l.14,3.41,6.41.23c8.57.31,7.73-1.85,7.73,19.94,0,20.3-.26,19,4,19,4.64,0,4.34,1.31,4.34-19.44,0-21.61-.8-19.52,7.48-19.52,3.88,0,6-.18,6.34-.55.85-.85.72-6.18-.17-7.07-1-1-35-1.11-35.87-.07m107.68,0c.23.69,1.88.81,2.29.17.27-.42.46-.41.76.07s.46.47.68-.12-.06-.73-1.8-.66c-1.15,0-2,.28-1.93.54m4.71-.19c.15.23,0,.53-.32.66s-.15.25.38.27a3.38,3.38,0,0,0,1.85-.65c.85-.64.82-.68-.63-.69-.85,0-1.42.18-1.28.41m100.53.12c.24.7,1.29,1.08,1.29.47,0-.25-.33-.58-.73-.73s-.67-.07-.56.26m63.56.3c0,.47.24.86.62.86a.55.55,0,0,0,.54-.7c-.2-1-1.08-1.15-1.16-.16m49.49-.11c0,.82,1,.68,1.28-.19.11-.3-.14-.55-.55-.55a.74.74,0,0,0-.73.74M381,182.8c0,4.5.05,5.18.71,5.18s.63-.15.25-.62-.37-.76,0-1.16.41-.54-.06-.54-.56-.82-.4-3.47a14.71,14.71,0,0,0-.14-4c-.19-.3-.37,1.78-.39,4.63m-103.3-3a.42.42,0,0,0,.62.41c.34-.13.62-.42.62-.65s-.28-.41-.62-.41a.64.64,0,0,0-.62.65m6.28-.54c-.43.83-.11,2.54.39,2.13.7-.59.81-2.24.13-2.24-.25,0-.49.05-.52.11m7.48.5a.7.7,0,0,0,1.39,0,.7.7,0,0,0-1.39,0m38.49.54c0,.64.27,1.16.6,1.16s.63-.52.69-1.16-.15-1.15-.6-1.15-.69.44-.69,1.15M12.12,185.54c-.1,1-.18.18-.18-1.74s.08-2.69.18-1.74a20.22,20.22,0,0,1,0,3.48M106,180.9c3.76.08,9.92.08,13.68,0s.69-.14-6.84-.14-10.6.07-6.84.14m103.49.29c-.39,1,.13,1.55.84.84.41-.41.42-.67,0-1.09s-.61-.35-.84.25m94,3.33c-.08,2.48,0,3,.65,3,.41,0,.61.21.46.47s-.07.46.2.46c.94,0,.61-5.93-.36-6.45-.79-.42-.87-.22-1,2.53M222,182.75c.17.82,1,.81,1.09,0a.55.55,0,0,0-.57-.63.51.51,0,0,0-.52.65m30.51-.15c0,.42.32.57.92.41s.93-.43.93-.65-.42-.41-.93-.41-.92.29-.92.65m97.38-.28a2.11,2.11,0,0,0,.58,1c.46.5.46.56,0,.3s-.58.12-.58,1.23c0,1.42.66,2.67,1.41,2.67.59,0,.48-4.79-.12-5.17-.76-.48-1.29-.49-1.29,0m-185.49,1c0,.58.49.58,1.39,0,.56-.36.49-.45-.35-.46-.57,0-1,.2-1,.46m2.43.77c-.76.31-.75,1.55,0,1.55.33,0,.63-.42.66-.93a2.23,2.23,0,0,0,0-.89l-.67.27m43.94.59c0,.61.29.88.93.83s.93-.26.93-.48-.32-.3-.7-.15-.7.08-.7-.15.26-.51.58-.64.26-.25-.23-.27-.81.3-.81.86m64.92,5.88c0,6.36,0,6.58.93,6.34s.93-.63.93-6c0-7.28-.84-7.71-1.05-.53l-.14,5.22-.1-5.23c-.09-4.29,0-5.28.59-5.5,1-.39.85-1.05-.23-1-.88.07-.93.4-.93,6.65m75.24-5.15c-.12.63-.3,1.16-.4,1.16s-.17-.53-.17-1.16.17-1.16.4-1.16.29.52.17,1.16m-137.65.16c.18.29.11.53-.16.53a.48.48,0,0,0-.49.47c0,.25.31.46.69.46.82,0,.93-1.19.16-1.67-.33-.2-.41-.13-.2.21m101.58.1a.68.68,0,0,0,0,.77c.16.15.28,0,.28-.35s.24-.31.67.27c.65.87.67.86.41-.14s-.84-1.35-1.33-.55m13.91,1.85a.69.69,0,0,0-.06.75c.34.33,1.24-.26,1.24-.81s-.8-.55-1.18.06m-76.26.54c0,.2.41.36.92.36s.93-.16.93-.36-.42-.37-.93-.37-.92.17-.92.37m-33.77.85a1.43,1.43,0,0,0,.81.81c.35.12.52-.05.41-.4a1.43,1.43,0,0,0-.81-.81c-.35-.12-.53.06-.41.4m65.13-.17c-.52.52-.32,1.07.4,1.07.39,0,.7-.19.7-.43,0-.59-.73-1-1.1-.64m97.09.58c0,1.17.75,1.63,1.11.68.45-1.16.34-1.58-.41-1.58a.81.81,0,0,0-.7.9m-70.41.64c-.77.92-.55,1.83.32,1.29a1.25,1.25,0,0,0,.46-1.22c-.15-.76-.21-.76-.78-.07M12.13,222.64c-.07,6.06-.13,1.1-.13-11s.06-17.07.13-11,.08,16,0,22m194.17-32.3a.85.85,0,0,0,.16,1c.59.58,1.49.09,1.49-.82s-1.2-.9-1.65-.16m149,2.6c-.9.23-.85,1.17.07,1.35.33.06.36,0,.06-.13s-.17-.49.34-.88c.88-.67.86-.69-.47-.34m-47.15.66c0,.25.19.34.42.2s.51,0,.61.29.27.34.45-.13,0-.72-.61-.76-.87.14-.87.4m24.32-.1c.14.23,0,.53-.32.66s-.26.25.23.27a.72.72,0,0,0,.81-.66c0-.38-.22-.69-.49-.69s-.38.19-.23.42m42.6,1.6c0,.55.06.71.19.36.2-.53.3-.53.64,0s.4.48.41-.13c0-1.17-1.19-1.4-1.24-.23m-159.55.42c-.05.57.19.81.71.71,1.12-.21,1.32-1.73.22-1.64a1,1,0,0,0-.93.93m71.29-.59a.48.48,0,0,0,.49.47c.27,0,.35.24.16.53s-.12.41.21.21c.77-.48.66-1.67-.16-1.67-.38,0-.7.21-.7.46m19.94.15c0,.87.76,1.43,1.13.84.14-.23-.06-.68-.44-1-.56-.47-.69-.44-.69.15m46.38.32c0,.51-.31.92-.7.92a.7.7,0,0,0-.69.7c0,.93.57.88,1.4-.13s1-2.42.4-2.42c-.23,0-.41.42-.41.93m33.85.2c0,1.51,1.62,1.7,1.73.21.07-.95.05-1-.6-.12-.52.68-.61.7-.4.1a1,1,0,0,0-.23-1.07c-.31-.19-.5.16-.5.88m-59.48.78c-.44.25-.81.65-.81.89,0,.75,1.28.49,1.59-.32.38-1,.21-1.12-.78-.57m-22.31.64c-.18.47,0,.69.65.69a.83.83,0,0,0,.91-.69.68.68,0,0,0-.64-.7,1.12,1.12,0,0,0-.92.7m-38.78.18c0,.22-.44.52-1,.66s-.83.48-.66.75c.43.71,1.64.61,1.64-.13,0-.34.47-.85,1-1.13l1.05-.5-1.05,0c-.57,0-1,.15-1,.38m-35.71.9c0,.65.52,1,1.21.69,1-.37.78-1.08-.28-1.08-.51,0-.93.18-.93.39m6.49,0c0,.65.52,1,1.21.69.35-.13.53-.43.39-.66-.33-.52-1.6-.55-1.6,0m74.2.37c0,.65.11.66.79.11s.67-.45.43-.05-.13.58.14.58.5-.32.5-.7-.42-.7-.93-.7-.93.31-.93.76m54.37-.45c-.73.3-.29,1.09.61,1.09a.69.69,0,0,0,.67-.7c0-.71-.27-.79-1.28-.39m12.2.13a.53.53,0,0,0,.2.72,1,1,0,0,0,1.4-.72c0-.56-1.25-.57-1.6,0m-60.08,1.65c0,.38.22.7.5.7s.34-.26.16-.58-.19-.46.26,0a1.34,1.34,0,0,0,1.23.3c1.13-.43.68-1.07-.76-1.07-.92,0-1.39.23-1.39.69m-126.13,4.6a1,1,0,0,1-.58.89c-.32.13-.13.25.43.27a1.66,1.66,0,0,0,1.31-.43c.15-.25.05-.46-.24-.46s-.39-.21-.23-.46.07-.47-.2-.47-.49.3-.49.66m7.56-.31c2.75.08,7.14.08,9.74,0s.34-.15-5-.15-7.49.07-4.73.15m-6.51,6.75c.26.78,1.58.95,1.58.2,0-.34-.4-.65-.88-.68s-.8.17-.7.48m2.2-.07c0,.33,3.86.73,4.62.47,1.28-.42.2-.84-2.07-.81a5.65,5.65,0,0,0-2.55.34m15.53-.16c-3.45.21-3.43.79,0,.75,2.86,0,4.16-.35,2.9-.72a14.94,14.94,0,0,0-2.92,0m34.55,3.07c0,.48-.22.65-.54.45s-.41-.13-.24.15c.46.74,2.63.58,2.63-.19,0-.38.23-.52.54-.33s.41.13.2-.21a1.32,1.32,0,0,0-1-.53c-.44,0-.57.22-.35.58s.09.37-.44-.06c-.68-.55-.78-.53-.78.14m28.13-.35a1.67,1.67,0,0,0-.3,1c0,.64.06.65.45,0,.25-.38.46-.46.46-.16s1,.54,2.56.56c1.85,0,2.55-.14,2.55-.6,0-.83-1.42-1.35-2-.74a1.64,1.64,0,0,1-1,.47c-.27,0-.18-.21.21-.46.61-.39.61-.45,0-.45a2.24,2.24,0,0,0-1.34.57c-.5.46-.56.46-.3,0s-.71-.83-1.27-.27m14.79.49c-.27.68-.37.7-.74.11s-.43-.56-.44.11.51.79,3.82.76c2.1,0,3.56-.13,3.25-.25a1,1,0,0,1-.58-.87c0-.89-.47-.83-1.2.15-.51.69-.69.72-1.21.16-.36-.38-.38-.52-.06-.34a.63.63,0,0,0,.84-.16c.17-.27-.22-.47-.93-.47s-1.09.18-1,.41-.08.55-.49.7-.67.09-.48-.41.09-.7-.13-.7-.53.36-.7.8m20.75-.1c-.44.48-.41.67.18.89,1,.37,1.26,0,.77-.81-.32-.56-.5-.58-.95-.08m8.56.31a.88.88,0,0,0,1,.74c1.11-.21.92-1.51-.23-1.57-.75,0-.93.16-.75.83m-99.5,1.56c-.5.56-.45.67.27.67a.8.8,0,0,0,.87-.69c0-.87-.36-.86-1.14,0m63.09-.41c-.89.36-.69,1.08.29,1.08a1.25,1.25,0,0,1,1.13,1c.14.54.48.84.75.67.56-.35.69-1.68.15-1.57s-2-.64-1.71-1.05.25-.46-.61-.11m24.74.09a.57.57,0,0,0,.21.78c.71.44,1.17-.17.58-.76-.34-.33-.6-.34-.79,0m-8.16,1.92c0,.52.31.93.69.93s.7-.22.7-.49-.26-.34-.58-.14-.38.09.06-.44c.55-.68.53-.79-.12-.79-.44,0-.75.39-.75.93m-76,2.78c0,.26.31.47.69.47s.7-.21.7-.47-.32-.46-.7-.46-.69.21-.69.46m51.26,0c-.44.71.66,1.09,1.39.48.46-.38.68-.39.68,0s.31.38.69.24.7-.46.7-.69c0-.55-3.12-.53-3.46,0m29.71-.05c-.35.56-.09,1.69.42,1.83.25.06.48-.41.5-1.05,0-1.12-.45-1.55-.92-.78m12.56-.08c-.6.6-.32,1,.61,1,.51,0,.87-.27.78-.52a.89.89,0,0,0-1.39-.44m-23.67,1.34c.33.86,1.55,1.24,1.55.49,0-.35-.4-.73-.89-.86s-.82,0-.66.37m17.67-.21a1.63,1.63,0,0,0-.81,1.2c0,.63.11.64.78.09s.73-.54.39,0-.22.54.12.34a1.47,1.47,0,0,0,.43-1.23c0-.51-.08-.92-.08-.91l-.83.49m-69.8.29c.45.11.82.37.82.58,0,.51,2.51.28,2.67-.24.07-.23-.87-.44-2.09-.48s-1.84,0-1.4.14m46.26.36c.31.38.76.58,1,.43.59-.36,0-1.12-.84-1.12-.59,0-.62.13-.15.69m-66.74,1.48c0,.57.12.64.29.21s.32-.53.69,0,.41.52.26,0c-.27-1-1.28-1.16-1.24-.18m51.16-.1a2.06,2.06,0,0,0,.49,1.05c.22.2.25.1.07-.22s-.12-.58.15-.58a.49.49,0,0,0,.5-.46c0-.26-.3-.47-.66-.47a.56.56,0,0,0-.55.68M299,224.34c.06,1.42.32,2.33.68,2.4s.4,0,.07-.13-.39-.34,0-.59c.89-.55,1.19-3.45.33-3.12a.74.74,0,0,1-.95-.28c-.13-.31-.2.47-.14,1.72m-65.06-.4c0,.73.19,1.07.49.88a.82.82,0,0,0,.24-1c-.15-.38-.06-.55.2-.39s.46.06.46-.21-.31-.49-.7-.49-.69.44-.69,1.18m44.28-.36c-.54.4-.76,2.07-.31,2.42a33.31,33.31,0,0,1,.08,6.3c-.18,4.73-.1,6.07.36,6.07s.58-1.73.55-7.58c0-4.16-.09-7.57-.13-7.56a2.68,2.68,0,0,0-.55.35m-35.78,1.17a.64.64,0,0,0,.63.64c.7,0,.58-.86-.16-1.11-.26-.09-.47.13-.47.47m-31,1.25c.15.26.06.47-.21.47-.77,0-.57,1.76.26,2.22s.68.44,0,.71-1.1,2.22-.4,2.11c.9-.14,1.21.11.59.5-.37.24-.52.6-.32.79.7.71,1.22-1,1.23-4.13,0-2.53-.13-3.13-.72-3.13-.4,0-.59.21-.43.46m26.66.78c-1,1.09-1.05,1.17-.17.7a3,3,0,0,0,1.26-1.23c.36-.95.26-.9-1.09.53m79.19,1.16c.12.48.45.81.72.72.88-.29.84-1.14-.07-1.38-.69-.18-.84,0-.65.66M233.92,229c0,.38.21.69.46.69s.46-.31.46-.69-.2-.7-.46-.7-.46.31-.46.7m2.2,1.46a.89.89,0,0,1,.58.69c0,.25-.18.34-.41.2s-.4.27-.4.9.18,1.15.4,1.15.41.54.41,1.19-.18,1.07-.54.86-.41-.13-.2.2c.77,1.24,1.2.35,1.2-2.48,0-2.58-.12-3-.81-3-.48,0-.58.13-.23.27m14.35,1.86c.2.52.12.66-.24.44s-.55-.12-.55.15.32.49.7.49.7-.41.7-.92-.21-.93-.45-.93-.32.35-.16.77m61.35,0c0,.41.25.65.56.55.86-.28,1-1.28.18-1.28a.74.74,0,0,0-.74.73m-9.15,3.21c-.79.89-.73,1.16.25,1.16a.91.91,0,0,0,.89-.93c.09-1.08-.33-1.16-1.14-.23m10.39,0q-.26.66.6.6c.49,0,.75-.32.61-.67-.3-.79-.89-.76-1.21.07m-100.15,1c-.37.37,0,1.1.63,1.1.24,0,.44-.32.44-.7,0-.72-.55-.92-1.07-.4m70.75,3.31c0,.48.31.88.61.88.68,0,.54-1.36-.17-1.59-.28-.09-.48.22-.44.71m-269,.14a.73.73,0,0,0,.6.5.73.73,0,0,0,.61-.5c.09-.27-.18-.5-.61-.5s-.69.23-.6.5m302.73-.13c0,.2.42.36.93.36s.92-.16.92-.36-.41-.37-.92-.37-.93.16-.93.37m-155.82,1.55c0,.62-2.16,2.72-2.8,2.72-.24,0-.44.31-.44.69a.7.7,0,1,0,1.39,0,.66.66,0,0,1,.62-.69c.34,0,.86-.53,1.16-1.19s.71-1.08.93-.94.38-.07.38-.44a.66.66,0,0,0-.62-.68.58.58,0,0,0-.62.53m85.64-.22a1.37,1.37,0,0,0-.31.85c0,.83,1.3.65,2.16-.31s-1-1.39-1.85-.54m19.17.18c0,.27-.2.38-.43.23a.54.54,0,0,0-.72.18c-.16.27.29.42,1.07.36s1.27-.31,1.13-.68c-.27-.7-1.05-.77-1.05-.09m14.37.15c0,.42.49.63,1.4.59,1.37-.06,1.78-.47,1-1-.23-.14-.53,0-.66.32s-.24.46-.27,0c-.05-.79-1.43-.74-1.43.06m13.92,0c0,.42.48.63,1.39.59,1.38-.06,1.78-.47,1-1-.23-.14-.53,0-.65.32s-.25.46-.28,0c0-.79-1.42-.74-1.42.06m11.45.13c.22.58.13.68-.36.4s-.54-.25-.1.23.69.49,1.28,0,.71-.48.71,0,.11.49.24.36c.5-.5-.37-1.77-1.2-1.77-.62,0-.78.23-.57.77m7.84,0c-.37,1-.38,1,.42,1a.78.78,0,0,0,.69-.85c0-1-.72-1.12-1.11-.11m-160.18,6.25a1.43,1.43,0,0,0,.81.81c.35.12.52-.06.4-.41a1.43,1.43,0,0,0-.81-.81c-.34-.11-.52.06-.4.41M130.83,250a1.74,1.74,0,0,0-.32,1.06c0,.64.06.64.46,0s.45-.57.45,0c0,.36.13.53.29.38s.08-.61-.15-1-.56-.6-.73-.42M57.7,251.78a.66.66,0,0,0,.65.66,1,1,0,0,1,.89.58c.13.31.25.13.27-.41a1.16,1.16,0,0,0-.89-1.24c-.6-.15-.92,0-.92.41M128.93,254a.71.71,0,0,0,.92.41c1-.37.8-1.08-.26-1.08-.6,0-.83.23-.66.67m-67.39,3.18a3.08,3.08,0,0,1,.94,1.49c.13.54.21.34.18-.49,0-1-.28-1.43-.94-1.48s-.8,0-.18.48M125.72,259c-.19.73-.11.83.34.46s.69-.38.81-.26.23-.08.23-.46c0-1.05-1.09-.84-1.38.26m-59.81,4.28c-.13.35.14.63.65.67s.88-.24.88-.61c0-.83-1.21-.88-1.53-.06m6.1,4.45c.53.34.53.44,0,.68s-.28.24.26.17c1.32-.16,1.49-1.27.19-1.26-.79,0-.91.12-.45.41m44.58.28a.7.7,0,1,0,1.39,0,.7.7,0,0,0-1.39,0m-2.79,1.6c.28.54.72.86,1,.71.64-.4.55-.59-.52-1.17-.89-.47-.92-.43-.44.46m-32.77,3c.26.79,1.71.85,1.71.08,0-.41-.38-.67-.93-.63s-.87.29-.78.55m26.14-.38a1.19,1.19,0,0,0-.32.67c0,.49,1.13.26,1.31-.27s-.55-.84-1-.4M85.8,274c.51,1.33,3.11,1.32,3.62,0,.19-.49-.24-.65-1.81-.65s-2,.15-1.81.66m13.45-.26c-.3.47.72,1,2.39,1.32a1.1,1.1,0,0,0,1.34-.58c.24-.61.38-.63.73-.13s.39.47.24-.08c-.21-.79-4.26-1.26-4.7-.53" transform="translate(-11.29 -129.62)"/><path id="path2" class="cls-3" d="M93.4,130.63c0,.71-5.06,1.6-6,1.05-.24-.15-.54.15-.67.65a1.26,1.26,0,0,1-1.34.93,2.88,2.88,0,0,0-1.9.92,2.6,2.6,0,0,1-1.49.93c-.39,0-.7.19-.7.43s-.73.87-1.63,1.43-1.62,1.2-1.62,1.44a2,2,0,0,1-.47,1c-1.92,2.27-2.31,2.88-2.31,3.59a2.06,2.06,0,0,1-.7,1.38,2.35,2.35,0,0,0-.69,1.62c0,2.6-.54,3.93-1.41,3.47s-1,.12-.35,1.18a10.32,10.32,0,0,1,.17,3.13c-.09,1.93,0,2.65.48,2.65s.73.78.9,1.74c.46,2.77.71,3.4,1.21,3.09.25-.16.34-.79.19-1.4l-.28-1.11H95.07l1.72,1.76,1.72,1.76V168c0,5.67,0,5.67-1.2,6.13-.66.25-1.11.71-1,1,.28.84,1.74,1,1.74.2s1-1.25,3.3-1.25c1.2,0,1.92-.24,2.1-.69a1.23,1.23,0,0,1,1.07-.7,2.78,2.78,0,0,0,1.65-.92,2.75,2.75,0,0,1,1.41-.93,1,1,0,0,0,.84-.7,1.15,1.15,0,0,1,1-.69c.39,0,.71-.2.71-.44a6.46,6.46,0,0,1,1.41-2,8.31,8.31,0,0,0,1.67-2.57c.15-.58.42-.95.62-.82s.49-.42.64-1.19a4.92,4.92,0,0,1,1-2.12c1-1,1-14,0-14.38-.38-.14-.69-.46-.69-.7a14.2,14.2,0,0,0-2.53-5,1.92,1.92,0,0,1-.72-1.13c0-.29-1.25-1.47-2.77-2.61s-2.78-2.34-2.79-2.65-.59-.58-1.34-.58a2.84,2.84,0,0,1-1.91-.7,2.74,2.74,0,0,0-1.85-.7c-3.28,0-5.59-.57-5-1.24.77-.93-.55-.63-1.38.32-.34.38-.5.45-.35.15a.66.66,0,0,0-.19-.84c-.26-.16-.48,0-.48.38m33.15,28.15c-.16.26,0,.41.32.34s.61.44.59,1.84c0,2.09.08,2.22,1.19,1.52.59-.38.6-.59.07-1.45s-.51-1.07,0-1.38c.33-.2.45-.53.26-.72-.56-.56-2.11-.66-2.42-.15m99.22,26.41c0,5.23.06,7.37.15,4.76s.08-6.89,0-9.51-.15-.47-.15,4.75m-77.64-7.88c.9.58,1.39.58,1.39,0,0-.25-.47-.46-1.05-.46-.84,0-.91.1-.34.46m-37.57,5.58c-8,.13-14,.28-13.33.34,1.26.11,1.28.14,1.28,3.47,0,1.85,0,15.86,0,31.14v27.78l-2,2.36a28.1,28.1,0,0,0-2.58,3.56c-1.41,2.78-2.59,3-17.54,3-15.34,0-14.64-.21-11.69,3.55A7.39,7.39,0,0,1,66,260.19,5.82,5.82,0,0,0,67.78,262a30.13,30.13,0,0,1,2.72,2.4,4.12,4.12,0,0,0,1.28,1,3.74,3.74,0,0,1,1.19.81c1.6,1.46,2.3,2,2.68,2,1.2,0,4.75,2.17,4.6,2.84s.12.72,1.42.54c2-.27,3.85.17,3.85.92s17.62.63,18.15-.22c.22-.37,1.32-.6,2.86-.6,2.09,0,2.46-.12,2.29-.76s.21-.86,1.24-1.08c.79-.18,1.43-.49,1.43-.71s.64-.53,1.42-.7a2.58,2.58,0,0,0,1.68-1,1.08,1.08,0,0,1,.93-.65c1.14,0,9.61-8.22,10.14-9.85.15-.45.46-.81.7-.81s.43-.39.43-.86a2.81,2.81,0,0,1,.93-1.69,2.83,2.83,0,0,0,.93-1.65,1.21,1.21,0,0,1,.69-1.07,1.55,1.55,0,0,0,.7-1.41c0-1.87.49-2.6,1.76-2.6,1,0,1.11-.07.45-.58s-.68-.88-.1-3.59c.52-2.38.65-8.55.66-29.18V187.36l-1.18-2c-1.46-2.5-3.35-2.17,14.17-2.48l15.07-.27-17.86,0c-9.82,0-24.42.13-32.46.27m55.19,5.55c0,.26.15.46.35.46s.34,2.77.34,6.15a37,37,0,0,0,.43,7c.3.62.27.79-.09.57-.62-.38-.44,2.31.31,4.8l.49,1.63-.26-1.63a22.47,22.47,0,0,1-.23-2.89c0-1.65,0-1.85-.25-8.65-.13-3.46,0-5.92.23-6.2a1.07,1.07,0,0,0,.21-1.09c-.28-.74-1.53-.88-1.53-.18m.7,21.32c-.32.51-.26,14.57.06,14.25s.5-14.7.31-14.7-.21.2-.37.45m29.79,1.73a5,5,0,0,0,1.86,0c.44-.11,0-.21-1-.2s-1.38.1-.81.21m12.75,0a10.87,10.87,0,0,0,2.55,0c.7-.11.13-.2-1.27-.2s-2,.09-1.28.2M165.39,232c0,.89.1,1.26.21.81a3.69,3.69,0,0,0,0-1.62c-.11-.45-.21-.08-.21.81m-6.51,10.3c-.65.65-.72,1.3-.14,1.3.22,0,.52-.42.65-.93.28-1.09.24-1.12-.51-.37m-17.53,6.94c-.22.36-.08.44.44.25s.77-.11.77.13.31.32.7.17.69-.45.69-.68c0-.61-2.21-.5-2.6.13" transform="translate(-11.29 -129.62)"/><path id="path3" class="cls-4" d="M88.66,130.56c.15.58,0,.84-.61.84s-.7.13-.55.28c.59.59,5.9-.35,5.9-1.05,0-.37.22-.54.48-.38a.66.66,0,0,1,.19.84c-.15.3,0,.23.35-.15.83-.95,2.15-1.25,1.38-.32-.56.67,1.75,1.24,5,1.24a2.74,2.74,0,0,1,1.85.7,2.84,2.84,0,0,0,1.91.7c.75,0,1.34.25,1.34.58s1.26,1.51,2.79,2.65,2.77,2.32,2.77,2.61a1.92,1.92,0,0,0,.72,1.13,14.2,14.2,0,0,1,2.53,5c0,.24.31.56.69.7,1,.4,1,13.35,0,14.38a4.92,4.92,0,0,0-1,2.12c-.15.77-.44,1.31-.64,1.19s-.47.24-.62.82a8.31,8.31,0,0,1-1.67,2.57,6.46,6.46,0,0,0-1.41,2c0,.24-.32.44-.71.44a1.15,1.15,0,0,0-1,.69,1,1,0,0,1-.84.7,2.75,2.75,0,0,0-1.41.93,2.78,2.78,0,0,1-1.65.92,1.23,1.23,0,0,0-1.07.7c-.18.45-.9.69-2.1.69-2.28,0-3.3.38-3.3,1.21,0,.46.61.65,2.09.65s2.09-.19,2.09-.67.6-.72,1.73-.81,1.7-.36,1.63-.72c-.11-.57.43-.77,1.62-.62a.47.47,0,0,0,.58-.43c0-.29.21-.39.46-.23s.47,0,.47-.43a.69.69,0,0,1,.64-.73,1.1,1.1,0,0,0,.92-.69,1.12,1.12,0,0,1,1-.7.79.79,0,0,0,.73-.81,3.81,3.81,0,0,1,1.39-2c.76-.63,1.38-1.33,1.38-1.57a2.11,2.11,0,0,1,.81-1.1c.53-.44.57-.56.11-.37s-.34,0,.16-.39a2.31,2.31,0,0,0,.76-1.77c-.22-2.66,0-4.1.71-4.1s.69-.81.69-4.58-.14-4.65-.69-4.86-.7-1-.7-3.11c0-2.45-.13-2.87-.93-3.08-.51-.13-.92-.53-.92-.88a.67.67,0,0,0-.7-.64q-.69,0-.69-1.41c0-.82-.29-1.52-.7-1.67a1.12,1.12,0,0,1-.7-.92.66.66,0,0,0-.68-.64,1.73,1.73,0,0,1-1.18-.94c-.28-.52-.68-.83-.89-.7s-.5-.18-.63-.69a1.23,1.23,0,0,0-1.27-.92,2.19,2.19,0,0,1-1.56-.69,4.07,4.07,0,0,0-2.71-.77c-1.7-.06-2.21-.25-2.21-.84s-.76-.76-6.19-.76c-5.75,0-6.18.05-6,.83m-4.07,1.54c0,.46-.46.69-1.42.69-1.41,0-3,1-2.42,1.57.16.16-.22.29-.83.29-.9,0-1,.1-.43.47s.53.5-.35.74c-.57.16-1,.58-1,.95s-.35.6-.81.52-.77.13-.67.87-.06,1-.74.78c-.86-.23-1,.08-1.06,2.31,0,.55-.26.76-.68.6s-.64-.11-.62.08c.32,2.09-.14,4.2-.87,4.06s-.82.2-.85,1.82.12,2,.69,1.92c.84-.06,1.32-1.23,1.39-3.36a3.18,3.18,0,0,1,.74-2,2.06,2.06,0,0,0,.7-1.38c0-.71.39-1.32,2.31-3.59a2,2,0,0,0,.47-1c0-.24.73-.89,1.62-1.44s1.63-1.2,1.63-1.43.3-.43.67-.43a2.71,2.71,0,0,0,1.51-.88,3.94,3.94,0,0,1,2-1c1.62-.22,1.86-1.78.27-1.78-.75,0-1.2.26-1.2.7m55,10.61c.12.3-.16.59-.61.64-1.69.19-2.43.4-2.78.79-.2.22,0,.22.33,0,.61-.35.61-.29,0,.41s-.73.68-1,.2-.39-.46-.39,0a.63.63,0,0,1-.65.58c-.35,0-.76.46-.91,1s-.39.89-.55.74c-.36-.36-2.54,1.65-2.54,2.34a.63.63,0,0,1-.69.53c-.47,0-.7.46-.7,1.39a3.64,3.64,0,0,1-.81,2.23c-.91.93-1.14,2.06-.78,3.84.47,2.31,1.48,1.35,1.81-1.7.2-1.86.55-3,1-3.16a1,1,0,0,0,.67-.86,2.36,2.36,0,0,1,.81-1.34,14.59,14.59,0,0,0,1.69-2c.48-.67,1.14-1.22,1.45-1.22a1.06,1.06,0,0,0,.85-.7,1.12,1.12,0,0,1,.86-.71,10.31,10.31,0,0,0,2.45-.91c1.41-.68,2.86-.9,6-.9s4.62.22,6,.9a10.31,10.31,0,0,0,2.45.91,1.11,1.11,0,0,1,.86.71c.15.38.44.7.66.7a7.5,7.5,0,0,1,2.75,2.7,3,3,0,0,0,.93,1.13,2.61,2.61,0,0,1,.93,1.53,2.45,2.45,0,0,0,.69,1.43c.55.55.7,2,.7,6.69,0,4.91.12,6,.67,6,.9,0,1.34-.78.61-1.08-.46-.18-.46-.24,0-.27.92-.06.81-10.18-.12-10.53a1.27,1.27,0,0,1-.7-1.11c0-1.34-.51-2.31-1.21-2.31a.59.59,0,0,1-.64-.51c0-.29.36-.39.81-.23.77.27.77.25,0-.35-.45-.35-.81-.76-.81-.91A6.65,6.65,0,0,0,157,146.7a.44.44,0,0,1-.41-.58c.07-.34-.5-.63-1.43-.72-1.11-.11-1.47-.34-1.29-.82s-.05-.66-.63-.66c-1.71,0-3.53-.93-2.78-1.42.45-.29-1.32-.43-5.2-.39-4.31,0-5.82.2-5.67.6M71.81,155.16c.08,2.62.19,5,.25,5.22.42,1.64.55,1.63-25.7,1.63-24,0-25.75-.06-26.24-.81s-.5-.75-.25.05.09.82-.66.63c-.51-.14-1-.06-1.19.16-.24.4,54.51.87,55.83.48.61-.18.58-.84-.21-4.8-.14-.7-.51-1.28-.84-1.28s-.55-.77-.45-2.77a6.62,6.62,0,0,0-.26-3c-.23-.13-.35,1.89-.28,4.51m295.4,2.64c-.75.72.11,1.33,2.23,1.57,1.34.15,2.91.38,3.5.51s.93,0,.78-.22a1.55,1.55,0,0,0-1.17-.44.8.8,0,0,1-.9-.86c0-.81-3.71-1.28-4.44-.56m-1.09.79c0,.28-.68.65-1.46.8s-1.29.5-1.13.76.06.47-.23.47-.41.18-.27.4c.79,1.27,3.93-1,3.35-2.4-.15-.37-.24-.38-.26,0M239,159.87c0,.35-.43.75-1,.89-1.73.45-1.21,5.88.56,5.88,1.35,0,1.73-.78.82-1.7a3.19,3.19,0,0,1-.35-2.06c.2-2,3.28-2.69,3.79-.78s.35,2.22-.86,2.77c-.64.29-1.16.81-1.16,1.15s.5.62,1.16.62,1.16-.23,1.16-.52A1.79,1.79,0,0,1,244,165c1.09-.8,1.15-2,.12-2.33-.49-.15-.86-.42-.83-.59.17-1.22-.14-1.89-.77-1.65s-.62.06-.41-.48,0-.75-1.39-.75c-1.11,0-1.67.22-1.67.65M33.5,161c7.22.08,18.91.08,26,0s1.15-.13-13.13-.13-20.06.06-12.84.13m160.87-.06a3.77,3.77,0,0,0-.33,1.85,2.64,2.64,0,0,1-.54,1.85c-.33.21-.41.13-.2-.2s.11-.54-.16-.54c-.86,0-.67,29.51.18,29.84.59.23.7-1.85.81-15,.15-17,0-16.17,3.28-16.18,1.18,0,1.85.23,2,.72a2.42,2.42,0,0,0,1.29,1.12c.83.31,1,.67.81,2.05s0,1.67.52,1.67.77.49.86,1.23c.19,1.6,1.77,2,1.77.4a1.49,1.49,0,0,0-.69-1.34,1.27,1.27,0,0,1-.7-1.15,4.3,4.3,0,0,0-.93-2.05,4.22,4.22,0,0,1-.92-1.94,1.17,1.17,0,0,0-.7-1,1.08,1.08,0,0,1-.7-.84c0-.63-5.11-1-5.69-.44m30.61,0a1,1,0,0,0,0,.93c.16.43-.08.65-.73.65s-1,.29-1,.93a.81.81,0,0,0,.87.93,1.25,1.25,0,0,0,1.12-.93c.19-.72.63-.93,1.94-.93,3.71,0,3.49-1.12,3.49,17.87v16.91h-2.09c-1.77,0-2.08.14-2.08.93,0,1.07,4.28,1.41,4.91.39.21-.33.13-.41-.2-.2s-.54.11-.54-.16.42-.5.94-.5c.92,0,.94-.23.91-17.62,0-15.58-.12-17.62-.75-17.62a1.17,1.17,0,0,1-1-.93c-.24-.91-5-1.44-5.83-.65M361.79,162a2.09,2.09,0,0,0-.81,1.65c0,1.88,1.61,1.26,1.67-.65a10,10,0,0,0,0-1.48l-.86.48m10.85,0c-.07.8-1.37,1.31-3.37,1.32-1.5,0-3.22,2.2-2.22,2.82.73.44,1.48.09,1.1-.53-.15-.24.75-.43,2.09-.43,2.59,0,3-.41,2.67-2.62-.11-.73-.23-1-.27-.56m-357.58.84a3.28,3.28,0,0,1-1.42,1c-.25,0-.46.42-.46.93a.82.82,0,0,0,.93.93c.51,0,.92-.29.92-.65s.54-.78,1.19-.94,1.14-.57,1.05-1.06c-.23-1.15-1.15-1.22-2.21-.16m112.75.12c-.93.93-.69,3.2.37,3.48.7.18.93.63.93,1.81s.22,1.57.7,1.57.69.46.69,1.39.24,1.39.67,1.39a1.2,1.2,0,0,1,.94.88,1.94,1.94,0,0,0,1.24,1.13c.61.16.83.46.61.82s-.16.44.19.23a.6.6,0,0,0,.28-.77c-.15-.24-.05-.43.22-.43s.49.31.49.69.47.7,1.43.7,1.51.26,1.66.85c.27,1,1.94,1,2.52,0,.33-.6,0-.78-1.67-1-1.15-.17-2.08-.51-2.08-.75s-.31-.43-.67-.43c-1,0-5.36-4.61-5.36-5.64a1.26,1.26,0,0,0-.67-1.14c-.41-.15-.79-1.24-1-2.77-.32-2.59-.56-2.9-1.51-1.95m248.47,1.48a1.1,1.1,0,0,1-.69.91c-1.11.43-1,6.45.11,6.24.66-.13.84-.73.95-3l.14-2.89h3.67v2.93c0,3.15.18,3.64,1.2,3.25s.85-2.47,0-2.47c-.54,0-.7-.62-.7-2.79v-2.78H378.6c-1.67,0-2.32.18-2.32.65m-154.1,1c-.68.69-.32,2.09.49,1.93a1.06,1.06,0,0,0,.81-1c0-.93-.75-1.44-1.3-.9m-62.71,2.57c-.35,1.59-.71,2.13-2.65,4-1.4,1.33-1.67,2.45-.58,2.45a.65.65,0,0,0,.7-.58c0-.33.62-.86,1.39-1.2,1-.43,1.39-.95,1.39-1.69a1.44,1.44,0,0,1,.63-1.31,1.55,1.55,0,0,0,.29-2.65c-.72-.38-.9-.23-1.17,1m61.09.94a2.65,2.65,0,0,0-.56,1.62c0,.59-.26,1.07-.59,1.07s-.64.57-.7,1.27a2.77,2.77,0,0,1-.79,1.79c-1,.76-.94,3.54.11,3.34.6-.12.82-.62.82-1.89s.18-1.73.81-1.73.81-.39.81-1.62.21-1.63.69-1.63.7-.46.7-1.39c0-1.48-.4-1.74-1.3-.83m145.09.81c0,1.22.1,1.47.51,1.06s.41-.82,0-1.6c-.48-1-.51-1-.54.54m-353.55-.6a18.29,18.29,0,0,0-.23,4.52L12,178l.28-4.41c.3-4.86.3-4.76-.13-4.33m246.68,1.34a.94.94,0,0,1-.86.64c-2.41-.32-4,.07-3.84.93.13.67,0,.85-.71.72a2.18,2.18,0,0,0-1.68.61c-.73.74-.73.8.1,1,.48.09,1-.06,1-.34s.88-.63,1.76-.8,1.59-.57,1.59-.94c0-1.17,7.93-.89,9,.32s.84,2.94-.53,3.13-1.16,1.68.33,1.76a1.15,1.15,0,0,0,1.32-.81c.12-.48.5-.87.84-.87.86,0,1.13-.6.82-1.8-.17-.63-.52-.94-.91-.79s-.63-.12-.63-.9c0-1.22-.24-1.3-3.36-1.16-2,.09-2.25-.28-.7-.9.85-.34.65-.43-1.11-.45-1.53,0-2.23.18-2.43.69m22.16-.18c-.22.35-.12.4.28.16s.49-.2.27.16a1.87,1.87,0,0,1-1.42.53c-1.58,0-2.56.47-2.56,1.21s-1.66.88-2.09.18-1.16-.59-1.16,0c0,.27.19.38.41.24s.54.58.7,1.59c.31,1.93,1.41,1.63,2.28-.62a1.21,1.21,0,0,1,1-.77.71.71,0,0,0,.71-.7c0-1,3.85-.95,4.84,0,.66.67.73.63.73-.42s-.18-1.1-1-.88-.94.09-.74-.41c.31-.83-1.75-1.13-2.24-.33m12.2-.24c-1.24,1.23-.2,1.56,5,1.56,4.86,0,5.35-.08,5.21-.82s-9.48-1.52-10.25-.74m23,.4a1.1,1.1,0,0,1-.92.69c-.35,0-.64.42-.64.93s.31.93.69.93a.72.72,0,0,0,.7-.74c0-.64.68-.72,5.21-.59,4.91.15,5.22.1,5.33-.77s.1-.89-.26,0c-.26.62-.49.73-.72.35a1.06,1.06,0,0,1-.05-1c.18-.29-1.4-.46-4.4-.46-3.73,0-4.73.14-4.94.7m23.34-.4c-1.24,1.23-.19,1.56,5,1.56,4.86,0,5.35-.08,5.21-.82s-9.47-1.52-10.25-.74m20.35.48a.93.93,0,0,0,1.33,1.17c.28-.18.13-.37-.35-.47-.66-.13-.72-.3-.29-.82s.36-.66.07-.66-.6.35-.76.78m-161.76,13L198,197l-1.74.14c-1.41.12-1.75,0-1.78-.69,0-.52-.13-.61-.27-.24s-.38.48-.95,0-.67-.44-.51.33c.11.5.45.86.75.8s.56.3.56.81c0,.82.31.93,2.6.93,2.11,0,2.55-.13,2.33-.69-.15-.4,0-.65.3-.58s.59-2.42.69-10.21c.12-9.93.16-10.32,1-10.32.71,0,.92-.31.92-1.39,0-.93-.23-1.39-.7-1.39s-.69-.49-.69-1.61a2.34,2.34,0,0,0-2.05-2.57c-.14,0-.31,6-.38,13.34m27.27-11.38c-.93,2.2-.93,3.61,0,3.61.62,0,.71,1.25.66,9.55a90.1,90.1,0,0,0,.24,9.83c.15.16.22-4.43.15-10.18-.1-7.93,0-10.61.44-11,.76-.7.74-1.51-.08-2.61-.63-.86-.7-.82-1.39.82m-20.85-.3c-.35.93.15,2.05.93,2.05s.84-2.14,0-2.47a.71.71,0,0,0-.92.42m33.16-.36c-.36.12-.52,4-.52,13.07v12.89l1.05.28c.87.24.93.36.34.75s.06.45,2,.46c2.53,0,2.66,0,2.66-1.15,0-.64.26-1.16.58-1.16.54,0,.67-16.71.17-21.1-.09-.77-.14,3.56-.11,9.6.06,12.25.06,12.26-3.23,11.88l-1.35-.15V185.19c0-6.5.14-12.25.3-12.76.29-.93-.47-1.25-1.88-.78m3.66.48c0,.58.55,1,1.74,1.37,1.46.44,1.61.43.92-.09a1.94,1.94,0,0,1-.81-1.09c0-.4-1-1-1.66-1-.11,0-.19.38-.19.85m28.83-.43c-.42.26-.53,3.7-.44,13.76l.13,13.41,1.27.15c1.29.15,1.84-.9.81-1.54-.29-.18-.46-4.71-.46-12s.17-11.88.46-12.06a1.4,1.4,0,0,0,.47-1.09c0-.84-1.29-1.17-2.24-.58m18.76,1.59a10.94,10.94,0,0,0-2.15,2.38c0,.21-.35.63-.77,1a3.54,3.54,0,0,0-.91,2.26c-.15,1.91-.52,2.73-1.07,2.39-.2-.12-.41,1.52-.45,3.66-.06,2.62.09,4,.47,4.24s.45.13.22-.31,0-.25.39.25c.68.83.73.5.73-4.29,0-4.31.12-5.19.7-5.19.38,0,.69-.41.69-.93s-.21-.93-.46-.93a.48.48,0,0,1-.46-.51c0-.28.31-.39.69-.25s.7.07.7-.18.31-.45.69-.45.7-.21.7-.46c0-.68,1.61-2.18,2.74-2.54s1.35-2.1.34-2.1a8.9,8.9,0,0,0-2.79,2m15.61-1.22c-.17.44-.06.86.25,1,.95.32,3.33,2.93,3.33,3.65a2.41,2.41,0,0,0,.69,1.39c.54.55.7,2,.7,6.43s-.16,5.88-.7,6.42a2.46,2.46,0,0,0-.69,1.41c0,.94-2.81,3.53-3.83,3.53a.76.76,0,0,0-.81.7c0,.42-.43.69-1.1.69-2.09,0-4,.58-4,1.22,0,.91,3.87.86,4.63-.06a2,2,0,0,1,1.24-.7,1.09,1.09,0,0,0,.91-.69,1.12,1.12,0,0,1,.92-.7c.35,0,.64-.45.64-1,0-.76.14-.88.53-.49.87.87,2.72-1.58,2.72-3.58,0-.63.19-.87.54-.66s.4.13.22-.17a.58.58,0,0,1,.16-.8c.26-.16.47-1.61.47-3.23,0-2.72.07-2.93.93-2.7.51.13.93.48.93.77s.5.75,1.1,1c1.35.62,1.19-.88-.24-2.27a2.89,2.89,0,0,1-.86-1.79c0-.75-.22-.91-1-.71-.53.14-.85.13-.7,0,.36-.36-.65-1.57-1.08-1.3-.19.12-.37-.65-.41-1.7-.08-2-.29-2.46-1.16-2.46-.3,0-.61-.47-.69-1s-.4-1-.7-1-.81-.42-1.13-.93c-.71-1.13-1.43-1.19-1.83-.14m31.84-.06c-.24.28-.3.65-.13.82s.06.31-.23.31a8.18,8.18,0,0,0-2.46,1.91c-1.79,1.79-2.12,2.6-2.37,5.85a.64.64,0,0,1-.64.58c-.42,0-.64,1-.73,3.33-.12,2.69-1.3,5.6-1.3,3.18,0-.29.26-.4.58-.24s.17,0-.32-.43-.74-.73-.55-.73-.26-.63-1-1.4c-1.56-1.56-3-1.89-2.53-.58a9.72,9.72,0,0,0,1.84,2.35c1.43,1.41,1.55,1.74,1.55,4.52s.09,3,.92,3,.93-.31.93-2.58.08-2.56.93-2.29.93.08.93-5.07c0-4.46.11-5.36.69-5.36s.7-.44.7-1.15a1.89,1.89,0,0,1,.94-1.64c.51-.28.81-.72.65-1s.13-.58.65-.72a1.91,1.91,0,0,0,1.19-.89,1.32,1.32,0,0,1,1.19-.65.82.82,0,0,0,.94-.9c0-1-1.58-1.15-2.34-.23m14.4.2c0,.51.18.93.4.93a5.09,5.09,0,0,1,1.65,1.16c.69.65,1.44,1.06,1.66.92a.5.5,0,0,1,.67.2.54.54,0,0,1-.2.73c-.73.45-.55,2.09.22,2.09.59,0,.7,1,.7,6.49s-.11,6.49-.7,6.49c-.38,0-.69.42-.69.93,0,.92,1.34,1.35,1.45.46l.13-1a.54.54,0,0,1,.63-.47c.3.06.42-.19.27-.58s0-.69.25-.69c.84,0,.69-9.27-.17-9.92a3.75,3.75,0,0,1-.87-2.14c-.23-2-.73-3.24-1.28-3.24-.22,0-.41-.31-.41-.7a.69.69,0,0,0-.7-.69.67.67,0,0,1-.69-.65c0-.61-.94-1.21-1.9-1.21-.23,0-.42.42-.42.93m5.87-.62c-.7.7-.33,4.33.45,4.33.58,0,.63.14.22.64s-.24.69.93.92c2.29.46,2.73.36,2.73-.63,0-.59-.31-.93-.84-.93-1.73,0-2.53-1.06-1.89-2.49s-.54-2.9-1.6-1.84m10.14.06c-.76.76-.1,1.49,1.35,1.49a9,9,0,0,1,2.74.44c1,.38,1.21.28,1.62-.89l.46-1.32-3,0a11.8,11.8,0,0,0-3.21.26m19.48,1.65c.33,2.19-.32,2.62-4,2.62-.93,0-1.36.28-1.56,1-.41,1.52-.35,3.6.09,3.6.21,0,.3-.68.2-1.51s0-1.3.23-.92a12.24,12.24,0,0,1,.22,4.06c-.14,2.34,0,3.47.31,3.47s.51-1.37.51-3.94v-3.95h1.63c.89,0,1.75,0,1.91,0,.68.09,1.09-1.35,1.09-3.86,0-1.58-.19-2.67-.48-2.67s-.39.72-.19,2m-59.61-.42c0,.42.2.66.43.51s.53,0,.66.32.25.39.27.06a1.73,1.73,0,0,0-.66-1.1c-.57-.47-.7-.44-.7.21m-14.84.87c0,.23.32.29.7.15s.7-.07.7.18-.44.45-1,.45c-.73,0-.93.25-.82,1,.19,1.33,1.78,1.72,1.78.44a2.19,2.19,0,0,1,.69-1.48c1.09-.91.82-1.42-.69-1.3-.77.06-1.4.29-1.4.52m75.93.43a1.57,1.57,0,0,0,.11,1.24c.27.44.41.43.61-.08a1.57,1.57,0,0,0-.11-1.24c-.27-.44-.41-.43-.61.08m-234.38.54a3.81,3.81,0,0,1-2.2.93c-2.27.36-2.48.56-1.56,1.49s2.77.46,2.4-.52c-.18-.47.14-.63,1.19-.6,1.68,0,2.1-.26,1.72-1.24s-1.07-.92-1.55-.06m52.72,1.39c0,1.08.22,1.66.62,1.66,1,0,1.17-.42.82-1.73-.51-1.91-1.44-1.86-1.44.07m43.76-.89c.15.4,0,.7-.33.7a3.28,3.28,0,0,0-1.6,1.16c-.56.64-.81,1.16-.55,1.16a.49.49,0,0,1,.46.51c0,.28-.31.39-.7.25s-.69.12-.69,1.52c0,1.11.25,1.89.65,2,.92.35,1.2-.08,1.2-1.82a3.62,3.62,0,0,1,.7-2.2,2.42,2.42,0,0,0,.69-1.37,1.93,1.93,0,0,1,.7-1.25c.71-.59.54-1.39-.31-1.39-.27,0-.37.31-.22.69m34.38.24a4.92,4.92,0,0,1-2.6.46c-1.36,0-2.21.18-2.05.44s-.36.77-1.13,1.17S277,178.58,277,179a1.12,1.12,0,0,1-.69,1c-.78.3-1,3.65-.27,4.1s1.37-1.28,1.55-4.27a.62.62,0,0,1,.6-.58c.31,0,.67-.4.79-.89.21-.79.55-.86,3.07-.63l2.84.25v-1.45c0-1.51-.2-1.79-.7-1m86.23.28c-2.31.94-1.12,2.11,2,1.95,2.59-.13,2.41-.77,2.47,8.8,0,5.44.24,8.54.56,8.74s.36.09.16-.23,0-.53.39-.53c.83,0,1.1-16.32.29-17.59-.69-1.1-4.25-1.8-5.85-1.14m-280.3.71c0,1,.39,1.06,1.52.21.76-.58.74-.64-.35-.85-.91-.18-1.17,0-1.17.64m234-.25a.76.76,0,0,1-1,.48c-.38-.15-.69-.09-.69.13,0,1,3.65.76,4.14-.3s.36-1-.85-1a1.68,1.68,0,0,0-1.62.74m-68.45.41c0,.39-.41.7-.92.7a.93.93,0,1,0,0,1.86c.52,0,.92-.31.92-.72a1.15,1.15,0,0,1,.7-1,1.1,1.1,0,0,0,.69-.91.67.67,0,0,0-.69-.65.7.7,0,0,0-.7.69m37.57.06c0,.37.48.64,1.15.64s1.16-.27,1.16-.64-.48-.63-1.16-.63-1.15.26-1.15.63m6.5.05c-.6.68-.59.73.12.46.44-.17.8-.1.8.15s.26.44.59.44c.84,0,2.19,1.71,2.19,2.78a1.82,1.82,0,0,0,.93,1.4c.84.45.92.35.92-1.15,0-1.14-.21-1.63-.69-1.63s-.7-.42-.7-.93-.31-.93-.69-.93a.7.7,0,0,1-.7-.7c0-.94-1.9-.86-2.77.11m17.47.12c.2.73.41.82,1.12.44,1.22-.65,1.09-1.36-.24-1.36-.88,0-1.07.19-.88.92m21.94,0c0,.54-.31.85-.8.81a1,1,0,0,0-1,.86,2.15,2.15,0,0,1-.83,1.3c-1,.56-.92,9.6.05,9.6a.81.81,0,0,1,.7.9c0,1.13,2.1,3.46,2.76,3s.58-1.63-.21-1.63c-.38,0-.69-.22-.69-.49a3.21,3.21,0,0,0-.87-1.41c-1-1.11-1.05-7.89,0-9.75a5.61,5.61,0,0,0,.63-1.49c0-.21.38-.65.83-1,1-.73,1.05-1.65.11-1.65a.8.8,0,0,0-.69.88m7.88-.45c0,.24-.37.52-.81.64-.61.16-.56.23.23.27a4.09,4.09,0,0,0,1.27-.07c.12-.06.55.36.95.93.9,1.29,1.61,1.34,1.61.12,0-.53-.31-.93-.72-.93a1.12,1.12,0,0,1-1-.7c-.29-.75-1.56-1-1.56-.26M32.69,177.5c-.34.41-.49,2.12-.4,4.74.17,5.16.31,5.26,7.81,5.27,7.15,0,6.47-2,6.47,19.32,0,21-.51,19.17,5.23,19.17,5.34,0,5,1.45,5-19.57,0-13.73.13-18,.58-18.36s3.26-.55,6.53-.63c7.18-.19,7.26-.25,7.26-5.38,0-5.72,1.91-5.21-19.43-5.21-15.28,0-18.57.11-19,.65M223,177.27a1.4,1.4,0,0,0,1,1.9c.38,0,.64-.48.64-1.16,0-1.14-1-1.63-1.6-.74m-81.23.37a3.54,3.54,0,0,0,1.93.2c1.3-.11,1.55,0,1.32.6s-.08.66.46.45.63-.47.49-.7.43-.41,1.28-.4c1.45,0,1.48.05.63.69-.49.38-.68.69-.4.69.67,0,1.6-1.18,1.22-1.55a13.68,13.68,0,0,0-3.78-.31c-1.92,0-3.33.15-3.15.33m-72.32.86c.89.89,1,6.22.17,7.07-.37.37-2.46.55-6.34.55-8.28,0-7.48-2.09-7.48,19.52,0,20.75.3,19.44-4.34,19.44-4.27,0-4,1.28-4-19,0-21.79.84-19.63-7.73-19.94l-6.41-.23-.14-3.41c-.08-2.11.07-3.65.41-4,.86-1,34.83-1,35.87.07m132.19-.26c-.44.72.22,2.32,1,2.32.42,0,.66-.5.66-1.39,0-1.38-1-1.95-1.63-.93m5.89.76c.09.83.46,1.38,1,1.48.68.13.82-.09.7-1.15-.1-.83-.47-1.37-1-1.48s-.82.1-.69,1.15m83.57-.05c-.15.63-.57,1.14-.93,1.14-1,0-.93,8.61.05,9a1.62,1.62,0,0,1,.7,1.44c0,.69.26,1.18.64,1.18s.75.41.88.93.49.83,1,.64c.94-.36,1-1.57.05-1.57a.79.79,0,0,1-.7-.86A3.49,3.49,0,0,0,292,189c-.81-.93-.92-2.65-.58-9a.8.8,0,0,1,.74-.81c.89,0,.9-.75,0-1.1-.46-.18-.78.11-1,.88m74.48,7.35c0,10.89-.05,11.08-2.62,10.87-1.83-.14-2-.06-2,.89s.22,1.05,2.35,1.05c1.32,0,2.23-.19,2.08-.43s.1-.55.55-.69c1.05-.34,1.29-19.75.24-19.75-.44,0-.58,1.92-.58,8.06m-150-6.44c-.36,1,.13,2.09.92,2.09.4,0,.64-.51.64-1.39,0-1.48-1.07-2-1.56-.7m36.81.7c0,1.14.17,1.42.81,1.3,1.09-.21,1.09-2.4,0-2.61-.62-.12-.8.17-.8,1.31m65.44-.61c.56.68.54.74-.17.48-1-.39-1-.25.05,1,.83,1,2.85,1.41,2.85.64a10.89,10.89,0,0,0-3.12-2.88c-.13,0,0,.35.39.78m32.37-.2c-.35,1.17-.32,2.2.07,2.2s.36.2.2.46,0,.34.44.18c.95-.37,1-3,0-3-.38,0-.71.05-.73.12M221.4,181.68c0,1.17-.21,1.66-.7,1.66s-.7.44-.7,1.16c0,1.41.18,1.43,1.33.2a2.15,2.15,0,0,0,.63-2c-.22-.86-.16-.93.45-.44s.7.4.66-.68c-.08-2.09-1.67-2-1.67.07M11.94,183.8c0,1.92.08,2.7.18,1.74a20.22,20.22,0,0,0,0-3.48c-.1-.95-.18-.17-.18,1.74m81.6-2.87a.58.58,0,0,1,.51.76c-.45,1.15,3.06,1.24,35.91.94,34.65-.32,33.47-.26,32.53-1.39-.54-.65-4.21-.71-35.14-.59-19,.08-34.21.2-33.81.28m109.77,1.68c0,.66.22,1.19.49,1.19s.36.26.2.58,0,.17.45-.34c.91-1.12.75-2.26-.33-2.47-.6-.11-.81.16-.81,1m5.75-.2a10.87,10.87,0,0,1,.27,1.51c0,1,1.4.2,1.4-.84,0-.75-.19-1.07-.52-.87a.76.76,0,0,1-1-.32c-.33-.46-.38-.31-.19.52m-45.17.83a2.61,2.61,0,0,0,.93,1.61,2.92,2.92,0,0,1,.93,1.91,1.25,1.25,0,0,0,.92,1.35c.77.2.93,0,.93-1.1,0-.89-.23-1.35-.69-1.35a.7.7,0,0,1-.7-.7.65.65,0,0,1,.58-.7q.59,0-.12-.45a2,2,0,0,0-1.5-.2c-.45.14-.81,0-.81-.21s.36-.55.81-.67c.61-.16.55-.22-.23-.27s-1.05.21-1.05.78m50.4-.52c-.7.69-.29,2,.61,2,.68,0,.93-.31.93-1.16,0-1.09-.84-1.55-1.54-.85m107.07.1c-.37.61,1,1.59,1.81,1.28s.38-1.69-.7-1.69a1.49,1.49,0,0,0-1.11.41m-110,2.14c.15.38.07.7-.18.7-.73,0-.51,1.73.25,2a1.61,1.61,0,0,1,.69,1.44c0,.65.12,1.18.27,1.18.74,0,2-2.25,2-3.48,0-.77-.13-1-.25-.58-.3,1.15-1.41,1-1.83-.23a3.9,3.9,0,0,1-.26-1.4c.05-.19-.14-.34-.42-.34s-.4.31-.25.69m139,.47c0,.63.08,1.16.17,1.16s.28-.53.4-1.16,0-1.16-.17-1.16-.4.52-.4,1.16m-145.62.68a2.72,2.72,0,0,0,.7,1.87,1.9,1.9,0,0,1,.69,1.21c0,.35.42.64.93.64a1,1,0,0,0,.27-2,2,2,0,0,1-.82-1.51c-.21-1.79-1.77-2-1.77-.2m71.62-.77a35.3,35.3,0,0,0-.1,5.45l.13,4.84.23-5.45c.23-5.39.19-6-.26-4.84m104.22,2.95c-.09,4.15.15,5.25,1.13,5.25a.67.67,0,0,1,.64.7c0,.41.43.69,1.05.7,3,0,4.15,1.4,2,2.4-1.45.66-1.26,1.49.39,1.68.86.1,1.24-.07,1.24-.56a1.64,1.64,0,0,1,.81-1.17c.75-.44.75-.48,0-.49s-.82-.49-.93-1.75c-.14-1.72-.16-1.74-2.34-1.88s-2.21-.15-2.24-1.86c0-.94-.15-1.45-.28-1.13-.32.81-1.08.25-1.08-.81a1.16,1.16,0,0,1,.81-1.07c.73-.19.74-.22,0-.27-.55,0-.84-.57-1-1.79-.1-1-.22,0-.26,2M316,185.86c0,.68,1.64,1.46,2.67,1.26a.44.44,0,0,1,.57.4c0,.28-.19.39-.43.24a.54.54,0,0,0-.72.21c-.17.28.28.47,1.13.47s1.42.23,1.42.7a.71.71,0,0,0,.73.69c.81,0,.79,2.29,0,2.89s-5.22.4-5.51-.36c-.2-.54-.8-.69-2.25-.58l-2,.14-.13,2.9c-.13,2.65-.06,2.89.81,2.89.53,0,1,.31,1,.7s.41.7.92.7c1.23,0,1.21-1.41,0-1.73-1.6-.42-1.1-3.56.6-3.75.91-.11,1.28.06,1.28.58,0,1.44,4.92,1,6.53-.63s1.86-3.75.66-3.75c-.4,0-.7-.42-.7-1s-.21-.89-.69-.71-.89-.11-1.17-.64a1.8,1.8,0,0,0-1.42-.91,1.34,1.34,0,0,1-1.19-.7c-.34-.89-2-.91-2,0m-97.39,1.6a1.3,1.3,0,0,0,.7,1.15c.5.19.69-.05.69-.88s-.26-1.14-.69-1.14a.8.8,0,0,0-.7.87m131.43.76c-.37,1.45,0,2.54,1,2.54.49,0,.71-.47.71-1.57,0-2-1.24-2.67-1.67-1m-103.29-.4c-.64.64-.28,3,.62,4a3.43,3.43,0,0,1,.92,1.84.77.77,0,0,0,.64.84c.36,0,.76.44.9,1s.48.84.75.67.5.09.5.65.29,1,1.1,1a2.49,2.49,0,0,1,1.68.7c.75.9,4.17,1,4.17.06s-2.71-1.39-3.47-.76-1.17.14-1.17-1c0-.47-.24-.85-.53-.85-.73,0-3.18-2.78-3.18-3.62,0-.4-.31-.58-.81-.45-.7.19-.79-.08-.65-2,.16-2.16-.45-3-1.47-1.94m57,1.07c-.34,1.56,0,2.33,1,2.33.44,0,.67-.49.67-1.39s-.22-1.39-.49-1.39-.36-.21-.2-.46.08-.47-.17-.47-.59.62-.76,1.38m-51.24.38c0,.88,3.28,4.27,4.13,4.27.28,0,.5-.33.5-.74s.26-.65.72-.47.6.08.44-.19a1.52,1.52,0,0,0-1.16-.45c-.91,0-3.24-2-3.24-2.81,0-.24-.32-.44-.7-.44a.77.77,0,0,0-.69.83m-34.9.42c-1.17.3-1.17,3.53,0,3.3.53-.1.91-.76,1.09-1.89.15-.95.16-1.71,0-1.68l-1.09.27M12,211.63c0,12.11.06,17.07.13,11s.08-16,0-22-.13-1.1-.13,11M285.17,191.4c.17,1.63.2,1.68.92,1.68,1,0,.89-2.16-.17-2.44-.66-.17-.83,0-.75.76m46.13.2a3.41,3.41,0,0,0,.73,1.74c.4.49.6.64.44.32s-.07-.58.2-.58.49-.52.49-1.16c0-.85-.25-1.16-.93-1.16s-.93.31-.93.84m-123,.4c-.74.73-.3,2.47.62,2.47s1.16-.71.64-2.05c-.3-.78-.76-.93-1.26-.42m55.34.39c0,.39.52.91,1.16,1.15,1.84.7,1.7,3.71-.18,3.71-2.3,0-4.23.56-4.23,1.22,0,.46.66.64,2.35.64s2.24-.17,2-.5.13-.61.66-.75,1-.44,1-.66.38-.41.85-.41c.71,0,.85-.37.83-2.12s-.12-2.09-1-1.88-.93.23,0-.43.73-.67-1.28-.67c-1.64,0-2.17.17-2.17.7m38.49,0c0,.38.08.7.19.7a4.41,4.41,0,0,1,.93.28c.52.2.73,0,.73-.7s-.29-1-.93-1-.92.31-.92.69m46.68-.38c-.59.58-.31,1.08.62,1.08.51,0,.93-.31.93-.7,0-.7-1-.95-1.55-.38M215.5,194.33c.09.68.45,1.34.79,1.45s.52-.05.33-.54a.87.87,0,0,1,.17-1c.6-.37.08-1.14-.77-1.14-.48,0-.63.38-.52,1.25m44.24-.6c-.33.86.07,1.2,1.38,1.2s1.48-1.14.35-1.57-1.46-.35-1.73.37m35.39.28c0,.83.31.92,3.25.92s3.24-.09,3.24-.92-.31-.93-3.24-.93-3.25.09-3.25.93m46.37,0c0,.86.3.94,3.28.94s3.27-.1,3.13-.81c-.25-1.33-6.41-1.45-6.41-.13m-8.34.72c0,.69.2,1.08.46.92s.67.25.92.9a1.6,1.6,0,0,0,1.39,1.18c1.25,0,1.26-1.69,0-2.08-.51-.16-.93-.48-.93-.71s-.42-.64-.93-.91c-.81-.44-.92-.36-.92.7m19.77,0a3.57,3.57,0,0,1-2.09,1.19c-.57,0-1,.29-1,.7s-.43.69-1.1.69c-2.14,0-4,.58-4,1.26,0,.52.53.63,2.43.49,1.58-.11,2.4-.37,2.32-.73s.39-.56,1.05-.56,1.16-.26,1.16-.69a.7.7,0,0,1,.69-.7c.39,0,.7-.41.7-.92s.2-.93.45-.93.33.31.18.69-.06.7.19.7c.61,0,1.06-1.78.53-2.11-.23-.14-.92.27-1.52.92m-65.57-.34a1,1,0,0,1,.81.85c0,.41-.3.56-.81.4s-.29.06.35.44,1.11.87,1,1.08c-.18.63,1.88.44,2.09-.19.11-.32-.32-.77-.94-1a2.71,2.71,0,0,1-1.42-1.16,1.15,1.15,0,0,0-1.1-.68c-.78.05-.78.07,0,.27m39,1.76c-.16.64-.53,1.19-.82,1.23s-.74.12-1,.18a9.71,9.71,0,0,1-1.05.16c-1.3.12-.55,1.45.82,1.45.86,0,1.34-.22,1.27-.58a.37.37,0,0,1,.46-.47c.32.07.58-.19.58-.56a1.71,1.71,0,0,1,.94-1.18c1-.54.84-1.39-.26-1.39-.36,0-.79.52-.95,1.16m50,.26c-.09,1.28,0,1.36,1.58,1.36,1.3,0,1.62.16,1.41.7s.11.7,1.35.7c2.33,0,2.12-1.23-.28-1.63-1.32-.23-2-.62-2.29-1.32-.22-.55-.42-.81-.44-.59s-.29.18-.62-.09-.63-.19-.71.87m-167,.21c0,.73.26,1.15.71,1.15a1.16,1.16,0,0,1,1,.7c.33.87,3.47,1,3.29.12-.06-.32.17-.52.51-.45s.53-.14.42-.47-.82-.53-1.93-.43c-1.43.12-1.77,0-2-.82-.38-1.43-2-1.27-2,.2m66.55.69a1.55,1.55,0,0,1-1.19.46.82.82,0,0,0-.9.7c0,1,.61.86,1.85-.46.6-.64,1-1.16.81-1.16a.91.91,0,0,0-.57.46m15.53.87c0,1.25,4.34,1.51,4.81.29.17-.45,0-.7-.54-.7a21.38,21.38,0,0,1-2.53-.29c-1.56-.26-1.74-.19-1.74.7m46.72-.6a1.58,1.58,0,0,0-.35,1c0,.91,4,.84,4.35-.08.15-.41,0-.7-.36-.7a14.56,14.56,0,0,1-2-.26,2.59,2.59,0,0,0-1.68.07m-145.66,6.8c-.38.24-.36.34.08.34s.47.22.32.47a1.55,1.55,0,0,1-1.19.47c-.76,0-.9.33-.9,2.09,0,1.35.2,2.08.58,2.08a6.66,6.66,0,0,1,2,.73c.76.39,1.44.54,1.51.32.18-.53,3.42-.14,4.3.51.6.46.61.42.06-.28s-.54-.81.11-.81.75,1.48.75,15.09v15.1l1.4.48c.76.27,1.39.68,1.39.91a.44.44,0,0,0,.46.41c.26,0,.46-.31.46-.69s-.24-.65-.54-.58c-1,.22-1.22-2.3-1.26-16.7l-.05-14.49h-8.26l-.52-1.5c-.87-2.5-.22-2.67,10.37-2.67,10.93,0,11,0,12,2.24.62,1.36.63,1.52.07.8-.69-.88-.76-.86-.88.32,0,.4-1.37.65-4.23.81-3.55.2-4.18.36-4.24,1-.07.87.76,1.08,1.48.37a8.3,8.3,0,0,1,3.22-.53,12.07,12.07,0,0,0,3.71-.59,4.65,4.65,0,0,1,1.37-.51c.78,0,.78-4,0-4a.69.69,0,0,1-.68-.7c0-.38-.16-.7-.35-.7-7.26-.21-22.14-.13-22.54.12m54.59,9.46c-.17.47-.37,1-.44,1.11s.59.17,1.46.07,1.59-.4,1.59-.66.3-.22.7.11c.56.47.7.45.7-.08,0-.37-.47-.68-1.05-.69a6.6,6.6,0,0,1-1.85-.37c-.57-.25-.9-.09-1.11.51m63-.41c-1.57.52.18,1.5,2.66,1.5,4.13,0,5.55.41,5.87,1.69.38,1.52-.57,2.49-2.44,2.49s-2,.48-.75,1.45c.73.57.75.56.17-.18-.43-.55-.46-.81-.1-.81a1,1,0,0,1,.8.7,1.79,1.79,0,0,0,1.61.69c.89,0,1.34-.24,1.34-.69a.72.72,0,0,1,.73-.7c1.64,0,.65-4.38-1-4.55-.95-.09-1.53-.44-1.68-1-.21-.82-5.26-1.23-7.18-.59m-19.43.87c0,.42.23.46.85.13s.85-.54.85-.64-.38-.16-.85-.13-.85.33-.85.64m17.87.39a4.76,4.76,0,0,1-1.68.33c-.81.06-1.37.2-1.26.32.33.32-.77,1.46-1.17,1.22-.2-.13-.47.2-.61.72-.22.83-.15.88.53.35s.57-.36-.09.41c-.47.56-.72,1.23-.55,1.5s.09.49-.17.49-.36.32-.21.71a1.47,1.47,0,0,1-.25,1.33c-.39.47-.35.77.18,1.21s.7.32.7-1.33c0-1.32.2-1.92.64-1.92s.76-.63.92-1.41a2.22,2.22,0,0,1,1.64-1.89,3,3,0,0,0,1.64-1.2c.29-.74.13-1.24-.26-.84m-89.5.59a2.73,2.73,0,0,0,0,.7c0,.19-.56.34-1.32.34a2,2,0,0,0-1.87.93c-.27.51-.76.93-1.07.93s-.62.48-.67,1.06a1,1,0,0,0,2,.34,1.93,1.93,0,0,1,.95-1.11,1.11,1.11,0,0,0,.68-.94c0-.48.6-.73,1.93-.83,2.38-.18,3.11-1.77.81-1.77-.75,0-1.38.16-1.41.35m7.31.34c-.3.8,1.48,1.42,3,1,.65-.17.92,0,.92.55a2,2,0,0,0,1.71,1.91.67.67,0,0,0,.61-.7.7.7,0,0,0-.7-.69c-.38,0-.7-.23-.7-.51,0-1.64-4.24-3-4.8-1.59m14.08,0a.69.69,0,0,1-.69.69c-.78,0-1.28,1.56-1,3.22.2,1.24,1.38,1.86,3,1.58.58-.09,1-.06,1,.08s-.47.44-1,.68c-1,.4-1,.42.2.35.69,0,1.21-.28,1.16-.54s.65-.58,1.54-.71,1.67-.54,1.77-1.06c.21-1.12-2.92-1.16-3.54-.05s-1.76.51-2-.93,0-1.87,1.15-2.29,1-1.72-.35-1.72c-.72,0-1.16.27-1.16.7m11.68.11a1.41,1.41,0,0,0,1.19,1c.57.09,1,.39,1,.68s.15.38.54,0,.38-.73-.12-1.34-.56-.74,0-.41.55.22.32-.14c-.56-.92-3.15-.68-3,.27m11.51,12.18c0,11.82.07,13,.77,13a3.15,3.15,0,0,1,1.67.81c.79.72.94.73,1.42.09a3.64,3.64,0,0,1,1.35-1c1-.37,1.08-1.72.09-1.72-.39,0-.93.62-1.2,1.39-.56,1.59-.67,1.64-1.62.69-.59-.59-.67-2.59-.55-13.44l.15-12.76H263.6v13m3.71-12.29a5.91,5.91,0,0,0,1.54,2.13l1.54,1.58-.72,1.82c-.55,1.39-.58,1.87-.14,2s.45.38.31.61.07.29.47.14c.65-.25.64-.36-.09-.91s-.78-.63,0-.64a.79.79,0,0,0,.82-.71c0-.4.41-.7,1-.7s.83-.21.67-.47.05-.59.47-.75c1-.38,0-1.08-1.51-1.09-1.35,0-1.35-1,0-1.64,2.31-1,1.55-2-1.47-2-1.87,0-2.81.23-2.81.61m11.4-.06a2.92,2.92,0,0,0,1.36,1.14,2.9,2.9,0,0,1,1.42,1.69c.27,1.07.56,1.21,2.39,1.16.2,0,.35-.57.35-1.26,0-1,.25-1.31,1.39-1.51,1.65-.29,2.26-1.86.72-1.86a1.37,1.37,0,0,0-1.24.7,1.08,1.08,0,0,1-.86.69c-.33,0-.71.44-.85,1-.27,1-1.24.8-1.24-.31,0-.37-.42-.67-.93-.67s-.93-.23-.93-.51.32-.39.72-.24.6.08.44-.18c-.46-.74-3-.57-2.74.18m15.49,0c0,.36.63.87,1.39,1.14,1.05.36,1.4.77,1.4,1.65a1.9,1.9,0,0,0,.92,1.66c.82.44.93.36.93-.67,0-.74-.26-1.18-.7-1.18s-.69-.44-.69-1.14a2.35,2.35,0,0,0-2.52-2.11.7.7,0,0,0-.73.65m-38.71,2.59a3.48,3.48,0,0,0,0,1.88c.4,1.8,1.62,1.83,1.62,0,0-1.47-1.09-2.77-1.61-1.92m55.87-.06c0,.22-.68.59-1.51.83-1.05.3-1.55.75-1.66,1.49-.12.9,0,1,.7.63a2.2,2.2,0,0,1,1.46-.22c.34.12.72-.21.86-.76a1.26,1.26,0,0,1,1.13-1,.81.81,0,0,0,.88-.7c0-.38-.42-.69-.93-.69s-.93.17-.93.39m-87.65,1.34c0,.35.21.51.47.35s.46-.06.46.22.54.7,1.19.95,1.06.66.9.92,0,.46.43.46a.82.82,0,0,1,.73.91c0,.85-.38.93-5,1.05-4.06.11-5,.26-5,.83,0,.86,9.39,1.26,10.9.46,1.13-.61,1.32-3.25.23-3.25a.67.67,0,0,1-.71-.58c-.05-1.77-4.63-4.07-4.63-2.32m-3.71.35a.69.69,0,0,1-.69.7.81.81,0,0,0-.7.88,1.29,1.29,0,0,0,.7,1.14c.47.18.69,0,.69-.62s.39-.92,1.51-1c2.26-.21,2.39-1.76.15-1.76-1.16,0-1.66.2-1.66.69m28.49.09c.09.59.53.84,1.47.84,1.92,0,1.81-1.35-.12-1.53-1.2-.12-1.45,0-1.35.69m26.58-.46c1.14.22,1.38.85.47,1.22-.32.13,0,.26.69.27,1.11,0,1.28.23,1.28,1.48,0,1.06.17,1.38.66,1.19a.65.65,0,0,1,.88.53c.11.43.23,0,.26-.88a3.66,3.66,0,0,0-3.67-4.07c-1.09,0-1.27.13-.57.26m10.12.71a3.9,3.9,0,0,0-.73,1.58.87.87,0,0,1-.58.75c-1.06.35-1.09,18.39,0,18.24.77-.12.85-.86,1-9.11.09-5.65.32-9.1.63-9.29s.27-.44-.14-.71-.15-.47,1-.63,1.68-.52,1.78-1c.23-1.23-2-1.06-2.9.22m4.93-.22a1,1,0,0,0,.73.87l1.27.11a.91.91,0,0,1,.73.87c0,.51.12.59.27.22a2.53,2.53,0,0,0-.51-1.74c-.88-1.34-2.73-1.59-2.49-.33m-67.33.11c0,.26-.32.47-.7.47s-.69-.21-.69-.47.31-.46.69-.46.7.21.7.46m9.45.21a1.13,1.13,0,0,0,1,1.65c.4,0,.67-.46.67-1.16,0-1.27-1.24-1.63-1.68-.49m-19.34,1c-.71.71-.33,2.56.5,2.4.5-.1.81-.58.81-1.27,0-1.12-.71-1.73-1.31-1.13m38.23,1.17c-.5,1.34-.27,1.78.93,1.78.74,0,.9-.26.79-1.24-.2-1.61-1.2-1.92-1.72-.54m48,.15c.15.38.46.58.69.44.65-.41.48-1.13-.27-1.13-.41,0-.58.27-.42.69m9.54-.13c-.85.85-.66,1.76.37,1.76.52,0,.93.31.93.71s.58.82,1.39,1,1.39.57,1.39.92.48.63,1.13.63a3,3,0,0,1,1.82.7c.94.94,1.79.88,1.6-.12-.08-.44-.36-.77-.61-.72s-.61-.32-.79-.81-.77-.9-1.74-.9-1.41-.23-1.41-.7-.46-.69-1.39-.69-1.39-.23-1.39-.7-.22-.69-.49-.69-.36-.21-.21-.47c.4-.63.08-.58-.6.1m-15.75,9.29.12,8.93,1.11.16c1,.13,1.07,0,.82-.93a90.17,90.17,0,0,1-.3-9.08c0-7.72,0-8-.94-8s-.93.23-.81,8.92m-58.36-8.09a1.62,1.62,0,0,1-.13,1.35c-.63,1.16-1.38,4.67-1.08,5,1,1,1.88.13,2-2.06.09-1.28,0-2.32-.14-2.32s-.21-.39-.08-.88a1.16,1.16,0,0,0-.35-1.23c-.36-.22-.45-.16-.25.16m9,1.37c.27.71.21.73-.48.17-.85-.7-1.53-.44-1,.38.33.53,4,.66,5.67.21,2-.53.68-1.57-2-1.57-2.18,0-2.45.1-2.19.81m60.19.11c-.35,1.11,0,1.86,1,1.86.37,0,.67.2.67.44,0,.73,2.15,2.81,2.9,2.81a2,2,0,0,1,1.28.69,1.89,1.89,0,0,0,1.17.7,1,1,0,0,1,.84.58c.18.46.24.46.27,0a.73.73,0,0,1,.78-.58c.45,0,.65.26.5.65s.11.74.64.88.9,0,.9-.65c0-.48-.29-.88-.64-.88a4.52,4.52,0,0,1-1.86-1c-.93-.73-1.4-.85-1.85-.47-.72.6-1.22.21-1.22-1a.8.8,0,0,0-.92-.85c-.52,0-.93-.21-.93-.46a3.17,3.17,0,0,0-.93-1.39,3.07,3.07,0,0,1-.93-1.63c0-1-1.28-.84-1.62.23m-65.27,1.85a4.63,4.63,0,0,0-1.28,2.07c0,1,1.74.9,2.08-.18a2.08,2.08,0,0,1,1.19-1.19c1.14-.36,1.22-2.09.1-2.06a4.38,4.38,0,0,0-2.09,1.36m39.65-1.07c-1.19.48-.72,13.14.49,13.14.34,0,.32-.19-.05-.56-.7-.7-.77-10.71-.08-12,.27-.5.42-.88.35-.86l-.71.27m-112,1.84a8.87,8.87,0,0,0-.32,3c0,2.09-.16,2.7-.7,2.7s-.69.49-.69,1.61.16,1.55.66,1.35c.79-.3,1.77-2.86,1.35-3.55-.17-.27-.08-.34.22-.15.65.4,1.13-1.37.93-3.45-.14-1.49-.8-2.19-1.45-1.54m151.93.48a.49.49,0,0,1-.26.74c-.43.15-.39.42.18,1.08a4.6,4.6,0,0,1,.93,1.77c.21,1.15,1.24,1.49,1.6.54.44-1.14-.23-3.4-.77-2.56-.36.56-.42.55-.43-.09a2.18,2.18,0,0,0-.79-1.39c-.43-.35-.64-.39-.46-.09m-83.16.85c0,.38-.2.69-.46.69s-.46-.31-.46-.69.21-.7.46-.7.46.31.46.7m11.44-.39c-1,1-.18,1.55,2.24,1.55,1.89,0,2.56.17,2.56.65s.32.57.92.41.93-.63.93-1.58v-1.34h-3.17a11.8,11.8,0,0,0-3.48.31m-3.9,2.2c-1.44,1.52-1.32,5.84.17,5.84a.64.64,0,0,1,.64.64c0,.72,1.4,1.2,3.48,1.2,1.35,0,3.48-1.63,3.48-2.67,0-.25.31-.58.69-.73s.68-.83.65-1.79-.15-1.16-.27-.71a1,1,0,0,1-.87.81c-.37,0-.67.22-.67.49,0,1-2.24,2.56-3.55,2.47-.72-.06-1.68-.12-2.13-.14a.86.86,0,0,1-.81-.91,1.29,1.29,0,0,0-.69-1.15,1,1,0,0,1-.7-.8c0-.38.2-.37.7,0s.69.39.69-.64c0-.75.26-1.21.67-1.21,1,0,1.42-1,.67-1.44-.9-.56-1-.54-2.15.7m-25.62.27a.93.93,0,1,0,.93-.92.82.82,0,0,0-.93.92m20.54,2.32c0,1.41.09,2,.2,1.28a10.88,10.88,0,0,0,0-2.55c-.11-.7-.2-.13-.2,1.27m-19,.54c-.18.29,0,.78.43,1.09a1.78,1.78,0,0,1,.77,1.09c0,.29.72.53,1.62.53,1.14,0,1.63.21,1.63.69s.54.7,2.08.7c1.81,0,2.09-.13,2.09-1s-.24-.95-2.06-.84a3.81,3.81,0,0,1-2.94-.66,3,3,0,0,0-1.41-.79.64.64,0,0,1-.55-.69c0-.82-1.18-.93-1.66-.16m17.64.82c0,.75.15,1.26.35,1.13.47-.29.49-2.49,0-2.49-.19,0-.36.61-.37,1.36m79-.22c-.44.43-.7.94-.59,1.12.24.4-1.44.62-4.78.63-1.83,0-2.62-.19-2.93-.74a1.44,1.44,0,0,0-2.74.75c0,.19-.37.35-.88.35-.77,0-.92.31-.92,1.85,0,1,.19,1.86.42,1.86a4.34,4.34,0,0,1,1.16.28c.59.23.74-.07.74-1.57s.18-1.9,1-2.13c1.52-.41,1.74-.36,1.74.35,0,1.6,5.49,1.75,6.94.2a3.43,3.43,0,0,0,.94-1.59.84.84,0,0,1,.53-.74.62.62,0,0,0,.33-.8c-.16-.48-.38-.44-1,.18m-102.34.9c0,.86.19,1.11.69.91s.7.09.7,1.22.24,1.55.92,1.73c.51.13.93.53.93.88s.48.64,1.16.64c1.54,0,1.48-.23-.65-2.28a7,7,0,0,1-2-2.85c-.23-1.59-1.78-1.8-1.78-.25m15.61-.34c-.84.85-.17,1.51,1.66,1.64,2.35.17,2.79,1.18,1.19,2.77-1,1-1,1.09-.24,1.23,1.82.35,4.17-3.59,2.53-4.25-.44-.17-.45-.24,0-.27s.45-.35.3-.73c-.27-.72-4.77-1-5.42-.39m90.91.48a9.83,9.83,0,0,0-.53,1.84,1.94,1.94,0,0,1-1.56,1.77c-1.41.36-1.94,1-1.93,2.33,0,.85.05.86.48.11a2.16,2.16,0,0,1,1.84-.81c.76,0,1.37-.23,1.37-.51s-.31-.39-.69-.25-.7.08-.7-.15.68-.49,1.51-.57c1.42-.13,1.5-.25,1.5-2s-.75-2.71-1.29-1.8M13.18,238.29c0,1,.21,1.16,1.44,1.16s1.37.17,1.17.7.17.69,2,.69c1.63,0,2.23-.18,2.23-.67s-.12-.65-.27-.62c-1.21.19-4.33-.84-4.71-1.55-.68-1.27-1.82-1.09-1.82.29m149.63-.85c-.69.69-.29,2,.62,2,.68,0,.93-.31.93-1.16,0-1.09-.85-1.55-1.55-.85m74.35.45c0,.91,2.1,3,3,3,.37,0,.67-.41.67-.92s-.3-.93-.66-.93-.8-.42-1-.93c-.35-1.12-2.09-1.26-2.09-.17m13.92,1.05c-1.91.53-1.79,1.9.16,1.9a3.88,3.88,0,0,1,2.32.7c.89.89,1.23.88,1.23,0,0-.4-.22-.59-.48-.43s-.7-.35-1-1.13-.64-1.41-.8-1.38-.83.19-1.46.37m46.37,1c0,.82.12.89.69.41s.55-1.39-.26-1.39c-.24,0-.43.44-.43,1m-136.93.92a5.18,5.18,0,0,0-1.26,2c0,.33-.53.73-1.16.89s-1.16.49-1.16.74-.41.46-.91.46a1.8,1.8,0,0,0-1.41.92,2,2,0,0,1-1.87.93c-1.07,0-1.38.21-1.38.93s.31.93,1.38.93,1.31-.16,1.08-.78-.11-.7.45-.49,1.16-.14,1.82-.84a3.62,3.62,0,0,1,1.65-1.13.66.66,0,0,0,.58-.71c0-.38.2-.69.44-.69.64,0,2.8-2.1,2.8-2.72,0-.29.33-.53.74-.53s.65-.25.55-.55c-.35-1-1.07-.85-2.34.6m-113.84-.18a9.89,9.89,0,0,0,2.55,0c.7-.11.13-.19-1.27-.19s-2,.08-1.28.19m8.23,1a2.85,2.85,0,0,0,.7,1.92c.6.49.7.31.7-1.34,0-1.39-.19-1.91-.7-1.91s-.7.46-.7,1.33m188.58-.64c.32.85-.35.91-1.19.12-.5-.47-.57-.44-.41.12.28.92,4.53,1.24,5.08.37.69-1.09.42-1.3-1.68-1.3-1.65,0-2,.14-1.8.69m64.1.36c-.26.48-.36,1-.21,1.15s.27,0,.27-.26.34-.4,1.19-.07c2.73,1,6.76-.18,4.81-1.45-1.24-.8-5.53-.36-6.06.63m-89,.11c0,.84-.26.79,4.87.94,4.76.14,5.8,0,5.8-1,0-.54-1-.67-5.33-.67s-5.34.12-5.34.7M56.4,246.79c.09,1.18.39,1.74,1,1.85,1.28.24,1.15-3-.14-3.3-.85-.22-.94-.07-.81,1.45m73.92.82a6.51,6.51,0,0,0-.28,1.86,1.55,1.55,0,0,1-.7,1.41,1.21,1.21,0,0,0-.69,1.07,2.83,2.83,0,0,1-.93,1.65,2.81,2.81,0,0,0-.93,1.69c0,.47-.19.86-.43.86s-.55.36-.7.81c-.53,1.63-9,9.85-10.14,9.85a1.08,1.08,0,0,0-.93.65,2.58,2.58,0,0,1-1.68,1c-.78.17-1.42.49-1.42.7s-.63.53-1.39.7-1.39.57-1.39.9-.84.68-2.28.82c-2.11.2-4.73,1.68-3.2,1.8,1.75.14,3.43-.21,3.76-.79a1.29,1.29,0,0,1,.87-.65c.35,0,.34.19,0,.62s-.35.62.15.62.65-.12.64-.27c-.11-1,.25-1.22,1.64-1.06s1.6,0,1.81-.8c.14-.55.54-.93.88-.86s.59-.21.56-.62.18-.74.47-.74c1.8,0,2.6-.22,2.6-.83s.47-.69,1.39-.69c1.08,0,1.39-.21,1.39-.92s.22-.83.73-.63.81-.05,1-.71.55-1,.9-1a.64.64,0,0,0,.64-.64c0-.36.42-.75.93-.89a1.17,1.17,0,0,0,.92-1,.74.74,0,0,1,.72-.74c.39,0,.68-.26.64-.58-.18-1.39.09-2.2.73-2.2.39,0,.7-.41.7-.93s.31-.92.69-.92c.64,0,.88-.66.82-2.21,0-.32.33-.58.76-.58s.81-.44.89-1.45c.14-1.87.55-2.53,1.06-1.73.29.46.4.35.41-.41,0-1.23,1.42-1.44,2.32-.35.77.92,6.15,1,6.91.07.42-.52.12-.69-1.63-.93-3.5-.48-4.35-.38-4.39.51,0,.5-.29.22-.69-.69-.75-1.71-3.53-2.24-4.09-.77m14.88,1c-2.43.38-1,1.29,2.19,1.43,2.8.13,3.11,0,3-.69s-2.36-1.19-5.16-.74m-87.5,1.57a1.23,1.23,0,0,0,.92,1.21c.7.19.93.64.93,1.82s.22,1.56.7,1.56.69.42.69.93c0,.83.49,1.15,1.51,1a.24.24,0,0,1,.29.3c-.2,1.28.16,2.43.75,2.43.43,0,.7.44.7,1.15s.19,1.07.69.88.7,0,.7.47.39.75.93.75.93.31.93.69.21.7.47.7a5.66,5.66,0,0,1,1.91,1.62,3.94,3.94,0,0,0,2.58,1.63c.84,0,1.09.19.9.69s0,.7.61.7a1.36,1.36,0,0,1,1.18.92,1.36,1.36,0,0,0,1.19.93c.49,0,.84.24.78.54s.62.57,1.79.63c1.56.08,1.87,0,1.7-.65s-4-2.86-4.9-2.84c-.38,0-1.08-.51-2.68-2a3.74,3.74,0,0,0-1.19-.81,4.12,4.12,0,0,1-1.28-1,30.13,30.13,0,0,0-2.72-2.4A5.82,5.82,0,0,1,66,260.19,8,8,0,0,0,64.65,258a7.76,7.76,0,0,1-1.39-2.23,7.1,7.1,0,0,0-1.62-2.14A6.26,6.26,0,0,1,60,251.31c0-1.27-.58-2.12-1.45-2.12-.58,0-.87.33-.87,1M81.35,271.9c0,.25.31.33.69.18s.7,0,.7.48.42.74,1.39.74c1.5,0,2-1.07.66-1.57s-3.44-.33-3.44.17m6.46,1.36c2,.26,2,.31,1.24,1.09-.45.44-.63.81-.41.81a1.81,1.81,0,0,0,1-.56c.38-.38.56-.39.56,0s1.4.52,4.06.52c4.58,0,6.17-.26,5.17-.87-.7-.44-.24-.7,1.9-1,.64-.11-2.6-.19-7.19-.19s-7.42.13-6.29.29" transform="translate(-11.29 -129.62)"/><path id="path4" class="cls-5" d="M140.51,144.27a3.84,3.84,0,0,0-1.54.86,2.24,2.24,0,0,1-1.29.65,7,7,0,0,0-2.35,1.16c-.94.63-1.52,1.16-1.3,1.16s-.37.69-1.32,1.54a6,6,0,0,0-1.74,2.1,1,1,0,0,1-.64.8c-.41.16-.76,1.42-1,3.58-.18,1.83-.56,3.47-.84,3.65s-.36.49,0,.95a11,11,0,0,1,.84,3.72c.2,1.94.55,3.17,1,3.32a1.08,1.08,0,0,1,.64.92,8,8,0,0,0,1.84,2.68,11.45,11.45,0,0,1,1.85,2.36c0,.19.41.34.89.34a2.06,2.06,0,0,1,1.4.64,5,5,0,0,0,2.39.94c1,.16,1.76.48,1.63.7-.72,1.16,7.13,1.06,8.3-.11a3.37,3.37,0,0,1,2.09-.77,1.67,1.67,0,0,0,1.59-.75c.2-.51.66-.68,1.44-.53s1.16,0,1.16-.43a4.7,4.7,0,0,1,1.27-2c2-2,2.26-2.5,2.61-3.91.24-1,.56-1.25,1.14-1.1s.78-.06.68-1.23c-.07-.79-.19-3.59-.26-6.22-.09-2.91-.35-4.9-.67-5.1a3.29,3.29,0,0,1-.86-1.67c-.44-1.73-5.24-6.53-7-7a3.38,3.38,0,0,1-1.64-.81c-.3-.49-8.7-.88-10.34-.49m9.3,1.27a6.09,6.09,0,0,0,2.05.7c.92,0,5.61,4.17,6.32,5.62,2,4.15,2.23,4.89,2.19,8.76,0,2.73-.27,4.37-.81,5.33a6.64,6.64,0,0,0-.77,1.91,13.08,13.08,0,0,1-2.43,3.08c-7.45,7.86-20.64,5.92-25.22-3.7-1.42-3-1.68-11-.42-12.93a4.33,4.33,0,0,0,.71-1.63c0-.83,3.72-4.73,5.31-5.55l2.81-1.46c1.88-1,8.44-1.08,10.26-.13M75.08,159.8c.64,2.81,1.69,2.72-28.92,2.68-15.32,0-28.16-.15-28.53-.29s-.61,0-.43.69,0,1-1,1.24c-.66.17-1.21.6-1.21.95s-.41.65-.92.65c-.92,0-.93.31-.93,35.7,0,31.05.09,35.71.68,35.71A1.58,1.58,0,0,1,15,238c.4.74,3.58,1.76,4.79,1.52.19,0,.29.19.23.51s3.77.58,18.08.58H56.31v2.25c0,1.89.15,2.28,1,2.5s.94.54.79,2,0,1.79.61,1.79c.77,0,1.34.89,1.34,2.1a4.51,4.51,0,0,0,1.2,1.93l1.2,1.3H76.21c15.16,0,16.32-.19,17.73-3A28.1,28.1,0,0,1,96.52,248l2-2.36V217.84c0-15.28,0-29.29,0-31.14,0-3.25,0-3.36-1.14-3.36a2,2,0,0,1-1.42-.46,1.58,1.58,0,0,0-1.23-.47c-.63,0-.87-.22-.7-.65.33-.87-1.73-1.38-2.94-.73-.88.46-.92.33-.92-2.53,0-2.49.12-3,.69-2.75.39.15.7.06.7-.19,0-.77-1.34-1-1.73-.35a13.69,13.69,0,0,0-.13,4l.24,3.39,2.42.25c3.67.37,3.43-1.9,3.18,30.4-.26,32.55-.3,33.8-1.18,35.44-2.45,4.56-2.74,4.63-18,4.63-14.81,0-13.28.45-16.06-4.87a28.08,28.08,0,0,0-2.8-4.66,4.64,4.64,0,0,1-.77-2.55l-.14-2.06L36.89,239l-19.65-.23-1.8-2.09-1.8-2.09,0-33.39,0-33.39,1.3-1.51c2-2.39,2.48-2.43,31.18-2.43,22.71,0,27-.1,28.39-.69a16.31,16.31,0,0,1,5.19-.7,28.8,28.8,0,0,0,5.59-.52c2.36-.59,6.47.38,7.74,1.83,3.37,3.83,3.45,11.17.13,11.82-.52.11,0,.22,1.23.26,1.76,0,2.14-.08,1.93-.63s.15-.85.94-1.15l1.21-.46V162.19l-1.76-1.71L95,158.76H74.84l.24,1m291.06.24c-.57,1.06-2.56,1.6-3.28.88-.34-.34-.4.11-.21,1.49.25,1.76.16,2-.72,2.24s-1,.53-.92,3.8-.64,4.73-1.33,2.85c-.07-.21-.56-.27-1.08-.14-.69.18-.78.35-.35.62s.48.61,0,1.65c-.64,1.42.16,2.49,1.88,2.49.77,0,.84.77,1,10.55l.12,10.55,1.91.14c2.44.18,2.5-.08,2.5-10.81,0-8.93-.16-8.54,3.48-8.58.94,0,1.19-.14.77-.4-1.86-1.18,1.1-2.41,4-1.67s3,1,2.79,11.08c-.13,8.15-.07,9,.62,8.84a.87.87,0,0,1,1,.69c.15.56.85.95,2.13,1.16s1.91.58,1.91,1,.47.66,1.15.66,1.06-.21.91-.62.27-.84.94-1.15c2.2-1,1.08-2.38-1.95-2.4-.62,0-1.05-.29-1.05-.7a.69.69,0,0,0-.68-.7c-1.05,0-1.48-9.75-.76-17,0-.28,1.22-.63,2.65-.78,3.18-.33,3.13-.28,2.73-2.65l-.32-1.93-1.93.19a20.58,20.58,0,0,0-2.61.39c-.56.16-.73-.41-.84-2.93l-.13-3.13h-3.63l-.14,2.9-.13,2.89-1.76-.13c-1.58-.13-1.8,0-2.24,1.25s-.61,1.34-1.64,1a8.57,8.57,0,0,0-2.63-.44h-1.47l.06-3.88c.08-4.54.61-5.86,2.39-5.87,2.83,0,4.82-1.95,3.42-3.34-1-1-6-1-6.51,0m4.58,1.21c0,.93-.3,1.15-1.84,1.4-5.48.87-6.07,11.41-.64,11.41,1.11,0,2,.21,2,.47s-.71.46-1.56.46a5.18,5.18,0,0,0-2.79,1l-1.22,1,0,9.13a86.49,86.49,0,0,1-.39,10c-.93,2.39-1.43-1.16-1.43-10.16,0-9.81-.29-10.93-2.79-10.93-.51,0-.92-.21-.92-.46s.3-.47.67-.47c1.76,0,2.89-2.26,3.18-6.36.24-3.3.46-4.13,1.32-4.93,2.76-2.58,6.42-3.44,6.42-1.52m-131.39.14c-.5.5-.36,2.65.27,4s1.27,1.66,1.27.63c0-.34.52-.86,1.16-1.15,1.2-.54,1.34-1,.87-2.75-.28-1-2.77-1.54-3.57-.73M195,162.92c-.59.38-.71,2.77-.83,15.88-.17,18.63-.18,18.55,2.13,18.36L198,197l.12-13.33c.07-7.34.24-13.34.38-13.34a2.34,2.34,0,0,1,2.05,2.57c0,1.12.21,1.61.69,1.61s.7.46.7,1.39-.22,1.39-.81,1.4-.68.09-.18.4a2.15,2.15,0,0,0,1.5.17c.76-.19.88,0,.88,1.68,0,1.41.19,1.91.71,1.91,1,0,1.27,1,.74,2.41-.4,1-.34,1.17.56,1.12s1,.25,1.15,1.26a2,2,0,0,0,.82,1.55c.43.17.66,1,.66,2.28,0,1.55.15,2,.65,1.77.8-.3,1.39,1.28,1,2.6-.23.71-.08.93.61.93a1.24,1.24,0,0,1,1.15.94c.21.78.57.92,2.14.81l1.9-.13v-2c0-1.7.13-2,.81-1.81s.8-.05.66-1.5,0-1.76.8-2,1-.62,1-1.69.23-1.43.7-1.43.69-.49.69-1.63.21-1.62.7-1.62.7-.5.7-1.68c0-1.48.11-1.64,1-1.42s1,.12.72-1.38-.12-1.69.64-1.88.9-.64.9-1.59c0-2.57,1.33-5,2.14-3.88a2,2,0,0,1,.34,1.86c-.2.51-.42,6.09-.5,12.4l-.15,11.48h4.2V180.34c0-19,.22-17.87-3.49-17.87-1.31,0-1.75.21-1.94.93a1.24,1.24,0,0,1-1.15.93c-.78,0-.87.21-.6,1.42s.16,1.46-.66,1.68-1,.61-1,2-.2,1.8-.7,1.8-.69.49-.69,1.63-.19,1.62-.84,1.62-.79.3-.64,1.65,0,1.7-.79,1.91-1,.61-1,2.06c0,1.78-1,2.56-1.56,1.22-.13-.32-.12.31,0,1.39.24,1.77.17,2-.69,2s-.92.21-.7,1.58a3.34,3.34,0,0,1-.61,2.77c-1.1,1.51-1.56,1.52-1.56,0a1.61,1.61,0,0,0-.69-1.44c-.43-.16-.7-.87-.7-1.84s-.22-1.57-.65-1.57c-.84,0-1.39-2.24-.73-3,.39-.47.27-.65-.56-.76s-1.07-.44-1.07-1.59-.17-1.39-.82-1.22-.81-.11-.81-1.7c0-1.38-.19-1.91-.69-1.91-.71,0-.79-.22-.88-2.31,0-.69-.33-1.16-.75-1.16s-.75-.52-.84-1.28-.43-1.27-.81-1.27-.66-.56-.66-1.86-.2-1.85-.68-1.85a1.67,1.67,0,0,1-1.18-.93c-.54-1-3.34-1.3-4.64-.48m46.8.19c.41.5.36.71-.22.93-1.24.47-1.59.33-1.59-.64s1-1.23,1.81-.29m-42.21,1.94c1.48,2.49,1.37,4.66-.17,3.64-1.79-1.17-1.95,0-1.77,13,.09,6.37,0,12.27-.1,13.1-.35,2-1.89,2.11-2.27.23s-.21-29.45.23-30.61c.66-1.75,2.89-1.42,4.08.61m29.65-.84c1.11,2.14,1,33-.16,32.21-.6-.41-2.32-3.08-1.78-2.75.22.13.4-5.22.4-11.89,0-11.58,0-12.12-.88-12.12a1.84,1.84,0,0,0-1.39.91,10,10,0,0,1-1.1,1.54,2.63,2.63,0,0,0-.58,1.49c0,.74-.49,1.94-1.91,4.64-.2.38-.9,1.84-1.56,3.24s-1.51,3.11-1.88,3.79a5.33,5.33,0,0,0-.67,1.91,2,2,0,0,1-.7,1.26,2.13,2.13,0,0,0-.7,1.41,2.5,2.5,0,0,1-.67,1.52,5,5,0,0,0-1,2c-.86,3.43-4.3,2.18-4.37-1.61a3.64,3.64,0,0,0-.69-1.66,3.25,3.25,0,0,1-.68-1.46,16.92,16.92,0,0,0-1.63-3.44,12.76,12.76,0,0,1-1.62-4,1.52,1.52,0,0,0-.7-1.39,1.75,1.75,0,0,1-.69-1.56,2.69,2.69,0,0,0-.65-1.82,4,4,0,0,1-1-1.79,3.33,3.33,0,0,0-.67-1.49,4.59,4.59,0,0,1-.68-2c-.37-2,.46-2.45.95-.47a4.91,4.91,0,0,0,.94,1.89,2.36,2.36,0,0,1,.61,1.45,2.15,2.15,0,0,0,.7,1.42,2.39,2.39,0,0,1,.7,1.64,2.73,2.73,0,0,0,.6,1.68c.54.56,1.68,2.81,3.33,6.65,2.61,6,2.92,6.38,4.91,5.31.65-.35.89-1,.89-2.32,0-1,.19-1.83.41-1.83s.69-.68,1-1.51a8.08,8.08,0,0,1,1.21-2.12,2.68,2.68,0,0,0,.61-1.63,3.88,3.88,0,0,1,.7-1.9,3.69,3.69,0,0,0,.68-1.88,2.35,2.35,0,0,1,.44-1.42,19.74,19.74,0,0,0,2.81-5.6,2.4,2.4,0,0,1,.69-1.4,2.61,2.61,0,0,0,.7-1.62c0-2.65,4-5.28,5-3.3m150.34,5.39c.28,3.16,1.44,4.46,4,4.46.87,0,1.58.21,1.58.47s-.89.47-2,.47c-3.2,0-3.29.18-3.47,6.34-.3,10.9.66,14.52,3.87,14.52.66,0,1,.2.88.46-.85,1.38-4.38.49-5.79-1.46l-1.4-1.92v-8.49c0-9.22-.07-9.46-2.75-9.46-.53,0-1-.21-1-.46s.29-.47.64-.47c1.75,0,3.07-1.87,3.07-4.36s.25-3.16,1.37-2.95c.52.1.79.9,1,2.85m-13.38,1.33c-.41.41-.53.16-.51-1.06,0-1.5.06-1.54.54-.54.38.78.37,1.2,0,1.6m-126.69,1c.27.27.26.75,0,1.27s-.4,5.53-.32,12.34l.12,11.49H243l.12-11.75c.12-11.45.1-11.76-.81-12a1.24,1.24,0,0,1-.93-1.11c0-.64-.3-.84-1.15-.77s-1,.26-.72.53m32.94.26a1.53,1.53,0,0,1-.47,1.19c-.72.44-.61,22.91.12,24.48.62,1.34,1.74,1.7,1.74.56,0-.39.41-.7.93-.7.89,0,.92-.3.92-8.76,0-7.36.11-8.8.7-9a1.11,1.11,0,0,0,.69-1c0-.93,1.46-1.65,2.83-1.38.71.13.86.08.42-.14-1.55-.8-.94-1.52,1.3-1.52,3.13,0,4.39-1.67,2.61-3.45-1-1-4.84-1-4.84,0a.71.71,0,0,1-.71.7,1.21,1.21,0,0,0-1,.77c-1.11,2.87-3.19,1.79-2.25-1.17.21-.65,0-1-.78-1.16-1.74-.47-2.21-.34-2.21.6m19.94.11a1.35,1.35,0,0,1-1,1.09c-1.13.36-2.74,1.86-2.74,2.54,0,.25-.29.46-.65.46-.72,0-1.21,1-1.21,2.41,0,.67-.23.89-.81.74-.74-.2-.81.29-.81,5.67s.07,5.86.81,5.66.81.1.81,1.47c0,1.2.21,1.68.71,1.68a1.16,1.16,0,0,1,1,.73,2.74,2.74,0,0,0,1.43,1.16c.78.3,1,.67.86,1.18s-.09.66.47.45c1.35-.52,5.24.22,5,.94-.17.44.13.64,1,.64s1.21-.26,1.21-.64c0-.64,1.91-1.22,4-1.22.67,0,1.1-.27,1.1-.69a.76.76,0,0,1,.81-.7c1,0,3.83-2.59,3.83-3.53a2.46,2.46,0,0,1,.69-1.41c.54-.54.7-1.95.7-6.42s-.16-5.88-.7-6.43a2.41,2.41,0,0,1-.69-1.39c0-.78-2.6-3.54-3.34-3.54-.27,0-.39-.37-.27-.81.19-.75-.31-.82-6-.82-5.49,0-6.19.09-6.19.78m46.37,0a.8.8,0,0,1-.9.81,1.63,1.63,0,0,0-1.28.61,2.77,2.77,0,0,1-1.21.93c-.46.17-.72.51-.57.75s-.15.67-.66.95a1.91,1.91,0,0,0-.94,1.7c0,.91-.2,1.14-.81,1s-.82.3-.82,5.74.08,6,.82,6c.56,0,.81.37.81,1.23,0,1.16,2.33,3.87,3.33,3.87.21,0,.38.44.38,1,0,.79.2.93,1,.71,1.69-.44,4.49.17,4.21.91-.18.47.15.65,1.19.65s1.44-.24,1.44-.64c0-.64,1.91-1.22,4-1.22.67,0,1.1-.27,1.1-.69s.42-.7,1-.7c1.28,0,3.68-2.44,3.68-3.73,0-.74.22-1,.81-.8.75.19.8-.3.67-6.44-.11-5.43-.26-6.65-.81-6.65s-.67-.47-.67-1.24c0-1.15-2.34-3.86-3.33-3.86-.21,0-.38-.37-.38-.81,0-.74-.6-.82-6-.82s-6,.08-6,.82m-82.54.06c0,.37-.7.77-1.63,1s-1.62.5-1.62.75-.52.44-1.16.44-1.11.24-1,.58-.1.54-.37.49-.52.47-.58,1.14a2.34,2.34,0,0,1-.64,1.55,4.41,4.41,0,0,0-.82,2.34c-.22,1.57-.45,2-1.08,1.88s-.8.26-.8,2.62c0,2.53.07,2.74.93,2.52s.92,0,.92,1.9c0,1.59.18,2.14.7,2.14a.65.65,0,0,1,.69.61c0,.79,2.47,3.56,3.18,3.56.29,0,.53.44.53,1,0,.78.21.93,1,.72,1.45-.38,3.64.17,3.64.91,0,.37.49.64,1.16.64s1.16-.27,1.16-.64c0-.66,1.93-1.22,4.23-1.22,1.9,0,2-3,.15-3.72-1.19-.45-4.21-.59-3.1-.15s.62,1.62-.7,1.47c-1-.11-1.24-.37-1.12-1s-.07-.84-1.82-.61-2.13.11-3.75-1.42l-1.77-1.69v-5.52c0-5.13.06-5.51.85-5.3s.81,0,.64-.87,0-1.1.77-1.1c.55,0,1-.3,1-.68,0-.55,1-.7,5-.81,5.47-.15,6.41-.81,4.44-3.11-1-1.21-9-1.49-9-.32m59.82,0c0,.4-.23.73-.51.73-.74,0-2.24,2-2.26,3,0,.64-.26.8-1,.62-.87-.23-.94-.06-.85,2s.22,2.18.95,2,.85,0,.85.76a2.77,2.77,0,0,0,.92,1.79,2.55,2.55,0,0,1,.93,1.38c0,.35.56.59,1.34.59s1.46.3,1.61.7a1.34,1.34,0,0,0,1.19.7,1.8,1.8,0,0,1,1.42.91c.28.53.77.8,1.17.64s.69,0,.69.71.3,1,.7,1c1.2,0,.8,2.28-.66,3.75s-6.53,2.07-6.53.63c0-.52-.37-.69-1.28-.58-1.7.19-2.2,3.33-.6,3.75a1.21,1.21,0,0,1,.95,1c0,.62.65.74,3.94.74s3.94-.14,3.94-.7a.74.74,0,0,1,.58-.75,9.71,9.71,0,0,0,1.05-.16c.25-.06.7-.14,1-.18s.67-.61.83-1.28c.24-.93.52-1.15,1.25-1s.87.07.67-.45a16.64,16.64,0,0,1-.26-3.42c0-2.47-.15-2.87-1.55-4.25a9.72,9.72,0,0,1-1.85-2.38c-.22-.6-.58-.75-1.26-.54-1,.33-2.46-.54-2-1.22.14-.22-.39-.41-1.19-.41-2.11,0-2.86-1-2.94-3.95l-.07-2.54h3c5.61,0,6.49-.31,6.49-2.27V172l-5.33-.14c-4.61-.12-5.33,0-5.33.6m-12.66,1.07c1.94.91,3.81,2.77,3.84,3.83a6.65,6.65,0,0,0,.76,2.09c1.05,2,1.08,8.33,0,10.2a6.09,6.09,0,0,0-.78,2,.55.55,0,0,1-.52.58c-.35,0-.47-1.32-.39-4.06.29-9.5-.23-10.83-5.21-13.33-10.15-5.1-17.54,11.35-8.53,19,2.07,1.75,2.39,1.86,6,2.1l3.8.25-3,.34c-4.46.52-6.36.43-7-.35a1.91,1.91,0,0,0-1.18-.69c-.82,0-3.46-3.41-3.46-4.48a6.26,6.26,0,0,0-.7-2.19,10.64,10.64,0,0,1,0-7.54,6.34,6.34,0,0,0,.7-2.32c0-4.29,10.34-7.84,15.63-5.39m20.72-.44a1.11,1.11,0,0,1-.15,1c-.26.43-.47.45-.69.09-.47-.75-3.8-.62-4.6.19a2.43,2.43,0,0,1-1.07.69c-3.11,0-2.54,7.35.63,8.18a3.42,3.42,0,0,1,1.57.91,2.33,2.33,0,0,0,1.61.65c1.93,0,5.77,4.24,5.75,6.35,0,4.35-3.39,6.52-9.26,6-1.4-.13-2.81-.25-3.13-.26s-.58-.41-.58-.9c0-.81.17-.85,1.73-.42,7.43,2.05,12.09-3.66,6.5-8-4.07-3.14-4.23-3.24-4.73-3.25-3.51,0-5.19-6.88-2.3-9.44.74-.66,1.56-1.4,1.82-1.65.56-.54,6.57-.65,6.9-.13m25.07.34a3.26,3.26,0,0,0,1.57.68c1,0,2.74,2.1,3.1,3.81a6.56,6.56,0,0,0,.78,2.08c.62.77.67,7.74.06,9-.28.59-.74,1.67-1,2.41-.89,2.22-1.12,1-1-5.28.14-7.61-.48-8.91-5.42-11.49-4.17-2.17-11,1-11.88,5.6-1.15,5.7.95,13.78,3.58,13.78a1.79,1.79,0,0,1,1,.77c.43.59,1.58.84,4.69,1,4.42.27,2.75.85-2.72.95-10.38.19-12.47-18-2.66-23.11,2.11-1.11,8.59-1.27,9.94-.26m-65.87.45c1.19.91.24,1.27-2.8,1.07l-2.26-.15,1.63-.77c2-1,2.34-1,3.43-.15M241.1,185.19c0,10.29-.41,13.49-1.32,10.11-.39-1.47-.37-20.54,0-20.94,1.1-1.1,1.3.57,1.3,10.83m16-10.66c0,.25-.41.46-.93.46a2.94,2.94,0,0,0-1.82,1l-1.86,2.15a3.94,3.94,0,0,0-1,1.88,2,2,0,0,1-.52,1.28c-.88.89-.74,6.18.23,8.21a10.9,10.9,0,0,0,9.72,5.93c5.59.09,4.26,1.28-1.45,1.29-6.79,0-10.42-4-10.5-11.62,0-4.53,2.15-9.7,4.11-9.7a2.53,2.53,0,0,0,1-.7c.77-.78,2.94-.95,2.94-.23m17.08.83a2.49,2.49,0,0,0,1,1.57c.75.47.76.67.14,2.42-.42,1.2-.76,4.63-.91,9.32-.23,7-.46,8.09-1.62,8.11-.2,0-.35-5.12-.35-11.39,0-10.6,0-11.38.81-11.24a1.44,1.44,0,0,1,1,1.21m28.37,1.25a.7.7,0,0,0,.7.7c.38,0,.69.41.69.93s.31.93.7.93c.58,0,.69,1,.69,6.08,0,5.8,0,6.07-.9,5.84s-.87-.05-.64,1.13.21,1.35-1,1.06-1.22-.15-1.22.68-.25,1-3.24,1-3.25-.07-3.25-1-.21-.94-1.22-.75-1.27,0-1.44-.64c-.13-.48-.52-.87-.87-.87s-.64-.49-.64-1.18a1.62,1.62,0,0,0-.7-1.44c-1-.37-1-9-.05-9,.36,0,.78-.53.94-1.17s.48-1.07.71-.93a1,1,0,0,0,1.54-1.17c-.22-.85.05-.9,4.46-.9,3.86,0,4.69.12,4.69.69m46.08,0a1.17,1.17,0,0,0,1,.7c.6,0,.71.29.5,1.34s-.14,1.31.64,1.11.91,0,.91,5.43,0,5.67-1,5.43-.92-.1-.66,1.1.2,1.36-1.09,1.36-1.34.15-1.14.93,0,.92-3.06.92-3.3-.07-3.3-1-.2-.93-1-.72c-1.19.31-3.16-1.53-3.16-3a.81.81,0,0,0-.7-.9c-1,0-1-9-.05-9.6a2.15,2.15,0,0,0,.83-1.3,1,1,0,0,1,1-.86c.49,0,.8-.27.8-.81,0-1.19,9-1.36,9.44-.19m-316.35.33c-.35.36-.55,2.18-.55,5.07,0,6.1-.18,6,7.68,6h6.23v18c0,21.85-.44,20.24,5.57,20.4,6.36.17,5.74,2.18,6-19.46l.23-18.68,6.27-.12c7.81-.15,7.88-.2,7.88-6,0-6.31,2.07-5.72-19.87-5.72-14.08,0-19,.14-19.46.56m38.39.8c.73,1.37.6,7.57-.18,8.64-.58.8-1.36.92-6.61,1.06-3.27.08-6.21.37-6.53.63s-.58,4.63-.58,18.36c0,21,.37,19.57-5,19.57-5.74,0-5.23,1.87-5.23-19.17,0-21.35.68-19.31-6.47-19.32-7.5,0-7.64-.11-7.81-5.27-.09-2.62.06-4.33.4-4.74,1-1.18,37.34-.94,38,.24m296.07,9.08c0,4.59.07,6.4.15,4s.09-6.13,0-8.35-.15-.27-.15,4.32m-219.85-4c-17.81.28-16.69.09-15.19,2.57.61,1,1.12,1.63,1.12,1.36a3.21,3.21,0,0,0-.68-1.39c-1.55-2.06-1.54-2.06,14.37-2.06h15.08l1.73,1.59,1.73,1.58v21.72c0,19.76-.07,21.92-.83,24-1.56,4.32-2.74,6.28-5.37,9A18.06,18.06,0,0,1,152.3,246c-.64.29-1.75.82-2.47,1.18-4.55,2.27-17.43.2-17.51-2.82l0-1.39-.43,1.39c-.34,1.11-.27,1.49.35,1.86a11.33,11.33,0,0,1,1.7,1.35c1.38,1.32,17.47,1.48,17.47.17a.8.8,0,0,1,.86-.83,3.72,3.72,0,0,0,1.92-.93A3.7,3.7,0,0,1,156,245c.41,0,1.36-.76,2.13-1.68,2.73-3.29,3.51-4,4.21-3.71.42.17.58.08.4-.21-.48-.78.21-2.75,1-2.75.5,0,.62-.31.42-1.09a1.88,1.88,0,0,1,.39-1.76,8.71,8.71,0,0,0,1.08-3.43c.34-2.19.59-2.75,1.23-2.7,1,.08,1-.9.11-1.68-.38-.32-.55-.8-.38-1.07s.44-.14.64.4.34-7.43.36-17.61c0-12.73-.12-18.35-.45-18s-.42,2.7-.33,6.3c.09,3.24,0,5.51-.23,5.13a32.24,32.24,0,0,1-.23-6.47c.08-3.17,0-5.77-.19-5.77s-.35-.61-.35-1.35a5,5,0,0,0-1.09-2.67c-.6-.72-1-1.57-.89-1.89s-.08-.53-.42-.47-7.75.21-16.46.34M133,213.71c0,14.54.06,20.42.13,13.07s.07-19.24,0-26.43-.13-1.17-.13,13.36m33.87-9c0,1-.11,1.58-.31,1.27-.39-.64-.38-3.75,0-3.35a5.61,5.61,0,0,1,.3,2.08m26.5,1.5c-.67.5-.72.81-.27,2.09l.52,1.5h8.26v14.09c0,17.12,0,17,2.38,17h1.79v-31l4.29-.14c2.46-.07,4.3-.33,4.3-.59a2.31,2.31,0,0,1,.35-1c.52-.81-.07-1.88-1.2-2.19-2.11-.56-19.58-.31-20.42.3m20.33.81c.19.29-1.07.46-3.43.46-6.4,0-6.54.35-6.54,17.42,0,8.49-.16,13.19-.46,13.19s-.46-5-.46-14.16V209.73l-1.14-1.14c-1-1-1.54-1.14-4.67-1.14-2.23,0-3.42-.17-3.24-.46s4-.46,10-.46,9.8.17,10,.46m-46.93,9.56c-.12,9.32-.5,9.76-.57.66-.05-6,.09-7.9.58-7.9.05,0,.05,3.26,0,7.24m55-1.44a8,8,0,0,0-.11.81c0,.34-.88.64-2,.72-1.37.1-2,.35-2,.83a1.11,1.11,0,0,1-.68.94,2,2,0,0,0-1,1.16,1,1,0,0,1-1.07.76c-.62-.1-.74.19-.62,1.42s0,1.59-.81,1.79c-1.46.38-1.49,10.56,0,10.94a1.25,1.25,0,0,1,.93,1.23c0,.55.92,1.91,2.07,3.06l2.08,2.07h5.64c5.45,0,5.68,0,6.74-1.18,1.95-2.11,1.55-2.73-2-3.14-1.71-.2-2-.11-2,.66s-.34.88-2.14.88-2.11-.12-1.93-.82,0-.79-1.57-.64c-1.35.12-1.78,0-1.78-.53a1.13,1.13,0,0,0-.69-1c-.49-.19-.6-.66-.4-1.67.24-1.21.14-1.41-.71-1.41-.67,0-1-.29-1-.93,0-.89.31-.92,8.27-.92,6.27,0,8.29-.14,8.34-.58.73-6.11.66-7.63-.38-7.91-.82-.21-1-.5-.77-1.35a1.09,1.09,0,0,0-.76-1.54,2.15,2.15,0,0,1-1.16-1.44c-.11-.73-.39-.93-1-.76-1.46.38-3.23-.25-2.93-1,.21-.55-.19-.69-2.1-.69a6.73,6.73,0,0,0-2.43.24m20.93.5a1.21,1.21,0,0,1-.81,1c-1.14.42-1.4.95-1.15,2.29s1.35,1.92,2.1,1c.44-.58,1.38-.71,4.5-.64l3.94.09-.13,1.22c-.09.93.07,1.21.7,1.16s.86.32,1,1.21c.14,1.25.09,1.28-2.26,1.28-1.91,0-2.34.13-2.14.68.34.86-2.16,1.38-5.06,1-1.76-.19-2-.11-2,.61a1.32,1.32,0,0,1-.91,1.13,2.08,2.08,0,0,0-1.19,1.19,1.27,1.27,0,0,1-1.06.9c-.67,0-.78.55-.78,3.71s.11,3.71.78,3.71a1.3,1.3,0,0,1,1.07.93c.16.51.59.93,1,.93a.76.76,0,0,1,.66.82c0,.73.5.82,4.41.82,3.14,0,4.4-.16,4.4-.56,0-.67.29-.86,2-1.26,1.09-.25,1.31-.13,1.56.87s.56,1.16,2.1,1.16h1.8V231.1c0-8-.11-9.73-.64-9.73-.84,0-1.24-1.64-.95-4,.2-1.67.17-1.74-.3-.69-.32.69-.62.93-.75.58a1.27,1.27,0,0,0-1.15-.58,1.24,1.24,0,0,1-1.17-.92c-.32-1.21-9.41-1.4-9.41-.2m23,.71c-.16.8-.29,6.64-.29,13v11.53h1.16c.75,0,1.16-.26,1.16-.74a1.2,1.2,0,0,1,1-1c.93-.25.95-.52.86-9.16-.05-5.42.1-9.24.39-9.75.39-.69.18-1.16-1.09-2.47a6,6,0,0,1-1.57-2.24c0-1.26-1.29-.58-1.57.82m7-.43a1.83,1.83,0,0,1-1.2,1.16c-2.67.7,0,2.06,3.86,2,3.6-.07,3.79.56,3.6,11.94l-.16,9.86H283l.14-9.06c.09-5.34.34-9.19.61-9.39a6.65,6.65,0,0,0,1.18-1.72c1.49-2.91,9.3-1.58,8.16,1.39-.18.48,0,.7.64.7.88,0,.92.35.92,8a90,90,0,0,0,.29,9c.38,1.43,2.49,1.48,2.49.07,0-.68.21-.9.69-.71,1.25.47,1-18.52-.23-19.19a1.9,1.9,0,0,1-.92-1.66c0-.88-.35-1.29-1.4-1.65-.76-.27-1.39-.78-1.39-1.13,0-1.1-6.8-.83-7.09.28a1.68,1.68,0,0,1-1.55,1c-1.07.12-1.33.38-1.33,1.31,0,1.23-.18,1.39-1.57,1.39-.55,0-1-.43-1.16-1.14a3,3,0,0,0-1.33-1.7,4.08,4.08,0,0,1-1.41-1.17c-.63-1.07-5.75-.74-6.05.39m36.05-.35a3,3,0,0,1-1.62,1.13,2.24,2.24,0,0,0-1.65,1.93c-.2,1-.5,1.39-1,1.26s-.76.27-.78,2.61c0,1.54.05,2.55.15,2.24.27-.81,1.5-.7,1.5.13a3.07,3.07,0,0,0,.93,1.63,3.17,3.17,0,0,1,.93,1.39c0,.25.41.46.93.46s.92.31.92,1,.21.93,1,.72a2.66,2.66,0,0,1,2.15.64,4.17,4.17,0,0,0,1.78.91c.4,0,.64.53.64,1.44,0,1.09.17,1.38.69,1.17s.7,0,.7.42-.21.68-.47.68a.55.55,0,0,0-.46.61c0,1.46-1.85,2.63-4.15,2.63-2.74,0-3.73-.33-3.73-1.26,0-.5-.3-.62-1.05-.42a10.81,10.81,0,0,1-1.39.29c-.19,0-.34.82-.34,1.82v1.81l5.37-.12c3.19-.07,5.51-.32,5.69-.62a3.15,3.15,0,0,1,1.54-.81c.94-.23,1.33-.71,1.65-2s.65-1.68,1.19-1.64.79-.31.79-1.45-.2-1.51-.78-1.46a1.13,1.13,0,0,1-1.05-.86c-.35-1.24-1.55-3-2-3a2.38,2.38,0,0,1-1.08-.7,3,3,0,0,0-1.82-.7c-.65,0-1.13-.27-1.13-.63s-.62-.77-1.39-.92-1.39-.57-1.39-1-.41-.71-1-.71c-1.84,0-1.09-4.72.83-5.27.83-.24,1.51-.61,1.51-.83s.42-.39.93-.39c1.27,0,1.17,1.27-.12,1.56-.57.12.42.12,2.21,0,3.63-.27,4.66-.91,4.24-2.62s-9.24-2.68-9.86-1.05m7.91.69a.42.42,0,0,1-.08.61c-.69.34-5.69-.2-5.69-.62s5.43-.54,5.77,0m-21,2.08c1.42,1.71,2,5.4,1.38,9a52.61,52.61,0,0,0-.54,7.18c0,7.81-.84,4.38-1-4.07-.14-7.33-.27-8.66-1-9.43a3.07,3.07,0,0,1-.81-1.38c0-.27-.45-.79-1-1.16-1.34-.89-.73-1.87.91-1.46a4.61,4.61,0,0,1,2,1.28m-51.36-.71c.14.23-.32.52-1,.66-1.43.27-2.12,0-1.72-.64s2.39-.56,2.73,0m9.58,1.28c2.17,3.51,1.81,21.84-.37,18.73a2.07,2.07,0,0,0-1.28-.94c-.71,0-.46-1.5.49-3s1.3-5.08.46-5.92-.92-1.47,0-2.9.48-4.24-1.21-5.85c-.72-.69-1.18-1.37-1-1.52.72-.72,2-.1,2.94,1.42m14,.34c.82,1.54.82,1.74.11,3.52-.58,1.45-.75,3.5-.75,8.81,0,6.32-.38,8.61-1.11,6.7-.38-1-.37-20.36,0-20.74s.77-.11,1.74,1.71m12.33-.43a5,5,0,0,0,1.92,1.9c.59.19.84.55.67,1s-.26,4.43-.26,9c0,7.08-.1,8.31-.7,8.31-.92,0-.81.67-1.2-7.42-.51-10.22-.71-11.37-2.32-12.72s-1.67-1.66-.22-1.66c.77,0,1.42.49,2.11,1.6m-51.93-.67c0,.58-.49.58-1.39,0-.56-.36-.5-.45.35-.46.57,0,1,.2,1,.46m-.85,2a3.57,3.57,0,0,1,.84,1.55.67.67,0,0,0,.71.58c1.07,0,.9,2.64-.2,3.23-2.48,1.33-12.18.38-10.75-1a4.24,4.24,0,0,0,.51-2.28c0-1.26.2-1.76.7-1.76a.73.73,0,0,0,.69-.75c0-.59.39-.7,1.86-.56,1,.09,1.85.05,1.85-.11,0-.66,3,.25,3.79,1.14m2.58-.77a3.59,3.59,0,0,0,.85,1.28c.6.51,1.64,4,1.76,5.8l.07,1.16-7.47.23c-8.44.26-9,.46-9,3.28,0,4.38,4,7.85,9.06,7.85,2.23,0,3.42.17,3.23.46-.63,1-8,.54-9.86-.64-3.84-2.45-6.09-8.54-4.56-12.37a10.28,10.28,0,0,0,.75-2.88c0-1.07,2.12-3.46,2.62-3,.16.16-.07.82-.5,1.48a4.71,4.71,0,0,0-.65,2.68l.15,1.48,6.58.13c7.3.15,7.87-.09,7.38-3-.11-.7-.22-1.4-.24-1.56a6.39,6.39,0,0,0-1-1.33c-.89-1-.88-1.87,0-1.87.25,0,.59.37.76.81m77.11.45c0,.93-.14,1.11-.53.72a1.25,1.25,0,0,1-.24-1.25c.42-1.11.77-.87.77.53m1,5.63c.5.35,2.51,1.46,4.46,2.46,4.74,2.44,5.73,3.61,5.55,6.6s-1.29,3.57-1.29.77c0-2-1.5-4.66-2.64-4.66-.34,0-.61-.19-.61-.43s-.61-.56-1.35-.72a2.45,2.45,0,0,1-1.61-1,1.06,1.06,0,0,0-.88-.67c-.89,0-3.58-2.5-3.58-3.33,0-1.07.67-1.5.87-.54a2.89,2.89,0,0,0,1.08,1.48m-60.69,1.91a7.66,7.66,0,0,0-3.62,1.1,2.7,2.7,0,0,1-1.17.77c-1.26,0-1.86,1.59-1.86,4.9,0,3.86-.38,4.28-1.53,1.67s-.57-5.57,1.54-7c.56-.39,1.36-.95,1.78-1.26a10.09,10.09,0,0,1,4.24-.52l3.48.05-2.86.32m5.41,2.28c0,.9-.27,1.41-.84,1.56s-.8.56-.65,1.9,0,1.76-.55,2c-.41.16-.74.5-.74.75,0,1-2.13,2.67-3.48,2.67-2.08,0-3.48-.48-3.48-1.2a.64.64,0,0,0-.64-.64c-.71,0-1.2-1.38-1.21-3.41,0-1.86,1.71-3.55,3.28-3.24,1,.19,1.28,0,1.48-.73s.59-1,3.54-1h3.29v1.34m-29.56,12.89a3.69,3.69,0,0,0,1.62,0c.45-.11.08-.21-.81-.21s-1.26.1-.81.21" transform="translate(-11.29 -129.62)"/></g></svg>