<svg id="Layer_1" data-name="Layer 1" xmlns="http://www.w3.org/2000/svg" viewBox="0 0 4819.38 2481.99"><defs><style>.cls-1{opacity:0.64;}.cls-15,.cls-2,.cls-9{fill:#404243;}.cls-3{fill:#8b8882;opacity:0.5;}.cls-4{fill:#97479b;}.cls-5{fill:#73489c;}.cls-6{fill:#d7467b;}.cls-7{fill:#f0c44a;}.cls-8{fill:#e37a46;}.cls-20,.cls-25,.cls-9{font-size:84.24px;}.cls-10,.cls-11,.cls-12,.cls-13,.cls-16,.cls-17,.cls-18,.cls-19,.cls-20,.cls-22,.cls-25,.cls-9{font-family:Arial-BoldMT, Arial;font-weight:700;}.cls-14,.cls-15,.cls-9{opacity:0.64;}.cls-10{font-size:108.04px;}.cls-10,.cls-11,.cls-12,.cls-13,.cls-16,.cls-17,.cls-18,.cls-31{fill:#fff;}.cls-11{font-size:108.04px;}.cls-12{font-size:108.03px;}.cls-13{font-size:108.03px;}.cls-14,.cls-32{fill:none;}.cls-14{stroke:#404243;stroke-miterlimit:10;stroke-width:12px;}.cls-16{font-size:85.12px;}.cls-17{font-size:88.29px;}.cls-18{font-size:87.24px;}.cls-19{font-size:85.92px;fill:#f8f7f8;}.cls-20{fill:#f9f9fa;}.cls-21{letter-spacing:-0.06em;}.cls-22{font-size:88.03px;fill:#f7f5f6;}.cls-23{letter-spacing:-0.07em;}.cls-24{letter-spacing:-0.02em;}.cls-26{letter-spacing:-0.04em;}.cls-27{letter-spacing:-0.04em;}.cls-28{letter-spacing:-0.07em;}.cls-29{letter-spacing:0em;}.cls-30{letter-spacing:-0.04em;}</style></defs><g class="cls-1"><polygon class="cls-2" points="3255.9 2142.06 4308.01 2144.42 4307.96 2167.55 4353.59 2141.35 4308.08 2114.94 4308.02 2138.07 3255.91 2135.72 3255.9 2142.06"/></g><g class="cls-1"><polygon class="cls-2" points="3030.06 2313.09 4296.72 2316.6 4296.65 2339.74 4342.3 2313.55 4296.8 2287.12 4296.73 2310.25 3030.08 2306.75 3030.06 2313.09"/></g><text x="-213.17" y="-126.98"/><g class="cls-1"><polygon class="cls-2" points="1192.17 948.42 81.15 948.42 81.15 925.29 35.58 951.59 81.15 977.9 81.15 954.77 1192.17 954.77 1192.17 948.42"/></g><g class="cls-1"><polygon class="cls-2" points="3602.9 940.95 4773.81 940.95 4773.81 964.09 4819.38 937.78 4773.81 911.47 4773.81 934.61 3602.9 934.61 3602.9 940.95"/></g><g class="cls-1"><polygon class="cls-2" points="3595.77 1574.52 4756.87 1574.52 4756.87 1597.66 4802.44 1571.35 4756.87 1545.04 4756.87 1568.17 3595.77 1568.17 3595.77 1574.52"/></g><g class="cls-1"><polygon class="cls-2" points="3386.18 1996.63 4310.76 1996.63 4310.76 2019.76 4356.33 1993.45 4310.76 1967.15 4310.76 1990.28 3386.18 1990.28 3386.18 1996.63"/></g><g class="cls-1"><polygon class="cls-2" points="3633.94 1369.86 4773.81 1369.86 4773.81 1392.99 4819.38 1366.68 4773.81 1340.38 4773.81 1363.51 3633.94 1363.51 3633.94 1369.86"/></g><g class="cls-1"><polygon class="cls-2" points="3634.9 1128.49 4773.81 1128.49 4773.81 1151.63 4819.38 1125.32 4773.81 1099.01 4773.81 1122.14 3634.9 1122.14 3634.9 1128.49"/></g><g class="cls-1"><polygon class="cls-2" points="1163.65 1121.2 81.15 1121.2 81.15 1098.07 35.58 1124.37 81.15 1150.68 81.15 1127.55 1163.65 1127.55 1163.65 1121.2"/></g><g class="cls-1"><polygon class="cls-2" points="1158.23 1308.22 81.15 1308.22 81.15 1285.09 35.58 1311.39 81.15 1337.7 81.15 1314.57 1158.23 1314.57 1158.23 1308.22"/></g><g class="cls-1"><polygon class="cls-2" points="1209.6 1592.36 81.15 1592.36 81.15 1569.23 35.58 1595.53 81.15 1621.84 81.15 1598.71 1209.6 1598.71 1209.6 1592.36"/></g><path class="cls-3" d="M2631.75,715.71a30.69,30.69,0,0,1,.62,3.53l.75-2.5a82.39,82.39,0,0,0-1.13-9.52c-1.18,1-2.32,2-3.42,3.07a16.32,16.32,0,0,1,.65,2.27A4.43,4.43,0,0,1,2631.75,715.71Z" transform="translate(-213.17 -126.98)"/><path class="cls-3" d="M2612.44,127c-685.44,0-1241,555.6-1241,1241S1927,2609,2612.44,2609,3853.39,2053.37,3853.39,1368,3297.79,127,2612.44,127Zm643.7,1246a643.22,643.22,0,0,1-72.85,283.56,5,5,0,0,1,2.09,5.53,74.85,74.85,0,0,1-4.33,9.31,5,5,0,0,1-6.73,1.84c-110.37,197.9-321.27,335.34-565.2,342.33-245.57,7.05-459.29-131.57-568.89-334.22l-.35.11c-6.54,1.71-13.14,5.61-19.15,8.68a186.63,186.63,0,0,0-18.67,10.85c-12,8-22.81,18.12-36.43,23.38a4.7,4.7,0,0,1-1.8.35,5,5,0,0,1-1.09.62c-14.55,6.12-28.84,12.85-43.1,19.62-12,5.69-25.21,10.82-34.57,20.56a5.09,5.09,0,0,1-1.33,1,4.43,4.43,0,0,1-1.56,3.32c-6.44,5.92-14.69,9.69-23,13,4.44,1.06,5.66,8.38.27,9.67q-6.5,1.55-13,3.23c2.08,2.55,1.82,7-2.3,8-9.14,2.15-18.17,3.76-26.94,7.24-8.06,3.2-15.66,7.49-24,9.91a50.68,50.68,0,0,1-8.53,2.1,5.17,5.17,0,0,1-3.37,5.17c-4,1.54-7.73,4.92-11.26,7.29-4.06,2.74-8.12,5.47-12.15,8.27-7.77,5.4-15.46,11-23.53,15.93a129,129,0,0,1-23.42,11.16c-4.42,1.62-8.92,3-13.45,4.3-3.34.94-7.57,1.27-9.15,4.76a4,4,0,0,1-4.47,2.53,4.62,4.62,0,0,1-2.38,3.44c-1,.5-2.13.91-3.15,1.46l-.5.29a4.68,4.68,0,0,1-1.57,2.35,4.59,4.59,0,0,1-2.37,3.61,59.62,59.62,0,0,1-9.15,4.11c-2.39.92-5.28,1.43-7.61,2.56a5.13,5.13,0,0,1-3.24,3.92c-6,2.37-11.72,5.81-18,7.19s-8.94-8.26-2.66-9.64c5.5-1.2,10.64-4,15.83-6.27a4.49,4.49,0,0,1,2.42-3.51c5.17-2.91,11.33-3.69,16.6-6.54.39-4.47,4.77-6.45,8.39-8.17a6,6,0,0,1,2.8-.6,5.54,5.54,0,0,1,.47-1.78c3.57-7.91,13.77-8.83,21.07-11.12a125.07,125.07,0,0,0,27-11.75c9.19-5.5,17.84-11.87,26.63-18,6.75-4.66,13.89-10.67,21.47-14.27-3.28-4.66,2.09-9.25,5.88-11.71,14.65-9.53,30.71-16.45,46.7-23.35q12.9-5.58,25.88-11c7.22-3,14.93-5.54,20.78-10.93a5.42,5.42,0,0,1,1.47-1,4.75,4.75,0,0,1,1.42-3.37c10-10.42,23.76-16,36.59-22.12,15-7.14,30.14-14.16,45.49-20.63a4.91,4.91,0,0,1,1.81-.4,6.08,6.08,0,0,1,1.08-.56c13.73-5.3,24.81-16.56,37.12-24.39a191.66,191.66,0,0,1,19.55-10.8c5.11-2.46,10.36-5.46,15.82-7.19A647.14,647.14,0,0,1,1962.11,1373c0-290.47,194.06-535.86,460.45-615.37A5.27,5.27,0,0,1,2426,753a57.86,57.86,0,0,1,12.65-3.33c18.34-5.58,35.87-13.73,54.75-17.52,14.73-3,29.67-4,44.65-4.36a4.21,4.21,0,0,1,1.42-.51c9.52-1.49,19.1-1.86,28.72-2.24,4.68-.18,9.42-.26,14.07-.83.75-.09,1.59-.14,2.36-.3,0-.06,0-.11.07-.17.19-.76.34-1.52.46-2.29a4.11,4.11,0,0,1,5.37-3.46,5,5,0,0,1,5.23-2.91c.22-.88.43-1.75.65-2.63,1.41-5.49,9.91-4.28,9.82,1.33,0,1.71-.11,3.43-.13,5.14,9.42-7.45,16.15-18.32,26.68-24.56a5.05,5.05,0,0,1,7.35,3l.33,1.39c2.46-2.8,7.74-2.25,8.67,1.82,1.43,6.3,1.26,12.62.73,19-.32,3.87-.27,8.07-.64,12.13C2988.42,752.29,3263.6,1031.57,3256.14,1373Z" transform="translate(-213.17 -126.98)"/><path class="cls-4" d="M1501.85,1390c0,187.24,46.2,363.77,127.88,518.87l407.29-235c-36.92-84-73.62-178.95-69.43-287.79,13.68-354.83,273.66-644.33,619.88-656.94l-1.26-466.93C1983,282.85,1501.85,784.82,1501.85,1390Z" transform="translate(-213.17 -126.98)"/><path class="cls-5" d="M2642.94,260.93,2641,732c359.67,46.37,604.55,296.81,603.18,644-.41,104.33-23.34,203-65.67,290.69l-1,2,2.77,1.43L3604.46,1915C3691.5,1756.08,3741,1573.75,3741,1380,3741,770.58,3251.84,275.07,2642.94,260.93Z" transform="translate(-213.17 -126.98)"/><path class="cls-6" d="M3151.94,1710.44l-.86,1.34c-115.66,175.68-306.65,292.34-535.08,303.81-229.35,11.52-444.79-120.13-558.62-304.4l-407,234.45c196.82,325.31,563.23,538.54,972.67,538.54,402.86,0,756.18-210.7,954.85-527.31Z" transform="translate(-213.17 -126.98)"/><polyline class="cls-7" points="1334.25 610.04 419.61 605.08 641.22 379.24 419.61 144.94 1334.26 144.94 1532.78 359.05"/><polyline class="cls-8" points="3241.15 329.26 3416.21 144.09 4326.62 144.09 4107.84 369.93 4325.21 598.59 3461.22 598.59"/><text class="cls-9" transform="translate(2250.87 962.78)">A<tspan x="60.87" y="0">l</tspan><tspan x="84.27" y="0">O</tspan><tspan x="149.79" y="0">p</tspan><tspan x="201.24" y="0">s</tspan></text><text class="cls-10" transform="translate(2316.13 2085.63) rotate(2.84)">A</text><text class="cls-10" transform="translate(2397.97 2089.18) rotate(-1.91)">c</text><text class="cls-10" transform="translate(2460.83 2086.65) rotate(-5.33)">t</text><text class="cls-10" transform="translate(2053.39 2149.48) rotate(21.73)">(</text><text class="cls-10" transform="matrix(0.95, 0.3, -0.3, 0.95, 2089.87, 2164.67)">A</text><text class="cls-10" transform="translate(2168.34 2188.91) rotate(12.51)">u</text><text class="cls-10" transform="matrix(0.99, 0.16, -0.16, 0.99, 2235.66, 2203.3)">t</text><text class="cls-10" transform="translate(2273.96 2209.78) rotate(5.6)">o</text><text class="cls-10" transform="translate(2344.16 2217.17) rotate(0.08)">m</text><text class="cls-10" transform="translate(2444.63 2216.26) rotate(-5.28)">a</text><text class="cls-10" transform="matrix(0.99, -0.15, 0.15, 0.99, 2507.11, 2210.06)">t</text><text class="cls-10" transform="translate(2544.5 2204.33) rotate(-10.81)">i</text><text class="cls-10" transform="translate(2576.67 2198.63) rotate(-14.03)">o</text><text class="cls-10" transform="translate(2644.12 2181.62) rotate(-18.35)">n</text><text class="cls-10" transform="matrix(0.93, -0.37, 0.37, 0.93, 2709.11, 2159.54)">)</text><text class="cls-10" transform="translate(3054.49 629.44) rotate(52.01)">E</text><text class="cls-10" transform="translate(3098 685.25) rotate(55.98)">n</text><text class="cls-10" transform="translate(3134.29 738.95) rotate(59.78)">g</text><text class="cls-10" transform="translate(3166.87 794.99) rotate(63.38)">a</text><text class="cls-10" transform="matrix(0.39, 0.92, -0.92, 0.39, 3193.39, 847.64)">g</text><text class="cls-10" transform="translate(3218.72 907.36) rotate(70.48)">e</text><text class="cls-11" transform="matrix(0.61, 0.79, -0.79, 0.61, 2954.46, 719.93)">(</text><text class="cls-11" transform="translate(2976.07 747.95) rotate(54.21)">I</text><text class="cls-11" transform="matrix(0.54, 0.84, -0.84, 0.54, 2993.48, 771.33)">T</text><text class="cls-11" transform="translate(3028.89 825.53) rotate(60.95)">S</text><text class="cls-11" transform="translate(3063.54 887.05) rotate(65.58)">M</text><text class="cls-11" transform="translate(3099.53 968.27) rotate(69.14)">)</text><text class="cls-12" transform="matrix(0.47, -0.88, 0.88, 0.47, 1563.05, 878.89)">O</text><text class="cls-12" transform="translate(1602.23 806.12) rotate(-57.59)">b</text><text class="cls-12" transform="translate(1637.04 751.4) rotate(-53.96)">s</text><text class="cls-12" transform="matrix(0.64, -0.77, 0.77, 0.64, 1671.71, 703.7)">e</text><text class="cls-12" transform="translate(1709.48 658.16) rotate(-47.63)">r</text><text class="cls-12" transform="translate(1737.01 627.61) rotate(-44.77)">v</text><text class="cls-12" transform="translate(1778.9 586.02) rotate(-41.45)">e</text><text class="cls-13" transform="matrix(0.36, -0.93, 0.93, 0.36, 1639.55, 1042.13)">(</text><text class="cls-13" transform="translate(1651.14 1009.29) rotate(-65.35)">M</text><text class="cls-13" transform="translate(1688.47 928.99) rotate(-60.82)">o</text><text class="cls-13" transform="translate(1720.01 872.41) rotate(-57.02)">n</text><text class="cls-13" transform="translate(1755.79 818.04) rotate(-54.26)">i</text><text class="cls-13" transform="matrix(0.61, -0.79, 0.79, 0.61, 1772.93, 794.12)">t</text><text class="cls-13" transform="translate(1794 766.13) rotate(-49.45)">o</text><text class="cls-13" transform="matrix(0.69, -0.72, 0.72, 0.69, 1836.5, 716.92)">r</text><text class="cls-13" transform="matrix(0.71, -0.7, 0.7, 0.71, 1865.11, 687.03)">i</text><text class="cls-13" transform="matrix(0.75, -0.67, 0.67, 0.75, 1885.66, 666.33)">n</text><text class="cls-13" transform="matrix(0.79, -0.62, 0.62, 0.79, 1934.07, 623.18)">g</text><text class="cls-13" transform="matrix(0.82, -0.58, 0.58, 0.82, 1985.53, 583.27)">)</text><path class="cls-14" d="M2400.55,1929.6c-221.06-77.87-379.5-288.56-379.5-536.26A565.73,565.73,0,0,1,2107,1092.69" transform="translate(-213.17 -126.98)"/><path class="cls-14" d="M3155,1239.18a569.71,569.71,0,0,1,16.43,136.26c0,313.91-254.48,568.39-568.39,568.39" transform="translate(-213.17 -126.98)"/><polygon class="cls-15" points="2389.85 1765.14 2389.85 1862.26 2308.85 1813.7 2389.85 1765.14"/><polygon class="cls-15" points="2823.73 960.51 2912.59 921.31 2900.86 1015.02 2823.73 960.51"/><polygon class="cls-15" points="1937.41 993.06 1852.9 945.2 1935.07 898.65 1937.41 993.06"/><text class="cls-16" transform="translate(3459.34 278.66)">Incidents,</text><text class="cls-17" transform="translate(3446.46 379.98)">dependencies</text><text class="cls-18" transform="translate(3450.42 475.69)">and changes</text><text class="cls-19" transform="translate(726.91 264.51)">Events</text><text class="cls-20" transform="translate(721.69 364.01)">Metrics <tspan class="cls-21" x="318.38" y="0">T</tspan><tspan x="365.19" y="0">races,</tspan></text><text class="cls-22" transform="translate(727.67 475.69)"><tspan class="cls-23">T</tspan><tspan x="47.24" y="0">opology</tspan></text><text class="cls-9" transform="translate(6.4 211.58)">Real-<tspan class="cls-24" x="206" y="0">T</tspan><tspan x="255.94" y="0">ime</tspan></text><text class="cls-9" transform="translate(3.77 303.7)">Historical</text><text class="cls-25" transform="translate(0 399.68)"><tspan xml:space="preserve">                      </tspan></text><text class="cls-9" transform="translate(254.23 888.01)">Historical<tspan class="cls-26" x="383.91" y="0"> </tspan><tspan x="404.19" y="0">Analysis</tspan></text><text class="cls-9" transform="translate(256.87 1054.28)">Anomaly Detection</text><text class="cls-9" transform="translate(253.35 1245.3)">Performance<tspan class="cls-27" x="515.04" y="0"> </tspan><tspan x="535.32" y="0">Analysis</tspan></text><text class="cls-9" transform="translate(253.63 1429.58)">Correlation and<tspan x="0" y="101.09">Contectualization</tspan></text><text class="cls-9" transform="translate(3721.63 889.09)"><tspan class="cls-28">T</tspan><tspan class="cls-29" x="45.21" y="0">ask</tspan><tspan class="cls-30" x="185.76" y="0"> </tspan><tspan x="206.04" y="0">Automantion</tspan></text><text class="cls-9" transform="translate(3721.65 1086.65)">Change Rish<tspan class="cls-30" x="514.88" y="0"> </tspan><tspan x="535.16" y="0">Analysis</tspan></text><text class="cls-9" transform="translate(3715.5 1227.58)"><tspan xml:space="preserve">                     SD</tspan><tspan class="cls-30" x="608.54" y="0"> </tspan><tspan x="628.82" y="0">Agent</tspan><tspan x="0" y="101.09">Performance</tspan><tspan class="cls-30" x="515.04" y="101.09"> </tspan><tspan x="535.32" y="101.09">Analysis</tspan></text><text class="cls-9" transform="translate(3709.17 1509.43)">Knowledge Management</text><text class="cls-9" transform="translate(2056.3 1193.44)">Machine learning</text><text class="cls-9" transform="translate(2216.24 1320.67)">Big Data</text><text class="cls-9" transform="translate(3657.1 1915.48)">Scripts</text><text class="cls-9" transform="translate(2216.75 1559.38)">Platform</text><text class="cls-9" transform="translate(3660.05 2097.4)">Run Books</text><text class="cls-9" transform="translate(3660.05 2280.69)">AR<tspan class="cls-27" x="121.68" y="0">A</tspan></text><path class="cls-31" d="M2590.51,718a5,5,0,0,1,5.23-2.91c.22-.88.43-1.75.65-2.63,1.41-5.49,9.91-4.28,9.82,1.33,0,1.71-.11,3.43-.13,5.14,9.42-7.45,16.15-18.32,26.68-24.56a5.05,5.05,0,0,1,7.35,3l.33,1.39a5.39,5.39,0,0,1,.7-.65l1.8-437.2-56.73,1.28,1.23,456.05A4.59,4.59,0,0,1,2590.51,718Z" transform="translate(-213.17 -126.98)"/><path class="cls-31" d="M2631.75,715.71a30.69,30.69,0,0,1,.62,3.53l.75-2.5a82.39,82.39,0,0,0-1.13-9.52c-1.18,1-2.32,2-3.42,3.07a16.32,16.32,0,0,1,.65,2.27A4.43,4.43,0,0,1,2631.75,715.71Z" transform="translate(-213.17 -126.98)"/><polygon class="cls-31" points="2938.78 1583.46 2964.41 1540.28 3391.3 1787.98 3364.78 1829.89 2938.78 1583.46"/><path class="cls-31" d="M2040.4,1681.32c-.16.06-.34.11-.52.16-6.54,1.71-13.14,5.61-19.15,8.68a186.63,186.63,0,0,0-18.67,10.85c-12,8-22.81,18.12-36.43,23.38a4.93,4.93,0,0,1-1.8.36,6,6,0,0,1-1.09.61c-14.55,6.12-28.84,12.85-43.1,19.62-12,5.69-25.21,10.82-34.57,20.56a5,5,0,0,1-1.33,1,4.41,4.41,0,0,1-1.56,3.33c-6.44,5.92-14.69,9.69-23,13,4.44,1.06,5.66,8.38.27,9.67q-6.5,1.55-13,3.23c2.08,2.55,1.82,7-2.3,8-9.14,2.15-18.17,3.76-26.94,7.24-8.06,3.2-15.66,7.49-24,9.91a50.6,50.6,0,0,1-8.54,2.08,5.15,5.15,0,0,1-3.36,5.19c-4,1.54-7.73,4.92-11.26,7.29-4.06,2.74-8.12,5.47-12.15,8.27-7.77,5.4-15.46,11-23.53,15.93a129,129,0,0,1-23.42,11.16c-4.42,1.62-8.92,3-13.45,4.3-3.34.94-7.57,1.27-9.15,4.76s-5.28,3.09-7.45,1l-51.15,28,20.7,36.74,407-234.45Z" transform="translate(-213.17 -126.98)"/><line class="cls-32" x1="2283.76" y1="924.08" x2="2279.4" y2="1686.5"/><path class="cls-14" d="M2222.57,972.35C2321,877.5,2467.06,801,2614.57,801c199.36,0,373.84,106.54,469.6,265.8" transform="translate(-213.17 -126.98)"/></svg>