<svg id="Layer_1" data-name="Layer 1" xmlns="http://www.w3.org/2000/svg" viewBox="0 0 1779.12 1044.88"><defs><style>.cls-1{fill:#8a8a88;}.cls-2{fill:#eec34a;opacity:0.79;}.cls-3{fill:#74489d;}.cls-4{fill:#7880be;}.cls-5{fill:#a83f5d;}.cls-43,.cls-44,.cls-47,.cls-50,.cls-51,.cls-6,.cls-60,.cls-61,.cls-65,.cls-67,.cls-70{fill:#fff;}.cls-7,.cls-8,.cls-9{fill:#010101;}.cls-7{opacity:0.43;}.cls-9{opacity:0.8;}.cls-10{fill:#7680be;}.cls-10,.cls-12{opacity:0.93;}.cls-11{fill:#e07948;opacity:0.75;}.cls-12,.cls-13{fill:none;stroke:#fff;stroke-miterlimit:10;stroke-width:0.75px;}.cls-13{stroke-dasharray:1.51;}.cls-14{fill:#e7e8e8;}.cls-15{font-size:24.13px;}.cls-15,.cls-33{fill:#f9eff2;}.cls-15,.cls-16,.cls-17,.cls-18,.cls-19,.cls-20,.cls-21,.cls-22,.cls-23,.cls-24,.cls-25,.cls-26,.cls-27,.cls-28,.cls-29,.cls-30,.cls-32,.cls-33,.cls-34,.cls-35,.cls-36,.cls-37,.cls-38,.cls-39,.cls-40,.cls-41,.cls-42,.cls-43,.cls-44,.cls-45,.cls-46,.cls-50,.cls-60,.cls-61,.cls-65,.cls-67{font-family:Arial-BoldMT, Arial;font-weight:700;}.cls-16{font-size:22.69px;}.cls-16,.cls-17,.cls-20,.cls-25,.cls-26{fill:#f4eff0;}.cls-17{font-size:22.44px;}.cls-18{font-size:22.47px;fill:#efe4e7;}.cls-19{font-size:22.51px;fill:#f7f2f3;}.cls-20{font-size:23.88px;}.cls-21{font-size:23.73px;fill:#f8f2f4;}.cls-22,.cls-25{font-size:21.71px;}.cls-22{fill:#f4edef;}.cls-23{font-size:22.51px;fill:#f2f2f3;}.cls-24{font-size:22.09px;}.cls-24,.cls-28{fill:#f7f0f2;}.cls-26{font-size:22.38px;}.cls-27{font-size:22.31px;fill:#f2e7e9;}.cls-28{font-size:21.61px;}.cls-29{font-size:19.52px;fill:#f3e9ea;}.cls-30{font-size:19.55px;fill:#f8f7f8;}.cls-31{font-size:33.63px;fill:#f2eded;}.cls-31,.cls-51{font-family:MyriadPro-Regular, Myriad Pro;}.cls-32{font-size:24.75px;fill:#f7f7f7;}.cls-33{font-size:24.43px;}.cls-34{font-size:32.96px;}.cls-34,.cls-35,.cls-36,.cls-37,.cls-38,.cls-39,.cls-40,.cls-41,.cls-42{fill:#121c3e;}.cls-35{font-size:32.96px;}.cls-36{font-size:35.4px;}.cls-37{font-size:32.5px;}.cls-38{font-size:30.91px;}.cls-39{font-size:36.06px;}.cls-40{font-size:32.48px;}.cls-41{font-size:34.03px;}.cls-42{font-size:34.56px;}.cls-43{font-size:37.54px;}.cls-44{font-size:35.11px;}.cls-45{font-size:36.63px;fill:#f8f4f5;}.cls-46{font-size:30.88px;fill:#3e3e3e;}.cls-47{font-size:37.18px;}.cls-47,.cls-70{font-family:ArialMT, Arial;}.cls-48{letter-spacing:-0.07em;}.cls-49{letter-spacing:-0.06em;}.cls-50{font-size:89.26px;}.cls-51{font-size:13.64px;}.cls-52{letter-spacing:0.01em;}.cls-53{letter-spacing:-0.01em;}.cls-54{letter-spacing:-0.01em;}.cls-55{letter-spacing:-0.01em;}.cls-56{letter-spacing:-0.05em;}.cls-57{letter-spacing:-0.01em;}.cls-58{letter-spacing:-0.01em;}.cls-59{letter-spacing:0.01em;}.cls-60{font-size:34.83px;}.cls-61{font-size:35.74px;}.cls-62{letter-spacing:-0.07em;}.cls-63{letter-spacing:-0.04em;}.cls-64{letter-spacing:0em;}.cls-65{font-size:27.7px;}.cls-66{letter-spacing:-0.07em;}.cls-67{font-size:19.86px;}.cls-68{letter-spacing:-0.02em;}.cls-69{letter-spacing:0em;}.cls-70{font-size:27.69px;}.cls-71{letter-spacing:-0.02em;}.cls-72{letter-spacing:0em;}.cls-73{letter-spacing:-0.02em;}</style></defs><rect class="cls-1" width="1779.12" height="1044.88"/><polygon class="cls-2" points="0 1044.88 1299.41 561.67 1585.96 561.67 1779.12 626.95 1779.12 1044.88 0 1044.88"/><path class="cls-3" d="M810.55,416.28a147.27,147.27,0,0,1-1.09,17.92L661.75,416.28,656,386l-2.53-9.26v-.08L626,275.74A145.85,145.85,0,0,1,810.55,416.28Z" transform="translate(-70.44 -20.27)"/><path class="cls-4" d="M809.46,434.2A145.79,145.79,0,0,1,664.79,562h-.32l-2.72-145.76Z" transform="translate(-70.44 -20.27)"/><path class="cls-5" d="M664.47,562A145.78,145.78,0,0,1,626,275.74l27.42,100.87v.08l8.33,39.59Z" transform="translate(-70.44 -20.27)"/><circle class="cls-6" cx="594.03" cy="396.01" r="40.34"/><path class="cls-7" d="M308,853.33A69.56,69.56,0,1,1,288.41,805,69.56,69.56,0,0,1,308,853.33Z" transform="translate(-70.44 -20.27)"/><path class="cls-8" d="M288.41,805l-19.84,19.16L238.4,813V783.76A69.36,69.36,0,0,1,288.41,805Z" transform="translate(-70.44 -20.27)"/><circle class="cls-6" cx="167.96" cy="833.06" r="45.98"/><path class="cls-7" d="M464.9,853.33a69.27,69.27,0,1,1-7.46-31.4A69.56,69.56,0,0,1,464.9,853.33Z" transform="translate(-70.44 -20.27)"/><path class="cls-8" d="M457.44,821.93l-23.85,12.15-38.25-12.43V783.76a69.69,69.69,0,0,1,62.1,38.17Z" transform="translate(-70.44 -20.27)"/><circle class="cls-6" cx="324.9" cy="833.06" r="45.98"/><path class="cls-7" d="M619.78,853.33a69.57,69.57,0,1,1-69.58-69.57h0a69.49,69.49,0,0,1,69.57,69.57Z" transform="translate(-70.44 -20.27)"/><path class="cls-8" d="M580.34,790.62,569.69,815l-19.49-2.06V783.76h0A69,69,0,0,1,580.34,790.62Z" transform="translate(-70.44 -20.27)"/><circle class="cls-6" cx="479.77" cy="833.06" r="45.98"/><path class="cls-7" d="M855.47,853.32h0A69.56,69.56,0,1,1,835.92,805,69.56,69.56,0,0,1,855.47,853.33Z" transform="translate(-70.44 -20.27)"/><path class="cls-8" d="M855.47,853.32H803.92l-18-38.37V783.76a69.56,69.56,0,0,1,69.56,69.56Z" transform="translate(-70.44 -20.27)"/><circle class="cls-6" cx="715.47" cy="833.06" r="45.98"/><path class="cls-7" d="M1012.41,853.33a69.57,69.57,0,1,1-69.56-69.57h1.31a69.35,69.35,0,0,1,48.7,21.2,68.38,68.38,0,0,1,10.46,13.95c.58,1,1.12,2,1.63,3A69.24,69.24,0,0,1,1012.41,853.33Z" transform="translate(-70.44 -20.27)"/><path class="cls-8" d="M1003.32,818.92,980.19,832l-36-12.63v-35.6a69.35,69.35,0,0,1,48.7,21.2A68.38,68.38,0,0,1,1003.32,818.92Z" transform="translate(-70.44 -20.27)"/><circle class="cls-6" cx="872.41" cy="833.06" r="45.98"/><path class="cls-7" d="M1167.29,853.33a69.57,69.57,0,1,1-69.58-69.57h0c.34,0,.69,0,1,0a68.86,68.86,0,0,1,29.1,6.84,67.57,67.57,0,0,1,8.72,5,69.4,69.4,0,0,1,30.72,57.72Z" transform="translate(-70.44 -20.27)"/><path class="cls-8" d="M1136.57,795.61l-13.38,23.07-24.44-4.56V783.78a68.86,68.86,0,0,1,29.1,6.84A67.57,67.57,0,0,1,1136.57,795.61Z" transform="translate(-70.44 -20.27)"/><circle class="cls-6" cx="1027.28" cy="833.06" r="45.98"/><path class="cls-7" d="M1400.84,853.33a69.57,69.57,0,1,1-69.58-69.57h0c.34,0,.69,0,1,0a68.9,68.9,0,0,1,29.1,6.84,67.57,67.57,0,0,1,8.72,5,70,70,0,0,1,11.17,9.36,69.39,69.39,0,0,1,19.55,48.36Z" transform="translate(-70.44 -20.27)"/><path class="cls-9" d="M1400.84,853.33a69.57,69.57,0,1,1-115.61-52.16l18.08,19.3,28,1.66V783.76h0c.34,0,.69,0,1,0a68.82,68.82,0,0,1,29.1,6.84,67.57,67.57,0,0,1,8.72,5,69.4,69.4,0,0,1,30.72,57.72Z" transform="translate(-70.44 -20.27)"/><circle class="cls-6" cx="1260.83" cy="833.06" r="45.98"/><path class="cls-7" d="M1559.85,853.33a69.57,69.57,0,1,1-69.58-69.57h0c.33,0,.68,0,1,0a68.86,68.86,0,0,1,29.1,6.84,67.57,67.57,0,0,1,8.72,5,69.4,69.4,0,0,1,30.72,57.72Z" transform="translate(-70.44 -20.27)"/><path class="cls-9" d="M1559.85,853.33A69.57,69.57,0,1,1,1459.25,791l10.81,25h21.53V783.79a69.5,69.5,0,0,1,37.54,11.82A70,70,0,0,1,1540.3,805a69.39,69.39,0,0,1,19.55,48.36Z" transform="translate(-70.44 -20.27)"/><circle class="cls-6" cx="1419.84" cy="833.06" r="45.98"/><path class="cls-7" d="M1717,853.33a69.57,69.57,0,1,1-69.58-69.57h0c.34,0,.69,0,1,0a69.55,69.55,0,0,1,37.82,11.83,70,70,0,0,1,11.17,9.36A69.39,69.39,0,0,1,1717,853.33Z" transform="translate(-70.44 -20.27)"/><path class="cls-9" d="M1717,853.33a69.57,69.57,0,1,1-115.69-52.08l15.9,23.36,32.84-3.58V783.82a69.55,69.55,0,0,1,36.23,11.79,70,70,0,0,1,11.17,9.36A69.39,69.39,0,0,1,1717,853.33Z" transform="translate(-70.44 -20.27)"/><circle class="cls-6" cx="1576.99" cy="833.06" r="45.98"/><polygon class="cls-10" points="1025.69 561.67 1161.52 542.37 1296.92 561.67 1025.69 561.67"/><polygon class="cls-11" points="1293.64 561.21 1430.68 487.71 1576.58 561.67 1293.64 561.21"/><line class="cls-12" x1="1020.45" y1="561.67" x2="1586.93" y2="561.67"/><polyline class="cls-13" points="1018.93 542.37 1161.31 535.74 1562.22 454.03"/><path class="cls-14" d="M1231.75,545l-34.16-35.05s-28.16-24.3-9.94-64.88c0,0,14.63-24.57,42.79-23.74s45,26.78,45,26.78,16,29-8.29,59.9Z" transform="translate(-70.44 -20.27)"/><path class="cls-14" d="M1501.74,490.3l-34.16-35.05s-28.16-24.3-9.94-64.88c0,0,14.63-24.57,42.79-23.74s45,26.78,45,26.78,16,29-8.29,59.9Z" transform="translate(-70.44 -20.27)"/><text class="cls-15" transform="translate(742.05 498.93) scale(0.91 1)">S<tspan x="16.08" y="0">O</tspan><tspan x="34.84" y="0">F</tspan><tspan x="49.61" y="0">T</tspan><tspan x="64.34" y="0">W</tspan><tspan x="85.79" y="0">A</tspan><tspan x="103.21" y="0">R</tspan><tspan x="120.65" y="0">E</tspan></text><text class="cls-16" transform="translate(810.1 938.9)">S<tspan x="15.12" y="0">O</tspan><tspan x="32.77" y="0">F</tspan><tspan x="46.67" y="0">T</tspan><tspan x="60.53" y="0">W</tspan><tspan x="80.7" y="0">A</tspan><tspan x="97.08" y="0">R</tspan><tspan x="113.49" y="0">E</tspan></text><text class="cls-17" transform="translate(1358.05 938.9)">S<tspan x="14.96" y="0">O</tspan><tspan x="32.41" y="0">F</tspan><tspan x="46.15" y="0">T</tspan><tspan x="59.86" y="0">W</tspan><tspan x="79.78" y="0">A</tspan><tspan x="96.01" y="0">R</tspan><tspan x="112.21" y="0">E</tspan></text><text class="cls-18" transform="translate(259.34 938.9)">S<tspan x="14.97" y="0">O</tspan><tspan x="32.45" y="0">F</tspan><tspan x="46.2" y="0">T</tspan><tspan x="59.92" y="0">W</tspan><tspan x="79.86" y="0">A</tspan><tspan x="96.11" y="0">R</tspan><tspan x="112.32" y="0">E</tspan></text><text class="cls-19" transform="translate(104.68 727.98)">T<tspan x="13.34" y="0">O</tspan><tspan x="30.85" y="0">T</tspan><tspan x="42.95" y="0">A</tspan><tspan x="59.2" y="0">L</tspan><tspan x="72.55" y="0"> </tspan><tspan x="78.8" y="0">R</tspan><tspan x="95.07" y="0">E</tspan><tspan x="110.08" y="0">C</tspan><tspan x="126.35" y="0">U</tspan><tspan x="142.6" y="0">R</tspan><tspan x="158.89" y="0">R</tspan><tspan x="175.14" y="0">I</tspan><tspan x="181.41" y="0">N</tspan><tspan x="197.66" y="0">G</tspan><tspan x="215.17" y="0"> </tspan><tspan x="221.42" y="0">R</tspan><tspan x="237.69" y="0">E</tspan><tspan x="252.73" y="0">V</tspan><tspan x="267.74" y="0">E</tspan><tspan x="282.77" y="0">N</tspan><tspan x="299.01" y="0">U</tspan><tspan x="315.29" y="0">E</tspan><tspan x="330.31" y="0"> </tspan><tspan x="336.56" y="0">G</tspan><tspan x="354.06" y="0">R</tspan><tspan x="370.34" y="0">O</tspan><tspan x="387.84" y="0">W</tspan><tspan x="409.1" y="0">T</tspan><tspan x="422.86" y="0">H</tspan></text><text class="cls-20" transform="translate(635.82 727.98)">T<tspan x="14.15" y="0">O</tspan><tspan x="32.75" y="0">P</tspan><tspan x="48.68" y="0">-</tspan><tspan x="56.61" y="0">L</tspan><tspan x="71.22" y="0">I</tspan><tspan x="77.84" y="0">N</tspan><tspan x="95.1" y="0">E</tspan><tspan x="111.02" y="0"> </tspan><tspan x="117.68" y="0">(</tspan><tspan x="125.61" y="0">N</tspan><tspan x="142.85" y="0">E</tspan><tspan x="158.79" y="0">T</tspan><tspan x="172.06" y="0">-</tspan><tspan x="180.01" y="0">N</tspan><tspan x="197.26" y="0">E</tspan><tspan x="213.21" y="0">W</tspan><tspan x="235.75" y="0">)</tspan><tspan x="243.69" y="0">R</tspan><tspan x="260.96" y="0">E</tspan><tspan x="276.89" y="0">V</tspan><tspan x="292.82" y="0">E</tspan><tspan x="308.74" y="0">N</tspan><tspan x="325.99" y="0">U</tspan><tspan x="343.25" y="0">E</tspan><tspan x="359.16" y="0"> </tspan><tspan x="365.8" y="0">G</tspan><tspan x="384.39" y="0">R</tspan><tspan x="401.62" y="0">O</tspan><tspan x="420.21" y="0">W</tspan><tspan x="442.76" y="0">T</tspan><tspan x="457.34" y="0">H</tspan></text><text class="cls-21" transform="translate(1263.53 727.98)">R<tspan x="17.12" y="0">E</tspan><tspan x="32.96" y="0">V</tspan><tspan x="48.78" y="0">E</tspan><tspan x="64.63" y="0">N</tspan><tspan x="81.77" y="0">U</tspan><tspan x="98.9" y="0">E</tspan><tspan x="114.74" y="0"> </tspan><tspan x="121.33" y="0">R</tspan><tspan x="138.48" y="0">E</tspan><tspan x="154.32" y="0">T</tspan><tspan x="168.8" y="0">E</tspan><tspan x="184.64" y="0">N</tspan><tspan x="201.78" y="0">T</tspan><tspan x="216.28" y="0">I</tspan><tspan x="222.86" y="0">O</tspan><tspan x="241.35" y="0">N</tspan><tspan x="258.48" y="0"> </tspan><tspan x="265.1" y="0">R</tspan><tspan x="282.24" y="0">A</tspan><tspan x="297.6" y="0">T</tspan><tspan x="312.11" y="0">E</tspan></text><text class="cls-22" transform="translate(99.26 938.9)">H<tspan x="15.7" y="0">A</tspan><tspan x="31.38" y="0">R</tspan><tspan x="47.06" y="0">D</tspan><tspan x="62.74" y="0">W</tspan><tspan x="82.06" y="0">A</tspan><tspan x="97.74" y="0">R</tspan><tspan x="113.42" y="0">E</tspan></text><text class="cls-23" transform="translate(645.88 938.9)">H<tspan x="16.25" y="0">A</tspan><tspan x="32.52" y="0">R</tspan><tspan x="48.79" y="0">D</tspan><tspan x="65.05" y="0">W</tspan><tspan x="85.07" y="0">A</tspan><tspan x="101.34" y="0">R</tspan><tspan x="117.6" y="0">E</tspan></text><text class="cls-24" transform="translate(1196.17 938.9)">H<tspan x="15.95" y="0">A</tspan><tspan x="31.9" y="0">R</tspan><tspan x="47.87" y="0">D</tspan><tspan x="63.83" y="0">W</tspan><tspan x="83.46" y="0">A</tspan><tspan x="99.42" y="0">R</tspan><tspan x="115.38" y="0">E</tspan></text><text class="cls-25" transform="translate(742.55 355.67)">H<tspan x="15.7" y="0">A</tspan><tspan x="31.38" y="0">R</tspan><tspan x="47.06" y="0">D</tspan><tspan x="62.74" y="0">W</tspan><tspan x="82.04" y="0">A</tspan><tspan x="97.74" y="0">R</tspan><tspan x="113.42" y="0">E</tspan></text><text class="cls-26" transform="translate(454.74 938.9)">T<tspan x="13.67" y="0">S</tspan><tspan x="28.61" y="0">P</tspan></text><text class="cls-27" transform="translate(1009.01 938.9)">T<tspan x="13.63" y="0">S</tspan><tspan x="28.51" y="0">P</tspan></text><text class="cls-28" transform="translate(1556.68 938.9)">T<tspan x="13.2" y="0">S</tspan><tspan x="27.62" y="0">P</tspan></text><text class="cls-29" transform="translate(1009.62 250.25)">B<tspan x="14.09" y="0">e</tspan><tspan x="24.98" y="0">l</tspan><tspan x="30.38" y="0">o</tspan><tspan x="42.3" y="0">w</tspan><tspan x="57.5" y="0"> </tspan><tspan x="62.91" y="0">i</tspan><tspan x="68.34" y="0">n</tspan><tspan x="80.27" y="0">d</tspan><tspan x="92.2" y="0">i</tspan><tspan x="97.61" y="0">c</tspan><tspan x="108.47" y="0">a</tspan><tspan x="119.33" y="0">t</tspan><tspan x="125.83" y="0">e</tspan><tspan x="136.69" y="0">s</tspan><tspan x="147.56" y="0"> </tspan><tspan x="152.97" y="0">M</tspan><tspan x="169.24" y="0">S</tspan><tspan x="182.26" y="0"> </tspan><tspan x="187.68" y="0">r</tspan><tspan x="195.28" y="0">e</tspan><tspan x="206.14" y="0">v</tspan><tspan x="217" y="0">e</tspan><tspan x="227.86" y="0">r</tspan><tspan x="235.46" y="0">n</tspan><tspan x="247.39" y="0">u</tspan><tspan x="259.31" y="0">e</tspan><tspan x="270.17" y="0"> </tspan><tspan x="275.57" y="0">a</tspan><tspan x="286.43" y="0">s</tspan><tspan x="297.31" y="0"> </tspan><tspan x="302.72" y="0">a</tspan><tspan x="313.59" y="0"> </tspan><tspan x="319" y="0">%</tspan><tspan x="336.37" y="0"> </tspan><tspan x="341.77" y="0">o</tspan><tspan x="353.71" y="0">f</tspan><tspan x="360.21" y="0"> </tspan><tspan x="365.64" y="0">t</tspan><tspan x="372.15" y="0">o</tspan><tspan x="384.05" y="0">t</tspan><tspan x="390.57" y="0">a</tspan><tspan x="401.42" y="0">l</tspan><tspan x="406.84" y="0"> </tspan><tspan x="412.28" y="0">s</tspan><tspan x="423.12" y="0">e</tspan><tspan x="434" y="0">r</tspan><tspan x="441.59" y="0">v</tspan><tspan x="452.45" y="0">i</tspan><tspan x="457.87" y="0">c</tspan><tspan x="468.74" y="0">e</tspan><tspan x="479.59" y="0">s</tspan><tspan x="490.45" y="0"> </tspan><tspan x="495.86" y="0">r</tspan><tspan x="503.46" y="0">e</tspan><tspan x="514.32" y="0">v</tspan><tspan x="525.18" y="0">e</tspan><tspan x="536.02" y="0">n</tspan><tspan x="547.96" y="0">u</tspan><tspan x="559.89" y="0">e</tspan><tspan x="570.73" y="0">.</tspan></text><text class="cls-30" transform="translate(1057.44 279.54)">T<tspan x="11.97" y="0">h</tspan><tspan x="23.9" y="0">i</tspan><tspan x="29.34" y="0">s</tspan><tspan x="40.22" y="0"> </tspan><tspan x="45.62" y="0">d</tspan><tspan x="57.57" y="0">a</tspan><tspan x="68.44" y="0">t</tspan><tspan x="74.97" y="0">a</tspan><tspan x="85.82" y="0"> </tspan><tspan x="91.27" y="0">s</tspan><tspan x="102.14" y="0">h</tspan><tspan x="114.08" y="0">o</tspan><tspan x="126.01" y="0">w</tspan><tspan x="141.24" y="0">s</tspan><tspan x="152.09" y="0"> </tspan><tspan x="157.54" y="0">t</tspan><tspan x="164.05" y="0">h</tspan><tspan x="176" y="0">a</tspan><tspan x="186.85" y="0">t</tspan><tspan x="193.38" y="0"> </tspan><tspan x="198.79" y="0">m</tspan><tspan x="216.18" y="0">a</tspan><tspan x="227.07" y="0">n</tspan><tspan x="239" y="0">a</tspan><tspan x="249.88" y="0">g</tspan><tspan x="261.84" y="0">e</tspan><tspan x="272.7" y="0">d</tspan><tspan x="284.65" y="0"> </tspan><tspan x="290.08" y="0">s</tspan><tspan x="300.95" y="0">e</tspan><tspan x="311.83" y="0">r</tspan><tspan x="319.45" y="0">v</tspan><tspan x="330.31" y="0">i</tspan><tspan x="335.74" y="0">c</tspan><tspan x="346.61" y="0">e</tspan><tspan x="357.49" y="0">s</tspan><tspan x="368.36" y="0"> </tspan><tspan x="373.79" y="0">i</tspan><tspan x="379.23" y="0">s</tspan><tspan x="390.1" y="0"> </tspan><tspan x="395.53" y="0">o</tspan><tspan x="407.48" y="0">n</tspan><tspan x="419.42" y="0">e</tspan><tspan x="430.29" y="0"> </tspan><tspan x="435.73" y="0">o</tspan><tspan x="447.66" y="0">f</tspan><tspan x="454.17" y="0"> </tspan><tspan x="459.6" y="0">t</tspan><tspan x="466.11" y="0">h</tspan><tspan x="478.06" y="0">e</tspan></text><text class="cls-31" transform="translate(1011.22 323.36)">F<tspan x="13.75" y="0">A</tspan><tspan x="34.34" y="0">S</tspan><tspan x="50.91" y="0">T</tspan><tspan x="67.62" y="0">E</tspan><tspan x="84.16" y="0">S</tspan><tspan x="100.76" y="0">T</tspan><tspan x="117.48" y="0"> </tspan><tspan x="124.61" y="0">G</tspan><tspan x="146.33" y="0">R</tspan><tspan x="164.52" y="0">O</tspan><tspan x="187.7" y="0">W</tspan><tspan x="216.15" y="0">I</tspan><tspan x="224.18" y="0">N</tspan><tspan x="246.32" y="0">G</tspan><tspan x="268.04" y="0"> </tspan><tspan x="275.17" y="0">S</tspan><tspan x="291.75" y="0">E</tspan><tspan x="308.3" y="0">R</tspan><tspan x="326.93" y="0">V</tspan><tspan x="345.71" y="0">I</tspan><tspan x="353.73" y="0">C</tspan><tspan x="373.24" y="0">E</tspan><tspan x="389.79" y="0"> </tspan><tspan x="396.92" y="0">L</tspan><tspan x="412.77" y="0">I</tspan><tspan x="420.81" y="0">N</tspan><tspan x="442.96" y="0">E</tspan><tspan x="459.5" y="0"> </tspan><tspan x="466.62" y="0">I</tspan><tspan x="474.68" y="0">N</tspan><tspan x="496.81" y="0"> </tspan><tspan x="502.56" y="0">T</tspan><tspan x="519.27" y="0">E</tspan><tspan x="535.81" y="0">C</tspan><tspan x="555.32" y="0">H</tspan></text><text class="cls-32" transform="translate(1141.11 595.92)">2<tspan x="13.76" y="0">0</tspan><tspan x="27.53" y="0">1</tspan><tspan x="41.29" y="0">3</tspan><tspan x="55.08" y="0"> </tspan></text><text class="cls-33" transform="translate(1406.2 595.92)">2<tspan x="13.6" y="0">0</tspan><tspan x="27.18" y="0">2</tspan><tspan x="40.77" y="0">0</tspan></text><text class="cls-34" transform="translate(138.59 849.11)">1<tspan x="18.34" y="0">3</tspan><tspan x="36.68" y="0">%</tspan></text><text class="cls-35" transform="translate(300.17 849.11)">1<tspan x="18.33" y="0">8</tspan><tspan x="36.65" y="0">%</tspan></text><text class="cls-36" transform="translate(464.33 849.11)">7<tspan x="19.71" y="0">%</tspan></text><text class="cls-37" transform="translate(688.22 849.11)">2<tspan x="18.07" y="0">5</tspan><tspan x="36.15" y="0">%</tspan></text><text class="cls-38" transform="translate(841.62 849.11)">1<tspan x="17.19" y="0">7</tspan><tspan x="34.39" y="0">%</tspan></text><text class="cls-39" transform="translate(1000.7 849.11)">9<tspan x="20.06" y="0">%</tspan></text><text class="cls-40" transform="translate(1392.15 849.11)">9<tspan x="18.07" y="0">3</tspan><tspan x="36.14" y="0">%</tspan></text><text class="cls-41" transform="translate(1546.07 849.11)">8<tspan x="18.91" y="0">9</tspan><tspan x="37.84" y="0">%</tspan></text><text class="cls-42" transform="translate(1229.14 849.11)">8<tspan x="19.22" y="0">9</tspan><tspan x="38.45" y="0">%</tspan></text><text class="cls-43" transform="translate(462.55 408.19)">4<tspan x="20.89" y="0">6</tspan><tspan x="41.78" y="0">%</tspan></text><text class="cls-44" transform="translate(614.93 332.09)">3<tspan x="19.54" y="0">1</tspan><tspan x="39.05" y="0">%</tspan></text><text class="cls-45" transform="translate(622.64 470.03)">2<tspan x="20.37" y="0">3</tspan><tspan x="40.74" y="0">%</tspan></text><text class="cls-46" transform="translate(1137.66 462.85)">6<tspan x="17.21" y="0">%</tspan></text><text class="cls-46" transform="translate(1408.31 413.93)">3<tspan x="17.2" y="0">3</tspan><tspan x="34.37" y="0">%</tspan><tspan x="61.83" y="0"> </tspan><tspan x="70.41" y="0"> </tspan><tspan x="78.98" y="0"> </tspan><tspan x="87.56" y="0"> </tspan><tspan x="96.14" y="0"> </tspan><tspan x="104.72" y="0"> </tspan><tspan x="113.3" y="0"> </tspan><tspan x="121.88" y="0"> </tspan><tspan x="130.46" y="0"> </tspan><tspan x="139.04" y="0"> </tspan><tspan x="147.62" y="0"> </tspan><tspan x="156.2" y="0"> </tspan><tspan x="164.78" y="0"> </tspan><tspan x="173.35" y="0"> </tspan><tspan x="181.93" y="0"> </tspan><tspan x="190.51" y="0"> </tspan><tspan x="199.09" y="0"> </tspan><tspan x="207.67" y="0"> </tspan></text><text x="-70.44" y="-20.27"/><text x="-70.44" y="-20.27"/><text class="cls-47" transform="translate(137.14 112.33)">THE DRAM<tspan class="cls-48" x="194.13" y="0">A</tspan><tspan x="216.17" y="0">TIC</tspan><tspan class="cls-49" x="276.05" y="0"> </tspan><tspan x="284.33" y="0">AND</tspan><tspan x="0" y="44.61">UNDENIABLE GROWTH OF</tspan></text><text class="cls-50" transform="translate(634.37 161.88)">Managed Services</text><text class="cls-51" transform="translate(168.97 267.8)"><tspan class="cls-52">O</tspan><tspan class="cls-53" x="9.59" y="0">v</tspan><tspan x="16.01" y="0">er the last </tspan><tspan class="cls-54" x="74.6" y="0">f</tspan><tspan x="78.41" y="0">our </tspan><tspan class="cls-55" x="100.76" y="0">y</tspan><tspan x="107.05" y="0">ea</tspan><tspan class="cls-56" x="120.46" y="0">r</tspan><tspan x="124.19" y="0">,</tspan><tspan class="cls-57" x="0" y="16.37">T</tspan><tspan x="6.7" y="16.37">S A has </tspan><tspan class="cls-58" x="49.99" y="16.37">c</tspan><tspan x="56.01" y="16.37">olle</tspan><tspan class="cls-59" x="76.77" y="16.37">c</tspan><tspan class="cls-58" x="83.06" y="16.37">t</tspan><tspan x="87.49" y="16.37">ed</tspan></text><text class="cls-60" transform="translate(167.13 324.79) scale(0.92 1)">BENCHMARK</text><text class="cls-61" transform="translate(166.4 359.74)">D<tspan class="cls-62" x="25.81" y="0">AT</tspan><tspan class="cls-63" x="68.14" y="0">A</tspan><tspan class="cls-64" x="92.62" y="0" xml:space="preserve"> FROM</tspan></text><text class="cls-65" transform="translate(165.38 392.85)">120+ COM<tspan class="cls-66" x="134.71" y="0">P</tspan><tspan x="151.13" y="0">ANIES</tspan></text><text class="cls-67" transform="translate(167.57 438.61)">TECHNOLOG<tspan class="cls-68" x="126.89" y="0">Y</tspan><tspan x="139.78" y="0" xml:space="preserve"> SE</tspan><tspan class="cls-68" x="171.79" y="0">R</tspan><tspan class="cls-69" x="185.77" y="0">VICES</tspan><tspan x="0" y="23.83">PROVIDERS (NON-OEM)</tspan></text><text class="cls-70" transform="translate(106.38 682.01)">Here<tspan class="cls-71" x="60.02" y="0">’</tspan><tspan class="cls-72" x="65.67" y="0">s snapshot of three crucial metrics the managed services benchmark survcy monitors that every MS</tspan><tspan class="cls-73" x="1289.23" y="0">P</tspan><tspan x="1307.2" y="0" xml:space="preserve"> should measuring:</tspan></text></svg>