<svg id="Layer_1" data-name="Layer 1" xmlns="http://www.w3.org/2000/svg" xmlns:xlink="http://www.w3.org/1999/xlink" viewBox="0 0 489.44 497.38"><defs><style>.cls-1{fill:none;}.cls-2{clip-path:url(#clip-path);}.cls-3{fill:url(#radial-gradient);}.cls-4{fill:#8abe00;}.cls-5{fill:#ccd9e0;}.cls-6{fill:#71af49;}.cls-7{fill:#01708c;}.cls-8{fill:#97afc9;}.cls-9{fill:#fff;}.cls-10{fill:#63a544;}.cls-11{fill:#6fb14d;}.cls-12{fill:#99c941;}.cls-13{fill:#809fbc;}.cls-14{fill:#7fb75c;}.cls-15{fill:#89c100;}.cls-16{fill:#01758e;}.cls-17{fill:#81bc00;}.cls-18{fill:#29799e;}.cls-19{fill:#a7d04c;}.cls-20{fill:#a7d149;}</style><clipPath id="clip-path" transform="translate(-155.28 -5.28)"><circle class="cls-1" cx="400" cy="250" r="244.72"/></clipPath><radialGradient id="radial-gradient" cx="244.72" cy="244.72" r="244.72" gradientUnits="userSpaceOnUse"><stop offset="0" stop-color="#f5f9fc"/><stop offset="1" stop-color="#e5f4fb"/></radialGradient></defs><g class="cls-2"><circle class="cls-3" cx="244.72" cy="244.72" r="244.72"/><rect class="cls-4" x="202.92" y="260.48" width="1.63" height="235.15"/><path class="cls-5" d="M421,501.61h-1.63V464.06a22.6,22.6,0,0,1,12-20l66.34-35.4.77,1.44-66.34,35.4A21,21,0,0,0,421,464.06Z" transform="translate(-155.28 -5.28)"/><path class="cls-5" d="M419.32,465.63c-.61-15.66,2.26-22.64,2.38-22.93s4.71-8.93,27.36-22.52c21.8-13.08,15.73-29.61,15.46-30.31l1.52-.59c.07.19,6.88,18.48-16.15,32.3-22.13,13.28-26.67,21.73-26.72,21.81s-2.82,6.94-2.22,22.18Z" transform="translate(-155.28 -5.28)"/><path class="cls-6" d="M434.86,502.66H431.6c0-1.13,0-113.24-.69-123.89-.78-12,17.37-17,18.14-17.22l.85,3.14c-.17.05-16.34,4.5-15.74,13.87C434.85,389.31,434.86,498,434.86,502.66Z" transform="translate(-155.28 -5.28)"/><path class="cls-7" d="M410.06,502.66H406.8v-146A17.86,17.86,0,0,1,418,340.05l27-11,1.23,3-27,11a14.61,14.61,0,0,0-9.15,13.59Z" transform="translate(-155.28 -5.28)"/><rect class="cls-7" x="223.62" y="345.66" width="3.26" height="150.67"/><path class="cls-4" d="M370.13,499.16H368.5V434.72c0-.26,1.95-14-9.91-21.13l-32.07-20.71.89-1.37,32,20.7c12.79,7.69,10.69,22.49,10.67,22.64Z" transform="translate(-155.28 -5.28)"/><path class="cls-4" d="M393.92,396.28c0-.11-2.26-10.94-17.84-19.61a208,208,0,0,1-26.66-17.46h0s-14-7.75-13.05-21.91c.93-13.46,0-18.49,0-18.54V257.29H338v61.24c.13.73.94,5.94,0,18.89s12.2,20.37,12.33,20.44a209,209,0,0,0,26.55,17.39c16.3,9.07,18.57,20.26,18.66,20.73Z" transform="translate(-155.28 -5.28)"/><path class="cls-4" d="M336.66,322.1c0-.3-.32-7.23-11.49-11.75-12.57-5.09-19.15-9-20.23-16.53-1-7.2-1.4-14-1.41-14.05l1.63-.08c0,.06.36,6.77,1.39,13.9,1,6.7,7.24,10.4,19.24,15.25,12.23,5,12.5,12.89,12.5,13.23l-1.63,0h.82Z" transform="translate(-155.28 -5.28)"/><rect class="cls-5" x="310.1" y="248.67" width="1.63" height="33.99"/><path class="cls-5" d="M589.25,360.65l-.2-1.61c17-2.12,19.22-23.72,19.23-23.93V274.93h1.63v60.25C609.89,335.48,607.6,358.37,589.25,360.65Z" transform="translate(-155.28 -5.28)"/><rect class="cls-6" x="387.88" y="208.39" width="3.26" height="59.73"/><rect class="cls-5" x="308.75" y="106" width="1.63" height="52.66"/><rect class="cls-4" x="104.42" y="126.79" width="1.63" height="179.18"/><path class="cls-4" d="M316.53,211.21c-11.71-.55-14.28-18-14.39-18.78l-.53-75,1.63,0,.53,74.87c0,.06,2.47,16.78,12.84,17.26Z" transform="translate(-155.28 -5.28)"/><path class="cls-4" d="M397.55,434.72H391c0-11.92,14.29-19.2,14.9-19.5l58.6-31.4,3.07,5.75L408.93,421C405.71,422.63,397.55,428.18,397.55,434.72Z" transform="translate(-155.28 -5.28)"/><path class="cls-4" d="M397.47,465.94l-6.49-.67c.68-6.51-6.87-12.87-9.83-14.77l-62.23-44.25,3.78-5.31,62,44.11C386,445.86,398.66,454.42,397.47,465.94Z" transform="translate(-155.28 -5.28)"/><rect class="cls-4" x="235.75" y="281.87" width="6.52" height="213.76"/><circle class="cls-8" cx="311.82" cy="81.48" r="28.68"/><path class="cls-9" d="M454.21,78.9a3.63,3.63,0,0,1,.61-1.41,2.88,2.88,0,0,1,2.36-1.2q9.92,0,19.83,0a3,3,0,0,1,3,3c0,.76,0,1.53,0,2.29a.43.43,0,0,1-.2.39l-8.92,6.63L469,90a3,3,0,0,1-3.77,0l-10.8-8a2,2,0,0,0-.19-.12Zm12.89-.6h-9.74a1,1,0,0,0-1.14,1.15c0,.38,0,.75,0,1.13a.35.35,0,0,0,.17.33l10,7.44a1,1,0,0,0,1.38,0l10.05-7.48a.43.43,0,0,0,.13-.29c0-.38,0-.77,0-1.15a1,1,0,0,0-1.16-1.14Z" transform="translate(-155.28 -5.28)"/><path class="cls-9" d="M454.21,84.34c.49.35,1,.74,1.49,1.06a1.07,1.07,0,0,1,.53,1.06c0,2.53,0,5.07,0,7.6a1,1,0,0,0,1.15,1.15h19.45A1,1,0,0,0,478,94.06c0-2.67,0-5.33,0-8a.46.46,0,0,1,.21-.42c.59-.42,1.18-.86,1.79-1.32a2.06,2.06,0,0,1,0,.21c0,3.23,0,6.46,0,9.69a3,3,0,0,1-3,3q-9.9,0-19.79,0a3,3,0,0,1-2.94-2.45c0-.06,0-.11-.05-.16Z" transform="translate(-155.28 -5.28)"/><circle class="cls-10" cx="390.13" cy="150.73" r="60.64"/><path class="cls-9" d="M495.29,169.39a6.34,6.34,0,0,0,3.54,1.06c2.31,0,3.71-1.23,3.71-3s-.83-2.56-3.23-3.33c-2.86-.91-4-2.07-4-3.94,0-2.1,1.8-3.67,4.43-3.67a6.19,6.19,0,0,1,3.18.72l-.41.87a5.3,5.3,0,0,0-2.81-.74c-2.57,0-3.37,1.55-3.37,2.67,0,1.53.91,2.4,3.22,3.14,2.61.85,4,1.86,4,4.17,0,2-1.44,4-4.85,4a7.21,7.21,0,0,1-3.82-1.06Z" transform="translate(-155.28 -5.28)"/><path class="cls-9" d="M513.87,164h-6.36v6.23h7.08v.87h-8.11V156.78h7.75v.87h-6.72v5.44h6.36Z" transform="translate(-155.28 -5.28)"/><path class="cls-9" d="M517.3,157a20.36,20.36,0,0,1,3.48-.32c2,0,3.31.43,4.18,1.27a3.53,3.53,0,0,1,1,2.5,3.81,3.81,0,0,1-2.94,3.71v.05a3.74,3.74,0,0,1,2.26,2.9,18.76,18.76,0,0,0,1.17,4h-1.1a18.65,18.65,0,0,1-1-3.43c-.46-2.06-1.4-3-3.35-3.12h-2.71v6.55h-1Zm1,6.7h2.76c2.35,0,3.83-1.23,3.83-3.08,0-2.29-1.88-3.09-4.17-3.09a10.91,10.91,0,0,0-2.42.23Z" transform="translate(-155.28 -5.28)"/><path class="cls-9" d="M533,171.06l-5.21-14.28h1.1l2.82,7.86c.78,2.21,1.4,3.88,1.84,5.36h0c.48-1.5,1.2-3.26,2.05-5.34l3.18-7.88h1.13L534,171.06Z" transform="translate(-155.28 -5.28)"/><path class="cls-9" d="M542.37,156.78v14.28h-1V156.78Z" transform="translate(-155.28 -5.28)"/><path class="cls-9" d="M557.06,170.49a10.86,10.86,0,0,1-4.48.83c-3.85,0-7.54-2.35-7.54-7.34,0-3.73,2.75-7.46,8.12-7.46a8.77,8.77,0,0,1,3.85.72l-.33.87a8.19,8.19,0,0,0-3.46-.72c-4.64,0-7.1,2.82-7.1,6.68,0,3.52,2.35,6.36,6.85,6.36a8.82,8.82,0,0,0,3.77-.77Z" transform="translate(-155.28 -5.28)"/><path class="cls-9" d="M567.06,164H560.7v6.23h7.08v.87h-8.12V156.78h7.76v.87H560.7v5.44h6.36Z" transform="translate(-155.28 -5.28)"/><path class="cls-9" d="M570,169.39a6.34,6.34,0,0,0,3.54,1.06c2.31,0,3.71-1.23,3.71-3s-.83-2.56-3.22-3.33c-2.86-.91-4-2.07-4-3.94,0-2.1,1.8-3.67,4.43-3.67a6.16,6.16,0,0,1,3.18.72l-.4.87a5.32,5.32,0,0,0-2.82-.74c-2.56,0-3.37,1.55-3.37,2.67,0,1.53.91,2.4,3.22,3.14,2.61.85,4,1.86,4,4.17,0,2-1.44,4-4.86,4a7.2,7.2,0,0,1-3.81-1.06Z" transform="translate(-155.28 -5.28)"/><path class="cls-9" d="M595.77,171.06c-.53-.48-1-1-1.72-1.63a6.65,6.65,0,0,1-4.75,1.89,4.06,4.06,0,0,1-4.26-4c0-2.16,1.45-3.41,3.06-4.22V163a5.13,5.13,0,0,1-1.32-3.07,3.36,3.36,0,0,1,3.46-3.44,2.8,2.8,0,0,1,2.92,2.87c0,1.54-.93,2.71-3.62,3.92v.06c1.78,2,3.58,3.86,4.51,4.81.7-.89,1.21-2.08,1.63-4.6h1c-.47,2.54-1.08,4.16-2,5.15.93.91,1.69,1.66,2.45,2.33Zm-2.31-2.22c-.59-.57-2.73-2.76-4.88-5.13a4,4,0,0,0-2.52,3.45,3.31,3.31,0,0,0,3.5,3.33A5.42,5.42,0,0,0,593.46,168.84Zm-5.7-9a4.65,4.65,0,0,0,1.25,2.88c1.86-.89,3.18-1.73,3.18-3.24a2,2,0,0,0-2.1-2.16A2.33,2.33,0,0,0,587.76,159.85Z" transform="translate(-155.28 -5.28)"/><path class="cls-9" d="M503.72,175.77a33.53,33.53,0,0,1,4.28-.31c3,0,5.34.82,6.68,2.29a6.52,6.52,0,0,1,1.72,4.66,7.59,7.59,0,0,1-2,5.21c-1.37,1.46-3.79,2.38-7,2.38-1.29,0-2.48,0-3.71-.13Zm1,13.23a20.31,20.31,0,0,0,2.84.13c5.43,0,7.74-3,7.74-6.7,0-3.5-2.21-6.1-7.42-6.1a16.12,16.12,0,0,0-3.16.27Z" transform="translate(-155.28 -5.28)"/><path class="cls-9" d="M526.46,182.77H520.1V189h7.08v.87h-8.12V175.58h7.76v.87H520.1v5.45h6.36Z" transform="translate(-155.28 -5.28)"/><path class="cls-9" d="M529.4,188.19a6.28,6.28,0,0,0,3.54,1.06c2.31,0,3.71-1.22,3.71-3s-.82-2.57-3.22-3.33c-2.86-.91-4-2.08-4-3.94,0-2.1,1.81-3.67,4.43-3.67a6.16,6.16,0,0,1,3.18.72l-.4.87a5.22,5.22,0,0,0-2.82-.74c-2.56,0-3.37,1.54-3.37,2.67,0,1.52.91,2.39,3.22,3.13,2.61.85,4,1.87,4,4.18,0,2-1.44,4-4.85,4a7.12,7.12,0,0,1-3.82-1.06Z" transform="translate(-155.28 -5.28)"/><path class="cls-9" d="M540.59,175.58h1v7.32h.08a17.34,17.34,0,0,1,1.3-1.44l5.7-5.88H550l-6,6.09,6.66,8.2h-1.29l-6.09-7.55L541.63,184v5.89h-1Z" transform="translate(-155.28 -5.28)"/><path class="cls-9" d="M555.91,176.45h-5.32v-.87h11.68v.87H557v13.42h-1Z" transform="translate(-155.28 -5.28)"/><path class="cls-9" d="M576.55,182.54c0,4.93-3.52,7.58-7.25,7.58a6.94,6.94,0,0,1-7.1-7.2c0-4.5,3.18-7.59,7.25-7.59A6.9,6.9,0,0,1,576.55,182.54Zm-13.26.34c0,3.37,2.3,6.4,6.06,6.4s6.12-2.87,6.12-6.66c0-3.09-2-6.44-6.06-6.44S563.29,179.36,563.29,182.88Z" transform="translate(-155.28 -5.28)"/><path class="cls-9" d="M579.22,175.73a21.14,21.14,0,0,1,3.39-.27,5.82,5.82,0,0,1,4.13,1.27,3.69,3.69,0,0,1,1.15,2.77,4,4,0,0,1-1.1,2.95,6.19,6.19,0,0,1-4.5,1.55,6.81,6.81,0,0,1-2-.21v6.08h-1Zm1,7.15a7.37,7.37,0,0,0,2.16.25c2.84,0,4.43-1.29,4.43-3.5,0-2.46-2-3.3-4.26-3.3a12.18,12.18,0,0,0-2.33.19Z" transform="translate(-155.28 -5.28)"/><path class="cls-9" d="M566.36,118.78v3.77c-.22.25-.44.49-.83.34s-.4-.47-.4-.81c0-.85,0-1.69,0-2.54s-.11-.88-.86-.88H535.43c-.73,0-.87.12-.87.85v19.8c0,.71.13.84.83.84h28.92c.7,0,.82-.13.82-.83,0-4.64,0-9.28,0-13.91,0-.36,0-.67.43-.8a.66.66,0,0,1,.8.39v15a2,2,0,0,1-2.2,1.41c-3.57,0-7.14,0-10.71,0H553v1.86h4.14a1.19,1.19,0,0,1,1.34,1.33c0,.67,0,1.34,0,2a1.36,1.36,0,0,1-.91,1.5H534.86c-.26-.21-.5-.43-.35-.82s.45-.41.8-.41c1.83,0,3.66,0,5.48,0h.46c0-.7,0-1.35,0-2a1.38,1.38,0,0,1,.93-1.59v-1.87h-6.89a3,3,0,0,1-.61-.06,1.77,1.77,0,0,1-1.34-1.9V126.61c0-.17,0-.34,0-.51h-7.6c0,.12,0,.22,0,.31q0,10,0,19.93c0,.39.14.52.53.52H532c.35,0,.67.05.8.42s-.09.62-.38.81h-6.79a1.86,1.86,0,0,1-1.16-2q0-19.08,0-38.16a1.55,1.55,0,0,1,1.75-1.76h15.46a1.56,1.56,0,0,1,1.76,1.76v9.49h20.88a1.85,1.85,0,0,1,2,1.31A.15.15,0,0,0,566.36,118.78Zm-24.16-7.5H525.72v6.11H542.2ZM525.7,110h16.52v-2c0-.6,0-.62-.62-.62H526.11c-.27,0-.41.11-.41.38Zm16.79,36.85h14.69v-2.32H542.49Zm-16.77-22h7.59v-1.2h-5.25a1,1,0,0,1-1.13-1.14c0-.43,0-.85,0-1.27,0-1,.35-1.32,1.34-1.33h5.06l0-1.19h-7.65ZM548,141.4v1.81h3.63V141.4Zm-19.87-19h5.14v-1.23h-5.14Zm18.59,20.86V141.4h-3.28v1.83Z" transform="translate(-155.28 -5.28)"/><path class="cls-9" d="M529.66,131.09h-1.42a1,1,0,0,1-1.12-1.08c0-.5,0-1,0-1.51a1,1,0,0,1,1.08-1.08c1,0,2,0,3,0a1,1,0,0,1,1,1.1c0,.51,0,1,0,1.51a1,1,0,0,1-1,1.06c-.52,0-1,0-1.56,0Zm1.35-2.42h-2.64v1.17H531Z" transform="translate(-155.28 -5.28)"/><path class="cls-9" d="M549.85,139.09H537.08c-1,0-1.45-.43-1.45-1.43V121.17c0-1,.43-1.45,1.45-1.45h25.56c1,0,1.43.45,1.43,1.46v16.45c0,1-.43,1.46-1.46,1.46Zm13-18.11h-26v16.86h26Z" transform="translate(-155.28 -5.28)"/><path class="cls-9" d="M534,112.47h5.73c.89,0,1.26.38,1.26,1.27v1.19c0,.9-.36,1.27-1.26,1.27H528.21c-.93,0-1.28-.36-1.28-1.29,0-.37,0-.73,0-1.1,0-1,.34-1.34,1.36-1.34Zm5.75,1.26H528.17v1.21h11.58Z" transform="translate(-155.28 -5.28)"/><circle class="cls-11" cx="150.47" cy="258.97" r="18.45"/><path class="cls-9" d="M295.94,272.65l.81-2.37a.37.37,0,0,0,0-.23,5.94,5.94,0,0,1-.51-2.59,5.88,5.88,0,0,1,2.21-4.51.55.55,0,0,0,.21-.43,8.28,8.28,0,0,1,8.6-7.91,8.29,8.29,0,0,1,7.2,11.75.45.45,0,0,0,0,.36c.36,1,.71,2,1.06,3.06a1.27,1.27,0,0,1-.92,1.73,1.44,1.44,0,0,1-.77-.06c-1-.35-2-.69-3-1.05a.51.51,0,0,0-.42,0,7.93,7.93,0,0,1-3,.73.34.34,0,0,0-.3.16,5.93,5.93,0,0,1-5.49,2.28,4.93,4.93,0,0,1-1.64-.44.54.54,0,0,0-.45,0c-.61.22-1.23.4-1.83.64a1.15,1.15,0,0,1-1.66-.75Zm10.83-16.88c-.15,0-.44,0-.73.06A6.65,6.65,0,0,0,303,257a7,7,0,0,0-3.09,4.88,6.61,6.61,0,0,0,.11,2.66,7.11,7.11,0,0,0,10.16,4.73.77.77,0,0,1,.66,0l1.88.64,1.48.51a.27.27,0,0,0,.2,0s0-.12,0-.18a.93.93,0,0,0,0-.13c-.37-1.07-.74-2.15-1.12-3.23a.82.82,0,0,1,0-.65,6.74,6.74,0,0,0,.77-2.74,6.93,6.93,0,0,0-.87-3.94,7.13,7.13,0,0,0-6.36-3.69Zm-9.61,16.92c.73-.25,1.42-.47,2.1-.73a1.13,1.13,0,0,1,.9,0,4.76,4.76,0,0,0,3.86.15,4.6,4.6,0,0,0,1.61-1,8.45,8.45,0,0,1-6.93-6.84,4.65,4.65,0,0,0-.81,1.16,4.76,4.76,0,0,0,0,4.3,1,1,0,0,1,0,.81C297.65,271.24,297.42,272,297.16,272.69Z" transform="translate(-155.28 -5.28)"/><path class="cls-9" d="M306.92,262.19h3.39a.59.59,0,0,1,.65.6.56.56,0,0,1-.46.55,1.1,1.1,0,0,1-.26,0h-6.67a1.32,1.32,0,0,1-.28,0,.57.57,0,0,1,0-1.11,1,1,0,0,1,.3,0Z" transform="translate(-155.28 -5.28)"/><path class="cls-9" d="M306.91,261h-3.45a.59.59,0,0,1-.58-.79.54.54,0,0,1,.44-.36,1.32,1.32,0,0,1,.28,0h6.78a.59.59,0,1,1,0,1.17h-3.45Z" transform="translate(-155.28 -5.28)"/><path class="cls-9" d="M305.56,265.76h-2.13a.57.57,0,0,1-.54-.8.56.56,0,0,1,.57-.36h2.09c.72,0,1.43,0,2.15,0a.58.58,0,1,1,0,1.16Z" transform="translate(-155.28 -5.28)"/><circle class="cls-12" cx="350.98" cy="237.95" r="20.87"/><path class="cls-9" d="M500.45,257.93a6.75,6.75,0,0,1-1.05-.49,2.15,2.15,0,0,1-.9-1.75c0-.27,0-.55,0-.83V231a2.27,2.27,0,0,1,1.62-2.3,2.53,2.53,0,0,1,.73-.11h10.89a2.29,2.29,0,0,1,2.35,2.36v24.64a2.28,2.28,0,0,1-1.85,2.3l-.1.05Zm12.7-6v-18.3H499.43V252Zm-13.74,1v2.58a1.39,1.39,0,0,0,1.53,1.53h10.82a1.34,1.34,0,0,0,1.4-1.24c0-1,0-1.89,0-2.84,0,0,0,0,0,0Zm0-20.21h13.75V231a1.39,1.39,0,0,0-1.54-1.54H500.78a1.34,1.34,0,0,0-1.35,1.23C499.39,231.38,499.42,232,499.42,232.69Z" transform="translate(-155.28 -5.28)"/><path class="cls-9" d="M507.89,251.05h-.14c-.34,0-.54-.19-.54-.47s.21-.44.55-.45h.34a.46.46,0,0,1,.48.47.46.46,0,0,1-.49.45Z" transform="translate(-155.28 -5.28)"/><path class="cls-9" d="M509.71,251.05a1,1,0,0,1-.25,0,.44.44,0,0,1-.41-.44.43.43,0,0,1,.41-.46,3.57,3.57,0,0,1,.46,0,.46.46,0,1,1,0,.92Z" transform="translate(-155.28 -5.28)"/><path class="cls-9" d="M511.56,251.05h-.14c-.34,0-.54-.19-.54-.47s.21-.44.55-.45h.34a.46.46,0,1,1,0,.92Z" transform="translate(-155.28 -5.28)"/><path class="cls-9" d="M506.28,256.09a1.38,1.38,0,0,1,0-2.75,1.39,1.39,0,0,1,1.37,1.4A1.37,1.37,0,0,1,506.28,256.09Zm0-1.83a.46.46,0,1,0,0,.91.46.46,0,1,0,0-.91Z" transform="translate(-155.28 -5.28)"/><path class="cls-9" d="M506.29,231.79h-1.72c-.36,0-.57-.17-.57-.46s.21-.46.57-.46H508c.36,0,.57.18.57.46s-.21.46-.57.46Z" transform="translate(-155.28 -5.28)"/><path class="cls-9" d="M506.29,254.26a.46.46,0,1,1,0,.91.46.46,0,1,1,0-.91Z" transform="translate(-155.28 -5.28)"/><circle class="cls-13" cx="453.82" cy="249.98" r="23.46"/><path class="cls-9" d="M596.25,271.13h-.74l-.24-.07a2.73,2.73,0,0,1-2-3.19,4.26,4.26,0,0,1,1.24-2.1l6.18-6.18c.5-.49.51-.57.17-1.17a12.69,12.69,0,0,1-1.61-5.19,12.25,12.25,0,0,1,2.35-8.47,12.53,12.53,0,0,1,8.53-5.22,12.2,12.2,0,0,1,7,.9,12.57,12.57,0,0,1,7.66,10.18c0,.32.08.65.12,1v1.31c0,.1,0,.2-.05.3a12.12,12.12,0,0,1-1,4.07,12.75,12.75,0,0,1-7.19,7,12.19,12.19,0,0,1-6.15.76,12.64,12.64,0,0,1-4.72-1.59c-.53-.31-.65-.28-1.08.14l-6.2,6.2a5.27,5.27,0,0,1-1,.81A11.2,11.2,0,0,1,596.25,271.13Zm25.35-18.88a9.52,9.52,0,1,0-9.5,9.52A9.54,9.54,0,0,0,621.6,252.25Z" transform="translate(-155.28 -5.28)"/><path class="cls-9" d="M616.73,246.43a1.31,1.31,0,0,1-1.78,1.23,6,6,0,0,0-2.57-.45,5.59,5.59,0,0,0-4.84,3.2c-.25.48-.51.93-1.09,1a1.27,1.27,0,0,1-1.3-.46,1.28,1.28,0,0,1-.17-1.4,8.41,8.41,0,0,1,10.87-4.43A1.35,1.35,0,0,1,616.73,246.43Z" transform="translate(-155.28 -5.28)"/><circle class="cls-14" cx="182.82" cy="74.27" r="54.36"/><path class="cls-9" d="M324.74,37.07h27.7l.1.06a1.7,1.7,0,0,1,1.29,1.76q0,3,0,6A1.72,1.72,0,0,1,352,46.7H325.18a1.72,1.72,0,0,1-1.83-1.82c0-2,0-4,0-6a2.37,2.37,0,0,1,.28-1A1.76,1.76,0,0,1,324.74,37.07Zm24.6,3.44a1.37,1.37,0,1,0,1.37,1.37A1.37,1.37,0,0,0,349.34,40.51Z" transform="translate(-155.28 -5.28)"/><path class="cls-9" d="M338.59,69.74H325.32a1.77,1.77,0,0,1-2-2V62.07a1.76,1.76,0,0,1,2-2h26.54a1.77,1.77,0,0,1,2,2v5.68a1.76,1.76,0,0,1-2,2ZM350.71,65a1.37,1.37,0,1,0-1.4,1.34A1.37,1.37,0,0,0,350.71,65Z" transform="translate(-155.28 -5.28)"/><path class="cls-9" d="M338.59,48.59h13.3a1.74,1.74,0,0,1,1.74.94,2.27,2.27,0,0,1,.2.89c0,2,0,4,0,6a1.72,1.72,0,0,1-1.78,1.84H325.32a1.94,1.94,0,0,1-1.46-.5,1.76,1.76,0,0,1-.52-1.3q0-3,0-6a1.7,1.7,0,0,1,1.71-1.79h13.53Zm12.12,4.8A1.37,1.37,0,0,0,349.33,52a1.37,1.37,0,1,0,1.38,1.36Z" transform="translate(-155.28 -5.28)"/><path class="cls-9" d="M298.82,90.43a5.58,5.58,0,0,0,3.14.94c2.05,0,3.29-1.09,3.29-2.65s-.74-2.28-2.86-3c-2.54-.8-3.55-1.84-3.55-3.49,0-1.86,1.59-3.25,3.93-3.25a5.43,5.43,0,0,1,2.81.63l-.35.78a4.63,4.63,0,0,0-2.5-.66c-2.28,0-3,1.37-3,2.37,0,1.35.81,2.12,2.86,2.78,2.31.75,3.55,1.65,3.55,3.7,0,1.75-1.28,3.52-4.31,3.52a6.37,6.37,0,0,1-3.38-.94Z" transform="translate(-155.28 -5.28)"/><path class="cls-9" d="M311.43,80h-4.71v-.77h10.35V80h-4.71v11.9h-.93Z" transform="translate(-155.28 -5.28)"/><path class="cls-9" d="M329.75,85.41a6.33,6.33,0,0,1-6.43,6.73,6.16,6.16,0,0,1-6.3-6.39A6.38,6.38,0,0,1,323.45,79,6.13,6.13,0,0,1,329.75,85.41Zm-11.77.3a5.39,5.39,0,0,0,5.38,5.67c3.34,0,5.43-2.53,5.43-5.9,0-2.74-1.79-5.71-5.38-5.71S318,82.59,318,85.71Z" transform="translate(-155.28 -5.28)"/><path class="cls-9" d="M332.12,79.41a17.93,17.93,0,0,1,3.09-.28,5,5,0,0,1,3.7,1.13,3.1,3.1,0,0,1,.9,2.21,3.37,3.37,0,0,1-2.61,3.29v0a3.36,3.36,0,0,1,2,2.58,17,17,0,0,0,1,3.53h-1a16.85,16.85,0,0,1-.85-3c-.41-1.83-1.24-2.67-3-2.77H333v5.81h-.92Zm.92,5.94h2.45c2.08,0,3.4-1.09,3.4-2.73,0-2-1.67-2.74-3.7-2.74a8.92,8.92,0,0,0-2.15.21Z" transform="translate(-155.28 -5.28)"/><path class="cls-9" d="M344.06,87.46l-1.75,4.45h-.95l5.11-12.67h.9l5.08,12.67h-1l-1.79-4.45Zm5.34-.77-1.78-4.46c-.34-.85-.51-1.39-.7-2h0c-.19.64-.39,1.2-.69,2l-1.81,4.52Z" transform="translate(-155.28 -5.28)"/><path class="cls-9" d="M364.6,91.27a11.58,11.58,0,0,1-4.25.77,7.07,7.07,0,0,1-5.06-1.8,6.41,6.41,0,0,1-1.84-4.68c0-3,2.25-6.45,7.35-6.45a8.58,8.58,0,0,1,3.38.64l-.3.75a7.16,7.16,0,0,0-3.12-.62c-4.15,0-6.35,2.58-6.35,5.71,0,3.29,2.23,5.68,6.11,5.68a7.2,7.2,0,0,0,3.15-.52V86.4H360.4v-.75h4.2Z" transform="translate(-155.28 -5.28)"/><path class="cls-9" d="M374,85.61h-5.64v5.53h6.28v.77h-7.2V79.24h6.88V80h-6v4.83H374Z" transform="translate(-155.28 -5.28)"/><path class="cls-9" d="M375.81,94.28a25.89,25.89,0,0,0,1-4l1.2-.18a23.85,23.85,0,0,1-1.45,4.08Z" transform="translate(-155.28 -5.28)"/><path class="cls-9" d="M305.88,98.22a13.65,13.65,0,0,1,2.84-.29A4.73,4.73,0,0,1,312.29,99a2.84,2.84,0,0,1,.79,2.09,3.13,3.13,0,0,1-2.24,2.82V104a3.29,3.29,0,0,1,2.76,3.17,3.23,3.23,0,0,1-1,2.39c-.89.88-2.34,1.26-4.38,1.26-1,0-1.83-.08-2.39-.11Zm.92,5.43H309c2,0,3.12-1.11,3.12-2.48,0-1.94-1.6-2.47-3.48-2.47a8.67,8.67,0,0,0-1.86.15Zm0,6.3a9.58,9.58,0,0,0,1.79.11c2,0,4.06-.58,4.06-2.84,0-2-1.81-2.82-3.95-2.82h-1.9Z" transform="translate(-155.28 -5.28)"/><path class="cls-9" d="M317.8,106.26l-1.75,4.46h-1l5.12-12.67h.9l5.08,12.67h-1l-1.79-4.46Zm5.34-.77L321.35,101c-.33-.85-.5-1.4-.69-2h0c-.19.64-.39,1.21-.69,2l-1.81,4.51Z" transform="translate(-155.28 -5.28)"/><path class="cls-9" d="M337.85,110.21a9.58,9.58,0,0,1-4,.73c-3.42,0-6.69-2.08-6.69-6.5,0-3.31,2.44-6.62,7.2-6.62a7.75,7.75,0,0,1,3.42.64l-.3.77a7.17,7.17,0,0,0-3.07-.64c-4.11,0-6.29,2.5-6.29,5.92,0,3.12,2.08,5.64,6.07,5.64a7.86,7.86,0,0,0,3.34-.67Z" transform="translate(-155.28 -5.28)"/><path class="cls-9" d="M340.16,98.05h.92v6.48h.08a16.8,16.8,0,0,1,1.14-1.28l5.06-5.2h1.17l-5.34,5.39,5.9,7.28h-1.15l-5.39-6.7-1.47,1.47v5.23h-.92Z" transform="translate(-155.28 -5.28)"/><path class="cls-9" d="M351.24,98.05v7.31c0,3.44,1.71,4.81,3.81,4.81,2.35,0,4-1.46,4-4.81V98.05H360v7.23c0,4.08-2.31,5.66-5,5.66-2.47,0-4.68-1.43-4.68-5.56V98.05Z" transform="translate(-155.28 -5.28)"/><path class="cls-9" d="M363.31,98.18a19,19,0,0,1,3-.25A5.21,5.21,0,0,1,370,99.06a3.26,3.26,0,0,1,1,2.46,3.55,3.55,0,0,1-1,2.62,5.47,5.47,0,0,1-4,1.37,6.07,6.07,0,0,1-1.81-.19v5.4h-.92Zm.92,6.33a6.56,6.56,0,0,0,1.92.23c2.52,0,3.93-1.15,3.93-3.1,0-2.18-1.73-2.94-3.78-2.94a11.77,11.77,0,0,0-2.07.17Z" transform="translate(-155.28 -5.28)"/><circle class="cls-7" cx="224.81" cy="325.3" r="29.8"/><path class="cls-9" d="M380,342.54H365.35a2.07,2.07,0,0,1-1.7-1,2.19,2.19,0,0,1-.39-1.19c0-.44,0-.89,0-1.33V321.14a3,3,0,0,1,.17-1.15,2.16,2.16,0,0,1,2.06-1.38h29.19a2.12,2.12,0,0,1,1.9,1.16,2.29,2.29,0,0,1,.33,1.21c0,.9,0,1.8,0,2.7v16.44a2.48,2.48,0,0,1-.51,1.56,2.06,2.06,0,0,1-1.65.87H380Zm.53-1.76h13.73a3.62,3.62,0,0,0,.46,0,.42.42,0,0,0,.39-.4c0-.13,0-.27,0-.41V321.22c0-.13,0-.27,0-.41a.42.42,0,0,0-.41-.43,2.9,2.9,0,0,0-.51,0H366.48a.5.5,0,0,0-.53.55,1.33,1.33,0,0,0,0,.2v10.67q0,4.08,0,8.17c0,.12,0,.24,0,.35a.47.47,0,0,0,.44.47h14.14Zm-15.94-11.07a.88.88,0,0,0-.82.87.84.84,0,0,0,.83.85.85.85,0,0,0,.85-.88A.89.89,0,0,0,364.59,329.71Z" transform="translate(-155.28 -5.28)"/><circle class="cls-15" cx="242.28" cy="202.61" r="86.32"/><path class="cls-9" d="M339.37,214.07c-.18-2.61-.42-6-.42-7.88h-.05c-.7,1.88-1.51,3.91-2.63,6.57l-4.07,9.6h-1l-3.8-9.47c-1.1-2.74-1.91-4.82-2.48-6.7h-.05c-.08,2-.21,5.24-.45,8.14l-.62,8h-1.25L324,204.78h1.46l4.22,10.49c.89,2.19,1.56,4,2.09,5.6h.05c.47-1.48,1.17-3.26,2.16-5.58l4.44-10.51h1.51l1.25,17.58h-1.25Z" transform="translate(-155.28 -5.28)"/><path class="cls-9" d="M361.51,213.34c0,6.07-4.33,9.33-8.92,9.33a8.54,8.54,0,0,1-8.73-8.86c0-5.53,3.91-9.34,8.92-9.34A8.5,8.5,0,0,1,361.51,213.34Zm-16.32.41c0,4.15,2.84,7.88,7.46,7.88s7.53-3.52,7.53-8.19c0-3.81-2.47-7.93-7.46-7.93S345.19,209.42,345.19,213.75Z" transform="translate(-155.28 -5.28)"/><path class="cls-9" d="M364.8,222.36V204.78H366L374,215.6a60.32,60.32,0,0,1,3.58,5.14l.05-.05c-.18-2-.21-4.12-.21-6.83v-9.08h1.25v17.58h-1.17l-7.7-10.46c-1.48-2-2.84-3.88-3.78-5.45l-.07.05c.13,2,.15,3.86.15,6.47v9.39Z" transform="translate(-155.28 -5.28)"/><path class="cls-9" d="M384.49,204.78v17.58h-1.28V204.78Z" transform="translate(-155.28 -5.28)"/><path class="cls-9" d="M392.81,205.85h-6.55v-1.07h14.37v1.07h-6.54v16.51h-1.28Z" transform="translate(-155.28 -5.28)"/><path class="cls-9" d="M418.21,213.34c0,6.07-4.33,9.33-8.92,9.33a8.55,8.55,0,0,1-8.74-8.86c0-5.53,3.92-9.34,8.92-9.34A8.5,8.5,0,0,1,418.21,213.34Zm-16.33.41c0,4.15,2.85,7.88,7.46,7.88s7.54-3.52,7.54-8.19c0-3.81-2.48-7.93-7.46-7.93S401.88,209.42,401.88,213.75Z" transform="translate(-155.28 -5.28)"/><path class="cls-9" d="M421.5,205a24.29,24.29,0,0,1,4.27-.39c2.51,0,4.07.52,5.14,1.56a4.29,4.29,0,0,1,1.25,3.08,4.68,4.68,0,0,1-3.62,4.56v0a4.67,4.67,0,0,1,2.79,3.58,23.48,23.48,0,0,0,1.43,4.9h-1.35a23.47,23.47,0,0,1-1.18-4.23c-.57-2.53-1.72-3.7-4.12-3.83h-3.34v8.06H421.5Zm1.27,8.24h3.39c2.9,0,4.72-1.51,4.72-3.78,0-2.82-2.32-3.81-5.13-3.81a12.88,12.88,0,0,0-3,.29Z" transform="translate(-155.28 -5.28)"/><path class="cls-9" d="M437.09,204.78v17.58h-1.28V204.78Z" transform="translate(-155.28 -5.28)"/><path class="cls-9" d="M441.68,222.36V204.78h1.2l7.95,10.82a60.32,60.32,0,0,1,3.58,5.14l0-.05c-.18-2-.21-4.12-.21-6.83v-9.08h1.25v17.58h-1.17l-7.7-10.46c-1.48-2-2.84-3.88-3.78-5.45l-.07.05c.13,2,.15,3.86.15,6.47v9.39Z" transform="translate(-155.28 -5.28)"/><path class="cls-9" d="M474.25,221.47a16.11,16.11,0,0,1-5.89,1.07,9.81,9.81,0,0,1-7-2.5,8.92,8.92,0,0,1-2.55-6.5c0-4.12,3.13-8.94,10.2-8.94a12.07,12.07,0,0,1,4.69.89l-.42,1a9.91,9.91,0,0,0-4.33-.86c-5.76,0-8.81,3.57-8.81,7.93,0,4.56,3.1,7.87,8.47,7.87a9.93,9.93,0,0,0,4.38-.73v-6h-4.53v-1.05h5.81Z" transform="translate(-155.28 -5.28)"/><path class="cls-9" d="M347.5,244.75a7.74,7.74,0,0,0,4.35,1.3c2.84,0,4.56-1.51,4.56-3.68,0-2-1-3.15-4-4.09-3.52-1.12-4.93-2.55-4.93-4.85,0-2.58,2.22-4.51,5.45-4.51a7.5,7.5,0,0,1,3.91.89l-.49,1.07a6.48,6.48,0,0,0-3.47-.92c-3.15,0-4.15,1.91-4.15,3.29,0,1.88,1.13,2.94,4,3.86,3.21,1,4.93,2.29,4.93,5.13,0,2.43-1.78,4.88-6,4.88a8.83,8.83,0,0,1-4.69-1.3Z" transform="translate(-155.28 -5.28)"/><path class="cls-9" d="M370.37,238.07h-7.83v7.67h8.71v1.07h-10V229.23h9.54v1.07h-8.27V237h7.83Z" transform="translate(-155.28 -5.28)"/><path class="cls-9" d="M374.59,229.47a24.32,24.32,0,0,1,4.28-.39c2.5,0,4.07.52,5.14,1.56a4.33,4.33,0,0,1,1.25,3.08,4.68,4.68,0,0,1-3.63,4.56v.05a4.63,4.63,0,0,1,2.79,3.58,23.92,23.92,0,0,0,1.44,4.9H384.5a22.91,22.91,0,0,1-1.17-4.23c-.58-2.53-1.72-3.7-4.12-3.83h-3.34v8.06h-1.28Zm1.28,8.24h3.39c2.89,0,4.72-1.52,4.72-3.78,0-2.82-2.32-3.81-5.14-3.81a12.29,12.29,0,0,0-3,.29Z" transform="translate(-155.28 -5.28)"/><path class="cls-9" d="M393.86,246.81l-6.41-17.58h1.36l3.46,9.68c1,2.71,1.72,4.77,2.27,6.59h0c.6-1.85,1.49-4,2.53-6.57l3.92-9.7h1.38l-7.3,17.58Z" transform="translate(-155.28 -5.28)"/><path class="cls-9" d="M405.44,229.23v17.58h-1.27V229.23Z" transform="translate(-155.28 -5.28)"/><path class="cls-9" d="M423.51,246.1a13.17,13.17,0,0,1-5.5,1c-4.74,0-9.28-2.89-9.28-9,0-4.59,3.39-9.18,10-9.18a10.71,10.71,0,0,1,4.74.89l-.41,1.07a9.9,9.9,0,0,0-4.26-.89c-5.71,0-8.73,3.47-8.73,8.21,0,4.33,2.89,7.83,8.42,7.83a10.9,10.9,0,0,0,4.64-.94Z" transform="translate(-155.28 -5.28)"/><path class="cls-9" d="M435.83,238.07H428v7.67h8.71v1.07h-10V229.23h9.55v1.07H428V237h7.83Z" transform="translate(-155.28 -5.28)"/><path class="cls-9" d="M439.45,244.75a7.78,7.78,0,0,0,4.36,1.3c2.84,0,4.56-1.51,4.56-3.68,0-2-1-3.15-4-4.09-3.53-1.12-4.93-2.55-4.93-4.85,0-2.58,2.21-4.51,5.45-4.51a7.52,7.52,0,0,1,3.91.89l-.5,1.07a6.41,6.41,0,0,0-3.46-.92c-3.16,0-4.15,1.91-4.15,3.29,0,1.88,1.12,2.94,4,3.86,3.21,1,4.93,2.29,4.93,5.13,0,2.43-1.77,4.88-6,4.88a8.78,8.78,0,0,1-4.69-1.3Z" transform="translate(-155.28 -5.28)"/><rect class="cls-9" x="212.1" y="156.79" width="3.26" height="23.38"/><rect class="cls-9" x="219.44" y="148.62" width="3.26" height="31.54"/><rect class="cls-9" x="226.51" y="151.46" width="3.26" height="28.71"/><rect class="cls-9" x="233.65" y="142.54" width="3.26" height="37.62"/><rect class="cls-9" x="240.64" y="147.62" width="3.26" height="32.55"/><rect class="cls-9" x="247.07" y="147.62" width="3.26" height="32.55"/><rect class="cls-9" x="253.69" y="137.14" width="3.26" height="43.03"/><rect class="cls-9" x="260.3" y="142.38" width="3.26" height="37.79"/><rect class="cls-9" x="266.92" y="165.24" width="3.26" height="14.93"/><circle class="cls-16" cx="81.54" cy="200.43" r="61.07"/><path class="cls-9" d="M184,213.21l-1.51,3.86h-.83l4.43-11h.78l4.4,11h-.83l-1.55-3.86Zm4.63-.67L187,208.68c-.29-.73-.44-1.21-.6-1.74h0a17.6,17.6,0,0,1-.6,1.69l-1.57,3.91Z" transform="translate(-155.28 -5.28)"/><path class="cls-9" d="M193,206.2a17,17,0,0,1,2.61-.21,4.51,4.51,0,0,1,3.18,1,2.84,2.84,0,0,1,.88,2.13,3,3,0,0,1-.85,2.27,4.75,4.75,0,0,1-3.45,1.19,5.54,5.54,0,0,1-1.57-.16v4.67H193Zm.8,5.5a6,6,0,0,0,1.67.19c2.18,0,3.4-1,3.4-2.69,0-1.89-1.5-2.54-3.27-2.54a9.3,9.3,0,0,0-1.8.15Z" transform="translate(-155.28 -5.28)"/><path class="cls-9" d="M201.92,206.2a16.75,16.75,0,0,1,2.6-.21,4.51,4.51,0,0,1,3.18,1,2.81,2.81,0,0,1,.88,2.13,3,3,0,0,1-.85,2.27,4.75,4.75,0,0,1-3.45,1.19,5.54,5.54,0,0,1-1.57-.16v4.67h-.79Zm.79,5.5a6,6,0,0,0,1.67.19c2.18,0,3.4-1,3.4-2.69,0-1.89-1.5-2.54-3.27-2.54a9.39,9.39,0,0,0-1.8.15Z" transform="translate(-155.28 -5.28)"/><path class="cls-9" d="M210.85,206.09h.8v10.32h5.44v.66h-6.24Z" transform="translate(-155.28 -5.28)"/><path class="cls-9" d="M219.63,206.09v11h-.79v-11Z" transform="translate(-155.28 -5.28)"/><path class="cls-9" d="M230.93,216.63a8.29,8.29,0,0,1-3.44.64c-3,0-5.8-1.81-5.8-5.64,0-2.87,2.12-5.74,6.24-5.74a6.77,6.77,0,0,1,3,.56l-.27.67a6.12,6.12,0,0,0-2.65-.56c-3.57,0-5.46,2.17-5.46,5.14,0,2.7,1.81,4.88,5.26,4.88a6.87,6.87,0,0,0,2.9-.58Z" transform="translate(-155.28 -5.28)"/><path class="cls-9" d="M234.34,213.21l-1.52,3.86H232l4.43-11h.78l4.4,11h-.83l-1.54-3.86Zm4.62-.67-1.54-3.86c-.3-.73-.44-1.21-.61-1.74h0a17.6,17.6,0,0,1-.6,1.69l-1.57,3.91Z" transform="translate(-155.28 -5.28)"/><path class="cls-9" d="M244.47,206.76h-4.09v-.67h9v.67h-4.09v10.31h-.8Z" transform="translate(-155.28 -5.28)"/><path class="cls-9" d="M251.25,206.09v11h-.79v-11Z" transform="translate(-155.28 -5.28)"/><path class="cls-9" d="M264.34,211.43a5.48,5.48,0,0,1-5.57,5.84,5.34,5.34,0,0,1-5.46-5.54,5.54,5.54,0,0,1,5.57-5.84A5.31,5.31,0,0,1,264.34,211.43Zm-10.2.27a4.68,4.68,0,0,0,4.66,4.92c2.9,0,4.71-2.2,4.71-5.12a4.68,4.68,0,0,0-4.66-4.95C255.72,206.55,254.14,209,254.14,211.7Z" transform="translate(-155.28 -5.28)"/><path class="cls-9" d="M266.4,217.07v-11h.75l5,6.76a36.26,36.26,0,0,1,2.23,3.21l0,0c-.11-1.27-.13-2.57-.13-4.27v-5.67H275v11h-.73l-4.81-6.53c-.93-1.27-1.77-2.43-2.36-3.41l-.05,0c.08,1.23.1,2.41.1,4v5.86Z" transform="translate(-155.28 -5.28)"/><path class="cls-9" d="M289.12,217.07c-.41-.37-.77-.76-1.32-1.25a5.14,5.14,0,0,1-3.65,1.45,3.12,3.12,0,0,1-3.28-3.08,3.6,3.6,0,0,1,2.35-3.24v0a3.94,3.94,0,0,1-1-2.37,2.58,2.58,0,0,1,2.65-2.64,2.15,2.15,0,0,1,2.25,2.2c0,1.19-.71,2.09-2.78,3v0c1.37,1.53,2.75,3,3.47,3.7a7.29,7.29,0,0,0,1.25-3.54h.75a7.76,7.76,0,0,1-1.55,4c.72.7,1.31,1.27,1.89,1.79Zm-1.78-1.71c-.45-.44-2.1-2.12-3.75-3.94a3.1,3.1,0,0,0-1.94,2.65,2.55,2.55,0,0,0,2.69,2.56A4.15,4.15,0,0,0,287.34,215.36ZM283,208.45a3.58,3.58,0,0,0,1,2.22c1.43-.69,2.44-1.34,2.44-2.49a1.56,1.56,0,0,0-1.61-1.67A1.79,1.79,0,0,0,283,208.45Z" transform="translate(-155.28 -5.28)"/><path class="cls-9" d="M195.81,224.17a24.51,24.51,0,0,1,3.29-.25c2.33,0,4.11.64,5.14,1.76a5.07,5.07,0,0,1,1.32,3.59,5.89,5.89,0,0,1-1.52,4,7.3,7.3,0,0,1-5.38,1.82c-1,0-1.9,0-2.85-.1Zm.8,10.17a16.51,16.51,0,0,0,2.18.09c4.18,0,6-2.29,6-5.15,0-2.69-1.69-4.69-5.7-4.69a12.81,12.81,0,0,0-2.43.21Z" transform="translate(-155.28 -5.28)"/><path class="cls-9" d="M208.85,231.14,207.34,235h-.84l4.44-11h.78l4.4,11h-.83l-1.55-3.86Zm4.63-.67-1.55-3.86c-.29-.73-.44-1.21-.6-1.74h0c-.17.55-.35,1-.61,1.69l-1.56,3.91Z" transform="translate(-155.28 -5.28)"/><path class="cls-9" d="M219,224.69H214.9V224h9v.67h-4.09V235H219Z" transform="translate(-155.28 -5.28)"/><path class="cls-9" d="M225,231.14,223.47,235h-.83l4.43-11h.79l4.4,11h-.83l-1.55-3.86Zm4.63-.67-1.55-3.86a16.67,16.67,0,0,1-.6-1.74h0a17.6,17.6,0,0,1-.6,1.69l-1.56,3.91Z" transform="translate(-155.28 -5.28)"/><path class="cls-9" d="M234,224.17a11.73,11.73,0,0,1,2.46-.25,4.13,4.13,0,0,1,3.1,1,2.46,2.46,0,0,1,.68,1.81,2.73,2.73,0,0,1-1.94,2.45v.05a2.86,2.86,0,0,1,2.4,2.75,2.83,2.83,0,0,1-.83,2.07c-.77.76-2,1.09-3.8,1.09-.85,0-1.58-.06-2.07-.1Zm.8,4.71h1.92c1.73,0,2.71-1,2.71-2.15,0-1.68-1.39-2.14-3-2.14a7.53,7.53,0,0,0-1.61.13Zm0,5.46a8.17,8.17,0,0,0,1.55.09c1.72,0,3.52-.5,3.52-2.46,0-1.73-1.57-2.44-3.43-2.44h-1.64Z" transform="translate(-155.28 -5.28)"/><path class="cls-9" d="M244.35,231.14,242.84,235H242l4.43-11h.78l4.4,11h-.83l-1.55-3.86Zm4.63-.67-1.55-3.86c-.29-.73-.44-1.21-.6-1.74h0c-.17.55-.35,1-.61,1.69l-1.56,3.91Z" transform="translate(-155.28 -5.28)"/><path class="cls-9" d="M253,233.72a4.91,4.91,0,0,0,2.72.81c1.78,0,2.85-.94,2.85-2.3s-.63-2-2.48-2.56c-2.2-.7-3.08-1.59-3.08-3,0-1.61,1.39-2.82,3.41-2.82a4.67,4.67,0,0,1,2.44.56l-.31.67a3.93,3.93,0,0,0-2.16-.57c-2,0-2.59,1.19-2.59,2.05,0,1.17.7,1.84,2.47,2.41,2,.65,3.08,1.44,3.08,3.21,0,1.52-1.1,3-3.73,3a5.49,5.49,0,0,1-2.93-.82Z" transform="translate(-155.28 -5.28)"/><path class="cls-9" d="M267.3,229.54h-4.89v4.8h5.45V235h-6.25V224h6v.67h-5.17v4.19h4.89Z" transform="translate(-155.28 -5.28)"/><path class="cls-9" d="M269.57,233.72a4.91,4.91,0,0,0,2.72.81c1.78,0,2.85-.94,2.85-2.3s-.63-2-2.48-2.56c-2.2-.7-3.08-1.59-3.08-3,0-1.61,1.39-2.82,3.41-2.82a4.67,4.67,0,0,1,2.44.56l-.31.67a3.93,3.93,0,0,0-2.16-.57c-2,0-2.59,1.19-2.59,2.05,0,1.17.7,1.84,2.47,2.41,2,.65,3.08,1.44,3.08,3.21,0,1.52-1.1,3-3.73,3a5.49,5.49,0,0,1-2.93-.82Z" transform="translate(-155.28 -5.28)"/><path class="cls-9" d="M213.28,162.54V191.8a2.18,2.18,0,0,0,2.17,2.18H250a2.18,2.18,0,0,0,2.18-2.18V162.54a2.17,2.17,0,0,0-2.18-2.17H215.45A2.17,2.17,0,0,0,213.28,162.54Zm31,.81h3.17v2.56h-3.17Zm-4.84,0h3.16v2.56h-3.16Zm-4.85,0h3.17v2.56h-3.17Zm14.27,27.2H218.76a2.17,2.17,0,0,1-2.17-2.17v-17.2a2.17,2.17,0,0,1,2.17-2.17h28a2.17,2.17,0,0,1,2.17,2.17Z" transform="translate(-155.28 -5.28)"/><polygon class="cls-9" points="81.49 174.74 80.34 173.59 83.74 170.19 80.34 166.79 81.49 165.64 86.04 170.19 81.49 174.74"/><rect class="cls-9" x="69.72" y="169.38" width="15.17" height="1.63"/><polygon class="cls-9" points="73.11 183.79 68.56 179.25 73.11 174.7 74.27 175.85 70.87 179.25 74.27 182.64 73.11 183.79"/><rect class="cls-9" x="69.72" y="178.43" width="15.17" height="1.63"/><circle class="cls-17" cx="122.55" cy="356.39" r="60.9"/><path class="cls-9" d="M242.17,367.77v-11h.75l5,6.76a37.8,37.8,0,0,1,2.23,3.21l0,0c-.11-1.27-.13-2.57-.13-4.27v-5.67h.78v11h-.73l-4.81-6.54c-.93-1.27-1.77-2.43-2.36-3.4l-.05,0c.08,1.24.1,2.41.1,4v5.87Z" transform="translate(-155.28 -5.28)"/><path class="cls-9" d="M259.36,362.31h-4.89v4.79h5.45v.67h-6.25v-11h6v.67h-5.17v4.19h4.89Z" transform="translate(-155.28 -5.28)"/><path class="cls-9" d="M264.82,357.45h-4.09v-.67h9v.67h-4.09v10.32h-.8Z" transform="translate(-155.28 -5.28)"/><path class="cls-9" d="M273.64,367.77l-3.11-11h.81l1.75,6.31c.39,1.4.76,2.75,1,3.68h0c.2-.89.64-2.25,1.11-3.68l2-6.31H278l1.77,6.29c.38,1.34.77,2.74.95,3.7h0c.26-1,.65-2.21,1.11-3.67l2-6.32h.83l-3.64,11h-.78l-1.77-6.29a33.76,33.76,0,0,1-.93-3.77h0a35,35,0,0,1-1.11,3.73l-2.06,6.33Z" transform="translate(-155.28 -5.28)"/><path class="cls-9" d="M296.52,362.13A5.48,5.48,0,0,1,291,368a5.34,5.34,0,0,1-5.46-5.54,5.54,5.54,0,0,1,5.57-5.83A5.31,5.31,0,0,1,296.52,362.13Zm-10.2.26a4.68,4.68,0,0,0,4.66,4.92c2.9,0,4.71-2.2,4.71-5.12a4.67,4.67,0,0,0-4.66-4.95C287.9,357.24,286.32,359.68,286.32,362.39Z" transform="translate(-155.28 -5.28)"/><path class="cls-9" d="M298.58,356.93a15.22,15.22,0,0,1,2.67-.25,4.32,4.32,0,0,1,3.21,1,2.66,2.66,0,0,1,.79,1.92,2.93,2.93,0,0,1-2.27,2.86v0a2.89,2.89,0,0,1,1.74,2.23,15.08,15.08,0,0,0,.9,3.07h-.85a14.89,14.89,0,0,1-.73-2.64c-.36-1.59-1.08-2.32-2.58-2.4h-2.08v5h-.8Zm.8,5.15h2.12c1.81,0,2.95-.95,2.95-2.37,0-1.75-1.45-2.37-3.21-2.37a7.55,7.55,0,0,0-1.86.18Z" transform="translate(-155.28 -5.28)"/><path class="cls-9" d="M307.53,356.78h.8v5.62h.06a14,14,0,0,1,1-1.1l4.38-4.52h1l-4.63,4.68,5.12,6.31h-1L309.6,362l-1.27,1.28v4.53h-.8Z" transform="translate(-155.28 -5.28)"/><path class="cls-9" d="M235.71,380.51c-.11-1.63-.26-3.75-.26-4.92h0c-.44,1.17-.95,2.45-1.65,4.11l-2.54,6h-.6l-2.38-5.92c-.69-1.71-1.19-3-1.55-4.19h0c0,1.27-.13,3.28-.28,5.09l-.39,5h-.78l.88-11H227l2.64,6.55c.55,1.37,1,2.51,1.3,3.51h0c.3-.93.74-2,1.36-3.49l2.77-6.57h.94l.79,11h-.79Z" transform="translate(-155.28 -5.28)"/><path class="cls-9" d="M240.49,381.83,239,385.7h-.83l4.43-11h.79l4.4,11h-.83l-1.55-3.87Zm4.63-.66-1.55-3.87a15.91,15.91,0,0,1-.6-1.74h0a17.6,17.6,0,0,1-.6,1.69l-1.56,3.92Z" transform="translate(-155.28 -5.28)"/><path class="cls-9" d="M249.52,385.7v-11h.75l5,6.76a37.8,37.8,0,0,1,2.23,3.21l0,0c-.11-1.27-.13-2.57-.13-4.27v-5.67h.79v11h-.74l-4.81-6.54c-.92-1.27-1.77-2.43-2.36-3.41l-.05,0c.08,1.24.1,2.41.1,4v5.87Z" transform="translate(-155.28 -5.28)"/><path class="cls-9" d="M262.43,381.83l-1.52,3.87h-.83l4.43-11h.79l4.4,11h-.84l-1.54-3.87Zm4.63-.66-1.55-3.87c-.3-.73-.44-1.2-.61-1.74h0a17.6,17.6,0,0,1-.6,1.69l-1.57,3.92Z" transform="translate(-155.28 -5.28)"/><path class="cls-9" d="M280.23,385.14a10.18,10.18,0,0,1-3.69.67,6.1,6.1,0,0,1-4.38-1.56,5.57,5.57,0,0,1-1.6-4.06c0-2.58,2-5.59,6.37-5.59a7.69,7.69,0,0,1,2.94.55l-.26.65a6.27,6.27,0,0,0-2.71-.53c-3.6,0-5.51,2.23-5.51,5s1.94,4.92,5.3,4.92a6.15,6.15,0,0,0,2.74-.46v-3.76h-2.84v-.65h3.64Z" transform="translate(-155.28 -5.28)"/><path class="cls-9" d="M288.38,380.24h-4.89V385h5.44v.67h-6.24v-11h6v.67h-5.16v4.19h4.89Z" transform="translate(-155.28 -5.28)"/><path class="cls-9" d="M301.17,380.51c-.11-1.63-.26-3.75-.26-4.92h0c-.44,1.17-.95,2.45-1.65,4.11l-2.54,6h-.6l-2.38-5.92c-.69-1.71-1.19-3-1.55-4.19h0c-.05,1.27-.14,3.28-.28,5.09l-.39,5h-.79l.88-11h.92l2.64,6.55c.55,1.37,1,2.51,1.3,3.51h0c.3-.93.74-2,1.36-3.49l2.77-6.57h.94l.78,11h-.78Z" transform="translate(-155.28 -5.28)"/><path class="cls-9" d="M310.48,380.24h-4.89V385H311v.67h-6.24v-11h6v.67h-5.16v4.19h4.89Z" transform="translate(-155.28 -5.28)"/><path class="cls-9" d="M313.12,385.7v-11h.75l5,6.76a37.8,37.8,0,0,1,2.23,3.21l0,0c-.11-1.27-.13-2.57-.13-4.27v-5.67h.79v11H321l-4.8-6.54c-.93-1.27-1.78-2.43-2.37-3.41l-.05,0c.09,1.24.1,2.41.1,4v5.87Z" transform="translate(-155.28 -5.28)"/><path class="cls-9" d="M327,375.38h-4.09v-.67h9v.67h-4.09V385.7H327Z" transform="translate(-155.28 -5.28)"/><rect class="cls-9" x="115.91" y="310.34" width="13.1" height="8.56"/><polygon class="cls-9" points="142.72 326.55 142.72 323.3 123.36 323.3 123.36 318.9 121.73 318.9 121.73 323.3 102.38 323.3 102.38 326.55 110.25 326.55 110.25 331.69 103.6 331.69 103.6 340.25 116.7 340.25 116.7 331.69 111.88 331.69 111.88 326.55 132.82 326.55 132.82 331.69 127.89 331.69 127.89 340.25 140.99 340.25 140.99 331.69 134.45 331.69 134.45 326.55 142.72 326.55"/><circle class="cls-18" cx="362.54" cy="334.09" r="75.85"/><path class="cls-9" d="M448.27,333.29V345.7h-.9V333.29Z" transform="translate(-155.28 -5.28)"/><path class="cls-9" d="M451.5,345.7V333.29h.85l5.61,7.64a40.74,40.74,0,0,1,2.53,3.62l0,0c-.13-1.44-.14-2.91-.14-4.82v-6.41h.88V345.7h-.83L455,338.32c-1.05-1.44-2-2.75-2.67-3.85l-.05,0c.09,1.4.11,2.72.11,4.56v6.63Z" transform="translate(-155.28 -5.28)"/><path class="cls-9" d="M464.49,333.29h6.74v.76h-5.84v4.87h5.34v.76h-5.34v6h-.9Z" transform="translate(-155.28 -5.28)"/><path class="cls-9" d="M473.87,333.46a17.11,17.11,0,0,1,3-.28,4.88,4.88,0,0,1,3.63,1.11,3,3,0,0,1,.88,2.17,3.3,3.3,0,0,1-2.56,3.22v0a3.27,3.27,0,0,1,2,2.53,17.14,17.14,0,0,0,1,3.46h-.95a15.85,15.85,0,0,1-.83-3c-.41-1.78-1.22-2.61-2.91-2.7h-2.35v5.69h-.91Zm.91,5.81h2.39c2,0,3.33-1.06,3.33-2.67,0-2-1.64-2.68-3.63-2.68a9.08,9.08,0,0,0-2.09.2Z" transform="translate(-155.28 -5.28)"/><path class="cls-9" d="M485.55,341.33l-1.71,4.37h-.94l5-12.41h.88l5,12.41h-.94l-1.74-4.37Zm5.23-.75L489,336.22c-.33-.83-.49-1.36-.68-2h0a17.21,17.21,0,0,1-.68,1.91l-1.76,4.42Z" transform="translate(-155.28 -5.28)"/><path class="cls-9" d="M495.32,344.24a5.49,5.49,0,0,0,3.07.92c2,0,3.22-1.07,3.22-2.59s-.71-2.23-2.79-2.89c-2.49-.79-3.48-1.81-3.48-3.43,0-1.82,1.56-3.18,3.85-3.18a5.3,5.3,0,0,1,2.76.63l-.35.75a4.6,4.6,0,0,0-2.45-.64c-2.23,0-2.93,1.34-2.93,2.32,0,1.32.79,2.08,2.8,2.72,2.26.74,3.48,1.62,3.48,3.62,0,1.72-1.25,3.45-4.22,3.45A6.25,6.25,0,0,1,495,345Z" transform="translate(-155.28 -5.28)"/><path class="cls-9" d="M507.67,334.05h-4.62v-.76h10.14v.76h-4.62V345.7h-.9Z" transform="translate(-155.28 -5.28)"/><path class="cls-9" d="M514.42,333.46a17,17,0,0,1,3-.28,4.88,4.88,0,0,1,3.63,1.11,3,3,0,0,1,.88,2.17,3.3,3.3,0,0,1-2.56,3.22v0a3.25,3.25,0,0,1,2,2.53,16.25,16.25,0,0,0,1,3.46h-1a16.71,16.71,0,0,1-.83-3c-.41-1.78-1.21-2.61-2.91-2.7h-2.35v5.69h-.9Zm.9,5.81h2.39c2,0,3.33-1.06,3.33-2.67,0-2-1.64-2.68-3.62-2.68a9.19,9.19,0,0,0-2.1.2Z" transform="translate(-155.28 -5.28)"/><path class="cls-9" d="M525.42,333.29v7.16c0,3.37,1.67,4.71,3.73,4.71,2.3,0,3.94-1.43,3.94-4.71v-7.16h.9v7.09c0,4-2.26,5.54-4.89,5.54-2.41,0-4.59-1.4-4.59-5.45v-7.18Z" transform="translate(-155.28 -5.28)"/><path class="cls-9" d="M546.74,345.2a9.36,9.36,0,0,1-3.88.72c-3.35,0-6.56-2.05-6.56-6.37,0-3.24,2.4-6.48,7.05-6.48a7.62,7.62,0,0,1,3.35.63l-.29.75a7,7,0,0,0-3-.62c-4,0-6.17,2.44-6.17,5.79,0,3.06,2,5.52,6,5.52a7.71,7.71,0,0,0,3.27-.66Z" transform="translate(-155.28 -5.28)"/><path class="cls-9" d="M552.55,334.05h-4.62v-.76h10.14v.76h-4.62V345.7h-.9Z" transform="translate(-155.28 -5.28)"/><path class="cls-9" d="M560.2,333.29v7.16c0,3.37,1.67,4.71,3.74,4.71,2.3,0,3.93-1.43,3.93-4.71v-7.16h.91v7.09c0,4-2.27,5.54-4.9,5.54-2.41,0-4.58-1.4-4.58-5.45v-7.18Z" transform="translate(-155.28 -5.28)"/><path class="cls-9" d="M572,333.46a17.11,17.11,0,0,1,3-.28,4.85,4.85,0,0,1,3.62,1.11,3,3,0,0,1,.89,2.17,3.3,3.3,0,0,1-2.56,3.22v0a3.29,3.29,0,0,1,2,2.53,16.47,16.47,0,0,0,1,3.46h-1a16.71,16.71,0,0,1-.83-3c-.4-1.78-1.21-2.61-2.9-2.7h-2.36v5.69H572Zm.9,5.81h2.39c2.05,0,3.33-1.06,3.33-2.67,0-2-1.63-2.68-3.62-2.68a9.26,9.26,0,0,0-2.1.2Z" transform="translate(-155.28 -5.28)"/><path class="cls-9" d="M588.53,339.53H583v5.41h6.15v.76h-7V333.29h6.73v.76H583v4.73h5.52Z" transform="translate(-155.28 -5.28)"/><path class="cls-9" d="M467.3,359c-.14-1.95-.32-4.49-.32-5.9h0c-.53,1.41-1.14,2.93-2,4.93l-3.05,7.19h-.73l-2.85-7.1c-.82-2-1.43-3.61-1.86-5h0c-.06,1.52-.16,3.93-.33,6.1l-.47,6h-.94l1.06-13.18h1.09l3.17,7.86c.67,1.65,1.17,3,1.56,4.21h0c.36-1.12.88-2.45,1.63-4.19l3.32-7.88h1.14l.94,13.18h-.94Z" transform="translate(-155.28 -5.28)"/><path class="cls-9" d="M473,360.62l-1.82,4.63h-1l5.32-13.18h.94l5.28,13.18h-1l-1.85-4.63Zm5.55-.8-1.86-4.64c-.35-.88-.52-1.45-.72-2.09h0a21.14,21.14,0,0,1-.72,2l-1.88,4.7Z" transform="translate(-155.28 -5.28)"/><path class="cls-9" d="M483.86,365.25V352.07h.9l6,8.12a45.82,45.82,0,0,1,2.68,3.85l0,0c-.14-1.52-.16-3.09-.16-5.12v-6.81h.94v13.18h-.88l-5.77-7.84c-1.12-1.53-2.13-2.91-2.84-4.09l-.06,0c.1,1.49.12,2.9.12,4.85v7Z" transform="translate(-155.28 -5.28)"/><path class="cls-9" d="M499.35,360.62l-1.81,4.63h-1l5.32-13.18h.94l5.28,13.18h-1l-1.86-4.63Zm5.56-.8-1.86-4.64a22.1,22.1,0,0,1-.72-2.09h0a21.4,21.4,0,0,1-.73,2l-1.87,4.7Z" transform="translate(-155.28 -5.28)"/><path class="cls-9" d="M520.71,364.59a12.22,12.22,0,0,1-4.42.8,7.34,7.34,0,0,1-5.26-1.88,6.67,6.67,0,0,1-1.92-4.87c0-3.09,2.35-6.71,7.65-6.71a8.9,8.9,0,0,1,3.52.67l-.31.78a7.52,7.52,0,0,0-3.25-.64c-4.32,0-6.61,2.68-6.61,5.94,0,3.43,2.33,5.91,6.36,5.91a7.44,7.44,0,0,0,3.29-.55v-4.52h-3.41v-.78h4.36Z" transform="translate(-155.28 -5.28)"/><path class="cls-9" d="M530.49,358.7h-5.87v5.75h6.54v.8h-7.49V352.07h7.16v.8h-6.21v5h5.87Z" transform="translate(-155.28 -5.28)"/><path class="cls-9" d="M545.85,359c-.14-1.95-.31-4.49-.31-5.9h0c-.53,1.41-1.14,2.93-2,4.93l-3,7.19h-.73l-2.85-7.1c-.82-2-1.43-3.61-1.86-5h0c-.06,1.52-.16,3.93-.33,6.1l-.47,6h-.94l1.06-13.18h1.09l3.17,7.86c.67,1.65,1.17,3,1.57,4.21h0c.36-1.12.89-2.45,1.63-4.19l3.32-7.88h1.14l.94,13.18h-.94Z" transform="translate(-155.28 -5.28)"/><path class="cls-9" d="M557,358.7h-5.87v5.75h6.53v.8h-7.49V352.07h7.16v.8h-6.2v5H557Z" transform="translate(-155.28 -5.28)"/><path class="cls-9" d="M560.18,365.25V352.07h.9l6,8.12a45.82,45.82,0,0,1,2.68,3.85l0,0c-.14-1.52-.16-3.09-.16-5.12v-6.81h.94v13.18h-.88l-5.77-7.84c-1.11-1.53-2.13-2.91-2.84-4.09l-.06,0c.1,1.49.12,2.9.12,4.85v7Z" transform="translate(-155.28 -5.28)"/><path class="cls-9" d="M576.79,352.87h-4.91v-.8h10.78v.8h-4.91v12.38h-1Z" transform="translate(-155.28 -5.28)"/><path class="cls-9" d="M479.67,383.27a5.77,5.77,0,0,0,3.26,1c2.14,0,3.43-1.14,3.43-2.76s-.77-2.37-3-3.07c-2.64-.84-3.69-1.92-3.69-3.64,0-1.94,1.66-3.38,4.09-3.38a5.74,5.74,0,0,1,2.93.66l-.37.8a4.9,4.9,0,0,0-2.6-.68c-2.37,0-3.11,1.43-3.11,2.46,0,1.41.84,2.21,3,2.9,2.4.78,3.7,1.72,3.7,3.85,0,1.82-1.33,3.66-4.48,3.66a6.6,6.6,0,0,1-3.53-1Z" transform="translate(-155.28 -5.28)"/><path class="cls-9" d="M496.82,378.26H491V384h6.54v.8H490V371.63h7.16v.8H491v5h5.87Z" transform="translate(-155.28 -5.28)"/><path class="cls-9" d="M500,371.81a18.22,18.22,0,0,1,3.21-.3,5.14,5.14,0,0,1,3.85,1.18A3.19,3.19,0,0,1,508,375a3.51,3.51,0,0,1-2.72,3.43v0a3.46,3.46,0,0,1,2.09,2.68,17.63,17.63,0,0,0,1.08,3.67h-1a17.65,17.65,0,0,1-.88-3.16c-.43-1.9-1.29-2.78-3.09-2.88H501v6h-1Zm1,6.18h2.54c2.17,0,3.54-1.14,3.54-2.84,0-2.11-1.74-2.86-3.85-2.86a9.39,9.39,0,0,0-2.23.22Z" transform="translate(-155.28 -5.28)"/><path class="cls-9" d="M514.44,384.81l-4.81-13.18h1l2.6,7.26c.72,2,1.29,3.58,1.7,4.95h0c.45-1.39,1.12-3,1.9-4.93l2.93-7.28h1l-5.48,13.18Z" transform="translate(-155.28 -5.28)"/><path class="cls-9" d="M523.13,371.63v13.18h-1V371.63Z" transform="translate(-155.28 -5.28)"/><path class="cls-9" d="M536.68,384.29a10,10,0,0,1-4.12.76c-3.56,0-7-2.17-7-6.77,0-3.44,2.54-6.88,7.49-6.88a8,8,0,0,1,3.56.66l-.31.8a7.48,7.48,0,0,0-3.19-.66c-4.28,0-6.55,2.6-6.55,6.16,0,3.25,2.17,5.87,6.32,5.87a8.17,8.17,0,0,0,3.48-.71Z" transform="translate(-155.28 -5.28)"/><path class="cls-9" d="M545.92,378.26h-5.87V384h6.53v.8h-7.49V371.63h7.16v.8h-6.2v5h5.87Z" transform="translate(-155.28 -5.28)"/><path class="cls-9" d="M548.63,383.27a5.8,5.8,0,0,0,3.27,1c2.13,0,3.42-1.14,3.42-2.76s-.76-2.37-3-3.07c-2.64-.84-3.7-1.92-3.7-3.64,0-1.94,1.67-3.38,4.09-3.38a5.69,5.69,0,0,1,2.93.66l-.37.8a4.9,4.9,0,0,0-2.6-.68c-2.37,0-3.11,1.43-3.11,2.46,0,1.41.84,2.21,3,2.9,2.41.78,3.7,1.72,3.7,3.85,0,1.82-1.33,3.66-4.48,3.66a6.57,6.57,0,0,1-3.52-1Z" transform="translate(-155.28 -5.28)"/><path class="cls-9" d="M509.65,305.67c2.15-.39,2.09-.39,2.17-2.72.05-1.17-.25-1.61-1.49-1.54-1.89.1-3.79,0-5.69,0a6.14,6.14,0,0,1-6.2-4.48,6.24,6.24,0,0,1,2.72-7.18,1.19,1.19,0,0,0,.69-1.48,7.24,7.24,0,0,1,8.56-8.8c.83.14,1.16,0,1.52-.77a10.29,10.29,0,0,1,10.24-6.33,10.11,10.11,0,0,1,9,7.68c.3,1.06,1,1.11,1.8,1.19a10.11,10.11,0,0,1-.54,20.18c-.9,0-1.8,0-2.71,0a1.13,1.13,0,0,1-1.59.22,6.4,6.4,0,0,0-2.72-.13,1.47,1.47,0,0,1-1.45,0c-2.4-.15-2.4-.15-2.4,2.27,0,5.72,0,11.43,0,17.15,0,1.31.08,2.24,1.73,1.94.12,0,.27,0,.22.23-1.71.94-2.7.42-2.72-1.52-.06-5.5,0-11,0-16.51a14.17,14.17,0,0,0-.05-1.94,3.32,3.32,0,0,0-.13,1.52q0,7.71,0,15.42c0,.5,0,1,0,1.49-.09,1.95-1,2.48-2.72,1.55,1.91-.63,1.91-.63,1.91-3q0-8.19,0-16.37c0-2.2,0-2.2-2.14-2.25a1.29,1.29,0,0,1-1.51,0,5,5,0,0,0-2.61.17c-.66.18-.73.72-.78,1.27s0,1,0,1.48c0,.71-.18,1.38-.92,1.66A1.57,1.57,0,0,1,509.65,305.67Z" transform="translate(-155.28 -5.28)"/><path class="cls-9" d="M516.06,301.5a3.66,3.66,0,0,1,1.51,0c0,3.89-.07,7.77,0,11.66,0,1-.32,1.3-1.32,1.28-4-.05-8,0-12.06,0-1,0-1.49.18-1.33,1.26,0,.25.07.59-.2.73s-.52-.23-.75-.41a20.47,20.47,0,0,0-1.93-1.43c-.92-.54-.66-1-.06-1.56s1.05-.85,1.57-1.27c.74-.61,1.44-1.15,1.4.48,0,.61.43.59.84.59h11.39c1,0,.9-.6.89-1.28C515.93,308.18,515.8,304.84,516.06,301.5Z" transform="translate(-155.28 -5.28)"/><path class="cls-9" d="M523.93,301.49h1.45c.34,2.82,0,5.63,0,8.45s0,2.85,2.86,2.86c2.13,0,4.25,0,6.38,0,.79,0,1.42-.05,1.53-1.06.08-.73.54-.75,1.06-.36.29.21.52.5.81.71.62.43,1.32.82,1.46,1.63.06.33-2.6,2.37-3,2.38s-.56-.25-.5-.61c.17-1.12-.53-1.11-1.32-1.1-3.21,0-6.42,0-9.63,0-.86,0-1.26-.3-1.22-1.18.16-3.7.14-7.4,0-11.1A3.72,3.72,0,0,1,523.93,301.49Z" transform="translate(-155.28 -5.28)"/><path class="cls-9" d="M517.79,323.09a5.46,5.46,0,0,1,.81,0c1.09.16,1.38-.33,1.37-1.38q-.06-9.2,0-18.41c0-.62-.57-1.8.65-1.79s.62,1.19.63,1.82c0,5.86,0,11.73,0,17.59,0,2.29-.38,2.18,2.17,2.15a21.83,21.83,0,0,1-2.35,3.23c-.25.36-.51.31-.74,0C519.56,325.19,518.43,324.34,517.79,323.09Z" transform="translate(-155.28 -5.28)"/><path class="cls-9" d="M528.1,301.62a4.5,4.5,0,0,1,1.59-.22c0,1,0,2,0,3,0,.45-.29,1.17.28,1.32a4,4,0,0,0,2.66,0c.62-.3,0-1.28.47-2,1,.78,2,1.55,3,2.31.35.27.46.51.06.85-1,.85-2,1.73-3.11,2.65-.38-2.14-.38-2.14-2.58-2.14-2.36,0-2.36,0-2.36-2.35C528.11,303.88,528.1,302.75,528.1,301.62Z" transform="translate(-155.28 -5.28)"/><path class="cls-9" d="M509.65,305.67c2.39.23,2.39.23,2.4-2.07,0-.31,0-.63,0-.94-.07-1.11.33-1.53,1.41-1,0,1.53,0,3.07,0,4.61,0,.78-.26,1.05-1,1-.53,0-1.08,0-1.62,0-2,0-2,0-2.2,2a21.28,21.28,0,0,1-3.34-2.45c-.44-.34,0-.56.2-.73,1-.86,2-1.69,3-2.5C509.31,304.1,507.88,305.79,509.65,305.67Z" transform="translate(-155.28 -5.28)"/><circle class="cls-19" cx="276.3" cy="29.46" r="19.3"/><path class="cls-9" d="M439.24,36.31v2.52h-2.5l.15,2.85H426.26l.15-2.86H423.9c0-.65,0-1.28,0-1.91a3.63,3.63,0,0,1,2.16-3.41l.37-.17s0,0,0-.06a1.7,1.7,0,0,1-.19-.19,3,3,0,0,1-.87-2,3.11,3.11,0,0,1,5.77-1.77.61.61,0,0,0,.91,0,3,3,0,0,1,3-1.46,2.92,2.92,0,0,1,2.61,2.07,3,3,0,0,1-.76,3.25l-.15.18a3.73,3.73,0,0,1,2,1.55A10,10,0,0,1,439.24,36.31Zm-3.38,4.42a3.5,3.5,0,0,0-2.71-3.92,10.3,10.3,0,0,0-2.29-.13A3.56,3.56,0,0,0,428.08,38a3.46,3.46,0,0,0-.8,2.74Zm-1.65-7.64a2.64,2.64,0,1,0-2.67,2.62A2.63,2.63,0,0,0,434.21,33.09ZM429.41,36a3.76,3.76,0,0,1-1.27-1.81s-.16-.1-.24-.1a3.22,3.22,0,0,0-2,.65,3.19,3.19,0,0,0-1,3.18h1.86a.39.39,0,0,0,.36-.19A4.6,4.6,0,0,1,429,36.11Zm8.85,1.92a11.78,11.78,0,0,0,0-1.46A2.93,2.93,0,0,0,435.2,34c-.08,0-.19.12-.22.2a3.87,3.87,0,0,1-.94,1.44l-.26.24a10.22,10.22,0,0,1,1.29.77,13.51,13.51,0,0,1,1.05,1.09.3.3,0,0,0,.2.08ZM428,33a3.68,3.68,0,0,1,2.25-3.27,2.1,2.1,0,0,0-2.32-.9,2.17,2.17,0,0,0-1.6,2.1A2.14,2.14,0,0,0,428,33Zm7.21,0a2.1,2.1,0,0,0,1.66-1.94,2.17,2.17,0,0,0-1.6-2.22,2.07,2.07,0,0,0-2.31.9A3.67,3.67,0,0,1,435.18,33Z" transform="translate(-155.28 -5.28)"/><circle class="cls-20" cx="107.15" cy="108.52" r="23.46"/><path class="cls-9" d="M262.42,103.7c3.24,0,6.47,0,9.7,0a1.48,1.48,0,0,1,1.54,1.56c0,4.53,0,9,0,13.58a1.37,1.37,0,0,1-1.09,1.44,1.58,1.58,0,0,1-.38,0H252.65a1.37,1.37,0,0,1-1.45-1.44V105.15a1.36,1.36,0,0,1,1-1.4,2.19,2.19,0,0,1,.51,0Zm0,.34H252.7a1.06,1.06,0,0,0-1.16,1.16v13.58a1.06,1.06,0,0,0,1.15,1.18h19.4a1.07,1.07,0,0,0,1.22-1.23V105.31c0-.88-.38-1.27-1.26-1.27Z" transform="translate(-155.28 -5.28)"/><path class="cls-9" d="M249.54,120.63h25.75a2.5,2.5,0,0,1-2.22,3.24c-1.32,0-2.65,0-4,0h-17A2.52,2.52,0,0,1,250,123,2.48,2.48,0,0,1,249.54,120.63Zm12.9.33H250.08c-.23,0-.31.07-.29.29a3.19,3.19,0,0,0,0,.54,2.18,2.18,0,0,0,2.22,1.77h20.76a2.2,2.2,0,0,0,2.26-2.26c0-.26-.08-.34-.35-.34Z" transform="translate(-155.28 -5.28)"/><path class="cls-9" d="M272.81,105.15v13.69H252.05V105.15Zm-20.4.35v13h20v-13Z" transform="translate(-155.28 -5.28)"/><path class="cls-9" d="M264,122.41h-3.12v-.31H264Z" transform="translate(-155.28 -5.28)"/><path class="cls-9" d="M267.89,111.18v1.64c-.3,0-.59,0-.89,0s-.45.05-.53.38a7.47,7.47,0,0,1-.49,1.19l.87.85-1.17,1.17-.81-.85c-.55.21-1,.38-1.5.57a.31.31,0,0,0-.12.23c0,.36,0,.72,0,1.1h-1.64c0-.35,0-.69,0-1s-.07-.27-.25-.33c-.44-.15-.87-.34-1.34-.53l-.83.88-1.18-1.2.86-.78c-.21-.56-.39-1-.58-1.52,0-.06-.15-.11-.22-.11-.36,0-.72,0-1.1,0v-1.64c.36,0,.72,0,1.08,0,.16,0,.22-.05.28-.21.15-.45.34-.89.53-1.39l-.88-.81,1.2-1.2.81.86,1.51-.57c.06,0,.1-.14.1-.21,0-.36,0-.72,0-1.1h1.64c0,.36,0,.73,0,1.1a.32.32,0,0,0,.13.22c.46.19.94.36,1.45.55l.83-.88,1.17,1.18-.85.81c.21.58.39,1.06.59,1.54,0,.06.14.1.21.11Zm-8.59-1.65-.84,2h-1.17c0,.25,0,.48,0,.71s.07.25.25.24c.34,0,.68,0,.92,0l.84,2-.81.75.72.73.76-.82,2,.82c0,.27,0,.62,0,1,0,.07.08.19.12.19.27,0,.54,0,.83,0v-1.27a4.15,4.15,0,0,0,2-.81l.85.91.7-.72-.84-.76.83-2c.27,0,.62,0,1,0,.06,0,.19-.07.19-.11,0-.28,0-.55,0-.85h-1.17l-.84-2,.81-.77-.71-.73-.76.85-2-.83v-1.15h-1V108l-2,.86-.74-.81-.7.67Z" transform="translate(-155.28 -5.28)"/><path class="cls-9" d="M262.44,109.25a2.76,2.76,0,1,1-2.77,2.74A2.75,2.75,0,0,1,262.44,109.25ZM260,112a2.41,2.41,0,1,0,2.4-2.4A2.4,2.4,0,0,0,260,112Z" transform="translate(-155.28 -5.28)"/></g></svg>