<svg xmlns="http://www.w3.org/2000/svg" xmlns:xlink="http://www.w3.org/1999/xlink" width="960" height="373" viewBox="0 0 960 373">
  <defs>
    <clipPath id="clip-P_1_SVG_TECHNOLOGY_960_700_4">
      <rect width="960" height="373"/>
    </clipPath>
  </defs>
  <g id="P_1_SVG_TECHNOLOGY_960_700_4" data-name="P 1 SVG TECHNOLOGY 960 ×700 – 4" clip-path="url(#clip-P_1_SVG_TECHNOLOGY_960_700_4)">
    <rect width="960" height="373" fill="#fff"/>
    <path id="Path_4783" data-name="Path 4783" d="M26.782,28.469v5.811a15.016,15.016,0,0,1-1.282,6.47,9.6,9.6,0,0,1-3.577,4.15,9.89,9.89,0,0,1-5.371,1.44,9.936,9.936,0,0,1-5.4-1.44,9.518,9.518,0,0,1-3.564-4.15,15.14,15.14,0,0,1-1.27-6.47V28.469A15,15,0,0,1,7.6,21.987a9.608,9.608,0,0,1,3.577-4.138,9.89,9.89,0,0,1,5.371-1.44,9.89,9.89,0,0,1,5.371,1.44A9.608,9.608,0,0,1,25.5,21.987,15,15,0,0,1,26.782,28.469Zm2.612,5.713V28.591a18.081,18.081,0,0,0-1.538-7.776,11.5,11.5,0,0,0-4.419-5.029,12.9,12.9,0,0,0-6.885-1.77,12.965,12.965,0,0,0-6.885,1.758,11.5,11.5,0,0,0-4.431,5.017,17.958,17.958,0,0,0-1.55,7.776v5.615a17.978,17.978,0,0,0,1.55,7.764,11.561,11.561,0,0,0,4.431,5.042,12.9,12.9,0,0,0,6.885,1.77,12.9,12.9,0,0,0,6.885-1.77,11.485,11.485,0,0,0,4.419-5.042A18.1,18.1,0,0,0,29.395,34.182ZM54.785,22.609H52.173V38.234a8.153,8.153,0,0,1-.928,3.8,7.572,7.572,0,0,1-2.661,2.917,8.229,8.229,0,0,1-7.544.391,5.335,5.335,0,0,1-2.295-2.2,7.289,7.289,0,0,1-.83-3.638V22.609H35.3V40.09a8.849,8.849,0,0,0,1.147,4.761,6.955,6.955,0,0,0,3.1,2.71,10.657,10.657,0,0,0,4.419.879A9.046,9.046,0,0,0,48,47.622a7.979,7.979,0,0,0,2.649-2,7.43,7.43,0,0,0,1.379-2.332h.146V48h2.612ZM61.987,48H64.6V32.2a8.4,8.4,0,0,1,.928-4.1,6.273,6.273,0,0,1,2.563-2.563A7.715,7.715,0,0,1,71.8,24.66a12.659,12.659,0,0,1,1.343.061q.562.061.806.11V22.365q-.293-.049-.769-.1a10.757,10.757,0,0,0-1.086-.049,8.215,8.215,0,0,0-3.882.818A6.778,6.778,0,0,0,65.845,25a6.665,6.665,0,0,0-1.1,2.173H64.6V22.609H61.987Zm43.677-25.391h-2.612V38.234a8.153,8.153,0,0,1-.928,3.8,7.572,7.572,0,0,1-2.661,2.917,8.229,8.229,0,0,1-7.544.391,5.335,5.335,0,0,1-2.295-2.2,7.289,7.289,0,0,1-.83-3.638V22.609H86.182V40.09a8.849,8.849,0,0,0,1.147,4.761,6.955,6.955,0,0,0,3.1,2.71,10.657,10.657,0,0,0,4.419.879,9.046,9.046,0,0,0,4.028-.818,7.979,7.979,0,0,0,2.649-2,7.43,7.43,0,0,0,1.379-2.332h.146V48h2.612ZM112.646,48h2.612V33.205a10.655,10.655,0,0,1,.854-4.272,7.4,7.4,0,0,1,2.576-3.186A7.318,7.318,0,0,1,123,24.538a6.721,6.721,0,0,1,3.577.891,5.81,5.81,0,0,1,2.222,2.478,8.419,8.419,0,0,1,.769,3.711V48h2.588V30.91q0-4.3-2.429-6.506a8.913,8.913,0,0,0-6.238-2.209,9.374,9.374,0,0,0-4.248.842,7.054,7.054,0,0,0-2.563,2.075,8.311,8.311,0,0,0-1.27,2.4h-.146V22.609h-2.612Zm26.9,0h2.588V22.609h-2.588Zm-.879-33.032a2.126,2.126,0,0,0,2.148,2.148,2.134,2.134,0,0,0,1.575-.623,2.075,2.075,0,0,0,.623-1.526,2.129,2.129,0,0,0-2.2-2.2,2.075,2.075,0,0,0-1.526.623A2.134,2.134,0,0,0,138.672,14.968Zm18.872,7.227a9.592,9.592,0,0,0-5.09,1.331,9.072,9.072,0,0,0-3.406,3.735,12.222,12.222,0,0,0-1.221,5.6v4.907a12.325,12.325,0,0,0,1.208,5.6,9.018,9.018,0,0,0,3.381,3.735,9.865,9.865,0,0,0,10.132-.1,7.89,7.89,0,0,0,1.843-1.575,5.983,5.983,0,0,0,1.135-2h.146V56.252h2.612V22.609h-2.515v4.614h-.146a6.862,6.862,0,0,0-1.746-2.661,8.4,8.4,0,0,0-2.808-1.746A9.772,9.772,0,0,0,157.544,22.194Zm.342,2.344a7.406,7.406,0,0,1,6.787,4.028,9.055,9.055,0,0,1,1,4.321v4.639a9.866,9.866,0,0,1-.964,4.468A7.324,7.324,0,0,1,162,45.009a7.533,7.533,0,0,1-4.065,1.086,7.2,7.2,0,0,1-3.967-1.086,7.044,7.044,0,0,1-2.612-3.076,11.093,11.093,0,0,1-.916-4.675V33.425a11.03,11.03,0,0,1,.928-4.7,7.265,7.265,0,0,1,2.6-3.088A6.973,6.973,0,0,1,157.886,24.538ZM194.9,22.609h-2.612V38.234a8.153,8.153,0,0,1-.928,3.8,7.572,7.572,0,0,1-2.661,2.917,8.229,8.229,0,0,1-7.544.391,5.335,5.335,0,0,1-2.295-2.2,7.289,7.289,0,0,1-.83-3.638V22.609h-2.612V40.09a8.849,8.849,0,0,0,1.147,4.761,6.955,6.955,0,0,0,3.1,2.71,10.657,10.657,0,0,0,4.419.879,9.046,9.046,0,0,0,4.028-.818,7.979,7.979,0,0,0,2.649-2,7.43,7.43,0,0,0,1.379-2.332h.146V48H194.9Zm16.162,25.83a11.389,11.389,0,0,0,4.016-.647,9.124,9.124,0,0,0,2.856-1.648A7.92,7.92,0,0,0,219.69,44a6.11,6.11,0,0,0,.745-2.148H217.7a4.3,4.3,0,0,1-.964,1.953,5.988,5.988,0,0,1-2.209,1.624,8.317,8.317,0,0,1-3.467.647,7.047,7.047,0,0,1-5.688-2.393,9.686,9.686,0,0,1-2.026-6.47V35.793H220.8V33.718a13.946,13.946,0,0,0-1.282-6.262,9.178,9.178,0,0,0-3.54-3.918,10.788,10.788,0,0,0-10.425,0,9.178,9.178,0,0,0-3.54,3.918,13.946,13.946,0,0,0-1.282,6.262v3.394a13.738,13.738,0,0,0,1.233,6.055,8.975,8.975,0,0,0,3.54,3.906A10.707,10.707,0,0,0,211.06,48.439Zm-7.715-14.746V33.4a11.157,11.157,0,0,1,.928-4.749,7.112,7.112,0,0,1,12.988,0,11.157,11.157,0,0,1,.928,4.749v.293Zm35.3,4.224,3.149-2.954L251.88,48h3.2L243.726,33.278l10.669-10.669h-3.174l-12.451,12.3h-.122V12.941H236.06V48h2.588ZM259.009,48h2.612V33.205a10.655,10.655,0,0,1,.854-4.272,7.4,7.4,0,0,1,2.576-3.186,7.318,7.318,0,0,1,4.309-1.208,6.721,6.721,0,0,1,3.577.891,5.811,5.811,0,0,1,2.222,2.478,8.419,8.419,0,0,1,.769,3.711V48h2.588V30.91q0-4.3-2.429-6.506a8.913,8.913,0,0,0-6.238-2.209,9.374,9.374,0,0,0-4.248.842,7.054,7.054,0,0,0-2.563,2.075,8.311,8.311,0,0,0-1.27,2.4h-.146V22.609h-2.612Zm35.645-25.806a10.954,10.954,0,0,0-5.359,1.306,9.453,9.453,0,0,0-3.76,3.784,12.261,12.261,0,0,0-1.379,6.042v4a12.3,12.3,0,0,0,1.379,6.079,9.31,9.31,0,0,0,3.76,3.748,11.121,11.121,0,0,0,5.359,1.282,11,11,0,0,0,5.322-1.282,9.49,9.49,0,0,0,3.772-3.748,12.125,12.125,0,0,0,1.4-6.079v-4a12.211,12.211,0,0,0-1.4-6.079,9.428,9.428,0,0,0-3.784-3.772A11.019,11.019,0,0,0,294.653,22.194Zm0,2.344a7.742,7.742,0,0,1,4.077,1.074,7.342,7.342,0,0,1,2.8,3.113,10.958,10.958,0,0,1,1.013,4.919v3.394a11.053,11.053,0,0,1-1,4.932,7.067,7.067,0,0,1-2.771,3.064,7.936,7.936,0,0,1-4.089,1.038,8.025,8.025,0,0,1-4.15-1.05,7.059,7.059,0,0,1-2.771-3.064,11.089,11.089,0,0,1-.989-4.919V33.645a10.94,10.94,0,0,1,1.013-4.932,7.357,7.357,0,0,1,2.8-3.1A7.742,7.742,0,0,1,294.653,24.538Zm46.069-1.929h-2.661l-5.493,21.777h-.146l-6.738-21.777h-2.539L316.5,44.387h-.146l-5.42-21.777h-2.954L315.112,48H317.7l6.689-21.606h.1L331.226,48h2.588ZM345.068,48h2.612V12.941h-2.612Zm19.092.439a11.389,11.389,0,0,0,4.016-.647,9.124,9.124,0,0,0,2.856-1.648A7.92,7.92,0,0,0,372.791,44a6.111,6.111,0,0,0,.745-2.148H370.8a4.3,4.3,0,0,1-.964,1.953,5.988,5.988,0,0,1-2.209,1.624,8.317,8.317,0,0,1-3.467.647,7.047,7.047,0,0,1-5.688-2.393,9.686,9.686,0,0,1-2.026-6.47V35.793H373.9V33.718a13.946,13.946,0,0,0-1.282-6.262,9.178,9.178,0,0,0-3.54-3.918,10.788,10.788,0,0,0-10.425,0,9.178,9.178,0,0,0-3.54,3.918,13.946,13.946,0,0,0-1.282,6.262v3.394a13.738,13.738,0,0,0,1.233,6.055,8.974,8.974,0,0,0,3.54,3.906A10.707,10.707,0,0,0,364.16,48.439Zm-7.715-14.746V33.4a11.157,11.157,0,0,1,.928-4.749,7.112,7.112,0,0,1,12.988,0,11.157,11.157,0,0,1,.928,4.749v.293Zm31.982-11.5a9.991,9.991,0,0,0-4.932,1.233A9.071,9.071,0,0,0,379.956,27a11.548,11.548,0,0,0-1.318,5.737v5.151a11.9,11.9,0,0,0,1.233,5.566,8.932,8.932,0,0,0,3.43,3.662,9.771,9.771,0,0,0,5.054,1.294A9.508,9.508,0,0,0,391.6,47.9a9.123,9.123,0,0,0,2.441-1.294,7.486,7.486,0,0,0,1.636-1.66,5.228,5.228,0,0,0,.806-1.636h.146V48h2.49V12.941h-2.588V27.1h-.146a7.2,7.2,0,0,0-1.416-2.283,7.733,7.733,0,0,0-2.625-1.88A9.352,9.352,0,0,0,388.428,22.194Zm.269,2.344a7.434,7.434,0,0,1,6.848,4.089,9.059,9.059,0,0,1,.989,4.26v4.59a9.943,9.943,0,0,1-.928,4.321,7.574,7.574,0,0,1-2.661,3.113,7.963,7.963,0,0,1-8.069.122,7.046,7.046,0,0,1-2.661-3.015,10.835,10.835,0,0,1-.964-4.785V33.4a10.8,10.8,0,0,1,1-4.907,6.979,6.979,0,0,1,2.686-2.966A7.289,7.289,0,0,1,388.7,24.538Zm26.563,30.127a8.882,8.882,0,0,1-3.625-.659,6,6,0,0,1-2.283-1.66,4,4,0,0,1-.928-2.026h-2.71a6.436,6.436,0,0,0,1.172,3.174,7.671,7.671,0,0,0,3.1,2.527,11.906,11.906,0,0,0,5.176.989,14.05,14.05,0,0,0,4.3-.61,9.007,9.007,0,0,0,3.259-1.807,7.842,7.842,0,0,0,2.075-2.954,10.625,10.625,0,0,0,.72-4.053V22.609H423v4.517h-.122a7.193,7.193,0,0,0-1.355-2.148,8.311,8.311,0,0,0-2.625-1.965,8.767,8.767,0,0,0-3.955-.818,10.263,10.263,0,0,0-4.919,1.208,9.114,9.114,0,0,0-3.625,3.577,11.454,11.454,0,0,0-1.367,5.811v3.955a11.507,11.507,0,0,0,1.306,5.64,9.154,9.154,0,0,0,3.552,3.638,10.041,10.041,0,0,0,5.029,1.27,9.031,9.031,0,0,0,3.137-.5,8.3,8.3,0,0,0,2.307-1.257,7.8,7.8,0,0,0,1.538-1.587,7.369,7.369,0,0,0,.854-1.514h.146v5.225a6.791,6.791,0,0,1-1.953,5.115A7.857,7.857,0,0,1,415.259,54.665Zm.049-30.127a7.029,7.029,0,0,1,4.065,1.16,7.638,7.638,0,0,1,2.612,3.076,9.643,9.643,0,0,1,.916,4.211v3.638a9.613,9.613,0,0,1-.867,4.028,7.589,7.589,0,0,1-2.551,3.1,6.985,6.985,0,0,1-4.15,1.2,7.271,7.271,0,0,1-6.677-4.1,10.159,10.159,0,0,1-1.013-4.687V33.425a10.54,10.54,0,0,1,1.025-4.871,7.15,7.15,0,0,1,2.771-3A7.568,7.568,0,0,1,415.308,24.538Zm26.831,23.9a11.389,11.389,0,0,0,4.016-.647,9.124,9.124,0,0,0,2.856-1.648A7.92,7.92,0,0,0,450.769,44a6.111,6.111,0,0,0,.745-2.148h-2.734a4.3,4.3,0,0,1-.964,1.953,5.988,5.988,0,0,1-2.209,1.624,8.317,8.317,0,0,1-3.467.647,7.047,7.047,0,0,1-5.688-2.393,9.686,9.686,0,0,1-2.026-6.47V35.793H451.88V33.718a13.946,13.946,0,0,0-1.282-6.262,9.178,9.178,0,0,0-3.54-3.918,10.788,10.788,0,0,0-10.425,0,9.178,9.178,0,0,0-3.54,3.918,13.946,13.946,0,0,0-1.282,6.262v3.394a13.738,13.738,0,0,0,1.233,6.055,8.974,8.974,0,0,0,3.54,3.906A10.707,10.707,0,0,0,442.139,48.439Zm-7.715-14.746V33.4a11.157,11.157,0,0,1,.928-4.749,7.112,7.112,0,0,1,12.988,0,11.157,11.157,0,0,1,.928,4.749v.293Zm41.943-11.5a10.954,10.954,0,0,0-5.359,1.306,9.453,9.453,0,0,0-3.76,3.784,12.261,12.261,0,0,0-1.379,6.042v4a12.3,12.3,0,0,0,1.379,6.079,9.31,9.31,0,0,0,3.76,3.748,11.121,11.121,0,0,0,5.359,1.282,11,11,0,0,0,5.322-1.282,9.49,9.49,0,0,0,3.772-3.748,12.125,12.125,0,0,0,1.4-6.079v-4a12.211,12.211,0,0,0-1.4-6.079,9.428,9.428,0,0,0-3.784-3.772A11.019,11.019,0,0,0,476.367,22.194Zm0,2.344a7.742,7.742,0,0,1,4.077,1.074,7.342,7.342,0,0,1,2.8,3.113,10.958,10.958,0,0,1,1.013,4.919v3.394a11.053,11.053,0,0,1-1,4.932,7.067,7.067,0,0,1-2.771,3.064,7.936,7.936,0,0,1-4.089,1.038,8.025,8.025,0,0,1-4.15-1.05,7.059,7.059,0,0,1-2.771-3.064,11.089,11.089,0,0,1-.989-4.919V33.645a10.94,10.94,0,0,1,1.013-4.932,7.357,7.357,0,0,1,2.8-3.1A7.742,7.742,0,0,1,476.367,24.538ZM494.629,48h2.588V24.831h6.714V22.609h-6.714V19.729a4.6,4.6,0,0,1,1.086-3.5,5.249,5.249,0,0,1,3.577-.989q.61,0,1.4.049t1.135.1V13.161a7.8,7.8,0,0,0-1.2-.159q-.806-.061-1.562-.061-3.711,0-5.371,1.611t-1.66,5.029v3.027H490.21v2.222h4.419Zm20.85-10.62a13.046,13.046,0,0,0,1.257,5.981,8.872,8.872,0,0,0,3.54,3.772,10.656,10.656,0,0,0,5.383,1.306,11.139,11.139,0,0,0,5.322-1.111,7.818,7.818,0,0,0,3.064-2.783,7.231,7.231,0,0,0,1.111-3.333h-2.563a6.572,6.572,0,0,1-.977,2.283,5.371,5.371,0,0,1-2.148,1.819,8.394,8.394,0,0,1-3.735.708,7.174,7.174,0,0,1-5.6-2.283,9.3,9.3,0,0,1-2.063-6.458V33.352a9.417,9.417,0,0,1,2.039-6.47,7.022,7.022,0,0,1,5.53-2.295,7.61,7.61,0,0,1,3.735.806,5.838,5.838,0,0,1,2.185,2.014,6.631,6.631,0,0,1,.94,2.38h2.563a7.287,7.287,0,0,0-1.147-3.552,8.331,8.331,0,0,0-3.137-2.893,11.8,11.8,0,0,0-10.449.146,8.978,8.978,0,0,0-3.564,3.735,12.514,12.514,0,0,0-1.282,5.884Zm44.678-14.771h-2.612V38.234a8.154,8.154,0,0,1-.928,3.8,7.572,7.572,0,0,1-2.661,2.917,8.229,8.229,0,0,1-7.544.391,5.335,5.335,0,0,1-2.295-2.2,7.289,7.289,0,0,1-.83-3.638V22.609h-2.612V40.09a8.849,8.849,0,0,0,1.147,4.761,6.955,6.955,0,0,0,3.1,2.71,10.657,10.657,0,0,0,4.419.879,9.046,9.046,0,0,0,4.028-.818,7.979,7.979,0,0,0,2.649-2,7.43,7.43,0,0,0,1.379-2.332h.146V48h2.612Zm8.374,0h-4.541v2.222h4.541V41.726a10.648,10.648,0,0,0,.549,3.735,3.726,3.726,0,0,0,1.99,2.112,9.982,9.982,0,0,0,4.1.671q.586,0,1.55-.073t1.355-.122V45.8q-.366.024-1.147.085t-1.27.061a5.482,5.482,0,0,1-3.552-.867q-.989-.867-.989-3.259V24.831h6.567V22.609h-6.567v-6.25H568.53Zm15.186,0h-4.541v2.222h4.541V41.726a10.648,10.648,0,0,0,.549,3.735,3.726,3.726,0,0,0,1.99,2.112,9.982,9.982,0,0,0,4.1.671q.586,0,1.55-.073t1.355-.122V45.8q-.366.024-1.147.085t-1.27.061a5.482,5.482,0,0,1-3.552-.867q-.989-.867-.989-3.259V24.831h6.567V22.609H586.3v-6.25h-2.588ZM597.974,48h2.588V22.609h-2.588Zm-.879-33.032a2.126,2.126,0,0,0,2.148,2.148,2.134,2.134,0,0,0,1.575-.623,2.075,2.075,0,0,0,.623-1.526,2.129,2.129,0,0,0-2.2-2.2,2.075,2.075,0,0,0-1.526.623A2.134,2.134,0,0,0,597.095,14.968ZM607.471,48h2.612V33.205a10.655,10.655,0,0,1,.854-4.272,7.4,7.4,0,0,1,2.576-3.186,7.318,7.318,0,0,1,4.309-1.208,6.721,6.721,0,0,1,3.577.891,5.81,5.81,0,0,1,2.222,2.478,8.419,8.419,0,0,1,.769,3.711V48h2.588V30.91q0-4.3-2.429-6.506a8.913,8.913,0,0,0-6.238-2.209,9.374,9.374,0,0,0-4.248.842,7.054,7.054,0,0,0-2.563,2.075,8.311,8.311,0,0,0-1.27,2.4h-.146V22.609h-2.612Zm35.156,6.665A8.882,8.882,0,0,1,639,54.006a6,6,0,0,1-2.283-1.66,4,4,0,0,1-.928-2.026h-2.71a6.436,6.436,0,0,0,1.172,3.174,7.671,7.671,0,0,0,3.1,2.527,11.906,11.906,0,0,0,5.176.989,14.05,14.05,0,0,0,4.3-.61,9.007,9.007,0,0,0,3.259-1.807,7.842,7.842,0,0,0,2.075-2.954,10.624,10.624,0,0,0,.72-4.053V22.609h-2.515v4.517h-.122a7.193,7.193,0,0,0-1.355-2.148,8.311,8.311,0,0,0-2.625-1.965,8.767,8.767,0,0,0-3.955-.818A10.263,10.263,0,0,0,637.39,23.4a9.114,9.114,0,0,0-3.625,3.577A11.454,11.454,0,0,0,632.4,32.79v3.955a11.506,11.506,0,0,0,1.306,5.64,9.155,9.155,0,0,0,3.552,3.638,10.041,10.041,0,0,0,5.029,1.27,9.031,9.031,0,0,0,3.137-.5,8.3,8.3,0,0,0,2.307-1.257,7.8,7.8,0,0,0,1.538-1.587,7.367,7.367,0,0,0,.854-1.514h.146v5.225a6.791,6.791,0,0,1-1.953,5.115A7.857,7.857,0,0,1,642.627,54.665Zm.049-30.127a7.028,7.028,0,0,1,4.065,1.16,7.638,7.638,0,0,1,2.612,3.076,9.643,9.643,0,0,1,.916,4.211v3.638a9.612,9.612,0,0,1-.867,4.028,7.59,7.59,0,0,1-2.551,3.1,6.985,6.985,0,0,1-4.15,1.2,7.271,7.271,0,0,1-6.677-4.1,10.159,10.159,0,0,1-1.013-4.687V33.425a10.54,10.54,0,0,1,1.025-4.871,7.149,7.149,0,0,1,2.771-3A7.568,7.568,0,0,1,642.676,24.538Zm30.762,10.938V33.132H658.057v2.344ZM13.745,118.439a11.389,11.389,0,0,0,4.016-.647,9.123,9.123,0,0,0,2.856-1.648A7.92,7.92,0,0,0,22.375,114a6.111,6.111,0,0,0,.745-2.148H20.386a4.3,4.3,0,0,1-.964,1.953,5.988,5.988,0,0,1-2.209,1.624,8.317,8.317,0,0,1-3.467.647,7.047,7.047,0,0,1-5.688-2.393,9.686,9.686,0,0,1-2.026-6.47v-1.416H23.486v-2.075A13.946,13.946,0,0,0,22.2,97.456a9.178,9.178,0,0,0-3.54-3.918,10,10,0,0,0-5.212-1.343A10,10,0,0,0,8.24,93.537,9.178,9.178,0,0,0,4.7,97.456a13.946,13.946,0,0,0-1.282,6.262v3.394a13.738,13.738,0,0,0,1.233,6.055,8.975,8.975,0,0,0,3.54,3.906A10.707,10.707,0,0,0,13.745,118.439ZM6.03,103.693V103.4a11.157,11.157,0,0,1,.928-4.749,6.787,6.787,0,0,1,6.494-4.114A7.107,7.107,0,0,1,17.346,95.6a7.019,7.019,0,0,1,2.6,3.052,11.157,11.157,0,0,1,.928,4.749v.293Zm31.982-11.5a9.991,9.991,0,0,0-4.932,1.233A9.071,9.071,0,0,0,29.541,97a11.548,11.548,0,0,0-1.318,5.737v5.151a11.9,11.9,0,0,0,1.233,5.566,8.932,8.932,0,0,0,3.43,3.662,9.771,9.771,0,0,0,5.054,1.294,9.508,9.508,0,0,0,3.247-.513,9.123,9.123,0,0,0,2.441-1.294,7.486,7.486,0,0,0,1.636-1.66,5.228,5.228,0,0,0,.806-1.636h.146V118h2.49V82.941H46.118V97.1h-.146a7.2,7.2,0,0,0-1.416-2.283,7.733,7.733,0,0,0-2.625-1.88A9.351,9.351,0,0,0,38.013,92.194Zm.269,2.344a7.434,7.434,0,0,1,6.848,4.089,9.059,9.059,0,0,1,.989,4.26v4.59a9.943,9.943,0,0,1-.928,4.321,7.574,7.574,0,0,1-2.661,3.113,7.963,7.963,0,0,1-8.069.122,7.046,7.046,0,0,1-2.661-3.015,10.836,10.836,0,0,1-.964-4.785V103.4a10.8,10.8,0,0,1,1-4.907,6.979,6.979,0,0,1,2.686-2.966A7.289,7.289,0,0,1,38.281,94.538Zm26.563,30.127a8.882,8.882,0,0,1-3.625-.659,6,6,0,0,1-2.283-1.66,4,4,0,0,1-.928-2.026H55.3a6.436,6.436,0,0,0,1.172,3.174,7.671,7.671,0,0,0,3.1,2.527,11.906,11.906,0,0,0,5.176.989,14.05,14.05,0,0,0,4.3-.61,9.007,9.007,0,0,0,3.259-1.807,7.842,7.842,0,0,0,2.075-2.954,10.625,10.625,0,0,0,.72-4.053V92.609H72.583v4.517h-.122a7.193,7.193,0,0,0-1.355-2.148,8.311,8.311,0,0,0-2.625-1.965,8.767,8.767,0,0,0-3.955-.818A10.263,10.263,0,0,0,59.607,93.4a9.114,9.114,0,0,0-3.625,3.577,11.454,11.454,0,0,0-1.367,5.811v3.955a11.506,11.506,0,0,0,1.306,5.64,9.154,9.154,0,0,0,3.552,3.638,10.041,10.041,0,0,0,5.029,1.27,9.031,9.031,0,0,0,3.137-.5,8.3,8.3,0,0,0,2.307-1.257,7.8,7.8,0,0,0,1.538-1.587,7.369,7.369,0,0,0,.854-1.514h.146v5.225a6.791,6.791,0,0,1-1.953,5.115A7.857,7.857,0,0,1,64.844,124.665Zm.049-30.127a7.029,7.029,0,0,1,4.065,1.16,7.638,7.638,0,0,1,2.612,3.076,9.643,9.643,0,0,1,.916,4.211v3.638a9.612,9.612,0,0,1-.867,4.028,7.589,7.589,0,0,1-2.551,3.1,6.985,6.985,0,0,1-4.15,1.2,7.271,7.271,0,0,1-6.677-4.1,10.159,10.159,0,0,1-1.013-4.687v-2.734a10.54,10.54,0,0,1,1.025-4.871,7.15,7.15,0,0,1,2.771-3A7.568,7.568,0,0,1,64.893,94.538Zm26.831,23.9a11.389,11.389,0,0,0,4.016-.647,9.123,9.123,0,0,0,2.856-1.648A7.92,7.92,0,0,0,100.354,114a6.111,6.111,0,0,0,.745-2.148H98.364A4.3,4.3,0,0,1,97.4,113.8a5.988,5.988,0,0,1-2.209,1.624,8.317,8.317,0,0,1-3.467.647,7.047,7.047,0,0,1-5.688-2.393,9.686,9.686,0,0,1-2.026-6.47v-1.416h17.456v-2.075a13.946,13.946,0,0,0-1.282-6.262,9.178,9.178,0,0,0-3.54-3.918,10.788,10.788,0,0,0-10.425,0,9.178,9.178,0,0,0-3.54,3.918,13.946,13.946,0,0,0-1.282,6.262v3.394a13.738,13.738,0,0,0,1.233,6.055,8.975,8.975,0,0,0,3.54,3.906A10.707,10.707,0,0,0,91.724,118.439Zm-7.715-14.746V103.4a11.157,11.157,0,0,1,.928-4.749,7.112,7.112,0,0,1,12.988,0,11.157,11.157,0,0,1,.928,4.749v.293Zm34.009-11.084h-4.541v2.222h4.541v16.895a10.648,10.648,0,0,0,.549,3.735,3.726,3.726,0,0,0,1.99,2.112,9.982,9.982,0,0,0,4.1.671q.586,0,1.55-.073t1.355-.122V115.8q-.366.024-1.147.085t-1.27.061a5.482,5.482,0,0,1-3.552-.867q-.989-.867-.989-3.259V94.831h6.567V92.609h-6.567v-6.25h-2.588Zm22.485,25.83a11.389,11.389,0,0,0,4.016-.647,9.123,9.123,0,0,0,2.856-1.648A7.92,7.92,0,0,0,149.133,114a6.11,6.11,0,0,0,.745-2.148h-2.734a4.3,4.3,0,0,1-.964,1.953,5.988,5.988,0,0,1-2.209,1.624,8.317,8.317,0,0,1-3.467.647,7.047,7.047,0,0,1-5.688-2.393,9.686,9.686,0,0,1-2.026-6.47v-1.416h17.456v-2.075a13.946,13.946,0,0,0-1.282-6.262,9.178,9.178,0,0,0-3.54-3.918,10.788,10.788,0,0,0-10.425,0,9.178,9.178,0,0,0-3.54,3.918,13.946,13.946,0,0,0-1.282,6.262v3.394a13.738,13.738,0,0,0,1.233,6.055,8.975,8.975,0,0,0,3.54,3.906A10.707,10.707,0,0,0,140.5,118.439Zm-7.715-14.746V103.4a11.157,11.157,0,0,1,.928-4.749,7.112,7.112,0,0,1,12.988,0,11.157,11.157,0,0,1,.928,4.749v.293Zm22.241,3.687a13.046,13.046,0,0,0,1.257,5.981,8.872,8.872,0,0,0,3.54,3.772,10.657,10.657,0,0,0,5.383,1.306,11.138,11.138,0,0,0,5.322-1.111,7.818,7.818,0,0,0,3.064-2.783,7.231,7.231,0,0,0,1.111-3.333h-2.563a6.572,6.572,0,0,1-.977,2.283,5.371,5.371,0,0,1-2.148,1.819,8.394,8.394,0,0,1-3.735.708,7.174,7.174,0,0,1-5.6-2.283,9.3,9.3,0,0,1-2.063-6.458v-3.931a9.417,9.417,0,0,1,2.039-6.47,7.022,7.022,0,0,1,5.53-2.295,7.61,7.61,0,0,1,3.735.806,5.838,5.838,0,0,1,2.185,2.014,6.631,6.631,0,0,1,.94,2.38h2.563a7.287,7.287,0,0,0-1.147-3.552,8.331,8.331,0,0,0-3.137-2.893,11.8,11.8,0,0,0-10.449.146,8.978,8.978,0,0,0-3.564,3.735,12.514,12.514,0,0,0-1.282,5.884ZM180.542,118h2.588V103.205A10.525,10.525,0,0,1,184,98.933a7.448,7.448,0,0,1,2.6-3.186,7.331,7.331,0,0,1,4.3-1.208,6.866,6.866,0,0,1,3.589.891,5.8,5.8,0,0,1,2.271,2.49,8.386,8.386,0,0,1,.781,3.723V118h2.612V100.935q0-4.3-2.466-6.519a8.916,8.916,0,0,0-6.2-2.222,9.4,9.4,0,0,0-4.272.867,7.477,7.477,0,0,0-2.649,2.112,7.86,7.86,0,0,0-1.282,2.344h-.146V82.941h-2.588Zm26.318,0h2.612V103.205a10.655,10.655,0,0,1,.854-4.272,7.4,7.4,0,0,1,2.576-3.186,7.318,7.318,0,0,1,4.309-1.208,6.721,6.721,0,0,1,3.577.891,5.81,5.81,0,0,1,2.222,2.478,8.419,8.419,0,0,1,.769,3.711V118h2.588V100.91q0-4.3-2.429-6.506a8.913,8.913,0,0,0-6.238-2.209,9.374,9.374,0,0,0-4.248.842,7.054,7.054,0,0,0-2.563,2.075,8.311,8.311,0,0,0-1.27,2.4h-.146V92.609H206.86ZM242.5,92.194a10.954,10.954,0,0,0-5.359,1.306,9.454,9.454,0,0,0-3.76,3.784,12.261,12.261,0,0,0-1.379,6.042v4a12.3,12.3,0,0,0,1.379,6.079,9.31,9.31,0,0,0,3.76,3.748,11.121,11.121,0,0,0,5.359,1.282,11,11,0,0,0,5.322-1.282,9.49,9.49,0,0,0,3.772-3.748,12.125,12.125,0,0,0,1.4-6.079v-4a12.211,12.211,0,0,0-1.4-6.079,9.428,9.428,0,0,0-3.784-3.772A11.019,11.019,0,0,0,242.5,92.194Zm0,2.344a7.742,7.742,0,0,1,4.077,1.074,7.342,7.342,0,0,1,2.8,3.113,10.958,10.958,0,0,1,1.013,4.919v3.394a11.053,11.053,0,0,1-1,4.932,7.067,7.067,0,0,1-2.771,3.064,7.936,7.936,0,0,1-4.089,1.038,8.025,8.025,0,0,1-4.15-1.05,7.059,7.059,0,0,1-2.771-3.064,11.089,11.089,0,0,1-.989-4.919v-3.394a10.94,10.94,0,0,1,1.013-4.932,7.357,7.357,0,0,1,2.8-3.1A7.742,7.742,0,0,1,242.5,94.538ZM259.375,118h2.612V82.941h-2.612Zm19.238-25.806a10.954,10.954,0,0,0-5.359,1.306,9.453,9.453,0,0,0-3.76,3.784,12.261,12.261,0,0,0-1.379,6.042v4a12.3,12.3,0,0,0,1.379,6.079,9.31,9.31,0,0,0,3.76,3.748,11.121,11.121,0,0,0,5.359,1.282,11,11,0,0,0,5.322-1.282,9.49,9.49,0,0,0,3.772-3.748,12.125,12.125,0,0,0,1.4-6.079v-4a12.211,12.211,0,0,0-1.4-6.079,9.428,9.428,0,0,0-3.784-3.772A11.019,11.019,0,0,0,278.613,92.194Zm0,2.344a7.742,7.742,0,0,1,4.077,1.074,7.342,7.342,0,0,1,2.8,3.113,10.958,10.958,0,0,1,1.013,4.919v3.394a11.053,11.053,0,0,1-1,4.932,7.067,7.067,0,0,1-2.771,3.064,7.936,7.936,0,0,1-4.089,1.038,8.025,8.025,0,0,1-4.15-1.05,7.059,7.059,0,0,1-2.771-3.064,11.089,11.089,0,0,1-.989-4.919v-3.394a10.94,10.94,0,0,1,1.013-4.932,7.357,7.357,0,0,1,2.8-3.1A7.742,7.742,0,0,1,278.613,94.538ZM304,124.665a8.882,8.882,0,0,1-3.625-.659,6,6,0,0,1-2.283-1.66,4,4,0,0,1-.928-2.026h-2.71a6.436,6.436,0,0,0,1.172,3.174,7.671,7.671,0,0,0,3.1,2.527,11.906,11.906,0,0,0,5.176.989,14.05,14.05,0,0,0,4.3-.61,9.007,9.007,0,0,0,3.259-1.807,7.841,7.841,0,0,0,2.075-2.954,10.625,10.625,0,0,0,.72-4.053V92.609h-2.515v4.517h-.122a7.193,7.193,0,0,0-1.355-2.148,8.311,8.311,0,0,0-2.625-1.965,8.767,8.767,0,0,0-3.955-.818,10.263,10.263,0,0,0-4.919,1.208,9.114,9.114,0,0,0-3.625,3.577,11.454,11.454,0,0,0-1.367,5.811v3.955a11.507,11.507,0,0,0,1.306,5.64,9.154,9.154,0,0,0,3.552,3.638,10.041,10.041,0,0,0,5.029,1.27,9.031,9.031,0,0,0,3.137-.5,8.3,8.3,0,0,0,2.307-1.257,7.8,7.8,0,0,0,1.538-1.587,7.369,7.369,0,0,0,.854-1.514h.146v5.225a6.791,6.791,0,0,1-1.953,5.115A7.857,7.857,0,0,1,304,124.665Zm.049-30.127a7.029,7.029,0,0,1,4.065,1.16,7.638,7.638,0,0,1,2.612,3.076,9.643,9.643,0,0,1,.916,4.211v3.638a9.613,9.613,0,0,1-.867,4.028,7.589,7.589,0,0,1-2.551,3.1,6.985,6.985,0,0,1-4.15,1.2,7.271,7.271,0,0,1-6.677-4.1,10.159,10.159,0,0,1-1.013-4.687v-2.734a10.54,10.54,0,0,1,1.025-4.871,7.15,7.15,0,0,1,2.771-3A7.568,7.568,0,0,1,304.053,94.538ZM322.29,118h2.588V92.609H322.29Zm-.879-33.032a2.126,2.126,0,0,0,2.148,2.148,2.134,2.134,0,0,0,1.575-.623,2.075,2.075,0,0,0,.623-1.526,2.129,2.129,0,0,0-2.2-2.2,2.075,2.075,0,0,0-1.526.623A2.134,2.134,0,0,0,321.411,84.968Zm19.556,33.472a11.389,11.389,0,0,0,4.016-.647,9.123,9.123,0,0,0,2.856-1.648A7.92,7.92,0,0,0,349.6,114a6.111,6.111,0,0,0,.745-2.148h-2.734a4.3,4.3,0,0,1-.964,1.953,5.988,5.988,0,0,1-2.209,1.624,8.317,8.317,0,0,1-3.467.647,7.047,7.047,0,0,1-5.688-2.393,9.686,9.686,0,0,1-2.026-6.47v-1.416h17.456v-2.075a13.946,13.946,0,0,0-1.282-6.262,9.178,9.178,0,0,0-3.54-3.918,10.788,10.788,0,0,0-10.425,0,9.178,9.178,0,0,0-3.54,3.918,13.946,13.946,0,0,0-1.282,6.262v3.394a13.738,13.738,0,0,0,1.233,6.055,8.974,8.974,0,0,0,3.54,3.906A10.707,10.707,0,0,0,340.967,118.439Zm-7.715-14.746V103.4a11.157,11.157,0,0,1,.928-4.749,7.112,7.112,0,0,1,12.988,0,11.157,11.157,0,0,1,.928,4.749v.293Zm22.363-4.37a5.529,5.529,0,0,0,1.074,3.577,7,7,0,0,0,2.979,2.075,33.376,33.376,0,0,0,4.346,1.331q1.831.391,3.43.9a6.713,6.713,0,0,1,2.588,1.44,3.408,3.408,0,0,1,.989,2.612,4.2,4.2,0,0,1-.854,2.661,5.365,5.365,0,0,1-2.38,1.685,9.955,9.955,0,0,1-3.577.586,8.777,8.777,0,0,1-3.87-.72,4.831,4.831,0,0,1-2.869-3.967h-2.563a6.136,6.136,0,0,0,1.013,3.381,7.276,7.276,0,0,0,3.064,2.563,11.841,11.841,0,0,0,5.151.989,13.108,13.108,0,0,0,4.8-.842,7.743,7.743,0,0,0,3.43-2.5,6.593,6.593,0,0,0,1.27-4.126,5.376,5.376,0,0,0-1.208-3.748,7.709,7.709,0,0,0-3.21-2.039,35.521,35.521,0,0,0-4.395-1.221q-1.416-.317-2.612-.7a10.127,10.127,0,0,1-2.087-.9,4.018,4.018,0,0,1-1.392-1.318,3.616,3.616,0,0,1-.5-1.965,3.881,3.881,0,0,1,1.782-3.467,7.691,7.691,0,0,1,4.321-1.172,7.551,7.551,0,0,1,3.613.745,5.019,5.019,0,0,1,1.99,1.794,4.155,4.155,0,0,1,.647,2h2.49a6.233,6.233,0,0,0-.928-3.223A6.914,6.914,0,0,0,369.3,93.2a10.536,10.536,0,0,0-4.9-1,11.962,11.962,0,0,0-4.407.781,7.173,7.173,0,0,0-3.186,2.368A6.424,6.424,0,0,0,355.615,99.323Zm35.571,8.594,3.149-2.954L404.419,118h3.2l-11.353-14.722,10.669-10.669H403.76l-12.451,12.3h-.122V82.941H388.6V118h2.588Zm28.442,10.522a11.389,11.389,0,0,0,4.016-.647,9.123,9.123,0,0,0,2.856-1.648A7.92,7.92,0,0,0,428.259,114a6.111,6.111,0,0,0,.745-2.148H426.27a4.3,4.3,0,0,1-.964,1.953,5.988,5.988,0,0,1-2.209,1.624,8.317,8.317,0,0,1-3.467.647,7.047,7.047,0,0,1-5.688-2.393,9.686,9.686,0,0,1-2.026-6.47v-1.416H429.37v-2.075a13.946,13.946,0,0,0-1.282-6.262,9.178,9.178,0,0,0-3.54-3.918,10.788,10.788,0,0,0-10.425,0,9.178,9.178,0,0,0-3.54,3.918,13.946,13.946,0,0,0-1.282,6.262v3.394a13.738,13.738,0,0,0,1.233,6.055,8.974,8.974,0,0,0,3.54,3.906A10.707,10.707,0,0,0,419.629,118.439Zm-7.715-14.746V103.4a11.157,11.157,0,0,1,.928-4.749,7.112,7.112,0,0,1,12.988,0,11.157,11.157,0,0,1,.928,4.749v.293Zm32.593,14.746a11.389,11.389,0,0,0,4.016-.647,9.123,9.123,0,0,0,2.856-1.648A7.92,7.92,0,0,0,453.137,114a6.111,6.111,0,0,0,.745-2.148h-2.734a4.3,4.3,0,0,1-.964,1.953,5.988,5.988,0,0,1-2.209,1.624,8.317,8.317,0,0,1-3.467.647,7.047,7.047,0,0,1-5.688-2.393,9.686,9.686,0,0,1-2.026-6.47v-1.416h17.456v-2.075a13.946,13.946,0,0,0-1.282-6.262,9.178,9.178,0,0,0-3.54-3.918,10.788,10.788,0,0,0-10.425,0,9.178,9.178,0,0,0-3.54,3.918,13.946,13.946,0,0,0-1.282,6.262v3.394a13.738,13.738,0,0,0,1.233,6.055,8.974,8.974,0,0,0,3.54,3.906A10.707,10.707,0,0,0,444.507,118.439Zm-7.715-14.746V103.4a11.157,11.157,0,0,1,.928-4.749,7.112,7.112,0,0,1,12.988,0,11.157,11.157,0,0,1,.928,4.749v.293Zm34.082,14.746a10.01,10.01,0,0,0,4.98-1.245,8.918,8.918,0,0,0,3.516-3.638,12.18,12.18,0,0,0,1.294-5.859v-4.834a12.317,12.317,0,0,0-1.221-5.664,8.924,8.924,0,0,0-3.406-3.7,10.566,10.566,0,0,0-8.264-.818,8.344,8.344,0,0,0-2.393,1.27,7.836,7.836,0,0,0-1.624,1.672,7.08,7.08,0,0,0-.891,1.648h-.146V92.609h-2.49v33.643h2.588V113.508h.146a7.834,7.834,0,0,0,4.053,4.175A9.009,9.009,0,0,0,470.874,118.439Zm-.269-2.368a7.6,7.6,0,0,1-4.077-1.086,7.416,7.416,0,0,1-2.734-2.991,9.226,9.226,0,0,1-.977-4.272v-4.614a10.032,10.032,0,0,1,.916-4.333,7.179,7.179,0,0,1,6.824-4.236,7.3,7.3,0,0,1,3.906,1.038,6.973,6.973,0,0,1,2.637,3.04,11.308,11.308,0,0,1,.952,4.883v3.589a11.18,11.18,0,0,1-.989,4.993,6.971,6.971,0,0,1-2.673,2.991A7.266,7.266,0,0,1,470.605,116.071Zm43.628-23.462H511.45l-7.788,22.681h-.122l-7.861-22.681h-2.905l9.5,25.757-.684,1.953a6.229,6.229,0,0,1-1.9,3,4.867,4.867,0,0,1-3.149,1q-.391,0-.977-.049t-.977-.1v2.246a8.6,8.6,0,0,0,1.074.146q.61.049,1.1.049a6.742,6.742,0,0,0,4.443-1.453,10.658,10.658,0,0,0,2.93-4.578l.952-2.466q1.123-3.223,2.271-6.4t2.295-6.372q1.147-3.2,2.295-6.384T514.233,92.609Zm12.524-.415A10.954,10.954,0,0,0,521.4,93.5a9.454,9.454,0,0,0-3.76,3.784,12.261,12.261,0,0,0-1.379,6.042v4a12.3,12.3,0,0,0,1.379,6.079,9.31,9.31,0,0,0,3.76,3.748,11.121,11.121,0,0,0,5.359,1.282,11,11,0,0,0,5.322-1.282,9.49,9.49,0,0,0,3.772-3.748,12.126,12.126,0,0,0,1.4-6.079v-4a12.211,12.211,0,0,0-1.4-6.079,9.428,9.428,0,0,0-3.784-3.772A11.019,11.019,0,0,0,526.758,92.194Zm0,2.344a7.742,7.742,0,0,1,4.077,1.074,7.342,7.342,0,0,1,2.8,3.113,10.957,10.957,0,0,1,1.013,4.919v3.394a11.053,11.053,0,0,1-1,4.932,7.067,7.067,0,0,1-2.771,3.064,7.936,7.936,0,0,1-4.089,1.038,8.025,8.025,0,0,1-4.15-1.05,7.059,7.059,0,0,1-2.771-3.064,11.089,11.089,0,0,1-.989-4.919v-3.394a10.94,10.94,0,0,1,1.013-4.932,7.357,7.357,0,0,1,2.8-3.1A7.742,7.742,0,0,1,526.758,94.538Zm35.815-1.929h-2.612v15.625a8.154,8.154,0,0,1-.928,3.8,7.572,7.572,0,0,1-2.661,2.917,8.229,8.229,0,0,1-7.544.391,5.335,5.335,0,0,1-2.295-2.2,7.289,7.289,0,0,1-.83-3.638V92.609h-2.612v17.48a8.849,8.849,0,0,0,1.147,4.761,6.955,6.955,0,0,0,3.1,2.71,10.657,10.657,0,0,0,4.419.879,9.046,9.046,0,0,0,4.028-.818,7.979,7.979,0,0,0,2.649-2,7.43,7.43,0,0,0,1.379-2.332h.146V118h2.612Zm22.949,25.83a9.213,9.213,0,0,0,3.845-.72A8.394,8.394,0,0,0,591.919,116a7.548,7.548,0,0,0,1.416-1.9h.146V118h2.539V100.1a7.993,7.993,0,0,0-1.16-4.5,6.851,6.851,0,0,0-3.162-2.576,11.832,11.832,0,0,0-4.565-.83,13.216,13.216,0,0,0-3.613.452,8.368,8.368,0,0,0-2.71,1.282,6.243,6.243,0,0,0-1.758,1.953,6.034,6.034,0,0,0-.757,2.441h2.563a4.424,4.424,0,0,1,.867-1.77,4.978,4.978,0,0,1,1.953-1.44,8.226,8.226,0,0,1,3.333-.574,7.217,7.217,0,0,1,4.614,1.392,5.235,5.235,0,0,1,1.758,4.37v3.247h-7.422q-4.3,0-6.506,2a6.72,6.72,0,0,0-2.209,5.225,7.173,7.173,0,0,0,2.295,5.579A8.545,8.545,0,0,0,585.522,118.439Zm.513-2.368a6.745,6.745,0,0,1-4.321-1.392,5.221,5.221,0,0,1-.33-7.5q1.428-1.392,4.6-1.392h7.4v3.564a6.184,6.184,0,0,1-1,3.491,6.934,6.934,0,0,1-2.661,2.368A7.935,7.935,0,0,1,586.035,116.071ZM602.905,118h2.588V103.205a10.525,10.525,0,0,1,.867-4.272,7.449,7.449,0,0,1,2.6-3.186,7.331,7.331,0,0,1,4.3-1.208,6.866,6.866,0,0,1,3.589.891,5.8,5.8,0,0,1,2.271,2.49,8.386,8.386,0,0,1,.781,3.723V118h2.612V100.935q0-4.3-2.466-6.519a8.916,8.916,0,0,0-6.2-2.222,9.4,9.4,0,0,0-4.272.867,7.477,7.477,0,0,0-2.649,2.112,7.859,7.859,0,0,0-1.282,2.344h-.146V82.941h-2.588Zm35.5.439a11.389,11.389,0,0,0,4.016-.647,9.123,9.123,0,0,0,2.856-1.648A7.92,7.92,0,0,0,647.034,114a6.11,6.11,0,0,0,.745-2.148h-2.734a4.3,4.3,0,0,1-.964,1.953,5.988,5.988,0,0,1-2.209,1.624,8.317,8.317,0,0,1-3.467.647,7.047,7.047,0,0,1-5.688-2.393,9.686,9.686,0,0,1-2.026-6.47v-1.416h17.456v-2.075a13.946,13.946,0,0,0-1.282-6.262,9.177,9.177,0,0,0-3.54-3.918,10.788,10.788,0,0,0-10.425,0,9.177,9.177,0,0,0-3.54,3.918,13.946,13.946,0,0,0-1.282,6.262v3.394a13.738,13.738,0,0,0,1.233,6.055,8.975,8.975,0,0,0,3.54,3.906A10.706,10.706,0,0,0,638.4,118.439Zm-7.715-14.746V103.4a11.157,11.157,0,0,1,.928-4.749,7.112,7.112,0,0,1,12.988,0,11.157,11.157,0,0,1,.928,4.749v.293Zm30.176,14.746a9.213,9.213,0,0,0,3.845-.72A8.394,8.394,0,0,0,667.261,116a7.548,7.548,0,0,0,1.416-1.9h.146V118h2.539V100.1a7.993,7.993,0,0,0-1.16-4.5,6.851,6.851,0,0,0-3.162-2.576,11.832,11.832,0,0,0-4.565-.83,13.216,13.216,0,0,0-3.613.452,8.368,8.368,0,0,0-2.71,1.282,6.243,6.243,0,0,0-1.758,1.953,6.034,6.034,0,0,0-.757,2.441H656.2a4.424,4.424,0,0,1,.867-1.77,4.978,4.978,0,0,1,1.953-1.44,8.226,8.226,0,0,1,3.333-.574,7.217,7.217,0,0,1,4.614,1.392,5.235,5.235,0,0,1,1.758,4.37v3.247H661.3q-4.3,0-6.506,2a6.72,6.72,0,0,0-2.209,5.225,7.173,7.173,0,0,0,2.295,5.579A8.545,8.545,0,0,0,660.864,118.439Zm.513-2.368a6.745,6.745,0,0,1-4.321-1.392,5.221,5.221,0,0,1-.33-7.5q1.428-1.392,4.6-1.392h7.4v3.564a6.184,6.184,0,0,1-1,3.491,6.934,6.934,0,0,1-2.661,2.368A7.935,7.935,0,0,1,661.377,116.071Zm25.342-23.877a9.991,9.991,0,0,0-4.932,1.233A9.071,9.071,0,0,0,678.247,97a11.548,11.548,0,0,0-1.318,5.737v5.151a11.9,11.9,0,0,0,1.233,5.566,8.932,8.932,0,0,0,3.43,3.662,9.771,9.771,0,0,0,5.054,1.294,9.508,9.508,0,0,0,3.247-.513,9.122,9.122,0,0,0,2.441-1.294,7.487,7.487,0,0,0,1.636-1.66,5.227,5.227,0,0,0,.806-1.636h.146V118h2.49V82.941h-2.588V97.1h-.146a7.2,7.2,0,0,0-1.416-2.283,7.733,7.733,0,0,0-2.625-1.88A9.351,9.351,0,0,0,686.719,92.194Zm.269,2.344a7.434,7.434,0,0,1,6.848,4.089,9.059,9.059,0,0,1,.989,4.26v4.59a9.943,9.943,0,0,1-.928,4.321,7.574,7.574,0,0,1-2.661,3.113,7.963,7.963,0,0,1-8.069.122,7.046,7.046,0,0,1-2.661-3.015,10.836,10.836,0,0,1-.964-4.785V103.4a10.8,10.8,0,0,1,1-4.907,6.979,6.979,0,0,1,2.686-2.966A7.289,7.289,0,0,1,686.987,94.538Zm-673.1,67.656A10.954,10.954,0,0,0,8.533,163.5a9.454,9.454,0,0,0-3.76,3.784,12.261,12.261,0,0,0-1.379,6.042v4a12.3,12.3,0,0,0,1.379,6.079,9.31,9.31,0,0,0,3.76,3.748,11.121,11.121,0,0,0,5.359,1.282,11,11,0,0,0,5.322-1.282,9.49,9.49,0,0,0,3.772-3.748,12.125,12.125,0,0,0,1.4-6.079v-4a12.211,12.211,0,0,0-1.4-6.079,9.428,9.428,0,0,0-3.784-3.772A11.019,11.019,0,0,0,13.892,162.194Zm0,2.344a7.742,7.742,0,0,1,4.077,1.074,7.342,7.342,0,0,1,2.8,3.113,10.958,10.958,0,0,1,1.013,4.919v3.394a11.053,11.053,0,0,1-1,4.932,7.067,7.067,0,0,1-2.771,3.064,7.936,7.936,0,0,1-4.089,1.038,8.025,8.025,0,0,1-4.15-1.05,7.059,7.059,0,0,1-2.771-3.064,11.089,11.089,0,0,1-.989-4.919v-3.394a10.94,10.94,0,0,1,1.013-4.932,7.357,7.357,0,0,1,2.8-3.1A7.742,7.742,0,0,1,13.892,164.538ZM32.153,188h2.588V164.831h6.714v-2.222H34.741v-2.881a4.6,4.6,0,0,1,1.086-3.5,5.249,5.249,0,0,1,3.577-.989q.61,0,1.4.049t1.135.1v-2.222a7.8,7.8,0,0,0-1.2-.159q-.806-.061-1.562-.061-3.711,0-5.371,1.611t-1.66,5.029v3.027H27.734v2.222h4.419Zm23.413-25.391H51.025v2.222h4.541v16.895a10.648,10.648,0,0,0,.549,3.735,3.726,3.726,0,0,0,1.99,2.112,9.982,9.982,0,0,0,4.1.671q.586,0,1.55-.073t1.355-.122V185.8q-.366.024-1.147.085t-1.27.061a5.482,5.482,0,0,1-3.552-.867q-.989-.867-.989-3.259V164.831h6.567v-2.222H58.154v-6.25H55.566ZM69.336,188h2.588V173.205a10.525,10.525,0,0,1,.867-4.272,7.448,7.448,0,0,1,2.6-3.186,7.331,7.331,0,0,1,4.3-1.208,6.866,6.866,0,0,1,3.589.891,5.8,5.8,0,0,1,2.271,2.49,8.386,8.386,0,0,1,.781,3.723V188H88.94V170.935q0-4.3-2.466-6.519a8.916,8.916,0,0,0-6.2-2.222,9.4,9.4,0,0,0-4.272.867,7.477,7.477,0,0,0-2.649,2.112,7.86,7.86,0,0,0-1.282,2.344h-.146V152.941H69.336Zm35.5.439a11.389,11.389,0,0,0,4.016-.647,9.124,9.124,0,0,0,2.856-1.648A7.92,7.92,0,0,0,113.464,184a6.111,6.111,0,0,0,.745-2.148h-2.734a4.3,4.3,0,0,1-.964,1.953,5.988,5.988,0,0,1-2.209,1.624,8.317,8.317,0,0,1-3.467.647,7.047,7.047,0,0,1-5.688-2.393,9.686,9.686,0,0,1-2.026-6.47v-1.416h17.456v-2.075a13.946,13.946,0,0,0-1.282-6.262,9.178,9.178,0,0,0-3.54-3.918,10.788,10.788,0,0,0-10.425,0,9.178,9.178,0,0,0-3.54,3.918,13.946,13.946,0,0,0-1.282,6.262v3.394a13.738,13.738,0,0,0,1.233,6.055,8.975,8.975,0,0,0,3.54,3.906A10.707,10.707,0,0,0,104.834,188.439Zm-7.715-14.746V173.4a11.157,11.157,0,0,1,.928-4.749,7.112,7.112,0,0,1,12.988,0,11.157,11.157,0,0,1,.928,4.749v.293ZM129.956,188h2.612V172.2a8.4,8.4,0,0,1,.928-4.1,6.273,6.273,0,0,1,2.563-2.563,7.715,7.715,0,0,1,3.711-.879,12.658,12.658,0,0,1,1.343.061q.562.061.806.11v-2.466q-.293-.049-.769-.1a10.758,10.758,0,0,0-1.086-.049,8.215,8.215,0,0,0-3.882.818A6.778,6.778,0,0,0,133.813,165a6.665,6.665,0,0,0-1.1,2.173h-.146v-4.565h-2.612Zm24.39.439a11.389,11.389,0,0,0,4.016-.647,9.124,9.124,0,0,0,2.856-1.648A7.92,7.92,0,0,0,162.976,184a6.11,6.11,0,0,0,.745-2.148h-2.734a4.3,4.3,0,0,1-.964,1.953,5.988,5.988,0,0,1-2.209,1.624,8.317,8.317,0,0,1-3.467.647,7.047,7.047,0,0,1-5.688-2.393,9.686,9.686,0,0,1-2.026-6.47v-1.416h17.456v-2.075a13.946,13.946,0,0,0-1.282-6.262,9.178,9.178,0,0,0-3.54-3.918,10.788,10.788,0,0,0-10.425,0,9.178,9.178,0,0,0-3.54,3.918,13.946,13.946,0,0,0-1.282,6.262v3.394a13.738,13.738,0,0,0,1.233,6.055,8.975,8.975,0,0,0,3.54,3.906A10.707,10.707,0,0,0,154.346,188.439Zm-7.715-14.746V173.4a11.157,11.157,0,0,1,.928-4.749,7.112,7.112,0,0,1,12.988,0,11.157,11.157,0,0,1,.928,4.749v.293Zm22.363-4.37a5.529,5.529,0,0,0,1.074,3.577,7,7,0,0,0,2.979,2.075,33.376,33.376,0,0,0,4.346,1.331q1.831.391,3.43.9a6.713,6.713,0,0,1,2.588,1.44,3.408,3.408,0,0,1,.989,2.612,4.2,4.2,0,0,1-.854,2.661,5.364,5.364,0,0,1-2.38,1.685,9.955,9.955,0,0,1-3.577.586,8.777,8.777,0,0,1-3.87-.72,4.831,4.831,0,0,1-2.869-3.967h-2.563a6.136,6.136,0,0,0,1.013,3.381,7.276,7.276,0,0,0,3.064,2.563,11.841,11.841,0,0,0,5.151.989,13.108,13.108,0,0,0,4.8-.842,7.744,7.744,0,0,0,3.43-2.5,6.593,6.593,0,0,0,1.27-4.126,5.376,5.376,0,0,0-1.208-3.748,7.709,7.709,0,0,0-3.21-2.039,35.524,35.524,0,0,0-4.395-1.221q-1.416-.317-2.612-.7a10.126,10.126,0,0,1-2.087-.9,4.018,4.018,0,0,1-1.392-1.318,3.616,3.616,0,0,1-.5-1.965,3.881,3.881,0,0,1,1.782-3.467,7.691,7.691,0,0,1,4.321-1.172,7.551,7.551,0,0,1,3.613.745,5.019,5.019,0,0,1,1.99,1.794,4.155,4.155,0,0,1,.647,2h2.49a6.233,6.233,0,0,0-.928-3.223,6.914,6.914,0,0,0-2.844-2.563,10.536,10.536,0,0,0-4.9-1,11.962,11.962,0,0,0-4.407.781,7.173,7.173,0,0,0-3.186,2.368A6.424,6.424,0,0,0,168.994,169.323Zm25.073-6.714h-4.541v2.222h4.541v16.895a10.648,10.648,0,0,0,.549,3.735,3.726,3.726,0,0,0,1.99,2.112,9.982,9.982,0,0,0,4.1.671q.586,0,1.55-.073t1.355-.122V185.8q-.366.024-1.147.085t-1.27.061a5.482,5.482,0,0,1-3.552-.867q-.989-.867-.989-3.259V164.831h6.567v-2.222h-6.567v-6.25h-2.588Zm13.281,23.315a2.4,2.4,0,0,0,.708,1.746,2.337,2.337,0,0,0,1.733.72,2.447,2.447,0,0,0,1.782-.72,2.357,2.357,0,0,0,.732-1.746,2.386,2.386,0,0,0-.732-1.77,2.447,2.447,0,0,0-1.782-.72,2.337,2.337,0,0,0-1.733.72A2.428,2.428,0,0,0,207.349,185.925Z" transform="translate(106 56)"/>
  </g>
</svg>
