<svg id="svg" version="1.1" xmlns="http://www.w3.org/2000/svg" xmlns:xlink="http://www.w3.org/1999/xlink" width="200" height="100" viewBox="0, 0, 400,155.67816091954023"><g id="svgg"><path id="path0" d="M95.500 0.613 C 94.641 1.181,93.042 2.482,92.262 3.246 C 92.072 3.433,91.642 3.810,91.306 4.084 C 90.878 4.434,90.661 4.772,90.578 5.215 L 90.460 5.847 91.426 5.420 C 91.957 5.185,92.472 4.931,92.571 4.856 C 92.797 4.682,93.333 4.488,93.333 4.579 C 93.333 4.617,92.385 5.440,91.226 6.408 L 89.118 8.167 88.320 6.791 C 86.127 3.012,82.234 1.274,80.398 3.254 C 79.738 3.966,79.727 6.341,80.380 7.145 C 80.552 7.357,80.532 7.376,80.250 7.264 C 80.067 7.192,79.692 7.054,79.417 6.959 C 79.142 6.863,78.833 6.720,78.730 6.640 C 77.895 5.992,75.613 5.631,75.427 6.117 C 75.197 6.716,80.039 9.413,82.250 9.917 C 84.365 10.399,86.796 11.142,87.610 11.555 C 90.532 13.035,93.758 16.775,93.890 18.833 C 93.918 19.266,93.245 19.553,93.019 19.205 C 92.852 18.948,90.378 17.500,90.106 17.500 C 89.756 17.500,89.578 18.153,89.858 18.415 C 90.753 19.251,92.398 19.994,92.722 19.707 C 93.041 19.427,93.049 19.430,92.955 19.805 C 92.872 20.134,92.952 20.232,93.470 20.441 C 93.808 20.576,94.320 20.795,94.609 20.927 C 97.162 22.092,97.177 19.764,94.635 16.750 C 94.375 16.441,92.167 13.763,90.945 12.273 C 90.654 11.919,90.280 11.470,90.113 11.276 C 89.812 10.925,89.827 10.905,91.863 8.948 C 96.514 4.479,99.500 1.494,99.500 1.316 C 99.500 1.188,99.184 1.149,98.528 1.197 L 97.557 1.267 97.673 0.634 L 97.789 -0.000 97.103 0.003 C 96.596 0.005,96.177 0.165,95.500 0.613 M1.707 9.163 C -0.409 10.177,-0.458 10.387,1.542 9.870 C 4.427 9.123,6.874 10.211,9.930 13.599 C 13.663 17.737,14.954 18.397,16.874 17.153 C 19.271 15.600,16.238 11.948,10.407 9.366 C 9.274 8.865,7.183 8.471,5.332 8.409 L 3.413 8.346 1.707 9.163 M56.167 11.655 C 56.167 11.735,56.414 12.167,56.715 12.615 L 57.264 13.430 54.566 13.423 C 51.637 13.416,51.167 13.554,51.167 14.417 C 51.167 15.506,57.449 17.194,60.614 16.956 C 61.391 16.898,61.550 16.947,62.180 17.446 C 62.945 18.051,63.561 18.147,64.019 17.733 C 64.281 17.495,64.538 17.487,66.294 17.656 C 68.301 17.850,69.650 17.766,69.872 17.433 C 70.246 16.875,69.632 16.370,67.920 15.826 C 67.332 15.639,67.292 15.595,67.565 15.433 C 69.352 14.373,68.425 13.801,64.916 13.799 L 62.545 13.798 60.972 13.024 C 58.600 11.857,58.364 11.774,56.875 11.595 C 56.485 11.548,56.167 11.575,56.167 11.655 M81.500 16.114 C 81.362 16.170,81.076 16.351,80.863 16.516 C 80.651 16.681,80.144 16.866,79.738 16.927 C 78.563 17.103,78.658 17.808,79.940 18.436 C 80.458 18.689,80.914 19.023,80.955 19.178 C 81.136 19.871,83.543 20.124,84.153 19.514 C 84.499 19.168,84.776 17.607,84.594 17.033 C 84.369 16.324,82.410 15.743,81.500 16.114 M52.570 19.294 C 52.451 19.375,52.429 19.784,52.507 20.500 C 52.605 21.402,52.558 21.787,52.229 22.795 C 51.644 24.586,51.742 25.280,52.709 26.208 C 53.601 27.064,56.158 27.094,57.572 26.265 C 58.343 25.814,58.392 25.807,59.434 26.003 C 63.435 26.758,61.453 23.988,57.000 22.601 C 55.397 22.102,54.862 21.693,53.826 20.176 C 53.155 19.193,52.941 19.042,52.570 19.294 M67.058 23.292 C 67.100 23.544,67.249 24.313,67.387 25.000 C 67.525 25.688,67.688 26.550,67.749 26.917 C 67.891 27.777,68.190 28.760,69.105 31.374 L 69.848 33.499 69.507 33.864 C 69.041 34.364,69.424 35.249,70.657 36.518 C 71.158 37.034,71.755 37.754,72.253 38.444 L 72.756 39.141 72.637 41.029 C 72.505 43.111,72.415 43.835,72.193 44.583 L 72.045 45.083 71.946 44.500 C 71.891 44.179,71.802 43.392,71.747 42.750 C 71.620 41.277,71.320 39.458,71.220 39.558 C 71.178 39.600,71.092 39.998,71.028 40.442 L 70.912 41.250 70.601 40.583 C 69.939 39.164,69.190 38.392,67.935 37.836 C 67.283 37.548,66.640 37.254,66.505 37.183 C 66.370 37.111,65.920 36.178,65.506 35.110 C 64.760 33.186,64.747 33.167,64.214 33.167 C 63.718 33.167,63.681 33.203,63.753 33.625 C 63.896 34.465,64.167 36.686,64.167 37.018 C 64.167 37.290,64.112 37.316,63.844 37.173 C 62.065 36.220,60.094 38.099,60.590 40.273 C 61.528 44.387,62.022 46.271,62.287 46.744 C 62.406 46.958,62.319 47.350,61.958 48.226 C 61.682 48.895,61.427 49.873,61.377 50.458 C 61.315 51.177,61.218 51.500,61.063 51.500 C 60.939 51.500,60.731 51.755,60.601 52.066 C 60.471 52.378,60.230 52.708,60.065 52.800 C 59.812 52.942,59.800 53.009,59.987 53.234 C 60.172 53.457,60.168 53.500,59.960 53.500 C 59.446 53.500,57.553 54.494,56.795 55.161 C 54.658 57.044,55.920 59.167,59.178 59.167 L 59.674 59.167 59.180 60.125 C 57.469 63.444,59.888 63.784,61.994 60.520 C 62.267 60.097,62.549 59.673,62.621 59.578 C 62.692 59.484,62.891 59.155,63.064 58.848 L 63.379 58.289 62.564 58.401 C 62.116 58.462,61.525 58.555,61.250 58.608 L 60.750 58.702 61.417 58.097 C 61.965 57.599,62.158 57.514,62.500 57.620 C 63.457 57.918,66.287 57.768,66.698 57.397 C 67.268 56.883,67.655 56.681,67.351 57.055 C 67.022 57.462,67.203 57.548,67.767 57.254 C 68.033 57.115,68.329 57.002,68.425 57.001 C 69.135 56.997,71.615 54.826,72.330 53.583 C 73.549 51.465,72.486 50.567,69.757 51.409 C 68.244 51.876,68.350 51.897,68.221 51.106 C 68.131 50.550,68.185 50.447,68.914 49.778 L 69.704 49.052 69.267 48.360 C 68.832 47.671,68.461 47.491,68.234 47.859 C 68.116 48.050,67.848 47.791,67.486 47.133 C 67.346 46.879,67.383 46.868,67.843 47.029 C 68.514 47.262,69.763 47.115,70.161 46.755 C 70.583 46.373,71.000 47.122,71.000 48.262 C 71.000 48.944,71.032 49.014,71.256 48.828 C 71.473 48.649,71.600 48.710,72.070 49.224 C 72.567 49.766,72.717 49.833,73.439 49.831 C 75.332 49.825,76.223 47.840,76.228 43.625 C 76.231 41.494,76.266 41.167,76.495 41.167 C 77.072 41.167,77.500 40.671,77.500 40.002 C 77.500 39.209,76.963 38.596,75.167 37.336 C 74.846 37.112,74.486 36.833,74.367 36.717 C 74.248 36.602,74.031 36.441,73.886 36.360 C 73.390 36.082,73.746 34.609,74.277 34.742 C 74.663 34.839,74.689 34.810,74.608 34.382 C 74.560 34.126,74.472 33.467,74.412 32.917 C 74.047 29.568,72.622 27.345,71.243 27.973 C 70.882 28.137,70.803 28.106,70.555 27.704 C 70.062 26.904,69.197 25.608,68.584 24.750 C 68.256 24.292,67.822 23.674,67.619 23.377 C 67.167 22.715,66.955 22.683,67.058 23.292 M15.905 26.083 C 15.732 26.404,15.546 26.667,15.490 26.667 C 15.317 26.667,14.378 28.214,14.073 29.000 C 13.653 30.085,13.500 30.172,13.497 29.325 C 13.493 28.053,12.733 27.567,12.239 28.521 C 12.001 28.982,11.836 29.581,11.243 32.140 C 11.188 32.378,11.066 32.497,10.929 32.444 C 9.729 31.984,9.743 34.109,10.952 36.022 C 11.289 36.555,11.360 36.474,9.083 38.152 C 5.773 40.593,5.582 41.449,8.370 41.357 C 9.635 41.316,9.549 41.213,9.749 43.000 C 9.954 44.825,10.064 45.532,10.509 47.876 C 10.802 49.421,11.960 49.681,12.355 48.290 C 12.637 47.301,12.763 47.210,13.238 47.655 L 13.647 48.040 13.990 47.478 C 14.683 46.341,14.274 41.793,13.470 41.699 C 12.980 41.641,12.784 42.045,12.572 43.549 C 12.399 44.783,12.326 44.578,11.695 41.066 C 11.152 38.046,11.368 37.530,14.223 35.049 C 15.062 34.321,15.113 34.000,14.389 34.000 C 14.119 34.000,13.993 33.924,14.042 33.792 C 14.085 33.677,14.224 33.283,14.351 32.917 C 14.478 32.550,14.626 32.212,14.680 32.167 C 14.913 31.970,15.984 28.478,16.163 27.333 C 16.270 26.646,16.395 25.952,16.440 25.792 C 16.583 25.285,16.232 25.476,15.905 26.083 M172.199 25.755 C 170.505 26.122,167.905 27.242,166.919 28.028 C 163.417 30.822,161.532 33.606,160.824 37.033 C 160.469 38.748,160.306 111.409,160.652 113.500 C 160.886 114.908,161.002 115.318,161.550 116.667 C 161.982 117.728,162.691 119.033,162.999 119.333 C 163.046 119.379,163.302 119.738,163.569 120.131 C 164.243 121.124,165.993 122.724,167.372 123.608 C 169.256 124.815,169.979 125.089,173.282 125.841 C 179.072 127.159,187.156 122.855,189.418 117.250 C 189.566 116.883,189.788 116.358,189.912 116.083 C 190.753 114.208,190.833 112.926,190.833 101.466 L 190.833 90.667 184.338 90.667 L 177.842 90.667 177.796 101.708 C 177.751 112.450,177.741 112.762,177.417 113.203 C 176.571 114.351,175.041 114.452,174.015 113.426 L 173.417 112.828 173.417 75.667 L 173.417 38.506 174.044 37.878 C 174.968 36.954,176.199 36.954,177.122 37.878 L 177.750 38.505 177.796 49.586 L 177.842 60.667 184.338 60.667 L 190.833 60.667 190.833 49.940 C 190.833 38.646,190.731 36.988,189.929 35.333 C 188.096 31.550,187.070 30.231,184.250 28.032 C 181.579 25.949,176.085 24.911,172.199 25.755 M297.167 25.752 C 295.993 25.991,293.578 26.906,293.154 27.273 C 293.009 27.398,292.831 27.500,292.759 27.500 C 292.571 27.500,291.077 28.616,290.206 29.408 C 288.563 30.902,286.658 33.853,286.165 35.667 C 286.054 36.079,285.923 36.529,285.874 36.667 C 285.352 38.162,285.327 40.119,285.379 76.629 L 285.431 113.417 285.798 114.583 C 287.705 120.645,291.755 124.502,297.443 125.672 C 299.930 126.184,303.809 125.967,305.500 125.222 C 305.637 125.162,305.787 125.101,305.833 125.088 C 305.879 125.074,306.207 124.936,306.562 124.782 C 306.917 124.627,307.248 124.500,307.297 124.500 C 307.466 124.500,309.081 123.436,309.917 122.774 C 313.360 120.048,315.288 116.509,315.673 112.208 C 315.989 108.685,315.795 38.494,315.467 37.250 C 314.494 33.572,312.555 30.550,309.892 28.564 C 309.539 28.301,309.212 28.043,309.167 27.991 C 308.958 27.757,306.484 26.520,305.583 26.201 C 303.542 25.476,299.562 25.264,297.167 25.752 M77.833 75.659 L 77.833 124.500 84.167 124.500 L 90.500 124.500 90.500 111.833 L 90.500 99.167 94.208 99.161 C 101.731 99.149,104.630 97.507,105.819 92.583 C 105.929 92.125,106.094 91.465,106.185 91.118 C 106.647 89.357,106.919 43.709,106.504 37.750 C 106.282 34.573,105.433 31.444,104.463 30.229 C 103.394 28.891,102.269 28.036,100.750 27.408 L 99.583 26.926 88.708 26.872 L 77.833 26.818 77.833 75.659 M107.333 75.667 L 107.333 124.500 118.833 124.500 L 130.333 124.500 130.333 118.083 L 130.333 111.667 125.167 111.667 L 120.000 111.667 120.000 96.917 L 120.000 82.167 125.167 82.167 L 130.333 82.167 130.333 75.750 L 130.333 69.333 125.167 69.333 L 120.000 69.333 120.000 54.417 L 120.000 39.500 125.167 39.500 L 130.333 39.500 130.333 33.167 L 130.333 26.833 118.833 26.833 L 107.333 26.833 107.333 75.667 M131.000 75.667 L 131.000 124.500 137.417 124.500 L 143.833 124.500 143.833 107.186 C 143.833 90.450,143.844 89.870,144.143 89.791 C 144.611 89.669,145.663 90.089,145.974 90.522 C 146.643 91.452,146.641 91.386,146.654 108.208 L 146.667 124.500 153.011 124.500 L 159.355 124.500 159.280 107.125 C 159.229 95.240,159.146 89.408,159.016 88.667 C 158.702 86.864,158.012 84.847,157.321 83.709 C 156.645 82.596,156.545 82.261,156.837 82.081 C 157.053 81.948,158.058 79.924,158.334 79.065 C 158.449 78.709,158.600 78.342,158.668 78.250 C 158.737 78.158,159.009 77.258,159.272 76.250 L 159.750 74.417 159.750 55.417 C 159.750 40.145,159.706 36.220,159.527 35.417 C 159.404 34.867,159.225 34.042,159.130 33.583 C 158.684 31.437,157.069 29.097,155.311 28.051 C 153.302 26.854,153.067 26.833,141.420 26.833 L 131.000 26.833 131.000 75.667 M191.500 75.667 L 191.500 124.500 203.000 124.500 L 214.500 124.500 214.500 118.083 L 214.500 111.667 209.417 111.667 L 204.333 111.667 204.333 96.917 L 204.333 82.167 209.417 82.167 L 214.500 82.167 214.500 75.750 L 214.500 69.333 209.417 69.333 L 204.333 69.333 204.333 54.417 L 204.333 39.500 209.417 39.500 L 214.500 39.500 214.500 33.167 L 214.500 26.833 203.000 26.833 L 191.500 26.833 191.500 75.667 M215.167 75.661 L 215.167 124.500 221.583 124.500 L 228.000 124.500 228.000 111.850 L 228.000 99.199 232.292 99.122 C 240.288 98.977,242.792 97.031,243.781 90.194 C 244.144 87.684,244.332 42.272,243.996 38.250 C 243.395 31.053,241.859 28.562,237.083 27.035 C 236.900 26.976,231.894 26.904,225.958 26.875 L 215.167 26.822 215.167 75.661 M244.667 33.167 L 244.667 39.500 248.167 39.500 L 251.667 39.500 251.667 82.000 L 251.667 124.500 258.000 124.500 L 264.333 124.500 264.333 82.000 L 264.333 39.500 267.833 39.500 L 271.333 39.500 271.333 33.167 L 271.333 26.833 258.000 26.833 L 244.667 26.833 244.667 33.167 M272.000 75.667 L 272.000 124.500 278.333 124.500 L 284.667 124.500 284.667 75.667 L 284.667 26.833 278.333 26.833 L 272.000 26.833 272.000 75.667 M316.333 75.667 L 316.333 124.500 322.750 124.500 L 329.167 124.500 329.167 110.889 C 329.167 103.403,329.205 97.316,329.252 97.364 C 329.300 97.411,329.525 98.642,329.753 100.100 C 329.981 101.557,330.318 103.650,330.502 104.750 C 330.685 105.850,330.872 107.013,330.917 107.333 C 330.961 107.654,331.037 108.104,331.085 108.333 C 331.133 108.563,331.365 109.950,331.600 111.417 C 331.835 112.883,332.200 115.133,332.411 116.417 C 332.622 117.700,332.991 119.976,333.231 121.474 C 333.470 122.972,333.708 124.265,333.759 124.349 C 333.813 124.435,336.568 124.500,340.177 124.500 L 346.500 124.500 346.500 75.667 L 346.500 26.833 340.000 26.833 L 333.500 26.833 333.482 40.208 L 333.464 53.583 333.165 51.833 C 332.796 49.677,332.382 47.138,332.253 46.250 C 332.200 45.883,332.084 45.246,331.996 44.833 C 331.908 44.421,331.680 43.108,331.490 41.917 C 331.300 40.725,331.038 39.112,330.908 38.333 C 330.779 37.554,330.626 36.579,330.568 36.167 C 330.511 35.754,330.397 35.042,330.316 34.583 C 330.235 34.125,330.017 32.775,329.831 31.583 C 329.646 30.392,329.425 29.117,329.339 28.750 C 329.254 28.383,329.139 27.802,329.084 27.458 L 328.985 26.833 322.659 26.833 L 316.333 26.833 316.333 75.667 M358.500 75.667 L 358.500 124.500 364.917 124.500 L 371.333 124.500 371.333 75.667 L 371.333 26.833 364.917 26.833 L 358.500 26.833 358.500 75.667 M371.833 33.167 L 371.833 39.500 375.333 39.500 L 378.833 39.500 378.833 82.000 L 378.833 124.500 385.250 124.500 L 391.667 124.500 391.667 82.000 L 391.667 39.500 395.083 39.500 L 398.500 39.500 398.500 33.167 L 398.500 26.833 385.167 26.833 L 371.833 26.833 371.833 33.167 M53.664 29.898 C 51.518 31.039,52.494 33.847,55.031 33.828 C 55.992 33.821,57.273 32.544,57.592 31.275 C 57.942 29.879,55.384 28.982,53.664 29.898 M45.708 31.841 C 45.109 32.579,45.538 33.667,46.428 33.667 C 46.548 33.667,46.814 33.967,47.020 34.333 C 47.226 34.700,47.451 35.000,47.519 35.000 C 47.588 35.000,47.689 35.131,47.743 35.292 C 48.081 36.287,49.182 36.129,50.054 34.961 C 50.624 34.198,49.004 33.000,47.400 33.000 C 47.284 33.000,47.144 32.869,47.089 32.708 C 47.033 32.548,46.784 32.183,46.536 31.898 L 46.083 31.380 45.708 31.841 M22.089 33.454 C 22.027 33.702,21.831 34.222,21.654 34.610 C 21.478 34.998,21.333 35.370,21.333 35.438 C 21.333 35.506,21.187 35.866,21.009 36.239 C 20.830 36.612,20.607 37.122,20.514 37.372 C 20.372 37.752,20.260 37.818,19.847 37.770 C 16.973 37.436,15.921 42.030,18.682 42.858 L 19.333 43.053 19.335 43.985 C 19.336 44.497,19.383 45.198,19.440 45.542 C 19.525 46.057,19.494 46.167,19.264 46.167 C 18.574 46.167,17.464 47.249,16.922 48.449 C 16.914 48.467,16.579 48.407,16.177 48.317 C 14.928 48.036,14.830 48.183,15.721 49.002 C 16.520 49.736,16.525 49.747,16.424 50.570 C 16.296 51.626,16.362 51.593,15.177 51.183 C 12.427 50.232,11.180 51.147,12.171 53.388 C 12.536 54.213,12.521 54.194,13.741 55.468 L 14.566 56.329 13.408 55.994 C 12.771 55.810,11.987 55.619,11.667 55.570 C 11.346 55.521,10.956 55.444,10.800 55.398 C 10.643 55.353,10.358 55.476,10.160 55.673 L 9.803 56.030 10.187 56.438 C 10.520 56.792,11.531 57.368,13.833 58.515 C 14.486 58.840,14.334 58.935,13.000 59.038 C 12.480 59.078,12.411 59.140,12.366 59.605 C 12.309 60.189,12.784 60.436,13.580 60.236 C 13.883 60.160,14.131 60.247,14.502 60.560 C 15.666 61.539,18.159 61.652,19.449 60.784 C 20.286 60.221,21.091 59.500,20.883 59.500 C 20.819 59.500,20.857 59.410,20.967 59.300 C 21.269 58.997,21.209 58.694,20.758 58.242 L 20.348 57.833 20.883 57.832 C 21.176 57.832,21.700 57.753,22.046 57.657 C 22.602 57.502,22.732 57.527,23.160 57.866 C 24.102 58.614,23.670 58.812,22.139 58.333 C 21.479 58.126,21.465 58.276,22.046 59.310 C 23.654 62.176,25.379 63.493,26.001 62.331 C 26.327 61.722,25.859 59.845,25.289 59.477 C 24.927 59.244,25.381 59.043,26.511 58.938 C 28.721 58.733,29.563 57.748,28.813 56.246 C 28.366 55.349,26.665 53.997,25.667 53.744 C 24.730 53.507,24.665 53.446,24.312 52.477 C 23.843 51.192,23.562 51.159,23.430 52.375 C 23.353 53.083,23.063 52.290,22.986 51.161 C 22.887 49.716,22.519 48.441,21.970 47.641 C 21.650 47.174,21.594 46.473,21.833 45.917 C 21.912 45.733,21.982 45.659,21.988 45.752 C 22.043 46.538,23.167 46.296,23.167 45.499 C 23.167 44.885,21.188 41.925,21.163 42.500 C 21.147 42.854,20.708 41.577,20.503 40.583 C 20.175 38.988,20.437 38.308,21.498 38.001 C 22.552 37.696,22.638 37.516,23.015 34.858 C 23.251 33.190,23.265 33.257,22.643 33.108 C 22.264 33.017,22.186 33.066,22.089 33.454 M301.618 37.494 C 302.953 38.308,302.833 34.532,302.833 75.762 L 302.833 112.371 302.482 112.997 C 301.630 114.513,299.452 114.508,298.637 112.988 C 298.136 112.055,298.247 38.813,298.750 38.132 C 299.445 37.189,300.672 36.917,301.618 37.494 M65.280 37.915 C 65.909 38.355,66.194 39.528,65.888 40.424 C 65.703 40.967,65.671 41.358,65.773 41.799 C 65.852 42.139,65.894 42.690,65.866 43.024 L 65.815 43.632 65.259 43.059 L 64.703 42.487 64.935 41.717 C 65.316 40.451,65.134 38.000,64.659 38.000 C 64.571 38.000,64.500 37.925,64.500 37.833 C 64.500 37.591,64.873 37.629,65.280 37.915 M92.655 40.125 C 94.016 40.819,93.918 39.036,93.902 62.917 C 93.886 86.860,93.964 84.476,93.169 85.372 C 92.603 86.010,92.489 86.063,91.530 86.132 L 90.500 86.207 90.500 63.020 L 90.500 39.833 91.292 39.834 C 91.727 39.834,92.341 39.965,92.655 40.125 M145.896 40.107 C 147.148 40.704,147.083 39.711,147.083 58.245 C 147.083 76.270,147.135 75.312,146.132 76.054 C 145.857 76.258,145.319 76.418,144.757 76.465 L 143.833 76.541 143.833 58.187 L 143.833 39.833 144.578 39.833 C 144.987 39.833,145.581 39.957,145.896 40.107 M230.218 40.144 C 231.335 40.881,231.245 39.012,231.298 62.500 C 231.325 74.188,231.301 84.003,231.245 84.312 C 231.066 85.304,230.190 86.014,229.010 86.121 L 228.000 86.213 228.000 63.023 L 228.000 39.833 228.875 39.834 C 229.445 39.835,229.913 39.943,230.218 40.144 M52.341 42.231 C 52.103 42.855,52.122 43.453,52.418 44.728 L 52.669 45.810 52.168 46.775 C 51.200 48.641,51.747 51.048,53.080 50.793 C 53.365 50.739,53.521 50.907,53.918 51.696 C 54.488 52.832,54.598 52.871,54.936 52.062 C 55.252 51.307,55.132 50.483,54.485 48.948 L 54.006 47.812 54.342 47.357 C 55.757 45.443,55.272 41.677,53.687 42.275 C 53.270 42.432,53.150 42.409,52.857 42.116 L 52.514 41.774 52.341 42.231 M8.368 48.090 C 8.173 48.311,7.793 49.563,7.273 51.695 C 7.034 52.674,6.997 52.706,6.376 52.490 C 3.549 51.504,2.385 55.694,4.757 58.319 L 5.385 59.015 5.043 59.478 C 4.674 59.977,3.127 62.921,3.017 63.333 C 2.980 63.471,2.811 63.989,2.642 64.484 C 1.676 67.307,3.040 67.955,4.953 65.582 L 5.489 64.917 5.494 65.619 C 5.499 66.162,5.581 66.365,5.855 66.512 C 7.139 67.199,8.681 60.841,7.668 59.038 C 7.295 58.375,7.292 58.306,7.572 56.917 C 7.720 56.186,8.195 55.074,8.499 54.751 C 8.815 54.415,9.227 52.024,9.454 49.212 C 9.536 48.206,9.524 48.168,9.092 48.003 C 8.558 47.800,8.631 47.792,8.368 48.090 M18.836 53.042 C 18.839 53.837,18.896 53.951,19.539 54.444 L 19.994 54.793 19.334 55.230 C 18.557 55.744,17.676 55.820,17.649 55.375 C 17.601 54.576,17.725 54.006,18.121 53.208 C 18.646 52.148,18.833 52.105,18.836 53.042 M67.301 54.886 C 67.238 55.745,66.362 55.975,65.558 55.344 C 65.292 55.134,65.216 55.000,65.363 55.000 C 65.740 55.000,66.361 54.033,66.460 53.289 L 66.551 52.614 66.951 53.402 C 67.229 53.949,67.336 54.403,67.301 54.886 M69.000 54.812 C 69.000 55.157,68.800 55.520,68.336 56.017 C 67.514 56.899,67.326 56.802,68.023 55.855 C 68.472 55.244,68.530 55.049,68.457 54.397 C 68.373 53.654,68.375 53.649,68.686 53.982 C 68.859 54.168,69.000 54.541,69.000 54.812 M24.087 54.643 C 23.865 55.867,22.884 56.908,22.405 56.429 C 22.081 56.104,21.395 56.093,20.801 56.403 C 20.361 56.632,20.356 56.629,20.510 56.224 C 20.596 55.997,20.667 55.592,20.667 55.322 C 20.667 54.854,20.699 54.833,21.412 54.833 C 22.080 54.833,23.105 54.432,23.571 53.988 C 23.831 53.740,24.172 54.173,24.087 54.643 M61.264 54.680 C 61.507 54.908,62.038 55.089,62.819 55.210 C 63.944 55.384,64.013 55.420,64.145 55.905 C 64.314 56.531,64.285 56.575,63.859 56.347 C 63.373 56.087,62.732 56.125,62.424 56.433 C 61.940 56.917,60.669 55.670,60.667 54.708 C 60.667 54.243,60.793 54.237,61.264 54.680 M15.667 56.933 L 16.083 57.188 15.667 57.096 C 15.438 57.046,15.152 57.004,15.032 57.002 C 14.912 57.001,14.860 56.925,14.917 56.833 C 15.053 56.614,15.169 56.629,15.667 56.933 M71.033 56.951 C 70.240 57.011,70.154 57.055,70.199 57.377 C 70.245 57.700,70.133 57.757,69.083 57.938 C 67.080 58.283,66.907 58.321,65.793 58.666 C 64.280 59.133,63.878 60.305,64.931 61.179 C 65.121 61.336,65.096 61.422,64.788 61.681 C 64.468 61.950,64.451 62.018,64.667 62.173 C 65.296 62.625,68.988 61.842,69.840 61.076 C 70.059 60.879,70.215 60.881,70.901 61.087 C 72.408 61.541,72.462 60.849,70.958 60.344 C 70.385 60.152,69.826 59.938,69.716 59.868 C 69.592 59.789,70.305 59.336,71.591 58.676 C 72.733 58.090,73.666 57.568,73.664 57.514 C 73.652 57.034,72.676 56.825,71.033 56.951 M17.906 57.351 C 17.760 57.586,17.500 57.525,17.500 57.255 C 17.500 57.107,17.598 57.048,17.749 57.106 C 17.886 57.159,17.957 57.269,17.906 57.351 M16.540 69.038 C 16.444 69.154,15.982 70.011,15.511 70.942 C 14.393 73.156,14.086 73.369,13.450 72.375 C 13.229 72.029,12.388 72.129,12.051 72.542 C 11.882 72.748,11.468 73.058,11.130 73.230 C 8.819 74.410,9.782 75.813,12.443 75.143 C 12.899 75.028,13.244 75.013,13.309 75.106 C 13.368 75.190,13.586 75.332,13.793 75.421 L 14.170 75.583 13.829 76.219 C 13.641 76.569,13.389 77.240,13.269 77.711 L 13.050 78.567 11.891 78.762 C 8.624 79.312,7.079 82.398,10.313 81.916 L 11.042 81.807 10.688 82.304 C 10.167 83.035,10.659 84.119,11.225 83.489 C 11.343 83.357,12.116 82.500,12.943 81.583 C 14.528 79.826,14.558 79.778,14.941 78.335 C 15.215 77.299,15.929 76.100,16.657 75.451 C 17.655 74.562,17.563 72.927,16.520 73.027 L 15.889 73.087 16.025 72.502 C 16.100 72.180,16.317 71.252,16.507 70.440 C 16.854 68.953,16.861 68.646,16.540 69.038 M72.962 69.012 C 72.803 69.104,72.469 69.533,72.220 69.965 C 71.972 70.397,71.595 70.915,71.384 71.117 C 70.754 71.719,71.310 72.667,72.294 72.667 C 72.473 72.667,72.912 72.866,73.268 73.109 C 73.625 73.352,74.160 73.606,74.458 73.675 L 75.000 73.798 75.000 73.076 C 75.000 72.678,74.917 72.302,74.817 72.240 C 74.696 72.165,74.672 71.817,74.746 71.228 C 74.873 70.208,74.633 69.261,74.200 69.072 C 73.712 68.859,73.261 68.837,72.962 69.012 M67.320 71.766 C 66.717 72.493,67.766 74.200,69.294 74.980 C 70.051 75.366,70.935 75.446,71.037 75.139 C 71.086 74.991,71.354 74.993,72.147 75.150 C 74.507 75.614,74.808 73.861,72.517 72.991 C 71.488 72.600,70.687 72.569,70.578 72.917 C 70.313 73.766,70.308 73.771,70.124 73.375 C 70.028 73.169,69.895 73.000,69.828 73.000 C 69.762 73.000,69.615 72.779,69.503 72.508 C 69.140 71.630,67.808 71.178,67.320 71.766 M55.378 78.289 C 54.130 78.377,53.688 79.156,54.168 80.420 C 54.299 80.766,54.263 81.027,54.001 81.619 C 53.553 82.632,53.522 82.578,54.752 82.911 C 56.274 83.323,56.756 82.850,56.043 81.644 C 55.790 81.214,55.784 81.135,56.002 81.010 C 57.654 80.062,57.879 79.726,57.436 78.871 C 57.182 78.380,56.825 78.137,56.445 78.197 C 56.338 78.214,55.858 78.256,55.378 78.289 M26.083 86.625 C 26.542 87.759,26.548 87.845,26.186 88.229 C 25.320 89.151,27.463 93.036,28.597 92.601 C 28.843 92.507,30.728 93.696,32.054 94.781 L 32.526 95.167 32.043 95.167 C 31.778 95.167,31.131 95.087,30.605 94.990 C 29.894 94.858,29.491 94.865,29.033 95.014 C 28.156 95.300,27.838 95.831,28.542 95.836 C 29.422 95.841,29.681 96.006,29.413 96.389 C 28.275 98.014,30.110 98.943,36.917 100.188 C 38.448 100.468,38.394 100.429,38.058 100.999 C 37.895 101.274,37.706 101.500,37.639 101.500 C 37.439 101.500,36.967 102.621,37.029 102.948 C 37.170 103.690,38.711 103.349,40.038 102.283 L 40.659 101.784 41.788 102.336 C 42.624 102.745,43.272 103.254,44.285 104.298 C 45.739 105.795,46.312 106.021,46.112 105.018 C 46.033 104.621,45.162 103.123,44.842 102.833 C 44.190 102.242,43.676 101.321,43.949 101.233 C 44.115 101.180,44.400 101.075,44.583 101.000 C 44.767 100.925,45.967 100.515,47.250 100.088 C 48.533 99.662,49.733 99.246,49.917 99.165 C 50.100 99.083,50.625 98.897,51.083 98.751 C 51.542 98.606,52.217 98.350,52.583 98.184 C 52.950 98.017,53.472 97.827,53.744 97.762 C 55.900 97.241,57.735 94.798,56.421 94.199 C 56.021 94.017,55.838 93.667,56.143 93.667 C 56.397 93.667,57.423 92.604,58.054 91.687 C 58.862 90.512,58.921 89.464,58.203 89.051 C 57.789 88.814,57.739 88.693,57.744 87.934 L 57.750 87.083 57.035 87.032 C 55.824 86.944,52.540 88.262,50.292 89.738 C 49.847 90.030,49.656 89.910,50.007 89.560 C 50.236 89.331,49.797 88.952,49.479 89.105 C 49.353 89.166,48.462 90.051,47.500 91.073 C 45.356 93.349,45.119 93.536,45.195 92.885 C 45.337 91.674,44.054 92.545,42.965 94.398 C 42.525 95.146,41.953 95.544,42.330 94.839 C 42.480 94.560,42.429 94.472,41.985 94.242 C 41.699 94.095,40.974 93.487,40.374 92.893 C 39.774 92.299,39.238 91.883,39.183 91.970 C 39.102 92.098,37.945 91.271,35.663 89.452 C 35.220 89.098,34.258 88.398,34.035 88.266 C 33.873 88.170,33.846 88.244,33.928 88.569 C 33.996 88.838,33.967 89.000,33.851 89.000 C 33.750 89.000,33.667 89.159,33.667 89.353 C 33.667 89.613,33.590 89.681,33.375 89.614 C 32.852 89.449,30.758 88.663,30.417 88.503 C 30.233 88.417,29.521 88.182,28.833 87.981 C 27.666 87.639,27.401 87.463,26.655 86.542 C 26.389 86.213,25.942 86.278,26.083 86.625 M16.446 90.824 C 13.920 93.460,14.405 93.969,19.057 93.566 C 21.259 93.375,21.981 93.365,22.411 93.521 C 22.712 93.629,23.082 93.671,23.233 93.613 C 24.009 93.315,23.511 92.333,22.583 92.333 C 22.257 92.333,21.865 92.173,21.568 91.917 C 21.301 91.688,21.001 91.500,20.901 91.500 C 20.800 91.500,20.599 91.369,20.453 91.208 C 20.307 91.048,19.902 90.767,19.552 90.585 C 19.203 90.402,18.879 90.213,18.833 90.164 C 18.718 90.041,17.860 89.500,17.780 89.500 C 17.744 89.500,17.144 90.096,16.446 90.824 M55.901 90.022 C 55.726 90.218,55.102 90.836,54.513 91.397 C 53.924 91.958,53.311 92.542,53.152 92.694 C 52.922 92.914,52.730 92.942,52.222 92.829 C 51.871 92.750,51.371 92.641,51.111 92.586 L 50.639 92.487 51.097 92.126 C 52.916 90.695,56.831 88.981,55.901 90.022 M65.250 90.155 C 65.067 90.229,64.204 90.418,63.333 90.575 C 59.920 91.192,58.799 92.182,60.123 93.410 C 60.787 94.025,60.846 94.009,63.333 92.549 C 63.654 92.360,64.359 91.954,64.900 91.645 C 65.440 91.336,65.872 91.027,65.858 90.958 C 65.844 90.890,65.833 90.646,65.833 90.417 C 65.833 89.972,65.773 89.945,65.250 90.155 M37.708 92.245 C 38.336 92.563,38.587 92.916,38.042 92.715 C 37.660 92.574,36.500 91.851,36.500 91.753 C 36.500 91.665,36.831 91.800,37.708 92.245 M53.667 94.305 C 53.667 94.497,53.083 94.771,52.000 95.090 C 51.496 95.239,50.911 95.429,50.700 95.513 C 49.851 95.854,49.993 95.627,51.074 94.917 C 52.164 94.201,53.667 93.846,53.667 94.305 M41.570 94.934 C 41.715 94.990,41.833 95.108,41.833 95.196 C 41.833 95.428,41.122 95.289,41.041 95.042 C 40.966 94.815,41.157 94.776,41.570 94.934 M63.565 95.322 C 63.025 95.591,61.704 96.233,60.629 96.748 C 58.447 97.794,58.434 97.805,58.658 98.394 C 59.076 99.493,60.783 100.807,61.833 100.838 C 62.117 100.847,61.917 100.974,61.210 101.237 C 60.637 101.450,60.075 101.698,59.960 101.789 C 59.844 101.880,59.345 102.000,58.849 102.056 C 57.950 102.157,56.698 102.783,55.729 103.616 C 55.483 103.827,55.237 104.000,55.182 104.000 C 55.128 104.001,54.821 104.225,54.500 104.500 C 54.179 104.775,54.005 104.999,54.112 105.000 C 54.316 105.000,56.395 104.198,57.622 103.645 C 58.843 103.096,60.865 102.536,62.282 102.356 C 63.540 102.196,65.827 101.409,65.831 101.136 C 65.833 101.073,65.590 100.997,65.292 100.967 L 64.750 100.912 65.583 100.531 C 67.726 99.550,67.930 97.427,66.068 95.463 C 65.332 94.686,64.893 94.661,63.565 95.322 M17.786 95.756 C 15.422 97.168,15.143 98.578,16.996 99.748 C 19.522 101.342,25.500 100.748,25.500 98.903 C 25.500 98.788,25.541 98.588,25.590 98.459 C 25.653 98.295,25.464 98.159,24.965 98.009 C 24.005 97.722,22.175 96.789,20.820 95.896 C 19.476 95.011,19.064 94.992,17.786 95.756 M20.788 101.563 C 18.037 104.112,23.293 106.669,27.477 104.817 C 27.905 104.627,27.971 104.523,27.887 104.170 C 27.743 103.564,27.724 103.544,27.039 103.321 C 26.697 103.210,26.042 102.951,25.583 102.745 C 21.622 100.972,21.467 100.934,20.788 101.563 M33.583 102.678 C 33.033 103.037,32.474 103.383,32.340 103.447 C 32.133 103.545,27.429 106.633,26.657 107.178 C 26.513 107.279,25.838 107.731,25.157 108.184 C 23.010 109.607,22.769 109.785,21.945 110.554 C 20.975 111.458,20.909 112.050,21.769 112.134 C 22.311 112.187,26.681 110.075,29.333 108.480 C 30.021 108.066,31.511 107.172,32.645 106.494 C 35.148 104.996,35.178 104.957,35.030 103.347 C 34.894 101.865,34.856 101.847,33.583 102.678 M48.583 106.504 C 47.372 106.749,47.039 106.951,46.812 107.579 C 46.663 107.991,46.348 108.336,45.798 108.689 C 42.912 110.541,44.114 112.515,47.862 112.080 C 49.200 111.925,51.113 110.961,51.580 110.205 C 51.851 109.768,51.998 109.679,52.333 109.747 C 52.563 109.793,53.106 109.880,53.542 109.939 C 54.270 110.038,54.333 110.084,54.333 110.508 C 54.333 110.967,54.341 110.971,55.750 111.088 C 62.246 111.629,63.619 109.335,57.404 108.325 C 54.930 107.923,54.939 107.926,54.661 107.406 C 54.233 106.606,50.687 106.080,48.583 106.504 M38.417 119.833 C 35.273 120.214,35.088 120.267,35.048 120.807 C 35.026 121.093,35.186 121.170,36.185 121.348 C 37.145 121.520,37.327 121.602,37.228 121.820 C 36.682 123.018,37.088 124.340,38.138 124.790 C 40.514 125.807,46.500 124.097,46.500 122.401 C 46.500 122.194,47.902 121.673,48.489 121.661 C 48.910 121.653,49.425 121.192,49.230 120.997 C 49.137 120.904,48.204 120.755,47.156 120.666 C 44.986 120.481,44.948 120.475,42.917 120.014 C 41.385 119.667,40.191 119.619,38.417 119.833 " stroke="none" fill="#1c2c54" fill-rule="evenodd"></path><path id="path1" d="" stroke="none" fill="#1c2c5c" fill-rule="evenodd"></path><path id="path2" d="M77.749 75.583 C 77.749 102.442,77.768 113.404,77.792 99.945 C 77.815 86.485,77.815 64.510,77.792 51.112 C 77.768 37.713,77.749 48.725,77.749 75.583 M160.415 75.667 C 160.415 95.329,160.435 103.373,160.458 93.542 C 160.482 83.710,160.482 67.623,160.458 57.792 C 160.435 47.960,160.415 56.004,160.415 75.667 " stroke="none" fill="#202c54" fill-rule="evenodd"></path><path id="path3" d="M77.749 75.583 C 77.749 102.442,77.768 113.404,77.792 99.945 C 77.815 86.485,77.815 64.510,77.792 51.112 C 77.768 37.713,77.749 48.725,77.749 75.583 M160.415 75.667 C 160.415 95.329,160.435 103.373,160.458 93.542 C 160.482 83.710,160.482 67.623,160.458 57.792 C 160.435 47.960,160.415 56.004,160.415 75.667 " stroke="none" fill="#202c54" fill-rule="evenodd"></path><path id="path4" d="M77.749 75.583 C 77.749 102.442,77.768 113.404,77.792 99.945 C 77.815 86.485,77.815 64.510,77.792 51.112 C 77.768 37.713,77.749 48.725,77.749 75.583 M160.415 75.667 C 160.415 95.329,160.435 103.373,160.458 93.542 C 160.482 83.710,160.482 67.623,160.458 57.792 C 160.435 47.960,160.415 56.004,160.415 75.667 " stroke="none" fill="#202c54" fill-rule="evenodd"></path></g></svg>
