<?xml version="1.0" standalone="no"?>
<!DOCTYPE svg PUBLIC "-//W3C//DTD SVG 20010904//EN"
 "http://www.w3.org/TR/2001/REC-SVG-20010904/DTD/svg10.dtd">
<svg version="1.0" xmlns="http://www.w3.org/2000/svg"
 width="1200.000000pt" height="1224.000000pt" viewBox="0 0 1200.000000 1224.000000"
 preserveAspectRatio="xMidYMid meet">
<metadata>
Created by potrace 1.16, written by Peter Selinger 2001-2019
</metadata>
<g transform="translate(0.000000,1224.000000) scale(0.100000,-0.100000)"
fill="#000000" stroke="none">
<path d="M6288 12177 c-303 -217 -540 -494 -690 -807 -42 -88 -88 -213 -88
-240 0 -10 -8 -21 -17 -24 -138 -39 -186 -56 -288 -98 -244 -102 -475 -221
-661 -343 l-81 -53 -98 34 c-116 41 -252 75 -390 100 -144 26 -562 27 -725 1
-214 -34 -432 -94 -597 -164 l-81 -35 -8 -86 c-15 -180 10 -506 57 -740 68
-341 228 -724 400 -958 35 -48 36 -52 23 -82 -7 -18 -10 -32 -7 -32 3 0 1 -6
-4 -12 -35 -45 -65 -43 683 -40 387 1 703 6 702 10 -3 8 97 207 156 310 97
171 268 400 406 546 68 71 242 223 330 287 169 124 524 282 810 361 79 21 147
41 151 43 7 5 132 28 304 56 178 30 627 38 825 15 394 -46 672 -124 1000 -282
322 -155 520 -287 759 -504 145 -131 226 -215 345 -355 106 -125 243 -315 283
-392 9 -18 20 -33 25 -33 4 0 14 -13 23 -30 l15 -29 200 -3 c110 -2 200 -1
200 2 0 3 -7 28 -16 55 -9 28 -18 63 -21 78 -13 75 -124 352 -214 534 -154
311 -354 597 -603 861 -77 83 -78 84 -72 125 22 145 27 224 21 317 -11 183
-59 365 -142 543 l-46 97 -141 0 c-282 0 -524 -63 -738 -191 l-81 -49 -61 24
c-287 114 -447 161 -735 215 l-144 26 -42 105 c-114 291 -295 527 -563 738
-94 73 -237 162 -261 162 -9 0 -55 -29 -103 -63z"/>
<path d="M7031 8920 c-198 -36 -370 -94 -551 -185 -48 -24 -100 -55 -117 -69
-17 -14 -32 -24 -34 -22 -2 2 -15 -7 -29 -20 l-25 -24 1158 0 c1123 0 1156 1
1140 18 -10 11 -21 17 -25 15 -3 -2 -8 1 -10 6 -1 5 -10 11 -18 13 -8 2 -17 6
-20 9 -27 31 -324 152 -475 194 -229 62 -341 77 -630 81 -223 3 -275 0 -364
-16z"/>
<path d="M1111 2469 c-541 -57 -992 -478 -1086 -1013 -20 -115 -20 -335 1
-450 71 -405 333 -748 694 -907 151 -67 260 -91 450 -96 187 -6 280 7 435 58
345 115 639 410 755 759 42 125 60 232 67 393 l6 157 -684 -2 -684 -3 -3 -152
-3 -153 501 0 c368 0 500 -3 500 -11 0 -30 -46 -162 -81 -229 -51 -101 -86
-151 -156 -223 -78 -80 -142 -128 -238 -176 -124 -62 -226 -85 -375 -84 -156
1 -244 22 -390 95 -93 46 -117 64 -205 153 -105 105 -145 163 -200 292 -96
224 -92 507 10 730 138 301 432 504 763 529 211 15 459 -74 664 -239 33 -27
61 -47 62 -45 2 2 46 58 99 125 54 67 97 124 97 127 0 2 -33 31 -72 64 -213
174 -440 274 -683 302 -101 11 -125 11 -244 -1z"/>
<path d="M6116 2304 c-197 -48 -352 -201 -400 -395 -14 -58 -16 -172 -16 -977
l0 -912 165 0 165 0 0 675 0 675 260 0 260 0 0 150 0 150 -261 0 -261 0 3 83
c4 72 8 90 34 133 19 30 49 60 79 79 l49 30 181 3 181 3 50 117 c28 64 58 136
67 159 l18 43 -258 -1 c-186 0 -273 -5 -316 -15z"/>
<path d="M4380 1694 c-145 -28 -301 -98 -406 -183 -130 -106 -240 -279 -285
-447 -30 -113 -30 -287 0 -409 76 -310 298 -535 626 -632 86 -26 315 -25 405
1 120 35 276 118 319 170 25 30 31 16 31 -79 l0 -95 150 0 150 0 0 830 0 830
-150 0 -150 0 0 -100 0 -101 -27 26 c-71 67 -209 141 -318 171 -59 16 -290 28
-345 18z m302 -364 c228 -70 387 -325 349 -559 -22 -133 -116 -276 -234 -354
-202 -134 -481 -95 -647 90 -88 98 -130 208 -130 343 0 141 56 267 163 366
140 131 315 171 499 114z"/>
<path d="M7270 1685 c-255 -57 -470 -226 -589 -462 -59 -118 -76 -200 -76
-368 1 -127 4 -162 24 -230 80 -275 283 -489 549 -579 264 -90 544 -45 766
123 l66 50 0 -99 0 -100 145 0 145 0 0 830 0 830 -145 0 -145 0 0 -100 0 -100
-51 40 c-80 63 -165 109 -264 142 -80 28 -106 31 -225 34 -93 3 -155 -1 -200
-11z m260 -335 c189 -30 360 -183 411 -368 67 -240 -49 -490 -276 -598 -268
-128 -596 14 -694 298 -101 294 90 614 399 668 65 11 87 11 160 0z"/>
<path d="M9225 1690 c-72 -15 -173 -58 -235 -99 l-60 -40 0 64 0 65 -140 0
-140 0 0 -830 0 -830 168 2 167 3 5 540 5 540 25 50 c31 64 112 145 172 173
178 83 394 8 483 -167 41 -81 46 -165 43 -674 l-3 -467 168 0 167 0 0 533 c0
501 -1 539 -20 613 -62 244 -228 423 -470 504 -72 24 -263 36 -335 20z"/>
<path d="M10965 1685 c-178 -39 -318 -117 -441 -246 -103 -109 -168 -223 -210
-369 -26 -92 -26 -326 0 -425 86 -326 348 -569 681 -632 96 -18 259 -13 350
12 90 25 212 85 288 143 l67 51 0 -99 0 -100 145 0 145 0 0 830 0 830 -145 0
-145 0 0 -101 0 -100 -42 34 c-116 93 -224 145 -353 172 -89 18 -258 18 -340
0z m255 -335 c86 -14 192 -66 259 -126 274 -247 210 -682 -124 -840 -270 -129
-598 14 -693 302 -30 90 -36 168 -18 254 43 206 194 361 396 404 81 18 99 18
180 6z"/>
<path d="M2680 850 l0 -830 170 0 170 0 0 518 0 517 24 57 c29 71 75 129 132
169 72 49 118 61 263 68 l134 6 63 160 c35 88 64 161 64 162 0 2 -93 3 -207 3
-281 -1 -396 -24 -504 -100 l-29 -21 0 60 0 61 -140 0 -140 0 0 -830z"/>
</g>
</svg>
