<?xml version="1.0" encoding="utf-8"?>
<!-- Generator: Adobe Illustrator 19.0.0, SVG Export Plug-In . SVG Version: 6.00 Build 0)  -->
<svg version="1.1" id="Layer_1" xmlns="http://www.w3.org/2000/svg" xmlns:xlink="http://www.w3.org/1999/xlink" x="0px" y="0px"
	 viewBox="0 0 500 500" style="enable-background:new 0 0 500 500;" xml:space="preserve">
<style type="text/css">
	.st0{fill:#00A9E5;}
	.st1{fill:#353535;}
	.st2{fill:#00BFB3;}
	.st3{fill:#019B8F;}
	.st4{fill:#F9B110;}
	.st5{fill:#FED10A;}
</style>
<g id="XMLID_1_">
	<path id="XMLID_6_" d="M167.3,261.9c-3.8,0-6.7-1.2-8.9-3.5c-2.1-2.4-3.2-5.6-3.2-9.7c0-4.2,1-7.6,3-10c2-2.4,4.7-3.6,8.1-3.6
		c3.2,0,5.7,1,7.6,3.1c1.9,2.1,2.8,4.9,2.8,8.6v3h-16.2c0.1,2.5,0.7,4.4,1.9,5.8c1.2,1.4,2.9,2,5.1,2c1.4,0,2.8-0.1,4-0.4
		c1.2-0.3,2.6-0.8,4-1.4v4.5c-1.3,0.6-2.5,1.1-3.8,1.4C170.4,261.8,169,261.9,167.3,261.9z M166.4,239.3c-1.6,0-3,0.6-3.9,1.7
		c-1,1.1-1.6,2.7-1.8,4.9h11c0-2.1-0.5-3.8-1.4-4.9C169.3,239.8,168,239.3,166.4,239.3z"/>
	<rect id="XMLID_7_" x="182.6" y="225" width="5.2" height="36.5"/>
	<path id="XMLID_23_" d="M210.3,261.5l-1-3.6h-0.2c-1.2,1.6-2.3,2.7-3.5,3.2c-1.2,0.6-2.7,0.9-4.6,0.9c-2.4,0-4.2-0.7-5.6-2.1
		c-1.3-1.4-2-3.3-2-5.8c0-2.7,0.9-4.7,2.8-6c1.9-1.4,4.7-2.1,8.5-2.2l4.2-0.1v-1.4c0-1.7-0.4-2.9-1.1-3.7c-0.7-0.8-1.8-1.2-3.4-1.2
		c-1.2,0-2.4,0.2-3.6,0.6c-1.1,0.4-2.2,0.9-3.3,1.4l-1.7-3.9c1.3-0.7,2.8-1.3,4.3-1.7c1.6-0.4,3-0.6,4.4-0.6c3.1,0,5.4,0.7,7,2.2
		c1.6,1.4,2.4,3.7,2.4,6.8v17.5H210.3z M202.7,257.7c1.9,0,3.4-0.6,4.5-1.7c1.1-1.1,1.7-2.7,1.7-4.7v-2.3l-3.1,0.1
		c-2.4,0.1-4.2,0.5-5.3,1.3c-1.1,0.8-1.7,2-1.7,3.6c0,1.2,0.3,2.1,1,2.7C200.4,257.4,201.4,257.7,202.7,257.7z"/>
	<path id="XMLID_24_" d="M237.5,254.1c0,2.5-0.9,4.5-2.6,5.8c-1.7,1.4-4.2,2-7.4,2c-3.2,0-5.8-0.5-7.8-1.6v-4.8
		c2.9,1.4,5.5,2.1,8,2.1c3.2,0,4.8-1,4.8-3.1c0-0.7-0.2-1.2-0.5-1.6c-0.4-0.4-0.9-0.9-1.7-1.4c-0.8-0.5-1.9-1-3.4-1.6
		c-2.8-1.2-4.7-2.3-5.7-3.5c-1-1.2-1.5-2.7-1.5-4.5c0-2.2,0.8-3.9,2.5-5.2c1.7-1.2,4-1.8,6.8-1.8c2.9,0,5.6,0.6,8.1,1.9l-1.7,4.1
		c-2.6-1.2-4.8-1.7-6.6-1.7c-2.7,0-4.1,0.8-4.1,2.5c0,0.8,0.4,1.5,1.1,2.1c0.7,0.6,2.3,1.3,4.6,2.3c2,0.8,3.5,1.6,4.4,2.3
		c0.9,0.7,1.6,1.5,2,2.4C237.3,251.8,237.5,252.8,237.5,254.1z"/>
	<path id="XMLID_25_" d="M252.2,257.5c1.3,0,2.5-0.2,3.8-0.6v4.1c-0.6,0.3-1.3,0.5-2.2,0.7c-0.9,0.2-1.8,0.3-2.8,0.3
		c-4.9,0-7.3-2.8-7.3-8.3v-14h-3.3v-2.4l3.6-2l1.8-5.5h3.2v5.8h6.9v4.2h-6.9v13.9c0,1.3,0.3,2.3,0.9,2.9
		C250.3,257.2,251.2,257.5,252.2,257.5z"/>
	<path id="XMLID_31_" d="M260.5,228.7c0-1,0.3-1.7,0.8-2.3c0.5-0.5,1.2-0.8,2.2-0.8c0.9,0,1.6,0.3,2.1,0.8c0.5,0.5,0.8,1.3,0.8,2.3
		c0,0.9-0.3,1.7-0.8,2.2c-0.5,0.5-1.2,0.8-2.1,0.8c-0.9,0-1.7-0.3-2.2-0.8C260.7,230.4,260.5,229.6,260.5,228.7z M266,261.5h-5.2
		v-25.9h5.2V261.5z"/>
	<path id="XMLID_32_" d="M283.1,261.9c-3.7,0-6.5-1.1-8.4-3.4c-1.9-2.3-2.9-5.6-2.9-9.9c0-4.4,1-7.7,3-10.1c2-2.3,4.9-3.5,8.7-3.5
		c2.6,0,4.9,0.5,6.9,1.5l-1.6,4.4c-2.2-0.9-4-1.4-5.4-1.4c-4.2,0-6.3,3-6.3,8.9c0,2.9,0.5,5.1,1.6,6.6c1,1.5,2.6,2.2,4.6,2.2
		c2.3,0,4.5-0.6,6.5-1.8v4.8c-0.9,0.6-1.9,1-3,1.2S284.6,261.9,283.1,261.9z"/>
	<path id="XMLID_33_" d="M311.9,254.1c0,2.5-0.9,4.5-2.6,5.8s-4.2,2-7.4,2c-3.2,0-5.8-0.5-7.8-1.6v-4.8c2.9,1.4,5.5,2.1,8,2.1
		c3.2,0,4.8-1,4.8-3.1c0-0.7-0.2-1.2-0.5-1.6c-0.4-0.4-0.9-0.9-1.7-1.4c-0.8-0.5-1.9-1-3.4-1.6c-2.8-1.2-4.7-2.3-5.7-3.5
		c-1-1.2-1.5-2.7-1.5-4.5c0-2.2,0.8-3.9,2.5-5.2c1.7-1.2,4-1.8,6.8-1.8c2.9,0,5.6,0.6,8.1,1.9l-1.7,4.1c-2.6-1.2-4.8-1.7-6.6-1.7
		c-2.7,0-4.1,0.8-4.1,2.5c0,0.8,0.4,1.5,1.1,2.1s2.3,1.3,4.6,2.3c2,0.8,3.5,1.6,4.4,2.3c0.9,0.7,1.6,1.5,2,2.4
		C311.7,251.8,311.9,252.8,311.9,254.1z"/>
	<path id="XMLID_36_" d="M328.1,261.9c-3.8,0-6.7-1.2-8.9-3.5c-2.1-2.4-3.2-5.6-3.2-9.7c0-4.2,1-7.6,3-10c2-2.4,4.7-3.6,8.1-3.6
		c3.2,0,5.7,1,7.6,3.1c1.9,2.1,2.8,4.9,2.8,8.6v3h-16.2c0.1,2.5,0.7,4.4,1.9,5.8c1.2,1.4,2.9,2,5.1,2c1.4,0,2.8-0.1,4-0.4
		c1.2-0.3,2.6-0.8,4-1.4v4.5c-1.3,0.6-2.5,1.1-3.8,1.4C331.2,261.8,329.7,261.9,328.1,261.9z M327.2,239.3c-1.6,0-3,0.6-3.9,1.7
		c-1,1.1-1.6,2.7-1.8,4.9h11c0-2.1-0.5-3.8-1.4-4.9C330.1,239.8,328.8,239.3,327.2,239.3z"/>
	<path id="XMLID_40_" d="M358.6,261.5l-1-3.6h-0.2c-1.2,1.6-2.3,2.7-3.5,3.2c-1.2,0.6-2.7,0.9-4.6,0.9c-2.4,0-4.2-0.7-5.6-2.1
		s-2-3.3-2-5.8c0-2.7,0.9-4.7,2.8-6c1.9-1.4,4.7-2.1,8.5-2.2l4.2-0.1v-1.4c0-1.7-0.4-2.9-1.1-3.7c-0.7-0.8-1.8-1.2-3.4-1.2
		c-1.2,0-2.4,0.2-3.6,0.6c-1.1,0.4-2.2,0.9-3.3,1.4l-1.7-3.9c1.3-0.7,2.8-1.3,4.3-1.7c1.6-0.4,3-0.6,4.4-0.6c3.1,0,5.4,0.7,7,2.2
		c1.6,1.4,2.4,3.7,2.4,6.8v17.5H358.6z M350.9,257.7c1.9,0,3.4-0.6,4.5-1.7c1.1-1.1,1.7-2.7,1.7-4.7v-2.3l-3.1,0.1
		c-2.4,0.1-4.2,0.5-5.3,1.3c-1.1,0.8-1.7,2-1.7,3.6c0,1.2,0.3,2.1,1,2.7C348.7,257.4,349.6,257.7,350.9,257.7z"/>
	<path id="XMLID_41_" d="M381.8,235.1c1,0,1.9,0.1,2.6,0.2l-0.5,5.1c-0.7-0.2-1.5-0.3-2.3-0.3c-2.1,0-3.7,0.7-5,2.2
		c-1.3,1.4-1.9,3.3-1.9,5.6v13.5h-5.2v-25.9h4l0.7,4.6h0.3c0.8-1.5,1.9-2.8,3.2-3.7C378.9,235.5,380.3,235.1,381.8,235.1z"/>
	<path id="XMLID_42_" d="M398.7,261.9c-3.7,0-6.5-1.1-8.4-3.4c-1.9-2.3-2.9-5.6-2.9-9.9c0-4.4,1-7.7,3-10.1c2-2.3,4.9-3.5,8.7-3.5
		c2.6,0,4.9,0.5,6.9,1.5l-1.6,4.4c-2.2-0.9-4-1.4-5.4-1.4c-4.2,0-6.3,3-6.3,8.9c0,2.9,0.5,5.1,1.6,6.6c1,1.5,2.6,2.2,4.6,2.2
		c2.3,0,4.5-0.6,6.5-1.8v4.8c-0.9,0.6-1.9,1-3,1.2S400.2,261.9,398.7,261.9z"/>
	<path id="XMLID_46_" d="M432.5,261.5h-5.2v-15.9c0-2-0.4-3.5-1.1-4.5c-0.8-1-2-1.5-3.6-1.5c-2.2,0-3.8,0.7-4.8,2.1
		s-1.5,3.7-1.5,6.9v12.9h-5.2V225h5.2v9.3c0,1.5-0.1,3.1-0.3,4.8h0.3c0.7-1.3,1.7-2.2,2.9-2.9s2.7-1,4.4-1c5.9,0,8.8,3.2,8.8,9.5
		V261.5z"/>
	<path id="XMLID_47_" class="st0" d="M119.1,238H99.5c0.1,0.5,0.3,1,0.4,1.4c0.6,2.4,1,4.9,1.2,7.5c0.1,1,0.1,2.1,0.1,3.1
		s0,2.1-0.1,3.1c-0.2,2.6-0.6,5.1-1.2,7.5c-0.1,0.5-0.3,1-0.4,1.4h19.6c6.2,0,11.2-5.4,11.2-12C130.3,243.4,125.3,238,119.1,238z"/>
	<path id="XMLID_48_" class="st1" d="M101.1,253.1c0.1-1,0.1-2.1,0.1-3.1s0-2.1-0.1-3.1c-0.2-2.6-0.6-5.1-1.2-7.5
		c-0.1-0.5-0.3-1-0.4-1.4H69.2c-1.1,3.8-1.7,7.8-1.7,12s0.6,8.2,1.7,12h30.3c0.1-0.5,0.3-1,0.4-1.4
		C100.5,258.2,100.9,255.7,101.1,253.1z"/>
	<path id="XMLID_49_" class="st2" d="M122.5,266H98.1c-0.7,1.8-1.6,3.5-2.5,5.1c-1.4,2.5-3.1,4.7-5,6.8c-0.6,0.7-1.3,1.3-1.9,2
		c-1.3,1.3-2.8,2.4-4.3,3.5c5.9,4.2,13,6.6,20.6,6.6c13,0,24.5-7.1,31.2-17.8C132.7,268.4,127.9,266,122.5,266z"/>
	<path id="XMLID_54_" class="st3" d="M95.6,271.1c1-1.6,1.8-3.3,2.5-5.1H70.6c2.9,7.1,7.7,13.2,13.7,17.4c1.5-1.1,2.9-2.2,4.3-3.5
		c0.7-0.6,1.3-1.3,1.9-2C92.5,275.9,94.1,273.6,95.6,271.1z"/>
	<path id="XMLID_55_" class="st4" d="M90.6,222.1c-0.6-0.7-1.3-1.3-1.9-2c-1.3-1.3-2.8-2.4-4.3-3.5c-6,4.2-10.8,10.3-13.7,17.4h27.5
		c-0.7-1.8-1.6-3.5-2.5-5.1C94.1,226.4,92.5,224.1,90.6,222.1z"/>
	<path id="XMLID_56_" class="st5" d="M105,210c-7.6,0-14.7,2.4-20.6,6.6c1.5,1.1,2.9,2.2,4.3,3.5c0.7,0.6,1.3,1.3,1.9,2
		c1.9,2.1,3.6,4.3,5,6.8c1,1.6,1.8,3.3,2.5,5.1h24.4c5.4,0,10.2-2.4,13.7-6.2C129.4,217.1,118,210,105,210z"/>
</g>
</svg>
