<?xml version="1.0" standalone="no"?>
<!DOCTYPE svg PUBLIC "-//W3C//DTD SVG 20010904//EN"
 "http://www.w3.org/TR/2001/REC-SVG-20010904/DTD/svg10.dtd">
<svg version="1.0" xmlns="http://www.w3.org/2000/svg"
 width="200.000000pt" height="200.000000pt" viewBox="0 0 200.000000 200.000000"
 preserveAspectRatio="xMidYMid meet">
<metadata>
Created by potrace 1.16, written by Peter Selinger 2001-2019
</metadata>
<g transform="translate(0.000000,200.000000) scale(0.100000,-0.100000)"
fill="#000000" stroke="none">
<path d="M90 1340 l0 -30 180 0 180 0 0 30 0 30 -180 0 -180 0 0 -30z"/>
<path d="M490 1341 l0 -31 255 0 c140 0 255 4 255 8 0 4 -15 17 -32 27 -30 18
-55 20 -255 23 l-223 3 0 -30z"/>
<path d="M1090 1340 l0 -30 160 0 c88 0 160 2 160 5 0 2 -5 16 -12 30 l-11 25
-149 0 -148 0 0 -30z"/>
<path d="M1606 1348 c-3 -13 -6 -26 -6 -30 0 -5 70 -8 155 -8 l155 0 0 30 0
30 -149 0 c-146 0 -149 0 -155 -22z"/>
<path d="M90 1240 l0 -30 180 0 180 0 0 30 0 30 -180 0 -180 0 0 -30z"/>
<path d="M490 1240 l0 -30 285 0 c301 0 296 -1 279 44 -5 14 -40 16 -285 16
l-279 0 0 -30z"/>
<path d="M1090 1240 l0 -30 175 0 c96 0 175 3 175 8 0 4 -3 17 -6 30 -6 22 -9
22 -175 22 l-169 0 0 -30z"/>
<path d="M1570 1244 c-6 -14 -10 -27 -10 -30 0 -2 79 -4 175 -4 l175 0 0 30 0
30 -165 0 -165 0 -10 -26z"/>
<path d="M590 1050 l0 -30 203 0 c182 0 206 2 219 18 37 43 40 42 -196 42
l-226 0 0 -30z"/>
<path d="M1190 1050 l0 -30 310 0 310 0 0 30 0 30 -150 0 c-136 0 -150 -2
-150 -17 -1 -17 -1 -17 -11 0 -9 15 -28 17 -159 17 l-150 0 0 -30z"/>
<path d="M590 950 l0 -30 226 0 c236 0 233 -1 196 43 -13 15 -37 17 -219 17
l-203 0 0 -30z"/>
<path d="M90 760 l0 -30 180 0 180 0 0 30 0 30 -180 0 -180 0 0 -30z"/>
<path d="M490 760 l0 -30 279 0 c245 0 280 2 285 16 17 45 22 44 -279 44
l-285 0 0 -30z"/>
<path d="M1100 760 l0 -30 130 0 130 0 0 30 0 30 -130 0 -130 0 0 -30z"/>
<path d="M1650 760 l0 -30 130 0 130 0 0 30 0 30 -130 0 -130 0 0 -30z"/>
<path d="M90 660 l0 -30 180 0 180 0 0 30 0 30 -180 0 -180 0 0 -30z"/>
<path d="M490 659 l0 -30 223 3 c200 3 225 5 255 23 17 10 32 23 32 27 0 4
-115 8 -255 8 l-255 0 0 -31z"/>
<path d="M1100 660 l0 -30 130 0 130 0 0 30 0 30 -130 0 -130 0 0 -30z"/>
<path d="M1650 660 l0 -30 130 0 130 0 0 30 0 30 -130 0 -130 0 0 -30z"/>
</g>
</svg>
