<?xml version="1.0" standalone="no"?>
<!DOCTYPE svg PUBLIC "-//W3C//DTD SVG 20010904//EN"
 "http://www.w3.org/TR/2001/REC-SVG-20010904/DTD/svg10.dtd">
<svg version="1.0" xmlns="http://www.w3.org/2000/svg"
 width="2160.000000pt" height="234.000000pt" viewBox="0 0 2160.000000 234.000000"
 preserveAspectRatio="xMidYMid meet">

<g transform="translate(0.000000,234.000000) scale(0.100000,-0.100000)"
fill="#000000" stroke="none">
<path d="M479 1713 c-436 -581 -464 -621 -467 -664 -3 -41 0 -48 28 -72 l32
-27 327 0 c247 0 330 3 341 12 8 7 7 4 -2 -7 -34 -43 -80 -131 -103 -199 -63
-189 -30 -416 84 -583 52 -75 139 -162 149 -147 4 6 189 252 412 548 551 731
530 701 530 747 0 26 -8 47 -24 66 l-24 28 -336 3 c-185 1 -336 5 -336 8 0 2
12 23 26 45 118 187 119 463 3 666 -31 53 -153 193 -169 193 -4 0 -216 -278
-471 -617z m361 -627 c0 -2 -8 -10 -17 -17 -16 -13 -17 -12 -4 4 13 16 21 21
21 13z m-30 -40 c0 -2 -8 -10 -17 -17 -16 -13 -17 -12 -4 4 13 16 21 21 21 13z
m-30 -40 c0 -2 -8 -10 -17 -17 -16 -13 -17 -12 -4 4 13 16 21 21 21 13z"/>
<path d="M20460 1245 l0 -955 115 0 115 0 2 314 3 314 293 -314 293 -314 157
0 156 0 -45 48 c-25 26 -173 179 -328 341 -155 161 -281 297 -279 301 2 4 140
150 308 325 168 174 307 321 308 326 2 5 -60 9 -141 9 l-144 0 -284 -309
c-156 -170 -287 -310 -291 -310 -5 -1 -8 265 -8 589 l0 590 -115 0 -115 0 0
-955z"/>
<path d="M3764 2150 c-18 -6 -46 -26 -62 -45 -50 -56 -54 -133 -12 -202 54
-88 197 -89 263 -1 28 38 35 131 13 172 -35 65 -126 99 -202 76z"/>
<path d="M12363 2140 c-101 -45 -122 -179 -41 -257 109 -104 272 -33 273 118
0 70 -21 104 -85 137 -54 27 -92 28 -147 2z"/>
<path d="M7518 2079 c-142 -21 -276 -86 -356 -173 -155 -168 -142 -473 25
-626 97 -88 201 -132 543 -225 172 -46 284 -115 318 -195 23 -54 19 -159 -8
-214 -45 -93 -138 -136 -307 -144 -188 -8 -415 32 -594 103 -48 19 -89 35 -93
35 -3 0 -6 -53 -6 -119 l0 -118 68 -31 c167 -76 317 -105 552 -105 191 0 275
14 387 67 162 77 247 210 260 406 10 154 -28 270 -117 359 -89 89 -203 140
-475 216 -205 56 -319 108 -369 166 -82 96 -54 248 58 314 129 75 429 73 652
-6 49 -17 106 -40 127 -50 l37 -19 0 120 0 121 -76 35 c-170 79 -425 113 -626
83z"/>
<path d="M3128 1373 c-3 -683 -3 -688 -25 -728 -27 -52 -68 -90 -118 -111 -57
-24 -217 -22 -307 4 l-68 19 0 -117 c0 -134 -8 -122 103 -146 89 -18 245 -18
326 1 160 38 264 143 317 321 16 54 18 123 21 752 l4 692 -125 0 -125 0 -3
-687z"/>
<path d="M16050 1176 l0 -886 363 5 c438 7 481 9 577 34 353 93 545 358 567
782 15 285 -62 544 -209 704 -98 107 -207 172 -368 217 -70 20 -102 22 -502
26 l-428 3 0 -885z m858 630 c102 -26 171 -65 243 -136 73 -73 108 -135 141
-255 29 -107 32 -373 5 -479 -38 -151 -129 -278 -244 -339 -107 -57 -182 -69
-480 -74 l-273 -6 0 658 0 657 273 -5 c208 -3 287 -8 335 -21z"/>
<path d="M8995 1654 c-214 -47 -372 -193 -440 -408 -38 -117 -50 -253 -36
-380 36 -318 194 -506 486 -577 169 -42 443 -27 602 32 l53 20 0 109 0 109
-55 -19 c-160 -55 -454 -66 -579 -21 -78 28 -149 74 -186 121 -39 49 -77 133
-86 188 l-7 42 493 0 493 0 -6 148 c-8 236 -59 382 -172 498 -99 101 -204 143
-380 149 -76 3 -131 0 -180 -11z m287 -224 c107 -41 176 -134 203 -276 8 -41
15 -80 15 -85 0 -5 -158 -9 -380 -9 l-381 0 7 38 c43 243 199 374 424 355 36
-3 86 -13 112 -23z"/>
<path d="M13410 1664 c-14 -2 -52 -9 -85 -15 -193 -35 -365 -166 -442 -338
-62 -139 -83 -382 -47 -544 50 -226 196 -391 404 -460 171 -57 429 -57 573 0
l37 15 0 103 0 102 -77 -18 c-43 -11 -123 -22 -178 -25 -234 -13 -405 67 -492
232 -42 81 -57 152 -56 264 4 292 188 469 490 470 80 0 201 -21 258 -44 20 -9
39 -16 41 -16 2 0 4 47 4 106 l0 105 -35 15 c-74 30 -154 46 -260 49 -60 2
-121 2 -135 -1z"/>
<path d="M14543 1659 c-66 -11 -169 -50 -224 -85 -199 -125 -307 -399 -278
-705 28 -292 179 -486 441 -567 181 -56 465 -48 641 18 l57 21 0 106 c0 104 0
105 -22 99 -163 -47 -193 -51 -373 -50 -161 0 -186 2 -240 22 -130 48 -217
137 -256 261 -10 35 -19 69 -19 77 0 12 75 14 490 14 l490 0 0 113 c0 382
-149 611 -436 672 -75 16 -189 18 -271 4z m280 -236 c62 -28 114 -78 147 -144
21 -41 49 -153 50 -196 l0 -23 -376 0 -376 0 7 45 c22 151 106 271 222 321 92
40 233 38 326 -3z"/>
<path d="M18278 1660 c-252 -46 -420 -205 -489 -465 -29 -106 -32 -335 -6
-440 48 -194 154 -329 319 -409 126 -61 218 -79 398 -79 152 0 253 16 357 54
l53 20 0 105 c0 116 2 113 -71 89 -129 -43 -380 -58 -510 -31 -136 29 -229 98
-284 209 -19 40 -38 91 -41 115 l-7 42 493 0 493 0 -6 143 c-14 354 -138 556
-387 631 -64 20 -244 29 -312 16z m232 -220 c126 -33 213 -157 234 -332 l6
-48 -375 0 -375 0 0 29 c0 41 33 142 63 194 83 142 262 204 447 157z"/>
<path d="M4822 1649 c-58 -11 -145 -52 -192 -89 -21 -17 -56 -56 -77 -88 l-38
-57 -3 113 -3 112 -109 0 -110 0 0 -675 0 -675 110 0 110 0 0 403 c0 221 5
433 10 471 27 183 141 268 363 269 l107 0 0 113 0 114 -62 -1 c-35 -1 -82 -5
-106 -10z"/>
<path d="M5497 1646 c-283 -82 -446 -396 -408 -785 29 -289 150 -491 336 -560
232 -87 498 -14 617 171 l33 51 3 -117 3 -116 114 0 115 0 0 675 0 675 -115 0
-114 0 -3 -111 -3 -111 -40 58 c-47 69 -117 124 -194 155 -71 28 -268 36 -344
15z m323 -212 c132 -39 214 -134 246 -283 18 -87 18 -289 -1 -369 -48 -203
-192 -310 -405 -300 -232 11 -344 169 -344 483 0 227 56 358 182 432 90 53
219 68 322 37z"/>
<path d="M10528 1644 c-32 -7 -79 -24 -105 -38 -43 -21 -130 -105 -175 -167
-17 -23 -17 -20 -18 89 l0 112 -110 0 -110 0 0 -675 0 -675 110 0 110 0 0 413
c0 497 6 541 85 635 54 65 217 110 341 96 l54 -7 0 117 0 116 -62 -1 c-35 0
-89 -7 -120 -15z"/>
<path d="M19507 1645 c-134 -34 -228 -104 -276 -205 -23 -48 -26 -68 -26 -155
0 -94 2 -105 33 -168 59 -118 162 -181 412 -247 141 -37 213 -66 252 -98 81
-69 77 -186 -10 -246 -56 -38 -119 -49 -240 -43 -129 6 -248 35 -359 87 l-83
39 0 -124 0 -124 53 -19 c169 -62 245 -76 412 -76 214 1 333 40 424 140 68 75
96 161 88 275 -14 203 -128 303 -444 390 -227 62 -290 98 -314 180 -10 32 -9
46 5 84 33 85 127 121 291 112 128 -7 181 -23 393 -114 9 -4 12 23 12 115 l0
120 -47 20 c-129 55 -181 65 -353 68 -121 3 -181 0 -223 -11z"/>
<path d="M3707 1633 c-4 -3 -7 -307 -7 -675 l0 -668 115 0 115 0 0 675 0 675
-108 0 c-60 0 -112 -3 -115 -7z"/>
<path d="M10763 1628 c6 -16 443 -1143 487 -1256 l31 -82 158 0 157 0 257 664
c141 365 257 668 257 675 0 7 -36 11 -118 11 l-118 0 -214 -570 c-117 -313
-216 -570 -219 -570 -3 0 -96 238 -205 528 -110 290 -208 546 -217 570 l-18
42 -122 0 c-93 0 -120 -3 -116 -12z"/>
<path d="M12317 1633 c-4 -3 -7 -307 -7 -675 l0 -668 120 0 120 0 0 675 0 675
-113 0 c-63 0 -117 -3 -120 -7z"/>
</g>
</svg>
