<?xml version="1.0" encoding="UTF-8"?>
<svg xmlns="http://www.w3.org/2000/svg" xmlns:xlink="http://www.w3.org/1999/xlink" width="2795.76pt" height="2286.3pt" viewBox="0 0 2795.76 2286.3" version="1.1">
<g id="surface1">
<path style=" stroke:none;fill-rule:nonzero;fill:rgb(13.699341%,12.199402%,12.5%);fill-opacity:1;" d="M 1329.410156 2120.238281 C 1329.410156 2266.019531 1337.128906 2286.300781 1396.019531 2286.300781 C 1416.300781 2286.300781 1434.640625 2284.371094 1437.539063 2281.46875 C 1447.191406 2271.820313 1432.710938 2228.371094 1420.160156 2228.371094 C 1409.539063 2228.371094 1406.640625 2205.199219 1406.640625 2112.519531 L 1406.640625 1996.671875 L 1329.410156 1996.671875 Z M 1673.101563 2044.941406 C 1680.828125 2044.941406 1698.199219 2055.558594 1710.761719 2069.070313 C 1729.101563 2086.449219 1734.890625 2102.871094 1734.890625 2133.761719 C 1734.890625 2185.890625 1716.550781 2213.890625 1672.140625 2228.371094 C 1604.558594 2250.582031 1533.109375 2188.789063 1545.671875 2118.308594 C 1554.351563 2070.039063 1607.449219 2030.460938 1646.070313 2041.078125 C 1653.789063 2043.011719 1665.378906 2044.941406 1673.101563 2044.941406 Z M 1544.699219 2001.5 C 1495.460938 2023.699219 1469.398438 2069.070313 1469.398438 2133.761719 C 1469.398438 2193.621094 1485.808594 2224.511719 1536.011719 2261.199219 C 1571.730469 2288.230469 1675.03125 2290.160156 1703.03125 2264.089844 C 1726.199219 2243.820313 1734.890625 2242.851563 1734.890625 2262.160156 C 1734.890625 2272.78125 1745.511719 2276.648438 1773.511719 2276.648438 L 1812.128906 2276.648438 L 1812.128906 1996.671875 L 1773.511719 1996.671875 C 1740.679688 1996.671875 1734.890625 1999.558594 1734.890625 2015.980469 C 1734.890625 2035.28125 1734.890625 2035.28125 1705.929688 2015.011719 C 1670.210938 1987.980469 1589.109375 1981.21875 1544.699219 2001.5 Z M 1187.488281 2006.320313 C 1170.109375 2016.941406 1155.628906 2029.488281 1155.628906 2035.28125 C 1155.628906 2040.109375 1151.769531 2044.941406 1145.96875 2044.941406 C 1141.148438 2044.941406 1136.320313 2034.320313 1136.320313 2020.800781 C 1136.320313 1999.558594 1132.460938 1996.671875 1102.53125 1996.671875 L 1068.738281 1996.671875 L 1068.738281 2276.648438 L 1136.320313 2276.648438 L 1136.320313 2205.199219 C 1136.320313 2087.421875 1163.351563 2044.941406 1240.589844 2044.941406 C 1273.410156 2044.941406 1279.199219 2042.039063 1283.070313 2020.800781 C 1285.960938 2008.25 1285.960938 1994.738281 1283.070313 1991.839844 C 1271.480469 1980.261719 1216.449219 1988.941406 1187.488281 2006.320313 Z M 874.6875 2069.070313 C 892.0625 2086.449219 897.855469 2102.871094 898.820313 2134.730469 C 900.753906 2210.988281 837.035156 2254.441406 766.558594 2224.511719 C 726.976563 2208.101563 709.597656 2181.070313 709.597656 2134.730469 C 709.597656 2047.839844 810.96875 2007.289063 874.6875 2069.070313 Z M 706.699219 2006.320313 C 654.566406 2031.421875 634.292969 2068.109375 634.292969 2134.730469 C 634.292969 2197.480469 661.324219 2243.820313 711.527344 2268.917969 C 756.902344 2292.089844 824.484375 2291.128906 864.066406 2266.988281 C 889.167969 2251.539063 894.960938 2250.582031 894.960938 2262.160156 C 894.960938 2272.78125 905.582031 2276.648438 933.578125 2276.648438 L 972.195313 2276.648438 L 972.195313 1996.671875 L 933.578125 1996.671875 C 905.582031 1996.671875 894.960938 2000.53125 894.960938 2011.148438 C 894.960938 2029.488281 896.890625 2029.488281 851.515625 2006.320313 C 803.242188 1982.191406 755.9375 1982.191406 706.699219 2006.320313 Z M 2681.019531 2107.691406 C 2731.21875 2133.761719 2727.359375 2218.71875 2676.191406 2238.03125 C 2661.710938 2243.820313 2605.71875 2247.679688 2549.71875 2247.679688 L 2449.320313 2247.679688 L 2449.320313 2093.210938 L 2550.691406 2093.210938 C 2622.128906 2093.210938 2661.710938 2097.070313 2681.019531 2107.691406 Z M 2672.328125 1930.050781 C 2700.328125 1944.53125 2712.878906 1985.078125 2700.328125 2016.941406 C 2684.878906 2052.660156 2673.300781 2056.519531 2553.578125 2062.320313 L 2449.320313 2067.140625 L 2449.320313 1919.429688 L 2551.648438 1919.429688 C 2607.648438 1919.429688 2661.710938 1924.261719 2672.328125 1930.050781 Z M 2401.039063 2082.589844 L 2401.039063 2276.648438 L 2542 2276.648438 C 2696.46875 2276.648438 2737.019531 2266.988281 2757.289063 2222.582031 C 2780.460938 2170.449219 2758.25 2098.039063 2714.808594 2087.421875 C 2689.710938 2081.628906 2681.019531 2064.25 2703.230469 2064.25 C 2728.328125 2064.25 2753.429688 2025.628906 2753.429688 1986.050781 C 2753.429688 1958.050781 2746.671875 1941.640625 2726.398438 1922.328125 C 2700.328125 1895.300781 2698.398438 1895.300781 2550.691406 1892.398438 L 2401.039063 1889.5 Z M 2188.648438 1940.671875 C 2245.609375 1969.640625 2268.78125 2012.109375 2268.78125 2083.558594 C 2268.78125 2152.101563 2245.609375 2195.550781 2192.511719 2226.441406 C 2159.679688 2244.789063 2143.269531 2247.679688 2063.140625 2245.75 L 1971.421875 2242.851563 L 1968.53125 2093.210938 C 1967.558594 2011.148438 1968.53125 1938.738281 1970.460938 1931.980469 C 1974.320313 1923.289063 2000.390625 1919.429688 2061.210938 1919.429688 C 2129.75 1919.429688 2153.890625 1923.289063 2188.648438 1940.671875 Z M 1918.320313 2083.558594 L 1918.320313 2276.648438 L 2038.039063 2276.648438 C 2189.609375 2276.648438 2208.921875 2272.78125 2259.121094 2227.410156 C 2370.148438 2129.898438 2330.570313 1939.710938 2190.578125 1900.121094 C 2171.269531 1895.300781 2101.761719 1890.46875 2037.070313 1890.46875 L 1918.320313 1890.46875 Z M 49.238281 2083.558594 L 0 2276.648438 L 36.6875 2276.648438 C 78.199219 2276.648438 73.375 2287.257813 113.921875 2112.519531 C 125.507813 2062.320313 138.058594 2017.910156 140.953125 2014.050781 C 144.816406 2009.21875 173.777344 2066.179688 206.605469 2139.550781 L 265.496094 2271.820313 L 339.835938 2271.820313 L 397.761719 2139.550781 C 429.621094 2066.179688 457.617188 2007.289063 460.515625 2006.320313 C 463.410156 2006.320313 480.789063 2067.140625 497.199219 2140.519531 L 529.058594 2274.710938 L 566.710938 2278.582031 C 587.953125 2280.511719 605.328125 2280.511719 605.328125 2277.609375 C 605.328125 2275.679688 583.125 2186.859375 555.125 2081.628906 L 505.890625 1889.5 L 471.132813 1892.398438 C 437.34375 1895.300781 437.34375 1895.300781 372.660156 2038.179688 C 336.9375 2116.378906 306.042969 2183 304.113281 2184.929688 C 302.183594 2187.820313 270.320313 2122.171875 233.636719 2040.109375 L 167.019531 1890.46875 L 98.472656 1890.46875 Z M 2690.671875 23.308594 C 2651.089844 41.660156 2611.511719 50.351563 2533.308594 57.101563 C 2311.261719 77.378906 2223.398438 143.03125 2067.96875 407.558594 C 1878.738281 728.078125 1807.300781 781.179688 1377.679688 920.210938 C 1010.808594 1039.921875 963.507813 1059.230469 879.515625 1124.878906 C 811.933594 1178.941406 777.175781 1215.628906 715.390625 1297.691406 C 641.050781 1396.171875 624.636719 1407.75 558.023438 1407.75 C 528.09375 1406.78125 469.203125 1400.988281 426.722656 1393.269531 C 304.113281 1371.058594 230.738281 1373.960938 187.296875 1402.921875 C 167.984375 1416.441406 151.574219 1430.921875 152.539063 1434.78125 C 152.539063 1440.570313 261.632813 1523.601563 296.390625 1542.910156 C 307.976563 1550.640625 307.007813 1556.429688 288.664063 1581.53125 C 236.53125 1651.039063 219.152344 1681.941406 219.152344 1703.171875 C 219.152344 1724.410156 223.015625 1726.351563 265.496094 1726.351563 C 290.597656 1726.351563 335.972656 1720.550781 364.9375 1712.828125 C 434.445313 1694.480469 618.84375 1605.671875 716.355469 1542.910156 C 935.507813 1401.960938 1007.921875 1388.441406 1329.410156 1427.058594 C 1417.261719 1437.679688 1519.601563 1446.371094 1558.21875 1446.371094 C 1625.800781 1446.371094 1627.730469 1445.398438 1654.761719 1412.578125 C 1670.210938 1394.230469 1688.550781 1363.339844 1694.339844 1343.070313 C 1715.578125 1281.28125 1737.789063 1233.96875 1745.511719 1233.96875 C 1763.851563 1233.96875 1720.410156 1428.988281 1685.648438 1497.539063 C 1655.730469 1555.460938 1587.179688 1658.769531 1557.25 1689.660156 L 1531.179688 1716.691406 L 1567.871094 1716.691406 C 1618.070313 1716.691406 1727.171875 1676.140625 1787.019531 1636.558594 C 1889.359375 1567.050781 1972.390625 1462.78125 2030.320313 1327.621094 C 2044.800781 1291.898438 2061.210938 1262.941406 2066.039063 1262.941406 C 2069.898438 1262.941406 2069.898438 1291.898438 2067 1326.648438 L 2060.238281 1391.339844 L 2092.101563 1373 C 2152.929688 1338.238281 2230.160156 1249.421875 2277.46875 1160.601563 C 2346.011719 1029.300781 2370.148438 953.03125 2458.96875 567.820313 C 2492.761719 423 2509.171875 400.800781 2671.371094 280.121094 C 2751.5 220.261719 2787.21875 164.269531 2793.980469 86.070313 C 2802.671875 -6.621094 2781.421875 -19.171875 2690.671875 23.308594 "/>
</g>
</svg>
