<svg id="svg" version="1.1" xmlns="http://www.w3.org/2000/svg" xmlns:xlink="http://www.w3.org/1999/xlink" width="400" height="164.84848484848487" viewBox="0, 0, 400,164.84848484848487"><g id="svgg"><path id="path0" d="M0.000 82.417 L 0.000 164.833 200.000 164.833 L 400.000 164.833 400.000 82.417 L 400.000 0.000 200.000 0.000 L 0.000 0.000 0.000 82.417 M113.219 43.949 C 113.476 44.079,115.351 44.821,117.385 45.597 C 121.621 47.213,122.227 47.449,122.917 47.747 C 123.192 47.866,123.792 48.095,124.250 48.256 C 124.708 48.417,125.383 48.680,125.750 48.841 C 126.117 49.002,126.642 49.209,126.917 49.302 C 127.347 49.446,134.600 52.240,137.583 53.410 C 138.133 53.626,140.458 54.525,142.750 55.407 C 149.234 57.905,151.562 58.825,151.833 58.996 C 152.048 59.132,152.090 60.136,152.130 66.047 C 152.184 73.896,152.284 73.352,150.708 73.753 C 149.917 73.953,149.695 74.264,150.167 74.512 C 150.304 74.584,150.765 74.801,151.191 74.994 C 152.210 75.457,152.162 75.077,152.164 82.688 C 152.167 90.126,152.282 89.513,150.786 90.001 C 149.645 90.372,149.580 90.722,150.595 91.021 C 151.023 91.147,151.552 91.415,151.770 91.617 L 152.167 91.984 152.167 98.710 C 152.167 106.342,152.277 105.778,150.667 106.393 C 146.074 108.146,141.909 109.755,138.121 111.238 C 136.584 111.841,135.282 112.333,135.230 112.333 C 135.177 112.333,134.897 112.440,134.609 112.570 C 134.320 112.700,133.153 113.156,132.016 113.582 C 130.879 114.008,129.191 114.658,128.266 115.025 C 126.399 115.766,125.912 115.955,124.333 116.558 C 123.235 116.977,119.939 118.248,118.417 118.840 C 117.958 119.018,116.533 119.586,115.250 120.102 C 112.733 121.113,111.560 121.349,110.954 120.964 C 110.750 120.834,110.171 120.569,109.667 120.376 C 109.162 120.182,107.325 119.463,105.583 118.778 C 103.842 118.093,101.592 117.218,100.583 116.834 C 99.575 116.449,97.625 115.698,96.250 115.164 C 94.875 114.630,93.075 113.932,92.250 113.613 C 91.425 113.294,90.037 112.755,89.167 112.417 C 88.296 112.078,86.721 111.468,85.667 111.062 C 84.612 110.656,83.600 110.260,83.417 110.182 C 83.233 110.104,82.783 109.924,82.417 109.783 C 82.050 109.642,81.037 109.252,80.167 108.917 C 79.296 108.581,78.283 108.192,77.917 108.052 C 77.550 107.912,76.912 107.661,76.500 107.493 C 76.087 107.325,74.925 106.875,73.917 106.492 C 72.908 106.110,71.989 105.720,71.873 105.626 C 71.709 105.493,71.673 103.942,71.707 98.520 L 71.750 91.584 72.417 91.267 C 72.783 91.093,73.327 90.837,73.624 90.699 C 74.286 90.392,74.141 90.143,73.127 89.846 C 72.736 89.731,72.248 89.530,72.042 89.398 L 71.667 89.159 71.667 82.329 C 71.667 74.670,71.616 74.983,72.896 74.743 C 74.229 74.493,74.201 73.903,72.833 73.438 C 72.329 73.266,71.861 73.041,71.792 72.938 C 71.491 72.482,71.663 59.014,71.973 58.848 C 72.134 58.762,73.049 58.390,74.008 58.023 C 74.966 57.655,77.212 56.783,79.000 56.085 C 80.787 55.387,82.962 54.548,83.833 54.220 C 84.704 53.893,85.731 53.484,86.116 53.312 C 86.500 53.141,86.856 53.000,86.906 53.000 C 86.992 53.000,91.361 51.317,92.083 51.006 C 92.372 50.881,94.250 50.150,96.167 49.417 C 96.487 49.294,97.462 48.919,98.333 48.583 C 99.204 48.248,100.217 47.859,100.583 47.719 C 100.950 47.579,101.587 47.327,102.000 47.159 C 102.412 46.990,103.388 46.612,104.167 46.318 C 104.946 46.023,106.708 45.335,108.083 44.787 C 111.606 43.385,111.980 43.324,113.219 43.949 M111.146 57.827 C 110.998 57.918,110.285 58.215,109.563 58.486 C 108.841 58.758,107.500 59.273,106.583 59.631 C 105.667 59.989,103.417 60.859,101.583 61.564 C 99.750 62.269,98.100 62.916,97.917 63.002 C 97.733 63.087,96.496 63.575,95.167 64.086 C 93.837 64.597,92.525 65.118,92.250 65.243 C 91.975 65.368,91.448 65.550,91.078 65.648 C 89.545 66.055,89.569 66.442,91.157 66.974 C 92.294 67.354,92.833 67.425,92.833 67.192 C 92.833 67.026,93.405 66.769,96.000 65.770 C 97.054 65.365,98.592 64.770,99.417 64.449 C 100.242 64.129,101.911 63.483,103.126 63.014 C 107.904 61.171,110.116 60.308,110.861 59.995 L 111.638 59.670 113.278 60.310 C 114.920 60.951,118.365 62.283,121.333 63.423 C 122.204 63.758,123.742 64.354,124.750 64.748 C 127.187 65.699,129.405 66.554,130.367 66.913 C 131.148 67.205,131.156 67.204,132.410 66.747 C 133.945 66.187,133.899 66.081,131.807 65.333 C 130.970 65.034,130.090 64.687,129.851 64.562 C 129.612 64.437,129.332 64.335,129.230 64.334 C 129.063 64.333,128.007 63.918,127.083 63.491 C 126.900 63.406,126.225 63.146,125.583 62.913 C 124.942 62.681,124.267 62.418,124.083 62.329 C 123.900 62.241,122.962 61.874,122.000 61.515 C 119.832 60.707,116.479 59.411,114.167 58.490 C 112.253 57.727,111.559 57.575,111.146 57.827 M256.167 70.191 C 258.524 70.574,260.834 71.495,262.606 72.760 C 263.940 73.712,263.933 73.610,262.822 75.747 C 261.050 79.154,260.618 79.344,257.787 77.955 C 253.041 75.626,249.361 76.267,248.917 79.500 C 248.660 81.368,249.878 82.499,253.333 83.600 C 254.112 83.849,254.821 84.115,254.908 84.193 C 254.995 84.270,255.209 84.333,255.383 84.333 C 255.760 84.333,258.673 85.490,259.598 86.006 C 263.306 88.078,264.932 91.766,264.116 96.256 C 263.261 100.960,260.187 104.133,255.301 105.352 C 252.826 105.970,247.897 105.622,245.750 104.678 C 245.567 104.597,245.079 104.405,244.667 104.251 C 242.980 103.621,240.159 101.822,239.933 101.232 C 239.847 101.008,241.348 98.316,242.221 97.131 C 243.101 95.936,244.287 95.928,246.277 97.105 C 251.416 100.143,255.868 99.686,256.411 96.066 C 256.835 93.234,255.814 92.403,249.583 90.507 C 243.559 88.673,241.190 85.892,241.173 80.633 C 241.148 73.300,247.609 68.801,256.167 70.191 M288.500 70.194 C 302.861 72.585,308.336 91.087,297.622 101.022 L 296.430 102.127 297.507 103.355 C 298.099 104.031,298.664 104.658,298.763 104.750 C 298.862 104.842,299.948 106.042,301.176 107.417 C 302.404 108.792,303.448 109.956,303.496 110.004 C 305.461 111.966,305.426 112.001,301.441 111.997 C 295.176 111.990,294.589 111.692,290.266 106.335 C 289.525 105.416,289.218 105.282,288.328 105.487 C 287.208 105.745,282.792 105.706,281.325 105.426 C 273.520 103.932,268.179 98.365,267.087 90.582 C 265.285 77.745,275.490 68.028,288.500 70.194 M185.712 70.640 C 186.356 71.065,186.394 71.109,190.000 75.668 C 191.776 77.913,194.209 80.986,195.406 82.496 C 196.604 84.007,198.207 86.032,198.969 86.996 C 200.540 88.985,200.418 88.833,201.753 90.487 L 202.750 91.723 202.833 81.070 L 202.917 70.417 206.500 70.417 L 210.083 70.417 210.083 87.833 L 210.083 105.250 207.572 105.296 C 203.749 105.366,204.421 105.896,198.004 97.750 C 195.331 94.358,192.107 90.271,190.839 88.667 C 189.570 87.063,188.188 85.306,187.766 84.763 C 187.345 84.219,186.998 83.882,186.996 84.013 C 186.994 84.143,186.975 88.975,186.954 94.750 L 186.917 105.250 183.333 105.250 L 179.750 105.250 179.707 88.000 C 179.683 78.512,179.700 70.656,179.743 70.542 C 179.885 70.171,185.131 70.257,185.712 70.640 M315.736 70.434 C 315.974 70.526,316.000 71.929,316.000 84.601 L 316.000 98.667 322.153 98.667 C 325.537 98.667,328.425 98.712,328.570 98.768 C 329.061 98.956,328.955 105.131,328.458 105.251 C 328.252 105.301,323.508 105.321,317.917 105.296 L 307.750 105.250 307.707 88.000 C 307.683 78.512,307.700 70.656,307.743 70.542 C 307.827 70.322,315.186 70.223,315.736 70.434 M111.196 74.010 C 110.640 74.232,110.784 74.739,111.418 74.791 C 112.096 74.846,112.629 74.440,112.338 74.089 C 112.100 73.803,111.769 73.780,111.196 74.010 M282.459 77.244 C 276.198 78.614,273.337 86.954,276.714 93.989 C 279.988 100.807,291.114 100.095,293.784 92.897 C 297.226 83.618,291.226 75.325,282.459 77.244 M229.200 80.182 C 237.005 81.791,241.029 89.936,238.044 98.083 C 237.073 100.731,233.650 104.500,232.215 104.500 C 232.125 104.500,231.827 104.612,231.553 104.748 C 227.425 106.808,219.738 105.404,216.833 102.058 C 210.698 94.994,213.285 83.255,221.554 80.635 C 223.510 80.015,227.302 79.791,229.200 80.182 M92.128 81.497 C 91.815 81.665,91.245 81.896,90.861 82.011 C 90.239 82.198,89.675 82.595,89.851 82.722 C 90.582 83.249,92.501 83.714,92.820 83.443 C 92.965 83.319,93.421 83.088,93.833 82.929 C 95.062 82.454,95.295 82.154,94.628 81.909 C 94.329 81.798,93.771 81.592,93.390 81.450 C 92.748 81.211,92.656 81.214,92.128 81.497 M130.417 81.613 C 130.050 81.754,129.525 81.921,129.250 81.983 C 128.433 82.169,128.665 82.527,129.936 83.041 L 131.121 83.520 132.341 83.052 C 133.012 82.794,133.559 82.508,133.556 82.417 C 133.552 82.301,131.083 81.232,131.083 81.346 C 131.083 81.352,130.783 81.472,130.417 81.613 M225.500 85.845 C 222.724 86.197,221.333 88.521,221.333 92.806 C 221.333 97.409,222.858 99.654,226.083 99.800 C 229.132 99.939,230.594 98.335,231.001 94.403 C 231.609 88.544,229.543 85.331,225.500 85.845 M111.029 90.432 C 110.729 90.642,110.691 90.745,110.846 90.932 C 111.163 91.314,111.722 91.246,112.649 90.712 C 112.685 90.692,112.619 90.560,112.503 90.421 C 112.229 90.091,111.508 90.096,111.029 90.432 M92.123 97.708 C 92.072 97.840,91.576 98.075,91.021 98.231 C 89.431 98.677,89.508 98.993,91.353 99.608 C 92.030 99.834,93.783 100.495,95.250 101.078 C 98.921 102.536,102.645 103.988,107.667 105.917 C 108.996 106.427,110.330 106.955,110.631 107.089 C 111.355 107.412,111.686 107.397,112.537 107.003 C 112.929 106.822,114.375 106.254,115.750 105.742 C 117.125 105.229,118.400 104.743,118.583 104.660 C 118.767 104.577,119.779 104.177,120.833 103.771 C 121.888 103.365,123.462 102.756,124.333 102.418 C 126.107 101.730,127.481 101.199,129.083 100.583 C 129.679 100.354,130.635 99.983,131.208 99.760 C 131.781 99.536,132.453 99.303,132.701 99.243 C 133.880 98.958,133.708 98.550,132.180 98.008 L 131.111 97.628 130.264 97.964 C 129.535 98.253,127.823 98.918,125.667 99.752 C 125.346 99.876,124.596 100.164,124.000 100.391 C 123.404 100.618,122.204 101.080,121.333 101.417 C 117.395 102.940,115.828 103.542,114.375 104.092 C 113.756 104.327,113.004 104.627,112.703 104.759 C 112.076 105.035,111.637 105.066,111.408 104.851 C 111.269 104.720,104.935 102.167,104.749 102.167 C 104.666 102.167,100.083 100.399,99.583 100.174 C 99.400 100.091,98.763 99.838,98.167 99.610 C 97.571 99.382,96.187 98.847,95.092 98.421 C 92.705 97.491,92.248 97.381,92.123 97.708 " stroke="none" fill="#73d3fb" fill-rule="evenodd"></path><path id="path1" d="M74.167 59.889 C 74.167 59.932,74.409 60.052,74.705 60.155 C 75.000 60.258,75.169 60.274,75.080 60.190 C 74.890 60.012,74.167 59.774,74.167 59.889 M96.833 68.750 C 97.063 68.881,97.325 68.988,97.417 68.988 C 97.508 68.988,97.396 68.881,97.167 68.750 C 96.938 68.619,96.675 68.512,96.583 68.512 C 96.492 68.512,96.604 68.619,96.833 68.750 M250.917 70.346 C 248.978 70.717,248.357 70.904,247.272 71.442 C 242.520 73.800,240.061 79.448,241.840 83.917 C 243.298 87.580,245.262 89.037,250.833 90.588 C 251.429 90.754,251.988 90.952,252.075 91.028 C 252.162 91.104,252.379 91.167,252.558 91.167 C 254.394 91.167,256.823 93.517,256.831 95.302 C 256.852 100.038,251.292 100.715,245.048 96.735 C 243.724 95.892,242.184 97.171,240.346 100.639 C 239.715 101.829,245.495 104.818,249.250 105.243 C 249.708 105.295,250.517 105.384,251.046 105.442 C 252.122 105.559,254.605 105.280,256.000 104.885 C 264.986 102.340,267.058 90.017,259.154 86.136 C 257.476 85.313,256.338 84.833,256.060 84.833 C 255.933 84.833,255.699 84.766,255.539 84.683 C 255.380 84.601,254.800 84.398,254.250 84.232 C 253.700 84.067,253.179 83.872,253.092 83.799 C 253.005 83.726,252.812 83.667,252.663 83.667 C 252.296 83.667,250.377 82.731,249.708 82.226 C 248.873 81.595,248.622 80.963,248.694 79.680 C 248.900 76.038,253.275 75.172,258.155 77.807 C 259.677 78.629,260.521 78.630,261.227 77.810 C 261.719 77.239,263.600 73.857,263.474 73.769 C 263.443 73.747,263.079 73.459,262.667 73.129 C 260.073 71.057,254.319 69.694,250.917 70.346 M283.250 70.251 C 283.158 70.295,282.521 70.401,281.833 70.487 C 275.575 71.276,270.286 75.532,268.253 81.417 C 268.094 81.875,267.905 82.400,267.832 82.583 C 266.579 85.736,267.215 92.498,269.117 96.249 C 272.502 102.925,279.029 106.029,288.083 105.268 L 289.583 105.142 291.083 106.860 C 295.262 111.645,295.019 111.519,300.265 111.631 C 302.844 111.686,304.154 111.655,304.226 111.539 C 304.323 111.382,303.302 110.178,299.704 106.210 C 299.020 105.455,298.337 104.697,298.188 104.525 C 298.039 104.353,297.523 103.785,297.042 103.263 C 295.949 102.079,295.917 102.251,297.516 100.714 C 300.119 98.212,301.580 95.535,302.498 91.583 C 302.996 89.439,302.805 84.133,302.175 82.583 C 302.100 82.400,301.830 81.690,301.574 81.006 C 299.482 75.410,294.512 71.437,288.417 70.485 C 287.265 70.306,283.498 70.135,283.250 70.251 M180.077 70.708 C 180.033 70.823,180.017 78.604,180.040 88.000 L 180.083 105.083 183.375 105.129 L 186.667 105.174 186.667 94.337 C 186.667 85.308,186.705 83.500,186.893 83.500 C 187.105 83.500,188.318 84.955,191.339 88.833 C 192.018 89.704,192.616 90.454,192.668 90.500 C 192.720 90.546,193.431 91.446,194.247 92.500 C 195.063 93.554,195.922 94.647,196.157 94.929 C 196.391 95.211,196.808 95.733,197.083 96.089 C 197.627 96.793,198.978 98.500,199.519 99.167 C 199.705 99.396,200.433 100.324,201.137 101.230 C 204.100 105.043,204.307 105.167,207.693 105.167 C 209.768 105.167,209.829 105.156,209.918 104.792 C 209.967 104.585,209.988 96.804,209.962 87.500 L 209.917 70.583 206.583 70.583 L 203.250 70.583 203.214 81.250 C 203.194 87.117,203.175 92.010,203.172 92.125 C 203.160 92.597,202.768 92.247,201.492 90.625 C 200.752 89.685,200.018 88.767,199.860 88.583 C 199.702 88.400,199.044 87.575,198.397 86.750 C 197.278 85.323,194.031 81.215,190.181 76.358 C 185.812 70.846,186.026 71.083,185.089 70.721 C 184.370 70.443,180.182 70.432,180.077 70.708 M308.078 70.705 C 308.034 70.821,308.017 78.604,308.040 88.000 L 308.083 105.083 318.156 105.126 C 326.104 105.160,328.257 105.125,328.362 104.960 C 328.640 104.522,328.526 99.046,328.236 98.934 C 328.091 98.879,325.204 98.833,321.821 98.833 L 315.669 98.833 315.626 84.708 L 315.583 70.583 311.871 70.538 C 308.992 70.504,308.141 70.541,308.078 70.705 M79.000 76.417 C 79.548 76.730,79.819 76.733,79.407 76.422 C 79.229 76.287,78.971 76.178,78.833 76.178 C 78.688 76.178,78.758 76.279,79.000 76.417 M288.000 77.024 C 291.066 77.932,293.364 80.233,294.302 83.333 C 294.761 84.851,294.833 85.462,294.833 87.833 C 294.833 89.233,294.753 90.687,294.656 91.064 C 293.236 96.554,290.385 98.833,284.936 98.833 C 279.645 98.833,276.746 96.486,275.344 91.064 C 275.247 90.687,275.167 89.233,275.167 87.833 C 275.167 85.462,275.239 84.851,275.698 83.333 C 277.210 78.332,282.778 75.477,288.000 77.024 M223.917 80.363 C 223.275 80.455,222.600 80.590,222.417 80.664 C 222.233 80.738,221.708 80.931,221.250 81.094 C 215.205 83.240,212.219 90.505,214.506 97.500 C 217.878 107.812,234.121 108.220,237.738 98.083 C 237.901 97.625,238.093 97.100,238.164 96.917 C 238.412 96.275,238.667 94.147,238.667 92.715 C 238.667 84.378,232.421 79.148,223.917 80.363 M90.167 80.750 C 90.396 80.881,90.658 80.988,90.750 80.988 C 90.842 80.988,90.729 80.881,90.500 80.750 C 90.271 80.619,90.008 80.512,89.917 80.512 C 89.825 80.512,89.938 80.619,90.167 80.750 M100.500 84.750 C 100.729 84.881,100.992 84.988,101.083 84.988 C 101.175 84.988,101.063 84.881,100.833 84.750 C 100.604 84.619,100.342 84.512,100.250 84.512 C 100.158 84.512,100.271 84.619,100.500 84.750 M98.667 85.750 C 98.896 85.881,99.158 85.988,99.250 85.988 C 99.342 85.988,99.229 85.881,99.000 85.750 C 98.771 85.619,98.508 85.512,98.417 85.512 C 98.325 85.512,98.438 85.619,98.667 85.750 M228.418 85.892 C 230.531 86.876,231.250 88.638,231.250 92.835 C 231.250 96.267,230.909 97.561,229.671 98.824 C 227.498 101.042,223.278 100.432,222.001 97.715 C 221.190 95.989,220.819 91.377,221.354 89.678 C 221.859 88.078,222.052 87.666,222.588 87.040 C 223.893 85.516,226.505 85.001,228.418 85.892 M105.500 88.417 C 105.729 88.548,105.992 88.655,106.083 88.655 C 106.175 88.655,106.063 88.548,105.833 88.417 C 105.604 88.286,105.342 88.178,105.250 88.178 C 105.158 88.178,105.271 88.286,105.500 88.417 M82.500 95.750 C 82.729 95.881,82.992 95.988,83.083 95.988 C 83.175 95.988,83.063 95.881,82.833 95.750 C 82.604 95.619,82.342 95.512,82.250 95.512 C 82.158 95.512,82.271 95.619,82.500 95.750 " stroke="none" fill="#30161f" fill-rule="evenodd"></path><path id="path2" d="M111.426 43.819 C 111.344 43.951,106.314 46.000,106.072 46.000 C 106.022 46.000,105.667 46.137,105.283 46.304 C 104.466 46.659,103.800 46.926,101.750 47.723 C 100.925 48.044,99.350 48.657,98.250 49.086 C 97.150 49.515,95.837 50.015,95.333 50.196 C 94.829 50.377,94.192 50.627,93.917 50.751 C 93.642 50.875,92.967 51.140,92.417 51.341 C 91.867 51.541,91.180 51.809,90.891 51.936 C 90.603 52.063,90.251 52.167,90.110 52.167 C 89.968 52.167,89.810 52.236,89.758 52.321 C 89.705 52.406,89.382 52.561,89.039 52.665 C 88.403 52.859,87.474 53.208,86.583 53.589 C 86.091 53.799,85.870 53.885,83.625 54.739 C 82.082 55.326,80.888 55.790,77.583 57.088 C 75.099 58.065,73.513 58.663,72.667 58.942 C 72.348 59.047,72.912 59.375,74.083 59.766 C 74.542 59.919,74.992 60.096,75.083 60.160 C 75.175 60.224,75.625 60.412,76.083 60.578 C 77.554 61.112,82.400 62.996,82.917 63.235 C 83.192 63.362,83.904 63.635,84.500 63.842 C 85.096 64.050,85.771 64.313,86.000 64.428 C 86.229 64.542,87.117 64.890,87.974 65.201 L 89.530 65.765 90.557 65.407 C 91.121 65.210,91.808 64.959,92.083 64.849 C 93.095 64.445,94.624 63.847,96.167 63.251 C 97.037 62.915,98.388 62.389,99.167 62.083 C 99.946 61.776,101.296 61.253,102.167 60.921 C 103.037 60.588,104.087 60.178,104.500 60.009 C 104.912 59.840,105.587 59.574,106.000 59.417 C 106.412 59.260,107.087 58.997,107.500 58.833 C 107.912 58.670,108.587 58.408,109.000 58.252 C 109.412 58.096,110.071 57.825,110.463 57.651 C 111.358 57.252,111.663 57.253,112.543 57.659 C 113.420 58.062,117.966 59.833,118.130 59.834 C 118.196 59.835,118.438 59.932,118.667 60.049 C 118.896 60.167,119.458 60.402,119.917 60.571 C 121.026 60.981,123.419 61.898,125.167 62.582 C 125.946 62.887,127.071 63.325,127.667 63.554 C 128.262 63.783,129.462 64.248,130.333 64.587 C 131.204 64.926,132.424 65.386,133.043 65.610 L 134.170 66.017 136.210 65.233 C 141.696 63.125,142.991 62.625,146.083 61.419 C 147.917 60.704,149.788 59.981,150.242 59.812 C 151.989 59.161,151.932 59.083,148.833 57.906 C 145.195 56.524,144.062 56.089,143.000 55.667 C 142.142 55.326,141.389 55.035,139.792 54.428 C 139.173 54.192,138.198 53.818,137.625 53.597 C 137.052 53.375,134.446 52.370,131.833 51.363 C 118.643 46.281,113.041 44.103,112.633 43.895 C 112.116 43.633,111.562 43.597,111.426 43.819 M111.167 60.260 C 110.393 60.687,104.581 62.956,103.417 63.287 C 103.233 63.339,103.005 63.442,102.910 63.515 C 102.815 63.589,102.102 63.887,101.327 64.178 C 100.551 64.469,99.579 64.838,99.167 64.996 C 95.990 66.221,94.034 66.969,93.759 67.067 C 93.396 67.195,94.010 67.670,94.845 67.906 C 95.275 68.028,95.394 68.073,96.833 68.659 C 97.337 68.865,98.313 69.242,99.000 69.499 C 101.227 70.329,104.694 71.682,104.976 71.831 C 106.717 72.753,109.833 73.728,110.931 73.695 C 111.648 73.673,112.330 73.752,112.669 73.894 C 113.244 74.136,113.734 74.035,115.417 73.329 C 115.692 73.214,116.142 73.026,116.417 72.911 C 116.692 72.796,117.442 72.509,118.083 72.274 C 118.725 72.039,120.000 71.552,120.917 71.191 C 124.698 69.703,128.750 68.136,129.827 67.745 C 130.145 67.629,130.432 67.453,130.466 67.353 C 130.531 67.157,130.486 67.135,128.250 66.271 C 127.425 65.953,126.075 65.431,125.250 65.111 C 124.425 64.792,122.662 64.109,121.333 63.594 C 120.004 63.079,118.204 62.386,117.333 62.054 C 116.462 61.722,114.922 61.124,113.909 60.725 C 111.913 59.939,111.788 59.918,111.167 60.260 M147.667 74.953 C 144.945 76.013,141.808 77.230,140.667 77.669 C 139.979 77.933,138.367 78.554,137.083 79.049 C 135.800 79.544,134.094 80.202,133.292 80.512 C 131.631 81.152,131.526 81.337,132.592 81.744 C 133.821 82.214,134.511 82.242,135.428 81.859 C 135.880 81.670,137.337 81.097,138.667 80.585 C 142.328 79.177,144.045 78.511,150.083 76.158 C 151.572 75.578,151.634 75.245,150.333 74.813 C 149.175 74.429,148.987 74.439,147.667 74.953 M73.375 74.948 C 72.259 75.343,72.622 75.616,75.667 76.676 C 76.262 76.883,76.938 77.145,77.167 77.258 C 77.396 77.372,77.883 77.575,78.250 77.711 C 79.112 78.031,81.606 78.991,82.250 79.252 C 82.525 79.364,83.313 79.667,84.000 79.925 C 84.688 80.184,85.325 80.446,85.417 80.506 C 85.508 80.566,85.981 80.743,86.467 80.897 C 86.953 81.052,87.754 81.364,88.248 81.590 C 89.329 82.084,89.899 82.104,90.848 81.679 L 91.565 81.358 90.657 80.959 C 90.158 80.740,89.337 80.399,88.833 80.202 C 88.329 80.004,87.317 79.606,86.583 79.316 C 85.850 79.027,84.650 78.574,83.917 78.309 C 83.183 78.045,82.358 77.725,82.083 77.599 C 81.022 77.113,80.315 76.833,80.148 76.833 C 80.053 76.833,79.361 76.577,78.612 76.263 C 74.831 74.681,74.420 74.578,73.375 74.948 M125.083 83.648 C 123.708 84.182,121.083 85.198,119.250 85.904 C 115.975 87.166,113.705 88.054,112.112 88.696 C 111.412 88.978,111.259 88.991,110.945 88.791 C 110.746 88.665,110.058 88.389,109.417 88.177 C 108.775 87.965,108.100 87.712,107.917 87.613 C 107.733 87.515,107.133 87.270,106.583 87.068 C 104.497 86.302,100.393 84.711,99.833 84.451 C 99.513 84.302,98.877 84.056,98.421 83.904 C 97.966 83.753,97.202 83.450,96.724 83.231 C 95.689 82.757,95.337 82.741,94.292 83.115 C 93.100 83.543,92.925 83.449,99.833 86.079 C 101.162 86.585,102.462 87.112,102.722 87.250 C 102.981 87.387,103.270 87.500,103.363 87.500 C 103.457 87.500,103.769 87.601,104.058 87.725 C 104.347 87.849,105.033 88.122,105.583 88.331 C 106.586 88.713,107.151 88.939,108.083 89.329 C 109.601 89.964,110.482 90.168,110.897 89.978 C 111.226 89.829,111.490 89.846,112.147 90.061 C 113.101 90.373,113.550 90.401,113.961 90.172 C 114.120 90.083,115.750 89.444,117.583 88.752 C 119.417 88.060,121.067 87.426,121.250 87.342 C 121.433 87.259,122.071 87.004,122.667 86.777 C 123.263 86.549,124.462 86.087,125.333 85.750 C 126.204 85.413,127.404 84.953,128.000 84.727 C 130.726 83.695,130.866 83.542,129.547 83.035 C 128.262 82.540,127.749 82.611,125.083 83.648 M148.167 91.030 C 147.938 91.126,147.450 91.317,147.083 91.455 C 146.717 91.594,146.267 91.769,146.083 91.845 C 145.900 91.920,145.225 92.182,144.583 92.426 C 142.145 93.353,140.389 94.034,139.640 94.343 C 139.213 94.519,138.313 94.860,137.640 95.100 C 136.967 95.341,136.117 95.671,135.750 95.833 C 135.383 95.996,134.558 96.317,133.917 96.547 C 131.622 97.371,131.453 97.525,132.406 97.923 C 134.148 98.651,134.114 98.655,137.667 97.257 C 141.197 95.868,142.175 95.487,145.833 94.080 C 151.116 92.049,151.348 91.947,151.297 91.685 C 151.186 91.110,149.047 90.662,148.167 91.030 M73.500 91.226 C 72.351 91.602,72.379 91.685,73.853 92.249 C 74.621 92.543,75.475 92.879,75.750 92.996 C 76.025 93.113,76.400 93.272,76.583 93.349 C 76.767 93.427,77.442 93.681,78.083 93.913 C 78.725 94.146,79.400 94.409,79.583 94.498 C 79.767 94.587,80.517 94.883,81.250 95.156 C 81.983 95.428,83.558 96.036,84.750 96.507 C 85.942 96.977,87.500 97.581,88.212 97.848 L 89.508 98.333 90.504 98.056 C 91.913 97.664,91.697 97.460,88.864 96.509 C 88.285 96.315,87.685 96.082,87.531 95.992 C 87.376 95.902,86.462 95.533,85.500 95.173 C 84.537 94.812,82.962 94.209,82.000 93.833 C 73.844 90.648,74.577 90.873,73.500 91.226 " stroke="none" fill="#f1084d" fill-rule="evenodd"></path><path id="path3" d="M71.669 66.024 C 71.672 73.535,71.590 73.015,72.833 73.438 C 73.337 73.610,73.825 73.835,73.917 73.938 C 74.008 74.042,74.308 74.178,74.583 74.241 C 74.858 74.304,75.758 74.619,76.583 74.940 C 77.408 75.262,78.721 75.773,79.500 76.075 C 80.279 76.378,81.704 76.932,82.667 77.306 C 83.629 77.681,85.279 78.321,86.333 78.728 C 87.388 79.135,89.057 79.781,90.043 80.164 C 91.029 80.546,91.950 80.973,92.089 81.113 C 92.228 81.252,92.441 81.328,92.562 81.281 C 92.683 81.235,93.225 81.377,93.766 81.598 C 94.307 81.818,94.848 81.999,94.968 81.999 C 95.088 82.000,95.140 82.075,95.083 82.167 C 95.027 82.258,95.136 82.333,95.327 82.333 C 95.518 82.333,96.366 82.603,97.212 82.933 C 98.058 83.263,99.425 83.796,100.250 84.118 C 101.075 84.440,102.313 84.916,103.000 85.176 C 103.688 85.435,105.112 85.985,106.167 86.396 C 107.221 86.808,108.849 87.441,109.785 87.804 L 111.486 88.463 112.368 87.988 C 112.853 87.727,113.432 87.510,113.654 87.507 C 113.875 87.503,114.175 87.398,114.320 87.273 C 114.465 87.148,115.166 86.848,115.878 86.606 C 116.590 86.364,117.303 86.100,117.462 86.020 C 118.144 85.675,119.142 85.283,120.316 84.900 C 121.008 84.674,121.727 84.389,121.915 84.267 C 122.102 84.144,122.497 83.991,122.792 83.926 C 123.088 83.861,123.372 83.738,123.425 83.654 C 123.477 83.569,123.659 83.500,123.829 83.500 C 123.999 83.500,124.726 83.248,125.444 82.939 C 127.219 82.177,127.812 82.003,128.544 82.031 C 129.527 82.068,130.960 81.514,131.076 81.052 C 131.129 80.840,131.258 80.667,131.362 80.667 C 131.466 80.667,131.957 80.475,132.453 80.240 C 132.949 80.005,133.931 79.621,134.636 79.387 C 135.340 79.152,136.001 78.893,136.104 78.811 C 136.207 78.729,136.844 78.472,137.520 78.242 C 138.197 78.011,138.900 77.759,139.083 77.683 C 139.267 77.606,139.829 77.375,140.333 77.170 C 140.837 76.964,141.496 76.692,141.797 76.565 C 142.098 76.437,142.520 76.333,142.735 76.333 C 142.950 76.333,143.219 76.221,143.333 76.083 C 143.447 75.946,143.625 75.831,143.729 75.828 C 143.832 75.825,144.217 75.677,144.583 75.500 C 144.950 75.323,145.404 75.175,145.593 75.172 C 145.782 75.169,146.082 75.057,146.260 74.922 C 146.438 74.787,146.691 74.675,146.822 74.672 C 146.954 74.669,147.373 74.516,147.754 74.331 C 148.135 74.147,148.946 73.958,149.555 73.911 C 150.764 73.819,151.424 73.620,151.875 73.213 C 152.144 72.969,152.167 72.419,152.167 66.211 L 152.167 59.473 151.605 59.820 C 151.297 60.011,150.899 60.167,150.722 60.167 C 150.545 60.167,150.312 60.254,150.205 60.361 C 150.022 60.544,149.766 60.656,148.333 61.176 C 148.012 61.293,147.514 61.488,147.225 61.611 C 146.936 61.733,146.595 61.833,146.466 61.833 C 146.338 61.833,146.162 61.905,146.074 61.992 C 145.987 62.080,145.016 62.484,143.916 62.891 C 142.816 63.297,141.504 63.795,141.000 63.996 C 140.496 64.197,139.837 64.423,139.537 64.498 C 139.236 64.573,138.890 64.717,138.767 64.820 C 138.643 64.922,137.989 65.196,137.313 65.428 C 136.637 65.661,135.773 65.993,135.393 66.168 C 134.387 66.630,133.818 66.745,133.676 66.516 C 133.476 66.191,131.183 67.110,131.279 67.477 C 131.338 67.702,131.092 67.862,130.135 68.222 C 129.465 68.475,128.317 68.933,127.583 69.241 C 126.850 69.549,125.867 69.913,125.398 70.051 C 124.930 70.189,124.405 70.381,124.231 70.478 C 123.577 70.845,122.340 71.334,122.051 71.339 C 121.885 71.342,121.604 71.454,121.426 71.589 C 121.249 71.723,120.969 71.833,120.806 71.833 C 120.642 71.833,120.262 71.983,119.962 72.166 C 119.662 72.349,119.267 72.501,119.083 72.505 C 118.900 72.508,118.604 72.621,118.426 72.755 C 118.249 72.890,117.973 73.000,117.815 73.000 C 117.657 73.000,117.315 73.111,117.055 73.246 C 115.300 74.161,112.958 74.837,112.744 74.491 C 112.672 74.374,112.503 74.402,112.240 74.574 C 111.738 74.904,111.018 74.908,110.894 74.583 C 110.841 74.446,110.637 74.332,110.441 74.331 C 110.244 74.329,108.921 73.873,107.500 73.318 C 102.090 71.203,99.703 70.271,98.333 69.740 C 97.554 69.438,96.129 68.879,95.167 68.498 C 94.204 68.117,93.285 67.766,93.125 67.717 C 92.965 67.668,92.833 67.562,92.833 67.481 C 92.833 67.400,92.698 67.333,92.532 67.333 C 92.023 67.333,90.091 66.628,89.950 66.391 C 89.877 66.268,89.673 66.167,89.497 66.167 C 89.321 66.167,88.106 65.750,86.797 65.240 C 85.488 64.730,83.854 64.096,83.167 63.829 C 77.463 61.621,74.098 60.296,71.875 59.383 C 71.710 59.316,71.667 60.708,71.669 66.024 M284.544 69.953 C 284.797 69.991,285.172 69.990,285.377 69.951 C 285.582 69.911,285.375 69.880,284.917 69.881 C 284.458 69.882,284.291 69.915,284.544 69.953 M71.667 82.310 L 71.667 89.159 72.042 89.398 C 72.248 89.530,72.736 89.731,73.127 89.846 C 73.518 89.960,73.921 90.154,74.022 90.277 C 74.124 90.400,74.330 90.500,74.479 90.500 C 74.733 90.500,76.121 91.023,84.417 94.247 C 86.250 94.959,88.612 95.876,89.667 96.285 C 90.721 96.694,91.733 97.122,91.917 97.238 C 92.100 97.353,92.460 97.499,92.716 97.562 C 92.973 97.625,94.060 98.019,95.133 98.436 C 96.206 98.854,97.571 99.382,98.167 99.610 C 98.763 99.838,99.400 100.091,99.583 100.174 C 100.083 100.399,104.666 102.167,104.749 102.167 C 104.935 102.167,111.269 104.720,111.408 104.851 C 111.637 105.066,112.076 105.035,112.703 104.759 C 113.004 104.627,113.737 104.334,114.333 104.109 C 115.605 103.629,117.194 103.018,121.333 101.417 C 122.204 101.080,123.404 100.618,124.000 100.391 C 125.155 99.950,125.378 99.865,127.833 98.913 C 128.704 98.576,129.743 98.176,130.141 98.025 C 130.582 97.858,130.924 97.602,131.013 97.372 C 131.094 97.164,131.368 96.919,131.622 96.827 C 131.876 96.735,132.233 96.596,132.417 96.517 C 133.084 96.232,135.115 95.450,136.408 94.981 C 137.137 94.717,137.808 94.425,137.900 94.334 C 137.992 94.242,138.202 94.167,138.367 94.167 C 138.533 94.167,138.948 94.017,139.290 93.833 C 139.632 93.650,140.063 93.498,140.248 93.495 C 140.432 93.492,140.729 93.379,140.907 93.245 C 141.085 93.110,141.364 93.000,141.528 93.000 C 141.691 93.000,142.071 92.850,142.371 92.667 C 142.671 92.484,143.067 92.332,143.250 92.329 C 143.433 92.325,143.729 92.213,143.907 92.078 C 144.085 91.943,144.389 91.833,144.582 91.833 C 144.775 91.833,145.005 91.764,145.092 91.678 C 145.179 91.593,145.587 91.398,146.000 91.246 C 148.304 90.392,149.082 90.161,149.556 90.187 C 150.211 90.223,151.294 89.928,151.792 89.578 L 152.167 89.314 152.167 82.574 C 152.167 78.867,152.139 75.833,152.104 75.833 C 152.070 75.833,151.714 76.016,151.313 76.239 C 150.912 76.463,150.021 76.832,149.333 77.060 C 148.646 77.288,147.786 77.631,147.423 77.821 C 147.060 78.011,146.665 78.167,146.546 78.167 C 146.426 78.167,146.199 78.232,146.039 78.312 C 145.555 78.556,143.999 79.170,142.412 79.743 C 141.584 80.042,140.656 80.417,140.349 80.575 C 140.042 80.734,139.406 80.977,138.937 81.114 C 138.467 81.252,137.858 81.461,137.583 81.580 C 137.308 81.698,136.746 81.940,136.333 82.117 C 134.951 82.712,134.157 82.909,133.870 82.728 C 133.587 82.549,131.253 83.337,131.247 83.613 C 131.242 83.907,130.965 84.167,130.657 84.167 C 130.479 84.167,130.333 84.240,130.333 84.330 C 130.333 84.420,130.127 84.544,129.875 84.604 C 129.623 84.665,129.154 84.846,128.833 85.006 C 128.169 85.337,127.277 85.659,126.667 85.789 C 126.438 85.837,126.138 85.969,126.000 86.082 C 125.862 86.195,125.150 86.491,124.417 86.740 C 123.683 86.989,122.591 87.408,121.990 87.672 C 121.388 87.936,120.526 88.245,120.073 88.359 C 119.620 88.473,119.138 88.651,119.000 88.754 C 118.660 89.010,117.014 89.667,116.712 89.667 C 116.578 89.667,116.269 89.772,116.026 89.900 C 114.577 90.664,113.505 91.005,112.866 90.903 C 112.456 90.837,112.166 90.867,112.094 90.982 C 111.935 91.240,111.079 91.213,110.855 90.943 C 110.753 90.820,110.714 90.675,110.768 90.621 C 110.822 90.567,110.721 90.561,110.543 90.607 C 110.365 90.654,109.664 90.464,108.985 90.186 C 107.843 89.718,106.480 89.185,102.333 87.584 C 101.462 87.247,99.925 86.647,98.917 86.250 C 95.243 84.802,92.388 83.694,91.125 83.227 C 90.377 82.951,89.864 82.670,89.905 82.561 C 89.948 82.443,89.850 82.404,89.646 82.457 C 89.465 82.504,88.852 82.352,88.284 82.119 C 87.715 81.885,86.763 81.507,86.167 81.278 C 84.419 80.608,82.051 79.687,80.083 78.915 C 79.075 78.519,77.350 77.848,76.250 77.423 C 72.960 76.153,72.434 75.937,72.042 75.694 L 71.667 75.462 71.667 82.310 M71.667 98.655 C 71.667 103.897,71.714 105.498,71.875 105.628 C 71.990 105.721,72.908 106.110,73.917 106.492 C 74.925 106.875,76.087 107.325,76.500 107.493 C 76.912 107.661,77.550 107.912,77.917 108.052 C 78.283 108.192,79.296 108.581,80.167 108.917 C 81.037 109.252,82.050 109.642,82.417 109.783 C 82.783 109.924,83.233 110.104,83.417 110.182 C 83.600 110.260,84.612 110.656,85.667 111.062 C 86.721 111.468,88.296 112.078,89.167 112.417 C 90.037 112.755,91.425 113.294,92.250 113.613 C 93.075 113.932,94.875 114.630,96.250 115.164 C 97.625 115.698,99.575 116.449,100.583 116.834 C 101.592 117.218,103.842 118.093,105.583 118.778 C 107.325 119.463,109.162 120.182,109.667 120.376 C 110.171 120.569,110.750 120.834,110.954 120.964 C 111.560 121.349,112.733 121.113,115.250 120.102 C 116.533 119.586,117.958 119.018,118.417 118.840 C 119.939 118.248,123.235 116.977,124.333 116.558 C 125.912 115.955,126.399 115.766,128.266 115.025 C 129.191 114.658,130.879 114.008,132.016 113.582 C 133.153 113.156,134.320 112.700,134.609 112.570 C 134.897 112.440,135.177 112.333,135.230 112.333 C 135.282 112.333,136.584 111.841,138.121 111.238 C 141.909 109.755,146.074 108.146,150.667 106.393 C 151.262 106.165,151.844 105.857,151.958 105.708 C 152.298 105.266,152.259 91.884,151.919 92.224 C 151.783 92.360,151.276 92.599,150.794 92.755 C 150.311 92.910,149.767 93.130,149.583 93.242 C 149.400 93.354,148.667 93.646,147.955 93.890 C 147.243 94.135,146.530 94.403,146.372 94.486 C 145.784 94.796,144.347 95.333,144.108 95.333 C 143.972 95.333,143.648 95.439,143.389 95.567 C 142.369 96.074,141.372 96.500,141.209 96.500 C 141.115 96.500,140.823 96.612,140.561 96.749 C 140.298 96.886,139.915 96.998,139.708 96.999 C 139.502 97.000,139.333 97.070,139.333 97.155 C 139.333 97.241,139.165 97.359,138.958 97.419 C 138.468 97.560,137.248 98.012,135.532 98.689 C 134.398 99.137,134.091 99.200,133.834 99.039 C 133.587 98.885,133.420 98.895,133.052 99.087 C 132.794 99.221,132.492 99.332,132.381 99.332 C 132.269 99.333,131.932 99.444,131.631 99.580 C 131.330 99.716,130.371 100.098,129.500 100.429 C 127.870 101.049,127.060 101.361,124.333 102.418 C 123.462 102.756,121.888 103.365,120.833 103.771 C 119.779 104.177,118.767 104.577,118.583 104.660 C 118.400 104.743,117.125 105.229,115.750 105.742 C 114.375 106.254,112.929 106.822,112.537 107.003 C 111.686 107.397,111.355 107.412,110.631 107.089 C 110.330 106.955,108.996 106.427,107.667 105.917 C 102.645 103.988,98.921 102.536,95.250 101.078 C 93.783 100.495,92.022 99.831,91.337 99.603 C 90.651 99.374,90.064 99.107,90.031 99.010 C 89.999 98.913,89.842 98.833,89.682 98.833 C 89.523 98.833,87.373 98.041,84.904 97.073 C 82.436 96.105,79.854 95.099,79.167 94.837 C 78.479 94.575,77.129 94.049,76.167 93.668 C 75.204 93.287,74.229 92.915,74.000 92.841 C 73.771 92.767,73.152 92.515,72.625 92.279 L 71.667 91.852 71.667 98.655 M299.208 111.953 C 299.460 111.991,299.873 111.991,300.125 111.953 C 300.377 111.915,300.171 111.883,299.667 111.883 C 299.162 111.883,298.956 111.915,299.208 111.953 " stroke="none" fill="#0591cc" fill-rule="evenodd"></path><path id="path4" d="M111.000 43.661 C 110.771 43.733,109.458 44.240,108.083 44.787 C 106.708 45.335,104.946 46.023,104.167 46.318 C 103.388 46.612,102.412 46.990,102.000 47.159 C 101.587 47.327,100.950 47.579,100.583 47.719 C 100.217 47.859,99.204 48.248,98.333 48.583 C 97.462 48.919,96.487 49.294,96.167 49.417 C 94.250 50.150,92.372 50.881,92.083 51.006 C 91.361 51.317,86.992 53.000,86.906 53.000 C 86.856 53.000,86.500 53.141,86.116 53.312 C 85.731 53.484,84.704 53.893,83.833 54.220 C 82.962 54.548,80.787 55.387,79.000 56.085 C 77.212 56.783,74.966 57.655,74.008 58.023 C 70.739 59.277,69.689 58.611,83.167 63.829 C 83.854 64.096,85.503 64.736,86.831 65.253 C 88.381 65.857,89.395 66.164,89.664 66.111 C 90.151 66.015,91.929 65.408,92.417 65.171 C 92.600 65.082,93.837 64.593,95.167 64.083 C 96.496 63.574,97.733 63.087,97.917 63.002 C 98.100 62.916,99.750 62.269,101.583 61.564 C 105.852 59.923,107.882 59.131,109.750 58.381 C 111.658 57.615,112.039 57.624,114.167 58.484 C 115.959 59.208,118.876 60.331,118.968 60.333 C 119.193 60.336,118.747 60.014,118.410 59.930 C 117.886 59.798,113.515 58.106,112.543 57.659 C 111.663 57.253,111.358 57.252,110.463 57.651 C 110.071 57.825,109.412 58.096,109.000 58.252 C 108.587 58.408,107.912 58.670,107.500 58.833 C 107.087 58.997,106.412 59.260,106.000 59.417 C 105.587 59.574,104.912 59.840,104.500 60.009 C 104.087 60.178,103.037 60.588,102.167 60.921 C 101.296 61.253,99.946 61.776,99.167 62.083 C 98.388 62.389,97.037 62.915,96.167 63.251 C 93.630 64.230,92.452 64.693,91.917 64.917 C 91.642 65.032,90.957 65.287,90.394 65.482 L 89.372 65.837 87.811 65.246 C 86.952 64.921,86.014 64.545,85.725 64.411 C 85.436 64.277,85.155 64.167,85.100 64.167 C 85.045 64.167,83.106 63.422,80.792 62.512 C 78.477 61.602,75.663 60.501,74.538 60.066 C 72.220 59.169,72.187 59.113,73.672 58.589 C 74.265 58.380,76.025 57.706,77.583 57.092 C 80.779 55.832,82.003 55.355,83.625 54.739 C 85.870 53.885,86.091 53.799,86.583 53.589 C 87.474 53.208,88.403 52.859,89.039 52.665 C 89.382 52.561,89.705 52.406,89.758 52.321 C 89.810 52.236,89.968 52.167,90.110 52.167 C 90.251 52.167,90.603 52.063,90.891 51.936 C 91.180 51.809,91.867 51.541,92.417 51.341 C 92.967 51.140,93.642 50.875,93.917 50.751 C 94.192 50.627,94.829 50.377,95.333 50.196 C 95.837 50.015,97.150 49.515,98.250 49.086 C 99.350 48.657,100.925 48.044,101.750 47.723 C 103.800 46.926,104.466 46.659,105.283 46.304 C 105.667 46.137,106.021 46.000,106.069 46.000 C 106.312 46.000,110.986 44.098,111.417 43.824 C 111.928 43.498,111.743 43.425,111.000 43.661 M112.538 43.845 C 113.053 44.145,123.064 47.991,123.138 47.917 C 123.178 47.878,123.031 47.776,122.813 47.691 C 122.595 47.606,122.117 47.418,121.750 47.272 C 121.383 47.127,119.419 46.373,117.385 45.597 C 115.351 44.821,113.461 44.069,113.185 43.926 C 112.631 43.639,112.064 43.568,112.538 43.845 M124.654 48.589 C 125.426 48.905,126.093 49.129,126.135 49.087 C 126.178 49.044,126.034 48.940,125.815 48.855 C 125.596 48.770,125.020 48.543,124.535 48.350 C 124.051 48.158,123.563 48.003,123.452 48.007 C 123.341 48.011,123.882 48.273,124.654 48.589 M126.583 49.324 C 126.767 49.399,129.092 50.301,131.750 51.327 C 138.489 53.929,138.453 53.915,139.720 54.416 C 140.345 54.663,140.891 54.831,140.934 54.788 C 140.977 54.746,140.203 54.405,139.214 54.032 C 137.208 53.275,128.904 50.066,127.535 49.519 C 127.051 49.325,126.563 49.171,126.452 49.177 C 126.341 49.183,126.400 49.249,126.583 49.324 M141.500 55.083 C 141.729 55.214,142.029 55.321,142.167 55.321 C 142.304 55.321,142.164 55.211,141.856 55.077 C 141.146 54.769,140.956 54.772,141.500 55.083 M143.000 55.667 C 143.321 55.842,143.696 55.984,143.833 55.981 C 143.971 55.978,143.783 55.836,143.417 55.667 C 142.539 55.260,142.258 55.260,143.000 55.667 M144.500 56.250 C 144.729 56.381,145.029 56.488,145.167 56.488 C 145.304 56.487,145.164 56.377,144.856 56.243 C 144.146 55.935,143.956 55.939,144.500 56.250 M145.917 56.758 C 146.891 57.220,150.372 58.517,150.445 58.444 C 150.485 58.404,150.195 58.255,149.801 58.114 C 149.406 57.973,148.296 57.553,147.334 57.179 C 145.562 56.491,145.005 56.326,145.917 56.758 M151.062 58.772 C 151.662 59.098,151.455 59.359,150.242 59.812 C 149.788 59.981,147.917 60.704,146.083 61.419 C 142.990 62.625,141.688 63.128,136.207 65.234 L 134.164 66.019 132.374 65.353 C 131.389 64.987,129.796 64.376,128.833 63.996 C 126.955 63.255,126.106 62.987,126.917 63.391 C 127.739 63.801,129.031 64.333,129.204 64.333 C 129.293 64.333,129.603 64.444,129.891 64.580 C 130.180 64.716,131.092 65.074,131.917 65.376 C 133.018 65.779,133.461 66.027,133.583 66.307 C 133.777 66.751,134.188 66.722,135.363 66.182 C 135.759 66.000,136.637 65.661,137.313 65.428 C 137.989 65.196,138.643 64.922,138.767 64.820 C 138.890 64.717,139.236 64.573,139.537 64.498 C 139.837 64.423,140.496 64.197,141.000 63.996 C 141.504 63.795,142.816 63.297,143.916 62.891 C 145.016 62.484,145.987 62.080,146.074 61.992 C 146.162 61.905,146.338 61.833,146.466 61.833 C 146.595 61.833,146.936 61.733,147.225 61.611 C 147.514 61.488,148.012 61.293,148.333 61.176 C 149.766 60.656,150.022 60.544,150.205 60.361 C 150.312 60.254,150.542 60.167,150.716 60.167 C 151.834 60.167,152.313 59.211,151.411 58.781 C 150.675 58.430,150.417 58.423,151.062 58.772 M111.000 59.937 C 110.679 60.078,109.779 60.437,109.000 60.736 C 107.654 61.253,102.657 63.189,99.417 64.449 C 98.592 64.770,97.054 65.365,96.000 65.770 C 92.728 67.030,92.152 67.420,93.125 67.717 C 93.285 67.766,94.204 68.117,95.167 68.498 C 96.129 68.879,97.554 69.438,98.333 69.740 C 99.703 70.271,102.090 71.203,107.500 73.318 C 110.338 74.427,110.416 74.444,111.106 74.084 C 111.772 73.737,112.049 73.770,112.500 74.250 C 113.037 74.822,114.759 74.442,117.055 73.246 C 117.315 73.111,117.657 73.000,117.815 73.000 C 117.973 73.000,118.249 72.890,118.426 72.755 C 118.604 72.621,118.900 72.508,119.083 72.505 C 119.267 72.501,119.662 72.349,119.962 72.166 C 120.262 71.983,120.642 71.833,120.806 71.833 C 120.969 71.833,121.249 71.723,121.426 71.589 C 121.604 71.454,121.885 71.342,122.051 71.339 C 122.340 71.334,123.577 70.845,124.231 70.478 C 124.405 70.381,124.930 70.189,125.398 70.051 C 125.867 69.913,126.850 69.549,127.583 69.241 C 128.317 68.933,129.463 68.476,130.131 68.224 C 130.985 67.902,131.330 67.691,131.296 67.513 C 131.249 67.270,128.040 65.905,127.884 66.060 C 127.845 66.099,128.174 66.264,128.615 66.426 C 130.767 67.217,130.895 67.357,129.827 67.745 C 128.750 68.136,124.698 69.703,120.917 71.191 C 120.000 71.552,118.725 72.039,118.083 72.274 C 117.442 72.509,116.692 72.796,116.417 72.911 C 116.142 73.026,115.692 73.214,115.417 73.329 C 113.742 74.031,113.242 74.135,112.677 73.897 C 112.040 73.630,110.946 73.595,110.508 73.829 C 110.277 73.952,109.596 73.750,107.644 72.978 C 106.236 72.421,104.446 71.718,103.667 71.415 C 102.888 71.113,101.388 70.526,100.333 70.111 C 99.279 69.697,97.517 69.015,96.417 68.597 C 93.390 67.446,93.126 67.259,94.083 66.949 C 94.358 66.860,95.596 66.392,96.833 65.910 C 98.071 65.427,99.796 64.762,100.667 64.431 C 101.537 64.101,102.475 63.726,102.750 63.598 C 103.025 63.470,103.400 63.311,103.583 63.245 C 105.223 62.654,109.409 61.066,109.917 60.843 C 110.100 60.763,110.609 60.532,111.048 60.331 C 111.487 60.129,111.974 60.001,112.131 60.047 C 112.288 60.092,112.567 60.180,112.750 60.242 C 112.958 60.312,112.926 60.264,112.667 60.115 C 111.964 59.710,111.607 59.672,111.000 59.937 M113.335 60.491 C 113.635 60.667,117.168 62.002,117.314 61.995 C 117.548 61.983,116.809 61.656,115.101 61.014 C 113.310 60.342,112.845 60.204,113.335 60.491 M119.193 60.415 C 119.288 60.511,123.192 62.002,123.326 61.995 C 123.546 61.983,122.782 61.646,121.101 61.014 C 119.312 60.342,119.032 60.254,119.193 60.415 M118.083 62.317 C 118.450 62.489,118.938 62.676,119.167 62.732 C 119.396 62.788,119.283 62.695,118.916 62.525 C 118.549 62.354,118.061 62.168,117.833 62.110 C 117.604 62.052,117.717 62.145,118.083 62.317 M123.917 62.246 C 124.669 62.605,126.222 63.167,126.287 63.102 C 126.354 63.035,123.789 61.998,123.569 62.004 C 123.485 62.006,123.642 62.115,123.917 62.246 M119.681 62.900 C 119.747 62.963,122.076 63.887,125.250 65.108 C 126.075 65.425,126.928 65.758,127.147 65.849 C 127.365 65.939,127.573 65.982,127.610 65.945 C 127.647 65.908,127.469 65.797,127.214 65.699 C 126.080 65.260,122.783 63.980,121.379 63.433 C 119.944 62.874,119.511 62.738,119.681 62.900 M249.500 70.346 C 242.634 72.092,239.160 79.169,242.169 85.280 C 243.449 87.880,245.718 89.363,250.667 90.836 C 253.941 91.810,254.907 92.255,255.735 93.172 C 256.959 94.527,256.622 97.389,255.130 98.301 C 252.716 99.776,249.956 99.370,245.957 96.951 C 243.767 95.626,242.970 95.941,241.147 98.856 C 239.669 101.219,239.668 101.246,241.074 102.250 C 249.979 108.604,261.785 105.921,263.943 97.052 C 265.396 91.080,262.698 86.714,256.250 84.602 C 249.655 82.442,248.638 81.758,248.888 79.650 C 249.275 76.376,252.966 75.577,257.493 77.787 C 260.572 79.289,260.936 79.171,262.569 76.142 C 263.884 73.705,263.885 73.689,262.842 72.923 C 259.398 70.395,253.664 69.288,249.500 70.346 M281.417 70.209 C 270.896 72.271,264.909 81.821,267.442 92.500 C 269.619 101.677,278.670 107.143,288.833 105.416 C 289.409 105.319,289.442 105.346,291.333 107.525 C 295.105 111.871,294.887 111.765,300.374 111.929 C 305.119 112.070,305.337 111.968,303.788 110.326 C 303.309 109.817,302.417 108.842,301.806 108.159 C 301.194 107.476,299.751 105.868,298.597 104.586 C 296.212 101.936,296.284 102.107,297.245 101.333 C 303.993 95.902,305.073 84.089,299.498 76.691 C 295.681 71.626,288.085 68.902,281.417 70.209 M256.250 70.478 C 258.249 70.777,261.302 72.039,262.667 73.129 C 263.079 73.459,263.443 73.747,263.474 73.769 C 263.600 73.857,261.719 77.239,261.227 77.810 C 260.521 78.630,259.677 78.629,258.155 77.807 C 253.275 75.172,248.900 76.038,248.694 79.680 C 248.622 80.963,248.873 81.595,249.708 82.226 C 250.377 82.731,252.296 83.667,252.663 83.667 C 252.812 83.667,253.005 83.726,253.092 83.799 C 253.179 83.872,253.700 84.067,254.250 84.232 C 254.800 84.398,255.380 84.601,255.539 84.683 C 255.699 84.766,255.933 84.833,256.060 84.833 C 256.338 84.833,257.476 85.313,259.154 86.136 C 267.058 90.017,264.986 102.340,256.000 104.885 C 254.605 105.280,252.122 105.559,251.046 105.442 C 250.517 105.384,249.708 105.295,249.250 105.243 C 245.495 104.818,239.715 101.829,240.346 100.639 C 242.184 97.171,243.724 95.892,245.048 96.735 C 251.292 100.715,256.852 100.038,256.831 95.302 C 256.823 93.517,254.394 91.167,252.558 91.167 C 252.379 91.167,252.162 91.104,252.075 91.028 C 251.988 90.952,251.429 90.754,250.833 90.588 C 245.262 89.037,243.298 87.580,241.840 83.917 C 241.767 83.733,241.623 83.038,241.520 82.372 C 240.439 75.363,245.796 69.945,253.500 70.257 C 254.463 70.296,255.700 70.395,256.250 70.478 M288.417 70.485 C 292.788 71.168,296.462 73.323,299.380 76.917 C 300.028 77.715,301.070 79.656,301.574 81.006 C 301.830 81.690,302.100 82.400,302.175 82.583 C 302.572 83.559,302.868 86.544,302.779 88.667 C 302.572 93.582,300.861 97.500,297.516 100.714 C 295.917 102.251,295.949 102.079,297.042 103.263 C 297.523 103.785,298.039 104.353,298.188 104.525 C 298.337 104.697,299.020 105.455,299.704 106.210 C 303.302 110.178,304.323 111.382,304.226 111.539 C 304.154 111.655,302.844 111.686,300.265 111.631 C 295.019 111.519,295.262 111.645,291.083 106.860 L 289.583 105.142 288.083 105.268 C 275.576 106.319,267.254 99.387,267.251 87.917 C 267.250 85.642,267.490 83.445,267.832 82.583 C 267.905 82.400,268.094 81.875,268.253 81.417 C 270.286 75.532,275.575 71.276,281.833 70.487 C 282.521 70.401,283.158 70.295,283.250 70.251 C 283.498 70.135,287.265 70.306,288.417 70.485 M179.875 70.444 C 179.710 70.510,179.667 74.147,179.667 87.844 L 179.667 105.160 180.042 105.252 C 180.248 105.303,181.879 105.323,183.667 105.297 L 186.917 105.250 186.951 94.667 C 186.970 88.846,186.988 84.019,186.992 83.941 C 187.000 83.794,187.464 84.367,192.770 91.083 C 194.509 93.283,196.053 95.233,196.203 95.417 C 196.352 95.600,197.359 96.875,198.440 98.250 C 199.522 99.625,200.448 100.787,200.499 100.833 C 200.551 100.879,201.102 101.574,201.725 102.378 C 203.952 105.255,204.197 105.374,207.750 105.299 L 210.083 105.250 210.083 87.833 L 210.083 70.417 206.500 70.417 L 202.917 70.417 202.917 81.042 C 202.917 88.018,202.859 91.664,202.750 91.660 C 202.658 91.656,202.262 91.223,201.870 90.697 C 201.478 90.170,200.990 89.545,200.787 89.308 C 200.583 89.070,199.817 88.109,199.083 87.173 C 198.350 86.237,196.813 84.295,195.667 82.858 C 194.521 81.420,192.758 79.198,191.750 77.919 C 190.742 76.641,189.291 74.804,188.526 73.839 C 187.762 72.873,186.974 71.873,186.776 71.615 C 185.935 70.520,185.310 70.332,182.569 70.346 C 181.202 70.354,179.990 70.397,179.875 70.444 M307.778 70.444 C 307.504 70.718,307.655 105.127,307.930 105.232 C 308.275 105.364,328.225 105.364,328.570 105.232 C 329.015 105.061,328.960 99.079,328.511 98.839 C 328.306 98.729,325.977 98.667,322.094 98.667 L 316.000 98.667 316.000 84.700 C 316.000 74.059,315.952 70.686,315.800 70.533 C 315.583 70.317,307.990 70.233,307.778 70.444 M185.089 70.721 C 186.026 71.083,185.812 70.846,190.181 76.358 C 194.031 81.215,197.278 85.323,198.397 86.750 C 199.044 87.575,199.702 88.400,199.860 88.583 C 200.018 88.767,200.752 89.685,201.492 90.625 C 202.768 92.247,203.160 92.597,203.172 92.125 C 203.175 92.010,203.194 87.117,203.214 81.250 L 203.250 70.583 206.583 70.583 L 209.917 70.583 209.962 87.500 C 209.988 96.804,209.967 104.585,209.918 104.792 C 209.829 105.156,209.768 105.167,207.693 105.167 C 204.307 105.167,204.100 105.043,201.137 101.230 C 200.433 100.324,199.705 99.396,199.519 99.167 C 198.978 98.500,197.627 96.793,197.083 96.089 C 196.808 95.733,196.391 95.211,196.157 94.929 C 195.922 94.647,195.063 93.554,194.247 92.500 C 193.431 91.446,192.720 90.546,192.668 90.500 C 192.616 90.454,192.018 89.704,191.339 88.833 C 188.318 84.955,187.105 83.500,186.893 83.500 C 186.705 83.500,186.667 85.308,186.667 94.337 L 186.667 105.174 183.375 105.129 L 180.083 105.083 180.040 88.000 C 180.017 78.604,180.033 70.823,180.077 70.708 C 180.182 70.432,184.370 70.443,185.089 70.721 M315.626 84.708 L 315.669 98.833 321.821 98.833 C 325.204 98.833,328.091 98.879,328.236 98.934 C 328.526 99.046,328.640 104.522,328.362 104.960 C 328.257 105.125,326.104 105.160,318.156 105.126 L 308.083 105.083 308.040 88.000 C 308.017 78.604,308.034 70.821,308.078 70.705 C 308.141 70.541,308.992 70.504,311.871 70.538 L 315.583 70.583 315.626 84.708 M148.295 74.112 C 147.867 74.237,147.471 74.412,147.415 74.503 C 147.359 74.593,147.149 74.669,146.948 74.672 C 146.748 74.675,146.438 74.787,146.260 74.922 C 146.082 75.057,145.782 75.169,145.593 75.172 C 145.404 75.175,144.950 75.323,144.583 75.500 C 144.217 75.677,143.832 75.825,143.729 75.828 C 143.625 75.831,143.447 75.946,143.333 76.083 C 143.219 76.221,142.950 76.333,142.735 76.333 C 142.520 76.333,142.098 76.437,141.797 76.565 C 141.496 76.692,140.837 76.964,140.333 77.170 C 139.829 77.375,139.267 77.606,139.083 77.683 C 138.900 77.759,138.197 78.011,137.520 78.242 C 136.844 78.472,136.207 78.729,136.104 78.811 C 136.001 78.893,135.340 79.152,134.636 79.387 C 133.931 79.621,132.949 80.005,132.453 80.240 C 131.957 80.475,131.473 80.667,131.377 80.667 C 131.233 80.667,131.000 81.028,131.000 81.252 C 131.000 81.354,132.874 82.014,132.950 81.939 C 132.990 81.899,132.755 81.778,132.428 81.670 C 131.795 81.462,131.642 81.098,132.125 80.949 C 132.285 80.900,133.504 80.435,134.833 79.917 C 136.162 79.399,138.112 78.648,139.167 78.247 C 140.221 77.847,141.871 77.210,142.833 76.831 C 149.191 74.331,149.018 74.377,150.333 74.813 C 151.634 75.245,151.572 75.578,150.083 76.158 C 144.045 78.511,142.328 79.177,138.667 80.585 C 137.337 81.097,135.879 81.670,135.427 81.859 C 134.833 82.107,134.406 82.176,133.897 82.107 L 133.192 82.010 133.573 82.422 C 134.076 82.964,134.549 82.907,136.458 82.071 C 137.875 81.450,138.140 81.348,138.937 81.114 C 139.406 80.977,140.042 80.734,140.349 80.575 C 140.656 80.417,141.584 80.042,142.412 79.743 C 143.999 79.170,145.555 78.556,146.039 78.312 C 146.199 78.232,146.431 78.167,146.556 78.167 C 146.681 78.167,147.114 77.993,147.517 77.781 C 147.920 77.569,148.777 77.227,149.421 77.022 C 151.965 76.212,152.512 75.597,151.217 75.007 C 150.025 74.465,149.915 74.391,149.933 74.144 C 149.954 73.842,149.267 73.828,148.295 74.112 M73.661 74.389 C 73.526 74.512,73.094 74.704,72.700 74.815 C 71.029 75.289,71.304 75.500,75.917 77.292 C 76.650 77.577,78.300 78.221,79.583 78.722 C 82.365 79.809,84.685 80.710,86.167 81.278 C 86.763 81.507,87.722 81.888,88.299 82.125 L 89.348 82.556 90.466 82.170 C 93.013 81.288,93.009 81.283,88.250 79.457 C 85.271 78.314,82.533 77.258,80.750 76.562 C 79.108 75.922,76.088 74.755,75.167 74.404 C 74.413 74.116,73.964 74.112,73.661 74.389 M75.669 75.012 C 76.172 75.202,76.808 75.434,77.083 75.529 C 77.358 75.623,77.820 75.805,78.109 75.933 C 78.397 76.062,78.739 76.167,78.867 76.167 C 78.995 76.167,79.171 76.237,79.258 76.323 C 79.345 76.409,80.017 76.705,80.750 76.980 C 83.754 78.109,86.114 79.025,86.609 79.255 C 86.897 79.390,87.181 79.500,87.239 79.500 C 87.515 79.500,91.264 81.063,91.363 81.219 C 91.704 81.756,89.225 82.210,88.367 81.768 C 88.119 81.641,86.342 80.930,84.417 80.189 C 82.492 79.448,79.942 78.460,78.750 77.993 C 76.179 76.986,74.139 76.202,73.333 75.910 C 72.493 75.606,72.505 75.253,73.366 74.956 C 74.364 74.612,74.627 74.618,75.669 75.012 M283.667 76.766 C 279.721 77.208,276.830 79.590,275.698 83.333 C 275.239 84.851,275.167 85.462,275.167 87.833 C 275.167 89.233,275.247 90.687,275.344 91.064 C 276.746 96.486,279.645 98.833,284.936 98.833 C 290.385 98.833,293.236 96.554,294.656 91.064 C 294.753 90.687,294.833 89.233,294.833 87.833 C 294.833 85.462,294.761 84.851,294.302 83.333 C 292.921 78.766,288.758 76.195,283.667 76.766 M287.588 77.228 C 291.961 78.167,294.675 82.235,294.663 87.833 C 294.650 94.644,291.054 98.671,285.000 98.658 C 278.930 98.645,275.323 94.573,275.337 87.750 C 275.353 80.135,280.508 75.707,287.588 77.228 M223.011 80.257 C 215.447 82.098,211.616 89.731,214.273 97.665 C 217.605 107.618,232.892 108.661,237.513 99.251 C 240.536 93.093,238.595 84.866,233.397 81.807 C 230.608 80.166,226.131 79.498,223.011 80.257 M229.167 80.474 C 233.328 81.108,236.950 84.390,238.117 88.583 C 238.810 91.072,238.833 95.186,238.164 96.917 C 238.093 97.100,237.901 97.625,237.738 98.083 C 235.685 103.837,228.933 106.782,222.167 104.875 C 211.422 101.847,210.766 84.816,221.250 81.094 C 221.708 80.931,222.233 80.738,222.417 80.664 C 223.513 80.223,226.898 80.128,229.167 80.474 M127.250 82.206 C 126.975 82.300,126.162 82.630,125.444 82.938 C 124.726 83.247,123.999 83.500,123.829 83.500 C 123.659 83.500,123.477 83.569,123.425 83.654 C 123.372 83.738,123.088 83.861,122.792 83.926 C 122.497 83.991,122.102 84.144,121.915 84.267 C 121.727 84.389,121.008 84.674,120.316 84.900 C 119.142 85.283,118.144 85.675,117.462 86.020 C 117.303 86.100,116.590 86.364,115.878 86.606 C 115.166 86.848,114.465 87.148,114.320 87.273 C 114.175 87.398,113.875 87.503,113.654 87.507 C 113.432 87.510,112.853 87.727,112.368 87.988 L 111.486 88.463 109.785 87.804 C 108.849 87.441,107.221 86.808,106.167 86.396 C 105.112 85.985,103.688 85.435,103.000 85.176 C 102.313 84.916,101.037 84.426,100.167 84.086 C 94.869 82.017,95.503 82.158,94.183 82.756 C 92.263 83.627,92.266 83.652,94.450 84.501 C 95.440 84.886,97.263 85.599,98.500 86.085 C 99.737 86.572,101.462 87.245,102.333 87.582 C 106.367 89.143,107.844 89.720,109.042 90.205 C 110.310 90.718,110.345 90.723,110.923 90.447 C 111.738 90.058,112.212 90.096,112.636 90.583 C 113.137 91.160,113.948 90.996,116.026 89.900 C 116.269 89.772,116.578 89.667,116.712 89.667 C 117.014 89.667,118.660 89.010,119.000 88.754 C 119.138 88.651,119.620 88.473,120.073 88.359 C 120.526 88.245,121.388 87.936,121.990 87.672 C 122.591 87.408,123.683 86.989,124.417 86.740 C 125.150 86.491,125.862 86.195,126.000 86.082 C 126.138 85.969,126.438 85.837,126.667 85.789 C 127.277 85.659,128.169 85.337,128.833 85.006 C 129.154 84.846,129.623 84.665,129.875 84.604 C 130.127 84.544,130.333 84.420,130.333 84.330 C 130.333 84.240,130.474 84.167,130.646 84.167 C 131.277 84.167,131.404 83.712,130.853 83.427 C 130.224 83.102,130.068 83.097,130.329 83.411 C 130.553 83.681,130.127 83.922,128.000 84.727 C 127.404 84.953,126.204 85.413,125.333 85.750 C 124.462 86.087,123.263 86.549,122.667 86.777 C 122.071 87.004,121.433 87.259,121.250 87.342 C 121.067 87.426,119.417 88.060,117.583 88.752 C 115.750 89.444,114.120 90.083,113.961 90.172 C 113.550 90.401,113.101 90.373,112.147 90.061 C 111.492 89.847,111.225 89.829,110.899 89.978 C 110.296 90.252,110.149 90.228,108.455 89.567 C 107.609 89.237,106.054 88.635,105.000 88.229 C 103.946 87.823,102.933 87.419,102.750 87.331 C 102.567 87.244,101.517 86.829,100.417 86.409 C 92.771 83.493,92.958 83.593,94.289 83.116 C 95.238 82.776,96.137 82.752,96.588 83.053 C 96.769 83.174,97.292 83.408,97.750 83.573 C 98.208 83.739,99.408 84.192,100.417 84.581 C 101.425 84.970,103.450 85.751,104.917 86.316 C 106.383 86.881,107.733 87.414,107.917 87.500 C 110.129 88.536,111.644 88.910,112.369 88.599 C 113.078 88.296,115.111 87.500,119.250 85.905 C 128.447 82.361,128.282 82.411,129.167 82.917 C 129.396 83.048,129.696 83.152,129.833 83.149 C 129.971 83.146,129.765 83.001,129.375 82.828 C 128.984 82.655,128.667 82.399,128.667 82.257 C 128.667 81.960,128.036 81.938,127.250 82.206 M224.033 85.931 C 223.557 86.169,222.907 86.667,222.588 87.040 C 222.052 87.666,221.859 88.078,221.354 89.678 C 220.819 91.377,221.190 95.989,222.001 97.715 C 223.278 100.432,227.498 101.042,229.671 98.824 C 231.462 96.996,231.934 91.204,230.551 88.035 C 229.568 85.784,226.389 84.758,224.033 85.931 M228.262 86.079 C 232.060 87.657,232.177 97.691,228.419 99.441 C 226.574 100.300,223.827 99.813,222.781 98.443 C 220.844 95.904,220.847 89.436,222.785 87.171 C 223.932 85.831,226.456 85.328,228.262 86.079 M147.833 90.574 C 145.580 91.393,145.246 91.528,145.092 91.678 C 145.005 91.764,144.775 91.833,144.582 91.833 C 144.389 91.833,144.085 91.943,143.907 92.078 C 143.729 92.213,143.433 92.325,143.250 92.329 C 143.067 92.332,142.671 92.484,142.371 92.667 C 142.071 92.850,141.691 93.000,141.528 93.000 C 141.364 93.000,141.085 93.110,140.907 93.245 C 140.729 93.379,140.432 93.492,140.248 93.495 C 140.063 93.498,139.632 93.650,139.290 93.833 C 138.948 94.017,138.533 94.167,138.367 94.167 C 138.202 94.167,137.992 94.242,137.900 94.334 C 137.808 94.425,137.137 94.717,136.408 94.981 C 135.206 95.417,133.737 95.983,132.167 96.615 C 130.655 97.223,130.646 97.482,132.119 97.992 C 132.791 98.225,133.397 98.560,133.611 98.817 L 133.972 99.250 134.778 98.948 C 137.692 97.855,138.308 97.630,138.792 97.483 C 139.090 97.392,139.333 97.246,139.333 97.159 C 139.333 97.071,139.502 97.000,139.708 96.999 C 139.915 96.998,140.298 96.886,140.561 96.749 C 140.823 96.612,141.115 96.500,141.209 96.500 C 141.372 96.500,142.369 96.074,143.389 95.567 C 143.648 95.439,143.972 95.333,144.108 95.333 C 144.346 95.333,145.783 94.796,146.371 94.487 C 146.529 94.404,147.129 94.176,147.704 93.980 C 148.279 93.784,149.125 93.457,149.583 93.252 C 150.042 93.048,150.773 92.751,151.208 92.593 C 152.258 92.212,152.075 91.145,150.964 91.172 C 150.837 91.175,150.869 91.246,151.042 91.347 C 151.792 91.784,151.755 91.803,145.833 94.080 C 142.175 95.487,141.197 95.868,137.667 97.257 C 134.114 98.655,134.148 98.651,132.406 97.923 C 131.453 97.525,131.622 97.371,133.917 96.547 C 134.558 96.317,135.383 95.996,135.750 95.833 C 136.117 95.671,136.967 95.341,137.640 95.100 C 138.313 94.860,139.213 94.519,139.640 94.343 C 140.389 94.034,142.145 93.353,144.583 92.426 C 145.225 92.182,145.900 91.921,146.083 91.845 C 148.690 90.773,148.919 90.731,150.333 91.063 C 150.713 91.152,150.709 91.144,150.292 90.965 C 150.033 90.854,149.833 90.638,149.833 90.468 C 149.833 90.050,149.181 90.085,147.833 90.574 M73.753 90.662 C 73.698 90.751,73.363 90.902,73.009 90.998 C 72.655 91.093,72.189 91.315,71.974 91.491 L 71.583 91.810 72.583 92.259 C 73.133 92.505,73.771 92.767,74.000 92.841 C 74.229 92.915,75.204 93.287,76.167 93.667 C 77.129 94.047,78.554 94.603,79.333 94.903 C 80.112 95.202,82.722 96.219,85.132 97.163 C 89.482 98.865,89.519 98.876,90.049 98.613 C 90.343 98.468,90.921 98.245,91.333 98.119 C 93.046 97.594,93.050 97.596,84.417 94.245 C 74.023 90.211,74.030 90.214,73.753 90.662 M76.477 91.572 C 77.269 91.887,78.779 92.479,79.833 92.889 C 80.887 93.299,82.634 93.979,83.714 94.401 C 84.794 94.822,85.723 95.167,85.779 95.167 C 85.835 95.167,86.526 95.435,87.315 95.763 C 88.104 96.091,89.050 96.474,89.417 96.613 C 91.780 97.508,91.900 97.668,90.503 98.056 C 89.218 98.413,89.371 98.430,87.604 97.737 C 86.056 97.129,84.324 96.452,81.708 95.431 C 72.009 91.644,72.440 91.827,72.668 91.599 C 73.365 90.902,74.766 90.892,76.477 91.572 " stroke="none" fill="#475a8e" fill-rule="evenodd"></path></g></svg>