<?xml version="1.0" standalone="no"?>
<!DOCTYPE svg PUBLIC "-//W3C//DTD SVG 20010904//EN"
 "http://www.w3.org/TR/2001/REC-SVG-20010904/DTD/svg10.dtd">
<svg version="1.0" xmlns="http://www.w3.org/2000/svg"
 width="400.000000pt" height="400.000000pt" viewBox="0 0 400.000000 400.000000"
 preserveAspectRatio="xMidYMid meet">

<g transform="translate(0.000000,400.000000) scale(0.100000,-0.100000)"
fill="#000000" stroke="none">
<path d="M1800 2453 c-9 -2 -45 -49 -80 -104 -36 -55 -89 -136 -117 -180 -29
-45 -53 -85 -53 -90 0 -5 16 -9 35 -9 33 0 38 5 98 98 35 53 76 118 91 145 33
57 58 61 82 15 9 -18 27 -48 41 -66 38 -51 27 -62 -66 -62 -44 0 -82 -4 -85
-8 -3 -5 2 -18 10 -30 14 -20 24 -22 113 -22 l98 0 32 -35 c22 -25 40 -35 61
-35 37 0 37 8 2 62 -16 24 -66 102 -112 173 -46 72 -86 133 -89 136 -9 10 -44
17 -61 12z"/>
<path d="M2350 2451 c-173 -7 -203 -16 -237 -74 -37 -62 -45 -100 -32 -153 16
-67 42 -100 100 -129 44 -23 60 -25 182 -25 117 0 136 2 150 18 34 37 22 40
-137 44 l-155 3 -35 34 c-61 59 -60 131 0 188 l35 33 134 0 c132 0 134 0 154
26 19 24 20 47 3 42 -4 -1 -77 -4 -162 -7z"/>
<path d="M2602 2448 c-17 -17 -17 -349 0 -366 8 -8 65 -12 188 -12 159 0 179
2 193 18 35 39 24 42 -147 42 -118 0 -167 3 -172 12 -4 7 -7 74 -5 151 2 96
-1 143 -9 153 -15 17 -32 18 -48 2z"/>
<path d="M3280 2451 c-173 -7 -186 -11 -237 -77 -22 -30 -28 -49 -31 -103 -3
-60 -1 -70 28 -113 49 -73 91 -88 253 -88 129 0 134 1 157 25 31 33 26 34
-152 37 l-147 3 -30 29 c-32 30 -41 66 -18 66 6 1 76 1 153 0 118 -1 144 2
158 15 9 9 16 24 16 33 0 15 -16 17 -163 14 -139 -3 -165 -1 -177 12 -11 14
-7 21 24 51 l37 35 134 0 c132 0 134 0 154 26 19 24 20 47 3 42 -4 -1 -77 -4
-162 -7z"/>
<path d="M3533 2449 c-11 -11 -6 -56 7 -64 5 -3 15 -2 24 1 21 8 21 60 0 68
-20 8 -18 8 -31 -5z"/>
<path d="M490 2427 c-61 -32 -102 -111 -94 -180 7 -69 44 -121 104 -152 46
-24 59 -25 205 -25 146 0 159 2 205 25 72 36 104 94 98 178 -5 77 -36 129 -94
157 -35 18 -61 20 -211 20 -158 0 -173 -2 -213 -23z m401 -58 c81 -58 75 -165
-13 -219 -30 -19 -47 -20 -183 -18 -167 3 -188 10 -219 76 -22 45 -20 83 7
123 36 54 56 59 225 59 140 0 157 -2 183 -21z"/>
<path d="M1072 2263 l3 -188 25 0 25 0 5 155 5 155 130 5 c72 3 140 1 151 -4
29 -11 48 -48 39 -75 -13 -42 -47 -53 -155 -52 -57 1 -100 -2 -100 -8 0 -5 24
-29 53 -53 28 -23 57 -48 62 -54 40 -43 96 -74 134 -74 23 0 41 3 41 8 0 4
-25 27 -56 51 -55 43 -64 63 -28 69 74 12 114 60 114 137 0 40 -5 52 -34 81
l-34 34 -191 0 -191 0 2 -187z"/>
<path d="M1094 1886 c-3 -8 0 -31 6 -53 6 -21 20 -71 30 -112 20 -79 39 -107
64 -98 14 6 20 23 42 121 14 60 30 54 44 -16 27 -132 71 -146 99 -32 5 22 19
72 31 113 15 53 18 77 10 85 -17 17 -44 -6 -53 -45 -22 -89 -28 -109 -37 -109
-10 0 -14 13 -30 92 -8 42 -16 59 -31 63 -31 10 -46 -10 -58 -77 -18 -101 -43
-104 -54 -7 -3 27 -11 58 -17 69 -12 23 -38 27 -46 6z"/>
<path d="M1687 1894 c-9 -10 -9 -264 1 -265 4 0 23 -2 42 -3 19 -2 44 -7 56
-10 32 -11 81 35 89 83 8 46 -14 104 -45 121 -13 7 -37 9 -60 5 l-39 -7 -3 39
c-3 36 -23 54 -41 37z m124 -120 c16 -19 15 -79 -1 -99 -18 -21 -57 -19 -70 4
-33 63 28 146 71 95z"/>
<path d="M1933 1893 c-18 -7 -18 -244 -1 -261 15 -15 174 -16 183 -2 13 22
-17 39 -73 42 l-57 3 -5 110 c-5 112 -10 124 -47 108z"/>
<path d="M2633 1893 c-33 -13 -6 -44 30 -35 21 5 22 28 1 36 -9 3 -16 6 -17 5
-1 0 -8 -3 -14 -6z"/>
<path d="M1482 1805 c-59 -50 -47 -149 22 -182 33 -15 38 -15 75 2 42 18 60
42 38 51 -7 2 -26 -2 -41 -10 -35 -18 -70 -7 -74 22 -3 19 2 21 65 24 l68 3
-2 35 c-3 73 -92 105 -151 55z m95 -31 c10 -27 -35 -44 -66 -25 -12 8 -12 12
-2 25 17 21 60 21 68 0z"/>
<path d="M2188 1813 c-50 -31 -62 -95 -29 -149 48 -78 170 -57 187 32 18 98
-76 168 -158 117z m96 -45 c21 -29 20 -67 -1 -90 -39 -43 -102 0 -88 62 11 51
62 67 89 28z"/>
<path d="M2409 1799 c-23 -25 -29 -40 -29 -76 0 -37 5 -50 31 -74 33 -31 49
-35 80 -19 25 14 38 -12 18 -36 -13 -15 -23 -15 -91 2 -39 9 -37 -16 3 -40 35
-21 86 -17 125 9 23 15 24 20 24 137 l0 121 -35 -6 c-19 -3 -37 -1 -40 4 -13
20 -58 8 -86 -22z m93 -26 c34 -31 15 -113 -26 -113 -32 0 -61 61 -44 93 20
40 41 46 70 20z"/>
<path d="M2750 1802 c-58 -58 -33 -168 43 -187 29 -8 82 16 96 44 19 35 -13
42 -49 11 -28 -24 -33 -25 -52 -2 -26 29 -30 59 -13 92 18 35 36 38 74 9 29
-21 51 -19 51 5 0 23 -37 48 -79 53 -35 5 -44 2 -71 -25z"/>
<path d="M2629 1813 c0 -4 -1 -45 -1 -91 0 -88 10 -115 36 -93 10 9 14 34 12
99 -1 82 -2 87 -23 90 -13 2 -23 0 -24 -5z"/>
</g>
</svg>
