<svg xmlns="http://www.w3.org/2000/svg" viewBox="0 0 800 489.34"><title>prtg-logo-color</title><path d="M696.33,404.14c0,9.37-6.9,16-17.42,16H656.32v-32h22.59c10.52,0,17.42,6.64,17.42,16m29,84.16L697.89,436c11.9-4.26,22.42-14.82,22.42-31.86,0-20.27-14.84-37.14-39.85-37.14H632.34V488.3h24V439.92h17.24l24,48.38ZM583.87,427.65c0,23.34-1.38,29-6,34.07a20,20,0,0,1-15.35,6.48c-6.55,0-12.07-2.56-15.52-6.48-4.66-5.11-5.87-10.73-5.87-34.07s1.21-29,5.87-34.07c3.45-3.92,9-6.47,15.52-6.47a20.09,20.09,0,0,1,15.35,6.47c4.66,5.11,6,10.73,6,34.07m24,0c0-20.95.17-36.11-12.25-48.38C587,370.75,576.45,366,562.48,366s-24.66,4.77-33.29,13.29c-12.42,12.27-12.07,27.43-12.07,48.38s-.35,36.12,12.07,48.38c8.63,8.52,19.32,13.29,33.29,13.29S587,484.55,595.6,476c12.42-12.26,12.25-27.43,12.25-48.38M505.22,388.13V367H417.08v21.13h32.08V488.3h24V388.13ZM397.59,367h-24V488.3h24ZM345,488.3V367H321v74.28L272.36,367H251V488.3h24V413.85l48.64,74.45ZM202.5,427.65c0,23.34-1.38,29-6,34.07a20,20,0,0,1-15.35,6.48c-6.55,0-12.07-2.56-15.52-6.48-4.66-5.11-5.87-10.73-5.87-34.07s1.21-29,5.87-34.07c3.45-3.92,9-6.47,15.52-6.47a20.09,20.09,0,0,1,15.35,6.47c4.66,5.11,6,10.73,6,34.07m24,0c0-20.95.17-36.11-12.25-48.38C205.63,370.75,195.1,366,181.13,366s-24.66,4.77-33.29,13.29c-12.42,12.27-12.07,27.43-12.07,48.38s-.35,36.12,12.07,48.38c8.63,8.52,19.32,13.29,33.29,13.29s24.5-4.77,33.12-13.29c12.42-12.26,12.25-27.43,12.25-48.38M111.26,488.3V367H87.62L55.71,432.59,23.63,367H0V488.3H24V417.6l23.63,46H63.82l23.46-46v70.7Z" transform="translate(0 0)" style="fill:#050f34"/><path d="M800,342.61l-43.64-73.09,40.71-48.21H767.92l-43.3,52.81V221.31h-24v121.3h24V306.15l15.87-18.74,31.57,55.2ZM651.83,258.45c0,9.37-6.9,16-17.42,16H611.82v-32h22.59c10.52,0,17.42,6.64,17.42,16m29,84.16-27.42-52.3c11.9-4.26,22.42-14.82,22.42-31.86,0-20.27-14.83-37.14-39.85-37.14H587.84v121.3h24V294.23h17.25l24,48.38ZM539.37,282c0,23.34-1.38,29-6,34.07-3.45,3.92-8.79,6.47-15.35,6.47S505.91,320,502.46,316c-4.66-5.11-5.87-10.73-5.87-34.07s1.21-29,5.87-34.07c3.45-3.92,9-6.47,15.52-6.47a20.09,20.09,0,0,1,15.35,6.47c4.66,5.11,6,10.73,6,34.07m24,0c0-20.95.17-36.12-12.25-48.38-8.62-8.52-19.15-13.29-33.12-13.29S493.3,225,484.67,233.55C472.27,245.84,472.62,261,472.62,282s-.35,36.12,12.07,48.38c8.63,8.52,19.32,13.29,33.29,13.29s24.5-4.77,33.12-13.29C563.52,318.12,563.35,303,563.35,282M463.13,221.31h-25L419,297.8l-22.43-76.49h-18L356.19,297.8l-19-76.49h-25L345,342.61h20L387.58,269l22.6,73.6h20ZM306,242.44V221.31H217.85v21.13h32.09V342.61h24V242.44ZM203.54,342.61V321.48H146.62V292h48.47V270.89H146.62V242.44h56.92V221.31h-80.9v121.3ZM94,342.61V221.31H70v74.28L21.39,221.31H0v121.3H24V268.16l48.64,74.45Z" transform="translate(0 0)" style="fill:#050f34"/><path d="M402.93,146.83V129.45H357.22v19.77H379v4.25c0,6-1.38,12.27-5.34,16.53s-9.15,6.81-16.39,6.81c-6.56,0-11.9-2.38-15.35-6.3-4.66-5.11-5.87-10.9-5.87-34.24s1.21-29,5.87-34.07a20,20,0,0,1,15.35-6.48c9.49,0,14.49,3.58,21.39,10.4l16.21-16c-11-10.9-20.52-15.5-37.6-15.5-13.8,0-24.49,4.77-33.12,13.29C311.68,100.15,312,115.31,312,136.27s-.35,36.11,12.07,48.38c8.63,8.52,19.67,13.29,33.12,13.29,14,0,25.53-4.94,34.32-14,8.63-8.86,11.39-19.59,11.39-37.14M300.13,96.75V75.62H212V96.75h32.08V196.91h24V96.75Zm-127.81,16c0,9.37-6.9,16-17.43,16H132.3v-32h22.59c10.53,0,17.43,6.64,17.43,16m29,84.15L173.9,144.61c11.9-4.26,22.42-14.83,22.42-31.86,0-20.27-14.83-37.14-39.84-37.14H108.32v121.3h24V148.53h17.25l24,48.38ZM64.17,113.44c0,9.88-6.9,16.52-17.77,16.52H24V96.75H46.4c10.87,0,17.77,6.81,17.77,16.69m24,0c0-20.61-15.18-37.82-40.53-37.82H0V196.91H24V151.26H47.61c25.35,0,40.53-17.21,40.53-37.82" transform="translate(0 0)" style="fill:#050f34"/><polygon points="589.97 165.96 607.83 150.34 492.57 81.19 589.97 165.96" style="fill:#13002c"/><path d="M490.23,33.25a123.94,123.94,0,0,0-17.15,163.48l17.57-11.33a87.09,87.09,0,0,1,21-128.32c-.16.11-.33.19-.49.3Z" transform="translate(0 0)" style="fill:#b4cb37"/><path d="M665.16,36.7a126.93,126.93,0,0,0-174.93-3.45l21,24.14.48-.31c1.39-.89,2.8-1.75,4.24-2.56l.77-.43c1.4-.78,2.83-1.51,4.27-2.21l.94-.46a89.39,89.39,0,0,1,97.27,14,70.77,70.77,0,0,1,6,6l.22.23c.82.89,1.62,1.81,2.4,2.73.22.27.45.52.66.79l.92,1.14Z" transform="translate(0 0)" style="fill:#f59c00"/><path d="M629.43,76.28a86.84,86.84,0,0,1,8.87,95.31l41,25.14a123.87,123.87,0,0,0-14.16-160" transform="translate(0 0)" style="fill:#ed0f69"/></svg>