<svg id="Layer_1" data-name="Layer 1" xmlns="http://www.w3.org/2000/svg" viewBox="0 0 407.15 79.29"><defs><style>.cls-1{fill:#1d2957;}.cls-2{fill:#f9f9fa;}.cls-3{fill:#f7f7f9;}.cls-4{fill:#f7f0f2;}.cls-5{fill:#fff;}.cls-6{fill:#fefeff;}.cls-10,.cls-7{fill:none;stroke-miterlimit:10;}.cls-7{stroke:#fff;stroke-width:3px;}.cls-8{fill:#f5f5f7;}.cls-9{fill:#f9fafd;}.cls-10{stroke:#f5f5f7;}</style></defs><path class="cls-1" d="M207.29,332.79a11.52,11.52,0,0,1-2.72,8,9.71,9.71,0,0,1-7.62,3.05h-7.27v15.8h-8.22V307.43l14-.08a11.85,11.85,0,0,1,11.85,11.85Zm-7.9-2.14V321q0-3.87-.94-5.13c-.83-1.05-2.56-1.58-5.17-1.58h-3.6v22.91l4.9.08c1.94,0,3.29-.66,4-2A10.07,10.07,0,0,0,199.39,330.65Z" transform="translate(-103.1 -291.89)"/><path class="cls-1" d="M235,352.3v7.35H211.09V308.37L235,308.3v7.34H219.3v13.83H235v7.34H219.3V352.3Z" transform="translate(-103.1 -291.89)"/><path class="cls-1" d="M265,359.65h-7.9V347.08q0-4.57-3.13-5.92-1.8-.71-7.14-.71v19.2h-8.21V308.14l14-.08a11.88,11.88,0,0,1,11.85,11.87v8.86a10.7,10.7,0,0,1-1.46,5.06,7.52,7.52,0,0,1-3.52,3.56,9.9,9.9,0,0,1,3.8,3.17,8,8,0,0,1,1.73,4.67Zm-8.45-33v-4.91q0-3.9-1.18-5.32t-5-1.43h-3.53v18.25l4.94.08Q256.52,333.34,256.51,326.67Z" transform="translate(-103.1 -291.89)"/><path class="cls-1" d="M295.14,348.51a11.88,11.88,0,0,1-11.85,11.85h-2.05a11.85,11.85,0,0,1-11.85-11.84V319.18a11.85,11.85,0,0,1,11.85-11.83h2.05a11.86,11.86,0,0,1,11.85,11.85v8.13H287.4v-4.71q0-8.16-5.29-8.16c-3.22,0-4.82,2.2-4.82,6.61V346.4c0,4.41,1.73,6.61,5.21,6.61q4.9,0,4.9-6.64V339.5h7.74Z" transform="translate(-103.1 -291.89)"/><path class="cls-1" d="M322.39,352.3v7.35H298.46V308.37l23.93-.07v7.34H306.67v13.83h15.72v7.34H306.67V352.3Z" transform="translate(-103.1 -291.89)"/><path class="cls-1" d="M351.62,332.79a11.57,11.57,0,0,1-2.72,8,9.72,9.72,0,0,1-7.63,3.05H334v15.8h-8.22V307.43l14-.08a11.85,11.85,0,0,1,11.85,11.85Zm-7.9-2.14V321q0-3.87-.94-5.13c-.83-1.05-2.56-1.58-5.17-1.58H334v22.91l4.89.08c2,0,3.3-.66,4-2A10.07,10.07,0,0,0,343.72,330.65Z" transform="translate(-103.1 -291.89)"/><path class="cls-1" d="M379.67,314.85h-8v44.8h-8.22v-44.8h-7.9l-.08-6.55h24.1Z" transform="translate(-103.1 -291.89)"/><path class="cls-1" d="M392.15,359.65h-8.22V308.3l8.22.07Z" transform="translate(-103.1 -291.89)"/><path class="cls-1" d="M423.2,348.52a11.86,11.86,0,0,1-11.85,11.84h-2.06a11.86,11.86,0,0,1-11.85-11.84V319.18a11.86,11.86,0,0,1,11.85-11.83h2.06a11.86,11.86,0,0,1,11.85,11.83Zm-7.9-2.12V321.07a11.77,11.77,0,0,0-.64-4.49,3.76,3.76,0,0,0-3.71-2.12q-5.61,0-5.61,6.61V346.4q0,6.62,5.14,6.61Q415.29,353,415.3,346.4Z" transform="translate(-103.1 -291.89)"/><path class="cls-1" d="M452.35,359.65H444l-8.29-28v28h-7.59l-.23-51.28h8.4l8.5,28.66V308.37h7.59Z" transform="translate(-103.1 -291.89)"/><path class="cls-1" d="M481.42,359.65H473.2V308.3l8.22.07Z" transform="translate(-103.1 -291.89)"/><path class="cls-1" d="M510.25,314.85h-8v44.8h-8.21v-44.8h-7.9l-.08-6.55h24.09Z" transform="translate(-103.1 -291.89)"/><polygon class="cls-1" points="71.43 20.15 71.43 59.14 39.28 78.63 7.13 59.14 7.13 20.15 39.28 0.66 71.43 20.15"/><path class="cls-2" d="M142.36,371.18l-32.71-19.83V311.73l32.71-19.84,32.71,19.84v39.62l-.29.17Zm-29.09-19,26.45,16a5.11,5.11,0,0,0,5.28,0l26.44-16a5.08,5.08,0,0,0,2.45-4.35V315.25a5.08,5.08,0,0,0-2.45-4.34l-26.44-16a5.06,5.06,0,0,0-5.28,0l-26.45,16a5.07,5.07,0,0,0-2.44,4.34v32.57A5.08,5.08,0,0,0,113.27,352.17Z" transform="translate(-103.1 -291.89)"/><path d="M134.82,309.49" transform="translate(-103.1 -291.89)"/><path d="M134.82,297.15" transform="translate(-103.1 -291.89)"/><path d="M128.09,313.88" transform="translate(-103.1 -291.89)"/><path d="M128.09,301.54" transform="translate(-103.1 -291.89)"/><path class="cls-3" d="M124.51,319.11" transform="translate(-103.1 -291.89)"/><path class="cls-3" d="M110.68,311.28" transform="translate(-103.1 -291.89)"/><line x1="7.33" y1="49.77" x2="17.72" y2="44.07"/><path class="cls-3" d="M162.5,328.33" transform="translate(-103.1 -291.89)"/><path class="cls-3" d="M176.33,320.5" transform="translate(-103.1 -291.89)"/><path class="cls-3" d="M161.77,324.55" transform="translate(-103.1 -291.89)"/><path class="cls-3" d="M175.6,316.73" transform="translate(-103.1 -291.89)"/><line x1="60.17" y1="43.79" x2="71.7" y2="50.32"/><path d="M156.33,348.64" transform="translate(-103.1 -291.89)"/><line x1="13.71" y1="62.28" x2="24.49" y2="56.37"/><rect class="cls-4" x="115.63" y="351.05" width="12.3" height="1.17" transform="translate(-257.13 -190.07) rotate(-28.73)"/><line x1="39.16" y1="66.27" x2="39.16" y2="78.6"/><rect class="cls-4" x="38.57" y="66.27" width="1.17" height="12.33"/><path d="M174.07,323.72" transform="translate(-103.1 -291.89)"/><path d="M163.67,329.41" transform="translate(-103.1 -291.89)"/><polygon class="cls-5" points="24.37 20.53 24.37 29.02 31.81 33.26 39.26 29.02 39.26 21.53 31.81 16.29 24.37 20.53"/><polygon class="cls-5" points="39.2 21.53 39.2 29.02 46.55 33.26 53.9 29.02 53.9 20.53 46.55 16.29 39.2 21.53"/><polygon class="cls-5" points="31.85 33.05 31.85 41.54 39.2 45.78 46.55 41.54 46.55 33.05 39.2 28.81 31.85 33.05"/><polygon class="cls-5" points="32.6 62.49 32.6 68.43 39.2 71.64 45.8 68.43 45.8 62.49 39.2 58.82 32.6 62.49"/><polygon class="cls-5" points="36.94 48.75 36.94 57.23 30.1 61.48 23.26 57.23 23.26 48.75 30.1 44.51 36.94 48.75"/><polygon class="cls-5" points="30.18 36.1 30.18 44.58 23.34 48.83 16.5 44.58 16.5 36.1 23.34 31.85 30.18 36.1"/><polygon class="cls-5" points="41.63 48.75 41.63 57.24 48.47 61.48 55.31 57.24 55.31 48.75 48.47 44.51 41.63 48.75"/><polygon class="cls-5" points="48.39 36.1 48.39 44.58 55.23 48.83 62.07 44.58 62.07 36.1 55.23 31.85 48.39 36.1"/><rect class="cls-5" x="24.36" y="8.46" width="3" height="12.21"/><rect class="cls-5" x="31.22" y="5.11" width="1" height="12.21"/><rect class="cls-5" x="50.86" y="8.46" width="3" height="12.21"/><rect class="cls-6" x="46.05" y="4.59" width="1" height="13.21"/><path class="cls-7" d="M142.38,340.56" transform="translate(-103.1 -291.89)"/><path class="cls-7" d="M142.38,327.35" transform="translate(-103.1 -291.89)"/><rect class="cls-5" x="160.68" y="343.51" width="3" height="15.41" transform="translate(-326.34 25.99) rotate(-60.27)"/><rect class="cls-5" x="169.49" y="332.3" width="1" height="14.37" transform="translate(-312.21 26.85) rotate(-60.27)"/><rect class="cls-5" x="114.47" y="349.76" width="15.41" height="3" transform="translate(-261.17 -185.12) rotate(-29.72)"/><rect class="cls-8" x="108.19" y="338.45" width="14.37" height="1" transform="translate(-256.07 -189.99) rotate(-29.74)"/><rect class="cls-9" x="37.66" y="65.09" width="3" height="13.21"/><path class="cls-7" d="M109.25,335.58" transform="translate(-103.1 -291.89)"/><path class="cls-7" d="M121.72,328.45" transform="translate(-103.1 -291.89)"/><path class="cls-7" d="M162.8,328.45" transform="translate(-103.1 -291.89)"/><path class="cls-7" d="M175.28,335.58" transform="translate(-103.1 -291.89)"/><rect class="cls-5" x="147.46" y="314.37" width="30.37" height="3" transform="translate(-239.4 -168.02) rotate(-30.05)"/><rect class="cls-5" x="116.7" y="298.66" width="3" height="30.37" transform="matrix(0.5, -0.87, 0.87, 0.5, -315.76, -32.88)"/><path class="cls-10" d="M126.2,324.18" transform="translate(-103.1 -291.89)"/><rect class="cls-5" x="160.74" y="323.77" width="20.5" height="1" transform="translate(-241.72 -163.92) rotate(-29.82)"/><rect class="cls-5" x="111.75" y="314.02" width="1" height="20.5" transform="translate(-327.99 -31.58) rotate(-60.16)"/></svg>