<svg xmlns="http://www.w3.org/2000/svg" xmlns:xlink="http://www.w3.org/1999/xlink" width="680" height="500" viewBox="0 0 680 500">
  <defs>
    <clipPath id="clip-path">
      <rect id="Rectangle_8" data-name="Rectangle 8" width="680" height="500"/>
    </clipPath>
  </defs>
  <g id="part_1_Project_page" data-name="part 1 Project page" clip-path="url(#clip-path)">
    <rect width="680" height="500" fill="#fff"/>
    <g id="P1_Projects_960_700_3" data-name="P1 Projects 960 ×700 – 3" clip-path="url(#clip-path)">
      <rect id="Rectangle_7" data-name="Rectangle 7" width="680" height="500" fill="#0d0a1d"/>
      <path id="Path_4766" data-name="Path 4766" d="M42.351-25.447h-27.6V-49.223H41.01v-2.624H14.751V-74.232h27.6v-2.624H11.912v54.034H42.351Zm33.987,2.624h3.353q-.986-1.511-2.169-3.2t-2.444-3.519q-1.262-1.829-2.543-3.714T69.992-36.97Q68.73-38.8,67.547-40.489t-2.208-3.161L79.414-63.894H76.22L63.84-45.965h-.157L51.42-63.894H48.068q.986,1.429,2.129,3.1t2.386,3.459q1.242,1.786,2.484,3.618t2.484,3.638q1.242,1.809,2.386,3.479t2.129,3.1L47.753-22.822h3.154L63.6-41.152h.158Zm26.1.714a15.9,15.9,0,0,0,7.65-1.909,14.3,14.3,0,0,0,5.717-5.765,19.322,19.322,0,0,0,2.169-9.582v-8.03a19.666,19.666,0,0,0-1.991-9.165A14.655,14.655,0,0,0,110.5-62.5a15.061,15.061,0,0,0-7.945-2.107,15.046,15.046,0,0,0-5.875,1.034,13.636,13.636,0,0,0-4.042,2.525,13.6,13.6,0,0,0-2.484,3A11.594,11.594,0,0,0,89-55.587h-.158v-8.307H86.076V-9.662h2.8V-30.933h.2a13.713,13.713,0,0,0,2.09,3.737,13.041,13.041,0,0,0,4.3,3.579A14.419,14.419,0,0,0,102.441-22.108Zm-.118-2.624a12.66,12.66,0,0,1-7.1-1.988,13.186,13.186,0,0,1-4.692-5.407,17.191,17.191,0,0,1-1.656-7.594V-47a17.631,17.631,0,0,1,1.538-7.316,13.365,13.365,0,0,1,4.554-5.546,12.365,12.365,0,0,1,7.314-2.127,12.272,12.272,0,0,1,6.525,1.769,12.43,12.43,0,0,1,4.613,5.169,18.255,18.255,0,0,1,1.715,8.29v6.68a18.376,18.376,0,0,1-1.814,8.688,12.06,12.06,0,0,1-4.732,5.03,12.648,12.648,0,0,1-6.268,1.629Zm26.062,1.91h2.8V-79.878h-2.8Zm29.492-41.786a17.085,17.085,0,0,0-8.4,2.068,14.893,14.893,0,0,0-5.934,6.084,20.56,20.56,0,0,0-2.188,9.94v6.48a20.2,20.2,0,0,0,2.208,9.881,14.784,14.784,0,0,0,5.954,6.024,17.271,17.271,0,0,0,8.358,2.024,17.294,17.294,0,0,0,8.339-2.008,14.937,14.937,0,0,0,5.973-6,20,20,0,0,0,2.248-9.92V-46.52a20.025,20.025,0,0,0-2.248-9.9,15.414,15.414,0,0,0-5.993-6.1A16.8,16.8,0,0,0,157.877-64.608Zm0,2.624a13.639,13.639,0,0,1,6.979,1.809,12.68,12.68,0,0,1,4.929,5.348,18.942,18.942,0,0,1,1.814,8.707v5.686a18.763,18.763,0,0,1-1.814,8.727,12.4,12.4,0,0,1-4.909,5.229,13.893,13.893,0,0,1-6.959,1.749,14,14,0,0,1-7.078-1.769,12.286,12.286,0,0,1-4.869-5.253,19.016,19.016,0,0,1-1.771-8.688v-5.686a19.216,19.216,0,0,1,1.792-8.744A12.428,12.428,0,0,1,150.9-60.2a13.758,13.758,0,0,1,6.977-1.789Zm26.26,39.161h2.8V-48.108a16.025,16.025,0,0,1,1.676-7.753,10.919,10.919,0,0,1,4.416-4.533,12.272,12.272,0,0,1,5.895-1.471,15.335,15.335,0,0,1,2.425.159q.966.159,1.281.239v-2.744q-.395-.079-1.262-.2a16.732,16.732,0,0,0-2.208-.119,12.842,12.842,0,0,0-6.368,1.429,11.283,11.283,0,0,0-3.923,3.479,11.27,11.27,0,0,0-1.771,3.916h-.161v-8.189h-2.8Zm38.679.714a17.645,17.645,0,0,0,6.388-1.054,14.111,14.111,0,0,0,4.515-2.7,12.464,12.464,0,0,0,2.741-3.519,9.343,9.343,0,0,0,1.063-3.539h-2.839a7.908,7.908,0,0,1-1.538,3.678,10.587,10.587,0,0,1-3.884,3.2,14,14,0,0,1-6.446,1.312,12.311,12.311,0,0,1-9.775-4.155q-3.624-4.155-3.627-11.948V-43.22h28.7v-2.147A25.15,25.15,0,0,0,236.126-56a14.43,14.43,0,0,0-5.54-6.441,15.494,15.494,0,0,0-8.243-2.164,15.419,15.419,0,0,0-8.2,2.167A14.43,14.43,0,0,0,208.6-56a25.149,25.149,0,0,0-1.991,10.636v4.613a23.714,23.714,0,0,0,1.951,10.1,14.241,14.241,0,0,0,5.579,6.361A16.489,16.489,0,0,0,222.816-22.108ZM209.41-45.644v-.239a21.221,21.221,0,0,1,1.617-8.725,12.357,12.357,0,0,1,4.533-5.487,12.2,12.2,0,0,1,6.782-1.889,12.369,12.369,0,0,1,6.841,1.889,12.191,12.191,0,0,1,4.533,5.487,21.45,21.45,0,0,1,1.6,8.725v.239Z" transform="translate(106.611 221.669)" fill="#fff"/>
      <path id="Path_4767" data-name="Path 4767" d="M29.458-14.014V-47.192H27.715v14.941H8.346V-47.192H6.6v33.179H8.346V-30.639H27.715v16.626Zm14.26.439a9.2,9.2,0,0,0,4.164-.842A8.344,8.344,0,0,0,50.5-16.357a6.713,6.713,0,0,0,1.235-1.88h.1v4.224h1.7V-32.1a7.715,7.715,0,0,0-1.063-4.2,6.575,6.575,0,0,0-2.954-2.527,10.733,10.733,0,0,0-4.407-.842,11.817,11.817,0,0,0-3.571.489,7.96,7.96,0,0,0-2.59,1.331,6.235,6.235,0,0,0-1.622,1.892,5.227,5.227,0,0,0-.642,2.173h1.7a4.645,4.645,0,0,1,.835-1.892,5.391,5.391,0,0,1,2.107-1.684,8.4,8.4,0,0,1,3.692-.7,7.659,7.659,0,0,1,4.914,1.5,5.729,5.729,0,0,1,1.888,4.773V-28.1h-7.8q-4.188,0-6.319,1.953A6.542,6.542,0,0,0,35.559-21.1a6.994,6.994,0,0,0,2.267,5.506A8.536,8.536,0,0,0,43.718-13.574Zm.169-1.611a6.855,6.855,0,0,1-4.685-1.6,5.464,5.464,0,0,1-1.828-4.334,5.15,5.15,0,0,1,1.6-3.895q1.6-1.526,5.06-1.526H51.8v4a6.87,6.87,0,0,1-1.089,3.857A7.427,7.427,0,0,1,47.834-16.1a8.544,8.544,0,0,1-3.947.917Zm16.948,1.172h1.716V-49.048H60.835Zm9.587,0h1.719V-49.048H70.422Zm9.152,0h1.719V-30.127a9.773,9.773,0,0,1,.787-3.967,6.755,6.755,0,0,1,2.338-2.881,6.54,6.54,0,0,1,3.85-1.086,6.735,6.735,0,0,1,3.438.842,5.647,5.647,0,0,1,2.252,2.466,8.925,8.925,0,0,1,.8,3.967v16.773h1.7V-30.567a8.429,8.429,0,0,1,.8-3.614,6.923,6.923,0,0,1,2.361-2.8,6.554,6.554,0,0,1,3.837-1.086,6.944,6.944,0,0,1,3.341.781,5.524,5.524,0,0,1,2.288,2.368,8.546,8.546,0,0,1,.835,4v16.9h1.719V-31.371q0-4.126-2.288-6.214a8.206,8.206,0,0,0-5.75-2.087,7.862,7.862,0,0,0-4.055.952A7.419,7.419,0,0,0,97.081-36.5a7.446,7.446,0,0,0-1.089,2.246h-.1a7.018,7.018,0,0,0-1.235-2.636A6.735,6.735,0,0,0,92.2-38.9a8.294,8.294,0,0,0-3.741-.769,7.633,7.633,0,0,0-3.789.83,6.552,6.552,0,0,0-2.24,1.965,7.393,7.393,0,0,0-1.041,2.063h-.1v-4.419H79.576Zm45.661.439a9.2,9.2,0,0,0,4.164-.842,8.344,8.344,0,0,0,2.614-1.941,6.713,6.713,0,0,0,1.235-1.88h.1v4.224h1.7V-32.1a7.715,7.715,0,0,0-1.063-4.2,6.575,6.575,0,0,0-2.954-2.527,10.733,10.733,0,0,0-4.407-.842,11.817,11.817,0,0,0-3.571.489,7.96,7.96,0,0,0-2.59,1.331,6.235,6.235,0,0,0-1.622,1.892,5.227,5.227,0,0,0-.642,2.173h1.7a4.645,4.645,0,0,1,.835-1.892,5.391,5.391,0,0,1,2.107-1.684,8.4,8.4,0,0,1,3.692-.7,7.659,7.659,0,0,1,4.914,1.5,5.729,5.729,0,0,1,1.888,4.773V-28.1h-7.8q-4.188,0-6.319,1.953a6.542,6.542,0,0,0-2.131,5.054,6.994,6.994,0,0,0,2.267,5.506A8.536,8.536,0,0,0,125.235-13.574Zm.169-1.611a6.855,6.855,0,0,1-4.685-1.6,5.464,5.464,0,0,1-1.828-4.334,5.15,5.15,0,0,1,1.6-3.895q1.6-1.526,5.06-1.526h7.772v4a6.87,6.87,0,0,1-1.089,3.857,7.427,7.427,0,0,1-2.881,2.576,8.544,8.544,0,0,1-3.95.917Zm16.584,1.172h1.719V-29.541a9.84,9.84,0,0,1,1.029-4.761,6.7,6.7,0,0,1,2.712-2.786,7.536,7.536,0,0,1,3.62-.9,9.414,9.414,0,0,1,1.488.1q.593.1.787.146v-1.684q-.242-.049-.775-.122a10.275,10.275,0,0,0-1.356-.071,7.886,7.886,0,0,0-3.91.879,6.928,6.928,0,0,0-2.408,2.136,6.92,6.92,0,0,0-1.089,2.4h-.1v-5.029h-1.719Zm16.9-10.425,3.608-3.3,10.7,13.721h2.179L163.778-28.882,174.7-39.233H172.47L158.984-26.538h-.1v-22.51h-1.719v35.034h1.719Zm38.958,10.864a10.835,10.835,0,0,0,3.922-.647,8.665,8.665,0,0,0,2.772-1.66,7.653,7.653,0,0,0,1.682-2.161,5.736,5.736,0,0,0,.654-2.173H205.13a4.856,4.856,0,0,1-.944,2.259,6.5,6.5,0,0,1-2.385,1.965,8.6,8.6,0,0,1-3.958.806,7.565,7.565,0,0,1-6-2.551q-2.228-2.551-2.228-7.336v-1.465h17.625v-1.318a15.443,15.443,0,0,0-1.223-6.531,8.861,8.861,0,0,0-3.4-3.955,9.513,9.513,0,0,0-5.06-1.331,9.468,9.468,0,0,0-5.036,1.331,8.861,8.861,0,0,0-3.4,3.955,15.443,15.443,0,0,0-1.223,6.531v2.832a14.561,14.561,0,0,0,1.2,6.2,8.745,8.745,0,0,0,3.426,3.906,10.125,10.125,0,0,0,5.324,1.342Zm-8.232-14.453v-.146a13.03,13.03,0,0,1,.992-5.357,7.588,7.588,0,0,1,2.784-3.369,7.492,7.492,0,0,1,4.164-1.16,7.6,7.6,0,0,1,4.2,1.16,7.485,7.485,0,0,1,2.784,3.369,13.168,13.168,0,0,1,.98,5.357v.146Zm38.446,14.014h2.058q-.606-.929-1.332-1.965t-1.5-2.161q-.775-1.123-1.558-2.286t-1.558-2.286q-.775-1.123-1.5-2.161T221.3-26.807l8.642-12.429h-1.961l-7.6,11.012h-.1l-7.53-11.011H210.7q.606.879,1.308,1.9t1.465,2.124q.763,1.1,1.525,2.221t1.525,2.234q.763,1.111,1.465,2.136t1.308,1.9l-8.788,12.7h1.937l7.8-11.255h.1Zm12.589.439a9.2,9.2,0,0,0,4.164-.842,8.344,8.344,0,0,0,2.615-1.941,6.713,6.713,0,0,0,1.235-1.88h.1v4.224h1.7V-32.1a7.715,7.715,0,0,0-1.062-4.2,6.575,6.575,0,0,0-2.954-2.527,10.733,10.733,0,0,0-4.407-.842,11.816,11.816,0,0,0-3.571.489,7.96,7.96,0,0,0-2.59,1.331,6.235,6.235,0,0,0-1.622,1.892,5.227,5.227,0,0,0-.642,2.173h1.7a4.645,4.645,0,0,1,.835-1.892,5.391,5.391,0,0,1,2.107-1.684,8.4,8.4,0,0,1,3.692-.7,7.659,7.659,0,0,1,4.914,1.5,5.729,5.729,0,0,1,1.888,4.773V-28.1h-7.8q-4.188,0-6.319,1.953a6.542,6.542,0,0,0-2.131,5.054,6.994,6.994,0,0,0,2.267,5.506,8.536,8.536,0,0,0,5.892,2.015Zm.169-1.611a6.855,6.855,0,0,1-4.685-1.6,5.464,5.464,0,0,1-1.828-4.334,5.15,5.15,0,0,1,1.6-3.895q1.6-1.526,5.06-1.526h7.772v4a6.87,6.87,0,0,1-1.089,3.857,7.427,7.427,0,0,1-2.881,2.576,8.544,8.544,0,0,1-3.947.917Zm16.512,1.172h1.719V-30.127a9.774,9.774,0,0,1,.787-3.967,6.755,6.755,0,0,1,2.337-2.881,6.541,6.541,0,0,1,3.85-1.086,6.735,6.735,0,0,1,3.438.842,5.646,5.646,0,0,1,2.252,2.466,8.925,8.925,0,0,1,.8,3.967v16.773H274.2V-30.567a8.429,8.429,0,0,1,.8-3.614,6.923,6.923,0,0,1,2.361-2.8,6.554,6.554,0,0,1,3.837-1.086,6.943,6.943,0,0,1,3.341.781,5.524,5.524,0,0,1,2.288,2.368,8.546,8.546,0,0,1,.835,4v16.9h1.719V-31.371q0-4.126-2.288-6.214a8.206,8.206,0,0,0-5.75-2.087,7.862,7.862,0,0,0-4.055.952,7.419,7.419,0,0,0-2.457,2.221,7.446,7.446,0,0,0-1.089,2.246h-.1a7.019,7.019,0,0,0-1.235-2.636,6.735,6.735,0,0,0-2.457-2.014,8.294,8.294,0,0,0-3.741-.769,7.633,7.633,0,0,0-3.789.83,6.552,6.552,0,0,0-2.24,1.965,7.4,7.4,0,0,0-1.041,2.063h-.1v-4.419h-1.719Zm49.075.439a9.763,9.763,0,0,0,4.7-1.172,8.782,8.782,0,0,0,3.511-3.54,11.867,11.867,0,0,0,1.332-5.884V-29.1a12.075,12.075,0,0,0-1.224-5.629,9,9,0,0,0-3.365-3.65,9.25,9.25,0,0,0-4.878-1.294,9.24,9.24,0,0,0-3.608.635,8.374,8.374,0,0,0-2.479,1.55,8.348,8.348,0,0,0-1.525,1.844,7.121,7.121,0,0,0-.714,1.514h-.1v-5.1h-1.7v33.3h1.716V-18.994h.121a8.42,8.42,0,0,0,1.284,2.295,8.007,8.007,0,0,0,2.639,2.2,8.853,8.853,0,0,0,4.288.928Zm-.071-1.611a7.773,7.773,0,0,1-4.358-1.221,8.1,8.1,0,0,1-2.883-3.321,10.557,10.557,0,0,1-1.017-4.663v-4.468a10.826,10.826,0,0,1,.944-4.492,8.207,8.207,0,0,1,2.8-3.406,7.592,7.592,0,0,1,4.491-1.306,7.535,7.535,0,0,1,4.007,1.086,7.633,7.633,0,0,1,2.833,3.174,11.209,11.209,0,0,1,1.053,5.09v4.1a11.279,11.279,0,0,1-1.111,5.336,7.4,7.4,0,0,1-2.9,3.089,7.766,7.766,0,0,1-3.854,1Zm16.074,1.172h1.719V-49.048h-1.719Zm18.037.439a10.834,10.834,0,0,0,3.922-.647,8.664,8.664,0,0,0,2.772-1.66,7.654,7.654,0,0,0,1.682-2.161,5.736,5.736,0,0,0,.654-2.173H347.73a4.856,4.856,0,0,1-.944,2.259,6.5,6.5,0,0,1-2.385,1.965,8.6,8.6,0,0,1-3.958.806,7.565,7.565,0,0,1-6-2.551q-2.225-2.551-2.225-7.336v-1.465h17.623v-1.319a15.444,15.444,0,0,0-1.223-6.531,8.861,8.861,0,0,0-3.4-3.955,9.513,9.513,0,0,0-5.06-1.331,9.468,9.468,0,0,0-5.036,1.331,8.861,8.861,0,0,0-3.4,3.955,15.443,15.443,0,0,0-1.223,6.531v2.832a14.561,14.561,0,0,0,1.2,6.2,8.745,8.745,0,0,0,3.424,3.906,10.125,10.125,0,0,0,5.325,1.343Zm-8.229-14.453v-.146a13.03,13.03,0,0,1,.992-5.357A7.588,7.588,0,0,1,335.99-36.9a7.492,7.492,0,0,1,4.164-1.16,7.6,7.6,0,0,1,4.2,1.16,7.485,7.485,0,0,1,2.784,3.369,13.168,13.168,0,0,1,.98,5.357v.146Zm22.661-4.907a5.49,5.49,0,0,0,.992,3.394,6.943,6.943,0,0,0,2.809,2.124,27.773,27.773,0,0,0,4.261,1.441q1.842.439,3.535,1.013a7.388,7.388,0,0,1,2.772,1.6,3.692,3.692,0,0,1,1.079,2.807,4.548,4.548,0,0,1-1.017,3.051,6.088,6.088,0,0,1-2.663,1.786,10.69,10.69,0,0,1-3.608.586,9.042,9.042,0,0,1-4.382-.891,5.515,5.515,0,0,1-2.267-2.124,5.079,5.079,0,0,1-.69-2.259h-1.719a6.341,6.341,0,0,0,.871,3.051,7,7,0,0,0,2.845,2.686,10.94,10.94,0,0,0,5.313,1.1,12.826,12.826,0,0,0,4.484-.771A7.451,7.451,0,0,0,370.83-16.7a6.281,6.281,0,0,0,1.259-4.029,5.071,5.071,0,0,0-1.2-3.6,7.91,7.91,0,0,0-3.159-1.99,44.306,44.306,0,0,0-4.31-1.294q-1.622-.439-2.881-.9a9.066,9.066,0,0,1-2.119-1.071,4.318,4.318,0,0,1-1.32-1.453,4.144,4.144,0,0,1-.46-2.014,4.2,4.2,0,0,1,1.937-3.772,8.26,8.26,0,0,1,4.6-1.257,7.866,7.866,0,0,1,4.007.866,5.313,5.313,0,0,1,2.082,2.039,4.6,4.6,0,0,1,.618,2.1h1.695a6.217,6.217,0,0,0-.811-2.881,6.787,6.787,0,0,0-2.643-2.623,9.666,9.666,0,0,0-4.951-1.086,10.969,10.969,0,0,0-4.25.781,6.793,6.793,0,0,0-2.966,2.286,6.088,6.088,0,0,0-1.087,3.67Zm40.988-6.739a10.491,10.491,0,0,0-5.157,1.269,9.145,9.145,0,0,0-3.644,3.735,12.625,12.625,0,0,0-1.346,6.1v3.98a12.4,12.4,0,0,0,1.356,6.067,9.078,9.078,0,0,0,3.656,3.7,10.6,10.6,0,0,0,5.132,1.245,10.619,10.619,0,0,0,5.121-1.233,9.172,9.172,0,0,0,3.668-3.686,12.281,12.281,0,0,0,1.38-6.091v-3.979a12.3,12.3,0,0,0-1.38-6.079,9.462,9.462,0,0,0-3.683-3.748,10.314,10.314,0,0,0-5.1-1.281Zm0,1.611a8.374,8.374,0,0,1,4.285,1.111,7.786,7.786,0,0,1,3.026,3.286,11.632,11.632,0,0,1,1.113,5.346v3.491a11.521,11.521,0,0,1-1.114,5.357,7.616,7.616,0,0,1-3.014,3.211,8.531,8.531,0,0,1-4.273,1.071,8.6,8.6,0,0,1-4.346-1.086,7.546,7.546,0,0,1-2.99-3.223,11.676,11.676,0,0,1-1.088-5.332v-3.491a11.8,11.8,0,0,1,1.1-5.371,7.632,7.632,0,0,1,3.014-3.271,8.444,8.444,0,0,1,4.282-1.1Zm17.478,24.048h1.719V-37.719h7.166v-1.514H415.06v-3.3a5.028,5.028,0,0,1,1.089-3.662,5.136,5.136,0,0,1,3.683-1.071q.7,0,1.5.049a11.437,11.437,0,0,1,1.211.122v-1.514a6.832,6.832,0,0,0-1.259-.183q-.823-.061-1.525-.061-3.341,0-4.878,1.5t-1.537,4.773v3.345h-4.407v1.514h4.407ZM15.028,13.9a10.491,10.491,0,0,0-5.157,1.269A9.145,9.145,0,0,0,6.228,18.9a12.625,12.625,0,0,0-1.346,6.1v3.98a12.4,12.4,0,0,0,1.356,6.067,9.078,9.078,0,0,0,3.656,3.7A10.6,10.6,0,0,0,15.027,40a10.619,10.619,0,0,0,5.121-1.233,9.172,9.172,0,0,0,3.668-3.686A12.281,12.281,0,0,0,25.2,28.986V25.007a12.3,12.3,0,0,0-1.38-6.079,9.462,9.462,0,0,0-3.683-3.748,10.314,10.314,0,0,0-5.1-1.281Zm0,1.611a8.374,8.374,0,0,1,4.285,1.111,7.786,7.786,0,0,1,3.026,3.286,11.631,11.631,0,0,1,1.111,5.345v3.491A11.522,11.522,0,0,1,22.338,34.1a7.616,7.616,0,0,1-3.014,3.211,8.531,8.531,0,0,1-4.273,1.071A8.6,8.6,0,0,1,10.7,37.3a7.546,7.546,0,0,1-2.99-3.223,11.677,11.677,0,0,1-1.089-5.334V25.251a11.8,11.8,0,0,1,1.1-5.371,7.632,7.632,0,0,1,3.014-3.271,8.444,8.444,0,0,1,4.288-1.1ZM49.5,14.338H47.785V29.451a10.215,10.215,0,0,1-.932,4.272,8.218,8.218,0,0,1-2.772,3.357,7.621,7.621,0,0,1-4.528,1.306,7.438,7.438,0,0,1-3.668-.866,5.938,5.938,0,0,1-2.408-2.466,8,8,0,0,1-.85-3.8V14.338H30.911V31.526A9.053,9.053,0,0,0,32.048,36.3a7.1,7.1,0,0,0,3.063,2.786A9.821,9.821,0,0,0,39.384,40a9.183,9.183,0,0,0,4.164-.857,8.169,8.169,0,0,0,4.116-4.614h.121v5.029h1.719Zm7.238,25.22h1.719V24.031a9.84,9.84,0,0,1,1.029-4.759A6.7,6.7,0,0,1,62.2,16.486a7.536,7.536,0,0,1,3.62-.9,9.413,9.413,0,0,1,1.487.1q.593.1.787.146V14.143q-.242-.049-.775-.122a10.276,10.276,0,0,0-1.356-.071,7.886,7.886,0,0,0-3.91.879,7.032,7.032,0,0,0-3.5,4.541h-.1V14.338H56.743Zm52.779-25.22H107.68L101.8,37.043h-.121L94.488,14.338H92.717l-7.139,22.7h-.121L79.574,14.338H77.661l6.948,25.22H86.38L93.57,16.8h.1l7.212,22.754h1.771Zm12.735-.439a10.491,10.491,0,0,0-5.157,1.269,9.145,9.145,0,0,0-3.644,3.735,12.625,12.625,0,0,0-1.346,6.1v3.98a12.4,12.4,0,0,0,1.356,6.067,9.078,9.078,0,0,0,3.656,3.7,11.225,11.225,0,0,0,10.253.012,9.172,9.172,0,0,0,3.671-3.686,12.281,12.281,0,0,0,1.38-6.091V25.007a12.3,12.3,0,0,0-1.38-6.079,9.462,9.462,0,0,0-3.683-3.748,10.314,10.314,0,0,0-5.106-1.281Zm0,1.611a8.374,8.374,0,0,1,4.285,1.111,7.786,7.786,0,0,1,3.026,3.286,11.631,11.631,0,0,1,1.114,5.346v3.491a11.521,11.521,0,0,1-1.114,5.357,7.616,7.616,0,0,1-3.014,3.211,9.136,9.136,0,0,1-8.619-.012,7.546,7.546,0,0,1-2.99-3.223,11.677,11.677,0,0,1-1.089-5.334V25.251a11.8,11.8,0,0,1,1.1-5.371,7.632,7.632,0,0,1,3.014-3.271,8.444,8.444,0,0,1,4.285-1.1Zm16.2,24.048h1.719V24.031A9.84,9.84,0,0,1,141.2,19.27a6.7,6.7,0,0,1,2.712-2.786,7.536,7.536,0,0,1,3.62-.9,9.414,9.414,0,0,1,1.488.1q.593.1.787.146V14.143q-.242-.049-.775-.122a10.276,10.276,0,0,0-1.356-.071,7.886,7.886,0,0,0-3.91.879,7.032,7.032,0,0,0-3.5,4.541h-.1V14.338h-1.719Zm16.9-10.425,3.608-3.3,10.7,13.721h2.179l-11.6-14.868,10.919-10.351h-2.228L155.45,27.033h-.1V4.523h-1.719V39.558h1.719Z" transform="translate(191.262 283.811)" fill="#fff"/>
    </g>
  </g>
</svg>
