<svg xmlns="http://www.w3.org/2000/svg" xmlns:xlink="http://www.w3.org/1999/xlink" width="960" height="654" viewBox="0 0 960 654">
  <defs>
    <clipPath id="clip-support_2_-_960_654">
      <rect width="960" height="654"/>
    </clipPath>
  </defs>
  <g id="support_2_-_960_654" data-name="support 2 - 960 × 654" clip-path="url(#clip-support_2_-_960_654)">
    <rect width="960" height="654" fill="#fff"/>
    <path id="Path_4775" data-name="Path 4775" d="M12.182,0V-51.208H8.121V0Zm26.77,0V-47.486H55.682v-3.722H18.2v3.722H34.891V0ZM73.8-28.762a8.514,8.514,0,0,0,1.654,5.508,10.783,10.783,0,0,0,4.587,3.2,51.4,51.4,0,0,0,6.692,2.049q2.82.6,5.282,1.391A10.338,10.338,0,0,1,96.006-14.4a5.248,5.248,0,0,1,1.523,4.023,6.474,6.474,0,0,1-1.316,4.1,8.261,8.261,0,0,1-3.666,2.594,15.33,15.33,0,0,1-5.508.9,13.516,13.516,0,0,1-5.959-1.109,7.665,7.665,0,0,1-3.252-2.763A7.667,7.667,0,0,1,76.662-10H72.714a9.45,9.45,0,0,0,1.56,5.207A11.2,11.2,0,0,0,78.993-.846,18.235,18.235,0,0,0,86.926.677a20.186,20.186,0,0,0,7.388-1.3A11.925,11.925,0,0,0,99.6-4.474a10.153,10.153,0,0,0,1.955-6.354A8.279,8.279,0,0,0,99.69-16.6a11.872,11.872,0,0,0-4.944-3.139,54.7,54.7,0,0,0-6.768-1.88q-2.181-.489-4.023-1.072a15.6,15.6,0,0,1-3.215-1.391,6.188,6.188,0,0,1-2.143-2.03,5.568,5.568,0,0,1-.771-3.027,5.977,5.977,0,0,1,2.745-5.339,11.845,11.845,0,0,1,6.655-1.8,11.629,11.629,0,0,1,5.564,1.147,7.73,7.73,0,0,1,3.064,2.763,6.4,6.4,0,0,1,1,3.083h3.835a9.6,9.6,0,0,0-1.429-4.963,10.647,10.647,0,0,0-4.38-3.948,16.225,16.225,0,0,0-7.538-1.542,18.421,18.421,0,0,0-6.786,1.2,11.046,11.046,0,0,0-4.906,3.647A9.893,9.893,0,0,0,73.8-28.762ZM112.079-39.1h-6.993v3.421h6.993V-9.663a16.4,16.4,0,0,0,.846,5.752,5.739,5.739,0,0,0,3.064,3.252A15.372,15.372,0,0,0,122.305.376q.9,0,2.387-.113t2.087-.188V-3.384q-.564.038-1.767.132t-1.955.094q-3.948,0-5.47-1.335t-1.523-5.019V-35.68h10.114V-39.1H116.064v-9.625h-3.985ZM133.133,0h4.023V-24.326a12.928,12.928,0,0,1,1.429-6.316,9.66,9.66,0,0,1,3.948-3.948,11.882,11.882,0,0,1,5.715-1.354,19.5,19.5,0,0,1,2.068.094q.865.094,1.241.169v-3.8q-.451-.075-1.184-.15A16.566,16.566,0,0,0,148.7-39.7a12.651,12.651,0,0,0-5.978,1.26,10.439,10.439,0,0,0-3.647,3.027,10.264,10.264,0,0,0-1.692,3.346h-.226V-39.1h-4.023Zm53.614-39.1h-4.023v24.063A12.556,12.556,0,0,1,181.3-9.193,11.662,11.662,0,0,1,177.2-4.7a11.5,11.5,0,0,1-6.392,1.729A11.54,11.54,0,0,1,165.58-4.1a8.216,8.216,0,0,1-3.534-3.384,11.225,11.225,0,0,1-1.278-5.6V-39.1h-4.023v26.92a13.628,13.628,0,0,0,1.767,7.332,10.71,10.71,0,0,0,4.775,4.173A16.411,16.411,0,0,0,170.092.677a13.931,13.931,0,0,0,6.2-1.26,12.287,12.287,0,0,0,4.079-3.083A11.442,11.442,0,0,0,182.5-7.256h.226V0h4.023Zm8.61,22.747a20.09,20.09,0,0,0,1.936,9.211,13.663,13.663,0,0,0,5.452,5.809,16.411,16.411,0,0,0,8.29,2.011,17.153,17.153,0,0,0,8.2-1.711A12.039,12.039,0,0,0,223.95-5.32a11.135,11.135,0,0,0,1.711-5.132h-3.948a10.12,10.12,0,0,1-1.5,3.515,8.272,8.272,0,0,1-3.309,2.8,12.926,12.926,0,0,1-5.752,1.09,11.049,11.049,0,0,1-8.629-3.515q-3.177-3.515-3.177-9.945v-6.053q0-6.429,3.139-9.963A10.814,10.814,0,0,1,211-36.056a11.72,11.72,0,0,1,5.752,1.241,8.991,8.991,0,0,1,3.365,3.1,10.212,10.212,0,0,1,1.448,3.666h3.948a11.222,11.222,0,0,0-1.767-5.47,12.83,12.83,0,0,0-4.831-4.455,16.193,16.193,0,0,0-7.952-1.767,16.221,16.221,0,0,0-8.14,1.993A13.827,13.827,0,0,0,197.331-32a19.272,19.272,0,0,0-1.974,9.061ZM236.865-39.1h-6.993v3.421h6.993V-9.663a16.4,16.4,0,0,0,.846,5.752,5.739,5.739,0,0,0,3.064,3.252A15.372,15.372,0,0,0,247.092.376q.9,0,2.387-.113t2.087-.188V-3.384q-.564.038-1.767.132t-1.955.094q-3.948,0-5.47-1.335t-1.523-5.019V-35.68h10.114V-39.1H240.851v-9.625h-3.985Zm50,0h-4.023v24.063a12.556,12.556,0,0,1-1.429,5.846,11.662,11.662,0,0,1-4.1,4.493,11.5,11.5,0,0,1-6.392,1.729A11.54,11.54,0,0,1,265.7-4.1a8.216,8.216,0,0,1-3.534-3.384,11.225,11.225,0,0,1-1.278-5.6V-39.1h-4.023v26.92a13.628,13.628,0,0,0,1.767,7.332,10.71,10.71,0,0,0,4.775,4.173A16.411,16.411,0,0,0,270.214.677a13.931,13.931,0,0,0,6.2-1.26A12.287,12.287,0,0,0,280.5-3.666a11.442,11.442,0,0,0,2.124-3.591h.226V0h4.023ZM297.623,0h4.023V-24.326a12.928,12.928,0,0,1,1.429-6.316,9.66,9.66,0,0,1,3.948-3.948,11.882,11.882,0,0,1,5.715-1.354,19.5,19.5,0,0,1,2.068.094q.865.094,1.241.169v-3.8q-.451-.075-1.184-.15a16.566,16.566,0,0,0-1.673-.075,12.651,12.651,0,0,0-5.978,1.26,10.439,10.439,0,0,0-3.647,3.027,10.265,10.265,0,0,0-1.692,3.346h-.226V-39.1h-4.023Zm33.124.677a14.189,14.189,0,0,0,5.922-1.109A12.927,12.927,0,0,0,340.6-3.083a11.624,11.624,0,0,0,2.181-2.933H343V0h3.91V-27.559a12.31,12.31,0,0,0-1.786-6.937,10.55,10.55,0,0,0-4.869-3.967,18.221,18.221,0,0,0-7.031-1.278,20.353,20.353,0,0,0-5.564.7,12.885,12.885,0,0,0-4.173,1.974,9.616,9.616,0,0,0-2.707,3.008,9.293,9.293,0,0,0-1.166,3.76h3.948A6.813,6.813,0,0,1,324.9-33.03a7.667,7.667,0,0,1,3.008-2.218,12.668,12.668,0,0,1,5.132-.884,11.114,11.114,0,0,1,7.106,2.143q2.707,2.143,2.707,6.73v5h-11.43q-6.617,0-10.02,3.083a10.348,10.348,0,0,0-3.4,8.046,11.047,11.047,0,0,0,3.534,8.591A13.16,13.16,0,0,0,330.747.677Zm.79-3.647a10.387,10.387,0,0,1-6.655-2.143,7.317,7.317,0,0,1-2.707-6.091,7.286,7.286,0,0,1,2.2-5.452q2.2-2.143,7.087-2.143h11.392v5.489a9.522,9.522,0,0,1-1.542,5.376,10.678,10.678,0,0,1-4.1,3.647A12.22,12.22,0,0,1,331.536-2.97ZM357.516,0h4.023V-53.99h-4.023Zm27.146-28.762a8.514,8.514,0,0,0,1.654,5.508,10.783,10.783,0,0,0,4.587,3.2,51.4,51.4,0,0,0,6.692,2.049q2.82.6,5.282,1.391a10.338,10.338,0,0,1,3.985,2.218,5.248,5.248,0,0,1,1.523,4.023,6.474,6.474,0,0,1-1.316,4.1A8.261,8.261,0,0,1,403.4-3.685a15.33,15.33,0,0,1-5.508.9,13.516,13.516,0,0,1-5.959-1.109,7.665,7.665,0,0,1-3.252-2.763A7.667,7.667,0,0,1,387.519-10h-3.948a9.45,9.45,0,0,0,1.56,5.207A11.2,11.2,0,0,0,389.85-.846,18.235,18.235,0,0,0,397.783.677a20.186,20.186,0,0,0,7.388-1.3,11.925,11.925,0,0,0,5.282-3.854,10.153,10.153,0,0,0,1.955-6.354,8.279,8.279,0,0,0-1.861-5.771,11.872,11.872,0,0,0-4.944-3.139,54.7,54.7,0,0,0-6.768-1.88q-2.181-.489-4.023-1.072a15.6,15.6,0,0,1-3.215-1.391,6.188,6.188,0,0,1-2.143-2.03,5.568,5.568,0,0,1-.771-3.027,5.977,5.977,0,0,1,2.745-5.339,11.845,11.845,0,0,1,6.655-1.8,11.629,11.629,0,0,1,5.564,1.147,7.73,7.73,0,0,1,3.064,2.763,6.4,6.4,0,0,1,1,3.083h3.835a9.6,9.6,0,0,0-1.429-4.963,10.647,10.647,0,0,0-4.38-3.948,16.225,16.225,0,0,0-7.538-1.542,18.421,18.421,0,0,0-6.786,1.2,11.046,11.046,0,0,0-4.906,3.647A9.893,9.893,0,0,0,384.662-28.762Zm65.8-10.339h-4.023v24.063a12.556,12.556,0,0,1-1.429,5.846,11.662,11.662,0,0,1-4.1,4.493,11.5,11.5,0,0,1-6.392,1.729A11.54,11.54,0,0,1,429.29-4.1a8.216,8.216,0,0,1-3.534-3.384,11.225,11.225,0,0,1-1.278-5.6V-39.1h-4.023v26.92a13.628,13.628,0,0,0,1.767,7.332A10.71,10.71,0,0,0,427-.677,16.411,16.411,0,0,0,433.8.677a13.931,13.931,0,0,0,6.2-1.26,12.287,12.287,0,0,0,4.079-3.083,11.442,11.442,0,0,0,2.124-3.591h.226V0h4.023ZM477.3.677a15.416,15.416,0,0,0,7.67-1.917,13.734,13.734,0,0,0,5.414-5.6,18.757,18.757,0,0,0,1.993-9.023v-7.444a18.969,18.969,0,0,0-1.88-8.723,13.743,13.743,0,0,0-5.245-5.7,14.838,14.838,0,0,0-7.764-2.011,14.972,14.972,0,0,0-4.963.752,12.85,12.85,0,0,0-3.685,1.955,12.067,12.067,0,0,0-2.5,2.575,10.9,10.9,0,0,0-1.372,2.538h-.226V-39.1H460.91v51.81H464.9V-6.918h.226a12.162,12.162,0,0,0,2.237,3.534,12.086,12.086,0,0,0,4,2.9A13.874,13.874,0,0,0,477.3.677Zm-.414-3.647a11.7,11.7,0,0,1-6.279-1.673A11.421,11.421,0,0,1,466.4-9.249a14.207,14.207,0,0,1-1.5-6.58v-7.106a15.45,15.45,0,0,1,1.41-6.674,11.426,11.426,0,0,1,4.079-4.756,11.383,11.383,0,0,1,6.429-1.767,11.236,11.236,0,0,1,6.016,1.6,10.738,10.738,0,0,1,4.061,4.681,17.414,17.414,0,0,1,1.466,7.52v5.527a17.217,17.217,0,0,1-1.523,7.689,10.736,10.736,0,0,1-4.117,4.606A11.19,11.19,0,0,1,476.889-2.97ZM517.72.677a15.416,15.416,0,0,0,7.67-1.917,13.733,13.733,0,0,0,5.414-5.6,18.757,18.757,0,0,0,1.993-9.023v-7.444a18.969,18.969,0,0,0-1.88-8.723,13.743,13.743,0,0,0-5.245-5.7,14.839,14.839,0,0,0-7.764-2.011,14.972,14.972,0,0,0-4.963.752,12.85,12.85,0,0,0-3.685,1.955,12.067,12.067,0,0,0-2.5,2.575,10.9,10.9,0,0,0-1.372,2.538h-.226V-39.1h-3.835v51.81h3.985V-6.918h.226a12.162,12.162,0,0,0,2.237,3.534,12.086,12.086,0,0,0,4,2.9A13.874,13.874,0,0,0,517.72.677Zm-.414-3.647a11.7,11.7,0,0,1-6.279-1.673,11.421,11.421,0,0,1-4.211-4.606,14.207,14.207,0,0,1-1.5-6.58v-7.106a15.45,15.45,0,0,1,1.41-6.674,11.426,11.426,0,0,1,4.079-4.756,11.383,11.383,0,0,1,6.429-1.767,11.236,11.236,0,0,1,6.016,1.6,10.738,10.738,0,0,1,4.061,4.681,17.414,17.414,0,0,1,1.466,7.52v5.527a17.217,17.217,0,0,1-1.523,7.689,10.736,10.736,0,0,1-4.117,4.606A11.19,11.19,0,0,1,517.306-2.97Zm38.763-36.771a16.869,16.869,0,0,0-8.253,2.011,14.559,14.559,0,0,0-5.79,5.828A18.882,18.882,0,0,0,539.9-22.6v6.166a18.941,18.941,0,0,0,2.124,9.362,14.338,14.338,0,0,0,5.79,5.771A17.126,17.126,0,0,0,556.069.677a16.939,16.939,0,0,0,8.2-1.974,14.615,14.615,0,0,0,5.809-5.771,18.673,18.673,0,0,0,2.162-9.362V-22.6a18.8,18.8,0,0,0-2.162-9.362,14.519,14.519,0,0,0-5.828-5.809A16.969,16.969,0,0,0,556.069-39.741Zm0,3.609a11.923,11.923,0,0,1,6.279,1.654,11.307,11.307,0,0,1,4.3,4.794,16.875,16.875,0,0,1,1.56,7.576v5.226a17.022,17.022,0,0,1-1.542,7.595A10.883,10.883,0,0,1,562.4-4.568a12.221,12.221,0,0,1-6.3,1.6,12.359,12.359,0,0,1-6.392-1.617,10.87,10.87,0,0,1-4.267-4.719,17.078,17.078,0,0,1-1.523-7.576v-5.226a16.847,16.847,0,0,1,1.56-7.595,11.329,11.329,0,0,1,4.3-4.775A11.923,11.923,0,0,1,556.069-36.131ZM581.561,0h4.023V-24.326a12.928,12.928,0,0,1,1.429-6.316,9.66,9.66,0,0,1,3.948-3.948,11.882,11.882,0,0,1,5.715-1.354,19.5,19.5,0,0,1,2.068.094q.865.094,1.241.169v-3.8q-.451-.075-1.184-.15a16.566,16.566,0,0,0-1.673-.075,12.651,12.651,0,0,0-5.978,1.26,10.439,10.439,0,0,0-3.647,3.027,10.264,10.264,0,0,0-1.692,3.346h-.226V-39.1h-4.023Zm27.672-39.1h-6.993v3.421h6.993V-9.663a16.4,16.4,0,0,0,.846,5.752,5.739,5.739,0,0,0,3.064,3.252A15.372,15.372,0,0,0,619.459.376q.9,0,2.387-.113t2.087-.188V-3.384q-.564.038-1.767.132t-1.955.094q-3.948,0-5.47-1.335t-1.523-5.019V-35.68h10.114V-39.1H613.218v-9.625h-3.985ZM52.674,47.9h-4.1L40.117,81.436h-.226L29.514,47.9H25.6L15.377,81.436h-.226L6.805,47.9H2.256L13.234,87H17.22l10.3-33.274h.15L38.049,87h3.985ZM59.818,87H63.8V47.9H59.818ZM58.464,36.13a3.274,3.274,0,0,0,3.309,3.309A3.287,3.287,0,0,0,64.2,38.48a3.2,3.2,0,0,0,.959-2.35,3.279,3.279,0,0,0-3.384-3.384,3.2,3.2,0,0,0-2.35.959A3.287,3.287,0,0,0,58.464,36.13ZM76.248,47.9H69.255V51.32h6.993V77.337a16.4,16.4,0,0,0,.846,5.752,5.739,5.739,0,0,0,3.064,3.252,15.372,15.372,0,0,0,6.316,1.034q.9,0,2.387-.113t2.087-.188V83.616q-.564.038-1.767.132t-1.955.094q-3.948,0-5.47-1.335t-1.523-5.019V51.32H90.347V47.9H80.233V38.273H76.248ZM97.115,87H101.1V64.216a16.209,16.209,0,0,1,1.335-6.58,11.47,11.47,0,0,1,4-4.906,11.29,11.29,0,0,1,6.617-1.861,10.574,10.574,0,0,1,5.527,1.372,8.935,8.935,0,0,1,3.5,3.835,12.915,12.915,0,0,1,1.2,5.734V87h4.023V60.719q0-6.617-3.8-10.039a13.731,13.731,0,0,0-9.55-3.421,14.472,14.472,0,0,0-6.58,1.335,11.515,11.515,0,0,0-4.079,3.252,12.1,12.1,0,0,0-1.974,3.609H101.1V33.01H97.115Zm52.411-28.762a8.514,8.514,0,0,0,1.654,5.508,10.783,10.783,0,0,0,4.587,3.2,51.4,51.4,0,0,0,6.692,2.049q2.82.6,5.282,1.391a10.338,10.338,0,0,1,3.985,2.218,5.248,5.248,0,0,1,1.523,4.023,6.474,6.474,0,0,1-1.316,4.1,8.261,8.261,0,0,1-3.666,2.594,15.33,15.33,0,0,1-5.508.9,13.516,13.516,0,0,1-5.959-1.109A7.44,7.44,0,0,1,152.383,77h-3.948A9.45,9.45,0,0,0,150,82.206a11.2,11.2,0,0,0,4.719,3.948,18.235,18.235,0,0,0,7.933,1.523,20.186,20.186,0,0,0,7.388-1.3,11.925,11.925,0,0,0,5.282-3.854,10.153,10.153,0,0,0,1.955-6.354,8.279,8.279,0,0,0-1.861-5.771,11.872,11.872,0,0,0-4.944-3.139,54.7,54.7,0,0,0-6.768-1.88q-2.181-.489-4.023-1.072a15.594,15.594,0,0,1-3.215-1.391,6.188,6.188,0,0,1-2.143-2.03,5.568,5.568,0,0,1-.771-3.027,5.977,5.977,0,0,1,2.745-5.339,11.845,11.845,0,0,1,6.655-1.8,11.629,11.629,0,0,1,5.564,1.147,7.73,7.73,0,0,1,3.064,2.763,6.4,6.4,0,0,1,1,3.083h3.835a9.6,9.6,0,0,0-1.429-4.963A10.647,10.647,0,0,0,170.6,48.8a16.225,16.225,0,0,0-7.538-1.542,18.421,18.421,0,0,0-6.786,1.2,11.046,11.046,0,0,0-4.906,3.647A9.893,9.893,0,0,0,149.526,58.238Zm50.08,29.439a17.54,17.54,0,0,0,6.185-1,14.05,14.05,0,0,0,4.4-2.538,12.2,12.2,0,0,0,2.707-3.309,9.41,9.41,0,0,0,1.147-3.309h-4.211a6.627,6.627,0,0,1-1.485,3.008,9.221,9.221,0,0,1-3.4,2.5,12.809,12.809,0,0,1-5.339,1q-5.64,0-8.76-3.685t-3.121-9.963V68.2h26.882v-3.2a21.477,21.477,0,0,0-1.974-9.644,14.133,14.133,0,0,0-5.452-6.034,16.614,16.614,0,0,0-16.054,0,14.133,14.133,0,0,0-5.452,6.034,21.477,21.477,0,0,0-1.974,9.644v5.226a21.157,21.157,0,0,0,1.9,9.324,13.821,13.821,0,0,0,5.452,6.016A16.488,16.488,0,0,0,199.606,87.677ZM187.725,64.968v-.451a17.182,17.182,0,0,1,1.429-7.313,10.953,10.953,0,0,1,20,0,17.182,17.182,0,0,1,1.429,7.313v.451ZM223.781,87H227.8V62.674a12.928,12.928,0,0,1,1.429-6.316,9.66,9.66,0,0,1,3.948-3.948,11.882,11.882,0,0,1,5.715-1.354,19.5,19.5,0,0,1,2.068.094q.865.094,1.241.169v-3.8q-.451-.075-1.184-.15a16.566,16.566,0,0,0-1.673-.075,12.651,12.651,0,0,0-5.978,1.26,10.439,10.439,0,0,0-3.647,3.027,10.264,10.264,0,0,0-1.692,3.346H227.8V47.9h-4.023Zm35.041,0h4.061L277.32,47.9h-4.286L260.965,82.413h-.226L249.009,47.9h-4.437Zm24.25,0h3.985V47.9h-3.985Zm-1.354-50.87a3.274,3.274,0,0,0,3.309,3.309,3.287,3.287,0,0,0,2.425-.959,3.2,3.2,0,0,0,.959-2.35,3.279,3.279,0,0,0-3.384-3.384,3.2,3.2,0,0,0-2.35.959A3.287,3.287,0,0,0,281.719,36.13Zm13.836,34.515a20.09,20.09,0,0,0,1.936,9.211,13.663,13.663,0,0,0,5.452,5.809,16.411,16.411,0,0,0,8.29,2.011,17.153,17.153,0,0,0,8.2-1.711,12.039,12.039,0,0,0,4.719-4.286,11.135,11.135,0,0,0,1.711-5.132h-3.948a10.12,10.12,0,0,1-1.5,3.515,8.272,8.272,0,0,1-3.309,2.8,12.926,12.926,0,0,1-5.752,1.09,11.049,11.049,0,0,1-8.629-3.515q-3.177-3.515-3.177-9.945V64.441q0-6.429,3.139-9.963a10.814,10.814,0,0,1,8.516-3.534,11.72,11.72,0,0,1,5.752,1.241,8.991,8.991,0,0,1,3.365,3.1,10.212,10.212,0,0,1,1.448,3.666h3.948a11.222,11.222,0,0,0-1.767-5.47,12.83,12.83,0,0,0-4.831-4.455,18.171,18.171,0,0,0-16.092.226A13.827,13.827,0,0,0,297.529,55a19.272,19.272,0,0,0-1.974,9.061Zm52.938,17.032a17.54,17.54,0,0,0,6.185-1,14.05,14.05,0,0,0,4.4-2.538,12.2,12.2,0,0,0,2.707-3.309,9.41,9.41,0,0,0,1.147-3.309h-4.211a6.627,6.627,0,0,1-1.485,3.008,9.221,9.221,0,0,1-3.4,2.5,12.808,12.808,0,0,1-5.339,1q-5.64,0-8.76-3.685t-3.121-9.963V68.2h26.882v-3.2a21.477,21.477,0,0,0-1.974-9.644,14.134,14.134,0,0,0-5.452-6.034,16.614,16.614,0,0,0-16.054,0,14.134,14.134,0,0,0-5.452,6.034,21.477,21.477,0,0,0-1.974,9.644v5.226a21.157,21.157,0,0,0,1.9,9.324,13.821,13.821,0,0,0,5.452,6.016A16.488,16.488,0,0,0,348.493,87.677ZM336.612,64.968v-.451a17.182,17.182,0,0,1,1.429-7.313,10.953,10.953,0,0,1,20,0,17.182,17.182,0,0,1,1.429,7.313v.451ZM386.654,87h4.023V33.01h-4.023Zm29.063.677a17.54,17.54,0,0,0,6.185-1,14.05,14.05,0,0,0,4.4-2.538,12.2,12.2,0,0,0,2.707-3.309,9.41,9.41,0,0,0,1.147-3.309h-4.211a6.627,6.627,0,0,1-1.485,3.008,9.221,9.221,0,0,1-3.4,2.5,12.808,12.808,0,0,1-5.339,1q-5.64,0-8.76-3.685t-3.121-9.963V68.2h26.882v-3.2a21.477,21.477,0,0,0-1.974-9.644,14.134,14.134,0,0,0-5.452-6.034,16.614,16.614,0,0,0-16.054,0,14.134,14.134,0,0,0-5.452,6.034,21.477,21.477,0,0,0-1.974,9.644v5.226a21.157,21.157,0,0,0,1.9,9.324,13.821,13.821,0,0,0,5.452,6.016A16.488,16.488,0,0,0,415.717,87.677ZM403.836,64.968v-.451a17.182,17.182,0,0,1,1.429-7.313,10.953,10.953,0,0,1,20,0,17.182,17.182,0,0,1,1.429,7.313v.451ZM448.766,87h4.061l14.438-39.1h-4.286L450.909,82.413h-.226L438.953,47.9h-4.437Zm37.3.677a17.54,17.54,0,0,0,6.185-1,14.05,14.05,0,0,0,4.4-2.538,12.2,12.2,0,0,0,2.707-3.309,9.41,9.41,0,0,0,1.147-3.309h-4.211a6.627,6.627,0,0,1-1.485,3.008,9.221,9.221,0,0,1-3.4,2.5,12.808,12.808,0,0,1-5.339,1q-5.64,0-8.76-3.685t-3.121-9.963V68.2h26.882v-3.2a21.477,21.477,0,0,0-1.974-9.644,14.134,14.134,0,0,0-5.452-6.034,16.614,16.614,0,0,0-16.054,0,14.134,14.134,0,0,0-5.452,6.034,21.477,21.477,0,0,0-1.974,9.644v5.226a21.157,21.157,0,0,0,1.9,9.324,13.821,13.821,0,0,0,5.452,6.016A16.488,16.488,0,0,0,486.063,87.677ZM474.182,64.968v-.451A17.182,17.182,0,0,1,475.61,57.2a10.953,10.953,0,0,1,20,0,17.182,17.182,0,0,1,1.429,7.313v.451ZM510.388,87h4.023V33.01h-4.023ZM17.445,174.677a14.189,14.189,0,0,0,5.922-1.109,12.927,12.927,0,0,0,3.929-2.651,11.624,11.624,0,0,0,2.181-2.933H29.7V174h3.91V146.441a12.31,12.31,0,0,0-1.786-6.937,10.55,10.55,0,0,0-4.869-3.967,18.221,18.221,0,0,0-7.031-1.278,20.353,20.353,0,0,0-5.564.7,12.885,12.885,0,0,0-4.173,1.974,9.616,9.616,0,0,0-2.707,3.008,9.293,9.293,0,0,0-1.166,3.76h3.948A6.813,6.813,0,0,1,11.6,140.97a7.667,7.667,0,0,1,3.008-2.218,12.668,12.668,0,0,1,5.132-.884,11.114,11.114,0,0,1,7.106,2.143q2.707,2.143,2.707,6.73v5H18.122q-6.617,0-10.02,3.083a10.348,10.348,0,0,0-3.4,8.046,11.047,11.047,0,0,0,3.534,8.591A13.16,13.16,0,0,0,17.445,174.677Zm.79-3.647a10.387,10.387,0,0,1-6.655-2.143,8.04,8.04,0,0,1-.508-11.542q2.2-2.143,7.087-2.143H29.552v5.489a9.523,9.523,0,0,1-1.542,5.376,10.678,10.678,0,0,1-4.1,3.647A12.22,12.22,0,0,1,18.235,171.03Zm39.1,13.234a13.678,13.678,0,0,1-5.583-1.015,9.235,9.235,0,0,1-3.515-2.557,6.156,6.156,0,0,1-1.429-3.121H42.636a9.912,9.912,0,0,0,1.8,4.888,11.813,11.813,0,0,0,4.775,3.891,18.335,18.335,0,0,0,7.971,1.523,21.637,21.637,0,0,0,6.617-.94,13.871,13.871,0,0,0,5.019-2.782,12.076,12.076,0,0,0,3.2-4.549,16.362,16.362,0,0,0,1.109-6.241V134.9H69.255v6.956h-.188a11.077,11.077,0,0,0-2.087-3.309,12.8,12.8,0,0,0-4.042-3.027,13.5,13.5,0,0,0-6.091-1.26,15.8,15.8,0,0,0-7.576,1.861,14.035,14.035,0,0,0-5.583,5.508,17.639,17.639,0,0,0-2.105,8.948v6.091a17.72,17.72,0,0,0,2.011,8.685,14.1,14.1,0,0,0,5.47,5.6,15.463,15.463,0,0,0,7.745,1.955,13.907,13.907,0,0,0,4.831-.771,12.778,12.778,0,0,0,3.553-1.936,12.015,12.015,0,0,0,2.369-2.444,11.348,11.348,0,0,0,1.316-2.331H69.1v8.046A10.458,10.458,0,0,1,66.1,181.35Q63.089,184.264,57.336,184.264Zm.075-46.4a10.824,10.824,0,0,1,6.26,1.786,11.762,11.762,0,0,1,4.023,4.737,14.85,14.85,0,0,1,1.41,6.486v5.6a14.8,14.8,0,0,1-1.335,6.2,11.688,11.688,0,0,1-3.929,4.775,10.757,10.757,0,0,1-6.392,1.842,11.2,11.2,0,0,1-10.283-6.316,15.645,15.645,0,0,1-1.56-7.219v-4.211a16.231,16.231,0,0,1,1.579-7.5,11.01,11.01,0,0,1,4.267-4.625A11.655,11.655,0,0,1,57.412,137.869ZM84.971,174h4.023V149.674a12.928,12.928,0,0,1,1.429-6.316,9.66,9.66,0,0,1,3.948-3.948,11.882,11.882,0,0,1,5.715-1.354,19.493,19.493,0,0,1,2.068.094q.865.094,1.241.169v-3.8q-.451-.075-1.184-.15a16.567,16.567,0,0,0-1.673-.075,12.651,12.651,0,0,0-5.978,1.26,10.439,10.439,0,0,0-3.647,3.027,10.264,10.264,0,0,0-1.692,3.346h-.226V134.9H84.971Zm37.222.677a17.539,17.539,0,0,0,6.185-1,14.05,14.05,0,0,0,4.4-2.538,12.2,12.2,0,0,0,2.707-3.309,9.41,9.41,0,0,0,1.147-3.309h-4.211a6.627,6.627,0,0,1-1.485,3.008,9.221,9.221,0,0,1-3.4,2.5,12.808,12.808,0,0,1-5.339,1q-5.64,0-8.76-3.685t-3.121-9.963V155.2h26.882v-3.2a21.476,21.476,0,0,0-1.974-9.644,14.134,14.134,0,0,0-5.452-6.034,16.614,16.614,0,0,0-16.054,0,14.134,14.134,0,0,0-5.452,6.034,21.476,21.476,0,0,0-1.974,9.644v5.226a21.157,21.157,0,0,0,1.9,9.324,13.821,13.821,0,0,0,5.452,6.016A16.488,16.488,0,0,0,122.192,174.677Zm-11.881-22.709v-.451a17.182,17.182,0,0,1,1.429-7.313,10.953,10.953,0,0,1,20,0,17.182,17.182,0,0,1,1.429,7.313v.451Zm49.854,22.709a17.539,17.539,0,0,0,6.185-1,14.05,14.05,0,0,0,4.4-2.538,12.2,12.2,0,0,0,2.707-3.309,9.41,9.41,0,0,0,1.147-3.309h-4.211a6.627,6.627,0,0,1-1.485,3.008,9.221,9.221,0,0,1-3.4,2.5,12.808,12.808,0,0,1-5.339,1q-5.64,0-8.76-3.685t-3.121-9.963V155.2h26.882v-3.2a21.476,21.476,0,0,0-1.974-9.644,14.134,14.134,0,0,0-5.452-6.034,16.614,16.614,0,0,0-16.054,0,14.134,14.134,0,0,0-5.452,6.034,21.476,21.476,0,0,0-1.974,9.644v5.226a21.157,21.157,0,0,0,1.9,9.324,13.821,13.821,0,0,0,5.452,6.016A16.488,16.488,0,0,0,160.166,174.677Zm-11.881-22.709v-.451a17.182,17.182,0,0,1,1.429-7.313,10.953,10.953,0,0,1,20,0,17.182,17.182,0,0,1,1.429,7.313v.451ZM184,174h4.023V148.922a12.88,12.88,0,0,1,1.184-5.583,9.34,9.34,0,0,1,8.854-5.47,10.035,10.035,0,0,1,5.113,1.241,8.238,8.238,0,0,1,3.29,3.534,12.063,12.063,0,0,1,1.147,5.452V174h4.023V148.584a11.653,11.653,0,0,1,1.222-5.32,9.925,9.925,0,0,1,3.5-3.91,9.716,9.716,0,0,1,5.433-1.485,10.279,10.279,0,0,1,5.019,1.166,7.876,7.876,0,0,1,3.271,3.4,11.8,11.8,0,0,1,1.147,5.433V174h4.023V146.817q0-6.2-3.534-9.381a13.255,13.255,0,0,0-9.211-3.177,12.98,12.98,0,0,0-6.034,1.278,11.36,11.36,0,0,0-3.873,3.121,12.345,12.345,0,0,0-1.974,3.534H210.4a10.35,10.35,0,0,0-5.734-6.843,13.009,13.009,0,0,0-5.583-1.09,12.164,12.164,0,0,0-5.846,1.222,9.712,9.712,0,0,0-3.4,2.9,10.832,10.832,0,0,0-1.579,3.1h-.226V134.9H184Zm75.684.677a17.539,17.539,0,0,0,6.185-1,14.05,14.05,0,0,0,4.4-2.538,12.2,12.2,0,0,0,2.707-3.309,9.41,9.41,0,0,0,1.147-3.309h-4.211a6.627,6.627,0,0,1-1.485,3.008,9.221,9.221,0,0,1-3.4,2.5,12.808,12.808,0,0,1-5.339,1q-5.64,0-8.76-3.685t-3.121-9.963V155.2h26.882v-3.2a21.476,21.476,0,0,0-1.974-9.644,14.134,14.134,0,0,0-5.452-6.034,16.614,16.614,0,0,0-16.054,0,14.134,14.134,0,0,0-5.452,6.034,21.476,21.476,0,0,0-1.974,9.644v5.226a21.157,21.157,0,0,0,1.9,9.324,13.821,13.821,0,0,0,5.452,6.016A16.488,16.488,0,0,0,259.687,174.677Zm-11.881-22.709v-.451a17.182,17.182,0,0,1,1.429-7.313,10.953,10.953,0,0,1,20,0,17.182,17.182,0,0,1,1.429,7.313v.451ZM283.524,174h4.023V151.216a16.408,16.408,0,0,1,1.316-6.58,11.388,11.388,0,0,1,3.967-4.906,11.27,11.27,0,0,1,6.636-1.861,10.35,10.35,0,0,1,5.508,1.372,8.948,8.948,0,0,1,3.421,3.816,12.965,12.965,0,0,1,1.184,5.715V174h3.985V147.682q0-6.617-3.741-10.02a13.726,13.726,0,0,0-9.606-3.4,14.437,14.437,0,0,0-6.542,1.3,10.863,10.863,0,0,0-3.948,3.2,12.8,12.8,0,0,0-1.955,3.7h-.226V134.9h-4.023Zm42.335-39.1h-6.993v3.421h6.993v26.018a16.4,16.4,0,0,0,.846,5.752,5.738,5.738,0,0,0,3.064,3.252,15.373,15.373,0,0,0,6.316,1.034q.9,0,2.387-.113t2.087-.188v-3.459q-.564.038-1.767.132t-1.955.094q-3.948,0-5.47-1.335t-1.523-5.019V138.32h10.114V134.9H329.844v-9.625h-3.985Zm19.476,10.339a8.514,8.514,0,0,0,1.654,5.508,10.783,10.783,0,0,0,4.587,3.2,51.4,51.4,0,0,0,6.692,2.049q2.82.6,5.282,1.391a10.338,10.338,0,0,1,3.985,2.218,5.248,5.248,0,0,1,1.523,4.023,6.474,6.474,0,0,1-1.316,4.1,8.261,8.261,0,0,1-3.666,2.594,15.33,15.33,0,0,1-5.508.9,13.516,13.516,0,0,1-5.959-1.109,7.44,7.44,0,0,1-4.418-6.11h-3.948a9.45,9.45,0,0,0,1.56,5.207,11.2,11.2,0,0,0,4.719,3.948,18.235,18.235,0,0,0,7.933,1.523,20.186,20.186,0,0,0,7.388-1.3,11.925,11.925,0,0,0,5.282-3.854,10.153,10.153,0,0,0,1.955-6.354,8.279,8.279,0,0,0-1.861-5.771,11.872,11.872,0,0,0-4.944-3.139,54.7,54.7,0,0,0-6.768-1.88q-2.181-.489-4.023-1.072a15.6,15.6,0,0,1-3.215-1.391,6.188,6.188,0,0,1-2.143-2.03,5.568,5.568,0,0,1-.771-3.027,5.977,5.977,0,0,1,2.745-5.339,11.845,11.845,0,0,1,6.655-1.8,11.629,11.629,0,0,1,5.564,1.147,7.73,7.73,0,0,1,3.064,2.763,6.4,6.4,0,0,1,1,3.083h3.835a9.6,9.6,0,0,0-1.429-4.963,10.647,10.647,0,0,0-4.38-3.948,16.225,16.225,0,0,0-7.538-1.542,18.422,18.422,0,0,0-6.786,1.2,11.046,11.046,0,0,0-4.906,3.647A9.893,9.893,0,0,0,345.334,145.238Z" transform="translate(117 125)" fill="#656161"/>
    <path id="Path_4776" data-name="Path 4776" d="M6.885,48V18.679h.1L18.9,45.437h1.685l11.89-26.758h.122V48H34.2V14.821H32.471l-12.7,28.613h-.1L7.007,14.821H5.249V48Zm35.669,0h1.733V22.78H42.554Zm-.806-32.642a1.627,1.627,0,0,0,.488,1.2,1.6,1.6,0,0,0,1.172.488,1.667,1.667,0,0,0,1.685-1.685,1.587,1.587,0,0,0-.488-1.184,1.648,1.648,0,0,0-1.2-.476,1.619,1.619,0,0,0-1.172.476A1.587,1.587,0,0,0,41.748,15.358ZM51.465,48H53.2V32.839a10.316,10.316,0,0,1,.916-4.3,7.981,7.981,0,0,1,2.747-3.308A7.725,7.725,0,0,1,61.4,23.952a7.072,7.072,0,0,1,3.87,1,6.406,6.406,0,0,1,2.393,2.734,9.044,9.044,0,0,1,.818,3.906V48h1.733V31.276q0-4.346-2.441-6.641a8.694,8.694,0,0,0-6.2-2.295A9.265,9.265,0,0,0,57.4,23.2a7.991,7.991,0,0,0-2.71,2.1A7.506,7.506,0,0,0,53.3,27.858h-.1V22.78H51.465Zm26.416,0h1.733V22.78H77.881Zm-.806-32.642a1.627,1.627,0,0,0,.488,1.2,1.6,1.6,0,0,0,1.172.488,1.667,1.667,0,0,0,1.685-1.685,1.587,1.587,0,0,0-.488-1.184,1.648,1.648,0,0,0-1.2-.476,1.619,1.619,0,0,0-1.172.476A1.587,1.587,0,0,0,77.075,15.358ZM86.792,48h1.733V31.887a9.7,9.7,0,0,1,.793-3.967,6.766,6.766,0,0,1,2.356-2.881,6.637,6.637,0,0,1,3.882-1.086,6.837,6.837,0,0,1,3.467.842,5.664,5.664,0,0,1,2.271,2.466,8.862,8.862,0,0,1,.806,3.967V48h1.709V31.447a8.371,8.371,0,0,1,.806-3.613,6.938,6.938,0,0,1,2.38-2.8,6.65,6.65,0,0,1,3.87-1.086,7.05,7.05,0,0,1,3.369.781,5.545,5.545,0,0,1,2.307,2.368,8.486,8.486,0,0,1,.842,4V48h1.733V30.642q0-4.126-2.307-6.213a8.316,8.316,0,0,0-5.8-2.087,7.982,7.982,0,0,0-4.089.952,7.62,7.62,0,0,0-3.577,4.468h-.1A6.992,6.992,0,0,0,102,25.124a6.78,6.78,0,0,0-2.478-2.014,8.423,8.423,0,0,0-3.772-.769,7.751,7.751,0,0,0-3.821.83,6.59,6.59,0,0,0-2.258,1.965,7.37,7.37,0,0,0-1.05,2.063h-.1V22.78H86.792Zm40.015,0h1.733V22.78h-1.733ZM126,15.358a1.627,1.627,0,0,0,.488,1.2,1.6,1.6,0,0,0,1.172.488,1.667,1.667,0,0,0,1.685-1.685,1.587,1.587,0,0,0-.488-1.184,1.648,1.648,0,0,0-1.2-.476,1.619,1.619,0,0,0-1.172.476A1.587,1.587,0,0,0,126,15.358Zm8.838,13.721a5.458,5.458,0,0,0,1,3.394,7,7,0,0,0,2.832,2.124,28.17,28.17,0,0,0,4.3,1.44q1.855.439,3.564,1.013a7.466,7.466,0,0,1,2.8,1.6,3.675,3.675,0,0,1,1.086,2.808,4.524,4.524,0,0,1-1.025,3.052,6.145,6.145,0,0,1-2.686,1.782,10.862,10.862,0,0,1-3.638.586,9.184,9.184,0,0,1-4.419-.891,5.542,5.542,0,0,1-2.283-2.124,5.048,5.048,0,0,1-.7-2.258h-1.733a6.3,6.3,0,0,0,.879,3.052,7.035,7.035,0,0,0,2.869,2.686,11.111,11.111,0,0,0,5.359,1.1,13.031,13.031,0,0,0,4.517-.769,7.513,7.513,0,0,0,3.369-2.356,6.246,6.246,0,0,0,1.27-4.028,5.044,5.044,0,0,0-1.208-3.6A7.987,7.987,0,0,0,147.8,35.7a44.96,44.96,0,0,0-4.346-1.294q-1.636-.439-2.905-.9a9.172,9.172,0,0,1-2.136-1.074,4.33,4.33,0,0,1-1.331-1.453,4.116,4.116,0,0,1-.464-2.014,4.188,4.188,0,0,1,1.953-3.772,8.383,8.383,0,0,1,4.639-1.257,7.988,7.988,0,0,1,4.041.867,5.337,5.337,0,0,1,2.1,2.039,4.573,4.573,0,0,1,.623,2.1h1.709a6.178,6.178,0,0,0-.818-2.881,6.816,6.816,0,0,0-2.661-2.625,9.815,9.815,0,0,0-4.993-1.086,11.139,11.139,0,0,0-4.285.781,6.843,6.843,0,0,0-2.991,2.283A6.052,6.052,0,0,0,134.839,29.079Zm31.934,19.36a11.009,11.009,0,0,0,3.955-.647,8.752,8.752,0,0,0,2.8-1.66,7.662,7.662,0,0,0,1.7-2.161,5.7,5.7,0,0,0,.659-2.173h-1.758a4.834,4.834,0,0,1-.952,2.258,6.544,6.544,0,0,1-2.4,1.965,8.733,8.733,0,0,1-3.992.806,7.659,7.659,0,0,1-6.055-2.551q-2.246-2.551-2.246-7.336V35.476h17.773V34.157a15.33,15.33,0,0,0-1.233-6.531,8.882,8.882,0,0,0-3.43-3.955,10.4,10.4,0,0,0-10.181,0,8.882,8.882,0,0,0-3.43,3.955,15.33,15.33,0,0,0-1.233,6.531v2.832a14.455,14.455,0,0,0,1.208,6.2A8.768,8.768,0,0,0,161.4,47.1,10.278,10.278,0,0,0,166.772,48.439Zm-8.3-14.453V33.84a12.935,12.935,0,0,1,1-5.359,7.317,7.317,0,0,1,7.007-4.529,7.708,7.708,0,0,1,4.236,1.16,7.5,7.5,0,0,1,2.808,3.369,13.075,13.075,0,0,1,.989,5.359v.146Zm42.163,14.453a11.009,11.009,0,0,0,3.955-.647,8.752,8.752,0,0,0,2.8-1.66,7.662,7.662,0,0,0,1.7-2.161,5.7,5.7,0,0,0,.659-2.173h-1.758a4.834,4.834,0,0,1-.952,2.258,6.544,6.544,0,0,1-2.4,1.965,8.733,8.733,0,0,1-3.992.806,7.659,7.659,0,0,1-6.055-2.551q-2.246-2.551-2.246-7.336V35.476h17.773V34.157a15.33,15.33,0,0,0-1.233-6.531,8.882,8.882,0,0,0-3.43-3.955,10.4,10.4,0,0,0-10.181,0,8.882,8.882,0,0,0-3.43,3.955,15.33,15.33,0,0,0-1.233,6.531v2.832a14.455,14.455,0,0,0,1.208,6.2,8.768,8.768,0,0,0,3.455,3.906A10.278,10.278,0,0,0,200.635,48.439Zm-8.3-14.453V33.84a12.935,12.935,0,0,1,1-5.359,7.317,7.317,0,0,1,7.007-4.529,7.708,7.708,0,0,1,4.236,1.16,7.5,7.5,0,0,1,2.808,3.369,13.075,13.075,0,0,1,.989,5.359v.146ZM231.25,48h2.075q-.61-.928-1.343-1.965t-1.514-2.161q-.781-1.123-1.575-2.283t-1.575-2.283q-.781-1.123-1.514-2.161t-1.367-1.941l8.716-12.427h-1.978l-7.666,11.011h-.1L215.82,22.78h-2.075q.61.879,1.318,1.9t1.477,2.124q.769,1.1,1.538,2.222t1.538,2.234l1.477,2.136q.708,1.025,1.318,1.9L213.55,48H215.5l7.861-11.255h.1Zm16.382.439a9.911,9.911,0,0,0,4.736-1.172,8.818,8.818,0,0,0,3.54-3.54,11.784,11.784,0,0,0,1.343-5.884V32.912a11.991,11.991,0,0,0-1.233-5.627,9.028,9.028,0,0,0-3.394-3.65,10.295,10.295,0,0,0-8.557-.659,8.455,8.455,0,0,0-2.5,1.55,8.364,8.364,0,0,0-1.538,1.843,7.093,7.093,0,0,0-.72,1.514h-.1v-5.1H237.5v33.3h1.733V43.02h.122a8.4,8.4,0,0,0,1.294,2.295,8.059,8.059,0,0,0,2.661,2.2A8.991,8.991,0,0,0,247.632,48.439Zm-.073-1.611a7.888,7.888,0,0,1-4.395-1.221,8.117,8.117,0,0,1-2.905-3.32,10.483,10.483,0,0,1-1.025-4.663V33.156a10.749,10.749,0,0,1,.952-4.492,8.222,8.222,0,0,1,2.82-3.406,7.762,7.762,0,0,1,11.426,2.954,11.13,11.13,0,0,1,1.062,5.09v4.1a11.2,11.2,0,0,1-1.123,5.334,7.431,7.431,0,0,1-2.93,3.088A7.883,7.883,0,0,1,247.559,46.828Zm24.878,1.611a11.009,11.009,0,0,0,3.955-.647,8.752,8.752,0,0,0,2.8-1.66,7.662,7.662,0,0,0,1.7-2.161,5.7,5.7,0,0,0,.659-2.173h-1.758a4.835,4.835,0,0,1-.952,2.258,6.544,6.544,0,0,1-2.4,1.965,8.733,8.733,0,0,1-3.992.806,7.659,7.659,0,0,1-6.055-2.551q-2.246-2.551-2.246-7.336V35.476h17.773V34.157a15.331,15.331,0,0,0-1.233-6.531,8.882,8.882,0,0,0-3.43-3.955,10.4,10.4,0,0,0-10.181,0,8.882,8.882,0,0,0-3.43,3.955,15.331,15.331,0,0,0-1.233,6.531v2.832a14.455,14.455,0,0,0,1.208,6.2,8.767,8.767,0,0,0,3.455,3.906A10.278,10.278,0,0,0,272.437,48.439Zm-8.3-14.453V33.84a12.935,12.935,0,0,1,1-5.359,7.317,7.317,0,0,1,7.007-4.529,7.708,7.708,0,0,1,4.236,1.16,7.5,7.5,0,0,1,2.808,3.369,13.075,13.075,0,0,1,.989,5.359v.146ZM288.013,48h1.733V32.839a10.316,10.316,0,0,1,.916-4.3,7.981,7.981,0,0,1,2.747-3.308,7.725,7.725,0,0,1,4.541-1.282,7.072,7.072,0,0,1,3.87,1,6.406,6.406,0,0,1,2.393,2.734,9.044,9.044,0,0,1,.818,3.906V48h1.733V31.276q0-4.346-2.441-6.641a8.694,8.694,0,0,0-6.2-2.295,9.265,9.265,0,0,0-4.175.854,7.991,7.991,0,0,0-2.71,2.1,7.505,7.505,0,0,0-1.392,2.563h-.1V22.78h-1.733Zm34.326-25.659a9.863,9.863,0,0,0-4.712,1.172,8.856,8.856,0,0,0-3.54,3.516,11.7,11.7,0,0,0-1.343,5.884v5a11.878,11.878,0,0,0,1.233,5.579,9.028,9.028,0,0,0,3.394,3.65,10.322,10.322,0,0,0,8.569.659,8.278,8.278,0,0,0,2.515-1.562,8.752,8.752,0,0,0,1.538-1.843,5.943,5.943,0,0,0,.7-1.5h.1V48H332.5V12.966h-1.733V27.785h-.122a7.734,7.734,0,0,0-1.27-2.319,8.029,8.029,0,0,0-2.673-2.2A9.123,9.123,0,0,0,322.339,22.341Zm.1,1.611a7.83,7.83,0,0,1,4.395,1.233,8.24,8.24,0,0,1,2.905,3.308,10.384,10.384,0,0,1,1.025,4.663v4.492a10.577,10.577,0,0,1-.964,4.468,8.347,8.347,0,0,1-2.82,3.406,7.789,7.789,0,0,1-11.426-2.93,10.964,10.964,0,0,1-1.074-5.066V33.352a11.041,11.041,0,0,1,1.135-5.31,7.507,7.507,0,0,1,2.942-3.088A7.883,7.883,0,0,1,322.437,23.952ZM340.43,48h1.733V22.78H340.43Zm-.806-32.642a1.627,1.627,0,0,0,.488,1.2,1.6,1.6,0,0,0,1.172.488,1.667,1.667,0,0,0,1.685-1.685,1.587,1.587,0,0,0-.488-1.184,1.648,1.648,0,0,0-1.2-.476,1.619,1.619,0,0,0-1.172.476A1.587,1.587,0,0,0,339.624,15.358Zm11.157,7.422h-4.956v1.514h4.956V42.36a8.612,8.612,0,0,0,.574,3.442,3.477,3.477,0,0,0,1.953,1.855,10.429,10.429,0,0,0,3.821.562q.562,0,1.465-.061t1.392-.134V46.486q-.439.024-1.318.085t-1.416.061a5.618,5.618,0,0,1-3.687-.928,4.253,4.253,0,0,1-1.05-3.3V24.294h7.1V22.78h-7.1v-6.1h-1.733Zm31.348,0H380.4V37.893a10.142,10.142,0,0,1-.94,4.272,8.233,8.233,0,0,1-2.8,3.357,7.732,7.732,0,0,1-4.565,1.306,7.552,7.552,0,0,1-3.7-.867,5.961,5.961,0,0,1-2.429-2.466,7.947,7.947,0,0,1-.854-3.8V22.78h-1.733V39.968a8.992,8.992,0,0,0,1.147,4.773,7.133,7.133,0,0,0,3.088,2.783,9.974,9.974,0,0,0,4.309.916,9.326,9.326,0,0,0,4.2-.854,8.193,8.193,0,0,0,4.15-4.614h.122V48h1.733ZM389.575,48h1.733V32.473a9.772,9.772,0,0,1,1.038-4.761,6.731,6.731,0,0,1,2.734-2.783,7.65,7.65,0,0,1,3.65-.9,9.574,9.574,0,0,1,1.5.1q.6.1.793.146V22.585q-.244-.049-.781-.122a10.448,10.448,0,0,0-1.367-.073,8.007,8.007,0,0,0-3.943.879A6.968,6.968,0,0,0,392.5,25.4a6.893,6.893,0,0,0-1.1,2.4h-.1V22.78h-1.733Zm24.17.439a11.009,11.009,0,0,0,3.955-.647,8.752,8.752,0,0,0,2.8-1.66,7.662,7.662,0,0,0,1.7-2.161,5.7,5.7,0,0,0,.659-2.173h-1.758a4.835,4.835,0,0,1-.952,2.258,6.544,6.544,0,0,1-2.4,1.965,8.733,8.733,0,0,1-3.992.806,7.659,7.659,0,0,1-6.055-2.551q-2.246-2.551-2.246-7.336V35.476h17.773V34.157a15.331,15.331,0,0,0-1.233-6.531,8.882,8.882,0,0,0-3.43-3.955,10.4,10.4,0,0,0-10.181,0,8.882,8.882,0,0,0-3.43,3.955,15.331,15.331,0,0,0-1.233,6.531v2.832a14.455,14.455,0,0,0,1.208,6.2,8.767,8.767,0,0,0,3.455,3.906A10.278,10.278,0,0,0,413.745,48.439Zm-8.3-14.453V33.84a12.935,12.935,0,0,1,1-5.359,7.317,7.317,0,0,1,7.007-4.529,7.708,7.708,0,0,1,4.236,1.16,7.5,7.5,0,0,1,2.808,3.369,13.075,13.075,0,0,1,.989,5.359v.146ZM462.354,48h2.417l-5.4-5.713a14.684,14.684,0,0,0,2.112-4.773A27.176,27.176,0,0,0,462.4,31.5q0-.464.012-.928t.012-.952h-1.685V30.5q0,.439-.024.879a25.471,25.471,0,0,1-.842,5.518,14.543,14.543,0,0,1-1.721,4.2q-1.27-1.367-2.551-2.734t-2.551-2.734q-1.27-1.367-2.551-2.722t-2.551-2.747a27.678,27.678,0,0,0,4.333-2.637,9.584,9.584,0,0,0,2.563-2.8,6.371,6.371,0,0,0,.842-3.21,6.727,6.727,0,0,0-.928-3.479,6.994,6.994,0,0,0-2.612-2.539,7.978,7.978,0,0,0-4.028-.964,9.055,9.055,0,0,0-3.845.818,7.172,7.172,0,0,0-2.869,2.344,6.161,6.161,0,0,0-1.1,3.7,7.2,7.2,0,0,0,1.245,4.053,30.172,30.172,0,0,0,3.687,4.346l-.977.488-.977.488a16.335,16.335,0,0,0-4.236,2.93,8.626,8.626,0,0,0-2.026,3.04,8.732,8.732,0,0,0-.549,2.966,8.084,8.084,0,0,0,1.465,4.907,9.131,9.131,0,0,0,3.857,3.027,12.938,12.938,0,0,0,5.151,1.025,16.048,16.048,0,0,0,6.018-1.233,14.073,14.073,0,0,0,5.334-3.8q.049.073.647.72t1.379,1.477q.781.83,1.379,1.477T462.354,48Zm-18.14-15.918q.562-.293,1.111-.574t1.086-.549l10.718,11.5a12.163,12.163,0,0,1-4.7,3.394,14.236,14.236,0,0,1-5.481,1.172,10.012,10.012,0,0,1-4.443-.952,7.693,7.693,0,0,1-3.076-2.612,6.776,6.776,0,0,1,.464-8.093A14.06,14.06,0,0,1,444.214,32.082Zm2.588-3.027a37.76,37.76,0,0,1-3.479-3.979,5.977,5.977,0,0,1-1.208-3.589,4.865,4.865,0,0,1,1.733-3.894,6.325,6.325,0,0,1,4.248-1.477,5.733,5.733,0,0,1,4.224,1.575,5.269,5.269,0,0,1,1.587,3.894,5.622,5.622,0,0,1-1.538,3.76A18.033,18.033,0,0,1,446.8,29.055ZM477.856,48h1.733V31.887a9.7,9.7,0,0,1,.793-3.967,6.766,6.766,0,0,1,2.356-2.881,6.637,6.637,0,0,1,3.882-1.086,6.837,6.837,0,0,1,3.467.842,5.664,5.664,0,0,1,2.271,2.466,8.862,8.862,0,0,1,.806,3.967V48h1.709V31.447a8.371,8.371,0,0,1,.806-3.613,6.938,6.938,0,0,1,2.38-2.8,6.65,6.65,0,0,1,3.87-1.086,7.05,7.05,0,0,1,3.369.781A5.545,5.545,0,0,1,507.6,27.1a8.486,8.486,0,0,1,.842,4V48h1.733V30.642q0-4.126-2.307-6.213a8.316,8.316,0,0,0-5.8-2.087,7.982,7.982,0,0,0-4.089.952,7.62,7.62,0,0,0-3.577,4.468h-.1a6.992,6.992,0,0,0-1.245-2.637,6.78,6.78,0,0,0-2.478-2.014,8.423,8.423,0,0,0-3.772-.769,7.751,7.751,0,0,0-3.821.83,6.59,6.59,0,0,0-2.258,1.965,7.37,7.37,0,0,0-1.05,2.063h-.1V22.78h-1.733Zm46.191.439a9.345,9.345,0,0,0,4.2-.842,8.41,8.41,0,0,0,2.637-1.941,6.708,6.708,0,0,0,1.245-1.88h.1V48h1.709V29.909a7.665,7.665,0,0,0-1.074-4.2,6.615,6.615,0,0,0-2.979-2.527,10.9,10.9,0,0,0-4.443-.842,12.009,12.009,0,0,0-3.6.488,8.052,8.052,0,0,0-2.612,1.331,6.25,6.25,0,0,0-1.636,1.892,5.2,5.2,0,0,0-.647,2.173h1.709a4.626,4.626,0,0,1,.842-1.892,5.425,5.425,0,0,1,2.124-1.685,8.537,8.537,0,0,1,3.723-.7,7.769,7.769,0,0,1,4.956,1.5,5.708,5.708,0,0,1,1.9,4.773v3.687h-7.861q-4.224,0-6.372,1.953a6.516,6.516,0,0,0-2.148,5.054,6.965,6.965,0,0,0,2.283,5.505A8.654,8.654,0,0,0,524.048,48.439Zm.171-1.611a6.949,6.949,0,0,1-4.724-1.6,5.442,5.442,0,0,1-1.843-4.333A5.128,5.128,0,0,1,519.263,37q1.611-1.526,5.1-1.526H532.2v4a6.828,6.828,0,0,1-1.1,3.857,7.468,7.468,0,0,1-2.905,2.576A8.676,8.676,0,0,1,524.219,46.828ZM556.25,48h2.075q-.61-.928-1.343-1.965t-1.514-2.161q-.781-1.123-1.575-2.283t-1.575-2.283q-.781-1.123-1.514-2.161t-1.367-1.941l8.716-12.427h-1.978l-7.666,11.011h-.1L540.82,22.78h-2.075q.61.879,1.318,1.9t1.477,2.124q.769,1.1,1.538,2.222t1.538,2.234l1.477,2.136q.708,1.025,1.318,1.9L538.55,48H540.5l7.861-11.255h.1Zm6.665,0h1.733V22.78h-1.733Zm-.806-32.642a1.627,1.627,0,0,0,.488,1.2,1.6,1.6,0,0,0,1.172.488,1.667,1.667,0,0,0,1.685-1.685,1.587,1.587,0,0,0-.488-1.184,1.648,1.648,0,0,0-1.2-.476,1.619,1.619,0,0,0-1.172.476A1.587,1.587,0,0,0,562.109,15.358ZM571.826,48h1.733V31.887a9.7,9.7,0,0,1,.793-3.967,6.766,6.766,0,0,1,2.356-2.881,6.637,6.637,0,0,1,3.882-1.086,6.837,6.837,0,0,1,3.467.842,5.664,5.664,0,0,1,2.271,2.466,8.862,8.862,0,0,1,.806,3.967V48h1.709V31.447a8.371,8.371,0,0,1,.806-3.613,6.938,6.938,0,0,1,2.38-2.8,6.65,6.65,0,0,1,3.87-1.086,7.05,7.05,0,0,1,3.369.781,5.545,5.545,0,0,1,2.307,2.368,8.486,8.486,0,0,1,.842,4V48h1.733V30.642q0-4.126-2.307-6.213a8.316,8.316,0,0,0-5.8-2.087,7.982,7.982,0,0,0-4.089.952,7.62,7.62,0,0,0-3.577,4.468h-.1a6.993,6.993,0,0,0-1.245-2.637,6.78,6.78,0,0,0-2.478-2.014,8.423,8.423,0,0,0-3.772-.769,7.751,7.751,0,0,0-3.821.83,6.59,6.59,0,0,0-2.258,1.965,7.37,7.37,0,0,0-1.05,2.063h-.1V22.78h-1.733Zm40.015,0h1.733V22.78h-1.733Zm-.806-32.642a1.627,1.627,0,0,0,.488,1.2,1.6,1.6,0,0,0,1.172.488,1.667,1.667,0,0,0,1.685-1.685,1.587,1.587,0,0,0-.488-1.184,1.648,1.648,0,0,0-1.2-.476,1.619,1.619,0,0,0-1.172.476A1.587,1.587,0,0,0,611.035,15.358Zm8.838,13.721a5.458,5.458,0,0,0,1,3.394,7,7,0,0,0,2.832,2.124,28.171,28.171,0,0,0,4.3,1.44q1.855.439,3.564,1.013a7.466,7.466,0,0,1,2.8,1.6,3.675,3.675,0,0,1,1.086,2.808,4.524,4.524,0,0,1-1.025,3.052,6.145,6.145,0,0,1-2.686,1.782,10.862,10.862,0,0,1-3.638.586,9.184,9.184,0,0,1-4.419-.891,5.542,5.542,0,0,1-2.283-2.124,5.048,5.048,0,0,1-.7-2.258H618.97a6.3,6.3,0,0,0,.879,3.052,7.036,7.036,0,0,0,2.869,2.686,11.111,11.111,0,0,0,5.359,1.1,13.031,13.031,0,0,0,4.517-.769,7.513,7.513,0,0,0,3.369-2.356,6.246,6.246,0,0,0,1.27-4.028,5.044,5.044,0,0,0-1.208-3.6,7.987,7.987,0,0,0-3.186-1.99,44.958,44.958,0,0,0-4.346-1.294q-1.636-.439-2.905-.9a9.172,9.172,0,0,1-2.136-1.074,4.33,4.33,0,0,1-1.331-1.453,4.116,4.116,0,0,1-.464-2.014,4.188,4.188,0,0,1,1.953-3.772,8.383,8.383,0,0,1,4.639-1.257,7.988,7.988,0,0,1,4.041.867,5.338,5.338,0,0,1,2.1,2.039,4.573,4.573,0,0,1,.623,2.1h1.709a6.178,6.178,0,0,0-.818-2.881,6.816,6.816,0,0,0-2.661-2.625,9.815,9.815,0,0,0-4.993-1.086,11.139,11.139,0,0,0-4.285.781,6.843,6.843,0,0,0-2.991,2.283A6.052,6.052,0,0,0,619.873,29.079Zm31.934,19.36a11.009,11.009,0,0,0,3.955-.647,8.752,8.752,0,0,0,2.8-1.66,7.663,7.663,0,0,0,1.7-2.161,5.7,5.7,0,0,0,.659-2.173h-1.758a4.834,4.834,0,0,1-.952,2.258,6.544,6.544,0,0,1-2.4,1.965,8.733,8.733,0,0,1-3.992.806,7.659,7.659,0,0,1-6.055-2.551q-2.246-2.551-2.246-7.336V35.476h17.773V34.157a15.33,15.33,0,0,0-1.233-6.531,8.882,8.882,0,0,0-3.43-3.955,10.4,10.4,0,0,0-10.181,0,8.882,8.882,0,0,0-3.43,3.955,15.33,15.33,0,0,0-1.233,6.531v2.832a14.455,14.455,0,0,0,1.208,6.2,8.768,8.768,0,0,0,3.455,3.906A10.278,10.278,0,0,0,651.807,48.439Zm-8.3-14.453V33.84a12.935,12.935,0,0,1,1-5.359,7.317,7.317,0,0,1,7.007-4.529,7.708,7.708,0,0,1,4.236,1.16,7.5,7.5,0,0,1,2.808,3.369,13.075,13.075,0,0,1,.989,5.359v.146ZM13.721,92.341a10.65,10.65,0,0,0-5.2,1.27,9.181,9.181,0,0,0-3.674,3.735,12.537,12.537,0,0,0-1.355,6.1v3.979A12.319,12.319,0,0,0,4.858,113.5a9.115,9.115,0,0,0,3.687,3.7,10.766,10.766,0,0,0,5.176,1.245,10.781,10.781,0,0,0,5.164-1.233,9.21,9.21,0,0,0,3.7-3.687,12.2,12.2,0,0,0,1.392-6.091v-3.979a12.212,12.212,0,0,0-1.392-6.079,9.5,9.5,0,0,0-3.711-3.748A10.47,10.47,0,0,0,13.721,92.341Zm0,1.611a8.5,8.5,0,0,1,4.321,1.111,7.811,7.811,0,0,1,3.052,3.284,11.549,11.549,0,0,1,1.123,5.347v3.491a11.44,11.44,0,0,1-1.123,5.359,7.64,7.64,0,0,1-3.04,3.21,8.66,8.66,0,0,1-4.309,1.074,8.73,8.73,0,0,1-4.382-1.086,7.569,7.569,0,0,1-3.015-3.223,11.593,11.593,0,0,1-1.1-5.334v-3.491A11.715,11.715,0,0,1,6.36,98.322,7.656,7.656,0,0,1,9.4,95.051,8.575,8.575,0,0,1,13.721,93.952ZM48.633,92.78H46.9v15.112a10.142,10.142,0,0,1-.94,4.272,8.233,8.233,0,0,1-2.8,3.357,7.732,7.732,0,0,1-4.565,1.306,7.552,7.552,0,0,1-3.7-.867,5.961,5.961,0,0,1-2.429-2.466,7.947,7.947,0,0,1-.854-3.8V92.78H29.883v17.188a8.992,8.992,0,0,0,1.147,4.773,7.133,7.133,0,0,0,3.088,2.783,9.974,9.974,0,0,0,4.309.916,9.326,9.326,0,0,0,4.2-.854,8.193,8.193,0,0,0,4.15-4.614H46.9V118h1.733Zm8.813,0H52.49v1.514h4.956V112.36a8.612,8.612,0,0,0,.574,3.442,3.477,3.477,0,0,0,1.953,1.855,10.429,10.429,0,0,0,3.821.562q.562,0,1.465-.061t1.392-.134v-1.538q-.439.024-1.318.085t-1.416.061a5.618,5.618,0,0,1-3.687-.928,4.253,4.253,0,0,1-1.05-3.3V94.294h7.1V92.78h-7.1v-6.1H57.446Zm23.047,25.659a9.911,9.911,0,0,0,4.736-1.172,8.818,8.818,0,0,0,3.54-3.54,11.784,11.784,0,0,0,1.343-5.884v-4.932a11.991,11.991,0,0,0-1.233-5.627,9.028,9.028,0,0,0-3.394-3.65,10.295,10.295,0,0,0-8.557-.659,8.455,8.455,0,0,0-2.5,1.55,8.364,8.364,0,0,0-1.538,1.843,7.093,7.093,0,0,0-.72,1.514h-.1v-5.1H70.361v33.3h1.733V113.02h.122a8.4,8.4,0,0,0,1.294,2.295,8.06,8.06,0,0,0,2.661,2.2A8.991,8.991,0,0,0,80.493,118.439Zm-.073-1.611a7.888,7.888,0,0,1-4.395-1.221,8.117,8.117,0,0,1-2.905-3.32,10.483,10.483,0,0,1-1.025-4.663v-4.468a10.749,10.749,0,0,1,.952-4.492,8.222,8.222,0,0,1,2.82-3.406,7.762,7.762,0,0,1,11.426,2.954,11.13,11.13,0,0,1,1.062,5.09v4.1a11.2,11.2,0,0,1-1.123,5.334,7.431,7.431,0,0,1-2.93,3.088A7.883,7.883,0,0,1,80.42,116.828ZM114.844,92.78H113.11v15.112a10.142,10.142,0,0,1-.94,4.272,8.233,8.233,0,0,1-2.8,3.357,7.732,7.732,0,0,1-4.565,1.306,7.552,7.552,0,0,1-3.7-.867,5.961,5.961,0,0,1-2.429-2.466,7.947,7.947,0,0,1-.854-3.8V92.78H96.094v17.188a8.992,8.992,0,0,0,1.147,4.773,7.133,7.133,0,0,0,3.088,2.783,9.974,9.974,0,0,0,4.309.916,9.326,9.326,0,0,0,4.2-.854,8.193,8.193,0,0,0,4.15-4.614h.122V118h1.733Zm8.813,0H118.7v1.514h4.956V112.36a8.612,8.612,0,0,0,.574,3.442,3.477,3.477,0,0,0,1.953,1.855,10.429,10.429,0,0,0,3.821.562q.562,0,1.465-.061t1.392-.134v-1.538q-.439.024-1.318.085t-1.416.061a5.618,5.618,0,0,1-3.687-.928,4.253,4.253,0,0,1-1.05-3.3V94.294h7.1V92.78h-7.1v-6.1h-1.733Zm51.147,0h-1.855l-5.933,22.705h-.122L159.644,92.78h-1.782l-7.2,22.705h-.122L144.6,92.78h-1.929L149.683,118h1.782l7.251-22.754h.1L166.089,118h1.782ZM179.492,118h1.733V92.78h-1.733Zm-.806-32.642a1.627,1.627,0,0,0,.488,1.2,1.6,1.6,0,0,0,1.172.488,1.667,1.667,0,0,0,1.685-1.685,1.587,1.587,0,0,0-.488-1.184,1.648,1.648,0,0,0-1.2-.476,1.619,1.619,0,0,0-1.172.476A1.587,1.587,0,0,0,178.687,85.358Zm11.157,7.422h-4.956v1.514h4.956V112.36a8.612,8.612,0,0,0,.574,3.442,3.477,3.477,0,0,0,1.953,1.855,10.429,10.429,0,0,0,3.821.562q.562,0,1.465-.061t1.392-.134v-1.538q-.439.024-1.318.085t-1.416.061a5.618,5.618,0,0,1-3.687-.928,4.253,4.253,0,0,1-1.05-3.3V94.294h7.1V92.78h-7.1v-6.1h-1.733ZM202.856,118h1.733V102.839a10.2,10.2,0,0,1,.928-4.3,8.038,8.038,0,0,1,2.771-3.308,7.738,7.738,0,0,1,4.529-1.282,7.2,7.2,0,0,1,3.894,1,6.435,6.435,0,0,1,2.429,2.734,8.932,8.932,0,0,1,.83,3.906V118H221.7V101.276a8.224,8.224,0,0,0-8.667-8.936,9.4,9.4,0,0,0-4.211.854,8.019,8.019,0,0,0-2.734,2.112,7.584,7.584,0,0,0-1.4,2.551h-.1V82.966h-1.733Zm38.013,0V84.821h-1.733V118Zm17.554,0V86.433h11.3V84.821h-24.39v1.611h11.328V118Zm24.292-18.921a5.457,5.457,0,0,0,1,3.394,7,7,0,0,0,2.832,2.124,28.17,28.17,0,0,0,4.3,1.44q1.855.439,3.564,1.013a7.466,7.466,0,0,1,2.8,1.6,3.675,3.675,0,0,1,1.086,2.808,4.524,4.524,0,0,1-1.025,3.052,6.145,6.145,0,0,1-2.686,1.782,10.862,10.862,0,0,1-3.638.586,9.184,9.184,0,0,1-4.419-.891,5.542,5.542,0,0,1-2.283-2.124,5.047,5.047,0,0,1-.7-2.258h-1.733a6.3,6.3,0,0,0,.879,3.052,7.035,7.035,0,0,0,2.869,2.686,11.111,11.111,0,0,0,5.359,1.1,13.031,13.031,0,0,0,4.517-.769,7.513,7.513,0,0,0,3.369-2.356,6.246,6.246,0,0,0,1.27-4.028,5.044,5.044,0,0,0-1.208-3.6,7.987,7.987,0,0,0-3.186-1.99,44.96,44.96,0,0,0-4.346-1.294q-1.636-.439-2.905-.9a9.172,9.172,0,0,1-2.136-1.074,4.33,4.33,0,0,1-1.331-1.453,4.116,4.116,0,0,1-.464-2.014,4.188,4.188,0,0,1,1.953-3.772,8.383,8.383,0,0,1,4.639-1.257,7.988,7.988,0,0,1,4.041.867,5.337,5.337,0,0,1,2.1,2.039,4.573,4.573,0,0,1,.623,2.1h1.709a6.177,6.177,0,0,0-.818-2.881,6.816,6.816,0,0,0-2.661-2.625,9.815,9.815,0,0,0-4.993-1.086,11.139,11.139,0,0,0-4.285.781,6.843,6.843,0,0,0-2.991,2.283A6.052,6.052,0,0,0,282.715,99.079Zm41.7-6.3h-1.733v15.112a10.142,10.142,0,0,1-.94,4.272,8.233,8.233,0,0,1-2.8,3.357,7.732,7.732,0,0,1-4.565,1.306,7.552,7.552,0,0,1-3.7-.867,5.961,5.961,0,0,1-2.429-2.466,7.947,7.947,0,0,1-.854-3.8V92.78h-1.733v17.188a8.992,8.992,0,0,0,1.147,4.773,7.133,7.133,0,0,0,3.088,2.783,9.974,9.974,0,0,0,4.309.916,9.326,9.326,0,0,0,4.2-.854,8.193,8.193,0,0,0,4.15-4.614h.122V118h1.733Zm17.5,25.659a9.911,9.911,0,0,0,4.736-1.172,8.818,8.818,0,0,0,3.54-3.54,11.784,11.784,0,0,0,1.343-5.884v-4.932a11.991,11.991,0,0,0-1.233-5.627,9.028,9.028,0,0,0-3.394-3.65,10.295,10.295,0,0,0-8.557-.659,8.455,8.455,0,0,0-2.5,1.55,8.364,8.364,0,0,0-1.538,1.843,7.093,7.093,0,0,0-.72,1.514h-.1v-5.1h-1.709v33.3h1.733V113.02h.122a8.4,8.4,0,0,0,1.294,2.295,8.06,8.06,0,0,0,2.661,2.2A8.991,8.991,0,0,0,341.919,118.439Zm-.073-1.611a7.888,7.888,0,0,1-4.395-1.221,8.117,8.117,0,0,1-2.905-3.32,10.483,10.483,0,0,1-1.025-4.663v-4.468a10.749,10.749,0,0,1,.952-4.492,8.222,8.222,0,0,1,2.82-3.406,7.762,7.762,0,0,1,11.426,2.954,11.13,11.13,0,0,1,1.062,5.09v4.1a11.2,11.2,0,0,1-1.123,5.334,7.431,7.431,0,0,1-2.93,3.088A7.883,7.883,0,0,1,341.846,116.828Zm26.05,1.611a9.911,9.911,0,0,0,4.736-1.172,8.818,8.818,0,0,0,3.54-3.54,11.784,11.784,0,0,0,1.343-5.884v-4.932a11.991,11.991,0,0,0-1.233-5.627,9.028,9.028,0,0,0-3.394-3.65,10.295,10.295,0,0,0-8.557-.659,8.455,8.455,0,0,0-2.5,1.55,8.364,8.364,0,0,0-1.538,1.843,7.093,7.093,0,0,0-.72,1.514h-.1v-5.1h-1.709v33.3H359.5V113.02h.122a8.4,8.4,0,0,0,1.294,2.295,8.06,8.06,0,0,0,2.661,2.2A8.991,8.991,0,0,0,367.9,118.439Zm-.073-1.611a7.888,7.888,0,0,1-4.395-1.221,8.117,8.117,0,0,1-2.905-3.32,10.483,10.483,0,0,1-1.025-4.663v-4.468a10.749,10.749,0,0,1,.952-4.492,8.222,8.222,0,0,1,2.82-3.406,7.762,7.762,0,0,1,11.426,2.954,11.13,11.13,0,0,1,1.062,5.09v4.1a11.2,11.2,0,0,1-1.123,5.334,7.431,7.431,0,0,1-2.93,3.088A7.883,7.883,0,0,1,367.822,116.828Zm25.024-24.487a10.65,10.65,0,0,0-5.2,1.27,9.181,9.181,0,0,0-3.674,3.735,12.537,12.537,0,0,0-1.355,6.1v3.979a12.318,12.318,0,0,0,1.367,6.067,9.115,9.115,0,0,0,3.687,3.7,11.4,11.4,0,0,0,10.339.012,9.21,9.21,0,0,0,3.7-3.687,12.2,12.2,0,0,0,1.392-6.091v-3.979a12.212,12.212,0,0,0-1.392-6.079A9.5,9.5,0,0,0,398,93.623,10.47,10.47,0,0,0,392.847,92.341Zm0,1.611a8.5,8.5,0,0,1,4.321,1.111,7.811,7.811,0,0,1,3.052,3.284,11.549,11.549,0,0,1,1.123,5.347v3.491a11.44,11.44,0,0,1-1.123,5.359,7.64,7.64,0,0,1-3.04,3.21,9.28,9.28,0,0,1-8.691-.012,7.569,7.569,0,0,1-3.015-3.223,11.593,11.593,0,0,1-1.1-5.334v-3.491a11.715,11.715,0,0,1,1.111-5.371,7.656,7.656,0,0,1,3.04-3.271A8.575,8.575,0,0,1,392.847,93.952ZM409.326,118h1.733V102.473a9.772,9.772,0,0,1,1.038-4.761,6.731,6.731,0,0,1,2.734-2.783,7.65,7.65,0,0,1,3.65-.9,9.574,9.574,0,0,1,1.5.1q.6.1.793.146V92.585q-.244-.049-.781-.122a10.448,10.448,0,0,0-1.367-.073,8.007,8.007,0,0,0-3.943.879,6.968,6.968,0,0,0-2.429,2.136,6.893,6.893,0,0,0-1.1,2.4h-.1V92.78h-1.733Zm18.14-25.22H422.51v1.514h4.956V112.36a8.612,8.612,0,0,0,.574,3.442,3.477,3.477,0,0,0,1.953,1.855,10.429,10.429,0,0,0,3.821.562q.562,0,1.465-.061t1.392-.134v-1.538q-.439.024-1.318.085t-1.416.061a5.618,5.618,0,0,1-3.687-.928,4.253,4.253,0,0,1-1.05-3.3V94.294h7.1V92.78h-7.1v-6.1h-1.733ZM451,118h1.733V94.294h7.227V92.78h-7.227v-3.3a5,5,0,0,1,1.1-3.662,5.212,5.212,0,0,1,3.711-1.074q.708,0,1.514.049a11.628,11.628,0,0,1,1.221.122V83.405a6.942,6.942,0,0,0-1.27-.183q-.83-.061-1.538-.061-3.369,0-4.919,1.5T451,89.436V92.78h-4.443v1.514H451Zm12.769,0H465.5V102.473a9.772,9.772,0,0,1,1.038-4.761,6.731,6.731,0,0,1,2.734-2.783,7.65,7.65,0,0,1,3.65-.9,9.574,9.574,0,0,1,1.5.1q.6.1.793.146V92.585q-.244-.049-.781-.122a10.448,10.448,0,0,0-1.367-.073,8.007,8.007,0,0,0-3.943.879A6.968,6.968,0,0,0,466.7,95.4a6.893,6.893,0,0,0-1.1,2.4h-.1V92.78H463.77Zm24.316-25.659a10.65,10.65,0,0,0-5.2,1.27,9.181,9.181,0,0,0-3.674,3.735,12.537,12.537,0,0,0-1.355,6.1v3.979a12.318,12.318,0,0,0,1.367,6.067,9.115,9.115,0,0,0,3.687,3.7,11.4,11.4,0,0,0,10.339.012,9.21,9.21,0,0,0,3.7-3.687,12.2,12.2,0,0,0,1.392-6.091v-3.979a12.212,12.212,0,0,0-1.392-6.079,9.5,9.5,0,0,0-3.711-3.748A10.47,10.47,0,0,0,488.086,92.341Zm0,1.611a8.5,8.5,0,0,1,4.321,1.111,7.811,7.811,0,0,1,3.052,3.284,11.549,11.549,0,0,1,1.123,5.347v3.491a11.44,11.44,0,0,1-1.123,5.359,7.64,7.64,0,0,1-3.04,3.21,9.28,9.28,0,0,1-8.691-.012,7.569,7.569,0,0,1-3.015-3.223,11.593,11.593,0,0,1-1.1-5.334v-3.491a11.715,11.715,0,0,1,1.111-5.371,7.656,7.656,0,0,1,3.04-3.271A8.575,8.575,0,0,1,488.086,93.952ZM504.492,118h1.733V101.887a9.7,9.7,0,0,1,.793-3.967,6.766,6.766,0,0,1,2.356-2.881,6.637,6.637,0,0,1,3.882-1.086,6.837,6.837,0,0,1,3.467.842,5.664,5.664,0,0,1,2.271,2.466,8.862,8.862,0,0,1,.806,3.967V118h1.709V101.447a8.371,8.371,0,0,1,.806-3.613,6.938,6.938,0,0,1,2.38-2.8,6.65,6.65,0,0,1,3.87-1.086,7.05,7.05,0,0,1,3.369.781,5.545,5.545,0,0,1,2.307,2.368,8.486,8.486,0,0,1,.842,4V118h1.733V100.642q0-4.126-2.307-6.213a8.316,8.316,0,0,0-5.8-2.087,7.982,7.982,0,0,0-4.089.952,7.62,7.62,0,0,0-3.577,4.468h-.1a6.993,6.993,0,0,0-1.245-2.637,6.78,6.78,0,0,0-2.478-2.014,8.423,8.423,0,0,0-3.772-.769,7.751,7.751,0,0,0-3.821.83,6.59,6.59,0,0,0-2.258,1.965,7.37,7.37,0,0,0-1.05,2.063h-.1V92.78h-1.733Zm55.518.439a9.345,9.345,0,0,0,4.2-.842,8.41,8.41,0,0,0,2.637-1.941,6.708,6.708,0,0,0,1.245-1.88h.1V118H569.9V99.909a7.665,7.665,0,0,0-1.074-4.2,6.615,6.615,0,0,0-2.979-2.527,10.9,10.9,0,0,0-4.443-.842,12.009,12.009,0,0,0-3.6.488,8.052,8.052,0,0,0-2.612,1.331,6.25,6.25,0,0,0-1.636,1.892,5.2,5.2,0,0,0-.647,2.173h1.709a4.626,4.626,0,0,1,.842-1.892,5.425,5.425,0,0,1,2.124-1.685,8.537,8.537,0,0,1,3.723-.7,7.769,7.769,0,0,1,4.956,1.5,5.708,5.708,0,0,1,1.9,4.773v3.687H560.3q-4.224,0-6.372,1.953a6.516,6.516,0,0,0-2.148,5.054,6.965,6.965,0,0,0,2.283,5.505A8.654,8.654,0,0,0,560.01,118.439Zm.171-1.611a6.949,6.949,0,0,1-4.724-1.6,5.442,5.442,0,0,1-1.843-4.333A5.128,5.128,0,0,1,555.225,107q1.611-1.526,5.1-1.526h7.837v4a6.828,6.828,0,0,1-1.1,3.857,7.468,7.468,0,0,1-2.905,2.576A8.676,8.676,0,0,1,560.181,116.828ZM3.735,169.079a5.458,5.458,0,0,0,1,3.394A7,7,0,0,0,7.568,174.6a28.17,28.17,0,0,0,4.3,1.44q1.855.439,3.564,1.013a7.466,7.466,0,0,1,2.8,1.6,3.675,3.675,0,0,1,1.086,2.808,4.524,4.524,0,0,1-1.025,3.052,6.145,6.145,0,0,1-2.686,1.782,10.862,10.862,0,0,1-3.638.586,9.184,9.184,0,0,1-4.419-.891,5.542,5.542,0,0,1-2.283-2.124,5.048,5.048,0,0,1-.7-2.258H2.832a6.3,6.3,0,0,0,.879,3.052,7.035,7.035,0,0,0,2.869,2.686,11.111,11.111,0,0,0,5.359,1.1,13.031,13.031,0,0,0,4.517-.769,7.513,7.513,0,0,0,3.369-2.356,6.246,6.246,0,0,0,1.27-4.028,5.045,5.045,0,0,0-1.208-3.6A7.987,7.987,0,0,0,16.7,175.7a44.961,44.961,0,0,0-4.346-1.294q-1.636-.439-2.905-.9a9.172,9.172,0,0,1-2.136-1.074,4.33,4.33,0,0,1-1.331-1.453,4.116,4.116,0,0,1-.464-2.014,4.188,4.188,0,0,1,1.953-3.772,8.383,8.383,0,0,1,4.639-1.257,7.988,7.988,0,0,1,4.041.867,5.337,5.337,0,0,1,2.1,2.039,4.573,4.573,0,0,1,.623,2.1h1.709a6.178,6.178,0,0,0-.818-2.881,6.816,6.816,0,0,0-2.661-2.625,9.815,9.815,0,0,0-4.993-1.086,11.139,11.139,0,0,0-4.285.781A6.843,6.843,0,0,0,4.834,165.4,6.052,6.052,0,0,0,3.735,169.079ZM27.441,188h1.733V162.78H27.441Zm-.806-32.642a1.627,1.627,0,0,0,.488,1.2,1.6,1.6,0,0,0,1.172.488,1.667,1.667,0,0,0,1.685-1.685,1.587,1.587,0,0,0-.488-1.184,1.648,1.648,0,0,0-1.2-.476,1.619,1.619,0,0,0-1.172.476A1.587,1.587,0,0,0,26.636,155.358ZM36.353,188h1.733V172.839a10.316,10.316,0,0,1,.916-4.3,7.981,7.981,0,0,1,2.747-3.308,7.725,7.725,0,0,1,4.541-1.282,7.072,7.072,0,0,1,3.87,1,6.406,6.406,0,0,1,2.393,2.734,9.044,9.044,0,0,1,.818,3.906V188H55.1V171.276q0-4.346-2.441-6.641a8.694,8.694,0,0,0-6.2-2.295,9.265,9.265,0,0,0-4.175.854,7.991,7.991,0,0,0-2.71,2.1,7.506,7.506,0,0,0-1.392,2.563h-.1V162.78H36.353ZM71,195.153a9.225,9.225,0,0,1-4.016-.781,6.33,6.33,0,0,1-2.454-1.929,4.774,4.774,0,0,1-.952-2.271H61.816a6.052,6.052,0,0,0,1.062,3.027,7.518,7.518,0,0,0,2.979,2.527,11.261,11.261,0,0,0,5.115,1.013,12.9,12.9,0,0,0,4.114-.61,8.661,8.661,0,0,0,3.1-1.77,7.494,7.494,0,0,0,1.941-2.8,9.72,9.72,0,0,0,.659-3.662V162.78H79.1v5h-.122a7.339,7.339,0,0,0-1.257-2.271,8.457,8.457,0,0,0-2.673-2.222,8.8,8.8,0,0,0-4.321-.952,10.005,10.005,0,0,0-4.736,1.172,8.969,8.969,0,0,0-3.589,3.516,11.53,11.53,0,0,0-1.367,5.884v3.711a11.65,11.65,0,0,0,1.27,5.6,9.139,9.139,0,0,0,3.455,3.638,9.54,9.54,0,0,0,4.919,1.282,9.224,9.224,0,0,0,3.6-.635,8.145,8.145,0,0,0,2.466-1.55,8.655,8.655,0,0,0,1.5-1.819,7.186,7.186,0,0,0,.708-1.465h.122v6.274a6.842,6.842,0,0,1-2.1,5.225A8.393,8.393,0,0,1,71,195.153Zm-.171-31.2a7.7,7.7,0,0,1,4.382,1.233,8.231,8.231,0,0,1,2.856,3.32,10.51,10.51,0,0,1,1.013,4.651v3.3a10.415,10.415,0,0,1-.952,4.395,8.361,8.361,0,0,1-2.783,3.381,7.535,7.535,0,0,1-4.492,1.306,7.858,7.858,0,0,1-4.065-1.086,7.639,7.639,0,0,1-2.917-3.162,10.83,10.83,0,0,1-1.074-5.029v-2.905a10.983,10.983,0,0,1,1.135-5.286,7.515,7.515,0,0,1,2.979-3.1A8.013,8.013,0,0,1,70.825,163.952ZM89.111,188h1.733V152.966H89.111Zm18.335.439a11.009,11.009,0,0,0,3.955-.647,8.752,8.752,0,0,0,2.8-1.66,7.662,7.662,0,0,0,1.7-2.161,5.7,5.7,0,0,0,.659-2.173h-1.758a4.835,4.835,0,0,1-.952,2.258,6.544,6.544,0,0,1-2.4,1.965,8.733,8.733,0,0,1-3.992.806,7.659,7.659,0,0,1-6.055-2.551q-2.246-2.551-2.246-7.336v-1.465h17.773v-1.318a15.331,15.331,0,0,0-1.233-6.531,8.882,8.882,0,0,0-3.43-3.955,10.4,10.4,0,0,0-10.181,0,8.882,8.882,0,0,0-3.43,3.955,15.331,15.331,0,0,0-1.233,6.531v2.832a14.455,14.455,0,0,0,1.208,6.2,8.768,8.768,0,0,0,3.455,3.906A10.278,10.278,0,0,0,107.446,188.439Zm-8.3-14.453v-.146a12.935,12.935,0,0,1,1-5.359,7.317,7.317,0,0,1,7.007-4.529,7.708,7.708,0,0,1,4.236,1.16,7.5,7.5,0,0,1,2.808,3.369,13.075,13.075,0,0,1,.989,5.359v.146Zm32.324-4.907a5.458,5.458,0,0,0,1,3.394A7,7,0,0,0,135.3,174.6a28.17,28.17,0,0,0,4.3,1.44q1.855.439,3.564,1.013a7.466,7.466,0,0,1,2.8,1.6,3.675,3.675,0,0,1,1.086,2.808,4.524,4.524,0,0,1-1.025,3.052,6.145,6.145,0,0,1-2.686,1.782,10.862,10.862,0,0,1-3.638.586,9.184,9.184,0,0,1-4.419-.891A5.542,5.542,0,0,1,133,183.862a5.048,5.048,0,0,1-.7-2.258h-1.733a6.3,6.3,0,0,0,.879,3.052,7.035,7.035,0,0,0,2.869,2.686,11.111,11.111,0,0,0,5.359,1.1,13.031,13.031,0,0,0,4.517-.769,7.513,7.513,0,0,0,3.369-2.356,6.246,6.246,0,0,0,1.27-4.028,5.045,5.045,0,0,0-1.208-3.6,7.987,7.987,0,0,0-3.186-1.99,44.961,44.961,0,0,0-4.346-1.294q-1.636-.439-2.905-.9a9.172,9.172,0,0,1-2.136-1.074,4.33,4.33,0,0,1-1.331-1.453,4.116,4.116,0,0,1-.464-2.014,4.188,4.188,0,0,1,1.953-3.772,8.383,8.383,0,0,1,4.639-1.257,7.988,7.988,0,0,1,4.041.867,5.337,5.337,0,0,1,2.1,2.039,4.573,4.573,0,0,1,.623,2.1h1.709a6.178,6.178,0,0,0-.818-2.881,6.816,6.816,0,0,0-2.661-2.625,9.815,9.815,0,0,0-4.993-1.086,11.139,11.139,0,0,0-4.285.781,6.843,6.843,0,0,0-2.991,2.283A6.052,6.052,0,0,0,131.47,169.079Zm32.08-6.738a10.65,10.65,0,0,0-5.2,1.27,9.181,9.181,0,0,0-3.674,3.735,12.537,12.537,0,0,0-1.355,6.1v3.979a12.319,12.319,0,0,0,1.367,6.067,9.115,9.115,0,0,0,3.687,3.7,11.4,11.4,0,0,0,10.339.012,9.21,9.21,0,0,0,3.7-3.687,12.2,12.2,0,0,0,1.392-6.091v-3.979a12.212,12.212,0,0,0-1.392-6.079,9.5,9.5,0,0,0-3.711-3.748A10.47,10.47,0,0,0,163.55,162.341Zm0,1.611a8.5,8.5,0,0,1,4.321,1.111,7.811,7.811,0,0,1,3.052,3.284,11.548,11.548,0,0,1,1.123,5.347v3.491a11.44,11.44,0,0,1-1.123,5.359,7.64,7.64,0,0,1-3.04,3.21,9.28,9.28,0,0,1-8.691-.012,7.569,7.569,0,0,1-3.015-3.223,11.593,11.593,0,0,1-1.1-5.334v-3.491a11.716,11.716,0,0,1,1.111-5.371,7.656,7.656,0,0,1,3.04-3.271A8.575,8.575,0,0,1,163.55,163.952Zm34.912-1.172h-1.733v15.112a10.142,10.142,0,0,1-.94,4.272,8.233,8.233,0,0,1-2.8,3.357,7.732,7.732,0,0,1-4.565,1.306,7.552,7.552,0,0,1-3.7-.867A5.961,5.961,0,0,1,182.3,183.5a7.947,7.947,0,0,1-.854-3.8V162.78h-1.733v17.188a8.992,8.992,0,0,0,1.147,4.773,7.133,7.133,0,0,0,3.088,2.783,9.974,9.974,0,0,0,4.309.916,9.326,9.326,0,0,0,4.2-.854,8.193,8.193,0,0,0,4.15-4.614h.122V188h1.733ZM205.908,188h1.733V172.473a9.772,9.772,0,0,1,1.038-4.761,6.731,6.731,0,0,1,2.734-2.783,7.65,7.65,0,0,1,3.65-.9,9.573,9.573,0,0,1,1.5.1q.6.1.793.146v-1.685q-.244-.049-.781-.122a10.448,10.448,0,0,0-1.367-.073,8.007,8.007,0,0,0-3.943.879,6.968,6.968,0,0,0-2.429,2.136,6.893,6.893,0,0,0-1.1,2.4h-.1V162.78h-1.733ZM220,177.355a13.456,13.456,0,0,0,1.245,6.1,8.579,8.579,0,0,0,3.479,3.723,12.066,12.066,0,0,0,10.449.134,7.678,7.678,0,0,0,2.966-2.808,8.052,8.052,0,0,0,1.123-3.32h-1.685a7.523,7.523,0,0,1-1.05,2.637,6.224,6.224,0,0,1-2.368,2.148,8.532,8.532,0,0,1-4.1.854,7.816,7.816,0,0,1-6.079-2.466q-2.246-2.466-2.246-7.2v-3.589q0-4.663,2.271-7.129a7.631,7.631,0,0,1,5.884-2.466,8.313,8.313,0,0,1,4.041.891,6.826,6.826,0,0,1,2.515,2.271,6.9,6.9,0,0,1,1.086,2.869h1.685a7.357,7.357,0,0,0-1.147-3.564,8.526,8.526,0,0,0-3.113-2.93,11.223,11.223,0,0,0-10.156.085,8.847,8.847,0,0,0-3.516,3.687A12.67,12.67,0,0,0,220,173.254Zm34.277,11.084a11.009,11.009,0,0,0,3.955-.647,8.752,8.752,0,0,0,2.8-1.66,7.662,7.662,0,0,0,1.7-2.161,5.7,5.7,0,0,0,.659-2.173h-1.758a4.835,4.835,0,0,1-.952,2.258,6.544,6.544,0,0,1-2.4,1.965,8.733,8.733,0,0,1-3.992.806,7.659,7.659,0,0,1-6.055-2.551q-2.246-2.551-2.246-7.336v-1.465h17.773v-1.318a15.331,15.331,0,0,0-1.233-6.531,8.882,8.882,0,0,0-3.43-3.955,10.4,10.4,0,0,0-10.181,0,8.882,8.882,0,0,0-3.43,3.955,15.33,15.33,0,0,0-1.233,6.531v2.832a14.455,14.455,0,0,0,1.208,6.2A8.768,8.768,0,0,0,248.9,187.1,10.278,10.278,0,0,0,254.272,188.439Zm-8.3-14.453v-.146a12.935,12.935,0,0,1,1-5.359,7.317,7.317,0,0,1,7.007-4.529,7.708,7.708,0,0,1,4.236,1.16,7.5,7.5,0,0,1,2.808,3.369,13.075,13.075,0,0,1,.989,5.359v.146Z" transform="translate(117 360)" fill="#1f1f1f"/>
  </g>
</svg>
