<?xml version="1.0" encoding="utf-8"?>
<!-- Generator: Adobe Illustrator 19.0.0, SVG Export Plug-In . SVG Version: 6.00 Build 0)  -->
<svg version="1.1" id="layer" xmlns="http://www.w3.org/2000/svg" xmlns:xlink="http://www.w3.org/1999/xlink" x="0px" y="0px"
	 viewBox="-153 -46 652 652" style="enable-background:new -153 -46 652 652;" xml:space="preserve">
<path d="M466.6,339.9c0,2.3-0.7,4.2-2.1,5.7c-1.4,1.6-3.3,2.4-5.9,2.4c-2.2,0-3.9-0.8-5.3-2.5c-1.4-1.7-2-4-2-7.1
	c0-3.1,0.8-5.6,2.3-7.3c1.5-1.8,3.4-2.7,5.8-2.7c2.2,0,4,0.7,5.3,2.2c1.3,1.4,2,3.2,2,5.2V339.9z M468.6,349.3v-32.8h-2v14.2h-0.1
	c-1.4-2.7-3.8-4.1-7.1-4.1c-3,0-5.4,1.1-7.3,3.3c-1.9,2.2-2.8,5.1-2.8,8.7c0,3.5,0.9,6.3,2.6,8.2c1.7,2,3.9,3,6.7,3
	c1.8,0,3.4-0.4,4.8-1.2c1.4-0.8,2.5-1.9,3.2-3.3h0.1v4H468.6z M444.2,349.3v-13.5c0-3-0.6-5.2-1.9-6.8c-1.3-1.6-3.1-2.4-5.5-2.4
	c-3.4,0-6,1.5-7.6,4.6h-0.1v-4h-2v22.2h2v-12.7c0-2.3,0.7-4.2,2.1-5.8c1.4-1.6,3.1-2.3,5.3-2.3c3.8,0,5.8,2.7,5.8,8v12.9H444.2z
	 M418.5,337.3v2.2c0,2.5-0.7,4.5-2.1,6.1c-1.4,1.6-3.2,2.4-5.3,2.4c-1.6,0-2.8-0.4-3.6-1.3c-0.9-0.9-1.3-1.9-1.3-3.2
	c0-1.7,0.5-2.9,1.4-3.6c0.9-0.7,2.6-1.3,4.9-1.6L418.5,337.3z M420.5,349.3v-14.4c0-2.7-0.6-4.8-1.9-6.2s-3-2.1-5.3-2.1
	c-1.2,0-2.6,0.2-4,0.7s-2.5,1-3.3,1.7v2.4c2.3-2,4.7-2.9,7.1-2.9c3.6,0,5.4,2.4,5.4,7.1l-6.8,1c-5.1,0.8-7.7,3.1-7.7,7
	c0,1.8,0.6,3.3,1.8,4.5c1.2,1.2,2.9,1.8,5,1.8c1.6,0,3.1-0.4,4.5-1.4c1.3-0.9,2.4-2.1,3.1-3.6h0.1v4.4H420.5z M398.2,316.5h-2v32.8
	h2V316.5z M392,327.1c-0.6-0.3-1.4-0.4-2.2-0.4c-1.4,0-2.7,0.5-3.8,1.4c-1.1,0.9-1.9,2.3-2.4,3.9h-0.1v-4.9h-1.9v22.2h1.9v-10.4
	c0-3.3,0.6-5.9,1.8-7.7c1.2-1.8,2.6-2.7,4.4-2.7c0.9,0,1.7,0.2,2.3,0.7V327.1z M359.8,336.5c0.3-2.6,1.2-4.6,2.5-6s3.1-2.1,5.2-2.1
	c2,0,3.6,0.7,4.7,2.1c1.1,1.4,1.8,3.4,1.8,6H359.8z M376.1,338.3v-0.9c0-3.3-0.7-6-2.2-7.9c-1.5-1.9-3.6-2.9-6.3-2.9
	c-2.9,0-5.3,1.1-7.2,3.3c-1.8,2.2-2.8,4.9-2.8,8.2c0,3.7,0.9,6.6,2.6,8.7c1.8,2,4.1,3.1,6.9,3.1c2.8,0,5.4-0.8,7.7-2.4v-2.1
	c-2.4,1.8-4.8,2.7-7.3,2.7c-2.5,0-4.4-0.9-5.8-2.6c-1.4-1.7-2.1-4.1-2.1-7.1H376.1z M354.4,327.6v-0.5h-17v1.8H351l-14.7,19.6v0.8
	h17.5v-1.8h-14.3L354.4,327.6z M334.2,347.1c-1,0.5-1.8,0.8-2.7,0.8c-1.2,0-2-0.3-2.5-1s-0.7-1.8-0.7-3.3v-14.6h5.8v-1.8h-5.8v-6.4
	c-0.3,0.1-0.6,0.2-1,0.3c-0.3,0.1-0.7,0.2-1,0.3v5.8h-4v1.8h4v14.9c0,3.9,1.6,5.9,4.9,5.9c0.9,0,1.9-0.2,2.9-0.7V347.1z
	 M318.4,327.1h-2v22.2h2V327.1z M318.6,321c0.3-0.3,0.5-0.7,0.5-1.2c0-0.5-0.2-0.9-0.5-1.2c-0.3-0.3-0.7-0.4-1.2-0.4
	c-0.4,0-0.8,0.1-1.1,0.4c-0.3,0.3-0.5,0.7-0.5,1.2c0,0.5,0.2,0.9,0.5,1.2c0.3,0.3,0.7,0.5,1.1,0.5
	C317.8,321.5,318.2,321.4,318.6,321 M312.1,327.1H310l-5.3,17.7c-0.2,0.8-0.4,1.4-0.4,1.9h-0.2c-0.1-0.8-0.2-1.4-0.3-1.9l-5-17.7
	h-1.4l-5.6,17.7c-0.2,0.8-0.4,1.4-0.4,1.9h-0.2c-0.1-0.8-0.2-1.4-0.3-1.9l-5.1-17.7h-2.2l6.7,22.2h1.9l5.4-16.7
	c0.3-0.9,0.4-1.5,0.4-1.8h0.1c0.1,0.8,0.2,1.4,0.3,1.9l4.8,16.7h1.9L312.1,327.1z M267,349.3c1.4,0.3,2.6,0.5,3.7,0.5
	c3,0,5.3-0.7,7-2.2c1.7-1.5,2.5-3.4,2.5-5.8c0-1.7-0.5-3.1-1.4-4.4c-1-1.3-2.9-2.7-5.8-4.4c-2.8-1.6-4.6-2.9-5.5-3.8
	s-1.3-2.2-1.3-3.8c0-1.6,0.6-3,1.8-4.1c1.2-1.1,2.9-1.6,5-1.6c2.1,0,4,0.4,5.8,1.2v-2.3c-1.8-0.6-3.7-0.9-5.5-0.9
	c-2.8,0-5.1,0.8-6.8,2.3c-1.7,1.5-2.6,3.4-2.6,5.6c0,1.6,0.4,3,1.3,4.3c0.8,1.2,2.8,2.8,6,4.6c2.8,1.6,4.6,2.9,5.5,3.9
	c0.8,0.9,1.3,2.2,1.3,3.8c0,1.8-0.6,3.2-1.9,4.2s-3.1,1.5-5.5,1.5c-2.3,0-4.5-0.7-6.8-2.1v2.4C264.6,348.6,265.6,349,267,349.3
	 M249.7,316.5c-0.6-0.3-1.4-0.4-2.3-0.4c-1.8,0-3.2,0.6-4.4,1.8c-1.2,1.2-1.8,3-1.8,5.3v3.9h-4v1.8h4v20.3h2v-20.3h5.9v-1.8h-5.9
	v-3.7c0-3.7,1.4-5.5,4.1-5.5c1.1,0,1.9,0.2,2.4,0.6V316.5z M230.3,330.9c1.4,1.7,2.2,4.1,2.2,7.3c0,3.1-0.7,5.5-2.2,7.2
	c-1.4,1.7-3.5,2.6-6.2,2.6c-2.6,0-4.7-0.9-6.2-2.6c-1.5-1.8-2.3-4.1-2.3-7c0-3.1,0.8-5.6,2.3-7.3c1.5-1.8,3.6-2.6,6.2-2.6
	C226.8,328.4,228.8,329.2,230.3,330.9 M231.7,346.6c1.9-2.1,2.8-4.9,2.8-8.4c0-3.7-0.9-6.5-2.7-8.6c-1.8-2.1-4.3-3.1-7.5-3.1
	c-3.2,0-5.8,1-7.8,3.1c-2,2.1-3,5-3,8.6c0,3.4,0.9,6.2,2.8,8.3c1.9,2.1,4.4,3.2,7.7,3.2C227.3,349.8,229.8,348.7,231.7,346.6
	 M181.2,336.5c0.3-2.6,1.2-4.6,2.5-6s3.1-2.1,5.2-2.1c2,0,3.6,0.7,4.7,2.1c1.1,1.4,1.8,3.4,1.8,6H181.2z M197.5,338.3v-0.9
	c0-3.3-0.7-6-2.2-7.9c-1.5-1.9-3.6-2.9-6.3-2.9c-2.9,0-5.3,1.1-7.2,3.3c-1.8,2.2-2.8,4.9-2.8,8.2c0,3.7,0.9,6.6,2.6,8.7
	c1.8,2,4.1,3.1,6.9,3.1c2.8,0,5.4-0.8,7.7-2.4v-2.1c-2.4,1.8-4.8,2.7-7.3,2.7c-2.5,0-4.4-0.9-5.8-2.6c-1.4-1.7-2.1-4.1-2.1-7.1
	H197.5z M176.2,347.1c-1,0.5-1.8,0.8-2.7,0.8c-1.2,0-2-0.3-2.5-1c-0.5-0.7-0.7-1.8-0.7-3.3v-14.6h5.8v-1.8h-5.8v-6.4
	c-0.3,0.1-0.6,0.2-1,0.3c-0.3,0.1-0.7,0.2-1,0.3v5.8h-4v1.8h4v14.9c0,3.9,1.6,5.9,4.9,5.9c0.9,0,1.9-0.2,2.9-0.7V347.1z
	 M160.4,349.3v-22.2h-2v12.6c0,2.5-0.6,4.5-1.9,6.1c-1.3,1.5-2.9,2.3-5,2.3c-2.1,0-3.7-0.7-4.7-2c-1-1.4-1.5-3.5-1.5-6.5v-12.3h-2
	v12.8c0,6.6,2.6,9.9,7.9,9.9c3.2,0,5.6-1.5,7.1-4.6h0.1v4H160.4z M139.4,347.1c-1,0.5-1.8,0.8-2.7,0.8c-1.2,0-2-0.3-2.5-1
	c-0.5-0.7-0.7-1.8-0.7-3.3v-14.6h5.8v-1.8h-5.8v-6.4c-0.3,0.1-0.6,0.2-1,0.3c-0.3,0.1-0.7,0.2-1,0.3v5.8h-4v1.8h4v14.9
	c0,3.9,1.6,5.9,4.9,5.9c0.9,0,1.9-0.2,2.9-0.7V347.1z M123.5,327.1h-2v22.2h2V327.1z M123.7,321c0.3-0.3,0.5-0.7,0.5-1.2
	c0-0.5-0.2-0.9-0.5-1.2c-0.3-0.3-0.7-0.4-1.2-0.4c-0.4,0-0.8,0.1-1.1,0.4c-0.3,0.3-0.5,0.7-0.5,1.2c0,0.5,0.2,0.9,0.5,1.2
	c0.3,0.3,0.7,0.5,1.1,0.5C123,321.5,123.4,321.4,123.7,321 M117.1,347.1c-1,0.5-1.8,0.8-2.7,0.8c-1.2,0-2-0.3-2.5-1
	c-0.5-0.7-0.7-1.8-0.7-3.3v-14.6h5.8v-1.8h-5.8v-6.4c-0.3,0.1-0.7,0.2-1,0.3c-0.3,0.1-0.7,0.2-1,0.3v5.8h-4v1.8h4v14.9
	c0,3.9,1.6,5.9,4.9,5.9c0.9,0,1.9-0.2,2.9-0.7V347.1z M95.4,349.8c2.3,0,4.1-0.6,5.5-1.7c1.3-1.1,2-2.6,2-4.4c0-1.5-0.4-2.7-1.3-3.5
	c-0.9-0.9-2.5-1.8-4.8-2.9c-1.9-0.9-3.2-1.6-3.7-2.3c-0.6-0.7-0.8-1.5-0.8-2.6c0-1.2,0.4-2.2,1.3-3c0.9-0.8,2.1-1.1,3.5-1.1
	c1.8,0,3.5,0.5,5.1,1.6v-2.3c-1.4-0.8-3-1.2-4.9-1.2c-2,0-3.7,0.6-5.1,1.7c-1.4,1.1-2.1,2.6-2.1,4.4c0,1.4,0.4,2.6,1.3,3.6
	c0.9,1,2.3,1.9,4.5,2.9c1.7,0.7,3,1.4,3.7,2.1c0.8,0.7,1.1,1.5,1.1,2.5c0,2.8-1.7,4.3-5.2,4.3c-0.8,0-1.7-0.2-2.8-0.6
	c-1.1-0.4-2-0.9-2.7-1.5v2.4C91.4,349.3,93.2,349.8,95.4,349.8 M84.5,349.3v-13.5c0-3-0.6-5.2-1.9-6.8c-1.3-1.6-3.1-2.4-5.5-2.4
	c-3.4,0-6,1.5-7.6,4.6h-0.1v-4h-2v22.2h2v-12.7c0-2.3,0.7-4.2,2.1-5.8c1.4-1.6,3.1-2.3,5.3-2.3c3.8,0,5.8,2.7,5.8,8v12.9H84.5z
	 M57.8,349.3h2.1v-31h-2.1V349.3z M23.4,336.5c0.3-2.6,1.2-4.6,2.5-6c1.4-1.4,3.1-2.1,5.2-2.1c2,0,3.6,0.7,4.7,2.1
	c1.1,1.4,1.8,3.4,1.8,6H23.4z M39.7,338.3v-0.9c0-3.3-0.7-6-2.2-7.9c-1.5-1.9-3.6-2.9-6.3-2.9c-2.9,0-5.3,1.1-7.2,3.3
	c-1.8,2.2-2.8,4.9-2.8,8.2c0,3.7,0.9,6.6,2.6,8.7c1.8,2,4.1,3.1,6.9,3.1c2.8,0,5.4-0.8,7.7-2.4v-2.1c-2.4,1.8-4.8,2.7-7.3,2.7
	c-2.5,0-4.4-0.9-5.8-2.6c-1.4-1.7-2.1-4.1-2.1-7.1H39.7z M17.5,346.2c-1.6,1.2-3.6,1.8-5.8,1.8c-2.4,0-4.4-0.9-5.9-2.6
	c-1.5-1.7-2.2-4.1-2.2-6.9c0-3,0.8-5.4,2.4-7.3c1.6-1.9,3.7-2.8,6.3-2.8c1.9,0,3.6,0.5,5.2,1.5v-2.3c-1.6-0.7-3.2-1-4.9-1
	c-3.3,0-5.9,1.1-8,3.4c-2.1,2.2-3.1,5.1-3.1,8.6c0,3.3,0.9,6.1,2.8,8.1c1.8,2.1,4.3,3.1,7.3,3.1c2.3,0,4.2-0.5,5.9-1.5V346.2z
	 M-3.5,349.3v-13.5c0-3-0.6-5.2-1.9-6.8c-1.3-1.6-3.1-2.4-5.5-2.4c-3.4,0-6,1.5-7.6,4.6h-0.1v-4h-2v22.2h2v-12.7
	c0-2.3,0.7-4.2,2.1-5.8c1.4-1.6,3.1-2.3,5.3-2.3c3.8,0,5.8,2.7,5.8,8v12.9H-3.5z M-29.2,337.3v2.2c0,2.5-0.7,4.5-2.1,6.1
	c-1.4,1.6-3.2,2.4-5.3,2.4c-1.6,0-2.8-0.4-3.6-1.3c-0.9-0.9-1.3-1.9-1.3-3.2c0-1.7,0.5-2.9,1.4-3.6c0.9-0.7,2.6-1.3,4.9-1.6
	L-29.2,337.3z M-27.2,349.3v-14.4c0-2.7-0.6-4.8-1.9-6.2c-1.2-1.4-3-2.1-5.3-2.1c-1.2,0-2.6,0.2-4,0.7c-1.4,0.5-2.5,1-3.3,1.7v2.4
	c2.3-2,4.7-2.9,7.1-2.9c3.6,0,5.4,2.4,5.4,7.1l-6.8,1c-5.1,0.8-7.7,3.1-7.7,7c0,1.8,0.6,3.3,1.8,4.5c1.2,1.2,2.9,1.8,5,1.8
	c1.6,0,3.1-0.4,4.5-1.4c1.3-0.9,2.4-2.1,3.1-3.6h0.1v4.4H-27.2z M-46.6,327.1c-0.7-0.3-1.4-0.4-2.2-0.4c-1.4,0-2.7,0.5-3.8,1.4
	c-1.1,0.9-1.9,2.3-2.4,3.9h-0.1v-4.9h-1.9v22.2h1.9v-10.4c0-3.3,0.6-5.9,1.8-7.7c1.2-1.8,2.6-2.7,4.4-2.7c0.9,0,1.7,0.2,2.3,0.7
	V327.1z M-64.2,349.3v-22.2h-2v12.6c0,2.5-0.6,4.5-1.9,6.1c-1.3,1.5-2.9,2.3-5,2.3c-2.1,0-3.7-0.7-4.7-2c-1-1.4-1.5-3.5-1.5-6.5
	v-12.3h-2v12.8c0,6.6,2.6,9.9,7.9,9.9c3.2,0,5.6-1.5,7.1-4.6h0.1v4H-64.2z M-93.8,349.8c2.3,0,4.1-0.6,5.5-1.7c1.3-1.1,2-2.6,2-4.4
	c0-1.5-0.4-2.7-1.3-3.5c-0.9-0.9-2.5-1.8-4.8-2.9c-1.9-0.9-3.2-1.6-3.7-2.3c-0.6-0.7-0.8-1.5-0.8-2.6c0-1.2,0.4-2.2,1.3-3
	c0.9-0.8,2.1-1.1,3.5-1.1c1.8,0,3.5,0.5,5.1,1.6v-2.3c-1.4-0.8-3-1.2-4.9-1.2c-2,0-3.7,0.6-5.1,1.7c-1.4,1.1-2.1,2.6-2.1,4.4
	c0,1.4,0.4,2.6,1.3,3.6c0.9,1,2.3,1.9,4.5,2.9c1.7,0.7,3,1.4,3.7,2.1c0.8,0.7,1.1,1.5,1.1,2.5c0,2.8-1.7,4.3-5.2,4.3
	c-0.8,0-1.7-0.2-2.8-0.6c-1.1-0.4-2-0.9-2.7-1.5v2.4C-97.7,349.3-95.9,349.8-93.8,349.8 M-104.7,349.3v-13.5c0-3-0.6-5.2-1.9-6.8
	c-1.3-1.6-3.1-2.4-5.5-2.4c-3.4,0-6,1.5-7.6,4.6h-0.1v-4h-2v22.2h2v-12.7c0-2.3,0.7-4.2,2.1-5.8c1.4-1.6,3.1-2.3,5.3-2.3
	c3.8,0,5.8,2.7,5.8,8v12.9H-104.7z M-131.4,349.3h2.1v-31h-2.1V349.3z"/>
<path d="M191.6,296.4c4.6,0.9,9.5,1.3,14.6,1.3c5,0,9.7-0.5,14.2-1.4c4.5-1,8.4-2.5,11.8-4.7c3.4-2.2,6-5,8-8.6c2-3.5,3-7.9,3-13.1
	c0-3.8-0.6-7.1-1.7-9.9c-1.1-2.8-2.7-5.4-4.9-7.6c-2.1-2.2-4.7-4.2-7.6-5.9c-3-1.8-6.3-3.4-10-5c-2.7-1.1-5.2-2.2-7.3-3.3
	c-2.2-1.1-4-2.1-5.5-3.2c-1.5-1.1-2.7-2.3-3.5-3.5c-0.8-1.2-1.2-2.6-1.2-4.2c0-1.4,0.4-2.7,1.1-3.9c0.7-1.1,1.8-2.1,3.1-3
	c1.3-0.8,3-1.5,4.9-1.9s4.1-0.7,6.5-0.7c1.7,0,3.6,0.1,5.5,0.4c1.9,0.3,3.9,0.7,5.8,1.2c1.9,0.5,3.8,1.2,5.7,2
	c1.8,0.8,3.5,1.8,5.1,2.9V205c-3.2-1.2-6.6-2.1-10.4-2.7c-3.7-0.6-8-0.9-12.9-0.9c-4.9,0-9.6,0.5-14,1.6c-4.4,1.1-8.3,2.7-11.7,5
	c-3.4,2.2-6,5.1-8,8.6c-1.9,3.5-2.9,7.7-2.9,12.5c0,6.2,1.8,11.5,5.4,15.8c3.6,4.4,9,8.1,16.3,11.1c2.9,1.2,5.5,2.3,8,3.4
	c2.5,1.1,4.6,2.3,6.4,3.5c1.8,1.2,3.2,2.5,4.3,4c1,1.4,1.6,3.1,1.6,4.9c0,1.3-0.3,2.6-1,3.7c-0.7,1.1-1.6,2.1-3,3
	c-1.3,0.8-3,1.5-4.9,2c-2,0.5-4.3,0.7-6.9,0.7c-4.5,0-9-0.8-13.4-2.4c-4.4-1.6-8.5-3.9-12.3-7.1v20.8
	C183,294.2,187,295.5,191.6,296.4 M141.8,296.1h21V203h-21V296.1z M99.7,296.1h21V203h-21V296.1z"/>
</svg>
