<svg id="Layer_1" data-name="Layer 1" xmlns="http://www.w3.org/2000/svg" viewBox="0 0 1521.82 174.46"><defs><style>.cls-1{fill:#cc3b2a;}.cls-2{fill:#080808;}.cls-3{fill:#cc3c2b;}.cls-4{fill:#fcfcfc;}.cls-5{fill:#0c0c0c;}</style></defs><path class="cls-1" d="M444.19,109c-1.27,13.26-.47,26.55-.44,39.82,0,4.74-1.22,6-6,5.94-19-.29-38.06-.23-57.09,0-4.05,0-5.43-.95-5.33-5.2.34-13.5.24-27,.3-40.53Z" transform="translate(-80 -109)"/><path class="cls-1" d="M505.12,109c16.59,7.67,23.51,21.92,26.53,38.84.83,4.65.1,7.08-5.84,6.95-19.39-.41-38.79-.34-58.17,0-4.92.08-5.9-1.41-5.79-6,.31-13.25.11-26.52.11-39.78Z" transform="translate(-80 -109)"/><path class="cls-1" d="M356.6,109c0,13.48-.14,27,.09,40.43.07,4-.88,5.36-5.15,5.31-19.82-.23-39.64-.27-59.46,0-5,.07-5.64-2-5-6C290,131.6,296.9,117.12,313.45,109Z" transform="translate(-80 -109)"/><path class="cls-2" d="M1589.86,267.83c.16-4.08-2.31-7.86,0-12.39,1.41-2.76-1.08-6-4.83-6.76-10.46-2.19-12.66-.42-12.66,10.2v1.25c0,2.53-.08,5.06,0,7.57.08,1.28-.81,3.48,1.3,3.56,2.79.11,1.81-2.52,1.61-3.79-1-5.94,2.51-5.91,6.72-5.63s4.36,3.14,4.5,6.19c.07,1.69,0,3.77,2.49,3.33S1589.81,269.06,1589.86,267.83Zm-9.07-9.08c-2.44-.09-5.6,1.23-5.51-3.54.08-4.06,2.48-3.61,5.94-3.47,1.57.26,5.06-1,5.29,3.24S1583.53,258.85,1580.79,258.75Z" transform="translate(-80 -109)"/><path class="cls-2" d="M1600,254.32c-3.58-9.78-13.06-15.87-22.62-14.26-10.65,1.79-17.91,9.92-18.13,20.27a21,21,0,0,0,16.68,20.88c10.12,2,19.86-3.54,23.84-13.31.58-1.42-.06-3.53,2-4.24v-5.07C1599.59,257.89,1600.53,255.74,1600,254.32Zm-19.65,24.53a18,18,0,0,1-18.08-18,17.7,17.7,0,0,1,17.92-18.06,18.09,18.09,0,0,1,18,18.2A18.42,18.42,0,0,1,1580.36,278.85Z" transform="translate(-80 -109)"/><path d="M751.26,227.55c-.12-8.85-3.13-16.53-11.69-21.45,10.12-9.65,14.12-21,13.71-34.13-.19-5.91-.27-11.82-.54-17.71-1.07-22.56-12.19-36-34.15-41a67.75,67.75,0,0,0-14.43-1.85c-45.89-.28-91.78-.32-137.68-.6-4,0-4.34,1.63-4.3,4.85.14,13.52.06,27,.06,40.56,0,39.73.13,79.44-.15,119.15,0,5.47,1.51,6.6,6.63,6.37,9.71-.43,19.47-.51,29.17,0,5.57.31,6.44-1.63,6.36-6.65-.32-18.59-.14-37.18-.11-55.78,0-2.37-.85-5,3.44-5,30.87.29,61.75.25,92.61.62,7.9.1,10.32,3.21,10.33,11.16,0,16.91.16,33.81-.09,50.7-.06,4,1.05,5,4.93,4.87,10.58-.28,21.15-.21,31.73,0,3.13.05,4.4-.54,4.36-4.07C751.25,260.93,751.5,244.24,751.26,227.55ZM711,167.38c-.13,6.71-2.84,9.78-9.49,10-8.24.3-16.49.25-24.73.27-22.42,0-44.85-.14-67.26.12-4.56.05-5.74-1.23-5.46-5.6a165.54,165.54,0,0,0,0-18.37c-.17-3.58.91-4.59,4.53-4.55,15.64.2,31.31.08,46.95.08,14.6,0,29.2,0,43.78,0,9.11,0,11.62,2.67,11.65,11.67C711,163.15,711,165.26,711,167.38Z" transform="translate(-80 -109)"/><path d="M1244.49,196.26c0-26.62.11-53.24-.1-79.86,0-4.49,1.25-5.62,5.67-5.6q78.69.23,157.38,0c3.92,0,5.56.68,5.36,5.12-.39,9.06-.38,18.17,0,27.24.2,4.82-1,6.34-6.12,6.31-37.87-.25-75.73,0-113.6-.29-5.66,0-7.31,1.42-6.79,6.93a100.63,100.63,0,0,1,0,16.47c-.3,4.29,1.29,5.18,5.31,5.16,25.39-.18,50.77.05,76.15-.21,5.06-.05,7.09.91,6.76,6.43a252,252,0,0,0,0,25.34c.18,4.44-1.16,5.68-5.61,5.64-24.75-.21-49.5-.14-74.25-.07-9.52,0-8.11-1.31-8.23,8.52-.06,4.86.32,9.74-.11,14.57-.39,4.5,1.16,5.53,5.54,5.5,34.9-.18,69.8-.1,104.71-.1,4.44,0,8.89.16,13.32-.06,3-.15,4,.87,3.94,3.93-.18,9.5-.34,19,0,28.51.19,4.69-1,6-5.87,6-27.07-.26-54.15-.13-81.23-.13-25.59,0-51.19-.11-76.78.11-4.47,0-5.62-1.21-5.59-5.62C1244.59,249.5,1244.49,222.88,1244.49,196.26Z" transform="translate(-80 -109)"/><path d="M1024.27,196.42c0-26.41.18-52.82-.15-79.22-.07-5.5,1.58-6.45,6.68-6.43,42.3.22,84.61.11,126.91.13,36.28,0,57.69,21,58,57.39.27,36.13,0,72.25.18,108.38,0,4.57-1.72,5.1-5.51,5-10.36-.2-20.73-.32-31.09.05-4.51.16-5.54-1.15-5.52-5.57.2-34.85.11-69.71.11-104.57,0-1.48.05-3,0-4.44-.59-14.43-4.52-18.22-18.92-18.22-27.08,0-54.16.23-81.23-.17-6.36-.09-7.49,1.84-7.45,7.74.27,39.72,0,79.44.28,119.15,0,5.17-1.54,6.24-6.31,6.07-10.14-.35-20.31-.34-30.45,0-4.37.15-5.63-.94-5.59-5.46C1024.39,249.66,1024.27,223,1024.27,196.42Z" transform="translate(-80 -109)"/><path d="M174.9,110.89c29.18,0,58.37.12,87.55-.11,5,0,7.07.75,6.72,6.37a204.42,204.42,0,0,0,0,26c.36,5.6-1.7,6.38-6.71,6.36-44.41-.2-88.81,0-133.22-.24-5.39,0-7.61,1-6.91,6.78.85,7-2.94,16.55,1.48,20.53,3.91,3.51,13.25,1.1,20.19,1.11,32.78,0,65.55.13,98.33-.1,4.94,0,6.59,1.15,6.3,6.24a177.23,177.23,0,0,0,0,24.06c.48,6-1.88,6.73-7.09,6.7-37.43-.21-74.85,0-112.28-.25-5.49,0-7.15,1.15-7,6.88.41,18.15,0,36.32.25,54.48.06,4.46-.68,6.31-5.76,6.1-10.77-.45-21.57-.24-32.35-.08-3.18.05-4.39-.72-4.38-4.18q.15-81.1,0-162.19c0-4.59,2.27-4.45,5.46-4.45Q130.18,110.94,174.9,110.89Z" transform="translate(-80 -109)"/><path d="M852.92,110.89c24.32,0,48.65.11,73-.1,4.45,0,5.77,1.21,5.6,5.65-.34,9.07-.43,18.18,0,27.24.25,5-1.62,5.83-6.13,5.78-20.52-.24-41,.14-61.55-.25-6.29-.12-8.44,1.1-8.37,8,.38,39.51.11,79,.28,118.52,0,4.47-.66,6.25-5.71,6-10.14-.47-20.32-.41-30.45,0-4.77.18-6-1.12-5.94-5.91.21-40.14,0-80.28.24-120.42,0-5-1.22-6.4-6.2-6.18-9.29.43-18.62-.15-27.91.24-4.72.19-5.59-1.58-5.45-5.79.29-9.08.33-18.18,0-27.25-.17-4.45,1.17-5.68,5.62-5.64C804.26,111,828.59,110.89,852.92,110.89Z" transform="translate(-80 -109)"/><path d="M1511.71,110.89c24.1,0,48.2.15,72.29-.12,4.91-.06,6.07,1.42,5.88,6.06-.37,8.85-.47,17.75,0,26.59.3,5.39-1.89,6.07-6.51,6-21.13-.21-42.27.06-63.41-.22-4.71-.06-5.9,1.05-5.87,5.83.22,40.11,0,80.22.27,120.33,0,5.51-1.56,6.57-6.64,6.36-9.92-.43-19.88-.46-29.79,0-5,.24-5.72-1.53-5.7-6,.17-40.11,0-80.23.21-120.34,0-4.86-1.06-6.43-6.12-6.2-9.71.44-19.45,0-29.17.2-3.38.08-4.31-1-4.24-4.27.19-9.71.3-19.43,0-29.13-.15-4.23,1.15-5.26,5.26-5.23C1462.67,111,1487.19,110.89,1511.71,110.89Z" transform="translate(-80 -109)"/><path d="M993.6,196.2c0,26.61-.1,53.21.09,79.82,0,4.26-.81,5.87-5.46,5.72-10.77-.36-21.56-.24-32.34-.05-3.27.06-4.26-.84-4.25-4.2q.15-81.08,0-162.15c0-3.75,1.26-4.58,4.72-4.52,10.57.19,21.15.28,31.71,0,4.41-.12,5.68,1.13,5.64,5.6C993.49,143,993.6,169.6,993.6,196.2Z" transform="translate(-80 -109)"/><path class="cls-3" d="M409.89,237.6c9.51,0,19,.12,28.54-.06,3.61-.07,5.37.66,5.28,4.82-.24,12-.17,24.08,0,36.12,0,3.29-.57,5-4.47,5q-29.81-.24-59.63,0c-3.49,0-4.23-1.35-4.2-4.5.14-12.25.18-24.5,0-36.75-.06-3.64,1.14-4.73,4.71-4.66C390,237.73,400,237.6,409.89,237.6Z" transform="translate(-80 -109)"/><path class="cls-1" d="M322.11,173.45c9.72,0,19.45.16,29.16-.08,3.9-.1,5.56.65,5.45,5.08-.33,12-.24,24.07,0,36.09.06,3.62-1.06,4.65-4.65,4.62q-30.12-.22-60.23,0c-3.36,0-4.95-.64-4.88-4.48q.31-18.36,0-36.72c-.07-3.73,1.29-4.63,4.76-4.57C301.82,173.57,312,173.45,322.11,173.45Z" transform="translate(-80 -109)"/><path class="cls-1" d="M496.52,219.09c-9.72,0-19.44-.15-29.16.07-3.83.09-5.63-.56-5.51-5.06.32-12,.23-24.06,0-36.09-.05-3.53.95-4.67,4.58-4.64q30.42.24,60.86,0c3.71,0,4.58,1.2,4.52,4.69-.19,12-.21,24.06,0,36.09.07,3.8-.87,5.15-4.9,5C516.82,218.89,506.67,219.09,496.52,219.09Z" transform="translate(-80 -109)"/><path class="cls-1" d="M497.15,237.61c10.15,0,20.3.12,30.45-.07,3.39-.06,4.51,1.12,4.2,4.39-1.46,15.36-7.08,28.54-19.84,38a17,17,0,0,1-10.6,3.52q-17.13-.21-34.26,0c-3.48,0-5.36-.37-5.25-4.69.31-12.24.26-24.5,0-36.74-.07-3.87,1.5-4.51,4.83-4.46C476.85,237.7,487,237.6,497.15,237.61Z" transform="translate(-80 -109)"/><path class="cls-1" d="M322.08,237.61c9.73,0,19.45.13,29.17-.07,3.86-.09,5.6.62,5.47,5.12-.35,12-.24,24.07,0,36.1.06,3.54-.95,4.76-4.6,4.69-11.62-.2-23.25-.17-34.87,0-5,.07-9-2.23-12.57-5.22-11.16-9.37-15.91-21.95-17.65-36-.46-3.69,1.14-4.72,4.66-4.66C301.79,237.72,311.94,237.61,322.08,237.61Z" transform="translate(-80 -109)"/><path class="cls-4" d="M1589.86,267.83c.16-4.08-2.31-7.86,0-12.39,1.41-2.76-1.08-6-4.83-6.76-10.46-2.19-12.66-.42-12.66,10.2v1.25c0,2.53-.08,5.06,0,7.57.08,1.28-.81,3.48,1.3,3.56,2.79.11,1.81-2.52,1.61-3.79-1-5.94,2.51-5.91,6.72-5.63s4.36,3.14,4.5,6.19c.07,1.69,0,3.77,2.49,3.33S1589.81,269.06,1589.86,267.83Zm-9.07-9.08c-2.44-.09-5.6,1.23-5.51-3.54.08-4.06,2.48-3.61,5.94-3.47,1.57.26,5.06-1,5.29,3.24S1583.53,258.85,1580.79,258.75Z" transform="translate(-80 -109)"/><path class="cls-5" d="M1589.86,267.83c.16-4.08-2.31-7.86,0-12.39,1.41-2.76-1.08-6-4.83-6.76-10.46-2.19-12.66-.42-12.66,10.2v1.25c0,2.53-.08,5.06,0,7.57.08,1.28-.81,3.48,1.3,3.56,2.79.11,1.81-2.52,1.61-3.79-1-5.94,2.51-5.91,6.72-5.63s4.36,3.14,4.5,6.19c.07,1.69,0,3.77,2.49,3.33S1589.81,269.06,1589.86,267.83Zm-9.07-9.08c-2.44-.09-5.6,1.23-5.51-3.54.08-4.06,2.48-3.61,5.94-3.47,1.57.26,5.06-1,5.29,3.24S1583.53,258.85,1580.79,258.75Z" transform="translate(-80 -109)"/></svg>