<svg id="Layer_1" data-name="Layer 1" xmlns="http://www.w3.org/2000/svg" viewBox="0 0 511.95 208.48"><defs><style>.cls-1{fill:#231f20;}.cls-2{fill:#00b188;}.cls-3{fill:#242021;}</style></defs><path class="cls-1" d="M745,237.66V194.89c0-1.25,0-2.52,0-3.77,0-.94-.28-1.31-1.26-1.29-2.44,0-4.87,0-7.31,0-2.2,0-2.06-.27-2.06,2,0,4,0,8,0,12v3.57a17.51,17.51,0,0,0-4.74-2.93c-6.83-2.22-13.8-.44-17.77,6.41-2.91,5-3.38,10.47-2.45,16.08a18.18,18.18,0,0,0,3.74,8.65,13.34,13.34,0,0,0,10.93,5.34c3.91,0,7.4-1,10.14-3.9.59.41.38.9.4,1.3.09,1.78.08,1.79,1.84,1.8,2,0,4,0,6,0C745.32,240.12,745,240.27,745,237.66Zm-11.93-8.16a7.62,7.62,0,0,1-12.77-3.37,13.64,13.64,0,0,1,.05-7.88,6.93,6.93,0,0,1,5.44-5.27,7.81,7.81,0,0,1,7.67,2.39,3.1,3.1,0,0,1,.94,2.39c-.08,1.47,0,3,0,4.42s-.08,2.82,0,4.21A3.64,3.64,0,0,1,733.05,229.5Z" transform="translate(-233.05 -112.17)"/><path class="cls-1" d="M706.12,214.72a23.38,23.38,0,0,0-4.41-.82c-4.34-.2-7.36,2.62-7.38,7,0,5.76,0,11.53,0,17.29,0,1.94,0,2-1.92,2h-6.88c-1.77,0-1.79,0-1.8-1.82V210.37c0-1.63,0-3.25,0-4.88,0-.87.33-1.14,1.17-1.13q4,0,8,0c.84,0,1.2.28,1.16,1.16,0,1.21,0,2.42,0,4.15.82-1.09,1.27-1.73,1.76-2.35,2.3-2.89,5.34-3.76,8.89-3.21,1,.15,1.53.55,1.49,1.74C706.05,208.72,706.12,211.59,706.12,214.72Z" transform="translate(-233.05 -112.17)"/><path class="cls-2" d="M438.43,115.49c0-3.7.45-3.28-3.36-3.28H236.71c-.61,0-1.22,0-1.83,0-1.26-.13-2,.24-1.8,1.68a11.45,11.45,0,0,1,0,1.31q0,26.51,0,53c0,3.25-.38,2.87,2.93,2.87q49.78,0,99.57,0h99.83c3.44,0,3,.31,3-3.1Q438.45,141.73,438.43,115.49ZM425.55,128q0,13.62,0,27.27c0,.52,0,1,0,1.56.07,1-.3,1.47-1.32,1.43-.78,0-1.56,0-2.35,0H249c-3.39,0-3.1.32-3.1-3q0-13.65,0-27.29c0-3.15-.21-3,2.93-3H422.48C425.92,125,425.55,124.64,425.55,128Z" transform="translate(-233.05 -112.17)"/><path class="cls-1" d="M478.37,231.52c0,2.64,0,5.14,0,7.63a.87.87,0,0,1-.73.94c-4.55,1.18-9.07,1.46-13.35-.88-2.37-1.3-3.41-3.61-4-6.14a21.79,21.79,0,0,1-.5-4.84c0-4.58,0-9.17,0-13.75,0-1.57,0-1.6-1.56-1.61-3.55,0-7.1,0-10.64,0-1.21,0-1.48.45-1.47,1.56.06,4.28,0,8.57,0,12.86a8.61,8.61,0,0,0,.2,1.75,3.3,3.3,0,0,0,3.35,3,13.59,13.59,0,0,0,2.21,0c.65-.06,1.29-.22,2.13-.37,0,2.61,0,5.11,0,7.61,0,.7-.45.88-1,1-4,1-8.07,1.2-12-.39-3.46-1.41-4.77-4.43-5.29-7.89a54.94,54.94,0,0,1-.33-8.41c0-3,0-6.06,0-9.09,0-1.51,0-1.47-1.61-1.55-1.23-.07-2.81.56-3.59-.35s-.23-2.41-.23-3.66-.56-3.11.23-4.09,2.63-.31,4-.36c1,0,1.23-.48,1.21-1.36,0-2.37,0-4.74,0-7.1,0-1.08.37-1.42,1.42-1.4q4,.08,8,0c1,0,1.28.33,1.26,1.27-.05,2.29,0,4.59,0,6.88,0,1.63,0,1.66,1.53,1.67,3.55,0,7.1,0,10.65,0,1.2,0,1.51-.43,1.48-1.55-.06-2.29,0-4.58,0-6.87,0-1,.21-1.48,1.34-1.45q4,.1,8,0c1.12,0,1.37.43,1.35,1.44-.06,2.29,0,4.59,0,6.88,0,1.1.25,1.61,1.48,1.54,1.77-.09,3.55,0,5.32,0,.86,0,1.17.33,1.15,1.18q-.06,3.11,0,6.21c0,.89-.37,1.14-1.2,1.13-1.77,0-3.55,0-5.32,0-1,0-1.45.2-1.43,1.33.06,4.59,0,9.17.06,13.75,0,2.79,1.36,4,4.15,4.06A13.26,13.26,0,0,0,478.37,231.52Z" transform="translate(-233.05 -112.17)"/><path class="cls-1" d="M243.7,189.85a4.51,4.51,0,0,1,.29,2.5c0,5.25,0,10.5,0,15.74,0,1.61,0,1.64,1.56,1.65H262c1.58,0,1.61,0,1.62-1.59,0-5.32,0-10.64,0-16,0-.51,0-1,0-1.55s.26-.79.8-.79h9.31c.58,0,.75.33.75.84s0,.88,0,1.33v45.88c0,.44,0,.89,0,1.33,0,.68-.32.88-1,.88-3,0-5.91,0-8.87,0-.95,0-1.06-.49-1.06-1.25,0-3,0-6.06,0-9.09s0-6.06,0-9.08c0-1-.29-1.46-1.37-1.45-5.62,0-11.24.05-16.86,0-1.3,0-1.39.65-1.39,1.66,0,5.39,0,10.78,0,16.18,0,.44,0,.88,0,1.33,0,1.66,0,1.67-1.75,1.69h-7.53c-1.74,0-1.65,0-1.65-1.74,0-3.7,0-7.39,0-11.08v-35c0-.52,0-1,0-1.56s.32-.88,1-.87C237.26,189.86,240.51,189.85,243.7,189.85Z" transform="translate(-233.05 -112.17)"/><path class="cls-1" d="M533.41,205.08c-.56-6.19-3.31-10.94-9.21-13.5a21,21,0,0,0-8.41-1.71c-5.91,0-11.82,0-17.72,0-1.78,0-1.8,0-1.81,1.81v27c0,6.58,0,13.14,0,19.72,0,1.67,0,1.69,1.71,1.7,2.5,0,5,0,7.53,0,1.7,0,1.72,0,1.72-1.69,0-4.06,0-8.12,0-12.18,0-2.71-.37-2.37,2.3-2.4a87.28,87.28,0,0,0,9.29-.29c7.11-.84,12.28-5,14-11.43A20.14,20.14,0,0,0,533.41,205.08Zm-17.26,9.27c-2.64.47-5.3.14-8,.23-.84,0-1-.47-.94-1.14,0-2.21,0-4.43,0-6.65s0-4.43,0-6.64c0-.76.27-1.05,1-1,2.36,0,4.74-.07,7.1.07,4.18.24,6.79,3,7,7.14C522.54,210.81,520.41,213.6,516.15,214.35Z" transform="translate(-233.05 -112.17)"/><path class="cls-1" d="M342.4,219.59l-4.15,15.51c-.36,1.35-.74,2.7-1.09,4.06a1.12,1.12,0,0,1-1.24,1c-2.58,0-5.17,0-7.76,0a1,1,0,0,1-1.09-.86c-.06-.28-.2-.55-.29-.83l-10-32.37a2.4,2.4,0,0,1-.14-1.69c3,0,6.12,0,9.21,0,1,0,1.16.62,1.37,1.38,1.3,4.69,2.63,9.38,4,14.06.46,1.63.93,3.26,1.44,5a2.79,2.79,0,0,0,.76-1.55q2.26-8.56,4.53-17.12c.48-1.78.49-1.79,2.36-1.8,1.7,0,3.41.1,5.1,0,1.33-.1,1.76.47,2.07,1.65,1.47,5.64,3,11.26,4.53,16.89a5.8,5.8,0,0,0,.7,1.92,9.27,9.27,0,0,0,1.07-3.08c1.53-5.24,3-10.49,4.48-15.76.32-1.18.78-1.68,2.1-1.63,2.73.13,5.46,0,8.16,0,.4.71,0,1.25-.14,1.76q-5,16.08-10,32.14c-.57,1.84-.58,1.84-2.58,1.85h-5.1c-2.47,0-2.47,0-3.09-2.3q-2.21-8.12-4.41-16.24A5,5,0,0,0,342.4,219.59Z" transform="translate(-233.05 -112.17)"/><path class="cls-1" d="M641.49,240.12c-3.78,0-7.47,0-11.16,0-.93,0-1.25-.64-1.65-1.25q-4-6.21-8.12-12.42c-.39-.6-.8-1.2-1.25-1.88-.59.47-.42,1-.42,1.48,0,4.13,0,8.27,0,12.41,0,1.6,0,1.63-1.56,1.64-2.59,0-5.18,0-7.76,0-.95,0-1.38-.3-1.28-1.27,0-.44,0-.88,0-1.33V192.33c0-.44,0-.88,0-1.32,0-.81.21-1.2,1.12-1.18,2.81,0,5.62,0,8.43,0,.75,0,1.08.27,1,1,0,.52,0,1,0,1.56q0,11.4,0,22.82a7.24,7.24,0,0,0,.14,2.41c.71.15.84-.49,1.11-.84,2.82-3.7,5.65-7.4,8.41-11.14a2.77,2.77,0,0,1,2.55-1.33c3.44.09,6.89,0,10.37,0,0,.89-.52,1.25-.86,1.68-3.52,4.47-7.07,8.91-10.59,13.39-1.51,1.92-1.38,1.3-.15,3.12,3.62,5.31,7.28,10.6,10.9,15.9A2.6,2.6,0,0,1,641.49,240.12Z" transform="translate(-233.05 -112.17)"/><path class="cls-1" d="M676,215.6a12.08,12.08,0,0,0-8.3-10.74,24.5,24.5,0,0,0-11.36-1.14,24.93,24.93,0,0,0-7.87,2.13c-.66.3-1.35.53-1.34,1.52,0,2.48,0,5,0,7.41.23.09.32.15.37.12.68-.26,1.36-.55,2-.84a18.86,18.86,0,0,1,12.33-1.23,4.28,4.28,0,0,1,3.6,4.21c.13,1.21,0,1.35-1.15,1.14s-2.3-.54-3.47-.68c-4-.47-7.84-.27-11.41,1.72a10.58,10.58,0,0,0-5.81,10.2,10.78,10.78,0,0,0,6.49,10,14.38,14.38,0,0,0,8.64,1.1,12.82,12.82,0,0,0,6.71-3.44c.52.44.35.92.32,1.31-.11,1.65.19,1.72,1.76,1.69,2.29,0,4.58,0,6.87,0,1.7,0,1.74,0,1.74-1.7,0-4.73,0-9.45,0-14.18C676.1,221.36,676.28,218.47,676,215.6Zm-10.81,14a5.78,5.78,0,0,1-4.23,3.26,8.93,8.93,0,0,1-3.3,0,3.81,3.81,0,0,1-3.53-4.07,3.71,3.71,0,0,1,3.37-4c.87-.16,1.76-.21,2.51-.29,1,.12,1.9.19,2.77.34C665.53,225.37,666.4,227,665.16,229.61Z" transform="translate(-233.05 -112.17)"/><path class="cls-1" d="M567.44,217.77a20.16,20.16,0,0,0-.16-2.21,12.05,12.05,0,0,0-8.34-10.72,24.58,24.58,0,0,0-11.57-1.08,25.1,25.1,0,0,0-7.66,2.11c-.57.27-1.27.45-1.27,1.33v7.58c.28.1.36.17.41.15l2-.89a18.93,18.93,0,0,1,12.33-1.2,4.44,4.44,0,0,1,3.62,4.47c0,.8-.25,1.08-1,.92-1.15-.24-2.3-.54-3.47-.69-4-.52-7.83-.35-11.43,1.6a10.55,10.55,0,0,0-6,10.31c.17,4.66,2.3,8.26,6.72,10.08,5.24,2.15,10.24,1.83,14.68-2.07a.57.57,0,0,1,.69-.19c0,.37.06.78.08,1.21.08,1.59.07,1.62,1.57,1.63,2.37,0,4.72,0,7.09,0,1.66,0,1.69,0,1.69-1.73Q567.48,228.06,567.44,217.77Zm-15.09,15.07a13.5,13.5,0,0,1-1.64.2,9.83,9.83,0,0,1-2.73-.39,3.76,3.76,0,0,1-2.56-4,3.5,3.5,0,0,1,2.64-3.65,13.12,13.12,0,0,1,7.84.35c.75.26.93.78,1,1.53A5.55,5.55,0,0,1,552.35,232.84Z" transform="translate(-233.05 -112.17)"/><path class="cls-1" d="M426.52,217.31c-.78-5.12-2.83-9.5-7.68-12-6.7-3.42-17.78-2.59-22.9,7.13a21.47,21.47,0,0,0-1.82,14.86c1.47,7,5.86,11.26,12.7,13a25.53,25.53,0,0,0,10.12.26,17.72,17.72,0,0,0,6.06-2c.56-.32,1.27-.56,1.27-1.39,0-2.47,0-4.94,0-7.31-.33-.13-.41-.2-.45-.18l-1.8.84A16.76,16.76,0,0,1,410.19,232c-3.29-.82-5.33-3-6.2-6.57h2.71c6.21,0,12.41,0,18.62,0,1.11,0,1.59-.23,1.57-1.47A52.16,52.16,0,0,0,426.52,217.31Zm-22.34.71c.58-4.39,3.25-6.5,7.64-6.13,3.3.28,5.1,2.48,4.91,6.13Z" transform="translate(-233.05 -112.17)"/><path class="cls-1" d="M312.08,211.79a13.22,13.22,0,0,0-6.51-6.69c-7.63-3.43-18.71-1.7-23.17,8.78a21.61,21.61,0,0,0-.71,15.17,15.07,15.07,0,0,0,7.56,9.42c6.68,3.44,13.51,3.22,20.34.41.4-.17.76-.45,1.15-.65a1,1,0,0,0,.57-.88,61.51,61.51,0,0,0-.12-7.67,7,7,0,0,0-2.37,1A16.81,16.81,0,0,1,297.39,232c-3.3-.81-5.35-2.91-6.25-6.58h22a.7.7,0,0,0,.82-.78C314,220.23,314,215.88,312.08,211.79ZM291.46,218c-.12-3.52,2.53-6.09,6.4-6.15s6.08,2,6.09,6.15Z" transform="translate(-233.05 -112.17)"/><path class="cls-1" d="M233.07,281.8q0-11.76,0-23.51c0-1.69,0-1.72,1.67-1.72q13.88,0,27.73,0c1.63,0,1.69,0,1.64,1.76,0,1.38.63,3.12-.32,4s-2.54.25-3.85.26c-6,0-12,0-18,0-1.86,0-1.88,0-1.89,1.75,0,4.07,0,8.13,0,12.2,0,1.13.32,1.51,1.5,1.5,6.13-.06,12.27,0,18.41,0,2.08,0,2-.05,1.91,1.93,0,1.24.53,2.78-.26,3.64s-2.38.31-3.6.32c-5.4,0-10.8,0-16.2,0-1.7,0-1.73,0-1.74,1.69,0,4.51,0,9,0,13.53,0,1.5,0,1.53,1.6,1.53h21.52c.64,0,.94.25.93.9,0,1.48,0,3,0,4.44,0,.55-.31.79-.83.79H234.9c-1.8,0-1.82,0-1.82-1.78Q233.07,293.44,233.07,281.8Z" transform="translate(-233.05 -112.17)"/><path class="cls-1" d="M429.9,285.37a18.9,18.9,0,0,0-3.82-9.09c-5-6.38-15.44-7.61-21-1.87a.75.75,0,0,1-.88.32c-.05-1-.11-2.06-.18-3.28-1.92,0-3.76,0-5.59,0-.81,0-1,.38-1,1.09,0,.52,0,1,0,1.56q0,20.71,0,41.45c0,1.54-.65,3.52.28,4.51s3.08.33,4.68.39,1.71,0,1.71-1.69c0-4.37,0-8.73,0-13.09v-2.5a16.81,16.81,0,0,0,5.65,3.68,15,15,0,0,0,17.63-6.7A22.1,22.1,0,0,0,429.9,285.37Zm-8.19,10.87a9.78,9.78,0,0,1-16.59,1.33,4.53,4.53,0,0,1-1.05-3.05c.08-1.77,0-3.54,0-5.31s.05-3.54,0-5.31a4.56,4.56,0,0,1,1-3.06A9.74,9.74,0,0,1,421.67,282,15,15,0,0,1,421.71,296.24Z" transform="translate(-233.05 -112.17)"/><path class="cls-1" d="M601.57,215c-1,.23-1.33-.34-1.82-.62a13.69,13.69,0,0,0-6.53-1.86,8.86,8.86,0,0,0-9.36,7.41,11.24,11.24,0,0,0,.37,6.11c1.43,4.21,5.7,6.54,10.52,5.78a13.76,13.76,0,0,0,5.17-1.87,2.25,2.25,0,0,1,1.63-.61c0,2.79,0,5.56,0,8.33,0,.71-.63,1-1.13,1.25a14.85,14.85,0,0,1-5.88,1.83,24.31,24.31,0,0,1-7.93-.37A17.38,17.38,0,0,1,573,224.82a23,23,0,0,1,.61-8.35,17.64,17.64,0,0,1,16.26-12.87A19.89,19.89,0,0,1,600,205.3a2.4,2.4,0,0,1,1.61,2.55C601.48,210.25,601.57,212.66,601.57,215Z" transform="translate(-233.05 -112.17)"/><path class="cls-1" d="M364,282.7c-1.3-5.85-4.38-10.15-10.5-11.58a15.43,15.43,0,0,0-18.24,9.37,22.52,22.52,0,0,0-1,14.77c1.68,6.25,5.66,10.23,12,11.74a22.75,22.75,0,0,0,11-.2,13.28,13.28,0,0,0,3.84-1.68,1.71,1.71,0,0,0,1-1.58c0-1.53,0-3.06,0-5.2a16,16,0,0,1-12.38,3.26,10.39,10.39,0,0,1-9.22-9.09c-.17-1.31-.17-1.33,1.22-1.35s2.82,0,4.22,0c5.68,0,11.38,0,17.07,0,1.53,0,1.55,0,1.56-1.6A30.87,30.87,0,0,0,364,282.7Zm-23.49,2.81a12.67,12.67,0,0,1,2.18-5.41,8.71,8.71,0,0,1,10-3.21c2.94,1,4.36,3.35,5,6.24.17.71.22,1.45.32,2.17C356.47,285.75,344.63,285.9,340.51,285.51Z" transform="translate(-233.05 -112.17)"/><path class="cls-1" d="M539.18,277.92a12.3,12.3,0,0,0-7.32-6.37c-7.25-2.29-15.39,0-19.25,7.92a22.71,22.71,0,0,0-1.8,14.47,15.77,15.77,0,0,0,13.1,13.26,21.84,21.84,0,0,0,10.73-.6,15.07,15.07,0,0,0,3.41-1.57,1.38,1.38,0,0,0,.81-1.21c0-1.66,0-3.33,0-4.89a.88.88,0,0,0-1,.2,15.59,15.59,0,0,1-10.32,2.57c-5.46-.37-9-3.45-10.15-8.82-.36-1.69-.36-1.72,1.4-1.72q10.08,0,20.16,0h1.54c.63,0,.93-.28.94-.94C541.46,286,541.17,281.78,539.18,277.92Zm-21.77,7.63a11.33,11.33,0,0,1,1.37-4.23A8.7,8.7,0,0,1,529,276.76c3.54.92,5.76,4.29,5.73,8.79Z" transform="translate(-233.05 -112.17)"/><path class="cls-1" d="M390.6,231.69c0,2.6,0,5.11,0,7.61,0,.89-.43,1.18-1.14,1.29-3.79.6-7.52.54-11-1.41a8.09,8.09,0,0,1-3.82-6,23.16,23.16,0,0,1-.4-4.4q0-18.5,0-37c0-.37,0-.74,0-1.11,0-.67.32-.9.95-.89,2.95,0,5.91,0,8.86,0,.55,0,.81.23.81.78s0,1.18,0,1.77q0,17.5,0,35c0,4.35.94,5.12,5.17,4.28A2.39,2.39,0,0,1,390.6,231.69Z" transform="translate(-233.05 -112.17)"/><path class="cls-1" d="M279.57,275.93c.22-.26.44-.53.67-.79,3.65-4.18,8.27-5.21,13.46-3.9,4.86,1.23,7.25,4.78,8.14,9.48a23.49,23.49,0,0,1,.38,4.19c0,6.71,0,13.43,0,20.15,0,1.78,0,1.79-1.83,1.81-1.18,0-2.37-.05-3.55,0-.93.05-1.35-.25-1.3-1.24s0-2.21,0-3.32c0-5.54,0-11.08,0-16.61a19.7,19.7,0,0,0-.22-2.87c-.62-3.76-3-5.9-6.79-6a9.24,9.24,0,0,0-8,3.86,6.43,6.43,0,0,0-1.32,4.11c.06,6.72,0,13.44,0,20.16,0,1.89,0,1.94-1.94,1.89-1.53,0-3.48.68-4.46-.36s-.25-2.82-.25-4.28q0-14.18,0-28.36c0-.51,0-1,0-1.55s.16-.84.74-.84h5.1c.71,0,.84.42.83,1,0,1.11,0,2.21,0,3.32Z" transform="translate(-233.05 -112.17)"/><path class="cls-1" d="M502.83,279.79c-1,0-1.49-.7-2.1-1.05a15.5,15.5,0,0,0-11.27-2.07,5.61,5.61,0,0,0-2.57,1.24,3.43,3.43,0,0,0,.36,5.65,19.93,19.93,0,0,0,4.88,2,46.25,46.25,0,0,1,7,2.65c4.62,2.45,6.4,6.52,5,11.5a9.34,9.34,0,0,1-4,5.39,12.64,12.64,0,0,1-4.68,1.92,24.13,24.13,0,0,1-14.73-1.6,2.55,2.55,0,0,1-1.8-2.88c.15-1.43,0-2.88,0-4.68a18.49,18.49,0,0,0,7,3.44,17.43,17.43,0,0,0,7.9.27,7.16,7.16,0,0,0,2.62-1.15,3.62,3.62,0,0,0-.15-6.14,14.89,14.89,0,0,0-3.43-1.54c-1.74-.61-3.5-1.15-5.24-1.77-1-.38-2.05-.82-3.06-1.26-7.63-3.36-6.37-12.94-1.37-16.42a14,14,0,0,1,6.78-2.47,21.13,21.13,0,0,1,11.43,1.91,2.19,2.19,0,0,1,1.44,2.41C502.74,276.69,502.83,278.22,502.83,279.79Z" transform="translate(-233.05 -112.17)"/><path class="cls-1" d="M329.29,301c0,1.83-.07,3.3,0,4.76a1.28,1.28,0,0,1-1.27,1.48c-3.49.54-6.94.52-10.14-1.19s-4.33-4.93-4.39-8.39c-.1-5.68,0-11.36-.05-17.05,0-.81,0-1.62,0-2.43s-.32-1-1.06-1c-1.25,0-2.51,0-3.76,0-.89,0-1.4-.19-1.34-1.22a30.64,30.64,0,0,0,0-3.32c-.06-1,.43-1.25,1.33-1.21s2.06,0,3.1,0c1.74,0,1.74.13,1.73-1.64,0-2,0-4,0-6,0-1.81-.09-1.78,1.85-1.77,1.11,0,2.22.06,3.32,0s1.59.22,1.53,1.45c-.09,2.06,0,4.13,0,6.19,0,1.83-.12,1.77,1.84,1.76h5.54c1.75,0,1.75,0,1.77,1.86v2c0,1.86,0,1.86-2,1.87s-3.84.05-5.75,0c-1,0-1.45.21-1.44,1.34.06,6,0,11.95.05,17.93,0,3.37,1.7,5,5,5.16A8.84,8.84,0,0,0,329.29,301Z" transform="translate(-233.05 -112.17)"/><path class="cls-1" d="M445,276.08c.66-.85,1.15-1.6,1.75-2.24,2.5-2.7,5.65-3.27,9.13-2.76.87.13,1.22.62,1.19,1.53-.06,1.69,0,3.39,0,5.29l-2.62-.44c-5.44-.86-9.65,2.69-9.66,8.16q0,9.75,0,19.5c0,1.71,0,1.72-1.65,1.74-1.33,0-2.66,0-4,0-.77,0-1.07-.32-1-1.05,0-.45,0-.89,0-1.33V273.7c0-.45,0-.89,0-1.33,0-.65.27-.95.91-.92h.67c1.55,0,3.38-.48,4.57.18C445.63,272.4,444.32,274.47,445,276.08Z" transform="translate(-233.05 -112.17)"/><path class="cls-1" d="M379.08,276.36c.9-1.15,1.39-1.9,2-2.54,2.5-2.69,5.66-3.25,9.13-2.74a1.18,1.18,0,0,1,1.15,1.34c0,1.76,0,3.53,0,5.49-1.14-.2-2.11-.41-3.1-.53a7.93,7.93,0,0,0-9.15,8.07c0,6.57,0,13.14,0,19.71,0,1.68,0,1.68-1.69,1.71h-3.32c-1.62,0-1.65,0-1.65-1.75q0-16,0-32.11c0-1.52,0-1.53,1.59-1.56,1.25,0,2.51.07,3.76,0s1.4.42,1.33,1.43S379.08,274.87,379.08,276.36Z" transform="translate(-233.05 -112.17)"/><path class="cls-3" d="M463.37,289q0-8,0-15.94c0-1.52,0-1.53,1.59-1.56h3.54c1.5,0,1.5,0,1.53,1.63,0,.22,0,.44,0,.66q0,15.39,0,30.77v1.55a.72.72,0,0,1-.82.8h-5.09c-.57,0-.75-.36-.75-.86s0-1,0-1.55Z" transform="translate(-233.05 -112.17)"/><path class="cls-3" d="M470.91,261.25a4.24,4.24,0,0,1-8.47.12,4.24,4.24,0,0,1,8.47-.12Z" transform="translate(-233.05 -112.17)"/></svg>