<svg id="Layer_1" data-name="Layer 1" xmlns="http://www.w3.org/2000/svg" viewBox="0 0 1367.34 233.53"><defs><style>.cls-1{fill:#717074;}.cls-2{fill:#717075;}</style></defs><path class="cls-1" d="M1533.1,114.55c.16-4.09-2.32-7.88,0-12.42,1.41-2.76-1.09-6-4.84-6.77-10.48-2.2-12.68-.42-12.68,10.22v1.26c0,2.53-.09,5.06,0,7.58.08,1.28-.81,3.49,1.3,3.56,2.8.12,1.82-2.52,1.62-3.79-1-6,2.52-5.93,6.73-5.65s4.37,3.16,4.51,6.21c.07,1.69,0,3.78,2.5,3.33S1533,115.78,1533.1,114.55Zm-9.09-9.1c-2.44-.09-5.61,1.23-5.52-3.55.08-4.07,2.48-3.61,6-3.47,1.57.25,5.07-1,5.3,3.24S1526.76,105.55,1524,105.45Z" transform="translate(-177.74 -86.46)"/><path class="cls-1" d="M1543.27,101c-3.58-9.8-13.09-15.9-22.67-14.29-10.67,1.8-17.95,9.94-18.17,20.31A21.1,21.1,0,0,0,1519.15,128c10.14,2,19.9-3.55,23.89-13.34.58-1.42-.06-3.53,2-4.25v-5.09C1542.85,104.58,1543.79,102.43,1543.27,101Zm-19.69,24.58a18,18,0,0,1-18.12-18,17.73,17.73,0,0,1,18-18.09,18.14,18.14,0,0,1,18,18.23A18.46,18.46,0,0,1,1523.58,125.59Z" transform="translate(-177.74 -86.46)"/><path class="cls-1" d="M1533.1,114.55c.16-4.09-2.32-7.88,0-12.42,1.41-2.76-1.09-6-4.84-6.77-10.48-2.2-12.68-.42-12.68,10.22v1.26c0,2.53-.09,5.06,0,7.58.08,1.28-.81,3.49,1.3,3.56,2.8.12,1.82-2.52,1.62-3.79-1-6,2.52-5.93,6.73-5.65s4.37,3.16,4.51,6.21c.07,1.69,0,3.78,2.5,3.33S1533,115.78,1533.1,114.55Zm-9.09-9.1c-2.44-.09-5.61,1.23-5.52-3.55.08-4.07,2.48-3.61,6-3.47,1.57.25,5.07-1,5.3,3.24S1526.76,105.55,1524,105.45Z" transform="translate(-177.74 -86.46)"/><path class="cls-1" d="M1533.1,114.55c.16-4.09-2.32-7.88,0-12.42,1.41-2.76-1.09-6-4.84-6.77-10.48-2.2-12.68-.42-12.68,10.22v1.26c0,2.53-.09,5.06,0,7.58.08,1.28-.81,3.49,1.3,3.56,2.8.12,1.82-2.52,1.62-3.79-1-6,2.52-5.93,6.73-5.65s4.37,3.16,4.51,6.21c.07,1.69,0,3.78,2.5,3.33S1533,115.78,1533.1,114.55Zm-9.09-9.1c-2.44-.09-5.61,1.23-5.52-3.55.08-4.07,2.48-3.61,6-3.47,1.57.25,5.07-1,5.3,3.24S1526.76,105.55,1524,105.45Z" transform="translate(-177.74 -86.46)"/><path class="cls-1" d="M693,233.1c0,19.31.36,38.62-.1,57.92-.46,19.5-16.74,32-35.54,27.93-12.78-2.74-21.3-15-21.42-31.36-.24-31.6-.3-63.2-.42-94.79-.07-18.53-10.94-29.17-28.63-30.25-20.94-1.27-33.9,13.24-33.85,30q.15,47.43,0,94.86c-.06,15.94-8.19,28-20.63,31.17-20.31,5.24-36.52-8.13-36.68-30.79-.24-31.06-.11-62.12-.05-93.17,0-12.61-3.43-23.59-15.91-28.92s-25.19-4.83-36.55,3.89c-7.22,5.54-10,13.14-10,22q0,44.07,0,88.14c0,6.16-.19,12.3-1.77,18.3-3.69,14-15.43,22.86-29,21.87-14.21-1-24.74-11.32-26.37-25.9a83.3,83.3,0,0,1-.33-9.22q0-54.56,0-109.12c0-9.86-4.24-14.13-12.09-12.86-5.15.84-6.38,5-8.12,8.76Q349.1,228.2,322.81,284.89a123.93,123.93,0,0,1-10.05,18.27c-15.47,22.49-44.94,22.44-60.55-.13-8.66-12.53-14-26.73-20.38-40.36-17.26-36.66-34.24-73.45-51.24-110.23-5.63-12.19-2.73-25.37,6.86-32.63a28.66,28.66,0,0,1,35.21.07c5.64,4.35,7.87,10.83,10.51,16.93,15.18,35.15,30.17,70.37,45.26,105.56.94,2.2,1,5.6,4,5.79,3.35.21,3.13-3.46,4-5.54,11.46-26.41,22.93-52.82,34.1-79.35,6.84-16.25,15.3-31.18,31-40.61,25.61-15.41,59.35-11.09,81.35,11,5.81,5.84,9.18,5.14,15,.47,23.9-19,50.64-25.84,80.52-16.38,10.38,3.29,19.64,8.82,26.52,17.12,4.46,5.38,6.92,4,11.38.35,24.39-20.22,51.93-27.21,82.54-17.1,26.72,8.83,43.9,33.18,44.12,61.22.15,17.91,0,35.81,0,53.72Z" transform="translate(-177.74 -86.46)"/><path class="cls-2" d="M852.47,164.74c-3.51,2.14-3.47,6.16-4.62,9.39Q825,238.51,802.32,303c-2.51,7.1-5.56,13.61-14.36,14.52-9.05.93-14.6-3-18.51-13.65q-18.72-51.16-37.2-102.42c-7.52-20.75-15.06-41.49-22.47-62.28-3.95-11.09-1.17-17.79,8.3-20.88,7.62-2.48,14.56,2,18.08,12.07q23.36,66.81,46.6,133.67c.9,2.57,2,5.07,3.52,8.84,5.9-9.62,8.1-19.39,11.4-28.58,13.17-36.81,25.81-73.82,38.68-110.74,1.56-4.47,2.82-9.21,6.55-12.47,8.36-7.28,20.49-3.49,24.76,8.27,7.74,21.27,14.93,42.75,22.37,64.13q12.53,36,25.1,72c.72,2.07,1.64,4.07,2.52,6.21,4.09-1.35,3.83-4.93,4.77-7.56Q946.34,197,970.05,129.82c3.64-10.24,10.06-14.15,18.07-11.21,8.43,3.1,10.84,9.61,7,20.08q-29.71,82-59.59,163.87c-2.33,6.4-5.31,12.59-12.63,14.6-9.29,2.56-16.34-1.87-20.33-13-8.11-22.62-16-45.33-23.91-68q-11.52-32.83-23-65.69C855,168.39,854.86,166,852.47,164.74Z" transform="translate(-177.74 -86.46)"/><path class="cls-2" d="M1172.25,190.21c-.34-31-16.73-56.3-43.68-65.64-33.16-11.5-66.33-9.23-98.64,4.31-7.14,3-9.78,9.64-7.06,15.74s9.4,9.08,16.24,6c18-8.08,36.83-9.43,56.1-8.13,32.44,2.2,50.55,22,50.25,54.23,0,6.49-1.83,7.32-7.79,5.63-23-6.53-46.59-7.55-70.23-5.83a88.65,88.65,0,0,0-42.06,13.68c-30.42,19.6-35,62.58-9.29,88,26.88,26.66,79.49,28.44,111.22,3.67,5.65-4.41,11-9.24,18-15.18,0,6.2,0,10.38,0,14.56.08,10,5.66,16.89,13.6,16.83,7.6-.07,13.34-6.78,13.37-16.27C1172.4,264.65,1172.66,227.42,1172.25,190.21Zm-36.39,83.13A61,61,0,0,1,1112,291.26c-19.11,7.92-38.69,9.23-58.27,2.12-16.65-6-25.75-19.05-25.9-35.51-.17-16.9,9-30.18,25.57-36.61a116.2,116.2,0,0,1,12.87-3.64c8-2.07,16.17-1.55,24.3-1.68a182.4,182.4,0,0,1,49.83,6.8c2.41.66,5.25.8,5.3,4.26C1145.88,243.15,1147.36,259.44,1135.86,273.34Z" transform="translate(-177.74 -86.46)"/><path class="cls-1" d="M1355.72,228.15c21.65.24,43.32.1,65,.1,21.94,0,43.88.06,65.83,0,12.27-.06,17.57-5.62,16.5-17.84a135.51,135.51,0,0,0-3.62-23.16c-8.82-33-27.63-57.42-62-66.59s-64.93-.69-89.28,25.08c-23.9,25.28-31,56.42-26.27,90.23,3.48,24.63,14.47,45.66,34,61.72,22.1,18.18,47.78,24,75.77,20.9,22.61-2.49,41.7-12.57,57.94-28.15,5-4.82,6.81-10.27,1.55-16.21-4.77-5.36-10.94-5.54-17.1-.51-3,2.48-6,5.06-9.17,7.35-39.4,28.14-105.64,17.77-115.87-45.66C1348,228.69,1350.1,228.07,1355.72,228.15Zm-6.51-26c4.46-47.19,52.36-76,92-54.83,21.81,11.66,30.06,31.89,33.44,54.92.77,5.27-1.74,5.95-6.15,5.91-18.83-.18-37.66-.08-56.48-.08v0c-19.12,0-38.22-.1-57.33.07C1350.15,208.19,1348.7,207.51,1349.21,202.13Z" transform="translate(-177.74 -86.46)"/><path class="cls-2" d="M1238.18,162.3c5.37-2.29,6.39-6.12,8.34-9,13-19.42,31.32-30.59,54.06-35a30.14,30.14,0,0,1,5-.46c8.6-.24,14.43,4.47,15.23,12.25.83,8.07-3.45,14.42-11.91,15.47-47.74,5.9-71,44.2-70.75,87.45q.15,34,0,67.94c0,6.47-2,12.2-8.46,15.16-5,2.29-9.91,1.54-14.3-1.66s-5.86-8.09-5.86-13.29q-.06-83.44.06-166.9c0-9.66,6.58-16.83,14.14-16.75,8,.1,13.93,6.84,14.39,16.54.23,4.74.07,9.5.07,14.26C1238.19,152.6,1238.18,157,1238.18,162.3Z" transform="translate(-177.74 -86.46)"/></svg>